<?xml version="1.0" standalone="no"?>
<!DOCTYPE svg PUBLIC "-//W3C//DTD SVG 1.1//EN" "http://www.w3.org/Graphics/SVG/1.1/DTD/svg11.dtd">
<svg width="100%" height="100%" viewBox="0 0 1301 1301" version="1.1" xmlns="http://www.w3.org/2000/svg" xmlns:xlink="http://www.w3.org/1999/xlink" xml:space="preserve" style="fill-rule:evenodd;clip-rule:evenodd;stroke-linejoin:round;stroke-miterlimit:1.41421;">
    <g transform="matrix(1,0,0,1,-12877,-3033)">
        <g id="90 degree right turn" transform="matrix(0.925926,0,0,0.87557,7769.07,296.334)">
            <clipPath id="_clip1">
                <rect x="5517" y="3126.1" width="1404" height="1484.75"/>
            </clipPath>
            <g clip-path="url(#_clip1)">
                <g id="Layer1" transform="matrix(1.08,0,0,1.14211,-5780.88,-1012.29)">
                    <g transform="matrix(1,0,0,1,5660,10)">
                        <path d="M5801,3815.45l-797.999,0l0,798l-4,0l0,-800.828l1.172,-1.172l800.827,0l0,4Z" style="fill:black;"/>
                    </g>
                    <g transform="matrix(1,0,0,1,5660,10)">
                        <path d="M5801,4015.45l-648,0l0,598l-4,0l0,-600.828l1.172,-1.172l650.828,0l0,4Z" style="fill:black;"/>
                    </g>
                    <g transform="matrix(1,0,0,1,5660,10)">
                        <path d="M5283.92,3895.41l0.72,0.001l0.013,0l0.716,0.002l0.009,0l0.716,0.002l0.01,0l0.716,0.003l0.009,0l0.72,0.004l0.012,0.001l0.725,0.005l0.72,0.005l0.012,0l0.726,0.007l0.721,0.006l0.012,0.001l0.622,0.006l509.901,0l0,36l-510.049,0l-0.099,0l-0.751,-0.008l-0.693,-0.007l-0.693,-0.006l-0.692,-0.005l-0.691,-0.005l-0.687,-0.004l-0.689,-0.003l-0.688,-0.002l-0.684,-0.002l-0.686,-0.001l-0.685,0l-0.681,0.001l-0.683,0.001l-0.681,0.002l-0.678,0.003l-0.681,0.004l-0.678,0.004l-0.675,0.005l-0.676,0.006l-0.673,0.007l-0.675,0.007l-0.673,0.009l-0.67,0.009l-0.671,0.009l-0.671,0.011l-0.666,0.011l-0.665,0.012l-0.668,0.013l-0.666,0.013l-0.662,0.014l-0.661,0.015l-0.664,0.016l-0.661,0.017l-0.659,0.017l-0.656,0.018l-0.66,0.019l-0.654,0.02l-0.657,0.02l-0.656,0.021l-0.648,0.022l-0.654,0.023l-0.652,0.024l-0.648,0.024l-0.647,0.025l-0.646,0.026l-0.649,0.026l-0.648,0.028l-0.642,0.028l-0.642,0.029l-0.644,0.03l-0.638,0.03l-0.64,0.031l-0.637,0.032l-0.637,0.033l-0.638,0.034l-0.637,0.034l-0.634,0.035l-0.628,0.036l-0.634,0.037l-0.634,0.038l-0.624,0.038l-0.628,0.039l-0.631,0.04l-0.624,0.041l-0.624,0.041l-0.626,0.043l-0.622,0.043l-0.621,0.043l-0.62,0.045l-0.618,0.045l-0.62,0.047l-0.618,0.047l-0.611,0.047l-0.614,0.049l-0.617,0.05l-0.611,0.05l-0.611,0.051l-0.611,0.051l-0.607,0.053l-0.611,0.054l-0.606,0.054l-0.601,0.054l-0.603,0.056l-0.605,0.057l-0.6,0.057l-0.603,0.059l-0.6,0.059l-0.596,0.059l-0.595,0.061l-0.599,0.061l-0.595,0.063l-0.591,0.062l-0.592,0.064l-0.59,0.065l-0.59,0.065l-0.59,0.066l-0.586,0.067l-0.586,0.068l-0.585,0.069l-0.585,0.069l-0.58,0.07l-0.582,0.072l-0.579,0.071l-0.58,0.073l-0.579,0.074l-0.575,0.074l-0.578,0.075l-0.57,0.076l-0.571,0.076l-0.575,0.078l-0.568,0.078l-0.569,0.079l-0.57,0.081l-0.566,0.08l-0.564,0.082l-0.565,0.082l-0.563,0.084l-0.562,0.084l-0.557,0.084l-0.56,0.086l-0.56,0.087l-0.556,0.087l-0.557,0.088l-0.553,0.089l-0.552,0.09l-0.55,0.09l-0.553,0.092l-0.548,0.092l-0.546,0.093l-0.549,0.094l-0.544,0.094l-0.544,0.096l-0.544,0.096l-0.541,0.097l-0.54,0.098l-0.541,0.099l-0.534,0.099l-0.535,0.1l-0.538,0.102l-0.529,0.101l-0.535,0.104l-0.534,0.104l-0.53,0.104l-0.525,0.104l-0.53,0.107l-0.529,0.108l-0.518,0.106l-0.526,0.109l-0.523,0.11l-0.52,0.11l-0.523,0.111l-0.514,0.111l-0.517,0.113l-0.516,0.114l-0.517,0.115l-0.514,0.114l-0.504,0.115l-0.514,0.118l-0.513,0.118l-0.505,0.118l-0.502,0.118l-0.509,0.121l-0.504,0.121l-0.503,0.122l-0.502,0.122l-0.5,0.123l-0.499,0.125l-0.494,0.124l-0.497,0.126l-0.494,0.126l-0.495,0.128l-0.492,0.128l-0.487,0.129l-0.49,0.13l-0.489,0.13l-0.483,0.131l-0.486,0.133l-0.485,0.133l-0.484,0.134l-0.482,0.135l-0.482,0.136l-0.474,0.136l-0.475,0.136l-0.477,0.139l-0.475,0.139l-0.475,0.14l-0.469,0.139l-0.471,0.142l-0.472,0.143l-0.464,0.142l-0.464,0.143l-0.466,0.145l-0.466,0.146l-0.46,0.145l-0.458,0.146l-0.461,0.149l-0.461,0.149l-0.449,0.147l-0.461,0.153l-0.456,0.151l-0.451,0.152l-0.45,0.151l-0.446,0.153l-0.452,0.155l-0.444,0.154l-0.449,0.157l-0.447,0.158l-0.441,0.157l-0.435,0.156l-0.443,0.16l-0.441,0.161l-0.431,0.158l-0.439,0.163l-0.438,0.163l-0.431,0.163l-0.43,0.163l-0.43,0.165l-0.427,0.164l-0.431,0.168l-0.425,0.166l-0.422,0.168l-0.427,0.17l-0.422,0.169l-0.42,0.17l-0.417,0.17l-0.418,0.173l-0.415,0.172l-0.419,0.175l-0.412,0.174l-0.411,0.174l-0.411,0.176l-0.404,0.175l-0.406,0.176l-0.412,0.181l-0.403,0.178l-0.409,0.182l-0.404,0.182l-0.393,0.177l-0.398,0.182l-0.399,0.184l-0.399,0.184l-0.394,0.184l-0.392,0.185l-0.394,0.187l-0.391,0.186l-0.388,0.188l-0.39,0.189l-0.389,0.191l-0.385,0.189l-0.376,0.187l-0.384,0.193l-0.388,0.196l-0.379,0.192l-0.37,0.19l-0.376,0.194l-0.382,0.199l-0.369,0.194l-0.372,0.197l-0.374,0.2l-0.374,0.2l-0.368,0.199l-0.355,0.194l-0.368,0.203l-0.372,0.206l-0.363,0.202l-0.357,0.201l-0.356,0.202l-0.366,0.209l-0.353,0.203l-0.352,0.205l-0.354,0.207l-0.357,0.21l-0.348,0.207l-0.349,0.209l-0.354,0.213l-0.343,0.209l-0.346,0.212l-0.341,0.21l-0.348,0.217l-0.338,0.211l-0.337,0.213l-0.347,0.222l-0.335,0.214l-0.332,0.215l-0.335,0.218l-0.33,0.217l-0.334,0.221l-0.331,0.22l-0.329,0.222l-0.33,0.223l-0.324,0.221l-0.325,0.224l-0.321,0.222l-0.319,0.223l-0.327,0.23l-0.317,0.225l-0.315,0.225l-0.314,0.226l-0.316,0.229l-0.32,0.235l-0.307,0.226l-0.309,0.23l-0.31,0.232l-0.306,0.231l-0.314,0.239l-0.304,0.232l-0.301,0.234l-0.301,0.234l-0.296,0.232l-0.311,0.246l-0.297,0.237l-0.292,0.235l-0.298,0.24l-0.292,0.239l-0.298,0.246l-0.291,0.24l-0.282,0.236l-0.297,0.25l-0.284,0.241l-0.284,0.244l-0.294,0.253l-0.273,0.237l-0.28,0.246l-0.29,0.256l-0.276,0.246l-0.277,0.249l-0.289,0.261l-0.262,0.239l-0.27,0.249l-0.283,0.261l-0.273,0.256l-0.27,0.254l-0.266,0.252l-0.264,0.253l-0.266,0.257l-0.267,0.259l-0.26,0.256l-0.27,0.266l-0.263,0.263l-0.25,0.25l-0.255,0.259l-0.264,0.271l-0.256,0.263l-0.255,0.264l-0.253,0.265l-0.249,0.264l-0.259,0.275l-0.242,0.26l-0.248,0.268l-0.255,0.278l-0.233,0.257l-0.244,0.272l-0.253,0.283l-0.241,0.271l-0.238,0.271l-0.24,0.276l-0.228,0.264l-0.247,0.288l-0.234,0.276l-0.232,0.276l-0.236,0.282l-0.23,0.278l-0.23,0.279l-0.229,0.283l-0.227,0.28l-0.225,0.282l-0.236,0.298l-0.216,0.274l-0.221,0.285l-0.221,0.286l-0.221,0.289l-0.218,0.288l-0.217,0.289l-0.218,0.292l-0.216,0.293l-0.214,0.292l-0.212,0.292l-0.223,0.31l-0.201,0.281l-0.208,0.296l-0.21,0.299l-0.206,0.298l-0.206,0.299l-0.205,0.302l-0.204,0.301l-0.201,0.302l-0.203,0.306l-0.189,0.29l-0.208,0.319l-0.199,0.309l-0.194,0.305l-0.195,0.308l-0.188,0.3l-0.192,0.31l-0.198,0.324l-0.192,0.316l-0.181,0.299l-0.187,0.315l-0.187,0.316l-0.185,0.317l-0.186,0.321l-0.183,0.319l-0.182,0.321l-0.18,0.322l-0.18,0.323l-0.172,0.311l-0.176,0.325l-0.184,0.34l-0.176,0.329l-0.166,0.314l-0.171,0.328l-0.173,0.333l-0.17,0.332l-0.169,0.334l-0.16,0.319l-0.166,0.336l-0.174,0.352l-0.165,0.339l-0.156,0.325l-0.161,0.339l-0.161,0.342l-0.152,0.327l-0.158,0.345l-0.165,0.362l-0.156,0.347l-0.148,0.332l-0.153,0.347l-0.153,0.353l-0.144,0.336l-0.149,0.351l-0.156,0.371l-0.148,0.356l-0.141,0.342l-0.145,0.359l-0.143,0.356l-0.136,0.345l-0.142,0.364l-0.141,0.363l-0.138,0.363l-0.138,0.367l-0.131,0.351l-0.134,0.367l-0.141,0.387l-0.128,0.357l-0.125,0.354l-0.136,0.39l-0.13,0.377l-0.122,0.358l-0.127,0.379l-0.126,0.38l-0.118,0.362l-0.123,0.383l-0.122,0.384l-0.121,0.385l-0.119,0.385l-0.113,0.37l-0.117,0.391l-0.116,0.39l-0.113,0.39l-0.114,0.394l-0.107,0.378l-0.11,0.396l-0.11,0.398l-0.103,0.38l-0.106,0.401l-0.106,0.402l-0.099,0.385l-0.102,0.405l-0.106,0.424l-0.097,0.39l-0.094,0.391l-0.097,0.41l-0.096,0.412l-0.095,0.413l-0.094,0.414l-0.089,0.4l-0.087,0.401l-0.093,0.436l-0.089,0.42l-0.083,0.405l-0.082,0.406l-0.084,0.425l-0.083,0.427l-0.081,0.427l-0.081,0.43l-0.076,0.414l-0.074,0.415l-0.076,0.434l-0.075,0.436l-0.073,0.437l-0.072,0.437l-0.068,0.423l-0.069,0.442l-0.066,0.427l-0.065,0.444l-0.066,0.446l-0.061,0.43l-0.062,0.45l-0.061,0.45l-0.06,0.452l-0.056,0.437l-0.055,0.439l-0.054,0.456l-0.054,0.458l-0.051,0.443l-0.05,0.462l-0.05,0.463l-0.046,0.448l-0.047,0.466l-0.045,0.468l-0.015,0.155l0,529.183l-36,0l0,-530.401l0.036,-0.802l0.084,-0.941l0.003,-0.036l0.052,-0.558l0.004,-0.035l0.053,-0.549l0.002,-0.018l0.055,-0.548l0.003,-0.036l0.058,-0.555l0.003,-0.035l0.059,-0.545l0.002,-0.019l0.06,-0.545l0.004,-0.036l0.062,-0.551l0.005,-0.036l0.063,-0.542l0.003,-0.019l0.065,-0.541l0.004,-0.036l0.068,-0.548l0.005,-0.037l0.07,-0.546l0.004,-0.035l0.072,-0.538l0.002,-0.02l0.073,-0.536l0.005,-0.036l0.074,-0.534l0.003,-0.021l0.076,-0.541l0.008,-0.054l0.078,-0.532l0.001,-0.004l0.078,-0.531l0.009,-0.054l0.082,-0.538l0.004,-0.02l0.082,-0.528l0.006,-0.038l0.086,-0.536l0.006,-0.038l0.087,-0.526l0.004,-0.022l0.088,-0.524l0.006,-0.037l0.09,-0.524l0.004,-0.021l0.091,-0.523l0.007,-0.038l0.094,-0.53l0.007,-0.038l0.097,-0.529l0.007,-0.037l0.097,-0.519l0.005,-0.022l0.098,-0.518l0.008,-0.039l0.1,-0.516l0.004,-0.021l0.102,-0.515l0.008,-0.039l0.105,-0.523l0.008,-0.039l0.108,-0.521l0.008,-0.04l0.108,-0.512l0.005,-0.021l0.107,-0.502l0.004,-0.022l0.112,-0.517l0.013,-0.056l0.115,-0.517l0.005,-0.022l0.114,-0.507l0.009,-0.04l0.117,-0.506l0.005,-0.022l0.117,-0.505l0.01,-0.039l0.119,-0.504l0.006,-0.023l0.123,-0.511l0.014,-0.057l0.126,-0.509l0.005,-0.022l0.123,-0.491l0.006,-0.023l0.126,-0.498l0.01,-0.04l0.13,-0.506l0.011,-0.041l0.13,-0.496l0.006,-0.022l0.131,-0.495l0.011,-0.041l0.137,-0.503l0.011,-0.041l0.135,-0.493l0.007,-0.021l0.136,-0.492l0.012,-0.041l0.141,-0.499l0.011,-0.039l0.141,-0.489l0.007,-0.024l0.143,-0.489l0.012,-0.042l0.144,-0.486l0.007,-0.022l0.145,-0.485l0.012,-0.04l0.15,-0.493l0.013,-0.042l0.15,-0.484l0.007,-0.023l0.151,-0.482l0.013,-0.041l0.153,-0.48l0.007,-0.024l0.154,-0.479l0.013,-0.041l0.16,-0.487l0.013,-0.042l0.159,-0.477l0.007,-0.023l0.159,-0.475l0.015,-0.043l0.164,-0.483l0.014,-0.041l0.164,-0.473l0.008,-0.022l0.162,-0.465l0.009,-0.027l0.169,-0.48l0.02,-0.056l0.172,-0.478l0.009,-0.024l0.167,-0.46l0.009,-0.024l0.171,-0.469l0.016,-0.042l0.176,-0.475l0.015,-0.039l0.176,-0.465l0.01,-0.026l0.176,-0.465l0.016,-0.041l0.179,-0.462l0.01,-0.025l0.179,-0.46l0.016,-0.04l0.185,-0.468l0.017,-0.043l0.185,-0.461l0.011,-0.026l0.185,-0.458l0.016,-0.039l0.19,-0.464l0.018,-0.041l0.189,-0.456l0.011,-0.025l0.187,-0.445l0.01,-0.025l0.192,-0.454l0.019,-0.043l0.197,-0.46l0.017,-0.039l0.196,-0.45l0.011,-0.025l0.198,-0.45l0.019,-0.043l0.203,-0.456l0.017,-0.04l0.202,-0.446l0.012,-0.027l0.199,-0.438l0.011,-0.023l0.204,-0.445l0.019,-0.043l0.21,-0.451l0.019,-0.039l0.208,-0.442l0.012,-0.027l0.21,-0.442l0.02,-0.041l0.214,-0.446l0.019,-0.04l0.214,-0.438l0.013,-0.027l0.211,-0.429l0.012,-0.024l0.215,-0.436l0.022,-0.043l0.222,-0.442l0.019,-0.039l0.22,-0.433l0.014,-0.028l0.221,-0.432l0.02,-0.039l0.223,-0.43l0.013,-0.025l0.225,-0.431l0.023,-0.043l0.231,-0.436l0.02,-0.039l0.228,-0.426l0.014,-0.025l0.226,-0.42l0.015,-0.027l0.231,-0.425l0.021,-0.038l0.237,-0.431l0.023,-0.04l0.235,-0.422l0.014,-0.026l0.236,-0.421l0.023,-0.04l0.239,-0.42l0.014,-0.026l0.24,-0.418l0.023,-0.041l0.241,-0.416l0.014,-0.023l0.243,-0.417l0.025,-0.042l0.245,-0.415l0.014,-0.023l0.246,-0.414l0.025,-0.042l0.253,-0.42l0.023,-0.037l0.249,-0.41l0.016,-0.026l0.248,-0.404l0.017,-0.027l0.252,-0.409l0.024,-0.037l0.258,-0.413l0.023,-0.037l0.257,-0.407l0.018,-0.027l0.258,-0.406l0.026,-0.04l0.259,-0.402l0.015,-0.023l0.257,-0.396l0.018,-0.027l0.267,-0.408l0.033,-0.051l0.265,-0.399l0.008,-0.011l0.265,-0.399l0.036,-0.053l0.269,-0.397l0.007,-0.012l0.269,-0.395l0.034,-0.05l0.272,-0.395l0.009,-0.014l0.273,-0.393l0.034,-0.05l0.275,-0.391l0.008,-0.012l0.275,-0.391l0.037,-0.052l0.283,-0.396l0.018,-0.025l0.274,-0.381l0.016,-0.023l0.281,-0.387l0.029,-0.041l0.283,-0.386l0.017,-0.022l0.283,-0.384l0.028,-0.038l0.285,-0.382l0.017,-0.022l0.287,-0.383l0.03,-0.04l0.289,-0.381l0.017,-0.022l0.289,-0.379l0.029,-0.037l0.293,-0.379l0.019,-0.024l0.293,-0.377l0.029,-0.037l0.3,-0.381l0.027,-0.035l0.292,-0.367l0.009,-0.012l0.298,-0.374l0.039,-0.049l0.301,-0.372l0.01,-0.012l0.3,-0.37l0.038,-0.046l0.304,-0.369l0.012,-0.015l0.304,-0.368l0.038,-0.046l0.305,-0.364l0.008,-0.01l0.308,-0.366l0.042,-0.05l0.31,-0.365l0.009,-0.009l0.304,-0.357l0.03,-0.035l0.317,-0.367l0.028,-0.033l0.314,-0.359l0.021,-0.024l0.316,-0.36l0.03,-0.034l0.318,-0.359l0.021,-0.023l0.313,-0.35l0.019,-0.021l0.319,-0.355l0.031,-0.035l0.327,-0.36l0.031,-0.034l0.319,-0.348l0.012,-0.012l0.323,-0.351l0.039,-0.042l0.33,-0.353l0.019,-0.021l0.324,-0.344l0.024,-0.026l0.329,-0.348l0.03,-0.031l0.33,-0.345l0.022,-0.023l0.331,-0.344l0.03,-0.031l0.333,-0.343l0.022,-0.023l0.331,-0.338l0.022,-0.023l0.337,-0.341l0.032,-0.033l0.343,-0.344l0.03,-0.03l0.338,-0.337l0.02,-0.02l0.337,-0.333l0.025,-0.025l0.343,-0.336l0.03,-0.029l0.342,-0.333l0.021,-0.02l0.344,-0.333l0.033,-0.032l0.348,-0.333l0.023,-0.021l0.349,-0.332l0.033,-0.031l0.35,-0.329l0.02,-0.019l0.35,-0.327l0.03,-0.028l0.348,-0.323l0.014,-0.012l0.354,-0.327l0.043,-0.039l0.362,-0.33l0.024,-0.021l0.351,-0.317l0.018,-0.016l0.358,-0.322l0.036,-0.032l0.361,-0.322l0.021,-0.018l0.356,-0.315l0.024,-0.021l0.362,-0.318l0.031,-0.027l0.369,-0.32l0.033,-0.029l0.362,-0.312l0.011,-0.009l0.366,-0.314l0.043,-0.037l0.371,-0.314l0.014,-0.012l0.365,-0.308l0.031,-0.026l0.374,-0.313l0.031,-0.026l0.373,-0.309l0.024,-0.02l0.371,-0.305l0.024,-0.02l0.376,-0.306l0.031,-0.025l0.375,-0.304l0.022,-0.018l0.379,-0.305l0.037,-0.03l0.381,-0.302l0.018,-0.015l0.375,-0.297l0.025,-0.019l0.383,-0.301l0.034,-0.027l0.385,-0.299l0.021,-0.017l0.385,-0.298l0.034,-0.026l0.388,-0.296l0.021,-0.017l0.384,-0.292l0.025,-0.018l0.389,-0.294l0.031,-0.024l0.389,-0.291l0.022,-0.017l0.392,-0.291l0.034,-0.026l0.396,-0.291l0.025,-0.018l0.391,-0.286l0.021,-0.016l0.395,-0.287l0.031,-0.022l0.398,-0.287l0.025,-0.018l0.399,-0.285l0.031,-0.022l0.401,-0.285l0.025,-0.017l0.398,-0.28l0.022,-0.015l0.403,-0.282l0.034,-0.024l0.405,-0.28l0.022,-0.015l0.404,-0.279l0.031,-0.021l0.408,-0.278l0.025,-0.017l0.406,-0.275l0.026,-0.017l0.408,-0.274l0.027,-0.019l0.411,-0.273l0.025,-0.017l0.41,-0.271l0.025,-0.017l0.414,-0.272l0.031,-0.02l0.414,-0.27l0.022,-0.014l0.417,-0.27l0.034,-0.022l0.418,-0.268l0.022,-0.014l0.414,-0.263l0.022,-0.014l0.421,-0.266l0.034,-0.022l0.422,-0.264l0.022,-0.014l0.42,-0.261l0.025,-0.016l0.425,-0.262l0.03,-0.018l0.425,-0.26l0.022,-0.014l0.427,-0.26l0.034,-0.02l0.425,-0.256l0.014,-0.009l0.427,-0.256l0.039,-0.023l0.432,-0.256l0.018,-0.011l0.428,-0.252l0.03,-0.018l0.432,-0.253l0.022,-0.013l0.435,-0.252l0.034,-0.02l0.437,-0.251l0.022,-0.013l0.432,-0.247l0.022,-0.012l0.439,-0.249l0.034,-0.019l0.441,-0.248l0.022,-0.013l0.44,-0.245l0.029,-0.017l0.438,-0.242l0.015,-0.008l0.439,-0.242l0.034,-0.019l0.449,-0.245l0.03,-0.016l0.446,-0.241l0.022,-0.012l0.444,-0.239l0.026,-0.013l0.445,-0.238l0.022,-0.011l0.449,-0.238l0.029,-0.016l0.453,-0.237l0.025,-0.013l0.448,-0.233l0.018,-0.01l0.453,-0.234l0.032,-0.017l0.458,-0.235l0.026,-0.013l0.455,-0.231l0.026,-0.013l0.453,-0.229l0.018,-0.009l0.455,-0.228l0.03,-0.015l0.462,-0.23l0.029,-0.014l0.461,-0.227l0.022,-0.011l0.46,-0.225l0.025,-0.013l0.461,-0.223l0.022,-0.011l0.464,-0.223l0.028,-0.014l0.466,-0.223l0.022,-0.01l0.465,-0.221l0.025,-0.012l0.467,-0.22l0.025,-0.011l0.47,-0.22l0.025,-0.011l0.469,-0.217l0.021,-0.01l0.47,-0.216l0.025,-0.012l0.472,-0.216l0.025,-0.011l0.477,-0.216l0.032,-0.014l0.475,-0.213l0.014,-0.006l0.473,-0.211l0.028,-0.013l0.478,-0.211l0.021,-0.009l0.476,-0.209l0.021,-0.009l0.48,-0.209l0.028,-0.012l0.483,-0.209l0.025,-0.01l0.481,-0.206l0.021,-0.009l0.484,-0.206l0.027,-0.012l0.486,-0.204l0.021,-0.009l0.483,-0.202l0.021,-0.009l0.487,-0.202l0.028,-0.011l0.487,-0.201l0.019,-0.007l0.489,-0.2l0.03,-0.012l0.492,-0.199l0.018,-0.008l0.491,-0.197l0.027,-0.011l0.491,-0.195l0.015,-0.006l0.493,-0.196l0.033,-0.012l0.497,-0.195l0.015,-0.006l0.493,-0.192l0.027,-0.01l0.498,-0.193l0.021,-0.008l0.498,-0.19l0.025,-0.01l0.5,-0.19l0.023,-0.008l0.502,-0.189l0.024,-0.009l0.501,-0.187l0.017,-0.006l0.501,-0.186l0.024,-0.009l0.507,-0.187l0.026,-0.009l0.505,-0.184l0.017,-0.006l0.505,-0.183l0.024,-0.009l0.51,-0.183l0.026,-0.009l0.511,-0.181l0.02,-0.007l0.509,-0.18l0.02,-0.007l0.51,-0.178l0.02,-0.007l0.513,-0.178l0.026,-0.009l0.513,-0.176l0.015,-0.006l0.515,-0.176l0.03,-0.01l0.518,-0.175l0.015,-0.005l0.517,-0.174l0.029,-0.009l0.518,-0.172l0.011,-0.004l0.515,-0.17l0.025,-0.008l0.524,-0.172l0.025,-0.008l0.521,-0.169l0.015,-0.005l0.521,-0.168l0.025,-0.008l0.525,-0.167l0.02,-0.006l0.527,-0.167l0.024,-0.008l0.526,-0.164l0.015,-0.005l0.526,-0.164l0.024,-0.007l0.53,-0.164l0.02,-0.006l0.531,-0.162l0.024,-0.007l0.53,-0.161l0.015,-0.004l0.531,-0.16l0.024,-0.007l0.534,-0.159l0.02,-0.006l0.533,-0.157l0.02,-0.006l0.534,-0.156l0.02,-0.006l0.536,-0.156l0.019,-0.005l0.538,-0.155l0.024,-0.007l0.54,-0.154l0.02,-0.005l0.54,-0.153l0.019,-0.005l0.54,-0.151l0.019,-0.006l0.542,-0.15l0.019,-0.006l0.543,-0.149l0.019,-0.005l0.544,-0.148l0.019,-0.006l0.546,-0.147l0.024,-0.007l0.546,-0.146l0.015,-0.004l0.546,-0.145l0.023,-0.006l0.551,-0.145l0.019,-0.005l0.549,-0.143l0.019,-0.005l0.551,-0.142l0.019,-0.005l0.551,-0.141l0.019,-0.005l0.553,-0.14l0.018,-0.005l0.556,-0.14l0.023,-0.005l0.555,-0.138l0.015,-0.004l0.556,-0.137l0.022,-0.006l0.558,-0.136l0.015,-0.003l0.559,-0.136l0.022,-0.005l0.559,-0.134l0.015,-0.004l0.559,-0.133l0.018,-0.004l0.563,-0.133l0.022,-0.005l0.565,-0.132l0.019,-0.004l0.562,-0.13l0.015,-0.003l0.563,-0.129l0.018,-0.004l0.57,-0.129l0.025,-0.006l0.568,-0.127l0.011,-0.003l0.566,-0.126l0.022,-0.004l0.569,-0.126l0.015,-0.003l0.571,-0.124l0.021,-0.005l0.574,-0.124l0.017,-0.003l0.572,-0.122l0.015,-0.004l0.573,-0.121l0.021,-0.004l0.576,-0.121l0.014,-0.003l0.574,-0.119l0.018,-0.004l0.581,-0.119l0.024,-0.005l0.578,-0.117l0.007,-0.002l0.577,-0.116l0.025,-0.005l0.582,-0.116l0.014,-0.003l0.582,-0.114l0.022,-0.004l0.581,-0.114l0.01,-0.002l0.582,-0.112l0.021,-0.004l0.587,-0.112l0.016,-0.004l0.585,-0.11l0.015,-0.003l0.586,-0.11l0.021,-0.004l0.59,-0.109l0.017,-0.003l0.588,-0.108l0.013,-0.002l0.59,-0.107l0.02,-0.004l0.592,-0.106l0.015,-0.002l0.591,-0.105l0.016,-0.003l0.593,-0.104l0.017,-0.003l0.596,-0.103l0.017,-0.003l0.594,-0.102l0.013,-0.003l0.597,-0.101l0.021,-0.004l0.597,-0.1l0.012,-0.002l0.599,-0.099l0.018,-0.003l0.599,-0.099l0.016,-0.002l0.601,-0.098l0.017,-0.003l0.603,-0.096l0.016,-0.003l0.602,-0.095l0.013,-0.002l0.604,-0.095l0.019,-0.003l0.605,-0.094l0.011,-0.001l0.604,-0.093l0.019,-0.003l0.609,-0.092l0.017,-0.003l0.608,-0.091l0.014,-0.002l0.608,-0.09l0.015,-0.002l0.609,-0.089l0.015,-0.002l0.613,-0.089l0.018,-0.002l0.612,-0.087l0.013,-0.002l0.611,-0.086l0.015,-0.002l0.615,-0.086l0.016,-0.002l0.617,-0.085l0.016,-0.002l0.615,-0.084l0.011,-0.001l0.617,-0.083l0.02,-0.003l0.621,-0.082l0.014,-0.001l0.618,-0.081l0.013,-0.002l0.62,-0.08l0.018,-0.002l0.621,-0.079l0.011,-0.001l0.622,-0.079l0.017,-0.002l0.625,-0.077l0.012,-0.002l0.624,-0.076l0.016,-0.002l0.627,-0.076l0.016,-0.001l0.626,-0.075l0.012,-0.001l0.628,-0.074l0.015,-0.002l0.628,-0.072l0.013,-0.002l0.629,-0.072l0.018,-0.002l0.631,-0.071l0.01,-0.001l0.631,-0.07l0.017,-0.002l0.634,-0.069l0.012,-0.001l0.633,-0.069l0.016,-0.001l0.636,-0.068l0.016,-0.001l0.635,-0.067l0.012,-0.001l0.635,-0.066l0.012,-0.001l0.638,-0.065l0.017,-0.001l0.641,-0.064l0.014,-0.002l0.639,-0.063l0.011,-0.001l0.64,-0.062l0.013,-0.001l0.643,-0.061l0.015,-0.002l0.642,-0.06l0.011,-0.001l0.643,-0.06l0.016,-0.001l0.648,-0.059l0.015,-0.001l0.646,-0.058l0.011,-0.001l0.645,-0.056l0.012,-0.001l0.648,-0.057l0.016,-0.001l0.65,-0.055l0.011,-0.001l0.649,-0.054l0.015,-0.001l0.651,-0.054l0.012,-0.001l0.651,-0.052l0.01,-0.001l0.653,-0.052l0.016,-0.001l0.657,-0.051l0.014,-0.001l0.655,-0.05l0.01,-0.001l0.654,-0.049l0.012,0l0.658,-0.049l0.015,-0.001l0.658,-0.047l0.011,-0.001l0.659,-0.047l0.015,-0.001l0.66,-0.045l0.011,-0.001l0.659,-0.045l0.011,0l0.662,-0.044l0.015,-0.001l0.663,-0.043l0.012,-0.001l0.663,-0.042l0.01,-0.001l0.665,-0.041l0.014,-0.001l0.668,-0.041l0.015,-0.001l0.666,-0.039l0.007,-0.001l0.666,-0.039l0.014,-0.001l0.672,-0.038l0.014,-0.001l0.67,-0.037l0.01,0l0.669,-0.036l0.012,-0.001l0.671,-0.035l0.01,-0.001l0.674,-0.035l0.014,-0.001l0.674,-0.033l0.011,-0.001l0.675,-0.033l0.013,-0.001l0.675,-0.032l0.011,0l0.676,-0.031l0.011,-0.001l0.678,-0.03l0.013,-0.001l0.68,-0.03l0.011,0l0.679,-0.029l0.01,0l0.679,-0.028l0.01,-0.001l0.682,-0.027l0.014,-0.001l0.683,-0.026l0.01,0l0.684,-0.026l0.013,0l0.684,-0.025l0.007,0l0.685,-0.024l0.013,-0.001l0.688,-0.023l0.013,0l0.687,-0.022l0.007,-0.001l0.688,-0.021l0.013,-0.001l0.689,-0.02l0.011,-0.001l0.689,-0.019l0.01,-0.001l0.691,-0.019l0.014,0l0.693,-0.018l0.01,0l0.691,-0.018l0.011,0l0.693,-0.017l0.01,0l0.695,-0.016l0.013,0l0.698,-0.015l0.009,0l0.696,-0.014l0.01,0l0.697,-0.014l0.01,0l0.698,-0.013l0.014,0l0.701,-0.012l0.009,0l0.7,-0.011l0.01,0l0.7,-0.01l0.01,0l0.704,-0.009l0.012,-0.001l0.702,-0.008l0.007,0l0.704,-0.008l0.013,0l0.706,-0.007l0.01,0l0.705,-0.006l0.009,0l0.709,-0.006l0.012,0l0.707,-0.004l0.007,-0.001l0.708,-0.003l0.013,-0.001l0.711,-0.003l0.01,0l0.709,-0.002l0.01,0l0.711,-0.001l0.01,0l0.713,-0.001l0.012,0l0.714,0Z" style="fill:rgb(20,169,12);fill-opacity:0.698039;"/>
                    </g>
                </g>
                <g transform="matrix(3.54375,0,0,2.8999,4599,2543.62)">
                    <g transform="matrix(0.304762,0,0,0.393846,-1194.67,-1274.62)">
                        <circle cx="4970" cy="3946.34" r="20" style="fill:rgb(252,209,209);stroke-width:1px;stroke:black;"/>
                    </g>
                    <g transform="matrix(0.304762,0,0,0.393846,-1191.62,-1302.19)">
                        <circle cx="4960" cy="4016.34" r="10" style="fill:rgb(252,46,48);stroke-width:1px;stroke:black;"/>
                    </g>
                </g>
                <g transform="matrix(3.54375,0,0,2.8999,4761,2772.04)">
                    <g transform="matrix(0.304762,0,0,0.393846,-1194.67,-1274.62)">
                        <circle cx="4970" cy="3946.34" r="20" style="fill:rgb(252,209,209);stroke-width:1px;stroke:black;"/>
                    </g>
                    <g transform="matrix(0.304762,0,0,0.393846,-1191.62,-1302.19)">
                        <circle cx="4960" cy="4016.34" r="10" style="fill:rgb(252,46,48);stroke-width:1px;stroke:black;"/>
                    </g>
                </g>
                <g transform="matrix(3.54375,0,0,2.8999,4761,3000.47)">
                    <g transform="matrix(0.304762,0,0,0.393846,-1194.67,-1274.62)">
                        <circle cx="4970" cy="3946.34" r="20" style="fill:rgb(252,209,209);stroke-width:1px;stroke:black;"/>
                    </g>
                    <g transform="matrix(0.304762,0,0,0.393846,-1191.62,-1302.19)">
                        <circle cx="4960" cy="4016.34" r="10" style="fill:rgb(252,46,48);stroke-width:1px;stroke:black;"/>
                    </g>
                </g>
                <g transform="matrix(3.54375,0,0,2.8999,5031,2772.04)">
                    <g transform="matrix(0.304762,0,0,0.393846,-1194.67,-1274.62)">
                        <circle cx="4970" cy="3946.34" r="20" style="fill:rgb(252,209,209);stroke-width:1px;stroke:black;"/>
                    </g>
                    <g transform="matrix(0.304762,0,0,0.393846,-1191.62,-1302.19)">
                        <circle cx="4960" cy="4016.34" r="10" style="fill:rgb(252,46,48);stroke-width:1px;stroke:black;"/>
                    </g>
                </g>
                <g transform="matrix(3.54375,0,0,2.8999,5247,2772.04)">
                    <g transform="matrix(0.304762,0,0,0.393846,-1194.67,-1274.62)">
                        <circle cx="4970" cy="3946.34" r="20" style="fill:rgb(252,209,209);stroke-width:1px;stroke:black;"/>
                    </g>
                    <g transform="matrix(0.304762,0,0,0.393846,-1191.62,-1302.19)">
                        <circle cx="4960" cy="4016.34" r="10" style="fill:rgb(252,46,48);stroke-width:1px;stroke:black;"/>
                    </g>
                </g>
                <g transform="matrix(3.54375,0,0,2.8999,5463,2772.04)">
                    <g transform="matrix(0.304762,0,0,0.393846,-1194.67,-1274.62)">
                        <circle cx="4970" cy="3946.34" r="20" style="fill:rgb(252,209,209);stroke-width:1px;stroke:black;"/>
                    </g>
                    <g transform="matrix(0.304762,0,0,0.393846,-1191.62,-1302.19)">
                        <circle cx="4960" cy="4016.34" r="10" style="fill:rgb(252,46,48);stroke-width:1px;stroke:black;"/>
                    </g>
                </g>
                <g transform="matrix(3.54375,0,0,2.8999,5463,2543.62)">
                    <g transform="matrix(0.304762,0,0,0.393846,-1194.67,-1274.62)">
                        <circle cx="4970" cy="3946.34" r="20" style="fill:rgb(252,209,209);stroke-width:1px;stroke:black;"/>
                    </g>
                    <g transform="matrix(0.304762,0,0,0.393846,-1191.62,-1302.19)">
                        <circle cx="4960" cy="4016.34" r="10" style="fill:rgb(252,46,48);stroke-width:1px;stroke:black;"/>
                    </g>
                </g>
                <g transform="matrix(3.54375,0,0,2.8999,4599,2772.04)">
                    <g transform="matrix(0.304762,0,0,0.393846,-1194.67,-1274.62)">
                        <circle cx="4970" cy="3946.34" r="20" style="fill:rgb(252,209,209);stroke-width:1px;stroke:black;"/>
                    </g>
                    <g transform="matrix(0.304762,0,0,0.393846,-1191.62,-1302.19)">
                        <circle cx="4960" cy="4016.34" r="10" style="fill:rgb(252,46,48);stroke-width:1px;stroke:black;"/>
                    </g>
                </g>
                <g transform="matrix(3.54375,0,0,2.8999,4599,3000.47)">
                    <g transform="matrix(0.304762,0,0,0.393846,-1194.67,-1274.62)">
                        <circle cx="4970" cy="3946.34" r="20" style="fill:rgb(252,209,209);stroke-width:1px;stroke:black;"/>
                    </g>
                    <g transform="matrix(0.304762,0,0,0.393846,-1191.62,-1302.19)">
                        <circle cx="4960" cy="4016.34" r="10" style="fill:rgb(252,46,48);stroke-width:1px;stroke:black;"/>
                    </g>
                </g>
                <g transform="matrix(3.54375,0,0,2.8999,4599,3228.89)">
                    <g transform="matrix(0.304762,0,0,0.393846,-1194.67,-1274.62)">
                        <circle cx="4970" cy="3946.34" r="20" style="fill:rgb(252,209,209);stroke-width:1px;stroke:black;"/>
                    </g>
                    <g transform="matrix(0.304762,0,0,0.393846,-1191.62,-1302.19)">
                        <circle cx="4960" cy="4016.34" r="10" style="fill:rgb(252,46,48);stroke-width:1px;stroke:black;"/>
                    </g>
                </g>
                <g transform="matrix(3.54375,0,0,2.8999,4599,3457.31)">
                    <g transform="matrix(0.304762,0,0,0.393846,-1194.67,-1274.62)">
                        <circle cx="4970" cy="3946.34" r="20" style="fill:rgb(252,209,209);stroke-width:1px;stroke:black;"/>
                    </g>
                    <g transform="matrix(0.304762,0,0,0.393846,-1191.62,-1302.19)">
                        <circle cx="4960" cy="4016.34" r="10" style="fill:rgb(252,46,48);stroke-width:1px;stroke:black;"/>
                    </g>
                </g>
                <g transform="matrix(3.54375,0,0,2.8999,4761,3228.89)">
                    <g transform="matrix(0.304762,0,0,0.393846,-1194.67,-1274.62)">
                        <circle cx="4970" cy="3946.34" r="20" style="fill:rgb(252,209,209);stroke-width:1px;stroke:black;"/>
                    </g>
                    <g transform="matrix(0.304762,0,0,0.393846,-1191.62,-1302.19)">
                        <circle cx="4960" cy="4016.34" r="10" style="fill:rgb(252,46,48);stroke-width:1px;stroke:black;"/>
                    </g>
                </g>
                <g transform="matrix(3.54375,0,0,2.8999,4761,3457.31)">
                    <g transform="matrix(0.304762,0,0,0.393846,-1194.67,-1274.62)">
                        <circle cx="4970" cy="3946.34" r="20" style="fill:rgb(252,209,209);stroke-width:1px;stroke:black;"/>
                    </g>
                    <g transform="matrix(0.304762,0,0,0.393846,-1191.62,-1302.19)">
                        <circle cx="4960" cy="4016.34" r="10" style="fill:rgb(252,46,48);stroke-width:1px;stroke:black;"/>
                    </g>
                </g>
                <g transform="matrix(3.54375,0,0,2.8999,4815,2543.62)">
                    <g transform="matrix(0.304762,0,0,0.393846,-1194.67,-1274.62)">
                        <circle cx="4970" cy="3946.34" r="20" style="fill:rgb(252,209,209);stroke-width:1px;stroke:black;"/>
                    </g>
                    <g transform="matrix(0.304762,0,0,0.393846,-1191.62,-1302.19)">
                        <circle cx="4960" cy="4016.34" r="10" style="fill:rgb(252,46,48);stroke-width:1px;stroke:black;"/>
                    </g>
                </g>
                <g transform="matrix(3.54375,0,0,2.8999,5031,2543.62)">
                    <g transform="matrix(0.304762,0,0,0.393846,-1194.67,-1274.62)">
                        <circle cx="4970" cy="3946.34" r="20" style="fill:rgb(252,209,209);stroke-width:1px;stroke:black;"/>
                    </g>
                    <g transform="matrix(0.304762,0,0,0.393846,-1191.62,-1302.19)">
                        <circle cx="4960" cy="4016.34" r="10" style="fill:rgb(252,46,48);stroke-width:1px;stroke:black;"/>
                    </g>
                </g>
                <g transform="matrix(3.54375,0,0,2.8999,5031,2543.62)">
                    <g transform="matrix(0.304762,0,0,0.393846,-1194.67,-1274.62)">
                        <circle cx="4970" cy="3946.34" r="20" style="fill:rgb(252,209,209);stroke-width:1px;stroke:black;"/>
                    </g>
                    <g transform="matrix(0.304762,0,0,0.393846,-1191.62,-1302.19)">
                        <circle cx="4960" cy="4016.34" r="10" style="fill:rgb(252,46,48);stroke-width:1px;stroke:black;"/>
                    </g>
                </g>
                <g transform="matrix(3.54375,0,0,2.8999,5247,2543.62)">
                    <g transform="matrix(0.304762,0,0,0.393846,-1194.67,-1274.62)">
                        <circle cx="4970" cy="3946.34" r="20" style="fill:rgb(252,209,209);stroke-width:1px;stroke:black;"/>
                    </g>
                    <g transform="matrix(0.304762,0,0,0.393846,-1191.62,-1302.19)">
                        <circle cx="4960" cy="4016.34" r="10" style="fill:rgb(252,46,48);stroke-width:1px;stroke:black;"/>
                    </g>
                </g>
                <g transform="matrix(0.379912,9.1942e-18,-1.34122e-17,0.619782,-2506.03,3658.7)">
                    <path d="M21912,965l140,293l-280,0l140,-293Z" style="fill:black;"/>
                </g>
                <g id="grid" transform="matrix(1.08,0,0,1.14211,-24754.9,-2361.63)">
                    <g id="bold lines">
                        <path d="M28729.5,4904.89l0,2800" style="fill:none;stroke-width:1px;stroke-miterlimit:1;stroke:black;stroke-opacity:0.298039;"/>
                        <g transform="matrix(0.962963,0,0,1,1041.83,0)">
                            <path d="M28129.5,5504.89l2700,0" style="fill:none;stroke-width:1.02px;stroke-miterlimit:1;stroke:black;stroke-opacity:0.298039;"/>
                        </g>
                        <path d="M29229.5,4904.89l0,2800" style="fill:none;stroke-width:1px;stroke-miterlimit:1;stroke:black;stroke-opacity:0.298039;"/>
                        <g transform="matrix(0.962963,0,0,1,1041.83,0)">
                            <path d="M28129.5,6004.89l2700,0" style="fill:none;stroke-width:1.02px;stroke-miterlimit:1;stroke:black;stroke-opacity:0.298039;"/>
                        </g>
                        <g transform="matrix(0.962963,0,0,1,1041.83,0)">
                            <path d="M28129.5,5004.89l2700,0" style="fill:none;stroke-width:1.02px;stroke-miterlimit:1;stroke:black;stroke-opacity:0.298039;"/>
                        </g>
                        <path d="M28229.5,7704.89l0,-2800" style="fill:none;stroke-width:1px;stroke-miterlimit:1;stroke:black;stroke-opacity:0.298039;"/>
                    </g>
                    <g id="vertical lines" transform="matrix(1,0,0,1.75,20859.5,-1392.56)">
                        <path d="M7270,3598.54l0,1600" style="fill:none;stroke-width:0.7px;stroke-linejoin:miter;stroke-miterlimit:1;stroke-dasharray:7.02,30.87,1.4,30.87;stroke-dashoffset:3.51;stroke:black;"/>
                        <g transform="matrix(1,0,0,1,600,9.09495e-13)">
                            <path d="M7270,3598.54l0,1600" style="fill:none;stroke-width:0.7px;stroke-linejoin:miter;stroke-miterlimit:1;stroke-dasharray:7.02,30.87,1.4,30.87;stroke-dashoffset:3.51;stroke:black;"/>
                        </g>
                        <g transform="matrix(1,0,0,1,1200,-9.09495e-13)">
                            <path d="M7270,3598.54l0,1600" style="fill:none;stroke-width:0.7px;stroke-linejoin:miter;stroke-miterlimit:1;stroke-dasharray:7.02,30.87,1.4,30.87;stroke-dashoffset:3.51;stroke:black;"/>
                        </g>
                        <g transform="matrix(1,0,0,1,200,4.54747e-13)">
                            <path d="M7270,3598.54l0,1600" style="fill:none;stroke-width:0.7px;stroke-linejoin:miter;stroke-miterlimit:1;stroke-dasharray:7.02,30.87,1.4,30.87;stroke-dashoffset:3.51;stroke:black;"/>
                        </g>
                        <g transform="matrix(1,0,0,1,800,1.36424e-12)">
                            <path d="M7270,3598.54l0,1600" style="fill:none;stroke-width:0.7px;stroke-linejoin:miter;stroke-miterlimit:1;stroke-dasharray:7.02,30.87,1.4,30.87;stroke-dashoffset:3.51;stroke:black;"/>
                        </g>
                        <g transform="matrix(1,0,0,1,400,-4.54747e-13)">
                            <path d="M7270,3598.54l0,1600" style="fill:none;stroke-width:0.7px;stroke-linejoin:miter;stroke-miterlimit:1;stroke-dasharray:7.02,30.87,1.4,30.87;stroke-dashoffset:3.51;stroke:black;"/>
                        </g>
                        <g transform="matrix(1,0,0,1,1000,4.54747e-13)">
                            <path d="M7270,3598.54l0,1600" style="fill:none;stroke-width:0.7px;stroke-linejoin:miter;stroke-miterlimit:1;stroke-dasharray:7.02,30.87,1.4,30.87;stroke-dashoffset:3.51;stroke:black;"/>
                        </g>
                        <path d="M7370,3598.54l0,1600" style="fill:none;stroke-width:0.7px;stroke-linejoin:miter;stroke-miterlimit:1;stroke-dasharray:7.02,30.87,1.4,30.87;stroke-dashoffset:3.51;stroke:black;"/>
                        <g transform="matrix(1,0,0,1,600,9.37916e-13)">
                            <path d="M7370,3598.54l0,1600" style="fill:none;stroke-width:0.7px;stroke-linejoin:miter;stroke-miterlimit:1;stroke-dasharray:7.02,30.87,1.4,30.87;stroke-dashoffset:3.51;stroke:black;"/>
                        </g>
                        <g transform="matrix(1,0,0,1,200,4.83169e-13)">
                            <path d="M7370,3598.54l0,1600" style="fill:none;stroke-width:0.7px;stroke-linejoin:miter;stroke-miterlimit:1;stroke-dasharray:7.02,30.87,1.4,30.87;stroke-dashoffset:3.51;stroke:black;"/>
                        </g>
                        <g transform="matrix(1,0,0,1,800,1.39266e-12)">
                            <path d="M7370,3598.54l0,1600" style="fill:none;stroke-width:0.7px;stroke-linejoin:miter;stroke-miterlimit:1;stroke-dasharray:7.02,30.87,1.4,30.87;stroke-dashoffset:3.51;stroke:black;"/>
                        </g>
                        <g transform="matrix(1,0,0,1,400,-4.26326e-13)">
                            <path d="M7370,3598.54l0,1600" style="fill:none;stroke-width:0.7px;stroke-linejoin:miter;stroke-miterlimit:1;stroke-dasharray:7.02,30.87,1.4,30.87;stroke-dashoffset:3.51;stroke:black;"/>
                        </g>
                        <g transform="matrix(1,0,0,1,1000,4.83169e-13)">
                            <path d="M7370,3598.54l0,1600" style="fill:none;stroke-width:0.7px;stroke-linejoin:miter;stroke-miterlimit:1;stroke-dasharray:7.02,30.87,1.4,30.87;stroke-dashoffset:3.51;stroke:black;"/>
                        </g>
                    </g>
                    <g id="horizontal lines" transform="matrix(0.962963,0,0,1,21128.8,1206.35)">
                        <path d="M7270,3698.54l2700,0" style="fill:none;stroke-width:1.02px;stroke-dasharray:10.19,44.82,2.04,44.82;stroke-dashoffset:5.09;stroke:black;"/>
                        <g transform="matrix(1,0,0,1,0,400)">
                            <path d="M7270,3698.54l2700,0" style="fill:none;stroke-width:1.02px;stroke-dasharray:10.19,44.82,2.04,44.82;stroke-dashoffset:5.09;stroke:black;"/>
                        </g>
                        <g transform="matrix(1,0,0,1,0,800)">
                            <path d="M7270,3698.54l2700,0" style="fill:none;stroke-width:1.02px;stroke-dasharray:10.19,44.82,2.04,44.82;stroke-dashoffset:5.09;stroke:black;"/>
                        </g>
                        <g transform="matrix(1,0,0,1,0,1200)">
                            <path d="M7270,3698.54l2700,0" style="fill:none;stroke-width:1.02px;stroke-dasharray:10.19,44.82,2.04,44.82;stroke-dashoffset:5.09;stroke:black;"/>
                        </g>
                        <path d="M9970,3798.54l-2700,0" style="fill:none;stroke-width:1.02px;stroke-dasharray:10.19,44.82,2.04,44.82;stroke-dashoffset:5.09;stroke:black;"/>
                        <g transform="matrix(1,0,0,1,0,400)">
                            <path d="M9970,3798.54l-2700,0" style="fill:none;stroke-width:1.02px;stroke-dasharray:10.19,44.82,2.04,44.82;stroke-dashoffset:5.09;stroke:black;"/>
                        </g>
                        <g transform="matrix(1,0,0,1,0,800)">
                            <path d="M9970,3798.54l-2700,0" style="fill:none;stroke-width:1.02px;stroke-dasharray:10.19,44.82,2.04,44.82;stroke-dashoffset:5.09;stroke:black;"/>
                        </g>
                        <path d="M7270,3898.54l2700,0" style="fill:none;stroke-width:1.02px;stroke-dasharray:10.19,44.82,2.04,44.82;stroke-dashoffset:5.09;stroke:black;"/>
                        <g transform="matrix(1,0,0,1,0,400)">
                            <path d="M7270,3898.54l2700,0" style="fill:none;stroke-width:1.02px;stroke-dasharray:10.19,44.82,2.04,44.82;stroke-dashoffset:5.09;stroke:black;"/>
                        </g>
                        <g transform="matrix(1,0,0,1,0,800)">
                            <path d="M7270,3898.54l2700,0" style="fill:none;stroke-width:1.02px;stroke-dasharray:10.19,44.82,2.04,44.82;stroke-dashoffset:5.09;stroke:black;"/>
                        </g>
                        <path d="M7270,3998.54l2700,0" style="fill:none;stroke-width:1.02px;stroke-dasharray:10.19,44.82,2.04,44.82;stroke-dashoffset:5.09;stroke:black;"/>
                        <g transform="matrix(1,0,0,1,0,400)">
                            <path d="M7270,3998.54l2700,0" style="fill:none;stroke-width:1.02px;stroke-dasharray:10.19,44.82,2.04,44.82;stroke-dashoffset:5.09;stroke:black;"/>
                        </g>
                        <g transform="matrix(1,0,0,1,0,800)">
                            <path d="M7270,3998.54l2700,0" style="fill:none;stroke-width:1.02px;stroke-dasharray:10.19,44.82,2.04,44.82;stroke-dashoffset:5.09;stroke:black;"/>
                        </g>
                    </g>
                    <g id="top labels" transform="matrix(1,0,0,1,20609.5,906.346)">
                        <g transform="matrix(1,0,0,1.25,1.81899e-12,-999.636)">
                            <rect x="7570" y="3958.54" width="100" height="40" style="fill:rgb(128,128,128);stroke-width:0.88px;stroke:black;"/>
                        </g>
                        <g transform="matrix(1,0,0,1.25,500,-999.636)">
                            <rect x="7570" y="3958.54" width="100" height="40" style="fill:rgb(128,128,128);stroke-width:0.88px;stroke:black;"/>
                        </g>
                        <g transform="matrix(1,0,0,1.25,1000,-999.636)">
                            <rect x="7570" y="3958.54" width="100" height="40" style="fill:rgb(128,128,128);stroke-width:0.88px;stroke:black;"/>
                        </g>
                        <g transform="matrix(1,0,0,1.25,100,-999.636)">
                            <rect x="7570" y="3958.54" width="100" height="40" style="fill:rgb(128,128,128);stroke-width:0.88px;stroke:black;"/>
                        </g>
                        <g transform="matrix(1,0,0,1.25,600,-999.636)">
                            <rect x="7570" y="3958.54" width="100" height="40" style="fill:rgb(128,128,128);stroke-width:0.88px;stroke:black;"/>
                        </g>
                        <g transform="matrix(1,0,0,1.25,1100,-999.636)">
                            <rect x="7570" y="3958.54" width="100" height="40" style="fill:rgb(128,128,128);stroke-width:0.88px;stroke:black;"/>
                        </g>
                        <g transform="matrix(1,0,0,1.25,200,-999.636)">
                            <rect x="7570" y="3958.54" width="100" height="40" style="fill:rgb(128,128,128);stroke-width:0.88px;stroke:black;"/>
                        </g>
                        <g transform="matrix(1,0,0,1.25,700,-999.636)">
                            <rect x="7570" y="3958.54" width="100" height="40" style="fill:rgb(128,128,128);stroke-width:0.88px;stroke:black;"/>
                        </g>
                        <g transform="matrix(1,0,0,1.25,300,-999.636)">
                            <rect x="7570" y="3958.54" width="100" height="40" style="fill:rgb(128,128,128);stroke-width:0.88px;stroke:black;"/>
                        </g>
                        <g transform="matrix(1,0,0,1.25,800,-999.636)">
                            <rect x="7570" y="3958.54" width="100" height="40" style="fill:rgb(128,128,128);stroke-width:0.88px;stroke:black;"/>
                        </g>
                        <g transform="matrix(1,0,0,1.25,400,-999.636)">
                            <rect x="7570" y="3958.54" width="100" height="40" style="fill:rgb(128,128,128);stroke-width:0.88px;stroke:black;"/>
                        </g>
                        <g transform="matrix(1,0,0,1.25,900,-999.636)">
                            <rect x="7570" y="3958.54" width="100" height="40" style="fill:rgb(128,128,128);stroke-width:0.88px;stroke:black;"/>
                        </g>
                        <g transform="matrix(1,0,0,1,-1.11608,18.83)">
                            <path d="M7609.07,3968.79l9.897,-25.77l3.673,0l10.547,25.77l-3.884,0l-3.006,-7.805l-10.776,0l-2.83,7.805l-3.621,0ZM7616.51,3958.21l8.736,0l-2.689,-7.137c-0.821,-2.168 -1.43,-3.949 -1.829,-5.344c-0.328,1.653 -0.791,3.293 -1.388,4.922l-2.83,7.559Z" style="fill:black;fill-rule:nonzero;stroke-width:1px;stroke:black;"/>
                        </g>
                        <g transform="matrix(1,0,0,1,498.884,18.83)">
                            <path d="M7612.08,3968.79l0,-25.77l17.385,0l0,3.041l-13.975,0l0,7.981l12.094,0l0,3.041l-12.094,0l0,11.707l-3.41,0Z" style="fill:black;fill-rule:nonzero;stroke-width:1px;stroke:black;"/>
                        </g>
                        <g transform="matrix(1,0,0,1,998.884,18.83)">
                            <path d="M7611.76,3968.79l0,-25.77l3.41,0l0,12.78l12.797,-12.78l4.623,0l-10.811,10.442l11.285,15.328l-4.5,0l-9.176,-13.043l-4.218,4.113l0,8.93l-3.41,0Z" style="fill:black;fill-rule:nonzero;stroke-width:1px;stroke:black;"/>
                        </g>
                        <g transform="matrix(1,0,0,1,98.8839,18.83)">
                            <path d="M7611.76,3968.79l0,-25.77l9.668,0c1.968,0 3.547,0.261 4.737,0.783c1.189,0.521 2.121,1.324 2.795,2.408c0.674,1.084 1.01,2.218 1.01,3.401c0,1.102 -0.298,2.139 -0.896,3.112c-0.598,0.972 -1.5,1.757 -2.707,2.355c1.559,0.457 2.757,1.236 3.595,2.338c0.838,1.101 1.257,2.402 1.257,3.902c0,1.207 -0.255,2.329 -0.765,3.366c-0.51,1.038 -1.14,1.837 -1.89,2.4c-0.75,0.562 -1.69,0.987 -2.821,1.274c-1.131,0.287 -2.517,0.431 -4.157,0.431l-9.826,0ZM7615.17,3953.85l5.572,0c1.512,0 2.596,-0.1 3.252,-0.299c0.867,-0.258 1.52,-0.686 1.96,-1.284c0.439,-0.597 0.659,-1.347 0.659,-2.25c0,-0.855 -0.205,-1.608 -0.615,-2.258c-0.41,-0.651 -0.996,-1.096 -1.758,-1.336c-0.762,-0.24 -2.068,-0.361 -3.92,-0.361l-5.15,0l0,7.788ZM7615.17,3965.75l6.416,0c1.101,0 1.875,-0.041 2.32,-0.123c0.785,-0.141 1.441,-0.375 1.969,-0.703c0.527,-0.328 0.961,-0.806 1.301,-1.433c0.339,-0.627 0.509,-1.35 0.509,-2.171c0,-0.961 -0.246,-1.796 -0.738,-2.505c-0.492,-0.709 -1.175,-1.207 -2.048,-1.494c-0.873,-0.287 -2.13,-0.43 -3.77,-0.43l-5.959,0l0,8.859Z" style="fill:black;fill-rule:nonzero;stroke-width:1px;stroke:black;"/>
                        </g>
                        <g transform="matrix(1,0,0,1,598.884,18.83)">
                            <path d="M7623.96,3958.68l0,-3.023l10.916,-0.018l0,9.563c-1.676,1.336 -3.405,2.341 -5.186,3.015c-1.781,0.673 -3.609,1.01 -5.484,1.01c-2.531,0 -4.831,-0.542 -6.9,-1.626c-2.068,-1.084 -3.629,-2.651 -4.684,-4.702c-1.055,-2.051 -1.582,-4.342 -1.582,-6.873c0,-2.508 0.524,-4.848 1.573,-7.022c1.049,-2.174 2.558,-3.788 4.526,-4.843c1.969,-1.055 4.237,-1.582 6.803,-1.582c1.863,0 3.548,0.302 5.054,0.905c1.506,0.604 2.686,1.445 3.542,2.523c0.855,1.078 1.506,2.484 1.951,4.218l-3.076,0.844c-0.387,-1.312 -0.867,-2.344 -1.442,-3.094c-0.574,-0.75 -1.394,-1.35 -2.46,-1.801c-1.067,-0.452 -2.25,-0.677 -3.551,-0.677c-1.559,0 -2.906,0.237 -4.043,0.712c-1.137,0.474 -2.054,1.098 -2.751,1.872c-0.697,0.773 -1.239,1.623 -1.626,2.549c-0.656,1.593 -0.985,3.322 -0.985,5.185c0,2.297 0.396,4.219 1.187,5.766c0.791,1.547 1.942,2.695 3.454,3.445c1.512,0.75 3.117,1.125 4.817,1.125c1.476,0 2.917,-0.284 4.324,-0.852c1.406,-0.569 2.472,-1.175 3.199,-1.82l0,-4.799l-7.576,0Z" style="fill:black;fill-rule:nonzero;stroke-width:1px;stroke:black;"/>
                        </g>
                        <g transform="matrix(1,0,0,1,1098.88,18.83)">
                            <path d="M7611.76,3968.79l0,-25.77l3.41,0l0,22.729l12.691,0l0,3.041l-16.101,0Z" style="fill:black;fill-rule:nonzero;stroke-width:1px;stroke:black;"/>
                        </g>
                        <g transform="matrix(1,0,0,1,198.884,18.83)">
                            <path d="M7630.29,3959.76l3.41,0.861c-0.715,2.801 -2.001,4.937 -3.858,6.407c-1.858,1.471 -4.128,2.206 -6.812,2.206c-2.777,0 -5.036,-0.565 -6.776,-1.696c-1.74,-1.131 -3.065,-2.768 -3.973,-4.913c-0.908,-2.145 -1.362,-4.447 -1.362,-6.908c0,-2.684 0.513,-5.025 1.538,-7.023c1.025,-1.998 2.484,-3.515 4.377,-4.552c1.892,-1.038 3.975,-1.556 6.249,-1.556c2.578,0 4.746,0.656 6.504,1.969c1.758,1.312 2.982,3.158 3.674,5.537l-3.358,0.791c-0.597,-1.875 -1.465,-3.24 -2.601,-4.096c-1.137,-0.855 -2.567,-1.283 -4.289,-1.283c-1.981,0 -3.636,0.475 -4.966,1.424c-1.33,0.949 -2.265,2.223 -2.804,3.823c-0.539,1.6 -0.809,3.249 -0.809,4.948c0,2.192 0.32,4.105 0.958,5.739c0.639,1.635 1.632,2.857 2.98,3.666c1.348,0.808 2.807,1.212 4.377,1.212c1.91,0 3.527,-0.55 4.851,-1.652c1.325,-1.102 2.221,-2.736 2.69,-4.904Z" style="fill:black;fill-rule:nonzero;stroke-width:1px;stroke:black;"/>
                        </g>
                        <g transform="matrix(1,0,0,1,698.884,18.83)">
                            <path d="M7612.01,3968.79l0,-25.77l3.41,0l0,10.582l13.394,0l0,-10.582l3.41,0l0,25.77l-3.41,0l0,-12.147l-13.394,0l0,12.147l-3.41,0Z" style="fill:black;fill-rule:nonzero;stroke-width:1px;stroke:black;"/>
                        </g>
                        <g transform="matrix(1,0,0,1,298.884,18.83)">
                            <path d="M7611.9,3968.79l0,-25.77l8.877,0c2.004,0 3.533,0.123 4.588,0.37c1.477,0.339 2.736,0.955 3.779,1.845c1.36,1.149 2.376,2.616 3.05,4.404c0.674,1.787 1.011,3.829 1.011,6.126c0,1.957 -0.229,3.691 -0.686,5.203c-0.457,1.511 -1.043,2.762 -1.757,3.753c-0.715,0.99 -1.498,1.769 -2.347,2.337c-0.85,0.569 -1.875,0.999 -3.076,1.292c-1.202,0.293 -2.581,0.44 -4.14,0.44l-9.299,0ZM7615.31,3965.75l5.502,0c1.7,0 3.033,-0.158 3.999,-0.475c0.967,-0.316 1.738,-0.761 2.312,-1.336c0.808,-0.808 1.438,-1.895 1.889,-3.26c0.452,-1.366 0.677,-3.021 0.677,-4.966c0,-2.696 -0.442,-4.767 -1.327,-6.214c-0.885,-1.447 -1.96,-2.417 -3.225,-2.909c-0.915,-0.352 -2.385,-0.528 -4.413,-0.528l-5.414,0l0,19.688Z" style="fill:black;fill-rule:nonzero;stroke-width:1px;stroke:black;"/>
                        </g>
                        <g transform="matrix(1,0,0,1,805.889,18.83)">
                            <rect x="7612.48" y="3943.02" width="3.41" height="25.77" style="fill:black;fill-rule:nonzero;stroke-width:1px;stroke:black;"/>
                        </g>
                        <g transform="matrix(1,0,0,1,398.884,18.83)">
                            <path d="M7611.97,3968.79l0,-25.77l18.633,0l0,3.041l-15.222,0l0,7.893l14.256,0l0,3.023l-14.256,0l0,8.772l15.82,0l0,3.041l-19.231,0Z" style="fill:black;fill-rule:nonzero;stroke-width:1px;stroke:black;"/>
                        </g>
                        <g transform="matrix(1,0,0,1,898.884,18.83)">
                            <path d="M7610.16,3961.48l3.076,-0.421c0.082,1.968 0.451,3.316 1.108,4.043c0.656,0.726 1.564,1.089 2.724,1.089c0.856,0 1.594,-0.196 2.215,-0.589c0.621,-0.392 1.049,-0.925 1.283,-1.599c0.235,-0.674 0.352,-1.749 0.352,-3.226l0,-17.754l3.41,0l0,17.561c0,2.156 -0.261,3.826 -0.782,5.01c-0.522,1.183 -1.348,2.086 -2.479,2.707c-1.131,0.621 -2.458,0.931 -3.981,0.931c-2.262,0 -3.993,-0.65 -5.195,-1.951c-1.201,-1.301 -1.778,-3.234 -1.731,-5.801Z" style="fill:black;fill-rule:nonzero;stroke-width:1px;stroke:black;"/>
                        </g>
                    </g>
                    <g id="top numbers" transform="matrix(1,0,0,1,20714.3,863.029)">
                        <g transform="matrix(1,0,0,1,-1.11608,18.83)">
                            <path d="M7616.58,3968.79l-1.758,0l0,-11.201c-0.423,0.403 -0.978,0.807 -1.665,1.211c-0.687,0.403 -1.304,0.706 -1.85,0.908l0,-1.699c0.983,-0.463 1.842,-1.022 2.578,-1.68c0.735,-0.658 1.256,-1.296 1.562,-1.914l1.133,0l0,14.375Z" style="fill:black;fill-rule:nonzero;stroke-width:1px;stroke:black;"/>
                        </g>
                        <g transform="matrix(1,0,0,1,-99.4462,18.83)">
                            <path d="M7609.96,3961.73c0,-1.692 0.174,-3.055 0.522,-4.087c0.349,-1.031 0.866,-1.827 1.553,-2.387c0.687,-0.56 1.551,-0.84 2.593,-0.84c0.768,0 1.442,0.155 2.021,0.464c0.58,0.309 1.058,0.755 1.436,1.338c0.378,0.582 0.674,1.292 0.889,2.129c0.214,0.836 0.322,1.964 0.322,3.383c0,1.68 -0.173,3.036 -0.518,4.068c-0.345,1.032 -0.861,1.829 -1.548,2.392c-0.686,0.563 -1.554,0.845 -2.602,0.845c-1.38,0 -2.464,-0.495 -3.252,-1.484c-0.944,-1.192 -1.416,-3.132 -1.416,-5.821ZM7611.76,3961.73c0,2.351 0.275,3.915 0.825,4.693c0.55,0.778 1.229,1.167 2.036,1.167c0.807,0 1.486,-0.391 2.036,-1.172c0.55,-0.781 0.825,-2.344 0.825,-4.688c0,-2.356 -0.275,-3.922 -0.825,-4.697c-0.55,-0.775 -1.235,-1.162 -2.056,-1.162c-0.807,0 -1.451,0.342 -1.933,1.025c-0.606,0.873 -0.908,2.484 -0.908,4.834Z" style="fill:black;fill-rule:nonzero;stroke-width:1px;stroke:black;"/>
                        </g>
                        <g transform="matrix(1,0,0,1,498.884,18.83)">
                            <path d="M7619.08,3957.98l-1.748,0.137c-0.156,-0.69 -0.378,-1.191 -0.664,-1.504c-0.475,-0.501 -1.061,-0.752 -1.758,-0.752c-0.56,0 -1.051,0.156 -1.475,0.469c-0.553,0.404 -0.989,0.993 -1.308,1.768c-0.319,0.774 -0.485,1.878 -0.498,3.31c0.423,-0.644 0.941,-1.123 1.553,-1.435c0.612,-0.313 1.253,-0.469 1.923,-0.469c1.172,0 2.17,0.431 2.994,1.294c0.823,0.862 1.235,1.977 1.235,3.344c0,0.899 -0.194,1.734 -0.581,2.505c-0.388,0.772 -0.92,1.363 -1.597,1.773c-0.677,0.41 -1.445,0.615 -2.305,0.615c-1.464,0 -2.659,-0.539 -3.583,-1.616c-0.925,-1.078 -1.387,-2.853 -1.387,-5.327c0,-2.767 0.511,-4.779 1.533,-6.035c0.892,-1.094 2.093,-1.641 3.604,-1.641c1.126,0 2.049,0.316 2.768,0.947c0.719,0.632 1.151,1.504 1.294,2.617ZM7611.9,3964.15c0,0.606 0.129,1.185 0.386,1.739c0.257,0.553 0.617,0.974 1.079,1.264c0.462,0.29 0.947,0.435 1.455,0.435c0.742,0 1.38,-0.3 1.914,-0.899c0.534,-0.599 0.801,-1.412 0.801,-2.441c0,-0.99 -0.264,-1.769 -0.791,-2.339c-0.527,-0.57 -1.191,-0.854 -1.992,-0.854c-0.794,0 -1.468,0.284 -2.022,0.854c-0.553,0.57 -0.83,1.317 -0.83,2.241Z" style="fill:black;fill-rule:nonzero;stroke-width:1px;stroke:black;"/>
                        </g>
                        <g transform="matrix(1,0,0,1,994.231,18.83)">
                            <path d="M7616.58,3968.79l-1.758,0l0,-11.201c-0.423,0.403 -0.978,0.807 -1.665,1.211c-0.687,0.403 -1.304,0.706 -1.85,0.908l0,-1.699c0.983,-0.463 1.842,-1.022 2.578,-1.68c0.735,-0.658 1.256,-1.296 1.562,-1.914l1.133,0l0,14.375Z" style="fill:black;fill-rule:nonzero;stroke-width:1px;stroke:black;"/>
                            <path d="M7626.22,3968.79l-1.758,0l0,-11.201c-0.423,0.403 -0.978,0.807 -1.665,1.211c-0.687,0.403 -1.304,0.706 -1.851,0.908l0,-1.699c0.983,-0.463 1.843,-1.022 2.578,-1.68c0.736,-0.658 1.257,-1.296 1.563,-1.914l1.133,0l0,14.375Z" style="fill:black;fill-rule:nonzero;stroke-width:1px;stroke:black;"/>
                        </g>
                        <g transform="matrix(1,0,0,1,98.8839,18.83)">
                            <path d="M7619.19,3967.1l0,1.69l-9.463,0c-0.013,-0.423 0.056,-0.83 0.205,-1.221c0.241,-0.644 0.627,-1.279 1.158,-1.904c0.53,-0.625 1.297,-1.348 2.299,-2.168c1.556,-1.276 2.608,-2.287 3.155,-3.032c0.547,-0.746 0.82,-1.45 0.82,-2.115c0,-0.696 -0.249,-1.284 -0.747,-1.762c-0.498,-0.479 -1.148,-0.718 -1.948,-0.718c-0.847,0 -1.524,0.254 -2.032,0.762c-0.507,0.508 -0.765,1.211 -0.771,2.109l-1.807,-0.185c0.124,-1.348 0.59,-2.375 1.397,-3.082c0.807,-0.706 1.891,-1.059 3.252,-1.059c1.373,0 2.461,0.381 3.261,1.142c0.801,0.762 1.202,1.706 1.202,2.833c0,0.572 -0.118,1.136 -0.352,1.689c-0.234,0.553 -0.623,1.136 -1.167,1.748c-0.544,0.612 -1.447,1.452 -2.71,2.52c-1.055,0.885 -1.732,1.486 -2.031,1.801c-0.3,0.316 -0.547,0.633 -0.742,0.952l7.021,0Z" style="fill:black;fill-rule:nonzero;stroke-width:1px;stroke:black;"/>
                        </g>
                        <g transform="matrix(1,0,0,1,599.431,18.83)">
                            <path d="M7610.07,3956.35l0,-1.69l9.268,0l0,1.367c-0.912,0.97 -1.815,2.259 -2.71,3.867c-0.895,1.609 -1.587,3.262 -2.075,4.961c-0.352,1.198 -0.577,2.51 -0.674,3.936l-1.807,0c0.02,-1.126 0.241,-2.487 0.664,-4.082c0.423,-1.595 1.03,-3.133 1.821,-4.614c0.791,-1.481 1.633,-2.73 2.525,-3.745l-7.012,0Z" style="fill:black;fill-rule:nonzero;stroke-width:1px;stroke:black;"/>
                        </g>
                        <g transform="matrix(1,0,0,1,198.884,18.83)">
                            <path d="M7609.97,3965.01l1.757,-0.235c0.202,0.996 0.546,1.714 1.031,2.154c0.485,0.439 1.076,0.659 1.772,0.659c0.827,0 1.525,-0.287 2.095,-0.86c0.57,-0.573 0.854,-1.282 0.854,-2.129c0,-0.807 -0.263,-1.473 -0.791,-1.997c-0.527,-0.524 -1.197,-0.786 -2.011,-0.786c-0.332,0 -0.746,0.065 -1.241,0.196l0.196,-1.543c0.117,0.013 0.211,0.019 0.283,0.019c0.749,0 1.423,-0.195 2.021,-0.586c0.599,-0.39 0.899,-0.993 0.899,-1.806c0,-0.645 -0.218,-1.179 -0.654,-1.602c-0.437,-0.423 -1,-0.635 -1.69,-0.635c-0.683,0 -1.253,0.215 -1.709,0.645c-0.456,0.429 -0.749,1.074 -0.879,1.933l-1.758,-0.312c0.215,-1.179 0.704,-2.092 1.465,-2.739c0.762,-0.648 1.709,-0.972 2.842,-0.972c0.781,0 1.501,0.168 2.158,0.503c0.658,0.335 1.161,0.792 1.509,1.372c0.348,0.579 0.523,1.195 0.523,1.846c0,0.618 -0.166,1.181 -0.498,1.689c-0.333,0.508 -0.824,0.912 -1.475,1.211c0.846,0.195 1.504,0.601 1.973,1.216c0.468,0.615 0.703,1.385 0.703,2.309c0,1.25 -0.456,2.31 -1.368,3.179c-0.911,0.869 -2.063,1.304 -3.457,1.304c-1.256,0 -2.299,-0.375 -3.129,-1.123c-0.83,-0.749 -1.304,-1.719 -1.421,-2.91Z" style="fill:black;fill-rule:nonzero;stroke-width:1px;stroke:black;"/>
                        </g>
                        <g transform="matrix(1,0,0,1,699.431,18.83)">
                            <path d="M7612.66,3961.03c-0.729,-0.267 -1.27,-0.648 -1.621,-1.142c-0.352,-0.495 -0.527,-1.088 -0.527,-1.778c0,-1.041 0.374,-1.917 1.123,-2.627c0.748,-0.709 1.744,-1.064 2.988,-1.064c1.25,0 2.256,0.363 3.017,1.089c0.762,0.726 1.143,1.609 1.143,2.651c0,0.664 -0.174,1.242 -0.522,1.734c-0.349,0.491 -0.878,0.87 -1.587,1.137c0.879,0.287 1.548,0.749 2.007,1.387c0.458,0.638 0.688,1.4 0.688,2.285c0,1.224 -0.433,2.253 -1.299,3.086c-0.866,0.833 -2.005,1.25 -3.418,1.25c-1.413,0 -2.552,-0.418 -3.418,-1.255c-0.866,-0.836 -1.299,-1.88 -1.299,-3.13c0,-0.931 0.236,-1.71 0.708,-2.339c0.472,-0.628 1.145,-1.056 2.017,-1.284ZM7612.31,3958.05c0,0.677 0.219,1.23 0.655,1.66c0.436,0.43 1.002,0.644 1.699,0.644c0.677,0 1.232,-0.213 1.665,-0.639c0.433,-0.427 0.649,-0.949 0.649,-1.568c0,-0.644 -0.223,-1.186 -0.669,-1.626c-0.446,-0.439 -1.001,-0.659 -1.665,-0.659c-0.67,0 -1.227,0.215 -1.67,0.645c-0.442,0.429 -0.664,0.944 -0.664,1.543ZM7611.74,3964.66c0,0.501 0.119,0.986 0.356,1.455c0.238,0.469 0.591,0.832 1.06,1.089c0.469,0.257 0.973,0.386 1.514,0.386c0.84,0 1.533,-0.27 2.08,-0.811c0.547,-0.54 0.82,-1.227 0.82,-2.06c0,-0.847 -0.281,-1.547 -0.845,-2.1c-0.563,-0.553 -1.268,-0.83 -2.114,-0.83c-0.827,0 -1.512,0.273 -2.056,0.82c-0.543,0.547 -0.815,1.231 -0.815,2.051Z" style="fill:black;fill-rule:nonzero;stroke-width:1px;stroke:black;"/>
                        </g>
                        <g transform="matrix(1,0,0,1,298.884,18.83)">
                            <path d="M7615.59,3968.79l0,-3.428l-6.211,0l0,-1.611l6.533,-9.277l1.435,0l0,9.277l1.934,0l0,1.611l-1.934,0l0,3.428l-1.757,0ZM7615.59,3963.75l0,-6.455l-4.483,6.455l4.483,0Z" style="fill:black;fill-rule:nonzero;stroke-width:1px;stroke:black;"/>
                        </g>
                        <g transform="matrix(1,0,0,1,799.431,18.83)">
                            <path d="M7610.22,3965.48l1.689,-0.156c0.143,0.794 0.417,1.371 0.82,1.729c0.404,0.358 0.922,0.537 1.553,0.537c0.54,0 1.014,-0.124 1.421,-0.371c0.407,-0.248 0.741,-0.578 1.001,-0.992c0.26,-0.413 0.478,-0.971 0.654,-1.674c0.176,-0.703 0.264,-1.42 0.264,-2.149c0,-0.078 -0.003,-0.195 -0.01,-0.351c-0.351,0.56 -0.832,1.014 -1.44,1.362c-0.609,0.348 -1.268,0.522 -1.978,0.522c-1.185,0 -2.187,-0.429 -3.008,-1.289c-0.82,-0.859 -1.23,-1.992 -1.23,-3.398c0,-1.452 0.428,-2.621 1.284,-3.506c0.856,-0.885 1.929,-1.328 3.218,-1.328c0.931,0 1.782,0.251 2.554,0.752c0.771,0.501 1.357,1.216 1.757,2.143c0.401,0.928 0.601,2.271 0.601,4.029c0,1.829 -0.199,3.286 -0.596,4.37c-0.397,1.084 -0.988,1.909 -1.772,2.475c-0.785,0.567 -1.704,0.85 -2.759,0.85c-1.12,0 -2.034,-0.311 -2.744,-0.933c-0.71,-0.621 -1.136,-1.495 -1.279,-2.622ZM7617.42,3959.16c0,-1.009 -0.269,-1.81 -0.806,-2.402c-0.537,-0.593 -1.183,-0.889 -1.938,-0.889c-0.782,0 -1.462,0.319 -2.041,0.957c-0.58,0.638 -0.869,1.465 -0.869,2.48c0,0.912 0.275,1.653 0.825,2.222c0.55,0.57 1.229,0.855 2.036,0.855c0.814,0 1.483,-0.285 2.007,-0.855c0.524,-0.569 0.786,-1.359 0.786,-2.368Z" style="fill:black;fill-rule:nonzero;stroke-width:1px;stroke:black;"/>
                        </g>
                        <g transform="matrix(1,0,0,1,398.884,18.83)">
                            <path d="M7609.96,3965.04l1.846,-0.156c0.136,0.898 0.454,1.574 0.952,2.026c0.498,0.453 1.098,0.679 1.802,0.679c0.846,0 1.562,-0.319 2.148,-0.957c0.586,-0.638 0.879,-1.485 0.879,-2.539c0,-1.003 -0.282,-1.794 -0.845,-2.373c-0.563,-0.58 -1.3,-0.87 -2.212,-0.87c-0.566,0 -1.077,0.129 -1.533,0.386c-0.456,0.257 -0.814,0.591 -1.074,1.001l-1.651,-0.215l1.387,-7.353l7.119,0l0,1.68l-5.713,0l-0.771,3.847c0.859,-0.599 1.761,-0.898 2.705,-0.898c1.25,0 2.305,0.433 3.164,1.299c0.859,0.865 1.289,1.979 1.289,3.339c0,1.296 -0.377,2.416 -1.133,3.36c-0.918,1.159 -2.171,1.738 -3.759,1.738c-1.303,0 -2.365,-0.365 -3.189,-1.094c-0.824,-0.729 -1.294,-1.696 -1.411,-2.9Z" style="fill:black;fill-rule:nonzero;stroke-width:1px;stroke:black;"/>
                        </g>
                        <g transform="matrix(1,0,0,1,894.992,18.83)">
                            <path d="M7616.58,3968.79l-1.758,0l0,-11.201c-0.423,0.403 -0.978,0.807 -1.665,1.211c-0.687,0.403 -1.304,0.706 -1.85,0.908l0,-1.699c0.983,-0.463 1.842,-1.022 2.578,-1.68c0.735,-0.658 1.256,-1.296 1.562,-1.914l1.133,0l0,14.375Z" style="fill:black;fill-rule:nonzero;stroke-width:1px;stroke:black;"/>
                            <path d="M7621.08,3961.73c0,-1.692 0.174,-3.055 0.522,-4.087c0.349,-1.031 0.866,-1.827 1.553,-2.387c0.687,-0.56 1.551,-0.84 2.593,-0.84c0.768,0 1.442,0.155 2.021,0.464c0.58,0.309 1.058,0.755 1.436,1.338c0.378,0.582 0.674,1.292 0.889,2.129c0.214,0.836 0.322,1.964 0.322,3.383c0,1.68 -0.173,3.036 -0.518,4.068c-0.345,1.032 -0.861,1.829 -1.548,2.392c-0.686,0.563 -1.554,0.845 -2.602,0.845c-1.38,0 -2.464,-0.495 -3.252,-1.484c-0.944,-1.192 -1.416,-3.132 -1.416,-5.821ZM7622.89,3961.73c0,2.351 0.275,3.915 0.825,4.693c0.55,0.778 1.229,1.167 2.036,1.167c0.807,0 1.486,-0.391 2.036,-1.172c0.55,-0.781 0.825,-2.344 0.825,-4.688c0,-2.356 -0.275,-3.922 -0.825,-4.697c-0.55,-0.775 -1.235,-1.162 -2.056,-1.162c-0.807,0 -1.451,0.342 -1.933,1.025c-0.606,0.873 -0.908,2.484 -0.908,4.834Z" style="fill:black;fill-rule:nonzero;stroke-width:1px;stroke:black;"/>
                        </g>
                    </g>
                    <g id="side labels" transform="matrix(1,0,0,1,20559.5,1056.35)">
                        <g transform="matrix(1.25,0,0,1,-1892.5,2.84217e-13)">
                            <rect x="7530" y="3998.54" width="40" height="100" style="fill:rgb(128,128,128);stroke-width:0.88px;stroke:black;"/>
                        </g>
                        <g transform="matrix(1.25,0,0,1,-1892.5,-100)">
                            <rect x="7530" y="3998.54" width="40" height="100" style="fill:rgb(128,128,128);stroke-width:0.88px;stroke:black;"/>
                        </g>
                        <g transform="matrix(1.25,0,0,1,-1892.5,400)">
                            <rect x="7530" y="3998.54" width="40" height="100" style="fill:rgb(128,128,128);stroke-width:0.88px;stroke:black;"/>
                        </g>
                        <g transform="matrix(1.25,0,0,1,-1892.5,800)">
                            <rect x="7530" y="3998.54" width="40" height="100" style="fill:rgb(128,128,128);stroke-width:0.88px;stroke:black;"/>
                        </g>
                        <g transform="matrix(1.25,0,0,1,-1892.5,100)">
                            <rect x="7530" y="3998.54" width="40" height="100" style="fill:rgb(128,128,128);stroke-width:0.88px;stroke:black;"/>
                        </g>
                        <g transform="matrix(1.25,0,0,1,-1892.5,500)">
                            <rect x="7530" y="3998.54" width="40" height="100" style="fill:rgb(128,128,128);stroke-width:0.88px;stroke:black;"/>
                        </g>
                        <g transform="matrix(1.25,0,0,1,-1892.5,900)">
                            <rect x="7530" y="3998.54" width="40" height="100" style="fill:rgb(128,128,128);stroke-width:0.88px;stroke:black;"/>
                        </g>
                        <g transform="matrix(1.25,0,0,1,-1892.5,200)">
                            <rect x="7530" y="3998.54" width="40" height="100" style="fill:rgb(128,128,128);stroke-width:0.88px;stroke:black;"/>
                        </g>
                        <g transform="matrix(1.25,0,0,1,-1892.5,600)">
                            <rect x="7530" y="3998.54" width="40" height="100" style="fill:rgb(128,128,128);stroke-width:0.88px;stroke:black;"/>
                        </g>
                        <g transform="matrix(1.25,0,0,1,-1892.5,1000)">
                            <rect x="7530" y="3998.54" width="40" height="100" style="fill:rgb(128,128,128);stroke-width:0.88px;stroke:black;"/>
                        </g>
                        <g transform="matrix(1.25,0,0,1,-1892.5,300)">
                            <rect x="7530" y="3998.54" width="40" height="100" style="fill:rgb(128,128,128);stroke-width:0.88px;stroke:black;"/>
                        </g>
                        <g transform="matrix(1.25,0,0,1,-1892.5,700)">
                            <rect x="7530" y="3998.54" width="40" height="100" style="fill:rgb(128,128,128);stroke-width:0.88px;stroke:black;"/>
                        </g>
                        <g transform="matrix(1,0,0,1,-17.0146,20.7381)">
                            <path d="M7565.41,4040.18l-3.164,0l0,-20.162c-0.761,0.726 -1.76,1.453 -2.997,2.179c-1.236,0.727 -2.346,1.272 -3.331,1.635l0,-3.058c1.77,-0.832 3.317,-1.84 4.641,-3.024c1.324,-1.183 2.262,-2.332 2.812,-3.445l2.039,0l0,25.875Z" style="fill:black;fill-rule:nonzero;stroke-width:1px;stroke:black;"/>
                        </g>
                        <g transform="matrix(1,0,0,1,-17.0146,-79.2619)">
                            <path d="M7553.49,4027.47c0,-3.047 0.314,-5.499 0.941,-7.357c0.627,-1.857 1.558,-3.29 2.795,-4.297c1.236,-1.008 2.792,-1.512 4.667,-1.512c1.383,0 2.595,0.278 3.638,0.835c1.043,0.556 1.905,1.359 2.584,2.408c0.68,1.049 1.213,2.326 1.6,3.832c0.387,1.506 0.58,3.536 0.58,6.091c0,3.023 -0.31,5.464 -0.932,7.321c-0.621,1.858 -1.549,3.293 -2.786,4.307c-1.236,1.013 -2.798,1.52 -4.684,1.52c-2.485,0 -4.436,-0.89 -5.854,-2.672c-1.699,-2.144 -2.549,-5.636 -2.549,-10.476ZM7556.74,4027.47c0,4.23 0.495,7.046 1.486,8.446c0.99,1.401 2.212,2.101 3.665,2.101c1.453,0 2.675,-0.703 3.665,-2.11c0.99,-1.406 1.485,-4.218 1.485,-8.437c0,-4.242 -0.495,-7.061 -1.485,-8.455c-0.99,-1.395 -2.224,-2.092 -3.7,-2.092c-1.454,0 -2.614,0.615 -3.481,1.846c-1.09,1.57 -1.635,4.47 -1.635,8.701Z" style="fill:black;fill-rule:nonzero;stroke-width:1px;stroke:black;"/>
                        </g>
                        <g transform="matrix(1,0,0,1,-17.0146,420.738)">
                            <path d="M7553.49,4033.43l3.323,-0.281c0.246,1.617 0.817,2.833 1.714,3.647c0.896,0.815 1.977,1.222 3.243,1.222c1.523,0 2.812,-0.574 3.867,-1.723c1.055,-1.148 1.582,-2.672 1.582,-4.57c0,-1.805 -0.507,-3.229 -1.521,-4.272c-1.013,-1.043 -2.34,-1.564 -3.981,-1.564c-1.02,0 -1.94,0.231 -2.76,0.694c-0.82,0.463 -1.465,1.064 -1.933,1.802l-2.971,-0.387l2.496,-13.236l12.814,0l0,3.023l-10.283,0l-1.388,6.926c1.546,-1.078 3.169,-1.617 4.869,-1.617c2.25,0 4.148,0.779 5.695,2.338c1.547,1.558 2.32,3.562 2.32,6.012c0,2.332 -0.679,4.347 -2.039,6.046c-1.652,2.086 -3.908,3.129 -6.767,3.129c-2.344,0 -4.257,-0.656 -5.74,-1.968c-1.482,-1.313 -2.329,-3.053 -2.54,-5.221Z" style="fill:black;fill-rule:nonzero;stroke-width:1px;stroke:black;"/>
                        </g>
                        <g transform="matrix(1,0,0,1,-17.0146,820.738)">
                            <path d="M7553.97,4034.22l3.041,-0.281c0.258,1.429 0.75,2.466 1.477,3.111c0.726,0.644 1.658,0.967 2.794,0.967c0.973,0 1.826,-0.223 2.558,-0.668c0.733,-0.446 1.333,-1.04 1.802,-1.784c0.469,-0.745 0.861,-1.749 1.178,-3.015c0.316,-1.266 0.474,-2.555 0.474,-3.867c0,-0.141 -0.006,-0.352 -0.017,-0.633c-0.633,1.008 -1.497,1.825 -2.593,2.452c-1.096,0.627 -2.282,0.941 -3.56,0.941c-2.133,0 -3.937,-0.774 -5.414,-2.321c-1.476,-1.547 -2.215,-3.586 -2.215,-6.117c0,-2.613 0.771,-4.717 2.312,-6.311c1.541,-1.593 3.472,-2.39 5.792,-2.39c1.676,0 3.208,0.451 4.597,1.353c1.388,0.903 2.443,2.189 3.164,3.859c0.72,1.67 1.081,4.087 1.081,7.251c0,3.293 -0.358,5.915 -1.073,7.866c-0.714,1.951 -1.778,3.436 -3.19,4.456c-1.412,1.02 -3.067,1.529 -4.966,1.529c-2.015,0 -3.662,-0.559 -4.939,-1.678c-1.278,-1.12 -2.045,-2.693 -2.303,-4.72ZM7566.92,4022.84c0,-1.817 -0.483,-3.258 -1.45,-4.324c-0.967,-1.067 -2.13,-1.6 -3.489,-1.6c-1.407,0 -2.631,0.574 -3.674,1.723c-1.043,1.148 -1.565,2.636 -1.565,4.464c0,1.641 0.495,2.974 1.486,4c0.99,1.025 2.212,1.538 3.665,1.538c1.465,0 2.669,-0.513 3.612,-1.538c0.943,-1.026 1.415,-2.447 1.415,-4.263Z" style="fill:black;fill-rule:nonzero;stroke-width:1px;stroke:black;"/>
                        </g>
                        <g transform="matrix(1,0,0,1,-17.0146,120.738)">
                            <path d="M7570.12,4037.14l0,3.041l-17.033,0c-0.023,-0.762 0.1,-1.494 0.369,-2.197c0.434,-1.161 1.128,-2.303 2.083,-3.428c0.955,-1.125 2.335,-2.426 4.14,-3.903c2.801,-2.296 4.693,-4.116 5.678,-5.458c0.984,-1.341 1.476,-2.61 1.476,-3.805c0,-1.254 -0.448,-2.312 -1.345,-3.173c-0.896,-0.861 -2.065,-1.292 -3.506,-1.292c-1.524,0 -2.743,0.457 -3.657,1.371c-0.914,0.914 -1.377,2.18 -1.388,3.797l-3.252,-0.334c0.222,-2.426 1.06,-4.274 2.513,-5.546c1.454,-1.271 3.405,-1.907 5.854,-1.907c2.473,0 4.43,0.685 5.871,2.056c1.441,1.372 2.162,3.071 2.162,5.098c0,1.031 -0.211,2.045 -0.633,3.041c-0.422,0.996 -1.122,2.045 -2.1,3.147c-0.979,1.101 -2.605,2.613 -4.878,4.535c-1.899,1.594 -3.117,2.675 -3.656,3.243c-0.54,0.568 -0.985,1.14 -1.336,1.714l12.638,0Z" style="fill:black;fill-rule:nonzero;stroke-width:1px;stroke:black;"/>
                        </g>
                        <g transform="matrix(1,0,0,1,-17.0146,520.738)">
                            <path d="M7569.91,4020.72l-3.146,0.246c-0.281,-1.242 -0.68,-2.145 -1.195,-2.707c-0.856,-0.902 -1.911,-1.354 -3.165,-1.354c-1.007,0 -1.892,0.282 -2.654,0.844c-0.996,0.727 -1.781,1.787 -2.355,3.182c-0.574,1.394 -0.873,3.381 -0.897,5.959c0.762,-1.16 1.694,-2.022 2.795,-2.584c1.102,-0.563 2.256,-0.844 3.463,-0.844c2.109,0 3.905,0.776 5.388,2.329c1.482,1.553 2.223,3.56 2.223,6.021c0,1.617 -0.348,3.12 -1.046,4.508c-0.697,1.389 -1.655,2.453 -2.874,3.191c-1.218,0.738 -2.601,1.107 -4.148,1.107c-2.637,0 -4.787,-0.969 -6.451,-2.909c-1.664,-1.939 -2.496,-5.136 -2.496,-9.589c0,-4.98 0.92,-8.601 2.76,-10.863c1.605,-1.969 3.767,-2.953 6.486,-2.953c2.027,0 3.688,0.568 4.983,1.705c1.295,1.137 2.072,2.707 2.329,4.711ZM7556.99,4031.83c0,1.09 0.232,2.133 0.695,3.129c0.463,0.996 1.11,1.755 1.942,2.277c0.832,0.521 1.705,0.782 2.619,0.782c1.336,0 2.485,-0.539 3.446,-1.617c0.961,-1.079 1.441,-2.543 1.441,-4.395c0,-1.781 -0.475,-3.185 -1.424,-4.21c-0.949,-1.025 -2.144,-1.538 -3.586,-1.538c-1.429,0 -2.642,0.513 -3.638,1.538c-0.997,1.025 -1.495,2.37 -1.495,4.034Z" style="fill:black;fill-rule:nonzero;stroke-width:1px;stroke:black;"/>
                        </g>
                        <g transform="matrix(1,0,0,1,-17.0146,920.738)">
                            <path d="M7555.4,4040.18l-3.164,0l0,-20.162c-0.762,0.726 -1.761,1.453 -2.998,2.179c-1.236,0.727 -2.346,1.272 -3.331,1.635l0,-3.058c1.77,-0.832 3.317,-1.84 4.641,-3.024c1.324,-1.183 2.262,-2.332 2.813,-3.445l2.039,0l0,25.875Z" style="fill:black;fill-rule:nonzero;stroke-width:1px;stroke:black;"/>
                            <path d="M7563.5,4027.47c0,-3.047 0.314,-5.499 0.941,-7.357c0.627,-1.857 1.558,-3.29 2.794,-4.297c1.237,-1.008 2.792,-1.512 4.667,-1.512c1.383,0 2.596,0.278 3.639,0.835c1.043,0.556 1.904,1.359 2.584,2.408c0.68,1.049 1.213,2.326 1.6,3.832c0.386,1.506 0.58,3.536 0.58,6.091c0,3.023 -0.311,5.464 -0.932,7.321c-0.621,1.858 -1.55,3.293 -2.786,4.307c-1.236,1.013 -2.798,1.52 -4.685,1.52c-2.484,0 -4.435,-0.89 -5.853,-2.672c-1.699,-2.144 -2.549,-5.636 -2.549,-10.476ZM7566.76,4027.47c0,4.23 0.495,7.046 1.485,8.446c0.991,1.401 2.212,2.101 3.665,2.101c1.454,0 2.675,-0.703 3.666,-2.11c0.99,-1.406 1.485,-4.218 1.485,-8.437c0,-4.242 -0.495,-7.061 -1.485,-8.455c-0.991,-1.395 -2.224,-2.092 -3.701,-2.092c-1.453,0 -2.613,0.615 -3.48,1.846c-1.09,1.57 -1.635,4.47 -1.635,8.701Z" style="fill:black;fill-rule:nonzero;stroke-width:1px;stroke:black;"/>
                        </g>
                        <g transform="matrix(1,0,0,1,-17.0146,220.738)">
                            <path d="M7553.51,4033.37l3.164,-0.422c0.363,1.793 0.981,3.085 1.855,3.876c0.873,0.791 1.936,1.187 3.19,1.187c1.488,0 2.745,-0.516 3.77,-1.547c1.026,-1.031 1.539,-2.309 1.539,-3.832c0,-1.453 -0.475,-2.652 -1.424,-3.595c-0.95,-0.943 -2.157,-1.415 -3.621,-1.415c-0.598,0 -1.342,0.117 -2.233,0.352l0.352,-2.778c0.211,0.024 0.381,0.035 0.51,0.035c1.347,0 2.56,-0.351 3.638,-1.054c1.078,-0.703 1.617,-1.787 1.617,-3.252c0,-1.16 -0.392,-2.121 -1.177,-2.883c-0.786,-0.762 -1.799,-1.143 -3.041,-1.143c-1.231,0 -2.256,0.387 -3.077,1.161c-0.82,0.773 -1.347,1.933 -1.582,3.48l-3.164,-0.562c0.387,-2.122 1.266,-3.765 2.637,-4.931c1.371,-1.166 3.076,-1.749 5.115,-1.749c1.407,0 2.701,0.302 3.885,0.905c1.184,0.604 2.089,1.427 2.716,2.47c0.627,1.043 0.94,2.15 0.94,3.322c0,1.113 -0.298,2.127 -0.896,3.041c-0.598,0.914 -1.483,1.641 -2.654,2.18c1.523,0.351 2.707,1.081 3.55,2.188c0.844,1.108 1.266,2.493 1.266,4.158c0,2.25 -0.82,4.157 -2.461,5.721c-1.641,1.565 -3.715,2.347 -6.223,2.347c-2.261,0 -4.139,-0.674 -5.633,-2.022c-1.495,-1.347 -2.347,-3.093 -2.558,-5.238Z" style="fill:black;fill-rule:nonzero;stroke-width:1px;stroke:black;"/>
                        </g>
                        <g transform="matrix(1,0,0,1,-17.0146,620.738)">
                            <path d="M7553.7,4017.78l0,-3.041l16.682,0l0,2.461c-1.641,1.746 -3.267,4.067 -4.878,6.961c-1.611,2.895 -2.856,5.871 -3.735,8.93c-0.633,2.156 -1.037,4.517 -1.213,7.084l-3.252,0c0.035,-2.028 0.433,-4.477 1.195,-7.348c0.762,-2.871 1.855,-5.639 3.278,-8.305c1.424,-2.666 2.939,-4.914 4.544,-6.742l-12.621,0Z" style="fill:black;fill-rule:nonzero;stroke-width:1px;stroke:black;"/>
                        </g>
                        <g transform="matrix(1,0,0,1,-17.0146,1020.74)">
                            <path d="M7556.74,4040.18l-3.165,0l0,-20.162c-0.761,0.726 -1.76,1.453 -2.997,2.179c-1.236,0.727 -2.346,1.272 -3.331,1.635l0,-3.058c1.77,-0.832 3.317,-1.84 4.641,-3.024c1.324,-1.183 2.262,-2.332 2.812,-3.445l2.04,0l0,25.875Z" style="fill:black;fill-rule:nonzero;stroke-width:1px;stroke:black;"/>
                            <path d="M7574.09,4040.18l-3.164,0l0,-20.162c-0.762,0.726 -1.761,1.453 -2.997,2.179c-1.236,0.727 -2.347,1.272 -3.331,1.635l0,-3.058c1.77,-0.832 3.316,-1.84 4.641,-3.024c1.324,-1.183 2.261,-2.332 2.812,-3.445l2.039,0l0,25.875Z" style="fill:black;fill-rule:nonzero;stroke-width:1px;stroke:black;"/>
                        </g>
                        <g transform="matrix(1,0,0,1,-17.0146,320.738)">
                            <path d="M7563.64,4040.18l0,-6.17l-11.18,0l0,-2.9l11.76,-16.7l2.584,0l0,16.7l3.48,0l0,2.9l-3.48,0l0,6.17l-3.164,0ZM7563.64,4031.11l0,-11.62l-8.068,11.62l8.068,0Z" style="fill:black;fill-rule:nonzero;stroke-width:1px;stroke:black;"/>
                        </g>
                        <g transform="matrix(1,0,0,1,-17.0146,720.738)">
                            <path d="M7558.36,4026.2c-1.313,-0.48 -2.286,-1.166 -2.918,-2.056c-0.633,-0.891 -0.95,-1.957 -0.95,-3.2c0,-1.875 0.674,-3.451 2.022,-4.728c1.347,-1.277 3.14,-1.916 5.379,-1.916c2.25,0 4.06,0.653 5.431,1.96c1.371,1.306 2.057,2.897 2.057,4.772c0,1.196 -0.313,2.236 -0.94,3.12c-0.627,0.885 -1.58,1.568 -2.857,2.048c1.582,0.516 2.786,1.348 3.612,2.496c0.827,1.149 1.24,2.52 1.24,4.114c0,2.203 -0.78,4.054 -2.338,5.554c-1.559,1.5 -3.61,2.25 -6.153,2.25c-2.543,0 -4.593,-0.753 -6.152,-2.258c-1.558,-1.506 -2.338,-3.384 -2.338,-5.634c0,-1.676 0.425,-3.079 1.275,-4.21c0.849,-1.131 2.059,-1.902 3.63,-2.312ZM7557.73,4020.84c0,1.219 0.392,2.215 1.177,2.988c0.786,0.774 1.805,1.16 3.059,1.16c1.219,0 2.218,-0.383 2.997,-1.151c0.779,-0.768 1.169,-1.708 1.169,-2.821c0,-1.16 -0.401,-2.136 -1.204,-2.927c-0.803,-0.791 -1.802,-1.187 -2.997,-1.187c-1.207,0 -2.209,0.387 -3.006,1.161c-0.797,0.773 -1.195,1.699 -1.195,2.777ZM7556.71,4032.74c0,0.903 0.214,1.776 0.642,2.619c0.428,0.844 1.063,1.498 1.907,1.96c0.844,0.463 1.752,0.695 2.725,0.695c1.511,0 2.759,-0.487 3.744,-1.459c0.984,-0.973 1.476,-2.209 1.476,-3.709c0,-1.524 -0.507,-2.783 -1.52,-3.78c-1.014,-0.996 -2.282,-1.494 -3.806,-1.494c-1.488,0 -2.722,0.493 -3.7,1.477c-0.979,0.984 -1.468,2.215 -1.468,3.691Z" style="fill:black;fill-rule:nonzero;stroke-width:1px;stroke:black;"/>
                        </g>
                    </g>
                    <rect x="28029.5" y="4804.89" width="100" height="100" style="fill:none;stroke-width:1px;stroke-miterlimit:1;stroke:black;"/>
                    <g transform="matrix(1,0,0,1,20609.5,956.346)">
                        <rect x="7470" y="3898.54" width="100" height="100" style="fill:rgb(128,128,128);stroke-width:1px;stroke:black;"/>
                    </g>
                    <g transform="matrix(1,0,0,1,20631,987.289)">
                        <path d="M7477.94,3943.44l-5.625,0l0,-35.844c-1.355,1.292 -3.131,2.584 -5.329,3.875c-2.197,1.292 -4.171,2.261 -5.921,2.907l0,-5.438c3.145,-1.479 5.895,-3.271 8.25,-5.375c2.354,-2.104 4.02,-4.146 5,-6.125l3.625,0l0,46Z" style="fill:black;fill-rule:nonzero;stroke-width:1px;stroke:black;"/>
                        <path d="M7493.91,3943.44l0,-33.187l5.032,0l0,4.656c1.041,-1.625 2.427,-2.932 4.156,-3.922c1.729,-0.99 3.698,-1.484 5.906,-1.484c2.458,0 4.474,0.51 6.047,1.531c1.573,1.021 2.682,2.448 3.328,4.281c2.625,-3.875 6.042,-5.812 10.25,-5.812c3.292,0 5.823,0.911 7.594,2.734c1.771,1.823 2.656,4.63 2.656,8.422l0,22.781l-5.594,0l0,-20.906c0,-2.25 -0.182,-3.87 -0.547,-4.859c-0.364,-0.99 -1.026,-1.787 -1.984,-2.391c-0.958,-0.604 -2.083,-0.906 -3.375,-0.906c-2.333,0 -4.271,0.776 -5.812,2.328c-1.542,1.552 -2.313,4.036 -2.313,7.453l0,19.281l-5.625,0l0,-21.562c0,-2.5 -0.458,-4.375 -1.375,-5.625c-0.917,-1.25 -2.417,-1.875 -4.5,-1.875c-1.583,0 -3.047,0.416 -4.391,1.25c-1.343,0.833 -2.317,2.052 -2.921,3.656c-0.605,1.604 -0.907,3.917 -0.907,6.937l0,17.219l-5.625,0Z" style="fill:black;fill-rule:nonzero;stroke-width:1px;stroke:black;"/>
                    </g>
                </g>
            </g>
        </g>
    </g>
</svg>
