<?xml version="1.0" standalone="no"?><!DOCTYPE svg PUBLIC "-//W3C//DTD SVG 1.1//EN" "http://www.w3.org/Graphics/SVG/1.1/DTD/svg11.dtd"><svg width="100%" height="100%" viewBox="0 0 5421 5421" version="1.1" xmlns="http://www.w3.org/2000/svg" xmlns:xlink="http://www.w3.org/1999/xlink" xml:space="preserve" style="fill-rule:evenodd;clip-rule:evenodd;stroke-linejoin:round;stroke-miterlimit:1.41421;"><clipPath id="_clip1"><rect id="90 degree right turn" x="1.696" y="1.885" width="5416.67" height="5416.67"/></clipPath><g clip-path="url(#_clip1)"><g id="Layer1"><path d="M4168.36,843.551l-3325,0l0,3325l-16.667,0l0,-3336.78l4.882,-4.881l3336.78,0l0,16.666Z" style="fill:#000;"/><path d="M4168.36,1676.88l-2700,0l0,2491.67l-16.666,0l0,-2503.45l4.881,-4.882l2711.78,0l0,16.667Z" style="fill:#000;"/><path d="M2013.86,1176.7l3.003,0.003l0.052,0l2.983,0.007l0.039,0l2.984,0.011l0.039,0l2.985,0.013l0.038,0.001l2.999,0.016l0.052,0l3.017,0.021l3.001,0.023l0.051,0l3.026,0.027l3.004,0.029l0.051,0.001l2.589,0.028l2124.59,0l0,150l-2125.2,0l-0.41,-0.002l-3.129,-0.035l-2.891,-0.027l-2.886,-0.026l-2.885,-0.022l-2.878,-0.02l-2.864,-0.015l-2.869,-0.013l-2.868,-0.01l-2.848,-0.007l-2.86,-0.003l-2.855,-0.001l-2.835,0.003l-2.847,0.006l-2.838,0.009l-2.826,0.012l-2.834,0.015l-2.826,0.018l-2.812,0.022l-2.818,0.025l-2.804,0.027l-2.812,0.032l-2.805,0.033l-2.791,0.038l-2.795,0.04l-2.797,0.044l-2.777,0.046l-2.77,0.05l-2.782,0.054l-2.774,0.056l-2.761,0.059l-2.752,0.063l-2.766,0.066l-2.757,0.069l-2.743,0.072l-2.735,0.075l-2.748,0.079l-2.727,0.082l-2.739,0.086l-2.729,0.088l-2.702,0.09l-2.727,0.096l-2.716,0.098l-2.7,0.101l-2.696,0.104l-2.691,0.108l-2.704,0.111l-2.7,0.114l-2.676,0.117l-2.675,0.121l-2.681,0.124l-2.661,0.126l-2.664,0.13l-2.657,0.134l-2.652,0.137l-2.659,0.14l-2.654,0.144l-2.642,0.146l-2.618,0.149l-2.641,0.154l-2.64,0.157l-2.6,0.158l-2.617,0.164l-2.628,0.167l-2.601,0.169l-2.6,0.173l-2.61,0.177l-2.592,0.179l-2.587,0.182l-2.583,0.186l-2.575,0.189l-2.584,0.194l-2.574,0.195l-2.547,0.198l-2.557,0.203l-2.571,0.207l-2.544,0.208l-2.549,0.213l-2.543,0.216l-2.531,0.219l-2.545,0.223l-2.526,0.226l-2.502,0.227l-2.514,0.233l-2.519,0.236l-2.503,0.239l-2.509,0.243l-2.502,0.246l-2.481,0.248l-2.482,0.252l-2.497,0.258l-2.479,0.258l-2.459,0.262l-2.47,0.266l-2.459,0.269l-2.457,0.273l-2.456,0.276l-2.442,0.279l-2.443,0.282l-2.44,0.287l-2.434,0.289l-2.416,0.291l-2.426,0.297l-2.415,0.299l-2.413,0.304l-2.413,0.306l-2.396,0.309l-2.408,0.315l-2.377,0.314l-2.379,0.319l-2.395,0.325l-2.368,0.325l-2.369,0.33l-2.376,0.335l-2.359,0.336l-2.35,0.339l-2.353,0.344l-2.348,0.347l-2.341,0.35l-2.319,0.351l-2.335,0.359l-2.334,0.361l-2.316,0.364l-2.321,0.368l-2.302,0.369l-2.303,0.374l-2.289,0.375l-2.303,0.383l-2.285,0.383l-2.275,0.387l-2.287,0.393l-2.266,0.393l-2.267,0.398l-2.269,0.402l-2.253,0.404l-2.249,0.408l-2.256,0.413l-2.224,0.412l-2.228,0.417l-2.242,0.424l-2.207,0.422l-2.229,0.431l-2.225,0.433l-2.205,0.435l-2.188,0.435l-2.208,0.446l-2.207,0.447l-2.156,0.443l-2.194,0.455l-2.177,0.456l-2.166,0.459l-2.18,0.465l-2.144,0.463l-2.153,0.469l-2.149,0.473l-2.156,0.479l-2.139,0.479l-2.101,0.477l-2.142,0.49l-2.137,0.494l-2.103,0.489l-2.094,0.494l-2.12,0.504l-2.1,0.503l-2.095,0.508l-2.091,0.51l-2.083,0.515l-2.082,0.517l-2.058,0.518l-2.069,0.524l-2.061,0.528l-2.06,0.532l-2.051,0.534l-2.031,0.534l-2.039,0.542l-2.038,0.545l-2.013,0.545l-2.025,0.552l-2.021,0.557l-2.015,0.559l-2.009,0.562l-2.007,0.567l-1.979,0.564l-1.975,0.568l-1.991,0.578l-1.979,0.579l-1.977,0.584l-1.954,0.581l-1.965,0.591l-1.964,0.594l-1.936,0.592l-1.932,0.595l-1.943,0.605l-1.942,0.609l-1.914,0.605l-1.909,0.609l-1.921,0.619l-1.921,0.622l-1.87,0.612l-1.92,0.635l-1.903,0.632l-1.879,0.631l-1.873,0.632l-1.861,0.636l-1.881,0.647l-1.851,0.643l-1.869,0.653l-1.864,0.657l-1.838,0.653l-1.813,0.65l-1.847,0.669l-1.835,0.668l-1.795,0.66l-1.83,0.679l-1.826,0.681l-1.797,0.677l-1.789,0.679l-1.792,0.686l-1.78,0.687l-1.795,0.699l-1.77,0.693l-1.758,0.697l-1.782,0.709l-1.759,0.707l-1.748,0.707l-1.736,0.709l-1.745,0.718l-1.726,0.716l-1.748,0.731l-1.718,0.723l-1.709,0.727l-1.715,0.734l-1.684,0.727l-1.692,0.737l-1.714,0.752l-1.682,0.743l-1.701,0.758l-1.686,0.756l-1.637,0.741l-1.656,0.755l-1.664,0.766l-1.66,0.769l-1.643,0.768l-1.634,0.769l-1.644,0.78l-1.625,0.776l-1.617,0.78l-1.627,0.79l-1.622,0.794l-1.604,0.79l-1.564,0.778l-1.602,0.803l-1.617,0.816l-1.577,0.802l-1.543,0.791l-1.565,0.81l-1.592,0.829l-1.541,0.808l-1.547,0.82l-1.56,0.831l-1.556,0.836l-1.535,0.83l-1.478,0.806l-1.536,0.847l-1.55,0.857l-1.509,0.843l-1.49,0.837l-1.482,0.841l-1.525,0.872l-1.473,0.847l-1.465,0.851l-1.474,0.863l-1.487,0.877l-1.451,0.86l-1.455,0.873l-1.474,0.887l-1.431,0.871l-1.441,0.882l-1.419,0.876l-1.45,0.902l-1.41,0.884l-1.403,0.887l-1.448,0.921l-1.394,0.893l-1.386,0.897l-1.395,0.909l-1.374,0.902l-1.392,0.921l-1.379,0.92l-1.371,0.921l-1.376,0.932l-1.349,0.92l-1.355,0.932l-1.337,0.925l-1.329,0.929l-1.362,0.959l-1.321,0.936l-1.313,0.939l-1.309,0.943l-1.314,0.955l-1.335,0.977l-1.28,0.943l-1.286,0.956l-1.293,0.968l-1.274,0.962l-1.308,0.996l-1.265,0.968l-1.258,0.973l-1.253,0.975l-1.234,0.969l-1.294,1.024l-1.238,0.985l-1.218,0.98l-1.238,1.003l-1.219,0.995l-1.243,1.022l-1.211,1.004l-1.175,0.982l-1.236,1.043l-1.184,1.002l-1.185,1.017l-1.224,1.054l-1.137,0.988l-1.169,1.027l-1.206,1.066l-1.15,1.022l-1.155,1.038l-1.203,1.088l-1.094,0.996l-1.125,1.037l-1.177,1.089l-1.139,1.065l-1.125,1.058l-1.106,1.051l-1.103,1.055l-1.106,1.069l-1.113,1.082l-1.085,1.065l-1.123,1.11l-1.099,1.094l-1.039,1.044l-1.063,1.079l-1.102,1.126l-1.066,1.098l-1.059,1.101l-1.056,1.104l-1.039,1.098l-1.077,1.146l-1.01,1.082l-1.031,1.119l-1.063,1.158l-0.973,1.071l-1.017,1.131l-1.054,1.18l-1.001,1.129l-0.994,1.132l-1,1.146l-0.951,1.102l-1.027,1.202l-0.977,1.146l-0.967,1.152l-0.983,1.175l-0.957,1.158l-0.957,1.164l-0.955,1.176l-0.946,1.171l-0.937,1.175l-0.985,1.24l-0.898,1.142l-0.923,1.186l-0.92,1.191l-0.921,1.205l-0.91,1.199l-0.903,1.204l-0.908,1.217l-0.901,1.222l-0.89,1.215l-0.884,1.22l-0.928,1.289l-0.838,1.173l-0.867,1.232l-0.875,1.247l-0.857,1.241l-0.858,1.246l-0.855,1.259l-0.849,1.254l-0.838,1.259l-0.845,1.273l-0.791,1.208l-0.864,1.331l-0.828,1.285l-0.81,1.271l-0.814,1.286l-0.781,1.249l-0.8,1.293l-0.828,1.35l-0.8,1.313l-0.751,1.247l-0.781,1.313l-0.778,1.317l-0.771,1.323l-0.774,1.335l-0.762,1.331l-0.759,1.337l-0.753,1.34l-0.75,1.346l-0.713,1.296l-0.737,1.355l-0.763,1.415l-0.736,1.374l-0.691,1.305l-0.713,1.367l-0.719,1.388l-0.709,1.384l-0.706,1.39l-0.666,1.329l-0.693,1.4l-0.722,1.47l-0.687,1.41l-0.652,1.357l-0.67,1.411l-0.671,1.426l-0.634,1.363l-0.658,1.435l-0.686,1.507l-0.652,1.446l-0.616,1.384l-0.636,1.449l-0.64,1.469l-0.6,1.398l-0.621,1.465l-0.649,1.545l-0.617,1.483l-0.586,1.427l-0.605,1.492l-0.596,1.486l-0.568,1.436l-0.591,1.516l-0.585,1.515l-0.577,1.513l-0.576,1.527l-0.544,1.462l-0.561,1.531l-0.585,1.613l-0.535,1.484l-0.52,1.477l-0.566,1.625l-0.543,1.571l-0.509,1.494l-0.528,1.577l-0.525,1.582l-0.493,1.511l-0.512,1.594l-0.509,1.6l-0.502,1.604l-0.497,1.606l-0.47,1.54l-0.487,1.628l-0.483,1.628l-0.473,1.624l-0.473,1.641l-0.446,1.574l-0.46,1.652l-0.457,1.657l-0.428,1.583l-0.443,1.67l-0.44,1.675l-0.414,1.606l-0.427,1.688l-0.441,1.765l-0.403,1.627l-0.392,1.63l-0.406,1.707l-0.4,1.718l-0.396,1.719l-0.389,1.726l-0.371,1.665l-0.361,1.67l-0.389,1.82l-0.369,1.75l-0.348,1.685l-0.342,1.692l-0.349,1.773l-0.347,1.778l-0.338,1.778l-0.336,1.792l-0.316,1.726l-0.309,1.73l-0.315,1.806l-0.313,1.817l-0.305,1.822l-0.301,1.822l-0.283,1.762l-0.288,1.842l-0.274,1.777l-0.273,1.85l-0.274,1.858l-0.254,1.794l-0.26,1.873l-0.253,1.876l-0.249,1.884l-0.234,1.821l-0.227,1.826l-0.228,1.903l-0.225,1.909l-0.21,1.846l-0.211,1.922l-0.207,1.931l-0.193,1.865l-0.194,1.941l-0.189,1.95l-0.061,0.646l0,2204.93l-150,0l0,-2210.01l0.149,-3.34l0.351,-3.924l0.014,-0.148l0.217,-2.326l0.014,-0.146l0.222,-2.286l0.008,-0.078l0.227,-2.283l0.015,-0.149l0.239,-2.311l0.016,-0.148l0.244,-2.272l0.009,-0.079l0.248,-2.267l0.017,-0.151l0.261,-2.297l0.018,-0.149l0.266,-2.258l0.009,-0.082l0.271,-2.252l0.018,-0.15l0.283,-2.283l0.02,-0.153l0.292,-2.275l0.019,-0.15l0.297,-2.238l0.011,-0.086l0.301,-2.232l0.021,-0.15l0.309,-2.226l0.012,-0.085l0.319,-2.258l0.032,-0.224l0.327,-2.217l0.002,-0.016l0.327,-2.212l0.034,-0.225l0.346,-2.241l0.013,-0.084l0.344,-2.202l0.025,-0.155l0.359,-2.233l0.026,-0.159l0.362,-2.194l0.014,-0.089l0.367,-2.185l0.026,-0.154l0.375,-2.181l0.015,-0.09l0.38,-2.177l0.028,-0.158l0.394,-2.208l0.03,-0.162l0.403,-2.201l0.029,-0.155l0.405,-2.162l0.018,-0.091l0.41,-2.16l0.032,-0.163l0.419,-2.15l0.016,-0.085l0.424,-2.147l0.032,-0.164l0.44,-2.178l0.033,-0.161l0.448,-2.174l0.035,-0.165l0.45,-2.132l0.019,-0.091l0.447,-2.09l0.019,-0.091l0.466,-2.157l0.052,-0.233l0.48,-2.153l0.02,-0.091l0.477,-2.114l0.038,-0.167l0.485,-2.108l0.022,-0.092l0.489,-2.102l0.039,-0.163l0.499,-2.099l0.023,-0.097l0.512,-2.129l0.058,-0.236l0.525,-2.122l0.023,-0.093l0.512,-2.046l0.023,-0.094l0.525,-2.077l0.043,-0.165l0.543,-2.11l0.045,-0.171l0.543,-2.066l0.023,-0.09l0.548,-2.063l0.046,-0.171l0.567,-2.097l0.047,-0.172l0.565,-2.05l0.025,-0.091l0.57,-2.048l0.048,-0.172l0.589,-2.077l0.046,-0.162l0.588,-2.038l0.029,-0.102l0.594,-2.037l0.051,-0.173l0.601,-2.026l0.027,-0.092l0.605,-2.02l0.051,-0.169l0.626,-2.055l0.053,-0.174l0.625,-2.015l0.03,-0.098l0.628,-2.007l0.053,-0.169l0.637,-2.002l0.032,-0.099l0.641,-1.997l0.055,-0.17l0.663,-2.03l0.058,-0.176l0.659,-1.986l0.031,-0.094l0.664,-1.983l0.06,-0.176l0.685,-2.015l0.059,-0.17l0.68,-1.969l0.033,-0.095l0.675,-1.936l0.04,-0.113l0.704,-1.999l0.084,-0.235l0.715,-1.988l0.037,-0.102l0.696,-1.917l0.037,-0.102l0.714,-1.95l0.066,-0.178l0.735,-1.976l0.062,-0.165l0.731,-1.938l0.042,-0.109l0.737,-1.935l0.066,-0.171l0.744,-1.927l0.04,-0.103l0.748,-1.918l0.065,-0.165l0.772,-1.952l0.071,-0.179l0.77,-1.919l0.045,-0.11l0.772,-1.906l0.067,-0.165l0.794,-1.933l0.071,-0.172l0.79,-1.896l0.043,-0.104l0.78,-1.858l0.044,-0.104l0.801,-1.891l0.077,-0.179l0.822,-1.915l0.072,-0.165l0.815,-1.873l0.046,-0.105l0.823,-1.875l0.08,-0.18l0.845,-1.899l0.074,-0.165l0.84,-1.862l0.051,-0.112l0.829,-1.822l0.044,-0.098l0.849,-1.852l0.083,-0.18l0.874,-1.878l0.076,-0.165l0.867,-1.841l0.054,-0.114l0.873,-1.839l0.082,-0.172l0.895,-1.859l0.079,-0.164l0.889,-1.826l0.056,-0.114l0.878,-1.787l0.048,-0.098l0.899,-1.816l0.09,-0.18l0.924,-1.842l0.082,-0.163l0.917,-1.806l0.058,-0.115l0.921,-1.799l0.084,-0.163l0.928,-1.791l0.055,-0.107l0.937,-1.794l0.095,-0.179l0.96,-1.816l0.086,-0.162l0.951,-1.776l0.057,-0.106l0.943,-1.748l0.062,-0.115l0.962,-1.769l0.089,-0.161l0.986,-1.792l0.094,-0.169l0.98,-1.759l0.059,-0.107l0.985,-1.754l0.095,-0.169l0.994,-1.749l0.061,-0.106l0.998,-1.744l0.097,-0.168l1.005,-1.735l0.056,-0.097l1.012,-1.734l0.104,-0.177l1.021,-1.728l0.058,-0.098l1.025,-1.723l0.106,-0.177l1.053,-1.748l0.095,-0.157l1.041,-1.709l0.064,-0.106l1.033,-1.682l0.071,-0.116l1.053,-1.702l0.097,-0.156l1.074,-1.718l0.099,-0.156l1.07,-1.693l0.073,-0.116l1.078,-1.691l0.106,-0.165l1.081,-1.676l0.062,-0.097l1.07,-1.648l0.075,-0.115l1.112,-1.7l0.14,-0.211l1.103,-1.662l0.032,-0.048l1.107,-1.661l0.147,-0.22l1.12,-1.656l0.033,-0.048l1.117,-1.645l0.143,-0.209l1.133,-1.646l0.04,-0.058l1.134,-1.64l0.144,-0.207l1.144,-1.63l0.034,-0.049l1.147,-1.63l0.153,-0.216l1.18,-1.651l0.075,-0.105l1.141,-1.586l0.068,-0.094l1.17,-1.615l0.122,-0.168l1.179,-1.608l0.069,-0.094l1.179,-1.599l0.117,-0.157l1.188,-1.594l0.07,-0.093l1.196,-1.594l0.125,-0.166l1.205,-1.588l0.071,-0.092l1.206,-1.578l0.119,-0.156l1.219,-1.577l0.079,-0.103l1.223,-1.571l0.121,-0.154l1.248,-1.587l0.113,-0.144l1.216,-1.531l0.041,-0.051l1.24,-1.556l0.163,-0.203l1.254,-1.551l0.042,-0.051l1.249,-1.54l0.156,-0.191l1.268,-1.541l0.05,-0.061l1.268,-1.535l0.157,-0.189l1.272,-1.519l0.034,-0.041l1.281,-1.525l0.175,-0.208l1.294,-1.519l0.035,-0.041l1.269,-1.485l0.126,-0.147l1.319,-1.528l0.119,-0.136l1.306,-1.499l0.087,-0.099l1.315,-1.498l0.129,-0.145l1.324,-1.493l0.088,-0.098l1.303,-1.459l0.079,-0.088l1.328,-1.478l0.13,-0.143l1.363,-1.5l0.13,-0.142l1.33,-1.449l0.048,-0.052l1.346,-1.461l0.163,-0.176l1.375,-1.473l0.08,-0.086l1.348,-1.434l0.1,-0.107l1.372,-1.45l0.123,-0.129l1.376,-1.44l0.092,-0.095l1.38,-1.435l0.123,-0.127l1.39,-1.43l0.092,-0.095l1.378,-1.408l0.092,-0.094l1.403,-1.425l0.135,-0.135l1.427,-1.434l0.124,-0.125l1.41,-1.403l0.083,-0.082l1.404,-1.389l0.105,-0.103l1.429,-1.403l0.125,-0.122l1.427,-1.387l0.084,-0.082l1.437,-1.388l0.136,-0.131l1.45,-1.387l0.096,-0.091l1.455,-1.382l0.137,-0.13l1.458,-1.371l0.085,-0.079l1.456,-1.362l0.127,-0.117l1.45,-1.343l0.056,-0.051l1.476,-1.362l0.179,-0.164l1.51,-1.374l0.097,-0.088l1.462,-1.321l0.075,-0.068l1.491,-1.341l0.151,-0.134l1.506,-1.34l0.087,-0.077l1.484,-1.311l0.099,-0.087l1.508,-1.324l0.128,-0.112l1.538,-1.337l0.14,-0.121l1.505,-1.296l0.047,-0.041l1.526,-1.309l0.18,-0.154l1.545,-1.308l0.059,-0.051l1.519,-1.28l0.128,-0.108l1.561,-1.305l0.129,-0.107l1.555,-1.288l0.1,-0.083l1.546,-1.271l0.101,-0.083l1.563,-1.277l0.129,-0.105l1.566,-1.267l0.089,-0.072l1.582,-1.272l0.154,-0.123l1.584,-1.261l0.077,-0.061l1.563,-1.237l0.102,-0.08l1.599,-1.257l0.141,-0.111l1.601,-1.245l0.09,-0.07l1.605,-1.241l0.142,-0.109l1.614,-1.236l0.09,-0.068l1.598,-1.216l0.103,-0.078l1.622,-1.226l0.129,-0.097l1.623,-1.215l0.091,-0.068l1.634,-1.215l0.142,-0.106l1.649,-1.214l0.104,-0.076l1.627,-1.191l0.091,-0.066l1.644,-1.195l0.129,-0.093l1.659,-1.195l0.104,-0.075l1.663,-1.189l0.129,-0.092l1.671,-1.184l0.105,-0.074l1.656,-1.166l0.091,-0.064l1.679,-1.174l0.143,-0.099l1.687,-1.168l0.092,-0.063l1.684,-1.159l0.129,-0.088l1.7,-1.159l0.105,-0.072l1.692,-1.145l0.105,-0.071l1.701,-1.143l0.115,-0.077l1.709,-1.14l0.106,-0.07l1.708,-1.13l0.106,-0.07l1.724,-1.133l0.128,-0.084l1.726,-1.123l0.091,-0.06l1.737,-1.123l0.141,-0.091l1.745,-1.118l0.092,-0.058l1.723,-1.097l0.092,-0.059l1.752,-1.108l0.142,-0.089l1.761,-1.103l0.092,-0.057l1.747,-1.087l0.106,-0.066l1.768,-1.092l0.127,-0.078l1.77,-1.084l0.092,-0.056l1.781,-1.083l0.14,-0.085l1.772,-1.067l0.058,-0.034l1.781,-1.069l0.16,-0.095l1.802,-1.069l0.072,-0.042l1.783,-1.052l0.126,-0.074l1.802,-1.054l0.092,-0.054l1.813,-1.053l0.14,-0.081l1.821,-1.047l0.091,-0.053l1.801,-1.029l0.092,-0.052l1.829,-1.038l0.139,-0.079l1.837,-1.032l0.092,-0.052l1.833,-1.023l0.125,-0.07l1.825,-1.01l0.059,-0.032l1.832,-1.01l0.139,-0.076l1.873,-1.022l0.124,-0.067l1.857,-1.004l0.092,-0.05l1.852,-0.995l0.107,-0.057l1.856,-0.989l0.092,-0.049l1.869,-0.989l0.123,-0.065l1.884,-0.989l0.107,-0.056l1.865,-0.971l0.076,-0.039l1.885,-0.976l0.137,-0.071l1.908,-0.978l0.106,-0.054l1.897,-0.964l0.106,-0.054l1.89,-0.954l0.075,-0.038l1.897,-0.951l0.121,-0.061l1.928,-0.958l0.121,-0.06l1.92,-0.946l0.091,-0.045l1.917,-0.938l0.105,-0.051l1.921,-0.933l0.091,-0.044l1.932,-0.931l0.12,-0.058l1.94,-0.927l0.09,-0.043l1.937,-0.919l0.106,-0.05l1.947,-0.917l0.104,-0.048l1.956,-0.914l0.105,-0.049l1.953,-0.904l0.09,-0.042l1.957,-0.9l0.105,-0.048l1.967,-0.898l0.103,-0.047l1.989,-0.9l0.132,-0.06l1.978,-0.886l0.061,-0.027l1.969,-0.878l0.117,-0.052l1.991,-0.88l0.089,-0.039l1.981,-0.869l0.09,-0.039l1.998,-0.871l0.116,-0.05l2.014,-0.87l0.104,-0.044l2.005,-0.858l0.089,-0.038l2.014,-0.856l0.115,-0.049l2.022,-0.851l0.088,-0.037l2.013,-0.842l0.089,-0.037l2.029,-0.842l0.114,-0.047l2.033,-0.836l0.078,-0.032l2.037,-0.833l0.123,-0.05l2.05,-0.829l0.078,-0.031l2.044,-0.822l0.113,-0.045l2.045,-0.814l0.062,-0.025l2.057,-0.814l0.137,-0.054l2.069,-0.81l0.062,-0.025l2.057,-0.801l0.111,-0.043l2.076,-0.801l0.087,-0.033l2.076,-0.795l0.103,-0.039l2.084,-0.791l0.094,-0.036l2.092,-0.788l0.102,-0.038l2.085,-0.778l0.07,-0.026l2.088,-0.775l0.102,-0.037l2.111,-0.777l0.109,-0.039l2.104,-0.766l0.07,-0.026l2.104,-0.761l0.101,-0.037l2.127,-0.762l0.107,-0.039l2.127,-0.755l0.086,-0.031l2.119,-0.747l0.085,-0.03l2.124,-0.742l0.085,-0.03l2.138,-0.742l0.106,-0.037l2.136,-0.734l0.063,-0.022l2.146,-0.733l0.127,-0.043l2.158,-0.729l0.063,-0.021l2.155,-0.724l0.121,-0.04l2.155,-0.716l0.047,-0.016l2.147,-0.709l0.104,-0.035l2.184,-0.714l0.104,-0.034l2.171,-0.704l0.063,-0.02l2.17,-0.699l0.104,-0.033l2.189,-0.698l0.083,-0.027l2.192,-0.693l0.102,-0.033l2.191,-0.686l0.063,-0.019l2.19,-0.682l0.102,-0.032l2.208,-0.68l0.082,-0.026l2.212,-0.676l0.101,-0.03l2.21,-0.669l0.063,-0.019l2.21,-0.665l0.101,-0.03l2.227,-0.662l0.082,-0.025l2.221,-0.655l0.082,-0.024l2.227,-0.652l0.084,-0.025l2.233,-0.648l0.079,-0.022l2.241,-0.645l0.099,-0.029l2.251,-0.641l0.083,-0.024l2.249,-0.635l0.079,-0.022l2.249,-0.629l0.082,-0.023l2.258,-0.627l0.08,-0.022l2.261,-0.622l0.08,-0.022l2.265,-0.618l0.079,-0.022l2.277,-0.616l0.097,-0.026l2.277,-0.609l0.062,-0.017l2.277,-0.605l0.095,-0.025l2.293,-0.603l0.079,-0.02l2.289,-0.597l0.079,-0.02l2.296,-0.593l0.079,-0.02l2.296,-0.588l0.078,-0.02l2.305,-0.585l0.078,-0.019l2.315,-0.582l0.094,-0.024l2.316,-0.576l0.062,-0.015l2.316,-0.572l0.093,-0.022l2.323,-0.568l0.062,-0.015l2.328,-0.564l0.092,-0.022l2.332,-0.559l0.061,-0.014l2.328,-0.554l0.077,-0.018l2.346,-0.553l0.092,-0.021l2.354,-0.549l0.076,-0.018l2.344,-0.54l0.06,-0.014l2.348,-0.538l0.076,-0.017l2.373,-0.539l0.105,-0.023l2.367,-0.53l0.047,-0.01l2.358,-0.525l0.09,-0.02l2.373,-0.522l0.06,-0.013l2.378,-0.519l0.091,-0.02l2.389,-0.515l0.073,-0.015l2.382,-0.509l0.062,-0.013l2.39,-0.506l0.087,-0.019l2.397,-0.501l0.059,-0.013l2.394,-0.497l0.074,-0.015l2.42,-0.497l0.102,-0.021l2.406,-0.487l0.031,-0.007l2.405,-0.485l0.102,-0.02l2.427,-0.483l0.058,-0.012l2.425,-0.478l0.089,-0.017l2.422,-0.472l0.042,-0.008l2.425,-0.469l0.089,-0.017l2.442,-0.467l0.069,-0.013l2.438,-0.461l0.061,-0.012l2.444,-0.458l0.084,-0.015l2.458,-0.455l0.073,-0.013l2.448,-0.449l0.057,-0.01l2.458,-0.446l0.083,-0.015l2.469,-0.442l0.06,-0.011l2.461,-0.436l0.067,-0.012l2.474,-0.434l0.071,-0.013l2.48,-0.43l0.071,-0.013l2.476,-0.424l0.056,-0.01l2.488,-0.423l0.085,-0.015l2.489,-0.417l0.051,-0.008l2.492,-0.415l0.075,-0.012l2.5,-0.41l0.065,-0.011l2.504,-0.406l0.07,-0.012l2.511,-0.403l0.07,-0.011l2.508,-0.397l0.054,-0.009l2.516,-0.395l0.079,-0.012l2.52,-0.39l0.045,-0.007l2.519,-0.387l0.078,-0.012l2.539,-0.384l0.069,-0.011l2.534,-0.378l0.06,-0.009l2.531,-0.375l0.062,-0.009l2.541,-0.371l0.062,-0.009l2.554,-0.369l0.074,-0.011l2.55,-0.363l0.053,-0.007l2.548,-0.359l0.061,-0.009l2.563,-0.357l0.067,-0.009l2.57,-0.353l0.067,-0.009l2.563,-0.348l0.044,-0.006l2.57,-0.345l0.083,-0.011l2.59,-0.342l0.059,-0.008l2.574,-0.335l0.052,-0.007l2.586,-0.334l0.074,-0.009l2.59,-0.329l0.044,-0.006l2.59,-0.326l0.073,-0.009l2.602,-0.322l0.051,-0.006l2.601,-0.319l0.066,-0.008l2.613,-0.315l0.066,-0.008l2.609,-0.31l0.051,-0.006l2.613,-0.307l0.066,-0.007l2.617,-0.303l0.051,-0.006l2.624,-0.3l0.072,-0.008l2.629,-0.295l0.043,-0.005l2.629,-0.292l0.071,-0.008l2.641,-0.288l0.049,-0.006l2.641,-0.285l0.065,-0.007l2.652,-0.281l0.064,-0.007l2.648,-0.276l0.05,-0.005l2.645,-0.273l0.049,-0.005l2.66,-0.271l0.069,-0.007l2.672,-0.266l0.058,-0.006l2.661,-0.262l0.049,-0.004l2.664,-0.259l0.054,-0.005l2.679,-0.256l0.063,-0.006l2.677,-0.251l0.043,-0.004l2.68,-0.248l0.068,-0.006l2.698,-0.245l0.062,-0.006l2.692,-0.24l0.048,-0.004l2.689,-0.236l0.047,-0.004l2.702,-0.234l0.067,-0.006l2.708,-0.229l0.043,-0.004l2.705,-0.226l0.061,-0.005l2.714,-0.222l0.052,-0.005l2.712,-0.218l0.043,-0.004l2.719,-0.215l0.066,-0.006l2.736,-0.212l0.061,-0.005l2.729,-0.207l0.042,-0.003l2.724,-0.204l0.051,-0.004l2.741,-0.201l0.061,-0.005l2.742,-0.197l0.047,-0.003l2.747,-0.194l0.06,-0.004l2.75,-0.19l0.046,-0.003l2.748,-0.186l0.046,-0.003l2.758,-0.184l0.06,-0.004l2.764,-0.179l0.05,-0.004l2.763,-0.175l0.042,-0.003l2.769,-0.173l0.059,-0.004l2.783,-0.169l0.062,-0.004l2.776,-0.164l0.027,-0.002l2.776,-0.162l0.061,-0.004l2.799,-0.159l0.059,-0.003l2.792,-0.155l0.042,-0.002l2.787,-0.151l0.047,-0.002l2.797,-0.148l0.044,-0.003l2.806,-0.145l0.058,-0.003l2.809,-0.141l0.044,-0.002l2.813,-0.137l0.055,-0.003l2.813,-0.134l0.047,-0.002l2.816,-0.13l0.044,-0.002l2.825,-0.128l0.057,-0.002l2.831,-0.123l0.046,-0.002l2.83,-0.12l0.041,-0.002l2.829,-0.117l0.044,-0.001l2.841,-0.114l0.056,-0.002l2.846,-0.11l0.042,-0.002l2.85,-0.106l0.056,-0.003l2.847,-0.102l0.031,-0.001l2.854,-0.1l0.055,-0.002l2.866,-0.096l0.056,-0.002l2.859,-0.092l0.031,-0.001l2.866,-0.09l0.054,-0.002l2.872,-0.086l0.044,-0.001l2.874,-0.082l0.04,-0.002l2.881,-0.079l0.056,-0.002l2.889,-0.075l0.04,-0.001l2.882,-0.073l0.043,-0.001l2.89,-0.069l0.04,-0.001l2.896,-0.066l0.056,-0.001l2.904,-0.062l0.04,-0.001l2.898,-0.059l0.042,-0.001l2.905,-0.055l0.04,-0.001l2.912,-0.053l0.055,-0.001l2.921,-0.048l0.041,-0.001l2.917,-0.045l0.039,-0.001l2.918,-0.042l0.041,-0.001l2.932,-0.039l0.053,-0.001l2.925,-0.035l0.028,0l2.933,-0.033l0.053,-0.001l2.944,-0.029l0.039,0l2.937,-0.026l0.041,0l2.951,-0.023l0.053,0l2.945,-0.019l0.027,0l2.953,-0.017l0.052,0l2.964,-0.012l0.039,0l2.957,-0.01l0.039,0l2.965,-0.006l0.039,0l2.971,-0.003l0.053,0l2.972,0.001Z" style="fill:#14a90c;fill-opacity:0.698039;"/></g><g><circle cx="835.029" cy="835.218" r="83.333" style="fill:#fcd1d1;stroke-width:4.17px;stroke:#000;"/><circle cx="835.029" cy="835.218" r="41.667" style="fill:#fc2e30;stroke-width:4.17px;stroke:#000;"/></g><g><circle cx="1460.03" cy="1668.55" r="83.333" style="fill:#fcd1d1;stroke-width:4.17px;stroke:#000;"/><circle cx="1460.03" cy="1668.55" r="41.667" style="fill:#fc2e30;stroke-width:4.17px;stroke:#000;"/></g><g><circle cx="1460.03" cy="2501.89" r="83.333" style="fill:#fcd1d1;stroke-width:4.17px;stroke:#000;"/><circle cx="1460.03" cy="2501.89" r="41.667" style="fill:#fc2e30;stroke-width:4.17px;stroke:#000;"/></g><g><circle cx="2501.7" cy="1668.55" r="83.333" style="fill:#fcd1d1;stroke-width:4.17px;stroke:#000;"/><circle cx="2501.7" cy="1668.55" r="41.667" style="fill:#fc2e30;stroke-width:4.17px;stroke:#000;"/></g><g><circle cx="3335.03" cy="1668.55" r="83.333" style="fill:#fcd1d1;stroke-width:4.17px;stroke:#000;"/><circle cx="3335.03" cy="1668.55" r="41.667" style="fill:#fc2e30;stroke-width:4.17px;stroke:#000;"/></g><g><circle cx="4168.36" cy="1668.55" r="83.333" style="fill:#fcd1d1;stroke-width:4.17px;stroke:#000;"/><circle cx="4168.36" cy="1668.55" r="41.667" style="fill:#fc2e30;stroke-width:4.17px;stroke:#000;"/></g><g><circle cx="4168.36" cy="835.218" r="83.333" style="fill:#fcd1d1;stroke-width:4.17px;stroke:#000;"/><circle cx="4168.36" cy="835.218" r="41.667" style="fill:#fc2e30;stroke-width:4.17px;stroke:#000;"/></g><g><circle cx="835.029" cy="1668.55" r="83.333" style="fill:#fcd1d1;stroke-width:4.17px;stroke:#000;"/><circle cx="835.029" cy="1668.55" r="41.667" style="fill:#fc2e30;stroke-width:4.17px;stroke:#000;"/></g><g><circle cx="835.029" cy="2501.89" r="83.333" style="fill:#fcd1d1;stroke-width:4.17px;stroke:#000;"/><circle cx="835.029" cy="2501.89" r="41.667" style="fill:#fc2e30;stroke-width:4.17px;stroke:#000;"/></g><g><circle cx="835.029" cy="3335.22" r="83.333" style="fill:#fcd1d1;stroke-width:4.17px;stroke:#000;"/><circle cx="835.029" cy="3335.22" r="41.667" style="fill:#fc2e30;stroke-width:4.17px;stroke:#000;"/></g><g><circle cx="835.029" cy="4168.55" r="83.333" style="fill:#fcd1d1;stroke-width:4.17px;stroke:#000;"/><circle cx="835.029" cy="4168.55" r="41.667" style="fill:#fc2e30;stroke-width:4.17px;stroke:#000;"/></g><g><circle cx="1460.03" cy="3335.22" r="83.333" style="fill:#fcd1d1;stroke-width:4.17px;stroke:#000;"/><circle cx="1460.03" cy="3335.22" r="41.667" style="fill:#fc2e30;stroke-width:4.17px;stroke:#000;"/></g><g><circle cx="1460.03" cy="4168.55" r="83.333" style="fill:#fcd1d1;stroke-width:4.17px;stroke:#000;"/><circle cx="1460.03" cy="4168.55" r="41.667" style="fill:#fc2e30;stroke-width:4.17px;stroke:#000;"/></g><g><circle cx="1668.36" cy="835.218" r="83.333" style="fill:#fcd1d1;stroke-width:4.17px;stroke:#000;"/><circle cx="1668.36" cy="835.218" r="41.667" style="fill:#fc2e30;stroke-width:4.17px;stroke:#000;"/></g><g><circle cx="2501.7" cy="835.218" r="83.333" style="fill:#fcd1d1;stroke-width:4.17px;stroke:#000;"/><circle cx="2501.7" cy="835.218" r="41.667" style="fill:#fc2e30;stroke-width:4.17px;stroke:#000;"/></g><g><circle cx="2501.7" cy="835.218" r="83.333" style="fill:#fcd1d1;stroke-width:4.17px;stroke:#000;"/><circle cx="2501.7" cy="835.218" r="41.667" style="fill:#fc2e30;stroke-width:4.17px;stroke:#000;"/></g><g><circle cx="3335.03" cy="835.218" r="83.333" style="fill:#fcd1d1;stroke-width:4.17px;stroke:#000;"/><circle cx="3335.03" cy="835.218" r="41.667" style="fill:#fc2e30;stroke-width:4.17px;stroke:#000;"/></g><path d="M1165.23,4126.89l205.2,662.5l-410.399,0l205.199,-662.5Z" style="fill:#000;"/><g id="grid"><g id="bold lines"><path d="M2918.36,418.552l0,11666.7" style="fill:none;stroke-width:4.17px;stroke-miterlimit:1;stroke:#000;stroke-opacity:0.298039;"/><path d="M418.363,2918.55l10833.3,0" style="fill:none;stroke-width:4.17px;stroke-miterlimit:1;stroke:#000;stroke-opacity:0.298039;"/><path d="M5001.7,418.552l0,11666.7" style="fill:none;stroke-width:4.17px;stroke-miterlimit:1;stroke:#000;stroke-opacity:0.298039;"/><path d="M418.363,5001.89l10833.3,0" style="fill:none;stroke-width:4.17px;stroke-miterlimit:1;stroke:#000;stroke-opacity:0.298039;"/><path d="M418.363,835.218l10833.3,0" style="fill:none;stroke-width:4.17px;stroke-miterlimit:1;stroke:#000;stroke-opacity:0.298039;"/><path d="M835.029,12085.2l0,-11666.7" style="fill:none;stroke-width:4.17px;stroke-miterlimit:1;stroke:#000;stroke-opacity:0.298039;"/></g><g id="vertical lines"><path d="M418.363,418.552l0,11666.7" style="fill:none;stroke-width:4.17px;stroke-linejoin:miter;stroke-miterlimit:1;stroke-dasharray:41.67,183.33,8.33,183.33;stroke-dashoffset:20.83;stroke:#000;"/><path d="M2918.36,418.552l0,11666.7" style="fill:none;stroke-width:4.17px;stroke-linejoin:miter;stroke-miterlimit:1;stroke-dasharray:41.67,183.33,8.33,183.33;stroke-dashoffset:20.83;stroke:#000;"/><path d="M5418.36,418.552l0,11666.7" style="fill:none;stroke-width:4.17px;stroke-linejoin:miter;stroke-miterlimit:1;stroke-dasharray:41.67,183.33,8.33,183.33;stroke-dashoffset:20.83;stroke:#000;"/><path d="M1251.7,418.552l0,11666.7" style="fill:none;stroke-width:4.17px;stroke-linejoin:miter;stroke-miterlimit:1;stroke-dasharray:41.67,183.33,8.33,183.33;stroke-dashoffset:20.83;stroke:#000;"/><path d="M3751.7,418.552l0,11666.7" style="fill:none;stroke-width:4.17px;stroke-linejoin:miter;stroke-miterlimit:1;stroke-dasharray:41.67,183.33,8.33,183.33;stroke-dashoffset:20.83;stroke:#000;"/><path d="M2085.03,418.552l0,11666.7" style="fill:none;stroke-width:4.17px;stroke-linejoin:miter;stroke-miterlimit:1;stroke-dasharray:41.67,183.33,8.33,183.33;stroke-dashoffset:20.83;stroke:#000;"/><path d="M4585.03,418.552l0,11666.7" style="fill:none;stroke-width:4.17px;stroke-linejoin:miter;stroke-miterlimit:1;stroke-dasharray:41.67,183.33,8.33,183.33;stroke-dashoffset:20.83;stroke:#000;"/><path d="M835.029,418.552l0,11666.7" style="fill:none;stroke-width:4.17px;stroke-linejoin:miter;stroke-miterlimit:1;stroke-dasharray:41.67,183.33,8.33,183.33;stroke-dashoffset:20.83;stroke:#000;"/><path d="M3335.03,418.552l0,11666.7" style="fill:none;stroke-width:4.17px;stroke-linejoin:miter;stroke-miterlimit:1;stroke-dasharray:41.67,183.33,8.33,183.33;stroke-dashoffset:20.83;stroke:#000;"/><path d="M1668.36,418.552l0,11666.7" style="fill:none;stroke-width:4.17px;stroke-linejoin:miter;stroke-miterlimit:1;stroke-dasharray:41.67,183.33,8.33,183.33;stroke-dashoffset:20.83;stroke:#000;"/><path d="M4168.36,418.552l0,11666.7" style="fill:none;stroke-width:4.17px;stroke-linejoin:miter;stroke-miterlimit:1;stroke-dasharray:41.67,183.33,8.33,183.33;stroke-dashoffset:20.83;stroke:#000;"/><path d="M2501.7,418.552l0,11666.7" style="fill:none;stroke-width:4.17px;stroke-linejoin:miter;stroke-miterlimit:1;stroke-dasharray:41.67,183.33,8.33,183.33;stroke-dashoffset:20.83;stroke:#000;"/><path d="M5001.7,418.552l0,11666.7" style="fill:none;stroke-width:4.17px;stroke-linejoin:miter;stroke-miterlimit:1;stroke-dasharray:41.67,183.33,8.33,183.33;stroke-dashoffset:20.83;stroke:#000;"/></g><g id="horizontal lines"><path d="M418.363,418.552l10833.3,0" style="fill:none;stroke-width:4.17px;stroke-dasharray:41.67,183.33,8.33,183.33;stroke-dashoffset:20.83;stroke:#000;"/><path d="M418.363,2085.22l10833.3,0" style="fill:none;stroke-width:4.17px;stroke-dasharray:41.67,183.33,8.33,183.33;stroke-dashoffset:20.83;stroke:#000;"/><path d="M418.363,3751.89l10833.3,0" style="fill:none;stroke-width:4.17px;stroke-dasharray:41.67,183.33,8.33,183.33;stroke-dashoffset:20.83;stroke:#000;"/><path d="M418.363,5418.55l10833.3,0" style="fill:none;stroke-width:4.17px;stroke-dasharray:41.67,183.33,8.33,183.33;stroke-dashoffset:20.83;stroke:#000;"/><path d="M11251.7,835.218l-10833.3,0" style="fill:none;stroke-width:4.17px;stroke-dasharray:41.67,183.33,8.33,183.33;stroke-dashoffset:20.83;stroke:#000;"/><path d="M11251.7,2501.89l-10833.3,0" style="fill:none;stroke-width:4.17px;stroke-dasharray:41.67,183.33,8.33,183.33;stroke-dashoffset:20.83;stroke:#000;"/><path d="M11251.7,4168.55l-10833.3,0" style="fill:none;stroke-width:4.17px;stroke-dasharray:41.67,183.33,8.33,183.33;stroke-dashoffset:20.83;stroke:#000;"/><path d="M418.363,1251.88l10833.3,0" style="fill:none;stroke-width:4.17px;stroke-dasharray:41.67,183.33,8.33,183.33;stroke-dashoffset:20.83;stroke:#000;"/><path d="M418.363,2918.55l10833.3,0" style="fill:none;stroke-width:4.17px;stroke-dasharray:41.67,183.33,8.33,183.33;stroke-dashoffset:20.83;stroke:#000;"/><path d="M418.363,4585.22l10833.3,0" style="fill:none;stroke-width:4.17px;stroke-dasharray:41.67,183.33,8.33,183.33;stroke-dashoffset:20.83;stroke:#000;"/><path d="M418.363,1668.55l10833.3,0" style="fill:none;stroke-width:4.17px;stroke-dasharray:41.67,183.33,8.33,183.33;stroke-dashoffset:20.83;stroke:#000;"/><path d="M418.363,3335.22l10833.3,0" style="fill:none;stroke-width:4.17px;stroke-dasharray:41.67,183.33,8.33,183.33;stroke-dashoffset:20.83;stroke:#000;"/><path d="M418.363,5001.89l10833.3,0" style="fill:none;stroke-width:4.17px;stroke-dasharray:41.67,183.33,8.33,183.33;stroke-dashoffset:20.83;stroke:#000;"/></g><g id="top labels"><rect x="626.696" y="210.218" width="416.667" height="208.333" style="fill:#808080;stroke-width:4.17px;stroke:#000;"/><rect x="2710.03" y="210.218" width="416.667" height="208.333" style="fill:#808080;stroke-width:4.17px;stroke:#000;"/><rect x="4793.36" y="210.218" width="416.667" height="208.333" style="fill:#808080;stroke-width:4.17px;stroke:#000;"/><rect x="1043.36" y="210.218" width="416.667" height="208.333" style="fill:#808080;stroke-width:4.17px;stroke:#000;"/><rect x="3126.7" y="210.218" width="416.667" height="208.333" style="fill:#808080;stroke-width:4.17px;stroke:#000;"/><rect x="5210.03" y="210.218" width="416.667" height="208.333" style="fill:#808080;stroke-width:4.17px;stroke:#000;"/><rect x="1460.03" y="210.218" width="416.667" height="208.333" style="fill:#808080;stroke-width:4.17px;stroke:#000;"/><rect x="3543.36" y="210.218" width="416.667" height="208.333" style="fill:#808080;stroke-width:4.17px;stroke:#000;"/><rect x="1876.7" y="210.218" width="416.667" height="208.333" style="fill:#808080;stroke-width:4.17px;stroke:#000;"/><rect x="3960.03" y="210.218" width="416.667" height="208.333" style="fill:#808080;stroke-width:4.17px;stroke:#000;"/><rect x="2293.36" y="210.218" width="416.667" height="208.333" style="fill:#808080;stroke-width:4.17px;stroke:#000;"/><rect x="4376.7" y="210.218" width="416.667" height="208.333" style="fill:#808080;stroke-width:4.17px;stroke:#000;"/><text x="785.07px" y="373.048px" style="font-family:'ArialMT';font-size:150px;fill:#000;stroke-width:4.17px;stroke:#000;">A</text><text x="2868.4px" y="373.048px" style="font-family:'ArialMT';font-size:150px;fill:#000;stroke-width:4.17px;stroke:#000;">F</text><text x="4951.74px" y="373.048px" style="font-family:'ArialMT';font-size:150px;fill:#000;stroke-width:4.17px;stroke:#000;">K</text><text x="1201.74px" y="373.048px" style="font-family:'ArialMT';font-size:150px;fill:#000;stroke-width:4.17px;stroke:#000;">B</text><text x="3285.07px" y="373.048px" style="font-family:'ArialMT';font-size:150px;fill:#000;stroke-width:4.17px;stroke:#000;">G</text><text x="5368.4px" y="373.048px" style="font-family:'ArialMT';font-size:150px;fill:#000;stroke-width:4.17px;stroke:#000;">L</text><text x="1618.4px" y="373.048px" style="font-family:'ArialMT';font-size:150px;fill:#000;stroke-width:4.17px;stroke:#000;">C</text><text x="3701.74px" y="373.048px" style="font-family:'ArialMT';font-size:150px;fill:#000;stroke-width:4.17px;stroke:#000;">H</text><text x="2035.07px" y="373.048px" style="font-family:'ArialMT';font-size:150px;fill:#000;stroke-width:4.17px;stroke:#000;">D</text><text x="4147.59px" y="373.048px" style="font-family:'ArialMT';font-size:150px;fill:#000;stroke-width:4.17px;stroke:#000;">I</text><text x="2451.74px" y="373.048px" style="font-family:'ArialMT';font-size:150px;fill:#000;stroke-width:4.17px;stroke:#000;">E</text><text x="4535.07px" y="373.048px" style="font-family:'ArialMT';font-size:150px;fill:#000;stroke-width:4.17px;stroke:#000;">J</text></g><g id="top numbers"><text x="1221.57px" y="192.559px" style="font-family:'ArialMT';font-size:83.333px;fill:#000;stroke-width:4.17px;stroke:#000;">1</text><text x="811.856px" y="192.559px" style="font-family:'ArialMT';font-size:83.333px;fill:#000;stroke-width:4.17px;stroke:#000;">0</text><text x="3304.9px" y="192.559px" style="font-family:'ArialMT';font-size:83.333px;fill:#000;stroke-width:4.17px;stroke:#000;">6</text><text x="5368.84px" y="192.559px" style="font-family:'ArialMT';font-size:83.333px;fill:#000;stroke-width:4.17px;stroke:#000;">1<tspan x="5409px " y="192.559px ">1</tspan></text><text x="1638.23px" y="192.559px" style="font-family:'ArialMT';font-size:83.333px;fill:#000;stroke-width:4.17px;stroke:#000;">2</text><text x="3723.84px" y="192.559px" style="font-family:'ArialMT';font-size:83.333px;fill:#000;stroke-width:4.17px;stroke:#000;">7</text><text x="2054.9px" y="192.559px" style="font-family:'ArialMT';font-size:83.333px;fill:#000;stroke-width:4.17px;stroke:#000;">3</text><text x="4140.51px" y="192.559px" style="font-family:'ArialMT';font-size:83.333px;fill:#000;stroke-width:4.17px;stroke:#000;">8</text><text x="2471.57px" y="192.559px" style="font-family:'ArialMT';font-size:83.333px;fill:#000;stroke-width:4.17px;stroke:#000;">4</text><text x="4557.18px" y="192.559px" style="font-family:'ArialMT';font-size:83.333px;fill:#000;stroke-width:4.17px;stroke:#000;">9</text><text x="2888.23px" y="192.559px" style="font-family:'ArialMT';font-size:83.333px;fill:#000;stroke-width:4.17px;stroke:#000;">5</text><text x="4955.35px" y="192.559px" style="font-family:'ArialMT';font-size:83.333px;fill:#000;stroke-width:4.17px;stroke:#000;">10</text></g><g id="side labels"><rect x="210.029" y="1043.55" width="208.333" height="416.667" style="fill:#808080;stroke-width:4.17px;stroke:#000;"/><rect x="210.029" y="626.885" width="208.333" height="416.667" style="fill:#808080;stroke-width:4.17px;stroke:#000;"/><rect x="210.029" y="2710.22" width="208.333" height="416.667" style="fill:#808080;stroke-width:4.17px;stroke:#000;"/><rect x="210.029" y="4376.89" width="208.333" height="416.667" style="fill:#808080;stroke-width:4.17px;stroke:#000;"/><rect x="210.029" y="1460.22" width="208.333" height="416.667" style="fill:#808080;stroke-width:4.17px;stroke:#000;"/><rect x="210.029" y="3126.89" width="208.333" height="416.667" style="fill:#808080;stroke-width:4.17px;stroke:#000;"/><rect x="210.029" y="4793.55" width="208.333" height="416.667" style="fill:#808080;stroke-width:4.17px;stroke:#000;"/><rect x="210.029" y="1876.88" width="208.333" height="416.667" style="fill:#808080;stroke-width:4.17px;stroke:#000;"/><rect x="210.029" y="3543.55" width="208.333" height="416.667" style="fill:#808080;stroke-width:4.17px;stroke:#000;"/><rect x="210.029" y="5210.22" width="208.333" height="416.667" style="fill:#808080;stroke-width:4.17px;stroke:#000;"/><rect x="210.029" y="2293.55" width="208.333" height="416.667" style="fill:#808080;stroke-width:4.17px;stroke:#000;"/><rect x="210.029" y="3960.22" width="208.333" height="416.667" style="fill:#808080;stroke-width:4.17px;stroke:#000;"/><text x="272.465px" y="1303.43px" style="font-family:'ArialMT';font-size:150px;fill:#000;stroke-width:4.17px;stroke:#000;">1</text><text x="272.465px" y="886.765px" style="font-family:'ArialMT';font-size:150px;fill:#000;stroke-width:4.17px;stroke:#000;">0</text><text x="272.465px" y="2970.1px" style="font-family:'ArialMT';font-size:150px;fill:#000;stroke-width:4.17px;stroke:#000;">5</text><text x="272.465px" y="4636.77px" style="font-family:'ArialMT';font-size:150px;fill:#000;stroke-width:4.17px;stroke:#000;">9</text><text x="272.465px" y="1720.1px" style="font-family:'ArialMT';font-size:150px;fill:#000;stroke-width:4.17px;stroke:#000;">2</text><text x="272.465px" y="3386.76px" style="font-family:'ArialMT';font-size:150px;fill:#000;stroke-width:4.17px;stroke:#000;">6</text><text x="230.754px" y="5053.43px" style="font-family:'ArialMT';font-size:150px;fill:#000;stroke-width:4.17px;stroke:#000;">10</text><text x="272.465px" y="2136.76px" style="font-family:'ArialMT';font-size:150px;fill:#000;stroke-width:4.17px;stroke:#000;">3</text><text x="272.465px" y="3803.43px" style="font-family:'ArialMT';font-size:150px;fill:#000;stroke-width:4.17px;stroke:#000;">7</text><text x="236.32px" y="5470.1px" style="font-family:'ArialMT';font-size:150px;fill:#000;stroke-width:4.17px;stroke:#000;">1<tspan x="308.611px " y="5470.1px ">1</tspan></text><text x="272.465px" y="2553.43px" style="font-family:'ArialMT';font-size:150px;fill:#000;stroke-width:4.17px;stroke:#000;">4</text><text x="272.465px" y="4220.1px" style="font-family:'ArialMT';font-size:150px;fill:#000;stroke-width:4.17px;stroke:#000;">8</text></g><rect x="1.696" y="1.885" width="416.667" height="416.667" style="fill:none;stroke-width:4.17px;stroke-miterlimit:1;stroke:#000;"/><rect x="210.029" y="210.218" width="416.667" height="416.667" style="fill:#808080;stroke-width:4.17px;stroke:#000;"/><text x="233.141px" y="526.234px" style="font-family:'ArialMT';font-size:266.667px;fill:#000;stroke-width:4.17px;stroke:#000;">1m</text></g></g></svg>