<?xml version="1.0" standalone="no"?>
<!DOCTYPE svg PUBLIC "-//W3C//DTD SVG 1.1//EN" "http://www.w3.org/Graphics/SVG/1.1/DTD/svg11.dtd">
<svg width="100%" height="100%" viewBox="0 0 1301 1301" version="1.1" xmlns="http://www.w3.org/2000/svg" xmlns:xlink="http://www.w3.org/1999/xlink" xml:space="preserve" style="fill-rule:evenodd;clip-rule:evenodd;stroke-linejoin:round;stroke-miterlimit:1.41421;">
    <g transform="matrix(1,0,0,1,-12877,-3033)">
        <g id="90 degree right turn" transform="matrix(0.925926,0,0,0.87557,7769.07,296.334)">
            <clipPath id="_clip1">
                <rect x="5517" y="3126.1" width="1404" height="1484.75"/>
            </clipPath>
            <g clip-path="url(#_clip1)">
                <g id="Layer1" transform="matrix(1.08,0,0,1.14211,-5780.88,-1012.29)">
                    <g transform="matrix(1,0,0,1,5660,10)">
                        <path d="M5801,3815.45L5003,3815.45L5003,4613.45L4999,4613.45L4999,3812.62L5000.17,3811.45L5801,3811.45L5801,3815.45Z" style="fill:black;"/>
                    </g>
                    <g transform="matrix(1,0,0,1,5660,10)">
                        <path d="M5801,4015.45L5153,4015.45L5153,4613.45L5149,4613.45L5149,4012.62L5150.17,4011.45L5801,4011.45L5801,4015.45Z" style="fill:black;"/>
                    </g>
                    <g transform="matrix(1,0,0,1,5660,10)">
                        <path d="M5283.92,3895.41L5284.64,3895.41L5284.65,3895.41L5285.37,3895.41L5285.38,3895.41L5286.09,3895.41L5286.1,3895.41L5286.82,3895.42L5286.83,3895.42L5287.55,3895.42L5287.56,3895.42L5288.29,3895.43L5289.01,3895.43L5289.02,3895.43L5289.74,3895.44L5290.47,3895.45L5290.48,3895.45L5291.1,3895.45L5801,3895.45L5801,3931.45L5290.95,3931.45L5290.85,3931.45L5290.1,3931.44L5289.41,3931.44L5288.72,3931.43L5288.02,3931.43L5287.33,3931.42L5286.65,3931.42L5285.96,3931.41L5285.27,3931.41L5284.58,3931.41L5283.9,3931.41L5283.21,3931.41L5282.53,3931.41L5281.85,3931.41L5281.17,3931.41L5280.49,3931.42L5279.81,3931.42L5279.13,3931.42L5278.46,3931.43L5277.78,3931.43L5277.11,3931.44L5276.43,3931.45L5275.76,3931.46L5275.09,3931.47L5274.42,3931.48L5273.75,3931.49L5273.08,3931.5L5272.42,3931.51L5271.75,3931.52L5271.08,3931.54L5270.42,3931.55L5269.76,3931.57L5269.1,3931.58L5268.43,3931.6L5267.78,3931.62L5267.12,3931.63L5266.46,3931.65L5265.81,3931.67L5265.15,3931.69L5264.49,3931.71L5263.84,3931.74L5263.19,3931.76L5262.54,3931.78L5261.89,3931.81L5261.24,3931.83L5260.6,3931.86L5259.95,3931.88L5259.3,3931.91L5258.66,3931.94L5258.02,3931.97L5257.37,3932L5256.73,3932.03L5256.09,3932.06L5255.46,3932.09L5254.82,3932.12L5254.18,3932.16L5253.55,3932.19L5252.91,3932.23L5252.28,3932.26L5251.65,3932.3L5251.02,3932.34L5250.39,3932.38L5249.76,3932.41L5249.13,3932.45L5248.51,3932.5L5247.88,3932.54L5247.26,3932.58L5246.64,3932.62L5246.02,3932.67L5245.4,3932.71L5244.78,3932.76L5244.16,3932.8L5243.54,3932.85L5242.93,3932.9L5242.31,3932.95L5241.7,3933L5241.09,3933.05L5240.48,3933.1L5239.86,3933.15L5239.26,3933.2L5238.65,3933.26L5238.04,3933.31L5237.44,3933.36L5236.84,3933.42L5236.23,3933.48L5235.63,3933.53L5235.03,3933.59L5234.43,3933.65L5233.83,3933.71L5233.24,3933.77L5232.64,3933.83L5232.04,3933.89L5231.45,3933.96L5230.86,3934.02L5230.27,3934.09L5229.68,3934.15L5229.09,3934.22L5228.5,3934.28L5227.92,3934.35L5227.33,3934.42L5226.75,3934.49L5226.17,3934.56L5225.59,3934.63L5225.01,3934.7L5224.43,3934.78L5223.85,3934.85L5223.27,3934.92L5222.69,3935L5222.12,3935.08L5221.55,3935.15L5220.98,3935.23L5220.41,3935.31L5219.84,3935.39L5219.27,3935.47L5218.71,3935.55L5218.14,3935.63L5217.58,3935.71L5217.01,3935.8L5216.45,3935.88L5215.9,3935.96L5215.34,3936.05L5214.78,3936.14L5214.22,3936.22L5213.66,3936.31L5213.11,3936.4L5212.56,3936.49L5212.01,3936.58L5211.45,3936.67L5210.91,3936.76L5210.36,3936.86L5209.81,3936.95L5209.27,3937.05L5208.72,3937.14L5208.18,3937.24L5207.64,3937.33L5207.1,3937.43L5206.56,3937.53L5206.02,3937.63L5205.49,3937.73L5204.95,3937.83L5204.42,3937.93L5203.89,3938.04L5203.35,3938.14L5202.82,3938.24L5202.3,3938.35L5201.77,3938.46L5201.24,3938.56L5200.72,3938.67L5200.19,3938.78L5199.67,3938.89L5199.15,3939L5198.63,3939.11L5198.11,3939.22L5197.6,3939.33L5197.08,3939.45L5196.56,3939.56L5196.05,3939.68L5195.55,3939.79L5195.03,3939.91L5194.52,3940.03L5194.01,3940.15L5193.51,3940.26L5193,3940.39L5192.5,3940.51L5192,3940.63L5191.49,3940.75L5190.99,3940.87L5190.49,3941L5190,3941.12L5189.5,3941.25L5189.01,3941.37L5188.52,3941.5L5188.02,3941.63L5187.54,3941.76L5187.05,3941.89L5186.56,3942.02L5186.07,3942.15L5185.59,3942.28L5185.1,3942.42L5184.62,3942.55L5184.14,3942.68L5183.65,3942.82L5183.18,3942.96L5182.71,3943.09L5182.23,3943.23L5181.75,3943.37L5181.28,3943.51L5180.81,3943.65L5180.34,3943.79L5179.87,3943.93L5179.4,3944.08L5178.94,3944.22L5178.47,3944.37L5178.01,3944.51L5177.55,3944.66L5177.09,3944.8L5176.63,3944.95L5176.17,3945.1L5175.72,3945.25L5175.26,3945.4L5174.8,3945.55L5174.35,3945.7L5173.9,3945.85L5173.45,3946.01L5173,3946.16L5172.56,3946.32L5172.11,3946.47L5171.66,3946.63L5171.22,3946.79L5170.79,3946.94L5170.34,3947.1L5169.9,3947.26L5169.47,3947.42L5169.03,3947.59L5168.59,3947.75L5168.16,3947.91L5167.73,3948.08L5167.3,3948.24L5166.88,3948.4L5166.44,3948.57L5166.02,3948.74L5165.6,3948.91L5165.17,3949.08L5164.75,3949.24L5164.33,3949.41L5163.91,3949.59L5163.49,3949.76L5163.08,3949.93L5162.66,3950.11L5162.25,3950.28L5161.84,3950.45L5161.43,3950.63L5161.02,3950.8L5160.62,3950.98L5160.2,3951.16L5159.8,3951.34L5159.39,3951.52L5158.99,3951.7L5158.6,3951.88L5158.2,3952.06L5157.8,3952.25L5157.4,3952.43L5157.01,3952.61L5156.61,3952.8L5156.22,3952.99L5155.83,3953.17L5155.44,3953.36L5155.05,3953.55L5154.66,3953.74L5154.28,3953.93L5153.9,3954.12L5153.52,3954.31L5153.13,3954.51L5152.75,3954.7L5152.38,3954.89L5152,3955.08L5151.62,3955.28L5151.25,3955.47L5150.88,3955.67L5150.51,3955.87L5150.13,3956.07L5149.76,3956.27L5149.41,3956.46L5149.04,3956.67L5148.67,3956.87L5148.31,3957.08L5147.95,3957.28L5147.59,3957.48L5147.23,3957.69L5146.87,3957.89L5146.52,3958.1L5146.17,3958.3L5145.81,3958.51L5145.46,3958.72L5145.11,3958.93L5144.76,3959.14L5144.42,3959.35L5144.07,3959.56L5143.73,3959.77L5143.38,3959.99L5143.04,3960.2L5142.71,3960.41L5142.36,3960.64L5142.03,3960.85L5141.69,3961.06L5141.36,3961.28L5141.03,3961.5L5140.69,3961.72L5140.36,3961.94L5140.03,3962.16L5139.7,3962.39L5139.38,3962.61L5139.06,3962.83L5138.73,3963.05L5138.41,3963.28L5138.09,3963.51L5137.77,3963.73L5137.46,3963.95L5137.14,3964.18L5136.83,3964.41L5136.51,3964.64L5136.2,3964.87L5135.89,3965.1L5135.58,3965.33L5135.27,3965.56L5134.96,3965.8L5134.66,3966.04L5134.36,3966.27L5134.05,3966.5L5133.76,3966.74L5133.45,3966.98L5133.15,3967.22L5132.86,3967.45L5132.56,3967.69L5132.27,3967.93L5131.97,3968.18L5131.68,3968.42L5131.4,3968.65L5131.1,3968.9L5130.82,3969.14L5130.53,3969.39L5130.24,3969.64L5129.97,3969.88L5129.69,3970.12L5129.4,3970.38L5129.12,3970.63L5128.84,3970.88L5128.55,3971.14L5128.29,3971.38L5128.02,3971.62L5127.74,3971.89L5127.47,3972.14L5127.19,3972.4L5126.93,3972.65L5126.66,3972.9L5126.4,3973.16L5126.13,3973.42L5125.87,3973.67L5125.6,3973.94L5125.34,3974.2L5125.09,3974.45L5124.83,3974.71L5124.57,3974.98L5124.31,3975.24L5124.06,3975.51L5123.81,3975.77L5123.56,3976.04L5123.3,3976.31L5123.06,3976.57L5122.81,3976.84L5122.55,3977.12L5122.32,3977.38L5122.08,3977.65L5121.82,3977.93L5121.58,3978.2L5121.34,3978.47L5121.1,3978.75L5120.88,3979.01L5120.63,3979.3L5120.4,3979.58L5120.16,3979.85L5119.93,3980.14L5119.7,3980.41L5119.47,3980.69L5119.24,3980.97L5119.01,3981.26L5118.79,3981.54L5118.55,3981.84L5118.33,3982.11L5118.11,3982.39L5117.89,3982.68L5117.67,3982.97L5117.45,3983.26L5117.24,3983.55L5117.02,3983.84L5116.8,3984.13L5116.59,3984.42L5116.38,3984.72L5116.15,3985.03L5115.95,3985.31L5115.74,3985.6L5115.53,3985.9L5115.33,3986.2L5115.12,3986.5L5114.92,3986.8L5114.71,3987.1L5114.51,3987.4L5114.31,3987.71L5114.12,3988L5113.91,3988.32L5113.71,3988.63L5113.52,3988.93L5113.32,3989.24L5113.14,3989.54L5112.94,3989.85L5112.75,3990.17L5112.55,3990.49L5112.37,3990.79L5112.19,3991.1L5112,3991.42L5111.81,3991.74L5111.63,3992.06L5111.44,3992.38L5111.26,3992.7L5111.08,3993.02L5110.9,3993.34L5110.73,3993.65L5110.56,3993.98L5110.37,3994.32L5110.19,3994.65L5110.03,3994.96L5109.86,3995.29L5109.69,3995.62L5109.52,3995.95L5109.35,3996.29L5109.19,3996.61L5109.02,3996.94L5108.85,3997.3L5108.68,3997.64L5108.53,3997.96L5108.36,3998.3L5108.2,3998.64L5108.05,3998.97L5107.89,3999.31L5107.73,3999.68L5107.57,4000.02L5107.42,4000.35L5107.27,4000.7L5107.12,4001.05L5106.97,4001.39L5106.82,4001.74L5106.67,4002.11L5106.52,4002.47L5106.38,4002.81L5106.23,4003.17L5106.09,4003.53L5105.96,4003.87L5105.81,4004.23L5105.67,4004.6L5105.53,4004.96L5105.4,4005.33L5105.27,4005.68L5105.13,4006.05L5104.99,4006.43L5104.86,4006.79L5104.74,4007.14L5104.6,4007.53L5104.47,4007.91L5104.35,4008.27L5104.22,4008.65L5104.1,4009.03L5103.98,4009.39L5103.86,4009.77L5103.73,4010.16L5103.61,4010.54L5103.49,4010.93L5103.38,4011.3L5103.26,4011.69L5103.15,4012.08L5103.03,4012.47L5102.92,4012.86L5102.81,4013.24L5102.7,4013.64L5102.59,4014.03L5102.49,4014.41L5102.39,4014.81L5102.28,4015.22L5102.18,4015.6L5102.08,4016.01L5101.97,4016.43L5101.88,4016.82L5101.78,4017.21L5101.68,4017.62L5101.59,4018.03L5101.49,4018.45L5101.4,4018.86L5101.31,4019.26L5101.22,4019.66L5101.13,4020.1L5101.04,4020.52L5100.96,4020.92L5100.88,4021.33L5100.79,4021.75L5100.71,4022.18L5100.63,4022.61L5100.55,4023.04L5100.47,4023.45L5100.4,4023.87L5100.32,4024.3L5100.25,4024.74L5100.17,4025.17L5100.1,4025.61L5100.03,4026.03L5099.96,4026.47L5099.9,4026.9L5099.83,4027.35L5099.77,4027.79L5099.71,4028.22L5099.64,4028.67L5099.58,4029.12L5099.52,4029.57L5099.47,4030.01L5099.41,4030.45L5099.36,4030.91L5099.3,4031.36L5099.25,4031.81L5099.2,4032.27L5099.15,4032.73L5099.11,4033.18L5099.06,4033.65L5099.02,4034.11L5099,4034.27L5099,4563.45L5063,4563.45L5063,4033.05L5063.04,4032.25L5063.12,4031.31L5063.12,4031.27L5063.18,4030.71L5063.18,4030.68L5063.23,4030.13L5063.23,4030.11L5063.29,4029.56L5063.29,4029.53L5063.35,4028.97L5063.35,4028.94L5063.41,4028.39L5063.41,4028.37L5063.47,4027.83L5063.48,4027.79L5063.54,4027.24L5063.55,4027.21L5063.61,4026.66L5063.61,4026.64L5063.68,4026.1L5063.68,4026.07L5063.75,4025.52L5063.75,4025.48L5063.82,4024.94L5063.83,4024.9L5063.9,4024.36L5063.9,4024.34L5063.97,4023.81L5063.98,4023.77L5064.05,4023.24L5064.06,4023.22L5064.13,4022.68L5064.14,4022.62L5064.22,4022.09L5064.22,4022.09L5064.3,4021.56L5064.31,4021.5L5064.39,4020.96L5064.39,4020.94L5064.47,4020.41L5064.48,4020.38L5064.57,4019.84L5064.57,4019.8L5064.66,4019.28L5064.66,4019.26L5064.75,4018.73L5064.76,4018.69L5064.85,4018.17L5064.85,4018.15L5064.94,4017.63L5064.95,4017.59L5065.04,4017.06L5065.05,4017.02L5065.15,4016.49L5065.15,4016.45L5065.25,4015.93L5065.26,4015.91L5065.35,4015.39L5065.36,4015.36L5065.46,4014.84L5065.47,4014.82L5065.57,4014.3L5065.58,4014.26L5065.68,4013.74L5065.69,4013.7L5065.8,4013.18L5065.81,4013.14L5065.91,4012.63L5065.92,4012.61L5066.03,4012.11L5066.03,4012.09L5066.14,4011.57L5066.15,4011.51L5066.27,4010.99L5066.27,4010.97L5066.39,4010.47L5066.4,4010.43L5066.51,4009.92L5066.52,4009.9L5066.64,4009.39L5066.65,4009.35L5066.77,4008.85L5066.77,4008.83L5066.89,4008.32L5066.91,4008.26L5067.03,4007.75L5067.04,4007.73L5067.16,4007.24L5067.17,4007.21L5067.29,4006.72L5067.3,4006.68L5067.43,4006.17L5067.44,4006.13L5067.57,4005.63L5067.58,4005.61L5067.71,4005.12L5067.72,4005.08L5067.86,4004.57L5067.87,4004.53L5068.01,4004.04L5068.01,4004.02L5068.15,4003.53L5068.16,4003.48L5068.3,4002.99L5068.31,4002.95L5068.45,4002.46L5068.46,4002.43L5068.6,4001.94L5068.62,4001.9L5068.76,4001.42L5068.77,4001.39L5068.91,4000.91L5068.92,4000.87L5069.07,4000.38L5069.09,4000.33L5069.24,3999.85L5069.24,3999.83L5069.4,3999.35L5069.41,3999.3L5069.56,3998.82L5069.57,3998.8L5069.72,3998.32L5069.73,3998.28L5069.9,3997.79L5069.91,3997.75L5070.07,3997.27L5070.07,3997.25L5070.23,3996.78L5070.25,3996.73L5070.41,3996.25L5070.43,3996.21L5070.59,3995.74L5070.6,3995.71L5070.76,3995.25L5070.77,3995.22L5070.94,3994.74L5070.96,3994.69L5071.13,3994.21L5071.14,3994.18L5071.31,3993.72L5071.32,3993.7L5071.49,3993.23L5071.5,3993.19L5071.68,3992.71L5071.69,3992.68L5071.87,3992.21L5071.88,3992.18L5072.06,3991.72L5072.07,3991.68L5072.25,3991.22L5072.26,3991.19L5072.44,3990.73L5072.45,3990.69L5072.64,3990.22L5072.66,3990.18L5072.84,3989.72L5072.85,3989.69L5073.04,3989.24L5073.05,3989.2L5073.24,3988.73L5073.26,3988.69L5073.45,3988.24L5073.46,3988.21L5073.65,3987.76L5073.66,3987.74L5073.85,3987.29L5073.87,3987.24L5074.07,3986.78L5074.08,3986.74L5074.28,3986.29L5074.29,3986.27L5074.49,3985.82L5074.51,3985.78L5074.71,3985.32L5074.73,3985.28L5074.93,3984.83L5074.94,3984.81L5075.14,3984.37L5075.15,3984.35L5075.36,3983.9L5075.38,3983.86L5075.59,3983.41L5075.6,3983.37L5075.81,3982.93L5075.82,3982.9L5076.03,3982.46L5076.05,3982.42L5076.27,3981.97L5076.29,3981.93L5076.5,3981.49L5076.51,3981.47L5076.73,3981.04L5076.74,3981.01L5076.95,3980.58L5076.97,3980.53L5077.2,3980.09L5077.22,3980.05L5077.44,3979.62L5077.45,3979.59L5077.67,3979.16L5077.69,3979.12L5077.91,3978.69L5077.93,3978.66L5078.15,3978.23L5078.17,3978.19L5078.4,3977.76L5078.43,3977.72L5078.65,3977.29L5078.67,3977.26L5078.89,3976.85L5078.91,3976.82L5079.14,3976.39L5079.16,3976.36L5079.4,3975.92L5079.42,3975.88L5079.65,3975.46L5079.67,3975.44L5079.9,3975.01L5079.93,3974.97L5080.17,3974.56L5080.18,3974.53L5080.42,3974.11L5080.44,3974.07L5080.69,3973.65L5080.7,3973.63L5080.94,3973.21L5080.97,3973.17L5081.21,3972.76L5081.23,3972.73L5081.47,3972.32L5081.5,3972.28L5081.75,3971.86L5081.77,3971.82L5082.02,3971.41L5082.04,3971.39L5082.29,3970.98L5082.3,3970.95L5082.56,3970.55L5082.58,3970.51L5082.84,3970.1L5082.86,3970.06L5083.12,3969.65L5083.14,3969.62L5083.39,3969.22L5083.42,3969.18L5083.68,3968.78L5083.69,3968.75L5083.95,3968.36L5083.97,3968.33L5084.23,3967.92L5084.27,3967.87L5084.53,3967.47L5084.54,3967.46L5084.81,3967.06L5084.84,3967.01L5085.11,3966.61L5085.12,3966.6L5085.39,3966.2L5085.42,3966.16L5085.69,3965.76L5085.7,3965.75L5085.98,3965.35L5086.01,3965.3L5086.28,3964.91L5086.29,3964.9L5086.57,3964.51L5086.6,3964.46L5086.89,3964.06L5086.9,3964.04L5087.18,3963.66L5087.19,3963.63L5087.48,3963.24L5087.51,3963.2L5087.79,3962.82L5087.81,3962.8L5088.09,3962.41L5088.12,3962.37L5088.4,3961.99L5088.42,3961.97L5088.7,3961.59L5088.73,3961.55L5089.02,3961.17L5089.04,3961.14L5089.33,3960.76L5089.36,3960.73L5089.65,3960.35L5089.67,3960.33L5089.96,3959.95L5089.99,3959.91L5090.29,3959.53L5090.32,3959.49L5090.61,3959.13L5090.62,3959.12L5090.92,3958.74L5090.96,3958.69L5091.26,3958.32L5091.27,3958.31L5091.57,3957.94L5091.61,3957.89L5091.91,3957.52L5091.92,3957.51L5092.23,3957.14L5092.27,3957.1L5092.57,3956.73L5092.58,3956.72L5092.89,3956.36L5092.93,3956.31L5093.24,3955.94L5093.25,3955.93L5093.55,3955.57L5093.58,3955.54L5093.9,3955.17L5093.93,3955.14L5094.24,3954.78L5094.26,3954.76L5094.58,3954.4L5094.61,3954.36L5094.93,3954L5094.95,3953.98L5095.26,3953.63L5095.28,3953.61L5095.6,3953.25L5095.63,3953.22L5095.95,3952.86L5095.99,3952.83L5096.31,3952.48L5096.32,3952.47L5096.64,3952.11L5096.68,3952.07L5097.01,3951.72L5097.03,3951.7L5097.35,3951.35L5097.38,3951.33L5097.7,3950.98L5097.73,3950.95L5098.07,3950.6L5098.09,3950.58L5098.42,3950.24L5098.45,3950.21L5098.78,3949.86L5098.8,3949.84L5099.13,3949.5L5099.16,3949.48L5099.49,3949.14L5099.53,3949.11L5099.87,3948.76L5099.9,3948.73L5100.24,3948.39L5100.26,3948.37L5100.59,3948.04L5100.62,3948.02L5100.96,3947.68L5100.99,3947.65L5101.33,3947.32L5101.35,3947.3L5101.7,3946.97L5101.73,3946.93L5102.08,3946.6L5102.1,3946.58L5102.45,3946.25L5102.48,3946.22L5102.83,3945.89L5102.85,3945.87L5103.2,3945.54L5103.23,3945.51L5103.58,3945.19L5103.6,3945.18L5103.95,3944.85L5103.99,3944.81L5104.36,3944.48L5104.38,3944.46L5104.73,3944.14L5104.75,3944.13L5105.11,3943.81L5105.14,3943.77L5105.5,3943.45L5105.52,3943.43L5105.88,3943.12L5105.9,3943.1L5106.27,3942.78L5106.3,3942.75L5106.67,3942.43L5106.7,3942.4L5107.06,3942.09L5107.07,3942.08L5107.44,3941.77L5107.48,3941.73L5107.85,3941.42L5107.87,3941.41L5108.23,3941.1L5108.26,3941.07L5108.64,3940.76L5108.67,3940.73L5109.04,3940.42L5109.06,3940.4L5109.44,3940.1L5109.46,3940.08L5109.84,3939.77L5109.87,3939.75L5110.24,3939.44L5110.26,3939.43L5110.64,3939.12L5110.68,3939.09L5111.06,3938.79L5111.08,3938.77L5111.45,3938.48L5111.48,3938.46L5111.86,3938.16L5111.9,3938.13L5112.28,3937.83L5112.3,3937.81L5112.69,3937.52L5112.72,3937.49L5113.11,3937.19L5113.13,3937.18L5113.51,3936.89L5113.54,3936.87L5113.93,3936.57L5113.96,3936.55L5114.35,3936.26L5114.37,3936.24L5114.76,3935.95L5114.8,3935.92L5115.19,3935.63L5115.22,3935.62L5115.61,3935.33L5115.63,3935.31L5116.02,3935.03L5116.05,3935L5116.45,3934.72L5116.48,3934.7L5116.88,3934.41L5116.91,3934.39L5117.31,3934.11L5117.33,3934.09L5117.73,3933.81L5117.75,3933.8L5118.16,3933.51L5118.19,3933.49L5118.6,3933.21L5118.62,3933.19L5119.02,3932.91L5119.05,3932.89L5119.46,3932.62L5119.48,3932.6L5119.89,3932.32L5119.92,3932.31L5120.32,3932.03L5120.35,3932.01L5120.76,3931.74L5120.79,3931.72L5121.2,3931.45L5121.22,3931.44L5121.64,3931.16L5121.67,3931.14L5122.08,3930.87L5122.1,3930.86L5122.52,3930.59L5122.56,3930.57L5122.97,3930.3L5122.99,3930.29L5123.41,3930.02L5123.43,3930.01L5123.85,3929.74L5123.89,3929.72L5124.31,3929.46L5124.33,3929.44L5124.75,3929.18L5124.78,3929.17L5125.2,3928.9L5125.23,3928.89L5125.65,3928.63L5125.68,3928.61L5126.1,3928.35L5126.14,3928.33L5126.56,3928.08L5126.58,3928.07L5127,3927.81L5127.04,3927.79L5127.48,3927.53L5127.49,3927.52L5127.92,3927.27L5127.95,3927.25L5128.38,3927L5128.4,3926.99L5128.84,3926.73L5128.87,3926.71L5129.31,3926.46L5129.33,3926.45L5129.77,3926.2L5129.79,3926.19L5130.23,3925.94L5130.26,3925.92L5130.7,3925.67L5130.72,3925.66L5131.16,3925.42L5131.19,3925.4L5131.63,3925.16L5131.65,3925.15L5132.08,3924.91L5132.12,3924.89L5132.57,3924.64L5132.6,3924.63L5133.04,3924.39L5133.07,3924.37L5133.51,3924.14L5133.53,3924.12L5133.98,3923.88L5134,3923.87L5134.45,3923.64L5134.48,3923.62L5134.93,3923.38L5134.96,3923.37L5135.41,3923.14L5135.42,3923.13L5135.88,3922.89L5135.91,3922.88L5136.37,3922.64L5136.39,3922.63L5136.85,3922.4L5136.87,3922.38L5137.33,3922.15L5137.35,3922.14L5137.8,3921.92L5137.83,3921.9L5138.29,3921.67L5138.32,3921.66L5138.78,3921.43L5138.8,3921.42L5139.26,3921.2L5139.29,3921.18L5139.75,3920.96L5139.77,3920.95L5140.24,3920.72L5140.26,3920.71L5140.73,3920.49L5140.75,3920.48L5141.22,3920.26L5141.24,3920.24L5141.71,3920.03L5141.73,3920.01L5142.2,3919.79L5142.23,3919.78L5142.7,3919.57L5142.72,3919.56L5143.19,3919.34L5143.21,3919.33L5143.69,3919.11L5143.71,3919.1L5144.19,3918.89L5144.22,3918.87L5144.69,3918.66L5144.71,3918.65L5145.18,3918.44L5145.21,3918.43L5145.69,3918.22L5145.71,3918.21L5146.19,3918L5146.21,3917.99L5146.69,3917.78L5146.71,3917.77L5147.2,3917.56L5147.22,3917.55L5147.7,3917.34L5147.72,3917.34L5148.21,3917.13L5148.23,3917.12L5148.72,3916.91L5148.74,3916.9L5149.23,3916.7L5149.25,3916.69L5149.73,3916.49L5149.76,3916.48L5150.25,3916.28L5150.27,3916.27L5150.76,3916.07L5150.79,3916.06L5151.28,3915.86L5151.3,3915.85L5151.79,3915.66L5151.81,3915.64L5152.31,3915.45L5152.32,3915.44L5152.81,3915.25L5152.85,3915.24L5153.34,3915.04L5153.36,3915.03L5153.85,3914.84L5153.88,3914.83L5154.38,3914.64L5154.4,3914.63L5154.9,3914.44L5154.92,3914.43L5155.42,3914.24L5155.44,3914.23L5155.94,3914.05L5155.97,3914.04L5156.47,3913.85L5156.49,3913.84L5156.99,3913.66L5157.01,3913.65L5157.52,3913.46L5157.55,3913.45L5158.05,3913.27L5158.07,3913.26L5158.57,3913.08L5158.6,3913.07L5159.11,3912.89L5159.13,3912.88L5159.64,3912.7L5159.66,3912.69L5160.17,3912.51L5160.19,3912.5L5160.7,3912.33L5160.72,3912.32L5161.23,3912.14L5161.26,3912.13L5161.77,3911.95L5161.79,3911.95L5162.3,3911.77L5162.33,3911.76L5162.85,3911.59L5162.87,3911.58L5163.38,3911.41L5163.41,3911.4L5163.93,3911.23L5163.94,3911.22L5164.46,3911.05L5164.48,3911.05L5165.01,3910.87L5165.03,3910.87L5165.55,3910.7L5165.57,3910.69L5166.09,3910.52L5166.11,3910.52L5166.64,3910.35L5166.66,3910.34L5167.19,3910.18L5167.21,3910.17L5167.73,3910L5167.75,3910L5168.28,3909.84L5168.3,3909.83L5168.83,3909.66L5168.85,3909.66L5169.38,3909.5L5169.4,3909.49L5169.94,3909.33L5169.95,3909.32L5170.48,3909.16L5170.51,3909.16L5171.04,3909L5171.06,3908.99L5171.59,3908.84L5171.61,3908.83L5172.15,3908.67L5172.17,3908.67L5172.7,3908.51L5172.72,3908.51L5173.26,3908.35L5173.28,3908.34L5173.82,3908.19L5173.84,3908.18L5174.38,3908.03L5174.4,3908.03L5174.94,3907.88L5174.96,3907.87L5175.5,3907.72L5175.52,3907.71L5176.07,3907.57L5176.08,3907.56L5176.63,3907.41L5176.65,3907.41L5177.19,3907.26L5177.22,3907.25L5177.76,3907.11L5177.78,3907.1L5178.32,3906.96L5178.35,3906.95L5178.9,3906.81L5178.92,3906.8L5179.47,3906.66L5179.48,3906.65L5180.04,3906.51L5180.06,3906.51L5180.61,3906.37L5180.62,3906.36L5181.18,3906.22L5181.2,3906.22L5181.75,3906.08L5181.78,3906.07L5182.33,3905.93L5182.35,3905.93L5182.9,3905.79L5182.92,3905.78L5183.48,3905.65L5183.5,3905.65L5184.06,3905.51L5184.08,3905.51L5184.64,3905.37L5184.65,3905.37L5185.21,3905.23L5185.23,3905.23L5185.79,3905.1L5185.81,3905.09L5186.38,3904.96L5186.4,3904.96L5186.96,3904.83L5186.97,3904.82L5187.54,3904.69L5187.56,3904.69L5188.12,3904.56L5188.15,3904.56L5188.72,3904.43L5188.73,3904.43L5189.3,3904.3L5189.32,3904.3L5189.89,3904.17L5189.9,3904.17L5190.47,3904.04L5190.49,3904.04L5191.07,3903.91L5191.08,3903.91L5191.66,3903.79L5191.67,3903.78L5192.24,3903.66L5192.27,3903.66L5192.84,3903.54L5192.86,3903.53L5193.43,3903.42L5193.45,3903.41L5194.03,3903.29L5194.05,3903.29L5194.63,3903.17L5194.64,3903.17L5195.21,3903.05L5195.24,3903.05L5195.82,3902.93L5195.84,3902.93L5196.42,3902.82L5196.44,3902.81L5197.02,3902.7L5197.03,3902.7L5197.61,3902.58L5197.63,3902.58L5198.22,3902.47L5198.24,3902.46L5198.82,3902.35L5198.84,3902.35L5199.42,3902.24L5199.44,3902.24L5200.03,3902.13L5200.05,3902.12L5200.64,3902.02L5200.65,3902.01L5201.24,3901.91L5201.26,3901.9L5201.85,3901.8L5201.87,3901.8L5202.46,3901.69L5202.48,3901.69L5203.07,3901.58L5203.09,3901.58L5203.68,3901.48L5203.7,3901.47L5204.29,3901.37L5204.31,3901.37L5204.9,3901.27L5204.92,3901.26L5205.52,3901.16L5205.53,3901.16L5206.13,3901.06L5206.15,3901.06L5206.75,3900.96L5206.76,3900.96L5207.36,3900.86L5207.38,3900.86L5207.98,3900.76L5208,3900.76L5208.6,3900.66L5208.62,3900.66L5209.22,3900.57L5209.24,3900.56L5209.84,3900.47L5209.86,3900.47L5210.46,3900.38L5210.48,3900.37L5211.09,3900.28L5211.1,3900.28L5211.71,3900.19L5211.73,3900.18L5212.33,3900.1L5212.35,3900.09L5212.96,3900L5212.97,3900L5213.59,3899.91L5213.6,3899.91L5214.22,3899.82L5214.23,3899.82L5214.84,3899.74L5214.86,3899.73L5215.47,3899.65L5215.49,3899.65L5216.1,3899.56L5216.12,3899.56L5216.73,3899.47L5216.74,3899.47L5217.36,3899.39L5217.38,3899.39L5218,3899.31L5218.02,3899.31L5218.64,3899.22L5218.65,3899.22L5219.27,3899.14L5219.29,3899.14L5219.91,3899.06L5219.92,3899.06L5220.54,3898.98L5220.56,3898.98L5221.18,3898.9L5221.19,3898.9L5221.82,3898.82L5221.83,3898.82L5222.46,3898.75L5222.48,3898.74L5223.1,3898.67L5223.11,3898.67L5223.74,3898.6L5223.76,3898.59L5224.39,3898.52L5224.4,3898.52L5225.03,3898.45L5225.05,3898.45L5225.68,3898.37L5225.69,3898.37L5226.32,3898.3L5226.34,3898.3L5226.97,3898.23L5226.98,3898.23L5227.61,3898.16L5227.63,3898.16L5228.27,3898.09L5228.28,3898.09L5228.92,3898.03L5228.93,3898.02L5229.56,3897.96L5229.58,3897.96L5230.21,3897.89L5230.23,3897.89L5230.87,3897.83L5230.89,3897.83L5231.53,3897.76L5231.54,3897.76L5232.18,3897.7L5232.19,3897.7L5232.83,3897.64L5232.85,3897.64L5233.49,3897.58L5233.5,3897.57L5234.14,3897.51L5234.16,3897.51L5234.81,3897.45L5234.82,3897.45L5235.47,3897.39L5235.48,3897.39L5236.12,3897.34L5236.14,3897.34L5236.78,3897.28L5236.8,3897.28L5237.45,3897.22L5237.46,3897.22L5238.11,3897.17L5238.12,3897.17L5238.78,3897.11L5238.79,3897.11L5239.44,3897.06L5239.45,3897.06L5240.1,3897.01L5240.12,3897.01L5240.78,3896.96L5240.79,3896.95L5241.44,3896.91L5241.45,3896.9L5242.11,3896.86L5242.12,3896.86L5242.78,3896.81L5242.79,3896.81L5243.45,3896.76L5243.46,3896.76L5244.12,3896.71L5244.14,3896.71L5244.8,3896.66L5244.81,3896.66L5245.47,3896.62L5245.48,3896.62L5246.14,3896.57L5246.15,3896.57L5246.82,3896.53L5246.83,3896.53L5247.49,3896.49L5247.5,3896.49L5248.17,3896.45L5248.18,3896.44L5248.85,3896.4L5248.86,3896.4L5249.53,3896.36L5249.54,3896.36L5250.2,3896.32L5250.22,3896.32L5250.89,3896.28L5250.9,3896.28L5251.57,3896.25L5251.58,3896.25L5252.25,3896.21L5252.26,3896.21L5252.94,3896.17L5252.94,3896.17L5253.62,3896.14L5253.63,3896.14L5254.31,3896.1L5254.32,3896.1L5254.99,3896.07L5255.01,3896.07L5255.68,3896.04L5255.69,3896.04L5256.37,3896.01L5256.38,3896.01L5257.06,3895.97L5257.07,3895.97L5257.75,3895.94L5257.76,3895.94L5258.44,3895.91L5258.45,3895.91L5259.13,3895.89L5259.14,3895.89L5259.82,3895.86L5259.84,3895.86L5260.52,3895.83L5260.53,3895.83L5261.21,3895.81L5261.23,3895.81L5261.91,3895.78L5261.92,3895.78L5262.6,3895.76L5262.61,3895.76L5263.3,3895.73L5263.32,3895.73L5264,3895.71L5264.01,3895.71L5264.7,3895.69L5264.71,3895.69L5265.4,3895.67L5265.41,3895.67L5266.1,3895.65L5266.11,3895.65L5266.8,3895.63L5266.81,3895.63L5267.51,3895.61L5267.52,3895.61L5268.21,3895.59L5268.22,3895.59L5268.91,3895.58L5268.92,3895.58L5269.62,3895.56L5269.63,3895.56L5270.33,3895.54L5270.34,3895.54L5271.03,3895.53L5271.04,3895.53L5271.74,3895.52L5271.75,3895.52L5272.45,3895.5L5272.46,3895.5L5273.16,3895.49L5273.17,3895.49L5273.87,3895.48L5273.88,3895.48L5274.58,3895.47L5274.59,3895.47L5275.3,3895.46L5275.31,3895.46L5276.01,3895.45L5276.02,3895.45L5276.72,3895.44L5276.73,3895.44L5277.44,3895.44L5277.45,3895.44L5278.15,3895.43L5278.16,3895.43L5278.87,3895.43L5278.89,3895.43L5279.59,3895.42L5279.6,3895.42L5280.31,3895.42L5280.32,3895.42L5281.03,3895.41L5281.04,3895.41L5281.75,3895.41L5281.76,3895.41L5282.47,3895.41L5282.48,3895.41L5283.19,3895.41L5283.21,3895.41L5283.92,3895.41Z" style="fill:rgb(20,169,12);fill-opacity:0.698039;"/>
                    </g>
                </g>
                <g transform="matrix(3.54375,0,0,2.8999,4599,2543.62)">
                    <g transform="matrix(0.304762,0,0,0.393846,-1194.67,-1274.62)">
                        <circle cx="4970" cy="3946.34" r="20" style="fill:rgb(252,209,209);stroke-width:1px;stroke:black;"/>
                    </g>
                    <g transform="matrix(0.304762,0,0,0.393846,-1191.62,-1302.19)">
                        <circle cx="4960" cy="4016.34" r="10" style="fill:rgb(252,46,48);stroke-width:1px;stroke:black;"/>
                    </g>
                </g>
                <g transform="matrix(3.54375,0,0,2.8999,4761,2772.04)">
                    <g transform="matrix(0.304762,0,0,0.393846,-1194.67,-1274.62)">
                        <circle cx="4970" cy="3946.34" r="20" style="fill:rgb(252,209,209);stroke-width:1px;stroke:black;"/>
                    </g>
                    <g transform="matrix(0.304762,0,0,0.393846,-1191.62,-1302.19)">
                        <circle cx="4960" cy="4016.34" r="10" style="fill:rgb(252,46,48);stroke-width:1px;stroke:black;"/>
                    </g>
                </g>
                <g transform="matrix(3.54375,0,0,2.8999,4761,3000.47)">
                    <g transform="matrix(0.304762,0,0,0.393846,-1194.67,-1274.62)">
                        <circle cx="4970" cy="3946.34" r="20" style="fill:rgb(252,209,209);stroke-width:1px;stroke:black;"/>
                    </g>
                    <g transform="matrix(0.304762,0,0,0.393846,-1191.62,-1302.19)">
                        <circle cx="4960" cy="4016.34" r="10" style="fill:rgb(252,46,48);stroke-width:1px;stroke:black;"/>
                    </g>
                </g>
                <g transform="matrix(3.54375,0,0,2.8999,5031,2772.04)">
                    <g transform="matrix(0.304762,0,0,0.393846,-1194.67,-1274.62)">
                        <circle cx="4970" cy="3946.34" r="20" style="fill:rgb(252,209,209);stroke-width:1px;stroke:black;"/>
                    </g>
                    <g transform="matrix(0.304762,0,0,0.393846,-1191.62,-1302.19)">
                        <circle cx="4960" cy="4016.34" r="10" style="fill:rgb(252,46,48);stroke-width:1px;stroke:black;"/>
                    </g>
                </g>
                <g transform="matrix(3.54375,0,0,2.8999,5247,2772.04)">
                    <g transform="matrix(0.304762,0,0,0.393846,-1194.67,-1274.62)">
                        <circle cx="4970" cy="3946.34" r="20" style="fill:rgb(252,209,209);stroke-width:1px;stroke:black;"/>
                    </g>
                    <g transform="matrix(0.304762,0,0,0.393846,-1191.62,-1302.19)">
                        <circle cx="4960" cy="4016.34" r="10" style="fill:rgb(252,46,48);stroke-width:1px;stroke:black;"/>
                    </g>
                </g>
                <g transform="matrix(3.54375,0,0,2.8999,5463,2772.04)">
                    <g transform="matrix(0.304762,0,0,0.393846,-1194.67,-1274.62)">
                        <circle cx="4970" cy="3946.34" r="20" style="fill:rgb(252,209,209);stroke-width:1px;stroke:black;"/>
                    </g>
                    <g transform="matrix(0.304762,0,0,0.393846,-1191.62,-1302.19)">
                        <circle cx="4960" cy="4016.34" r="10" style="fill:rgb(252,46,48);stroke-width:1px;stroke:black;"/>
                    </g>
                </g>
                <g transform="matrix(3.54375,0,0,2.8999,5463,2543.62)">
                    <g transform="matrix(0.304762,0,0,0.393846,-1194.67,-1274.62)">
                        <circle cx="4970" cy="3946.34" r="20" style="fill:rgb(252,209,209);stroke-width:1px;stroke:black;"/>
                    </g>
                    <g transform="matrix(0.304762,0,0,0.393846,-1191.62,-1302.19)">
                        <circle cx="4960" cy="4016.34" r="10" style="fill:rgb(252,46,48);stroke-width:1px;stroke:black;"/>
                    </g>
                </g>
                <g transform="matrix(3.54375,0,0,2.8999,4599,2772.04)">
                    <g transform="matrix(0.304762,0,0,0.393846,-1194.67,-1274.62)">
                        <circle cx="4970" cy="3946.34" r="20" style="fill:rgb(252,209,209);stroke-width:1px;stroke:black;"/>
                    </g>
                    <g transform="matrix(0.304762,0,0,0.393846,-1191.62,-1302.19)">
                        <circle cx="4960" cy="4016.34" r="10" style="fill:rgb(252,46,48);stroke-width:1px;stroke:black;"/>
                    </g>
                </g>
                <g transform="matrix(3.54375,0,0,2.8999,4599,3000.47)">
                    <g transform="matrix(0.304762,0,0,0.393846,-1194.67,-1274.62)">
                        <circle cx="4970" cy="3946.34" r="20" style="fill:rgb(252,209,209);stroke-width:1px;stroke:black;"/>
                    </g>
                    <g transform="matrix(0.304762,0,0,0.393846,-1191.62,-1302.19)">
                        <circle cx="4960" cy="4016.34" r="10" style="fill:rgb(252,46,48);stroke-width:1px;stroke:black;"/>
                    </g>
                </g>
                <g transform="matrix(3.54375,0,0,2.8999,4599,3228.89)">
                    <g transform="matrix(0.304762,0,0,0.393846,-1194.67,-1274.62)">
                        <circle cx="4970" cy="3946.34" r="20" style="fill:rgb(252,209,209);stroke-width:1px;stroke:black;"/>
                    </g>
                    <g transform="matrix(0.304762,0,0,0.393846,-1191.62,-1302.19)">
                        <circle cx="4960" cy="4016.34" r="10" style="fill:rgb(252,46,48);stroke-width:1px;stroke:black;"/>
                    </g>
                </g>
                <g transform="matrix(3.54375,0,0,2.8999,4599,3457.31)">
                    <g transform="matrix(0.304762,0,0,0.393846,-1194.67,-1274.62)">
                        <circle cx="4970" cy="3946.34" r="20" style="fill:rgb(252,209,209);stroke-width:1px;stroke:black;"/>
                    </g>
                    <g transform="matrix(0.304762,0,0,0.393846,-1191.62,-1302.19)">
                        <circle cx="4960" cy="4016.34" r="10" style="fill:rgb(252,46,48);stroke-width:1px;stroke:black;"/>
                    </g>
                </g>
                <g transform="matrix(3.54375,0,0,2.8999,4761,3228.89)">
                    <g transform="matrix(0.304762,0,0,0.393846,-1194.67,-1274.62)">
                        <circle cx="4970" cy="3946.34" r="20" style="fill:rgb(252,209,209);stroke-width:1px;stroke:black;"/>
                    </g>
                    <g transform="matrix(0.304762,0,0,0.393846,-1191.62,-1302.19)">
                        <circle cx="4960" cy="4016.34" r="10" style="fill:rgb(252,46,48);stroke-width:1px;stroke:black;"/>
                    </g>
                </g>
                <g transform="matrix(3.54375,0,0,2.8999,4761,3457.31)">
                    <g transform="matrix(0.304762,0,0,0.393846,-1194.67,-1274.62)">
                        <circle cx="4970" cy="3946.34" r="20" style="fill:rgb(252,209,209);stroke-width:1px;stroke:black;"/>
                    </g>
                    <g transform="matrix(0.304762,0,0,0.393846,-1191.62,-1302.19)">
                        <circle cx="4960" cy="4016.34" r="10" style="fill:rgb(252,46,48);stroke-width:1px;stroke:black;"/>
                    </g>
                </g>
                <g transform="matrix(3.54375,0,0,2.8999,4815,2543.62)">
                    <g transform="matrix(0.304762,0,0,0.393846,-1194.67,-1274.62)">
                        <circle cx="4970" cy="3946.34" r="20" style="fill:rgb(252,209,209);stroke-width:1px;stroke:black;"/>
                    </g>
                    <g transform="matrix(0.304762,0,0,0.393846,-1191.62,-1302.19)">
                        <circle cx="4960" cy="4016.34" r="10" style="fill:rgb(252,46,48);stroke-width:1px;stroke:black;"/>
                    </g>
                </g>
                <g transform="matrix(3.54375,0,0,2.8999,5031,2543.62)">
                    <g transform="matrix(0.304762,0,0,0.393846,-1194.67,-1274.62)">
                        <circle cx="4970" cy="3946.34" r="20" style="fill:rgb(252,209,209);stroke-width:1px;stroke:black;"/>
                    </g>
                    <g transform="matrix(0.304762,0,0,0.393846,-1191.62,-1302.19)">
                        <circle cx="4960" cy="4016.34" r="10" style="fill:rgb(252,46,48);stroke-width:1px;stroke:black;"/>
                    </g>
                </g>
                <g transform="matrix(3.54375,0,0,2.8999,5031,2543.62)">
                    <g transform="matrix(0.304762,0,0,0.393846,-1194.67,-1274.62)">
                        <circle cx="4970" cy="3946.34" r="20" style="fill:rgb(252,209,209);stroke-width:1px;stroke:black;"/>
                    </g>
                    <g transform="matrix(0.304762,0,0,0.393846,-1191.62,-1302.19)">
                        <circle cx="4960" cy="4016.34" r="10" style="fill:rgb(252,46,48);stroke-width:1px;stroke:black;"/>
                    </g>
                </g>
                <g transform="matrix(3.54375,0,0,2.8999,5247,2543.62)">
                    <g transform="matrix(0.304762,0,0,0.393846,-1194.67,-1274.62)">
                        <circle cx="4970" cy="3946.34" r="20" style="fill:rgb(252,209,209);stroke-width:1px;stroke:black;"/>
                    </g>
                    <g transform="matrix(0.304762,0,0,0.393846,-1191.62,-1302.19)">
                        <circle cx="4960" cy="4016.34" r="10" style="fill:rgb(252,46,48);stroke-width:1px;stroke:black;"/>
                    </g>
                </g>
                <g transform="matrix(0.379912,9.1942e-18,-1.34122e-17,0.619782,-2506.03,3658.7)">
                    <path d="M21912,965L22052,1258L21772,1258L21912,965Z" style="fill:black;"/>
                </g>
                <g id="grid" transform="matrix(1.08,0,0,1.14211,-24754.9,-2361.63)">
                    <g id="bold lines">
                        <path d="M28729.5,4904.89L28729.5,7704.89" style="fill:none;stroke-width:1px;stroke-miterlimit:1;stroke:black;stroke-opacity:0.298039;"/>
                        <g transform="matrix(0.962963,0,0,1,1041.83,0)">
                            <path d="M28129.5,5504.89L30829.5,5504.89" style="fill:none;stroke-width:1.02px;stroke-miterlimit:1;stroke:black;stroke-opacity:0.298039;"/>
                        </g>
                        <path d="M29229.5,4904.89L29229.5,7704.89" style="fill:none;stroke-width:1px;stroke-miterlimit:1;stroke:black;stroke-opacity:0.298039;"/>
                        <g transform="matrix(0.962963,0,0,1,1041.83,0)">
                            <path d="M28129.5,6004.89L30829.5,6004.89" style="fill:none;stroke-width:1.02px;stroke-miterlimit:1;stroke:black;stroke-opacity:0.298039;"/>
                        </g>
                        <g transform="matrix(0.962963,0,0,1,1041.83,0)">
                            <path d="M28129.5,5004.89L30829.5,5004.89" style="fill:none;stroke-width:1.02px;stroke-miterlimit:1;stroke:black;stroke-opacity:0.298039;"/>
                        </g>
                        <path d="M28229.5,7704.89L28229.5,4904.89" style="fill:none;stroke-width:1px;stroke-miterlimit:1;stroke:black;stroke-opacity:0.298039;"/>
                    </g>
                    <g id="vertical lines" transform="matrix(1,0,0,1.75,20859.5,-1392.56)">
                        <path d="M7270,3598.54L7270,5198.54" style="fill:none;stroke-width:0.7px;stroke-linejoin:miter;stroke-miterlimit:1;stroke-dasharray:7.02,30.87,1.4,30.87;stroke-dashoffset:3.51;stroke:black;"/>
                        <g transform="matrix(1,0,0,1,600,9.09495e-13)">
                            <path d="M7270,3598.54L7270,5198.54" style="fill:none;stroke-width:0.7px;stroke-linejoin:miter;stroke-miterlimit:1;stroke-dasharray:7.02,30.87,1.4,30.87;stroke-dashoffset:3.51;stroke:black;"/>
                        </g>
                        <g transform="matrix(1,0,0,1,1200,-9.09495e-13)">
                            <path d="M7270,3598.54L7270,5198.54" style="fill:none;stroke-width:0.7px;stroke-linejoin:miter;stroke-miterlimit:1;stroke-dasharray:7.02,30.87,1.4,30.87;stroke-dashoffset:3.51;stroke:black;"/>
                        </g>
                        <g transform="matrix(1,0,0,1,200,4.54747e-13)">
                            <path d="M7270,3598.54L7270,5198.54" style="fill:none;stroke-width:0.7px;stroke-linejoin:miter;stroke-miterlimit:1;stroke-dasharray:7.02,30.87,1.4,30.87;stroke-dashoffset:3.51;stroke:black;"/>
                        </g>
                        <g transform="matrix(1,0,0,1,800,1.36424e-12)">
                            <path d="M7270,3598.54L7270,5198.54" style="fill:none;stroke-width:0.7px;stroke-linejoin:miter;stroke-miterlimit:1;stroke-dasharray:7.02,30.87,1.4,30.87;stroke-dashoffset:3.51;stroke:black;"/>
                        </g>
                        <g transform="matrix(1,0,0,1,400,-4.54747e-13)">
                            <path d="M7270,3598.54L7270,5198.54" style="fill:none;stroke-width:0.7px;stroke-linejoin:miter;stroke-miterlimit:1;stroke-dasharray:7.02,30.87,1.4,30.87;stroke-dashoffset:3.51;stroke:black;"/>
                        </g>
                        <g transform="matrix(1,0,0,1,1000,4.54747e-13)">
                            <path d="M7270,3598.54L7270,5198.54" style="fill:none;stroke-width:0.7px;stroke-linejoin:miter;stroke-miterlimit:1;stroke-dasharray:7.02,30.87,1.4,30.87;stroke-dashoffset:3.51;stroke:black;"/>
                        </g>
                        <path d="M7370,3598.54L7370,5198.54" style="fill:none;stroke-width:0.7px;stroke-linejoin:miter;stroke-miterlimit:1;stroke-dasharray:7.02,30.87,1.4,30.87;stroke-dashoffset:3.51;stroke:black;"/>
                        <g transform="matrix(1,0,0,1,600,9.37916e-13)">
                            <path d="M7370,3598.54L7370,5198.54" style="fill:none;stroke-width:0.7px;stroke-linejoin:miter;stroke-miterlimit:1;stroke-dasharray:7.02,30.87,1.4,30.87;stroke-dashoffset:3.51;stroke:black;"/>
                        </g>
                        <g transform="matrix(1,0,0,1,200,4.83169e-13)">
                            <path d="M7370,3598.54L7370,5198.54" style="fill:none;stroke-width:0.7px;stroke-linejoin:miter;stroke-miterlimit:1;stroke-dasharray:7.02,30.87,1.4,30.87;stroke-dashoffset:3.51;stroke:black;"/>
                        </g>
                        <g transform="matrix(1,0,0,1,800,1.39266e-12)">
                            <path d="M7370,3598.54L7370,5198.54" style="fill:none;stroke-width:0.7px;stroke-linejoin:miter;stroke-miterlimit:1;stroke-dasharray:7.02,30.87,1.4,30.87;stroke-dashoffset:3.51;stroke:black;"/>
                        </g>
                        <g transform="matrix(1,0,0,1,400,-4.26326e-13)">
                            <path d="M7370,3598.54L7370,5198.54" style="fill:none;stroke-width:0.7px;stroke-linejoin:miter;stroke-miterlimit:1;stroke-dasharray:7.02,30.87,1.4,30.87;stroke-dashoffset:3.51;stroke:black;"/>
                        </g>
                        <g transform="matrix(1,0,0,1,1000,4.83169e-13)">
                            <path d="M7370,3598.54L7370,5198.54" style="fill:none;stroke-width:0.7px;stroke-linejoin:miter;stroke-miterlimit:1;stroke-dasharray:7.02,30.87,1.4,30.87;stroke-dashoffset:3.51;stroke:black;"/>
                        </g>
                    </g>
                    <g id="horizontal lines" transform="matrix(0.962963,0,0,1,21128.8,1206.35)">
                        <path d="M7270,3698.54L9970,3698.54" style="fill:none;stroke-width:1.02px;stroke-dasharray:10.19,44.82,2.04,44.82;stroke-dashoffset:5.09;stroke:black;"/>
                        <g transform="matrix(1,0,0,1,0,400)">
                            <path d="M7270,3698.54L9970,3698.54" style="fill:none;stroke-width:1.02px;stroke-dasharray:10.19,44.82,2.04,44.82;stroke-dashoffset:5.09;stroke:black;"/>
                        </g>
                        <g transform="matrix(1,0,0,1,0,800)">
                            <path d="M7270,3698.54L9970,3698.54" style="fill:none;stroke-width:1.02px;stroke-dasharray:10.19,44.82,2.04,44.82;stroke-dashoffset:5.09;stroke:black;"/>
                        </g>
                        <g transform="matrix(1,0,0,1,0,1200)">
                            <path d="M7270,3698.54L9970,3698.54" style="fill:none;stroke-width:1.02px;stroke-dasharray:10.19,44.82,2.04,44.82;stroke-dashoffset:5.09;stroke:black;"/>
                        </g>
                        <path d="M9970,3798.54L7270,3798.54" style="fill:none;stroke-width:1.02px;stroke-dasharray:10.19,44.82,2.04,44.82;stroke-dashoffset:5.09;stroke:black;"/>
                        <g transform="matrix(1,0,0,1,0,400)">
                            <path d="M9970,3798.54L7270,3798.54" style="fill:none;stroke-width:1.02px;stroke-dasharray:10.19,44.82,2.04,44.82;stroke-dashoffset:5.09;stroke:black;"/>
                        </g>
                        <g transform="matrix(1,0,0,1,0,800)">
                            <path d="M9970,3798.54L7270,3798.54" style="fill:none;stroke-width:1.02px;stroke-dasharray:10.19,44.82,2.04,44.82;stroke-dashoffset:5.09;stroke:black;"/>
                        </g>
                        <path d="M7270,3898.54L9970,3898.54" style="fill:none;stroke-width:1.02px;stroke-dasharray:10.19,44.82,2.04,44.82;stroke-dashoffset:5.09;stroke:black;"/>
                        <g transform="matrix(1,0,0,1,0,400)">
                            <path d="M7270,3898.54L9970,3898.54" style="fill:none;stroke-width:1.02px;stroke-dasharray:10.19,44.82,2.04,44.82;stroke-dashoffset:5.09;stroke:black;"/>
                        </g>
                        <g transform="matrix(1,0,0,1,0,800)">
                            <path d="M7270,3898.54L9970,3898.54" style="fill:none;stroke-width:1.02px;stroke-dasharray:10.19,44.82,2.04,44.82;stroke-dashoffset:5.09;stroke:black;"/>
                        </g>
                        <path d="M7270,3998.54L9970,3998.54" style="fill:none;stroke-width:1.02px;stroke-dasharray:10.19,44.82,2.04,44.82;stroke-dashoffset:5.09;stroke:black;"/>
                        <g transform="matrix(1,0,0,1,0,400)">
                            <path d="M7270,3998.54L9970,3998.54" style="fill:none;stroke-width:1.02px;stroke-dasharray:10.19,44.82,2.04,44.82;stroke-dashoffset:5.09;stroke:black;"/>
                        </g>
                        <g transform="matrix(1,0,0,1,0,800)">
                            <path d="M7270,3998.54L9970,3998.54" style="fill:none;stroke-width:1.02px;stroke-dasharray:10.19,44.82,2.04,44.82;stroke-dashoffset:5.09;stroke:black;"/>
                        </g>
                    </g>
                    <g id="top labels" transform="matrix(1,0,0,1,20609.5,906.346)">
                        <g transform="matrix(1,0,0,1.25,1.81899e-12,-999.636)">
                            <rect x="7570" y="3958.54" width="100" height="40" style="fill:rgb(128,128,128);stroke-width:0.88px;stroke:black;"/>
                        </g>
                        <g transform="matrix(1,0,0,1.25,500,-999.636)">
                            <rect x="7570" y="3958.54" width="100" height="40" style="fill:rgb(128,128,128);stroke-width:0.88px;stroke:black;"/>
                        </g>
                        <g transform="matrix(1,0,0,1.25,1000,-999.636)">
                            <rect x="7570" y="3958.54" width="100" height="40" style="fill:rgb(128,128,128);stroke-width:0.88px;stroke:black;"/>
                        </g>
                        <g transform="matrix(1,0,0,1.25,100,-999.636)">
                            <rect x="7570" y="3958.54" width="100" height="40" style="fill:rgb(128,128,128);stroke-width:0.88px;stroke:black;"/>
                        </g>
                        <g transform="matrix(1,0,0,1.25,600,-999.636)">
                            <rect x="7570" y="3958.54" width="100" height="40" style="fill:rgb(128,128,128);stroke-width:0.88px;stroke:black;"/>
                        </g>
                        <g transform="matrix(1,0,0,1.25,1100,-999.636)">
                            <rect x="7570" y="3958.54" width="100" height="40" style="fill:rgb(128,128,128);stroke-width:0.88px;stroke:black;"/>
                        </g>
                        <g transform="matrix(1,0,0,1.25,200,-999.636)">
                            <rect x="7570" y="3958.54" width="100" height="40" style="fill:rgb(128,128,128);stroke-width:0.88px;stroke:black;"/>
                        </g>
                        <g transform="matrix(1,0,0,1.25,700,-999.636)">
                            <rect x="7570" y="3958.54" width="100" height="40" style="fill:rgb(128,128,128);stroke-width:0.88px;stroke:black;"/>
                        </g>
                        <g transform="matrix(1,0,0,1.25,300,-999.636)">
                            <rect x="7570" y="3958.54" width="100" height="40" style="fill:rgb(128,128,128);stroke-width:0.88px;stroke:black;"/>
                        </g>
                        <g transform="matrix(1,0,0,1.25,800,-999.636)">
                            <rect x="7570" y="3958.54" width="100" height="40" style="fill:rgb(128,128,128);stroke-width:0.88px;stroke:black;"/>
                        </g>
                        <g transform="matrix(1,0,0,1.25,400,-999.636)">
                            <rect x="7570" y="3958.54" width="100" height="40" style="fill:rgb(128,128,128);stroke-width:0.88px;stroke:black;"/>
                        </g>
                        <g transform="matrix(1,0,0,1.25,900,-999.636)">
                            <rect x="7570" y="3958.54" width="100" height="40" style="fill:rgb(128,128,128);stroke-width:0.88px;stroke:black;"/>
                        </g>
                        <g transform="matrix(1,0,0,1,-1.11608,18.83)">
                            <text x="7609.13px" y="3968.79px" style="font-family:'ArialMT';font-size:36px;fill:black;stroke-width:1px;stroke:black;">A</text>
                        </g>
                        <g transform="matrix(1,0,0,1,498.884,18.83)">
                            <text x="7609.13px" y="3968.79px" style="font-family:'ArialMT';font-size:36px;fill:black;stroke-width:1px;stroke:black;">F</text>
                        </g>
                        <g transform="matrix(1,0,0,1,998.884,18.83)">
                            <text x="7609.13px" y="3968.79px" style="font-family:'ArialMT';font-size:36px;fill:black;stroke-width:1px;stroke:black;">K</text>
                        </g>
                        <g transform="matrix(1,0,0,1,98.8839,18.83)">
                            <text x="7609.13px" y="3968.79px" style="font-family:'ArialMT';font-size:36px;fill:black;stroke-width:1px;stroke:black;">B</text>
                        </g>
                        <g transform="matrix(1,0,0,1,598.884,18.83)">
                            <text x="7609.13px" y="3968.79px" style="font-family:'ArialMT';font-size:36px;fill:black;stroke-width:1px;stroke:black;">G</text>
                        </g>
                        <g transform="matrix(1,0,0,1,1098.88,18.83)">
                            <text x="7609.13px" y="3968.79px" style="font-family:'ArialMT';font-size:36px;fill:black;stroke-width:1px;stroke:black;">L</text>
                        </g>
                        <g transform="matrix(1,0,0,1,198.884,18.83)">
                            <text x="7609.13px" y="3968.79px" style="font-family:'ArialMT';font-size:36px;fill:black;stroke-width:1px;stroke:black;">C</text>
                        </g>
                        <g transform="matrix(1,0,0,1,698.884,18.83)">
                            <text x="7609.13px" y="3968.79px" style="font-family:'ArialMT';font-size:36px;fill:black;stroke-width:1px;stroke:black;">H</text>
                        </g>
                        <g transform="matrix(1,0,0,1,298.884,18.83)">
                            <text x="7609.13px" y="3968.79px" style="font-family:'ArialMT';font-size:36px;fill:black;stroke-width:1px;stroke:black;">D</text>
                        </g>
                        <g transform="matrix(1,0,0,1,805.889,18.83)">
                            <text x="7609.13px" y="3968.79px" style="font-family:'ArialMT';font-size:36px;fill:black;stroke-width:1px;stroke:black;">I</text>
                        </g>
                        <g transform="matrix(1,0,0,1,398.884,18.83)">
                            <text x="7609.13px" y="3968.79px" style="font-family:'ArialMT';font-size:36px;fill:black;stroke-width:1px;stroke:black;">E</text>
                        </g>
                        <g transform="matrix(1,0,0,1,898.884,18.83)">
                            <text x="7609.13px" y="3968.79px" style="font-family:'ArialMT';font-size:36px;fill:black;stroke-width:1px;stroke:black;">J</text>
                        </g>
                    </g>
                    <g id="top numbers" transform="matrix(1,0,0,1,20714.3,863.029)">
                        <g transform="matrix(1,0,0,1,-1.11608,18.83)">
                            <text x="7609.13px" y="3968.79px" style="font-family:'ArialMT';font-size:20px;fill:black;stroke-width:1px;stroke:black;">1</text>
                        </g>
                        <g transform="matrix(1,0,0,1,-99.4462,18.83)">
                            <text x="7609.13px" y="3968.79px" style="font-family:'ArialMT';font-size:20px;fill:black;stroke-width:1px;stroke:black;">0</text>
                        </g>
                        <g transform="matrix(1,0,0,1,498.884,18.83)">
                            <text x="7609.13px" y="3968.79px" style="font-family:'ArialMT';font-size:20px;fill:black;stroke-width:1px;stroke:black;">6</text>
                        </g>
                        <g transform="matrix(1,0,0,1,994.231,18.83)">
                            <text x="7609.13px" y="3968.79px" style="font-family:'ArialMT';font-size:20px;fill:black;stroke-width:1px;stroke:black;">1<tspan x="7618.77px " y="3968.79px ">1</tspan></text>
                        </g>
                        <g transform="matrix(1,0,0,1,98.8839,18.83)">
                            <text x="7609.13px" y="3968.79px" style="font-family:'ArialMT';font-size:20px;fill:black;stroke-width:1px;stroke:black;">2</text>
                        </g>
                        <g transform="matrix(1,0,0,1,599.431,18.83)">
                            <text x="7609.13px" y="3968.79px" style="font-family:'ArialMT';font-size:20px;fill:black;stroke-width:1px;stroke:black;">7</text>
                        </g>
                        <g transform="matrix(1,0,0,1,198.884,18.83)">
                            <text x="7609.13px" y="3968.79px" style="font-family:'ArialMT';font-size:20px;fill:black;stroke-width:1px;stroke:black;">3</text>
                        </g>
                        <g transform="matrix(1,0,0,1,699.431,18.83)">
                            <text x="7609.13px" y="3968.79px" style="font-family:'ArialMT';font-size:20px;fill:black;stroke-width:1px;stroke:black;">8</text>
                        </g>
                        <g transform="matrix(1,0,0,1,298.884,18.83)">
                            <text x="7609.13px" y="3968.79px" style="font-family:'ArialMT';font-size:20px;fill:black;stroke-width:1px;stroke:black;">4</text>
                        </g>
                        <g transform="matrix(1,0,0,1,799.431,18.83)">
                            <text x="7609.13px" y="3968.79px" style="font-family:'ArialMT';font-size:20px;fill:black;stroke-width:1px;stroke:black;">9</text>
                        </g>
                        <g transform="matrix(1,0,0,1,398.884,18.83)">
                            <text x="7609.13px" y="3968.79px" style="font-family:'ArialMT';font-size:20px;fill:black;stroke-width:1px;stroke:black;">5</text>
                        </g>
                        <g transform="matrix(1,0,0,1,894.992,18.83)">
                            <text x="7609.13px" y="3968.79px" style="font-family:'ArialMT';font-size:20px;fill:black;stroke-width:1px;stroke:black;">10</text>
                        </g>
                    </g>
                    <g id="side labels" transform="matrix(1,0,0,1,20559.5,1056.35)">
                        <g transform="matrix(1.25,0,0,1,-1892.5,2.84217e-13)">
                            <rect x="7530" y="3998.54" width="40" height="100" style="fill:rgb(128,128,128);stroke-width:0.88px;stroke:black;"/>
                        </g>
                        <g transform="matrix(1.25,0,0,1,-1892.5,-100)">
                            <rect x="7530" y="3998.54" width="40" height="100" style="fill:rgb(128,128,128);stroke-width:0.88px;stroke:black;"/>
                        </g>
                        <g transform="matrix(1.25,0,0,1,-1892.5,400)">
                            <rect x="7530" y="3998.54" width="40" height="100" style="fill:rgb(128,128,128);stroke-width:0.88px;stroke:black;"/>
                        </g>
                        <g transform="matrix(1.25,0,0,1,-1892.5,800)">
                            <rect x="7530" y="3998.54" width="40" height="100" style="fill:rgb(128,128,128);stroke-width:0.88px;stroke:black;"/>
                        </g>
                        <g transform="matrix(1.25,0,0,1,-1892.5,100)">
                            <rect x="7530" y="3998.54" width="40" height="100" style="fill:rgb(128,128,128);stroke-width:0.88px;stroke:black;"/>
                        </g>
                        <g transform="matrix(1.25,0,0,1,-1892.5,500)">
                            <rect x="7530" y="3998.54" width="40" height="100" style="fill:rgb(128,128,128);stroke-width:0.88px;stroke:black;"/>
                        </g>
                        <g transform="matrix(1.25,0,0,1,-1892.5,900)">
                            <rect x="7530" y="3998.54" width="40" height="100" style="fill:rgb(128,128,128);stroke-width:0.88px;stroke:black;"/>
                        </g>
                        <g transform="matrix(1.25,0,0,1,-1892.5,200)">
                            <rect x="7530" y="3998.54" width="40" height="100" style="fill:rgb(128,128,128);stroke-width:0.88px;stroke:black;"/>
                        </g>
                        <g transform="matrix(1.25,0,0,1,-1892.5,600)">
                            <rect x="7530" y="3998.54" width="40" height="100" style="fill:rgb(128,128,128);stroke-width:0.88px;stroke:black;"/>
                        </g>
                        <g transform="matrix(1.25,0,0,1,-1892.5,1000)">
                            <rect x="7530" y="3998.54" width="40" height="100" style="fill:rgb(128,128,128);stroke-width:0.88px;stroke:black;"/>
                        </g>
                        <g transform="matrix(1.25,0,0,1,-1892.5,300)">
                            <rect x="7530" y="3998.54" width="40" height="100" style="fill:rgb(128,128,128);stroke-width:0.88px;stroke:black;"/>
                        </g>
                        <g transform="matrix(1.25,0,0,1,-1892.5,700)">
                            <rect x="7530" y="3998.54" width="40" height="100" style="fill:rgb(128,128,128);stroke-width:0.88px;stroke:black;"/>
                        </g>
                        <g transform="matrix(1,0,0,1,-17.0146,20.7381)">
                            <text x="7552px" y="4040.18px" style="font-family:'ArialMT';font-size:36px;fill:black;stroke-width:1px;stroke:black;">1</text>
                        </g>
                        <g transform="matrix(1,0,0,1,-17.0146,-79.2619)">
                            <text x="7552px" y="4040.18px" style="font-family:'ArialMT';font-size:36px;fill:black;stroke-width:1px;stroke:black;">0</text>
                        </g>
                        <g transform="matrix(1,0,0,1,-17.0146,420.738)">
                            <text x="7552px" y="4040.18px" style="font-family:'ArialMT';font-size:36px;fill:black;stroke-width:1px;stroke:black;">5</text>
                        </g>
                        <g transform="matrix(1,0,0,1,-17.0146,820.738)">
                            <text x="7552px" y="4040.18px" style="font-family:'ArialMT';font-size:36px;fill:black;stroke-width:1px;stroke:black;">9</text>
                        </g>
                        <g transform="matrix(1,0,0,1,-17.0146,120.738)">
                            <text x="7552px" y="4040.18px" style="font-family:'ArialMT';font-size:36px;fill:black;stroke-width:1px;stroke:black;">2</text>
                        </g>
                        <g transform="matrix(1,0,0,1,-17.0146,520.738)">
                            <text x="7552px" y="4040.18px" style="font-family:'ArialMT';font-size:36px;fill:black;stroke-width:1px;stroke:black;">6</text>
                        </g>
                        <g transform="matrix(1,0,0,1,-17.0146,920.738)">
                            <text x="7541.99px" y="4040.18px" style="font-family:'ArialMT';font-size:36px;fill:black;stroke-width:1px;stroke:black;">10</text>
                        </g>
                        <g transform="matrix(1,0,0,1,-17.0146,220.738)">
                            <text x="7552px" y="4040.18px" style="font-family:'ArialMT';font-size:36px;fill:black;stroke-width:1px;stroke:black;">3</text>
                        </g>
                        <g transform="matrix(1,0,0,1,-17.0146,620.738)">
                            <text x="7552px" y="4040.18px" style="font-family:'ArialMT';font-size:36px;fill:black;stroke-width:1px;stroke:black;">7</text>
                        </g>
                        <g transform="matrix(1,0,0,1,-17.0146,1020.74)">
                            <text x="7543.32px" y="4040.18px" style="font-family:'ArialMT';font-size:36px;fill:black;stroke-width:1px;stroke:black;">1<tspan x="7560.67px " y="4040.18px ">1</tspan></text>
                        </g>
                        <g transform="matrix(1,0,0,1,-17.0146,320.738)">
                            <text x="7552px" y="4040.18px" style="font-family:'ArialMT';font-size:36px;fill:black;stroke-width:1px;stroke:black;">4</text>
                        </g>
                        <g transform="matrix(1,0,0,1,-17.0146,720.738)">
                            <text x="7552px" y="4040.18px" style="font-family:'ArialMT';font-size:36px;fill:black;stroke-width:1px;stroke:black;">8</text>
                        </g>
                    </g>
                    <rect x="28029.5" y="4804.89" width="100" height="100" style="fill:none;stroke-width:1px;stroke-miterlimit:1;stroke:black;"/>
                    <g transform="matrix(1,0,0,1,20609.5,956.346)">
                        <rect x="7470" y="3898.54" width="100" height="100" style="fill:rgb(128,128,128);stroke-width:1px;stroke:black;"/>
                    </g>
                    <g transform="matrix(1,0,0,1,20631,987.289)">
                        <text x="7454.1px" y="3943.44px" style="font-family:'ArialMT';font-size:64px;fill:black;stroke-width:1px;stroke:black;">1m</text>
                    </g>
                </g>
            </g>
        </g>
    </g>
</svg>
