<?xml version="1.0" standalone="no"?><!DOCTYPE svg PUBLIC "-//W3C//DTD SVG 1.1//EN" "http://www.w3.org/Graphics/SVG/1.1/DTD/svg11.dtd"><svg width="100%" height="100%" viewBox="0 0 801 2301" version="1.1" xmlns="http://www.w3.org/2000/svg" xmlns:xlink="http://www.w3.org/1999/xlink" xml:space="preserve" style="fill-rule:evenodd;clip-rule:evenodd;stroke-linejoin:round;stroke-miterlimit:1.41421;"><clipPath id="_clip1"><rect id="cone weave" x="0.177" y="0.244" width="800" height="2300"/></clipPath><g clip-path="url(#_clip1)"><g><circle cx="400.177" cy="1898.36" r="20" style="fill:#fcd1d1;stroke-width:1px;stroke:#000;"/><circle cx="400.177" cy="1898.36" r="10" style="fill:#fc2e30;stroke-width:1px;stroke:#000;"/></g><g><circle cx="400.177" cy="1550.24" r="20" style="fill:#fcd1d1;stroke-width:1px;stroke:#000;"/><circle cx="400.177" cy="1550.24" r="10" style="fill:#fc2e30;stroke-width:1px;stroke:#000;"/></g><g><circle cx="400.177" cy="1200.24" r="20" style="fill:#fcd1d1;stroke-width:1px;stroke:#000;"/><circle cx="400.177" cy="1200.24" r="10" style="fill:#fc2e30;stroke-width:1px;stroke:#000;"/></g><g><circle cx="400.177" cy="850.244" r="20" style="fill:#fcd1d1;stroke-width:1px;stroke:#000;"/><circle cx="400.177" cy="850.244" r="10" style="fill:#fc2e30;stroke-width:1px;stroke:#000;"/></g><g><circle cx="400.177" cy="500.244" r="20" style="fill:#fcd1d1;stroke-width:1px;stroke:#000;"/><circle cx="400.177" cy="500.244" r="10" style="fill:#fc2e30;stroke-width:1px;stroke:#000;"/></g><path d="M400.177,2200.24c2.524,-22.513 7.574,-67.539 0,-100c-11.667,-50 -78.918,-129.934 -70,-200c11.666,-91.667 140,-233.334 140,-350c0,-116.667 -140,-233.334 -140,-350c0,-116.667 140,-233.334 140,-350c0,-116.667 -128.334,-258.334 -140,-350c-8.918,-70.067 58.333,-150 70,-200c7.574,-32.462 2.524,-77.488 0,-100" style="fill:none;stroke-width:8px;stroke-dasharray:24,48,0,0;stroke:#14a90c;stroke-opacity:0.698039;"/><g><rect x="350.178" y="2197.99" width="100" height="4.5" style="fill:#000;"/><rect x="397.928" y="2200.24" width="4.5" height="50" style="fill:#000;"/></g><g id="grid"><g id="bold lines"><path d="M700.177,100.244l0,2800" style="fill:none;stroke-width:1px;stroke-miterlimit:1;stroke:#000;stroke-opacity:0.298039;"/><path d="M100.177,700.244l2600,0" style="fill:none;stroke-width:1px;stroke-miterlimit:1;stroke:#000;stroke-opacity:0.298039;"/><path d="M100.177,1200.24l2600,0" style="fill:none;stroke-width:1px;stroke-miterlimit:1;stroke:#000;stroke-opacity:0.298039;"/><path d="M100.177,1700.24l2600,0" style="fill:none;stroke-width:1px;stroke-miterlimit:1;stroke:#000;stroke-opacity:0.298039;"/><path d="M100.177,2200.24l2600,0" style="fill:none;stroke-width:1px;stroke-miterlimit:1;stroke:#000;stroke-opacity:0.298039;"/><path d="M100.177,200.244l2600,0" style="fill:none;stroke-width:1px;stroke-miterlimit:1;stroke:#000;stroke-opacity:0.298039;"/><path d="M200.177,2900.24l0,-2800" style="fill:none;stroke-width:1px;stroke-miterlimit:1;stroke:#000;stroke-opacity:0.298039;"/></g><g id="vertical lines"><path d="M100.177,100.244l0,2800" style="fill:none;stroke-width:1px;stroke-linejoin:miter;stroke-miterlimit:1;stroke-dasharray:10,44,2,44;stroke-dashoffset:5;stroke:#000;"/><path d="M700.177,100.244l0,2800" style="fill:none;stroke-width:1px;stroke-linejoin:miter;stroke-miterlimit:1;stroke-dasharray:10,44,2,44;stroke-dashoffset:5;stroke:#000;"/><path d="M300.177,100.244l0,2800" style="fill:none;stroke-width:1px;stroke-linejoin:miter;stroke-miterlimit:1;stroke-dasharray:10,44,2,44;stroke-dashoffset:5;stroke:#000;"/><path d="M500.177,100.244l0,2800" style="fill:none;stroke-width:1px;stroke-linejoin:miter;stroke-miterlimit:1;stroke-dasharray:10,44,2,44;stroke-dashoffset:5;stroke:#000;"/><path d="M200.177,100.244l0,2800" style="fill:none;stroke-width:1px;stroke-linejoin:miter;stroke-miterlimit:1;stroke-dasharray:10,44,2,44;stroke-dashoffset:5;stroke:#000;"/><path d="M800.177,100.244l0,2800" style="fill:none;stroke-width:1px;stroke-linejoin:miter;stroke-miterlimit:1;stroke-dasharray:10,44,2,44;stroke-dashoffset:5;stroke:#000;"/><path d="M400.177,100.244l0,2800" style="fill:none;stroke-width:1px;stroke-linejoin:miter;stroke-miterlimit:1;stroke-dasharray:10,44,2,44;stroke-dashoffset:5;stroke:#000;"/><path d="M600.177,100.244l0,2800" style="fill:none;stroke-width:1px;stroke-linejoin:miter;stroke-miterlimit:1;stroke-dasharray:10,44,2,44;stroke-dashoffset:5;stroke:#000;"/></g><g id="horizontal lines"><path d="M100.177,100.244l2600,0" style="fill:none;stroke-width:1px;stroke-dasharray:10,44,2,44;stroke-dashoffset:5;stroke:#000;"/><path d="M100.177,500.244l2600,0" style="fill:none;stroke-width:1px;stroke-dasharray:10,44,2,44;stroke-dashoffset:5;stroke:#000;"/><path d="M100.177,900.244l2600,0" style="fill:none;stroke-width:1px;stroke-dasharray:10,44,2,44;stroke-dashoffset:5;stroke:#000;"/><path d="M100.177,1300.24l2600,0" style="fill:none;stroke-width:1px;stroke-dasharray:10,44,2,44;stroke-dashoffset:5;stroke:#000;"/><path d="M2700.18,200.244l-2600,0" style="fill:none;stroke-width:1px;stroke-dasharray:10,44,2,44;stroke-dashoffset:5;stroke:#000;"/><path d="M2700.18,600.244l-2600,0" style="fill:none;stroke-width:1px;stroke-dasharray:10,44,2,44;stroke-dashoffset:5;stroke:#000;"/><path d="M2700.18,1000.24l-2600,0" style="fill:none;stroke-width:1px;stroke-dasharray:10,44,2,44;stroke-dashoffset:5;stroke:#000;"/><path d="M2700.18,1400.24l-2600,0" style="fill:none;stroke-width:1px;stroke-dasharray:10,44,2,44;stroke-dashoffset:5;stroke:#000;"/><path d="M100.177,300.244l2600,0" style="fill:none;stroke-width:1px;stroke-dasharray:10,44,2,44;stroke-dashoffset:5;stroke:#000;"/><path d="M100.177,700.244l2600,0" style="fill:none;stroke-width:1px;stroke-dasharray:10,44,2,44;stroke-dashoffset:5;stroke:#000;"/><path d="M100.177,1100.24l2600,0" style="fill:none;stroke-width:1px;stroke-dasharray:10,44,2,44;stroke-dashoffset:5;stroke:#000;"/><path d="M100.177,1500.24l2600,0" style="fill:none;stroke-width:1px;stroke-dasharray:10,44,2,44;stroke-dashoffset:5;stroke:#000;"/><path d="M100.177,400.244l2600,0" style="fill:none;stroke-width:1px;stroke-dasharray:10,44,2,44;stroke-dashoffset:5;stroke:#000;"/><path d="M100.177,800.244l2600,0" style="fill:none;stroke-width:1px;stroke-dasharray:10,44,2,44;stroke-dashoffset:5;stroke:#000;"/><path d="M100.177,1200.24l2600,0" style="fill:none;stroke-width:1px;stroke-dasharray:10,44,2,44;stroke-dashoffset:5;stroke:#000;"/><path d="M100.177,1600.24l2600,0" style="fill:none;stroke-width:1px;stroke-dasharray:10,44,2,44;stroke-dashoffset:5;stroke:#000;"/><path d="M100.177,1800.24l2600,0" style="fill:none;stroke-width:1px;stroke-dasharray:10,44,2,44;stroke-dashoffset:5;stroke:#000;"/><path d="M100.177,2000.24l2600,0" style="fill:none;stroke-width:1px;stroke-dasharray:10,44,2,44;stroke-dashoffset:5;stroke:#000;"/><path d="M100.177,2200.24l2600,0" style="fill:none;stroke-width:1px;stroke-dasharray:10,44,2,44;stroke-dashoffset:5;stroke:#000;"/><path d="M100.177,1700.24l2600,0" style="fill:none;stroke-width:1px;stroke-dasharray:10,44,2,44;stroke-dashoffset:5;stroke:#000;"/><path d="M100.177,1900.24l2600,0" style="fill:none;stroke-width:1px;stroke-dasharray:10,44,2,44;stroke-dashoffset:5;stroke:#000;"/><path d="M100.177,2100.24l2600,0" style="fill:none;stroke-width:1px;stroke-dasharray:10,44,2,44;stroke-dashoffset:5;stroke:#000;"/><path d="M100.177,2300.24l2600,0" style="fill:none;stroke-width:1px;stroke-dasharray:10,44,2,44;stroke-dashoffset:5;stroke:#000;"/></g><g id="top labels"><rect x="150.177" y="50.244" width="100" height="50" style="fill:#808080;stroke-width:1px;stroke:#000;"/><rect x="650.177" y="50.244" width="100" height="50" style="fill:#808080;stroke-width:1px;stroke:#000;"/><rect x="250.177" y="50.244" width="100" height="50" style="fill:#808080;stroke-width:1px;stroke:#000;"/><rect x="750.177" y="50.244" width="100" height="50" style="fill:#808080;stroke-width:1px;stroke:#000;"/><rect x="350.177" y="50.244" width="100" height="50" style="fill:#808080;stroke-width:1px;stroke:#000;"/><rect x="450.177" y="50.244" width="100" height="50" style="fill:#808080;stroke-width:1px;stroke:#000;"/><rect x="550.177" y="50.244" width="100" height="50" style="fill:#808080;stroke-width:1px;stroke:#000;"/><text x="188.186px" y="89.323px" style="font-family:'ArialMT';font-size:36px;fill:#000;stroke-width:1px;stroke:#000;">A</text><text x="688.186px" y="89.323px" style="font-family:'ArialMT';font-size:36px;fill:#000;stroke-width:1px;stroke:#000;">F</text><text x="288.186px" y="89.323px" style="font-family:'ArialMT';font-size:36px;fill:#000;stroke-width:1px;stroke:#000;">B</text><text x="788.186px" y="89.323px" style="font-family:'ArialMT';font-size:36px;fill:#000;stroke-width:1px;stroke:#000;">G</text><text x="388.186px" y="89.323px" style="font-family:'ArialMT';font-size:36px;fill:#000;stroke-width:1px;stroke:#000;">C</text><text x="488.186px" y="89.323px" style="font-family:'ArialMT';font-size:36px;fill:#000;stroke-width:1px;stroke:#000;">D</text><text x="588.186px" y="89.323px" style="font-family:'ArialMT';font-size:36px;fill:#000;stroke-width:1px;stroke:#000;">E</text></g><g id="top numbers"><text x="292.945px" y="46.005px" style="font-family:'ArialMT';font-size:20px;fill:#000;stroke-width:1px;stroke:#000;">1</text><text x="194.615px" y="46.005px" style="font-family:'ArialMT';font-size:20px;fill:#000;stroke-width:1px;stroke:#000;">0</text><text x="792.945px" y="46.005px" style="font-family:'ArialMT';font-size:20px;fill:#000;stroke-width:1px;stroke:#000;">6</text><text x="392.945px" y="46.005px" style="font-family:'ArialMT';font-size:20px;fill:#000;stroke-width:1px;stroke:#000;">2</text><text x="492.945px" y="46.005px" style="font-family:'ArialMT';font-size:20px;fill:#000;stroke-width:1px;stroke:#000;">3</text><text x="592.945px" y="46.005px" style="font-family:'ArialMT';font-size:20px;fill:#000;stroke-width:1px;stroke:#000;">4</text><text x="692.945px" y="46.005px" style="font-family:'ArialMT';font-size:20px;fill:#000;stroke-width:1px;stroke:#000;">5</text></g><g id="side labels"><rect x="50.177" y="250.244" width="50" height="100" style="fill:#808080;stroke-width:1px;stroke:#000;"/><rect x="50.177" y="150.244" width="50" height="100" style="fill:#808080;stroke-width:1px;stroke:#000;"/><rect x="50.177" y="650.244" width="50" height="100" style="fill:#808080;stroke-width:1px;stroke:#000;"/><rect x="50.177" y="1050.24" width="50" height="100" style="fill:#808080;stroke-width:1px;stroke:#000;"/><rect x="50.177" y="1450.24" width="50" height="100" style="fill:#808080;stroke-width:1px;stroke:#000;"/><rect x="50.177" y="350.244" width="50" height="100" style="fill:#808080;stroke-width:1px;stroke:#000;"/><rect x="50.177" y="750.244" width="50" height="100" style="fill:#808080;stroke-width:1px;stroke:#000;"/><rect x="50.177" y="1150.24" width="50" height="100" style="fill:#808080;stroke-width:1px;stroke:#000;"/><rect x="50.177" y="1550.24" width="50" height="100" style="fill:#808080;stroke-width:1px;stroke:#000;"/><rect x="50.177" y="1750.24" width="50" height="100" style="fill:#808080;stroke-width:1px;stroke:#000;"/><rect x="50.177" y="1950.24" width="50" height="100" style="fill:#808080;stroke-width:1px;stroke:#000;"/><rect x="50.177" y="2150.24" width="50" height="100" style="fill:#808080;stroke-width:1px;stroke:#000;"/><rect x="50.177" y="450.244" width="50" height="100" style="fill:#808080;stroke-width:1px;stroke:#000;"/><rect x="50.177" y="850.244" width="50" height="100" style="fill:#808080;stroke-width:1px;stroke:#000;"/><rect x="50.177" y="1250.24" width="50" height="100" style="fill:#808080;stroke-width:1px;stroke:#000;"/><rect x="50.177" y="1650.24" width="50" height="100" style="fill:#808080;stroke-width:1px;stroke:#000;"/><rect x="50.177" y="1850.24" width="50" height="100" style="fill:#808080;stroke-width:1px;stroke:#000;"/><rect x="50.177" y="2050.24" width="50" height="100" style="fill:#808080;stroke-width:1px;stroke:#000;"/><rect x="50.177" y="2250.24" width="50" height="100" style="fill:#808080;stroke-width:1px;stroke:#000;"/><rect x="50.177" y="550.244" width="50" height="100" style="fill:#808080;stroke-width:1px;stroke:#000;"/><rect x="50.177" y="950.244" width="50" height="100" style="fill:#808080;stroke-width:1px;stroke:#000;"/><rect x="50.177" y="1350.24" width="50" height="100" style="fill:#808080;stroke-width:1px;stroke:#000;"/><text x="65.161px" y="312.615px" style="font-family:'ArialMT';font-size:36px;fill:#000;stroke-width:1px;stroke:#000;">1</text><text x="65.161px" y="212.615px" style="font-family:'ArialMT';font-size:36px;fill:#000;stroke-width:1px;stroke:#000;">0</text><text x="65.161px" y="712.615px" style="font-family:'ArialMT';font-size:36px;fill:#000;stroke-width:1px;stroke:#000;">5</text><text x="65.161px" y="1112.62px" style="font-family:'ArialMT';font-size:36px;fill:#000;stroke-width:1px;stroke:#000;">9</text><text x="55.151px" y="1512.62px" style="font-family:'ArialMT';font-size:36px;fill:#000;stroke-width:1px;stroke:#000;">13</text><text x="55.077px" y="1912.62px" style="font-family:'ArialMT';font-size:36px;fill:#000;stroke-width:1px;stroke:#000;">17</text><text x="56.826px" y="2316.03px" style="font-family:'ArialMT';font-size:36px;fill:#000;stroke-width:1px;stroke:#000;">21</text><text x="65.161px" y="412.615px" style="font-family:'ArialMT';font-size:36px;fill:#000;stroke-width:1px;stroke:#000;">2</text><text x="65.161px" y="812.615px" style="font-family:'ArialMT';font-size:36px;fill:#000;stroke-width:1px;stroke:#000;">6</text><text x="55.151px" y="1212.62px" style="font-family:'ArialMT';font-size:36px;fill:#000;stroke-width:1px;stroke:#000;">10</text><text x="55.151px" y="1612.62px" style="font-family:'ArialMT';font-size:36px;fill:#000;stroke-width:1px;stroke:#000;">14</text><text x="55.077px" y="2012.62px" style="font-family:'ArialMT';font-size:36px;fill:#000;stroke-width:1px;stroke:#000;">18</text><text x="65.161px" y="512.615px" style="font-family:'ArialMT';font-size:36px;fill:#000;stroke-width:1px;stroke:#000;">3</text><text x="65.161px" y="912.615px" style="font-family:'ArialMT';font-size:36px;fill:#000;stroke-width:1px;stroke:#000;">7</text><text x="56.487px" y="1312.62px" style="font-family:'ArialMT';font-size:36px;fill:#000;stroke-width:1px;stroke:#000;">1<tspan x="73.836px " y="1312.62px ">1</tspan></text><text x="55.151px" y="1712.62px" style="font-family:'ArialMT';font-size:36px;fill:#000;stroke-width:1px;stroke:#000;">15</text><text x="55.077px" y="2112.62px" style="font-family:'ArialMT';font-size:36px;fill:#000;stroke-width:1px;stroke:#000;">19</text><text x="65.161px" y="612.615px" style="font-family:'ArialMT';font-size:36px;fill:#000;stroke-width:1px;stroke:#000;">4</text><text x="65.161px" y="1012.62px" style="font-family:'ArialMT';font-size:36px;fill:#000;stroke-width:1px;stroke:#000;">8</text><text x="55.151px" y="1412.62px" style="font-family:'ArialMT';font-size:36px;fill:#000;stroke-width:1px;stroke:#000;">12</text><text x="55.077px" y="1812.62px" style="font-family:'ArialMT';font-size:36px;fill:#000;stroke-width:1px;stroke:#000;">16</text><text x="56.826px" y="2216.03px" style="font-family:'ArialMT';font-size:36px;fill:#000;stroke-width:1px;stroke:#000;">20</text></g><rect x="0.177" y="0.244" width="100" height="100" style="fill:none;stroke-width:1px;stroke-miterlimit:1;stroke:#000;"/><rect x="50.177" y="50.244" width="100" height="100" style="fill:#808080;stroke-width:1px;stroke:#000;"/><text x="55.724px" y="126.087px" style="font-family:'ArialMT';font-size:64px;fill:#000;stroke-width:1px;stroke:#000;">1m</text></g></g></svg>