<?xml version="1.0" standalone="no"?><!DOCTYPE svg PUBLIC "-//W3C//DTD SVG 1.1//EN" "http://www.w3.org/Graphics/SVG/1.1/DTD/svg11.dtd"><svg width="100%" height="100%" viewBox="0 0 2301 801" version="1.1" xmlns="http://www.w3.org/2000/svg" xmlns:xlink="http://www.w3.org/1999/xlink" xml:space="preserve" style="fill-rule:evenodd;clip-rule:evenodd;stroke-linejoin:round;stroke-miterlimit:1.41421;"><clipPath id="_clip1"><rect id="cone weave" x="0.77" y="0.244" width="2300" height="800"/></clipPath><g clip-path="url(#_clip1)"><g><path d="M522.654,400.244c0,-11.039 -8.962,-20 -20,-20c-11.039,0 -20,8.961 -20,20c0,11.038 8.961,20 20,20c11.038,0 20,-8.962 20,-20Z" style="fill:#fcd1d1;stroke-width:1px;stroke:#000;"/><path d="M512.654,400.244c0,-5.52 -4.481,-10 -10,-10c-5.52,0 -10,4.48 -10,10c0,5.519 4.48,10 10,10c5.519,0 10,-4.481 10,-10Z" style="fill:#fc2e30;stroke-width:1px;stroke:#000;"/></g><g><path d="M870.77,400.244c0,-11.039 -8.962,-20 -20,-20c-11.039,0 -20,8.961 -20,20c0,11.038 8.961,20 20,20c11.038,0 20,-8.962 20,-20Z" style="fill:#fcd1d1;stroke-width:1px;stroke:#000;"/><path d="M860.77,400.244c0,-5.52 -4.481,-10 -10,-10c-5.52,0 -10,4.48 -10,10c0,5.519 4.48,10 10,10c5.519,0 10,-4.481 10,-10Z" style="fill:#fc2e30;stroke-width:1px;stroke:#000;"/></g><g><path d="M1220.77,400.244c0,-11.039 -8.962,-20 -20,-20c-11.039,0 -20,8.961 -20,20c0,11.038 8.961,20 20,20c11.038,0 20,-8.962 20,-20Z" style="fill:#fcd1d1;stroke-width:1px;stroke:#000;"/><path d="M1210.77,400.244c0,-5.52 -4.481,-10 -10,-10c-5.52,0 -10,4.48 -10,10c0,5.519 4.48,10 10,10c5.519,0 10,-4.481 10,-10Z" style="fill:#fc2e30;stroke-width:1px;stroke:#000;"/></g><g><path d="M1570.77,400.244c0,-11.039 -8.962,-20 -20,-20c-11.039,0 -20,8.961 -20,20c0,11.038 8.961,20 20,20c11.038,0 20,-8.962 20,-20Z" style="fill:#fcd1d1;stroke-width:1px;stroke:#000;"/><path d="M1560.77,400.244c0,-5.52 -4.481,-10 -10,-10c-5.52,0 -10,4.48 -10,10c0,5.519 4.48,10 10,10c5.519,0 10,-4.481 10,-10Z" style="fill:#fc2e30;stroke-width:1px;stroke:#000;"/></g><g><path d="M1920.77,400.244c0,-11.039 -8.962,-20 -20,-20c-11.039,0 -20,8.961 -20,20c0,11.038 8.961,20 20,20c11.038,0 20,-8.962 20,-20Z" style="fill:#fcd1d1;stroke-width:1px;stroke:#000;"/><path d="M1910.77,400.244c0,-5.52 -4.481,-10 -10,-10c-5.52,0 -10,4.48 -10,10c0,5.519 4.48,10 10,10c5.519,0 10,-4.481 10,-10Z" style="fill:#fc2e30;stroke-width:1px;stroke:#000;"/></g><path d="M200.77,400.244c22.512,2.524 67.538,7.574 100,0c50,-11.667 129.933,-78.918 200,-70c91.666,11.666 233.333,140 350,140c116.666,0 233.333,-140 350,-140c116.666,0 233.333,140 350,140c116.666,0 258.333,-128.334 350,-140c70.066,-8.918 150,58.333 200,70c32.461,7.574 77.487,2.524 100,0" style="fill:none;stroke-width:8px;stroke-dasharray:24,48,0,0;stroke:#14a90c;stroke-opacity:0.698039;"/><g><path d="M203.02,450.243l-4.5,0l0,-100l4.5,0l0,100Z" style="fill:#000;"/><path d="M200.77,402.493l-50,0l0,-4.5l50,0l0,4.5Z" style="fill:#000;"/></g><g id="grid"><g id="bold lines"><path d="M700.77,100.244l0,2800" style="fill:none;stroke-width:1px;stroke-miterlimit:1;stroke:#000;stroke-opacity:0.298039;"/><path d="M100.77,700.244l2600,0" style="fill:none;stroke-width:1px;stroke-miterlimit:1;stroke:#000;stroke-opacity:0.298039;"/><path d="M1200.77,100.244l0,2800" style="fill:none;stroke-width:1px;stroke-miterlimit:1;stroke:#000;stroke-opacity:0.298039;"/><path d="M1700.77,100.244l0,2800" style="fill:none;stroke-width:1px;stroke-miterlimit:1;stroke:#000;stroke-opacity:0.298039;"/><path d="M2200.77,100.244l0,2800" style="fill:none;stroke-width:1px;stroke-miterlimit:1;stroke:#000;stroke-opacity:0.298039;"/><path d="M100.77,200.244l2600,0" style="fill:none;stroke-width:1px;stroke-miterlimit:1;stroke:#000;stroke-opacity:0.298039;"/><path d="M200.77,2900.24l0,-2800" style="fill:none;stroke-width:1px;stroke-miterlimit:1;stroke:#000;stroke-opacity:0.298039;"/></g><g id="vertical lines"><path d="M100.77,100.244l0,2800" style="fill:none;stroke-width:1px;stroke-linejoin:miter;stroke-miterlimit:1;stroke-dasharray:10,44,2,44;stroke-dashoffset:5;stroke:#000;"/><path d="M700.77,100.244l0,2800" style="fill:none;stroke-width:1px;stroke-linejoin:miter;stroke-miterlimit:1;stroke-dasharray:10,44,2,44;stroke-dashoffset:5;stroke:#000;"/><path d="M1300.77,100.244l0,2800" style="fill:none;stroke-width:1px;stroke-linejoin:miter;stroke-miterlimit:1;stroke-dasharray:10,44,2,44;stroke-dashoffset:5;stroke:#000;"/><path d="M1900.77,100.244l0,2800" style="fill:none;stroke-width:1px;stroke-linejoin:miter;stroke-miterlimit:1;stroke-dasharray:10,44,2,44;stroke-dashoffset:5;stroke:#000;"/><path d="M300.77,100.244l0,2800" style="fill:none;stroke-width:1px;stroke-linejoin:miter;stroke-miterlimit:1;stroke-dasharray:10,44,2,44;stroke-dashoffset:5;stroke:#000;"/><path d="M900.77,100.244l0,2800" style="fill:none;stroke-width:1px;stroke-linejoin:miter;stroke-miterlimit:1;stroke-dasharray:10,44,2,44;stroke-dashoffset:5;stroke:#000;"/><path d="M1500.77,100.244l0,2800" style="fill:none;stroke-width:1px;stroke-linejoin:miter;stroke-miterlimit:1;stroke-dasharray:10,44,2,44;stroke-dashoffset:5;stroke:#000;"/><path d="M2100.77,100.244l0,2800" style="fill:none;stroke-width:1px;stroke-linejoin:miter;stroke-miterlimit:1;stroke-dasharray:10,44,2,44;stroke-dashoffset:5;stroke:#000;"/><path d="M500.77,100.244l0,2800" style="fill:none;stroke-width:1px;stroke-linejoin:miter;stroke-miterlimit:1;stroke-dasharray:10,44,2,44;stroke-dashoffset:5;stroke:#000;"/><path d="M1100.77,100.244l0,2800" style="fill:none;stroke-width:1px;stroke-linejoin:miter;stroke-miterlimit:1;stroke-dasharray:10,44,2,44;stroke-dashoffset:5;stroke:#000;"/><path d="M1700.77,100.244l0,2800" style="fill:none;stroke-width:1px;stroke-linejoin:miter;stroke-miterlimit:1;stroke-dasharray:10,44,2,44;stroke-dashoffset:5;stroke:#000;"/><path d="M2300.77,100.244l0,2800" style="fill:none;stroke-width:1px;stroke-linejoin:miter;stroke-miterlimit:1;stroke-dasharray:10,44,2,44;stroke-dashoffset:5;stroke:#000;"/><path d="M200.77,100.244l0,2800" style="fill:none;stroke-width:1px;stroke-linejoin:miter;stroke-miterlimit:1;stroke-dasharray:10,44,2,44;stroke-dashoffset:5;stroke:#000;"/><path d="M800.77,100.244l0,2800" style="fill:none;stroke-width:1px;stroke-linejoin:miter;stroke-miterlimit:1;stroke-dasharray:10,44,2,44;stroke-dashoffset:5;stroke:#000;"/><path d="M1400.77,100.244l0,2800" style="fill:none;stroke-width:1px;stroke-linejoin:miter;stroke-miterlimit:1;stroke-dasharray:10,44,2,44;stroke-dashoffset:5;stroke:#000;"/><path d="M2000.77,100.244l0,2800" style="fill:none;stroke-width:1px;stroke-linejoin:miter;stroke-miterlimit:1;stroke-dasharray:10,44,2,44;stroke-dashoffset:5;stroke:#000;"/><path d="M400.77,100.244l0,2800" style="fill:none;stroke-width:1px;stroke-linejoin:miter;stroke-miterlimit:1;stroke-dasharray:10,44,2,44;stroke-dashoffset:5;stroke:#000;"/><path d="M1000.77,100.244l0,2800" style="fill:none;stroke-width:1px;stroke-linejoin:miter;stroke-miterlimit:1;stroke-dasharray:10,44,2,44;stroke-dashoffset:5;stroke:#000;"/><path d="M1600.77,100.244l0,2800" style="fill:none;stroke-width:1px;stroke-linejoin:miter;stroke-miterlimit:1;stroke-dasharray:10,44,2,44;stroke-dashoffset:5;stroke:#000;"/><path d="M2200.77,100.244l0,2800" style="fill:none;stroke-width:1px;stroke-linejoin:miter;stroke-miterlimit:1;stroke-dasharray:10,44,2,44;stroke-dashoffset:5;stroke:#000;"/><path d="M600.77,100.244l0,2800" style="fill:none;stroke-width:1px;stroke-linejoin:miter;stroke-miterlimit:1;stroke-dasharray:10,44,2,44;stroke-dashoffset:5;stroke:#000;"/><path d="M1200.77,100.244l0,2800" style="fill:none;stroke-width:1px;stroke-linejoin:miter;stroke-miterlimit:1;stroke-dasharray:10,44,2,44;stroke-dashoffset:5;stroke:#000;"/><path d="M1800.77,100.244l0,2800" style="fill:none;stroke-width:1px;stroke-linejoin:miter;stroke-miterlimit:1;stroke-dasharray:10,44,2,44;stroke-dashoffset:5;stroke:#000;"/></g><g id="horizontal lines"><path d="M100.77,100.244l2600,0" style="fill:none;stroke-width:1px;stroke-dasharray:10,44,2,44;stroke-dashoffset:5;stroke:#000;"/><path d="M100.77,500.244l2600,0" style="fill:none;stroke-width:1px;stroke-dasharray:10,44,2,44;stroke-dashoffset:5;stroke:#000;"/><path d="M2700.77,200.244l-2600,0" style="fill:none;stroke-width:1px;stroke-dasharray:10,44,2,44;stroke-dashoffset:5;stroke:#000;"/><path d="M2700.77,600.244l-2600,0" style="fill:none;stroke-width:1px;stroke-dasharray:10,44,2,44;stroke-dashoffset:5;stroke:#000;"/><path d="M100.77,300.244l2600,0" style="fill:none;stroke-width:1px;stroke-dasharray:10,44,2,44;stroke-dashoffset:5;stroke:#000;"/><path d="M100.77,700.244l2600,0" style="fill:none;stroke-width:1px;stroke-dasharray:10,44,2,44;stroke-dashoffset:5;stroke:#000;"/><path d="M100.77,400.244l2600,0" style="fill:none;stroke-width:1px;stroke-dasharray:10,44,2,44;stroke-dashoffset:5;stroke:#000;"/><path d="M100.77,800.244l2600,0" style="fill:none;stroke-width:1px;stroke-dasharray:10,44,2,44;stroke-dashoffset:5;stroke:#000;"/></g><g id="top labels"><rect x="150.77" y="50.244" width="100" height="50" style="fill:#808080;stroke-width:1px;stroke:#000;"/><rect x="650.77" y="50.244" width="100" height="50" style="fill:#808080;stroke-width:1px;stroke:#000;"/><rect x="1150.77" y="50.244" width="100" height="50" style="fill:#808080;stroke-width:1px;stroke:#000;"/><rect x="1650.77" y="50.244" width="100" height="50" style="fill:#808080;stroke-width:1px;stroke:#000;"/><rect x="2150.77" y="50.244" width="100" height="50" style="fill:#808080;stroke-width:1px;stroke:#000;"/><rect x="250.77" y="50.244" width="100" height="50" style="fill:#808080;stroke-width:1px;stroke:#000;"/><rect x="750.77" y="50.244" width="100" height="50" style="fill:#808080;stroke-width:1px;stroke:#000;"/><rect x="1250.77" y="50.244" width="100" height="50" style="fill:#808080;stroke-width:1px;stroke:#000;"/><rect x="1750.77" y="50.244" width="100" height="50" style="fill:#808080;stroke-width:1px;stroke:#000;"/><rect x="2250.77" y="50.244" width="100" height="50" style="fill:#808080;stroke-width:1px;stroke:#000;"/><rect x="350.77" y="50.244" width="100" height="50" style="fill:#808080;stroke-width:1px;stroke:#000;"/><rect x="850.77" y="50.244" width="100" height="50" style="fill:#808080;stroke-width:1px;stroke:#000;"/><rect x="1350.77" y="50.244" width="100" height="50" style="fill:#808080;stroke-width:1px;stroke:#000;"/><rect x="1850.77" y="50.244" width="100" height="50" style="fill:#808080;stroke-width:1px;stroke:#000;"/><rect x="450.77" y="50.244" width="100" height="50" style="fill:#808080;stroke-width:1px;stroke:#000;"/><rect x="950.77" y="50.244" width="100" height="50" style="fill:#808080;stroke-width:1px;stroke:#000;"/><rect x="1450.77" y="50.244" width="100" height="50" style="fill:#808080;stroke-width:1px;stroke:#000;"/><rect x="1950.77" y="50.244" width="100" height="50" style="fill:#808080;stroke-width:1px;stroke:#000;"/><rect x="550.77" y="50.244" width="100" height="50" style="fill:#808080;stroke-width:1px;stroke:#000;"/><rect x="1050.77" y="50.244" width="100" height="50" style="fill:#808080;stroke-width:1px;stroke:#000;"/><rect x="1550.77" y="50.244" width="100" height="50" style="fill:#808080;stroke-width:1px;stroke:#000;"/><rect x="2050.77" y="50.244" width="100" height="50" style="fill:#808080;stroke-width:1px;stroke:#000;"/><text x="188.779px" y="89.323px" style="font-family:'ArialMT';font-size:36px;fill:#000;stroke-width:1px;stroke:#000;">A</text><text x="688.779px" y="89.323px" style="font-family:'ArialMT';font-size:36px;fill:#000;stroke-width:1px;stroke:#000;">F</text><text x="1188.78px" y="89.323px" style="font-family:'ArialMT';font-size:36px;fill:#000;stroke-width:1px;stroke:#000;">K</text><text x="1688.78px" y="89.323px" style="font-family:'ArialMT';font-size:36px;fill:#000;stroke-width:1px;stroke:#000;">P</text><text x="2188.78px" y="89.323px" style="font-family:'ArialMT';font-size:36px;fill:#000;stroke-width:1px;stroke:#000;">U</text><text x="288.779px" y="89.323px" style="font-family:'ArialMT';font-size:36px;fill:#000;stroke-width:1px;stroke:#000;">B</text><text x="788.779px" y="89.323px" style="font-family:'ArialMT';font-size:36px;fill:#000;stroke-width:1px;stroke:#000;">G</text><text x="1288.78px" y="89.323px" style="font-family:'ArialMT';font-size:36px;fill:#000;stroke-width:1px;stroke:#000;">L</text><text x="1788.78px" y="89.323px" style="font-family:'ArialMT';font-size:36px;fill:#000;stroke-width:1px;stroke:#000;">Q</text><text x="2288.78px" y="89.323px" style="font-family:'ArialMT';font-size:36px;fill:#000;stroke-width:1px;stroke:#000;">V</text><text x="388.779px" y="89.323px" style="font-family:'ArialMT';font-size:36px;fill:#000;stroke-width:1px;stroke:#000;">C</text><text x="888.779px" y="89.323px" style="font-family:'ArialMT';font-size:36px;fill:#000;stroke-width:1px;stroke:#000;">H</text><text x="1388.78px" y="89.323px" style="font-family:'ArialMT';font-size:36px;fill:#000;stroke-width:1px;stroke:#000;">M</text><text x="1888.78px" y="89.323px" style="font-family:'ArialMT';font-size:36px;fill:#000;stroke-width:1px;stroke:#000;">R</text><text x="488.779px" y="89.323px" style="font-family:'ArialMT';font-size:36px;fill:#000;stroke-width:1px;stroke:#000;">D</text><text x="995.784px" y="89.323px" style="font-family:'ArialMT';font-size:36px;fill:#000;stroke-width:1px;stroke:#000;">I</text><text x="1488.78px" y="89.323px" style="font-family:'ArialMT';font-size:36px;fill:#000;stroke-width:1px;stroke:#000;">N</text><text x="1988.78px" y="89.323px" style="font-family:'ArialMT';font-size:36px;fill:#000;stroke-width:1px;stroke:#000;">S</text><text x="588.779px" y="89.323px" style="font-family:'ArialMT';font-size:36px;fill:#000;stroke-width:1px;stroke:#000;">E</text><text x="1088.78px" y="89.323px" style="font-family:'ArialMT';font-size:36px;fill:#000;stroke-width:1px;stroke:#000;">J</text><text x="1588.78px" y="89.323px" style="font-family:'ArialMT';font-size:36px;fill:#000;stroke-width:1px;stroke:#000;">O</text><text x="2088.78px" y="89.323px" style="font-family:'ArialMT';font-size:36px;fill:#000;stroke-width:1px;stroke:#000;">T</text></g><g id="top numbers"><text x="293.538px" y="46.005px" style="font-family:'ArialMT';font-size:20px;fill:#000;stroke-width:1px;stroke:#000;">1</text><text x="195.208px" y="46.005px" style="font-family:'ArialMT';font-size:20px;fill:#000;stroke-width:1px;stroke:#000;">0</text><text x="793.538px" y="46.005px" style="font-family:'ArialMT';font-size:20px;fill:#000;stroke-width:1px;stroke:#000;">6</text><text x="1288.88px" y="46.005px" style="font-family:'ArialMT';font-size:20px;fill:#000;stroke-width:1px;stroke:#000;">1<tspan x="1298.52px " y="46.005px ">1</tspan></text><text x="1789.65px" y="46.005px" style="font-family:'ArialMT';font-size:20px;fill:#000;stroke-width:1px;stroke:#000;">16</text><text x="2289.65px" y="46.005px" style="font-family:'ArialMT';font-size:20px;fill:#000;stroke-width:1px;stroke:#000;">21</text><text x="393.538px" y="46.005px" style="font-family:'ArialMT';font-size:20px;fill:#000;stroke-width:1px;stroke:#000;">2</text><text x="894.085px" y="46.005px" style="font-family:'ArialMT';font-size:20px;fill:#000;stroke-width:1px;stroke:#000;">7</text><text x="1389.65px" y="46.005px" style="font-family:'ArialMT';font-size:20px;fill:#000;stroke-width:1px;stroke:#000;">12</text><text x="1888.52px" y="46.005px" style="font-family:'ArialMT';font-size:20px;fill:#000;stroke-width:1px;stroke:#000;">17</text><text x="493.538px" y="46.005px" style="font-family:'ArialMT';font-size:20px;fill:#000;stroke-width:1px;stroke:#000;">3</text><text x="994.085px" y="46.005px" style="font-family:'ArialMT';font-size:20px;fill:#000;stroke-width:1px;stroke:#000;">8</text><text x="1489.65px" y="46.005px" style="font-family:'ArialMT';font-size:20px;fill:#000;stroke-width:1px;stroke:#000;">13</text><text x="1988.52px" y="46.005px" style="font-family:'ArialMT';font-size:20px;fill:#000;stroke-width:1px;stroke:#000;">18</text><text x="593.538px" y="46.005px" style="font-family:'ArialMT';font-size:20px;fill:#000;stroke-width:1px;stroke:#000;">4</text><text x="1094.09px" y="46.005px" style="font-family:'ArialMT';font-size:20px;fill:#000;stroke-width:1px;stroke:#000;">9</text><text x="1589.65px" y="46.005px" style="font-family:'ArialMT';font-size:20px;fill:#000;stroke-width:1px;stroke:#000;">14</text><text x="2088.52px" y="46.005px" style="font-family:'ArialMT';font-size:20px;fill:#000;stroke-width:1px;stroke:#000;">19</text><text x="693.538px" y="46.005px" style="font-family:'ArialMT';font-size:20px;fill:#000;stroke-width:1px;stroke:#000;">5</text><text x="1189.65px" y="46.005px" style="font-family:'ArialMT';font-size:20px;fill:#000;stroke-width:1px;stroke:#000;">10</text><text x="1688.52px" y="46.005px" style="font-family:'ArialMT';font-size:20px;fill:#000;stroke-width:1px;stroke:#000;">15</text><text x="2188.52px" y="46.005px" style="font-family:'ArialMT';font-size:20px;fill:#000;stroke-width:1px;stroke:#000;">20</text></g><g id="side labels"><rect x="50.77" y="250.244" width="50" height="100" style="fill:#808080;stroke-width:1px;stroke:#000;"/><rect x="50.77" y="150.244" width="50" height="100" style="fill:#808080;stroke-width:1px;stroke:#000;"/><rect x="50.77" y="650.244" width="50" height="100" style="fill:#808080;stroke-width:1px;stroke:#000;"/><rect x="50.77" y="350.244" width="50" height="100" style="fill:#808080;stroke-width:1px;stroke:#000;"/><rect x="50.77" y="750.244" width="50" height="100" style="fill:#808080;stroke-width:1px;stroke:#000;"/><rect x="50.77" y="450.244" width="50" height="100" style="fill:#808080;stroke-width:1px;stroke:#000;"/><rect x="50.77" y="550.244" width="50" height="100" style="fill:#808080;stroke-width:1px;stroke:#000;"/><text x="65.754px" y="312.615px" style="font-family:'ArialMT';font-size:36px;fill:#000;stroke-width:1px;stroke:#000;">1</text><text x="65.754px" y="212.615px" style="font-family:'ArialMT';font-size:36px;fill:#000;stroke-width:1px;stroke:#000;">0</text><text x="65.754px" y="712.615px" style="font-family:'ArialMT';font-size:36px;fill:#000;stroke-width:1px;stroke:#000;">5</text><text x="65.754px" y="412.615px" style="font-family:'ArialMT';font-size:36px;fill:#000;stroke-width:1px;stroke:#000;">2</text><text x="65.754px" y="812.615px" style="font-family:'ArialMT';font-size:36px;fill:#000;stroke-width:1px;stroke:#000;">6</text><text x="65.754px" y="512.615px" style="font-family:'ArialMT';font-size:36px;fill:#000;stroke-width:1px;stroke:#000;">3</text><text x="65.754px" y="612.615px" style="font-family:'ArialMT';font-size:36px;fill:#000;stroke-width:1px;stroke:#000;">4</text></g><rect x="0.77" y="0.244" width="100" height="100" style="fill:none;stroke-width:1px;stroke-miterlimit:1;stroke:#000;"/><rect x="50.77" y="50.244" width="100" height="100" style="fill:#808080;stroke-width:1px;stroke:#000;"/><text x="56.316px" y="126.087px" style="font-family:'ArialMT';font-size:64px;fill:#000;stroke-width:1px;stroke:#000;">1m</text></g></g></svg>