<?xml version="1.0" standalone="no"?><!DOCTYPE svg PUBLIC "-//W3C//DTD SVG 1.1//EN" "http://www.w3.org/Graphics/SVG/1.1/DTD/svg11.dtd"><svg width="100%" height="100%" viewBox="0 0 2901 1801" version="1.1" xmlns="http://www.w3.org/2000/svg" xmlns:xlink="http://www.w3.org/1999/xlink" xml:space="preserve" style="fill-rule:evenodd;clip-rule:evenodd;stroke-miterlimit:1;"><g><g id="vertical lines"><path d="M100.77,100.244l0,1600" style="fill:none;stroke-width:1px;stroke:#000;"/><path d="M700.77,100.244l0,1600" style="fill:none;stroke-width:1px;stroke:#000;"/><path d="M1300.77,100.244l0,1600" style="fill:none;stroke-width:1px;stroke:#000;"/><path d="M1900.77,100.244l0,1600" style="fill:none;stroke-width:1px;stroke:#000;"/><path d="M2500.77,100.244l0,1600" style="fill:none;stroke-width:1px;stroke:#000;"/><path d="M300.77,100.244l0,1600" style="fill:none;stroke-width:1px;stroke:#000;"/><path d="M900.77,100.244l0,1600" style="fill:none;stroke-width:1px;stroke:#000;"/><path d="M1500.77,100.244l0,1600" style="fill:none;stroke-width:1px;stroke:#000;"/><path d="M2100.77,100.244l0,1600" style="fill:none;stroke-width:1px;stroke:#000;"/><path d="M2700.77,100.244l0,1600" style="fill:none;stroke-width:1px;stroke:#000;"/><path d="M500.77,100.244l0,1600" style="fill:none;stroke-width:1px;stroke:#000;"/><path d="M1100.77,100.244l0,1600" style="fill:none;stroke-width:1px;stroke:#000;"/><path d="M1700.77,100.244l0,1600" style="fill:none;stroke-width:1px;stroke:#000;"/><path d="M2300.77,100.244l0,1600" style="fill:none;stroke-width:1px;stroke:#000;"/><path d="M200.77,100.244l0,1600" style="fill:none;stroke-width:1px;stroke:#000;"/><path d="M800.77,100.244l0,1600" style="fill:none;stroke-width:1px;stroke:#000;"/><path d="M1400.77,100.244l0,1600" style="fill:none;stroke-width:1px;stroke:#000;"/><path d="M2000.77,100.244l0,1600" style="fill:none;stroke-width:1px;stroke:#000;"/><path d="M2600.77,100.244l0,1600" style="fill:none;stroke-width:1px;stroke:#000;"/><path d="M400.77,100.244l0,1600" style="fill:none;stroke-width:1px;stroke:#000;"/><path d="M1000.77,100.244l0,1600" style="fill:none;stroke-width:1px;stroke:#000;"/><path d="M1600.77,100.244l0,1600" style="fill:none;stroke-width:1px;stroke:#000;"/><path d="M2200.77,100.244l0,1600" style="fill:none;stroke-width:1px;stroke:#000;"/><path d="M2800.77,100.244l0,1600" style="fill:none;stroke-width:1px;stroke:#000;"/><path d="M600.77,100.244l0,1600" style="fill:none;stroke-width:1px;stroke:#000;"/><path d="M1200.77,100.244l0,1600" style="fill:none;stroke-width:1px;stroke:#000;"/><path d="M1800.77,100.244l0,1600" style="fill:none;stroke-width:1px;stroke:#000;"/><path d="M2400.77,100.244l0,1600" style="fill:none;stroke-width:1px;stroke:#000;"/></g><g id="horizontal lines"><path d="M100.77,100.244l2700,0" style="fill:none;stroke-width:1px;stroke-linejoin:round;stroke-miterlimit:1.41421;stroke:#000;"/><path d="M100.77,500.244l2700,0" style="fill:none;stroke-width:1px;stroke-linejoin:round;stroke-miterlimit:1.41421;stroke:#000;"/><path d="M100.77,900.244l2700,0" style="fill:none;stroke-width:1px;stroke-linejoin:round;stroke-miterlimit:1.41421;stroke:#000;"/><path d="M100.77,1300.24l2700,0" style="fill:none;stroke-width:1px;stroke-linejoin:round;stroke-miterlimit:1.41421;stroke:#000;"/><path d="M2800.77,200.244l-2700,0" style="fill:none;stroke-width:1px;stroke-linejoin:round;stroke-miterlimit:1.41421;stroke:#000;"/><path d="M2800.77,600.244l-2700,0" style="fill:none;stroke-width:1px;stroke-linejoin:round;stroke-miterlimit:1.41421;stroke:#000;"/><path d="M2800.77,1000.24l-2700,0" style="fill:none;stroke-width:1px;stroke-linejoin:round;stroke-miterlimit:1.41421;stroke:#000;"/><path d="M2800.77,1400.24l-2700,0" style="fill:none;stroke-width:1px;stroke-linejoin:round;stroke-miterlimit:1.41421;stroke:#000;"/><path d="M100.77,300.244l2700,0" style="fill:none;stroke-width:1px;stroke-linejoin:round;stroke-miterlimit:1.41421;stroke:#000;"/><path d="M100.77,700.244l2700,0" style="fill:none;stroke-width:1px;stroke-linejoin:round;stroke-miterlimit:1.41421;stroke:#000;"/><path d="M100.77,1100.24l2700,0" style="fill:none;stroke-width:1px;stroke-linejoin:round;stroke-miterlimit:1.41421;stroke:#000;"/><path d="M100.77,1500.24l2700,0" style="fill:none;stroke-width:1px;stroke-linejoin:round;stroke-miterlimit:1.41421;stroke:#000;"/><path d="M100.77,400.244l2700,0" style="fill:none;stroke-width:1px;stroke-linejoin:round;stroke-miterlimit:1.41421;stroke:#000;"/><path d="M100.77,800.244l2700,0" style="fill:none;stroke-width:1px;stroke-linejoin:round;stroke-miterlimit:1.41421;stroke:#000;"/><path d="M100.77,1200.24l2700,0" style="fill:none;stroke-width:1px;stroke-linejoin:round;stroke-miterlimit:1.41421;stroke:#000;"/><path d="M100.77,1600.24l2700,0" style="fill:none;stroke-width:1px;stroke-linejoin:round;stroke-miterlimit:1.41421;stroke:#000;"/><path d="M100.77,1700.24l2700,0" style="fill:none;stroke-width:1px;stroke-linejoin:round;stroke-miterlimit:1.41421;stroke:#000;"/></g><g id="top labels"><rect x="200.77" y="50.244" width="100" height="50" style="fill:#808080;stroke-width:1px;stroke-linejoin:round;stroke-miterlimit:1.41421;stroke:#000;"/><rect x="700.77" y="50.244" width="100" height="50" style="fill:#808080;stroke-width:1px;stroke-linejoin:round;stroke-miterlimit:1.41421;stroke:#000;"/><rect x="1200.77" y="50.244" width="100" height="50" style="fill:#808080;stroke-width:1px;stroke-linejoin:round;stroke-miterlimit:1.41421;stroke:#000;"/><rect x="1700.77" y="50.244" width="100" height="50" style="fill:#808080;stroke-width:1px;stroke-linejoin:round;stroke-miterlimit:1.41421;stroke:#000;"/><rect x="2200.77" y="50.244" width="100" height="50" style="fill:#808080;stroke-width:1px;stroke-linejoin:round;stroke-miterlimit:1.41421;stroke:#000;"/><rect x="300.77" y="50.244" width="100" height="50" style="fill:#808080;stroke-width:1px;stroke-linejoin:round;stroke-miterlimit:1.41421;stroke:#000;"/><rect x="800.77" y="50.244" width="100" height="50" style="fill:#808080;stroke-width:1px;stroke-linejoin:round;stroke-miterlimit:1.41421;stroke:#000;"/><rect x="1300.77" y="50.244" width="100" height="50" style="fill:#808080;stroke-width:1px;stroke-linejoin:round;stroke-miterlimit:1.41421;stroke:#000;"/><rect x="1800.77" y="50.244" width="100" height="50" style="fill:#808080;stroke-width:1px;stroke-linejoin:round;stroke-miterlimit:1.41421;stroke:#000;"/><rect x="2300.77" y="50.244" width="100" height="50" style="fill:#808080;stroke-width:1px;stroke-linejoin:round;stroke-miterlimit:1.41421;stroke:#000;"/><rect x="400.77" y="50.244" width="100" height="50" style="fill:#808080;stroke-width:1px;stroke-linejoin:round;stroke-miterlimit:1.41421;stroke:#000;"/><rect x="900.77" y="50.244" width="100" height="50" style="fill:#808080;stroke-width:1px;stroke-linejoin:round;stroke-miterlimit:1.41421;stroke:#000;"/><rect x="1400.77" y="50.244" width="100" height="50" style="fill:#808080;stroke-width:1px;stroke-linejoin:round;stroke-miterlimit:1.41421;stroke:#000;"/><rect x="1900.77" y="50.244" width="100" height="50" style="fill:#808080;stroke-width:1px;stroke-linejoin:round;stroke-miterlimit:1.41421;stroke:#000;"/><rect x="2400.77" y="50.244" width="100" height="50" style="fill:#808080;stroke-width:1px;stroke-linejoin:round;stroke-miterlimit:1.41421;stroke:#000;"/><rect x="500.77" y="50.244" width="100" height="50" style="fill:#808080;stroke-width:1px;stroke-linejoin:round;stroke-miterlimit:1.41421;stroke:#000;"/><rect x="1000.77" y="50.244" width="100" height="50" style="fill:#808080;stroke-width:1px;stroke-linejoin:round;stroke-miterlimit:1.41421;stroke:#000;"/><rect x="1500.77" y="50.244" width="100" height="50" style="fill:#808080;stroke-width:1px;stroke-linejoin:round;stroke-miterlimit:1.41421;stroke:#000;"/><rect x="2000.77" y="50.244" width="100" height="50" style="fill:#808080;stroke-width:1px;stroke-linejoin:round;stroke-miterlimit:1.41421;stroke:#000;"/><rect x="2500.77" y="50.244" width="100" height="50" style="fill:#808080;stroke-width:1px;stroke-linejoin:round;stroke-miterlimit:1.41421;stroke:#000;"/><rect x="600.77" y="50.244" width="100" height="50" style="fill:#808080;stroke-width:1px;stroke-linejoin:round;stroke-miterlimit:1.41421;stroke:#000;"/><rect x="1100.77" y="50.244" width="100" height="50" style="fill:#808080;stroke-width:1px;stroke-linejoin:round;stroke-miterlimit:1.41421;stroke:#000;"/><rect x="1600.77" y="50.244" width="100" height="50" style="fill:#808080;stroke-width:1px;stroke-linejoin:round;stroke-miterlimit:1.41421;stroke:#000;"/><rect x="2100.77" y="50.244" width="100" height="50" style="fill:#808080;stroke-width:1px;stroke-linejoin:round;stroke-miterlimit:1.41421;stroke:#000;"/><rect x="2600.77" y="50.244" width="100" height="50" style="fill:#808080;stroke-width:1px;stroke-linejoin:round;stroke-miterlimit:1.41421;stroke:#000;"/><rect x="2700.77" y="50.244" width="100" height="50" style="fill:#808080;stroke-width:1px;stroke-linejoin:round;stroke-miterlimit:1.41421;stroke:#000;"/><text x="238.779px" y="89.323px" style="font-family:'ArialMT';font-size:36px;fill:#000;stroke-width:1px;stroke-linejoin:round;stroke-miterlimit:1.41421;stroke:#000;">A</text><text x="738.779px" y="89.323px" style="font-family:'ArialMT';font-size:36px;fill:#000;stroke-width:1px;stroke-linejoin:round;stroke-miterlimit:1.41421;stroke:#000;">F</text><text x="1238.78px" y="89.323px" style="font-family:'ArialMT';font-size:36px;fill:#000;stroke-width:1px;stroke-linejoin:round;stroke-miterlimit:1.41421;stroke:#000;">K</text><text x="1738.78px" y="89.323px" style="font-family:'ArialMT';font-size:36px;fill:#000;stroke-width:1px;stroke-linejoin:round;stroke-miterlimit:1.41421;stroke:#000;">P</text><text x="2238.78px" y="89.323px" style="font-family:'ArialMT';font-size:36px;fill:#000;stroke-width:1px;stroke-linejoin:round;stroke-miterlimit:1.41421;stroke:#000;">U</text><text x="338.779px" y="89.323px" style="font-family:'ArialMT';font-size:36px;fill:#000;stroke-width:1px;stroke-linejoin:round;stroke-miterlimit:1.41421;stroke:#000;">B</text><text x="838.779px" y="89.323px" style="font-family:'ArialMT';font-size:36px;fill:#000;stroke-width:1px;stroke-linejoin:round;stroke-miterlimit:1.41421;stroke:#000;">G</text><text x="1338.78px" y="89.323px" style="font-family:'ArialMT';font-size:36px;fill:#000;stroke-width:1px;stroke-linejoin:round;stroke-miterlimit:1.41421;stroke:#000;">L</text><text x="1838.78px" y="89.323px" style="font-family:'ArialMT';font-size:36px;fill:#000;stroke-width:1px;stroke-linejoin:round;stroke-miterlimit:1.41421;stroke:#000;">Q</text><text x="2338.78px" y="89.323px" style="font-family:'ArialMT';font-size:36px;fill:#000;stroke-width:1px;stroke-linejoin:round;stroke-miterlimit:1.41421;stroke:#000;">V</text><text x="438.779px" y="89.323px" style="font-family:'ArialMT';font-size:36px;fill:#000;stroke-width:1px;stroke-linejoin:round;stroke-miterlimit:1.41421;stroke:#000;">C</text><text x="938.779px" y="89.323px" style="font-family:'ArialMT';font-size:36px;fill:#000;stroke-width:1px;stroke-linejoin:round;stroke-miterlimit:1.41421;stroke:#000;">H</text><text x="1438.78px" y="89.323px" style="font-family:'ArialMT';font-size:36px;fill:#000;stroke-width:1px;stroke-linejoin:round;stroke-miterlimit:1.41421;stroke:#000;">M</text><text x="1938.78px" y="89.323px" style="font-family:'ArialMT';font-size:36px;fill:#000;stroke-width:1px;stroke-linejoin:round;stroke-miterlimit:1.41421;stroke:#000;">R</text><text x="2438.78px" y="89.323px" style="font-family:'ArialMT';font-size:36px;fill:#000;stroke-width:1px;stroke-linejoin:round;stroke-miterlimit:1.41421;stroke:#000;">W</text><text x="538.779px" y="89.323px" style="font-family:'ArialMT';font-size:36px;fill:#000;stroke-width:1px;stroke-linejoin:round;stroke-miterlimit:1.41421;stroke:#000;">D</text><text x="1045.78px" y="89.323px" style="font-family:'ArialMT';font-size:36px;fill:#000;stroke-width:1px;stroke-linejoin:round;stroke-miterlimit:1.41421;stroke:#000;">I</text><text x="1538.78px" y="89.323px" style="font-family:'ArialMT';font-size:36px;fill:#000;stroke-width:1px;stroke-linejoin:round;stroke-miterlimit:1.41421;stroke:#000;">N</text><text x="2038.78px" y="89.323px" style="font-family:'ArialMT';font-size:36px;fill:#000;stroke-width:1px;stroke-linejoin:round;stroke-miterlimit:1.41421;stroke:#000;">S</text><text x="2538.78px" y="89.323px" style="font-family:'ArialMT';font-size:36px;fill:#000;stroke-width:1px;stroke-linejoin:round;stroke-miterlimit:1.41421;stroke:#000;">X</text><text x="638.779px" y="89.323px" style="font-family:'ArialMT';font-size:36px;fill:#000;stroke-width:1px;stroke-linejoin:round;stroke-miterlimit:1.41421;stroke:#000;">E</text><text x="1138.78px" y="89.323px" style="font-family:'ArialMT';font-size:36px;fill:#000;stroke-width:1px;stroke-linejoin:round;stroke-miterlimit:1.41421;stroke:#000;">J</text><text x="1638.78px" y="89.323px" style="font-family:'ArialMT';font-size:36px;fill:#000;stroke-width:1px;stroke-linejoin:round;stroke-miterlimit:1.41421;stroke:#000;">O</text><text x="2138.78px" y="89.323px" style="font-family:'ArialMT';font-size:36px;fill:#000;stroke-width:1px;stroke-linejoin:round;stroke-miterlimit:1.41421;stroke:#000;">T</text><text x="2638.78px" y="89.323px" style="font-family:'ArialMT';font-size:36px;fill:#000;stroke-width:1px;stroke-linejoin:round;stroke-miterlimit:1.41421;stroke:#000;">Y</text><text x="2738.78px" y="89.323px" style="font-family:'ArialMT';font-size:36px;fill:#000;stroke-width:1px;stroke-linejoin:round;stroke-miterlimit:1.41421;stroke:#000;">Z</text></g><g id="side labels"><rect x="50.77" y="200.244" width="50" height="100" style="fill:#808080;stroke-width:1px;stroke-linejoin:round;stroke-miterlimit:1.41421;stroke:#000;"/><rect x="50.77" y="600.244" width="50" height="100" style="fill:#808080;stroke-width:1px;stroke-linejoin:round;stroke-miterlimit:1.41421;stroke:#000;"/><rect x="50.77" y="1000.24" width="50" height="100" style="fill:#808080;stroke-width:1px;stroke-linejoin:round;stroke-miterlimit:1.41421;stroke:#000;"/><rect x="50.77" y="1400.24" width="50" height="100" style="fill:#808080;stroke-width:1px;stroke-linejoin:round;stroke-miterlimit:1.41421;stroke:#000;"/><rect x="50.77" y="300.244" width="50" height="100" style="fill:#808080;stroke-width:1px;stroke-linejoin:round;stroke-miterlimit:1.41421;stroke:#000;"/><rect x="50.77" y="700.244" width="50" height="100" style="fill:#808080;stroke-width:1px;stroke-linejoin:round;stroke-miterlimit:1.41421;stroke:#000;"/><rect x="50.77" y="1100.24" width="50" height="100" style="fill:#808080;stroke-width:1px;stroke-linejoin:round;stroke-miterlimit:1.41421;stroke:#000;"/><rect x="50.77" y="1500.24" width="50" height="100" style="fill:#808080;stroke-width:1px;stroke-linejoin:round;stroke-miterlimit:1.41421;stroke:#000;"/><rect x="50.77" y="400.244" width="50" height="100" style="fill:#808080;stroke-width:1px;stroke-linejoin:round;stroke-miterlimit:1.41421;stroke:#000;"/><rect x="50.77" y="800.244" width="50" height="100" style="fill:#808080;stroke-width:1px;stroke-linejoin:round;stroke-miterlimit:1.41421;stroke:#000;"/><rect x="50.77" y="1200.24" width="50" height="100" style="fill:#808080;stroke-width:1px;stroke-linejoin:round;stroke-miterlimit:1.41421;stroke:#000;"/><rect x="50.77" y="1600.24" width="50" height="100" style="fill:#808080;stroke-width:1px;stroke-linejoin:round;stroke-miterlimit:1.41421;stroke:#000;"/><rect x="50.77" y="500.244" width="50" height="100" style="fill:#808080;stroke-width:1px;stroke-linejoin:round;stroke-miterlimit:1.41421;stroke:#000;"/><rect x="50.77" y="900.244" width="50" height="100" style="fill:#808080;stroke-width:1px;stroke-linejoin:round;stroke-miterlimit:1.41421;stroke:#000;"/><rect x="50.77" y="1300.24" width="50" height="100" style="fill:#808080;stroke-width:1px;stroke-linejoin:round;stroke-miterlimit:1.41421;stroke:#000;"/><text x="65.754px" y="262.615px" style="font-family:'ArialMT';font-size:36px;fill:#000;stroke-width:1px;stroke-linejoin:round;stroke-miterlimit:1.41421;stroke:#000;">1</text><text x="65.754px" y="662.615px" style="font-family:'ArialMT';font-size:36px;fill:#000;stroke-width:1px;stroke-linejoin:round;stroke-miterlimit:1.41421;stroke:#000;">5</text><text x="65.754px" y="1062.62px" style="font-family:'ArialMT';font-size:36px;fill:#000;stroke-width:1px;stroke-linejoin:round;stroke-miterlimit:1.41421;stroke:#000;">9</text><text x="55.744px" y="1462.62px" style="font-family:'ArialMT';font-size:36px;fill:#000;stroke-width:1px;stroke-linejoin:round;stroke-miterlimit:1.41421;stroke:#000;">13</text><text x="65.754px" y="362.615px" style="font-family:'ArialMT';font-size:36px;fill:#000;stroke-width:1px;stroke-linejoin:round;stroke-miterlimit:1.41421;stroke:#000;">2</text><text x="65.754px" y="762.615px" style="font-family:'ArialMT';font-size:36px;fill:#000;stroke-width:1px;stroke-linejoin:round;stroke-miterlimit:1.41421;stroke:#000;">6</text><text x="55.744px" y="1162.62px" style="font-family:'ArialMT';font-size:36px;fill:#000;stroke-width:1px;stroke-linejoin:round;stroke-miterlimit:1.41421;stroke:#000;">10</text><text x="55.744px" y="1562.62px" style="font-family:'ArialMT';font-size:36px;fill:#000;stroke-width:1px;stroke-linejoin:round;stroke-miterlimit:1.41421;stroke:#000;">14</text><text x="65.754px" y="462.615px" style="font-family:'ArialMT';font-size:36px;fill:#000;stroke-width:1px;stroke-linejoin:round;stroke-miterlimit:1.41421;stroke:#000;">3</text><text x="65.754px" y="862.615px" style="font-family:'ArialMT';font-size:36px;fill:#000;stroke-width:1px;stroke-linejoin:round;stroke-miterlimit:1.41421;stroke:#000;">7</text><text x="57.079px" y="1262.62px" style="font-family:'ArialMT';font-size:36px;fill:#000;stroke-width:1px;stroke-linejoin:round;stroke-miterlimit:1.41421;stroke:#000;">1<tspan x="74.429px " y="1262.62px ">1</tspan></text><text x="55.744px" y="1662.62px" style="font-family:'ArialMT';font-size:36px;fill:#000;stroke-width:1px;stroke-linejoin:round;stroke-miterlimit:1.41421;stroke:#000;">15</text><text x="65.754px" y="562.615px" style="font-family:'ArialMT';font-size:36px;fill:#000;stroke-width:1px;stroke-linejoin:round;stroke-miterlimit:1.41421;stroke:#000;">4</text><text x="65.754px" y="962.615px" style="font-family:'ArialMT';font-size:36px;fill:#000;stroke-width:1px;stroke-linejoin:round;stroke-miterlimit:1.41421;stroke:#000;">8</text><text x="55.744px" y="1362.62px" style="font-family:'ArialMT';font-size:36px;fill:#000;stroke-width:1px;stroke-linejoin:round;stroke-miterlimit:1.41421;stroke:#000;">12</text></g><rect x="100.77" y="100.244" width="100" height="100" style="fill:#808080;stroke-width:1px;stroke-linejoin:round;stroke-miterlimit:1.41421;stroke:#000;"/><text x="106.316px" y="176.087px" style="font-family:'ArialMT';font-size:64px;fill:#000;stroke-width:1px;stroke-linejoin:round;stroke-miterlimit:1.41421;stroke:#000;">1m</text></g><g><path d="M522.654,380.244c0,-11.039 -8.962,-20 -20,-20c-11.039,0 -20,8.961 -20,20c0,11.038 8.961,20 20,20c11.038,0 20,-8.962 20,-20Z" style="fill:#fcd1d1;stroke-width:1px;stroke-linejoin:round;stroke-miterlimit:1.41421;stroke:#000;"/><path d="M512.654,380.244c0,-5.52 -4.481,-10 -10,-10c-5.52,0 -10,4.48 -10,10c0,5.519 4.48,10 10,10c5.519,0 10,-4.481 10,-10Z" style="fill:#fc2e30;stroke-width:1px;stroke-linejoin:round;stroke-miterlimit:1.41421;stroke:#000;"/></g><g><path d="M522.654,420.244c0,-11.039 -8.962,-20 -20,-20c-11.039,0 -20,8.961 -20,20c0,11.038 8.961,20 20,20c11.038,0 20,-8.962 20,-20Z" style="fill:#fcd1d1;stroke-width:1px;stroke-linejoin:round;stroke-miterlimit:1.41421;stroke:#000;"/><path d="M512.654,420.244c0,-5.52 -4.481,-10 -10,-10c-5.52,0 -10,4.48 -10,10c0,5.519 4.48,10 10,10c5.519,0 10,-4.481 10,-10Z" style="fill:#fc2e30;stroke-width:1px;stroke-linejoin:round;stroke-miterlimit:1.41421;stroke:#000;"/></g><g><path d="M870.77,380.244c0,-11.039 -8.962,-20 -20,-20c-11.039,0 -20,8.961 -20,20c0,11.038 8.961,20 20,20c11.038,0 20,-8.962 20,-20Z" style="fill:#fcd1d1;stroke-width:1px;stroke-linejoin:round;stroke-miterlimit:1.41421;stroke:#000;"/><path d="M860.77,380.244c0,-5.52 -4.481,-10 -10,-10c-5.52,0 -10,4.48 -10,10c0,5.519 4.48,10 10,10c5.519,0 10,-4.481 10,-10Z" style="fill:#fc2e30;stroke-width:1px;stroke-linejoin:round;stroke-miterlimit:1.41421;stroke:#000;"/></g><g><path d="M870.77,420.244c0,-11.039 -8.962,-20 -20,-20c-11.039,0 -20,8.961 -20,20c0,11.038 8.961,20 20,20c11.038,0 20,-8.962 20,-20Z" style="fill:#fcd1d1;stroke-width:1px;stroke-linejoin:round;stroke-miterlimit:1.41421;stroke:#000;"/><path d="M860.77,420.244c0,-5.52 -4.481,-10 -10,-10c-5.52,0 -10,4.48 -10,10c0,5.519 4.48,10 10,10c5.519,0 10,-4.481 10,-10Z" style="fill:#fc2e30;stroke-width:1px;stroke-linejoin:round;stroke-miterlimit:1.41421;stroke:#000;"/></g><g><path d="M1220.77,380.244c0,-11.039 -8.962,-20 -20,-20c-11.039,0 -20,8.961 -20,20c0,11.038 8.961,20 20,20c11.038,0 20,-8.962 20,-20Z" style="fill:#fcd1d1;stroke-width:1px;stroke-linejoin:round;stroke-miterlimit:1.41421;stroke:#000;"/><path d="M1210.77,380.244c0,-5.52 -4.481,-10 -10,-10c-5.52,0 -10,4.48 -10,10c0,5.519 4.48,10 10,10c5.519,0 10,-4.481 10,-10Z" style="fill:#fc2e30;stroke-width:1px;stroke-linejoin:round;stroke-miterlimit:1.41421;stroke:#000;"/></g><g><path d="M1220.77,420.244c0,-11.039 -8.962,-20 -20,-20c-11.039,0 -20,8.961 -20,20c0,11.038 8.961,20 20,20c11.038,0 20,-8.962 20,-20Z" style="fill:#fcd1d1;stroke-width:1px;stroke-linejoin:round;stroke-miterlimit:1.41421;stroke:#000;"/><path d="M1210.77,420.244c0,-5.52 -4.481,-10 -10,-10c-5.52,0 -10,4.48 -10,10c0,5.519 4.48,10 10,10c5.519,0 10,-4.481 10,-10Z" style="fill:#fc2e30;stroke-width:1px;stroke-linejoin:round;stroke-miterlimit:1.41421;stroke:#000;"/></g><g><path d="M1570.77,380.244c0,-11.039 -8.962,-20 -20,-20c-11.039,0 -20,8.961 -20,20c0,11.038 8.961,20 20,20c11.038,0 20,-8.962 20,-20Z" style="fill:#fcd1d1;stroke-width:1px;stroke-linejoin:round;stroke-miterlimit:1.41421;stroke:#000;"/><path d="M1560.77,380.244c0,-5.52 -4.481,-10 -10,-10c-5.52,0 -10,4.48 -10,10c0,5.519 4.48,10 10,10c5.519,0 10,-4.481 10,-10Z" style="fill:#fc2e30;stroke-width:1px;stroke-linejoin:round;stroke-miterlimit:1.41421;stroke:#000;"/></g><g><path d="M1570.77,420.244c0,-11.039 -8.962,-20 -20,-20c-11.039,0 -20,8.961 -20,20c0,11.038 8.961,20 20,20c11.038,0 20,-8.962 20,-20Z" style="fill:#fcd1d1;stroke-width:1px;stroke-linejoin:round;stroke-miterlimit:1.41421;stroke:#000;"/><path d="M1560.77,420.244c0,-5.52 -4.481,-10 -10,-10c-5.52,0 -10,4.48 -10,10c0,5.519 4.48,10 10,10c5.519,0 10,-4.481 10,-10Z" style="fill:#fc2e30;stroke-width:1px;stroke-linejoin:round;stroke-miterlimit:1.41421;stroke:#000;"/></g><g><path d="M1920.77,380.244c0,-11.039 -8.962,-20 -20,-20c-11.039,0 -20,8.961 -20,20c0,11.038 8.961,20 20,20c11.038,0 20,-8.962 20,-20Z" style="fill:#fcd1d1;stroke-width:1px;stroke-linejoin:round;stroke-miterlimit:1.41421;stroke:#000;"/><path d="M1910.77,380.244c0,-5.52 -4.481,-10 -10,-10c-5.52,0 -10,4.48 -10,10c0,5.519 4.48,10 10,10c5.519,0 10,-4.481 10,-10Z" style="fill:#fc2e30;stroke-width:1px;stroke-linejoin:round;stroke-miterlimit:1.41421;stroke:#000;"/></g><g><path d="M1920.77,420.244c0,-11.039 -8.962,-20 -20,-20c-11.039,0 -20,8.961 -20,20c0,11.038 8.961,20 20,20c11.038,0 20,-8.962 20,-20Z" style="fill:#fcd1d1;stroke-width:1px;stroke-linejoin:round;stroke-miterlimit:1.41421;stroke:#000;"/><path d="M1910.77,420.244c0,-5.52 -4.481,-10 -10,-10c-5.52,0 -10,4.48 -10,10c0,5.519 4.48,10 10,10c5.519,0 10,-4.481 10,-10Z" style="fill:#fc2e30;stroke-width:1px;stroke-linejoin:round;stroke-miterlimit:1.41421;stroke:#000;"/></g><path d="M200.77,400.244c22.512,2.524 67.538,7.574 100,0c50,-11.667 129.933,-78.918 200,-70c91.666,11.666 233.333,140 350,140c116.666,0 233.333,-140 350,-140c116.666,0 233.333,140 350,140c116.666,0 258.333,-128.334 350,-140c70.066,-8.918 150,58.333 200,70c32.461,7.574 77.487,2.524 100,0" style="fill:none;stroke-width:36px;stroke-linejoin:round;stroke-miterlimit:1.41421;stroke:#14a90c;stroke-opacity:0.698039;"/></svg>