<?xml version="1.0" standalone="no"?><!DOCTYPE svg PUBLIC "-//W3C//DTD SVG 1.1//EN" "http://www.w3.org/Graphics/SVG/1.1/DTD/svg11.dtd"><svg width="100%" height="100%" viewBox="0 0 1801 801" version="1.1" xmlns="http://www.w3.org/2000/svg" xmlns:xlink="http://www.w3.org/1999/xlink" xml:space="preserve" style="fill-rule:evenodd;clip-rule:evenodd;stroke-linejoin:round;stroke-miterlimit:1.41421;"><clipPath id="_clip1"><rect id="crash avoidance" x="0.188" y="0.907" width="1800" height="800"/></clipPath><g clip-path="url(#_clip1)"><g><path d="M1520.19,200.907c0,-11.039 -8.962,-20 -20,-20c-11.039,0 -20,8.961 -20,20c0,11.038 8.961,20 20,20c11.038,0 20,-8.962 20,-20Z" style="fill:#fcd1d1;stroke-width:1px;stroke:#000;"/><path d="M1510.19,200.907c0,-5.52 -4.481,-10 -10,-10c-5.52,0 -10,4.48 -10,10c0,5.519 4.48,10 10,10c5.519,0 10,-4.481 10,-10Z" style="fill:#fc2e30;stroke-width:1px;stroke:#000;"/></g><g><path d="M1620.19,200.907c0,-11.039 -8.962,-20 -20,-20c-11.039,0 -20,8.961 -20,20c0,11.038 8.961,20 20,20c11.038,0 20,-8.962 20,-20Z" style="fill:#fcd1d1;stroke-width:1px;stroke:#000;"/><path d="M1610.19,200.907c0,-5.52 -4.481,-10 -10,-10c-5.52,0 -10,4.48 -10,10c0,5.519 4.48,10 10,10c5.519,0 10,-4.481 10,-10Z" style="fill:#fc2e30;stroke-width:1px;stroke:#000;"/></g><g><path d="M1620.19,300.907c0,-11.039 -8.962,-20 -20,-20c-11.039,0 -20,8.961 -20,20c0,11.038 8.961,20 20,20c11.038,0 20,-8.962 20,-20Z" style="fill:#fcd1d1;stroke-width:1px;stroke:#000;"/><path d="M1610.19,300.907c0,-5.52 -4.481,-10 -10,-10c-5.52,0 -10,4.48 -10,10c0,5.519 4.48,10 10,10c5.519,0 10,-4.481 10,-10Z" style="fill:#fc2e30;stroke-width:1px;stroke:#000;"/></g><g><path d="M1520.19,300.907c0,-11.039 -8.962,-20 -20,-20c-11.039,0 -20,8.961 -20,20c0,11.038 8.961,20 20,20c11.038,0 20,-8.962 20,-20Z" style="fill:#fcd1d1;stroke-width:1px;stroke:#000;"/><path d="M1510.19,300.907c0,-5.52 -4.481,-10 -10,-10c-5.52,0 -10,4.48 -10,10c0,5.519 4.48,10 10,10c5.519,0 10,-4.481 10,-10Z" style="fill:#fc2e30;stroke-width:1px;stroke:#000;"/></g><g><path d="M520.188,400.907c0,-11.039 -8.962,-20 -20,-20c-11.039,0 -20,8.961 -20,20c0,11.038 8.961,20 20,20c11.038,0 20,-8.962 20,-20Z" style="fill:#fcd1d1;stroke-width:1px;stroke:#000;"/><path d="M510.188,400.907c0,-5.52 -4.481,-10 -10,-10c-5.52,0 -10,4.48 -10,10c0,5.519 4.48,10 10,10c5.519,0 10,-4.481 10,-10Z" style="fill:#fc2e30;stroke-width:1px;stroke:#000;"/></g><g><path d="M420.188,400.907c0,-11.039 -8.962,-20 -20,-20c-11.039,0 -20,8.961 -20,20c0,11.038 8.961,20 20,20c11.038,0 20,-8.962 20,-20Z" style="fill:#fcd1d1;stroke-width:1px;stroke:#000;"/><path d="M410.188,400.907c0,-5.52 -4.481,-10 -10,-10c-5.52,0 -10,4.48 -10,10c0,5.519 4.48,10 10,10c5.519,0 10,-4.481 10,-10Z" style="fill:#fc2e30;stroke-width:1px;stroke:#000;"/></g><g><path d="M320.188,400.907c0,-11.039 -8.962,-20 -20,-20c-11.039,0 -20,8.961 -20,20c0,11.038 8.961,20 20,20c11.038,0 20,-8.962 20,-20Z" style="fill:#fcd1d1;stroke-width:1px;stroke:#000;"/><path d="M310.188,400.907c0,-5.52 -4.481,-10 -10,-10c-5.52,0 -10,4.48 -10,10c0,5.519 4.48,10 10,10c5.519,0 10,-4.481 10,-10Z" style="fill:#fc2e30;stroke-width:1px;stroke:#000;"/></g><g><path d="M520.188,500.907c0,-11.039 -8.962,-20 -20,-20c-11.039,0 -20,8.961 -20,20c0,11.038 8.961,20 20,20c11.038,0 20,-8.962 20,-20Z" style="fill:#fcd1d1;stroke-width:1px;stroke:#000;"/><path d="M510.188,500.907c0,-5.52 -4.481,-10 -10,-10c-5.52,0 -10,4.48 -10,10c0,5.519 4.48,10 10,10c5.519,0 10,-4.481 10,-10Z" style="fill:#fc2e30;stroke-width:1px;stroke:#000;"/></g><g><path d="M420.188,500.907c0,-11.039 -8.962,-20 -20,-20c-11.039,0 -20,8.961 -20,20c0,11.038 8.961,20 20,20c11.038,0 20,-8.962 20,-20Z" style="fill:#fcd1d1;stroke-width:1px;stroke:#000;"/><path d="M410.188,500.907c0,-5.52 -4.481,-10 -10,-10c-5.52,0 -10,4.48 -10,10c0,5.519 4.48,10 10,10c5.519,0 10,-4.481 10,-10Z" style="fill:#fc2e30;stroke-width:1px;stroke:#000;"/></g><g><path d="M320.188,500.907c0,-11.039 -8.962,-20 -20,-20c-11.039,0 -20,8.961 -20,20c0,11.038 8.961,20 20,20c11.038,0 20,-8.962 20,-20Z" style="fill:#fcd1d1;stroke-width:1px;stroke:#000;"/><path d="M310.188,500.907c0,-5.52 -4.481,-10 -10,-10c-5.52,0 -10,4.48 -10,10c0,5.519 4.48,10 10,10c5.519,0 10,-4.481 10,-10Z" style="fill:#fc2e30;stroke-width:1px;stroke:#000;"/></g><g><path d="M1520.19,600.907c0,-11.039 -8.962,-20 -20,-20c-11.039,0 -20,8.961 -20,20c0,11.038 8.961,20 20,20c11.038,0 20,-8.962 20,-20Z" style="fill:#fcd1d1;stroke-width:1px;stroke:#000;"/><path d="M1510.19,600.907c0,-5.52 -4.481,-10 -10,-10c-5.52,0 -10,4.48 -10,10c0,5.519 4.48,10 10,10c5.519,0 10,-4.481 10,-10Z" style="fill:#fc2e30;stroke-width:1px;stroke:#000;"/></g><g><path d="M1620.19,600.907c0,-11.039 -8.962,-20 -20,-20c-11.039,0 -20,8.961 -20,20c0,11.038 8.961,20 20,20c11.038,0 20,-8.962 20,-20Z" style="fill:#fcd1d1;stroke-width:1px;stroke:#000;"/><path d="M1610.19,600.907c0,-5.52 -4.481,-10 -10,-10c-5.52,0 -10,4.48 -10,10c0,5.519 4.48,10 10,10c5.519,0 10,-4.481 10,-10Z" style="fill:#fc2e30;stroke-width:1px;stroke:#000;"/></g><g><path d="M1720.19,600.907c0,-11.039 -8.962,-20 -20,-20c-11.039,0 -20,8.961 -20,20c0,11.038 8.961,20 20,20c11.038,0 20,-8.962 20,-20Z" style="fill:#fcd1d1;stroke-width:1px;stroke:#000;"/><path d="M1710.19,600.907c0,-5.52 -4.481,-10 -10,-10c-5.52,0 -10,4.48 -10,10c0,5.519 4.48,10 10,10c5.519,0 10,-4.481 10,-10Z" style="fill:#fc2e30;stroke-width:1px;stroke:#000;"/></g><g><path d="M1720.19,200.907c0,-11.039 -8.962,-20 -20,-20c-11.039,0 -20,8.961 -20,20c0,11.038 8.961,20 20,20c11.038,0 20,-8.962 20,-20Z" style="fill:#fcd1d1;stroke-width:1px;stroke:#000;"/><path d="M1710.19,200.907c0,-5.52 -4.481,-10 -10,-10c-5.52,0 -10,4.48 -10,10c0,5.519 4.48,10 10,10c5.519,0 10,-4.481 10,-10Z" style="fill:#fc2e30;stroke-width:1px;stroke:#000;"/></g><g><path d="M1520.19,700.907c0,-11.039 -8.962,-20 -20,-20c-11.039,0 -20,8.961 -20,20c0,11.038 8.961,20 20,20c11.038,0 20,-8.962 20,-20Z" style="fill:#fcd1d1;stroke-width:1px;stroke:#000;"/><path d="M1510.19,700.907c0,-5.52 -4.481,-10 -10,-10c-5.52,0 -10,4.48 -10,10c0,5.519 4.48,10 10,10c5.519,0 10,-4.481 10,-10Z" style="fill:#fc2e30;stroke-width:1px;stroke:#000;"/></g><g><path d="M1620.19,700.907c0,-11.039 -8.962,-20 -20,-20c-11.039,0 -20,8.961 -20,20c0,11.038 8.961,20 20,20c11.038,0 20,-8.962 20,-20Z" style="fill:#fcd1d1;stroke-width:1px;stroke:#000;"/><path d="M1610.19,700.907c0,-5.52 -4.481,-10 -10,-10c-5.52,0 -10,4.48 -10,10c0,5.519 4.48,10 10,10c5.519,0 10,-4.481 10,-10Z" style="fill:#fc2e30;stroke-width:1px;stroke:#000;"/></g><g><path d="M1720.19,700.907c0,-11.039 -8.962,-20 -20,-20c-11.039,0 -20,8.961 -20,20c0,11.038 8.961,20 20,20c11.038,0 20,-8.962 20,-20Z" style="fill:#fcd1d1;stroke-width:1px;stroke:#000;"/><path d="M1710.19,700.907c0,-5.52 -4.481,-10 -10,-10c-5.52,0 -10,4.48 -10,10c0,5.519 4.48,10 10,10c5.519,0 10,-4.481 10,-10Z" style="fill:#fc2e30;stroke-width:1px;stroke:#000;"/></g><g><path d="M1720.19,300.907c0,-11.039 -8.962,-20 -20,-20c-11.039,0 -20,8.961 -20,20c0,11.038 8.961,20 20,20c11.038,0 20,-8.962 20,-20Z" style="fill:#fcd1d1;stroke-width:1px;stroke:#000;"/><path d="M1710.19,300.907c0,-5.52 -4.481,-10 -10,-10c-5.52,0 -10,4.48 -10,10c0,5.519 4.48,10 10,10c5.519,0 10,-4.481 10,-10Z" style="fill:#fc2e30;stroke-width:1px;stroke:#000;"/></g><path d="M190.188,450.907c0,0 242.706,3.258 360,0c207.612,-5.767 676.852,-196.612 870,-200c173.623,-3.046 450,0 450,0" style="fill:none;stroke-width:35px;stroke:#14a90c;stroke-opacity:0.698039;"/><path d="M243.077,450.331l-95,29.425l0,-58.849l95,29.424Z" style="fill:#000;"/><g id="grid"><g id="bold lines"><path d="M700.188,100.907l0,2800" style="fill:none;stroke-width:1px;stroke-miterlimit:1;stroke:#000;stroke-opacity:0.298039;"/><path d="M100.188,700.907l2600,0" style="fill:none;stroke-width:1px;stroke-miterlimit:1;stroke:#000;stroke-opacity:0.298039;"/><path d="M1200.19,100.907l0,2800" style="fill:none;stroke-width:1px;stroke-miterlimit:1;stroke:#000;stroke-opacity:0.298039;"/><path d="M1700.19,100.907l0,2800" style="fill:none;stroke-width:1px;stroke-miterlimit:1;stroke:#000;stroke-opacity:0.298039;"/><path d="M100.188,200.907l2600,0" style="fill:none;stroke-width:1px;stroke-miterlimit:1;stroke:#000;stroke-opacity:0.298039;"/><path d="M200.188,2900.91l0,-2800" style="fill:none;stroke-width:1px;stroke-miterlimit:1;stroke:#000;stroke-opacity:0.298039;"/></g><g id="vertical lines"><path d="M100.188,100.907l0,2800" style="fill:none;stroke-width:1px;stroke-linejoin:miter;stroke-miterlimit:1;stroke-dasharray:10,44,2,44;stroke-dashoffset:5;stroke:#000;"/><path d="M700.188,100.907l0,2800" style="fill:none;stroke-width:1px;stroke-linejoin:miter;stroke-miterlimit:1;stroke-dasharray:10,44,2,44;stroke-dashoffset:5;stroke:#000;"/><path d="M1300.19,100.907l0,2800" style="fill:none;stroke-width:1px;stroke-linejoin:miter;stroke-miterlimit:1;stroke-dasharray:10,44,2,44;stroke-dashoffset:5;stroke:#000;"/><path d="M300.188,100.907l0,2800" style="fill:none;stroke-width:1px;stroke-linejoin:miter;stroke-miterlimit:1;stroke-dasharray:10,44,2,44;stroke-dashoffset:5;stroke:#000;"/><path d="M900.188,100.907l0,2800" style="fill:none;stroke-width:1px;stroke-linejoin:miter;stroke-miterlimit:1;stroke-dasharray:10,44,2,44;stroke-dashoffset:5;stroke:#000;"/><path d="M1500.19,100.907l0,2800" style="fill:none;stroke-width:1px;stroke-linejoin:miter;stroke-miterlimit:1;stroke-dasharray:10,44,2,44;stroke-dashoffset:5;stroke:#000;"/><path d="M500.188,100.907l0,2800" style="fill:none;stroke-width:1px;stroke-linejoin:miter;stroke-miterlimit:1;stroke-dasharray:10,44,2,44;stroke-dashoffset:5;stroke:#000;"/><path d="M1100.19,100.907l0,2800" style="fill:none;stroke-width:1px;stroke-linejoin:miter;stroke-miterlimit:1;stroke-dasharray:10,44,2,44;stroke-dashoffset:5;stroke:#000;"/><path d="M1700.19,100.907l0,2800" style="fill:none;stroke-width:1px;stroke-linejoin:miter;stroke-miterlimit:1;stroke-dasharray:10,44,2,44;stroke-dashoffset:5;stroke:#000;"/><path d="M200.188,100.907l0,2800" style="fill:none;stroke-width:1px;stroke-linejoin:miter;stroke-miterlimit:1;stroke-dasharray:10,44,2,44;stroke-dashoffset:5;stroke:#000;"/><path d="M800.188,100.907l0,2800" style="fill:none;stroke-width:1px;stroke-linejoin:miter;stroke-miterlimit:1;stroke-dasharray:10,44,2,44;stroke-dashoffset:5;stroke:#000;"/><path d="M1400.19,100.907l0,2800" style="fill:none;stroke-width:1px;stroke-linejoin:miter;stroke-miterlimit:1;stroke-dasharray:10,44,2,44;stroke-dashoffset:5;stroke:#000;"/><path d="M400.188,100.907l0,2800" style="fill:none;stroke-width:1px;stroke-linejoin:miter;stroke-miterlimit:1;stroke-dasharray:10,44,2,44;stroke-dashoffset:5;stroke:#000;"/><path d="M1000.19,100.907l0,2800" style="fill:none;stroke-width:1px;stroke-linejoin:miter;stroke-miterlimit:1;stroke-dasharray:10,44,2,44;stroke-dashoffset:5;stroke:#000;"/><path d="M1600.19,100.907l0,2800" style="fill:none;stroke-width:1px;stroke-linejoin:miter;stroke-miterlimit:1;stroke-dasharray:10,44,2,44;stroke-dashoffset:5;stroke:#000;"/><path d="M600.188,100.907l0,2800" style="fill:none;stroke-width:1px;stroke-linejoin:miter;stroke-miterlimit:1;stroke-dasharray:10,44,2,44;stroke-dashoffset:5;stroke:#000;"/><path d="M1200.19,100.907l0,2800" style="fill:none;stroke-width:1px;stroke-linejoin:miter;stroke-miterlimit:1;stroke-dasharray:10,44,2,44;stroke-dashoffset:5;stroke:#000;"/><path d="M1800.19,100.907l0,2800" style="fill:none;stroke-width:1px;stroke-linejoin:miter;stroke-miterlimit:1;stroke-dasharray:10,44,2,44;stroke-dashoffset:5;stroke:#000;"/></g><g id="horizontal lines"><path d="M100.188,100.907l2600,0" style="fill:none;stroke-width:1px;stroke-dasharray:10,44,2,44;stroke-dashoffset:5;stroke:#000;"/><path d="M100.188,500.907l2600,0" style="fill:none;stroke-width:1px;stroke-dasharray:10,44,2,44;stroke-dashoffset:5;stroke:#000;"/><path d="M2700.19,200.907l-2600,0" style="fill:none;stroke-width:1px;stroke-dasharray:10,44,2,44;stroke-dashoffset:5;stroke:#000;"/><path d="M2700.19,600.907l-2600,0" style="fill:none;stroke-width:1px;stroke-dasharray:10,44,2,44;stroke-dashoffset:5;stroke:#000;"/><path d="M100.188,300.907l2600,0" style="fill:none;stroke-width:1px;stroke-dasharray:10,44,2,44;stroke-dashoffset:5;stroke:#000;"/><path d="M100.188,700.907l2600,0" style="fill:none;stroke-width:1px;stroke-dasharray:10,44,2,44;stroke-dashoffset:5;stroke:#000;"/><path d="M100.188,400.907l2600,0" style="fill:none;stroke-width:1px;stroke-dasharray:10,44,2,44;stroke-dashoffset:5;stroke:#000;"/><path d="M100.188,800.907l2600,0" style="fill:none;stroke-width:1px;stroke-dasharray:10,44,2,44;stroke-dashoffset:5;stroke:#000;"/></g><g id="top labels"><rect x="150.188" y="50.907" width="100" height="50" style="fill:#808080;stroke-width:1px;stroke:#000;"/><rect x="650.188" y="50.907" width="100" height="50" style="fill:#808080;stroke-width:1px;stroke:#000;"/><rect x="1150.19" y="50.907" width="100" height="50" style="fill:#808080;stroke-width:1px;stroke:#000;"/><rect x="1650.19" y="50.907" width="100" height="50" style="fill:#808080;stroke-width:1px;stroke:#000;"/><rect x="250.188" y="50.907" width="100" height="50" style="fill:#808080;stroke-width:1px;stroke:#000;"/><rect x="750.188" y="50.907" width="100" height="50" style="fill:#808080;stroke-width:1px;stroke:#000;"/><rect x="1250.19" y="50.907" width="100" height="50" style="fill:#808080;stroke-width:1px;stroke:#000;"/><rect x="1750.19" y="50.907" width="100" height="50" style="fill:#808080;stroke-width:1px;stroke:#000;"/><rect x="350.188" y="50.907" width="100" height="50" style="fill:#808080;stroke-width:1px;stroke:#000;"/><rect x="850.188" y="50.907" width="100" height="50" style="fill:#808080;stroke-width:1px;stroke:#000;"/><rect x="1350.19" y="50.907" width="100" height="50" style="fill:#808080;stroke-width:1px;stroke:#000;"/><rect x="450.188" y="50.907" width="100" height="50" style="fill:#808080;stroke-width:1px;stroke:#000;"/><rect x="950.188" y="50.907" width="100" height="50" style="fill:#808080;stroke-width:1px;stroke:#000;"/><rect x="1450.19" y="50.907" width="100" height="50" style="fill:#808080;stroke-width:1px;stroke:#000;"/><rect x="550.188" y="50.907" width="100" height="50" style="fill:#808080;stroke-width:1px;stroke:#000;"/><rect x="1050.19" y="50.907" width="100" height="50" style="fill:#808080;stroke-width:1px;stroke:#000;"/><rect x="1550.19" y="50.907" width="100" height="50" style="fill:#808080;stroke-width:1px;stroke:#000;"/><text x="188.197px" y="89.986px" style="font-family:'ArialMT';font-size:36px;fill:#000;stroke-width:1px;stroke:#000;">A</text><text x="688.197px" y="89.986px" style="font-family:'ArialMT';font-size:36px;fill:#000;stroke-width:1px;stroke:#000;">F</text><text x="1188.2px" y="89.986px" style="font-family:'ArialMT';font-size:36px;fill:#000;stroke-width:1px;stroke:#000;">K</text><text x="1688.2px" y="89.986px" style="font-family:'ArialMT';font-size:36px;fill:#000;stroke-width:1px;stroke:#000;">P</text><text x="288.197px" y="89.986px" style="font-family:'ArialMT';font-size:36px;fill:#000;stroke-width:1px;stroke:#000;">B</text><text x="788.197px" y="89.986px" style="font-family:'ArialMT';font-size:36px;fill:#000;stroke-width:1px;stroke:#000;">G</text><text x="1288.2px" y="89.986px" style="font-family:'ArialMT';font-size:36px;fill:#000;stroke-width:1px;stroke:#000;">L</text><text x="1788.2px" y="89.986px" style="font-family:'ArialMT';font-size:36px;fill:#000;stroke-width:1px;stroke:#000;">Q</text><text x="388.197px" y="89.986px" style="font-family:'ArialMT';font-size:36px;fill:#000;stroke-width:1px;stroke:#000;">C</text><text x="888.197px" y="89.986px" style="font-family:'ArialMT';font-size:36px;fill:#000;stroke-width:1px;stroke:#000;">H</text><text x="1388.2px" y="89.986px" style="font-family:'ArialMT';font-size:36px;fill:#000;stroke-width:1px;stroke:#000;">M</text><text x="488.197px" y="89.986px" style="font-family:'ArialMT';font-size:36px;fill:#000;stroke-width:1px;stroke:#000;">D</text><text x="995.202px" y="89.986px" style="font-family:'ArialMT';font-size:36px;fill:#000;stroke-width:1px;stroke:#000;">I</text><text x="1488.2px" y="89.986px" style="font-family:'ArialMT';font-size:36px;fill:#000;stroke-width:1px;stroke:#000;">N</text><text x="588.197px" y="89.986px" style="font-family:'ArialMT';font-size:36px;fill:#000;stroke-width:1px;stroke:#000;">E</text><text x="1088.2px" y="89.986px" style="font-family:'ArialMT';font-size:36px;fill:#000;stroke-width:1px;stroke:#000;">J</text><text x="1588.2px" y="89.986px" style="font-family:'ArialMT';font-size:36px;fill:#000;stroke-width:1px;stroke:#000;">O</text></g><g id="top numbers"><text x="292.956px" y="46.668px" style="font-family:'ArialMT';font-size:20px;fill:#000;stroke-width:1px;stroke:#000;">1</text><text x="194.626px" y="46.668px" style="font-family:'ArialMT';font-size:20px;fill:#000;stroke-width:1px;stroke:#000;">0</text><text x="792.956px" y="46.668px" style="font-family:'ArialMT';font-size:20px;fill:#000;stroke-width:1px;stroke:#000;">6</text><text x="1288.3px" y="46.668px" style="font-family:'ArialMT';font-size:20px;fill:#000;stroke-width:1px;stroke:#000;">1<tspan x="1297.94px " y="46.668px ">1</tspan></text><text x="1789.07px" y="46.668px" style="font-family:'ArialMT';font-size:20px;fill:#000;stroke-width:1px;stroke:#000;">16</text><text x="392.956px" y="46.668px" style="font-family:'ArialMT';font-size:20px;fill:#000;stroke-width:1px;stroke:#000;">2</text><text x="893.503px" y="46.668px" style="font-family:'ArialMT';font-size:20px;fill:#000;stroke-width:1px;stroke:#000;">7</text><text x="1389.07px" y="46.668px" style="font-family:'ArialMT';font-size:20px;fill:#000;stroke-width:1px;stroke:#000;">12</text><text x="492.956px" y="46.668px" style="font-family:'ArialMT';font-size:20px;fill:#000;stroke-width:1px;stroke:#000;">3</text><text x="993.503px" y="46.668px" style="font-family:'ArialMT';font-size:20px;fill:#000;stroke-width:1px;stroke:#000;">8</text><text x="1489.07px" y="46.668px" style="font-family:'ArialMT';font-size:20px;fill:#000;stroke-width:1px;stroke:#000;">13</text><text x="592.956px" y="46.668px" style="font-family:'ArialMT';font-size:20px;fill:#000;stroke-width:1px;stroke:#000;">4</text><text x="1093.5px" y="46.668px" style="font-family:'ArialMT';font-size:20px;fill:#000;stroke-width:1px;stroke:#000;">9</text><text x="1589.07px" y="46.668px" style="font-family:'ArialMT';font-size:20px;fill:#000;stroke-width:1px;stroke:#000;">14</text><text x="692.956px" y="46.668px" style="font-family:'ArialMT';font-size:20px;fill:#000;stroke-width:1px;stroke:#000;">5</text><text x="1189.07px" y="46.668px" style="font-family:'ArialMT';font-size:20px;fill:#000;stroke-width:1px;stroke:#000;">10</text><text x="1687.94px" y="46.668px" style="font-family:'ArialMT';font-size:20px;fill:#000;stroke-width:1px;stroke:#000;">15</text></g><g id="side labels"><rect x="50.188" y="250.907" width="50" height="100" style="fill:#808080;stroke-width:1px;stroke:#000;"/><rect x="50.188" y="150.907" width="50" height="100" style="fill:#808080;stroke-width:1px;stroke:#000;"/><rect x="50.188" y="650.907" width="50" height="100" style="fill:#808080;stroke-width:1px;stroke:#000;"/><rect x="50.188" y="350.907" width="50" height="100" style="fill:#808080;stroke-width:1px;stroke:#000;"/><rect x="50.188" y="750.907" width="50" height="100" style="fill:#808080;stroke-width:1px;stroke:#000;"/><rect x="50.188" y="450.907" width="50" height="100" style="fill:#808080;stroke-width:1px;stroke:#000;"/><rect x="50.188" y="550.907" width="50" height="100" style="fill:#808080;stroke-width:1px;stroke:#000;"/><text x="65.172px" y="313.278px" style="font-family:'ArialMT';font-size:36px;fill:#000;stroke-width:1px;stroke:#000;">1</text><text x="65.172px" y="213.278px" style="font-family:'ArialMT';font-size:36px;fill:#000;stroke-width:1px;stroke:#000;">0</text><text x="65.172px" y="713.278px" style="font-family:'ArialMT';font-size:36px;fill:#000;stroke-width:1px;stroke:#000;">5</text><text x="65.172px" y="413.278px" style="font-family:'ArialMT';font-size:36px;fill:#000;stroke-width:1px;stroke:#000;">2</text><text x="65.172px" y="813.278px" style="font-family:'ArialMT';font-size:36px;fill:#000;stroke-width:1px;stroke:#000;">6</text><text x="65.172px" y="513.278px" style="font-family:'ArialMT';font-size:36px;fill:#000;stroke-width:1px;stroke:#000;">3</text><text x="65.172px" y="613.278px" style="font-family:'ArialMT';font-size:36px;fill:#000;stroke-width:1px;stroke:#000;">4</text></g><rect x="0.188" y="0.907" width="100" height="100" style="fill:none;stroke-width:1px;stroke-miterlimit:1;stroke:#000;"/><rect x="50.188" y="50.907" width="100" height="100" style="fill:#808080;stroke-width:1px;stroke:#000;"/><text x="55.734px" y="126.75px" style="font-family:'ArialMT';font-size:64px;fill:#000;stroke-width:1px;stroke:#000;">1m</text></g></g></svg>