<?xml version="1.0" standalone="no"?><!DOCTYPE svg PUBLIC "-//W3C//DTD SVG 1.1//EN" "http://www.w3.org/Graphics/SVG/1.1/DTD/svg11.dtd"><svg width="100%" height="100%" viewBox="0 0 7505 3338" version="1.1" xmlns="http://www.w3.org/2000/svg" xmlns:xlink="http://www.w3.org/1999/xlink" xml:space="preserve" style="fill-rule:evenodd;clip-rule:evenodd;stroke-linejoin:round;stroke-miterlimit:1.41421;"><clipPath id="_clip1"><rect id="crash avoidance" x="2.478" y="3.777" width="7500" height="3333.33"/></clipPath><g clip-path="url(#_clip1)"><g><path d="M6335.81,837.111c0,-45.993 -37.341,-83.334 -83.333,-83.334c-45.993,0 -83.334,37.341 -83.334,83.334c0,45.993 37.341,83.333 83.334,83.333c45.992,0 83.333,-37.34 83.333,-83.333Z" style="fill:#fcd1d1;stroke-width:4.17px;stroke:#000;"/><path d="M6294.14,837.111c0,-22.997 -18.67,-41.667 -41.666,-41.667c-22.997,0 -41.667,18.67 -41.667,41.667c0,22.996 18.67,41.666 41.667,41.666c22.996,0 41.666,-18.67 41.666,-41.666Z" style="fill:#fc2e30;stroke-width:4.17px;stroke:#000;"/></g><g><path d="M6752.48,837.111c0,-45.993 -37.341,-83.334 -83.334,-83.334c-45.993,0 -83.333,37.341 -83.333,83.334c0,45.993 37.34,83.333 83.333,83.333c45.993,0 83.334,-37.34 83.334,-83.333Z" style="fill:#fcd1d1;stroke-width:4.17px;stroke:#000;"/><path d="M6710.81,837.111c0,-22.997 -18.67,-41.667 -41.667,-41.667c-22.996,0 -41.666,18.67 -41.666,41.667c0,22.996 18.67,41.666 41.666,41.666c22.997,0 41.667,-18.67 41.667,-41.666Z" style="fill:#fc2e30;stroke-width:4.17px;stroke:#000;"/></g><g><path d="M6752.48,1253.78c0,-45.993 -37.341,-83.333 -83.334,-83.333c-45.993,0 -83.333,37.34 -83.333,83.333c0,45.993 37.34,83.334 83.333,83.334c45.993,0 83.334,-37.341 83.334,-83.334Z" style="fill:#fcd1d1;stroke-width:4.17px;stroke:#000;"/><path d="M6710.81,1253.78c0,-22.996 -18.67,-41.666 -41.667,-41.666c-22.996,0 -41.666,18.67 -41.666,41.666c0,22.997 18.67,41.667 41.666,41.667c22.997,0 41.667,-18.67 41.667,-41.667Z" style="fill:#fc2e30;stroke-width:4.17px;stroke:#000;"/></g><g><path d="M6335.81,1253.78c0,-45.993 -37.341,-83.333 -83.333,-83.333c-45.993,0 -83.334,37.34 -83.334,83.333c0,45.993 37.341,83.334 83.334,83.334c45.992,0 83.333,-37.341 83.333,-83.334Z" style="fill:#fcd1d1;stroke-width:4.17px;stroke:#000;"/><path d="M6294.14,1253.78c0,-22.996 -18.67,-41.666 -41.666,-41.666c-22.997,0 -41.667,18.67 -41.667,41.666c0,22.997 18.67,41.667 41.667,41.667c22.996,0 41.666,-18.67 41.666,-41.667Z" style="fill:#fc2e30;stroke-width:4.17px;stroke:#000;"/></g><g><path d="M2169.14,1670.44c0,-45.993 -37.34,-83.333 -83.333,-83.333c-45.993,0 -83.333,37.34 -83.333,83.333c0,45.993 37.34,83.333 83.333,83.333c45.993,0 83.333,-37.34 83.333,-83.333Z" style="fill:#fcd1d1;stroke-width:4.17px;stroke:#000;"/><path d="M2127.48,1670.44c0,-22.996 -18.671,-41.667 -41.667,-41.667c-22.997,0 -41.667,18.671 -41.667,41.667c0,22.996 18.67,41.667 41.667,41.667c22.996,0 41.667,-18.671 41.667,-41.667Z" style="fill:#fc2e30;stroke-width:4.17px;stroke:#000;"/></g><g><path d="M1752.48,1670.44c0,-45.993 -37.341,-83.333 -83.334,-83.333c-45.993,0 -83.333,37.34 -83.333,83.333c0,45.993 37.34,83.333 83.333,83.333c45.993,0 83.334,-37.34 83.334,-83.333Z" style="fill:#fcd1d1;stroke-width:4.17px;stroke:#000;"/><path d="M1710.81,1670.44c0,-22.996 -18.67,-41.667 -41.667,-41.667c-22.996,0 -41.666,18.671 -41.666,41.667c0,22.996 18.67,41.667 41.666,41.667c22.997,0 41.667,-18.671 41.667,-41.667Z" style="fill:#fc2e30;stroke-width:4.17px;stroke:#000;"/></g><g><path d="M1335.81,1670.44c0,-45.993 -37.341,-83.333 -83.333,-83.333c-45.993,0 -83.334,37.34 -83.334,83.333c0,45.993 37.341,83.333 83.334,83.333c45.992,0 83.333,-37.34 83.333,-83.333Z" style="fill:#fcd1d1;stroke-width:4.17px;stroke:#000;"/><path d="M1294.14,1670.44c0,-22.996 -18.67,-41.667 -41.666,-41.667c-22.997,0 -41.667,18.671 -41.667,41.667c0,22.996 18.67,41.667 41.667,41.667c22.996,0 41.666,-18.671 41.666,-41.667Z" style="fill:#fc2e30;stroke-width:4.17px;stroke:#000;"/></g><g><path d="M2169.14,2087.11c0,-45.993 -37.34,-83.334 -83.333,-83.334c-45.993,0 -83.333,37.341 -83.333,83.334c0,45.993 37.34,83.333 83.333,83.333c45.993,0 83.333,-37.34 83.333,-83.333Z" style="fill:#fcd1d1;stroke-width:4.17px;stroke:#000;"/><path d="M2127.48,2087.11c0,-22.997 -18.671,-41.667 -41.667,-41.667c-22.997,0 -41.667,18.67 -41.667,41.667c0,22.996 18.67,41.666 41.667,41.666c22.996,0 41.667,-18.67 41.667,-41.666Z" style="fill:#fc2e30;stroke-width:4.17px;stroke:#000;"/></g><g><path d="M1752.48,2087.11c0,-45.993 -37.341,-83.334 -83.334,-83.334c-45.993,0 -83.333,37.341 -83.333,83.334c0,45.993 37.34,83.333 83.333,83.333c45.993,0 83.334,-37.34 83.334,-83.333Z" style="fill:#fcd1d1;stroke-width:4.17px;stroke:#000;"/><path d="M1710.81,2087.11c0,-22.997 -18.67,-41.667 -41.667,-41.667c-22.996,0 -41.666,18.67 -41.666,41.667c0,22.996 18.67,41.666 41.666,41.666c22.997,0 41.667,-18.67 41.667,-41.666Z" style="fill:#fc2e30;stroke-width:4.17px;stroke:#000;"/></g><g><path d="M1335.81,2087.11c0,-45.993 -37.341,-83.334 -83.333,-83.334c-45.993,0 -83.334,37.341 -83.334,83.334c0,45.993 37.341,83.333 83.334,83.333c45.992,0 83.333,-37.34 83.333,-83.333Z" style="fill:#fcd1d1;stroke-width:4.17px;stroke:#000;"/><path d="M1294.14,2087.11c0,-22.997 -18.67,-41.667 -41.666,-41.667c-22.997,0 -41.667,18.67 -41.667,41.667c0,22.996 18.67,41.666 41.667,41.666c22.996,0 41.666,-18.67 41.666,-41.666Z" style="fill:#fc2e30;stroke-width:4.17px;stroke:#000;"/></g><g><path d="M6335.81,2503.78c0,-45.993 -37.341,-83.333 -83.333,-83.333c-45.993,0 -83.334,37.34 -83.334,83.333c0,45.993 37.341,83.334 83.334,83.334c45.992,0 83.333,-37.341 83.333,-83.334Z" style="fill:#fcd1d1;stroke-width:4.17px;stroke:#000;"/><path d="M6294.14,2503.78c0,-22.996 -18.67,-41.666 -41.666,-41.666c-22.997,0 -41.667,18.67 -41.667,41.666c0,22.997 18.67,41.667 41.667,41.667c22.996,0 41.666,-18.67 41.666,-41.667Z" style="fill:#fc2e30;stroke-width:4.17px;stroke:#000;"/></g><g><path d="M6752.48,2503.78c0,-45.993 -37.341,-83.333 -83.334,-83.333c-45.993,0 -83.333,37.34 -83.333,83.333c0,45.993 37.34,83.334 83.333,83.334c45.993,0 83.334,-37.341 83.334,-83.334Z" style="fill:#fcd1d1;stroke-width:4.17px;stroke:#000;"/><path d="M6710.81,2503.78c0,-22.996 -18.67,-41.666 -41.667,-41.666c-22.996,0 -41.666,18.67 -41.666,41.666c0,22.997 18.67,41.667 41.666,41.667c22.997,0 41.667,-18.67 41.667,-41.667Z" style="fill:#fc2e30;stroke-width:4.17px;stroke:#000;"/></g><g><path d="M7169.14,2503.78c0,-45.993 -37.34,-83.333 -83.333,-83.333c-45.993,0 -83.333,37.34 -83.333,83.333c0,45.993 37.34,83.334 83.333,83.334c45.993,0 83.333,-37.341 83.333,-83.334Z" style="fill:#fcd1d1;stroke-width:4.17px;stroke:#000;"/><path d="M7127.48,2503.78c0,-22.996 -18.671,-41.666 -41.667,-41.666c-22.997,0 -41.667,18.67 -41.667,41.666c0,22.997 18.67,41.667 41.667,41.667c22.996,0 41.667,-18.67 41.667,-41.667Z" style="fill:#fc2e30;stroke-width:4.17px;stroke:#000;"/></g><g><path d="M7169.14,837.111c0,-45.993 -37.34,-83.334 -83.333,-83.334c-45.993,0 -83.333,37.341 -83.333,83.334c0,45.993 37.34,83.333 83.333,83.333c45.993,0 83.333,-37.34 83.333,-83.333Z" style="fill:#fcd1d1;stroke-width:4.17px;stroke:#000;"/><path d="M7127.48,837.111c0,-22.997 -18.671,-41.667 -41.667,-41.667c-22.997,0 -41.667,18.67 -41.667,41.667c0,22.996 18.67,41.666 41.667,41.666c22.996,0 41.667,-18.67 41.667,-41.666Z" style="fill:#fc2e30;stroke-width:4.17px;stroke:#000;"/></g><g><path d="M6335.81,2920.44c0,-45.993 -37.341,-83.333 -83.333,-83.333c-45.993,0 -83.334,37.34 -83.334,83.333c0,45.993 37.341,83.333 83.334,83.333c45.992,0 83.333,-37.34 83.333,-83.333Z" style="fill:#fcd1d1;stroke-width:4.17px;stroke:#000;"/><path d="M6294.14,2920.44c0,-22.996 -18.67,-41.667 -41.666,-41.667c-22.997,0 -41.667,18.671 -41.667,41.667c0,22.996 18.67,41.667 41.667,41.667c22.996,0 41.666,-18.671 41.666,-41.667Z" style="fill:#fc2e30;stroke-width:4.17px;stroke:#000;"/></g><g><path d="M6752.48,2920.44c0,-45.993 -37.341,-83.333 -83.334,-83.333c-45.993,0 -83.333,37.34 -83.333,83.333c0,45.993 37.34,83.333 83.333,83.333c45.993,0 83.334,-37.34 83.334,-83.333Z" style="fill:#fcd1d1;stroke-width:4.17px;stroke:#000;"/><path d="M6710.81,2920.44c0,-22.996 -18.67,-41.667 -41.667,-41.667c-22.996,0 -41.666,18.671 -41.666,41.667c0,22.996 18.67,41.667 41.666,41.667c22.997,0 41.667,-18.671 41.667,-41.667Z" style="fill:#fc2e30;stroke-width:4.17px;stroke:#000;"/></g><g><path d="M7169.14,2920.44c0,-45.993 -37.34,-83.333 -83.333,-83.333c-45.993,0 -83.333,37.34 -83.333,83.333c0,45.993 37.34,83.333 83.333,83.333c45.993,0 83.333,-37.34 83.333,-83.333Z" style="fill:#fcd1d1;stroke-width:4.17px;stroke:#000;"/><path d="M7127.48,2920.44c0,-22.996 -18.671,-41.667 -41.667,-41.667c-22.997,0 -41.667,18.671 -41.667,41.667c0,22.996 18.67,41.667 41.667,41.667c22.996,0 41.667,-18.671 41.667,-41.667Z" style="fill:#fc2e30;stroke-width:4.17px;stroke:#000;"/></g><g><path d="M7169.14,1253.78c0,-45.993 -37.34,-83.333 -83.333,-83.333c-45.993,0 -83.333,37.34 -83.333,83.333c0,45.993 37.34,83.334 83.333,83.334c45.993,0 83.333,-37.341 83.333,-83.334Z" style="fill:#fcd1d1;stroke-width:4.17px;stroke:#000;"/><path d="M7127.48,1253.78c0,-22.996 -18.671,-41.666 -41.667,-41.666c-22.997,0 -41.667,18.67 -41.667,41.666c0,22.997 18.67,41.667 41.667,41.667c22.996,0 41.667,-18.67 41.667,-41.667Z" style="fill:#fc2e30;stroke-width:4.17px;stroke:#000;"/></g><path d="M794.144,1878.78c0,0 1011.27,13.576 1500,0c865.051,-24.029 2820.22,-819.214 3625,-833.333c723.429,-12.692 1875,0 1875,0" style="fill:none;stroke-width:145.83px;stroke:#14a90c;stroke-opacity:0.698039;"/><path d="M1014.52,1876.38l-395.833,122.603l0,-245.207l395.833,122.604Z" style="fill:#000;"/><g id="grid"><g id="bold lines"><path d="M2919.14,420.444l0,11666.7" style="fill:none;stroke-width:4.17px;stroke-miterlimit:1;stroke:#000;stroke-opacity:0.298039;"/><path d="M419.144,2920.44l10833.3,0" style="fill:none;stroke-width:4.17px;stroke-miterlimit:1;stroke:#000;stroke-opacity:0.298039;"/><path d="M5002.48,420.444l0,11666.7" style="fill:none;stroke-width:4.17px;stroke-miterlimit:1;stroke:#000;stroke-opacity:0.298039;"/><path d="M7085.81,420.444l0,11666.7" style="fill:none;stroke-width:4.17px;stroke-miterlimit:1;stroke:#000;stroke-opacity:0.298039;"/><path d="M419.144,837.111l10833.3,0" style="fill:none;stroke-width:4.17px;stroke-miterlimit:1;stroke:#000;stroke-opacity:0.298039;"/><path d="M835.811,12087.1l0,-11666.7" style="fill:none;stroke-width:4.17px;stroke-miterlimit:1;stroke:#000;stroke-opacity:0.298039;"/></g><g id="vertical lines"><path d="M419.144,420.444l0,11666.7" style="fill:none;stroke-width:4.17px;stroke-linejoin:miter;stroke-miterlimit:1;stroke-dasharray:41.67,183.33,8.33,183.33;stroke-dashoffset:20.83;stroke:#000;"/><path d="M2919.14,420.444l0,11666.7" style="fill:none;stroke-width:4.17px;stroke-linejoin:miter;stroke-miterlimit:1;stroke-dasharray:41.67,183.33,8.33,183.33;stroke-dashoffset:20.83;stroke:#000;"/><path d="M5419.14,420.444l0,11666.7" style="fill:none;stroke-width:4.17px;stroke-linejoin:miter;stroke-miterlimit:1;stroke-dasharray:41.67,183.33,8.33,183.33;stroke-dashoffset:20.83;stroke:#000;"/><path d="M1252.48,420.444l0,11666.7" style="fill:none;stroke-width:4.17px;stroke-linejoin:miter;stroke-miterlimit:1;stroke-dasharray:41.67,183.33,8.33,183.33;stroke-dashoffset:20.83;stroke:#000;"/><path d="M3752.48,420.444l0,11666.7" style="fill:none;stroke-width:4.17px;stroke-linejoin:miter;stroke-miterlimit:1;stroke-dasharray:41.67,183.33,8.33,183.33;stroke-dashoffset:20.83;stroke:#000;"/><path d="M6252.48,420.444l0,11666.7" style="fill:none;stroke-width:4.17px;stroke-linejoin:miter;stroke-miterlimit:1;stroke-dasharray:41.67,183.33,8.33,183.33;stroke-dashoffset:20.83;stroke:#000;"/><path d="M2085.81,420.444l0,11666.7" style="fill:none;stroke-width:4.17px;stroke-linejoin:miter;stroke-miterlimit:1;stroke-dasharray:41.67,183.33,8.33,183.33;stroke-dashoffset:20.83;stroke:#000;"/><path d="M4585.81,420.444l0,11666.7" style="fill:none;stroke-width:4.17px;stroke-linejoin:miter;stroke-miterlimit:1;stroke-dasharray:41.67,183.33,8.33,183.33;stroke-dashoffset:20.83;stroke:#000;"/><path d="M7085.81,420.444l0,11666.7" style="fill:none;stroke-width:4.17px;stroke-linejoin:miter;stroke-miterlimit:1;stroke-dasharray:41.67,183.33,8.33,183.33;stroke-dashoffset:20.83;stroke:#000;"/><path d="M835.811,420.444l0,11666.7" style="fill:none;stroke-width:4.17px;stroke-linejoin:miter;stroke-miterlimit:1;stroke-dasharray:41.67,183.33,8.33,183.33;stroke-dashoffset:20.83;stroke:#000;"/><path d="M3335.81,420.444l0,11666.7" style="fill:none;stroke-width:4.17px;stroke-linejoin:miter;stroke-miterlimit:1;stroke-dasharray:41.67,183.33,8.33,183.33;stroke-dashoffset:20.83;stroke:#000;"/><path d="M5835.81,420.444l0,11666.7" style="fill:none;stroke-width:4.17px;stroke-linejoin:miter;stroke-miterlimit:1;stroke-dasharray:41.67,183.33,8.33,183.33;stroke-dashoffset:20.83;stroke:#000;"/><path d="M1669.14,420.444l0,11666.7" style="fill:none;stroke-width:4.17px;stroke-linejoin:miter;stroke-miterlimit:1;stroke-dasharray:41.67,183.33,8.33,183.33;stroke-dashoffset:20.83;stroke:#000;"/><path d="M4169.14,420.444l0,11666.7" style="fill:none;stroke-width:4.17px;stroke-linejoin:miter;stroke-miterlimit:1;stroke-dasharray:41.67,183.33,8.33,183.33;stroke-dashoffset:20.83;stroke:#000;"/><path d="M6669.14,420.444l0,11666.7" style="fill:none;stroke-width:4.17px;stroke-linejoin:miter;stroke-miterlimit:1;stroke-dasharray:41.67,183.33,8.33,183.33;stroke-dashoffset:20.83;stroke:#000;"/><path d="M2502.48,420.444l0,11666.7" style="fill:none;stroke-width:4.17px;stroke-linejoin:miter;stroke-miterlimit:1;stroke-dasharray:41.67,183.33,8.33,183.33;stroke-dashoffset:20.83;stroke:#000;"/><path d="M5002.48,420.444l0,11666.7" style="fill:none;stroke-width:4.17px;stroke-linejoin:miter;stroke-miterlimit:1;stroke-dasharray:41.67,183.33,8.33,183.33;stroke-dashoffset:20.83;stroke:#000;"/><path d="M7502.48,420.444l0,11666.7" style="fill:none;stroke-width:4.17px;stroke-linejoin:miter;stroke-miterlimit:1;stroke-dasharray:41.67,183.33,8.33,183.33;stroke-dashoffset:20.83;stroke:#000;"/></g><g id="horizontal lines"><path d="M419.144,420.444l10833.3,0" style="fill:none;stroke-width:4.17px;stroke-dasharray:41.67,183.33,8.33,183.33;stroke-dashoffset:20.83;stroke:#000;"/><path d="M419.144,2087.11l10833.3,0" style="fill:none;stroke-width:4.17px;stroke-dasharray:41.67,183.33,8.33,183.33;stroke-dashoffset:20.83;stroke:#000;"/><path d="M11252.5,837.111l-10833.3,0" style="fill:none;stroke-width:4.17px;stroke-dasharray:41.67,183.33,8.33,183.33;stroke-dashoffset:20.83;stroke:#000;"/><path d="M11252.5,2503.78l-10833.3,0" style="fill:none;stroke-width:4.17px;stroke-dasharray:41.67,183.33,8.33,183.33;stroke-dashoffset:20.83;stroke:#000;"/><path d="M419.144,1253.78l10833.3,0" style="fill:none;stroke-width:4.17px;stroke-dasharray:41.67,183.33,8.33,183.33;stroke-dashoffset:20.83;stroke:#000;"/><path d="M419.144,2920.44l10833.3,0" style="fill:none;stroke-width:4.17px;stroke-dasharray:41.67,183.33,8.33,183.33;stroke-dashoffset:20.83;stroke:#000;"/><path d="M419.144,1670.44l10833.3,0" style="fill:none;stroke-width:4.17px;stroke-dasharray:41.67,183.33,8.33,183.33;stroke-dashoffset:20.83;stroke:#000;"/><path d="M419.144,3337.11l10833.3,0" style="fill:none;stroke-width:4.17px;stroke-dasharray:41.67,183.33,8.33,183.33;stroke-dashoffset:20.83;stroke:#000;"/></g><g id="top labels"><rect x="627.478" y="212.111" width="416.667" height="208.333" style="fill:#808080;stroke-width:4.17px;stroke:#000;"/><rect x="2710.81" y="212.111" width="416.667" height="208.333" style="fill:#808080;stroke-width:4.17px;stroke:#000;"/><rect x="4794.14" y="212.111" width="416.667" height="208.333" style="fill:#808080;stroke-width:4.17px;stroke:#000;"/><rect x="6877.48" y="212.111" width="416.667" height="208.333" style="fill:#808080;stroke-width:4.17px;stroke:#000;"/><rect x="1044.14" y="212.111" width="416.667" height="208.333" style="fill:#808080;stroke-width:4.17px;stroke:#000;"/><rect x="3127.48" y="212.111" width="416.667" height="208.333" style="fill:#808080;stroke-width:4.17px;stroke:#000;"/><rect x="5210.81" y="212.111" width="416.667" height="208.333" style="fill:#808080;stroke-width:4.17px;stroke:#000;"/><rect x="7294.14" y="212.111" width="416.667" height="208.333" style="fill:#808080;stroke-width:4.17px;stroke:#000;"/><rect x="1460.81" y="212.111" width="416.667" height="208.333" style="fill:#808080;stroke-width:4.17px;stroke:#000;"/><rect x="3544.14" y="212.111" width="416.667" height="208.333" style="fill:#808080;stroke-width:4.17px;stroke:#000;"/><rect x="5627.48" y="212.111" width="416.667" height="208.333" style="fill:#808080;stroke-width:4.17px;stroke:#000;"/><rect x="1877.48" y="212.111" width="416.667" height="208.333" style="fill:#808080;stroke-width:4.17px;stroke:#000;"/><rect x="3960.81" y="212.111" width="416.667" height="208.333" style="fill:#808080;stroke-width:4.17px;stroke:#000;"/><rect x="6044.14" y="212.111" width="416.667" height="208.333" style="fill:#808080;stroke-width:4.17px;stroke:#000;"/><rect x="2294.14" y="212.111" width="416.667" height="208.333" style="fill:#808080;stroke-width:4.17px;stroke:#000;"/><rect x="4377.48" y="212.111" width="416.667" height="208.333" style="fill:#808080;stroke-width:4.17px;stroke:#000;"/><rect x="6460.81" y="212.111" width="416.667" height="208.333" style="fill:#808080;stroke-width:4.17px;stroke:#000;"/><text x="785.852px" y="374.94px" style="font-family:'ArialMT';font-size:150px;fill:#000;stroke-width:4.17px;stroke:#000;">A</text><text x="2869.18px" y="374.94px" style="font-family:'ArialMT';font-size:150px;fill:#000;stroke-width:4.17px;stroke:#000;">F</text><text x="4952.52px" y="374.94px" style="font-family:'ArialMT';font-size:150px;fill:#000;stroke-width:4.17px;stroke:#000;">K</text><text x="7035.85px" y="374.94px" style="font-family:'ArialMT';font-size:150px;fill:#000;stroke-width:4.17px;stroke:#000;">P</text><text x="1202.52px" y="374.94px" style="font-family:'ArialMT';font-size:150px;fill:#000;stroke-width:4.17px;stroke:#000;">B</text><text x="3285.85px" y="374.94px" style="font-family:'ArialMT';font-size:150px;fill:#000;stroke-width:4.17px;stroke:#000;">G</text><text x="5369.19px" y="374.94px" style="font-family:'ArialMT';font-size:150px;fill:#000;stroke-width:4.17px;stroke:#000;">L</text><text x="7452.52px" y="374.94px" style="font-family:'ArialMT';font-size:150px;fill:#000;stroke-width:4.17px;stroke:#000;">Q</text><text x="1619.18px" y="374.94px" style="font-family:'ArialMT';font-size:150px;fill:#000;stroke-width:4.17px;stroke:#000;">C</text><text x="3702.52px" y="374.94px" style="font-family:'ArialMT';font-size:150px;fill:#000;stroke-width:4.17px;stroke:#000;">H</text><text x="5785.85px" y="374.94px" style="font-family:'ArialMT';font-size:150px;fill:#000;stroke-width:4.17px;stroke:#000;">M</text><text x="2035.85px" y="374.94px" style="font-family:'ArialMT';font-size:150px;fill:#000;stroke-width:4.17px;stroke:#000;">D</text><text x="4148.37px" y="374.94px" style="font-family:'ArialMT';font-size:150px;fill:#000;stroke-width:4.17px;stroke:#000;">I</text><text x="6202.52px" y="374.94px" style="font-family:'ArialMT';font-size:150px;fill:#000;stroke-width:4.17px;stroke:#000;">N</text><text x="2452.52px" y="374.94px" style="font-family:'ArialMT';font-size:150px;fill:#000;stroke-width:4.17px;stroke:#000;">E</text><text x="4535.85px" y="374.94px" style="font-family:'ArialMT';font-size:150px;fill:#000;stroke-width:4.17px;stroke:#000;">J</text><text x="6619.19px" y="374.94px" style="font-family:'ArialMT';font-size:150px;fill:#000;stroke-width:4.17px;stroke:#000;">O</text></g><g id="top numbers"><text x="1222.35px" y="194.451px" style="font-family:'ArialMT';font-size:83.333px;fill:#000;stroke-width:4.17px;stroke:#000;">1</text><text x="812.638px" y="194.451px" style="font-family:'ArialMT';font-size:83.333px;fill:#000;stroke-width:4.17px;stroke:#000;">0</text><text x="3305.68px" y="194.451px" style="font-family:'ArialMT';font-size:83.333px;fill:#000;stroke-width:4.17px;stroke:#000;">6</text><text x="5369.62px" y="194.451px" style="font-family:'ArialMT';font-size:83.333px;fill:#000;stroke-width:4.17px;stroke:#000;">1<tspan x="5409.78px " y="194.451px ">1</tspan></text><text x="7456.13px" y="194.451px" style="font-family:'ArialMT';font-size:83.333px;fill:#000;stroke-width:4.17px;stroke:#000;">16</text><text x="1639.01px" y="194.451px" style="font-family:'ArialMT';font-size:83.333px;fill:#000;stroke-width:4.17px;stroke:#000;">2</text><text x="3724.62px" y="194.451px" style="font-family:'ArialMT';font-size:83.333px;fill:#000;stroke-width:4.17px;stroke:#000;">7</text><text x="5789.47px" y="194.451px" style="font-family:'ArialMT';font-size:83.333px;fill:#000;stroke-width:4.17px;stroke:#000;">12</text><text x="2055.68px" y="194.451px" style="font-family:'ArialMT';font-size:83.333px;fill:#000;stroke-width:4.17px;stroke:#000;">3</text><text x="4141.29px" y="194.451px" style="font-family:'ArialMT';font-size:83.333px;fill:#000;stroke-width:4.17px;stroke:#000;">8</text><text x="6206.13px" y="194.451px" style="font-family:'ArialMT';font-size:83.333px;fill:#000;stroke-width:4.17px;stroke:#000;">13</text><text x="2472.35px" y="194.451px" style="font-family:'ArialMT';font-size:83.333px;fill:#000;stroke-width:4.17px;stroke:#000;">4</text><text x="4557.96px" y="194.451px" style="font-family:'ArialMT';font-size:83.333px;fill:#000;stroke-width:4.17px;stroke:#000;">9</text><text x="6622.8px" y="194.451px" style="font-family:'ArialMT';font-size:83.333px;fill:#000;stroke-width:4.17px;stroke:#000;">14</text><text x="2889.01px" y="194.451px" style="font-family:'ArialMT';font-size:83.333px;fill:#000;stroke-width:4.17px;stroke:#000;">5</text><text x="4956.13px" y="194.451px" style="font-family:'ArialMT';font-size:83.333px;fill:#000;stroke-width:4.17px;stroke:#000;">10</text><text x="7034.78px" y="194.451px" style="font-family:'ArialMT';font-size:83.333px;fill:#000;stroke-width:4.17px;stroke:#000;">15</text></g><g id="side labels"><rect x="210.811" y="1045.44" width="208.333" height="416.667" style="fill:#808080;stroke-width:4.17px;stroke:#000;"/><rect x="210.811" y="628.777" width="208.333" height="416.667" style="fill:#808080;stroke-width:4.17px;stroke:#000;"/><rect x="210.811" y="2712.11" width="208.333" height="416.667" style="fill:#808080;stroke-width:4.17px;stroke:#000;"/><rect x="210.811" y="1462.11" width="208.333" height="416.667" style="fill:#808080;stroke-width:4.17px;stroke:#000;"/><rect x="210.811" y="3128.78" width="208.333" height="416.667" style="fill:#808080;stroke-width:4.17px;stroke:#000;"/><rect x="210.811" y="1878.78" width="208.333" height="416.667" style="fill:#808080;stroke-width:4.17px;stroke:#000;"/><rect x="210.811" y="2295.44" width="208.333" height="416.667" style="fill:#808080;stroke-width:4.17px;stroke:#000;"/><text x="273.247px" y="1305.32px" style="font-family:'ArialMT';font-size:150px;fill:#000;stroke-width:4.17px;stroke:#000;">1</text><text x="273.247px" y="888.657px" style="font-family:'ArialMT';font-size:150px;fill:#000;stroke-width:4.17px;stroke:#000;">0</text><text x="273.247px" y="2971.99px" style="font-family:'ArialMT';font-size:150px;fill:#000;stroke-width:4.17px;stroke:#000;">5</text><text x="273.247px" y="1721.99px" style="font-family:'ArialMT';font-size:150px;fill:#000;stroke-width:4.17px;stroke:#000;">2</text><text x="273.247px" y="3388.66px" style="font-family:'ArialMT';font-size:150px;fill:#000;stroke-width:4.17px;stroke:#000;">6</text><text x="273.247px" y="2138.66px" style="font-family:'ArialMT';font-size:150px;fill:#000;stroke-width:4.17px;stroke:#000;">3</text><text x="273.247px" y="2555.32px" style="font-family:'ArialMT';font-size:150px;fill:#000;stroke-width:4.17px;stroke:#000;">4</text></g><rect x="2.478" y="3.777" width="416.667" height="416.667" style="fill:none;stroke-width:4.17px;stroke-miterlimit:1;stroke:#000;"/><rect x="210.811" y="212.111" width="416.667" height="416.667" style="fill:#808080;stroke-width:4.17px;stroke:#000;"/><text x="233.923px" y="528.126px" style="font-family:'ArialMT';font-size:266.667px;fill:#000;stroke-width:4.17px;stroke:#000;">1m</text></g></g></svg>