<?xml version="1.0" standalone="no"?><!DOCTYPE svg PUBLIC "-//W3C//DTD SVG 1.1//EN" "http://www.w3.org/Graphics/SVG/1.1/DTD/svg11.dtd"><svg width="100%" height="100%" viewBox="0 0 2301 1301" version="1.1" xmlns="http://www.w3.org/2000/svg" xmlns:xlink="http://www.w3.org/1999/xlink" xml:space="preserve" style="fill-rule:evenodd;clip-rule:evenodd;stroke-linejoin:round;stroke-miterlimit:1.41421;"><clipPath id="_clip1"><rect id="crazy horse" x="0.873" y="0.98" width="2300" height="1300"/></clipPath><g clip-path="url(#_clip1)"><path d="M1800.87,890.98l5.402,14.598l14.598,5.402l-14.598,5.402l-5.402,14.598l-5.402,-14.598l-14.598,-5.402l14.598,-5.402l5.402,-14.598Z" style="fill:none;stroke-width:4.5px;stroke:#000;"/><path d="M200.873,400.98l200,0l0,-180l1100,0l0,180l200,0l0,250" style="fill:none;stroke-width:4.5px;stroke:#000;"/><path d="M600.873,400.98l700,0" style="fill:none;stroke-width:4.5px;stroke:#000;"/><path d="M200.873,580.98l1100,0l0,220l200,0l0,400l300,0c162.034,9.814 284.245,-158.086 280,-270c-3.94,-103.892 -105.117,-286.455 -280,-280l-100,0" style="fill:none;stroke-width:4.5px;stroke:#000;"/><path d="M1700.87,1050.98l0,-250" style="fill:none;stroke-width:4.5px;stroke:#000;"/><path d="M176.081,500.98c372.438,-8.872 1081.5,-33.907 1324.79,-10c205.06,20.15 27.686,486.294 100,580c90.792,117.65 300.392,88.054 380,-60c87.836,-163.355 -131.178,-295.889 -280,-270c-99.717,17.347 -250,25 -300,-30c-50,-55 1.372,-213.008 0,-300c-1.113,-70.624 -80.563,-105.506 -150,-110c-112.925,-7.308 -391.772,9.094 -520,0c-172.253,-12.216 -187.103,64.245 -230,100c-97.364,81.155 -235.647,35.373 -310,44.534" style="fill:none;stroke-width:8px;stroke-dasharray:24,48,0,0;stroke:#14a90c;stroke-opacity:0.698039;"/><path d="M1500.87,680.98l0,-100" style="fill:none;stroke-width:4.5px;stroke:#000;"/><g id="Layer3"><g><path d="M420.873,220.98c0,-11.038 -8.961,-20 -20,-20c-11.038,0 -20,8.962 -20,20c0,11.039 8.962,20 20,20c11.039,0 20,-8.961 20,-20Z" style="fill:#fcd1d1;stroke-width:1px;stroke:#000;"/><path d="M410.873,220.98c0,-5.519 -4.481,-10 -10,-10c-5.519,0 -10,4.481 -10,10c0,5.519 4.481,10 10,10c5.519,0 10,-4.481 10,-10Z" style="fill:#fc2e30;stroke-width:1px;stroke:#000;"/></g><g><path d="M1520.87,220.98c0,-11.038 -8.961,-20 -20,-20c-11.038,0 -20,8.962 -20,20c0,11.039 8.962,20 20,20c11.039,0 20,-8.961 20,-20Z" style="fill:#fcd1d1;stroke-width:1px;stroke:#000;"/><path d="M1510.87,220.98c0,-5.519 -4.481,-10 -10,-10c-5.519,0 -10,4.481 -10,10c0,5.519 4.481,10 10,10c5.519,0 10,-4.481 10,-10Z" style="fill:#fc2e30;stroke-width:1px;stroke:#000;"/></g><g><path d="M1320.87,580.98c0,-11.038 -8.961,-20 -20,-20c-11.038,0 -20,8.962 -20,20c0,11.039 8.962,20 20,20c11.039,0 20,-8.961 20,-20Z" style="fill:#fcd1d1;stroke-width:1px;stroke:#000;"/><path d="M1310.87,580.98c0,-5.519 -4.481,-10 -10,-10c-5.519,0 -10,4.481 -10,10c0,5.519 4.481,10 10,10c5.519,0 10,-4.481 10,-10Z" style="fill:#fc2e30;stroke-width:1px;stroke:#000;"/></g><g><path d="M1120.87,400.98c0,-11.038 -8.961,-20 -20,-20c-11.038,0 -20,8.962 -20,20c0,11.039 8.962,20 20,20c11.039,0 20,-8.961 20,-20Z" style="fill:#fcd1d1;stroke-width:1px;stroke:#000;"/><path d="M1110.87,400.98c0,-5.519 -4.481,-10 -10,-10c-5.519,0 -10,4.481 -10,10c0,5.519 4.481,10 10,10c5.519,0 10,-4.481 10,-10Z" style="fill:#fc2e30;stroke-width:1px;stroke:#000;"/></g><g><path d="M920.873,400.98c0,-11.038 -8.961,-20 -20,-20c-11.038,0 -20,8.962 -20,20c0,11.039 8.962,20 20,20c11.039,0 20,-8.961 20,-20Z" style="fill:#fcd1d1;stroke-width:1px;stroke:#000;"/><path d="M910.873,400.98c0,-5.519 -4.481,-10 -10,-10c-5.519,0 -10,4.481 -10,10c0,5.519 4.481,10 10,10c5.519,0 10,-4.481 10,-10Z" style="fill:#fc2e30;stroke-width:1px;stroke:#000;"/></g><g><path d="M720.873,400.98c0,-11.038 -8.961,-20 -20,-20c-11.038,0 -20,8.962 -20,20c0,11.039 8.962,20 20,20c11.039,0 20,-8.961 20,-20Z" style="fill:#fcd1d1;stroke-width:1px;stroke:#000;"/><path d="M710.873,400.98c0,-5.519 -4.481,-10 -10,-10c-5.519,0 -10,4.481 -10,10c0,5.519 4.481,10 10,10c5.519,0 10,-4.481 10,-10Z" style="fill:#fc2e30;stroke-width:1px;stroke:#000;"/></g><g><path d="M620.873,220.98c0,-11.038 -8.961,-20 -20,-20c-11.038,0 -20,8.962 -20,20c0,11.039 8.962,20 20,20c11.039,0 20,-8.961 20,-20Z" style="fill:#fcd1d1;stroke-width:1px;stroke:#000;"/><path d="M610.873,220.98c0,-5.519 -4.481,-10 -10,-10c-5.519,0 -10,4.481 -10,10c0,5.519 4.481,10 10,10c5.519,0 10,-4.481 10,-10Z" style="fill:#fc2e30;stroke-width:1px;stroke:#000;"/></g><g><path d="M820.873,220.98c0,-11.038 -8.961,-20 -20,-20c-11.038,0 -20,8.962 -20,20c0,11.039 8.962,20 20,20c11.039,0 20,-8.961 20,-20Z" style="fill:#fcd1d1;stroke-width:1px;stroke:#000;"/><path d="M810.873,220.98c0,-5.519 -4.481,-10 -10,-10c-5.519,0 -10,4.481 -10,10c0,5.519 4.481,10 10,10c5.519,0 10,-4.481 10,-10Z" style="fill:#fc2e30;stroke-width:1px;stroke:#000;"/></g><g><path d="M1020.87,220.98c0,-11.038 -8.961,-20 -20,-20c-11.038,0 -20,8.962 -20,20c0,11.039 8.962,20 20,20c11.039,0 20,-8.961 20,-20Z" style="fill:#fcd1d1;stroke-width:1px;stroke:#000;"/><path d="M1010.87,220.98c0,-5.519 -4.481,-10 -10,-10c-5.519,0 -10,4.481 -10,10c0,5.519 4.481,10 10,10c5.519,0 10,-4.481 10,-10Z" style="fill:#fc2e30;stroke-width:1px;stroke:#000;"/></g><g><path d="M1220.87,220.98c0,-11.038 -8.961,-20 -20,-20c-11.038,0 -20,8.962 -20,20c0,11.039 8.962,20 20,20c11.039,0 20,-8.961 20,-20Z" style="fill:#fcd1d1;stroke-width:1px;stroke:#000;"/><path d="M1210.87,220.98c0,-5.519 -4.481,-10 -10,-10c-5.519,0 -10,4.481 -10,10c0,5.519 4.481,10 10,10c5.519,0 10,-4.481 10,-10Z" style="fill:#fc2e30;stroke-width:1px;stroke:#000;"/></g><g><path d="M1420.87,220.98c0,-11.038 -8.961,-20 -20,-20c-11.038,0 -20,8.962 -20,20c0,11.039 8.962,20 20,20c11.039,0 20,-8.961 20,-20Z" style="fill:#fcd1d1;stroke-width:1px;stroke:#000;"/><path d="M1410.87,220.98c0,-5.519 -4.481,-10 -10,-10c-5.519,0 -10,4.481 -10,10c0,5.519 4.481,10 10,10c5.519,0 10,-4.481 10,-10Z" style="fill:#fc2e30;stroke-width:1px;stroke:#000;"/></g><g><path d="M1120.87,580.98c0,-11.038 -8.961,-20 -20,-20c-11.038,0 -20,8.962 -20,20c0,11.039 8.962,20 20,20c11.039,0 20,-8.961 20,-20Z" style="fill:#fcd1d1;stroke-width:1px;stroke:#000;"/><path d="M1110.87,580.98c0,-5.519 -4.481,-10 -10,-10c-5.519,0 -10,4.481 -10,10c0,5.519 4.481,10 10,10c5.519,0 10,-4.481 10,-10Z" style="fill:#fc2e30;stroke-width:1px;stroke:#000;"/></g><g><path d="M920.873,580.98c0,-11.038 -8.961,-20 -20,-20c-11.038,0 -20,8.962 -20,20c0,11.039 8.962,20 20,20c11.039,0 20,-8.961 20,-20Z" style="fill:#fcd1d1;stroke-width:1px;stroke:#000;"/><path d="M910.873,580.98c0,-5.519 -4.481,-10 -10,-10c-5.519,0 -10,4.481 -10,10c0,5.519 4.481,10 10,10c5.519,0 10,-4.481 10,-10Z" style="fill:#fc2e30;stroke-width:1px;stroke:#000;"/></g><g><path d="M720.873,580.98c0,-11.038 -8.961,-20 -20,-20c-11.038,0 -20,8.962 -20,20c0,11.039 8.962,20 20,20c11.039,0 20,-8.961 20,-20Z" style="fill:#fcd1d1;stroke-width:1px;stroke:#000;"/><path d="M710.873,580.98c0,-5.519 -4.481,-10 -10,-10c-5.519,0 -10,4.481 -10,10c0,5.519 4.481,10 10,10c5.519,0 10,-4.481 10,-10Z" style="fill:#fc2e30;stroke-width:1px;stroke:#000;"/></g><g><path d="M420.873,580.98c0,-11.038 -8.961,-20 -20,-20c-11.038,0 -20,8.962 -20,20c0,11.039 8.962,20 20,20c11.039,0 20,-8.961 20,-20Z" style="fill:#fcd1d1;stroke-width:1px;stroke:#000;"/><path d="M410.873,580.98c0,-5.519 -4.481,-10 -10,-10c-5.519,0 -10,4.481 -10,10c0,5.519 4.481,10 10,10c5.519,0 10,-4.481 10,-10Z" style="fill:#fc2e30;stroke-width:1px;stroke:#000;"/></g><g><path d="M520.873,580.98c0,-11.038 -8.961,-20 -20,-20c-11.038,0 -20,8.962 -20,20c0,11.039 8.962,20 20,20c11.039,0 20,-8.961 20,-20Z" style="fill:#fcd1d1;stroke-width:1px;stroke:#000;"/><path d="M510.873,580.98c0,-5.519 -4.481,-10 -10,-10c-5.519,0 -10,4.481 -10,10c0,5.519 4.481,10 10,10c5.519,0 10,-4.481 10,-10Z" style="fill:#fc2e30;stroke-width:1px;stroke:#000;"/></g><g><path d="M220.873,580.98c0,-11.038 -8.961,-20 -20,-20c-11.038,0 -20,8.962 -20,20c0,11.039 8.962,20 20,20c11.039,0 20,-8.961 20,-20Z" style="fill:#fcd1d1;stroke-width:1px;stroke:#000;"/><path d="M210.873,580.98c0,-5.519 -4.481,-10 -10,-10c-5.519,0 -10,4.481 -10,10c0,5.519 4.481,10 10,10c5.519,0 10,-4.481 10,-10Z" style="fill:#fc2e30;stroke-width:1px;stroke:#000;"/></g><g><path d="M220.873,400.98c0,-11.038 -8.961,-20 -20,-20c-11.038,0 -20,8.962 -20,20c0,11.039 8.962,20 20,20c11.039,0 20,-8.961 20,-20Z" style="fill:#fcd1d1;stroke-width:1px;stroke:#000;"/><path d="M210.873,400.98c0,-5.519 -4.481,-10 -10,-10c-5.519,0 -10,4.481 -10,10c0,5.519 4.481,10 10,10c5.519,0 10,-4.481 10,-10Z" style="fill:#fc2e30;stroke-width:1px;stroke:#000;"/></g><g><path d="M420.873,400.98c0,-11.038 -8.961,-20 -20,-20c-11.038,0 -20,8.962 -20,20c0,11.039 8.962,20 20,20c11.039,0 20,-8.961 20,-20Z" style="fill:#fcd1d1;stroke-width:1px;stroke:#000;"/><path d="M410.873,400.98c0,-5.519 -4.481,-10 -10,-10c-5.519,0 -10,4.481 -10,10c0,5.519 4.481,10 10,10c5.519,0 10,-4.481 10,-10Z" style="fill:#fc2e30;stroke-width:1px;stroke:#000;"/></g><g><path d="M620.873,400.98c0,-11.038 -8.961,-20 -20,-20c-11.038,0 -20,8.962 -20,20c0,11.039 8.962,20 20,20c11.039,0 20,-8.961 20,-20Z" style="fill:#fcd1d1;stroke-width:1px;stroke:#000;"/><path d="M610.873,400.98c0,-5.519 -4.481,-10 -10,-10c-5.519,0 -10,4.481 -10,10c0,5.519 4.481,10 10,10c5.519,0 10,-4.481 10,-10Z" style="fill:#fc2e30;stroke-width:1px;stroke:#000;"/></g><g><path d="M1320.87,400.98c0,-11.038 -8.961,-20 -20,-20c-11.038,0 -20,8.962 -20,20c0,11.039 8.962,20 20,20c11.039,0 20,-8.961 20,-20Z" style="fill:#fcd1d1;stroke-width:1px;stroke:#000;"/><path d="M1310.87,400.98c0,-5.519 -4.481,-10 -10,-10c-5.519,0 -10,4.481 -10,10c0,5.519 4.481,10 10,10c5.519,0 10,-4.481 10,-10Z" style="fill:#fc2e30;stroke-width:1px;stroke:#000;"/></g><g><path d="M1520.87,580.98c0,-11.038 -8.961,-20 -20,-20c-11.038,0 -20,8.962 -20,20c0,11.039 8.962,20 20,20c11.039,0 20,-8.961 20,-20Z" style="fill:#fcd1d1;stroke-width:1px;stroke:#000;"/><path d="M1510.87,580.98c0,-5.519 -4.481,-10 -10,-10c-5.519,0 -10,4.481 -10,10c0,5.519 4.481,10 10,10c5.519,0 10,-4.481 10,-10Z" style="fill:#fc2e30;stroke-width:1px;stroke:#000;"/></g><g><path d="M1520.87,680.98c0,-11.038 -8.961,-20 -20,-20c-11.038,0 -20,8.962 -20,20c0,11.039 8.962,20 20,20c11.039,0 20,-8.961 20,-20Z" style="fill:#fcd1d1;stroke-width:1px;stroke:#000;"/><path d="M1510.87,680.98c0,-5.519 -4.481,-10 -10,-10c-5.519,0 -10,4.481 -10,10c0,5.519 4.481,10 10,10c5.519,0 10,-4.481 10,-10Z" style="fill:#fc2e30;stroke-width:1px;stroke:#000;"/></g><g><path d="M1320.87,800.98c0,-11.038 -8.961,-20 -20,-20c-11.038,0 -20,8.962 -20,20c0,11.039 8.962,20 20,20c11.039,0 20,-8.961 20,-20Z" style="fill:#fcd1d1;stroke-width:1px;stroke:#000;"/><path d="M1310.87,800.98c0,-5.519 -4.481,-10 -10,-10c-5.519,0 -10,4.481 -10,10c0,5.519 4.481,10 10,10c5.519,0 10,-4.481 10,-10Z" style="fill:#fc2e30;stroke-width:1px;stroke:#000;"/></g><g><path d="M1320.87,700.98c0,-11.038 -8.961,-20 -20,-20c-11.038,0 -20,8.962 -20,20c0,11.039 8.962,20 20,20c11.039,0 20,-8.961 20,-20Z" style="fill:#fcd1d1;stroke-width:1px;stroke:#000;"/><path d="M1310.87,700.98c0,-5.519 -4.481,-10 -10,-10c-5.519,0 -10,4.481 -10,10c0,5.519 4.481,10 10,10c5.519,0 10,-4.481 10,-10Z" style="fill:#fc2e30;stroke-width:1px;stroke:#000;"/></g><g><path d="M1520.87,800.98c0,-11.038 -8.961,-20 -20,-20c-11.038,0 -20,8.962 -20,20c0,11.039 8.962,20 20,20c11.039,0 20,-8.961 20,-20Z" style="fill:#fcd1d1;stroke-width:1px;stroke:#000;"/><path d="M1510.87,800.98c0,-5.519 -4.481,-10 -10,-10c-5.519,0 -10,4.481 -10,10c0,5.519 4.481,10 10,10c5.519,0 10,-4.481 10,-10Z" style="fill:#fc2e30;stroke-width:1px;stroke:#000;"/></g><g><path d="M1720.87,800.98c0,-11.038 -8.961,-20 -20,-20c-11.038,0 -20,8.962 -20,20c0,11.039 8.962,20 20,20c11.039,0 20,-8.961 20,-20Z" style="fill:#fcd1d1;stroke-width:1px;stroke:#000;"/><path d="M1710.87,800.98c0,-5.519 -4.481,-10 -10,-10c-5.519,0 -10,4.481 -10,10c0,5.519 4.481,10 10,10c5.519,0 10,-4.481 10,-10Z" style="fill:#fc2e30;stroke-width:1px;stroke:#000;"/></g><g><path d="M1720.87,1050.98c0,-11.038 -8.961,-20 -20,-20c-11.038,0 -20,8.962 -20,20c0,11.039 8.962,20 20,20c11.039,0 20,-8.961 20,-20Z" style="fill:#fcd1d1;stroke-width:1px;stroke:#000;"/><path d="M1710.87,1050.98c0,-5.519 -4.481,-10 -10,-10c-5.519,0 -10,4.481 -10,10c0,5.519 4.481,10 10,10c5.519,0 10,-4.481 10,-10Z" style="fill:#fc2e30;stroke-width:1px;stroke:#000;"/></g><g><path d="M1720.87,920.98c0,-11.038 -8.961,-20 -20,-20c-11.038,0 -20,8.962 -20,20c0,11.039 8.962,20 20,20c11.039,0 20,-8.961 20,-20Z" style="fill:#fcd1d1;stroke-width:1px;stroke:#000;"/><path d="M1710.87,920.98c0,-5.519 -4.481,-10 -10,-10c-5.519,0 -10,4.481 -10,10c0,5.519 4.481,10 10,10c5.519,0 10,-4.481 10,-10Z" style="fill:#fc2e30;stroke-width:1px;stroke:#000;"/></g><g><path d="M1520.87,1000.98c0,-11.038 -8.961,-20 -20,-20c-11.038,0 -20,8.962 -20,20c0,11.039 8.962,20 20,20c11.039,0 20,-8.961 20,-20Z" style="fill:#fcd1d1;stroke-width:1px;stroke:#000;"/><path d="M1510.87,1000.98c0,-5.519 -4.481,-10 -10,-10c-5.519,0 -10,4.481 -10,10c0,5.519 4.481,10 10,10c5.519,0 10,-4.481 10,-10Z" style="fill:#fc2e30;stroke-width:1px;stroke:#000;"/></g><g><path d="M1520.87,1200.98c0,-11.038 -8.961,-20 -20,-20c-11.038,0 -20,8.962 -20,20c0,11.039 8.962,20 20,20c11.039,0 20,-8.961 20,-20Z" style="fill:#fcd1d1;stroke-width:1px;stroke:#000;"/><path d="M1510.87,1200.98c0,-5.519 -4.481,-10 -10,-10c-5.519,0 -10,4.481 -10,10c0,5.519 4.481,10 10,10c5.519,0 10,-4.481 10,-10Z" style="fill:#fc2e30;stroke-width:1px;stroke:#000;"/></g><g><path d="M1820.87,1200.98c0,-11.038 -8.961,-20 -20,-20c-11.038,0 -20,8.962 -20,20c0,11.039 8.962,20 20,20c11.039,0 20,-8.961 20,-20Z" style="fill:#fcd1d1;stroke-width:1px;stroke:#000;"/><path d="M1810.87,1200.98c0,-5.519 -4.481,-10 -10,-10c-5.519,0 -10,4.481 -10,10c0,5.519 4.481,10 10,10c5.519,0 10,-4.481 10,-10Z" style="fill:#fc2e30;stroke-width:1px;stroke:#000;"/></g><g><path d="M1620.87,1200.98c0,-11.038 -8.961,-20 -20,-20c-11.038,0 -20,8.962 -20,20c0,11.039 8.962,20 20,20c11.039,0 20,-8.961 20,-20Z" style="fill:#fcd1d1;stroke-width:1px;stroke:#000;"/><path d="M1610.87,1200.98c0,-5.519 -4.481,-10 -10,-10c-5.519,0 -10,4.481 -10,10c0,5.519 4.481,10 10,10c5.519,0 10,-4.481 10,-10Z" style="fill:#fc2e30;stroke-width:1px;stroke:#000;"/></g><g><path d="M1720.87,1200.98c0,-11.038 -8.961,-20 -20,-20c-11.038,0 -20,8.962 -20,20c0,11.039 8.962,20 20,20c11.039,0 20,-8.961 20,-20Z" style="fill:#fcd1d1;stroke-width:1px;stroke:#000;"/><path d="M1710.87,1200.98c0,-5.519 -4.481,-10 -10,-10c-5.519,0 -10,4.481 -10,10c0,5.519 4.481,10 10,10c5.519,0 10,-4.481 10,-10Z" style="fill:#fc2e30;stroke-width:1px;stroke:#000;"/></g><g><path d="M2100.87,950.98c0,-11.038 -8.961,-20 -20,-20c-11.038,0 -20,8.962 -20,20c0,11.039 8.962,20 20,20c11.039,0 20,-8.961 20,-20Z" style="fill:#fcd1d1;stroke-width:1px;stroke:#000;"/><path d="M2090.87,950.98c0,-5.519 -4.481,-10 -10,-10c-5.519,0 -10,4.481 -10,10c0,5.519 4.481,10 10,10c5.519,0 10,-4.481 10,-10Z" style="fill:#fc2e30;stroke-width:1px;stroke:#000;"/></g><g><path d="M2020.87,1100.98c0,-11.038 -8.961,-20 -20,-20c-11.038,0 -20,8.962 -20,20c0,11.039 8.962,20 20,20c11.039,0 20,-8.961 20,-20Z" style="fill:#fcd1d1;stroke-width:1px;stroke:#000;"/><path d="M2010.87,1100.98c0,-5.519 -4.481,-10 -10,-10c-5.519,0 -10,4.481 -10,10c0,5.519 4.481,10 10,10c5.519,0 10,-4.481 10,-10Z" style="fill:#fc2e30;stroke-width:1px;stroke:#000;"/></g><g><path d="M1940.87,1180.98c0,-11.038 -8.961,-20 -20,-20c-11.038,0 -20,8.962 -20,20c0,11.039 8.962,20 20,20c11.039,0 20,-8.961 20,-20Z" style="fill:#fcd1d1;stroke-width:1px;stroke:#000;"/><path d="M1930.87,1180.98c0,-5.519 -4.481,-10 -10,-10c-5.519,0 -10,4.481 -10,10c0,5.519 4.481,10 10,10c5.519,0 10,-4.481 10,-10Z" style="fill:#fc2e30;stroke-width:1px;stroke:#000;"/></g><g><path d="M2040.87,780.98c0,-11.038 -8.961,-20 -20,-20c-11.038,0 -20,8.962 -20,20c0,11.039 8.962,20 20,20c11.039,0 20,-8.961 20,-20Z" style="fill:#fcd1d1;stroke-width:1px;stroke:#000;"/><path d="M2030.87,780.98c0,-5.519 -4.481,-10 -10,-10c-5.519,0 -10,4.481 -10,10c0,5.519 4.481,10 10,10c5.519,0 10,-4.481 10,-10Z" style="fill:#fc2e30;stroke-width:1px;stroke:#000;"/></g><g><path d="M1940.87,680.98c0,-11.038 -8.961,-20 -20,-20c-11.038,0 -20,8.962 -20,20c0,11.039 8.962,20 20,20c11.039,0 20,-8.961 20,-20Z" style="fill:#fcd1d1;stroke-width:1px;stroke:#000;"/><path d="M1930.87,680.98c0,-5.519 -4.481,-10 -10,-10c-5.519,0 -10,4.481 -10,10c0,5.519 4.481,10 10,10c5.519,0 10,-4.481 10,-10Z" style="fill:#fc2e30;stroke-width:1px;stroke:#000;"/></g><g><path d="M1720.87,650.98c0,-11.038 -8.961,-20 -20,-20c-11.038,0 -20,8.962 -20,20c0,11.039 8.962,20 20,20c11.039,0 20,-8.961 20,-20Z" style="fill:#fcd1d1;stroke-width:1px;stroke:#000;"/><path d="M1710.87,650.98c0,-5.519 -4.481,-10 -10,-10c-5.519,0 -10,4.481 -10,10c0,5.519 4.481,10 10,10c5.519,0 10,-4.481 10,-10Z" style="fill:#fc2e30;stroke-width:1px;stroke:#000;"/></g><g><path d="M1720.87,400.98c0,-11.038 -8.961,-20 -20,-20c-11.038,0 -20,8.962 -20,20c0,11.039 8.962,20 20,20c11.039,0 20,-8.961 20,-20Z" style="fill:#fcd1d1;stroke-width:1px;stroke:#000;"/><path d="M1710.87,400.98c0,-5.519 -4.481,-10 -10,-10c-5.519,0 -10,4.481 -10,10c0,5.519 4.481,10 10,10c5.519,0 10,-4.481 10,-10Z" style="fill:#fc2e30;stroke-width:1px;stroke:#000;"/></g><g><path d="M1520.87,400.98c0,-11.038 -8.961,-20 -20,-20c-11.038,0 -20,8.962 -20,20c0,11.039 8.962,20 20,20c11.039,0 20,-8.961 20,-20Z" style="fill:#fcd1d1;stroke-width:1px;stroke:#000;"/><path d="M1510.87,400.98c0,-5.519 -4.481,-10 -10,-10c-5.519,0 -10,4.481 -10,10c0,5.519 4.481,10 10,10c5.519,0 10,-4.481 10,-10Z" style="fill:#fc2e30;stroke-width:1px;stroke:#000;"/></g><g><path d="M1720.87,500.98c0,-11.038 -8.961,-20 -20,-20c-11.038,0 -20,8.962 -20,20c0,11.039 8.962,20 20,20c11.039,0 20,-8.961 20,-20Z" style="fill:#fcd1d1;stroke-width:1px;stroke:#000;"/><path d="M1710.87,500.98c0,-5.519 -4.481,-10 -10,-10c-5.519,0 -10,4.481 -10,10c0,5.519 4.481,10 10,10c5.519,0 10,-4.481 10,-10Z" style="fill:#fc2e30;stroke-width:1px;stroke:#000;"/></g><g><path d="M1820.87,650.98c0,-11.038 -8.961,-20 -20,-20c-11.038,0 -20,8.962 -20,20c0,11.039 8.962,20 20,20c11.039,0 20,-8.961 20,-20Z" style="fill:#fcd1d1;stroke-width:1px;stroke:#000;"/><path d="M1810.87,650.98c0,-5.519 -4.481,-10 -10,-10c-5.519,0 -10,4.481 -10,10c0,5.519 4.481,10 10,10c5.519,0 10,-4.481 10,-10Z" style="fill:#fc2e30;stroke-width:1px;stroke:#000;"/></g></g><g><path d="M163.125,550.98l-4.5,0l0,-100l4.5,0l0,100Z" style="fill:#000;"/><path d="M160.875,503.23l-50,0l0,-4.5l50,0l0,4.5Z" style="fill:#000;"/></g><g id="grid"><g id="bold lines"><path d="M700.873,100.98l0,2800" style="fill:none;stroke-width:1px;stroke-miterlimit:1;stroke:#000;stroke-opacity:0.298039;"/><path d="M100.873,700.98l2600,0" style="fill:none;stroke-width:1px;stroke-miterlimit:1;stroke:#000;stroke-opacity:0.298039;"/><path d="M1200.87,100.98l0,2800" style="fill:none;stroke-width:1px;stroke-miterlimit:1;stroke:#000;stroke-opacity:0.298039;"/><path d="M1700.87,100.98l0,2800" style="fill:none;stroke-width:1px;stroke-miterlimit:1;stroke:#000;stroke-opacity:0.298039;"/><path d="M2200.87,100.98l0,2800" style="fill:none;stroke-width:1px;stroke-miterlimit:1;stroke:#000;stroke-opacity:0.298039;"/><path d="M100.873,1200.98l2600,0" style="fill:none;stroke-width:1px;stroke-miterlimit:1;stroke:#000;stroke-opacity:0.298039;"/><path d="M100.873,200.98l2600,0" style="fill:none;stroke-width:1px;stroke-miterlimit:1;stroke:#000;stroke-opacity:0.298039;"/><path d="M200.873,2900.98l0,-2800" style="fill:none;stroke-width:1px;stroke-miterlimit:1;stroke:#000;stroke-opacity:0.298039;"/></g><g id="vertical lines"><path d="M100.873,100.98l0,2800" style="fill:none;stroke-width:1px;stroke-linejoin:miter;stroke-miterlimit:1;stroke-dasharray:10,44,2,44;stroke-dashoffset:5;stroke:#000;"/><path d="M700.873,100.98l0,2800" style="fill:none;stroke-width:1px;stroke-linejoin:miter;stroke-miterlimit:1;stroke-dasharray:10,44,2,44;stroke-dashoffset:5;stroke:#000;"/><path d="M1300.87,100.98l0,2800" style="fill:none;stroke-width:1px;stroke-linejoin:miter;stroke-miterlimit:1;stroke-dasharray:10,44,2,44;stroke-dashoffset:5;stroke:#000;"/><path d="M1900.87,100.98l0,2800" style="fill:none;stroke-width:1px;stroke-linejoin:miter;stroke-miterlimit:1;stroke-dasharray:10,44,2,44;stroke-dashoffset:5;stroke:#000;"/><path d="M300.873,100.98l0,2800" style="fill:none;stroke-width:1px;stroke-linejoin:miter;stroke-miterlimit:1;stroke-dasharray:10,44,2,44;stroke-dashoffset:5;stroke:#000;"/><path d="M900.873,100.98l0,2800" style="fill:none;stroke-width:1px;stroke-linejoin:miter;stroke-miterlimit:1;stroke-dasharray:10,44,2,44;stroke-dashoffset:5;stroke:#000;"/><path d="M1500.87,100.98l0,2800" style="fill:none;stroke-width:1px;stroke-linejoin:miter;stroke-miterlimit:1;stroke-dasharray:10,44,2,44;stroke-dashoffset:5;stroke:#000;"/><path d="M2100.87,100.98l0,2800" style="fill:none;stroke-width:1px;stroke-linejoin:miter;stroke-miterlimit:1;stroke-dasharray:10,44,2,44;stroke-dashoffset:5;stroke:#000;"/><path d="M500.873,100.98l0,2800" style="fill:none;stroke-width:1px;stroke-linejoin:miter;stroke-miterlimit:1;stroke-dasharray:10,44,2,44;stroke-dashoffset:5;stroke:#000;"/><path d="M1100.87,100.98l0,2800" style="fill:none;stroke-width:1px;stroke-linejoin:miter;stroke-miterlimit:1;stroke-dasharray:10,44,2,44;stroke-dashoffset:5;stroke:#000;"/><path d="M1700.87,100.98l0,2800" style="fill:none;stroke-width:1px;stroke-linejoin:miter;stroke-miterlimit:1;stroke-dasharray:10,44,2,44;stroke-dashoffset:5;stroke:#000;"/><path d="M2300.87,100.98l0,2800" style="fill:none;stroke-width:1px;stroke-linejoin:miter;stroke-miterlimit:1;stroke-dasharray:10,44,2,44;stroke-dashoffset:5;stroke:#000;"/><path d="M200.873,100.98l0,2800" style="fill:none;stroke-width:1px;stroke-linejoin:miter;stroke-miterlimit:1;stroke-dasharray:10,44,2,44;stroke-dashoffset:5;stroke:#000;"/><path d="M800.873,100.98l0,2800" style="fill:none;stroke-width:1px;stroke-linejoin:miter;stroke-miterlimit:1;stroke-dasharray:10,44,2,44;stroke-dashoffset:5;stroke:#000;"/><path d="M1400.87,100.98l0,2800" style="fill:none;stroke-width:1px;stroke-linejoin:miter;stroke-miterlimit:1;stroke-dasharray:10,44,2,44;stroke-dashoffset:5;stroke:#000;"/><path d="M2000.87,100.98l0,2800" style="fill:none;stroke-width:1px;stroke-linejoin:miter;stroke-miterlimit:1;stroke-dasharray:10,44,2,44;stroke-dashoffset:5;stroke:#000;"/><path d="M400.873,100.98l0,2800" style="fill:none;stroke-width:1px;stroke-linejoin:miter;stroke-miterlimit:1;stroke-dasharray:10,44,2,44;stroke-dashoffset:5;stroke:#000;"/><path d="M1000.87,100.98l0,2800" style="fill:none;stroke-width:1px;stroke-linejoin:miter;stroke-miterlimit:1;stroke-dasharray:10,44,2,44;stroke-dashoffset:5;stroke:#000;"/><path d="M1600.87,100.98l0,2800" style="fill:none;stroke-width:1px;stroke-linejoin:miter;stroke-miterlimit:1;stroke-dasharray:10,44,2,44;stroke-dashoffset:5;stroke:#000;"/><path d="M2200.87,100.98l0,2800" style="fill:none;stroke-width:1px;stroke-linejoin:miter;stroke-miterlimit:1;stroke-dasharray:10,44,2,44;stroke-dashoffset:5;stroke:#000;"/><path d="M600.873,100.98l0,2800" style="fill:none;stroke-width:1px;stroke-linejoin:miter;stroke-miterlimit:1;stroke-dasharray:10,44,2,44;stroke-dashoffset:5;stroke:#000;"/><path d="M1200.87,100.98l0,2800" style="fill:none;stroke-width:1px;stroke-linejoin:miter;stroke-miterlimit:1;stroke-dasharray:10,44,2,44;stroke-dashoffset:5;stroke:#000;"/><path d="M1800.87,100.98l0,2800" style="fill:none;stroke-width:1px;stroke-linejoin:miter;stroke-miterlimit:1;stroke-dasharray:10,44,2,44;stroke-dashoffset:5;stroke:#000;"/></g><g id="horizontal lines"><path d="M100.873,100.98l2600,0" style="fill:none;stroke-width:1px;stroke-dasharray:10,44,2,44;stroke-dashoffset:5;stroke:#000;"/><path d="M100.873,500.98l2600,0" style="fill:none;stroke-width:1px;stroke-dasharray:10,44,2,44;stroke-dashoffset:5;stroke:#000;"/><path d="M100.873,900.98l2600,0" style="fill:none;stroke-width:1px;stroke-dasharray:10,44,2,44;stroke-dashoffset:5;stroke:#000;"/><path d="M100.873,1300.98l2600,0" style="fill:none;stroke-width:1px;stroke-dasharray:10,44,2,44;stroke-dashoffset:5;stroke:#000;"/><path d="M2700.87,200.98l-2600,0" style="fill:none;stroke-width:1px;stroke-dasharray:10,44,2,44;stroke-dashoffset:5;stroke:#000;"/><path d="M2700.87,600.98l-2600,0" style="fill:none;stroke-width:1px;stroke-dasharray:10,44,2,44;stroke-dashoffset:5;stroke:#000;"/><path d="M2700.87,1000.98l-2600,0" style="fill:none;stroke-width:1px;stroke-dasharray:10,44,2,44;stroke-dashoffset:5;stroke:#000;"/><path d="M100.873,300.98l2600,0" style="fill:none;stroke-width:1px;stroke-dasharray:10,44,2,44;stroke-dashoffset:5;stroke:#000;"/><path d="M100.873,700.98l2600,0" style="fill:none;stroke-width:1px;stroke-dasharray:10,44,2,44;stroke-dashoffset:5;stroke:#000;"/><path d="M100.873,1100.98l2600,0" style="fill:none;stroke-width:1px;stroke-dasharray:10,44,2,44;stroke-dashoffset:5;stroke:#000;"/><path d="M100.873,400.98l2600,0" style="fill:none;stroke-width:1px;stroke-dasharray:10,44,2,44;stroke-dashoffset:5;stroke:#000;"/><path d="M100.873,800.98l2600,0" style="fill:none;stroke-width:1px;stroke-dasharray:10,44,2,44;stroke-dashoffset:5;stroke:#000;"/><path d="M100.873,1200.98l2600,0" style="fill:none;stroke-width:1px;stroke-dasharray:10,44,2,44;stroke-dashoffset:5;stroke:#000;"/></g><g id="top labels"><rect x="150.873" y="50.98" width="100" height="50" style="fill:#808080;stroke-width:1px;stroke:#000;"/><rect x="650.873" y="50.98" width="100" height="50" style="fill:#808080;stroke-width:1px;stroke:#000;"/><rect x="1150.87" y="50.98" width="100" height="50" style="fill:#808080;stroke-width:1px;stroke:#000;"/><rect x="1650.87" y="50.98" width="100" height="50" style="fill:#808080;stroke-width:1px;stroke:#000;"/><rect x="2150.87" y="50.98" width="100" height="50" style="fill:#808080;stroke-width:1px;stroke:#000;"/><rect x="250.873" y="50.98" width="100" height="50" style="fill:#808080;stroke-width:1px;stroke:#000;"/><rect x="750.873" y="50.98" width="100" height="50" style="fill:#808080;stroke-width:1px;stroke:#000;"/><rect x="1250.87" y="50.98" width="100" height="50" style="fill:#808080;stroke-width:1px;stroke:#000;"/><rect x="1750.87" y="50.98" width="100" height="50" style="fill:#808080;stroke-width:1px;stroke:#000;"/><rect x="2250.87" y="50.98" width="100" height="50" style="fill:#808080;stroke-width:1px;stroke:#000;"/><rect x="350.873" y="50.98" width="100" height="50" style="fill:#808080;stroke-width:1px;stroke:#000;"/><rect x="850.873" y="50.98" width="100" height="50" style="fill:#808080;stroke-width:1px;stroke:#000;"/><rect x="1350.87" y="50.98" width="100" height="50" style="fill:#808080;stroke-width:1px;stroke:#000;"/><rect x="1850.87" y="50.98" width="100" height="50" style="fill:#808080;stroke-width:1px;stroke:#000;"/><rect x="450.873" y="50.98" width="100" height="50" style="fill:#808080;stroke-width:1px;stroke:#000;"/><rect x="950.873" y="50.98" width="100" height="50" style="fill:#808080;stroke-width:1px;stroke:#000;"/><rect x="1450.87" y="50.98" width="100" height="50" style="fill:#808080;stroke-width:1px;stroke:#000;"/><rect x="1950.87" y="50.98" width="100" height="50" style="fill:#808080;stroke-width:1px;stroke:#000;"/><rect x="550.873" y="50.98" width="100" height="50" style="fill:#808080;stroke-width:1px;stroke:#000;"/><rect x="1050.87" y="50.98" width="100" height="50" style="fill:#808080;stroke-width:1px;stroke:#000;"/><rect x="1550.87" y="50.98" width="100" height="50" style="fill:#808080;stroke-width:1px;stroke:#000;"/><rect x="2050.87" y="50.98" width="100" height="50" style="fill:#808080;stroke-width:1px;stroke:#000;"/><text x="188.883px" y="90.059px" style="font-family:'ArialMT';font-size:36px;fill:#000;stroke-width:1px;stroke:#000;">A</text><text x="688.883px" y="90.059px" style="font-family:'ArialMT';font-size:36px;fill:#000;stroke-width:1px;stroke:#000;">F</text><text x="1188.88px" y="90.059px" style="font-family:'ArialMT';font-size:36px;fill:#000;stroke-width:1px;stroke:#000;">K</text><text x="1688.88px" y="90.059px" style="font-family:'ArialMT';font-size:36px;fill:#000;stroke-width:1px;stroke:#000;">P</text><text x="2188.88px" y="90.059px" style="font-family:'ArialMT';font-size:36px;fill:#000;stroke-width:1px;stroke:#000;">U</text><text x="288.883px" y="90.059px" style="font-family:'ArialMT';font-size:36px;fill:#000;stroke-width:1px;stroke:#000;">B</text><text x="788.883px" y="90.059px" style="font-family:'ArialMT';font-size:36px;fill:#000;stroke-width:1px;stroke:#000;">G</text><text x="1288.88px" y="90.059px" style="font-family:'ArialMT';font-size:36px;fill:#000;stroke-width:1px;stroke:#000;">L</text><text x="1788.88px" y="90.059px" style="font-family:'ArialMT';font-size:36px;fill:#000;stroke-width:1px;stroke:#000;">Q</text><text x="2288.88px" y="90.059px" style="font-family:'ArialMT';font-size:36px;fill:#000;stroke-width:1px;stroke:#000;">V</text><text x="388.883px" y="90.059px" style="font-family:'ArialMT';font-size:36px;fill:#000;stroke-width:1px;stroke:#000;">C</text><text x="888.883px" y="90.059px" style="font-family:'ArialMT';font-size:36px;fill:#000;stroke-width:1px;stroke:#000;">H</text><text x="1388.88px" y="90.059px" style="font-family:'ArialMT';font-size:36px;fill:#000;stroke-width:1px;stroke:#000;">M</text><text x="1888.88px" y="90.059px" style="font-family:'ArialMT';font-size:36px;fill:#000;stroke-width:1px;stroke:#000;">R</text><text x="488.883px" y="90.059px" style="font-family:'ArialMT';font-size:36px;fill:#000;stroke-width:1px;stroke:#000;">D</text><text x="995.888px" y="90.059px" style="font-family:'ArialMT';font-size:36px;fill:#000;stroke-width:1px;stroke:#000;">I</text><text x="1488.88px" y="90.059px" style="font-family:'ArialMT';font-size:36px;fill:#000;stroke-width:1px;stroke:#000;">N</text><text x="1988.88px" y="90.059px" style="font-family:'ArialMT';font-size:36px;fill:#000;stroke-width:1px;stroke:#000;">S</text><text x="588.883px" y="90.059px" style="font-family:'ArialMT';font-size:36px;fill:#000;stroke-width:1px;stroke:#000;">E</text><text x="1088.88px" y="90.059px" style="font-family:'ArialMT';font-size:36px;fill:#000;stroke-width:1px;stroke:#000;">J</text><text x="1588.88px" y="90.059px" style="font-family:'ArialMT';font-size:36px;fill:#000;stroke-width:1px;stroke:#000;">O</text><text x="2088.88px" y="90.059px" style="font-family:'ArialMT';font-size:36px;fill:#000;stroke-width:1px;stroke:#000;">T</text></g><g id="top numbers"><text x="293.642px" y="46.742px" style="font-family:'ArialMT';font-size:20px;fill:#000;stroke-width:1px;stroke:#000;">1</text><text x="195.312px" y="46.742px" style="font-family:'ArialMT';font-size:20px;fill:#000;stroke-width:1px;stroke:#000;">0</text><text x="793.642px" y="46.742px" style="font-family:'ArialMT';font-size:20px;fill:#000;stroke-width:1px;stroke:#000;">6</text><text x="1288.99px" y="46.742px" style="font-family:'ArialMT';font-size:20px;fill:#000;stroke-width:1px;stroke:#000;">1<tspan x="1298.63px " y="46.742px ">1</tspan></text><text x="1789.75px" y="46.742px" style="font-family:'ArialMT';font-size:20px;fill:#000;stroke-width:1px;stroke:#000;">16</text><text x="2289.75px" y="46.742px" style="font-family:'ArialMT';font-size:20px;fill:#000;stroke-width:1px;stroke:#000;">21</text><text x="393.642px" y="46.742px" style="font-family:'ArialMT';font-size:20px;fill:#000;stroke-width:1px;stroke:#000;">2</text><text x="894.189px" y="46.742px" style="font-family:'ArialMT';font-size:20px;fill:#000;stroke-width:1px;stroke:#000;">7</text><text x="1389.75px" y="46.742px" style="font-family:'ArialMT';font-size:20px;fill:#000;stroke-width:1px;stroke:#000;">12</text><text x="1888.63px" y="46.742px" style="font-family:'ArialMT';font-size:20px;fill:#000;stroke-width:1px;stroke:#000;">17</text><text x="493.642px" y="46.742px" style="font-family:'ArialMT';font-size:20px;fill:#000;stroke-width:1px;stroke:#000;">3</text><text x="994.189px" y="46.742px" style="font-family:'ArialMT';font-size:20px;fill:#000;stroke-width:1px;stroke:#000;">8</text><text x="1489.75px" y="46.742px" style="font-family:'ArialMT';font-size:20px;fill:#000;stroke-width:1px;stroke:#000;">13</text><text x="1988.63px" y="46.742px" style="font-family:'ArialMT';font-size:20px;fill:#000;stroke-width:1px;stroke:#000;">18</text><text x="593.642px" y="46.742px" style="font-family:'ArialMT';font-size:20px;fill:#000;stroke-width:1px;stroke:#000;">4</text><text x="1094.19px" y="46.742px" style="font-family:'ArialMT';font-size:20px;fill:#000;stroke-width:1px;stroke:#000;">9</text><text x="1589.75px" y="46.742px" style="font-family:'ArialMT';font-size:20px;fill:#000;stroke-width:1px;stroke:#000;">14</text><text x="2088.63px" y="46.742px" style="font-family:'ArialMT';font-size:20px;fill:#000;stroke-width:1px;stroke:#000;">19</text><text x="693.642px" y="46.742px" style="font-family:'ArialMT';font-size:20px;fill:#000;stroke-width:1px;stroke:#000;">5</text><text x="1189.75px" y="46.742px" style="font-family:'ArialMT';font-size:20px;fill:#000;stroke-width:1px;stroke:#000;">10</text><text x="1688.63px" y="46.742px" style="font-family:'ArialMT';font-size:20px;fill:#000;stroke-width:1px;stroke:#000;">15</text><text x="2188.63px" y="46.742px" style="font-family:'ArialMT';font-size:20px;fill:#000;stroke-width:1px;stroke:#000;">20</text></g><g id="side labels"><rect x="50.873" y="250.98" width="50" height="100" style="fill:#808080;stroke-width:1px;stroke:#000;"/><rect x="50.873" y="150.98" width="50" height="100" style="fill:#808080;stroke-width:1px;stroke:#000;"/><rect x="50.873" y="650.98" width="50" height="100" style="fill:#808080;stroke-width:1px;stroke:#000;"/><rect x="50.873" y="1050.98" width="50" height="100" style="fill:#808080;stroke-width:1px;stroke:#000;"/><rect x="50.873" y="350.98" width="50" height="100" style="fill:#808080;stroke-width:1px;stroke:#000;"/><rect x="50.873" y="750.98" width="50" height="100" style="fill:#808080;stroke-width:1px;stroke:#000;"/><rect x="50.873" y="1150.98" width="50" height="100" style="fill:#808080;stroke-width:1px;stroke:#000;"/><rect x="50.873" y="450.98" width="50" height="100" style="fill:#808080;stroke-width:1px;stroke:#000;"/><rect x="50.873" y="850.98" width="50" height="100" style="fill:#808080;stroke-width:1px;stroke:#000;"/><rect x="50.873" y="1250.98" width="50" height="100" style="fill:#808080;stroke-width:1px;stroke:#000;"/><rect x="50.873" y="550.98" width="50" height="100" style="fill:#808080;stroke-width:1px;stroke:#000;"/><rect x="50.873" y="950.98" width="50" height="100" style="fill:#808080;stroke-width:1px;stroke:#000;"/><text x="65.858px" y="313.351px" style="font-family:'ArialMT';font-size:36px;fill:#000;stroke-width:1px;stroke:#000;">1</text><text x="65.858px" y="213.351px" style="font-family:'ArialMT';font-size:36px;fill:#000;stroke-width:1px;stroke:#000;">0</text><text x="65.858px" y="713.351px" style="font-family:'ArialMT';font-size:36px;fill:#000;stroke-width:1px;stroke:#000;">5</text><text x="65.858px" y="1113.35px" style="font-family:'ArialMT';font-size:36px;fill:#000;stroke-width:1px;stroke:#000;">9</text><text x="65.858px" y="413.351px" style="font-family:'ArialMT';font-size:36px;fill:#000;stroke-width:1px;stroke:#000;">2</text><text x="65.858px" y="813.351px" style="font-family:'ArialMT';font-size:36px;fill:#000;stroke-width:1px;stroke:#000;">6</text><text x="55.847px" y="1213.35px" style="font-family:'ArialMT';font-size:36px;fill:#000;stroke-width:1px;stroke:#000;">10</text><text x="65.858px" y="513.351px" style="font-family:'ArialMT';font-size:36px;fill:#000;stroke-width:1px;stroke:#000;">3</text><text x="65.858px" y="913.351px" style="font-family:'ArialMT';font-size:36px;fill:#000;stroke-width:1px;stroke:#000;">7</text><text x="57.183px" y="1313.35px" style="font-family:'ArialMT';font-size:36px;fill:#000;stroke-width:1px;stroke:#000;">1<tspan x="74.533px " y="1313.35px ">1</tspan></text><text x="65.858px" y="613.351px" style="font-family:'ArialMT';font-size:36px;fill:#000;stroke-width:1px;stroke:#000;">4</text><text x="65.858px" y="1013.35px" style="font-family:'ArialMT';font-size:36px;fill:#000;stroke-width:1px;stroke:#000;">8</text></g><rect x="0.873" y="0.98" width="100" height="100" style="fill:none;stroke-width:1px;stroke-miterlimit:1;stroke:#000;"/><rect x="50.873" y="50.98" width="100" height="100" style="fill:#808080;stroke-width:1px;stroke:#000;"/><text x="56.42px" y="126.824px" style="font-family:'ArialMT';font-size:64px;fill:#000;stroke-width:1px;stroke:#000;">1m</text></g></g></svg>