<?xml version="1.0" standalone="no"?><!DOCTYPE svg PUBLIC "-//W3C//DTD SVG 1.1//EN" "http://www.w3.org/Graphics/SVG/1.1/DTD/svg11.dtd"><svg width="100%" height="100%" viewBox="0 0 2301 1301" version="1.1" xmlns="http://www.w3.org/2000/svg" xmlns:xlink="http://www.w3.org/1999/xlink" xml:space="preserve" style="fill-rule:evenodd;clip-rule:evenodd;stroke-linejoin:round;stroke-miterlimit:1.41421;"><clipPath id="_clip1"><rect id="crazy horse" x="0.28" y="0.98" width="2300" height="1300"/></clipPath><g clip-path="url(#_clip1)"><path d="M1800.28,890.98l5.402,14.598l14.598,5.402l-14.598,5.402l-5.402,14.598l-5.401,-14.598l-14.599,-5.402l14.599,-5.402l5.401,-14.598Z" style="fill:none;stroke-width:4.5px;stroke:#000;"/><path d="M200.28,400.98l200,0l0,-180l1100,0l0,180l200,0l0,250" style="fill:none;stroke-width:4.5px;stroke:#000;"/><path d="M600.28,400.98l700,0" style="fill:none;stroke-width:4.5px;stroke:#000;"/><path d="M200.28,580.98l1100,0l0,220l200,0l0,400l300,0c162.034,9.814 284.245,-158.086 280,-270c-3.94,-103.892 -105.117,-286.455 -280,-280l-100,0" style="fill:none;stroke-width:4.5px;stroke:#000;"/><path d="M1700.28,1050.98l0,-250" style="fill:none;stroke-width:4.5px;stroke:#000;"/><path d="M175.488,500.98c372.438,-8.872 1081.5,-33.907 1324.79,-10c205.06,20.15 27.686,486.294 100,580c90.792,117.65 300.392,88.054 380,-60c87.836,-163.355 -131.178,-295.889 -280,-270c-99.717,17.347 -250,25 -300,-30c-50,-55 1.372,-213.008 0,-300c-1.113,-70.624 -80.563,-105.506 -150,-110c-112.925,-7.308 -391.772,9.094 -520,0c-172.253,-12.216 -187.103,64.245 -230,100c-97.364,81.155 -235.647,35.373 -310,44.534" style="fill:none;stroke-width:8px;stroke-dasharray:24,48,0,0;stroke:#14a90c;stroke-opacity:0.698039;"/><path d="M1500.28,680.98l0,-100" style="fill:none;stroke-width:4.5px;stroke:#000;"/><g id="Layer3"><g><path d="M420.28,220.98c0,-11.038 -8.961,-20 -20,-20c-11.038,0 -20,8.962 -20,20c0,11.039 8.962,20 20,20c11.039,0 20,-8.961 20,-20Z" style="fill:#fcd1d1;stroke-width:1px;stroke:#000;"/><path d="M410.28,220.98c0,-5.519 -4.481,-10 -10,-10c-5.519,0 -10,4.481 -10,10c0,5.519 4.481,10 10,10c5.519,0 10,-4.481 10,-10Z" style="fill:#fc2e30;stroke-width:1px;stroke:#000;"/></g><g><path d="M1520.28,220.98c0,-11.038 -8.961,-20 -20,-20c-11.038,0 -20,8.962 -20,20c0,11.039 8.962,20 20,20c11.039,0 20,-8.961 20,-20Z" style="fill:#fcd1d1;stroke-width:1px;stroke:#000;"/><path d="M1510.28,220.98c0,-5.519 -4.481,-10 -10,-10c-5.519,0 -10,4.481 -10,10c0,5.519 4.481,10 10,10c5.519,0 10,-4.481 10,-10Z" style="fill:#fc2e30;stroke-width:1px;stroke:#000;"/></g><g><path d="M1320.28,580.98c0,-11.038 -8.961,-20 -20,-20c-11.038,0 -20,8.962 -20,20c0,11.039 8.962,20 20,20c11.039,0 20,-8.961 20,-20Z" style="fill:#fcd1d1;stroke-width:1px;stroke:#000;"/><path d="M1310.28,580.98c0,-5.519 -4.481,-10 -10,-10c-5.519,0 -10,4.481 -10,10c0,5.519 4.481,10 10,10c5.519,0 10,-4.481 10,-10Z" style="fill:#fc2e30;stroke-width:1px;stroke:#000;"/></g><g><path d="M1120.28,400.98c0,-11.038 -8.961,-20 -20,-20c-11.038,0 -20,8.962 -20,20c0,11.039 8.962,20 20,20c11.039,0 20,-8.961 20,-20Z" style="fill:#fcd1d1;stroke-width:1px;stroke:#000;"/><path d="M1110.28,400.98c0,-5.519 -4.481,-10 -10,-10c-5.519,0 -10,4.481 -10,10c0,5.519 4.481,10 10,10c5.519,0 10,-4.481 10,-10Z" style="fill:#fc2e30;stroke-width:1px;stroke:#000;"/></g><g><path d="M920.28,400.98c0,-11.038 -8.961,-20 -20,-20c-11.038,0 -20,8.962 -20,20c0,11.039 8.962,20 20,20c11.039,0 20,-8.961 20,-20Z" style="fill:#fcd1d1;stroke-width:1px;stroke:#000;"/><path d="M910.28,400.98c0,-5.519 -4.481,-10 -10,-10c-5.519,0 -10,4.481 -10,10c0,5.519 4.481,10 10,10c5.519,0 10,-4.481 10,-10Z" style="fill:#fc2e30;stroke-width:1px;stroke:#000;"/></g><g><path d="M720.28,400.98c0,-11.038 -8.961,-20 -20,-20c-11.038,0 -20,8.962 -20,20c0,11.039 8.962,20 20,20c11.039,0 20,-8.961 20,-20Z" style="fill:#fcd1d1;stroke-width:1px;stroke:#000;"/><path d="M710.28,400.98c0,-5.519 -4.481,-10 -10,-10c-5.519,0 -10,4.481 -10,10c0,5.519 4.481,10 10,10c5.519,0 10,-4.481 10,-10Z" style="fill:#fc2e30;stroke-width:1px;stroke:#000;"/></g><g><path d="M620.28,220.98c0,-11.038 -8.961,-20 -20,-20c-11.038,0 -20,8.962 -20,20c0,11.039 8.962,20 20,20c11.039,0 20,-8.961 20,-20Z" style="fill:#fcd1d1;stroke-width:1px;stroke:#000;"/><path d="M610.28,220.98c0,-5.519 -4.481,-10 -10,-10c-5.519,0 -10,4.481 -10,10c0,5.519 4.481,10 10,10c5.519,0 10,-4.481 10,-10Z" style="fill:#fc2e30;stroke-width:1px;stroke:#000;"/></g><g><path d="M820.28,220.98c0,-11.038 -8.961,-20 -20,-20c-11.038,0 -20,8.962 -20,20c0,11.039 8.962,20 20,20c11.039,0 20,-8.961 20,-20Z" style="fill:#fcd1d1;stroke-width:1px;stroke:#000;"/><path d="M810.28,220.98c0,-5.519 -4.481,-10 -10,-10c-5.519,0 -10,4.481 -10,10c0,5.519 4.481,10 10,10c5.519,0 10,-4.481 10,-10Z" style="fill:#fc2e30;stroke-width:1px;stroke:#000;"/></g><g><path d="M1020.28,220.98c0,-11.038 -8.961,-20 -20,-20c-11.038,0 -20,8.962 -20,20c0,11.039 8.962,20 20,20c11.039,0 20,-8.961 20,-20Z" style="fill:#fcd1d1;stroke-width:1px;stroke:#000;"/><path d="M1010.28,220.98c0,-5.519 -4.481,-10 -10,-10c-5.519,0 -10,4.481 -10,10c0,5.519 4.481,10 10,10c5.519,0 10,-4.481 10,-10Z" style="fill:#fc2e30;stroke-width:1px;stroke:#000;"/></g><g><path d="M1220.28,220.98c0,-11.038 -8.961,-20 -20,-20c-11.038,0 -20,8.962 -20,20c0,11.039 8.962,20 20,20c11.039,0 20,-8.961 20,-20Z" style="fill:#fcd1d1;stroke-width:1px;stroke:#000;"/><path d="M1210.28,220.98c0,-5.519 -4.481,-10 -10,-10c-5.519,0 -10,4.481 -10,10c0,5.519 4.481,10 10,10c5.519,0 10,-4.481 10,-10Z" style="fill:#fc2e30;stroke-width:1px;stroke:#000;"/></g><g><path d="M1420.28,220.98c0,-11.038 -8.961,-20 -20,-20c-11.038,0 -20,8.962 -20,20c0,11.039 8.962,20 20,20c11.039,0 20,-8.961 20,-20Z" style="fill:#fcd1d1;stroke-width:1px;stroke:#000;"/><path d="M1410.28,220.98c0,-5.519 -4.481,-10 -10,-10c-5.519,0 -10,4.481 -10,10c0,5.519 4.481,10 10,10c5.519,0 10,-4.481 10,-10Z" style="fill:#fc2e30;stroke-width:1px;stroke:#000;"/></g><g><path d="M1120.28,580.98c0,-11.038 -8.961,-20 -20,-20c-11.038,0 -20,8.962 -20,20c0,11.039 8.962,20 20,20c11.039,0 20,-8.961 20,-20Z" style="fill:#fcd1d1;stroke-width:1px;stroke:#000;"/><path d="M1110.28,580.98c0,-5.519 -4.481,-10 -10,-10c-5.519,0 -10,4.481 -10,10c0,5.519 4.481,10 10,10c5.519,0 10,-4.481 10,-10Z" style="fill:#fc2e30;stroke-width:1px;stroke:#000;"/></g><g><path d="M920.28,580.98c0,-11.038 -8.961,-20 -20,-20c-11.038,0 -20,8.962 -20,20c0,11.039 8.962,20 20,20c11.039,0 20,-8.961 20,-20Z" style="fill:#fcd1d1;stroke-width:1px;stroke:#000;"/><path d="M910.28,580.98c0,-5.519 -4.481,-10 -10,-10c-5.519,0 -10,4.481 -10,10c0,5.519 4.481,10 10,10c5.519,0 10,-4.481 10,-10Z" style="fill:#fc2e30;stroke-width:1px;stroke:#000;"/></g><g><path d="M720.28,580.98c0,-11.038 -8.961,-20 -20,-20c-11.038,0 -20,8.962 -20,20c0,11.039 8.962,20 20,20c11.039,0 20,-8.961 20,-20Z" style="fill:#fcd1d1;stroke-width:1px;stroke:#000;"/><path d="M710.28,580.98c0,-5.519 -4.481,-10 -10,-10c-5.519,0 -10,4.481 -10,10c0,5.519 4.481,10 10,10c5.519,0 10,-4.481 10,-10Z" style="fill:#fc2e30;stroke-width:1px;stroke:#000;"/></g><g><path d="M420.28,580.98c0,-11.038 -8.961,-20 -20,-20c-11.038,0 -20,8.962 -20,20c0,11.039 8.962,20 20,20c11.039,0 20,-8.961 20,-20Z" style="fill:#fcd1d1;stroke-width:1px;stroke:#000;"/><path d="M410.28,580.98c0,-5.519 -4.481,-10 -10,-10c-5.519,0 -10,4.481 -10,10c0,5.519 4.481,10 10,10c5.519,0 10,-4.481 10,-10Z" style="fill:#fc2e30;stroke-width:1px;stroke:#000;"/></g><g><path d="M520.28,580.98c0,-11.038 -8.961,-20 -20,-20c-11.038,0 -20,8.962 -20,20c0,11.039 8.962,20 20,20c11.039,0 20,-8.961 20,-20Z" style="fill:#fcd1d1;stroke-width:1px;stroke:#000;"/><path d="M510.28,580.98c0,-5.519 -4.481,-10 -10,-10c-5.519,0 -10,4.481 -10,10c0,5.519 4.481,10 10,10c5.519,0 10,-4.481 10,-10Z" style="fill:#fc2e30;stroke-width:1px;stroke:#000;"/></g><g><path d="M220.28,580.98c0,-11.038 -8.961,-20 -20,-20c-11.038,0 -20,8.962 -20,20c0,11.039 8.962,20 20,20c11.039,0 20,-8.961 20,-20Z" style="fill:#fcd1d1;stroke-width:1px;stroke:#000;"/><path d="M210.28,580.98c0,-5.519 -4.481,-10 -10,-10c-5.519,0 -10,4.481 -10,10c0,5.519 4.481,10 10,10c5.519,0 10,-4.481 10,-10Z" style="fill:#fc2e30;stroke-width:1px;stroke:#000;"/></g><g><path d="M220.28,400.98c0,-11.038 -8.961,-20 -20,-20c-11.038,0 -20,8.962 -20,20c0,11.039 8.962,20 20,20c11.039,0 20,-8.961 20,-20Z" style="fill:#fcd1d1;stroke-width:1px;stroke:#000;"/><path d="M210.28,400.98c0,-5.519 -4.481,-10 -10,-10c-5.519,0 -10,4.481 -10,10c0,5.519 4.481,10 10,10c5.519,0 10,-4.481 10,-10Z" style="fill:#fc2e30;stroke-width:1px;stroke:#000;"/></g><g><path d="M420.28,400.98c0,-11.038 -8.961,-20 -20,-20c-11.038,0 -20,8.962 -20,20c0,11.039 8.962,20 20,20c11.039,0 20,-8.961 20,-20Z" style="fill:#fcd1d1;stroke-width:1px;stroke:#000;"/><path d="M410.28,400.98c0,-5.519 -4.481,-10 -10,-10c-5.519,0 -10,4.481 -10,10c0,5.519 4.481,10 10,10c5.519,0 10,-4.481 10,-10Z" style="fill:#fc2e30;stroke-width:1px;stroke:#000;"/></g><g><path d="M620.28,400.98c0,-11.038 -8.961,-20 -20,-20c-11.038,0 -20,8.962 -20,20c0,11.039 8.962,20 20,20c11.039,0 20,-8.961 20,-20Z" style="fill:#fcd1d1;stroke-width:1px;stroke:#000;"/><path d="M610.28,400.98c0,-5.519 -4.481,-10 -10,-10c-5.519,0 -10,4.481 -10,10c0,5.519 4.481,10 10,10c5.519,0 10,-4.481 10,-10Z" style="fill:#fc2e30;stroke-width:1px;stroke:#000;"/></g><g><path d="M1320.28,400.98c0,-11.038 -8.961,-20 -20,-20c-11.038,0 -20,8.962 -20,20c0,11.039 8.962,20 20,20c11.039,0 20,-8.961 20,-20Z" style="fill:#fcd1d1;stroke-width:1px;stroke:#000;"/><path d="M1310.28,400.98c0,-5.519 -4.481,-10 -10,-10c-5.519,0 -10,4.481 -10,10c0,5.519 4.481,10 10,10c5.519,0 10,-4.481 10,-10Z" style="fill:#fc2e30;stroke-width:1px;stroke:#000;"/></g><g><path d="M1520.28,580.98c0,-11.038 -8.961,-20 -20,-20c-11.038,0 -20,8.962 -20,20c0,11.039 8.962,20 20,20c11.039,0 20,-8.961 20,-20Z" style="fill:#fcd1d1;stroke-width:1px;stroke:#000;"/><path d="M1510.28,580.98c0,-5.519 -4.481,-10 -10,-10c-5.519,0 -10,4.481 -10,10c0,5.519 4.481,10 10,10c5.519,0 10,-4.481 10,-10Z" style="fill:#fc2e30;stroke-width:1px;stroke:#000;"/></g><g><path d="M1520.28,680.98c0,-11.038 -8.961,-20 -20,-20c-11.038,0 -20,8.962 -20,20c0,11.039 8.962,20 20,20c11.039,0 20,-8.961 20,-20Z" style="fill:#fcd1d1;stroke-width:1px;stroke:#000;"/><path d="M1510.28,680.98c0,-5.519 -4.481,-10 -10,-10c-5.519,0 -10,4.481 -10,10c0,5.519 4.481,10 10,10c5.519,0 10,-4.481 10,-10Z" style="fill:#fc2e30;stroke-width:1px;stroke:#000;"/></g><g><path d="M1320.28,800.98c0,-11.038 -8.961,-20 -20,-20c-11.038,0 -20,8.962 -20,20c0,11.039 8.962,20 20,20c11.039,0 20,-8.961 20,-20Z" style="fill:#fcd1d1;stroke-width:1px;stroke:#000;"/><path d="M1310.28,800.98c0,-5.519 -4.481,-10 -10,-10c-5.519,0 -10,4.481 -10,10c0,5.519 4.481,10 10,10c5.519,0 10,-4.481 10,-10Z" style="fill:#fc2e30;stroke-width:1px;stroke:#000;"/></g><g><path d="M1320.28,700.98c0,-11.038 -8.961,-20 -20,-20c-11.038,0 -20,8.962 -20,20c0,11.039 8.962,20 20,20c11.039,0 20,-8.961 20,-20Z" style="fill:#fcd1d1;stroke-width:1px;stroke:#000;"/><path d="M1310.28,700.98c0,-5.519 -4.481,-10 -10,-10c-5.519,0 -10,4.481 -10,10c0,5.519 4.481,10 10,10c5.519,0 10,-4.481 10,-10Z" style="fill:#fc2e30;stroke-width:1px;stroke:#000;"/></g><g><path d="M1520.28,800.98c0,-11.038 -8.961,-20 -20,-20c-11.038,0 -20,8.962 -20,20c0,11.039 8.962,20 20,20c11.039,0 20,-8.961 20,-20Z" style="fill:#fcd1d1;stroke-width:1px;stroke:#000;"/><path d="M1510.28,800.98c0,-5.519 -4.481,-10 -10,-10c-5.519,0 -10,4.481 -10,10c0,5.519 4.481,10 10,10c5.519,0 10,-4.481 10,-10Z" style="fill:#fc2e30;stroke-width:1px;stroke:#000;"/></g><g><path d="M1720.28,800.98c0,-11.038 -8.961,-20 -20,-20c-11.038,0 -20,8.962 -20,20c0,11.039 8.962,20 20,20c11.039,0 20,-8.961 20,-20Z" style="fill:#fcd1d1;stroke-width:1px;stroke:#000;"/><path d="M1710.28,800.98c0,-5.519 -4.481,-10 -10,-10c-5.519,0 -10,4.481 -10,10c0,5.519 4.481,10 10,10c5.519,0 10,-4.481 10,-10Z" style="fill:#fc2e30;stroke-width:1px;stroke:#000;"/></g><g><path d="M1720.28,1050.98c0,-11.038 -8.961,-20 -20,-20c-11.038,0 -20,8.962 -20,20c0,11.039 8.962,20 20,20c11.039,0 20,-8.961 20,-20Z" style="fill:#fcd1d1;stroke-width:1px;stroke:#000;"/><path d="M1710.28,1050.98c0,-5.519 -4.481,-10 -10,-10c-5.519,0 -10,4.481 -10,10c0,5.519 4.481,10 10,10c5.519,0 10,-4.481 10,-10Z" style="fill:#fc2e30;stroke-width:1px;stroke:#000;"/></g><g><path d="M1720.28,920.98c0,-11.038 -8.961,-20 -20,-20c-11.038,0 -20,8.962 -20,20c0,11.039 8.962,20 20,20c11.039,0 20,-8.961 20,-20Z" style="fill:#fcd1d1;stroke-width:1px;stroke:#000;"/><path d="M1710.28,920.98c0,-5.519 -4.481,-10 -10,-10c-5.519,0 -10,4.481 -10,10c0,5.519 4.481,10 10,10c5.519,0 10,-4.481 10,-10Z" style="fill:#fc2e30;stroke-width:1px;stroke:#000;"/></g><g><path d="M1520.28,1000.98c0,-11.038 -8.961,-20 -20,-20c-11.038,0 -20,8.962 -20,20c0,11.039 8.962,20 20,20c11.039,0 20,-8.961 20,-20Z" style="fill:#fcd1d1;stroke-width:1px;stroke:#000;"/><path d="M1510.28,1000.98c0,-5.519 -4.481,-10 -10,-10c-5.519,0 -10,4.481 -10,10c0,5.519 4.481,10 10,10c5.519,0 10,-4.481 10,-10Z" style="fill:#fc2e30;stroke-width:1px;stroke:#000;"/></g><g><path d="M1520.28,1200.98c0,-11.038 -8.961,-20 -20,-20c-11.038,0 -20,8.962 -20,20c0,11.039 8.962,20 20,20c11.039,0 20,-8.961 20,-20Z" style="fill:#fcd1d1;stroke-width:1px;stroke:#000;"/><path d="M1510.28,1200.98c0,-5.519 -4.481,-10 -10,-10c-5.519,0 -10,4.481 -10,10c0,5.519 4.481,10 10,10c5.519,0 10,-4.481 10,-10Z" style="fill:#fc2e30;stroke-width:1px;stroke:#000;"/></g><g><path d="M1820.28,1200.98c0,-11.038 -8.961,-20 -20,-20c-11.038,0 -20,8.962 -20,20c0,11.039 8.962,20 20,20c11.039,0 20,-8.961 20,-20Z" style="fill:#fcd1d1;stroke-width:1px;stroke:#000;"/><path d="M1810.28,1200.98c0,-5.519 -4.481,-10 -10,-10c-5.519,0 -10,4.481 -10,10c0,5.519 4.481,10 10,10c5.519,0 10,-4.481 10,-10Z" style="fill:#fc2e30;stroke-width:1px;stroke:#000;"/></g><g><path d="M1620.28,1200.98c0,-11.038 -8.961,-20 -20,-20c-11.038,0 -20,8.962 -20,20c0,11.039 8.962,20 20,20c11.039,0 20,-8.961 20,-20Z" style="fill:#fcd1d1;stroke-width:1px;stroke:#000;"/><path d="M1610.28,1200.98c0,-5.519 -4.481,-10 -10,-10c-5.519,0 -10,4.481 -10,10c0,5.519 4.481,10 10,10c5.519,0 10,-4.481 10,-10Z" style="fill:#fc2e30;stroke-width:1px;stroke:#000;"/></g><g><path d="M1720.28,1200.98c0,-11.038 -8.961,-20 -20,-20c-11.038,0 -20,8.962 -20,20c0,11.039 8.962,20 20,20c11.039,0 20,-8.961 20,-20Z" style="fill:#fcd1d1;stroke-width:1px;stroke:#000;"/><path d="M1710.28,1200.98c0,-5.519 -4.481,-10 -10,-10c-5.519,0 -10,4.481 -10,10c0,5.519 4.481,10 10,10c5.519,0 10,-4.481 10,-10Z" style="fill:#fc2e30;stroke-width:1px;stroke:#000;"/></g><g><path d="M2100.28,950.98c0,-11.038 -8.961,-20 -20,-20c-11.038,0 -20,8.962 -20,20c0,11.039 8.962,20 20,20c11.039,0 20,-8.961 20,-20Z" style="fill:#fcd1d1;stroke-width:1px;stroke:#000;"/><path d="M2090.28,950.98c0,-5.519 -4.481,-10 -10,-10c-5.519,0 -10,4.481 -10,10c0,5.519 4.481,10 10,10c5.519,0 10,-4.481 10,-10Z" style="fill:#fc2e30;stroke-width:1px;stroke:#000;"/></g><g><path d="M2020.28,1100.98c0,-11.038 -8.961,-20 -20,-20c-11.038,0 -20,8.962 -20,20c0,11.039 8.962,20 20,20c11.039,0 20,-8.961 20,-20Z" style="fill:#fcd1d1;stroke-width:1px;stroke:#000;"/><path d="M2010.28,1100.98c0,-5.519 -4.481,-10 -10,-10c-5.519,0 -10,4.481 -10,10c0,5.519 4.481,10 10,10c5.519,0 10,-4.481 10,-10Z" style="fill:#fc2e30;stroke-width:1px;stroke:#000;"/></g><g><path d="M1940.28,1180.98c0,-11.038 -8.961,-20 -20,-20c-11.038,0 -20,8.962 -20,20c0,11.039 8.962,20 20,20c11.039,0 20,-8.961 20,-20Z" style="fill:#fcd1d1;stroke-width:1px;stroke:#000;"/><path d="M1930.28,1180.98c0,-5.519 -4.481,-10 -10,-10c-5.519,0 -10,4.481 -10,10c0,5.519 4.481,10 10,10c5.519,0 10,-4.481 10,-10Z" style="fill:#fc2e30;stroke-width:1px;stroke:#000;"/></g><g><path d="M2040.28,780.98c0,-11.038 -8.961,-20 -20,-20c-11.038,0 -20,8.962 -20,20c0,11.039 8.962,20 20,20c11.039,0 20,-8.961 20,-20Z" style="fill:#fcd1d1;stroke-width:1px;stroke:#000;"/><path d="M2030.28,780.98c0,-5.519 -4.481,-10 -10,-10c-5.519,0 -10,4.481 -10,10c0,5.519 4.481,10 10,10c5.519,0 10,-4.481 10,-10Z" style="fill:#fc2e30;stroke-width:1px;stroke:#000;"/></g><g><path d="M1940.28,680.98c0,-11.038 -8.961,-20 -20,-20c-11.038,0 -20,8.962 -20,20c0,11.039 8.962,20 20,20c11.039,0 20,-8.961 20,-20Z" style="fill:#fcd1d1;stroke-width:1px;stroke:#000;"/><path d="M1930.28,680.98c0,-5.519 -4.481,-10 -10,-10c-5.519,0 -10,4.481 -10,10c0,5.519 4.481,10 10,10c5.519,0 10,-4.481 10,-10Z" style="fill:#fc2e30;stroke-width:1px;stroke:#000;"/></g><g><path d="M1720.28,650.98c0,-11.038 -8.961,-20 -20,-20c-11.038,0 -20,8.962 -20,20c0,11.039 8.962,20 20,20c11.039,0 20,-8.961 20,-20Z" style="fill:#fcd1d1;stroke-width:1px;stroke:#000;"/><path d="M1710.28,650.98c0,-5.519 -4.481,-10 -10,-10c-5.519,0 -10,4.481 -10,10c0,5.519 4.481,10 10,10c5.519,0 10,-4.481 10,-10Z" style="fill:#fc2e30;stroke-width:1px;stroke:#000;"/></g><g><path d="M1720.28,400.98c0,-11.038 -8.961,-20 -20,-20c-11.038,0 -20,8.962 -20,20c0,11.039 8.962,20 20,20c11.039,0 20,-8.961 20,-20Z" style="fill:#fcd1d1;stroke-width:1px;stroke:#000;"/><path d="M1710.28,400.98c0,-5.519 -4.481,-10 -10,-10c-5.519,0 -10,4.481 -10,10c0,5.519 4.481,10 10,10c5.519,0 10,-4.481 10,-10Z" style="fill:#fc2e30;stroke-width:1px;stroke:#000;"/></g><g><path d="M1520.28,400.98c0,-11.038 -8.961,-20 -20,-20c-11.038,0 -20,8.962 -20,20c0,11.039 8.962,20 20,20c11.039,0 20,-8.961 20,-20Z" style="fill:#fcd1d1;stroke-width:1px;stroke:#000;"/><path d="M1510.28,400.98c0,-5.519 -4.481,-10 -10,-10c-5.519,0 -10,4.481 -10,10c0,5.519 4.481,10 10,10c5.519,0 10,-4.481 10,-10Z" style="fill:#fc2e30;stroke-width:1px;stroke:#000;"/></g><g><path d="M1720.28,500.98c0,-11.038 -8.961,-20 -20,-20c-11.038,0 -20,8.962 -20,20c0,11.039 8.962,20 20,20c11.039,0 20,-8.961 20,-20Z" style="fill:#fcd1d1;stroke-width:1px;stroke:#000;"/><path d="M1710.28,500.98c0,-5.519 -4.481,-10 -10,-10c-5.519,0 -10,4.481 -10,10c0,5.519 4.481,10 10,10c5.519,0 10,-4.481 10,-10Z" style="fill:#fc2e30;stroke-width:1px;stroke:#000;"/></g><g><path d="M1820.28,650.98c0,-11.038 -8.961,-20 -20,-20c-11.038,0 -20,8.962 -20,20c0,11.039 8.962,20 20,20c11.039,0 20,-8.961 20,-20Z" style="fill:#fcd1d1;stroke-width:1px;stroke:#000;"/><path d="M1810.28,650.98c0,-5.519 -4.481,-10 -10,-10c-5.519,0 -10,4.481 -10,10c0,5.519 4.481,10 10,10c5.519,0 10,-4.481 10,-10Z" style="fill:#fc2e30;stroke-width:1px;stroke:#000;"/></g></g><g><path d="M162.53,550.98l-4.5,0l0,-100l4.5,0l0,100Z" style="fill:#000;"/><path d="M160.28,503.23l-50,0l0,-4.5l50,0l0,4.5Z" style="fill:#000;"/></g><g id="grid"><g id="bold lines"><path d="M700.28,100.98l0,2800" style="fill:none;stroke-width:1px;stroke-miterlimit:1;stroke:#000;stroke-opacity:0.298039;"/><path d="M100.28,700.98l2600,0" style="fill:none;stroke-width:1px;stroke-miterlimit:1;stroke:#000;stroke-opacity:0.298039;"/><path d="M1200.28,100.98l0,2800" style="fill:none;stroke-width:1px;stroke-miterlimit:1;stroke:#000;stroke-opacity:0.298039;"/><path d="M1700.28,100.98l0,2800" style="fill:none;stroke-width:1px;stroke-miterlimit:1;stroke:#000;stroke-opacity:0.298039;"/><path d="M2200.28,100.98l0,2800" style="fill:none;stroke-width:1px;stroke-miterlimit:1;stroke:#000;stroke-opacity:0.298039;"/><path d="M100.28,1200.98l2600,0" style="fill:none;stroke-width:1px;stroke-miterlimit:1;stroke:#000;stroke-opacity:0.298039;"/><path d="M100.28,200.98l2600,0" style="fill:none;stroke-width:1px;stroke-miterlimit:1;stroke:#000;stroke-opacity:0.298039;"/><path d="M200.28,2900.98l0,-2800" style="fill:none;stroke-width:1px;stroke-miterlimit:1;stroke:#000;stroke-opacity:0.298039;"/></g><g id="vertical lines"><path d="M100.28,100.98l0,2800" style="fill:none;stroke-width:1px;stroke-linejoin:miter;stroke-miterlimit:1;stroke-dasharray:10,44,2,44;stroke-dashoffset:5;stroke:#000;"/><path d="M700.28,100.98l0,2800" style="fill:none;stroke-width:1px;stroke-linejoin:miter;stroke-miterlimit:1;stroke-dasharray:10,44,2,44;stroke-dashoffset:5;stroke:#000;"/><path d="M1300.28,100.98l0,2800" style="fill:none;stroke-width:1px;stroke-linejoin:miter;stroke-miterlimit:1;stroke-dasharray:10,44,2,44;stroke-dashoffset:5;stroke:#000;"/><path d="M1900.28,100.98l0,2800" style="fill:none;stroke-width:1px;stroke-linejoin:miter;stroke-miterlimit:1;stroke-dasharray:10,44,2,44;stroke-dashoffset:5;stroke:#000;"/><path d="M300.28,100.98l0,2800" style="fill:none;stroke-width:1px;stroke-linejoin:miter;stroke-miterlimit:1;stroke-dasharray:10,44,2,44;stroke-dashoffset:5;stroke:#000;"/><path d="M900.28,100.98l0,2800" style="fill:none;stroke-width:1px;stroke-linejoin:miter;stroke-miterlimit:1;stroke-dasharray:10,44,2,44;stroke-dashoffset:5;stroke:#000;"/><path d="M1500.28,100.98l0,2800" style="fill:none;stroke-width:1px;stroke-linejoin:miter;stroke-miterlimit:1;stroke-dasharray:10,44,2,44;stroke-dashoffset:5;stroke:#000;"/><path d="M2100.28,100.98l0,2800" style="fill:none;stroke-width:1px;stroke-linejoin:miter;stroke-miterlimit:1;stroke-dasharray:10,44,2,44;stroke-dashoffset:5;stroke:#000;"/><path d="M500.28,100.98l0,2800" style="fill:none;stroke-width:1px;stroke-linejoin:miter;stroke-miterlimit:1;stroke-dasharray:10,44,2,44;stroke-dashoffset:5;stroke:#000;"/><path d="M1100.28,100.98l0,2800" style="fill:none;stroke-width:1px;stroke-linejoin:miter;stroke-miterlimit:1;stroke-dasharray:10,44,2,44;stroke-dashoffset:5;stroke:#000;"/><path d="M1700.28,100.98l0,2800" style="fill:none;stroke-width:1px;stroke-linejoin:miter;stroke-miterlimit:1;stroke-dasharray:10,44,2,44;stroke-dashoffset:5;stroke:#000;"/><path d="M2300.28,100.98l0,2800" style="fill:none;stroke-width:1px;stroke-linejoin:miter;stroke-miterlimit:1;stroke-dasharray:10,44,2,44;stroke-dashoffset:5;stroke:#000;"/><path d="M200.28,100.98l0,2800" style="fill:none;stroke-width:1px;stroke-linejoin:miter;stroke-miterlimit:1;stroke-dasharray:10,44,2,44;stroke-dashoffset:5;stroke:#000;"/><path d="M800.28,100.98l0,2800" style="fill:none;stroke-width:1px;stroke-linejoin:miter;stroke-miterlimit:1;stroke-dasharray:10,44,2,44;stroke-dashoffset:5;stroke:#000;"/><path d="M1400.28,100.98l0,2800" style="fill:none;stroke-width:1px;stroke-linejoin:miter;stroke-miterlimit:1;stroke-dasharray:10,44,2,44;stroke-dashoffset:5;stroke:#000;"/><path d="M2000.28,100.98l0,2800" style="fill:none;stroke-width:1px;stroke-linejoin:miter;stroke-miterlimit:1;stroke-dasharray:10,44,2,44;stroke-dashoffset:5;stroke:#000;"/><path d="M400.28,100.98l0,2800" style="fill:none;stroke-width:1px;stroke-linejoin:miter;stroke-miterlimit:1;stroke-dasharray:10,44,2,44;stroke-dashoffset:5;stroke:#000;"/><path d="M1000.28,100.98l0,2800" style="fill:none;stroke-width:1px;stroke-linejoin:miter;stroke-miterlimit:1;stroke-dasharray:10,44,2,44;stroke-dashoffset:5;stroke:#000;"/><path d="M1600.28,100.98l0,2800" style="fill:none;stroke-width:1px;stroke-linejoin:miter;stroke-miterlimit:1;stroke-dasharray:10,44,2,44;stroke-dashoffset:5;stroke:#000;"/><path d="M2200.28,100.98l0,2800" style="fill:none;stroke-width:1px;stroke-linejoin:miter;stroke-miterlimit:1;stroke-dasharray:10,44,2,44;stroke-dashoffset:5;stroke:#000;"/><path d="M600.28,100.98l0,2800" style="fill:none;stroke-width:1px;stroke-linejoin:miter;stroke-miterlimit:1;stroke-dasharray:10,44,2,44;stroke-dashoffset:5;stroke:#000;"/><path d="M1200.28,100.98l0,2800" style="fill:none;stroke-width:1px;stroke-linejoin:miter;stroke-miterlimit:1;stroke-dasharray:10,44,2,44;stroke-dashoffset:5;stroke:#000;"/><path d="M1800.28,100.98l0,2800" style="fill:none;stroke-width:1px;stroke-linejoin:miter;stroke-miterlimit:1;stroke-dasharray:10,44,2,44;stroke-dashoffset:5;stroke:#000;"/></g><g id="horizontal lines"><path d="M100.28,100.98l2600,0" style="fill:none;stroke-width:1px;stroke-dasharray:10,44,2,44;stroke-dashoffset:5;stroke:#000;"/><path d="M100.28,500.98l2600,0" style="fill:none;stroke-width:1px;stroke-dasharray:10,44,2,44;stroke-dashoffset:5;stroke:#000;"/><path d="M100.28,900.98l2600,0" style="fill:none;stroke-width:1px;stroke-dasharray:10,44,2,44;stroke-dashoffset:5;stroke:#000;"/><path d="M100.28,1300.98l2600,0" style="fill:none;stroke-width:1px;stroke-dasharray:10,44,2,44;stroke-dashoffset:5;stroke:#000;"/><path d="M2700.28,200.98l-2600,0" style="fill:none;stroke-width:1px;stroke-dasharray:10,44,2,44;stroke-dashoffset:5;stroke:#000;"/><path d="M2700.28,600.98l-2600,0" style="fill:none;stroke-width:1px;stroke-dasharray:10,44,2,44;stroke-dashoffset:5;stroke:#000;"/><path d="M2700.28,1000.98l-2600,0" style="fill:none;stroke-width:1px;stroke-dasharray:10,44,2,44;stroke-dashoffset:5;stroke:#000;"/><path d="M100.28,300.98l2600,0" style="fill:none;stroke-width:1px;stroke-dasharray:10,44,2,44;stroke-dashoffset:5;stroke:#000;"/><path d="M100.28,700.98l2600,0" style="fill:none;stroke-width:1px;stroke-dasharray:10,44,2,44;stroke-dashoffset:5;stroke:#000;"/><path d="M100.28,1100.98l2600,0" style="fill:none;stroke-width:1px;stroke-dasharray:10,44,2,44;stroke-dashoffset:5;stroke:#000;"/><path d="M100.28,400.98l2600,0" style="fill:none;stroke-width:1px;stroke-dasharray:10,44,2,44;stroke-dashoffset:5;stroke:#000;"/><path d="M100.28,800.98l2600,0" style="fill:none;stroke-width:1px;stroke-dasharray:10,44,2,44;stroke-dashoffset:5;stroke:#000;"/><path d="M100.28,1200.98l2600,0" style="fill:none;stroke-width:1px;stroke-dasharray:10,44,2,44;stroke-dashoffset:5;stroke:#000;"/></g><g id="top labels"><rect x="150.28" y="50.98" width="100" height="50" style="fill:#808080;stroke-width:1px;stroke:#000;"/><rect x="650.28" y="50.98" width="100" height="50" style="fill:#808080;stroke-width:1px;stroke:#000;"/><rect x="1150.28" y="50.98" width="100" height="50" style="fill:#808080;stroke-width:1px;stroke:#000;"/><rect x="1650.28" y="50.98" width="100" height="50" style="fill:#808080;stroke-width:1px;stroke:#000;"/><rect x="2150.28" y="50.98" width="100" height="50" style="fill:#808080;stroke-width:1px;stroke:#000;"/><rect x="250.28" y="50.98" width="100" height="50" style="fill:#808080;stroke-width:1px;stroke:#000;"/><rect x="750.28" y="50.98" width="100" height="50" style="fill:#808080;stroke-width:1px;stroke:#000;"/><rect x="1250.28" y="50.98" width="100" height="50" style="fill:#808080;stroke-width:1px;stroke:#000;"/><rect x="1750.28" y="50.98" width="100" height="50" style="fill:#808080;stroke-width:1px;stroke:#000;"/><rect x="2250.28" y="50.98" width="100" height="50" style="fill:#808080;stroke-width:1px;stroke:#000;"/><rect x="350.28" y="50.98" width="100" height="50" style="fill:#808080;stroke-width:1px;stroke:#000;"/><rect x="850.28" y="50.98" width="100" height="50" style="fill:#808080;stroke-width:1px;stroke:#000;"/><rect x="1350.28" y="50.98" width="100" height="50" style="fill:#808080;stroke-width:1px;stroke:#000;"/><rect x="1850.28" y="50.98" width="100" height="50" style="fill:#808080;stroke-width:1px;stroke:#000;"/><rect x="450.28" y="50.98" width="100" height="50" style="fill:#808080;stroke-width:1px;stroke:#000;"/><rect x="950.28" y="50.98" width="100" height="50" style="fill:#808080;stroke-width:1px;stroke:#000;"/><rect x="1450.28" y="50.98" width="100" height="50" style="fill:#808080;stroke-width:1px;stroke:#000;"/><rect x="1950.28" y="50.98" width="100" height="50" style="fill:#808080;stroke-width:1px;stroke:#000;"/><rect x="550.28" y="50.98" width="100" height="50" style="fill:#808080;stroke-width:1px;stroke:#000;"/><rect x="1050.28" y="50.98" width="100" height="50" style="fill:#808080;stroke-width:1px;stroke:#000;"/><rect x="1550.28" y="50.98" width="100" height="50" style="fill:#808080;stroke-width:1px;stroke:#000;"/><rect x="2050.28" y="50.98" width="100" height="50" style="fill:#808080;stroke-width:1px;stroke:#000;"/><text x="188.29px" y="90.059px" style="font-family:'ArialMT';font-size:36px;fill:#000;stroke-width:1px;stroke:#000;">A</text><text x="688.29px" y="90.059px" style="font-family:'ArialMT';font-size:36px;fill:#000;stroke-width:1px;stroke:#000;">F</text><text x="1188.29px" y="90.059px" style="font-family:'ArialMT';font-size:36px;fill:#000;stroke-width:1px;stroke:#000;">K</text><text x="1688.29px" y="90.059px" style="font-family:'ArialMT';font-size:36px;fill:#000;stroke-width:1px;stroke:#000;">P</text><text x="2188.29px" y="90.059px" style="font-family:'ArialMT';font-size:36px;fill:#000;stroke-width:1px;stroke:#000;">U</text><text x="288.29px" y="90.059px" style="font-family:'ArialMT';font-size:36px;fill:#000;stroke-width:1px;stroke:#000;">B</text><text x="788.29px" y="90.059px" style="font-family:'ArialMT';font-size:36px;fill:#000;stroke-width:1px;stroke:#000;">G</text><text x="1288.29px" y="90.059px" style="font-family:'ArialMT';font-size:36px;fill:#000;stroke-width:1px;stroke:#000;">L</text><text x="1788.29px" y="90.059px" style="font-family:'ArialMT';font-size:36px;fill:#000;stroke-width:1px;stroke:#000;">Q</text><text x="2288.29px" y="90.059px" style="font-family:'ArialMT';font-size:36px;fill:#000;stroke-width:1px;stroke:#000;">V</text><text x="388.29px" y="90.059px" style="font-family:'ArialMT';font-size:36px;fill:#000;stroke-width:1px;stroke:#000;">C</text><text x="888.29px" y="90.059px" style="font-family:'ArialMT';font-size:36px;fill:#000;stroke-width:1px;stroke:#000;">H</text><text x="1388.29px" y="90.059px" style="font-family:'ArialMT';font-size:36px;fill:#000;stroke-width:1px;stroke:#000;">M</text><text x="1888.29px" y="90.059px" style="font-family:'ArialMT';font-size:36px;fill:#000;stroke-width:1px;stroke:#000;">R</text><text x="488.29px" y="90.059px" style="font-family:'ArialMT';font-size:36px;fill:#000;stroke-width:1px;stroke:#000;">D</text><text x="995.295px" y="90.059px" style="font-family:'ArialMT';font-size:36px;fill:#000;stroke-width:1px;stroke:#000;">I</text><text x="1488.29px" y="90.059px" style="font-family:'ArialMT';font-size:36px;fill:#000;stroke-width:1px;stroke:#000;">N</text><text x="1988.29px" y="90.059px" style="font-family:'ArialMT';font-size:36px;fill:#000;stroke-width:1px;stroke:#000;">S</text><text x="588.29px" y="90.059px" style="font-family:'ArialMT';font-size:36px;fill:#000;stroke-width:1px;stroke:#000;">E</text><text x="1088.29px" y="90.059px" style="font-family:'ArialMT';font-size:36px;fill:#000;stroke-width:1px;stroke:#000;">J</text><text x="1588.29px" y="90.059px" style="font-family:'ArialMT';font-size:36px;fill:#000;stroke-width:1px;stroke:#000;">O</text><text x="2088.29px" y="90.059px" style="font-family:'ArialMT';font-size:36px;fill:#000;stroke-width:1px;stroke:#000;">T</text></g><g id="top numbers"><text x="293.049px" y="46.742px" style="font-family:'ArialMT';font-size:20px;fill:#000;stroke-width:1px;stroke:#000;">1</text><text x="194.719px" y="46.742px" style="font-family:'ArialMT';font-size:20px;fill:#000;stroke-width:1px;stroke:#000;">0</text><text x="793.049px" y="46.742px" style="font-family:'ArialMT';font-size:20px;fill:#000;stroke-width:1px;stroke:#000;">6</text><text x="1288.4px" y="46.742px" style="font-family:'ArialMT';font-size:20px;fill:#000;stroke-width:1px;stroke:#000;">1<tspan x="1298.03px " y="46.742px ">1</tspan></text><text x="1789.16px" y="46.742px" style="font-family:'ArialMT';font-size:20px;fill:#000;stroke-width:1px;stroke:#000;">16</text><text x="2289.16px" y="46.742px" style="font-family:'ArialMT';font-size:20px;fill:#000;stroke-width:1px;stroke:#000;">21</text><text x="393.049px" y="46.742px" style="font-family:'ArialMT';font-size:20px;fill:#000;stroke-width:1px;stroke:#000;">2</text><text x="893.596px" y="46.742px" style="font-family:'ArialMT';font-size:20px;fill:#000;stroke-width:1px;stroke:#000;">7</text><text x="1389.16px" y="46.742px" style="font-family:'ArialMT';font-size:20px;fill:#000;stroke-width:1px;stroke:#000;">12</text><text x="1888.03px" y="46.742px" style="font-family:'ArialMT';font-size:20px;fill:#000;stroke-width:1px;stroke:#000;">17</text><text x="493.049px" y="46.742px" style="font-family:'ArialMT';font-size:20px;fill:#000;stroke-width:1px;stroke:#000;">3</text><text x="993.596px" y="46.742px" style="font-family:'ArialMT';font-size:20px;fill:#000;stroke-width:1px;stroke:#000;">8</text><text x="1489.16px" y="46.742px" style="font-family:'ArialMT';font-size:20px;fill:#000;stroke-width:1px;stroke:#000;">13</text><text x="1988.03px" y="46.742px" style="font-family:'ArialMT';font-size:20px;fill:#000;stroke-width:1px;stroke:#000;">18</text><text x="593.049px" y="46.742px" style="font-family:'ArialMT';font-size:20px;fill:#000;stroke-width:1px;stroke:#000;">4</text><text x="1093.6px" y="46.742px" style="font-family:'ArialMT';font-size:20px;fill:#000;stroke-width:1px;stroke:#000;">9</text><text x="1589.16px" y="46.742px" style="font-family:'ArialMT';font-size:20px;fill:#000;stroke-width:1px;stroke:#000;">14</text><text x="2088.03px" y="46.742px" style="font-family:'ArialMT';font-size:20px;fill:#000;stroke-width:1px;stroke:#000;">19</text><text x="693.049px" y="46.742px" style="font-family:'ArialMT';font-size:20px;fill:#000;stroke-width:1px;stroke:#000;">5</text><text x="1189.16px" y="46.742px" style="font-family:'ArialMT';font-size:20px;fill:#000;stroke-width:1px;stroke:#000;">10</text><text x="1688.03px" y="46.742px" style="font-family:'ArialMT';font-size:20px;fill:#000;stroke-width:1px;stroke:#000;">15</text><text x="2188.03px" y="46.742px" style="font-family:'ArialMT';font-size:20px;fill:#000;stroke-width:1px;stroke:#000;">20</text></g><g id="side labels"><rect x="50.28" y="250.98" width="50" height="100" style="fill:#808080;stroke-width:1px;stroke:#000;"/><rect x="50.28" y="150.98" width="50" height="100" style="fill:#808080;stroke-width:1px;stroke:#000;"/><rect x="50.28" y="650.98" width="50" height="100" style="fill:#808080;stroke-width:1px;stroke:#000;"/><rect x="50.28" y="1050.98" width="50" height="100" style="fill:#808080;stroke-width:1px;stroke:#000;"/><rect x="50.28" y="350.98" width="50" height="100" style="fill:#808080;stroke-width:1px;stroke:#000;"/><rect x="50.28" y="750.98" width="50" height="100" style="fill:#808080;stroke-width:1px;stroke:#000;"/><rect x="50.28" y="1150.98" width="50" height="100" style="fill:#808080;stroke-width:1px;stroke:#000;"/><rect x="50.28" y="450.98" width="50" height="100" style="fill:#808080;stroke-width:1px;stroke:#000;"/><rect x="50.28" y="850.98" width="50" height="100" style="fill:#808080;stroke-width:1px;stroke:#000;"/><rect x="50.28" y="1250.98" width="50" height="100" style="fill:#808080;stroke-width:1px;stroke:#000;"/><rect x="50.28" y="550.98" width="50" height="100" style="fill:#808080;stroke-width:1px;stroke:#000;"/><rect x="50.28" y="950.98" width="50" height="100" style="fill:#808080;stroke-width:1px;stroke:#000;"/><text x="65.265px" y="313.351px" style="font-family:'ArialMT';font-size:36px;fill:#000;stroke-width:1px;stroke:#000;">1</text><text x="65.265px" y="213.351px" style="font-family:'ArialMT';font-size:36px;fill:#000;stroke-width:1px;stroke:#000;">0</text><text x="65.265px" y="713.351px" style="font-family:'ArialMT';font-size:36px;fill:#000;stroke-width:1px;stroke:#000;">5</text><text x="65.265px" y="1113.35px" style="font-family:'ArialMT';font-size:36px;fill:#000;stroke-width:1px;stroke:#000;">9</text><text x="65.265px" y="413.351px" style="font-family:'ArialMT';font-size:36px;fill:#000;stroke-width:1px;stroke:#000;">2</text><text x="65.265px" y="813.351px" style="font-family:'ArialMT';font-size:36px;fill:#000;stroke-width:1px;stroke:#000;">6</text><text x="55.254px" y="1213.35px" style="font-family:'ArialMT';font-size:36px;fill:#000;stroke-width:1px;stroke:#000;">10</text><text x="65.265px" y="513.351px" style="font-family:'ArialMT';font-size:36px;fill:#000;stroke-width:1px;stroke:#000;">3</text><text x="65.265px" y="913.351px" style="font-family:'ArialMT';font-size:36px;fill:#000;stroke-width:1px;stroke:#000;">7</text><text x="56.59px" y="1313.35px" style="font-family:'ArialMT';font-size:36px;fill:#000;stroke-width:1px;stroke:#000;">1<tspan x="73.94px " y="1313.35px ">1</tspan></text><text x="65.265px" y="613.351px" style="font-family:'ArialMT';font-size:36px;fill:#000;stroke-width:1px;stroke:#000;">4</text><text x="65.265px" y="1013.35px" style="font-family:'ArialMT';font-size:36px;fill:#000;stroke-width:1px;stroke:#000;">8</text></g><rect x="0.28" y="0.98" width="100" height="100" style="fill:none;stroke-width:1px;stroke-miterlimit:1;stroke:#000;"/><rect x="50.28" y="50.98" width="100" height="100" style="fill:#808080;stroke-width:1px;stroke:#000;"/><text x="55.827px" y="126.824px" style="font-family:'ArialMT';font-size:64px;fill:#000;stroke-width:1px;stroke:#000;">1m</text></g></g></svg>