<?xml version="1.0" standalone="no"?><!DOCTYPE svg PUBLIC "-//W3C//DTD SVG 1.1//EN" "http://www.w3.org/Graphics/SVG/1.1/DTD/svg11.dtd"><svg width="100%" height="100%" viewBox="0 0 9588 5421" version="1.1" xmlns="http://www.w3.org/2000/svg" xmlns:xlink="http://www.w3.org/1999/xlink" xml:space="preserve" style="fill-rule:evenodd;clip-rule:evenodd;stroke-linejoin:round;stroke-miterlimit:1.41421;"><clipPath id="_clip1"><rect id="crazy horse" x="1.168" y="4.084" width="9583.33" height="5416.67"/></clipPath><g clip-path="url(#_clip1)"><path d="M7501.17,3712.42l22.508,60.825l60.825,22.508l-60.825,22.507l-22.508,60.826l-22.508,-60.826l-60.825,-22.507l60.825,-22.508l22.508,-60.825Z" style="fill:none;stroke-width:18.75px;stroke:#000;"/><path d="M834.501,1670.75l833.334,0l0,-750l4583.33,0l0,750l833.333,0l0,1041.67" style="fill:none;stroke-width:18.75px;stroke:#000;"/><path d="M2501.17,1670.75l2916.67,0" style="fill:none;stroke-width:18.75px;stroke:#000;"/><path d="M834.501,2420.75l4583.33,0l0,916.667l833.333,0l0,1666.67l1250,0c675.139,40.89 1184.35,-658.691 1166.67,-1125c-16.417,-432.886 -437.989,-1193.56 -1166.67,-1166.67l-416.667,0" style="fill:none;stroke-width:18.75px;stroke:#000;"/><path d="M7084.5,4379.08l0,-1041.67" style="fill:none;stroke-width:18.75px;stroke:#000;"/><path d="M731.199,2087.42c1551.83,-36.968 4506.23,-141.281 5519.97,-41.667c854.416,83.959 115.357,2026.22 416.667,2416.67c378.3,490.209 1251.63,366.89 1583.33,-250c365.981,-680.647 -546.577,-1232.87 -1166.67,-1125c-415.488,72.278 -1041.67,104.166 -1250,-125c-208.333,-229.167 5.715,-887.535 0,-1250c-4.639,-294.269 -335.679,-439.609 -625,-458.334c-470.522,-30.451 -1632.38,37.893 -2166.67,0c-717.723,-50.902 -779.596,267.685 -958.334,416.667c-405.684,338.146 -981.864,147.388 -1291.67,185.555" style="fill:none;stroke-width:33.33px;stroke-dasharray:100,200,0,0;stroke:#14a90c;stroke-opacity:0.698039;"/><path d="M6251.17,2837.42l0,-416.667" style="fill:none;stroke-width:18.75px;stroke:#000;"/><g id="Layer3"><g><path d="M1751.17,920.751c0,-45.993 -37.34,-83.333 -83.333,-83.333c-45.993,0 -83.334,37.34 -83.334,83.333c0,45.993 37.341,83.333 83.334,83.333c45.993,0 83.333,-37.34 83.333,-83.333Z" style="fill:#fcd1d1;stroke-width:4.17px;stroke:#000;"/><path d="M1709.5,920.751c0,-22.997 -18.67,-41.667 -41.666,-41.667c-22.997,0 -41.667,18.67 -41.667,41.667c0,22.996 18.67,41.667 41.667,41.667c22.996,0 41.666,-18.671 41.666,-41.667Z" style="fill:#fc2e30;stroke-width:4.17px;stroke:#000;"/></g><g><path d="M6334.5,920.751c0,-45.993 -37.34,-83.333 -83.333,-83.333c-45.993,0 -83.333,37.34 -83.333,83.333c0,45.993 37.34,83.333 83.333,83.333c45.993,0 83.333,-37.34 83.333,-83.333Z" style="fill:#fcd1d1;stroke-width:4.17px;stroke:#000;"/><path d="M6292.84,920.751c0,-22.997 -18.671,-41.667 -41.667,-41.667c-22.996,0 -41.667,18.67 -41.667,41.667c0,22.996 18.671,41.667 41.667,41.667c22.996,0 41.667,-18.671 41.667,-41.667Z" style="fill:#fc2e30;stroke-width:4.17px;stroke:#000;"/></g><g><path d="M5501.17,2420.75c0,-45.993 -37.34,-83.333 -83.333,-83.333c-45.993,0 -83.334,37.34 -83.334,83.333c0,45.993 37.341,83.333 83.334,83.333c45.993,0 83.333,-37.34 83.333,-83.333Z" style="fill:#fcd1d1;stroke-width:4.17px;stroke:#000;"/><path d="M5459.5,2420.75c0,-22.997 -18.67,-41.667 -41.666,-41.667c-22.997,0 -41.667,18.67 -41.667,41.667c0,22.996 18.67,41.667 41.667,41.667c22.996,0 41.666,-18.671 41.666,-41.667Z" style="fill:#fc2e30;stroke-width:4.17px;stroke:#000;"/></g><g><path d="M4667.84,1670.75c0,-45.993 -37.341,-83.333 -83.334,-83.333c-45.993,0 -83.333,37.34 -83.333,83.333c0,45.993 37.34,83.333 83.333,83.333c45.993,0 83.334,-37.34 83.334,-83.333Z" style="fill:#fcd1d1;stroke-width:4.17px;stroke:#000;"/><path d="M4626.17,1670.75c0,-22.997 -18.67,-41.667 -41.667,-41.667c-22.996,0 -41.666,18.67 -41.666,41.667c0,22.996 18.67,41.667 41.666,41.667c22.997,0 41.667,-18.671 41.667,-41.667Z" style="fill:#fc2e30;stroke-width:4.17px;stroke:#000;"/></g><g><path d="M3834.5,1670.75c0,-45.993 -37.34,-83.333 -83.333,-83.333c-45.993,0 -83.333,37.34 -83.333,83.333c0,45.993 37.34,83.333 83.333,83.333c45.993,0 83.333,-37.34 83.333,-83.333Z" style="fill:#fcd1d1;stroke-width:4.17px;stroke:#000;"/><path d="M3792.84,1670.75c0,-22.997 -18.671,-41.667 -41.667,-41.667c-22.996,0 -41.667,18.67 -41.667,41.667c0,22.996 18.671,41.667 41.667,41.667c22.996,0 41.667,-18.671 41.667,-41.667Z" style="fill:#fc2e30;stroke-width:4.17px;stroke:#000;"/></g><g><path d="M3001.17,1670.75c0,-45.993 -37.34,-83.333 -83.333,-83.333c-45.993,0 -83.334,37.34 -83.334,83.333c0,45.993 37.341,83.333 83.334,83.333c45.993,0 83.333,-37.34 83.333,-83.333Z" style="fill:#fcd1d1;stroke-width:4.17px;stroke:#000;"/><path d="M2959.5,1670.75c0,-22.997 -18.67,-41.667 -41.666,-41.667c-22.997,0 -41.667,18.67 -41.667,41.667c0,22.996 18.67,41.667 41.667,41.667c22.996,0 41.666,-18.671 41.666,-41.667Z" style="fill:#fc2e30;stroke-width:4.17px;stroke:#000;"/></g><g><path d="M2584.5,920.751c0,-45.993 -37.34,-83.333 -83.333,-83.333c-45.993,0 -83.333,37.34 -83.333,83.333c0,45.993 37.34,83.333 83.333,83.333c45.993,0 83.333,-37.34 83.333,-83.333Z" style="fill:#fcd1d1;stroke-width:4.17px;stroke:#000;"/><path d="M2542.84,920.751c0,-22.997 -18.671,-41.667 -41.667,-41.667c-22.996,0 -41.667,18.67 -41.667,41.667c0,22.996 18.671,41.667 41.667,41.667c22.996,0 41.667,-18.671 41.667,-41.667Z" style="fill:#fc2e30;stroke-width:4.17px;stroke:#000;"/></g><g><path d="M3417.84,920.751c0,-45.993 -37.341,-83.333 -83.334,-83.333c-45.993,0 -83.333,37.34 -83.333,83.333c0,45.993 37.34,83.333 83.333,83.333c45.993,0 83.334,-37.34 83.334,-83.333Z" style="fill:#fcd1d1;stroke-width:4.17px;stroke:#000;"/><path d="M3376.17,920.751c0,-22.997 -18.67,-41.667 -41.667,-41.667c-22.996,0 -41.666,18.67 -41.666,41.667c0,22.996 18.67,41.667 41.666,41.667c22.997,0 41.667,-18.671 41.667,-41.667Z" style="fill:#fc2e30;stroke-width:4.17px;stroke:#000;"/></g><g><path d="M4251.17,920.751c0,-45.993 -37.34,-83.333 -83.333,-83.333c-45.993,0 -83.334,37.34 -83.334,83.333c0,45.993 37.341,83.333 83.334,83.333c45.993,0 83.333,-37.34 83.333,-83.333Z" style="fill:#fcd1d1;stroke-width:4.17px;stroke:#000;"/><path d="M4209.5,920.751c0,-22.997 -18.67,-41.667 -41.666,-41.667c-22.997,0 -41.667,18.67 -41.667,41.667c0,22.996 18.67,41.667 41.667,41.667c22.996,0 41.666,-18.671 41.666,-41.667Z" style="fill:#fc2e30;stroke-width:4.17px;stroke:#000;"/></g><g><path d="M5084.5,920.751c0,-45.993 -37.34,-83.333 -83.333,-83.333c-45.993,0 -83.333,37.34 -83.333,83.333c0,45.993 37.34,83.333 83.333,83.333c45.993,0 83.333,-37.34 83.333,-83.333Z" style="fill:#fcd1d1;stroke-width:4.17px;stroke:#000;"/><path d="M5042.84,920.751c0,-22.997 -18.671,-41.667 -41.667,-41.667c-22.996,0 -41.667,18.67 -41.667,41.667c0,22.996 18.671,41.667 41.667,41.667c22.996,0 41.667,-18.671 41.667,-41.667Z" style="fill:#fc2e30;stroke-width:4.17px;stroke:#000;"/></g><g><path d="M5917.84,920.751c0,-45.993 -37.341,-83.333 -83.334,-83.333c-45.993,0 -83.333,37.34 -83.333,83.333c0,45.993 37.34,83.333 83.333,83.333c45.993,0 83.334,-37.34 83.334,-83.333Z" style="fill:#fcd1d1;stroke-width:4.17px;stroke:#000;"/><path d="M5876.17,920.751c0,-22.997 -18.67,-41.667 -41.667,-41.667c-22.996,0 -41.666,18.67 -41.666,41.667c0,22.996 18.67,41.667 41.666,41.667c22.997,0 41.667,-18.671 41.667,-41.667Z" style="fill:#fc2e30;stroke-width:4.17px;stroke:#000;"/></g><g><path d="M4667.84,2420.75c0,-45.993 -37.341,-83.333 -83.334,-83.333c-45.993,0 -83.333,37.34 -83.333,83.333c0,45.993 37.34,83.333 83.333,83.333c45.993,0 83.334,-37.34 83.334,-83.333Z" style="fill:#fcd1d1;stroke-width:4.17px;stroke:#000;"/><path d="M4626.17,2420.75c0,-22.997 -18.67,-41.667 -41.667,-41.667c-22.996,0 -41.666,18.67 -41.666,41.667c0,22.996 18.67,41.667 41.666,41.667c22.997,0 41.667,-18.671 41.667,-41.667Z" style="fill:#fc2e30;stroke-width:4.17px;stroke:#000;"/></g><g><path d="M3834.5,2420.75c0,-45.993 -37.34,-83.333 -83.333,-83.333c-45.993,0 -83.333,37.34 -83.333,83.333c0,45.993 37.34,83.333 83.333,83.333c45.993,0 83.333,-37.34 83.333,-83.333Z" style="fill:#fcd1d1;stroke-width:4.17px;stroke:#000;"/><path d="M3792.84,2420.75c0,-22.997 -18.671,-41.667 -41.667,-41.667c-22.996,0 -41.667,18.67 -41.667,41.667c0,22.996 18.671,41.667 41.667,41.667c22.996,0 41.667,-18.671 41.667,-41.667Z" style="fill:#fc2e30;stroke-width:4.17px;stroke:#000;"/></g><g><path d="M3001.17,2420.75c0,-45.993 -37.34,-83.333 -83.333,-83.333c-45.993,0 -83.334,37.34 -83.334,83.333c0,45.993 37.341,83.333 83.334,83.333c45.993,0 83.333,-37.34 83.333,-83.333Z" style="fill:#fcd1d1;stroke-width:4.17px;stroke:#000;"/><path d="M2959.5,2420.75c0,-22.997 -18.67,-41.667 -41.666,-41.667c-22.997,0 -41.667,18.67 -41.667,41.667c0,22.996 18.67,41.667 41.667,41.667c22.996,0 41.666,-18.671 41.666,-41.667Z" style="fill:#fc2e30;stroke-width:4.17px;stroke:#000;"/></g><g><path d="M1751.17,2420.75c0,-45.993 -37.34,-83.333 -83.333,-83.333c-45.993,0 -83.334,37.34 -83.334,83.333c0,45.993 37.341,83.333 83.334,83.333c45.993,0 83.333,-37.34 83.333,-83.333Z" style="fill:#fcd1d1;stroke-width:4.17px;stroke:#000;"/><path d="M1709.5,2420.75c0,-22.997 -18.67,-41.667 -41.666,-41.667c-22.997,0 -41.667,18.67 -41.667,41.667c0,22.996 18.67,41.667 41.667,41.667c22.996,0 41.666,-18.671 41.666,-41.667Z" style="fill:#fc2e30;stroke-width:4.17px;stroke:#000;"/></g><g><path d="M2167.84,2420.75c0,-45.993 -37.341,-83.333 -83.334,-83.333c-45.993,0 -83.333,37.34 -83.333,83.333c0,45.993 37.34,83.333 83.333,83.333c45.993,0 83.334,-37.34 83.334,-83.333Z" style="fill:#fcd1d1;stroke-width:4.17px;stroke:#000;"/><path d="M2126.17,2420.75c0,-22.997 -18.67,-41.667 -41.667,-41.667c-22.996,0 -41.666,18.67 -41.666,41.667c0,22.996 18.67,41.667 41.666,41.667c22.997,0 41.667,-18.671 41.667,-41.667Z" style="fill:#fc2e30;stroke-width:4.17px;stroke:#000;"/></g><g><path d="M917.835,2420.75c0,-45.993 -37.341,-83.333 -83.334,-83.333c-45.993,0 -83.333,37.34 -83.333,83.333c0,45.993 37.34,83.333 83.333,83.333c45.993,0 83.334,-37.34 83.334,-83.333Z" style="fill:#fcd1d1;stroke-width:4.17px;stroke:#000;"/><path d="M876.168,2420.75c0,-22.997 -18.67,-41.667 -41.667,-41.667c-22.996,0 -41.666,18.67 -41.666,41.667c0,22.996 18.67,41.667 41.666,41.667c22.997,0 41.667,-18.671 41.667,-41.667Z" style="fill:#fc2e30;stroke-width:4.17px;stroke:#000;"/></g><g><path d="M917.835,1670.75c0,-45.993 -37.341,-83.333 -83.334,-83.333c-45.993,0 -83.333,37.34 -83.333,83.333c0,45.993 37.34,83.333 83.333,83.333c45.993,0 83.334,-37.34 83.334,-83.333Z" style="fill:#fcd1d1;stroke-width:4.17px;stroke:#000;"/><path d="M876.168,1670.75c0,-22.997 -18.67,-41.667 -41.667,-41.667c-22.996,0 -41.666,18.67 -41.666,41.667c0,22.996 18.67,41.667 41.666,41.667c22.997,0 41.667,-18.671 41.667,-41.667Z" style="fill:#fc2e30;stroke-width:4.17px;stroke:#000;"/></g><g><path d="M1751.17,1670.75c0,-45.993 -37.34,-83.333 -83.333,-83.333c-45.993,0 -83.334,37.34 -83.334,83.333c0,45.993 37.341,83.333 83.334,83.333c45.993,0 83.333,-37.34 83.333,-83.333Z" style="fill:#fcd1d1;stroke-width:4.17px;stroke:#000;"/><path d="M1709.5,1670.75c0,-22.997 -18.67,-41.667 -41.666,-41.667c-22.997,0 -41.667,18.67 -41.667,41.667c0,22.996 18.67,41.667 41.667,41.667c22.996,0 41.666,-18.671 41.666,-41.667Z" style="fill:#fc2e30;stroke-width:4.17px;stroke:#000;"/></g><g><path d="M2584.5,1670.75c0,-45.993 -37.34,-83.333 -83.333,-83.333c-45.993,0 -83.333,37.34 -83.333,83.333c0,45.993 37.34,83.333 83.333,83.333c45.993,0 83.333,-37.34 83.333,-83.333Z" style="fill:#fcd1d1;stroke-width:4.17px;stroke:#000;"/><path d="M2542.84,1670.75c0,-22.997 -18.671,-41.667 -41.667,-41.667c-22.996,0 -41.667,18.67 -41.667,41.667c0,22.996 18.671,41.667 41.667,41.667c22.996,0 41.667,-18.671 41.667,-41.667Z" style="fill:#fc2e30;stroke-width:4.17px;stroke:#000;"/></g><g><path d="M5501.17,1670.75c0,-45.993 -37.34,-83.333 -83.333,-83.333c-45.993,0 -83.334,37.34 -83.334,83.333c0,45.993 37.341,83.333 83.334,83.333c45.993,0 83.333,-37.34 83.333,-83.333Z" style="fill:#fcd1d1;stroke-width:4.17px;stroke:#000;"/><path d="M5459.5,1670.75c0,-22.997 -18.67,-41.667 -41.666,-41.667c-22.997,0 -41.667,18.67 -41.667,41.667c0,22.996 18.67,41.667 41.667,41.667c22.996,0 41.666,-18.671 41.666,-41.667Z" style="fill:#fc2e30;stroke-width:4.17px;stroke:#000;"/></g><g><path d="M6334.5,2420.75c0,-45.993 -37.34,-83.333 -83.333,-83.333c-45.993,0 -83.333,37.34 -83.333,83.333c0,45.993 37.34,83.333 83.333,83.333c45.993,0 83.333,-37.34 83.333,-83.333Z" style="fill:#fcd1d1;stroke-width:4.17px;stroke:#000;"/><path d="M6292.84,2420.75c0,-22.997 -18.671,-41.667 -41.667,-41.667c-22.996,0 -41.667,18.67 -41.667,41.667c0,22.996 18.671,41.667 41.667,41.667c22.996,0 41.667,-18.671 41.667,-41.667Z" style="fill:#fc2e30;stroke-width:4.17px;stroke:#000;"/></g><g><path d="M6334.5,2837.42c0,-45.993 -37.34,-83.334 -83.333,-83.334c-45.993,0 -83.333,37.341 -83.333,83.334c0,45.993 37.34,83.333 83.333,83.333c45.993,0 83.333,-37.34 83.333,-83.333Z" style="fill:#fcd1d1;stroke-width:4.17px;stroke:#000;"/><path d="M6292.84,2837.42c0,-22.997 -18.671,-41.667 -41.667,-41.667c-22.996,0 -41.667,18.67 -41.667,41.667c0,22.996 18.671,41.666 41.667,41.666c22.996,0 41.667,-18.67 41.667,-41.666Z" style="fill:#fc2e30;stroke-width:4.17px;stroke:#000;"/></g><g><path d="M5501.17,3337.42c0,-45.993 -37.34,-83.334 -83.333,-83.334c-45.993,0 -83.334,37.341 -83.334,83.334c0,45.993 37.341,83.333 83.334,83.333c45.993,0 83.333,-37.34 83.333,-83.333Z" style="fill:#fcd1d1;stroke-width:4.17px;stroke:#000;"/><path d="M5459.5,3337.42c0,-22.997 -18.67,-41.667 -41.666,-41.667c-22.997,0 -41.667,18.67 -41.667,41.667c0,22.996 18.67,41.666 41.667,41.666c22.996,0 41.666,-18.67 41.666,-41.666Z" style="fill:#fc2e30;stroke-width:4.17px;stroke:#000;"/></g><g><path d="M5501.17,2920.75c0,-45.993 -37.34,-83.333 -83.333,-83.333c-45.993,0 -83.334,37.34 -83.334,83.333c0,45.993 37.341,83.333 83.334,83.333c45.993,0 83.333,-37.34 83.333,-83.333Z" style="fill:#fcd1d1;stroke-width:4.17px;stroke:#000;"/><path d="M5459.5,2920.75c0,-22.997 -18.67,-41.667 -41.666,-41.667c-22.997,0 -41.667,18.67 -41.667,41.667c0,22.996 18.67,41.667 41.667,41.667c22.996,0 41.666,-18.671 41.666,-41.667Z" style="fill:#fc2e30;stroke-width:4.17px;stroke:#000;"/></g><g><path d="M6334.5,3337.42c0,-45.993 -37.34,-83.334 -83.333,-83.334c-45.993,0 -83.333,37.341 -83.333,83.334c0,45.993 37.34,83.333 83.333,83.333c45.993,0 83.333,-37.34 83.333,-83.333Z" style="fill:#fcd1d1;stroke-width:4.17px;stroke:#000;"/><path d="M6292.84,3337.42c0,-22.997 -18.671,-41.667 -41.667,-41.667c-22.996,0 -41.667,18.67 -41.667,41.667c0,22.996 18.671,41.666 41.667,41.666c22.996,0 41.667,-18.67 41.667,-41.666Z" style="fill:#fc2e30;stroke-width:4.17px;stroke:#000;"/></g><g><path d="M7167.84,3337.42c0,-45.993 -37.341,-83.334 -83.334,-83.334c-45.993,0 -83.333,37.341 -83.333,83.334c0,45.993 37.34,83.333 83.333,83.333c45.993,0 83.334,-37.34 83.334,-83.333Z" style="fill:#fcd1d1;stroke-width:4.17px;stroke:#000;"/><path d="M7126.17,3337.42c0,-22.997 -18.67,-41.667 -41.667,-41.667c-22.996,0 -41.666,18.67 -41.666,41.667c0,22.996 18.67,41.666 41.666,41.666c22.997,0 41.667,-18.67 41.667,-41.666Z" style="fill:#fc2e30;stroke-width:4.17px;stroke:#000;"/></g><g><path d="M7167.84,4379.08c0,-45.993 -37.341,-83.333 -83.334,-83.333c-45.993,0 -83.333,37.34 -83.333,83.333c0,45.993 37.34,83.334 83.333,83.334c45.993,0 83.334,-37.341 83.334,-83.334Z" style="fill:#fcd1d1;stroke-width:4.17px;stroke:#000;"/><path d="M7126.17,4379.08c0,-22.996 -18.67,-41.666 -41.667,-41.666c-22.996,0 -41.666,18.67 -41.666,41.666c0,22.997 18.67,41.667 41.666,41.667c22.997,0 41.667,-18.67 41.667,-41.667Z" style="fill:#fc2e30;stroke-width:4.17px;stroke:#000;"/></g><g><path d="M7167.84,3837.42c0,-45.993 -37.341,-83.334 -83.334,-83.334c-45.993,0 -83.333,37.341 -83.333,83.334c0,45.993 37.34,83.333 83.333,83.333c45.993,0 83.334,-37.34 83.334,-83.333Z" style="fill:#fcd1d1;stroke-width:4.17px;stroke:#000;"/><path d="M7126.17,3837.42c0,-22.997 -18.67,-41.667 -41.667,-41.667c-22.996,0 -41.666,18.67 -41.666,41.667c0,22.996 18.67,41.666 41.666,41.666c22.997,0 41.667,-18.67 41.667,-41.666Z" style="fill:#fc2e30;stroke-width:4.17px;stroke:#000;"/></g><g><path d="M6334.5,4170.75c0,-45.993 -37.34,-83.333 -83.333,-83.333c-45.993,0 -83.333,37.34 -83.333,83.333c0,45.993 37.34,83.333 83.333,83.333c45.993,0 83.333,-37.34 83.333,-83.333Z" style="fill:#fcd1d1;stroke-width:4.17px;stroke:#000;"/><path d="M6292.84,4170.75c0,-22.997 -18.671,-41.667 -41.667,-41.667c-22.996,0 -41.667,18.67 -41.667,41.667c0,22.996 18.671,41.667 41.667,41.667c22.996,0 41.667,-18.671 41.667,-41.667Z" style="fill:#fc2e30;stroke-width:4.17px;stroke:#000;"/></g><g><path d="M6334.5,5004.08c0,-45.993 -37.34,-83.333 -83.333,-83.333c-45.993,0 -83.333,37.34 -83.333,83.333c0,45.993 37.34,83.334 83.333,83.334c45.993,0 83.333,-37.341 83.333,-83.334Z" style="fill:#fcd1d1;stroke-width:4.17px;stroke:#000;"/><path d="M6292.84,5004.08c0,-22.996 -18.671,-41.666 -41.667,-41.666c-22.996,0 -41.667,18.67 -41.667,41.666c0,22.997 18.671,41.667 41.667,41.667c22.996,0 41.667,-18.67 41.667,-41.667Z" style="fill:#fc2e30;stroke-width:4.17px;stroke:#000;"/></g><g><path d="M7584.5,5004.08c0,-45.993 -37.34,-83.333 -83.333,-83.333c-45.993,0 -83.333,37.34 -83.333,83.333c0,45.993 37.34,83.334 83.333,83.334c45.993,0 83.333,-37.341 83.333,-83.334Z" style="fill:#fcd1d1;stroke-width:4.17px;stroke:#000;"/><path d="M7542.84,5004.08c0,-22.996 -18.671,-41.666 -41.667,-41.666c-22.996,0 -41.667,18.67 -41.667,41.666c0,22.997 18.671,41.667 41.667,41.667c22.996,0 41.667,-18.67 41.667,-41.667Z" style="fill:#fc2e30;stroke-width:4.17px;stroke:#000;"/></g><g><path d="M6751.17,5004.08c0,-45.993 -37.34,-83.333 -83.333,-83.333c-45.993,0 -83.334,37.34 -83.334,83.333c0,45.993 37.341,83.334 83.334,83.334c45.993,0 83.333,-37.341 83.333,-83.334Z" style="fill:#fcd1d1;stroke-width:4.17px;stroke:#000;"/><path d="M6709.5,5004.08c0,-22.996 -18.67,-41.666 -41.666,-41.666c-22.997,0 -41.667,18.67 -41.667,41.666c0,22.997 18.67,41.667 41.667,41.667c22.996,0 41.666,-18.67 41.666,-41.667Z" style="fill:#fc2e30;stroke-width:4.17px;stroke:#000;"/></g><g><path d="M7167.84,5004.08c0,-45.993 -37.341,-83.333 -83.334,-83.333c-45.993,0 -83.333,37.34 -83.333,83.333c0,45.993 37.34,83.334 83.333,83.334c45.993,0 83.334,-37.341 83.334,-83.334Z" style="fill:#fcd1d1;stroke-width:4.17px;stroke:#000;"/><path d="M7126.17,5004.08c0,-22.996 -18.67,-41.666 -41.667,-41.666c-22.996,0 -41.666,18.67 -41.666,41.666c0,22.997 18.67,41.667 41.666,41.667c22.997,0 41.667,-18.67 41.667,-41.667Z" style="fill:#fc2e30;stroke-width:4.17px;stroke:#000;"/></g><g><path d="M8751.17,3962.42c0,-45.993 -37.34,-83.334 -83.333,-83.334c-45.993,0 -83.334,37.341 -83.334,83.334c0,45.993 37.341,83.333 83.334,83.333c45.993,0 83.333,-37.34 83.333,-83.333Z" style="fill:#fcd1d1;stroke-width:4.17px;stroke:#000;"/><path d="M8709.5,3962.42c0,-22.997 -18.67,-41.667 -41.666,-41.667c-22.997,0 -41.667,18.67 -41.667,41.667c0,22.996 18.67,41.666 41.667,41.666c22.996,0 41.666,-18.67 41.666,-41.666Z" style="fill:#fc2e30;stroke-width:4.17px;stroke:#000;"/></g><g><path d="M8417.84,4587.42c0,-45.993 -37.341,-83.334 -83.334,-83.334c-45.993,0 -83.333,37.341 -83.333,83.334c0,45.993 37.34,83.333 83.333,83.333c45.993,0 83.334,-37.34 83.334,-83.333Z" style="fill:#fcd1d1;stroke-width:4.17px;stroke:#000;"/><path d="M8376.17,4587.42c0,-22.997 -18.67,-41.667 -41.667,-41.667c-22.996,0 -41.666,18.67 -41.666,41.667c0,22.996 18.67,41.666 41.666,41.666c22.997,0 41.667,-18.67 41.667,-41.666Z" style="fill:#fc2e30;stroke-width:4.17px;stroke:#000;"/></g><g><path d="M8084.5,4920.75c0,-45.993 -37.34,-83.333 -83.333,-83.333c-45.993,0 -83.333,37.34 -83.333,83.333c0,45.993 37.34,83.333 83.333,83.333c45.993,0 83.333,-37.34 83.333,-83.333Z" style="fill:#fcd1d1;stroke-width:4.17px;stroke:#000;"/><path d="M8042.84,4920.75c0,-22.997 -18.671,-41.667 -41.667,-41.667c-22.996,0 -41.667,18.67 -41.667,41.667c0,22.996 18.671,41.667 41.667,41.667c22.996,0 41.667,-18.671 41.667,-41.667Z" style="fill:#fc2e30;stroke-width:4.17px;stroke:#000;"/></g><g><path d="M8501.17,3254.08c0,-45.993 -37.34,-83.333 -83.333,-83.333c-45.993,0 -83.334,37.34 -83.334,83.333c0,45.993 37.341,83.334 83.334,83.334c45.993,0 83.333,-37.341 83.333,-83.334Z" style="fill:#fcd1d1;stroke-width:4.17px;stroke:#000;"/><path d="M8459.5,3254.08c0,-22.996 -18.67,-41.666 -41.666,-41.666c-22.997,0 -41.667,18.67 -41.667,41.666c0,22.997 18.67,41.667 41.667,41.667c22.996,0 41.666,-18.67 41.666,-41.667Z" style="fill:#fc2e30;stroke-width:4.17px;stroke:#000;"/></g><g><path d="M8084.5,2837.42c0,-45.993 -37.34,-83.334 -83.333,-83.334c-45.993,0 -83.333,37.341 -83.333,83.334c0,45.993 37.34,83.333 83.333,83.333c45.993,0 83.333,-37.34 83.333,-83.333Z" style="fill:#fcd1d1;stroke-width:4.17px;stroke:#000;"/><path d="M8042.84,2837.42c0,-22.997 -18.671,-41.667 -41.667,-41.667c-22.996,0 -41.667,18.67 -41.667,41.667c0,22.996 18.671,41.666 41.667,41.666c22.996,0 41.667,-18.67 41.667,-41.666Z" style="fill:#fc2e30;stroke-width:4.17px;stroke:#000;"/></g><g><path d="M7167.84,2712.42c0,-45.993 -37.341,-83.334 -83.334,-83.334c-45.993,0 -83.333,37.341 -83.333,83.334c0,45.993 37.34,83.333 83.333,83.333c45.993,0 83.334,-37.34 83.334,-83.333Z" style="fill:#fcd1d1;stroke-width:4.17px;stroke:#000;"/><path d="M7126.17,2712.42c0,-22.997 -18.67,-41.667 -41.667,-41.667c-22.996,0 -41.666,18.67 -41.666,41.667c0,22.996 18.67,41.666 41.666,41.666c22.997,0 41.667,-18.67 41.667,-41.666Z" style="fill:#fc2e30;stroke-width:4.17px;stroke:#000;"/></g><g><path d="M7167.84,1670.75c0,-45.993 -37.341,-83.333 -83.334,-83.333c-45.993,0 -83.333,37.34 -83.333,83.333c0,45.993 37.34,83.333 83.333,83.333c45.993,0 83.334,-37.34 83.334,-83.333Z" style="fill:#fcd1d1;stroke-width:4.17px;stroke:#000;"/><path d="M7126.17,1670.75c0,-22.997 -18.67,-41.667 -41.667,-41.667c-22.996,0 -41.666,18.67 -41.666,41.667c0,22.996 18.67,41.667 41.666,41.667c22.997,0 41.667,-18.671 41.667,-41.667Z" style="fill:#fc2e30;stroke-width:4.17px;stroke:#000;"/></g><g><path d="M6334.5,1670.75c0,-45.993 -37.34,-83.333 -83.333,-83.333c-45.993,0 -83.333,37.34 -83.333,83.333c0,45.993 37.34,83.333 83.333,83.333c45.993,0 83.333,-37.34 83.333,-83.333Z" style="fill:#fcd1d1;stroke-width:4.17px;stroke:#000;"/><path d="M6292.84,1670.75c0,-22.997 -18.671,-41.667 -41.667,-41.667c-22.996,0 -41.667,18.67 -41.667,41.667c0,22.996 18.671,41.667 41.667,41.667c22.996,0 41.667,-18.671 41.667,-41.667Z" style="fill:#fc2e30;stroke-width:4.17px;stroke:#000;"/></g><g><path d="M7167.84,2087.42c0,-45.993 -37.341,-83.334 -83.334,-83.334c-45.993,0 -83.333,37.341 -83.333,83.334c0,45.993 37.34,83.333 83.333,83.333c45.993,0 83.334,-37.34 83.334,-83.333Z" style="fill:#fcd1d1;stroke-width:4.17px;stroke:#000;"/><path d="M7126.17,2087.42c0,-22.997 -18.67,-41.667 -41.667,-41.667c-22.996,0 -41.666,18.67 -41.666,41.667c0,22.996 18.67,41.666 41.666,41.666c22.997,0 41.667,-18.67 41.667,-41.666Z" style="fill:#fc2e30;stroke-width:4.17px;stroke:#000;"/></g><g><path d="M7584.5,2712.42c0,-45.993 -37.34,-83.334 -83.333,-83.334c-45.993,0 -83.333,37.341 -83.333,83.334c0,45.993 37.34,83.333 83.333,83.333c45.993,0 83.333,-37.34 83.333,-83.333Z" style="fill:#fcd1d1;stroke-width:4.17px;stroke:#000;"/><path d="M7542.84,2712.42c0,-22.997 -18.671,-41.667 -41.667,-41.667c-22.996,0 -41.667,18.67 -41.667,41.667c0,22.996 18.671,41.666 41.667,41.666c22.996,0 41.667,-18.67 41.667,-41.666Z" style="fill:#fc2e30;stroke-width:4.17px;stroke:#000;"/></g></g><g><path d="M677.208,2295.75l-18.75,0l0,-416.666l18.75,0l0,416.666Z" style="fill:#000;"/><path d="M667.833,2096.79l-208.333,0l0,-18.75l208.333,0l0,18.75Z" style="fill:#000;"/></g><g id="grid"><g id="bold lines"><path d="M2917.84,420.751l0,11666.7" style="fill:none;stroke-width:4.17px;stroke-miterlimit:1;stroke:#000;stroke-opacity:0.298039;"/><path d="M417.835,2920.75l10833.3,0" style="fill:none;stroke-width:4.17px;stroke-miterlimit:1;stroke:#000;stroke-opacity:0.298039;"/><path d="M5001.17,420.751l0,11666.7" style="fill:none;stroke-width:4.17px;stroke-miterlimit:1;stroke:#000;stroke-opacity:0.298039;"/><path d="M7084.5,420.751l0,11666.7" style="fill:none;stroke-width:4.17px;stroke-miterlimit:1;stroke:#000;stroke-opacity:0.298039;"/><path d="M9167.84,420.751l0,11666.7" style="fill:none;stroke-width:4.17px;stroke-miterlimit:1;stroke:#000;stroke-opacity:0.298039;"/><path d="M417.835,5004.08l10833.3,0" style="fill:none;stroke-width:4.17px;stroke-miterlimit:1;stroke:#000;stroke-opacity:0.298039;"/><path d="M417.835,837.418l10833.3,0" style="fill:none;stroke-width:4.17px;stroke-miterlimit:1;stroke:#000;stroke-opacity:0.298039;"/><path d="M834.501,12087.4l0,-11666.7" style="fill:none;stroke-width:4.17px;stroke-miterlimit:1;stroke:#000;stroke-opacity:0.298039;"/></g><g id="vertical lines"><path d="M417.835,420.751l0,11666.7" style="fill:none;stroke-width:4.17px;stroke-linejoin:miter;stroke-miterlimit:1;stroke-dasharray:41.67,183.33,8.33,183.33;stroke-dashoffset:20.83;stroke:#000;"/><path d="M2917.84,420.751l0,11666.7" style="fill:none;stroke-width:4.17px;stroke-linejoin:miter;stroke-miterlimit:1;stroke-dasharray:41.67,183.33,8.33,183.33;stroke-dashoffset:20.83;stroke:#000;"/><path d="M5417.84,420.751l0,11666.7" style="fill:none;stroke-width:4.17px;stroke-linejoin:miter;stroke-miterlimit:1;stroke-dasharray:41.67,183.33,8.33,183.33;stroke-dashoffset:20.83;stroke:#000;"/><path d="M7917.84,420.751l0,11666.7" style="fill:none;stroke-width:4.17px;stroke-linejoin:miter;stroke-miterlimit:1;stroke-dasharray:41.67,183.33,8.33,183.33;stroke-dashoffset:20.83;stroke:#000;"/><path d="M1251.17,420.751l0,11666.7" style="fill:none;stroke-width:4.17px;stroke-linejoin:miter;stroke-miterlimit:1;stroke-dasharray:41.67,183.33,8.33,183.33;stroke-dashoffset:20.83;stroke:#000;"/><path d="M3751.17,420.751l0,11666.7" style="fill:none;stroke-width:4.17px;stroke-linejoin:miter;stroke-miterlimit:1;stroke-dasharray:41.67,183.33,8.33,183.33;stroke-dashoffset:20.83;stroke:#000;"/><path d="M6251.17,420.751l0,11666.7" style="fill:none;stroke-width:4.17px;stroke-linejoin:miter;stroke-miterlimit:1;stroke-dasharray:41.67,183.33,8.33,183.33;stroke-dashoffset:20.83;stroke:#000;"/><path d="M8751.17,420.751l0,11666.7" style="fill:none;stroke-width:4.17px;stroke-linejoin:miter;stroke-miterlimit:1;stroke-dasharray:41.67,183.33,8.33,183.33;stroke-dashoffset:20.83;stroke:#000;"/><path d="M2084.5,420.751l0,11666.7" style="fill:none;stroke-width:4.17px;stroke-linejoin:miter;stroke-miterlimit:1;stroke-dasharray:41.67,183.33,8.33,183.33;stroke-dashoffset:20.83;stroke:#000;"/><path d="M4584.5,420.751l0,11666.7" style="fill:none;stroke-width:4.17px;stroke-linejoin:miter;stroke-miterlimit:1;stroke-dasharray:41.67,183.33,8.33,183.33;stroke-dashoffset:20.83;stroke:#000;"/><path d="M7084.5,420.751l0,11666.7" style="fill:none;stroke-width:4.17px;stroke-linejoin:miter;stroke-miterlimit:1;stroke-dasharray:41.67,183.33,8.33,183.33;stroke-dashoffset:20.83;stroke:#000;"/><path d="M9584.5,420.751l0,11666.7" style="fill:none;stroke-width:4.17px;stroke-linejoin:miter;stroke-miterlimit:1;stroke-dasharray:41.67,183.33,8.33,183.33;stroke-dashoffset:20.83;stroke:#000;"/><path d="M834.501,420.751l0,11666.7" style="fill:none;stroke-width:4.17px;stroke-linejoin:miter;stroke-miterlimit:1;stroke-dasharray:41.67,183.33,8.33,183.33;stroke-dashoffset:20.83;stroke:#000;"/><path d="M3334.5,420.751l0,11666.7" style="fill:none;stroke-width:4.17px;stroke-linejoin:miter;stroke-miterlimit:1;stroke-dasharray:41.67,183.33,8.33,183.33;stroke-dashoffset:20.83;stroke:#000;"/><path d="M5834.5,420.751l0,11666.7" style="fill:none;stroke-width:4.17px;stroke-linejoin:miter;stroke-miterlimit:1;stroke-dasharray:41.67,183.33,8.33,183.33;stroke-dashoffset:20.83;stroke:#000;"/><path d="M8334.5,420.751l0,11666.7" style="fill:none;stroke-width:4.17px;stroke-linejoin:miter;stroke-miterlimit:1;stroke-dasharray:41.67,183.33,8.33,183.33;stroke-dashoffset:20.83;stroke:#000;"/><path d="M1667.84,420.751l0,11666.7" style="fill:none;stroke-width:4.17px;stroke-linejoin:miter;stroke-miterlimit:1;stroke-dasharray:41.67,183.33,8.33,183.33;stroke-dashoffset:20.83;stroke:#000;"/><path d="M4167.84,420.751l0,11666.7" style="fill:none;stroke-width:4.17px;stroke-linejoin:miter;stroke-miterlimit:1;stroke-dasharray:41.67,183.33,8.33,183.33;stroke-dashoffset:20.83;stroke:#000;"/><path d="M6667.84,420.751l0,11666.7" style="fill:none;stroke-width:4.17px;stroke-linejoin:miter;stroke-miterlimit:1;stroke-dasharray:41.67,183.33,8.33,183.33;stroke-dashoffset:20.83;stroke:#000;"/><path d="M9167.84,420.751l0,11666.7" style="fill:none;stroke-width:4.17px;stroke-linejoin:miter;stroke-miterlimit:1;stroke-dasharray:41.67,183.33,8.33,183.33;stroke-dashoffset:20.83;stroke:#000;"/><path d="M2501.17,420.751l0,11666.7" style="fill:none;stroke-width:4.17px;stroke-linejoin:miter;stroke-miterlimit:1;stroke-dasharray:41.67,183.33,8.33,183.33;stroke-dashoffset:20.83;stroke:#000;"/><path d="M5001.17,420.751l0,11666.7" style="fill:none;stroke-width:4.17px;stroke-linejoin:miter;stroke-miterlimit:1;stroke-dasharray:41.67,183.33,8.33,183.33;stroke-dashoffset:20.83;stroke:#000;"/><path d="M7501.17,420.751l0,11666.7" style="fill:none;stroke-width:4.17px;stroke-linejoin:miter;stroke-miterlimit:1;stroke-dasharray:41.67,183.33,8.33,183.33;stroke-dashoffset:20.83;stroke:#000;"/></g><g id="horizontal lines"><path d="M417.835,420.751l10833.3,0" style="fill:none;stroke-width:4.17px;stroke-dasharray:41.67,183.33,8.33,183.33;stroke-dashoffset:20.83;stroke:#000;"/><path d="M417.835,2087.42l10833.3,0" style="fill:none;stroke-width:4.17px;stroke-dasharray:41.67,183.33,8.33,183.33;stroke-dashoffset:20.83;stroke:#000;"/><path d="M417.835,3754.08l10833.3,0" style="fill:none;stroke-width:4.17px;stroke-dasharray:41.67,183.33,8.33,183.33;stroke-dashoffset:20.83;stroke:#000;"/><path d="M417.835,5420.75l10833.3,0" style="fill:none;stroke-width:4.17px;stroke-dasharray:41.67,183.33,8.33,183.33;stroke-dashoffset:20.83;stroke:#000;"/><path d="M11251.2,837.418l-10833.3,0" style="fill:none;stroke-width:4.17px;stroke-dasharray:41.67,183.33,8.33,183.33;stroke-dashoffset:20.83;stroke:#000;"/><path d="M11251.2,2504.08l-10833.3,0" style="fill:none;stroke-width:4.17px;stroke-dasharray:41.67,183.33,8.33,183.33;stroke-dashoffset:20.83;stroke:#000;"/><path d="M11251.2,4170.75l-10833.3,0" style="fill:none;stroke-width:4.17px;stroke-dasharray:41.67,183.33,8.33,183.33;stroke-dashoffset:20.83;stroke:#000;"/><path d="M417.835,1254.08l10833.3,0" style="fill:none;stroke-width:4.17px;stroke-dasharray:41.67,183.33,8.33,183.33;stroke-dashoffset:20.83;stroke:#000;"/><path d="M417.835,2920.75l10833.3,0" style="fill:none;stroke-width:4.17px;stroke-dasharray:41.67,183.33,8.33,183.33;stroke-dashoffset:20.83;stroke:#000;"/><path d="M417.835,4587.42l10833.3,0" style="fill:none;stroke-width:4.17px;stroke-dasharray:41.67,183.33,8.33,183.33;stroke-dashoffset:20.83;stroke:#000;"/><path d="M417.835,1670.75l10833.3,0" style="fill:none;stroke-width:4.17px;stroke-dasharray:41.67,183.33,8.33,183.33;stroke-dashoffset:20.83;stroke:#000;"/><path d="M417.835,3337.42l10833.3,0" style="fill:none;stroke-width:4.17px;stroke-dasharray:41.67,183.33,8.33,183.33;stroke-dashoffset:20.83;stroke:#000;"/><path d="M417.835,5004.08l10833.3,0" style="fill:none;stroke-width:4.17px;stroke-dasharray:41.67,183.33,8.33,183.33;stroke-dashoffset:20.83;stroke:#000;"/></g><g id="top labels"><rect x="626.168" y="212.418" width="416.667" height="208.333" style="fill:#808080;stroke-width:4.17px;stroke:#000;"/><rect x="2709.5" y="212.418" width="416.667" height="208.333" style="fill:#808080;stroke-width:4.17px;stroke:#000;"/><rect x="4792.84" y="212.418" width="416.667" height="208.333" style="fill:#808080;stroke-width:4.17px;stroke:#000;"/><rect x="6876.17" y="212.418" width="416.667" height="208.333" style="fill:#808080;stroke-width:4.17px;stroke:#000;"/><rect x="8959.5" y="212.418" width="416.667" height="208.333" style="fill:#808080;stroke-width:4.17px;stroke:#000;"/><rect x="1042.84" y="212.418" width="416.667" height="208.333" style="fill:#808080;stroke-width:4.17px;stroke:#000;"/><rect x="3126.17" y="212.418" width="416.667" height="208.333" style="fill:#808080;stroke-width:4.17px;stroke:#000;"/><rect x="5209.5" y="212.418" width="416.667" height="208.333" style="fill:#808080;stroke-width:4.17px;stroke:#000;"/><rect x="7292.84" y="212.418" width="416.667" height="208.333" style="fill:#808080;stroke-width:4.17px;stroke:#000;"/><rect x="9376.17" y="212.418" width="416.667" height="208.333" style="fill:#808080;stroke-width:4.17px;stroke:#000;"/><rect x="1459.5" y="212.418" width="416.667" height="208.333" style="fill:#808080;stroke-width:4.17px;stroke:#000;"/><rect x="3542.84" y="212.418" width="416.667" height="208.333" style="fill:#808080;stroke-width:4.17px;stroke:#000;"/><rect x="5626.17" y="212.418" width="416.667" height="208.333" style="fill:#808080;stroke-width:4.17px;stroke:#000;"/><rect x="7709.5" y="212.418" width="416.667" height="208.333" style="fill:#808080;stroke-width:4.17px;stroke:#000;"/><rect x="1876.17" y="212.418" width="416.667" height="208.333" style="fill:#808080;stroke-width:4.17px;stroke:#000;"/><rect x="3959.5" y="212.418" width="416.667" height="208.333" style="fill:#808080;stroke-width:4.17px;stroke:#000;"/><rect x="6042.84" y="212.418" width="416.667" height="208.333" style="fill:#808080;stroke-width:4.17px;stroke:#000;"/><rect x="8126.17" y="212.418" width="416.667" height="208.333" style="fill:#808080;stroke-width:4.17px;stroke:#000;"/><rect x="2292.84" y="212.418" width="416.667" height="208.333" style="fill:#808080;stroke-width:4.17px;stroke:#000;"/><rect x="4376.17" y="212.418" width="416.667" height="208.333" style="fill:#808080;stroke-width:4.17px;stroke:#000;"/><rect x="6459.5" y="212.418" width="416.667" height="208.333" style="fill:#808080;stroke-width:4.17px;stroke:#000;"/><rect x="8542.84" y="212.418" width="416.667" height="208.333" style="fill:#808080;stroke-width:4.17px;stroke:#000;"/><text x="784.542px" y="375.247px" style="font-family:'ArialMT';font-size:150px;fill:#000;stroke-width:4.17px;stroke:#000;">A</text><text x="2867.88px" y="375.247px" style="font-family:'ArialMT';font-size:150px;fill:#000;stroke-width:4.17px;stroke:#000;">F</text><text x="4951.21px" y="375.247px" style="font-family:'ArialMT';font-size:150px;fill:#000;stroke-width:4.17px;stroke:#000;">K</text><text x="7034.54px" y="375.247px" style="font-family:'ArialMT';font-size:150px;fill:#000;stroke-width:4.17px;stroke:#000;">P</text><text x="9117.88px" y="375.247px" style="font-family:'ArialMT';font-size:150px;fill:#000;stroke-width:4.17px;stroke:#000;">U</text><text x="1201.21px" y="375.247px" style="font-family:'ArialMT';font-size:150px;fill:#000;stroke-width:4.17px;stroke:#000;">B</text><text x="3284.54px" y="375.247px" style="font-family:'ArialMT';font-size:150px;fill:#000;stroke-width:4.17px;stroke:#000;">G</text><text x="5367.88px" y="375.247px" style="font-family:'ArialMT';font-size:150px;fill:#000;stroke-width:4.17px;stroke:#000;">L</text><text x="7451.21px" y="375.247px" style="font-family:'ArialMT';font-size:150px;fill:#000;stroke-width:4.17px;stroke:#000;">Q</text><text x="9534.54px" y="375.247px" style="font-family:'ArialMT';font-size:150px;fill:#000;stroke-width:4.17px;stroke:#000;">V</text><text x="1617.88px" y="375.247px" style="font-family:'ArialMT';font-size:150px;fill:#000;stroke-width:4.17px;stroke:#000;">C</text><text x="3701.21px" y="375.247px" style="font-family:'ArialMT';font-size:150px;fill:#000;stroke-width:4.17px;stroke:#000;">H</text><text x="5784.54px" y="375.247px" style="font-family:'ArialMT';font-size:150px;fill:#000;stroke-width:4.17px;stroke:#000;">M</text><text x="7867.88px" y="375.247px" style="font-family:'ArialMT';font-size:150px;fill:#000;stroke-width:4.17px;stroke:#000;">R</text><text x="2034.54px" y="375.247px" style="font-family:'ArialMT';font-size:150px;fill:#000;stroke-width:4.17px;stroke:#000;">D</text><text x="4147.06px" y="375.247px" style="font-family:'ArialMT';font-size:150px;fill:#000;stroke-width:4.17px;stroke:#000;">I</text><text x="6201.21px" y="375.247px" style="font-family:'ArialMT';font-size:150px;fill:#000;stroke-width:4.17px;stroke:#000;">N</text><text x="8284.54px" y="375.247px" style="font-family:'ArialMT';font-size:150px;fill:#000;stroke-width:4.17px;stroke:#000;">S</text><text x="2451.21px" y="375.247px" style="font-family:'ArialMT';font-size:150px;fill:#000;stroke-width:4.17px;stroke:#000;">E</text><text x="4534.54px" y="375.247px" style="font-family:'ArialMT';font-size:150px;fill:#000;stroke-width:4.17px;stroke:#000;">J</text><text x="6617.88px" y="375.247px" style="font-family:'ArialMT';font-size:150px;fill:#000;stroke-width:4.17px;stroke:#000;">O</text><text x="8701.21px" y="375.247px" style="font-family:'ArialMT';font-size:150px;fill:#000;stroke-width:4.17px;stroke:#000;">T</text></g><g id="top numbers"><text x="1221.04px" y="194.758px" style="font-family:'ArialMT';font-size:83.333px;fill:#000;stroke-width:4.17px;stroke:#000;">1</text><text x="811.328px" y="194.758px" style="font-family:'ArialMT';font-size:83.333px;fill:#000;stroke-width:4.17px;stroke:#000;">0</text><text x="3304.37px" y="194.758px" style="font-family:'ArialMT';font-size:83.333px;fill:#000;stroke-width:4.17px;stroke:#000;">6</text><text x="5368.32px" y="194.758px" style="font-family:'ArialMT';font-size:83.333px;fill:#000;stroke-width:4.17px;stroke:#000;">1<tspan x="5408.48px " y="194.758px ">1</tspan></text><text x="7454.82px" y="194.758px" style="font-family:'ArialMT';font-size:83.333px;fill:#000;stroke-width:4.17px;stroke:#000;">16</text><text x="9538.16px" y="194.758px" style="font-family:'ArialMT';font-size:83.333px;fill:#000;stroke-width:4.17px;stroke:#000;">21</text><text x="1637.7px" y="194.758px" style="font-family:'ArialMT';font-size:83.333px;fill:#000;stroke-width:4.17px;stroke:#000;">2</text><text x="3723.32px" y="194.758px" style="font-family:'ArialMT';font-size:83.333px;fill:#000;stroke-width:4.17px;stroke:#000;">7</text><text x="5788.15px" y="194.758px" style="font-family:'ArialMT';font-size:83.333px;fill:#000;stroke-width:4.17px;stroke:#000;">12</text><text x="7866.81px" y="194.758px" style="font-family:'ArialMT';font-size:83.333px;fill:#000;stroke-width:4.17px;stroke:#000;">17</text><text x="2054.37px" y="194.758px" style="font-family:'ArialMT';font-size:83.333px;fill:#000;stroke-width:4.17px;stroke:#000;">3</text><text x="4139.98px" y="194.758px" style="font-family:'ArialMT';font-size:83.333px;fill:#000;stroke-width:4.17px;stroke:#000;">8</text><text x="6204.82px" y="194.758px" style="font-family:'ArialMT';font-size:83.333px;fill:#000;stroke-width:4.17px;stroke:#000;">13</text><text x="8283.48px" y="194.758px" style="font-family:'ArialMT';font-size:83.333px;fill:#000;stroke-width:4.17px;stroke:#000;">18</text><text x="2471.04px" y="194.758px" style="font-family:'ArialMT';font-size:83.333px;fill:#000;stroke-width:4.17px;stroke:#000;">4</text><text x="4556.65px" y="194.758px" style="font-family:'ArialMT';font-size:83.333px;fill:#000;stroke-width:4.17px;stroke:#000;">9</text><text x="6621.49px" y="194.758px" style="font-family:'ArialMT';font-size:83.333px;fill:#000;stroke-width:4.17px;stroke:#000;">14</text><text x="8700.14px" y="194.758px" style="font-family:'ArialMT';font-size:83.333px;fill:#000;stroke-width:4.17px;stroke:#000;">19</text><text x="2887.7px" y="194.758px" style="font-family:'ArialMT';font-size:83.333px;fill:#000;stroke-width:4.17px;stroke:#000;">5</text><text x="4954.82px" y="194.758px" style="font-family:'ArialMT';font-size:83.333px;fill:#000;stroke-width:4.17px;stroke:#000;">10</text><text x="7033.48px" y="194.758px" style="font-family:'ArialMT';font-size:83.333px;fill:#000;stroke-width:4.17px;stroke:#000;">15</text><text x="9116.81px" y="194.758px" style="font-family:'ArialMT';font-size:83.333px;fill:#000;stroke-width:4.17px;stroke:#000;">20</text></g><g id="side labels"><rect x="209.501" y="1045.75" width="208.333" height="416.667" style="fill:#808080;stroke-width:4.17px;stroke:#000;"/><rect x="209.501" y="629.084" width="208.333" height="416.667" style="fill:#808080;stroke-width:4.17px;stroke:#000;"/><rect x="209.501" y="2712.42" width="208.333" height="416.667" style="fill:#808080;stroke-width:4.17px;stroke:#000;"/><rect x="209.501" y="4379.08" width="208.333" height="416.667" style="fill:#808080;stroke-width:4.17px;stroke:#000;"/><rect x="209.501" y="1462.42" width="208.333" height="416.667" style="fill:#808080;stroke-width:4.17px;stroke:#000;"/><rect x="209.501" y="3129.08" width="208.333" height="416.667" style="fill:#808080;stroke-width:4.17px;stroke:#000;"/><rect x="209.501" y="4795.75" width="208.333" height="416.667" style="fill:#808080;stroke-width:4.17px;stroke:#000;"/><rect x="209.501" y="1879.08" width="208.333" height="416.667" style="fill:#808080;stroke-width:4.17px;stroke:#000;"/><rect x="209.501" y="3545.75" width="208.333" height="416.667" style="fill:#808080;stroke-width:4.17px;stroke:#000;"/><rect x="209.501" y="5212.42" width="208.333" height="416.667" style="fill:#808080;stroke-width:4.17px;stroke:#000;"/><rect x="209.501" y="2295.75" width="208.333" height="416.667" style="fill:#808080;stroke-width:4.17px;stroke:#000;"/><rect x="209.501" y="3962.42" width="208.333" height="416.667" style="fill:#808080;stroke-width:4.17px;stroke:#000;"/><text x="271.938px" y="1305.63px" style="font-family:'ArialMT';font-size:150px;fill:#000;stroke-width:4.17px;stroke:#000;">1</text><text x="271.938px" y="888.964px" style="font-family:'ArialMT';font-size:150px;fill:#000;stroke-width:4.17px;stroke:#000;">0</text><text x="271.938px" y="2972.3px" style="font-family:'ArialMT';font-size:150px;fill:#000;stroke-width:4.17px;stroke:#000;">5</text><text x="271.938px" y="4638.96px" style="font-family:'ArialMT';font-size:150px;fill:#000;stroke-width:4.17px;stroke:#000;">9</text><text x="271.938px" y="1722.3px" style="font-family:'ArialMT';font-size:150px;fill:#000;stroke-width:4.17px;stroke:#000;">2</text><text x="271.938px" y="3388.96px" style="font-family:'ArialMT';font-size:150px;fill:#000;stroke-width:4.17px;stroke:#000;">6</text><text x="230.226px" y="5055.63px" style="font-family:'ArialMT';font-size:150px;fill:#000;stroke-width:4.17px;stroke:#000;">10</text><text x="271.938px" y="2138.96px" style="font-family:'ArialMT';font-size:150px;fill:#000;stroke-width:4.17px;stroke:#000;">3</text><text x="271.938px" y="3805.63px" style="font-family:'ArialMT';font-size:150px;fill:#000;stroke-width:4.17px;stroke:#000;">7</text><text x="235.793px" y="5472.3px" style="font-family:'ArialMT';font-size:150px;fill:#000;stroke-width:4.17px;stroke:#000;">1<tspan x="308.083px " y="5472.3px ">1</tspan></text><text x="271.938px" y="2555.63px" style="font-family:'ArialMT';font-size:150px;fill:#000;stroke-width:4.17px;stroke:#000;">4</text><text x="271.938px" y="4222.3px" style="font-family:'ArialMT';font-size:150px;fill:#000;stroke-width:4.17px;stroke:#000;">8</text></g><rect x="1.168" y="4.084" width="416.667" height="416.667" style="fill:none;stroke-width:4.17px;stroke-miterlimit:1;stroke:#000;"/><rect x="209.501" y="212.418" width="416.667" height="416.667" style="fill:#808080;stroke-width:4.17px;stroke:#000;"/><text x="232.613px" y="528.433px" style="font-family:'ArialMT';font-size:266.667px;fill:#000;stroke-width:4.17px;stroke:#000;">1m</text></g></g></svg>