<?xml version="1.0" standalone="no"?><!DOCTYPE svg PUBLIC "-//W3C//DTD SVG 1.1//EN" "http://www.w3.org/Graphics/SVG/1.1/DTD/svg11.dtd"><svg width="100%" height="100%" viewBox="0 0 5421 9588" version="1.1" xmlns="http://www.w3.org/2000/svg" xmlns:xlink="http://www.w3.org/1999/xlink" xml:space="preserve" style="fill-rule:evenodd;clip-rule:evenodd;stroke-linejoin:round;stroke-miterlimit:1.41421;"><clipPath id="_clip1"><rect id="figure 8" x="2.016" y="3.777" width="5416.67" height="9583.33"/></clipPath><g clip-path="url(#_clip1)"><g id="Layer3"><path d="M3960.35,2920.44c0,574.911 -466.755,1041.67 -1041.67,1041.67c-574.912,0 -1041.67,-466.756 -1041.67,-1041.67c0,-574.911 466.755,-1041.67 1041.67,-1041.67c574.911,0 1041.67,466.756 1041.67,1041.67Z" style="fill:none;stroke-width:20.83px;stroke:#000;"/><path d="M3960.35,5628.78c0,574.912 -466.755,1041.67 -1041.67,1041.67c-574.912,0 -1041.67,-466.755 -1041.67,-1041.67c0,-574.911 466.755,-1041.67 1041.67,-1041.67c574.911,0 1041.67,466.755 1041.67,1041.67Z" style="fill:none;stroke-width:20.83px;stroke:#000;"/><path d="M1623.12,4274.61c-357.096,-340.986 -579.432,-821.817 -579.432,-1354.17c0,-1034.84 840.159,-1875 1875,-1875c1034.84,0 1875,840.159 1875,1875c0,532.35 -222.336,1013.18 -579.433,1354.17c357.097,340.986 579.433,821.816 579.433,1354.17c0,1034.84 -840.16,1875 -1875,1875c-1034.84,0 -1875,-840.159 -1875,-1875c0,-532.35 222.336,-1013.18 579.432,-1354.17Z" style="fill:none;stroke-width:20.83px;stroke:#000;"/></g><path d="M752.016,1170.44c261.506,360.915 784.517,1082.75 875,1708.33c82.168,568.1 520.009,1297.5 1333.33,1375c751.826,71.639 1390.54,699.75 1416.67,1375c27.328,706.168 -693.311,1478.75 -1458.33,1458.33c-692.504,-18.482 -1535.4,-812.592 -1458.33,-1458.33c69.367,-581.237 676.959,-1308.65 1333.33,-1375c692.556,-70.012 1496.83,-565.212 1583.33,-1291.67c88.07,-739.599 -714.835,-1532.77 -1458.33,-1500c-820.611,36.166 -1386.01,825.798 -1500,1500c-138.854,821.261 -541.667,2041.67 -541.667,2041.67" style="fill:none;stroke-width:33.33px;stroke-dasharray:100,200,0,0;stroke:#14a90c;stroke-opacity:0.698039;"/><path d="M935.963,1395.34l-360.174,-204.915l178.884,-167.71l181.29,372.625Z" style="fill:#000;"/><g id="Layer6"><g><circle cx="3960.35" cy="2920.44" r="83.333" style="fill:#fcd1d1;stroke-width:4.17px;stroke:#000;"/><circle cx="3960.35" cy="2920.44" r="41.667" style="fill:#fc2e30;stroke-width:4.17px;stroke:#000;"/></g><g><circle cx="2918.68" cy="2920.44" r="83.333" style="fill:#fcd1d1;stroke-width:4.17px;stroke:#000;"/><circle cx="2918.68" cy="2920.44" r="41.667" style="fill:#fc2e30;stroke-width:4.17px;stroke:#000;"/></g><g><circle cx="1877.02" cy="2920.44" r="83.333" style="fill:#fcd1d1;stroke-width:4.17px;stroke:#000;"/><circle cx="1877.02" cy="2920.44" r="41.667" style="fill:#fc2e30;stroke-width:4.17px;stroke:#000;"/></g><g><circle cx="1585.35" cy="1587.11" r="83.333" style="fill:#fcd1d1;stroke-width:4.17px;stroke:#000;"/><circle cx="1585.35" cy="1587.11" r="41.667" style="fill:#fc2e30;stroke-width:4.17px;stroke:#000;"/></g><g><circle cx="4252.02" cy="1587.11" r="83.333" style="fill:#fcd1d1;stroke-width:4.17px;stroke:#000;"/><circle cx="4252.02" cy="1587.11" r="41.667" style="fill:#fc2e30;stroke-width:4.17px;stroke:#000;"/></g><g><circle cx="1585.35" cy="4253.78" r="83.333" style="fill:#fcd1d1;stroke-width:4.17px;stroke:#000;"/><circle cx="1585.35" cy="4253.78" r="41.667" style="fill:#fc2e30;stroke-width:4.17px;stroke:#000;"/></g><g><circle cx="4252.02" cy="4253.78" r="83.333" style="fill:#fcd1d1;stroke-width:4.17px;stroke:#000;"/><circle cx="4252.02" cy="4253.78" r="41.667" style="fill:#fc2e30;stroke-width:4.17px;stroke:#000;"/></g><g><circle cx="1043.68" cy="2920.44" r="83.333" style="fill:#fcd1d1;stroke-width:4.17px;stroke:#000;"/><circle cx="1043.68" cy="2920.44" r="41.667" style="fill:#fc2e30;stroke-width:4.17px;stroke:#000;"/></g><g><circle cx="2918.68" cy="3962.11" r="83.333" style="fill:#fcd1d1;stroke-width:4.17px;stroke:#000;"/><circle cx="2918.68" cy="3962.11" r="41.667" style="fill:#fc2e30;stroke-width:4.17px;stroke:#000;"/></g><g><circle cx="2918.68" cy="1878.78" r="83.333" style="fill:#fcd1d1;stroke-width:4.17px;stroke:#000;"/><circle cx="2918.68" cy="1878.78" r="41.667" style="fill:#fc2e30;stroke-width:4.17px;stroke:#000;"/></g><g><circle cx="2918.68" cy="4587.11" r="83.333" style="fill:#fcd1d1;stroke-width:4.17px;stroke:#000;"/><circle cx="2918.68" cy="4587.11" r="41.667" style="fill:#fc2e30;stroke-width:4.17px;stroke:#000;"/></g><g><circle cx="2918.68" cy="1045.44" r="83.333" style="fill:#fcd1d1;stroke-width:4.17px;stroke:#000;"/><circle cx="2918.68" cy="1045.44" r="41.667" style="fill:#fc2e30;stroke-width:4.17px;stroke:#000;"/></g><g><circle cx="4793.68" cy="2920.44" r="83.333" style="fill:#fcd1d1;stroke-width:4.17px;stroke:#000;"/><circle cx="4793.68" cy="2920.44" r="41.667" style="fill:#fc2e30;stroke-width:4.17px;stroke:#000;"/></g></g><g id="grid"><g id="bold lines"><path d="M2918.68,420.444l0,11666.7" style="fill:none;stroke-width:4.17px;stroke-miterlimit:1;stroke:#000;stroke-opacity:0.298039;"/><path d="M418.683,2920.44l10833.3,0" style="fill:none;stroke-width:4.17px;stroke-miterlimit:1;stroke:#000;stroke-opacity:0.298039;"/><path d="M5002.02,420.444l0,11666.7" style="fill:none;stroke-width:4.17px;stroke-miterlimit:1;stroke:#000;stroke-opacity:0.298039;"/><path d="M418.683,5003.78l10833.3,0" style="fill:none;stroke-width:4.17px;stroke-miterlimit:1;stroke:#000;stroke-opacity:0.298039;"/><path d="M418.683,7087.11l10833.3,0" style="fill:none;stroke-width:4.17px;stroke-miterlimit:1;stroke:#000;stroke-opacity:0.298039;"/><path d="M418.683,9170.44l10833.3,0" style="fill:none;stroke-width:4.17px;stroke-miterlimit:1;stroke:#000;stroke-opacity:0.298039;"/><path d="M418.683,837.111l10833.3,0" style="fill:none;stroke-width:4.17px;stroke-miterlimit:1;stroke:#000;stroke-opacity:0.298039;"/><path d="M835.349,12087.1l0,-11666.7" style="fill:none;stroke-width:4.17px;stroke-miterlimit:1;stroke:#000;stroke-opacity:0.298039;"/></g><g id="vertical lines"><path d="M418.683,420.444l0,11666.7" style="fill:none;stroke-width:4.17px;stroke-linejoin:miter;stroke-miterlimit:1;stroke-dasharray:41.67,183.33,8.33,183.33;stroke-dashoffset:20.83;stroke:#000;"/><path d="M2918.68,420.444l0,11666.7" style="fill:none;stroke-width:4.17px;stroke-linejoin:miter;stroke-miterlimit:1;stroke-dasharray:41.67,183.33,8.33,183.33;stroke-dashoffset:20.83;stroke:#000;"/><path d="M5418.68,420.444l0,11666.7" style="fill:none;stroke-width:4.17px;stroke-linejoin:miter;stroke-miterlimit:1;stroke-dasharray:41.67,183.33,8.33,183.33;stroke-dashoffset:20.83;stroke:#000;"/><path d="M1252.02,420.444l0,11666.7" style="fill:none;stroke-width:4.17px;stroke-linejoin:miter;stroke-miterlimit:1;stroke-dasharray:41.67,183.33,8.33,183.33;stroke-dashoffset:20.83;stroke:#000;"/><path d="M3752.02,420.444l0,11666.7" style="fill:none;stroke-width:4.17px;stroke-linejoin:miter;stroke-miterlimit:1;stroke-dasharray:41.67,183.33,8.33,183.33;stroke-dashoffset:20.83;stroke:#000;"/><path d="M2085.35,420.444l0,11666.7" style="fill:none;stroke-width:4.17px;stroke-linejoin:miter;stroke-miterlimit:1;stroke-dasharray:41.67,183.33,8.33,183.33;stroke-dashoffset:20.83;stroke:#000;"/><path d="M4585.35,420.444l0,11666.7" style="fill:none;stroke-width:4.17px;stroke-linejoin:miter;stroke-miterlimit:1;stroke-dasharray:41.67,183.33,8.33,183.33;stroke-dashoffset:20.83;stroke:#000;"/><path d="M835.349,420.444l0,11666.7" style="fill:none;stroke-width:4.17px;stroke-linejoin:miter;stroke-miterlimit:1;stroke-dasharray:41.67,183.33,8.33,183.33;stroke-dashoffset:20.83;stroke:#000;"/><path d="M3335.35,420.444l0,11666.7" style="fill:none;stroke-width:4.17px;stroke-linejoin:miter;stroke-miterlimit:1;stroke-dasharray:41.67,183.33,8.33,183.33;stroke-dashoffset:20.83;stroke:#000;"/><path d="M1668.68,420.444l0,11666.7" style="fill:none;stroke-width:4.17px;stroke-linejoin:miter;stroke-miterlimit:1;stroke-dasharray:41.67,183.33,8.33,183.33;stroke-dashoffset:20.83;stroke:#000;"/><path d="M4168.68,420.444l0,11666.7" style="fill:none;stroke-width:4.17px;stroke-linejoin:miter;stroke-miterlimit:1;stroke-dasharray:41.67,183.33,8.33,183.33;stroke-dashoffset:20.83;stroke:#000;"/><path d="M2502.02,420.444l0,11666.7" style="fill:none;stroke-width:4.17px;stroke-linejoin:miter;stroke-miterlimit:1;stroke-dasharray:41.67,183.33,8.33,183.33;stroke-dashoffset:20.83;stroke:#000;"/><path d="M5002.02,420.444l0,11666.7" style="fill:none;stroke-width:4.17px;stroke-linejoin:miter;stroke-miterlimit:1;stroke-dasharray:41.67,183.33,8.33,183.33;stroke-dashoffset:20.83;stroke:#000;"/></g><g id="horizontal lines"><path d="M418.683,420.444l10833.3,0" style="fill:none;stroke-width:4.17px;stroke-dasharray:41.67,183.33,8.33,183.33;stroke-dashoffset:20.83;stroke:#000;"/><path d="M418.683,2087.11l10833.3,0" style="fill:none;stroke-width:4.17px;stroke-dasharray:41.67,183.33,8.33,183.33;stroke-dashoffset:20.83;stroke:#000;"/><path d="M418.683,3753.78l10833.3,0" style="fill:none;stroke-width:4.17px;stroke-dasharray:41.67,183.33,8.33,183.33;stroke-dashoffset:20.83;stroke:#000;"/><path d="M418.683,5420.44l10833.3,0" style="fill:none;stroke-width:4.17px;stroke-dasharray:41.67,183.33,8.33,183.33;stroke-dashoffset:20.83;stroke:#000;"/><path d="M11252,837.111l-10833.3,0" style="fill:none;stroke-width:4.17px;stroke-dasharray:41.67,183.33,8.33,183.33;stroke-dashoffset:20.83;stroke:#000;"/><path d="M11252,2503.78l-10833.3,0" style="fill:none;stroke-width:4.17px;stroke-dasharray:41.67,183.33,8.33,183.33;stroke-dashoffset:20.83;stroke:#000;"/><path d="M11252,4170.44l-10833.3,0" style="fill:none;stroke-width:4.17px;stroke-dasharray:41.67,183.33,8.33,183.33;stroke-dashoffset:20.83;stroke:#000;"/><path d="M11252,5837.11l-10833.3,0" style="fill:none;stroke-width:4.17px;stroke-dasharray:41.67,183.33,8.33,183.33;stroke-dashoffset:20.83;stroke:#000;"/><path d="M418.683,1253.78l10833.3,0" style="fill:none;stroke-width:4.17px;stroke-dasharray:41.67,183.33,8.33,183.33;stroke-dashoffset:20.83;stroke:#000;"/><path d="M418.683,2920.44l10833.3,0" style="fill:none;stroke-width:4.17px;stroke-dasharray:41.67,183.33,8.33,183.33;stroke-dashoffset:20.83;stroke:#000;"/><path d="M418.683,4587.11l10833.3,0" style="fill:none;stroke-width:4.17px;stroke-dasharray:41.67,183.33,8.33,183.33;stroke-dashoffset:20.83;stroke:#000;"/><path d="M418.683,6253.78l10833.3,0" style="fill:none;stroke-width:4.17px;stroke-dasharray:41.67,183.33,8.33,183.33;stroke-dashoffset:20.83;stroke:#000;"/><path d="M418.683,1670.44l10833.3,0" style="fill:none;stroke-width:4.17px;stroke-dasharray:41.67,183.33,8.33,183.33;stroke-dashoffset:20.83;stroke:#000;"/><path d="M418.683,3337.11l10833.3,0" style="fill:none;stroke-width:4.17px;stroke-dasharray:41.67,183.33,8.33,183.33;stroke-dashoffset:20.83;stroke:#000;"/><path d="M418.683,5003.78l10833.3,0" style="fill:none;stroke-width:4.17px;stroke-dasharray:41.67,183.33,8.33,183.33;stroke-dashoffset:20.83;stroke:#000;"/><path d="M418.683,6670.44l10833.3,0" style="fill:none;stroke-width:4.17px;stroke-dasharray:41.67,183.33,8.33,183.33;stroke-dashoffset:20.83;stroke:#000;"/><path d="M418.683,7503.78l10833.3,0" style="fill:none;stroke-width:4.17px;stroke-dasharray:41.67,183.33,8.33,183.33;stroke-dashoffset:20.83;stroke:#000;"/><path d="M418.683,8337.11l10833.3,0" style="fill:none;stroke-width:4.17px;stroke-dasharray:41.67,183.33,8.33,183.33;stroke-dashoffset:20.83;stroke:#000;"/><path d="M418.683,9170.44l10833.3,0" style="fill:none;stroke-width:4.17px;stroke-dasharray:41.67,183.33,8.33,183.33;stroke-dashoffset:20.83;stroke:#000;"/><path d="M418.683,7087.11l10833.3,0" style="fill:none;stroke-width:4.17px;stroke-dasharray:41.67,183.33,8.33,183.33;stroke-dashoffset:20.83;stroke:#000;"/><path d="M418.683,7920.44l10833.3,0" style="fill:none;stroke-width:4.17px;stroke-dasharray:41.67,183.33,8.33,183.33;stroke-dashoffset:20.83;stroke:#000;"/><path d="M418.683,8753.78l10833.3,0" style="fill:none;stroke-width:4.17px;stroke-dasharray:41.67,183.33,8.33,183.33;stroke-dashoffset:20.83;stroke:#000;"/><path d="M418.683,9587.11l10833.3,0" style="fill:none;stroke-width:4.17px;stroke-dasharray:41.67,183.33,8.33,183.33;stroke-dashoffset:20.83;stroke:#000;"/></g><g id="top labels"><rect x="627.016" y="212.111" width="416.667" height="208.333" style="fill:#808080;stroke-width:4.17px;stroke:#000;"/><rect x="2710.35" y="212.111" width="416.667" height="208.333" style="fill:#808080;stroke-width:4.17px;stroke:#000;"/><rect x="4793.68" y="212.111" width="416.667" height="208.333" style="fill:#808080;stroke-width:4.17px;stroke:#000;"/><rect x="1043.68" y="212.111" width="416.667" height="208.333" style="fill:#808080;stroke-width:4.17px;stroke:#000;"/><rect x="3127.02" y="212.111" width="416.667" height="208.333" style="fill:#808080;stroke-width:4.17px;stroke:#000;"/><rect x="5210.35" y="212.111" width="416.667" height="208.333" style="fill:#808080;stroke-width:4.17px;stroke:#000;"/><rect x="1460.35" y="212.111" width="416.667" height="208.333" style="fill:#808080;stroke-width:4.17px;stroke:#000;"/><rect x="3543.68" y="212.111" width="416.667" height="208.333" style="fill:#808080;stroke-width:4.17px;stroke:#000;"/><rect x="1877.02" y="212.111" width="416.667" height="208.333" style="fill:#808080;stroke-width:4.17px;stroke:#000;"/><rect x="3960.35" y="212.111" width="416.667" height="208.333" style="fill:#808080;stroke-width:4.17px;stroke:#000;"/><rect x="2293.68" y="212.111" width="416.667" height="208.333" style="fill:#808080;stroke-width:4.17px;stroke:#000;"/><rect x="4377.02" y="212.111" width="416.667" height="208.333" style="fill:#808080;stroke-width:4.17px;stroke:#000;"/><text x="785.39px" y="374.94px" style="font-family:'ArialMT';font-size:150px;fill:#000;stroke-width:4.17px;stroke:#000;">A</text><text x="2868.72px" y="374.94px" style="font-family:'ArialMT';font-size:150px;fill:#000;stroke-width:4.17px;stroke:#000;">F</text><text x="4952.06px" y="374.94px" style="font-family:'ArialMT';font-size:150px;fill:#000;stroke-width:4.17px;stroke:#000;">K</text><text x="1202.06px" y="374.94px" style="font-family:'ArialMT';font-size:150px;fill:#000;stroke-width:4.17px;stroke:#000;">B</text><text x="3285.39px" y="374.94px" style="font-family:'ArialMT';font-size:150px;fill:#000;stroke-width:4.17px;stroke:#000;">G</text><text x="5368.72px" y="374.94px" style="font-family:'ArialMT';font-size:150px;fill:#000;stroke-width:4.17px;stroke:#000;">L</text><text x="1618.72px" y="374.94px" style="font-family:'ArialMT';font-size:150px;fill:#000;stroke-width:4.17px;stroke:#000;">C</text><text x="3702.06px" y="374.94px" style="font-family:'ArialMT';font-size:150px;fill:#000;stroke-width:4.17px;stroke:#000;">H</text><text x="2035.39px" y="374.94px" style="font-family:'ArialMT';font-size:150px;fill:#000;stroke-width:4.17px;stroke:#000;">D</text><text x="4147.91px" y="374.94px" style="font-family:'ArialMT';font-size:150px;fill:#000;stroke-width:4.17px;stroke:#000;">I</text><text x="2452.06px" y="374.94px" style="font-family:'ArialMT';font-size:150px;fill:#000;stroke-width:4.17px;stroke:#000;">E</text><text x="4535.39px" y="374.94px" style="font-family:'ArialMT';font-size:150px;fill:#000;stroke-width:4.17px;stroke:#000;">J</text></g><g id="top numbers"><text x="1221.88px" y="194.451px" style="font-family:'ArialMT';font-size:83.333px;fill:#000;stroke-width:4.17px;stroke:#000;">1</text><text x="812.176px" y="194.451px" style="font-family:'ArialMT';font-size:83.333px;fill:#000;stroke-width:4.17px;stroke:#000;">0</text><text x="3305.22px" y="194.451px" style="font-family:'ArialMT';font-size:83.333px;fill:#000;stroke-width:4.17px;stroke:#000;">6</text><text x="5369.16px" y="194.451px" style="font-family:'ArialMT';font-size:83.333px;fill:#000;stroke-width:4.17px;stroke:#000;">1<tspan x="5409.32px " y="194.451px ">1</tspan></text><text x="1638.55px" y="194.451px" style="font-family:'ArialMT';font-size:83.333px;fill:#000;stroke-width:4.17px;stroke:#000;">2</text><text x="3724.16px" y="194.451px" style="font-family:'ArialMT';font-size:83.333px;fill:#000;stroke-width:4.17px;stroke:#000;">7</text><text x="2055.22px" y="194.451px" style="font-family:'ArialMT';font-size:83.333px;fill:#000;stroke-width:4.17px;stroke:#000;">3</text><text x="4140.83px" y="194.451px" style="font-family:'ArialMT';font-size:83.333px;fill:#000;stroke-width:4.17px;stroke:#000;">8</text><text x="2471.89px" y="194.451px" style="font-family:'ArialMT';font-size:83.333px;fill:#000;stroke-width:4.17px;stroke:#000;">4</text><text x="4557.5px" y="194.451px" style="font-family:'ArialMT';font-size:83.333px;fill:#000;stroke-width:4.17px;stroke:#000;">9</text><text x="2888.55px" y="194.451px" style="font-family:'ArialMT';font-size:83.333px;fill:#000;stroke-width:4.17px;stroke:#000;">5</text><text x="4955.67px" y="194.451px" style="font-family:'ArialMT';font-size:83.333px;fill:#000;stroke-width:4.17px;stroke:#000;">10</text></g><g id="side labels"><rect x="210.349" y="1045.44" width="208.333" height="416.667" style="fill:#808080;stroke-width:4.17px;stroke:#000;"/><rect x="210.349" y="628.777" width="208.333" height="416.667" style="fill:#808080;stroke-width:4.17px;stroke:#000;"/><rect x="210.349" y="2712.11" width="208.333" height="416.667" style="fill:#808080;stroke-width:4.17px;stroke:#000;"/><rect x="210.349" y="4378.78" width="208.333" height="416.667" style="fill:#808080;stroke-width:4.17px;stroke:#000;"/><rect x="210.349" y="6045.44" width="208.333" height="416.667" style="fill:#808080;stroke-width:4.17px;stroke:#000;"/><rect x="210.349" y="1462.11" width="208.333" height="416.667" style="fill:#808080;stroke-width:4.17px;stroke:#000;"/><rect x="210.349" y="3128.78" width="208.333" height="416.667" style="fill:#808080;stroke-width:4.17px;stroke:#000;"/><rect x="210.349" y="4795.44" width="208.333" height="416.667" style="fill:#808080;stroke-width:4.17px;stroke:#000;"/><rect x="210.349" y="6462.11" width="208.333" height="416.667" style="fill:#808080;stroke-width:4.17px;stroke:#000;"/><rect x="210.349" y="7295.44" width="208.333" height="416.667" style="fill:#808080;stroke-width:4.17px;stroke:#000;"/><rect x="210.349" y="8128.78" width="208.333" height="416.667" style="fill:#808080;stroke-width:4.17px;stroke:#000;"/><rect x="210.349" y="8962.11" width="208.333" height="416.667" style="fill:#808080;stroke-width:4.17px;stroke:#000;"/><rect x="210.349" y="1878.78" width="208.333" height="416.667" style="fill:#808080;stroke-width:4.17px;stroke:#000;"/><rect x="210.349" y="3545.44" width="208.333" height="416.667" style="fill:#808080;stroke-width:4.17px;stroke:#000;"/><rect x="210.349" y="5212.11" width="208.333" height="416.667" style="fill:#808080;stroke-width:4.17px;stroke:#000;"/><rect x="210.349" y="6878.78" width="208.333" height="416.667" style="fill:#808080;stroke-width:4.17px;stroke:#000;"/><rect x="210.349" y="7712.11" width="208.333" height="416.667" style="fill:#808080;stroke-width:4.17px;stroke:#000;"/><rect x="210.349" y="8545.44" width="208.333" height="416.667" style="fill:#808080;stroke-width:4.17px;stroke:#000;"/><rect x="210.349" y="9378.78" width="208.333" height="416.667" style="fill:#808080;stroke-width:4.17px;stroke:#000;"/><rect x="210.349" y="2295.44" width="208.333" height="416.667" style="fill:#808080;stroke-width:4.17px;stroke:#000;"/><rect x="210.349" y="3962.11" width="208.333" height="416.667" style="fill:#808080;stroke-width:4.17px;stroke:#000;"/><rect x="210.349" y="5628.78" width="208.333" height="416.667" style="fill:#808080;stroke-width:4.17px;stroke:#000;"/><text x="272.786px" y="1305.32px" style="font-family:'ArialMT';font-size:150px;fill:#000;stroke-width:4.17px;stroke:#000;">1</text><text x="272.786px" y="888.657px" style="font-family:'ArialMT';font-size:150px;fill:#000;stroke-width:4.17px;stroke:#000;">0</text><text x="272.786px" y="2971.99px" style="font-family:'ArialMT';font-size:150px;fill:#000;stroke-width:4.17px;stroke:#000;">5</text><text x="272.786px" y="4638.66px" style="font-family:'ArialMT';font-size:150px;fill:#000;stroke-width:4.17px;stroke:#000;">9</text><text x="231.074px" y="6305.32px" style="font-family:'ArialMT';font-size:150px;fill:#000;stroke-width:4.17px;stroke:#000;">13</text><text x="230.769px" y="7971.99px" style="font-family:'ArialMT';font-size:150px;fill:#000;stroke-width:4.17px;stroke:#000;">17</text><text x="238.053px" y="9652.89px" style="font-family:'ArialMT';font-size:150px;fill:#000;stroke-width:4.17px;stroke:#000;">21</text><text x="272.786px" y="1721.99px" style="font-family:'ArialMT';font-size:150px;fill:#000;stroke-width:4.17px;stroke:#000;">2</text><text x="272.786px" y="3388.66px" style="font-family:'ArialMT';font-size:150px;fill:#000;stroke-width:4.17px;stroke:#000;">6</text><text x="231.074px" y="5055.32px" style="font-family:'ArialMT';font-size:150px;fill:#000;stroke-width:4.17px;stroke:#000;">10</text><text x="231.074px" y="6721.99px" style="font-family:'ArialMT';font-size:150px;fill:#000;stroke-width:4.17px;stroke:#000;">14</text><text x="230.769px" y="8388.66px" style="font-family:'ArialMT';font-size:150px;fill:#000;stroke-width:4.17px;stroke:#000;">18</text><text x="272.786px" y="2138.66px" style="font-family:'ArialMT';font-size:150px;fill:#000;stroke-width:4.17px;stroke:#000;">3</text><text x="272.786px" y="3805.32px" style="font-family:'ArialMT';font-size:150px;fill:#000;stroke-width:4.17px;stroke:#000;">7</text><text x="236.641px" y="5471.99px" style="font-family:'ArialMT';font-size:150px;fill:#000;stroke-width:4.17px;stroke:#000;">1<tspan x="308.931px " y="5471.99px ">1</tspan></text><text x="231.074px" y="7138.66px" style="font-family:'ArialMT';font-size:150px;fill:#000;stroke-width:4.17px;stroke:#000;">15</text><text x="230.769px" y="8805.32px" style="font-family:'ArialMT';font-size:150px;fill:#000;stroke-width:4.17px;stroke:#000;">19</text><text x="272.786px" y="2555.32px" style="font-family:'ArialMT';font-size:150px;fill:#000;stroke-width:4.17px;stroke:#000;">4</text><text x="272.786px" y="4221.99px" style="font-family:'ArialMT';font-size:150px;fill:#000;stroke-width:4.17px;stroke:#000;">8</text><text x="231.074px" y="5888.66px" style="font-family:'ArialMT';font-size:150px;fill:#000;stroke-width:4.17px;stroke:#000;">12</text><text x="230.769px" y="7555.32px" style="font-family:'ArialMT';font-size:150px;fill:#000;stroke-width:4.17px;stroke:#000;">16</text><text x="238.053px" y="9236.22px" style="font-family:'ArialMT';font-size:150px;fill:#000;stroke-width:4.17px;stroke:#000;">20</text></g><rect x="2.016" y="3.777" width="416.667" height="416.667" style="fill:none;stroke-width:4.17px;stroke-miterlimit:1;stroke:#000;"/><rect x="210.349" y="212.111" width="416.667" height="416.667" style="fill:#808080;stroke-width:4.17px;stroke:#000;"/><text x="233.461px" y="528.126px" style="font-family:'ArialMT';font-size:266.667px;fill:#000;stroke-width:4.17px;stroke:#000;">1m</text></g><g><circle cx="3960.35" cy="5628.78" r="83.333" style="fill:#fcd1d1;stroke-width:4.17px;stroke:#000;"/><circle cx="3960.35" cy="5628.78" r="41.667" style="fill:#fc2e30;stroke-width:4.17px;stroke:#000;"/></g><g><circle cx="2918.68" cy="5628.78" r="83.333" style="fill:#fcd1d1;stroke-width:4.17px;stroke:#000;"/><circle cx="2918.68" cy="5628.78" r="41.667" style="fill:#fc2e30;stroke-width:4.17px;stroke:#000;"/></g><g><circle cx="1877.02" cy="5628.78" r="83.333" style="fill:#fcd1d1;stroke-width:4.17px;stroke:#000;"/><circle cx="1877.02" cy="5628.78" r="41.667" style="fill:#fc2e30;stroke-width:4.17px;stroke:#000;"/></g><g><circle cx="1668.68" cy="7087.11" r="83.333" style="fill:#fcd1d1;stroke-width:4.17px;stroke:#000;"/><circle cx="1668.68" cy="7087.11" r="41.667" style="fill:#fc2e30;stroke-width:4.17px;stroke:#000;"/></g><g><circle cx="4168.68" cy="7087.11" r="83.333" style="fill:#fcd1d1;stroke-width:4.17px;stroke:#000;"/><circle cx="4168.68" cy="7087.11" r="41.667" style="fill:#fc2e30;stroke-width:4.17px;stroke:#000;"/></g><g><circle cx="1043.68" cy="5628.78" r="83.333" style="fill:#fcd1d1;stroke-width:4.17px;stroke:#000;"/><circle cx="1043.68" cy="5628.78" r="41.667" style="fill:#fc2e30;stroke-width:4.17px;stroke:#000;"/></g><g><circle cx="2918.68" cy="6670.44" r="83.333" style="fill:#fcd1d1;stroke-width:4.17px;stroke:#000;"/><circle cx="2918.68" cy="6670.44" r="41.667" style="fill:#fc2e30;stroke-width:4.17px;stroke:#000;"/></g><g><circle cx="2918.68" cy="7503.78" r="83.333" style="fill:#fcd1d1;stroke-width:4.17px;stroke:#000;"/><circle cx="2918.68" cy="7503.78" r="41.667" style="fill:#fc2e30;stroke-width:4.17px;stroke:#000;"/></g><g><circle cx="4793.68" cy="5628.78" r="83.333" style="fill:#fcd1d1;stroke-width:4.17px;stroke:#000;"/><circle cx="4793.68" cy="5628.78" r="41.667" style="fill:#fc2e30;stroke-width:4.17px;stroke:#000;"/></g></g></svg>