<?xml version="1.0" standalone="no"?><!DOCTYPE svg PUBLIC "-//W3C//DTD SVG 1.1//EN" "http://www.w3.org/Graphics/SVG/1.1/DTD/svg11.dtd"><svg width="100%" height="100%" viewBox="0 0 2301 1301" version="1.1" xmlns="http://www.w3.org/2000/svg" xmlns:xlink="http://www.w3.org/1999/xlink" xml:space="preserve" style="fill-rule:evenodd;clip-rule:evenodd;stroke-linejoin:round;stroke-miterlimit:1.41421;"><clipPath id="_clip1"><rect id="figure 8" x="0.077" y="0.907" width="2300" height="1300"/></clipPath><g clip-path="url(#_clip1)"><g id="Layer3"><circle cx="650.077" cy="650.907" r="250" style="fill:none;stroke-width:2px;stroke:#d9d9d9;"/><circle cx="1300.08" cy="650.907" r="250" style="fill:none;stroke-width:2px;stroke:#d9d9d9;"/><path d="M975.077,961.843c-81.837,85.703 -197.236,139.064 -325,139.064c-248.362,0 -450,-201.639 -450,-450c0,-248.362 201.638,-450 450,-450c127.764,0 243.163,53.36 325,139.063c81.836,-85.703 197.236,-139.063 325,-139.063c248.362,0 450,201.638 450,450c0,248.361 -201.638,450 -450,450c-127.764,0 -243.164,-53.361 -325,-139.064Z" style="fill:none;stroke-width:2.58px;stroke:#d9d9d9;"/></g><path d="M230.077,1170.91c86.62,-62.762 259.859,-188.285 410,-210c136.344,-19.721 311.4,-124.802 330,-320c17.193,-180.439 167.94,-333.729 330,-340c169.48,-6.559 354.9,166.394 350,350c-4.436,166.201 -195.022,368.495 -350,350c-139.497,-16.649 -314.075,-162.471 -330,-320c-16.803,-166.214 -135.651,-359.239 -310,-380c-177.504,-21.137 -367.865,171.56 -360,350c8.68,196.946 198.192,332.642 360,360c197.102,33.325 490,130 490,130" style="fill:none;stroke-width:8px;stroke-dasharray:24,48,0,0;stroke:#14a90c;stroke-opacity:0.698039;"/><path d="M284.052,1126.76l-49.179,86.442l-40.251,-42.932l89.43,-43.51Z" style="fill:#000;"/><g id="Layer6"><g><path d="M670.077,400.907c0,-11.039 -8.962,-20 -20,-20c-11.038,0 -20,8.961 -20,20c0,11.038 8.962,20 20,20c11.038,0 20,-8.962 20,-20Z" style="fill:#fcd1d1;stroke-width:1px;stroke:#000;"/><path d="M660.077,400.907c0,-5.52 -4.481,-10 -10,-10c-5.519,0 -10,4.48 -10,10c0,5.519 4.481,10 10,10c5.519,0 10,-4.481 10,-10Z" style="fill:#fc2e30;stroke-width:1px;stroke:#000;"/></g><g><path d="M1320.08,400.907c0,-11.039 -8.962,-20 -20,-20c-11.038,0 -20,8.961 -20,20c0,11.038 8.962,20 20,20c11.038,0 20,-8.962 20,-20Z" style="fill:#fcd1d1;stroke-width:1px;stroke:#000;"/><path d="M1310.08,400.907c0,-5.52 -4.481,-10 -10,-10c-5.519,0 -10,4.48 -10,10c0,5.519 4.481,10 10,10c5.519,0 10,-4.481 10,-10Z" style="fill:#fc2e30;stroke-width:1px;stroke:#000;"/></g><g><path d="M1520.08,500.907c0,-11.039 -8.962,-20 -20,-20c-11.038,0 -20,8.961 -20,20c0,11.038 8.962,20 20,20c11.038,0 20,-8.962 20,-20Z" style="fill:#fcd1d1;stroke-width:1px;stroke:#000;"/><path d="M1510.08,500.907c0,-5.52 -4.481,-10 -10,-10c-5.519,0 -10,4.48 -10,10c0,5.519 4.481,10 10,10c5.519,0 10,-4.481 10,-10Z" style="fill:#fc2e30;stroke-width:1px;stroke:#000;"/></g><g><path d="M1120.08,500.907c0,-11.039 -8.962,-20 -20,-20c-11.038,0 -20,8.961 -20,20c0,11.038 8.962,20 20,20c11.038,0 20,-8.962 20,-20Z" style="fill:#fcd1d1;stroke-width:1px;stroke:#000;"/><path d="M1110.08,500.907c0,-5.52 -4.481,-10 -10,-10c-5.519,0 -10,4.48 -10,10c0,5.519 4.481,10 10,10c5.519,0 10,-4.481 10,-10Z" style="fill:#fc2e30;stroke-width:1px;stroke:#000;"/></g><g><path d="M670.077,650.907c0,-11.039 -8.962,-20 -20,-20c-11.038,0 -20,8.961 -20,20c0,11.038 8.962,20 20,20c11.038,0 20,-8.962 20,-20Z" style="fill:#fcd1d1;stroke-width:1px;stroke:#000;"/><path d="M660.077,650.907c0,-5.52 -4.481,-10 -10,-10c-5.519,0 -10,4.48 -10,10c0,5.519 4.481,10 10,10c5.519,0 10,-4.481 10,-10Z" style="fill:#fc2e30;stroke-width:1px;stroke:#000;"/></g><g><path d="M1320.08,650.907c0,-11.039 -8.962,-20 -20,-20c-11.038,0 -20,8.961 -20,20c0,11.038 8.962,20 20,20c11.038,0 20,-8.962 20,-20Z" style="fill:#fcd1d1;stroke-width:1px;stroke:#000;"/><path d="M1310.08,650.907c0,-5.52 -4.481,-10 -10,-10c-5.519,0 -10,4.48 -10,10c0,5.519 4.481,10 10,10c5.519,0 10,-4.481 10,-10Z" style="fill:#fc2e30;stroke-width:1px;stroke:#000;"/></g><g><path d="M670.077,900.907c0,-11.039 -8.962,-20 -20,-20c-11.038,0 -20,8.961 -20,20c0,11.038 8.962,20 20,20c11.038,0 20,-8.962 20,-20Z" style="fill:#fcd1d1;stroke-width:1px;stroke:#000;"/><path d="M660.077,900.907c0,-5.52 -4.481,-10 -10,-10c-5.519,0 -10,4.48 -10,10c0,5.519 4.481,10 10,10c5.519,0 10,-4.481 10,-10Z" style="fill:#fc2e30;stroke-width:1px;stroke:#000;"/></g><g><path d="M500.077,820.907c0,-11.039 -8.962,-20 -20,-20c-11.038,0 -20,8.961 -20,20c0,11.038 8.962,20 20,20c11.038,0 20,-8.962 20,-20Z" style="fill:#fcd1d1;stroke-width:1px;stroke:#000;"/><path d="M490.077,820.907c0,-5.52 -4.481,-10 -10,-10c-5.519,0 -10,4.48 -10,10c0,5.519 4.481,10 10,10c5.519,0 10,-4.481 10,-10Z" style="fill:#fc2e30;stroke-width:1px;stroke:#000;"/></g><g><path d="M500.077,480.907c0,-11.039 -8.962,-20 -20,-20c-11.038,0 -20,8.961 -20,20c0,11.038 8.962,20 20,20c11.038,0 20,-8.962 20,-20Z" style="fill:#fcd1d1;stroke-width:1px;stroke:#000;"/><path d="M490.077,480.907c0,-5.52 -4.481,-10 -10,-10c-5.519,0 -10,4.48 -10,10c0,5.519 4.481,10 10,10c5.519,0 10,-4.481 10,-10Z" style="fill:#fc2e30;stroke-width:1px;stroke:#000;"/></g><g><path d="M840.077,480.907c0,-11.039 -8.962,-20 -20,-20c-11.038,0 -20,8.961 -20,20c0,11.038 8.962,20 20,20c11.038,0 20,-8.962 20,-20Z" style="fill:#fcd1d1;stroke-width:1px;stroke:#000;"/><path d="M830.077,480.907c0,-5.52 -4.481,-10 -10,-10c-5.519,0 -10,4.48 -10,10c0,5.519 4.481,10 10,10c5.519,0 10,-4.481 10,-10Z" style="fill:#fc2e30;stroke-width:1px;stroke:#000;"/></g><g><path d="M840.077,820.907c0,-11.039 -8.962,-20 -20,-20c-11.038,0 -20,8.961 -20,20c0,11.038 8.962,20 20,20c11.038,0 20,-8.962 20,-20Z" style="fill:#fcd1d1;stroke-width:1px;stroke:#000;"/><path d="M830.077,820.907c0,-5.52 -4.481,-10 -10,-10c-5.519,0 -10,4.48 -10,10c0,5.519 4.481,10 10,10c5.519,0 10,-4.481 10,-10Z" style="fill:#fc2e30;stroke-width:1px;stroke:#000;"/></g><g><path d="M400.077,1020.91c0,-11.039 -8.962,-20 -20,-20c-11.038,0 -20,8.961 -20,20c0,11.038 8.962,20 20,20c11.038,0 20,-8.962 20,-20Z" style="fill:#fcd1d1;stroke-width:1px;stroke:#000;"/><path d="M390.077,1020.91c0,-5.52 -4.481,-10 -10,-10c-5.519,0 -10,4.48 -10,10c0,5.519 4.481,10 10,10c5.519,0 10,-4.481 10,-10Z" style="fill:#fc2e30;stroke-width:1px;stroke:#000;"/></g><g><path d="M300.077,380.907c0,-11.039 -8.962,-20 -20,-20c-11.038,0 -20,8.961 -20,20c0,11.038 8.962,20 20,20c11.038,0 20,-8.962 20,-20Z" style="fill:#fcd1d1;stroke-width:1px;stroke:#000;"/><path d="M290.077,380.907c0,-5.52 -4.481,-10 -10,-10c-5.519,0 -10,4.48 -10,10c0,5.519 4.481,10 10,10c5.519,0 10,-4.481 10,-10Z" style="fill:#fc2e30;stroke-width:1px;stroke:#000;"/></g><g><path d="M300.077,920.907c0,-11.039 -8.962,-20 -20,-20c-11.038,0 -20,8.961 -20,20c0,11.038 8.962,20 20,20c11.038,0 20,-8.962 20,-20Z" style="fill:#fcd1d1;stroke-width:1px;stroke:#000;"/><path d="M290.077,920.907c0,-5.52 -4.481,-10 -10,-10c-5.519,0 -10,4.48 -10,10c0,5.519 4.481,10 10,10c5.519,0 10,-4.481 10,-10Z" style="fill:#fc2e30;stroke-width:1px;stroke:#000;"/></g><g><path d="M400.077,280.907c0,-11.039 -8.962,-20 -20,-20c-11.038,0 -20,8.961 -20,20c0,11.038 8.962,20 20,20c11.038,0 20,-8.962 20,-20Z" style="fill:#fcd1d1;stroke-width:1px;stroke:#000;"/><path d="M390.077,280.907c0,-5.52 -4.481,-10 -10,-10c-5.519,0 -10,4.48 -10,10c0,5.519 4.481,10 10,10c5.519,0 10,-4.481 10,-10Z" style="fill:#fc2e30;stroke-width:1px;stroke:#000;"/></g><g><path d="M1320.08,900.907c0,-11.039 -8.962,-20 -20,-20c-11.038,0 -20,8.961 -20,20c0,11.038 8.962,20 20,20c11.038,0 20,-8.962 20,-20Z" style="fill:#fcd1d1;stroke-width:1px;stroke:#000;"/><path d="M1310.08,900.907c0,-5.52 -4.481,-10 -10,-10c-5.519,0 -10,4.48 -10,10c0,5.519 4.481,10 10,10c5.519,0 10,-4.481 10,-10Z" style="fill:#fc2e30;stroke-width:1px;stroke:#000;"/></g><g><path d="M1520.08,800.907c0,-11.039 -8.962,-20 -20,-20c-11.038,0 -20,8.961 -20,20c0,11.038 8.962,20 20,20c11.038,0 20,-8.962 20,-20Z" style="fill:#fcd1d1;stroke-width:1px;stroke:#000;"/><path d="M1510.08,800.907c0,-5.52 -4.481,-10 -10,-10c-5.519,0 -10,4.48 -10,10c0,5.519 4.481,10 10,10c5.519,0 10,-4.481 10,-10Z" style="fill:#fc2e30;stroke-width:1px;stroke:#000;"/></g><g><path d="M1120.08,800.907c0,-11.039 -8.962,-20 -20,-20c-11.038,0 -20,8.961 -20,20c0,11.038 8.962,20 20,20c11.038,0 20,-8.962 20,-20Z" style="fill:#fcd1d1;stroke-width:1px;stroke:#000;"/><path d="M1110.08,800.907c0,-5.52 -4.481,-10 -10,-10c-5.519,0 -10,4.48 -10,10c0,5.519 4.481,10 10,10c5.519,0 10,-4.481 10,-10Z" style="fill:#fc2e30;stroke-width:1px;stroke:#000;"/></g><g><path d="M1000.08,980.907c0,-11.039 -8.962,-20 -20,-20c-11.038,0 -20,8.961 -20,20c0,11.038 8.962,20 20,20c11.038,0 20,-8.962 20,-20Z" style="fill:#fcd1d1;stroke-width:1px;stroke:#000;"/><path d="M990.077,980.907c0,-5.52 -4.481,-10 -10,-10c-5.519,0 -10,4.48 -10,10c0,5.519 4.481,10 10,10c5.519,0 10,-4.481 10,-10Z" style="fill:#fc2e30;stroke-width:1px;stroke:#000;"/></g><g><path d="M1000.08,320.907c0,-11.039 -8.962,-20 -20,-20c-11.038,0 -20,8.961 -20,20c0,11.038 8.962,20 20,20c11.038,0 20,-8.962 20,-20Z" style="fill:#fcd1d1;stroke-width:1px;stroke:#000;"/><path d="M990.077,320.907c0,-5.52 -4.481,-10 -10,-10c-5.519,0 -10,4.48 -10,10c0,5.519 4.481,10 10,10c5.519,0 10,-4.481 10,-10Z" style="fill:#fc2e30;stroke-width:1px;stroke:#000;"/></g><g><path d="M1620.08,1000.91c0,-11.039 -8.962,-20 -20,-20c-11.038,0 -20,8.961 -20,20c0,11.038 8.962,20 20,20c11.038,0 20,-8.962 20,-20Z" style="fill:#fcd1d1;stroke-width:1px;stroke:#000;"/><path d="M1610.08,1000.91c0,-5.52 -4.481,-10 -10,-10c-5.519,0 -10,4.48 -10,10c0,5.519 4.481,10 10,10c5.519,0 10,-4.481 10,-10Z" style="fill:#fc2e30;stroke-width:1px;stroke:#000;"/></g><g><path d="M1740.08,480.907c0,-11.039 -8.962,-20 -20,-20c-11.038,0 -20,8.961 -20,20c0,11.038 8.962,20 20,20c11.038,0 20,-8.962 20,-20Z" style="fill:#fcd1d1;stroke-width:1px;stroke:#000;"/><path d="M1730.08,480.907c0,-5.52 -4.481,-10 -10,-10c-5.519,0 -10,4.48 -10,10c0,5.519 4.481,10 10,10c5.519,0 10,-4.481 10,-10Z" style="fill:#fc2e30;stroke-width:1px;stroke:#000;"/></g><g><path d="M1620.08,300.907c0,-11.039 -8.962,-20 -20,-20c-11.038,0 -20,8.961 -20,20c0,11.038 8.962,20 20,20c11.038,0 20,-8.962 20,-20Z" style="fill:#fcd1d1;stroke-width:1px;stroke:#000;"/><path d="M1610.08,300.907c0,-5.52 -4.481,-10 -10,-10c-5.519,0 -10,4.48 -10,10c0,5.519 4.481,10 10,10c5.519,0 10,-4.481 10,-10Z" style="fill:#fc2e30;stroke-width:1px;stroke:#000;"/></g><g><path d="M670.077,1100.91c0,-11.039 -8.962,-20 -20,-20c-11.038,0 -20,8.961 -20,20c0,11.038 8.962,20 20,20c11.038,0 20,-8.962 20,-20Z" style="fill:#fcd1d1;stroke-width:1px;stroke:#000;"/><path d="M660.077,1100.91c0,-5.52 -4.481,-10 -10,-10c-5.519,0 -10,4.48 -10,10c0,5.519 4.481,10 10,10c5.519,0 10,-4.481 10,-10Z" style="fill:#fc2e30;stroke-width:1px;stroke:#000;"/></g><g><path d="M1320.08,1100.91c0,-11.039 -8.962,-20 -20,-20c-11.038,0 -20,8.961 -20,20c0,11.038 8.962,20 20,20c11.038,0 20,-8.962 20,-20Z" style="fill:#fcd1d1;stroke-width:1px;stroke:#000;"/><path d="M1310.08,1100.91c0,-5.52 -4.481,-10 -10,-10c-5.519,0 -10,4.48 -10,10c0,5.519 4.481,10 10,10c5.519,0 10,-4.481 10,-10Z" style="fill:#fc2e30;stroke-width:1px;stroke:#000;"/></g><g><path d="M920.077,650.907c0,-11.039 -8.962,-20 -20,-20c-11.038,0 -20,8.961 -20,20c0,11.038 8.962,20 20,20c11.038,0 20,-8.962 20,-20Z" style="fill:#fcd1d1;stroke-width:1px;stroke:#000;"/><path d="M910.077,650.907c0,-5.52 -4.481,-10 -10,-10c-5.519,0 -10,4.48 -10,10c0,5.519 4.481,10 10,10c5.519,0 10,-4.481 10,-10Z" style="fill:#fc2e30;stroke-width:1px;stroke:#000;"/></g><g><path d="M1570.08,650.907c0,-11.039 -8.962,-20 -20,-20c-11.038,0 -20,8.961 -20,20c0,11.038 8.962,20 20,20c11.038,0 20,-8.962 20,-20Z" style="fill:#fcd1d1;stroke-width:1px;stroke:#000;"/><path d="M1560.08,650.907c0,-5.52 -4.481,-10 -10,-10c-5.519,0 -10,4.48 -10,10c0,5.519 4.481,10 10,10c5.519,0 10,-4.481 10,-10Z" style="fill:#fc2e30;stroke-width:1px;stroke:#000;"/></g><g><path d="M1770.08,650.907c0,-11.039 -8.962,-20 -20,-20c-11.038,0 -20,8.961 -20,20c0,11.038 8.962,20 20,20c11.038,0 20,-8.962 20,-20Z" style="fill:#fcd1d1;stroke-width:1px;stroke:#000;"/><path d="M1760.08,650.907c0,-5.52 -4.481,-10 -10,-10c-5.519,0 -10,4.48 -10,10c0,5.519 4.481,10 10,10c5.519,0 10,-4.481 10,-10Z" style="fill:#fc2e30;stroke-width:1px;stroke:#000;"/></g><g><path d="M420.077,650.907c0,-11.039 -8.962,-20 -20,-20c-11.038,0 -20,8.961 -20,20c0,11.038 8.962,20 20,20c11.038,0 20,-8.962 20,-20Z" style="fill:#fcd1d1;stroke-width:1px;stroke:#000;"/><path d="M410.077,650.907c0,-5.52 -4.481,-10 -10,-10c-5.519,0 -10,4.48 -10,10c0,5.519 4.481,10 10,10c5.519,0 10,-4.481 10,-10Z" style="fill:#fc2e30;stroke-width:1px;stroke:#000;"/></g><g><path d="M1070.08,650.907c0,-11.039 -8.962,-20 -20,-20c-11.038,0 -20,8.961 -20,20c0,11.038 8.962,20 20,20c11.038,0 20,-8.962 20,-20Z" style="fill:#fcd1d1;stroke-width:1px;stroke:#000;"/><path d="M1060.08,650.907c0,-5.52 -4.481,-10 -10,-10c-5.519,0 -10,4.48 -10,10c0,5.519 4.481,10 10,10c5.519,0 10,-4.481 10,-10Z" style="fill:#fc2e30;stroke-width:1px;stroke:#000;"/></g><g><path d="M220.077,650.907c0,-11.039 -8.962,-20 -20,-20c-11.038,0 -20,8.961 -20,20c0,11.038 8.962,20 20,20c11.038,0 20,-8.962 20,-20Z" style="fill:#fcd1d1;stroke-width:1px;stroke:#000;"/><path d="M210.077,650.907c0,-5.52 -4.481,-10 -10,-10c-5.519,0 -10,4.48 -10,10c0,5.519 4.481,10 10,10c5.519,0 10,-4.481 10,-10Z" style="fill:#fc2e30;stroke-width:1px;stroke:#000;"/></g><g><path d="M670.077,200.907c0,-11.039 -8.962,-20 -20,-20c-11.038,0 -20,8.961 -20,20c0,11.038 8.962,20 20,20c11.038,0 20,-8.962 20,-20Z" style="fill:#fcd1d1;stroke-width:1px;stroke:#000;"/><path d="M660.077,200.907c0,-5.52 -4.481,-10 -10,-10c-5.519,0 -10,4.48 -10,10c0,5.519 4.481,10 10,10c5.519,0 10,-4.481 10,-10Z" style="fill:#fc2e30;stroke-width:1px;stroke:#000;"/></g><g><path d="M1320.08,200.907c0,-11.039 -8.962,-20 -20,-20c-11.038,0 -20,8.961 -20,20c0,11.038 8.962,20 20,20c11.038,0 20,-8.962 20,-20Z" style="fill:#fcd1d1;stroke-width:1px;stroke:#000;"/><path d="M1310.08,200.907c0,-5.52 -4.481,-10 -10,-10c-5.519,0 -10,4.48 -10,10c0,5.519 4.481,10 10,10c5.519,0 10,-4.481 10,-10Z" style="fill:#fc2e30;stroke-width:1px;stroke:#000;"/></g></g><g id="grid"><g id="bold lines"><path d="M700.077,100.907l0,2800" style="fill:none;stroke-width:1px;stroke-miterlimit:1;stroke:#000;stroke-opacity:0.298039;"/><path d="M100.077,700.907l2600,0" style="fill:none;stroke-width:1px;stroke-miterlimit:1;stroke:#000;stroke-opacity:0.298039;"/><path d="M1200.08,100.907l0,2800" style="fill:none;stroke-width:1px;stroke-miterlimit:1;stroke:#000;stroke-opacity:0.298039;"/><path d="M1700.08,100.907l0,2800" style="fill:none;stroke-width:1px;stroke-miterlimit:1;stroke:#000;stroke-opacity:0.298039;"/><path d="M2200.08,100.907l0,2800" style="fill:none;stroke-width:1px;stroke-miterlimit:1;stroke:#000;stroke-opacity:0.298039;"/><path d="M100.077,1200.91l2600,0" style="fill:none;stroke-width:1px;stroke-miterlimit:1;stroke:#000;stroke-opacity:0.298039;"/><path d="M100.077,200.907l2600,0" style="fill:none;stroke-width:1px;stroke-miterlimit:1;stroke:#000;stroke-opacity:0.298039;"/><path d="M200.077,2900.91l0,-2800" style="fill:none;stroke-width:1px;stroke-miterlimit:1;stroke:#000;stroke-opacity:0.298039;"/></g><g id="vertical lines"><path d="M100.077,100.907l0,2800" style="fill:none;stroke-width:1px;stroke-linejoin:miter;stroke-miterlimit:1;stroke-dasharray:10,44,2,44;stroke-dashoffset:5;stroke:#000;"/><path d="M700.077,100.907l0,2800" style="fill:none;stroke-width:1px;stroke-linejoin:miter;stroke-miterlimit:1;stroke-dasharray:10,44,2,44;stroke-dashoffset:5;stroke:#000;"/><path d="M1300.08,100.907l0,2800" style="fill:none;stroke-width:1px;stroke-linejoin:miter;stroke-miterlimit:1;stroke-dasharray:10,44,2,44;stroke-dashoffset:5;stroke:#000;"/><path d="M1900.08,100.907l0,2800" style="fill:none;stroke-width:1px;stroke-linejoin:miter;stroke-miterlimit:1;stroke-dasharray:10,44,2,44;stroke-dashoffset:5;stroke:#000;"/><path d="M300.077,100.907l0,2800" style="fill:none;stroke-width:1px;stroke-linejoin:miter;stroke-miterlimit:1;stroke-dasharray:10,44,2,44;stroke-dashoffset:5;stroke:#000;"/><path d="M900.077,100.907l0,2800" style="fill:none;stroke-width:1px;stroke-linejoin:miter;stroke-miterlimit:1;stroke-dasharray:10,44,2,44;stroke-dashoffset:5;stroke:#000;"/><path d="M1500.08,100.907l0,2800" style="fill:none;stroke-width:1px;stroke-linejoin:miter;stroke-miterlimit:1;stroke-dasharray:10,44,2,44;stroke-dashoffset:5;stroke:#000;"/><path d="M2100.08,100.907l0,2800" style="fill:none;stroke-width:1px;stroke-linejoin:miter;stroke-miterlimit:1;stroke-dasharray:10,44,2,44;stroke-dashoffset:5;stroke:#000;"/><path d="M500.077,100.907l0,2800" style="fill:none;stroke-width:1px;stroke-linejoin:miter;stroke-miterlimit:1;stroke-dasharray:10,44,2,44;stroke-dashoffset:5;stroke:#000;"/><path d="M1100.08,100.907l0,2800" style="fill:none;stroke-width:1px;stroke-linejoin:miter;stroke-miterlimit:1;stroke-dasharray:10,44,2,44;stroke-dashoffset:5;stroke:#000;"/><path d="M1700.08,100.907l0,2800" style="fill:none;stroke-width:1px;stroke-linejoin:miter;stroke-miterlimit:1;stroke-dasharray:10,44,2,44;stroke-dashoffset:5;stroke:#000;"/><path d="M2300.08,100.907l0,2800" style="fill:none;stroke-width:1px;stroke-linejoin:miter;stroke-miterlimit:1;stroke-dasharray:10,44,2,44;stroke-dashoffset:5;stroke:#000;"/><path d="M200.077,100.907l0,2800" style="fill:none;stroke-width:1px;stroke-linejoin:miter;stroke-miterlimit:1;stroke-dasharray:10,44,2,44;stroke-dashoffset:5;stroke:#000;"/><path d="M800.077,100.907l0,2800" style="fill:none;stroke-width:1px;stroke-linejoin:miter;stroke-miterlimit:1;stroke-dasharray:10,44,2,44;stroke-dashoffset:5;stroke:#000;"/><path d="M1400.08,100.907l0,2800" style="fill:none;stroke-width:1px;stroke-linejoin:miter;stroke-miterlimit:1;stroke-dasharray:10,44,2,44;stroke-dashoffset:5;stroke:#000;"/><path d="M2000.08,100.907l0,2800" style="fill:none;stroke-width:1px;stroke-linejoin:miter;stroke-miterlimit:1;stroke-dasharray:10,44,2,44;stroke-dashoffset:5;stroke:#000;"/><path d="M400.077,100.907l0,2800" style="fill:none;stroke-width:1px;stroke-linejoin:miter;stroke-miterlimit:1;stroke-dasharray:10,44,2,44;stroke-dashoffset:5;stroke:#000;"/><path d="M1000.08,100.907l0,2800" style="fill:none;stroke-width:1px;stroke-linejoin:miter;stroke-miterlimit:1;stroke-dasharray:10,44,2,44;stroke-dashoffset:5;stroke:#000;"/><path d="M1600.08,100.907l0,2800" style="fill:none;stroke-width:1px;stroke-linejoin:miter;stroke-miterlimit:1;stroke-dasharray:10,44,2,44;stroke-dashoffset:5;stroke:#000;"/><path d="M2200.08,100.907l0,2800" style="fill:none;stroke-width:1px;stroke-linejoin:miter;stroke-miterlimit:1;stroke-dasharray:10,44,2,44;stroke-dashoffset:5;stroke:#000;"/><path d="M600.077,100.907l0,2800" style="fill:none;stroke-width:1px;stroke-linejoin:miter;stroke-miterlimit:1;stroke-dasharray:10,44,2,44;stroke-dashoffset:5;stroke:#000;"/><path d="M1200.08,100.907l0,2800" style="fill:none;stroke-width:1px;stroke-linejoin:miter;stroke-miterlimit:1;stroke-dasharray:10,44,2,44;stroke-dashoffset:5;stroke:#000;"/><path d="M1800.08,100.907l0,2800" style="fill:none;stroke-width:1px;stroke-linejoin:miter;stroke-miterlimit:1;stroke-dasharray:10,44,2,44;stroke-dashoffset:5;stroke:#000;"/></g><g id="horizontal lines"><path d="M100.077,100.907l2600,0" style="fill:none;stroke-width:1px;stroke-dasharray:10,44,2,44;stroke-dashoffset:5;stroke:#000;"/><path d="M100.077,500.907l2600,0" style="fill:none;stroke-width:1px;stroke-dasharray:10,44,2,44;stroke-dashoffset:5;stroke:#000;"/><path d="M100.077,900.907l2600,0" style="fill:none;stroke-width:1px;stroke-dasharray:10,44,2,44;stroke-dashoffset:5;stroke:#000;"/><path d="M100.077,1300.91l2600,0" style="fill:none;stroke-width:1px;stroke-dasharray:10,44,2,44;stroke-dashoffset:5;stroke:#000;"/><path d="M2700.08,200.907l-2600,0" style="fill:none;stroke-width:1px;stroke-dasharray:10,44,2,44;stroke-dashoffset:5;stroke:#000;"/><path d="M2700.08,600.907l-2600,0" style="fill:none;stroke-width:1px;stroke-dasharray:10,44,2,44;stroke-dashoffset:5;stroke:#000;"/><path d="M2700.08,1000.91l-2600,0" style="fill:none;stroke-width:1px;stroke-dasharray:10,44,2,44;stroke-dashoffset:5;stroke:#000;"/><path d="M100.077,300.907l2600,0" style="fill:none;stroke-width:1px;stroke-dasharray:10,44,2,44;stroke-dashoffset:5;stroke:#000;"/><path d="M100.077,700.907l2600,0" style="fill:none;stroke-width:1px;stroke-dasharray:10,44,2,44;stroke-dashoffset:5;stroke:#000;"/><path d="M100.077,1100.91l2600,0" style="fill:none;stroke-width:1px;stroke-dasharray:10,44,2,44;stroke-dashoffset:5;stroke:#000;"/><path d="M100.077,400.907l2600,0" style="fill:none;stroke-width:1px;stroke-dasharray:10,44,2,44;stroke-dashoffset:5;stroke:#000;"/><path d="M100.077,800.907l2600,0" style="fill:none;stroke-width:1px;stroke-dasharray:10,44,2,44;stroke-dashoffset:5;stroke:#000;"/><path d="M100.077,1200.91l2600,0" style="fill:none;stroke-width:1px;stroke-dasharray:10,44,2,44;stroke-dashoffset:5;stroke:#000;"/></g><g id="top labels"><rect x="150.077" y="50.907" width="100" height="50" style="fill:#808080;stroke-width:1px;stroke:#000;"/><rect x="650.077" y="50.907" width="100" height="50" style="fill:#808080;stroke-width:1px;stroke:#000;"/><rect x="1150.08" y="50.907" width="100" height="50" style="fill:#808080;stroke-width:1px;stroke:#000;"/><rect x="1650.08" y="50.907" width="100" height="50" style="fill:#808080;stroke-width:1px;stroke:#000;"/><rect x="2150.08" y="50.907" width="100" height="50" style="fill:#808080;stroke-width:1px;stroke:#000;"/><rect x="250.077" y="50.907" width="100" height="50" style="fill:#808080;stroke-width:1px;stroke:#000;"/><rect x="750.077" y="50.907" width="100" height="50" style="fill:#808080;stroke-width:1px;stroke:#000;"/><rect x="1250.08" y="50.907" width="100" height="50" style="fill:#808080;stroke-width:1px;stroke:#000;"/><rect x="1750.08" y="50.907" width="100" height="50" style="fill:#808080;stroke-width:1px;stroke:#000;"/><rect x="2250.08" y="50.907" width="100" height="50" style="fill:#808080;stroke-width:1px;stroke:#000;"/><rect x="350.077" y="50.907" width="100" height="50" style="fill:#808080;stroke-width:1px;stroke:#000;"/><rect x="850.077" y="50.907" width="100" height="50" style="fill:#808080;stroke-width:1px;stroke:#000;"/><rect x="1350.08" y="50.907" width="100" height="50" style="fill:#808080;stroke-width:1px;stroke:#000;"/><rect x="1850.08" y="50.907" width="100" height="50" style="fill:#808080;stroke-width:1px;stroke:#000;"/><rect x="450.077" y="50.907" width="100" height="50" style="fill:#808080;stroke-width:1px;stroke:#000;"/><rect x="950.077" y="50.907" width="100" height="50" style="fill:#808080;stroke-width:1px;stroke:#000;"/><rect x="1450.08" y="50.907" width="100" height="50" style="fill:#808080;stroke-width:1px;stroke:#000;"/><rect x="1950.08" y="50.907" width="100" height="50" style="fill:#808080;stroke-width:1px;stroke:#000;"/><rect x="550.077" y="50.907" width="100" height="50" style="fill:#808080;stroke-width:1px;stroke:#000;"/><rect x="1050.08" y="50.907" width="100" height="50" style="fill:#808080;stroke-width:1px;stroke:#000;"/><rect x="1550.08" y="50.907" width="100" height="50" style="fill:#808080;stroke-width:1px;stroke:#000;"/><rect x="2050.08" y="50.907" width="100" height="50" style="fill:#808080;stroke-width:1px;stroke:#000;"/><text x="188.087px" y="89.986px" style="font-family:'ArialMT';font-size:36px;fill:#000;stroke-width:1px;stroke:#000;">A</text><text x="688.087px" y="89.986px" style="font-family:'ArialMT';font-size:36px;fill:#000;stroke-width:1px;stroke:#000;">F</text><text x="1188.09px" y="89.986px" style="font-family:'ArialMT';font-size:36px;fill:#000;stroke-width:1px;stroke:#000;">K</text><text x="1688.09px" y="89.986px" style="font-family:'ArialMT';font-size:36px;fill:#000;stroke-width:1px;stroke:#000;">P</text><text x="2188.09px" y="89.986px" style="font-family:'ArialMT';font-size:36px;fill:#000;stroke-width:1px;stroke:#000;">U</text><text x="288.087px" y="89.986px" style="font-family:'ArialMT';font-size:36px;fill:#000;stroke-width:1px;stroke:#000;">B</text><text x="788.087px" y="89.986px" style="font-family:'ArialMT';font-size:36px;fill:#000;stroke-width:1px;stroke:#000;">G</text><text x="1288.09px" y="89.986px" style="font-family:'ArialMT';font-size:36px;fill:#000;stroke-width:1px;stroke:#000;">L</text><text x="1788.09px" y="89.986px" style="font-family:'ArialMT';font-size:36px;fill:#000;stroke-width:1px;stroke:#000;">Q</text><text x="2288.09px" y="89.986px" style="font-family:'ArialMT';font-size:36px;fill:#000;stroke-width:1px;stroke:#000;">V</text><text x="388.087px" y="89.986px" style="font-family:'ArialMT';font-size:36px;fill:#000;stroke-width:1px;stroke:#000;">C</text><text x="888.087px" y="89.986px" style="font-family:'ArialMT';font-size:36px;fill:#000;stroke-width:1px;stroke:#000;">H</text><text x="1388.09px" y="89.986px" style="font-family:'ArialMT';font-size:36px;fill:#000;stroke-width:1px;stroke:#000;">M</text><text x="1888.09px" y="89.986px" style="font-family:'ArialMT';font-size:36px;fill:#000;stroke-width:1px;stroke:#000;">R</text><text x="488.087px" y="89.986px" style="font-family:'ArialMT';font-size:36px;fill:#000;stroke-width:1px;stroke:#000;">D</text><text x="995.091px" y="89.986px" style="font-family:'ArialMT';font-size:36px;fill:#000;stroke-width:1px;stroke:#000;">I</text><text x="1488.09px" y="89.986px" style="font-family:'ArialMT';font-size:36px;fill:#000;stroke-width:1px;stroke:#000;">N</text><text x="1988.09px" y="89.986px" style="font-family:'ArialMT';font-size:36px;fill:#000;stroke-width:1px;stroke:#000;">S</text><text x="588.087px" y="89.986px" style="font-family:'ArialMT';font-size:36px;fill:#000;stroke-width:1px;stroke:#000;">E</text><text x="1088.09px" y="89.986px" style="font-family:'ArialMT';font-size:36px;fill:#000;stroke-width:1px;stroke:#000;">J</text><text x="1588.09px" y="89.986px" style="font-family:'ArialMT';font-size:36px;fill:#000;stroke-width:1px;stroke:#000;">O</text><text x="2088.09px" y="89.986px" style="font-family:'ArialMT';font-size:36px;fill:#000;stroke-width:1px;stroke:#000;">T</text></g><g id="top numbers"><text x="292.845px" y="46.668px" style="font-family:'ArialMT';font-size:20px;fill:#000;stroke-width:1px;stroke:#000;">1</text><text x="194.515px" y="46.668px" style="font-family:'ArialMT';font-size:20px;fill:#000;stroke-width:1px;stroke:#000;">0</text><text x="792.845px" y="46.668px" style="font-family:'ArialMT';font-size:20px;fill:#000;stroke-width:1px;stroke:#000;">6</text><text x="1288.19px" y="46.668px" style="font-family:'ArialMT';font-size:20px;fill:#000;stroke-width:1px;stroke:#000;">1<tspan x="1297.83px " y="46.668px ">1</tspan></text><text x="1788.95px" y="46.668px" style="font-family:'ArialMT';font-size:20px;fill:#000;stroke-width:1px;stroke:#000;">16</text><text x="2288.95px" y="46.668px" style="font-family:'ArialMT';font-size:20px;fill:#000;stroke-width:1px;stroke:#000;">21</text><text x="392.845px" y="46.668px" style="font-family:'ArialMT';font-size:20px;fill:#000;stroke-width:1px;stroke:#000;">2</text><text x="893.392px" y="46.668px" style="font-family:'ArialMT';font-size:20px;fill:#000;stroke-width:1px;stroke:#000;">7</text><text x="1388.95px" y="46.668px" style="font-family:'ArialMT';font-size:20px;fill:#000;stroke-width:1px;stroke:#000;">12</text><text x="1887.83px" y="46.668px" style="font-family:'ArialMT';font-size:20px;fill:#000;stroke-width:1px;stroke:#000;">17</text><text x="492.845px" y="46.668px" style="font-family:'ArialMT';font-size:20px;fill:#000;stroke-width:1px;stroke:#000;">3</text><text x="993.392px" y="46.668px" style="font-family:'ArialMT';font-size:20px;fill:#000;stroke-width:1px;stroke:#000;">8</text><text x="1488.95px" y="46.668px" style="font-family:'ArialMT';font-size:20px;fill:#000;stroke-width:1px;stroke:#000;">13</text><text x="1987.83px" y="46.668px" style="font-family:'ArialMT';font-size:20px;fill:#000;stroke-width:1px;stroke:#000;">18</text><text x="592.845px" y="46.668px" style="font-family:'ArialMT';font-size:20px;fill:#000;stroke-width:1px;stroke:#000;">4</text><text x="1093.39px" y="46.668px" style="font-family:'ArialMT';font-size:20px;fill:#000;stroke-width:1px;stroke:#000;">9</text><text x="1588.95px" y="46.668px" style="font-family:'ArialMT';font-size:20px;fill:#000;stroke-width:1px;stroke:#000;">14</text><text x="2087.83px" y="46.668px" style="font-family:'ArialMT';font-size:20px;fill:#000;stroke-width:1px;stroke:#000;">19</text><text x="692.845px" y="46.668px" style="font-family:'ArialMT';font-size:20px;fill:#000;stroke-width:1px;stroke:#000;">5</text><text x="1188.95px" y="46.668px" style="font-family:'ArialMT';font-size:20px;fill:#000;stroke-width:1px;stroke:#000;">10</text><text x="1687.83px" y="46.668px" style="font-family:'ArialMT';font-size:20px;fill:#000;stroke-width:1px;stroke:#000;">15</text><text x="2187.83px" y="46.668px" style="font-family:'ArialMT';font-size:20px;fill:#000;stroke-width:1px;stroke:#000;">20</text></g><g id="side labels"><rect x="50.077" y="250.907" width="50" height="100" style="fill:#808080;stroke-width:1px;stroke:#000;"/><rect x="50.077" y="150.907" width="50" height="100" style="fill:#808080;stroke-width:1px;stroke:#000;"/><rect x="50.077" y="650.907" width="50" height="100" style="fill:#808080;stroke-width:1px;stroke:#000;"/><rect x="50.077" y="1050.91" width="50" height="100" style="fill:#808080;stroke-width:1px;stroke:#000;"/><rect x="50.077" y="350.907" width="50" height="100" style="fill:#808080;stroke-width:1px;stroke:#000;"/><rect x="50.077" y="750.907" width="50" height="100" style="fill:#808080;stroke-width:1px;stroke:#000;"/><rect x="50.077" y="1150.91" width="50" height="100" style="fill:#808080;stroke-width:1px;stroke:#000;"/><rect x="50.077" y="450.907" width="50" height="100" style="fill:#808080;stroke-width:1px;stroke:#000;"/><rect x="50.077" y="850.907" width="50" height="100" style="fill:#808080;stroke-width:1px;stroke:#000;"/><rect x="50.077" y="1250.91" width="50" height="100" style="fill:#808080;stroke-width:1px;stroke:#000;"/><rect x="50.077" y="550.907" width="50" height="100" style="fill:#808080;stroke-width:1px;stroke:#000;"/><rect x="50.077" y="950.907" width="50" height="100" style="fill:#808080;stroke-width:1px;stroke:#000;"/><text x="65.062px" y="313.278px" style="font-family:'ArialMT';font-size:36px;fill:#000;stroke-width:1px;stroke:#000;">1</text><text x="65.062px" y="213.278px" style="font-family:'ArialMT';font-size:36px;fill:#000;stroke-width:1px;stroke:#000;">0</text><text x="65.062px" y="713.278px" style="font-family:'ArialMT';font-size:36px;fill:#000;stroke-width:1px;stroke:#000;">5</text><text x="65.062px" y="1113.28px" style="font-family:'ArialMT';font-size:36px;fill:#000;stroke-width:1px;stroke:#000;">9</text><text x="65.062px" y="413.278px" style="font-family:'ArialMT';font-size:36px;fill:#000;stroke-width:1px;stroke:#000;">2</text><text x="65.062px" y="813.278px" style="font-family:'ArialMT';font-size:36px;fill:#000;stroke-width:1px;stroke:#000;">6</text><text x="55.051px" y="1213.28px" style="font-family:'ArialMT';font-size:36px;fill:#000;stroke-width:1px;stroke:#000;">10</text><text x="65.062px" y="513.278px" style="font-family:'ArialMT';font-size:36px;fill:#000;stroke-width:1px;stroke:#000;">3</text><text x="65.062px" y="913.278px" style="font-family:'ArialMT';font-size:36px;fill:#000;stroke-width:1px;stroke:#000;">7</text><text x="56.387px" y="1313.28px" style="font-family:'ArialMT';font-size:36px;fill:#000;stroke-width:1px;stroke:#000;">1<tspan x="73.736px " y="1313.28px ">1</tspan></text><text x="65.062px" y="613.278px" style="font-family:'ArialMT';font-size:36px;fill:#000;stroke-width:1px;stroke:#000;">4</text><text x="65.062px" y="1013.28px" style="font-family:'ArialMT';font-size:36px;fill:#000;stroke-width:1px;stroke:#000;">8</text></g><rect x="0.077" y="0.907" width="100" height="100" style="fill:none;stroke-width:1px;stroke-miterlimit:1;stroke:#000;"/><rect x="50.077" y="50.907" width="100" height="100" style="fill:#808080;stroke-width:1px;stroke:#000;"/><text x="55.624px" y="126.75px" style="font-family:'ArialMT';font-size:64px;fill:#000;stroke-width:1px;stroke:#000;">1m</text></g></g></svg>