<?xml version="1.0" standalone="no"?><!DOCTYPE svg PUBLIC "-//W3C//DTD SVG 1.1//EN" "http://www.w3.org/Graphics/SVG/1.1/DTD/svg11.dtd"><svg width="100%" height="100%" viewBox="0 0 1301 2301" version="1.1" xmlns="http://www.w3.org/2000/svg" xmlns:xlink="http://www.w3.org/1999/xlink" xml:space="preserve" style="fill-rule:evenodd;clip-rule:evenodd;stroke-linejoin:round;stroke-miterlimit:1.41421;"><clipPath id="_clip1"><rect id="figure 8" x="0.484" y="0.907" width="1300" height="2300"/></clipPath><g clip-path="url(#_clip1)"><g id="Layer3"><path d="M950.484,700.907c0,137.978 -112.021,250 -250,250c-137.979,0 -250,-112.022 -250,-250c0,-137.979 112.021,-250 250,-250c137.979,0 250,112.021 250,250Z" style="fill:none;stroke-width:5px;stroke:#000;"/><path d="M950.484,1350.91c0,137.978 -112.021,250 -250,250c-137.979,0 -250,-112.022 -250,-250c0,-137.979 112.021,-250 250,-250c137.979,0 250,112.021 250,250Z" style="fill:none;stroke-width:5px;stroke:#000;"/><path d="M389.548,1025.91c-85.704,-81.837 -139.064,-197.236 -139.064,-325c0,-248.362 201.638,-450 450,-450c248.362,0 450,201.638 450,450c0,127.764 -53.361,243.163 -139.064,325c85.703,81.836 139.064,197.236 139.064,325c0,248.361 -201.638,450 -450,450c-248.362,0 -450,-201.639 -450,-450c0,-127.764 53.36,-243.164 139.064,-325Z" style="fill:none;stroke-width:5px;stroke:#000;"/></g><path d="M180.484,280.907c62.761,86.619 188.284,259.859 210,410c19.72,136.343 124.802,311.4 320,330c180.438,17.193 333.728,167.939 340,330c6.559,169.48 -166.395,354.9 -350,350c-166.201,-4.436 -368.496,-195.022 -350,-350c16.648,-139.497 162.47,-314.075 320,-330c166.213,-16.803 359.239,-135.651 380,-310c21.137,-177.504 -171.561,-367.865 -350,-360c-196.947,8.68 -332.643,198.191 -360,360c-33.325,197.102 -130,490 -130,490" style="fill:none;stroke-width:8px;stroke-dasharray:24,48,0,0;stroke:#14a90c;stroke-opacity:0.698039;"/><path d="M224.631,334.882l-86.442,-49.18l42.933,-40.25l43.509,89.43Z" style="fill:#000;"/><g id="Layer6"><g><circle cx="950.484" cy="700.907" r="20" style="fill:#fcd1d1;stroke-width:1px;stroke:#000;"/><circle cx="950.484" cy="700.907" r="10" style="fill:#fc2e30;stroke-width:1px;stroke:#000;"/></g><g><circle cx="700.484" cy="700.907" r="20" style="fill:#fcd1d1;stroke-width:1px;stroke:#000;"/><circle cx="700.484" cy="700.907" r="10" style="fill:#fc2e30;stroke-width:1px;stroke:#000;"/></g><g><circle cx="450.484" cy="700.907" r="20" style="fill:#fcd1d1;stroke-width:1px;stroke:#000;"/><circle cx="450.484" cy="700.907" r="10" style="fill:#fc2e30;stroke-width:1px;stroke:#000;"/></g><g><circle cx="380.484" cy="380.907" r="20" style="fill:#fcd1d1;stroke-width:1px;stroke:#000;"/><circle cx="380.484" cy="380.907" r="10" style="fill:#fc2e30;stroke-width:1px;stroke:#000;"/></g><g><circle cx="1020.48" cy="380.907" r="20" style="fill:#fcd1d1;stroke-width:1px;stroke:#000;"/><circle cx="1020.48" cy="380.907" r="10" style="fill:#fc2e30;stroke-width:1px;stroke:#000;"/></g><g><circle cx="380.484" cy="1020.91" r="20" style="fill:#fcd1d1;stroke-width:1px;stroke:#000;"/><circle cx="380.484" cy="1020.91" r="10" style="fill:#fc2e30;stroke-width:1px;stroke:#000;"/></g><g><circle cx="1020.48" cy="1020.91" r="20" style="fill:#fcd1d1;stroke-width:1px;stroke:#000;"/><circle cx="1020.48" cy="1020.91" r="10" style="fill:#fc2e30;stroke-width:1px;stroke:#000;"/></g><g><circle cx="250.484" cy="700.907" r="20" style="fill:#fcd1d1;stroke-width:1px;stroke:#000;"/><circle cx="250.484" cy="700.907" r="10" style="fill:#fc2e30;stroke-width:1px;stroke:#000;"/></g><g><circle cx="700.484" cy="950.907" r="20" style="fill:#fcd1d1;stroke-width:1px;stroke:#000;"/><circle cx="700.484" cy="950.907" r="10" style="fill:#fc2e30;stroke-width:1px;stroke:#000;"/></g><g><circle cx="700.484" cy="450.907" r="20" style="fill:#fcd1d1;stroke-width:1px;stroke:#000;"/><circle cx="700.484" cy="450.907" r="10" style="fill:#fc2e30;stroke-width:1px;stroke:#000;"/></g><g><circle cx="700.484" cy="1100.91" r="20" style="fill:#fcd1d1;stroke-width:1px;stroke:#000;"/><circle cx="700.484" cy="1100.91" r="10" style="fill:#fc2e30;stroke-width:1px;stroke:#000;"/></g><g><circle cx="700.484" cy="250.907" r="20" style="fill:#fcd1d1;stroke-width:1px;stroke:#000;"/><circle cx="700.484" cy="250.907" r="10" style="fill:#fc2e30;stroke-width:1px;stroke:#000;"/></g><g><circle cx="1150.48" cy="700.907" r="20" style="fill:#fcd1d1;stroke-width:1px;stroke:#000;"/><circle cx="1150.48" cy="700.907" r="10" style="fill:#fc2e30;stroke-width:1px;stroke:#000;"/></g></g><g id="grid"><g id="bold lines"><path d="M700.484,100.907l0,2800" style="fill:none;stroke-width:1px;stroke-miterlimit:1;stroke:#000;stroke-opacity:0.298039;"/><path d="M100.484,700.907l2600,0" style="fill:none;stroke-width:1px;stroke-miterlimit:1;stroke:#000;stroke-opacity:0.298039;"/><path d="M1200.48,100.907l0,2800" style="fill:none;stroke-width:1px;stroke-miterlimit:1;stroke:#000;stroke-opacity:0.298039;"/><path d="M100.484,1200.91l2600,0" style="fill:none;stroke-width:1px;stroke-miterlimit:1;stroke:#000;stroke-opacity:0.298039;"/><path d="M100.484,1700.91l2600,0" style="fill:none;stroke-width:1px;stroke-miterlimit:1;stroke:#000;stroke-opacity:0.298039;"/><path d="M100.484,2200.91l2600,0" style="fill:none;stroke-width:1px;stroke-miterlimit:1;stroke:#000;stroke-opacity:0.298039;"/><path d="M100.484,200.907l2600,0" style="fill:none;stroke-width:1px;stroke-miterlimit:1;stroke:#000;stroke-opacity:0.298039;"/><path d="M200.484,2900.91l0,-2800" style="fill:none;stroke-width:1px;stroke-miterlimit:1;stroke:#000;stroke-opacity:0.298039;"/></g><g id="vertical lines"><path d="M100.484,100.907l0,2800" style="fill:none;stroke-width:1px;stroke-linejoin:miter;stroke-miterlimit:1;stroke-dasharray:10,44,2,44;stroke-dashoffset:5;stroke:#000;"/><path d="M700.484,100.907l0,2800" style="fill:none;stroke-width:1px;stroke-linejoin:miter;stroke-miterlimit:1;stroke-dasharray:10,44,2,44;stroke-dashoffset:5;stroke:#000;"/><path d="M1300.48,100.907l0,2800" style="fill:none;stroke-width:1px;stroke-linejoin:miter;stroke-miterlimit:1;stroke-dasharray:10,44,2,44;stroke-dashoffset:5;stroke:#000;"/><path d="M300.484,100.907l0,2800" style="fill:none;stroke-width:1px;stroke-linejoin:miter;stroke-miterlimit:1;stroke-dasharray:10,44,2,44;stroke-dashoffset:5;stroke:#000;"/><path d="M900.484,100.907l0,2800" style="fill:none;stroke-width:1px;stroke-linejoin:miter;stroke-miterlimit:1;stroke-dasharray:10,44,2,44;stroke-dashoffset:5;stroke:#000;"/><path d="M500.484,100.907l0,2800" style="fill:none;stroke-width:1px;stroke-linejoin:miter;stroke-miterlimit:1;stroke-dasharray:10,44,2,44;stroke-dashoffset:5;stroke:#000;"/><path d="M1100.48,100.907l0,2800" style="fill:none;stroke-width:1px;stroke-linejoin:miter;stroke-miterlimit:1;stroke-dasharray:10,44,2,44;stroke-dashoffset:5;stroke:#000;"/><path d="M200.484,100.907l0,2800" style="fill:none;stroke-width:1px;stroke-linejoin:miter;stroke-miterlimit:1;stroke-dasharray:10,44,2,44;stroke-dashoffset:5;stroke:#000;"/><path d="M800.484,100.907l0,2800" style="fill:none;stroke-width:1px;stroke-linejoin:miter;stroke-miterlimit:1;stroke-dasharray:10,44,2,44;stroke-dashoffset:5;stroke:#000;"/><path d="M400.484,100.907l0,2800" style="fill:none;stroke-width:1px;stroke-linejoin:miter;stroke-miterlimit:1;stroke-dasharray:10,44,2,44;stroke-dashoffset:5;stroke:#000;"/><path d="M1000.48,100.907l0,2800" style="fill:none;stroke-width:1px;stroke-linejoin:miter;stroke-miterlimit:1;stroke-dasharray:10,44,2,44;stroke-dashoffset:5;stroke:#000;"/><path d="M600.484,100.907l0,2800" style="fill:none;stroke-width:1px;stroke-linejoin:miter;stroke-miterlimit:1;stroke-dasharray:10,44,2,44;stroke-dashoffset:5;stroke:#000;"/><path d="M1200.48,100.907l0,2800" style="fill:none;stroke-width:1px;stroke-linejoin:miter;stroke-miterlimit:1;stroke-dasharray:10,44,2,44;stroke-dashoffset:5;stroke:#000;"/></g><g id="horizontal lines"><path d="M100.484,100.907l2600,0" style="fill:none;stroke-width:1px;stroke-dasharray:10,44,2,44;stroke-dashoffset:5;stroke:#000;"/><path d="M100.484,500.907l2600,0" style="fill:none;stroke-width:1px;stroke-dasharray:10,44,2,44;stroke-dashoffset:5;stroke:#000;"/><path d="M100.484,900.907l2600,0" style="fill:none;stroke-width:1px;stroke-dasharray:10,44,2,44;stroke-dashoffset:5;stroke:#000;"/><path d="M100.484,1300.91l2600,0" style="fill:none;stroke-width:1px;stroke-dasharray:10,44,2,44;stroke-dashoffset:5;stroke:#000;"/><path d="M2700.48,200.907l-2600,0" style="fill:none;stroke-width:1px;stroke-dasharray:10,44,2,44;stroke-dashoffset:5;stroke:#000;"/><path d="M2700.48,600.907l-2600,0" style="fill:none;stroke-width:1px;stroke-dasharray:10,44,2,44;stroke-dashoffset:5;stroke:#000;"/><path d="M2700.48,1000.91l-2600,0" style="fill:none;stroke-width:1px;stroke-dasharray:10,44,2,44;stroke-dashoffset:5;stroke:#000;"/><path d="M2700.48,1400.91l-2600,0" style="fill:none;stroke-width:1px;stroke-dasharray:10,44,2,44;stroke-dashoffset:5;stroke:#000;"/><path d="M100.484,300.907l2600,0" style="fill:none;stroke-width:1px;stroke-dasharray:10,44,2,44;stroke-dashoffset:5;stroke:#000;"/><path d="M100.484,700.907l2600,0" style="fill:none;stroke-width:1px;stroke-dasharray:10,44,2,44;stroke-dashoffset:5;stroke:#000;"/><path d="M100.484,1100.91l2600,0" style="fill:none;stroke-width:1px;stroke-dasharray:10,44,2,44;stroke-dashoffset:5;stroke:#000;"/><path d="M100.484,1500.91l2600,0" style="fill:none;stroke-width:1px;stroke-dasharray:10,44,2,44;stroke-dashoffset:5;stroke:#000;"/><path d="M100.484,400.907l2600,0" style="fill:none;stroke-width:1px;stroke-dasharray:10,44,2,44;stroke-dashoffset:5;stroke:#000;"/><path d="M100.484,800.907l2600,0" style="fill:none;stroke-width:1px;stroke-dasharray:10,44,2,44;stroke-dashoffset:5;stroke:#000;"/><path d="M100.484,1200.91l2600,0" style="fill:none;stroke-width:1px;stroke-dasharray:10,44,2,44;stroke-dashoffset:5;stroke:#000;"/><path d="M100.484,1600.91l2600,0" style="fill:none;stroke-width:1px;stroke-dasharray:10,44,2,44;stroke-dashoffset:5;stroke:#000;"/><path d="M100.484,1800.91l2600,0" style="fill:none;stroke-width:1px;stroke-dasharray:10,44,2,44;stroke-dashoffset:5;stroke:#000;"/><path d="M100.484,2000.91l2600,0" style="fill:none;stroke-width:1px;stroke-dasharray:10,44,2,44;stroke-dashoffset:5;stroke:#000;"/><path d="M100.484,2200.91l2600,0" style="fill:none;stroke-width:1px;stroke-dasharray:10,44,2,44;stroke-dashoffset:5;stroke:#000;"/><path d="M100.484,1700.91l2600,0" style="fill:none;stroke-width:1px;stroke-dasharray:10,44,2,44;stroke-dashoffset:5;stroke:#000;"/><path d="M100.484,1900.91l2600,0" style="fill:none;stroke-width:1px;stroke-dasharray:10,44,2,44;stroke-dashoffset:5;stroke:#000;"/><path d="M100.484,2100.91l2600,0" style="fill:none;stroke-width:1px;stroke-dasharray:10,44,2,44;stroke-dashoffset:5;stroke:#000;"/><path d="M100.484,2300.91l2600,0" style="fill:none;stroke-width:1px;stroke-dasharray:10,44,2,44;stroke-dashoffset:5;stroke:#000;"/></g><g id="top labels"><rect x="150.484" y="50.907" width="100" height="50" style="fill:#808080;stroke-width:1px;stroke:#000;"/><rect x="650.484" y="50.907" width="100" height="50" style="fill:#808080;stroke-width:1px;stroke:#000;"/><rect x="1150.48" y="50.907" width="100" height="50" style="fill:#808080;stroke-width:1px;stroke:#000;"/><rect x="250.484" y="50.907" width="100" height="50" style="fill:#808080;stroke-width:1px;stroke:#000;"/><rect x="750.484" y="50.907" width="100" height="50" style="fill:#808080;stroke-width:1px;stroke:#000;"/><rect x="1250.48" y="50.907" width="100" height="50" style="fill:#808080;stroke-width:1px;stroke:#000;"/><rect x="350.484" y="50.907" width="100" height="50" style="fill:#808080;stroke-width:1px;stroke:#000;"/><rect x="850.484" y="50.907" width="100" height="50" style="fill:#808080;stroke-width:1px;stroke:#000;"/><rect x="450.484" y="50.907" width="100" height="50" style="fill:#808080;stroke-width:1px;stroke:#000;"/><rect x="950.484" y="50.907" width="100" height="50" style="fill:#808080;stroke-width:1px;stroke:#000;"/><rect x="550.484" y="50.907" width="100" height="50" style="fill:#808080;stroke-width:1px;stroke:#000;"/><rect x="1050.48" y="50.907" width="100" height="50" style="fill:#808080;stroke-width:1px;stroke:#000;"/><text x="188.494px" y="89.986px" style="font-family:'ArialMT';font-size:36px;fill:#000;stroke-width:1px;stroke:#000;">A</text><text x="688.494px" y="89.986px" style="font-family:'ArialMT';font-size:36px;fill:#000;stroke-width:1px;stroke:#000;">F</text><text x="1188.49px" y="89.986px" style="font-family:'ArialMT';font-size:36px;fill:#000;stroke-width:1px;stroke:#000;">K</text><text x="288.494px" y="89.986px" style="font-family:'ArialMT';font-size:36px;fill:#000;stroke-width:1px;stroke:#000;">B</text><text x="788.494px" y="89.986px" style="font-family:'ArialMT';font-size:36px;fill:#000;stroke-width:1px;stroke:#000;">G</text><text x="1288.49px" y="89.986px" style="font-family:'ArialMT';font-size:36px;fill:#000;stroke-width:1px;stroke:#000;">L</text><text x="388.494px" y="89.986px" style="font-family:'ArialMT';font-size:36px;fill:#000;stroke-width:1px;stroke:#000;">C</text><text x="888.494px" y="89.986px" style="font-family:'ArialMT';font-size:36px;fill:#000;stroke-width:1px;stroke:#000;">H</text><text x="488.494px" y="89.986px" style="font-family:'ArialMT';font-size:36px;fill:#000;stroke-width:1px;stroke:#000;">D</text><text x="995.499px" y="89.986px" style="font-family:'ArialMT';font-size:36px;fill:#000;stroke-width:1px;stroke:#000;">I</text><text x="588.494px" y="89.986px" style="font-family:'ArialMT';font-size:36px;fill:#000;stroke-width:1px;stroke:#000;">E</text><text x="1088.49px" y="89.986px" style="font-family:'ArialMT';font-size:36px;fill:#000;stroke-width:1px;stroke:#000;">J</text></g><g id="top numbers"><text x="293.252px" y="46.668px" style="font-family:'ArialMT';font-size:20px;fill:#000;stroke-width:1px;stroke:#000;">1</text><text x="194.922px" y="46.668px" style="font-family:'ArialMT';font-size:20px;fill:#000;stroke-width:1px;stroke:#000;">0</text><text x="793.252px" y="46.668px" style="font-family:'ArialMT';font-size:20px;fill:#000;stroke-width:1px;stroke:#000;">6</text><text x="1288.6px" y="46.668px" style="font-family:'ArialMT';font-size:20px;fill:#000;stroke-width:1px;stroke:#000;">1<tspan x="1298.24px " y="46.668px ">1</tspan></text><text x="393.252px" y="46.668px" style="font-family:'ArialMT';font-size:20px;fill:#000;stroke-width:1px;stroke:#000;">2</text><text x="893.799px" y="46.668px" style="font-family:'ArialMT';font-size:20px;fill:#000;stroke-width:1px;stroke:#000;">7</text><text x="493.252px" y="46.668px" style="font-family:'ArialMT';font-size:20px;fill:#000;stroke-width:1px;stroke:#000;">3</text><text x="993.799px" y="46.668px" style="font-family:'ArialMT';font-size:20px;fill:#000;stroke-width:1px;stroke:#000;">8</text><text x="593.252px" y="46.668px" style="font-family:'ArialMT';font-size:20px;fill:#000;stroke-width:1px;stroke:#000;">4</text><text x="1093.8px" y="46.668px" style="font-family:'ArialMT';font-size:20px;fill:#000;stroke-width:1px;stroke:#000;">9</text><text x="693.252px" y="46.668px" style="font-family:'ArialMT';font-size:20px;fill:#000;stroke-width:1px;stroke:#000;">5</text><text x="1189.36px" y="46.668px" style="font-family:'ArialMT';font-size:20px;fill:#000;stroke-width:1px;stroke:#000;">10</text></g><g id="side labels"><rect x="50.484" y="250.907" width="50" height="100" style="fill:#808080;stroke-width:1px;stroke:#000;"/><rect x="50.484" y="150.907" width="50" height="100" style="fill:#808080;stroke-width:1px;stroke:#000;"/><rect x="50.484" y="650.907" width="50" height="100" style="fill:#808080;stroke-width:1px;stroke:#000;"/><rect x="50.484" y="1050.91" width="50" height="100" style="fill:#808080;stroke-width:1px;stroke:#000;"/><rect x="50.484" y="1450.91" width="50" height="100" style="fill:#808080;stroke-width:1px;stroke:#000;"/><rect x="50.484" y="350.907" width="50" height="100" style="fill:#808080;stroke-width:1px;stroke:#000;"/><rect x="50.484" y="750.907" width="50" height="100" style="fill:#808080;stroke-width:1px;stroke:#000;"/><rect x="50.484" y="1150.91" width="50" height="100" style="fill:#808080;stroke-width:1px;stroke:#000;"/><rect x="50.484" y="1550.91" width="50" height="100" style="fill:#808080;stroke-width:1px;stroke:#000;"/><rect x="50.484" y="1750.91" width="50" height="100" style="fill:#808080;stroke-width:1px;stroke:#000;"/><rect x="50.484" y="1950.91" width="50" height="100" style="fill:#808080;stroke-width:1px;stroke:#000;"/><rect x="50.484" y="2150.91" width="50" height="100" style="fill:#808080;stroke-width:1px;stroke:#000;"/><rect x="50.484" y="450.907" width="50" height="100" style="fill:#808080;stroke-width:1px;stroke:#000;"/><rect x="50.484" y="850.907" width="50" height="100" style="fill:#808080;stroke-width:1px;stroke:#000;"/><rect x="50.484" y="1250.91" width="50" height="100" style="fill:#808080;stroke-width:1px;stroke:#000;"/><rect x="50.484" y="1650.91" width="50" height="100" style="fill:#808080;stroke-width:1px;stroke:#000;"/><rect x="50.484" y="1850.91" width="50" height="100" style="fill:#808080;stroke-width:1px;stroke:#000;"/><rect x="50.484" y="2050.91" width="50" height="100" style="fill:#808080;stroke-width:1px;stroke:#000;"/><rect x="50.484" y="2250.91" width="50" height="100" style="fill:#808080;stroke-width:1px;stroke:#000;"/><rect x="50.484" y="550.907" width="50" height="100" style="fill:#808080;stroke-width:1px;stroke:#000;"/><rect x="50.484" y="950.907" width="50" height="100" style="fill:#808080;stroke-width:1px;stroke:#000;"/><rect x="50.484" y="1350.91" width="50" height="100" style="fill:#808080;stroke-width:1px;stroke:#000;"/><text x="65.469px" y="313.278px" style="font-family:'ArialMT';font-size:36px;fill:#000;stroke-width:1px;stroke:#000;">1</text><text x="65.469px" y="213.278px" style="font-family:'ArialMT';font-size:36px;fill:#000;stroke-width:1px;stroke:#000;">0</text><text x="65.469px" y="713.278px" style="font-family:'ArialMT';font-size:36px;fill:#000;stroke-width:1px;stroke:#000;">5</text><text x="65.469px" y="1113.28px" style="font-family:'ArialMT';font-size:36px;fill:#000;stroke-width:1px;stroke:#000;">9</text><text x="55.458px" y="1513.28px" style="font-family:'ArialMT';font-size:36px;fill:#000;stroke-width:1px;stroke:#000;">13</text><text x="55.385px" y="1913.28px" style="font-family:'ArialMT';font-size:36px;fill:#000;stroke-width:1px;stroke:#000;">17</text><text x="57.133px" y="2316.69px" style="font-family:'ArialMT';font-size:36px;fill:#000;stroke-width:1px;stroke:#000;">21</text><text x="65.469px" y="413.278px" style="font-family:'ArialMT';font-size:36px;fill:#000;stroke-width:1px;stroke:#000;">2</text><text x="65.469px" y="813.278px" style="font-family:'ArialMT';font-size:36px;fill:#000;stroke-width:1px;stroke:#000;">6</text><text x="55.458px" y="1213.28px" style="font-family:'ArialMT';font-size:36px;fill:#000;stroke-width:1px;stroke:#000;">10</text><text x="55.458px" y="1613.28px" style="font-family:'ArialMT';font-size:36px;fill:#000;stroke-width:1px;stroke:#000;">14</text><text x="55.385px" y="2013.28px" style="font-family:'ArialMT';font-size:36px;fill:#000;stroke-width:1px;stroke:#000;">18</text><text x="65.469px" y="513.278px" style="font-family:'ArialMT';font-size:36px;fill:#000;stroke-width:1px;stroke:#000;">3</text><text x="65.469px" y="913.278px" style="font-family:'ArialMT';font-size:36px;fill:#000;stroke-width:1px;stroke:#000;">7</text><text x="56.794px" y="1313.28px" style="font-family:'ArialMT';font-size:36px;fill:#000;stroke-width:1px;stroke:#000;">1<tspan x="74.143px " y="1313.28px ">1</tspan></text><text x="55.458px" y="1713.28px" style="font-family:'ArialMT';font-size:36px;fill:#000;stroke-width:1px;stroke:#000;">15</text><text x="55.385px" y="2113.28px" style="font-family:'ArialMT';font-size:36px;fill:#000;stroke-width:1px;stroke:#000;">19</text><text x="65.469px" y="613.278px" style="font-family:'ArialMT';font-size:36px;fill:#000;stroke-width:1px;stroke:#000;">4</text><text x="65.469px" y="1013.28px" style="font-family:'ArialMT';font-size:36px;fill:#000;stroke-width:1px;stroke:#000;">8</text><text x="55.458px" y="1413.28px" style="font-family:'ArialMT';font-size:36px;fill:#000;stroke-width:1px;stroke:#000;">12</text><text x="55.385px" y="1813.28px" style="font-family:'ArialMT';font-size:36px;fill:#000;stroke-width:1px;stroke:#000;">16</text><text x="57.133px" y="2216.69px" style="font-family:'ArialMT';font-size:36px;fill:#000;stroke-width:1px;stroke:#000;">20</text></g><rect x="0.484" y="0.907" width="100" height="100" style="fill:none;stroke-width:1px;stroke-miterlimit:1;stroke:#000;"/><rect x="50.484" y="50.907" width="100" height="100" style="fill:#808080;stroke-width:1px;stroke:#000;"/><text x="56.031px" y="126.75px" style="font-family:'ArialMT';font-size:64px;fill:#000;stroke-width:1px;stroke:#000;">1m</text></g><g><circle cx="950.484" cy="1350.91" r="20" style="fill:#fcd1d1;stroke-width:1px;stroke:#000;"/><circle cx="950.484" cy="1350.91" r="10" style="fill:#fc2e30;stroke-width:1px;stroke:#000;"/></g><g><circle cx="700.484" cy="1350.91" r="20" style="fill:#fcd1d1;stroke-width:1px;stroke:#000;"/><circle cx="700.484" cy="1350.91" r="10" style="fill:#fc2e30;stroke-width:1px;stroke:#000;"/></g><g><circle cx="450.484" cy="1350.91" r="20" style="fill:#fcd1d1;stroke-width:1px;stroke:#000;"/><circle cx="450.484" cy="1350.91" r="10" style="fill:#fc2e30;stroke-width:1px;stroke:#000;"/></g><g><circle cx="400.484" cy="1700.91" r="20" style="fill:#fcd1d1;stroke-width:1px;stroke:#000;"/><circle cx="400.484" cy="1700.91" r="10" style="fill:#fc2e30;stroke-width:1px;stroke:#000;"/></g><g><circle cx="1000.48" cy="1700.91" r="20" style="fill:#fcd1d1;stroke-width:1px;stroke:#000;"/><circle cx="1000.48" cy="1700.91" r="10" style="fill:#fc2e30;stroke-width:1px;stroke:#000;"/></g><g><circle cx="250.484" cy="1350.91" r="20" style="fill:#fcd1d1;stroke-width:1px;stroke:#000;"/><circle cx="250.484" cy="1350.91" r="10" style="fill:#fc2e30;stroke-width:1px;stroke:#000;"/></g><g><circle cx="700.484" cy="1600.91" r="20" style="fill:#fcd1d1;stroke-width:1px;stroke:#000;"/><circle cx="700.484" cy="1600.91" r="10" style="fill:#fc2e30;stroke-width:1px;stroke:#000;"/></g><g><circle cx="700.484" cy="1800.91" r="20" style="fill:#fcd1d1;stroke-width:1px;stroke:#000;"/><circle cx="700.484" cy="1800.91" r="10" style="fill:#fc2e30;stroke-width:1px;stroke:#000;"/></g><g><circle cx="1150.48" cy="1350.91" r="20" style="fill:#fcd1d1;stroke-width:1px;stroke:#000;"/><circle cx="1150.48" cy="1350.91" r="10" style="fill:#fc2e30;stroke-width:1px;stroke:#000;"/></g></g></svg>