<?xml version="1.0" standalone="no"?><!DOCTYPE svg PUBLIC "-//W3C//DTD SVG 1.1//EN" "http://www.w3.org/Graphics/SVG/1.1/DTD/svg11.dtd"><svg width="100%" height="100%" viewBox="0 0 2900 1801" version="1.1" xmlns="http://www.w3.org/2000/svg" xmlns:xlink="http://www.w3.org/1999/xlink" xml:space="preserve" style="fill-rule:evenodd;clip-rule:evenodd;stroke-miterlimit:1;"><g><g id="vertical lines"><path d="M100,100.543l0,1600" style="fill:none;stroke-width:1px;stroke:#b3b3b3;"/><path d="M700,100.543l0,1600" style="fill:none;stroke-width:1px;stroke:#b3b3b3;"/><path d="M1300,100.543l0,1600" style="fill:none;stroke-width:1px;stroke:#b3b3b3;"/><path d="M1900,100.543l0,1600" style="fill:none;stroke-width:1px;stroke:#b3b3b3;"/><path d="M2500,100.543l0,1600" style="fill:none;stroke-width:1px;stroke:#b3b3b3;"/><path d="M300,100.543l0,1600" style="fill:none;stroke-width:1px;stroke:#b3b3b3;"/><path d="M900,100.543l0,1600" style="fill:none;stroke-width:1px;stroke:#b3b3b3;"/><path d="M1500,100.543l0,1600" style="fill:none;stroke-width:1px;stroke:#b3b3b3;"/><path d="M2100,100.543l0,1600" style="fill:none;stroke-width:1px;stroke:#b3b3b3;"/><path d="M2700,100.543l0,1600" style="fill:none;stroke-width:1px;stroke:#b3b3b3;"/><path d="M500,100.543l0,1600" style="fill:none;stroke-width:1px;stroke:#b3b3b3;"/><path d="M1100,100.543l0,1600" style="fill:none;stroke-width:1px;stroke:#b3b3b3;"/><path d="M1700,100.543l0,1600" style="fill:none;stroke-width:1px;stroke:#b3b3b3;"/><path d="M2300,100.543l0,1600" style="fill:none;stroke-width:1px;stroke:#b3b3b3;"/><path d="M200,100.543l0,1600" style="fill:none;stroke-width:1px;stroke:#b3b3b3;"/><path d="M800,100.543l0,1600" style="fill:none;stroke-width:1px;stroke:#b3b3b3;"/><path d="M1400,100.543l0,1600" style="fill:none;stroke-width:1px;stroke:#b3b3b3;"/><path d="M2000,100.543l0,1600" style="fill:none;stroke-width:1px;stroke:#b3b3b3;"/><path d="M2600,100.543l0,1600" style="fill:none;stroke-width:1px;stroke:#b3b3b3;"/><path d="M400,100.543l0,1600" style="fill:none;stroke-width:1px;stroke:#b3b3b3;"/><path d="M1000,100.543l0,1600" style="fill:none;stroke-width:1px;stroke:#b3b3b3;"/><path d="M1600,100.543l0,1600" style="fill:none;stroke-width:1px;stroke:#b3b3b3;"/><path d="M2200,100.543l0,1600" style="fill:none;stroke-width:1px;stroke:#b3b3b3;"/><path d="M2800,100.543l0,1600" style="fill:none;stroke-width:1px;stroke:#b3b3b3;"/><path d="M600,100.543l0,1600" style="fill:none;stroke-width:1px;stroke:#b3b3b3;"/><path d="M1200,100.543l0,1600" style="fill:none;stroke-width:1px;stroke:#b3b3b3;"/><path d="M1800,100.543l0,1600" style="fill:none;stroke-width:1px;stroke:#b3b3b3;"/><path d="M2400,100.543l0,1600" style="fill:none;stroke-width:1px;stroke:#b3b3b3;"/></g><g id="horizontal lines"><path d="M100,100.543l2700,0" style="fill:none;stroke-width:1px;stroke-linejoin:round;stroke-miterlimit:1.41421;stroke:#b3b3b3;"/><path d="M100,500.543l2700,0" style="fill:none;stroke-width:1px;stroke-linejoin:round;stroke-miterlimit:1.41421;stroke:#b3b3b3;"/><path d="M100,900.543l2700,0" style="fill:none;stroke-width:1px;stroke-linejoin:round;stroke-miterlimit:1.41421;stroke:#b3b3b3;"/><path d="M100,1300.54l2700,0" style="fill:none;stroke-width:1px;stroke-linejoin:round;stroke-miterlimit:1.41421;stroke:#b3b3b3;"/><path d="M2800,200.543l-2700,0" style="fill:none;stroke-width:1px;stroke-linejoin:round;stroke-miterlimit:1.41421;stroke:#b3b3b3;"/><path d="M2800,600.543l-2700,0" style="fill:none;stroke-width:1px;stroke-linejoin:round;stroke-miterlimit:1.41421;stroke:#b3b3b3;"/><path d="M2800,1000.54l-2700,0" style="fill:none;stroke-width:1px;stroke-linejoin:round;stroke-miterlimit:1.41421;stroke:#b3b3b3;"/><path d="M2800,1400.54l-2700,0" style="fill:none;stroke-width:1px;stroke-linejoin:round;stroke-miterlimit:1.41421;stroke:#b3b3b3;"/><path d="M100,300.543l2700,0" style="fill:none;stroke-width:1px;stroke-linejoin:round;stroke-miterlimit:1.41421;stroke:#b3b3b3;"/><path d="M100,700.543l2700,0" style="fill:none;stroke-width:1px;stroke-linejoin:round;stroke-miterlimit:1.41421;stroke:#b3b3b3;"/><path d="M100,1100.54l2700,0" style="fill:none;stroke-width:1px;stroke-linejoin:round;stroke-miterlimit:1.41421;stroke:#b3b3b3;"/><path d="M100,1500.54l2700,0" style="fill:none;stroke-width:1px;stroke-linejoin:round;stroke-miterlimit:1.41421;stroke:#b3b3b3;"/><path d="M100,400.543l2700,0" style="fill:none;stroke-width:1px;stroke-linejoin:round;stroke-miterlimit:1.41421;stroke:#b3b3b3;"/><path d="M100,800.543l2700,0" style="fill:none;stroke-width:1px;stroke-linejoin:round;stroke-miterlimit:1.41421;stroke:#b3b3b3;"/><path d="M100,1200.54l2700,0" style="fill:none;stroke-width:1px;stroke-linejoin:round;stroke-miterlimit:1.41421;stroke:#b3b3b3;"/><path d="M100,1600.54l2700,0" style="fill:none;stroke-width:1px;stroke-linejoin:round;stroke-miterlimit:1.41421;stroke:#b3b3b3;"/><path d="M100,1700.54l2700,0" style="fill:none;stroke-width:1px;stroke-linejoin:round;stroke-miterlimit:1.41421;stroke:#b3b3b3;"/></g><g id="top labels"><rect x="200" y="50.543" width="100" height="50" style="fill:#808080;stroke-width:1px;stroke-linejoin:round;stroke-miterlimit:1.41421;stroke:#000;"/><rect x="700" y="50.543" width="100" height="50" style="fill:#808080;stroke-width:1px;stroke-linejoin:round;stroke-miterlimit:1.41421;stroke:#000;"/><rect x="1200" y="50.543" width="100" height="50" style="fill:#808080;stroke-width:1px;stroke-linejoin:round;stroke-miterlimit:1.41421;stroke:#000;"/><rect x="1700" y="50.543" width="100" height="50" style="fill:#808080;stroke-width:1px;stroke-linejoin:round;stroke-miterlimit:1.41421;stroke:#000;"/><rect x="2200" y="50.543" width="100" height="50" style="fill:#808080;stroke-width:1px;stroke-linejoin:round;stroke-miterlimit:1.41421;stroke:#000;"/><rect x="300" y="50.543" width="100" height="50" style="fill:#808080;stroke-width:1px;stroke-linejoin:round;stroke-miterlimit:1.41421;stroke:#000;"/><rect x="800" y="50.543" width="100" height="50" style="fill:#808080;stroke-width:1px;stroke-linejoin:round;stroke-miterlimit:1.41421;stroke:#000;"/><rect x="1300" y="50.543" width="100" height="50" style="fill:#808080;stroke-width:1px;stroke-linejoin:round;stroke-miterlimit:1.41421;stroke:#000;"/><rect x="1800" y="50.543" width="100" height="50" style="fill:#808080;stroke-width:1px;stroke-linejoin:round;stroke-miterlimit:1.41421;stroke:#000;"/><rect x="2300" y="50.543" width="100" height="50" style="fill:#808080;stroke-width:1px;stroke-linejoin:round;stroke-miterlimit:1.41421;stroke:#000;"/><rect x="400" y="50.543" width="100" height="50" style="fill:#808080;stroke-width:1px;stroke-linejoin:round;stroke-miterlimit:1.41421;stroke:#000;"/><rect x="900" y="50.543" width="100" height="50" style="fill:#808080;stroke-width:1px;stroke-linejoin:round;stroke-miterlimit:1.41421;stroke:#000;"/><rect x="1400" y="50.543" width="100" height="50" style="fill:#808080;stroke-width:1px;stroke-linejoin:round;stroke-miterlimit:1.41421;stroke:#000;"/><rect x="1900" y="50.543" width="100" height="50" style="fill:#808080;stroke-width:1px;stroke-linejoin:round;stroke-miterlimit:1.41421;stroke:#000;"/><rect x="2400" y="50.543" width="100" height="50" style="fill:#808080;stroke-width:1px;stroke-linejoin:round;stroke-miterlimit:1.41421;stroke:#000;"/><rect x="500" y="50.543" width="100" height="50" style="fill:#808080;stroke-width:1px;stroke-linejoin:round;stroke-miterlimit:1.41421;stroke:#000;"/><rect x="1000" y="50.543" width="100" height="50" style="fill:#808080;stroke-width:1px;stroke-linejoin:round;stroke-miterlimit:1.41421;stroke:#000;"/><rect x="1500" y="50.543" width="100" height="50" style="fill:#808080;stroke-width:1px;stroke-linejoin:round;stroke-miterlimit:1.41421;stroke:#000;"/><rect x="2000" y="50.543" width="100" height="50" style="fill:#808080;stroke-width:1px;stroke-linejoin:round;stroke-miterlimit:1.41421;stroke:#000;"/><rect x="2500" y="50.543" width="100" height="50" style="fill:#808080;stroke-width:1px;stroke-linejoin:round;stroke-miterlimit:1.41421;stroke:#000;"/><rect x="600" y="50.543" width="100" height="50" style="fill:#808080;stroke-width:1px;stroke-linejoin:round;stroke-miterlimit:1.41421;stroke:#000;"/><rect x="1100" y="50.543" width="100" height="50" style="fill:#808080;stroke-width:1px;stroke-linejoin:round;stroke-miterlimit:1.41421;stroke:#000;"/><rect x="1600" y="50.543" width="100" height="50" style="fill:#808080;stroke-width:1px;stroke-linejoin:round;stroke-miterlimit:1.41421;stroke:#000;"/><rect x="2100" y="50.543" width="100" height="50" style="fill:#808080;stroke-width:1px;stroke-linejoin:round;stroke-miterlimit:1.41421;stroke:#000;"/><rect x="2600" y="50.543" width="100" height="50" style="fill:#808080;stroke-width:1px;stroke-linejoin:round;stroke-miterlimit:1.41421;stroke:#000;"/><rect x="2700" y="50.543" width="100" height="50" style="fill:#808080;stroke-width:1px;stroke-linejoin:round;stroke-miterlimit:1.41421;stroke:#000;"/><text x="238.01px" y="89.622px" style="font-family:'ArialMT';font-size:36px;fill:#000;">A</text><text x="738.01px" y="89.622px" style="font-family:'ArialMT';font-size:36px;fill:#000;">F</text><text x="1238.01px" y="89.622px" style="font-family:'ArialMT';font-size:36px;fill:#000;">K</text><text x="1738.01px" y="89.622px" style="font-family:'ArialMT';font-size:36px;fill:#000;">P</text><text x="2238.01px" y="89.622px" style="font-family:'ArialMT';font-size:36px;fill:#000;">U</text><text x="338.01px" y="89.622px" style="font-family:'ArialMT';font-size:36px;fill:#000;">B</text><text x="838.01px" y="89.622px" style="font-family:'ArialMT';font-size:36px;fill:#000;">G</text><text x="1338.01px" y="89.622px" style="font-family:'ArialMT';font-size:36px;fill:#000;">L</text><text x="1838.01px" y="89.622px" style="font-family:'ArialMT';font-size:36px;fill:#000;">Q</text><text x="2338.01px" y="89.622px" style="font-family:'ArialMT';font-size:36px;fill:#000;">V</text><text x="438.01px" y="89.622px" style="font-family:'ArialMT';font-size:36px;fill:#000;">C</text><text x="938.01px" y="89.622px" style="font-family:'ArialMT';font-size:36px;fill:#000;">H</text><text x="1438.01px" y="89.622px" style="font-family:'ArialMT';font-size:36px;fill:#000;">M</text><text x="1938.01px" y="89.622px" style="font-family:'ArialMT';font-size:36px;fill:#000;">R</text><text x="2438.01px" y="89.622px" style="font-family:'ArialMT';font-size:36px;fill:#000;">W</text><text x="538.01px" y="89.622px" style="font-family:'ArialMT';font-size:36px;fill:#000;">D</text><text x="1045.02px" y="89.622px" style="font-family:'ArialMT';font-size:36px;fill:#000;">I</text><text x="1538.01px" y="89.622px" style="font-family:'ArialMT';font-size:36px;fill:#000;">N</text><text x="2038.01px" y="89.622px" style="font-family:'ArialMT';font-size:36px;fill:#000;">S</text><text x="2538.01px" y="89.622px" style="font-family:'ArialMT';font-size:36px;fill:#000;">X</text><text x="638.01px" y="89.622px" style="font-family:'ArialMT';font-size:36px;fill:#000;">E</text><text x="1138.01px" y="89.622px" style="font-family:'ArialMT';font-size:36px;fill:#000;">J</text><text x="1638.01px" y="89.622px" style="font-family:'ArialMT';font-size:36px;fill:#000;">O</text><text x="2138.01px" y="89.622px" style="font-family:'ArialMT';font-size:36px;fill:#000;">T</text><text x="2638.01px" y="89.622px" style="font-family:'ArialMT';font-size:36px;fill:#000;">Y</text><text x="2738.01px" y="89.622px" style="font-family:'ArialMT';font-size:36px;fill:#000;">Z</text></g><g id="side labels"><rect x="50" y="200.543" width="50" height="100" style="fill:#808080;stroke-width:1px;stroke-linejoin:round;stroke-miterlimit:1.41421;stroke:#000;"/><rect x="50" y="600.543" width="50" height="100" style="fill:#808080;stroke-width:1px;stroke-linejoin:round;stroke-miterlimit:1.41421;stroke:#000;"/><rect x="50" y="1000.54" width="50" height="100" style="fill:#808080;stroke-width:1px;stroke-linejoin:round;stroke-miterlimit:1.41421;stroke:#000;"/><rect x="50" y="1400.54" width="50" height="100" style="fill:#808080;stroke-width:1px;stroke-linejoin:round;stroke-miterlimit:1.41421;stroke:#000;"/><rect x="50" y="300.543" width="50" height="100" style="fill:#808080;stroke-width:1px;stroke-linejoin:round;stroke-miterlimit:1.41421;stroke:#000;"/><rect x="50" y="700.543" width="50" height="100" style="fill:#808080;stroke-width:1px;stroke-linejoin:round;stroke-miterlimit:1.41421;stroke:#000;"/><rect x="50" y="1100.54" width="50" height="100" style="fill:#808080;stroke-width:1px;stroke-linejoin:round;stroke-miterlimit:1.41421;stroke:#000;"/><rect x="50" y="1500.54" width="50" height="100" style="fill:#808080;stroke-width:1px;stroke-linejoin:round;stroke-miterlimit:1.41421;stroke:#000;"/><rect x="50" y="400.543" width="50" height="100" style="fill:#808080;stroke-width:1px;stroke-linejoin:round;stroke-miterlimit:1.41421;stroke:#000;"/><rect x="50" y="800.543" width="50" height="100" style="fill:#808080;stroke-width:1px;stroke-linejoin:round;stroke-miterlimit:1.41421;stroke:#000;"/><rect x="50" y="1200.54" width="50" height="100" style="fill:#808080;stroke-width:1px;stroke-linejoin:round;stroke-miterlimit:1.41421;stroke:#000;"/><rect x="50" y="1600.54" width="50" height="100" style="fill:#808080;stroke-width:1px;stroke-linejoin:round;stroke-miterlimit:1.41421;stroke:#000;"/><rect x="50" y="500.543" width="50" height="100" style="fill:#808080;stroke-width:1px;stroke-linejoin:round;stroke-miterlimit:1.41421;stroke:#000;"/><rect x="50" y="900.543" width="50" height="100" style="fill:#808080;stroke-width:1px;stroke-linejoin:round;stroke-miterlimit:1.41421;stroke:#000;"/><rect x="50" y="1300.54" width="50" height="100" style="fill:#808080;stroke-width:1px;stroke-linejoin:round;stroke-miterlimit:1.41421;stroke:#000;"/><text x="64.985px" y="262.914px" style="font-family:'ArialMT';font-size:36px;fill:#000;">1</text><text x="64.985px" y="662.914px" style="font-family:'ArialMT';font-size:36px;fill:#000;">5</text><text x="64.985px" y="1062.91px" style="font-family:'ArialMT';font-size:36px;fill:#000;">9</text><text x="54.974px" y="1462.91px" style="font-family:'ArialMT';font-size:36px;fill:#000;">13</text><text x="64.985px" y="362.914px" style="font-family:'ArialMT';font-size:36px;fill:#000;">2</text><text x="64.985px" y="762.914px" style="font-family:'ArialMT';font-size:36px;fill:#000;">6</text><text x="54.974px" y="1162.91px" style="font-family:'ArialMT';font-size:36px;fill:#000;">10</text><text x="54.974px" y="1562.91px" style="font-family:'ArialMT';font-size:36px;fill:#000;">14</text><text x="64.985px" y="462.914px" style="font-family:'ArialMT';font-size:36px;fill:#000;">3</text><text x="64.985px" y="862.914px" style="font-family:'ArialMT';font-size:36px;fill:#000;">7</text><text x="56.31px" y="1262.91px" style="font-family:'ArialMT';font-size:36px;fill:#000;">1<tspan x="73.659px " y="1262.91px ">1</tspan></text><text x="54.974px" y="1662.91px" style="font-family:'ArialMT';font-size:36px;fill:#000;">15</text><text x="64.985px" y="562.914px" style="font-family:'ArialMT';font-size:36px;fill:#000;">4</text><text x="64.985px" y="962.914px" style="font-family:'ArialMT';font-size:36px;fill:#000;">8</text><text x="54.974px" y="1362.91px" style="font-family:'ArialMT';font-size:36px;fill:#000;">12</text></g><rect x="100" y="100.543" width="100" height="100" style="fill:#808080;stroke-width:1px;stroke-linejoin:round;stroke-miterlimit:1.41421;stroke:#000;"/><text x="105.547px" y="176.387px" style="font-family:'ArialMT';font-size:64px;fill:#000;">1m</text></g><g><circle cx="1200" cy="700.543" r="20" style="fill:#fcd1d1;stroke-width:1px;stroke-linejoin:round;stroke-miterlimit:1.41421;stroke:#000;"/><circle cx="1200" cy="700.543" r="10" style="fill:#fc2e30;stroke-width:1px;stroke-linejoin:round;stroke-miterlimit:1.41421;stroke:#000;"/></g><g><circle cx="1200" cy="200.543" r="20" style="fill:#fcd1d1;stroke-width:1px;stroke-linejoin:round;stroke-miterlimit:1.41421;stroke:#000;"/><circle cx="1200" cy="200.543" r="10" style="fill:#fc2e30;stroke-width:1px;stroke-linejoin:round;stroke-miterlimit:1.41421;stroke:#000;"/></g><g><circle cx="1200" cy="200.543" r="20" style="fill:#fcd1d1;stroke-width:1px;stroke-linejoin:round;stroke-miterlimit:1.41421;stroke:#000;"/><circle cx="1200" cy="200.543" r="10" style="fill:#fc2e30;stroke-width:1px;stroke-linejoin:round;stroke-miterlimit:1.41421;stroke:#000;"/></g><g><circle cx="1200" cy="1200.54" r="20" style="fill:#fcd1d1;stroke-width:1px;stroke-linejoin:round;stroke-miterlimit:1.41421;stroke:#000;"/><circle cx="1200" cy="1200.54" r="10" style="fill:#fc2e30;stroke-width:1px;stroke-linejoin:round;stroke-miterlimit:1.41421;stroke:#000;"/></g><g><circle cx="500" cy="1700.54" r="20" style="fill:#fcd1d1;stroke-width:1px;stroke-linejoin:round;stroke-miterlimit:1.41421;stroke:#000;"/><circle cx="500" cy="1700.54" r="10" style="fill:#fc2e30;stroke-width:1px;stroke-linejoin:round;stroke-miterlimit:1.41421;stroke:#000;"/></g><g><circle cx="200" cy="1700.54" r="20" style="fill:#fcd1d1;stroke-width:1px;stroke-linejoin:round;stroke-miterlimit:1.41421;stroke:#000;"/><circle cx="200" cy="1700.54" r="10" style="fill:#fc2e30;stroke-width:1px;stroke-linejoin:round;stroke-miterlimit:1.41421;stroke:#000;"/></g><g><circle cx="1700" cy="1700.54" r="20" style="fill:#fcd1d1;stroke-width:1px;stroke-linejoin:round;stroke-miterlimit:1.41421;stroke:#000;"/><circle cx="1700" cy="1700.54" r="10" style="fill:#fc2e30;stroke-width:1px;stroke-linejoin:round;stroke-miterlimit:1.41421;stroke:#000;"/></g><g><circle cx="2800" cy="200.543" r="20" style="fill:#fcd1d1;stroke-width:1px;stroke-linejoin:round;stroke-miterlimit:1.41421;stroke:#000;"/><circle cx="2800" cy="200.543" r="10" style="fill:#fc2e30;stroke-width:1px;stroke-linejoin:round;stroke-miterlimit:1.41421;stroke:#000;"/></g><g><circle cx="2800" cy="1500.54" r="20" style="fill:#fcd1d1;stroke-width:1px;stroke-linejoin:round;stroke-miterlimit:1.41421;stroke:#000;"/><circle cx="2800" cy="1500.54" r="10" style="fill:#fc2e30;stroke-width:1px;stroke-linejoin:round;stroke-miterlimit:1.41421;stroke:#000;"/></g><g><circle cx="2800" cy="1700.54" r="20" style="fill:#fcd1d1;stroke-width:1px;stroke-linejoin:round;stroke-miterlimit:1.41421;stroke:#000;"/><circle cx="2800" cy="1700.54" r="10" style="fill:#fc2e30;stroke-width:1px;stroke-linejoin:round;stroke-miterlimit:1.41421;stroke:#000;"/></g><g><circle cx="400" cy="1200.54" r="20" style="fill:#fcd1d1;stroke-width:1px;stroke-linejoin:round;stroke-miterlimit:1.41421;stroke:#000;"/><circle cx="400" cy="1200.54" r="10" style="fill:#fc2e30;stroke-width:1px;stroke-linejoin:round;stroke-miterlimit:1.41421;stroke:#000;"/></g><g><circle cx="200" cy="1200.54" r="20" style="fill:#fcd1d1;stroke-width:1px;stroke-linejoin:round;stroke-miterlimit:1.41421;stroke:#000;"/><circle cx="200" cy="1200.54" r="10" style="fill:#fc2e30;stroke-width:1px;stroke-linejoin:round;stroke-miterlimit:1.41421;stroke:#000;"/></g><path d="M200,200.543c0,333.333 0,666.666 0,1000" style="fill:none;stroke-width:4.5px;stroke-linejoin:round;stroke-miterlimit:1.41421;stroke:#000;"/><path d="M1700,1700.54c-500,-500 -1000,-1000 -1500,-1500" style="fill:none;stroke-width:4.5px;stroke-linejoin:round;stroke-miterlimit:1.41421;stroke:#000;"/><path d="M200,200.543c333.333,0 666.667,0 1000,0" style="fill:none;stroke-width:4.5px;stroke-linejoin:round;stroke-miterlimit:1.41421;stroke:#000;"/><path d="M200,1200.54c333.333,0 666.667,0 1000,0" style="fill:none;stroke-width:4.5px;stroke-linejoin:round;stroke-miterlimit:1.41421;stroke:#000;"/><path d="M1200,1200.54c0,-333.334 0,-666.667 0,-1000" style="fill:none;stroke-width:4.5px;stroke-linejoin:round;stroke-miterlimit:1.41421;stroke:#000;"/><g transform="matrix(0.201794,0.979428,-0.979428,0.201794,3175.8,-3701.33)"><text x="4413.21px" y="3691.48px" style="font-family:'ArialMT';font-size:64px;fill:#000;">15.30m</text></g><g transform="matrix(0.201794,0.979428,-0.979428,0.201794,2597.95,-3993.05)"><text x="4303.27px" y="3191.1px" style="font-family:'ArialMT';font-size:64px;fill:#000;">10.20m</text></g><g transform="matrix(0.717727,0.696325,-0.696325,0.717727,-498.158,-2726.53)"><text x="3668.37px" y="1616.03px" style="font-family:'ArialMT';font-size:64px;fill:#000;">14.14m</text></g><g transform="matrix(0.88951,0.456916,-0.456916,0.88951,-1099.24,-1271.66)"><text x="2636.61px" y="685.042px" style="font-family:'ArialMT';font-size:64px;fill:#000;">1<tspan x="2667.45px 2703.05px " y="685.042px 685.042px ">1.</tspan>18m</text></g><g transform="matrix(0.88951,0.456916,-0.456916,0.88951,-556.044,-1920.12)"><text x="4246.65px" y="1483.96px" style="font-family:'ArialMT';font-size:64px;fill:#000;">29.07m</text></g><g transform="matrix(0.865566,0.500795,-0.500795,0.865566,-432.815,-2162.81)"><text x="4366.54px" y="1706.17px" style="font-family:'ArialMT';font-size:64px;fill:#000;">30.07m</text></g><g transform="matrix(0.70786,0.706353,-0.706353,0.70786,-29.3862,-2977.1)"><text x="4138.89px" y="2069.66px" style="font-family:'ArialMT';font-size:64px;fill:#000;">22.63m</text></g><path d="M200,200.543c866.667,433.333 1733.33,866.666 2600,1300" style="fill:none;stroke-width:4.5px;stroke-linejoin:round;stroke-miterlimit:1.41421;stroke:#000;"/><path d="M200,200.543c866.667,0 1733.33,0 2600,0" style="fill:none;stroke-width:4.5px;stroke-linejoin:round;stroke-miterlimit:1.41421;stroke:#000;"/><path d="M200,200.543c100,500 200,1000 300,1500" style="fill:none;stroke-width:4.5px;stroke-linejoin:round;stroke-miterlimit:1.41421;stroke:#000;"/><path d="M200,200.543c866.667,500 1733.33,1000 2600,1500" style="fill:none;stroke-width:4.5px;stroke-linejoin:round;stroke-miterlimit:1.41421;stroke:#000;"/><path d="M200,200.543c0,500 0,1000 0,1500" style="fill:none;stroke-width:4.5px;stroke-linejoin:round;stroke-miterlimit:1.41421;stroke:#000;"/></svg>