<?xml version="1.0" standalone="no"?><!DOCTYPE svg PUBLIC "-//W3C//DTD SVG 1.1//EN" "http://www.w3.org/Graphics/SVG/1.1/DTD/svg11.dtd"><svg width="100%" height="100%" viewBox="0 0 3500 2301" version="1.1" xmlns="http://www.w3.org/2000/svg" xmlns:xlink="http://www.w3.org/1999/xlink" xml:space="preserve" style="fill-rule:evenodd;clip-rule:evenodd;stroke-miterlimit:1;"><g><g id="vertical lines"><path d="M200,200.543l0,1600" style="fill:none;stroke-width:1px;stroke:#b3b3b3;"/><path d="M800,200.543l0,1600" style="fill:none;stroke-width:1px;stroke:#b3b3b3;"/><path d="M1400,200.543l0,1600" style="fill:none;stroke-width:1px;stroke:#b3b3b3;"/><path d="M2000,200.543l0,1600" style="fill:none;stroke-width:1px;stroke:#b3b3b3;"/><path d="M2600,200.543l0,1600" style="fill:none;stroke-width:1px;stroke:#b3b3b3;"/><path d="M400,200.543l0,1600" style="fill:none;stroke-width:1px;stroke:#b3b3b3;"/><path d="M1000,200.543l0,1600" style="fill:none;stroke-width:1px;stroke:#b3b3b3;"/><path d="M1600,200.543l0,1600" style="fill:none;stroke-width:1px;stroke:#b3b3b3;"/><path d="M2200,200.543l0,1600" style="fill:none;stroke-width:1px;stroke:#b3b3b3;"/><path d="M2800,200.543l0,1600" style="fill:none;stroke-width:1px;stroke:#b3b3b3;"/><path d="M600,200.543l0,1600" style="fill:none;stroke-width:1px;stroke:#b3b3b3;"/><path d="M1200,200.543l0,1600" style="fill:none;stroke-width:1px;stroke:#b3b3b3;"/><path d="M1800,200.543l0,1600" style="fill:none;stroke-width:1px;stroke:#b3b3b3;"/><path d="M2400,200.543l0,1600" style="fill:none;stroke-width:1px;stroke:#b3b3b3;"/><path d="M300,200.543l0,1600" style="fill:none;stroke-width:1px;stroke:#b3b3b3;"/><path d="M900,200.543l0,1600" style="fill:none;stroke-width:1px;stroke:#b3b3b3;"/><path d="M1500,200.543l0,1600" style="fill:none;stroke-width:1px;stroke:#b3b3b3;"/><path d="M2100,200.543l0,1600" style="fill:none;stroke-width:1px;stroke:#b3b3b3;"/><path d="M2700,200.543l0,1600" style="fill:none;stroke-width:1px;stroke:#b3b3b3;"/><path d="M500,200.543l0,1600" style="fill:none;stroke-width:1px;stroke:#b3b3b3;"/><path d="M1100,200.543l0,1600" style="fill:none;stroke-width:1px;stroke:#b3b3b3;"/><path d="M1700,200.543l0,1600" style="fill:none;stroke-width:1px;stroke:#b3b3b3;"/><path d="M2300,200.543l0,1600" style="fill:none;stroke-width:1px;stroke:#b3b3b3;"/><path d="M2900,200.543l0,1600" style="fill:none;stroke-width:1px;stroke:#b3b3b3;"/><path d="M700,200.543l0,1600" style="fill:none;stroke-width:1px;stroke:#b3b3b3;"/><path d="M1300,200.543l0,1600" style="fill:none;stroke-width:1px;stroke:#b3b3b3;"/><path d="M1900,200.543l0,1600" style="fill:none;stroke-width:1px;stroke:#b3b3b3;"/><path d="M2500,200.543l0,1600" style="fill:none;stroke-width:1px;stroke:#b3b3b3;"/></g><g id="horizontal lines"><path d="M200,200.543l2700,0" style="fill:none;stroke-width:1px;stroke-linejoin:round;stroke-miterlimit:1.41421;stroke:#b3b3b3;"/><path d="M200,600.543l2700,0" style="fill:none;stroke-width:1px;stroke-linejoin:round;stroke-miterlimit:1.41421;stroke:#b3b3b3;"/><path d="M200,1000.54l2700,0" style="fill:none;stroke-width:1px;stroke-linejoin:round;stroke-miterlimit:1.41421;stroke:#b3b3b3;"/><path d="M200,1400.54l2700,0" style="fill:none;stroke-width:1px;stroke-linejoin:round;stroke-miterlimit:1.41421;stroke:#b3b3b3;"/><path d="M2900,300.543l-2700,0" style="fill:none;stroke-width:1px;stroke-linejoin:round;stroke-miterlimit:1.41421;stroke:#b3b3b3;"/><path d="M2900,700.543l-2700,0" style="fill:none;stroke-width:1px;stroke-linejoin:round;stroke-miterlimit:1.41421;stroke:#b3b3b3;"/><path d="M2900,1100.54l-2700,0" style="fill:none;stroke-width:1px;stroke-linejoin:round;stroke-miterlimit:1.41421;stroke:#b3b3b3;"/><path d="M2900,1500.54l-2700,0" style="fill:none;stroke-width:1px;stroke-linejoin:round;stroke-miterlimit:1.41421;stroke:#b3b3b3;"/><path d="M200,400.543l2700,0" style="fill:none;stroke-width:1px;stroke-linejoin:round;stroke-miterlimit:1.41421;stroke:#b3b3b3;"/><path d="M200,800.543l2700,0" style="fill:none;stroke-width:1px;stroke-linejoin:round;stroke-miterlimit:1.41421;stroke:#b3b3b3;"/><path d="M200,1200.54l2700,0" style="fill:none;stroke-width:1px;stroke-linejoin:round;stroke-miterlimit:1.41421;stroke:#b3b3b3;"/><path d="M200,1600.54l2700,0" style="fill:none;stroke-width:1px;stroke-linejoin:round;stroke-miterlimit:1.41421;stroke:#b3b3b3;"/><path d="M200,500.543l2700,0" style="fill:none;stroke-width:1px;stroke-linejoin:round;stroke-miterlimit:1.41421;stroke:#b3b3b3;"/><path d="M200,900.543l2700,0" style="fill:none;stroke-width:1px;stroke-linejoin:round;stroke-miterlimit:1.41421;stroke:#b3b3b3;"/><path d="M200,1300.54l2700,0" style="fill:none;stroke-width:1px;stroke-linejoin:round;stroke-miterlimit:1.41421;stroke:#b3b3b3;"/><path d="M200,1700.54l2700,0" style="fill:none;stroke-width:1px;stroke-linejoin:round;stroke-miterlimit:1.41421;stroke:#b3b3b3;"/><path d="M200,1800.54l2700,0" style="fill:none;stroke-width:1px;stroke-linejoin:round;stroke-miterlimit:1.41421;stroke:#b3b3b3;"/></g><g id="top labels"><rect x="300" y="150.543" width="100" height="50" style="fill:#808080;stroke-width:1px;stroke-linejoin:round;stroke-miterlimit:1.41421;stroke:#000;"/><rect x="800" y="150.543" width="100" height="50" style="fill:#808080;stroke-width:1px;stroke-linejoin:round;stroke-miterlimit:1.41421;stroke:#000;"/><rect x="1300" y="150.543" width="100" height="50" style="fill:#808080;stroke-width:1px;stroke-linejoin:round;stroke-miterlimit:1.41421;stroke:#000;"/><rect x="1800" y="150.543" width="100" height="50" style="fill:#808080;stroke-width:1px;stroke-linejoin:round;stroke-miterlimit:1.41421;stroke:#000;"/><rect x="2300" y="150.543" width="100" height="50" style="fill:#808080;stroke-width:1px;stroke-linejoin:round;stroke-miterlimit:1.41421;stroke:#000;"/><rect x="400" y="150.543" width="100" height="50" style="fill:#808080;stroke-width:1px;stroke-linejoin:round;stroke-miterlimit:1.41421;stroke:#000;"/><rect x="900" y="150.543" width="100" height="50" style="fill:#808080;stroke-width:1px;stroke-linejoin:round;stroke-miterlimit:1.41421;stroke:#000;"/><rect x="1400" y="150.543" width="100" height="50" style="fill:#808080;stroke-width:1px;stroke-linejoin:round;stroke-miterlimit:1.41421;stroke:#000;"/><rect x="1900" y="150.543" width="100" height="50" style="fill:#808080;stroke-width:1px;stroke-linejoin:round;stroke-miterlimit:1.41421;stroke:#000;"/><rect x="2400" y="150.543" width="100" height="50" style="fill:#808080;stroke-width:1px;stroke-linejoin:round;stroke-miterlimit:1.41421;stroke:#000;"/><rect x="500" y="150.543" width="100" height="50" style="fill:#808080;stroke-width:1px;stroke-linejoin:round;stroke-miterlimit:1.41421;stroke:#000;"/><rect x="1000" y="150.543" width="100" height="50" style="fill:#808080;stroke-width:1px;stroke-linejoin:round;stroke-miterlimit:1.41421;stroke:#000;"/><rect x="1500" y="150.543" width="100" height="50" style="fill:#808080;stroke-width:1px;stroke-linejoin:round;stroke-miterlimit:1.41421;stroke:#000;"/><rect x="2000" y="150.543" width="100" height="50" style="fill:#808080;stroke-width:1px;stroke-linejoin:round;stroke-miterlimit:1.41421;stroke:#000;"/><rect x="2500" y="150.543" width="100" height="50" style="fill:#808080;stroke-width:1px;stroke-linejoin:round;stroke-miterlimit:1.41421;stroke:#000;"/><rect x="600" y="150.543" width="100" height="50" style="fill:#808080;stroke-width:1px;stroke-linejoin:round;stroke-miterlimit:1.41421;stroke:#000;"/><rect x="1100" y="150.543" width="100" height="50" style="fill:#808080;stroke-width:1px;stroke-linejoin:round;stroke-miterlimit:1.41421;stroke:#000;"/><rect x="1600" y="150.543" width="100" height="50" style="fill:#808080;stroke-width:1px;stroke-linejoin:round;stroke-miterlimit:1.41421;stroke:#000;"/><rect x="2100" y="150.543" width="100" height="50" style="fill:#808080;stroke-width:1px;stroke-linejoin:round;stroke-miterlimit:1.41421;stroke:#000;"/><rect x="2600" y="150.543" width="100" height="50" style="fill:#808080;stroke-width:1px;stroke-linejoin:round;stroke-miterlimit:1.41421;stroke:#000;"/><rect x="700" y="150.543" width="100" height="50" style="fill:#808080;stroke-width:1px;stroke-linejoin:round;stroke-miterlimit:1.41421;stroke:#000;"/><rect x="1200" y="150.543" width="100" height="50" style="fill:#808080;stroke-width:1px;stroke-linejoin:round;stroke-miterlimit:1.41421;stroke:#000;"/><rect x="1700" y="150.543" width="100" height="50" style="fill:#808080;stroke-width:1px;stroke-linejoin:round;stroke-miterlimit:1.41421;stroke:#000;"/><rect x="2200" y="150.543" width="100" height="50" style="fill:#808080;stroke-width:1px;stroke-linejoin:round;stroke-miterlimit:1.41421;stroke:#000;"/><rect x="2700" y="150.543" width="100" height="50" style="fill:#808080;stroke-width:1px;stroke-linejoin:round;stroke-miterlimit:1.41421;stroke:#000;"/><rect x="2800" y="150.543" width="100" height="50" style="fill:#808080;stroke-width:1px;stroke-linejoin:round;stroke-miterlimit:1.41421;stroke:#000;"/><text x="338.01px" y="189.622px" style="font-family:'ArialMT';font-size:36px;fill:#000;">A</text><text x="838.01px" y="189.622px" style="font-family:'ArialMT';font-size:36px;fill:#000;">F</text><text x="1338.01px" y="189.622px" style="font-family:'ArialMT';font-size:36px;fill:#000;">K</text><text x="1838.01px" y="189.622px" style="font-family:'ArialMT';font-size:36px;fill:#000;">P</text><text x="2338.01px" y="189.622px" style="font-family:'ArialMT';font-size:36px;fill:#000;">U</text><text x="438.01px" y="189.622px" style="font-family:'ArialMT';font-size:36px;fill:#000;">B</text><text x="938.01px" y="189.622px" style="font-family:'ArialMT';font-size:36px;fill:#000;">G</text><text x="1438.01px" y="189.622px" style="font-family:'ArialMT';font-size:36px;fill:#000;">L</text><text x="1938.01px" y="189.622px" style="font-family:'ArialMT';font-size:36px;fill:#000;">Q</text><text x="2438.01px" y="189.622px" style="font-family:'ArialMT';font-size:36px;fill:#000;">V</text><text x="538.01px" y="189.622px" style="font-family:'ArialMT';font-size:36px;fill:#000;">C</text><text x="1038.01px" y="189.622px" style="font-family:'ArialMT';font-size:36px;fill:#000;">H</text><text x="1538.01px" y="189.622px" style="font-family:'ArialMT';font-size:36px;fill:#000;">M</text><text x="2038.01px" y="189.622px" style="font-family:'ArialMT';font-size:36px;fill:#000;">R</text><text x="2538.01px" y="189.622px" style="font-family:'ArialMT';font-size:36px;fill:#000;">W</text><text x="638.01px" y="189.622px" style="font-family:'ArialMT';font-size:36px;fill:#000;">D</text><text x="1145.02px" y="189.622px" style="font-family:'ArialMT';font-size:36px;fill:#000;">I</text><text x="1638.01px" y="189.622px" style="font-family:'ArialMT';font-size:36px;fill:#000;">N</text><text x="2138.01px" y="189.622px" style="font-family:'ArialMT';font-size:36px;fill:#000;">S</text><text x="2638.01px" y="189.622px" style="font-family:'ArialMT';font-size:36px;fill:#000;">X</text><text x="738.01px" y="189.622px" style="font-family:'ArialMT';font-size:36px;fill:#000;">E</text><text x="1238.01px" y="189.622px" style="font-family:'ArialMT';font-size:36px;fill:#000;">J</text><text x="1738.01px" y="189.622px" style="font-family:'ArialMT';font-size:36px;fill:#000;">O</text><text x="2238.01px" y="189.622px" style="font-family:'ArialMT';font-size:36px;fill:#000;">T</text><text x="2738.01px" y="189.622px" style="font-family:'ArialMT';font-size:36px;fill:#000;">Y</text><text x="2838.01px" y="189.622px" style="font-family:'ArialMT';font-size:36px;fill:#000;">Z</text></g><g id="side labels"><rect x="150" y="300.543" width="50" height="100" style="fill:#808080;stroke-width:1px;stroke-linejoin:round;stroke-miterlimit:1.41421;stroke:#000;"/><rect x="150" y="700.543" width="50" height="100" style="fill:#808080;stroke-width:1px;stroke-linejoin:round;stroke-miterlimit:1.41421;stroke:#000;"/><rect x="150" y="1100.54" width="50" height="100" style="fill:#808080;stroke-width:1px;stroke-linejoin:round;stroke-miterlimit:1.41421;stroke:#000;"/><rect x="150" y="1500.54" width="50" height="100" style="fill:#808080;stroke-width:1px;stroke-linejoin:round;stroke-miterlimit:1.41421;stroke:#000;"/><rect x="150" y="400.543" width="50" height="100" style="fill:#808080;stroke-width:1px;stroke-linejoin:round;stroke-miterlimit:1.41421;stroke:#000;"/><rect x="150" y="800.543" width="50" height="100" style="fill:#808080;stroke-width:1px;stroke-linejoin:round;stroke-miterlimit:1.41421;stroke:#000;"/><rect x="150" y="1200.54" width="50" height="100" style="fill:#808080;stroke-width:1px;stroke-linejoin:round;stroke-miterlimit:1.41421;stroke:#000;"/><rect x="150" y="1600.54" width="50" height="100" style="fill:#808080;stroke-width:1px;stroke-linejoin:round;stroke-miterlimit:1.41421;stroke:#000;"/><rect x="150" y="500.543" width="50" height="100" style="fill:#808080;stroke-width:1px;stroke-linejoin:round;stroke-miterlimit:1.41421;stroke:#000;"/><rect x="150" y="900.543" width="50" height="100" style="fill:#808080;stroke-width:1px;stroke-linejoin:round;stroke-miterlimit:1.41421;stroke:#000;"/><rect x="150" y="1300.54" width="50" height="100" style="fill:#808080;stroke-width:1px;stroke-linejoin:round;stroke-miterlimit:1.41421;stroke:#000;"/><rect x="150" y="1700.54" width="50" height="100" style="fill:#808080;stroke-width:1px;stroke-linejoin:round;stroke-miterlimit:1.41421;stroke:#000;"/><rect x="150" y="600.543" width="50" height="100" style="fill:#808080;stroke-width:1px;stroke-linejoin:round;stroke-miterlimit:1.41421;stroke:#000;"/><rect x="150" y="1000.54" width="50" height="100" style="fill:#808080;stroke-width:1px;stroke-linejoin:round;stroke-miterlimit:1.41421;stroke:#000;"/><rect x="150" y="1400.54" width="50" height="100" style="fill:#808080;stroke-width:1px;stroke-linejoin:round;stroke-miterlimit:1.41421;stroke:#000;"/><text x="164.985px" y="362.914px" style="font-family:'ArialMT';font-size:36px;fill:#000;">1</text><text x="164.985px" y="762.914px" style="font-family:'ArialMT';font-size:36px;fill:#000;">5</text><text x="164.985px" y="1162.91px" style="font-family:'ArialMT';font-size:36px;fill:#000;">9</text><text x="154.974px" y="1562.91px" style="font-family:'ArialMT';font-size:36px;fill:#000;">13</text><text x="164.985px" y="462.914px" style="font-family:'ArialMT';font-size:36px;fill:#000;">2</text><text x="164.985px" y="862.914px" style="font-family:'ArialMT';font-size:36px;fill:#000;">6</text><text x="154.974px" y="1262.91px" style="font-family:'ArialMT';font-size:36px;fill:#000;">10</text><text x="154.974px" y="1662.91px" style="font-family:'ArialMT';font-size:36px;fill:#000;">14</text><text x="164.985px" y="562.914px" style="font-family:'ArialMT';font-size:36px;fill:#000;">3</text><text x="164.985px" y="962.914px" style="font-family:'ArialMT';font-size:36px;fill:#000;">7</text><text x="156.31px" y="1362.91px" style="font-family:'ArialMT';font-size:36px;fill:#000;">1<tspan x="173.659px " y="1362.91px ">1</tspan></text><text x="154.974px" y="1762.91px" style="font-family:'ArialMT';font-size:36px;fill:#000;">15</text><text x="164.985px" y="662.914px" style="font-family:'ArialMT';font-size:36px;fill:#000;">4</text><text x="164.985px" y="1062.91px" style="font-family:'ArialMT';font-size:36px;fill:#000;">8</text><text x="154.974px" y="1462.91px" style="font-family:'ArialMT';font-size:36px;fill:#000;">12</text></g><rect x="200" y="200.543" width="100" height="100" style="fill:#808080;stroke-width:1px;stroke-linejoin:round;stroke-miterlimit:1.41421;stroke:#000;"/><text x="205.547px" y="276.387px" style="font-family:'ArialMT';font-size:64px;fill:#000;">1m</text></g><g><circle cx="1300" cy="800.543" r="20" style="fill:#fcd1d1;stroke-width:1px;stroke-linejoin:round;stroke-miterlimit:1.41421;stroke:#000;"/><circle cx="1300" cy="800.543" r="10" style="fill:#fc2e30;stroke-width:1px;stroke-linejoin:round;stroke-miterlimit:1.41421;stroke:#000;"/></g><g><circle cx="1300" cy="300.543" r="20" style="fill:#fcd1d1;stroke-width:1px;stroke-linejoin:round;stroke-miterlimit:1.41421;stroke:#000;"/><circle cx="1300" cy="300.543" r="10" style="fill:#fc2e30;stroke-width:1px;stroke-linejoin:round;stroke-miterlimit:1.41421;stroke:#000;"/></g><g><circle cx="1300" cy="300.543" r="20" style="fill:#fcd1d1;stroke-width:1px;stroke-linejoin:round;stroke-miterlimit:1.41421;stroke:#000;"/><circle cx="1300" cy="300.543" r="10" style="fill:#fc2e30;stroke-width:1px;stroke-linejoin:round;stroke-miterlimit:1.41421;stroke:#000;"/></g><g><circle cx="1300" cy="1300.54" r="20" style="fill:#fcd1d1;stroke-width:1px;stroke-linejoin:round;stroke-miterlimit:1.41421;stroke:#000;"/><circle cx="1300" cy="1300.54" r="10" style="fill:#fc2e30;stroke-width:1px;stroke-linejoin:round;stroke-miterlimit:1.41421;stroke:#000;"/></g><g><circle cx="600" cy="1800.54" r="20" style="fill:#fcd1d1;stroke-width:1px;stroke-linejoin:round;stroke-miterlimit:1.41421;stroke:#000;"/><circle cx="600" cy="1800.54" r="10" style="fill:#fc2e30;stroke-width:1px;stroke-linejoin:round;stroke-miterlimit:1.41421;stroke:#000;"/></g><g><circle cx="300" cy="1800.54" r="20" style="fill:#fcd1d1;stroke-width:1px;stroke-linejoin:round;stroke-miterlimit:1.41421;stroke:#000;"/><circle cx="300" cy="1800.54" r="10" style="fill:#fc2e30;stroke-width:1px;stroke-linejoin:round;stroke-miterlimit:1.41421;stroke:#000;"/></g><g><circle cx="1800" cy="1800.54" r="20" style="fill:#fcd1d1;stroke-width:1px;stroke-linejoin:round;stroke-miterlimit:1.41421;stroke:#000;"/><circle cx="1800" cy="1800.54" r="10" style="fill:#fc2e30;stroke-width:1px;stroke-linejoin:round;stroke-miterlimit:1.41421;stroke:#000;"/></g><g><circle cx="2900" cy="300.543" r="20" style="fill:#fcd1d1;stroke-width:1px;stroke-linejoin:round;stroke-miterlimit:1.41421;stroke:#000;"/><circle cx="2900" cy="300.543" r="10" style="fill:#fc2e30;stroke-width:1px;stroke-linejoin:round;stroke-miterlimit:1.41421;stroke:#000;"/></g><g><circle cx="2900" cy="1600.54" r="20" style="fill:#fcd1d1;stroke-width:1px;stroke-linejoin:round;stroke-miterlimit:1.41421;stroke:#000;"/><circle cx="2900" cy="1600.54" r="10" style="fill:#fc2e30;stroke-width:1px;stroke-linejoin:round;stroke-miterlimit:1.41421;stroke:#000;"/></g><g><circle cx="2900" cy="1800.54" r="20" style="fill:#fcd1d1;stroke-width:1px;stroke-linejoin:round;stroke-miterlimit:1.41421;stroke:#000;"/><circle cx="2900" cy="1800.54" r="10" style="fill:#fc2e30;stroke-width:1px;stroke-linejoin:round;stroke-miterlimit:1.41421;stroke:#000;"/></g><g><circle cx="500" cy="1300.54" r="20" style="fill:#fcd1d1;stroke-width:1px;stroke-linejoin:round;stroke-miterlimit:1.41421;stroke:#000;"/><circle cx="500" cy="1300.54" r="10" style="fill:#fc2e30;stroke-width:1px;stroke-linejoin:round;stroke-miterlimit:1.41421;stroke:#000;"/></g><g><circle cx="300" cy="1300.54" r="20" style="fill:#fcd1d1;stroke-width:1px;stroke-linejoin:round;stroke-miterlimit:1.41421;stroke:#000;"/><circle cx="300" cy="1300.54" r="10" style="fill:#fc2e30;stroke-width:1px;stroke-linejoin:round;stroke-miterlimit:1.41421;stroke:#000;"/></g><path d="M300,300.543c0,333.333 0,666.666 0,1000" style="fill:none;stroke-width:4.5px;stroke-linejoin:round;stroke-miterlimit:1.41421;stroke:#000;"/><path d="M1800,1800.54c-500,-500 -1000,-1000 -1500,-1500" style="fill:none;stroke-width:4.5px;stroke-linejoin:round;stroke-miterlimit:1.41421;stroke:#000;"/><path d="M300,300.543c333.333,0 666.667,0 1000,0" style="fill:none;stroke-width:4.5px;stroke-linejoin:round;stroke-miterlimit:1.41421;stroke:#000;"/><path d="M300,1300.54c333.333,0 666.667,0 1000,0" style="fill:none;stroke-width:4.5px;stroke-linejoin:round;stroke-miterlimit:1.41421;stroke:#000;"/><path d="M1300,1300.54c0,-333.334 0,-666.667 0,-1000" style="fill:none;stroke-width:4.5px;stroke-linejoin:round;stroke-miterlimit:1.41421;stroke:#000;"/><g transform="matrix(0.201794,0.979428,-0.979428,0.201794,3353.56,-3719.45)"><text x="4513.21px" y="3791.48px" style="font-family:'ArialMT';font-size:64px;fill:#000;">15.30m</text></g><g transform="matrix(0.201794,0.979428,-0.979428,0.201794,2775.71,-4011.18)"><text x="4403.27px" y="3291.1px" style="font-family:'ArialMT';font-size:64px;fill:#000;">10.20m</text></g><g transform="matrix(0.717727,0.696325,-0.696325,0.717727,-400.298,-2767.94)"><text x="3768.37px" y="1716.03px" style="font-family:'ArialMT';font-size:64px;fill:#000;">14.14m</text></g><g transform="matrix(0.88951,0.456916,-0.456916,0.88951,-1042.5,-1306.3)"><text x="2736.61px" y="785.042px" style="font-family:'ArialMT';font-size:64px;fill:#000;">1<tspan x="2767.45px 2803.05px " y="785.042px 785.042px ">1.</tspan>18m</text></g><g transform="matrix(0.88951,0.456916,-0.456916,0.88951,-499.303,-1954.77)"><text x="4346.65px" y="1583.96px" style="font-family:'ArialMT';font-size:64px;fill:#000;">29.07m</text></g><g transform="matrix(0.865566,0.500795,-0.500795,0.865566,-369.292,-2199.45)"><text x="4466.54px" y="1806.17px" style="font-family:'ArialMT';font-size:64px;fill:#000;">30.07m</text></g><g transform="matrix(0.70786,0.706353,-0.706353,0.70786,70.4632,-3018.53)"><text x="4238.89px" y="2169.66px" style="font-family:'ArialMT';font-size:64px;fill:#000;">22.63m</text></g><path d="M300,300.543c866.667,433.333 1733.33,866.666 2600,1300" style="fill:none;stroke-width:4.5px;stroke-linejoin:round;stroke-miterlimit:1.41421;stroke:#000;"/><path d="M300,300.543c866.667,0 1733.33,0 2600,0" style="fill:none;stroke-width:4.5px;stroke-linejoin:round;stroke-miterlimit:1.41421;stroke:#000;"/><path d="M300,300.543c100,500 200,1000 300,1500" style="fill:none;stroke-width:4.5px;stroke-linejoin:round;stroke-miterlimit:1.41421;stroke:#000;"/><path d="M300,300.543c866.667,500 1733.33,1000 2600,1500" style="fill:none;stroke-width:4.5px;stroke-linejoin:round;stroke-miterlimit:1.41421;stroke:#000;"/><path d="M300,300.543c0,500 0,1000 0,1500" style="fill:none;stroke-width:4.5px;stroke-linejoin:round;stroke-miterlimit:1.41421;stroke:#000;"/></svg>