<?xml version="1.0" standalone="no"?><!DOCTYPE svg PUBLIC "-//W3C//DTD SVG 1.1//EN" "http://www.w3.org/Graphics/SVG/1.1/DTD/svg11.dtd"><svg width="100%" height="100%" viewBox="0 0 17921 20421" version="1.1" xmlns="http://www.w3.org/2000/svg" xmlns:xlink="http://www.w3.org/1999/xlink" xml:space="preserve" style="fill-rule:evenodd;clip-rule:evenodd;stroke-linejoin:round;stroke-miterlimit:1.41421;"><path d="M9580.1,2738.14c114.982,0.179 208.188,93.675 208.008,208.657c-0.179,114.982 -93.675,208.188 -208.657,208.009c-114.982,-0.179 -208.188,-93.676 -208.009,-208.658c0.179,-114.982 93.676,-208.188 208.658,-208.008Z" style="fill:#f00;stroke-width:35.42px;stroke-dasharray:106.25,1.77,0,0;stroke:#000;"/><path d="M3320.37,8978.39c114.982,0.179 208.187,93.676 208.008,208.658c-0.179,114.982 -93.675,208.187 -208.658,208.008c-114.982,-0.179 -208.187,-93.675 -208.008,-208.657c0.179,-114.983 93.676,-208.188 208.658,-208.009Z" style="fill:#f00;stroke-width:35.42px;stroke-dasharray:106.25,1.77,0,0;stroke:#000;"/><path d="M15820.4,8997.87c114.982,0.179 208.187,93.675 208.008,208.658c-0.179,114.982 -93.676,208.187 -208.658,208.008c-114.982,-0.179 -208.187,-93.676 -208.008,-208.658c0.179,-114.982 93.675,-208.187 208.658,-208.008Z" style="fill:#f00;stroke-width:35.42px;stroke-dasharray:106.25,1.77,0,0;stroke:#000;"/><path d="M9570.36,8988.13c114.982,0.179 208.188,93.675 208.009,208.658c-0.18,114.982 -93.676,208.187 -208.658,208.008c-114.982,-0.179 -208.188,-93.675 -208.009,-208.658c0.18,-114.982 93.676,-208.187 208.658,-208.008Z" style="fill:#f00;stroke-width:35.42px;stroke-dasharray:106.25,1.77,0,0;stroke:#000;"/><path d="M9560.62,15238.1c114.982,0.18 208.188,93.676 208.009,208.658c-0.179,114.982 -93.676,208.188 -208.658,208.009c-114.982,-0.18 -208.188,-93.676 -208.008,-208.658c0.179,-114.982 93.675,-208.188 208.657,-208.009Z" style="fill:#f00;stroke-width:35.42px;stroke-dasharray:106.25,1.77,0,0;stroke:#000;"/><path d="M9554.13,19404.8c114.982,0.179 208.187,93.676 208.008,208.658c-0.179,114.982 -93.675,208.187 -208.658,208.008c-114.982,-0.179 -208.187,-93.675 -208.008,-208.658c0.179,-114.982 93.676,-208.187 208.658,-208.008Z" style="fill:#f00;stroke-width:35.42px;stroke-dasharray:106.25,1.77,0,0;stroke:#000;"/><path d="M2085.94,15420.5l-416.666,-0.649l-6.492,4166.66l839.825,0.005" style="fill:none;stroke-width:35.42px;stroke-dasharray:106.25,1.77,0,0;stroke:#000;"/><path d="M2522.08,2921.16l-833.333,-1.298l-19.477,12500l833.332,1.298" style="fill:none;stroke-width:35.42px;stroke-dasharray:106.25,1.77,0,0;stroke:#000;"/><path d="M3335.94,1479.68l0,-416.667l6250,0l0,416.667" style="fill:none;stroke-width:35.42px;stroke-dasharray:106.25,1.77,0,0;stroke:#000;"/><g transform="matrix(0.999999,0.00155822,-0.00155822,0.999999,-188.925,142.502)"><text x="5799.65px" y="742.565px" style="font-family:'ArialMT';font-size:662.07px;fill:#000;">15m</text></g><g transform="matrix(0.999999,0.00155822,-0.00155822,0.999999,-175.801,150.945)"><text x="387.958px" y="9168.71px" style="font-family:'ArialMT';font-size:662.07px;fill:#000;">30m</text></g><g transform="matrix(0.999999,0.00155822,-0.00155822,0.999999,-162.623,150.964)"><text x="381.801px" y="17626px" style="font-family:'ArialMT';font-size:662.07px;fill:#000;">10m</text></g><path d="M10835.9,19586.5c67.903,-655.341 203.709,-1966.03 0,-2916.67c-208.333,-972.222 -666.479,-1873.14 -1250,-2916.67c-675.314,-1207.68 -1511.23,-3302.02 -1250,-5000c277.778,-1805.56 2916.67,-4722.22 2916.67,-5833.33c0,-1011.13 -2093.88,-1421.04 -2916.67,-833.334c-1458.33,1041.67 -6041.67,4722.22 -5833.33,7083.33c208.333,2361.11 4791.67,7152.78 7083.33,7083.33c2291.67,-69.444 7978.38,-6419.56 6666.67,-7500c-801.646,-660.302 -3717.28,-33.643 -6666.67,1121.86c-3812.99,1493.84 -8378.73,45.727 -7500,-925.73c1632.74,-1805.03 8202.21,-5088.91 8333.33,-6029.46c142.664,-1023.33 -1713.93,-973.914 -1666.67,0c50.599,1042.75 2222.22,4166.67 2083.33,6250c-138.889,2083.33 -2291.67,4513.89 -2916.67,6250c-479.761,1332.67 -715.476,3222 -833.334,4166.67" style="fill:none;stroke-width:91.67px;stroke-dasharray:275,4.58,0,0;stroke:#000;"/><path d="M10834.6,19584.4l42.209,-414.523l-194.699,158.713l194.699,-158.713l158.713,194.699l-158.713,-194.699l-42.209,414.523Z" style="fill:#f00;stroke-width:91.67px;stroke-dasharray:275,4.58,0,0;stroke:#000;"/><path d="M12222.4,14859.2l315.7,-271.927l-250.498,-18.66l250.498,18.66l-18.66,250.499l18.66,-250.499l-315.7,271.927Z" style="fill:#f00;stroke-width:91.67px;stroke-dasharray:275,4.58,0,0;stroke:#000;"/><path d="M5624.78,13976.2l302.203,286.852l-6.543,-251.107l6.543,251.107l-251.107,6.544l251.107,-6.544l-302.203,-286.852Z" style="fill:#f00;stroke-width:91.67px;stroke-dasharray:275,4.58,0,0;stroke:#000;"/><path d="M7142.75,19175l-53.96,413.157l199.127,-153.121l-199.127,153.121l-153.122,-199.127l153.122,199.127l53.96,-413.157Z" style="fill:#f00;stroke-width:91.67px;stroke-dasharray:275,4.58,0,0;stroke:#000;"/><path d="M3886.07,6138.47l-241.506,339.538l247.692,-41.79l-247.692,41.79l-41.79,-247.692l41.79,247.692l241.506,-339.538Z" style="fill:#f00;stroke-width:91.67px;stroke-dasharray:275,4.58,0,0;stroke:#000;"/><path d="M6045.85,6088.12l357.205,-214.512l-243.716,-60.828l243.716,60.828l-60.828,243.716l60.828,-243.716l-357.205,214.512Z" style="fill:#f00;stroke-width:91.67px;stroke-dasharray:275,4.58,0,0;stroke:#000;"/><path d="M10583.4,7483.95l106.902,402.72l126.103,-217.246l-126.103,217.246l-217.246,-126.104l217.246,126.104l-106.902,-402.72Z" style="fill:#f00;stroke-width:91.67px;stroke-dasharray:275,4.58,0,0;stroke:#000;"/><path d="M8591.26,7919.86l158.246,-385.447l-231.77,96.853l231.77,-96.853l96.853,231.769l-96.853,-231.769l-158.246,385.447Z" style="fill:#f00;stroke-width:91.67px;stroke-dasharray:275,4.58,0,0;stroke:#000;"/><path d="M12701.7,8858.03l-398.228,122.577l222.013,117.507l-222.013,-117.507l117.507,-222.014l-117.507,222.014l398.228,-122.577Z" style="fill:#f00;stroke-width:91.67px;stroke-dasharray:275,4.58,0,0;stroke:#000;"/></svg>