<?xml version="1.0" standalone="no"?><!DOCTYPE svg PUBLIC "-//W3C//DTD SVG 1.1//EN" "http://www.w3.org/Graphics/SVG/1.1/DTD/svg11.dtd"><svg width="100%" height="100%" viewBox="0 0 2901 2201" version="1.1" xmlns="http://www.w3.org/2000/svg" xmlns:xlink="http://www.w3.org/1999/xlink" xml:space="preserve" style="fill-rule:evenodd;clip-rule:evenodd;stroke-miterlimit:1;"><g><g id="vertical lines"><path d="M100.257,100.543l0,2000" style="fill:none;stroke-width:1px;stroke:#b3b3b3;"/><path d="M700.257,100.543l0,2000" style="fill:none;stroke-width:1px;stroke:#b3b3b3;"/><path d="M1300.26,100.543l0,2000" style="fill:none;stroke-width:1px;stroke:#b3b3b3;"/><path d="M1900.26,100.543l0,2000" style="fill:none;stroke-width:1px;stroke:#b3b3b3;"/><path d="M2500.26,100.543l0,2000" style="fill:none;stroke-width:1px;stroke:#b3b3b3;"/><path d="M300.257,100.543l0,2000" style="fill:none;stroke-width:1px;stroke:#b3b3b3;"/><path d="M900.257,100.543l0,2000" style="fill:none;stroke-width:1px;stroke:#b3b3b3;"/><path d="M1500.26,100.543l0,2000" style="fill:none;stroke-width:1px;stroke:#b3b3b3;"/><path d="M2100.26,100.543l0,2000" style="fill:none;stroke-width:1px;stroke:#b3b3b3;"/><path d="M2700.26,100.543l0,2000" style="fill:none;stroke-width:1px;stroke:#b3b3b3;"/><path d="M500.257,100.543l0,2000" style="fill:none;stroke-width:1px;stroke:#b3b3b3;"/><path d="M1100.26,100.543l0,2000" style="fill:none;stroke-width:1px;stroke:#b3b3b3;"/><path d="M1700.26,100.543l0,2000" style="fill:none;stroke-width:1px;stroke:#b3b3b3;"/><path d="M2300.26,100.543l0,2000" style="fill:none;stroke-width:1px;stroke:#b3b3b3;"/><path d="M200.257,100.543l0,2000" style="fill:none;stroke-width:1px;stroke:#b3b3b3;"/><path d="M800.257,100.543l0,2000" style="fill:none;stroke-width:1px;stroke:#b3b3b3;"/><path d="M1400.26,100.543l0,2000" style="fill:none;stroke-width:1px;stroke:#b3b3b3;"/><path d="M2000.26,100.543l0,2000" style="fill:none;stroke-width:1px;stroke:#b3b3b3;"/><path d="M2600.26,100.543l0,2000" style="fill:none;stroke-width:1px;stroke:#b3b3b3;"/><path d="M400.257,100.543l0,2000" style="fill:none;stroke-width:1px;stroke:#b3b3b3;"/><path d="M1000.26,100.543l0,2000" style="fill:none;stroke-width:1px;stroke:#b3b3b3;"/><path d="M1600.26,100.543l0,2000" style="fill:none;stroke-width:1px;stroke:#b3b3b3;"/><path d="M2200.26,100.543l0,2000" style="fill:none;stroke-width:1px;stroke:#b3b3b3;"/><path d="M2800.26,100.543l0,2000" style="fill:none;stroke-width:1px;stroke:#b3b3b3;"/><path d="M600.257,100.543l0,2000" style="fill:none;stroke-width:1px;stroke:#b3b3b3;"/><path d="M1200.26,100.543l0,2000" style="fill:none;stroke-width:1px;stroke:#b3b3b3;"/><path d="M1800.26,100.543l0,2000" style="fill:none;stroke-width:1px;stroke:#b3b3b3;"/><path d="M2400.26,100.543l0,2000" style="fill:none;stroke-width:1px;stroke:#b3b3b3;"/></g><g id="horizontal lines"><path d="M100.257,100.543l2700,0" style="fill:none;stroke-width:1px;stroke-linejoin:round;stroke-miterlimit:1.41421;stroke:#b3b3b3;"/><path d="M100.257,500.543l2700,0" style="fill:none;stroke-width:1px;stroke-linejoin:round;stroke-miterlimit:1.41421;stroke:#b3b3b3;"/><path d="M100.257,900.543l2700,0" style="fill:none;stroke-width:1px;stroke-linejoin:round;stroke-miterlimit:1.41421;stroke:#b3b3b3;"/><path d="M100.257,1300.54l2700,0" style="fill:none;stroke-width:1px;stroke-linejoin:round;stroke-miterlimit:1.41421;stroke:#b3b3b3;"/><path d="M2800.26,200.543l-2700,0" style="fill:none;stroke-width:1px;stroke-linejoin:round;stroke-miterlimit:1.41421;stroke:#b3b3b3;"/><path d="M2800.26,600.543l-2700,0" style="fill:none;stroke-width:1px;stroke-linejoin:round;stroke-miterlimit:1.41421;stroke:#b3b3b3;"/><path d="M2800.26,1000.54l-2700,0" style="fill:none;stroke-width:1px;stroke-linejoin:round;stroke-miterlimit:1.41421;stroke:#b3b3b3;"/><path d="M2800.26,1400.54l-2700,0" style="fill:none;stroke-width:1px;stroke-linejoin:round;stroke-miterlimit:1.41421;stroke:#b3b3b3;"/><path d="M100.257,300.543l2700,0" style="fill:none;stroke-width:1px;stroke-linejoin:round;stroke-miterlimit:1.41421;stroke:#b3b3b3;"/><path d="M100.257,700.543l2700,0" style="fill:none;stroke-width:1px;stroke-linejoin:round;stroke-miterlimit:1.41421;stroke:#b3b3b3;"/><path d="M100.257,1100.54l2700,0" style="fill:none;stroke-width:1px;stroke-linejoin:round;stroke-miterlimit:1.41421;stroke:#b3b3b3;"/><path d="M100.257,1500.54l2700,0" style="fill:none;stroke-width:1px;stroke-linejoin:round;stroke-miterlimit:1.41421;stroke:#b3b3b3;"/><path d="M100.257,400.543l2700,0" style="fill:none;stroke-width:1px;stroke-linejoin:round;stroke-miterlimit:1.41421;stroke:#b3b3b3;"/><path d="M100.257,800.543l2700,0" style="fill:none;stroke-width:1px;stroke-linejoin:round;stroke-miterlimit:1.41421;stroke:#b3b3b3;"/><path d="M100.257,1200.54l2700,0" style="fill:none;stroke-width:1px;stroke-linejoin:round;stroke-miterlimit:1.41421;stroke:#b3b3b3;"/><path d="M100.257,1600.54l2700,0" style="fill:none;stroke-width:1px;stroke-linejoin:round;stroke-miterlimit:1.41421;stroke:#b3b3b3;"/><path d="M100.257,1800.54l2700,0" style="fill:none;stroke-width:1px;stroke-linejoin:round;stroke-miterlimit:1.41421;stroke:#b3b3b3;"/><path d="M100.257,2000.54l2700,0" style="fill:none;stroke-width:1px;stroke-linejoin:round;stroke-miterlimit:1.41421;stroke:#b3b3b3;"/><path d="M100.257,1700.54l2700,0" style="fill:none;stroke-width:1px;stroke-linejoin:round;stroke-miterlimit:1.41421;stroke:#b3b3b3;"/><path d="M100.257,1900.54l2700,0" style="fill:none;stroke-width:1px;stroke-linejoin:round;stroke-miterlimit:1.41421;stroke:#b3b3b3;"/><path d="M100.257,2100.54l2700,0" style="fill:none;stroke-width:1px;stroke-linejoin:round;stroke-miterlimit:1.41421;stroke:#b3b3b3;"/></g><g id="top labels"><rect x="200.257" y="50.543" width="100" height="50" style="fill:#808080;stroke-width:1px;stroke-linejoin:round;stroke-miterlimit:1.41421;stroke:#000;"/><rect x="700.257" y="50.543" width="100" height="50" style="fill:#808080;stroke-width:1px;stroke-linejoin:round;stroke-miterlimit:1.41421;stroke:#000;"/><rect x="1200.26" y="50.543" width="100" height="50" style="fill:#808080;stroke-width:1px;stroke-linejoin:round;stroke-miterlimit:1.41421;stroke:#000;"/><rect x="1700.26" y="50.543" width="100" height="50" style="fill:#808080;stroke-width:1px;stroke-linejoin:round;stroke-miterlimit:1.41421;stroke:#000;"/><rect x="2200.26" y="50.543" width="100" height="50" style="fill:#808080;stroke-width:1px;stroke-linejoin:round;stroke-miterlimit:1.41421;stroke:#000;"/><rect x="300.257" y="50.543" width="100" height="50" style="fill:#808080;stroke-width:1px;stroke-linejoin:round;stroke-miterlimit:1.41421;stroke:#000;"/><rect x="800.257" y="50.543" width="100" height="50" style="fill:#808080;stroke-width:1px;stroke-linejoin:round;stroke-miterlimit:1.41421;stroke:#000;"/><rect x="1300.26" y="50.543" width="100" height="50" style="fill:#808080;stroke-width:1px;stroke-linejoin:round;stroke-miterlimit:1.41421;stroke:#000;"/><rect x="1800.26" y="50.543" width="100" height="50" style="fill:#808080;stroke-width:1px;stroke-linejoin:round;stroke-miterlimit:1.41421;stroke:#000;"/><rect x="2300.26" y="50.543" width="100" height="50" style="fill:#808080;stroke-width:1px;stroke-linejoin:round;stroke-miterlimit:1.41421;stroke:#000;"/><rect x="400.257" y="50.543" width="100" height="50" style="fill:#808080;stroke-width:1px;stroke-linejoin:round;stroke-miterlimit:1.41421;stroke:#000;"/><rect x="900.257" y="50.543" width="100" height="50" style="fill:#808080;stroke-width:1px;stroke-linejoin:round;stroke-miterlimit:1.41421;stroke:#000;"/><rect x="1400.26" y="50.543" width="100" height="50" style="fill:#808080;stroke-width:1px;stroke-linejoin:round;stroke-miterlimit:1.41421;stroke:#000;"/><rect x="1900.26" y="50.543" width="100" height="50" style="fill:#808080;stroke-width:1px;stroke-linejoin:round;stroke-miterlimit:1.41421;stroke:#000;"/><rect x="2400.26" y="50.543" width="100" height="50" style="fill:#808080;stroke-width:1px;stroke-linejoin:round;stroke-miterlimit:1.41421;stroke:#000;"/><rect x="500.257" y="50.543" width="100" height="50" style="fill:#808080;stroke-width:1px;stroke-linejoin:round;stroke-miterlimit:1.41421;stroke:#000;"/><rect x="1000.26" y="50.543" width="100" height="50" style="fill:#808080;stroke-width:1px;stroke-linejoin:round;stroke-miterlimit:1.41421;stroke:#000;"/><rect x="1500.26" y="50.543" width="100" height="50" style="fill:#808080;stroke-width:1px;stroke-linejoin:round;stroke-miterlimit:1.41421;stroke:#000;"/><rect x="2000.26" y="50.543" width="100" height="50" style="fill:#808080;stroke-width:1px;stroke-linejoin:round;stroke-miterlimit:1.41421;stroke:#000;"/><rect x="2500.26" y="50.543" width="100" height="50" style="fill:#808080;stroke-width:1px;stroke-linejoin:round;stroke-miterlimit:1.41421;stroke:#000;"/><rect x="600.257" y="50.543" width="100" height="50" style="fill:#808080;stroke-width:1px;stroke-linejoin:round;stroke-miterlimit:1.41421;stroke:#000;"/><rect x="1100.26" y="50.543" width="100" height="50" style="fill:#808080;stroke-width:1px;stroke-linejoin:round;stroke-miterlimit:1.41421;stroke:#000;"/><rect x="1600.26" y="50.543" width="100" height="50" style="fill:#808080;stroke-width:1px;stroke-linejoin:round;stroke-miterlimit:1.41421;stroke:#000;"/><rect x="2100.26" y="50.543" width="100" height="50" style="fill:#808080;stroke-width:1px;stroke-linejoin:round;stroke-miterlimit:1.41421;stroke:#000;"/><rect x="2600.26" y="50.543" width="100" height="50" style="fill:#808080;stroke-width:1px;stroke-linejoin:round;stroke-miterlimit:1.41421;stroke:#000;"/><rect x="2700.26" y="50.543" width="100" height="50" style="fill:#808080;stroke-width:1px;stroke-linejoin:round;stroke-miterlimit:1.41421;stroke:#000;"/><text x="238.267px" y="89.622px" style="font-family:'ArialMT';font-size:36px;fill:#000;">A</text><text x="738.267px" y="89.622px" style="font-family:'ArialMT';font-size:36px;fill:#000;">F</text><text x="1238.27px" y="89.622px" style="font-family:'ArialMT';font-size:36px;fill:#000;">K</text><text x="1738.27px" y="89.622px" style="font-family:'ArialMT';font-size:36px;fill:#000;">P</text><text x="2238.27px" y="89.622px" style="font-family:'ArialMT';font-size:36px;fill:#000;">U</text><text x="338.267px" y="89.622px" style="font-family:'ArialMT';font-size:36px;fill:#000;">B</text><text x="838.267px" y="89.622px" style="font-family:'ArialMT';font-size:36px;fill:#000;">G</text><text x="1338.27px" y="89.622px" style="font-family:'ArialMT';font-size:36px;fill:#000;">L</text><text x="1838.27px" y="89.622px" style="font-family:'ArialMT';font-size:36px;fill:#000;">Q</text><text x="2338.27px" y="89.622px" style="font-family:'ArialMT';font-size:36px;fill:#000;">V</text><text x="438.267px" y="89.622px" style="font-family:'ArialMT';font-size:36px;fill:#000;">C</text><text x="938.267px" y="89.622px" style="font-family:'ArialMT';font-size:36px;fill:#000;">H</text><text x="1438.27px" y="89.622px" style="font-family:'ArialMT';font-size:36px;fill:#000;">M</text><text x="1938.27px" y="89.622px" style="font-family:'ArialMT';font-size:36px;fill:#000;">R</text><text x="2438.27px" y="89.622px" style="font-family:'ArialMT';font-size:36px;fill:#000;">W</text><text x="538.267px" y="89.622px" style="font-family:'ArialMT';font-size:36px;fill:#000;">D</text><text x="1045.27px" y="89.622px" style="font-family:'ArialMT';font-size:36px;fill:#000;">I</text><text x="1538.27px" y="89.622px" style="font-family:'ArialMT';font-size:36px;fill:#000;">N</text><text x="2038.27px" y="89.622px" style="font-family:'ArialMT';font-size:36px;fill:#000;">S</text><text x="2538.27px" y="89.622px" style="font-family:'ArialMT';font-size:36px;fill:#000;">X</text><text x="638.267px" y="89.622px" style="font-family:'ArialMT';font-size:36px;fill:#000;">E</text><text x="1138.27px" y="89.622px" style="font-family:'ArialMT';font-size:36px;fill:#000;">J</text><text x="1638.27px" y="89.622px" style="font-family:'ArialMT';font-size:36px;fill:#000;">O</text><text x="2138.27px" y="89.622px" style="font-family:'ArialMT';font-size:36px;fill:#000;">T</text><text x="2638.27px" y="89.622px" style="font-family:'ArialMT';font-size:36px;fill:#000;">Y</text><text x="2738.27px" y="89.622px" style="font-family:'ArialMT';font-size:36px;fill:#000;">Z</text></g><g id="side labels"><rect x="50.257" y="200.543" width="50" height="100" style="fill:#808080;stroke-width:1px;stroke-linejoin:round;stroke-miterlimit:1.41421;stroke:#000;"/><rect x="50.257" y="600.543" width="50" height="100" style="fill:#808080;stroke-width:1px;stroke-linejoin:round;stroke-miterlimit:1.41421;stroke:#000;"/><rect x="50.257" y="1000.54" width="50" height="100" style="fill:#808080;stroke-width:1px;stroke-linejoin:round;stroke-miterlimit:1.41421;stroke:#000;"/><rect x="50.257" y="1400.54" width="50" height="100" style="fill:#808080;stroke-width:1px;stroke-linejoin:round;stroke-miterlimit:1.41421;stroke:#000;"/><rect x="50.257" y="300.543" width="50" height="100" style="fill:#808080;stroke-width:1px;stroke-linejoin:round;stroke-miterlimit:1.41421;stroke:#000;"/><rect x="50.257" y="700.543" width="50" height="100" style="fill:#808080;stroke-width:1px;stroke-linejoin:round;stroke-miterlimit:1.41421;stroke:#000;"/><rect x="50.257" y="1100.54" width="50" height="100" style="fill:#808080;stroke-width:1px;stroke-linejoin:round;stroke-miterlimit:1.41421;stroke:#000;"/><rect x="50.257" y="1500.54" width="50" height="100" style="fill:#808080;stroke-width:1px;stroke-linejoin:round;stroke-miterlimit:1.41421;stroke:#000;"/><rect x="50.257" y="400.543" width="50" height="100" style="fill:#808080;stroke-width:1px;stroke-linejoin:round;stroke-miterlimit:1.41421;stroke:#000;"/><rect x="50.257" y="800.543" width="50" height="100" style="fill:#808080;stroke-width:1px;stroke-linejoin:round;stroke-miterlimit:1.41421;stroke:#000;"/><rect x="50.257" y="1200.54" width="50" height="100" style="fill:#808080;stroke-width:1px;stroke-linejoin:round;stroke-miterlimit:1.41421;stroke:#000;"/><rect x="50.257" y="1600.54" width="50" height="100" style="fill:#808080;stroke-width:1px;stroke-linejoin:round;stroke-miterlimit:1.41421;stroke:#000;"/><rect x="50.257" y="1700.54" width="50" height="100" style="fill:#808080;stroke-width:1px;stroke-linejoin:round;stroke-miterlimit:1.41421;stroke:#000;"/><rect x="50.257" y="1800.54" width="50" height="100" style="fill:#808080;stroke-width:1px;stroke-linejoin:round;stroke-miterlimit:1.41421;stroke:#000;"/><rect x="50.257" y="1900.54" width="50" height="100" style="fill:#808080;stroke-width:1px;stroke-linejoin:round;stroke-miterlimit:1.41421;stroke:#000;"/><rect x="50.257" y="2000.54" width="50" height="100" style="fill:#808080;stroke-width:1px;stroke-linejoin:round;stroke-miterlimit:1.41421;stroke:#000;"/><rect x="50.257" y="500.543" width="50" height="100" style="fill:#808080;stroke-width:1px;stroke-linejoin:round;stroke-miterlimit:1.41421;stroke:#000;"/><rect x="50.257" y="900.543" width="50" height="100" style="fill:#808080;stroke-width:1px;stroke-linejoin:round;stroke-miterlimit:1.41421;stroke:#000;"/><rect x="50.257" y="1300.54" width="50" height="100" style="fill:#808080;stroke-width:1px;stroke-linejoin:round;stroke-miterlimit:1.41421;stroke:#000;"/><text x="65.242px" y="262.914px" style="font-family:'ArialMT';font-size:36px;fill:#000;">1</text><text x="65.242px" y="662.914px" style="font-family:'ArialMT';font-size:36px;fill:#000;">5</text><text x="65.242px" y="1062.91px" style="font-family:'ArialMT';font-size:36px;fill:#000;">9</text><text x="55.231px" y="1462.91px" style="font-family:'ArialMT';font-size:36px;fill:#000;">13</text><text x="65.242px" y="362.914px" style="font-family:'ArialMT';font-size:36px;fill:#000;">2</text><text x="65.242px" y="762.914px" style="font-family:'ArialMT';font-size:36px;fill:#000;">6</text><text x="55.231px" y="1162.91px" style="font-family:'ArialMT';font-size:36px;fill:#000;">10</text><text x="55.231px" y="1562.91px" style="font-family:'ArialMT';font-size:36px;fill:#000;">14</text><text x="65.242px" y="462.914px" style="font-family:'ArialMT';font-size:36px;fill:#000;">3</text><text x="65.242px" y="862.914px" style="font-family:'ArialMT';font-size:36px;fill:#000;">7</text><text x="56.567px" y="1262.91px" style="font-family:'ArialMT';font-size:36px;fill:#000;">1<tspan x="73.916px " y="1262.91px ">1</tspan></text><text x="55.231px" y="1662.91px" style="font-family:'ArialMT';font-size:36px;fill:#000;">15</text><text x="55.231px" y="1762.91px" style="font-family:'ArialMT';font-size:36px;fill:#000;">16</text><text x="55.231px" y="1862.91px" style="font-family:'ArialMT';font-size:36px;fill:#000;">17</text><text x="55.231px" y="1962.91px" style="font-family:'ArialMT';font-size:36px;fill:#000;">18</text><text x="55.231px" y="2062.91px" style="font-family:'ArialMT';font-size:36px;fill:#000;">19</text><text x="65.242px" y="562.914px" style="font-family:'ArialMT';font-size:36px;fill:#000;">4</text><text x="65.242px" y="962.914px" style="font-family:'ArialMT';font-size:36px;fill:#000;">8</text><text x="55.231px" y="1362.91px" style="font-family:'ArialMT';font-size:36px;fill:#000;">12</text></g><rect x="100.257" y="100.543" width="100" height="100" style="fill:#808080;stroke-width:1px;stroke-linejoin:round;stroke-miterlimit:1.41421;stroke:#000;"/><text x="105.804px" y="176.387px" style="font-family:'ArialMT';font-size:64px;fill:#000;">1m</text></g><g><circle cx="800.257" cy="800.543" r="20" style="fill:#fcd1d1;stroke-width:1px;stroke-linejoin:round;stroke-miterlimit:1.41421;stroke:#000;"/><circle cx="800.257" cy="800.543" r="10" style="fill:#fc2e30;stroke-width:1px;stroke-linejoin:round;stroke-miterlimit:1.41421;stroke:#000;"/></g><g><circle cx="600.257" cy="800.543" r="20" style="fill:#fcd1d1;stroke-width:1px;stroke-linejoin:round;stroke-miterlimit:1.41421;stroke:#000;"/><circle cx="600.257" cy="800.543" r="10" style="fill:#fc2e30;stroke-width:1px;stroke-linejoin:round;stroke-miterlimit:1.41421;stroke:#000;"/></g><g><circle cx="400.257" cy="800.543" r="20" style="fill:#fcd1d1;stroke-width:1px;stroke-linejoin:round;stroke-miterlimit:1.41421;stroke:#000;"/><circle cx="400.257" cy="800.543" r="10" style="fill:#fc2e30;stroke-width:1px;stroke-linejoin:round;stroke-miterlimit:1.41421;stroke:#000;"/></g><g><circle cx="200.257" cy="800.543" r="20" style="fill:#fcd1d1;stroke-width:1px;stroke-linejoin:round;stroke-miterlimit:1.41421;stroke:#000;"/><circle cx="200.257" cy="800.543" r="10" style="fill:#fc2e30;stroke-width:1px;stroke-linejoin:round;stroke-miterlimit:1.41421;stroke:#000;"/></g><g><circle cx="200.257" cy="1000.54" r="20" style="fill:#fcd1d1;stroke-width:1px;stroke-linejoin:round;stroke-miterlimit:1.41421;stroke:#000;"/><circle cx="200.257" cy="1000.54" r="10" style="fill:#fc2e30;stroke-width:1px;stroke-linejoin:round;stroke-miterlimit:1.41421;stroke:#000;"/></g><g><circle cx="200.257" cy="1200.54" r="20" style="fill:#fcd1d1;stroke-width:1px;stroke-linejoin:round;stroke-miterlimit:1.41421;stroke:#000;"/><circle cx="200.257" cy="1200.54" r="10" style="fill:#fc2e30;stroke-width:1px;stroke-linejoin:round;stroke-miterlimit:1.41421;stroke:#000;"/></g><g><circle cx="200.257" cy="1400.54" r="20" style="fill:#fcd1d1;stroke-width:1px;stroke-linejoin:round;stroke-miterlimit:1.41421;stroke:#000;"/><circle cx="200.257" cy="1400.54" r="10" style="fill:#fc2e30;stroke-width:1px;stroke-linejoin:round;stroke-miterlimit:1.41421;stroke:#000;"/></g><g><circle cx="400.257" cy="1400.54" r="20" style="fill:#fcd1d1;stroke-width:1px;stroke-linejoin:round;stroke-miterlimit:1.41421;stroke:#000;"/><circle cx="400.257" cy="1400.54" r="10" style="fill:#fc2e30;stroke-width:1px;stroke-linejoin:round;stroke-miterlimit:1.41421;stroke:#000;"/></g><g><circle cx="600.257" cy="1400.54" r="20" style="fill:#fcd1d1;stroke-width:1px;stroke-linejoin:round;stroke-miterlimit:1.41421;stroke:#000;"/><circle cx="600.257" cy="1400.54" r="10" style="fill:#fc2e30;stroke-width:1px;stroke-linejoin:round;stroke-miterlimit:1.41421;stroke:#000;"/></g><g><circle cx="800.257" cy="1400.54" r="20" style="fill:#fcd1d1;stroke-width:1px;stroke-linejoin:round;stroke-miterlimit:1.41421;stroke:#000;"/><circle cx="800.257" cy="1400.54" r="10" style="fill:#fc2e30;stroke-width:1px;stroke-linejoin:round;stroke-miterlimit:1.41421;stroke:#000;"/></g><g><circle cx="380.257" cy="1100.54" r="20" style="fill:#fcd1d1;stroke-width:1px;stroke-linejoin:round;stroke-miterlimit:1.41421;stroke:#000;"/><circle cx="380.257" cy="1100.54" r="10" style="fill:#fc2e30;stroke-width:1px;stroke-linejoin:round;stroke-miterlimit:1.41421;stroke:#000;"/></g><g><circle cx="800.257" cy="1600.54" r="20" style="fill:#fcd1d1;stroke-width:1px;stroke-linejoin:round;stroke-miterlimit:1.41421;stroke:#000;"/><circle cx="800.257" cy="1600.54" r="10" style="fill:#fc2e30;stroke-width:1px;stroke-linejoin:round;stroke-miterlimit:1.41421;stroke:#000;"/></g><g><circle cx="800.257" cy="1800.54" r="20" style="fill:#fcd1d1;stroke-width:1px;stroke-linejoin:round;stroke-miterlimit:1.41421;stroke:#000;"/><circle cx="800.257" cy="1800.54" r="10" style="fill:#fc2e30;stroke-width:1px;stroke-linejoin:round;stroke-miterlimit:1.41421;stroke:#000;"/></g><g><circle cx="800.257" cy="2000.54" r="20" style="fill:#fcd1d1;stroke-width:1px;stroke-linejoin:round;stroke-miterlimit:1.41421;stroke:#000;"/><circle cx="800.257" cy="2000.54" r="10" style="fill:#fc2e30;stroke-width:1px;stroke-linejoin:round;stroke-miterlimit:1.41421;stroke:#000;"/></g><g><circle cx="1000.26" cy="2000.54" r="20" style="fill:#fcd1d1;stroke-width:1px;stroke-linejoin:round;stroke-miterlimit:1.41421;stroke:#000;"/><circle cx="1000.26" cy="2000.54" r="10" style="fill:#fc2e30;stroke-width:1px;stroke-linejoin:round;stroke-miterlimit:1.41421;stroke:#000;"/></g><g><circle cx="1200.26" cy="2000.54" r="20" style="fill:#fcd1d1;stroke-width:1px;stroke-linejoin:round;stroke-miterlimit:1.41421;stroke:#000;"/><circle cx="1200.26" cy="2000.54" r="10" style="fill:#fc2e30;stroke-width:1px;stroke-linejoin:round;stroke-miterlimit:1.41421;stroke:#000;"/></g><g><circle cx="1400.26" cy="2000.54" r="20" style="fill:#fcd1d1;stroke-width:1px;stroke-linejoin:round;stroke-miterlimit:1.41421;stroke:#000;"/><circle cx="1400.26" cy="2000.54" r="10" style="fill:#fc2e30;stroke-width:1px;stroke-linejoin:round;stroke-miterlimit:1.41421;stroke:#000;"/></g><g><circle cx="1100.26" cy="1820.54" r="20" style="fill:#fcd1d1;stroke-width:1px;stroke-linejoin:round;stroke-miterlimit:1.41421;stroke:#000;"/><circle cx="1100.26" cy="1820.54" r="10" style="fill:#fc2e30;stroke-width:1px;stroke-linejoin:round;stroke-miterlimit:1.41421;stroke:#000;"/></g><g><circle cx="800.257" cy="600.543" r="20" style="fill:#fcd1d1;stroke-width:1px;stroke-linejoin:round;stroke-miterlimit:1.41421;stroke:#000;"/><circle cx="800.257" cy="600.543" r="10" style="fill:#fc2e30;stroke-width:1px;stroke-linejoin:round;stroke-miterlimit:1.41421;stroke:#000;"/></g><g><circle cx="800.257" cy="400.543" r="20" style="fill:#fcd1d1;stroke-width:1px;stroke-linejoin:round;stroke-miterlimit:1.41421;stroke:#000;"/><circle cx="800.257" cy="400.543" r="10" style="fill:#fc2e30;stroke-width:1px;stroke-linejoin:round;stroke-miterlimit:1.41421;stroke:#000;"/></g><g><circle cx="800.257" cy="200.543" r="20" style="fill:#fcd1d1;stroke-width:1px;stroke-linejoin:round;stroke-miterlimit:1.41421;stroke:#000;"/><circle cx="800.257" cy="200.543" r="10" style="fill:#fc2e30;stroke-width:1px;stroke-linejoin:round;stroke-miterlimit:1.41421;stroke:#000;"/></g><g><circle cx="1000.26" cy="200.543" r="20" style="fill:#fcd1d1;stroke-width:1px;stroke-linejoin:round;stroke-miterlimit:1.41421;stroke:#000;"/><circle cx="1000.26" cy="200.543" r="10" style="fill:#fc2e30;stroke-width:1px;stroke-linejoin:round;stroke-miterlimit:1.41421;stroke:#000;"/></g><g><circle cx="1200.26" cy="200.543" r="20" style="fill:#fcd1d1;stroke-width:1px;stroke-linejoin:round;stroke-miterlimit:1.41421;stroke:#000;"/><circle cx="1200.26" cy="200.543" r="10" style="fill:#fc2e30;stroke-width:1px;stroke-linejoin:round;stroke-miterlimit:1.41421;stroke:#000;"/></g><g><circle cx="1400.26" cy="200.543" r="20" style="fill:#fcd1d1;stroke-width:1px;stroke-linejoin:round;stroke-miterlimit:1.41421;stroke:#000;"/><circle cx="1400.26" cy="200.543" r="10" style="fill:#fc2e30;stroke-width:1px;stroke-linejoin:round;stroke-miterlimit:1.41421;stroke:#000;"/></g><g><circle cx="1400.26" cy="400.543" r="20" style="fill:#fcd1d1;stroke-width:1px;stroke-linejoin:round;stroke-miterlimit:1.41421;stroke:#000;"/><circle cx="1400.26" cy="400.543" r="10" style="fill:#fc2e30;stroke-width:1px;stroke-linejoin:round;stroke-miterlimit:1.41421;stroke:#000;"/></g><g><circle cx="1400.26" cy="600.543" r="20" style="fill:#fcd1d1;stroke-width:1px;stroke-linejoin:round;stroke-miterlimit:1.41421;stroke:#000;"/><circle cx="1400.26" cy="600.543" r="10" style="fill:#fc2e30;stroke-width:1px;stroke-linejoin:round;stroke-miterlimit:1.41421;stroke:#000;"/></g><g><circle cx="1400.26" cy="800.543" r="20" style="fill:#fcd1d1;stroke-width:1px;stroke-linejoin:round;stroke-miterlimit:1.41421;stroke:#000;"/><circle cx="1400.26" cy="800.543" r="10" style="fill:#fc2e30;stroke-width:1px;stroke-linejoin:round;stroke-miterlimit:1.41421;stroke:#000;"/></g><g><circle cx="1600.26" cy="800.543" r="20" style="fill:#fcd1d1;stroke-width:1px;stroke-linejoin:round;stroke-miterlimit:1.41421;stroke:#000;"/><circle cx="1600.26" cy="800.543" r="10" style="fill:#fc2e30;stroke-width:1px;stroke-linejoin:round;stroke-miterlimit:1.41421;stroke:#000;"/></g><g><circle cx="1800.26" cy="800.543" r="20" style="fill:#fcd1d1;stroke-width:1px;stroke-linejoin:round;stroke-miterlimit:1.41421;stroke:#000;"/><circle cx="1800.26" cy="800.543" r="10" style="fill:#fc2e30;stroke-width:1px;stroke-linejoin:round;stroke-miterlimit:1.41421;stroke:#000;"/></g><g><circle cx="2000.26" cy="800.543" r="20" style="fill:#fcd1d1;stroke-width:1px;stroke-linejoin:round;stroke-miterlimit:1.41421;stroke:#000;"/><circle cx="2000.26" cy="800.543" r="10" style="fill:#fc2e30;stroke-width:1px;stroke-linejoin:round;stroke-miterlimit:1.41421;stroke:#000;"/></g><g><circle cx="2000.26" cy="1000.54" r="20" style="fill:#fcd1d1;stroke-width:1px;stroke-linejoin:round;stroke-miterlimit:1.41421;stroke:#000;"/><circle cx="2000.26" cy="1000.54" r="10" style="fill:#fc2e30;stroke-width:1px;stroke-linejoin:round;stroke-miterlimit:1.41421;stroke:#000;"/></g><g><circle cx="2000.26" cy="1200.54" r="20" style="fill:#fcd1d1;stroke-width:1px;stroke-linejoin:round;stroke-miterlimit:1.41421;stroke:#000;"/><circle cx="2000.26" cy="1200.54" r="10" style="fill:#fc2e30;stroke-width:1px;stroke-linejoin:round;stroke-miterlimit:1.41421;stroke:#000;"/></g><g><circle cx="2000.26" cy="1400.54" r="20" style="fill:#fcd1d1;stroke-width:1px;stroke-linejoin:round;stroke-miterlimit:1.41421;stroke:#000;"/><circle cx="2000.26" cy="1400.54" r="10" style="fill:#fc2e30;stroke-width:1px;stroke-linejoin:round;stroke-miterlimit:1.41421;stroke:#000;"/></g><g><circle cx="1800.26" cy="1400.54" r="20" style="fill:#fcd1d1;stroke-width:1px;stroke-linejoin:round;stroke-miterlimit:1.41421;stroke:#000;"/><circle cx="1800.26" cy="1400.54" r="10" style="fill:#fc2e30;stroke-width:1px;stroke-linejoin:round;stroke-miterlimit:1.41421;stroke:#000;"/></g><g><circle cx="1600.26" cy="1400.54" r="20" style="fill:#fcd1d1;stroke-width:1px;stroke-linejoin:round;stroke-miterlimit:1.41421;stroke:#000;"/><circle cx="1600.26" cy="1400.54" r="10" style="fill:#fc2e30;stroke-width:1px;stroke-linejoin:round;stroke-miterlimit:1.41421;stroke:#000;"/></g><g><circle cx="1400.26" cy="1400.54" r="20" style="fill:#fcd1d1;stroke-width:1px;stroke-linejoin:round;stroke-miterlimit:1.41421;stroke:#000;"/><circle cx="1400.26" cy="1400.54" r="10" style="fill:#fc2e30;stroke-width:1px;stroke-linejoin:round;stroke-miterlimit:1.41421;stroke:#000;"/></g><g><circle cx="1400.26" cy="1600.54" r="20" style="fill:#fcd1d1;stroke-width:1px;stroke-linejoin:round;stroke-miterlimit:1.41421;stroke:#000;"/><circle cx="1400.26" cy="1600.54" r="10" style="fill:#fc2e30;stroke-width:1px;stroke-linejoin:round;stroke-miterlimit:1.41421;stroke:#000;"/></g><g><circle cx="1400.26" cy="1800.54" r="20" style="fill:#fcd1d1;stroke-width:1px;stroke-linejoin:round;stroke-miterlimit:1.41421;stroke:#000;"/><circle cx="1400.26" cy="1800.54" r="10" style="fill:#fc2e30;stroke-width:1px;stroke-linejoin:round;stroke-miterlimit:1.41421;stroke:#000;"/></g><g><circle cx="1820.26" cy="1100.54" r="20" style="fill:#fcd1d1;stroke-width:1px;stroke-linejoin:round;stroke-miterlimit:1.41421;stroke:#000;"/><circle cx="1820.26" cy="1100.54" r="10" style="fill:#fc2e30;stroke-width:1px;stroke-linejoin:round;stroke-miterlimit:1.41421;stroke:#000;"/></g><g><circle cx="1100.34" cy="379.919" r="20" style="fill:#fcd1d1;stroke-width:1px;stroke-linejoin:round;stroke-miterlimit:1.41421;stroke:#000;"/><circle cx="1100.34" cy="379.919" r="10" style="fill:#fc2e30;stroke-width:1px;stroke-linejoin:round;stroke-miterlimit:1.41421;stroke:#000;"/></g><path d="M700.257,700.543c63.985,205.555 191.955,616.666 225.288,800c17.952,98.736 -54.407,233.333 -25.288,300c29.119,66.666 133.333,100 200,100c66.667,0 176.43,-29.29 200,-100c33.333,-100 -83.333,-416.667 0,-500c83.333,-83.334 400,33.333 500,0c70.711,-23.57 100,-133.334 100,-200c0,-66.667 -29.289,-176.43 -100,-200c-100,-33.334 -416.667,83.333 -500,0c-83.333,-83.334 33.333,-400 0,-500c-23.57,-70.711 -133.333,-100 -200,-100c-66.667,0 -176.43,29.289 -200,100c-33.333,100 83.333,416.666 0,500c-83.333,83.333 -400,-33.334 -500,0c-70.711,23.57 -100,133.333 -100,200c0,66.666 29.289,176.43 100,200c100,33.333 338.309,-40.423 500,0c200,50 533.333,216.666 700,300" style="fill:none;stroke-width:18px;stroke-linejoin:round;stroke-miterlimit:1.41421;stroke:#14a90c;stroke-opacity:0.698039;"/><path d="M1558.1,1580.28l164.601,24.756l-42.811,88.706l-121.79,-113.462Z" style="fill:#000;"/></svg>