<?xml version="1.0" standalone="no"?><!DOCTYPE svg PUBLIC "-//W3C//DTD SVG 1.1//EN" "http://www.w3.org/Graphics/SVG/1.1/DTD/svg11.dtd"><svg width="100%" height="100%" viewBox="0 0 2301 2301" version="1.1" xmlns="http://www.w3.org/2000/svg" xmlns:xlink="http://www.w3.org/1999/xlink" xml:space="preserve" style="fill-rule:evenodd;clip-rule:evenodd;stroke-linejoin:round;stroke-miterlimit:1.41421;"><clipPath id="_clip1"><rect id="intersection" x="0.664" y="0.543" width="2300" height="2300"/></clipPath><g clip-path="url(#_clip1)"><path d="M700.664,700.543c63.985,205.555 191.955,616.666 225.288,800c17.952,98.736 -54.407,233.333 -25.288,300c29.119,66.666 133.333,100 200,100c66.667,0 176.43,-29.29 200,-100c33.333,-100 -83.333,-416.667 0,-500c83.333,-83.334 400,33.333 500,0c70.711,-23.57 100,-133.334 100,-200c0,-66.667 -29.289,-176.43 -100,-200c-100,-33.334 -416.667,83.333 -500,0c-83.333,-83.334 33.333,-400 0,-500c-23.57,-70.711 -133.333,-100 -200,-100c-66.667,0 -176.43,29.289 -200,100c-33.333,100 83.333,416.666 0,500c-83.333,83.333 -400,-33.334 -500,0c-70.711,23.57 -100,133.333 -100,200c0,66.666 29.289,176.43 100,200c100,33.333 338.309,-40.423 500,0c200,50 533.333,216.666 700,300" style="fill:none;stroke-width:8px;stroke-dasharray:24,48,0,0;stroke:#14a90c;stroke-opacity:0.698039;"/><g><path d="M1647.58,1566.71l-57.838,81.578l-3.671,-2.603l57.838,-81.577l3.671,2.602Z" style="fill:#000;"/><path d="M1658.91,1633.28l-2.603,3.671l-40.789,-28.918l2.603,-3.671l40.789,28.918Z" style="fill:#000;"/></g><g id="Layer11"><g><circle cx="800.664" cy="800.543" r="20" style="fill:#fcd1d1;stroke-width:1px;stroke:#000;"/><circle cx="800.664" cy="800.543" r="10" style="fill:#fc2e30;stroke-width:1px;stroke:#000;"/></g><g><circle cx="600.664" cy="800.543" r="20" style="fill:#fcd1d1;stroke-width:1px;stroke:#000;"/><circle cx="600.664" cy="800.543" r="10" style="fill:#fc2e30;stroke-width:1px;stroke:#000;"/></g><g><circle cx="400.664" cy="800.543" r="20" style="fill:#fcd1d1;stroke-width:1px;stroke:#000;"/><circle cx="400.664" cy="800.543" r="10" style="fill:#fc2e30;stroke-width:1px;stroke:#000;"/></g><g><circle cx="200.664" cy="800.543" r="20" style="fill:#fcd1d1;stroke-width:1px;stroke:#000;"/><circle cx="200.664" cy="800.543" r="10" style="fill:#fc2e30;stroke-width:1px;stroke:#000;"/></g><g><circle cx="200.664" cy="1000.54" r="20" style="fill:#fcd1d1;stroke-width:1px;stroke:#000;"/><circle cx="200.664" cy="1000.54" r="10" style="fill:#fc2e30;stroke-width:1px;stroke:#000;"/></g><g><circle cx="200.664" cy="1200.54" r="20" style="fill:#fcd1d1;stroke-width:1px;stroke:#000;"/><circle cx="200.664" cy="1200.54" r="10" style="fill:#fc2e30;stroke-width:1px;stroke:#000;"/></g><g><circle cx="200.664" cy="1400.54" r="20" style="fill:#fcd1d1;stroke-width:1px;stroke:#000;"/><circle cx="200.664" cy="1400.54" r="10" style="fill:#fc2e30;stroke-width:1px;stroke:#000;"/></g><g><circle cx="400.664" cy="1400.54" r="20" style="fill:#fcd1d1;stroke-width:1px;stroke:#000;"/><circle cx="400.664" cy="1400.54" r="10" style="fill:#fc2e30;stroke-width:1px;stroke:#000;"/></g><g><circle cx="600.664" cy="1400.54" r="20" style="fill:#fcd1d1;stroke-width:1px;stroke:#000;"/><circle cx="600.664" cy="1400.54" r="10" style="fill:#fc2e30;stroke-width:1px;stroke:#000;"/></g><g><circle cx="800.664" cy="1400.54" r="20" style="fill:#fcd1d1;stroke-width:1px;stroke:#000;"/><circle cx="800.664" cy="1400.54" r="10" style="fill:#fc2e30;stroke-width:1px;stroke:#000;"/></g><g><circle cx="380.664" cy="1100.54" r="20" style="fill:#fcd1d1;stroke-width:1px;stroke:#000;"/><circle cx="380.664" cy="1100.54" r="10" style="fill:#fc2e30;stroke-width:1px;stroke:#000;"/></g><g><circle cx="800.664" cy="1600.54" r="20" style="fill:#fcd1d1;stroke-width:1px;stroke:#000;"/><circle cx="800.664" cy="1600.54" r="10" style="fill:#fc2e30;stroke-width:1px;stroke:#000;"/></g><g><circle cx="800.664" cy="1800.54" r="20" style="fill:#fcd1d1;stroke-width:1px;stroke:#000;"/><circle cx="800.664" cy="1800.54" r="10" style="fill:#fc2e30;stroke-width:1px;stroke:#000;"/></g><g><circle cx="800.664" cy="2000.54" r="20" style="fill:#fcd1d1;stroke-width:1px;stroke:#000;"/><circle cx="800.664" cy="2000.54" r="10" style="fill:#fc2e30;stroke-width:1px;stroke:#000;"/></g><g><circle cx="1000.66" cy="2000.54" r="20" style="fill:#fcd1d1;stroke-width:1px;stroke:#000;"/><circle cx="1000.66" cy="2000.54" r="10" style="fill:#fc2e30;stroke-width:1px;stroke:#000;"/></g><g><circle cx="1200.66" cy="2000.54" r="20" style="fill:#fcd1d1;stroke-width:1px;stroke:#000;"/><circle cx="1200.66" cy="2000.54" r="10" style="fill:#fc2e30;stroke-width:1px;stroke:#000;"/></g><g><circle cx="1400.66" cy="2000.54" r="20" style="fill:#fcd1d1;stroke-width:1px;stroke:#000;"/><circle cx="1400.66" cy="2000.54" r="10" style="fill:#fc2e30;stroke-width:1px;stroke:#000;"/></g><g><circle cx="1100.66" cy="1820.54" r="20" style="fill:#fcd1d1;stroke-width:1px;stroke:#000;"/><circle cx="1100.66" cy="1820.54" r="10" style="fill:#fc2e30;stroke-width:1px;stroke:#000;"/></g><g><circle cx="800.664" cy="600.543" r="20" style="fill:#fcd1d1;stroke-width:1px;stroke:#000;"/><circle cx="800.664" cy="600.543" r="10" style="fill:#fc2e30;stroke-width:1px;stroke:#000;"/></g><g><circle cx="800.664" cy="400.543" r="20" style="fill:#fcd1d1;stroke-width:1px;stroke:#000;"/><circle cx="800.664" cy="400.543" r="10" style="fill:#fc2e30;stroke-width:1px;stroke:#000;"/></g><g><circle cx="800.664" cy="200.543" r="20" style="fill:#fcd1d1;stroke-width:1px;stroke:#000;"/><circle cx="800.664" cy="200.543" r="10" style="fill:#fc2e30;stroke-width:1px;stroke:#000;"/></g><g><circle cx="1000.66" cy="200.543" r="20" style="fill:#fcd1d1;stroke-width:1px;stroke:#000;"/><circle cx="1000.66" cy="200.543" r="10" style="fill:#fc2e30;stroke-width:1px;stroke:#000;"/></g><g><circle cx="1200.66" cy="200.543" r="20" style="fill:#fcd1d1;stroke-width:1px;stroke:#000;"/><circle cx="1200.66" cy="200.543" r="10" style="fill:#fc2e30;stroke-width:1px;stroke:#000;"/></g><g><circle cx="1400.66" cy="200.543" r="20" style="fill:#fcd1d1;stroke-width:1px;stroke:#000;"/><circle cx="1400.66" cy="200.543" r="10" style="fill:#fc2e30;stroke-width:1px;stroke:#000;"/></g><g><circle cx="1400.66" cy="400.543" r="20" style="fill:#fcd1d1;stroke-width:1px;stroke:#000;"/><circle cx="1400.66" cy="400.543" r="10" style="fill:#fc2e30;stroke-width:1px;stroke:#000;"/></g><g><circle cx="1400.66" cy="600.543" r="20" style="fill:#fcd1d1;stroke-width:1px;stroke:#000;"/><circle cx="1400.66" cy="600.543" r="10" style="fill:#fc2e30;stroke-width:1px;stroke:#000;"/></g><g><circle cx="1400.66" cy="800.543" r="20" style="fill:#fcd1d1;stroke-width:1px;stroke:#000;"/><circle cx="1400.66" cy="800.543" r="10" style="fill:#fc2e30;stroke-width:1px;stroke:#000;"/></g><g><circle cx="1600.66" cy="800.543" r="20" style="fill:#fcd1d1;stroke-width:1px;stroke:#000;"/><circle cx="1600.66" cy="800.543" r="10" style="fill:#fc2e30;stroke-width:1px;stroke:#000;"/></g><g><circle cx="1800.66" cy="800.543" r="20" style="fill:#fcd1d1;stroke-width:1px;stroke:#000;"/><circle cx="1800.66" cy="800.543" r="10" style="fill:#fc2e30;stroke-width:1px;stroke:#000;"/></g><g><circle cx="2000.66" cy="800.543" r="20" style="fill:#fcd1d1;stroke-width:1px;stroke:#000;"/><circle cx="2000.66" cy="800.543" r="10" style="fill:#fc2e30;stroke-width:1px;stroke:#000;"/></g><g><circle cx="2000.66" cy="1000.54" r="20" style="fill:#fcd1d1;stroke-width:1px;stroke:#000;"/><circle cx="2000.66" cy="1000.54" r="10" style="fill:#fc2e30;stroke-width:1px;stroke:#000;"/></g><g><circle cx="2000.66" cy="1200.54" r="20" style="fill:#fcd1d1;stroke-width:1px;stroke:#000;"/><circle cx="2000.66" cy="1200.54" r="10" style="fill:#fc2e30;stroke-width:1px;stroke:#000;"/></g><g><circle cx="2000.66" cy="1400.54" r="20" style="fill:#fcd1d1;stroke-width:1px;stroke:#000;"/><circle cx="2000.66" cy="1400.54" r="10" style="fill:#fc2e30;stroke-width:1px;stroke:#000;"/></g><g><circle cx="1800.66" cy="1400.54" r="20" style="fill:#fcd1d1;stroke-width:1px;stroke:#000;"/><circle cx="1800.66" cy="1400.54" r="10" style="fill:#fc2e30;stroke-width:1px;stroke:#000;"/></g><g><circle cx="1600.66" cy="1400.54" r="20" style="fill:#fcd1d1;stroke-width:1px;stroke:#000;"/><circle cx="1600.66" cy="1400.54" r="10" style="fill:#fc2e30;stroke-width:1px;stroke:#000;"/></g><g><circle cx="1400.66" cy="1400.54" r="20" style="fill:#fcd1d1;stroke-width:1px;stroke:#000;"/><circle cx="1400.66" cy="1400.54" r="10" style="fill:#fc2e30;stroke-width:1px;stroke:#000;"/></g><g><circle cx="1400.66" cy="1600.54" r="20" style="fill:#fcd1d1;stroke-width:1px;stroke:#000;"/><circle cx="1400.66" cy="1600.54" r="10" style="fill:#fc2e30;stroke-width:1px;stroke:#000;"/></g><g><circle cx="1400.66" cy="1800.54" r="20" style="fill:#fcd1d1;stroke-width:1px;stroke:#000;"/><circle cx="1400.66" cy="1800.54" r="10" style="fill:#fc2e30;stroke-width:1px;stroke:#000;"/></g><g><circle cx="1820.66" cy="1100.54" r="20" style="fill:#fcd1d1;stroke-width:1px;stroke:#000;"/><circle cx="1820.66" cy="1100.54" r="10" style="fill:#fc2e30;stroke-width:1px;stroke:#000;"/></g><g><circle cx="1100.75" cy="379.919" r="20" style="fill:#fcd1d1;stroke-width:1px;stroke:#000;"/><circle cx="1100.75" cy="379.919" r="10" style="fill:#fc2e30;stroke-width:1px;stroke:#000;"/></g></g><g id="grid"><g id="bold lines"><path d="M700.664,100.543l0,2800" style="fill:none;stroke-width:1px;stroke-miterlimit:1;stroke:#000;stroke-opacity:0.298039;"/><path d="M100.664,700.543l2600,0" style="fill:none;stroke-width:1px;stroke-miterlimit:1;stroke:#000;stroke-opacity:0.298039;"/><path d="M1200.66,100.543l0,2800" style="fill:none;stroke-width:1px;stroke-miterlimit:1;stroke:#000;stroke-opacity:0.298039;"/><path d="M1700.66,100.543l0,2800" style="fill:none;stroke-width:1px;stroke-miterlimit:1;stroke:#000;stroke-opacity:0.298039;"/><path d="M2200.66,100.543l0,2800" style="fill:none;stroke-width:1px;stroke-miterlimit:1;stroke:#000;stroke-opacity:0.298039;"/><path d="M100.664,1200.54l2600,0" style="fill:none;stroke-width:1px;stroke-miterlimit:1;stroke:#000;stroke-opacity:0.298039;"/><path d="M100.664,1700.54l2600,0" style="fill:none;stroke-width:1px;stroke-miterlimit:1;stroke:#000;stroke-opacity:0.298039;"/><path d="M100.664,2200.54l2600,0" style="fill:none;stroke-width:1px;stroke-miterlimit:1;stroke:#000;stroke-opacity:0.298039;"/><path d="M100.664,200.543l2600,0" style="fill:none;stroke-width:1px;stroke-miterlimit:1;stroke:#000;stroke-opacity:0.298039;"/><path d="M200.664,2900.54l0,-2800" style="fill:none;stroke-width:1px;stroke-miterlimit:1;stroke:#000;stroke-opacity:0.298039;"/></g><g id="vertical lines"><path d="M100.664,100.543l0,2800" style="fill:none;stroke-width:1px;stroke-linejoin:miter;stroke-miterlimit:1;stroke-dasharray:10,44,2,44;stroke-dashoffset:5;stroke:#000;"/><path d="M700.664,100.543l0,2800" style="fill:none;stroke-width:1px;stroke-linejoin:miter;stroke-miterlimit:1;stroke-dasharray:10,44,2,44;stroke-dashoffset:5;stroke:#000;"/><path d="M1300.66,100.543l0,2800" style="fill:none;stroke-width:1px;stroke-linejoin:miter;stroke-miterlimit:1;stroke-dasharray:10,44,2,44;stroke-dashoffset:5;stroke:#000;"/><path d="M1900.66,100.543l0,2800" style="fill:none;stroke-width:1px;stroke-linejoin:miter;stroke-miterlimit:1;stroke-dasharray:10,44,2,44;stroke-dashoffset:5;stroke:#000;"/><path d="M300.664,100.543l0,2800" style="fill:none;stroke-width:1px;stroke-linejoin:miter;stroke-miterlimit:1;stroke-dasharray:10,44,2,44;stroke-dashoffset:5;stroke:#000;"/><path d="M900.664,100.543l0,2800" style="fill:none;stroke-width:1px;stroke-linejoin:miter;stroke-miterlimit:1;stroke-dasharray:10,44,2,44;stroke-dashoffset:5;stroke:#000;"/><path d="M1500.66,100.543l0,2800" style="fill:none;stroke-width:1px;stroke-linejoin:miter;stroke-miterlimit:1;stroke-dasharray:10,44,2,44;stroke-dashoffset:5;stroke:#000;"/><path d="M2100.66,100.543l0,2800" style="fill:none;stroke-width:1px;stroke-linejoin:miter;stroke-miterlimit:1;stroke-dasharray:10,44,2,44;stroke-dashoffset:5;stroke:#000;"/><path d="M500.664,100.543l0,2800" style="fill:none;stroke-width:1px;stroke-linejoin:miter;stroke-miterlimit:1;stroke-dasharray:10,44,2,44;stroke-dashoffset:5;stroke:#000;"/><path d="M1100.66,100.543l0,2800" style="fill:none;stroke-width:1px;stroke-linejoin:miter;stroke-miterlimit:1;stroke-dasharray:10,44,2,44;stroke-dashoffset:5;stroke:#000;"/><path d="M1700.66,100.543l0,2800" style="fill:none;stroke-width:1px;stroke-linejoin:miter;stroke-miterlimit:1;stroke-dasharray:10,44,2,44;stroke-dashoffset:5;stroke:#000;"/><path d="M2300.66,100.543l0,2800" style="fill:none;stroke-width:1px;stroke-linejoin:miter;stroke-miterlimit:1;stroke-dasharray:10,44,2,44;stroke-dashoffset:5;stroke:#000;"/><path d="M200.664,100.543l0,2800" style="fill:none;stroke-width:1px;stroke-linejoin:miter;stroke-miterlimit:1;stroke-dasharray:10,44,2,44;stroke-dashoffset:5;stroke:#000;"/><path d="M800.664,100.543l0,2800" style="fill:none;stroke-width:1px;stroke-linejoin:miter;stroke-miterlimit:1;stroke-dasharray:10,44,2,44;stroke-dashoffset:5;stroke:#000;"/><path d="M1400.66,100.543l0,2800" style="fill:none;stroke-width:1px;stroke-linejoin:miter;stroke-miterlimit:1;stroke-dasharray:10,44,2,44;stroke-dashoffset:5;stroke:#000;"/><path d="M2000.66,100.543l0,2800" style="fill:none;stroke-width:1px;stroke-linejoin:miter;stroke-miterlimit:1;stroke-dasharray:10,44,2,44;stroke-dashoffset:5;stroke:#000;"/><path d="M400.664,100.543l0,2800" style="fill:none;stroke-width:1px;stroke-linejoin:miter;stroke-miterlimit:1;stroke-dasharray:10,44,2,44;stroke-dashoffset:5;stroke:#000;"/><path d="M1000.66,100.543l0,2800" style="fill:none;stroke-width:1px;stroke-linejoin:miter;stroke-miterlimit:1;stroke-dasharray:10,44,2,44;stroke-dashoffset:5;stroke:#000;"/><path d="M1600.66,100.543l0,2800" style="fill:none;stroke-width:1px;stroke-linejoin:miter;stroke-miterlimit:1;stroke-dasharray:10,44,2,44;stroke-dashoffset:5;stroke:#000;"/><path d="M2200.66,100.543l0,2800" style="fill:none;stroke-width:1px;stroke-linejoin:miter;stroke-miterlimit:1;stroke-dasharray:10,44,2,44;stroke-dashoffset:5;stroke:#000;"/><path d="M600.664,100.543l0,2800" style="fill:none;stroke-width:1px;stroke-linejoin:miter;stroke-miterlimit:1;stroke-dasharray:10,44,2,44;stroke-dashoffset:5;stroke:#000;"/><path d="M1200.66,100.543l0,2800" style="fill:none;stroke-width:1px;stroke-linejoin:miter;stroke-miterlimit:1;stroke-dasharray:10,44,2,44;stroke-dashoffset:5;stroke:#000;"/><path d="M1800.66,100.543l0,2800" style="fill:none;stroke-width:1px;stroke-linejoin:miter;stroke-miterlimit:1;stroke-dasharray:10,44,2,44;stroke-dashoffset:5;stroke:#000;"/></g><g id="horizontal lines"><path d="M100.664,100.543l2600,0" style="fill:none;stroke-width:1px;stroke-dasharray:10,44,2,44;stroke-dashoffset:5;stroke:#000;"/><path d="M100.664,500.543l2600,0" style="fill:none;stroke-width:1px;stroke-dasharray:10,44,2,44;stroke-dashoffset:5;stroke:#000;"/><path d="M100.664,900.543l2600,0" style="fill:none;stroke-width:1px;stroke-dasharray:10,44,2,44;stroke-dashoffset:5;stroke:#000;"/><path d="M100.664,1300.54l2600,0" style="fill:none;stroke-width:1px;stroke-dasharray:10,44,2,44;stroke-dashoffset:5;stroke:#000;"/><path d="M2700.66,200.543l-2600,0" style="fill:none;stroke-width:1px;stroke-dasharray:10,44,2,44;stroke-dashoffset:5;stroke:#000;"/><path d="M2700.66,600.543l-2600,0" style="fill:none;stroke-width:1px;stroke-dasharray:10,44,2,44;stroke-dashoffset:5;stroke:#000;"/><path d="M2700.66,1000.54l-2600,0" style="fill:none;stroke-width:1px;stroke-dasharray:10,44,2,44;stroke-dashoffset:5;stroke:#000;"/><path d="M2700.66,1400.54l-2600,0" style="fill:none;stroke-width:1px;stroke-dasharray:10,44,2,44;stroke-dashoffset:5;stroke:#000;"/><path d="M100.664,300.543l2600,0" style="fill:none;stroke-width:1px;stroke-dasharray:10,44,2,44;stroke-dashoffset:5;stroke:#000;"/><path d="M100.664,700.543l2600,0" style="fill:none;stroke-width:1px;stroke-dasharray:10,44,2,44;stroke-dashoffset:5;stroke:#000;"/><path d="M100.664,1100.54l2600,0" style="fill:none;stroke-width:1px;stroke-dasharray:10,44,2,44;stroke-dashoffset:5;stroke:#000;"/><path d="M100.664,1500.54l2600,0" style="fill:none;stroke-width:1px;stroke-dasharray:10,44,2,44;stroke-dashoffset:5;stroke:#000;"/><path d="M100.664,400.543l2600,0" style="fill:none;stroke-width:1px;stroke-dasharray:10,44,2,44;stroke-dashoffset:5;stroke:#000;"/><path d="M100.664,800.543l2600,0" style="fill:none;stroke-width:1px;stroke-dasharray:10,44,2,44;stroke-dashoffset:5;stroke:#000;"/><path d="M100.664,1200.54l2600,0" style="fill:none;stroke-width:1px;stroke-dasharray:10,44,2,44;stroke-dashoffset:5;stroke:#000;"/><path d="M100.664,1600.54l2600,0" style="fill:none;stroke-width:1px;stroke-dasharray:10,44,2,44;stroke-dashoffset:5;stroke:#000;"/><path d="M100.664,1800.54l2600,0" style="fill:none;stroke-width:1px;stroke-dasharray:10,44,2,44;stroke-dashoffset:5;stroke:#000;"/><path d="M100.664,2000.54l2600,0" style="fill:none;stroke-width:1px;stroke-dasharray:10,44,2,44;stroke-dashoffset:5;stroke:#000;"/><path d="M100.664,2200.54l2600,0" style="fill:none;stroke-width:1px;stroke-dasharray:10,44,2,44;stroke-dashoffset:5;stroke:#000;"/><path d="M100.664,1700.54l2600,0" style="fill:none;stroke-width:1px;stroke-dasharray:10,44,2,44;stroke-dashoffset:5;stroke:#000;"/><path d="M100.664,1900.54l2600,0" style="fill:none;stroke-width:1px;stroke-dasharray:10,44,2,44;stroke-dashoffset:5;stroke:#000;"/><path d="M100.664,2100.54l2600,0" style="fill:none;stroke-width:1px;stroke-dasharray:10,44,2,44;stroke-dashoffset:5;stroke:#000;"/><path d="M100.664,2300.54l2600,0" style="fill:none;stroke-width:1px;stroke-dasharray:10,44,2,44;stroke-dashoffset:5;stroke:#000;"/></g><g id="top labels"><rect x="150.664" y="50.543" width="100" height="50" style="fill:#808080;stroke-width:1px;stroke:#000;"/><rect x="650.664" y="50.543" width="100" height="50" style="fill:#808080;stroke-width:1px;stroke:#000;"/><rect x="1150.66" y="50.543" width="100" height="50" style="fill:#808080;stroke-width:1px;stroke:#000;"/><rect x="1650.66" y="50.543" width="100" height="50" style="fill:#808080;stroke-width:1px;stroke:#000;"/><rect x="2150.66" y="50.543" width="100" height="50" style="fill:#808080;stroke-width:1px;stroke:#000;"/><rect x="250.664" y="50.543" width="100" height="50" style="fill:#808080;stroke-width:1px;stroke:#000;"/><rect x="750.664" y="50.543" width="100" height="50" style="fill:#808080;stroke-width:1px;stroke:#000;"/><rect x="1250.66" y="50.543" width="100" height="50" style="fill:#808080;stroke-width:1px;stroke:#000;"/><rect x="1750.66" y="50.543" width="100" height="50" style="fill:#808080;stroke-width:1px;stroke:#000;"/><rect x="2250.66" y="50.543" width="100" height="50" style="fill:#808080;stroke-width:1px;stroke:#000;"/><rect x="350.664" y="50.543" width="100" height="50" style="fill:#808080;stroke-width:1px;stroke:#000;"/><rect x="850.664" y="50.543" width="100" height="50" style="fill:#808080;stroke-width:1px;stroke:#000;"/><rect x="1350.66" y="50.543" width="100" height="50" style="fill:#808080;stroke-width:1px;stroke:#000;"/><rect x="1850.66" y="50.543" width="100" height="50" style="fill:#808080;stroke-width:1px;stroke:#000;"/><rect x="450.664" y="50.543" width="100" height="50" style="fill:#808080;stroke-width:1px;stroke:#000;"/><rect x="950.664" y="50.543" width="100" height="50" style="fill:#808080;stroke-width:1px;stroke:#000;"/><rect x="1450.66" y="50.543" width="100" height="50" style="fill:#808080;stroke-width:1px;stroke:#000;"/><rect x="1950.66" y="50.543" width="100" height="50" style="fill:#808080;stroke-width:1px;stroke:#000;"/><rect x="550.664" y="50.543" width="100" height="50" style="fill:#808080;stroke-width:1px;stroke:#000;"/><rect x="1050.66" y="50.543" width="100" height="50" style="fill:#808080;stroke-width:1px;stroke:#000;"/><rect x="1550.66" y="50.543" width="100" height="50" style="fill:#808080;stroke-width:1px;stroke:#000;"/><rect x="2050.66" y="50.543" width="100" height="50" style="fill:#808080;stroke-width:1px;stroke:#000;"/><text x="188.674px" y="89.622px" style="font-family:'ArialMT';font-size:36px;fill:#000;stroke-width:1px;stroke:#000;">A</text><text x="688.674px" y="89.622px" style="font-family:'ArialMT';font-size:36px;fill:#000;stroke-width:1px;stroke:#000;">F</text><text x="1188.67px" y="89.622px" style="font-family:'ArialMT';font-size:36px;fill:#000;stroke-width:1px;stroke:#000;">K</text><text x="1688.67px" y="89.622px" style="font-family:'ArialMT';font-size:36px;fill:#000;stroke-width:1px;stroke:#000;">P</text><text x="2188.67px" y="89.622px" style="font-family:'ArialMT';font-size:36px;fill:#000;stroke-width:1px;stroke:#000;">U</text><text x="288.674px" y="89.622px" style="font-family:'ArialMT';font-size:36px;fill:#000;stroke-width:1px;stroke:#000;">B</text><text x="788.674px" y="89.622px" style="font-family:'ArialMT';font-size:36px;fill:#000;stroke-width:1px;stroke:#000;">G</text><text x="1288.67px" y="89.622px" style="font-family:'ArialMT';font-size:36px;fill:#000;stroke-width:1px;stroke:#000;">L</text><text x="1788.67px" y="89.622px" style="font-family:'ArialMT';font-size:36px;fill:#000;stroke-width:1px;stroke:#000;">Q</text><text x="2288.67px" y="89.622px" style="font-family:'ArialMT';font-size:36px;fill:#000;stroke-width:1px;stroke:#000;">V</text><text x="388.674px" y="89.622px" style="font-family:'ArialMT';font-size:36px;fill:#000;stroke-width:1px;stroke:#000;">C</text><text x="888.674px" y="89.622px" style="font-family:'ArialMT';font-size:36px;fill:#000;stroke-width:1px;stroke:#000;">H</text><text x="1388.67px" y="89.622px" style="font-family:'ArialMT';font-size:36px;fill:#000;stroke-width:1px;stroke:#000;">M</text><text x="1888.67px" y="89.622px" style="font-family:'ArialMT';font-size:36px;fill:#000;stroke-width:1px;stroke:#000;">R</text><text x="488.674px" y="89.622px" style="font-family:'ArialMT';font-size:36px;fill:#000;stroke-width:1px;stroke:#000;">D</text><text x="995.679px" y="89.622px" style="font-family:'ArialMT';font-size:36px;fill:#000;stroke-width:1px;stroke:#000;">I</text><text x="1488.67px" y="89.622px" style="font-family:'ArialMT';font-size:36px;fill:#000;stroke-width:1px;stroke:#000;">N</text><text x="1988.67px" y="89.622px" style="font-family:'ArialMT';font-size:36px;fill:#000;stroke-width:1px;stroke:#000;">S</text><text x="588.674px" y="89.622px" style="font-family:'ArialMT';font-size:36px;fill:#000;stroke-width:1px;stroke:#000;">E</text><text x="1088.67px" y="89.622px" style="font-family:'ArialMT';font-size:36px;fill:#000;stroke-width:1px;stroke:#000;">J</text><text x="1588.67px" y="89.622px" style="font-family:'ArialMT';font-size:36px;fill:#000;stroke-width:1px;stroke:#000;">O</text><text x="2088.67px" y="89.622px" style="font-family:'ArialMT';font-size:36px;fill:#000;stroke-width:1px;stroke:#000;">T</text></g><g id="top numbers"><text x="293.432px" y="46.305px" style="font-family:'ArialMT';font-size:20px;fill:#000;stroke-width:1px;stroke:#000;">1</text><text x="195.102px" y="46.305px" style="font-family:'ArialMT';font-size:20px;fill:#000;stroke-width:1px;stroke:#000;">0</text><text x="793.432px" y="46.305px" style="font-family:'ArialMT';font-size:20px;fill:#000;stroke-width:1px;stroke:#000;">6</text><text x="1288.78px" y="46.305px" style="font-family:'ArialMT';font-size:20px;fill:#000;stroke-width:1px;stroke:#000;">1<tspan x="1298.42px " y="46.305px ">1</tspan></text><text x="1789.54px" y="46.305px" style="font-family:'ArialMT';font-size:20px;fill:#000;stroke-width:1px;stroke:#000;">16</text><text x="2289.54px" y="46.305px" style="font-family:'ArialMT';font-size:20px;fill:#000;stroke-width:1px;stroke:#000;">21</text><text x="393.432px" y="46.305px" style="font-family:'ArialMT';font-size:20px;fill:#000;stroke-width:1px;stroke:#000;">2</text><text x="893.979px" y="46.305px" style="font-family:'ArialMT';font-size:20px;fill:#000;stroke-width:1px;stroke:#000;">7</text><text x="1389.54px" y="46.305px" style="font-family:'ArialMT';font-size:20px;fill:#000;stroke-width:1px;stroke:#000;">12</text><text x="1888.42px" y="46.305px" style="font-family:'ArialMT';font-size:20px;fill:#000;stroke-width:1px;stroke:#000;">17</text><text x="493.432px" y="46.305px" style="font-family:'ArialMT';font-size:20px;fill:#000;stroke-width:1px;stroke:#000;">3</text><text x="993.979px" y="46.305px" style="font-family:'ArialMT';font-size:20px;fill:#000;stroke-width:1px;stroke:#000;">8</text><text x="1489.54px" y="46.305px" style="font-family:'ArialMT';font-size:20px;fill:#000;stroke-width:1px;stroke:#000;">13</text><text x="1988.42px" y="46.305px" style="font-family:'ArialMT';font-size:20px;fill:#000;stroke-width:1px;stroke:#000;">18</text><text x="593.432px" y="46.305px" style="font-family:'ArialMT';font-size:20px;fill:#000;stroke-width:1px;stroke:#000;">4</text><text x="1093.98px" y="46.305px" style="font-family:'ArialMT';font-size:20px;fill:#000;stroke-width:1px;stroke:#000;">9</text><text x="1589.54px" y="46.305px" style="font-family:'ArialMT';font-size:20px;fill:#000;stroke-width:1px;stroke:#000;">14</text><text x="2088.42px" y="46.305px" style="font-family:'ArialMT';font-size:20px;fill:#000;stroke-width:1px;stroke:#000;">19</text><text x="693.432px" y="46.305px" style="font-family:'ArialMT';font-size:20px;fill:#000;stroke-width:1px;stroke:#000;">5</text><text x="1189.54px" y="46.305px" style="font-family:'ArialMT';font-size:20px;fill:#000;stroke-width:1px;stroke:#000;">10</text><text x="1688.42px" y="46.305px" style="font-family:'ArialMT';font-size:20px;fill:#000;stroke-width:1px;stroke:#000;">15</text><text x="2188.42px" y="46.305px" style="font-family:'ArialMT';font-size:20px;fill:#000;stroke-width:1px;stroke:#000;">20</text></g><g id="side labels"><rect x="50.664" y="250.543" width="50" height="100" style="fill:#808080;stroke-width:1px;stroke:#000;"/><rect x="50.664" y="150.543" width="50" height="100" style="fill:#808080;stroke-width:1px;stroke:#000;"/><rect x="50.664" y="650.543" width="50" height="100" style="fill:#808080;stroke-width:1px;stroke:#000;"/><rect x="50.664" y="1050.54" width="50" height="100" style="fill:#808080;stroke-width:1px;stroke:#000;"/><rect x="50.664" y="1450.54" width="50" height="100" style="fill:#808080;stroke-width:1px;stroke:#000;"/><rect x="50.664" y="350.543" width="50" height="100" style="fill:#808080;stroke-width:1px;stroke:#000;"/><rect x="50.664" y="750.543" width="50" height="100" style="fill:#808080;stroke-width:1px;stroke:#000;"/><rect x="50.664" y="1150.54" width="50" height="100" style="fill:#808080;stroke-width:1px;stroke:#000;"/><rect x="50.664" y="1550.54" width="50" height="100" style="fill:#808080;stroke-width:1px;stroke:#000;"/><rect x="50.664" y="1750.54" width="50" height="100" style="fill:#808080;stroke-width:1px;stroke:#000;"/><rect x="50.664" y="1950.54" width="50" height="100" style="fill:#808080;stroke-width:1px;stroke:#000;"/><rect x="50.664" y="2150.54" width="50" height="100" style="fill:#808080;stroke-width:1px;stroke:#000;"/><rect x="50.664" y="450.543" width="50" height="100" style="fill:#808080;stroke-width:1px;stroke:#000;"/><rect x="50.664" y="850.543" width="50" height="100" style="fill:#808080;stroke-width:1px;stroke:#000;"/><rect x="50.664" y="1250.54" width="50" height="100" style="fill:#808080;stroke-width:1px;stroke:#000;"/><rect x="50.664" y="1650.54" width="50" height="100" style="fill:#808080;stroke-width:1px;stroke:#000;"/><rect x="50.664" y="1850.54" width="50" height="100" style="fill:#808080;stroke-width:1px;stroke:#000;"/><rect x="50.664" y="2050.54" width="50" height="100" style="fill:#808080;stroke-width:1px;stroke:#000;"/><rect x="50.664" y="2250.54" width="50" height="100" style="fill:#808080;stroke-width:1px;stroke:#000;"/><rect x="50.664" y="550.543" width="50" height="100" style="fill:#808080;stroke-width:1px;stroke:#000;"/><rect x="50.664" y="950.543" width="50" height="100" style="fill:#808080;stroke-width:1px;stroke:#000;"/><rect x="50.664" y="1350.54" width="50" height="100" style="fill:#808080;stroke-width:1px;stroke:#000;"/><text x="65.649px" y="312.914px" style="font-family:'ArialMT';font-size:36px;fill:#000;stroke-width:1px;stroke:#000;">1</text><text x="65.649px" y="212.914px" style="font-family:'ArialMT';font-size:36px;fill:#000;stroke-width:1px;stroke:#000;">0</text><text x="65.649px" y="712.914px" style="font-family:'ArialMT';font-size:36px;fill:#000;stroke-width:1px;stroke:#000;">5</text><text x="65.649px" y="1112.91px" style="font-family:'ArialMT';font-size:36px;fill:#000;stroke-width:1px;stroke:#000;">9</text><text x="55.638px" y="1512.91px" style="font-family:'ArialMT';font-size:36px;fill:#000;stroke-width:1px;stroke:#000;">13</text><text x="55.565px" y="1912.91px" style="font-family:'ArialMT';font-size:36px;fill:#000;stroke-width:1px;stroke:#000;">17</text><text x="57.313px" y="2316.33px" style="font-family:'ArialMT';font-size:36px;fill:#000;stroke-width:1px;stroke:#000;">21</text><text x="65.649px" y="412.914px" style="font-family:'ArialMT';font-size:36px;fill:#000;stroke-width:1px;stroke:#000;">2</text><text x="65.649px" y="812.914px" style="font-family:'ArialMT';font-size:36px;fill:#000;stroke-width:1px;stroke:#000;">6</text><text x="55.638px" y="1212.91px" style="font-family:'ArialMT';font-size:36px;fill:#000;stroke-width:1px;stroke:#000;">10</text><text x="55.638px" y="1612.91px" style="font-family:'ArialMT';font-size:36px;fill:#000;stroke-width:1px;stroke:#000;">14</text><text x="55.565px" y="2012.91px" style="font-family:'ArialMT';font-size:36px;fill:#000;stroke-width:1px;stroke:#000;">18</text><text x="65.649px" y="512.914px" style="font-family:'ArialMT';font-size:36px;fill:#000;stroke-width:1px;stroke:#000;">3</text><text x="65.649px" y="912.914px" style="font-family:'ArialMT';font-size:36px;fill:#000;stroke-width:1px;stroke:#000;">7</text><text x="56.974px" y="1312.91px" style="font-family:'ArialMT';font-size:36px;fill:#000;stroke-width:1px;stroke:#000;">1<tspan x="74.323px " y="1312.91px ">1</tspan></text><text x="55.638px" y="1712.91px" style="font-family:'ArialMT';font-size:36px;fill:#000;stroke-width:1px;stroke:#000;">15</text><text x="55.565px" y="2112.91px" style="font-family:'ArialMT';font-size:36px;fill:#000;stroke-width:1px;stroke:#000;">19</text><text x="65.649px" y="612.914px" style="font-family:'ArialMT';font-size:36px;fill:#000;stroke-width:1px;stroke:#000;">4</text><text x="65.649px" y="1012.91px" style="font-family:'ArialMT';font-size:36px;fill:#000;stroke-width:1px;stroke:#000;">8</text><text x="55.638px" y="1412.91px" style="font-family:'ArialMT';font-size:36px;fill:#000;stroke-width:1px;stroke:#000;">12</text><text x="55.565px" y="1812.91px" style="font-family:'ArialMT';font-size:36px;fill:#000;stroke-width:1px;stroke:#000;">16</text><text x="57.313px" y="2216.33px" style="font-family:'ArialMT';font-size:36px;fill:#000;stroke-width:1px;stroke:#000;">20</text></g><rect x="0.664" y="0.543" width="100" height="100" style="fill:none;stroke-width:1px;stroke-miterlimit:1;stroke:#000;"/><rect x="50.664" y="50.543" width="100" height="100" style="fill:#808080;stroke-width:1px;stroke:#000;"/><text x="56.211px" y="126.387px" style="font-family:'ArialMT';font-size:64px;fill:#000;stroke-width:1px;stroke:#000;">1m</text></g></g></svg>