<?xml version="1.0" standalone="no"?><!DOCTYPE svg PUBLIC "-//W3C//DTD SVG 1.1//EN" "http://www.w3.org/Graphics/SVG/1.1/DTD/svg11.dtd"><svg width="100%" height="100%" viewBox="0 0 2301 1301" version="1.1" xmlns="http://www.w3.org/2000/svg" xmlns:xlink="http://www.w3.org/1999/xlink" xml:space="preserve" style="fill-rule:evenodd;clip-rule:evenodd;stroke-linejoin:round;stroke-miterlimit:1.41421;"><clipPath id="_clip1"><rect id="lane change" x="0.142" y="0.94" width="2300" height="1300"/></clipPath><g clip-path="url(#_clip1)"><g><circle cx="280.142" cy="620.94" r="20" style="fill:#fcd1d1;stroke-width:1px;stroke:#000;"/><circle cx="280.142" cy="620.94" r="10" style="fill:#fc2e30;stroke-width:1px;stroke:#000;"/></g><g><circle cx="920.142" cy="220.94" r="20" style="fill:#fcd1d1;stroke-width:1px;stroke:#000;"/><circle cx="920.142" cy="220.94" r="10" style="fill:#fc2e30;stroke-width:1px;stroke:#000;"/></g><g><circle cx="920.142" cy="1020.94" r="20" style="fill:#fcd1d1;stroke-width:1px;stroke:#000;"/><circle cx="920.142" cy="1020.94" r="10" style="fill:#fc2e30;stroke-width:1px;stroke:#000;"/></g><g><circle cx="1620.14" cy="620.94" r="20" style="fill:#fcd1d1;stroke-width:1px;stroke:#000;"/><circle cx="1620.14" cy="620.94" r="10" style="fill:#fc2e30;stroke-width:1px;stroke:#000;"/></g><g><circle cx="280.142" cy="780.94" r="20" style="fill:#fcd1d1;stroke-width:1px;stroke:#000;"/><circle cx="280.142" cy="780.94" r="10" style="fill:#fc2e30;stroke-width:1px;stroke:#000;"/></g><g><circle cx="920.142" cy="380.94" r="20" style="fill:#fcd1d1;stroke-width:1px;stroke:#000;"/><circle cx="920.142" cy="380.94" r="10" style="fill:#fc2e30;stroke-width:1px;stroke:#000;"/></g><g><circle cx="920.142" cy="1180.94" r="20" style="fill:#fcd1d1;stroke-width:1px;stroke:#000;"/><circle cx="920.142" cy="1180.94" r="10" style="fill:#fc2e30;stroke-width:1px;stroke:#000;"/></g><g><circle cx="1620.14" cy="780.94" r="20" style="fill:#fcd1d1;stroke-width:1px;stroke:#000;"/><circle cx="1620.14" cy="780.94" r="10" style="fill:#fc2e30;stroke-width:1px;stroke:#000;"/></g><g><circle cx="380.142" cy="780.94" r="20" style="fill:#fcd1d1;stroke-width:1px;stroke:#000;"/><circle cx="380.142" cy="780.94" r="10" style="fill:#fc2e30;stroke-width:1px;stroke:#000;"/></g><g><circle cx="1020.14" cy="380.94" r="20" style="fill:#fcd1d1;stroke-width:1px;stroke:#000;"/><circle cx="1020.14" cy="380.94" r="10" style="fill:#fc2e30;stroke-width:1px;stroke:#000;"/></g><g><circle cx="1020.14" cy="1180.94" r="20" style="fill:#fcd1d1;stroke-width:1px;stroke:#000;"/><circle cx="1020.14" cy="1180.94" r="10" style="fill:#fc2e30;stroke-width:1px;stroke:#000;"/></g><g><circle cx="1720.14" cy="780.94" r="20" style="fill:#fcd1d1;stroke-width:1px;stroke:#000;"/><circle cx="1720.14" cy="780.94" r="10" style="fill:#fc2e30;stroke-width:1px;stroke:#000;"/></g><g><circle cx="580.142" cy="620.94" r="20" style="fill:#fcd1d1;stroke-width:1px;stroke:#000;"/><circle cx="580.142" cy="620.94" r="10" style="fill:#fc2e30;stroke-width:1px;stroke:#000;"/></g><g><circle cx="1280.14" cy="220.94" r="20" style="fill:#fcd1d1;stroke-width:1px;stroke:#000;"/><circle cx="1280.14" cy="220.94" r="10" style="fill:#fc2e30;stroke-width:1px;stroke:#000;"/></g><g><circle cx="1280.14" cy="1020.94" r="20" style="fill:#fcd1d1;stroke-width:1px;stroke:#000;"/><circle cx="1280.14" cy="1020.94" r="10" style="fill:#fc2e30;stroke-width:1px;stroke:#000;"/></g><g><circle cx="1920.14" cy="620.94" r="20" style="fill:#fcd1d1;stroke-width:1px;stroke:#000;"/><circle cx="1920.14" cy="620.94" r="10" style="fill:#fc2e30;stroke-width:1px;stroke:#000;"/></g><g><circle cx="480.142" cy="780.94" r="20" style="fill:#fcd1d1;stroke-width:1px;stroke:#000;"/><circle cx="480.142" cy="780.94" r="10" style="fill:#fc2e30;stroke-width:1px;stroke:#000;"/></g><g><circle cx="1180.14" cy="380.94" r="20" style="fill:#fcd1d1;stroke-width:1px;stroke:#000;"/><circle cx="1180.14" cy="380.94" r="10" style="fill:#fc2e30;stroke-width:1px;stroke:#000;"/></g><g><circle cx="1180.14" cy="1180.94" r="20" style="fill:#fcd1d1;stroke-width:1px;stroke:#000;"/><circle cx="1180.14" cy="1180.94" r="10" style="fill:#fc2e30;stroke-width:1px;stroke:#000;"/></g><g><circle cx="1820.14" cy="780.94" r="20" style="fill:#fcd1d1;stroke-width:1px;stroke:#000;"/><circle cx="1820.14" cy="780.94" r="10" style="fill:#fc2e30;stroke-width:1px;stroke:#000;"/></g><g><circle cx="580.142" cy="780.94" r="20" style="fill:#fcd1d1;stroke-width:1px;stroke:#000;"/><circle cx="580.142" cy="780.94" r="10" style="fill:#fc2e30;stroke-width:1px;stroke:#000;"/></g><g><circle cx="1280.14" cy="380.94" r="20" style="fill:#fcd1d1;stroke-width:1px;stroke:#000;"/><circle cx="1280.14" cy="380.94" r="10" style="fill:#fc2e30;stroke-width:1px;stroke:#000;"/></g><g><circle cx="1280.14" cy="1180.94" r="20" style="fill:#fcd1d1;stroke-width:1px;stroke:#000;"/><circle cx="1280.14" cy="1180.94" r="10" style="fill:#fc2e30;stroke-width:1px;stroke:#000;"/></g><g><circle cx="1920.14" cy="780.94" r="20" style="fill:#fcd1d1;stroke-width:1px;stroke:#000;"/><circle cx="1920.14" cy="780.94" r="10" style="fill:#fc2e30;stroke-width:1px;stroke:#000;"/></g><g><circle cx="380.142" cy="620.94" r="20" style="fill:#fcd1d1;stroke-width:1px;stroke:#000;"/><circle cx="380.142" cy="620.94" r="10" style="fill:#fc2e30;stroke-width:1px;stroke:#000;"/></g><g><circle cx="1020.14" cy="220.94" r="20" style="fill:#fcd1d1;stroke-width:1px;stroke:#000;"/><circle cx="1020.14" cy="220.94" r="10" style="fill:#fc2e30;stroke-width:1px;stroke:#000;"/></g><g><circle cx="1020.14" cy="1020.94" r="20" style="fill:#fcd1d1;stroke-width:1px;stroke:#000;"/><circle cx="1020.14" cy="1020.94" r="10" style="fill:#fc2e30;stroke-width:1px;stroke:#000;"/></g><g><circle cx="1720.14" cy="620.94" r="20" style="fill:#fcd1d1;stroke-width:1px;stroke:#000;"/><circle cx="1720.14" cy="620.94" r="10" style="fill:#fc2e30;stroke-width:1px;stroke:#000;"/></g><g><circle cx="480.142" cy="620.94" r="20" style="fill:#fcd1d1;stroke-width:1px;stroke:#000;"/><circle cx="480.142" cy="620.94" r="10" style="fill:#fc2e30;stroke-width:1px;stroke:#000;"/></g><g><circle cx="1180.14" cy="220.94" r="20" style="fill:#fcd1d1;stroke-width:1px;stroke:#000;"/><circle cx="1180.14" cy="220.94" r="10" style="fill:#fc2e30;stroke-width:1px;stroke:#000;"/></g><g><circle cx="1180.14" cy="1020.94" r="20" style="fill:#fcd1d1;stroke-width:1px;stroke:#000;"/><circle cx="1180.14" cy="1020.94" r="10" style="fill:#fc2e30;stroke-width:1px;stroke:#000;"/></g><g><circle cx="1820.14" cy="620.94" r="20" style="fill:#fcd1d1;stroke-width:1px;stroke:#000;"/><circle cx="1820.14" cy="620.94" r="10" style="fill:#fc2e30;stroke-width:1px;stroke:#000;"/></g><path d="M157.498,700.94c53.921,0 161.763,0 242.644,0c90.441,0 221.913,62.469 300,0c83.334,-66.667 84.11,-368.158 200,-400c99.706,-27.395 283.89,-20.249 400,0c132.373,23.085 200,333.333 300,400c83.205,55.47 216.667,0 300,0c66.667,0 155.556,0 200,0" style="fill:none;stroke-width:18px;stroke:#14a90c;stroke-opacity:0.698039;"/><path d="M300.142,700.94l-159,49.248l0,-98.496l159,49.248Z" style="fill:#000;"/><g id="grid"><g id="bold lines"><path d="M700.142,100.94l0,2800" style="fill:none;stroke-width:1px;stroke-miterlimit:1;stroke:#000;stroke-opacity:0.298039;"/><path d="M100.142,700.94l2600,0" style="fill:none;stroke-width:1px;stroke-miterlimit:1;stroke:#000;stroke-opacity:0.298039;"/><path d="M1200.14,100.94l0,2800" style="fill:none;stroke-width:1px;stroke-miterlimit:1;stroke:#000;stroke-opacity:0.298039;"/><path d="M1700.14,100.94l0,2800" style="fill:none;stroke-width:1px;stroke-miterlimit:1;stroke:#000;stroke-opacity:0.298039;"/><path d="M2200.14,100.94l0,2800" style="fill:none;stroke-width:1px;stroke-miterlimit:1;stroke:#000;stroke-opacity:0.298039;"/><path d="M100.142,1200.94l2600,0" style="fill:none;stroke-width:1px;stroke-miterlimit:1;stroke:#000;stroke-opacity:0.298039;"/><path d="M100.142,200.94l2600,0" style="fill:none;stroke-width:1px;stroke-miterlimit:1;stroke:#000;stroke-opacity:0.298039;"/><path d="M200.142,2900.94l0,-2800" style="fill:none;stroke-width:1px;stroke-miterlimit:1;stroke:#000;stroke-opacity:0.298039;"/></g><g id="vertical lines"><path d="M100.142,100.94l0,2800" style="fill:none;stroke-width:1px;stroke-linejoin:miter;stroke-miterlimit:1;stroke-dasharray:10,44,2,44;stroke-dashoffset:5;stroke:#000;"/><path d="M700.142,100.94l0,2800" style="fill:none;stroke-width:1px;stroke-linejoin:miter;stroke-miterlimit:1;stroke-dasharray:10,44,2,44;stroke-dashoffset:5;stroke:#000;"/><path d="M1300.14,100.94l0,2800" style="fill:none;stroke-width:1px;stroke-linejoin:miter;stroke-miterlimit:1;stroke-dasharray:10,44,2,44;stroke-dashoffset:5;stroke:#000;"/><path d="M1900.14,100.94l0,2800" style="fill:none;stroke-width:1px;stroke-linejoin:miter;stroke-miterlimit:1;stroke-dasharray:10,44,2,44;stroke-dashoffset:5;stroke:#000;"/><path d="M300.142,100.94l0,2800" style="fill:none;stroke-width:1px;stroke-linejoin:miter;stroke-miterlimit:1;stroke-dasharray:10,44,2,44;stroke-dashoffset:5;stroke:#000;"/><path d="M900.142,100.94l0,2800" style="fill:none;stroke-width:1px;stroke-linejoin:miter;stroke-miterlimit:1;stroke-dasharray:10,44,2,44;stroke-dashoffset:5;stroke:#000;"/><path d="M1500.14,100.94l0,2800" style="fill:none;stroke-width:1px;stroke-linejoin:miter;stroke-miterlimit:1;stroke-dasharray:10,44,2,44;stroke-dashoffset:5;stroke:#000;"/><path d="M2100.14,100.94l0,2800" style="fill:none;stroke-width:1px;stroke-linejoin:miter;stroke-miterlimit:1;stroke-dasharray:10,44,2,44;stroke-dashoffset:5;stroke:#000;"/><path d="M500.142,100.94l0,2800" style="fill:none;stroke-width:1px;stroke-linejoin:miter;stroke-miterlimit:1;stroke-dasharray:10,44,2,44;stroke-dashoffset:5;stroke:#000;"/><path d="M1100.14,100.94l0,2800" style="fill:none;stroke-width:1px;stroke-linejoin:miter;stroke-miterlimit:1;stroke-dasharray:10,44,2,44;stroke-dashoffset:5;stroke:#000;"/><path d="M1700.14,100.94l0,2800" style="fill:none;stroke-width:1px;stroke-linejoin:miter;stroke-miterlimit:1;stroke-dasharray:10,44,2,44;stroke-dashoffset:5;stroke:#000;"/><path d="M2300.14,100.94l0,2800" style="fill:none;stroke-width:1px;stroke-linejoin:miter;stroke-miterlimit:1;stroke-dasharray:10,44,2,44;stroke-dashoffset:5;stroke:#000;"/><path d="M200.142,100.94l0,2800" style="fill:none;stroke-width:1px;stroke-linejoin:miter;stroke-miterlimit:1;stroke-dasharray:10,44,2,44;stroke-dashoffset:5;stroke:#000;"/><path d="M800.142,100.94l0,2800" style="fill:none;stroke-width:1px;stroke-linejoin:miter;stroke-miterlimit:1;stroke-dasharray:10,44,2,44;stroke-dashoffset:5;stroke:#000;"/><path d="M1400.14,100.94l0,2800" style="fill:none;stroke-width:1px;stroke-linejoin:miter;stroke-miterlimit:1;stroke-dasharray:10,44,2,44;stroke-dashoffset:5;stroke:#000;"/><path d="M2000.14,100.94l0,2800" style="fill:none;stroke-width:1px;stroke-linejoin:miter;stroke-miterlimit:1;stroke-dasharray:10,44,2,44;stroke-dashoffset:5;stroke:#000;"/><path d="M400.142,100.94l0,2800" style="fill:none;stroke-width:1px;stroke-linejoin:miter;stroke-miterlimit:1;stroke-dasharray:10,44,2,44;stroke-dashoffset:5;stroke:#000;"/><path d="M1000.14,100.94l0,2800" style="fill:none;stroke-width:1px;stroke-linejoin:miter;stroke-miterlimit:1;stroke-dasharray:10,44,2,44;stroke-dashoffset:5;stroke:#000;"/><path d="M1600.14,100.94l0,2800" style="fill:none;stroke-width:1px;stroke-linejoin:miter;stroke-miterlimit:1;stroke-dasharray:10,44,2,44;stroke-dashoffset:5;stroke:#000;"/><path d="M2200.14,100.94l0,2800" style="fill:none;stroke-width:1px;stroke-linejoin:miter;stroke-miterlimit:1;stroke-dasharray:10,44,2,44;stroke-dashoffset:5;stroke:#000;"/><path d="M600.142,100.94l0,2800" style="fill:none;stroke-width:1px;stroke-linejoin:miter;stroke-miterlimit:1;stroke-dasharray:10,44,2,44;stroke-dashoffset:5;stroke:#000;"/><path d="M1200.14,100.94l0,2800" style="fill:none;stroke-width:1px;stroke-linejoin:miter;stroke-miterlimit:1;stroke-dasharray:10,44,2,44;stroke-dashoffset:5;stroke:#000;"/><path d="M1800.14,100.94l0,2800" style="fill:none;stroke-width:1px;stroke-linejoin:miter;stroke-miterlimit:1;stroke-dasharray:10,44,2,44;stroke-dashoffset:5;stroke:#000;"/></g><g id="horizontal lines"><path d="M100.142,100.94l2600,0" style="fill:none;stroke-width:1px;stroke-dasharray:10,44,2,44;stroke-dashoffset:5;stroke:#000;"/><path d="M100.142,500.94l2600,0" style="fill:none;stroke-width:1px;stroke-dasharray:10,44,2,44;stroke-dashoffset:5;stroke:#000;"/><path d="M100.142,900.94l2600,0" style="fill:none;stroke-width:1px;stroke-dasharray:10,44,2,44;stroke-dashoffset:5;stroke:#000;"/><path d="M100.142,1300.94l2600,0" style="fill:none;stroke-width:1px;stroke-dasharray:10,44,2,44;stroke-dashoffset:5;stroke:#000;"/><path d="M2700.14,200.94l-2600,0" style="fill:none;stroke-width:1px;stroke-dasharray:10,44,2,44;stroke-dashoffset:5;stroke:#000;"/><path d="M2700.14,600.94l-2600,0" style="fill:none;stroke-width:1px;stroke-dasharray:10,44,2,44;stroke-dashoffset:5;stroke:#000;"/><path d="M2700.14,1000.94l-2600,0" style="fill:none;stroke-width:1px;stroke-dasharray:10,44,2,44;stroke-dashoffset:5;stroke:#000;"/><path d="M100.142,300.94l2600,0" style="fill:none;stroke-width:1px;stroke-dasharray:10,44,2,44;stroke-dashoffset:5;stroke:#000;"/><path d="M100.142,700.94l2600,0" style="fill:none;stroke-width:1px;stroke-dasharray:10,44,2,44;stroke-dashoffset:5;stroke:#000;"/><path d="M100.142,1100.94l2600,0" style="fill:none;stroke-width:1px;stroke-dasharray:10,44,2,44;stroke-dashoffset:5;stroke:#000;"/><path d="M100.142,400.94l2600,0" style="fill:none;stroke-width:1px;stroke-dasharray:10,44,2,44;stroke-dashoffset:5;stroke:#000;"/><path d="M100.142,800.94l2600,0" style="fill:none;stroke-width:1px;stroke-dasharray:10,44,2,44;stroke-dashoffset:5;stroke:#000;"/><path d="M100.142,1200.94l2600,0" style="fill:none;stroke-width:1px;stroke-dasharray:10,44,2,44;stroke-dashoffset:5;stroke:#000;"/></g><g id="top labels"><rect x="150.142" y="50.94" width="100" height="50" style="fill:#808080;stroke-width:1px;stroke:#000;"/><rect x="650.142" y="50.94" width="100" height="50" style="fill:#808080;stroke-width:1px;stroke:#000;"/><rect x="1150.14" y="50.94" width="100" height="50" style="fill:#808080;stroke-width:1px;stroke:#000;"/><rect x="1650.14" y="50.94" width="100" height="50" style="fill:#808080;stroke-width:1px;stroke:#000;"/><rect x="2150.14" y="50.94" width="100" height="50" style="fill:#808080;stroke-width:1px;stroke:#000;"/><rect x="250.142" y="50.94" width="100" height="50" style="fill:#808080;stroke-width:1px;stroke:#000;"/><rect x="750.142" y="50.94" width="100" height="50" style="fill:#808080;stroke-width:1px;stroke:#000;"/><rect x="1250.14" y="50.94" width="100" height="50" style="fill:#808080;stroke-width:1px;stroke:#000;"/><rect x="1750.14" y="50.94" width="100" height="50" style="fill:#808080;stroke-width:1px;stroke:#000;"/><rect x="2250.14" y="50.94" width="100" height="50" style="fill:#808080;stroke-width:1px;stroke:#000;"/><rect x="350.142" y="50.94" width="100" height="50" style="fill:#808080;stroke-width:1px;stroke:#000;"/><rect x="850.142" y="50.94" width="100" height="50" style="fill:#808080;stroke-width:1px;stroke:#000;"/><rect x="1350.14" y="50.94" width="100" height="50" style="fill:#808080;stroke-width:1px;stroke:#000;"/><rect x="1850.14" y="50.94" width="100" height="50" style="fill:#808080;stroke-width:1px;stroke:#000;"/><rect x="450.142" y="50.94" width="100" height="50" style="fill:#808080;stroke-width:1px;stroke:#000;"/><rect x="950.142" y="50.94" width="100" height="50" style="fill:#808080;stroke-width:1px;stroke:#000;"/><rect x="1450.14" y="50.94" width="100" height="50" style="fill:#808080;stroke-width:1px;stroke:#000;"/><rect x="1950.14" y="50.94" width="100" height="50" style="fill:#808080;stroke-width:1px;stroke:#000;"/><rect x="550.142" y="50.94" width="100" height="50" style="fill:#808080;stroke-width:1px;stroke:#000;"/><rect x="1050.14" y="50.94" width="100" height="50" style="fill:#808080;stroke-width:1px;stroke:#000;"/><rect x="1550.14" y="50.94" width="100" height="50" style="fill:#808080;stroke-width:1px;stroke:#000;"/><rect x="2050.14" y="50.94" width="100" height="50" style="fill:#808080;stroke-width:1px;stroke:#000;"/><text x="188.152px" y="90.019px" style="font-family:'ArialMT';font-size:36px;fill:#000;stroke-width:1px;stroke:#000;">A</text><text x="688.152px" y="90.019px" style="font-family:'ArialMT';font-size:36px;fill:#000;stroke-width:1px;stroke:#000;">F</text><text x="1188.15px" y="90.019px" style="font-family:'ArialMT';font-size:36px;fill:#000;stroke-width:1px;stroke:#000;">K</text><text x="1688.15px" y="90.019px" style="font-family:'ArialMT';font-size:36px;fill:#000;stroke-width:1px;stroke:#000;">P</text><text x="2188.15px" y="90.019px" style="font-family:'ArialMT';font-size:36px;fill:#000;stroke-width:1px;stroke:#000;">U</text><text x="288.152px" y="90.019px" style="font-family:'ArialMT';font-size:36px;fill:#000;stroke-width:1px;stroke:#000;">B</text><text x="788.152px" y="90.019px" style="font-family:'ArialMT';font-size:36px;fill:#000;stroke-width:1px;stroke:#000;">G</text><text x="1288.15px" y="90.019px" style="font-family:'ArialMT';font-size:36px;fill:#000;stroke-width:1px;stroke:#000;">L</text><text x="1788.15px" y="90.019px" style="font-family:'ArialMT';font-size:36px;fill:#000;stroke-width:1px;stroke:#000;">Q</text><text x="2288.15px" y="90.019px" style="font-family:'ArialMT';font-size:36px;fill:#000;stroke-width:1px;stroke:#000;">V</text><text x="388.152px" y="90.019px" style="font-family:'ArialMT';font-size:36px;fill:#000;stroke-width:1px;stroke:#000;">C</text><text x="888.152px" y="90.019px" style="font-family:'ArialMT';font-size:36px;fill:#000;stroke-width:1px;stroke:#000;">H</text><text x="1388.15px" y="90.019px" style="font-family:'ArialMT';font-size:36px;fill:#000;stroke-width:1px;stroke:#000;">M</text><text x="1888.15px" y="90.019px" style="font-family:'ArialMT';font-size:36px;fill:#000;stroke-width:1px;stroke:#000;">R</text><text x="488.152px" y="90.019px" style="font-family:'ArialMT';font-size:36px;fill:#000;stroke-width:1px;stroke:#000;">D</text><text x="995.157px" y="90.019px" style="font-family:'ArialMT';font-size:36px;fill:#000;stroke-width:1px;stroke:#000;">I</text><text x="1488.15px" y="90.019px" style="font-family:'ArialMT';font-size:36px;fill:#000;stroke-width:1px;stroke:#000;">N</text><text x="1988.15px" y="90.019px" style="font-family:'ArialMT';font-size:36px;fill:#000;stroke-width:1px;stroke:#000;">S</text><text x="588.152px" y="90.019px" style="font-family:'ArialMT';font-size:36px;fill:#000;stroke-width:1px;stroke:#000;">E</text><text x="1088.15px" y="90.019px" style="font-family:'ArialMT';font-size:36px;fill:#000;stroke-width:1px;stroke:#000;">J</text><text x="1588.15px" y="90.019px" style="font-family:'ArialMT';font-size:36px;fill:#000;stroke-width:1px;stroke:#000;">O</text><text x="2088.15px" y="90.019px" style="font-family:'ArialMT';font-size:36px;fill:#000;stroke-width:1px;stroke:#000;">T</text></g><g id="top numbers"><text x="292.911px" y="46.702px" style="font-family:'ArialMT';font-size:20px;fill:#000;stroke-width:1px;stroke:#000;">1</text><text x="194.581px" y="46.702px" style="font-family:'ArialMT';font-size:20px;fill:#000;stroke-width:1px;stroke:#000;">0</text><text x="792.911px" y="46.702px" style="font-family:'ArialMT';font-size:20px;fill:#000;stroke-width:1px;stroke:#000;">6</text><text x="1288.26px" y="46.702px" style="font-family:'ArialMT';font-size:20px;fill:#000;stroke-width:1px;stroke:#000;">1<tspan x="1297.9px " y="46.702px ">1</tspan></text><text x="1789.02px" y="46.702px" style="font-family:'ArialMT';font-size:20px;fill:#000;stroke-width:1px;stroke:#000;">16</text><text x="2289.02px" y="46.702px" style="font-family:'ArialMT';font-size:20px;fill:#000;stroke-width:1px;stroke:#000;">21</text><text x="392.911px" y="46.702px" style="font-family:'ArialMT';font-size:20px;fill:#000;stroke-width:1px;stroke:#000;">2</text><text x="893.458px" y="46.702px" style="font-family:'ArialMT';font-size:20px;fill:#000;stroke-width:1px;stroke:#000;">7</text><text x="1389.02px" y="46.702px" style="font-family:'ArialMT';font-size:20px;fill:#000;stroke-width:1px;stroke:#000;">12</text><text x="1887.9px" y="46.702px" style="font-family:'ArialMT';font-size:20px;fill:#000;stroke-width:1px;stroke:#000;">17</text><text x="492.911px" y="46.702px" style="font-family:'ArialMT';font-size:20px;fill:#000;stroke-width:1px;stroke:#000;">3</text><text x="993.458px" y="46.702px" style="font-family:'ArialMT';font-size:20px;fill:#000;stroke-width:1px;stroke:#000;">8</text><text x="1489.02px" y="46.702px" style="font-family:'ArialMT';font-size:20px;fill:#000;stroke-width:1px;stroke:#000;">13</text><text x="1987.9px" y="46.702px" style="font-family:'ArialMT';font-size:20px;fill:#000;stroke-width:1px;stroke:#000;">18</text><text x="592.911px" y="46.702px" style="font-family:'ArialMT';font-size:20px;fill:#000;stroke-width:1px;stroke:#000;">4</text><text x="1093.46px" y="46.702px" style="font-family:'ArialMT';font-size:20px;fill:#000;stroke-width:1px;stroke:#000;">9</text><text x="1589.02px" y="46.702px" style="font-family:'ArialMT';font-size:20px;fill:#000;stroke-width:1px;stroke:#000;">14</text><text x="2087.9px" y="46.702px" style="font-family:'ArialMT';font-size:20px;fill:#000;stroke-width:1px;stroke:#000;">19</text><text x="692.911px" y="46.702px" style="font-family:'ArialMT';font-size:20px;fill:#000;stroke-width:1px;stroke:#000;">5</text><text x="1189.02px" y="46.702px" style="font-family:'ArialMT';font-size:20px;fill:#000;stroke-width:1px;stroke:#000;">10</text><text x="1687.9px" y="46.702px" style="font-family:'ArialMT';font-size:20px;fill:#000;stroke-width:1px;stroke:#000;">15</text><text x="2187.9px" y="46.702px" style="font-family:'ArialMT';font-size:20px;fill:#000;stroke-width:1px;stroke:#000;">20</text></g><g id="side labels"><rect x="50.142" y="250.94" width="50" height="100" style="fill:#808080;stroke-width:1px;stroke:#000;"/><rect x="50.142" y="150.94" width="50" height="100" style="fill:#808080;stroke-width:1px;stroke:#000;"/><rect x="50.142" y="650.94" width="50" height="100" style="fill:#808080;stroke-width:1px;stroke:#000;"/><rect x="50.142" y="1050.94" width="50" height="100" style="fill:#808080;stroke-width:1px;stroke:#000;"/><rect x="50.142" y="350.94" width="50" height="100" style="fill:#808080;stroke-width:1px;stroke:#000;"/><rect x="50.142" y="750.94" width="50" height="100" style="fill:#808080;stroke-width:1px;stroke:#000;"/><rect x="50.142" y="1150.94" width="50" height="100" style="fill:#808080;stroke-width:1px;stroke:#000;"/><rect x="50.142" y="450.94" width="50" height="100" style="fill:#808080;stroke-width:1px;stroke:#000;"/><rect x="50.142" y="850.94" width="50" height="100" style="fill:#808080;stroke-width:1px;stroke:#000;"/><rect x="50.142" y="1250.94" width="50" height="100" style="fill:#808080;stroke-width:1px;stroke:#000;"/><rect x="50.142" y="550.94" width="50" height="100" style="fill:#808080;stroke-width:1px;stroke:#000;"/><rect x="50.142" y="950.94" width="50" height="100" style="fill:#808080;stroke-width:1px;stroke:#000;"/><text x="65.127px" y="313.311px" style="font-family:'ArialMT';font-size:36px;fill:#000;stroke-width:1px;stroke:#000;">1</text><text x="65.127px" y="213.311px" style="font-family:'ArialMT';font-size:36px;fill:#000;stroke-width:1px;stroke:#000;">0</text><text x="65.127px" y="713.311px" style="font-family:'ArialMT';font-size:36px;fill:#000;stroke-width:1px;stroke:#000;">5</text><text x="65.127px" y="1113.31px" style="font-family:'ArialMT';font-size:36px;fill:#000;stroke-width:1px;stroke:#000;">9</text><text x="65.127px" y="413.311px" style="font-family:'ArialMT';font-size:36px;fill:#000;stroke-width:1px;stroke:#000;">2</text><text x="65.127px" y="813.311px" style="font-family:'ArialMT';font-size:36px;fill:#000;stroke-width:1px;stroke:#000;">6</text><text x="55.116px" y="1213.31px" style="font-family:'ArialMT';font-size:36px;fill:#000;stroke-width:1px;stroke:#000;">10</text><text x="65.127px" y="513.311px" style="font-family:'ArialMT';font-size:36px;fill:#000;stroke-width:1px;stroke:#000;">3</text><text x="65.127px" y="913.311px" style="font-family:'ArialMT';font-size:36px;fill:#000;stroke-width:1px;stroke:#000;">7</text><text x="56.452px" y="1313.31px" style="font-family:'ArialMT';font-size:36px;fill:#000;stroke-width:1px;stroke:#000;">1<tspan x="73.802px " y="1313.31px ">1</tspan></text><text x="65.127px" y="613.311px" style="font-family:'ArialMT';font-size:36px;fill:#000;stroke-width:1px;stroke:#000;">4</text><text x="65.127px" y="1013.31px" style="font-family:'ArialMT';font-size:36px;fill:#000;stroke-width:1px;stroke:#000;">8</text></g><rect x="0.142" y="0.94" width="100" height="100" style="fill:none;stroke-width:1px;stroke-miterlimit:1;stroke:#000;"/><rect x="50.142" y="50.94" width="100" height="100" style="fill:#808080;stroke-width:1px;stroke:#000;"/><text x="55.689px" y="126.784px" style="font-family:'ArialMT';font-size:64px;fill:#000;stroke-width:1px;stroke:#000;">1m</text></g></g></svg>