<?xml version="1.0" standalone="no"?><!DOCTYPE svg PUBLIC "-//W3C//DTD SVG 1.1//EN" "http://www.w3.org/Graphics/SVG/1.1/DTD/svg11.dtd"><svg width="100%" height="100%" viewBox="0 0 2301 1301" version="1.1" xmlns="http://www.w3.org/2000/svg" xmlns:xlink="http://www.w3.org/1999/xlink" xml:space="preserve" style="fill-rule:evenodd;clip-rule:evenodd;stroke-linejoin:round;stroke-miterlimit:1.41421;"><clipPath id="_clip1"><rect id="lane change" x="0.549" y="0.94" width="2300" height="1300"/></clipPath><g clip-path="url(#_clip1)"><g><circle cx="280.549" cy="620.94" r="20" style="fill:#fcd1d1;stroke-width:1px;stroke:#000;"/><circle cx="280.549" cy="620.94" r="10" style="fill:#fc2e30;stroke-width:1px;stroke:#000;"/></g><g><circle cx="920.549" cy="220.94" r="20" style="fill:#fcd1d1;stroke-width:1px;stroke:#000;"/><circle cx="920.549" cy="220.94" r="10" style="fill:#fc2e30;stroke-width:1px;stroke:#000;"/></g><g><circle cx="920.549" cy="1020.94" r="20" style="fill:#fcd1d1;stroke-width:1px;stroke:#000;"/><circle cx="920.549" cy="1020.94" r="10" style="fill:#fc2e30;stroke-width:1px;stroke:#000;"/></g><g><circle cx="1620.55" cy="620.94" r="20" style="fill:#fcd1d1;stroke-width:1px;stroke:#000;"/><circle cx="1620.55" cy="620.94" r="10" style="fill:#fc2e30;stroke-width:1px;stroke:#000;"/></g><g><circle cx="280.549" cy="780.94" r="20" style="fill:#fcd1d1;stroke-width:1px;stroke:#000;"/><circle cx="280.549" cy="780.94" r="10" style="fill:#fc2e30;stroke-width:1px;stroke:#000;"/></g><g><circle cx="920.549" cy="380.94" r="20" style="fill:#fcd1d1;stroke-width:1px;stroke:#000;"/><circle cx="920.549" cy="380.94" r="10" style="fill:#fc2e30;stroke-width:1px;stroke:#000;"/></g><g><circle cx="920.549" cy="1180.94" r="20" style="fill:#fcd1d1;stroke-width:1px;stroke:#000;"/><circle cx="920.549" cy="1180.94" r="10" style="fill:#fc2e30;stroke-width:1px;stroke:#000;"/></g><g><circle cx="1620.55" cy="780.94" r="20" style="fill:#fcd1d1;stroke-width:1px;stroke:#000;"/><circle cx="1620.55" cy="780.94" r="10" style="fill:#fc2e30;stroke-width:1px;stroke:#000;"/></g><g><circle cx="380.549" cy="780.94" r="20" style="fill:#fcd1d1;stroke-width:1px;stroke:#000;"/><circle cx="380.549" cy="780.94" r="10" style="fill:#fc2e30;stroke-width:1px;stroke:#000;"/></g><g><circle cx="1020.55" cy="380.94" r="20" style="fill:#fcd1d1;stroke-width:1px;stroke:#000;"/><circle cx="1020.55" cy="380.94" r="10" style="fill:#fc2e30;stroke-width:1px;stroke:#000;"/></g><g><circle cx="1020.55" cy="1180.94" r="20" style="fill:#fcd1d1;stroke-width:1px;stroke:#000;"/><circle cx="1020.55" cy="1180.94" r="10" style="fill:#fc2e30;stroke-width:1px;stroke:#000;"/></g><g><circle cx="1720.55" cy="780.94" r="20" style="fill:#fcd1d1;stroke-width:1px;stroke:#000;"/><circle cx="1720.55" cy="780.94" r="10" style="fill:#fc2e30;stroke-width:1px;stroke:#000;"/></g><g><circle cx="580.549" cy="620.94" r="20" style="fill:#fcd1d1;stroke-width:1px;stroke:#000;"/><circle cx="580.549" cy="620.94" r="10" style="fill:#fc2e30;stroke-width:1px;stroke:#000;"/></g><g><circle cx="1280.55" cy="220.94" r="20" style="fill:#fcd1d1;stroke-width:1px;stroke:#000;"/><circle cx="1280.55" cy="220.94" r="10" style="fill:#fc2e30;stroke-width:1px;stroke:#000;"/></g><g><circle cx="1280.55" cy="1020.94" r="20" style="fill:#fcd1d1;stroke-width:1px;stroke:#000;"/><circle cx="1280.55" cy="1020.94" r="10" style="fill:#fc2e30;stroke-width:1px;stroke:#000;"/></g><g><circle cx="1920.55" cy="620.94" r="20" style="fill:#fcd1d1;stroke-width:1px;stroke:#000;"/><circle cx="1920.55" cy="620.94" r="10" style="fill:#fc2e30;stroke-width:1px;stroke:#000;"/></g><g><circle cx="480.549" cy="780.94" r="20" style="fill:#fcd1d1;stroke-width:1px;stroke:#000;"/><circle cx="480.549" cy="780.94" r="10" style="fill:#fc2e30;stroke-width:1px;stroke:#000;"/></g><g><circle cx="1180.55" cy="380.94" r="20" style="fill:#fcd1d1;stroke-width:1px;stroke:#000;"/><circle cx="1180.55" cy="380.94" r="10" style="fill:#fc2e30;stroke-width:1px;stroke:#000;"/></g><g><circle cx="1180.55" cy="1180.94" r="20" style="fill:#fcd1d1;stroke-width:1px;stroke:#000;"/><circle cx="1180.55" cy="1180.94" r="10" style="fill:#fc2e30;stroke-width:1px;stroke:#000;"/></g><g><circle cx="1820.55" cy="780.94" r="20" style="fill:#fcd1d1;stroke-width:1px;stroke:#000;"/><circle cx="1820.55" cy="780.94" r="10" style="fill:#fc2e30;stroke-width:1px;stroke:#000;"/></g><g><circle cx="580.549" cy="780.94" r="20" style="fill:#fcd1d1;stroke-width:1px;stroke:#000;"/><circle cx="580.549" cy="780.94" r="10" style="fill:#fc2e30;stroke-width:1px;stroke:#000;"/></g><g><circle cx="1280.55" cy="380.94" r="20" style="fill:#fcd1d1;stroke-width:1px;stroke:#000;"/><circle cx="1280.55" cy="380.94" r="10" style="fill:#fc2e30;stroke-width:1px;stroke:#000;"/></g><g><circle cx="1280.55" cy="1180.94" r="20" style="fill:#fcd1d1;stroke-width:1px;stroke:#000;"/><circle cx="1280.55" cy="1180.94" r="10" style="fill:#fc2e30;stroke-width:1px;stroke:#000;"/></g><g><circle cx="1920.55" cy="780.94" r="20" style="fill:#fcd1d1;stroke-width:1px;stroke:#000;"/><circle cx="1920.55" cy="780.94" r="10" style="fill:#fc2e30;stroke-width:1px;stroke:#000;"/></g><g><circle cx="380.549" cy="620.94" r="20" style="fill:#fcd1d1;stroke-width:1px;stroke:#000;"/><circle cx="380.549" cy="620.94" r="10" style="fill:#fc2e30;stroke-width:1px;stroke:#000;"/></g><g><circle cx="1020.55" cy="220.94" r="20" style="fill:#fcd1d1;stroke-width:1px;stroke:#000;"/><circle cx="1020.55" cy="220.94" r="10" style="fill:#fc2e30;stroke-width:1px;stroke:#000;"/></g><g><circle cx="1020.55" cy="1020.94" r="20" style="fill:#fcd1d1;stroke-width:1px;stroke:#000;"/><circle cx="1020.55" cy="1020.94" r="10" style="fill:#fc2e30;stroke-width:1px;stroke:#000;"/></g><g><circle cx="1720.55" cy="620.94" r="20" style="fill:#fcd1d1;stroke-width:1px;stroke:#000;"/><circle cx="1720.55" cy="620.94" r="10" style="fill:#fc2e30;stroke-width:1px;stroke:#000;"/></g><g><circle cx="480.549" cy="620.94" r="20" style="fill:#fcd1d1;stroke-width:1px;stroke:#000;"/><circle cx="480.549" cy="620.94" r="10" style="fill:#fc2e30;stroke-width:1px;stroke:#000;"/></g><g><circle cx="1180.55" cy="220.94" r="20" style="fill:#fcd1d1;stroke-width:1px;stroke:#000;"/><circle cx="1180.55" cy="220.94" r="10" style="fill:#fc2e30;stroke-width:1px;stroke:#000;"/></g><g><circle cx="1180.55" cy="1020.94" r="20" style="fill:#fcd1d1;stroke-width:1px;stroke:#000;"/><circle cx="1180.55" cy="1020.94" r="10" style="fill:#fc2e30;stroke-width:1px;stroke:#000;"/></g><g><circle cx="1820.55" cy="620.94" r="20" style="fill:#fcd1d1;stroke-width:1px;stroke:#000;"/><circle cx="1820.55" cy="620.94" r="10" style="fill:#fc2e30;stroke-width:1px;stroke:#000;"/></g><path d="M157.905,700.94c53.921,0 161.763,0 242.644,0c90.441,0 221.913,62.469 300,0c83.334,-66.667 84.11,-368.158 200,-400c99.706,-27.395 283.89,-20.249 400,0c132.373,23.085 200,333.333 300,400c83.205,55.47 216.667,0 300,0c66.667,0 155.556,0 200,0" style="fill:none;stroke-width:18px;stroke:#14a90c;stroke-opacity:0.698039;"/><path d="M300.549,700.94l-159,49.248l0,-98.496l159,49.248Z" style="fill:#000;"/><g id="grid"><g id="bold lines"><path d="M700.549,100.94l0,2800" style="fill:none;stroke-width:1px;stroke-miterlimit:1;stroke:#000;stroke-opacity:0.298039;"/><path d="M100.549,700.94l2600,0" style="fill:none;stroke-width:1px;stroke-miterlimit:1;stroke:#000;stroke-opacity:0.298039;"/><path d="M1200.55,100.94l0,2800" style="fill:none;stroke-width:1px;stroke-miterlimit:1;stroke:#000;stroke-opacity:0.298039;"/><path d="M1700.55,100.94l0,2800" style="fill:none;stroke-width:1px;stroke-miterlimit:1;stroke:#000;stroke-opacity:0.298039;"/><path d="M2200.55,100.94l0,2800" style="fill:none;stroke-width:1px;stroke-miterlimit:1;stroke:#000;stroke-opacity:0.298039;"/><path d="M100.549,1200.94l2600,0" style="fill:none;stroke-width:1px;stroke-miterlimit:1;stroke:#000;stroke-opacity:0.298039;"/><path d="M100.549,200.94l2600,0" style="fill:none;stroke-width:1px;stroke-miterlimit:1;stroke:#000;stroke-opacity:0.298039;"/><path d="M200.549,2900.94l0,-2800" style="fill:none;stroke-width:1px;stroke-miterlimit:1;stroke:#000;stroke-opacity:0.298039;"/></g><g id="vertical lines"><path d="M100.549,100.94l0,2800" style="fill:none;stroke-width:1px;stroke-linejoin:miter;stroke-miterlimit:1;stroke-dasharray:10,44,2,44;stroke-dashoffset:5;stroke:#000;"/><path d="M700.549,100.94l0,2800" style="fill:none;stroke-width:1px;stroke-linejoin:miter;stroke-miterlimit:1;stroke-dasharray:10,44,2,44;stroke-dashoffset:5;stroke:#000;"/><path d="M1300.55,100.94l0,2800" style="fill:none;stroke-width:1px;stroke-linejoin:miter;stroke-miterlimit:1;stroke-dasharray:10,44,2,44;stroke-dashoffset:5;stroke:#000;"/><path d="M1900.55,100.94l0,2800" style="fill:none;stroke-width:1px;stroke-linejoin:miter;stroke-miterlimit:1;stroke-dasharray:10,44,2,44;stroke-dashoffset:5;stroke:#000;"/><path d="M300.549,100.94l0,2800" style="fill:none;stroke-width:1px;stroke-linejoin:miter;stroke-miterlimit:1;stroke-dasharray:10,44,2,44;stroke-dashoffset:5;stroke:#000;"/><path d="M900.549,100.94l0,2800" style="fill:none;stroke-width:1px;stroke-linejoin:miter;stroke-miterlimit:1;stroke-dasharray:10,44,2,44;stroke-dashoffset:5;stroke:#000;"/><path d="M1500.55,100.94l0,2800" style="fill:none;stroke-width:1px;stroke-linejoin:miter;stroke-miterlimit:1;stroke-dasharray:10,44,2,44;stroke-dashoffset:5;stroke:#000;"/><path d="M2100.55,100.94l0,2800" style="fill:none;stroke-width:1px;stroke-linejoin:miter;stroke-miterlimit:1;stroke-dasharray:10,44,2,44;stroke-dashoffset:5;stroke:#000;"/><path d="M500.549,100.94l0,2800" style="fill:none;stroke-width:1px;stroke-linejoin:miter;stroke-miterlimit:1;stroke-dasharray:10,44,2,44;stroke-dashoffset:5;stroke:#000;"/><path d="M1100.55,100.94l0,2800" style="fill:none;stroke-width:1px;stroke-linejoin:miter;stroke-miterlimit:1;stroke-dasharray:10,44,2,44;stroke-dashoffset:5;stroke:#000;"/><path d="M1700.55,100.94l0,2800" style="fill:none;stroke-width:1px;stroke-linejoin:miter;stroke-miterlimit:1;stroke-dasharray:10,44,2,44;stroke-dashoffset:5;stroke:#000;"/><path d="M2300.55,100.94l0,2800" style="fill:none;stroke-width:1px;stroke-linejoin:miter;stroke-miterlimit:1;stroke-dasharray:10,44,2,44;stroke-dashoffset:5;stroke:#000;"/><path d="M200.549,100.94l0,2800" style="fill:none;stroke-width:1px;stroke-linejoin:miter;stroke-miterlimit:1;stroke-dasharray:10,44,2,44;stroke-dashoffset:5;stroke:#000;"/><path d="M800.549,100.94l0,2800" style="fill:none;stroke-width:1px;stroke-linejoin:miter;stroke-miterlimit:1;stroke-dasharray:10,44,2,44;stroke-dashoffset:5;stroke:#000;"/><path d="M1400.55,100.94l0,2800" style="fill:none;stroke-width:1px;stroke-linejoin:miter;stroke-miterlimit:1;stroke-dasharray:10,44,2,44;stroke-dashoffset:5;stroke:#000;"/><path d="M2000.55,100.94l0,2800" style="fill:none;stroke-width:1px;stroke-linejoin:miter;stroke-miterlimit:1;stroke-dasharray:10,44,2,44;stroke-dashoffset:5;stroke:#000;"/><path d="M400.549,100.94l0,2800" style="fill:none;stroke-width:1px;stroke-linejoin:miter;stroke-miterlimit:1;stroke-dasharray:10,44,2,44;stroke-dashoffset:5;stroke:#000;"/><path d="M1000.55,100.94l0,2800" style="fill:none;stroke-width:1px;stroke-linejoin:miter;stroke-miterlimit:1;stroke-dasharray:10,44,2,44;stroke-dashoffset:5;stroke:#000;"/><path d="M1600.55,100.94l0,2800" style="fill:none;stroke-width:1px;stroke-linejoin:miter;stroke-miterlimit:1;stroke-dasharray:10,44,2,44;stroke-dashoffset:5;stroke:#000;"/><path d="M2200.55,100.94l0,2800" style="fill:none;stroke-width:1px;stroke-linejoin:miter;stroke-miterlimit:1;stroke-dasharray:10,44,2,44;stroke-dashoffset:5;stroke:#000;"/><path d="M600.549,100.94l0,2800" style="fill:none;stroke-width:1px;stroke-linejoin:miter;stroke-miterlimit:1;stroke-dasharray:10,44,2,44;stroke-dashoffset:5;stroke:#000;"/><path d="M1200.55,100.94l0,2800" style="fill:none;stroke-width:1px;stroke-linejoin:miter;stroke-miterlimit:1;stroke-dasharray:10,44,2,44;stroke-dashoffset:5;stroke:#000;"/><path d="M1800.55,100.94l0,2800" style="fill:none;stroke-width:1px;stroke-linejoin:miter;stroke-miterlimit:1;stroke-dasharray:10,44,2,44;stroke-dashoffset:5;stroke:#000;"/></g><g id="horizontal lines"><path d="M100.549,100.94l2600,0" style="fill:none;stroke-width:1px;stroke-dasharray:10,44,2,44;stroke-dashoffset:5;stroke:#000;"/><path d="M100.549,500.94l2600,0" style="fill:none;stroke-width:1px;stroke-dasharray:10,44,2,44;stroke-dashoffset:5;stroke:#000;"/><path d="M100.549,900.94l2600,0" style="fill:none;stroke-width:1px;stroke-dasharray:10,44,2,44;stroke-dashoffset:5;stroke:#000;"/><path d="M100.549,1300.94l2600,0" style="fill:none;stroke-width:1px;stroke-dasharray:10,44,2,44;stroke-dashoffset:5;stroke:#000;"/><path d="M2700.55,200.94l-2600,0" style="fill:none;stroke-width:1px;stroke-dasharray:10,44,2,44;stroke-dashoffset:5;stroke:#000;"/><path d="M2700.55,600.94l-2600,0" style="fill:none;stroke-width:1px;stroke-dasharray:10,44,2,44;stroke-dashoffset:5;stroke:#000;"/><path d="M2700.55,1000.94l-2600,0" style="fill:none;stroke-width:1px;stroke-dasharray:10,44,2,44;stroke-dashoffset:5;stroke:#000;"/><path d="M100.549,300.94l2600,0" style="fill:none;stroke-width:1px;stroke-dasharray:10,44,2,44;stroke-dashoffset:5;stroke:#000;"/><path d="M100.549,700.94l2600,0" style="fill:none;stroke-width:1px;stroke-dasharray:10,44,2,44;stroke-dashoffset:5;stroke:#000;"/><path d="M100.549,1100.94l2600,0" style="fill:none;stroke-width:1px;stroke-dasharray:10,44,2,44;stroke-dashoffset:5;stroke:#000;"/><path d="M100.549,400.94l2600,0" style="fill:none;stroke-width:1px;stroke-dasharray:10,44,2,44;stroke-dashoffset:5;stroke:#000;"/><path d="M100.549,800.94l2600,0" style="fill:none;stroke-width:1px;stroke-dasharray:10,44,2,44;stroke-dashoffset:5;stroke:#000;"/><path d="M100.549,1200.94l2600,0" style="fill:none;stroke-width:1px;stroke-dasharray:10,44,2,44;stroke-dashoffset:5;stroke:#000;"/></g><g id="top labels"><rect x="150.549" y="50.94" width="100" height="50" style="fill:#808080;stroke-width:1px;stroke:#000;"/><rect x="650.549" y="50.94" width="100" height="50" style="fill:#808080;stroke-width:1px;stroke:#000;"/><rect x="1150.55" y="50.94" width="100" height="50" style="fill:#808080;stroke-width:1px;stroke:#000;"/><rect x="1650.55" y="50.94" width="100" height="50" style="fill:#808080;stroke-width:1px;stroke:#000;"/><rect x="2150.55" y="50.94" width="100" height="50" style="fill:#808080;stroke-width:1px;stroke:#000;"/><rect x="250.549" y="50.94" width="100" height="50" style="fill:#808080;stroke-width:1px;stroke:#000;"/><rect x="750.549" y="50.94" width="100" height="50" style="fill:#808080;stroke-width:1px;stroke:#000;"/><rect x="1250.55" y="50.94" width="100" height="50" style="fill:#808080;stroke-width:1px;stroke:#000;"/><rect x="1750.55" y="50.94" width="100" height="50" style="fill:#808080;stroke-width:1px;stroke:#000;"/><rect x="2250.55" y="50.94" width="100" height="50" style="fill:#808080;stroke-width:1px;stroke:#000;"/><rect x="350.549" y="50.94" width="100" height="50" style="fill:#808080;stroke-width:1px;stroke:#000;"/><rect x="850.549" y="50.94" width="100" height="50" style="fill:#808080;stroke-width:1px;stroke:#000;"/><rect x="1350.55" y="50.94" width="100" height="50" style="fill:#808080;stroke-width:1px;stroke:#000;"/><rect x="1850.55" y="50.94" width="100" height="50" style="fill:#808080;stroke-width:1px;stroke:#000;"/><rect x="450.549" y="50.94" width="100" height="50" style="fill:#808080;stroke-width:1px;stroke:#000;"/><rect x="950.549" y="50.94" width="100" height="50" style="fill:#808080;stroke-width:1px;stroke:#000;"/><rect x="1450.55" y="50.94" width="100" height="50" style="fill:#808080;stroke-width:1px;stroke:#000;"/><rect x="1950.55" y="50.94" width="100" height="50" style="fill:#808080;stroke-width:1px;stroke:#000;"/><rect x="550.549" y="50.94" width="100" height="50" style="fill:#808080;stroke-width:1px;stroke:#000;"/><rect x="1050.55" y="50.94" width="100" height="50" style="fill:#808080;stroke-width:1px;stroke:#000;"/><rect x="1550.55" y="50.94" width="100" height="50" style="fill:#808080;stroke-width:1px;stroke:#000;"/><rect x="2050.55" y="50.94" width="100" height="50" style="fill:#808080;stroke-width:1px;stroke:#000;"/><text x="188.559px" y="90.019px" style="font-family:'ArialMT';font-size:36px;fill:#000;stroke-width:1px;stroke:#000;">A</text><text x="688.559px" y="90.019px" style="font-family:'ArialMT';font-size:36px;fill:#000;stroke-width:1px;stroke:#000;">F</text><text x="1188.56px" y="90.019px" style="font-family:'ArialMT';font-size:36px;fill:#000;stroke-width:1px;stroke:#000;">K</text><text x="1688.56px" y="90.019px" style="font-family:'ArialMT';font-size:36px;fill:#000;stroke-width:1px;stroke:#000;">P</text><text x="2188.56px" y="90.019px" style="font-family:'ArialMT';font-size:36px;fill:#000;stroke-width:1px;stroke:#000;">U</text><text x="288.559px" y="90.019px" style="font-family:'ArialMT';font-size:36px;fill:#000;stroke-width:1px;stroke:#000;">B</text><text x="788.559px" y="90.019px" style="font-family:'ArialMT';font-size:36px;fill:#000;stroke-width:1px;stroke:#000;">G</text><text x="1288.56px" y="90.019px" style="font-family:'ArialMT';font-size:36px;fill:#000;stroke-width:1px;stroke:#000;">L</text><text x="1788.56px" y="90.019px" style="font-family:'ArialMT';font-size:36px;fill:#000;stroke-width:1px;stroke:#000;">Q</text><text x="2288.56px" y="90.019px" style="font-family:'ArialMT';font-size:36px;fill:#000;stroke-width:1px;stroke:#000;">V</text><text x="388.559px" y="90.019px" style="font-family:'ArialMT';font-size:36px;fill:#000;stroke-width:1px;stroke:#000;">C</text><text x="888.559px" y="90.019px" style="font-family:'ArialMT';font-size:36px;fill:#000;stroke-width:1px;stroke:#000;">H</text><text x="1388.56px" y="90.019px" style="font-family:'ArialMT';font-size:36px;fill:#000;stroke-width:1px;stroke:#000;">M</text><text x="1888.56px" y="90.019px" style="font-family:'ArialMT';font-size:36px;fill:#000;stroke-width:1px;stroke:#000;">R</text><text x="488.559px" y="90.019px" style="font-family:'ArialMT';font-size:36px;fill:#000;stroke-width:1px;stroke:#000;">D</text><text x="995.564px" y="90.019px" style="font-family:'ArialMT';font-size:36px;fill:#000;stroke-width:1px;stroke:#000;">I</text><text x="1488.56px" y="90.019px" style="font-family:'ArialMT';font-size:36px;fill:#000;stroke-width:1px;stroke:#000;">N</text><text x="1988.56px" y="90.019px" style="font-family:'ArialMT';font-size:36px;fill:#000;stroke-width:1px;stroke:#000;">S</text><text x="588.559px" y="90.019px" style="font-family:'ArialMT';font-size:36px;fill:#000;stroke-width:1px;stroke:#000;">E</text><text x="1088.56px" y="90.019px" style="font-family:'ArialMT';font-size:36px;fill:#000;stroke-width:1px;stroke:#000;">J</text><text x="1588.56px" y="90.019px" style="font-family:'ArialMT';font-size:36px;fill:#000;stroke-width:1px;stroke:#000;">O</text><text x="2088.56px" y="90.019px" style="font-family:'ArialMT';font-size:36px;fill:#000;stroke-width:1px;stroke:#000;">T</text></g><g id="top numbers"><text x="293.318px" y="46.702px" style="font-family:'ArialMT';font-size:20px;fill:#000;stroke-width:1px;stroke:#000;">1</text><text x="194.988px" y="46.702px" style="font-family:'ArialMT';font-size:20px;fill:#000;stroke-width:1px;stroke:#000;">0</text><text x="793.318px" y="46.702px" style="font-family:'ArialMT';font-size:20px;fill:#000;stroke-width:1px;stroke:#000;">6</text><text x="1288.66px" y="46.702px" style="font-family:'ArialMT';font-size:20px;fill:#000;stroke-width:1px;stroke:#000;">1<tspan x="1298.3px " y="46.702px ">1</tspan></text><text x="1789.43px" y="46.702px" style="font-family:'ArialMT';font-size:20px;fill:#000;stroke-width:1px;stroke:#000;">16</text><text x="2289.43px" y="46.702px" style="font-family:'ArialMT';font-size:20px;fill:#000;stroke-width:1px;stroke:#000;">21</text><text x="393.318px" y="46.702px" style="font-family:'ArialMT';font-size:20px;fill:#000;stroke-width:1px;stroke:#000;">2</text><text x="893.865px" y="46.702px" style="font-family:'ArialMT';font-size:20px;fill:#000;stroke-width:1px;stroke:#000;">7</text><text x="1389.43px" y="46.702px" style="font-family:'ArialMT';font-size:20px;fill:#000;stroke-width:1px;stroke:#000;">12</text><text x="1888.3px" y="46.702px" style="font-family:'ArialMT';font-size:20px;fill:#000;stroke-width:1px;stroke:#000;">17</text><text x="493.318px" y="46.702px" style="font-family:'ArialMT';font-size:20px;fill:#000;stroke-width:1px;stroke:#000;">3</text><text x="993.865px" y="46.702px" style="font-family:'ArialMT';font-size:20px;fill:#000;stroke-width:1px;stroke:#000;">8</text><text x="1489.43px" y="46.702px" style="font-family:'ArialMT';font-size:20px;fill:#000;stroke-width:1px;stroke:#000;">13</text><text x="1988.3px" y="46.702px" style="font-family:'ArialMT';font-size:20px;fill:#000;stroke-width:1px;stroke:#000;">18</text><text x="593.318px" y="46.702px" style="font-family:'ArialMT';font-size:20px;fill:#000;stroke-width:1px;stroke:#000;">4</text><text x="1093.87px" y="46.702px" style="font-family:'ArialMT';font-size:20px;fill:#000;stroke-width:1px;stroke:#000;">9</text><text x="1589.43px" y="46.702px" style="font-family:'ArialMT';font-size:20px;fill:#000;stroke-width:1px;stroke:#000;">14</text><text x="2088.3px" y="46.702px" style="font-family:'ArialMT';font-size:20px;fill:#000;stroke-width:1px;stroke:#000;">19</text><text x="693.318px" y="46.702px" style="font-family:'ArialMT';font-size:20px;fill:#000;stroke-width:1px;stroke:#000;">5</text><text x="1189.43px" y="46.702px" style="font-family:'ArialMT';font-size:20px;fill:#000;stroke-width:1px;stroke:#000;">10</text><text x="1688.3px" y="46.702px" style="font-family:'ArialMT';font-size:20px;fill:#000;stroke-width:1px;stroke:#000;">15</text><text x="2188.3px" y="46.702px" style="font-family:'ArialMT';font-size:20px;fill:#000;stroke-width:1px;stroke:#000;">20</text></g><g id="side labels"><rect x="50.549" y="250.94" width="50" height="100" style="fill:#808080;stroke-width:1px;stroke:#000;"/><rect x="50.549" y="150.94" width="50" height="100" style="fill:#808080;stroke-width:1px;stroke:#000;"/><rect x="50.549" y="650.94" width="50" height="100" style="fill:#808080;stroke-width:1px;stroke:#000;"/><rect x="50.549" y="1050.94" width="50" height="100" style="fill:#808080;stroke-width:1px;stroke:#000;"/><rect x="50.549" y="350.94" width="50" height="100" style="fill:#808080;stroke-width:1px;stroke:#000;"/><rect x="50.549" y="750.94" width="50" height="100" style="fill:#808080;stroke-width:1px;stroke:#000;"/><rect x="50.549" y="1150.94" width="50" height="100" style="fill:#808080;stroke-width:1px;stroke:#000;"/><rect x="50.549" y="450.94" width="50" height="100" style="fill:#808080;stroke-width:1px;stroke:#000;"/><rect x="50.549" y="850.94" width="50" height="100" style="fill:#808080;stroke-width:1px;stroke:#000;"/><rect x="50.549" y="1250.94" width="50" height="100" style="fill:#808080;stroke-width:1px;stroke:#000;"/><rect x="50.549" y="550.94" width="50" height="100" style="fill:#808080;stroke-width:1px;stroke:#000;"/><rect x="50.549" y="950.94" width="50" height="100" style="fill:#808080;stroke-width:1px;stroke:#000;"/><text x="65.534px" y="313.311px" style="font-family:'ArialMT';font-size:36px;fill:#000;stroke-width:1px;stroke:#000;">1</text><text x="65.534px" y="213.311px" style="font-family:'ArialMT';font-size:36px;fill:#000;stroke-width:1px;stroke:#000;">0</text><text x="65.534px" y="713.311px" style="font-family:'ArialMT';font-size:36px;fill:#000;stroke-width:1px;stroke:#000;">5</text><text x="65.534px" y="1113.31px" style="font-family:'ArialMT';font-size:36px;fill:#000;stroke-width:1px;stroke:#000;">9</text><text x="65.534px" y="413.311px" style="font-family:'ArialMT';font-size:36px;fill:#000;stroke-width:1px;stroke:#000;">2</text><text x="65.534px" y="813.311px" style="font-family:'ArialMT';font-size:36px;fill:#000;stroke-width:1px;stroke:#000;">6</text><text x="55.523px" y="1213.31px" style="font-family:'ArialMT';font-size:36px;fill:#000;stroke-width:1px;stroke:#000;">10</text><text x="65.534px" y="513.311px" style="font-family:'ArialMT';font-size:36px;fill:#000;stroke-width:1px;stroke:#000;">3</text><text x="65.534px" y="913.311px" style="font-family:'ArialMT';font-size:36px;fill:#000;stroke-width:1px;stroke:#000;">7</text><text x="56.859px" y="1313.31px" style="font-family:'ArialMT';font-size:36px;fill:#000;stroke-width:1px;stroke:#000;">1<tspan x="74.209px " y="1313.31px ">1</tspan></text><text x="65.534px" y="613.311px" style="font-family:'ArialMT';font-size:36px;fill:#000;stroke-width:1px;stroke:#000;">4</text><text x="65.534px" y="1013.31px" style="font-family:'ArialMT';font-size:36px;fill:#000;stroke-width:1px;stroke:#000;">8</text></g><rect x="0.549" y="0.94" width="100" height="100" style="fill:none;stroke-width:1px;stroke-miterlimit:1;stroke:#000;"/><rect x="50.549" y="50.94" width="100" height="100" style="fill:#808080;stroke-width:1px;stroke:#000;"/><text x="56.096px" y="126.784px" style="font-family:'ArialMT';font-size:64px;fill:#000;stroke-width:1px;stroke:#000;">1m</text></g></g></svg>