<?xml version="1.0" standalone="no"?><!DOCTYPE svg PUBLIC "-//W3C//DTD SVG 1.1//EN" "http://www.w3.org/Graphics/SVG/1.1/DTD/svg11.dtd"><svg width="100%" height="100%" viewBox="0 0 9588 5421" version="1.1" xmlns="http://www.w3.org/2000/svg" xmlns:xlink="http://www.w3.org/1999/xlink" xml:space="preserve" style="fill-rule:evenodd;clip-rule:evenodd;stroke-linejoin:round;stroke-miterlimit:1.41421;"><clipPath id="_clip1"><rect id="lane change" x="2.289" y="3.917" width="9583.33" height="5416.67"/></clipPath><g clip-path="url(#_clip1)"><g><circle cx="1168.96" cy="2587.25" r="83.333" style="fill:#fcd1d1;stroke-width:4.17px;stroke:#000;"/><circle cx="1168.96" cy="2587.25" r="41.667" style="fill:#fc2e30;stroke-width:4.17px;stroke:#000;"/></g><g><circle cx="3835.62" cy="920.583" r="83.333" style="fill:#fcd1d1;stroke-width:4.17px;stroke:#000;"/><circle cx="3835.62" cy="920.583" r="41.667" style="fill:#fc2e30;stroke-width:4.17px;stroke:#000;"/></g><g><circle cx="3835.62" cy="4253.92" r="83.333" style="fill:#fcd1d1;stroke-width:4.17px;stroke:#000;"/><circle cx="3835.62" cy="4253.92" r="41.667" style="fill:#fc2e30;stroke-width:4.17px;stroke:#000;"/></g><g><circle cx="6752.29" cy="2587.25" r="83.333" style="fill:#fcd1d1;stroke-width:4.17px;stroke:#000;"/><circle cx="6752.29" cy="2587.25" r="41.667" style="fill:#fc2e30;stroke-width:4.17px;stroke:#000;"/></g><g><circle cx="1168.96" cy="3253.92" r="83.333" style="fill:#fcd1d1;stroke-width:4.17px;stroke:#000;"/><circle cx="1168.96" cy="3253.92" r="41.667" style="fill:#fc2e30;stroke-width:4.17px;stroke:#000;"/></g><g><circle cx="3835.62" cy="1587.25" r="83.333" style="fill:#fcd1d1;stroke-width:4.17px;stroke:#000;"/><circle cx="3835.62" cy="1587.25" r="41.667" style="fill:#fc2e30;stroke-width:4.17px;stroke:#000;"/></g><g><circle cx="3835.62" cy="4920.58" r="83.333" style="fill:#fcd1d1;stroke-width:4.17px;stroke:#000;"/><circle cx="3835.62" cy="4920.58" r="41.667" style="fill:#fc2e30;stroke-width:4.17px;stroke:#000;"/></g><g><circle cx="6752.29" cy="3253.92" r="83.333" style="fill:#fcd1d1;stroke-width:4.17px;stroke:#000;"/><circle cx="6752.29" cy="3253.92" r="41.667" style="fill:#fc2e30;stroke-width:4.17px;stroke:#000;"/></g><g><circle cx="1585.62" cy="3253.92" r="83.333" style="fill:#fcd1d1;stroke-width:4.17px;stroke:#000;"/><circle cx="1585.62" cy="3253.92" r="41.667" style="fill:#fc2e30;stroke-width:4.17px;stroke:#000;"/></g><g><circle cx="4252.29" cy="1587.25" r="83.333" style="fill:#fcd1d1;stroke-width:4.17px;stroke:#000;"/><circle cx="4252.29" cy="1587.25" r="41.667" style="fill:#fc2e30;stroke-width:4.17px;stroke:#000;"/></g><g><circle cx="4252.29" cy="4920.58" r="83.333" style="fill:#fcd1d1;stroke-width:4.17px;stroke:#000;"/><circle cx="4252.29" cy="4920.58" r="41.667" style="fill:#fc2e30;stroke-width:4.17px;stroke:#000;"/></g><g><circle cx="7168.96" cy="3253.92" r="83.333" style="fill:#fcd1d1;stroke-width:4.17px;stroke:#000;"/><circle cx="7168.96" cy="3253.92" r="41.667" style="fill:#fc2e30;stroke-width:4.17px;stroke:#000;"/></g><g><circle cx="2418.96" cy="2587.25" r="83.333" style="fill:#fcd1d1;stroke-width:4.17px;stroke:#000;"/><circle cx="2418.96" cy="2587.25" r="41.667" style="fill:#fc2e30;stroke-width:4.17px;stroke:#000;"/></g><g><circle cx="5335.62" cy="920.583" r="83.333" style="fill:#fcd1d1;stroke-width:4.17px;stroke:#000;"/><circle cx="5335.62" cy="920.583" r="41.667" style="fill:#fc2e30;stroke-width:4.17px;stroke:#000;"/></g><g><circle cx="5335.62" cy="4253.92" r="83.333" style="fill:#fcd1d1;stroke-width:4.17px;stroke:#000;"/><circle cx="5335.62" cy="4253.92" r="41.667" style="fill:#fc2e30;stroke-width:4.17px;stroke:#000;"/></g><g><circle cx="8002.29" cy="2587.25" r="83.333" style="fill:#fcd1d1;stroke-width:4.17px;stroke:#000;"/><circle cx="8002.29" cy="2587.25" r="41.667" style="fill:#fc2e30;stroke-width:4.17px;stroke:#000;"/></g><g><circle cx="2002.29" cy="3253.92" r="83.333" style="fill:#fcd1d1;stroke-width:4.17px;stroke:#000;"/><circle cx="2002.29" cy="3253.92" r="41.667" style="fill:#fc2e30;stroke-width:4.17px;stroke:#000;"/></g><g><circle cx="4918.96" cy="1587.25" r="83.333" style="fill:#fcd1d1;stroke-width:4.17px;stroke:#000;"/><circle cx="4918.96" cy="1587.25" r="41.667" style="fill:#fc2e30;stroke-width:4.17px;stroke:#000;"/></g><g><circle cx="4918.96" cy="4920.58" r="83.333" style="fill:#fcd1d1;stroke-width:4.17px;stroke:#000;"/><circle cx="4918.96" cy="4920.58" r="41.667" style="fill:#fc2e30;stroke-width:4.17px;stroke:#000;"/></g><g><circle cx="7585.62" cy="3253.92" r="83.333" style="fill:#fcd1d1;stroke-width:4.17px;stroke:#000;"/><circle cx="7585.62" cy="3253.92" r="41.667" style="fill:#fc2e30;stroke-width:4.17px;stroke:#000;"/></g><g><circle cx="2418.96" cy="3253.92" r="83.333" style="fill:#fcd1d1;stroke-width:4.17px;stroke:#000;"/><circle cx="2418.96" cy="3253.92" r="41.667" style="fill:#fc2e30;stroke-width:4.17px;stroke:#000;"/></g><g><circle cx="5335.62" cy="1587.25" r="83.333" style="fill:#fcd1d1;stroke-width:4.17px;stroke:#000;"/><circle cx="5335.62" cy="1587.25" r="41.667" style="fill:#fc2e30;stroke-width:4.17px;stroke:#000;"/></g><g><circle cx="5335.62" cy="4920.58" r="83.333" style="fill:#fcd1d1;stroke-width:4.17px;stroke:#000;"/><circle cx="5335.62" cy="4920.58" r="41.667" style="fill:#fc2e30;stroke-width:4.17px;stroke:#000;"/></g><g><circle cx="8002.29" cy="3253.92" r="83.333" style="fill:#fcd1d1;stroke-width:4.17px;stroke:#000;"/><circle cx="8002.29" cy="3253.92" r="41.667" style="fill:#fc2e30;stroke-width:4.17px;stroke:#000;"/></g><g><circle cx="1585.62" cy="2587.25" r="83.333" style="fill:#fcd1d1;stroke-width:4.17px;stroke:#000;"/><circle cx="1585.62" cy="2587.25" r="41.667" style="fill:#fc2e30;stroke-width:4.17px;stroke:#000;"/></g><g><circle cx="4252.29" cy="920.583" r="83.333" style="fill:#fcd1d1;stroke-width:4.17px;stroke:#000;"/><circle cx="4252.29" cy="920.583" r="41.667" style="fill:#fc2e30;stroke-width:4.17px;stroke:#000;"/></g><g><circle cx="4252.29" cy="4253.92" r="83.333" style="fill:#fcd1d1;stroke-width:4.17px;stroke:#000;"/><circle cx="4252.29" cy="4253.92" r="41.667" style="fill:#fc2e30;stroke-width:4.17px;stroke:#000;"/></g><g><circle cx="7168.96" cy="2587.25" r="83.333" style="fill:#fcd1d1;stroke-width:4.17px;stroke:#000;"/><circle cx="7168.96" cy="2587.25" r="41.667" style="fill:#fc2e30;stroke-width:4.17px;stroke:#000;"/></g><g><circle cx="2002.29" cy="2587.25" r="83.333" style="fill:#fcd1d1;stroke-width:4.17px;stroke:#000;"/><circle cx="2002.29" cy="2587.25" r="41.667" style="fill:#fc2e30;stroke-width:4.17px;stroke:#000;"/></g><g><circle cx="4918.96" cy="920.583" r="83.333" style="fill:#fcd1d1;stroke-width:4.17px;stroke:#000;"/><circle cx="4918.96" cy="920.583" r="41.667" style="fill:#fc2e30;stroke-width:4.17px;stroke:#000;"/></g><g><circle cx="4918.96" cy="4253.92" r="83.333" style="fill:#fcd1d1;stroke-width:4.17px;stroke:#000;"/><circle cx="4918.96" cy="4253.92" r="41.667" style="fill:#fc2e30;stroke-width:4.17px;stroke:#000;"/></g><g><circle cx="7585.62" cy="2587.25" r="83.333" style="fill:#fcd1d1;stroke-width:4.17px;stroke:#000;"/><circle cx="7585.62" cy="2587.25" r="41.667" style="fill:#fc2e30;stroke-width:4.17px;stroke:#000;"/></g><path d="M657.937,2920.58c224.671,0 674.012,0 1011.02,0c376.836,0 924.638,260.29 1250,0c347.222,-277.778 350.457,-1533.99 833.333,-1666.67c415.44,-114.146 1182.88,-84.37 1666.67,0c551.554,96.186 833.333,1388.89 1250,1666.67c346.687,231.125 902.777,0 1250,0c277.777,0 648.148,0 833.333,0" style="fill:none;stroke-width:75px;stroke:#14a90c;stroke-opacity:0.698039;"/><path d="M1252.29,2920.58l-662.5,205.199l0,-410.398l662.5,205.199Z" style="fill:#000;"/><g id="grid"><g id="bold lines"><path d="M2918.96,420.583l0,11666.7" style="fill:none;stroke-width:4.17px;stroke-miterlimit:1;stroke:#000;stroke-opacity:0.298039;"/><path d="M418.956,2920.58l10833.3,0" style="fill:none;stroke-width:4.17px;stroke-miterlimit:1;stroke:#000;stroke-opacity:0.298039;"/><path d="M5002.29,420.583l0,11666.7" style="fill:none;stroke-width:4.17px;stroke-miterlimit:1;stroke:#000;stroke-opacity:0.298039;"/><path d="M7085.62,420.583l0,11666.7" style="fill:none;stroke-width:4.17px;stroke-miterlimit:1;stroke:#000;stroke-opacity:0.298039;"/><path d="M9168.96,420.583l0,11666.7" style="fill:none;stroke-width:4.17px;stroke-miterlimit:1;stroke:#000;stroke-opacity:0.298039;"/><path d="M418.956,5003.92l10833.3,0" style="fill:none;stroke-width:4.17px;stroke-miterlimit:1;stroke:#000;stroke-opacity:0.298039;"/><path d="M418.956,837.25l10833.3,0" style="fill:none;stroke-width:4.17px;stroke-miterlimit:1;stroke:#000;stroke-opacity:0.298039;"/><path d="M835.622,12087.2l0,-11666.7" style="fill:none;stroke-width:4.17px;stroke-miterlimit:1;stroke:#000;stroke-opacity:0.298039;"/></g><g id="vertical lines"><path d="M418.956,420.583l0,11666.7" style="fill:none;stroke-width:4.17px;stroke-linejoin:miter;stroke-miterlimit:1;stroke-dasharray:41.67,183.33,8.33,183.33;stroke-dashoffset:20.83;stroke:#000;"/><path d="M2918.96,420.583l0,11666.7" style="fill:none;stroke-width:4.17px;stroke-linejoin:miter;stroke-miterlimit:1;stroke-dasharray:41.67,183.33,8.33,183.33;stroke-dashoffset:20.83;stroke:#000;"/><path d="M5418.96,420.583l0,11666.7" style="fill:none;stroke-width:4.17px;stroke-linejoin:miter;stroke-miterlimit:1;stroke-dasharray:41.67,183.33,8.33,183.33;stroke-dashoffset:20.83;stroke:#000;"/><path d="M7918.96,420.583l0,11666.7" style="fill:none;stroke-width:4.17px;stroke-linejoin:miter;stroke-miterlimit:1;stroke-dasharray:41.67,183.33,8.33,183.33;stroke-dashoffset:20.83;stroke:#000;"/><path d="M1252.29,420.583l0,11666.7" style="fill:none;stroke-width:4.17px;stroke-linejoin:miter;stroke-miterlimit:1;stroke-dasharray:41.67,183.33,8.33,183.33;stroke-dashoffset:20.83;stroke:#000;"/><path d="M3752.29,420.583l0,11666.7" style="fill:none;stroke-width:4.17px;stroke-linejoin:miter;stroke-miterlimit:1;stroke-dasharray:41.67,183.33,8.33,183.33;stroke-dashoffset:20.83;stroke:#000;"/><path d="M6252.29,420.583l0,11666.7" style="fill:none;stroke-width:4.17px;stroke-linejoin:miter;stroke-miterlimit:1;stroke-dasharray:41.67,183.33,8.33,183.33;stroke-dashoffset:20.83;stroke:#000;"/><path d="M8752.29,420.583l0,11666.7" style="fill:none;stroke-width:4.17px;stroke-linejoin:miter;stroke-miterlimit:1;stroke-dasharray:41.67,183.33,8.33,183.33;stroke-dashoffset:20.83;stroke:#000;"/><path d="M2085.62,420.583l0,11666.7" style="fill:none;stroke-width:4.17px;stroke-linejoin:miter;stroke-miterlimit:1;stroke-dasharray:41.67,183.33,8.33,183.33;stroke-dashoffset:20.83;stroke:#000;"/><path d="M4585.62,420.583l0,11666.7" style="fill:none;stroke-width:4.17px;stroke-linejoin:miter;stroke-miterlimit:1;stroke-dasharray:41.67,183.33,8.33,183.33;stroke-dashoffset:20.83;stroke:#000;"/><path d="M7085.62,420.583l0,11666.7" style="fill:none;stroke-width:4.17px;stroke-linejoin:miter;stroke-miterlimit:1;stroke-dasharray:41.67,183.33,8.33,183.33;stroke-dashoffset:20.83;stroke:#000;"/><path d="M9585.62,420.583l0,11666.7" style="fill:none;stroke-width:4.17px;stroke-linejoin:miter;stroke-miterlimit:1;stroke-dasharray:41.67,183.33,8.33,183.33;stroke-dashoffset:20.83;stroke:#000;"/><path d="M835.622,420.583l0,11666.7" style="fill:none;stroke-width:4.17px;stroke-linejoin:miter;stroke-miterlimit:1;stroke-dasharray:41.67,183.33,8.33,183.33;stroke-dashoffset:20.83;stroke:#000;"/><path d="M3335.62,420.583l0,11666.7" style="fill:none;stroke-width:4.17px;stroke-linejoin:miter;stroke-miterlimit:1;stroke-dasharray:41.67,183.33,8.33,183.33;stroke-dashoffset:20.83;stroke:#000;"/><path d="M5835.62,420.583l0,11666.7" style="fill:none;stroke-width:4.17px;stroke-linejoin:miter;stroke-miterlimit:1;stroke-dasharray:41.67,183.33,8.33,183.33;stroke-dashoffset:20.83;stroke:#000;"/><path d="M8335.62,420.583l0,11666.7" style="fill:none;stroke-width:4.17px;stroke-linejoin:miter;stroke-miterlimit:1;stroke-dasharray:41.67,183.33,8.33,183.33;stroke-dashoffset:20.83;stroke:#000;"/><path d="M1668.96,420.583l0,11666.7" style="fill:none;stroke-width:4.17px;stroke-linejoin:miter;stroke-miterlimit:1;stroke-dasharray:41.67,183.33,8.33,183.33;stroke-dashoffset:20.83;stroke:#000;"/><path d="M4168.96,420.583l0,11666.7" style="fill:none;stroke-width:4.17px;stroke-linejoin:miter;stroke-miterlimit:1;stroke-dasharray:41.67,183.33,8.33,183.33;stroke-dashoffset:20.83;stroke:#000;"/><path d="M6668.96,420.583l0,11666.7" style="fill:none;stroke-width:4.17px;stroke-linejoin:miter;stroke-miterlimit:1;stroke-dasharray:41.67,183.33,8.33,183.33;stroke-dashoffset:20.83;stroke:#000;"/><path d="M9168.96,420.583l0,11666.7" style="fill:none;stroke-width:4.17px;stroke-linejoin:miter;stroke-miterlimit:1;stroke-dasharray:41.67,183.33,8.33,183.33;stroke-dashoffset:20.83;stroke:#000;"/><path d="M2502.29,420.583l0,11666.7" style="fill:none;stroke-width:4.17px;stroke-linejoin:miter;stroke-miterlimit:1;stroke-dasharray:41.67,183.33,8.33,183.33;stroke-dashoffset:20.83;stroke:#000;"/><path d="M5002.29,420.583l0,11666.7" style="fill:none;stroke-width:4.17px;stroke-linejoin:miter;stroke-miterlimit:1;stroke-dasharray:41.67,183.33,8.33,183.33;stroke-dashoffset:20.83;stroke:#000;"/><path d="M7502.29,420.583l0,11666.7" style="fill:none;stroke-width:4.17px;stroke-linejoin:miter;stroke-miterlimit:1;stroke-dasharray:41.67,183.33,8.33,183.33;stroke-dashoffset:20.83;stroke:#000;"/></g><g id="horizontal lines"><path d="M418.956,420.583l10833.3,0" style="fill:none;stroke-width:4.17px;stroke-dasharray:41.67,183.33,8.33,183.33;stroke-dashoffset:20.83;stroke:#000;"/><path d="M418.956,2087.25l10833.3,0" style="fill:none;stroke-width:4.17px;stroke-dasharray:41.67,183.33,8.33,183.33;stroke-dashoffset:20.83;stroke:#000;"/><path d="M418.956,3753.92l10833.3,0" style="fill:none;stroke-width:4.17px;stroke-dasharray:41.67,183.33,8.33,183.33;stroke-dashoffset:20.83;stroke:#000;"/><path d="M418.956,5420.58l10833.3,0" style="fill:none;stroke-width:4.17px;stroke-dasharray:41.67,183.33,8.33,183.33;stroke-dashoffset:20.83;stroke:#000;"/><path d="M11252.3,837.25l-10833.3,0" style="fill:none;stroke-width:4.17px;stroke-dasharray:41.67,183.33,8.33,183.33;stroke-dashoffset:20.83;stroke:#000;"/><path d="M11252.3,2503.92l-10833.3,0" style="fill:none;stroke-width:4.17px;stroke-dasharray:41.67,183.33,8.33,183.33;stroke-dashoffset:20.83;stroke:#000;"/><path d="M11252.3,4170.58l-10833.3,0" style="fill:none;stroke-width:4.17px;stroke-dasharray:41.67,183.33,8.33,183.33;stroke-dashoffset:20.83;stroke:#000;"/><path d="M418.956,1253.92l10833.3,0" style="fill:none;stroke-width:4.17px;stroke-dasharray:41.67,183.33,8.33,183.33;stroke-dashoffset:20.83;stroke:#000;"/><path d="M418.956,2920.58l10833.3,0" style="fill:none;stroke-width:4.17px;stroke-dasharray:41.67,183.33,8.33,183.33;stroke-dashoffset:20.83;stroke:#000;"/><path d="M418.956,4587.25l10833.3,0" style="fill:none;stroke-width:4.17px;stroke-dasharray:41.67,183.33,8.33,183.33;stroke-dashoffset:20.83;stroke:#000;"/><path d="M418.956,1670.58l10833.3,0" style="fill:none;stroke-width:4.17px;stroke-dasharray:41.67,183.33,8.33,183.33;stroke-dashoffset:20.83;stroke:#000;"/><path d="M418.956,3337.25l10833.3,0" style="fill:none;stroke-width:4.17px;stroke-dasharray:41.67,183.33,8.33,183.33;stroke-dashoffset:20.83;stroke:#000;"/><path d="M418.956,5003.92l10833.3,0" style="fill:none;stroke-width:4.17px;stroke-dasharray:41.67,183.33,8.33,183.33;stroke-dashoffset:20.83;stroke:#000;"/></g><g id="top labels"><rect x="627.289" y="212.25" width="416.667" height="208.333" style="fill:#808080;stroke-width:4.17px;stroke:#000;"/><rect x="2710.62" y="212.25" width="416.667" height="208.333" style="fill:#808080;stroke-width:4.17px;stroke:#000;"/><rect x="4793.96" y="212.25" width="416.667" height="208.333" style="fill:#808080;stroke-width:4.17px;stroke:#000;"/><rect x="6877.29" y="212.25" width="416.667" height="208.333" style="fill:#808080;stroke-width:4.17px;stroke:#000;"/><rect x="8960.62" y="212.25" width="416.667" height="208.333" style="fill:#808080;stroke-width:4.17px;stroke:#000;"/><rect x="1043.96" y="212.25" width="416.667" height="208.333" style="fill:#808080;stroke-width:4.17px;stroke:#000;"/><rect x="3127.29" y="212.25" width="416.667" height="208.333" style="fill:#808080;stroke-width:4.17px;stroke:#000;"/><rect x="5210.62" y="212.25" width="416.667" height="208.333" style="fill:#808080;stroke-width:4.17px;stroke:#000;"/><rect x="7293.96" y="212.25" width="416.667" height="208.333" style="fill:#808080;stroke-width:4.17px;stroke:#000;"/><rect x="9377.29" y="212.25" width="416.667" height="208.333" style="fill:#808080;stroke-width:4.17px;stroke:#000;"/><rect x="1460.62" y="212.25" width="416.667" height="208.333" style="fill:#808080;stroke-width:4.17px;stroke:#000;"/><rect x="3543.96" y="212.25" width="416.667" height="208.333" style="fill:#808080;stroke-width:4.17px;stroke:#000;"/><rect x="5627.29" y="212.25" width="416.667" height="208.333" style="fill:#808080;stroke-width:4.17px;stroke:#000;"/><rect x="7710.62" y="212.25" width="416.667" height="208.333" style="fill:#808080;stroke-width:4.17px;stroke:#000;"/><rect x="1877.29" y="212.25" width="416.667" height="208.333" style="fill:#808080;stroke-width:4.17px;stroke:#000;"/><rect x="3960.62" y="212.25" width="416.667" height="208.333" style="fill:#808080;stroke-width:4.17px;stroke:#000;"/><rect x="6043.96" y="212.25" width="416.667" height="208.333" style="fill:#808080;stroke-width:4.17px;stroke:#000;"/><rect x="8127.29" y="212.25" width="416.667" height="208.333" style="fill:#808080;stroke-width:4.17px;stroke:#000;"/><rect x="2293.96" y="212.25" width="416.667" height="208.333" style="fill:#808080;stroke-width:4.17px;stroke:#000;"/><rect x="4377.29" y="212.25" width="416.667" height="208.333" style="fill:#808080;stroke-width:4.17px;stroke:#000;"/><rect x="6460.62" y="212.25" width="416.667" height="208.333" style="fill:#808080;stroke-width:4.17px;stroke:#000;"/><rect x="8543.96" y="212.25" width="416.667" height="208.333" style="fill:#808080;stroke-width:4.17px;stroke:#000;"/><text x="785.663px" y="375.079px" style="font-family:'ArialMT';font-size:150px;fill:#000;stroke-width:4.17px;stroke:#000;">A</text><text x="2869px" y="375.079px" style="font-family:'ArialMT';font-size:150px;fill:#000;stroke-width:4.17px;stroke:#000;">F</text><text x="4952.33px" y="375.079px" style="font-family:'ArialMT';font-size:150px;fill:#000;stroke-width:4.17px;stroke:#000;">K</text><text x="7035.66px" y="375.079px" style="font-family:'ArialMT';font-size:150px;fill:#000;stroke-width:4.17px;stroke:#000;">P</text><text x="9119px" y="375.079px" style="font-family:'ArialMT';font-size:150px;fill:#000;stroke-width:4.17px;stroke:#000;">U</text><text x="1202.33px" y="375.079px" style="font-family:'ArialMT';font-size:150px;fill:#000;stroke-width:4.17px;stroke:#000;">B</text><text x="3285.66px" y="375.079px" style="font-family:'ArialMT';font-size:150px;fill:#000;stroke-width:4.17px;stroke:#000;">G</text><text x="5369px" y="375.079px" style="font-family:'ArialMT';font-size:150px;fill:#000;stroke-width:4.17px;stroke:#000;">L</text><text x="7452.33px" y="375.079px" style="font-family:'ArialMT';font-size:150px;fill:#000;stroke-width:4.17px;stroke:#000;">Q</text><text x="9535.66px" y="375.079px" style="font-family:'ArialMT';font-size:150px;fill:#000;stroke-width:4.17px;stroke:#000;">V</text><text x="1619px" y="375.079px" style="font-family:'ArialMT';font-size:150px;fill:#000;stroke-width:4.17px;stroke:#000;">C</text><text x="3702.33px" y="375.079px" style="font-family:'ArialMT';font-size:150px;fill:#000;stroke-width:4.17px;stroke:#000;">H</text><text x="5785.66px" y="375.079px" style="font-family:'ArialMT';font-size:150px;fill:#000;stroke-width:4.17px;stroke:#000;">M</text><text x="7869px" y="375.079px" style="font-family:'ArialMT';font-size:150px;fill:#000;stroke-width:4.17px;stroke:#000;">R</text><text x="2035.66px" y="375.079px" style="font-family:'ArialMT';font-size:150px;fill:#000;stroke-width:4.17px;stroke:#000;">D</text><text x="4148.18px" y="375.079px" style="font-family:'ArialMT';font-size:150px;fill:#000;stroke-width:4.17px;stroke:#000;">I</text><text x="6202.33px" y="375.079px" style="font-family:'ArialMT';font-size:150px;fill:#000;stroke-width:4.17px;stroke:#000;">N</text><text x="8285.66px" y="375.079px" style="font-family:'ArialMT';font-size:150px;fill:#000;stroke-width:4.17px;stroke:#000;">S</text><text x="2452.33px" y="375.079px" style="font-family:'ArialMT';font-size:150px;fill:#000;stroke-width:4.17px;stroke:#000;">E</text><text x="4535.66px" y="375.079px" style="font-family:'ArialMT';font-size:150px;fill:#000;stroke-width:4.17px;stroke:#000;">J</text><text x="6619px" y="375.079px" style="font-family:'ArialMT';font-size:150px;fill:#000;stroke-width:4.17px;stroke:#000;">O</text><text x="8702.33px" y="375.079px" style="font-family:'ArialMT';font-size:150px;fill:#000;stroke-width:4.17px;stroke:#000;">T</text></g><g id="top numbers"><text x="1222.16px" y="194.59px" style="font-family:'ArialMT';font-size:83.333px;fill:#000;stroke-width:4.17px;stroke:#000;">1</text><text x="812.449px" y="194.59px" style="font-family:'ArialMT';font-size:83.333px;fill:#000;stroke-width:4.17px;stroke:#000;">0</text><text x="3305.49px" y="194.59px" style="font-family:'ArialMT';font-size:83.333px;fill:#000;stroke-width:4.17px;stroke:#000;">6</text><text x="5369.44px" y="194.59px" style="font-family:'ArialMT';font-size:83.333px;fill:#000;stroke-width:4.17px;stroke:#000;">1<tspan x="5409.6px " y="194.59px ">1</tspan></text><text x="7455.94px" y="194.59px" style="font-family:'ArialMT';font-size:83.333px;fill:#000;stroke-width:4.17px;stroke:#000;">16</text><text x="9539.28px" y="194.59px" style="font-family:'ArialMT';font-size:83.333px;fill:#000;stroke-width:4.17px;stroke:#000;">21</text><text x="1638.83px" y="194.59px" style="font-family:'ArialMT';font-size:83.333px;fill:#000;stroke-width:4.17px;stroke:#000;">2</text><text x="3724.44px" y="194.59px" style="font-family:'ArialMT';font-size:83.333px;fill:#000;stroke-width:4.17px;stroke:#000;">7</text><text x="5789.28px" y="194.59px" style="font-family:'ArialMT';font-size:83.333px;fill:#000;stroke-width:4.17px;stroke:#000;">12</text><text x="7867.93px" y="194.59px" style="font-family:'ArialMT';font-size:83.333px;fill:#000;stroke-width:4.17px;stroke:#000;">17</text><text x="2055.49px" y="194.59px" style="font-family:'ArialMT';font-size:83.333px;fill:#000;stroke-width:4.17px;stroke:#000;">3</text><text x="4141.1px" y="194.59px" style="font-family:'ArialMT';font-size:83.333px;fill:#000;stroke-width:4.17px;stroke:#000;">8</text><text x="6205.94px" y="194.59px" style="font-family:'ArialMT';font-size:83.333px;fill:#000;stroke-width:4.17px;stroke:#000;">13</text><text x="8284.6px" y="194.59px" style="font-family:'ArialMT';font-size:83.333px;fill:#000;stroke-width:4.17px;stroke:#000;">18</text><text x="2472.16px" y="194.59px" style="font-family:'ArialMT';font-size:83.333px;fill:#000;stroke-width:4.17px;stroke:#000;">4</text><text x="4557.77px" y="194.59px" style="font-family:'ArialMT';font-size:83.333px;fill:#000;stroke-width:4.17px;stroke:#000;">9</text><text x="6622.61px" y="194.59px" style="font-family:'ArialMT';font-size:83.333px;fill:#000;stroke-width:4.17px;stroke:#000;">14</text><text x="8701.26px" y="194.59px" style="font-family:'ArialMT';font-size:83.333px;fill:#000;stroke-width:4.17px;stroke:#000;">19</text><text x="2888.83px" y="194.59px" style="font-family:'ArialMT';font-size:83.333px;fill:#000;stroke-width:4.17px;stroke:#000;">5</text><text x="4955.94px" y="194.59px" style="font-family:'ArialMT';font-size:83.333px;fill:#000;stroke-width:4.17px;stroke:#000;">10</text><text x="7034.6px" y="194.59px" style="font-family:'ArialMT';font-size:83.333px;fill:#000;stroke-width:4.17px;stroke:#000;">15</text><text x="9117.93px" y="194.59px" style="font-family:'ArialMT';font-size:83.333px;fill:#000;stroke-width:4.17px;stroke:#000;">20</text></g><g id="side labels"><rect x="210.622" y="1045.58" width="208.333" height="416.667" style="fill:#808080;stroke-width:4.17px;stroke:#000;"/><rect x="210.622" y="628.917" width="208.333" height="416.667" style="fill:#808080;stroke-width:4.17px;stroke:#000;"/><rect x="210.622" y="2712.25" width="208.333" height="416.667" style="fill:#808080;stroke-width:4.17px;stroke:#000;"/><rect x="210.622" y="4378.92" width="208.333" height="416.667" style="fill:#808080;stroke-width:4.17px;stroke:#000;"/><rect x="210.622" y="1462.25" width="208.333" height="416.667" style="fill:#808080;stroke-width:4.17px;stroke:#000;"/><rect x="210.622" y="3128.92" width="208.333" height="416.667" style="fill:#808080;stroke-width:4.17px;stroke:#000;"/><rect x="210.622" y="4795.58" width="208.333" height="416.667" style="fill:#808080;stroke-width:4.17px;stroke:#000;"/><rect x="210.622" y="1878.92" width="208.333" height="416.667" style="fill:#808080;stroke-width:4.17px;stroke:#000;"/><rect x="210.622" y="3545.58" width="208.333" height="416.667" style="fill:#808080;stroke-width:4.17px;stroke:#000;"/><rect x="210.622" y="5212.25" width="208.333" height="416.667" style="fill:#808080;stroke-width:4.17px;stroke:#000;"/><rect x="210.622" y="2295.58" width="208.333" height="416.667" style="fill:#808080;stroke-width:4.17px;stroke:#000;"/><rect x="210.622" y="3962.25" width="208.333" height="416.667" style="fill:#808080;stroke-width:4.17px;stroke:#000;"/><text x="273.058px" y="1305.46px" style="font-family:'ArialMT';font-size:150px;fill:#000;stroke-width:4.17px;stroke:#000;">1</text><text x="273.058px" y="888.796px" style="font-family:'ArialMT';font-size:150px;fill:#000;stroke-width:4.17px;stroke:#000;">0</text><text x="273.058px" y="2972.13px" style="font-family:'ArialMT';font-size:150px;fill:#000;stroke-width:4.17px;stroke:#000;">5</text><text x="273.058px" y="4638.8px" style="font-family:'ArialMT';font-size:150px;fill:#000;stroke-width:4.17px;stroke:#000;">9</text><text x="273.058px" y="1722.13px" style="font-family:'ArialMT';font-size:150px;fill:#000;stroke-width:4.17px;stroke:#000;">2</text><text x="273.058px" y="3388.8px" style="font-family:'ArialMT';font-size:150px;fill:#000;stroke-width:4.17px;stroke:#000;">6</text><text x="231.347px" y="5055.46px" style="font-family:'ArialMT';font-size:150px;fill:#000;stroke-width:4.17px;stroke:#000;">10</text><text x="273.058px" y="2138.8px" style="font-family:'ArialMT';font-size:150px;fill:#000;stroke-width:4.17px;stroke:#000;">3</text><text x="273.058px" y="3805.46px" style="font-family:'ArialMT';font-size:150px;fill:#000;stroke-width:4.17px;stroke:#000;">7</text><text x="236.913px" y="5472.13px" style="font-family:'ArialMT';font-size:150px;fill:#000;stroke-width:4.17px;stroke:#000;">1<tspan x="309.203px " y="5472.13px ">1</tspan></text><text x="273.058px" y="2555.46px" style="font-family:'ArialMT';font-size:150px;fill:#000;stroke-width:4.17px;stroke:#000;">4</text><text x="273.058px" y="4222.13px" style="font-family:'ArialMT';font-size:150px;fill:#000;stroke-width:4.17px;stroke:#000;">8</text></g><rect x="2.289" y="3.917" width="416.667" height="416.667" style="fill:none;stroke-width:4.17px;stroke-miterlimit:1;stroke:#000;"/><rect x="210.622" y="212.25" width="416.667" height="416.667" style="fill:#808080;stroke-width:4.17px;stroke:#000;"/><text x="233.734px" y="528.265px" style="font-family:'ArialMT';font-size:266.667px;fill:#000;stroke-width:4.17px;stroke:#000;">1m</text></g></g></svg>