<?xml version="1.0" standalone="no"?>
<!DOCTYPE svg PUBLIC "-//W3C//DTD SVG 1.1//EN" "http://www.w3.org/Graphics/SVG/1.1/DTD/svg11.dtd">
<svg width="100%" height="100%" viewBox="0 0 2301 1301" version="1.1" xmlns="http://www.w3.org/2000/svg" xmlns:xlink="http://www.w3.org/1999/xlink" xml:space="preserve" style="fill-rule:evenodd;clip-rule:evenodd;stroke-linejoin:round;stroke-miterlimit:1.41421;">
    <g transform="matrix(1,0,0,1,-23000,-3082)">
        <g id="lane change" transform="matrix(1.96246,0,0,0.978252,10274,24.8256)">
            <clipPath id="_clip1">
                <rect x="6485" y="3126.1" width="1172" height="1328.9"/>
            </clipPath>
            <g clip-path="url(#_clip1)">
                <g transform="matrix(1.67201,0,0,2.59551,6092.63,3034.1)">
                    <g transform="matrix(0.304762,0,0,0.393846,-1194.67,-1274.62)">
                        <circle cx="4970" cy="3946.34" r="20" style="fill:rgb(252,209,209);stroke-width:1px;stroke:black;"/>
                    </g>
                    <g transform="matrix(0.304762,0,0,0.393846,-1191.62,-1302.19)">
                        <circle cx="4960" cy="4016.34" r="10" style="fill:rgb(252,46,48);stroke-width:1px;stroke:black;"/>
                    </g>
                </g>
                <g transform="matrix(1.67201,0,0,2.59551,6418.76,2625.21)">
                    <g transform="matrix(0.304762,0,0,0.393846,-1194.67,-1274.62)">
                        <circle cx="4970" cy="3946.34" r="20" style="fill:rgb(252,209,209);stroke-width:1px;stroke:black;"/>
                    </g>
                    <g transform="matrix(0.304762,0,0,0.393846,-1191.62,-1302.19)">
                        <circle cx="4960" cy="4016.34" r="10" style="fill:rgb(252,46,48);stroke-width:1px;stroke:black;"/>
                    </g>
                </g>
                <g transform="matrix(1.67201,0,0,2.59551,6418.76,3442.99)">
                    <g transform="matrix(0.304762,0,0,0.393846,-1194.67,-1274.62)">
                        <circle cx="4970" cy="3946.34" r="20" style="fill:rgb(252,209,209);stroke-width:1px;stroke:black;"/>
                    </g>
                    <g transform="matrix(0.304762,0,0,0.393846,-1191.62,-1302.19)">
                        <circle cx="4960" cy="4016.34" r="10" style="fill:rgb(252,46,48);stroke-width:1px;stroke:black;"/>
                    </g>
                </g>
                <g transform="matrix(1.67201,0,0,2.59551,6775.45,3034.1)">
                    <g transform="matrix(0.304762,0,0,0.393846,-1194.67,-1274.62)">
                        <circle cx="4970" cy="3946.34" r="20" style="fill:rgb(252,209,209);stroke-width:1px;stroke:black;"/>
                    </g>
                    <g transform="matrix(0.304762,0,0,0.393846,-1191.62,-1302.19)">
                        <circle cx="4960" cy="4016.34" r="10" style="fill:rgb(252,46,48);stroke-width:1px;stroke:black;"/>
                    </g>
                </g>
                <g transform="matrix(1.67201,0,0,2.59551,6092.63,3197.66)">
                    <g transform="matrix(0.304762,0,0,0.393846,-1194.67,-1274.62)">
                        <circle cx="4970" cy="3946.34" r="20" style="fill:rgb(252,209,209);stroke-width:1px;stroke:black;"/>
                    </g>
                    <g transform="matrix(0.304762,0,0,0.393846,-1191.62,-1302.19)">
                        <circle cx="4960" cy="4016.34" r="10" style="fill:rgb(252,46,48);stroke-width:1px;stroke:black;"/>
                    </g>
                </g>
                <g transform="matrix(1.67201,0,0,2.59551,6418.76,2788.76)">
                    <g transform="matrix(0.304762,0,0,0.393846,-1194.67,-1274.62)">
                        <circle cx="4970" cy="3946.34" r="20" style="fill:rgb(252,209,209);stroke-width:1px;stroke:black;"/>
                    </g>
                    <g transform="matrix(0.304762,0,0,0.393846,-1191.62,-1302.19)">
                        <circle cx="4960" cy="4016.34" r="10" style="fill:rgb(252,46,48);stroke-width:1px;stroke:black;"/>
                    </g>
                </g>
                <g transform="matrix(1.67201,0,0,2.59551,6418.76,3606.55)">
                    <g transform="matrix(0.304762,0,0,0.393846,-1194.67,-1274.62)">
                        <circle cx="4970" cy="3946.34" r="20" style="fill:rgb(252,209,209);stroke-width:1px;stroke:black;"/>
                    </g>
                    <g transform="matrix(0.304762,0,0,0.393846,-1191.62,-1302.19)">
                        <circle cx="4960" cy="4016.34" r="10" style="fill:rgb(252,46,48);stroke-width:1px;stroke:black;"/>
                    </g>
                </g>
                <g transform="matrix(1.67201,0,0,2.59551,6775.45,3197.66)">
                    <g transform="matrix(0.304762,0,0,0.393846,-1194.67,-1274.62)">
                        <circle cx="4970" cy="3946.34" r="20" style="fill:rgb(252,209,209);stroke-width:1px;stroke:black;"/>
                    </g>
                    <g transform="matrix(0.304762,0,0,0.393846,-1191.62,-1302.19)">
                        <circle cx="4960" cy="4016.34" r="10" style="fill:rgb(252,46,48);stroke-width:1px;stroke:black;"/>
                    </g>
                </g>
                <g transform="matrix(1.67201,0,0,2.59551,6143.59,3197.66)">
                    <g transform="matrix(0.304762,0,0,0.393846,-1194.67,-1274.62)">
                        <circle cx="4970" cy="3946.34" r="20" style="fill:rgb(252,209,209);stroke-width:1px;stroke:black;"/>
                    </g>
                    <g transform="matrix(0.304762,0,0,0.393846,-1191.62,-1302.19)">
                        <circle cx="4960" cy="4016.34" r="10" style="fill:rgb(252,46,48);stroke-width:1px;stroke:black;"/>
                    </g>
                </g>
                <g transform="matrix(1.67201,0,0,2.59551,6469.71,2788.76)">
                    <g transform="matrix(0.304762,0,0,0.393846,-1194.67,-1274.62)">
                        <circle cx="4970" cy="3946.34" r="20" style="fill:rgb(252,209,209);stroke-width:1px;stroke:black;"/>
                    </g>
                    <g transform="matrix(0.304762,0,0,0.393846,-1191.62,-1302.19)">
                        <circle cx="4960" cy="4016.34" r="10" style="fill:rgb(252,46,48);stroke-width:1px;stroke:black;"/>
                    </g>
                </g>
                <g transform="matrix(1.67201,0,0,2.59551,6469.71,3606.55)">
                    <g transform="matrix(0.304762,0,0,0.393846,-1194.67,-1274.62)">
                        <circle cx="4970" cy="3946.34" r="20" style="fill:rgb(252,209,209);stroke-width:1px;stroke:black;"/>
                    </g>
                    <g transform="matrix(0.304762,0,0,0.393846,-1191.62,-1302.19)">
                        <circle cx="4960" cy="4016.34" r="10" style="fill:rgb(252,46,48);stroke-width:1px;stroke:black;"/>
                    </g>
                </g>
                <g transform="matrix(1.67201,0,0,2.59551,6826.41,3197.66)">
                    <g transform="matrix(0.304762,0,0,0.393846,-1194.67,-1274.62)">
                        <circle cx="4970" cy="3946.34" r="20" style="fill:rgb(252,209,209);stroke-width:1px;stroke:black;"/>
                    </g>
                    <g transform="matrix(0.304762,0,0,0.393846,-1191.62,-1302.19)">
                        <circle cx="4960" cy="4016.34" r="10" style="fill:rgb(252,46,48);stroke-width:1px;stroke:black;"/>
                    </g>
                </g>
                <g transform="matrix(1.67201,0,0,2.59551,6245.5,3034.1)">
                    <g transform="matrix(0.304762,0,0,0.393846,-1194.67,-1274.62)">
                        <circle cx="4970" cy="3946.34" r="20" style="fill:rgb(252,209,209);stroke-width:1px;stroke:black;"/>
                    </g>
                    <g transform="matrix(0.304762,0,0,0.393846,-1191.62,-1302.19)">
                        <circle cx="4960" cy="4016.34" r="10" style="fill:rgb(252,46,48);stroke-width:1px;stroke:black;"/>
                    </g>
                </g>
                <g transform="matrix(1.67201,0,0,2.59551,6602.2,2625.21)">
                    <g transform="matrix(0.304762,0,0,0.393846,-1194.67,-1274.62)">
                        <circle cx="4970" cy="3946.34" r="20" style="fill:rgb(252,209,209);stroke-width:1px;stroke:black;"/>
                    </g>
                    <g transform="matrix(0.304762,0,0,0.393846,-1191.62,-1302.19)">
                        <circle cx="4960" cy="4016.34" r="10" style="fill:rgb(252,46,48);stroke-width:1px;stroke:black;"/>
                    </g>
                </g>
                <g transform="matrix(1.67201,0,0,2.59551,6602.2,3442.99)">
                    <g transform="matrix(0.304762,0,0,0.393846,-1194.67,-1274.62)">
                        <circle cx="4970" cy="3946.34" r="20" style="fill:rgb(252,209,209);stroke-width:1px;stroke:black;"/>
                    </g>
                    <g transform="matrix(0.304762,0,0,0.393846,-1191.62,-1302.19)">
                        <circle cx="4960" cy="4016.34" r="10" style="fill:rgb(252,46,48);stroke-width:1px;stroke:black;"/>
                    </g>
                </g>
                <g transform="matrix(1.67201,0,0,2.59551,6928.32,3034.1)">
                    <g transform="matrix(0.304762,0,0,0.393846,-1194.67,-1274.62)">
                        <circle cx="4970" cy="3946.34" r="20" style="fill:rgb(252,209,209);stroke-width:1px;stroke:black;"/>
                    </g>
                    <g transform="matrix(0.304762,0,0,0.393846,-1191.62,-1302.19)">
                        <circle cx="4960" cy="4016.34" r="10" style="fill:rgb(252,46,48);stroke-width:1px;stroke:black;"/>
                    </g>
                </g>
                <g transform="matrix(1.67201,0,0,2.59551,6194.55,3197.66)">
                    <g transform="matrix(0.304762,0,0,0.393846,-1194.67,-1274.62)">
                        <circle cx="4970" cy="3946.34" r="20" style="fill:rgb(252,209,209);stroke-width:1px;stroke:black;"/>
                    </g>
                    <g transform="matrix(0.304762,0,0,0.393846,-1191.62,-1302.19)">
                        <circle cx="4960" cy="4016.34" r="10" style="fill:rgb(252,46,48);stroke-width:1px;stroke:black;"/>
                    </g>
                </g>
                <g transform="matrix(1.67201,0,0,2.59551,6551.24,2788.76)">
                    <g transform="matrix(0.304762,0,0,0.393846,-1194.67,-1274.62)">
                        <circle cx="4970" cy="3946.34" r="20" style="fill:rgb(252,209,209);stroke-width:1px;stroke:black;"/>
                    </g>
                    <g transform="matrix(0.304762,0,0,0.393846,-1191.62,-1302.19)">
                        <circle cx="4960" cy="4016.34" r="10" style="fill:rgb(252,46,48);stroke-width:1px;stroke:black;"/>
                    </g>
                </g>
                <g transform="matrix(1.67201,0,0,2.59551,6551.24,3606.55)">
                    <g transform="matrix(0.304762,0,0,0.393846,-1194.67,-1274.62)">
                        <circle cx="4970" cy="3946.34" r="20" style="fill:rgb(252,209,209);stroke-width:1px;stroke:black;"/>
                    </g>
                    <g transform="matrix(0.304762,0,0,0.393846,-1191.62,-1302.19)">
                        <circle cx="4960" cy="4016.34" r="10" style="fill:rgb(252,46,48);stroke-width:1px;stroke:black;"/>
                    </g>
                </g>
                <g transform="matrix(1.67201,0,0,2.59551,6877.37,3197.66)">
                    <g transform="matrix(0.304762,0,0,0.393846,-1194.67,-1274.62)">
                        <circle cx="4970" cy="3946.34" r="20" style="fill:rgb(252,209,209);stroke-width:1px;stroke:black;"/>
                    </g>
                    <g transform="matrix(0.304762,0,0,0.393846,-1191.62,-1302.19)">
                        <circle cx="4960" cy="4016.34" r="10" style="fill:rgb(252,46,48);stroke-width:1px;stroke:black;"/>
                    </g>
                </g>
                <g transform="matrix(1.67201,0,0,2.59551,6245.5,3197.66)">
                    <g transform="matrix(0.304762,0,0,0.393846,-1194.67,-1274.62)">
                        <circle cx="4970" cy="3946.34" r="20" style="fill:rgb(252,209,209);stroke-width:1px;stroke:black;"/>
                    </g>
                    <g transform="matrix(0.304762,0,0,0.393846,-1191.62,-1302.19)">
                        <circle cx="4960" cy="4016.34" r="10" style="fill:rgb(252,46,48);stroke-width:1px;stroke:black;"/>
                    </g>
                </g>
                <g transform="matrix(1.67201,0,0,2.59551,6602.2,2788.76)">
                    <g transform="matrix(0.304762,0,0,0.393846,-1194.67,-1274.62)">
                        <circle cx="4970" cy="3946.34" r="20" style="fill:rgb(252,209,209);stroke-width:1px;stroke:black;"/>
                    </g>
                    <g transform="matrix(0.304762,0,0,0.393846,-1191.62,-1302.19)">
                        <circle cx="4960" cy="4016.34" r="10" style="fill:rgb(252,46,48);stroke-width:1px;stroke:black;"/>
                    </g>
                </g>
                <g transform="matrix(1.67201,0,0,2.59551,6602.2,3606.55)">
                    <g transform="matrix(0.304762,0,0,0.393846,-1194.67,-1274.62)">
                        <circle cx="4970" cy="3946.34" r="20" style="fill:rgb(252,209,209);stroke-width:1px;stroke:black;"/>
                    </g>
                    <g transform="matrix(0.304762,0,0,0.393846,-1191.62,-1302.19)">
                        <circle cx="4960" cy="4016.34" r="10" style="fill:rgb(252,46,48);stroke-width:1px;stroke:black;"/>
                    </g>
                </g>
                <g transform="matrix(1.67201,0,0,2.59551,6928.32,3197.66)">
                    <g transform="matrix(0.304762,0,0,0.393846,-1194.67,-1274.62)">
                        <circle cx="4970" cy="3946.34" r="20" style="fill:rgb(252,209,209);stroke-width:1px;stroke:black;"/>
                    </g>
                    <g transform="matrix(0.304762,0,0,0.393846,-1191.62,-1302.19)">
                        <circle cx="4960" cy="4016.34" r="10" style="fill:rgb(252,46,48);stroke-width:1px;stroke:black;"/>
                    </g>
                </g>
                <g transform="matrix(1.67201,0,0,2.59551,6143.59,3034.1)">
                    <g transform="matrix(0.304762,0,0,0.393846,-1194.67,-1274.62)">
                        <circle cx="4970" cy="3946.34" r="20" style="fill:rgb(252,209,209);stroke-width:1px;stroke:black;"/>
                    </g>
                    <g transform="matrix(0.304762,0,0,0.393846,-1191.62,-1302.19)">
                        <circle cx="4960" cy="4016.34" r="10" style="fill:rgb(252,46,48);stroke-width:1px;stroke:black;"/>
                    </g>
                </g>
                <g transform="matrix(1.67201,0,0,2.59551,6469.71,2625.21)">
                    <g transform="matrix(0.304762,0,0,0.393846,-1194.67,-1274.62)">
                        <circle cx="4970" cy="3946.34" r="20" style="fill:rgb(252,209,209);stroke-width:1px;stroke:black;"/>
                    </g>
                    <g transform="matrix(0.304762,0,0,0.393846,-1191.62,-1302.19)">
                        <circle cx="4960" cy="4016.34" r="10" style="fill:rgb(252,46,48);stroke-width:1px;stroke:black;"/>
                    </g>
                </g>
                <g transform="matrix(1.67201,0,0,2.59551,6469.71,3442.99)">
                    <g transform="matrix(0.304762,0,0,0.393846,-1194.67,-1274.62)">
                        <circle cx="4970" cy="3946.34" r="20" style="fill:rgb(252,209,209);stroke-width:1px;stroke:black;"/>
                    </g>
                    <g transform="matrix(0.304762,0,0,0.393846,-1191.62,-1302.19)">
                        <circle cx="4960" cy="4016.34" r="10" style="fill:rgb(252,46,48);stroke-width:1px;stroke:black;"/>
                    </g>
                </g>
                <g transform="matrix(1.67201,0,0,2.59551,6826.41,3034.1)">
                    <g transform="matrix(0.304762,0,0,0.393846,-1194.67,-1274.62)">
                        <circle cx="4970" cy="3946.34" r="20" style="fill:rgb(252,209,209);stroke-width:1px;stroke:black;"/>
                    </g>
                    <g transform="matrix(0.304762,0,0,0.393846,-1191.62,-1302.19)">
                        <circle cx="4960" cy="4016.34" r="10" style="fill:rgb(252,46,48);stroke-width:1px;stroke:black;"/>
                    </g>
                </g>
                <g transform="matrix(1.67201,0,0,2.59551,6194.55,3034.1)">
                    <g transform="matrix(0.304762,0,0,0.393846,-1194.67,-1274.62)">
                        <circle cx="4970" cy="3946.34" r="20" style="fill:rgb(252,209,209);stroke-width:1px;stroke:black;"/>
                    </g>
                    <g transform="matrix(0.304762,0,0,0.393846,-1191.62,-1302.19)">
                        <circle cx="4960" cy="4016.34" r="10" style="fill:rgb(252,46,48);stroke-width:1px;stroke:black;"/>
                    </g>
                </g>
                <g transform="matrix(1.67201,0,0,2.59551,6551.24,2625.21)">
                    <g transform="matrix(0.304762,0,0,0.393846,-1194.67,-1274.62)">
                        <circle cx="4970" cy="3946.34" r="20" style="fill:rgb(252,209,209);stroke-width:1px;stroke:black;"/>
                    </g>
                    <g transform="matrix(0.304762,0,0,0.393846,-1191.62,-1302.19)">
                        <circle cx="4960" cy="4016.34" r="10" style="fill:rgb(252,46,48);stroke-width:1px;stroke:black;"/>
                    </g>
                </g>
                <g transform="matrix(1.67201,0,0,2.59551,6551.24,3442.99)">
                    <g transform="matrix(0.304762,0,0,0.393846,-1194.67,-1274.62)">
                        <circle cx="4970" cy="3946.34" r="20" style="fill:rgb(252,209,209);stroke-width:1px;stroke:black;"/>
                    </g>
                    <g transform="matrix(0.304762,0,0,0.393846,-1191.62,-1302.19)">
                        <circle cx="4960" cy="4016.34" r="10" style="fill:rgb(252,46,48);stroke-width:1px;stroke:black;"/>
                    </g>
                </g>
                <g transform="matrix(1.67201,0,0,2.59551,6877.37,3034.1)">
                    <g transform="matrix(0.304762,0,0,0.393846,-1194.67,-1274.62)">
                        <circle cx="4970" cy="3946.34" r="20" style="fill:rgb(252,209,209);stroke-width:1px;stroke:black;"/>
                    </g>
                    <g transform="matrix(0.304762,0,0,0.393846,-1191.62,-1302.19)">
                        <circle cx="4960" cy="4016.34" r="10" style="fill:rgb(252,46,48);stroke-width:1px;stroke:black;"/>
                    </g>
                </g>
                <g transform="matrix(0.509565,0,0,1.02223,-5874.07,37.1814)">
                    <path d="M24411.5,3721.74c53.921,0 161.763,0 242.644,0c90.441,0 221.913,62.469 300,0c83.334,-66.667 84.11,-368.159 200,-400c99.706,-27.395 283.89,-20.249 400,0c132.373,23.084 200,333.333 300,400c83.205,55.47 216.667,0 300,0c66.667,0 155.556,0 200,0" style="fill:none;stroke-width:18px;stroke:rgb(20,169,12);stroke-opacity:0.698039;"/>
                </g>
                <g transform="matrix(6.87379e-18,0.35959,-0.276522,2.12724e-17,6904.71,-4037.68)">
                    <path d="M21912,965l140,293l-280,0l140,-293Z" style="fill:black;"/>
                </g>
                <g id="grid" transform="matrix(0.509565,0,0,1.02223,-7797.87,-1785.61)">
                    <g id="bold lines">
                        <path d="M28729.5,4904.89l0,2800" style="fill:none;stroke-width:1px;stroke-miterlimit:1;stroke:black;stroke-opacity:0.298039;"/>
                        <g transform="matrix(0.962963,0,0,1,1041.83,0)">
                            <path d="M28129.5,5504.89l2700,0" style="fill:none;stroke-width:1.02px;stroke-miterlimit:1;stroke:black;stroke-opacity:0.298039;"/>
                        </g>
                        <path d="M29229.5,4904.89l0,2800" style="fill:none;stroke-width:1px;stroke-miterlimit:1;stroke:black;stroke-opacity:0.298039;"/>
                        <path d="M29729.5,4904.89l0,2800" style="fill:none;stroke-width:1px;stroke-miterlimit:1;stroke:black;stroke-opacity:0.298039;"/>
                        <path d="M30229.5,4904.89l0,2800" style="fill:none;stroke-width:1px;stroke-miterlimit:1;stroke:black;stroke-opacity:0.298039;"/>
                        <g transform="matrix(0.962963,0,0,1,1041.83,0)">
                            <path d="M28129.5,6004.89l2700,0" style="fill:none;stroke-width:1.02px;stroke-miterlimit:1;stroke:black;stroke-opacity:0.298039;"/>
                        </g>
                        <g transform="matrix(0.962963,0,0,1,1041.83,0)">
                            <path d="M28129.5,5004.89l2700,0" style="fill:none;stroke-width:1.02px;stroke-miterlimit:1;stroke:black;stroke-opacity:0.298039;"/>
                        </g>
                        <path d="M28229.5,7704.89l0,-2800" style="fill:none;stroke-width:1px;stroke-miterlimit:1;stroke:black;stroke-opacity:0.298039;"/>
                    </g>
                    <g id="vertical lines" transform="matrix(1,0,0,1.75,20859.5,-1392.56)">
                        <path d="M7270,3598.54l0,1600" style="fill:none;stroke-width:0.7px;stroke-linejoin:miter;stroke-miterlimit:1;stroke-dasharray:7.02,30.87,1.4,30.87;stroke-dashoffset:3.51;stroke:black;"/>
                        <g transform="matrix(1,0,0,1,600,9.09495e-13)">
                            <path d="M7270,3598.54l0,1600" style="fill:none;stroke-width:0.7px;stroke-linejoin:miter;stroke-miterlimit:1;stroke-dasharray:7.02,30.87,1.4,30.87;stroke-dashoffset:3.51;stroke:black;"/>
                        </g>
                        <g transform="matrix(1,0,0,1,1200,-9.09495e-13)">
                            <path d="M7270,3598.54l0,1600" style="fill:none;stroke-width:0.7px;stroke-linejoin:miter;stroke-miterlimit:1;stroke-dasharray:7.02,30.87,1.4,30.87;stroke-dashoffset:3.51;stroke:black;"/>
                        </g>
                        <g transform="matrix(1,0,0,1,1800,-9.09495e-13)">
                            <path d="M7270,3598.54l0,1600" style="fill:none;stroke-width:0.7px;stroke-linejoin:miter;stroke-miterlimit:1;stroke-dasharray:7.02,30.87,1.4,30.87;stroke-dashoffset:3.51;stroke:black;"/>
                        </g>
                        <g transform="matrix(1,0,0,1,200,4.54747e-13)">
                            <path d="M7270,3598.54l0,1600" style="fill:none;stroke-width:0.7px;stroke-linejoin:miter;stroke-miterlimit:1;stroke-dasharray:7.02,30.87,1.4,30.87;stroke-dashoffset:3.51;stroke:black;"/>
                        </g>
                        <g transform="matrix(1,0,0,1,800,1.36424e-12)">
                            <path d="M7270,3598.54l0,1600" style="fill:none;stroke-width:0.7px;stroke-linejoin:miter;stroke-miterlimit:1;stroke-dasharray:7.02,30.87,1.4,30.87;stroke-dashoffset:3.51;stroke:black;"/>
                        </g>
                        <g transform="matrix(1,0,0,1,1400,-4.54747e-13)">
                            <path d="M7270,3598.54l0,1600" style="fill:none;stroke-width:0.7px;stroke-linejoin:miter;stroke-miterlimit:1;stroke-dasharray:7.02,30.87,1.4,30.87;stroke-dashoffset:3.51;stroke:black;"/>
                        </g>
                        <g transform="matrix(1,0,0,1,2000,-4.54747e-13)">
                            <path d="M7270,3598.54l0,1600" style="fill:none;stroke-width:0.7px;stroke-linejoin:miter;stroke-miterlimit:1;stroke-dasharray:7.02,30.87,1.4,30.87;stroke-dashoffset:3.51;stroke:black;"/>
                        </g>
                        <g transform="matrix(1,0,0,1,400,-4.54747e-13)">
                            <path d="M7270,3598.54l0,1600" style="fill:none;stroke-width:0.7px;stroke-linejoin:miter;stroke-miterlimit:1;stroke-dasharray:7.02,30.87,1.4,30.87;stroke-dashoffset:3.51;stroke:black;"/>
                        </g>
                        <g transform="matrix(1,0,0,1,1000,4.54747e-13)">
                            <path d="M7270,3598.54l0,1600" style="fill:none;stroke-width:0.7px;stroke-linejoin:miter;stroke-miterlimit:1;stroke-dasharray:7.02,30.87,1.4,30.87;stroke-dashoffset:3.51;stroke:black;"/>
                        </g>
                        <g transform="matrix(1,0,0,1,1600,-1.36424e-12)">
                            <path d="M7270,3598.54l0,1600" style="fill:none;stroke-width:0.7px;stroke-linejoin:miter;stroke-miterlimit:1;stroke-dasharray:7.02,30.87,1.4,30.87;stroke-dashoffset:3.51;stroke:black;"/>
                        </g>
                        <g transform="matrix(1,0,0,1,2200,-1.36424e-12)">
                            <path d="M7270,3598.54l0,1600" style="fill:none;stroke-width:0.7px;stroke-linejoin:miter;stroke-miterlimit:1;stroke-dasharray:7.02,30.87,1.4,30.87;stroke-dashoffset:3.51;stroke:black;"/>
                        </g>
                        <path d="M7370,3598.54l0,1600" style="fill:none;stroke-width:0.7px;stroke-linejoin:miter;stroke-miterlimit:1;stroke-dasharray:7.02,30.87,1.4,30.87;stroke-dashoffset:3.51;stroke:black;"/>
                        <g transform="matrix(1,0,0,1,600,9.37916e-13)">
                            <path d="M7370,3598.54l0,1600" style="fill:none;stroke-width:0.7px;stroke-linejoin:miter;stroke-miterlimit:1;stroke-dasharray:7.02,30.87,1.4,30.87;stroke-dashoffset:3.51;stroke:black;"/>
                        </g>
                        <g transform="matrix(1,0,0,1,1200,-8.81073e-13)">
                            <path d="M7370,3598.54l0,1600" style="fill:none;stroke-width:0.7px;stroke-linejoin:miter;stroke-miterlimit:1;stroke-dasharray:7.02,30.87,1.4,30.87;stroke-dashoffset:3.51;stroke:black;"/>
                        </g>
                        <g transform="matrix(1,0,0,1,1800,-8.81073e-13)">
                            <path d="M7370,3598.54l0,1600" style="fill:none;stroke-width:0.7px;stroke-linejoin:miter;stroke-miterlimit:1;stroke-dasharray:7.02,30.87,1.4,30.87;stroke-dashoffset:3.51;stroke:black;"/>
                        </g>
                        <g transform="matrix(1,0,0,1,200,4.83169e-13)">
                            <path d="M7370,3598.54l0,1600" style="fill:none;stroke-width:0.7px;stroke-linejoin:miter;stroke-miterlimit:1;stroke-dasharray:7.02,30.87,1.4,30.87;stroke-dashoffset:3.51;stroke:black;"/>
                        </g>
                        <g transform="matrix(1,0,0,1,800,1.39266e-12)">
                            <path d="M7370,3598.54l0,1600" style="fill:none;stroke-width:0.7px;stroke-linejoin:miter;stroke-miterlimit:1;stroke-dasharray:7.02,30.87,1.4,30.87;stroke-dashoffset:3.51;stroke:black;"/>
                        </g>
                        <g transform="matrix(1,0,0,1,1400,-4.26326e-13)">
                            <path d="M7370,3598.54l0,1600" style="fill:none;stroke-width:0.7px;stroke-linejoin:miter;stroke-miterlimit:1;stroke-dasharray:7.02,30.87,1.4,30.87;stroke-dashoffset:3.51;stroke:black;"/>
                        </g>
                        <g transform="matrix(1,0,0,1,2000,-4.26326e-13)">
                            <path d="M7370,3598.54l0,1600" style="fill:none;stroke-width:0.7px;stroke-linejoin:miter;stroke-miterlimit:1;stroke-dasharray:7.02,30.87,1.4,30.87;stroke-dashoffset:3.51;stroke:black;"/>
                        </g>
                        <g transform="matrix(1,0,0,1,400,-4.26326e-13)">
                            <path d="M7370,3598.54l0,1600" style="fill:none;stroke-width:0.7px;stroke-linejoin:miter;stroke-miterlimit:1;stroke-dasharray:7.02,30.87,1.4,30.87;stroke-dashoffset:3.51;stroke:black;"/>
                        </g>
                        <g transform="matrix(1,0,0,1,1000,4.83169e-13)">
                            <path d="M7370,3598.54l0,1600" style="fill:none;stroke-width:0.7px;stroke-linejoin:miter;stroke-miterlimit:1;stroke-dasharray:7.02,30.87,1.4,30.87;stroke-dashoffset:3.51;stroke:black;"/>
                        </g>
                        <g transform="matrix(1,0,0,1,1600,-1.33582e-12)">
                            <path d="M7370,3598.54l0,1600" style="fill:none;stroke-width:0.7px;stroke-linejoin:miter;stroke-miterlimit:1;stroke-dasharray:7.02,30.87,1.4,30.87;stroke-dashoffset:3.51;stroke:black;"/>
                        </g>
                    </g>
                    <g id="horizontal lines" transform="matrix(0.962963,0,0,1,21128.8,1206.35)">
                        <path d="M7270,3698.54l2700,0" style="fill:none;stroke-width:1.02px;stroke-dasharray:10.19,44.82,2.04,44.82;stroke-dashoffset:5.09;stroke:black;"/>
                        <g transform="matrix(1,0,0,1,0,400)">
                            <path d="M7270,3698.54l2700,0" style="fill:none;stroke-width:1.02px;stroke-dasharray:10.19,44.82,2.04,44.82;stroke-dashoffset:5.09;stroke:black;"/>
                        </g>
                        <g transform="matrix(1,0,0,1,0,800)">
                            <path d="M7270,3698.54l2700,0" style="fill:none;stroke-width:1.02px;stroke-dasharray:10.19,44.82,2.04,44.82;stroke-dashoffset:5.09;stroke:black;"/>
                        </g>
                        <g transform="matrix(1,0,0,1,0,1200)">
                            <path d="M7270,3698.54l2700,0" style="fill:none;stroke-width:1.02px;stroke-dasharray:10.19,44.82,2.04,44.82;stroke-dashoffset:5.09;stroke:black;"/>
                        </g>
                        <path d="M9970,3798.54l-2700,0" style="fill:none;stroke-width:1.02px;stroke-dasharray:10.19,44.82,2.04,44.82;stroke-dashoffset:5.09;stroke:black;"/>
                        <g transform="matrix(1,0,0,1,0,400)">
                            <path d="M9970,3798.54l-2700,0" style="fill:none;stroke-width:1.02px;stroke-dasharray:10.19,44.82,2.04,44.82;stroke-dashoffset:5.09;stroke:black;"/>
                        </g>
                        <g transform="matrix(1,0,0,1,0,800)">
                            <path d="M9970,3798.54l-2700,0" style="fill:none;stroke-width:1.02px;stroke-dasharray:10.19,44.82,2.04,44.82;stroke-dashoffset:5.09;stroke:black;"/>
                        </g>
                        <path d="M7270,3898.54l2700,0" style="fill:none;stroke-width:1.02px;stroke-dasharray:10.19,44.82,2.04,44.82;stroke-dashoffset:5.09;stroke:black;"/>
                        <g transform="matrix(1,0,0,1,0,400)">
                            <path d="M7270,3898.54l2700,0" style="fill:none;stroke-width:1.02px;stroke-dasharray:10.19,44.82,2.04,44.82;stroke-dashoffset:5.09;stroke:black;"/>
                        </g>
                        <g transform="matrix(1,0,0,1,0,800)">
                            <path d="M7270,3898.54l2700,0" style="fill:none;stroke-width:1.02px;stroke-dasharray:10.19,44.82,2.04,44.82;stroke-dashoffset:5.09;stroke:black;"/>
                        </g>
                        <path d="M7270,3998.54l2700,0" style="fill:none;stroke-width:1.02px;stroke-dasharray:10.19,44.82,2.04,44.82;stroke-dashoffset:5.09;stroke:black;"/>
                        <g transform="matrix(1,0,0,1,0,400)">
                            <path d="M7270,3998.54l2700,0" style="fill:none;stroke-width:1.02px;stroke-dasharray:10.19,44.82,2.04,44.82;stroke-dashoffset:5.09;stroke:black;"/>
                        </g>
                        <g transform="matrix(1,0,0,1,0,800)">
                            <path d="M7270,3998.54l2700,0" style="fill:none;stroke-width:1.02px;stroke-dasharray:10.19,44.82,2.04,44.82;stroke-dashoffset:5.09;stroke:black;"/>
                        </g>
                    </g>
                    <g id="top labels" transform="matrix(1,0,0,1,20609.5,906.346)">
                        <g transform="matrix(1,0,0,1.25,1.81899e-12,-999.636)">
                            <rect x="7570" y="3958.54" width="100" height="40" style="fill:rgb(128,128,128);stroke-width:0.88px;stroke:black;"/>
                        </g>
                        <g transform="matrix(1,0,0,1.25,500,-999.636)">
                            <rect x="7570" y="3958.54" width="100" height="40" style="fill:rgb(128,128,128);stroke-width:0.88px;stroke:black;"/>
                        </g>
                        <g transform="matrix(1,0,0,1.25,1000,-999.636)">
                            <rect x="7570" y="3958.54" width="100" height="40" style="fill:rgb(128,128,128);stroke-width:0.88px;stroke:black;"/>
                        </g>
                        <g transform="matrix(1,0,0,1.25,1500,-999.636)">
                            <rect x="7570" y="3958.54" width="100" height="40" style="fill:rgb(128,128,128);stroke-width:0.88px;stroke:black;"/>
                        </g>
                        <g transform="matrix(1,0,0,1.25,2000,-999.636)">
                            <rect x="7570" y="3958.54" width="100" height="40" style="fill:rgb(128,128,128);stroke-width:0.88px;stroke:black;"/>
                        </g>
                        <g transform="matrix(1,0,0,1.25,100,-999.636)">
                            <rect x="7570" y="3958.54" width="100" height="40" style="fill:rgb(128,128,128);stroke-width:0.88px;stroke:black;"/>
                        </g>
                        <g transform="matrix(1,0,0,1.25,600,-999.636)">
                            <rect x="7570" y="3958.54" width="100" height="40" style="fill:rgb(128,128,128);stroke-width:0.88px;stroke:black;"/>
                        </g>
                        <g transform="matrix(1,0,0,1.25,1100,-999.636)">
                            <rect x="7570" y="3958.54" width="100" height="40" style="fill:rgb(128,128,128);stroke-width:0.88px;stroke:black;"/>
                        </g>
                        <g transform="matrix(1,0,0,1.25,1600,-999.636)">
                            <rect x="7570" y="3958.54" width="100" height="40" style="fill:rgb(128,128,128);stroke-width:0.88px;stroke:black;"/>
                        </g>
                        <g transform="matrix(1,0,0,1.25,2100,-999.636)">
                            <rect x="7570" y="3958.54" width="100" height="40" style="fill:rgb(128,128,128);stroke-width:0.88px;stroke:black;"/>
                        </g>
                        <g transform="matrix(1,0,0,1.25,200,-999.636)">
                            <rect x="7570" y="3958.54" width="100" height="40" style="fill:rgb(128,128,128);stroke-width:0.88px;stroke:black;"/>
                        </g>
                        <g transform="matrix(1,0,0,1.25,700,-999.636)">
                            <rect x="7570" y="3958.54" width="100" height="40" style="fill:rgb(128,128,128);stroke-width:0.88px;stroke:black;"/>
                        </g>
                        <g transform="matrix(1,0,0,1.25,1200,-999.636)">
                            <rect x="7570" y="3958.54" width="100" height="40" style="fill:rgb(128,128,128);stroke-width:0.88px;stroke:black;"/>
                        </g>
                        <g transform="matrix(1,0,0,1.25,1700,-999.636)">
                            <rect x="7570" y="3958.54" width="100" height="40" style="fill:rgb(128,128,128);stroke-width:0.88px;stroke:black;"/>
                        </g>
                        <g transform="matrix(1,0,0,1.25,300,-999.636)">
                            <rect x="7570" y="3958.54" width="100" height="40" style="fill:rgb(128,128,128);stroke-width:0.88px;stroke:black;"/>
                        </g>
                        <g transform="matrix(1,0,0,1.25,800,-999.636)">
                            <rect x="7570" y="3958.54" width="100" height="40" style="fill:rgb(128,128,128);stroke-width:0.88px;stroke:black;"/>
                        </g>
                        <g transform="matrix(1,0,0,1.25,1300,-999.636)">
                            <rect x="7570" y="3958.54" width="100" height="40" style="fill:rgb(128,128,128);stroke-width:0.88px;stroke:black;"/>
                        </g>
                        <g transform="matrix(1,0,0,1.25,1800,-999.636)">
                            <rect x="7570" y="3958.54" width="100" height="40" style="fill:rgb(128,128,128);stroke-width:0.88px;stroke:black;"/>
                        </g>
                        <g transform="matrix(1,0,0,1.25,400,-999.636)">
                            <rect x="7570" y="3958.54" width="100" height="40" style="fill:rgb(128,128,128);stroke-width:0.88px;stroke:black;"/>
                        </g>
                        <g transform="matrix(1,0,0,1.25,900,-999.636)">
                            <rect x="7570" y="3958.54" width="100" height="40" style="fill:rgb(128,128,128);stroke-width:0.88px;stroke:black;"/>
                        </g>
                        <g transform="matrix(1,0,0,1.25,1400,-999.636)">
                            <rect x="7570" y="3958.54" width="100" height="40" style="fill:rgb(128,128,128);stroke-width:0.88px;stroke:black;"/>
                        </g>
                        <g transform="matrix(1,0,0,1.25,1900,-999.636)">
                            <rect x="7570" y="3958.54" width="100" height="40" style="fill:rgb(128,128,128);stroke-width:0.88px;stroke:black;"/>
                        </g>
                        <g transform="matrix(1,0,0,1,-1.11608,18.83)">
                            <path d="M7609.07,3968.79l9.897,-25.77l3.673,0l10.547,25.77l-3.884,0l-3.006,-7.805l-10.776,0l-2.83,7.805l-3.621,0ZM7616.51,3958.21l8.736,0l-2.689,-7.137c-0.821,-2.168 -1.43,-3.949 -1.829,-5.344c-0.328,1.653 -0.791,3.293 -1.388,4.922l-2.83,7.559Z" style="fill:black;fill-rule:nonzero;stroke-width:1px;stroke:black;"/>
                        </g>
                        <g transform="matrix(1,0,0,1,498.884,18.83)">
                            <path d="M7612.08,3968.79l0,-25.77l17.385,0l0,3.041l-13.975,0l0,7.981l12.094,0l0,3.041l-12.094,0l0,11.707l-3.41,0Z" style="fill:black;fill-rule:nonzero;stroke-width:1px;stroke:black;"/>
                        </g>
                        <g transform="matrix(1,0,0,1,998.884,18.83)">
                            <path d="M7611.76,3968.79l0,-25.77l3.41,0l0,12.78l12.797,-12.78l4.623,0l-10.811,10.442l11.285,15.328l-4.5,0l-9.176,-13.043l-4.218,4.113l0,8.93l-3.41,0Z" style="fill:black;fill-rule:nonzero;stroke-width:1px;stroke:black;"/>
                        </g>
                        <g transform="matrix(1,0,0,1,1498.88,18.83)">
                            <path d="M7611.9,3968.79l0,-25.77l9.721,0c1.711,0 3.017,0.082 3.92,0.246c1.265,0.211 2.326,0.613 3.181,1.205c0.856,0.591 1.544,1.42 2.066,2.487c0.521,1.066 0.782,2.238 0.782,3.516c0,2.191 -0.697,4.045 -2.092,5.563c-1.394,1.518 -3.914,2.276 -7.558,2.276l-6.61,0l0,10.477l-3.41,0ZM7615.31,3955.27l6.662,0c2.204,0 3.768,-0.41 4.694,-1.23c0.926,-0.82 1.388,-1.975 1.388,-3.463c0,-1.078 -0.272,-2.001 -0.817,-2.769c-0.545,-0.767 -1.263,-1.274 -2.153,-1.52c-0.574,-0.152 -1.635,-0.229 -3.182,-0.229l-6.592,0l0,9.211Z" style="fill:black;fill-rule:nonzero;stroke-width:1px;stroke:black;"/>
                        </g>
                        <g transform="matrix(1,0,0,1,1998.88,18.83)">
                            <path d="M7628.81,3943.02l3.41,0l0,14.889c0,2.59 -0.292,4.647 -0.878,6.17c-0.586,1.523 -1.644,2.763 -3.173,3.718c-1.53,0.955 -3.536,1.432 -6.021,1.432c-2.414,0 -4.388,-0.416 -5.924,-1.248c-1.535,-0.832 -2.63,-2.036 -3.287,-3.612c-0.656,-1.576 -0.984,-3.729 -0.984,-6.46l0,-14.889l3.41,0l0,14.871c0,2.239 0.208,3.888 0.624,4.949c0.416,1.06 1.131,1.878 2.145,2.452c1.013,0.574 2.253,0.861 3.717,0.861c2.508,0 4.295,-0.568 5.362,-1.705c1.066,-1.137 1.599,-3.322 1.599,-6.557l0,-14.871Z" style="fill:black;fill-rule:nonzero;stroke-width:1px;stroke:black;"/>
                        </g>
                        <g transform="matrix(1,0,0,1,98.8839,18.83)">
                            <path d="M7611.76,3968.79l0,-25.77l9.668,0c1.968,0 3.547,0.261 4.737,0.783c1.189,0.521 2.121,1.324 2.795,2.408c0.674,1.084 1.01,2.218 1.01,3.401c0,1.102 -0.298,2.139 -0.896,3.112c-0.598,0.972 -1.5,1.757 -2.707,2.355c1.559,0.457 2.757,1.236 3.595,2.338c0.838,1.101 1.257,2.402 1.257,3.902c0,1.207 -0.255,2.329 -0.765,3.366c-0.51,1.038 -1.14,1.837 -1.89,2.4c-0.75,0.562 -1.69,0.987 -2.821,1.274c-1.131,0.287 -2.517,0.431 -4.157,0.431l-9.826,0ZM7615.17,3953.85l5.572,0c1.512,0 2.596,-0.1 3.252,-0.299c0.867,-0.258 1.52,-0.686 1.96,-1.284c0.439,-0.597 0.659,-1.347 0.659,-2.25c0,-0.855 -0.205,-1.608 -0.615,-2.258c-0.41,-0.651 -0.996,-1.096 -1.758,-1.336c-0.762,-0.24 -2.068,-0.361 -3.92,-0.361l-5.15,0l0,7.788ZM7615.17,3965.75l6.416,0c1.101,0 1.875,-0.041 2.32,-0.123c0.785,-0.141 1.441,-0.375 1.969,-0.703c0.527,-0.328 0.961,-0.806 1.301,-1.433c0.339,-0.627 0.509,-1.35 0.509,-2.171c0,-0.961 -0.246,-1.796 -0.738,-2.505c-0.492,-0.709 -1.175,-1.207 -2.048,-1.494c-0.873,-0.287 -2.13,-0.43 -3.77,-0.43l-5.959,0l0,8.859Z" style="fill:black;fill-rule:nonzero;stroke-width:1px;stroke:black;"/>
                        </g>
                        <g transform="matrix(1,0,0,1,598.884,18.83)">
                            <path d="M7623.96,3958.68l0,-3.023l10.916,-0.018l0,9.563c-1.676,1.336 -3.405,2.341 -5.186,3.015c-1.781,0.673 -3.609,1.01 -5.484,1.01c-2.531,0 -4.831,-0.542 -6.9,-1.626c-2.068,-1.084 -3.629,-2.651 -4.684,-4.702c-1.055,-2.051 -1.582,-4.342 -1.582,-6.873c0,-2.508 0.524,-4.848 1.573,-7.022c1.049,-2.174 2.558,-3.788 4.526,-4.843c1.969,-1.055 4.237,-1.582 6.803,-1.582c1.863,0 3.548,0.302 5.054,0.905c1.506,0.604 2.686,1.445 3.542,2.523c0.855,1.078 1.506,2.484 1.951,4.218l-3.076,0.844c-0.387,-1.312 -0.867,-2.344 -1.442,-3.094c-0.574,-0.75 -1.394,-1.35 -2.46,-1.801c-1.067,-0.452 -2.25,-0.677 -3.551,-0.677c-1.559,0 -2.906,0.237 -4.043,0.712c-1.137,0.474 -2.054,1.098 -2.751,1.872c-0.697,0.773 -1.239,1.623 -1.626,2.549c-0.656,1.593 -0.985,3.322 -0.985,5.185c0,2.297 0.396,4.219 1.187,5.766c0.791,1.547 1.942,2.695 3.454,3.445c1.512,0.75 3.117,1.125 4.817,1.125c1.476,0 2.917,-0.284 4.324,-0.852c1.406,-0.569 2.472,-1.175 3.199,-1.82l0,-4.799l-7.576,0Z" style="fill:black;fill-rule:nonzero;stroke-width:1px;stroke:black;"/>
                        </g>
                        <g transform="matrix(1,0,0,1,1098.88,18.83)">
                            <path d="M7611.76,3968.79l0,-25.77l3.41,0l0,22.729l12.691,0l0,3.041l-16.101,0Z" style="fill:black;fill-rule:nonzero;stroke-width:1px;stroke:black;"/>
                        </g>
                        <g transform="matrix(1,0,0,1,1598.88,18.83)">
                            <path d="M7631.43,3966.03c1.583,1.09 3.041,1.887 4.377,2.391l-1.002,2.373c-1.851,-0.668 -3.697,-1.723 -5.537,-3.164c-1.91,1.066 -4.019,1.599 -6.328,1.599c-2.332,0 -4.447,-0.562 -6.345,-1.687c-1.899,-1.125 -3.361,-2.707 -4.386,-4.746c-1.026,-2.039 -1.538,-4.336 -1.538,-6.891c0,-2.543 0.515,-4.857 1.547,-6.943c1.031,-2.086 2.499,-3.674 4.403,-4.764c1.904,-1.09 4.034,-1.635 6.39,-1.635c2.378,0 4.523,0.566 6.433,1.697c1.91,1.131 3.366,2.713 4.368,4.746c1.002,2.033 1.503,4.327 1.503,6.882c0,2.121 -0.322,4.028 -0.967,5.721c-0.644,1.694 -1.617,3.167 -2.918,4.421ZM7623.93,3961.67c1.968,0.551 3.591,1.371 4.869,2.461c2.004,-1.828 3.006,-4.576 3.006,-8.244c0,-2.086 -0.355,-3.909 -1.064,-5.467c-0.709,-1.559 -1.746,-2.769 -3.111,-3.63c-1.365,-0.861 -2.898,-1.292 -4.597,-1.292c-2.543,0 -4.652,0.87 -6.328,2.61c-1.676,1.74 -2.514,4.339 -2.514,7.796c0,3.352 0.829,5.924 2.488,7.717c1.658,1.793 3.776,2.689 6.354,2.689c1.219,0 2.367,-0.228 3.445,-0.685c-1.066,-0.692 -2.191,-1.184 -3.375,-1.477l0.827,-2.478Z" style="fill:black;fill-rule:nonzero;stroke-width:1px;stroke:black;"/>
                        </g>
                        <g transform="matrix(1,0,0,1,2098.88,18.83)">
                            <path d="M7619.27,3968.79l-9.984,-25.77l3.691,0l6.698,18.721c0.539,1.5 0.99,2.906 1.353,4.219c0.399,-1.406 0.862,-2.813 1.389,-4.219l6.961,-18.721l3.48,0l-10.09,25.77l-3.498,0Z" style="fill:black;fill-rule:nonzero;stroke-width:1px;stroke:black;"/>
                        </g>
                        <g transform="matrix(1,0,0,1,198.884,18.83)">
                            <path d="M7630.29,3959.76l3.41,0.861c-0.715,2.801 -2.001,4.937 -3.858,6.407c-1.858,1.471 -4.128,2.206 -6.812,2.206c-2.777,0 -5.036,-0.565 -6.776,-1.696c-1.74,-1.131 -3.065,-2.768 -3.973,-4.913c-0.908,-2.145 -1.362,-4.447 -1.362,-6.908c0,-2.684 0.513,-5.025 1.538,-7.023c1.025,-1.998 2.484,-3.515 4.377,-4.552c1.892,-1.038 3.975,-1.556 6.249,-1.556c2.578,0 4.746,0.656 6.504,1.969c1.758,1.312 2.982,3.158 3.674,5.537l-3.358,0.791c-0.597,-1.875 -1.465,-3.24 -2.601,-4.096c-1.137,-0.855 -2.567,-1.283 -4.289,-1.283c-1.981,0 -3.636,0.475 -4.966,1.424c-1.33,0.949 -2.265,2.223 -2.804,3.823c-0.539,1.6 -0.809,3.249 -0.809,4.948c0,2.192 0.32,4.105 0.958,5.739c0.639,1.635 1.632,2.857 2.98,3.666c1.348,0.808 2.807,1.212 4.377,1.212c1.91,0 3.527,-0.55 4.851,-1.652c1.325,-1.102 2.221,-2.736 2.69,-4.904Z" style="fill:black;fill-rule:nonzero;stroke-width:1px;stroke:black;"/>
                        </g>
                        <g transform="matrix(1,0,0,1,698.884,18.83)">
                            <path d="M7612.01,3968.79l0,-25.77l3.41,0l0,10.582l13.394,0l0,-10.582l3.41,0l0,25.77l-3.41,0l0,-12.147l-13.394,0l0,12.147l-3.41,0Z" style="fill:black;fill-rule:nonzero;stroke-width:1px;stroke:black;"/>
                        </g>
                        <g transform="matrix(1,0,0,1,1198.88,18.83)">
                            <path d="M7611.8,3968.79l0,-25.77l5.133,0l6.099,18.246c0.563,1.7 0.973,2.971 1.231,3.815c0.293,-0.938 0.75,-2.315 1.371,-4.131l6.17,-17.93l4.588,0l0,25.77l-3.288,0l0,-21.568l-7.488,21.568l-3.076,0l-7.453,-21.938l0,21.938l-3.287,0Z" style="fill:black;fill-rule:nonzero;stroke-width:1px;stroke:black;"/>
                        </g>
                        <g transform="matrix(1,0,0,1,1698.88,18.83)">
                            <path d="M7611.96,3968.79l0,-25.77l11.426,0c2.297,0 4.043,0.232 5.238,0.695c1.195,0.463 2.15,1.28 2.865,2.452c0.715,1.172 1.072,2.467 1.072,3.885c0,1.828 -0.591,3.369 -1.775,4.623c-1.184,1.254 -3.012,2.05 -5.484,2.39c0.902,0.434 1.588,0.862 2.056,1.284c0.996,0.914 1.94,2.056 2.83,3.427l4.483,7.014l-4.289,0l-3.41,-5.361c-0.996,-1.547 -1.817,-2.731 -2.461,-3.551c-0.645,-0.821 -1.222,-1.395 -1.732,-1.723c-0.51,-0.328 -1.028,-0.556 -1.555,-0.685c-0.387,-0.082 -1.02,-0.123 -1.899,-0.123l-3.955,0l0,11.443l-3.41,0ZM7615.37,3954.39l7.33,0c1.559,0 2.777,-0.161 3.656,-0.483c0.879,-0.322 1.547,-0.838 2.004,-1.547c0.457,-0.709 0.686,-1.479 0.686,-2.311c0,-1.219 -0.443,-2.221 -1.327,-3.006c-0.885,-0.785 -2.283,-1.178 -4.193,-1.178l-8.156,0l0,8.525Z" style="fill:black;fill-rule:nonzero;stroke-width:1px;stroke:black;"/>
                        </g>
                        <g transform="matrix(1,0,0,1,298.884,18.83)">
                            <path d="M7611.9,3968.79l0,-25.77l8.877,0c2.004,0 3.533,0.123 4.588,0.37c1.477,0.339 2.736,0.955 3.779,1.845c1.36,1.149 2.376,2.616 3.05,4.404c0.674,1.787 1.011,3.829 1.011,6.126c0,1.957 -0.229,3.691 -0.686,5.203c-0.457,1.511 -1.043,2.762 -1.757,3.753c-0.715,0.99 -1.498,1.769 -2.347,2.337c-0.85,0.569 -1.875,0.999 -3.076,1.292c-1.202,0.293 -2.581,0.44 -4.14,0.44l-9.299,0ZM7615.31,3965.75l5.502,0c1.7,0 3.033,-0.158 3.999,-0.475c0.967,-0.316 1.738,-0.761 2.312,-1.336c0.808,-0.808 1.438,-1.895 1.889,-3.26c0.452,-1.366 0.677,-3.021 0.677,-4.966c0,-2.696 -0.442,-4.767 -1.327,-6.214c-0.885,-1.447 -1.96,-2.417 -3.225,-2.909c-0.915,-0.352 -2.385,-0.528 -4.413,-0.528l-5.414,0l0,19.688Z" style="fill:black;fill-rule:nonzero;stroke-width:1px;stroke:black;"/>
                        </g>
                        <g transform="matrix(1,0,0,1,805.889,18.83)">
                            <rect x="7612.48" y="3943.02" width="3.41" height="25.77" style="fill:black;fill-rule:nonzero;stroke-width:1px;stroke:black;"/>
                        </g>
                        <g transform="matrix(1,0,0,1,1298.88,18.83)">
                            <path d="M7611.87,3968.79l0,-25.77l3.498,0l13.535,20.233l0,-20.233l3.27,0l0,25.77l-3.498,0l-13.535,-20.25l0,20.25l-3.27,0Z" style="fill:black;fill-rule:nonzero;stroke-width:1px;stroke:black;"/>
                        </g>
                        <g transform="matrix(1,0,0,1,1798.88,18.83)">
                            <path d="M7610.74,3960.51l3.217,-0.282c0.152,1.289 0.507,2.347 1.063,3.173c0.557,0.826 1.421,1.494 2.593,2.004c1.172,0.51 2.49,0.765 3.955,0.765c1.301,0 2.449,-0.194 3.445,-0.58c0.997,-0.387 1.738,-0.917 2.224,-1.591c0.486,-0.674 0.73,-1.409 0.73,-2.206c0,-0.809 -0.235,-1.515 -0.704,-2.118c-0.468,-0.604 -1.242,-1.111 -2.32,-1.521c-0.691,-0.269 -2.221,-0.688 -4.588,-1.257c-2.367,-0.568 -4.025,-1.104 -4.974,-1.608c-1.231,-0.645 -2.148,-1.444 -2.751,-2.399c-0.604,-0.956 -0.906,-2.025 -0.906,-3.209c0,-1.3 0.37,-2.516 1.108,-3.647c0.738,-1.131 1.816,-1.989 3.234,-2.575c1.418,-0.586 2.994,-0.879 4.729,-0.879c1.91,0 3.594,0.308 5.053,0.923c1.459,0.615 2.581,1.52 3.367,2.716c0.785,1.195 1.207,2.548 1.265,4.06l-3.269,0.246c-0.176,-1.629 -0.771,-2.859 -1.784,-3.691c-1.014,-0.832 -2.511,-1.248 -4.492,-1.248c-2.062,0 -3.565,0.378 -4.508,1.134c-0.944,0.755 -1.415,1.667 -1.415,2.733c0,0.926 0.333,1.687 1.001,2.285c0.657,0.598 2.371,1.21 5.142,1.837c2.772,0.627 4.673,1.175 5.704,1.644c1.5,0.691 2.608,1.567 3.322,2.628c0.715,1.06 1.073,2.282 1.073,3.665c0,1.371 -0.393,2.663 -1.178,3.876c-0.785,1.212 -1.913,2.156 -3.384,2.83c-1.471,0.673 -3.126,1.01 -4.966,1.01c-2.332,0 -4.286,-0.339 -5.862,-1.019c-1.576,-0.68 -2.812,-1.702 -3.709,-3.068c-0.896,-1.365 -1.368,-2.909 -1.415,-4.631Z" style="fill:black;fill-rule:nonzero;stroke-width:1px;stroke:black;"/>
                        </g>
                        <g transform="matrix(1,0,0,1,398.884,18.83)">
                            <path d="M7611.97,3968.79l0,-25.77l18.633,0l0,3.041l-15.222,0l0,7.893l14.256,0l0,3.023l-14.256,0l0,8.772l15.82,0l0,3.041l-19.231,0Z" style="fill:black;fill-rule:nonzero;stroke-width:1px;stroke:black;"/>
                        </g>
                        <g transform="matrix(1,0,0,1,898.884,18.83)">
                            <path d="M7610.16,3961.48l3.076,-0.421c0.082,1.968 0.451,3.316 1.108,4.043c0.656,0.726 1.564,1.089 2.724,1.089c0.856,0 1.594,-0.196 2.215,-0.589c0.621,-0.392 1.049,-0.925 1.283,-1.599c0.235,-0.674 0.352,-1.749 0.352,-3.226l0,-17.754l3.41,0l0,17.561c0,2.156 -0.261,3.826 -0.782,5.01c-0.522,1.183 -1.348,2.086 -2.479,2.707c-1.131,0.621 -2.458,0.931 -3.981,0.931c-2.262,0 -3.993,-0.65 -5.195,-1.951c-1.201,-1.301 -1.778,-3.234 -1.731,-5.801Z" style="fill:black;fill-rule:nonzero;stroke-width:1px;stroke:black;"/>
                        </g>
                        <g transform="matrix(1,0,0,1,1398.88,18.83)">
                            <path d="M7610.87,3956.24c0,-4.277 1.149,-7.626 3.445,-10.046c2.297,-2.42 5.262,-3.63 8.895,-3.63c2.379,0 4.523,0.569 6.434,1.705c1.91,1.137 3.366,2.722 4.368,4.755c1.002,2.034 1.503,4.339 1.503,6.917c0,2.614 -0.528,4.951 -1.582,7.014c-1.055,2.062 -2.549,3.624 -4.483,4.685c-1.933,1.06 -4.019,1.59 -6.258,1.59c-2.425,0 -4.593,-0.586 -6.504,-1.757c-1.91,-1.172 -3.357,-2.772 -4.341,-4.799c-0.985,-2.028 -1.477,-4.172 -1.477,-6.434ZM7614.38,3956.29c0,3.105 0.835,5.552 2.505,7.339c1.67,1.787 3.764,2.68 6.284,2.68c2.566,0 4.678,-0.902 6.337,-2.707c1.658,-1.804 2.487,-4.365 2.487,-7.681c0,-2.098 -0.355,-3.929 -1.063,-5.493c-0.709,-1.565 -1.747,-2.778 -3.112,-3.639c-1.365,-0.861 -2.897,-1.292 -4.597,-1.292c-2.414,0 -4.491,0.829 -6.231,2.487c-1.74,1.658 -2.61,4.427 -2.61,8.306Z" style="fill:black;fill-rule:nonzero;stroke-width:1px;stroke:black;"/>
                        </g>
                        <g transform="matrix(1,0,0,1,1898.88,18.83)">
                            <path d="M7618.46,3968.79l0,-22.729l-8.49,0l0,-3.041l20.425,0l0,3.041l-8.525,0l0,22.729l-3.41,0Z" style="fill:black;fill-rule:nonzero;stroke-width:1px;stroke:black;"/>
                        </g>
                    </g>
                    <g id="top numbers" transform="matrix(1,0,0,1,20714.3,863.029)">
                        <g transform="matrix(1,0,0,1,-1.11608,18.83)">
                            <path d="M7616.58,3968.79l-1.758,0l0,-11.201c-0.423,0.403 -0.978,0.807 -1.665,1.211c-0.687,0.403 -1.304,0.706 -1.85,0.908l0,-1.699c0.983,-0.463 1.842,-1.022 2.578,-1.68c0.735,-0.658 1.256,-1.296 1.562,-1.914l1.133,0l0,14.375Z" style="fill:black;fill-rule:nonzero;stroke-width:1px;stroke:black;"/>
                        </g>
                        <g transform="matrix(1,0,0,1,-99.4462,18.83)">
                            <path d="M7609.96,3961.73c0,-1.692 0.174,-3.055 0.522,-4.087c0.349,-1.031 0.866,-1.827 1.553,-2.387c0.687,-0.56 1.551,-0.84 2.593,-0.84c0.768,0 1.442,0.155 2.021,0.464c0.58,0.309 1.058,0.755 1.436,1.338c0.378,0.582 0.674,1.292 0.889,2.129c0.214,0.836 0.322,1.964 0.322,3.383c0,1.68 -0.173,3.036 -0.518,4.068c-0.345,1.032 -0.861,1.829 -1.548,2.392c-0.686,0.563 -1.554,0.845 -2.602,0.845c-1.38,0 -2.464,-0.495 -3.252,-1.484c-0.944,-1.192 -1.416,-3.132 -1.416,-5.821ZM7611.76,3961.73c0,2.351 0.275,3.915 0.825,4.693c0.55,0.778 1.229,1.167 2.036,1.167c0.807,0 1.486,-0.391 2.036,-1.172c0.55,-0.781 0.825,-2.344 0.825,-4.688c0,-2.356 -0.275,-3.922 -0.825,-4.697c-0.55,-0.775 -1.235,-1.162 -2.056,-1.162c-0.807,0 -1.451,0.342 -1.933,1.025c-0.606,0.873 -0.908,2.484 -0.908,4.834Z" style="fill:black;fill-rule:nonzero;stroke-width:1px;stroke:black;"/>
                        </g>
                        <g transform="matrix(1,0,0,1,498.884,18.83)">
                            <path d="M7619.08,3957.98l-1.748,0.137c-0.156,-0.69 -0.378,-1.191 -0.664,-1.504c-0.475,-0.501 -1.061,-0.752 -1.758,-0.752c-0.56,0 -1.051,0.156 -1.475,0.469c-0.553,0.404 -0.989,0.993 -1.308,1.768c-0.319,0.774 -0.485,1.878 -0.498,3.31c0.423,-0.644 0.941,-1.123 1.553,-1.435c0.612,-0.313 1.253,-0.469 1.923,-0.469c1.172,0 2.17,0.431 2.994,1.294c0.823,0.862 1.235,1.977 1.235,3.344c0,0.899 -0.194,1.734 -0.581,2.505c-0.388,0.772 -0.92,1.363 -1.597,1.773c-0.677,0.41 -1.445,0.615 -2.305,0.615c-1.464,0 -2.659,-0.539 -3.583,-1.616c-0.925,-1.078 -1.387,-2.853 -1.387,-5.327c0,-2.767 0.511,-4.779 1.533,-6.035c0.892,-1.094 2.093,-1.641 3.604,-1.641c1.126,0 2.049,0.316 2.768,0.947c0.719,0.632 1.151,1.504 1.294,2.617ZM7611.9,3964.15c0,0.606 0.129,1.185 0.386,1.739c0.257,0.553 0.617,0.974 1.079,1.264c0.462,0.29 0.947,0.435 1.455,0.435c0.742,0 1.38,-0.3 1.914,-0.899c0.534,-0.599 0.801,-1.412 0.801,-2.441c0,-0.99 -0.264,-1.769 -0.791,-2.339c-0.527,-0.57 -1.191,-0.854 -1.992,-0.854c-0.794,0 -1.468,0.284 -2.022,0.854c-0.553,0.57 -0.83,1.317 -0.83,2.241Z" style="fill:black;fill-rule:nonzero;stroke-width:1px;stroke:black;"/>
                        </g>
                        <g transform="matrix(1,0,0,1,994.231,18.83)">
                            <path d="M7616.58,3968.79l-1.758,0l0,-11.201c-0.423,0.403 -0.978,0.807 -1.665,1.211c-0.687,0.403 -1.304,0.706 -1.85,0.908l0,-1.699c0.983,-0.463 1.842,-1.022 2.578,-1.68c0.735,-0.658 1.256,-1.296 1.562,-1.914l1.133,0l0,14.375Z" style="fill:black;fill-rule:nonzero;stroke-width:1px;stroke:black;"/>
                            <path d="M7626.22,3968.79l-1.758,0l0,-11.201c-0.423,0.403 -0.978,0.807 -1.665,1.211c-0.687,0.403 -1.304,0.706 -1.851,0.908l0,-1.699c0.983,-0.463 1.843,-1.022 2.578,-1.68c0.736,-0.658 1.257,-1.296 1.563,-1.914l1.133,0l0,14.375Z" style="fill:black;fill-rule:nonzero;stroke-width:1px;stroke:black;"/>
                        </g>
                        <g transform="matrix(1,0,0,1,1494.99,18.83)">
                            <path d="M7616.58,3968.79l-1.758,0l0,-11.201c-0.423,0.403 -0.978,0.807 -1.665,1.211c-0.687,0.403 -1.304,0.706 -1.85,0.908l0,-1.699c0.983,-0.463 1.842,-1.022 2.578,-1.68c0.735,-0.658 1.256,-1.296 1.562,-1.914l1.133,0l0,14.375Z" style="fill:black;fill-rule:nonzero;stroke-width:1px;stroke:black;"/>
                            <path d="M7630.2,3957.98l-1.748,0.137c-0.156,-0.69 -0.378,-1.191 -0.664,-1.504c-0.475,-0.501 -1.061,-0.752 -1.758,-0.752c-0.56,0 -1.051,0.156 -1.474,0.469c-0.554,0.404 -0.99,0.993 -1.309,1.768c-0.319,0.774 -0.485,1.878 -0.498,3.31c0.423,-0.644 0.941,-1.123 1.553,-1.435c0.612,-0.313 1.253,-0.469 1.923,-0.469c1.172,0 2.17,0.431 2.994,1.294c0.823,0.862 1.235,1.977 1.235,3.344c0,0.899 -0.194,1.734 -0.581,2.505c-0.387,0.772 -0.92,1.363 -1.597,1.773c-0.677,0.41 -1.445,0.615 -2.304,0.615c-1.465,0 -2.66,-0.539 -3.584,-1.616c-0.925,-1.078 -1.387,-2.853 -1.387,-5.327c0,-2.767 0.511,-4.779 1.533,-6.035c0.892,-1.094 2.093,-1.641 3.604,-1.641c1.126,0 2.049,0.316 2.768,0.947c0.72,0.632 1.151,1.504 1.294,2.617ZM7623.02,3964.15c0,0.606 0.129,1.185 0.386,1.739c0.257,0.553 0.617,0.974 1.079,1.264c0.462,0.29 0.947,0.435 1.455,0.435c0.742,0 1.38,-0.3 1.914,-0.899c0.534,-0.599 0.801,-1.412 0.801,-2.441c0,-0.99 -0.264,-1.769 -0.791,-2.339c-0.527,-0.57 -1.191,-0.854 -1.992,-0.854c-0.794,0 -1.468,0.284 -2.022,0.854c-0.553,0.57 -0.83,1.317 -0.83,2.241Z" style="fill:black;fill-rule:nonzero;stroke-width:1px;stroke:black;"/>
                        </g>
                        <g transform="matrix(1,0,0,1,1994.99,18.83)">
                            <path d="M7619.19,3967.1l0,1.69l-9.463,0c-0.013,-0.423 0.056,-0.83 0.205,-1.221c0.241,-0.644 0.627,-1.279 1.158,-1.904c0.53,-0.625 1.297,-1.348 2.299,-2.168c1.556,-1.276 2.608,-2.287 3.155,-3.032c0.547,-0.746 0.82,-1.45 0.82,-2.115c0,-0.696 -0.249,-1.284 -0.747,-1.762c-0.498,-0.479 -1.148,-0.718 -1.948,-0.718c-0.847,0 -1.524,0.254 -2.032,0.762c-0.507,0.508 -0.765,1.211 -0.771,2.109l-1.807,-0.185c0.124,-1.348 0.59,-2.375 1.397,-3.082c0.807,-0.706 1.891,-1.059 3.252,-1.059c1.373,0 2.461,0.381 3.261,1.142c0.801,0.762 1.202,1.706 1.202,2.833c0,0.572 -0.118,1.136 -0.352,1.689c-0.234,0.553 -0.623,1.136 -1.167,1.748c-0.544,0.612 -1.447,1.452 -2.71,2.52c-1.055,0.885 -1.732,1.486 -2.031,1.801c-0.3,0.316 -0.547,0.633 -0.742,0.952l7.021,0Z" style="fill:black;fill-rule:nonzero;stroke-width:1px;stroke:black;"/>
                        </g>
                        <g transform="matrix(1,0,0,1,98.8839,18.83)">
                            <path d="M7619.19,3967.1l0,1.69l-9.463,0c-0.013,-0.423 0.056,-0.83 0.205,-1.221c0.241,-0.644 0.627,-1.279 1.158,-1.904c0.53,-0.625 1.297,-1.348 2.299,-2.168c1.556,-1.276 2.608,-2.287 3.155,-3.032c0.547,-0.746 0.82,-1.45 0.82,-2.115c0,-0.696 -0.249,-1.284 -0.747,-1.762c-0.498,-0.479 -1.148,-0.718 -1.948,-0.718c-0.847,0 -1.524,0.254 -2.032,0.762c-0.507,0.508 -0.765,1.211 -0.771,2.109l-1.807,-0.185c0.124,-1.348 0.59,-2.375 1.397,-3.082c0.807,-0.706 1.891,-1.059 3.252,-1.059c1.373,0 2.461,0.381 3.261,1.142c0.801,0.762 1.202,1.706 1.202,2.833c0,0.572 -0.118,1.136 -0.352,1.689c-0.234,0.553 -0.623,1.136 -1.167,1.748c-0.544,0.612 -1.447,1.452 -2.71,2.52c-1.055,0.885 -1.732,1.486 -2.031,1.801c-0.3,0.316 -0.547,0.633 -0.742,0.952l7.021,0Z" style="fill:black;fill-rule:nonzero;stroke-width:1px;stroke:black;"/>
                        </g>
                        <g transform="matrix(1,0,0,1,599.431,18.83)">
                            <path d="M7610.07,3956.35l0,-1.69l9.268,0l0,1.367c-0.912,0.97 -1.815,2.259 -2.71,3.867c-0.895,1.609 -1.587,3.262 -2.075,4.961c-0.352,1.198 -0.577,2.51 -0.674,3.936l-1.807,0c0.02,-1.126 0.241,-2.487 0.664,-4.082c0.423,-1.595 1.03,-3.133 1.821,-4.614c0.791,-1.481 1.633,-2.73 2.525,-3.745l-7.012,0Z" style="fill:black;fill-rule:nonzero;stroke-width:1px;stroke:black;"/>
                        </g>
                        <g transform="matrix(1,0,0,1,1094.99,18.83)">
                            <path d="M7616.58,3968.79l-1.758,0l0,-11.201c-0.423,0.403 -0.978,0.807 -1.665,1.211c-0.687,0.403 -1.304,0.706 -1.85,0.908l0,-1.699c0.983,-0.463 1.842,-1.022 2.578,-1.68c0.735,-0.658 1.256,-1.296 1.562,-1.914l1.133,0l0,14.375Z" style="fill:black;fill-rule:nonzero;stroke-width:1px;stroke:black;"/>
                            <path d="M7630.32,3967.1l0,1.69l-9.463,0c-0.013,-0.423 0.056,-0.83 0.205,-1.221c0.241,-0.644 0.627,-1.279 1.158,-1.904c0.53,-0.625 1.297,-1.348 2.299,-2.168c1.556,-1.276 2.608,-2.287 3.155,-3.032c0.547,-0.746 0.82,-1.45 0.82,-2.115c0,-0.696 -0.249,-1.284 -0.747,-1.762c-0.498,-0.479 -1.147,-0.718 -1.948,-0.718c-0.847,0 -1.524,0.254 -2.031,0.762c-0.508,0.508 -0.765,1.211 -0.772,2.109l-1.807,-0.185c0.124,-1.348 0.59,-2.375 1.397,-3.082c0.807,-0.706 1.891,-1.059 3.252,-1.059c1.374,0 2.461,0.381 3.262,1.142c0.8,0.762 1.201,1.706 1.201,2.833c0,0.572 -0.117,1.136 -0.352,1.689c-0.234,0.553 -0.623,1.136 -1.167,1.748c-0.543,0.612 -1.447,1.452 -2.71,2.52c-1.054,0.885 -1.732,1.486 -2.031,1.801c-0.3,0.316 -0.547,0.633 -0.742,0.952l7.021,0Z" style="fill:black;fill-rule:nonzero;stroke-width:1px;stroke:black;"/>
                        </g>
                        <g transform="matrix(1,0,0,1,1593.87,18.83)">
                            <path d="M7616.58,3968.79l-1.758,0l0,-11.201c-0.423,0.403 -0.978,0.807 -1.665,1.211c-0.687,0.403 -1.304,0.706 -1.85,0.908l0,-1.699c0.983,-0.463 1.842,-1.022 2.578,-1.68c0.735,-0.658 1.256,-1.296 1.562,-1.914l1.133,0l0,14.375Z" style="fill:black;fill-rule:nonzero;stroke-width:1px;stroke:black;"/>
                            <path d="M7621.2,3956.35l0,-1.69l9.268,0l0,1.367c-0.912,0.97 -1.815,2.259 -2.71,3.867c-0.895,1.609 -1.587,3.262 -2.075,4.961c-0.352,1.198 -0.577,2.51 -0.674,3.936l-1.807,0c0.02,-1.126 0.241,-2.487 0.664,-4.082c0.423,-1.595 1.03,-3.133 1.821,-4.614c0.791,-1.481 1.633,-2.73 2.525,-3.745l-7.012,0Z" style="fill:black;fill-rule:nonzero;stroke-width:1px;stroke:black;"/>
                        </g>
                        <g transform="matrix(1,0,0,1,198.884,18.83)">
                            <path d="M7609.97,3965.01l1.757,-0.235c0.202,0.996 0.546,1.714 1.031,2.154c0.485,0.439 1.076,0.659 1.772,0.659c0.827,0 1.525,-0.287 2.095,-0.86c0.57,-0.573 0.854,-1.282 0.854,-2.129c0,-0.807 -0.263,-1.473 -0.791,-1.997c-0.527,-0.524 -1.197,-0.786 -2.011,-0.786c-0.332,0 -0.746,0.065 -1.241,0.196l0.196,-1.543c0.117,0.013 0.211,0.019 0.283,0.019c0.749,0 1.423,-0.195 2.021,-0.586c0.599,-0.39 0.899,-0.993 0.899,-1.806c0,-0.645 -0.218,-1.179 -0.654,-1.602c-0.437,-0.423 -1,-0.635 -1.69,-0.635c-0.683,0 -1.253,0.215 -1.709,0.645c-0.456,0.429 -0.749,1.074 -0.879,1.933l-1.758,-0.312c0.215,-1.179 0.704,-2.092 1.465,-2.739c0.762,-0.648 1.709,-0.972 2.842,-0.972c0.781,0 1.501,0.168 2.158,0.503c0.658,0.335 1.161,0.792 1.509,1.372c0.348,0.579 0.523,1.195 0.523,1.846c0,0.618 -0.166,1.181 -0.498,1.689c-0.333,0.508 -0.824,0.912 -1.475,1.211c0.846,0.195 1.504,0.601 1.973,1.216c0.468,0.615 0.703,1.385 0.703,2.309c0,1.25 -0.456,2.31 -1.368,3.179c-0.911,0.869 -2.063,1.304 -3.457,1.304c-1.256,0 -2.299,-0.375 -3.129,-1.123c-0.83,-0.749 -1.304,-1.719 -1.421,-2.91Z" style="fill:black;fill-rule:nonzero;stroke-width:1px;stroke:black;"/>
                        </g>
                        <g transform="matrix(1,0,0,1,699.431,18.83)">
                            <path d="M7612.66,3961.03c-0.729,-0.267 -1.27,-0.648 -1.621,-1.142c-0.352,-0.495 -0.527,-1.088 -0.527,-1.778c0,-1.041 0.374,-1.917 1.123,-2.627c0.748,-0.709 1.744,-1.064 2.988,-1.064c1.25,0 2.256,0.363 3.017,1.089c0.762,0.726 1.143,1.609 1.143,2.651c0,0.664 -0.174,1.242 -0.522,1.734c-0.349,0.491 -0.878,0.87 -1.587,1.137c0.879,0.287 1.548,0.749 2.007,1.387c0.458,0.638 0.688,1.4 0.688,2.285c0,1.224 -0.433,2.253 -1.299,3.086c-0.866,0.833 -2.005,1.25 -3.418,1.25c-1.413,0 -2.552,-0.418 -3.418,-1.255c-0.866,-0.836 -1.299,-1.88 -1.299,-3.13c0,-0.931 0.236,-1.71 0.708,-2.339c0.472,-0.628 1.145,-1.056 2.017,-1.284ZM7612.31,3958.05c0,0.677 0.219,1.23 0.655,1.66c0.436,0.43 1.002,0.644 1.699,0.644c0.677,0 1.232,-0.213 1.665,-0.639c0.433,-0.427 0.649,-0.949 0.649,-1.568c0,-0.644 -0.223,-1.186 -0.669,-1.626c-0.446,-0.439 -1.001,-0.659 -1.665,-0.659c-0.67,0 -1.227,0.215 -1.67,0.645c-0.442,0.429 -0.664,0.944 -0.664,1.543ZM7611.74,3964.66c0,0.501 0.119,0.986 0.356,1.455c0.238,0.469 0.591,0.832 1.06,1.089c0.469,0.257 0.973,0.386 1.514,0.386c0.84,0 1.533,-0.27 2.08,-0.811c0.547,-0.54 0.82,-1.227 0.82,-2.06c0,-0.847 -0.281,-1.547 -0.845,-2.1c-0.563,-0.553 -1.268,-0.83 -2.114,-0.83c-0.827,0 -1.512,0.273 -2.056,0.82c-0.543,0.547 -0.815,1.231 -0.815,2.051Z" style="fill:black;fill-rule:nonzero;stroke-width:1px;stroke:black;"/>
                        </g>
                        <g transform="matrix(1,0,0,1,1194.99,18.83)">
                            <path d="M7616.58,3968.79l-1.758,0l0,-11.201c-0.423,0.403 -0.978,0.807 -1.665,1.211c-0.687,0.403 -1.304,0.706 -1.85,0.908l0,-1.699c0.983,-0.463 1.842,-1.022 2.578,-1.68c0.735,-0.658 1.256,-1.296 1.562,-1.914l1.133,0l0,14.375Z" style="fill:black;fill-rule:nonzero;stroke-width:1px;stroke:black;"/>
                            <path d="M7621.09,3965.01l1.758,-0.235c0.201,0.996 0.545,1.714 1.03,2.154c0.485,0.439 1.076,0.659 1.772,0.659c0.827,0 1.525,-0.287 2.095,-0.86c0.57,-0.573 0.854,-1.282 0.854,-2.129c0,-0.807 -0.263,-1.473 -0.791,-1.997c-0.527,-0.524 -1.197,-0.786 -2.011,-0.786c-0.332,0 -0.746,0.065 -1.24,0.196l0.195,-1.543c0.117,0.013 0.211,0.019 0.283,0.019c0.749,0 1.423,-0.195 2.022,-0.586c0.598,-0.39 0.898,-0.993 0.898,-1.806c0,-0.645 -0.218,-1.179 -0.654,-1.602c-0.437,-0.423 -1,-0.635 -1.69,-0.635c-0.683,0 -1.253,0.215 -1.709,0.645c-0.455,0.429 -0.748,1.074 -0.879,1.933l-1.757,-0.312c0.214,-1.179 0.703,-2.092 1.464,-2.739c0.762,-0.648 1.709,-0.972 2.842,-0.972c0.781,0 1.501,0.168 2.158,0.503c0.658,0.335 1.161,0.792 1.509,1.372c0.348,0.579 0.523,1.195 0.523,1.846c0,0.618 -0.166,1.181 -0.498,1.689c-0.332,0.508 -0.824,0.912 -1.475,1.211c0.846,0.195 1.504,0.601 1.973,1.216c0.468,0.615 0.703,1.385 0.703,2.309c0,1.25 -0.456,2.31 -1.367,3.179c-0.912,0.869 -2.064,1.304 -3.457,1.304c-1.257,0 -2.3,-0.375 -3.13,-1.123c-0.83,-0.749 -1.304,-1.719 -1.421,-2.91Z" style="fill:black;fill-rule:nonzero;stroke-width:1px;stroke:black;"/>
                        </g>
                        <g transform="matrix(1,0,0,1,1693.87,18.83)">
                            <path d="M7616.58,3968.79l-1.758,0l0,-11.201c-0.423,0.403 -0.978,0.807 -1.665,1.211c-0.687,0.403 -1.304,0.706 -1.85,0.908l0,-1.699c0.983,-0.463 1.842,-1.022 2.578,-1.68c0.735,-0.658 1.256,-1.296 1.562,-1.914l1.133,0l0,14.375Z" style="fill:black;fill-rule:nonzero;stroke-width:1px;stroke:black;"/>
                            <path d="M7623.78,3961.03c-0.729,-0.267 -1.269,-0.648 -1.621,-1.142c-0.352,-0.495 -0.527,-1.088 -0.527,-1.778c0,-1.041 0.374,-1.917 1.123,-2.627c0.748,-0.709 1.744,-1.064 2.988,-1.064c1.25,0 2.256,0.363 3.018,1.089c0.761,0.726 1.142,1.609 1.142,2.651c0,0.664 -0.174,1.242 -0.522,1.734c-0.349,0.491 -0.878,0.87 -1.587,1.137c0.879,0.287 1.548,0.749 2.007,1.387c0.459,0.638 0.688,1.4 0.688,2.285c0,1.224 -0.433,2.253 -1.299,3.086c-0.866,0.833 -2.005,1.25 -3.418,1.25c-1.413,0 -2.552,-0.418 -3.418,-1.255c-0.866,-0.836 -1.299,-1.88 -1.299,-3.13c0,-0.931 0.236,-1.71 0.708,-2.339c0.472,-0.628 1.145,-1.056 2.017,-1.284ZM7623.43,3958.05c0,0.677 0.219,1.23 0.655,1.66c0.436,0.43 1.002,0.644 1.699,0.644c0.677,0 1.232,-0.213 1.665,-0.639c0.433,-0.427 0.649,-0.949 0.649,-1.568c0,-0.644 -0.223,-1.186 -0.668,-1.626c-0.446,-0.439 -1.001,-0.659 -1.666,-0.659c-0.67,0 -1.227,0.215 -1.669,0.645c-0.443,0.429 -0.665,0.944 -0.665,1.543ZM7622.87,3964.66c0,0.501 0.119,0.986 0.357,1.455c0.237,0.469 0.59,0.832 1.059,1.089c0.469,0.257 0.973,0.386 1.514,0.386c0.84,0 1.533,-0.27 2.08,-0.811c0.547,-0.54 0.82,-1.227 0.82,-2.06c0,-0.847 -0.281,-1.547 -0.845,-2.1c-0.563,-0.553 -1.267,-0.83 -2.114,-0.83c-0.827,0 -1.512,0.273 -2.055,0.82c-0.544,0.547 -0.816,1.231 -0.816,2.051Z" style="fill:black;fill-rule:nonzero;stroke-width:1px;stroke:black;"/>
                        </g>
                        <g transform="matrix(1,0,0,1,298.884,18.83)">
                            <path d="M7615.59,3968.79l0,-3.428l-6.211,0l0,-1.611l6.533,-9.277l1.435,0l0,9.277l1.934,0l0,1.611l-1.934,0l0,3.428l-1.757,0ZM7615.59,3963.75l0,-6.455l-4.483,6.455l4.483,0Z" style="fill:black;fill-rule:nonzero;stroke-width:1px;stroke:black;"/>
                        </g>
                        <g transform="matrix(1,0,0,1,799.431,18.83)">
                            <path d="M7610.22,3965.48l1.689,-0.156c0.143,0.794 0.417,1.371 0.82,1.729c0.404,0.358 0.922,0.537 1.553,0.537c0.54,0 1.014,-0.124 1.421,-0.371c0.407,-0.248 0.741,-0.578 1.001,-0.992c0.26,-0.413 0.478,-0.971 0.654,-1.674c0.176,-0.703 0.264,-1.42 0.264,-2.149c0,-0.078 -0.003,-0.195 -0.01,-0.351c-0.351,0.56 -0.832,1.014 -1.44,1.362c-0.609,0.348 -1.268,0.522 -1.978,0.522c-1.185,0 -2.187,-0.429 -3.008,-1.289c-0.82,-0.859 -1.23,-1.992 -1.23,-3.398c0,-1.452 0.428,-2.621 1.284,-3.506c0.856,-0.885 1.929,-1.328 3.218,-1.328c0.931,0 1.782,0.251 2.554,0.752c0.771,0.501 1.357,1.216 1.757,2.143c0.401,0.928 0.601,2.271 0.601,4.029c0,1.829 -0.199,3.286 -0.596,4.37c-0.397,1.084 -0.988,1.909 -1.772,2.475c-0.785,0.567 -1.704,0.85 -2.759,0.85c-1.12,0 -2.034,-0.311 -2.744,-0.933c-0.71,-0.621 -1.136,-1.495 -1.279,-2.622ZM7617.42,3959.16c0,-1.009 -0.269,-1.81 -0.806,-2.402c-0.537,-0.593 -1.183,-0.889 -1.938,-0.889c-0.782,0 -1.462,0.319 -2.041,0.957c-0.58,0.638 -0.869,1.465 -0.869,2.48c0,0.912 0.275,1.653 0.825,2.222c0.55,0.57 1.229,0.855 2.036,0.855c0.814,0 1.483,-0.285 2.007,-0.855c0.524,-0.569 0.786,-1.359 0.786,-2.368Z" style="fill:black;fill-rule:nonzero;stroke-width:1px;stroke:black;"/>
                        </g>
                        <g transform="matrix(1,0,0,1,1294.99,18.83)">
                            <path d="M7616.58,3968.79l-1.758,0l0,-11.201c-0.423,0.403 -0.978,0.807 -1.665,1.211c-0.687,0.403 -1.304,0.706 -1.85,0.908l0,-1.699c0.983,-0.463 1.842,-1.022 2.578,-1.68c0.735,-0.658 1.256,-1.296 1.562,-1.914l1.133,0l0,14.375Z" style="fill:black;fill-rule:nonzero;stroke-width:1px;stroke:black;"/>
                            <path d="M7626.71,3968.79l0,-3.428l-6.211,0l0,-1.611l6.533,-9.277l1.436,0l0,9.277l1.933,0l0,1.611l-1.933,0l0,3.428l-1.758,0ZM7626.71,3963.75l0,-6.455l-4.483,6.455l4.483,0Z" style="fill:black;fill-rule:nonzero;stroke-width:1px;stroke:black;"/>
                        </g>
                        <g transform="matrix(1,0,0,1,1793.87,18.83)">
                            <path d="M7616.58,3968.79l-1.758,0l0,-11.201c-0.423,0.403 -0.978,0.807 -1.665,1.211c-0.687,0.403 -1.304,0.706 -1.85,0.908l0,-1.699c0.983,-0.463 1.842,-1.022 2.578,-1.68c0.735,-0.658 1.256,-1.296 1.562,-1.914l1.133,0l0,14.375Z" style="fill:black;fill-rule:nonzero;stroke-width:1px;stroke:black;"/>
                            <path d="M7621.34,3965.48l1.689,-0.156c0.143,0.794 0.417,1.371 0.82,1.729c0.404,0.358 0.922,0.537 1.553,0.537c0.541,0 1.014,-0.124 1.421,-0.371c0.407,-0.248 0.741,-0.578 1.001,-0.992c0.26,-0.413 0.479,-0.971 0.654,-1.674c0.176,-0.703 0.264,-1.42 0.264,-2.149c0,-0.078 -0.003,-0.195 -0.01,-0.351c-0.351,0.56 -0.831,1.014 -1.44,1.362c-0.609,0.348 -1.268,0.522 -1.978,0.522c-1.185,0 -2.187,-0.429 -3.008,-1.289c-0.82,-0.859 -1.23,-1.992 -1.23,-3.398c0,-1.452 0.428,-2.621 1.284,-3.506c0.856,-0.885 1.929,-1.328 3.218,-1.328c0.931,0 1.782,0.251 2.554,0.752c0.771,0.501 1.357,1.216 1.757,2.143c0.401,0.928 0.601,2.271 0.601,4.029c0,1.829 -0.199,3.286 -0.596,4.37c-0.397,1.084 -0.988,1.909 -1.772,2.475c-0.785,0.567 -1.704,0.85 -2.759,0.85c-1.12,0 -2.034,-0.311 -2.744,-0.933c-0.71,-0.621 -1.136,-1.495 -1.279,-2.622ZM7628.54,3959.16c0,-1.009 -0.269,-1.81 -0.806,-2.402c-0.537,-0.593 -1.183,-0.889 -1.938,-0.889c-0.781,0 -1.462,0.319 -2.041,0.957c-0.58,0.638 -0.869,1.465 -0.869,2.48c0,0.912 0.275,1.653 0.825,2.222c0.55,0.57 1.229,0.855 2.036,0.855c0.814,0 1.483,-0.285 2.007,-0.855c0.524,-0.569 0.786,-1.359 0.786,-2.368Z" style="fill:black;fill-rule:nonzero;stroke-width:1px;stroke:black;"/>
                        </g>
                        <g transform="matrix(1,0,0,1,398.884,18.83)">
                            <path d="M7609.96,3965.04l1.846,-0.156c0.136,0.898 0.454,1.574 0.952,2.026c0.498,0.453 1.098,0.679 1.802,0.679c0.846,0 1.562,-0.319 2.148,-0.957c0.586,-0.638 0.879,-1.485 0.879,-2.539c0,-1.003 -0.282,-1.794 -0.845,-2.373c-0.563,-0.58 -1.3,-0.87 -2.212,-0.87c-0.566,0 -1.077,0.129 -1.533,0.386c-0.456,0.257 -0.814,0.591 -1.074,1.001l-1.651,-0.215l1.387,-7.353l7.119,0l0,1.68l-5.713,0l-0.771,3.847c0.859,-0.599 1.761,-0.898 2.705,-0.898c1.25,0 2.305,0.433 3.164,1.299c0.859,0.865 1.289,1.979 1.289,3.339c0,1.296 -0.377,2.416 -1.133,3.36c-0.918,1.159 -2.171,1.738 -3.759,1.738c-1.303,0 -2.365,-0.365 -3.189,-1.094c-0.824,-0.729 -1.294,-1.696 -1.411,-2.9Z" style="fill:black;fill-rule:nonzero;stroke-width:1px;stroke:black;"/>
                        </g>
                        <g transform="matrix(1,0,0,1,894.992,18.83)">
                            <path d="M7616.58,3968.79l-1.758,0l0,-11.201c-0.423,0.403 -0.978,0.807 -1.665,1.211c-0.687,0.403 -1.304,0.706 -1.85,0.908l0,-1.699c0.983,-0.463 1.842,-1.022 2.578,-1.68c0.735,-0.658 1.256,-1.296 1.562,-1.914l1.133,0l0,14.375Z" style="fill:black;fill-rule:nonzero;stroke-width:1px;stroke:black;"/>
                            <path d="M7621.08,3961.73c0,-1.692 0.174,-3.055 0.522,-4.087c0.349,-1.031 0.866,-1.827 1.553,-2.387c0.687,-0.56 1.551,-0.84 2.593,-0.84c0.768,0 1.442,0.155 2.021,0.464c0.58,0.309 1.058,0.755 1.436,1.338c0.378,0.582 0.674,1.292 0.889,2.129c0.214,0.836 0.322,1.964 0.322,3.383c0,1.68 -0.173,3.036 -0.518,4.068c-0.345,1.032 -0.861,1.829 -1.548,2.392c-0.686,0.563 -1.554,0.845 -2.602,0.845c-1.38,0 -2.464,-0.495 -3.252,-1.484c-0.944,-1.192 -1.416,-3.132 -1.416,-5.821ZM7622.89,3961.73c0,2.351 0.275,3.915 0.825,4.693c0.55,0.778 1.229,1.167 2.036,1.167c0.807,0 1.486,-0.391 2.036,-1.172c0.55,-0.781 0.825,-2.344 0.825,-4.688c0,-2.356 -0.275,-3.922 -0.825,-4.697c-0.55,-0.775 -1.235,-1.162 -2.056,-1.162c-0.807,0 -1.451,0.342 -1.933,1.025c-0.606,0.873 -0.908,2.484 -0.908,4.834Z" style="fill:black;fill-rule:nonzero;stroke-width:1px;stroke:black;"/>
                        </g>
                        <g transform="matrix(1,0,0,1,1393.87,18.83)">
                            <path d="M7616.58,3968.79l-1.758,0l0,-11.201c-0.423,0.403 -0.978,0.807 -1.665,1.211c-0.687,0.403 -1.304,0.706 -1.85,0.908l0,-1.699c0.983,-0.463 1.842,-1.022 2.578,-1.68c0.735,-0.658 1.256,-1.296 1.562,-1.914l1.133,0l0,14.375Z" style="fill:black;fill-rule:nonzero;stroke-width:1px;stroke:black;"/>
                            <path d="M7621.08,3965.04l1.846,-0.156c0.136,0.898 0.454,1.574 0.952,2.026c0.498,0.453 1.098,0.679 1.802,0.679c0.846,0 1.562,-0.319 2.148,-0.957c0.586,-0.638 0.879,-1.485 0.879,-2.539c0,-1.003 -0.282,-1.794 -0.845,-2.373c-0.563,-0.58 -1.3,-0.87 -2.212,-0.87c-0.566,0 -1.077,0.129 -1.533,0.386c-0.456,0.257 -0.814,0.591 -1.074,1.001l-1.651,-0.215l1.387,-7.353l7.119,0l0,1.68l-5.713,0l-0.771,3.847c0.859,-0.599 1.761,-0.898 2.705,-0.898c1.25,0 2.305,0.433 3.164,1.299c0.859,0.865 1.289,1.979 1.289,3.339c0,1.296 -0.377,2.416 -1.133,3.36c-0.918,1.159 -2.171,1.738 -3.759,1.738c-1.303,0 -2.365,-0.365 -3.189,-1.094c-0.823,-0.729 -1.294,-1.696 -1.411,-2.9Z" style="fill:black;fill-rule:nonzero;stroke-width:1px;stroke:black;"/>
                        </g>
                        <g transform="matrix(1,0,0,1,1893.87,18.83)">
                            <path d="M7619.19,3967.1l0,1.69l-9.463,0c-0.013,-0.423 0.056,-0.83 0.205,-1.221c0.241,-0.644 0.627,-1.279 1.158,-1.904c0.53,-0.625 1.297,-1.348 2.299,-2.168c1.556,-1.276 2.608,-2.287 3.155,-3.032c0.547,-0.746 0.82,-1.45 0.82,-2.115c0,-0.696 -0.249,-1.284 -0.747,-1.762c-0.498,-0.479 -1.148,-0.718 -1.948,-0.718c-0.847,0 -1.524,0.254 -2.032,0.762c-0.507,0.508 -0.765,1.211 -0.771,2.109l-1.807,-0.185c0.124,-1.348 0.59,-2.375 1.397,-3.082c0.807,-0.706 1.891,-1.059 3.252,-1.059c1.373,0 2.461,0.381 3.261,1.142c0.801,0.762 1.202,1.706 1.202,2.833c0,0.572 -0.118,1.136 -0.352,1.689c-0.234,0.553 -0.623,1.136 -1.167,1.748c-0.544,0.612 -1.447,1.452 -2.71,2.52c-1.055,0.885 -1.732,1.486 -2.031,1.801c-0.3,0.316 -0.547,0.633 -0.742,0.952l7.021,0Z" style="fill:black;fill-rule:nonzero;stroke-width:1px;stroke:black;"/>
                            <path d="M7621.08,3961.73c0,-1.692 0.174,-3.055 0.522,-4.087c0.349,-1.031 0.866,-1.827 1.553,-2.387c0.687,-0.56 1.551,-0.84 2.593,-0.84c0.768,0 1.442,0.155 2.021,0.464c0.58,0.309 1.058,0.755 1.436,1.338c0.378,0.582 0.674,1.292 0.889,2.129c0.214,0.836 0.322,1.964 0.322,3.383c0,1.68 -0.173,3.036 -0.518,4.068c-0.345,1.032 -0.861,1.829 -1.548,2.392c-0.686,0.563 -1.554,0.845 -2.602,0.845c-1.38,0 -2.464,-0.495 -3.252,-1.484c-0.944,-1.192 -1.416,-3.132 -1.416,-5.821ZM7622.89,3961.73c0,2.351 0.275,3.915 0.825,4.693c0.55,0.778 1.229,1.167 2.036,1.167c0.807,0 1.486,-0.391 2.036,-1.172c0.55,-0.781 0.825,-2.344 0.825,-4.688c0,-2.356 -0.275,-3.922 -0.825,-4.697c-0.55,-0.775 -1.235,-1.162 -2.056,-1.162c-0.807,0 -1.451,0.342 -1.933,1.025c-0.606,0.873 -0.908,2.484 -0.908,4.834Z" style="fill:black;fill-rule:nonzero;stroke-width:1px;stroke:black;"/>
                        </g>
                    </g>
                    <g id="side labels" transform="matrix(1,0,0,1,20559.5,1056.35)">
                        <g transform="matrix(1.25,0,0,1,-1892.5,2.84217e-13)">
                            <rect x="7530" y="3998.54" width="40" height="100" style="fill:rgb(128,128,128);stroke-width:0.88px;stroke:black;"/>
                        </g>
                        <g transform="matrix(1.25,0,0,1,-1892.5,-100)">
                            <rect x="7530" y="3998.54" width="40" height="100" style="fill:rgb(128,128,128);stroke-width:0.88px;stroke:black;"/>
                        </g>
                        <g transform="matrix(1.25,0,0,1,-1892.5,400)">
                            <rect x="7530" y="3998.54" width="40" height="100" style="fill:rgb(128,128,128);stroke-width:0.88px;stroke:black;"/>
                        </g>
                        <g transform="matrix(1.25,0,0,1,-1892.5,800)">
                            <rect x="7530" y="3998.54" width="40" height="100" style="fill:rgb(128,128,128);stroke-width:0.88px;stroke:black;"/>
                        </g>
                        <g transform="matrix(1.25,0,0,1,-1892.5,100)">
                            <rect x="7530" y="3998.54" width="40" height="100" style="fill:rgb(128,128,128);stroke-width:0.88px;stroke:black;"/>
                        </g>
                        <g transform="matrix(1.25,0,0,1,-1892.5,500)">
                            <rect x="7530" y="3998.54" width="40" height="100" style="fill:rgb(128,128,128);stroke-width:0.88px;stroke:black;"/>
                        </g>
                        <g transform="matrix(1.25,0,0,1,-1892.5,900)">
                            <rect x="7530" y="3998.54" width="40" height="100" style="fill:rgb(128,128,128);stroke-width:0.88px;stroke:black;"/>
                        </g>
                        <g transform="matrix(1.25,0,0,1,-1892.5,200)">
                            <rect x="7530" y="3998.54" width="40" height="100" style="fill:rgb(128,128,128);stroke-width:0.88px;stroke:black;"/>
                        </g>
                        <g transform="matrix(1.25,0,0,1,-1892.5,600)">
                            <rect x="7530" y="3998.54" width="40" height="100" style="fill:rgb(128,128,128);stroke-width:0.88px;stroke:black;"/>
                        </g>
                        <g transform="matrix(1.25,0,0,1,-1892.5,1000)">
                            <rect x="7530" y="3998.54" width="40" height="100" style="fill:rgb(128,128,128);stroke-width:0.88px;stroke:black;"/>
                        </g>
                        <g transform="matrix(1.25,0,0,1,-1892.5,300)">
                            <rect x="7530" y="3998.54" width="40" height="100" style="fill:rgb(128,128,128);stroke-width:0.88px;stroke:black;"/>
                        </g>
                        <g transform="matrix(1.25,0,0,1,-1892.5,700)">
                            <rect x="7530" y="3998.54" width="40" height="100" style="fill:rgb(128,128,128);stroke-width:0.88px;stroke:black;"/>
                        </g>
                        <g transform="matrix(1,0,0,1,-17.0146,20.7381)">
                            <path d="M7565.41,4040.18l-3.164,0l0,-20.162c-0.761,0.726 -1.76,1.453 -2.997,2.179c-1.236,0.727 -2.346,1.272 -3.331,1.635l0,-3.058c1.77,-0.832 3.317,-1.84 4.641,-3.024c1.324,-1.183 2.262,-2.332 2.812,-3.445l2.039,0l0,25.875Z" style="fill:black;fill-rule:nonzero;stroke-width:1px;stroke:black;"/>
                        </g>
                        <g transform="matrix(1,0,0,1,-17.0146,-79.2619)">
                            <path d="M7553.49,4027.47c0,-3.047 0.314,-5.499 0.941,-7.357c0.627,-1.857 1.558,-3.29 2.795,-4.297c1.236,-1.008 2.792,-1.512 4.667,-1.512c1.383,0 2.595,0.278 3.638,0.835c1.043,0.556 1.905,1.359 2.584,2.408c0.68,1.049 1.213,2.326 1.6,3.832c0.387,1.506 0.58,3.536 0.58,6.091c0,3.023 -0.31,5.464 -0.932,7.321c-0.621,1.858 -1.549,3.293 -2.786,4.307c-1.236,1.013 -2.798,1.52 -4.684,1.52c-2.485,0 -4.436,-0.89 -5.854,-2.672c-1.699,-2.144 -2.549,-5.636 -2.549,-10.476ZM7556.74,4027.47c0,4.23 0.495,7.046 1.486,8.446c0.99,1.401 2.212,2.101 3.665,2.101c1.453,0 2.675,-0.703 3.665,-2.11c0.99,-1.406 1.485,-4.218 1.485,-8.437c0,-4.242 -0.495,-7.061 -1.485,-8.455c-0.99,-1.395 -2.224,-2.092 -3.7,-2.092c-1.454,0 -2.614,0.615 -3.481,1.846c-1.09,1.57 -1.635,4.47 -1.635,8.701Z" style="fill:black;fill-rule:nonzero;stroke-width:1px;stroke:black;"/>
                        </g>
                        <g transform="matrix(1,0,0,1,-17.0146,420.738)">
                            <path d="M7553.49,4033.43l3.323,-0.281c0.246,1.617 0.817,2.833 1.714,3.647c0.896,0.815 1.977,1.222 3.243,1.222c1.523,0 2.812,-0.574 3.867,-1.723c1.055,-1.148 1.582,-2.672 1.582,-4.57c0,-1.805 -0.507,-3.229 -1.521,-4.272c-1.013,-1.043 -2.34,-1.564 -3.981,-1.564c-1.02,0 -1.94,0.231 -2.76,0.694c-0.82,0.463 -1.465,1.064 -1.933,1.802l-2.971,-0.387l2.496,-13.236l12.814,0l0,3.023l-10.283,0l-1.388,6.926c1.546,-1.078 3.169,-1.617 4.869,-1.617c2.25,0 4.148,0.779 5.695,2.338c1.547,1.558 2.32,3.562 2.32,6.012c0,2.332 -0.679,4.347 -2.039,6.046c-1.652,2.086 -3.908,3.129 -6.767,3.129c-2.344,0 -4.257,-0.656 -5.74,-1.968c-1.482,-1.313 -2.329,-3.053 -2.54,-5.221Z" style="fill:black;fill-rule:nonzero;stroke-width:1px;stroke:black;"/>
                        </g>
                        <g transform="matrix(1,0,0,1,-17.0146,820.738)">
                            <path d="M7553.97,4034.22l3.041,-0.281c0.258,1.429 0.75,2.466 1.477,3.111c0.726,0.644 1.658,0.967 2.794,0.967c0.973,0 1.826,-0.223 2.558,-0.668c0.733,-0.446 1.333,-1.04 1.802,-1.784c0.469,-0.745 0.861,-1.749 1.178,-3.015c0.316,-1.266 0.474,-2.555 0.474,-3.867c0,-0.141 -0.006,-0.352 -0.017,-0.633c-0.633,1.008 -1.497,1.825 -2.593,2.452c-1.096,0.627 -2.282,0.941 -3.56,0.941c-2.133,0 -3.937,-0.774 -5.414,-2.321c-1.476,-1.547 -2.215,-3.586 -2.215,-6.117c0,-2.613 0.771,-4.717 2.312,-6.311c1.541,-1.593 3.472,-2.39 5.792,-2.39c1.676,0 3.208,0.451 4.597,1.353c1.388,0.903 2.443,2.189 3.164,3.859c0.72,1.67 1.081,4.087 1.081,7.251c0,3.293 -0.358,5.915 -1.073,7.866c-0.714,1.951 -1.778,3.436 -3.19,4.456c-1.412,1.02 -3.067,1.529 -4.966,1.529c-2.015,0 -3.662,-0.559 -4.939,-1.678c-1.278,-1.12 -2.045,-2.693 -2.303,-4.72ZM7566.92,4022.84c0,-1.817 -0.483,-3.258 -1.45,-4.324c-0.967,-1.067 -2.13,-1.6 -3.489,-1.6c-1.407,0 -2.631,0.574 -3.674,1.723c-1.043,1.148 -1.565,2.636 -1.565,4.464c0,1.641 0.495,2.974 1.486,4c0.99,1.025 2.212,1.538 3.665,1.538c1.465,0 2.669,-0.513 3.612,-1.538c0.943,-1.026 1.415,-2.447 1.415,-4.263Z" style="fill:black;fill-rule:nonzero;stroke-width:1px;stroke:black;"/>
                        </g>
                        <g transform="matrix(1,0,0,1,-17.0146,120.738)">
                            <path d="M7570.12,4037.14l0,3.041l-17.033,0c-0.023,-0.762 0.1,-1.494 0.369,-2.197c0.434,-1.161 1.128,-2.303 2.083,-3.428c0.955,-1.125 2.335,-2.426 4.14,-3.903c2.801,-2.296 4.693,-4.116 5.678,-5.458c0.984,-1.341 1.476,-2.61 1.476,-3.805c0,-1.254 -0.448,-2.312 -1.345,-3.173c-0.896,-0.861 -2.065,-1.292 -3.506,-1.292c-1.524,0 -2.743,0.457 -3.657,1.371c-0.914,0.914 -1.377,2.18 -1.388,3.797l-3.252,-0.334c0.222,-2.426 1.06,-4.274 2.513,-5.546c1.454,-1.271 3.405,-1.907 5.854,-1.907c2.473,0 4.43,0.685 5.871,2.056c1.441,1.372 2.162,3.071 2.162,5.098c0,1.031 -0.211,2.045 -0.633,3.041c-0.422,0.996 -1.122,2.045 -2.1,3.147c-0.979,1.101 -2.605,2.613 -4.878,4.535c-1.899,1.594 -3.117,2.675 -3.656,3.243c-0.54,0.568 -0.985,1.14 -1.336,1.714l12.638,0Z" style="fill:black;fill-rule:nonzero;stroke-width:1px;stroke:black;"/>
                        </g>
                        <g transform="matrix(1,0,0,1,-17.0146,520.738)">
                            <path d="M7569.91,4020.72l-3.146,0.246c-0.281,-1.242 -0.68,-2.145 -1.195,-2.707c-0.856,-0.902 -1.911,-1.354 -3.165,-1.354c-1.007,0 -1.892,0.282 -2.654,0.844c-0.996,0.727 -1.781,1.787 -2.355,3.182c-0.574,1.394 -0.873,3.381 -0.897,5.959c0.762,-1.16 1.694,-2.022 2.795,-2.584c1.102,-0.563 2.256,-0.844 3.463,-0.844c2.109,0 3.905,0.776 5.388,2.329c1.482,1.553 2.223,3.56 2.223,6.021c0,1.617 -0.348,3.12 -1.046,4.508c-0.697,1.389 -1.655,2.453 -2.874,3.191c-1.218,0.738 -2.601,1.107 -4.148,1.107c-2.637,0 -4.787,-0.969 -6.451,-2.909c-1.664,-1.939 -2.496,-5.136 -2.496,-9.589c0,-4.98 0.92,-8.601 2.76,-10.863c1.605,-1.969 3.767,-2.953 6.486,-2.953c2.027,0 3.688,0.568 4.983,1.705c1.295,1.137 2.072,2.707 2.329,4.711ZM7556.99,4031.83c0,1.09 0.232,2.133 0.695,3.129c0.463,0.996 1.11,1.755 1.942,2.277c0.832,0.521 1.705,0.782 2.619,0.782c1.336,0 2.485,-0.539 3.446,-1.617c0.961,-1.079 1.441,-2.543 1.441,-4.395c0,-1.781 -0.475,-3.185 -1.424,-4.21c-0.949,-1.025 -2.144,-1.538 -3.586,-1.538c-1.429,0 -2.642,0.513 -3.638,1.538c-0.997,1.025 -1.495,2.37 -1.495,4.034Z" style="fill:black;fill-rule:nonzero;stroke-width:1px;stroke:black;"/>
                        </g>
                        <g transform="matrix(1,0,0,1,-17.0146,920.738)">
                            <path d="M7555.4,4040.18l-3.164,0l0,-20.162c-0.762,0.726 -1.761,1.453 -2.998,2.179c-1.236,0.727 -2.346,1.272 -3.331,1.635l0,-3.058c1.77,-0.832 3.317,-1.84 4.641,-3.024c1.324,-1.183 2.262,-2.332 2.813,-3.445l2.039,0l0,25.875Z" style="fill:black;fill-rule:nonzero;stroke-width:1px;stroke:black;"/>
                            <path d="M7563.5,4027.47c0,-3.047 0.314,-5.499 0.941,-7.357c0.627,-1.857 1.558,-3.29 2.794,-4.297c1.237,-1.008 2.792,-1.512 4.667,-1.512c1.383,0 2.596,0.278 3.639,0.835c1.043,0.556 1.904,1.359 2.584,2.408c0.68,1.049 1.213,2.326 1.6,3.832c0.386,1.506 0.58,3.536 0.58,6.091c0,3.023 -0.311,5.464 -0.932,7.321c-0.621,1.858 -1.55,3.293 -2.786,4.307c-1.236,1.013 -2.798,1.52 -4.685,1.52c-2.484,0 -4.435,-0.89 -5.853,-2.672c-1.699,-2.144 -2.549,-5.636 -2.549,-10.476ZM7566.76,4027.47c0,4.23 0.495,7.046 1.485,8.446c0.991,1.401 2.212,2.101 3.665,2.101c1.454,0 2.675,-0.703 3.666,-2.11c0.99,-1.406 1.485,-4.218 1.485,-8.437c0,-4.242 -0.495,-7.061 -1.485,-8.455c-0.991,-1.395 -2.224,-2.092 -3.701,-2.092c-1.453,0 -2.613,0.615 -3.48,1.846c-1.09,1.57 -1.635,4.47 -1.635,8.701Z" style="fill:black;fill-rule:nonzero;stroke-width:1px;stroke:black;"/>
                        </g>
                        <g transform="matrix(1,0,0,1,-17.0146,220.738)">
                            <path d="M7553.51,4033.37l3.164,-0.422c0.363,1.793 0.981,3.085 1.855,3.876c0.873,0.791 1.936,1.187 3.19,1.187c1.488,0 2.745,-0.516 3.77,-1.547c1.026,-1.031 1.539,-2.309 1.539,-3.832c0,-1.453 -0.475,-2.652 -1.424,-3.595c-0.95,-0.943 -2.157,-1.415 -3.621,-1.415c-0.598,0 -1.342,0.117 -2.233,0.352l0.352,-2.778c0.211,0.024 0.381,0.035 0.51,0.035c1.347,0 2.56,-0.351 3.638,-1.054c1.078,-0.703 1.617,-1.787 1.617,-3.252c0,-1.16 -0.392,-2.121 -1.177,-2.883c-0.786,-0.762 -1.799,-1.143 -3.041,-1.143c-1.231,0 -2.256,0.387 -3.077,1.161c-0.82,0.773 -1.347,1.933 -1.582,3.48l-3.164,-0.562c0.387,-2.122 1.266,-3.765 2.637,-4.931c1.371,-1.166 3.076,-1.749 5.115,-1.749c1.407,0 2.701,0.302 3.885,0.905c1.184,0.604 2.089,1.427 2.716,2.47c0.627,1.043 0.94,2.15 0.94,3.322c0,1.113 -0.298,2.127 -0.896,3.041c-0.598,0.914 -1.483,1.641 -2.654,2.18c1.523,0.351 2.707,1.081 3.55,2.188c0.844,1.108 1.266,2.493 1.266,4.158c0,2.25 -0.82,4.157 -2.461,5.721c-1.641,1.565 -3.715,2.347 -6.223,2.347c-2.261,0 -4.139,-0.674 -5.633,-2.022c-1.495,-1.347 -2.347,-3.093 -2.558,-5.238Z" style="fill:black;fill-rule:nonzero;stroke-width:1px;stroke:black;"/>
                        </g>
                        <g transform="matrix(1,0,0,1,-17.0146,620.738)">
                            <path d="M7553.7,4017.78l0,-3.041l16.682,0l0,2.461c-1.641,1.746 -3.267,4.067 -4.878,6.961c-1.611,2.895 -2.856,5.871 -3.735,8.93c-0.633,2.156 -1.037,4.517 -1.213,7.084l-3.252,0c0.035,-2.028 0.433,-4.477 1.195,-7.348c0.762,-2.871 1.855,-5.639 3.278,-8.305c1.424,-2.666 2.939,-4.914 4.544,-6.742l-12.621,0Z" style="fill:black;fill-rule:nonzero;stroke-width:1px;stroke:black;"/>
                        </g>
                        <g transform="matrix(1,0,0,1,-17.0146,1020.74)">
                            <path d="M7556.74,4040.18l-3.165,0l0,-20.162c-0.761,0.726 -1.76,1.453 -2.997,2.179c-1.236,0.727 -2.346,1.272 -3.331,1.635l0,-3.058c1.77,-0.832 3.317,-1.84 4.641,-3.024c1.324,-1.183 2.262,-2.332 2.812,-3.445l2.04,0l0,25.875Z" style="fill:black;fill-rule:nonzero;stroke-width:1px;stroke:black;"/>
                            <path d="M7574.09,4040.18l-3.164,0l0,-20.162c-0.762,0.726 -1.761,1.453 -2.997,2.179c-1.236,0.727 -2.347,1.272 -3.331,1.635l0,-3.058c1.77,-0.832 3.316,-1.84 4.641,-3.024c1.324,-1.183 2.261,-2.332 2.812,-3.445l2.039,0l0,25.875Z" style="fill:black;fill-rule:nonzero;stroke-width:1px;stroke:black;"/>
                        </g>
                        <g transform="matrix(1,0,0,1,-17.0146,320.738)">
                            <path d="M7563.64,4040.18l0,-6.17l-11.18,0l0,-2.9l11.76,-16.7l2.584,0l0,16.7l3.48,0l0,2.9l-3.48,0l0,6.17l-3.164,0ZM7563.64,4031.11l0,-11.62l-8.068,11.62l8.068,0Z" style="fill:black;fill-rule:nonzero;stroke-width:1px;stroke:black;"/>
                        </g>
                        <g transform="matrix(1,0,0,1,-17.0146,720.738)">
                            <path d="M7558.36,4026.2c-1.313,-0.48 -2.286,-1.166 -2.918,-2.056c-0.633,-0.891 -0.95,-1.957 -0.95,-3.2c0,-1.875 0.674,-3.451 2.022,-4.728c1.347,-1.277 3.14,-1.916 5.379,-1.916c2.25,0 4.06,0.653 5.431,1.96c1.371,1.306 2.057,2.897 2.057,4.772c0,1.196 -0.313,2.236 -0.94,3.12c-0.627,0.885 -1.58,1.568 -2.857,2.048c1.582,0.516 2.786,1.348 3.612,2.496c0.827,1.149 1.24,2.52 1.24,4.114c0,2.203 -0.78,4.054 -2.338,5.554c-1.559,1.5 -3.61,2.25 -6.153,2.25c-2.543,0 -4.593,-0.753 -6.152,-2.258c-1.558,-1.506 -2.338,-3.384 -2.338,-5.634c0,-1.676 0.425,-3.079 1.275,-4.21c0.849,-1.131 2.059,-1.902 3.63,-2.312ZM7557.73,4020.84c0,1.219 0.392,2.215 1.177,2.988c0.786,0.774 1.805,1.16 3.059,1.16c1.219,0 2.218,-0.383 2.997,-1.151c0.779,-0.768 1.169,-1.708 1.169,-2.821c0,-1.16 -0.401,-2.136 -1.204,-2.927c-0.803,-0.791 -1.802,-1.187 -2.997,-1.187c-1.207,0 -2.209,0.387 -3.006,1.161c-0.797,0.773 -1.195,1.699 -1.195,2.777ZM7556.71,4032.74c0,0.903 0.214,1.776 0.642,2.619c0.428,0.844 1.063,1.498 1.907,1.96c0.844,0.463 1.752,0.695 2.725,0.695c1.511,0 2.759,-0.487 3.744,-1.459c0.984,-0.973 1.476,-2.209 1.476,-3.709c0,-1.524 -0.507,-2.783 -1.52,-3.78c-1.014,-0.996 -2.282,-1.494 -3.806,-1.494c-1.488,0 -2.722,0.493 -3.7,1.477c-0.979,0.984 -1.468,2.215 -1.468,3.691Z" style="fill:black;fill-rule:nonzero;stroke-width:1px;stroke:black;"/>
                        </g>
                    </g>
                    <rect x="28029.5" y="4804.89" width="100" height="100" style="fill:none;stroke-width:1px;stroke-miterlimit:1;stroke:black;"/>
                    <g transform="matrix(1,0,0,1,20609.5,956.346)">
                        <rect x="7470" y="3898.54" width="100" height="100" style="fill:rgb(128,128,128);stroke-width:1px;stroke:black;"/>
                    </g>
                    <g transform="matrix(1,0,0,1,20631,987.289)">
                        <path d="M7477.94,3943.44l-5.625,0l0,-35.844c-1.355,1.292 -3.131,2.584 -5.329,3.875c-2.197,1.292 -4.171,2.261 -5.921,2.907l0,-5.438c3.145,-1.479 5.895,-3.271 8.25,-5.375c2.354,-2.104 4.02,-4.146 5,-6.125l3.625,0l0,46Z" style="fill:black;fill-rule:nonzero;stroke-width:1px;stroke:black;"/>
                        <path d="M7493.91,3943.44l0,-33.187l5.032,0l0,4.656c1.041,-1.625 2.427,-2.932 4.156,-3.922c1.729,-0.99 3.698,-1.484 5.906,-1.484c2.458,0 4.474,0.51 6.047,1.531c1.573,1.021 2.682,2.448 3.328,4.281c2.625,-3.875 6.042,-5.812 10.25,-5.812c3.292,0 5.823,0.911 7.594,2.734c1.771,1.823 2.656,4.63 2.656,8.422l0,22.781l-5.594,0l0,-20.906c0,-2.25 -0.182,-3.87 -0.547,-4.859c-0.364,-0.99 -1.026,-1.787 -1.984,-2.391c-0.958,-0.604 -2.083,-0.906 -3.375,-0.906c-2.333,0 -4.271,0.776 -5.812,2.328c-1.542,1.552 -2.313,4.036 -2.313,7.453l0,19.281l-5.625,0l0,-21.562c0,-2.5 -0.458,-4.375 -1.375,-5.625c-0.917,-1.25 -2.417,-1.875 -4.5,-1.875c-1.583,0 -3.047,0.416 -4.391,1.25c-1.343,0.833 -2.317,2.052 -2.921,3.656c-0.605,1.604 -0.907,3.917 -0.907,6.937l0,17.219l-5.625,0Z" style="fill:black;fill-rule:nonzero;stroke-width:1px;stroke:black;"/>
                    </g>
                </g>
            </g>
        </g>
    </g>
</svg>
