<?xml version="1.0" standalone="no"?><!DOCTYPE svg PUBLIC "-//W3C//DTD SVG 1.1//EN" "http://www.w3.org/Graphics/SVG/1.1/DTD/svg11.dtd"><svg width="100%" height="100%" viewBox="0 0 2901 1801" version="1.1" xmlns="http://www.w3.org/2000/svg" xmlns:xlink="http://www.w3.org/1999/xlink" xml:space="preserve" style="fill-rule:evenodd;clip-rule:evenodd;stroke-miterlimit:1;"><g><g id="vertical lines"><path d="M100.142,100.742l0,1600" style="fill:none;stroke-width:1px;stroke:#b3b3b3;"/><path d="M700.142,100.742l0,1600" style="fill:none;stroke-width:1px;stroke:#b3b3b3;"/><path d="M1300.14,100.742l0,1600" style="fill:none;stroke-width:1px;stroke:#b3b3b3;"/><path d="M1900.14,100.742l0,1600" style="fill:none;stroke-width:1px;stroke:#b3b3b3;"/><path d="M2500.14,100.742l0,1600" style="fill:none;stroke-width:1px;stroke:#b3b3b3;"/><path d="M300.142,100.742l0,1600" style="fill:none;stroke-width:1px;stroke:#b3b3b3;"/><path d="M900.142,100.742l0,1600" style="fill:none;stroke-width:1px;stroke:#b3b3b3;"/><path d="M1500.14,100.742l0,1600" style="fill:none;stroke-width:1px;stroke:#b3b3b3;"/><path d="M2100.14,100.742l0,1600" style="fill:none;stroke-width:1px;stroke:#b3b3b3;"/><path d="M2700.14,100.742l0,1600" style="fill:none;stroke-width:1px;stroke:#b3b3b3;"/><path d="M500.142,100.742l0,1600" style="fill:none;stroke-width:1px;stroke:#b3b3b3;"/><path d="M1100.14,100.742l0,1600" style="fill:none;stroke-width:1px;stroke:#b3b3b3;"/><path d="M1700.14,100.742l0,1600" style="fill:none;stroke-width:1px;stroke:#b3b3b3;"/><path d="M2300.14,100.742l0,1600" style="fill:none;stroke-width:1px;stroke:#b3b3b3;"/><path d="M200.142,100.742l0,1600" style="fill:none;stroke-width:1px;stroke:#b3b3b3;"/><path d="M800.142,100.742l0,1600" style="fill:none;stroke-width:1px;stroke:#b3b3b3;"/><path d="M1400.14,100.742l0,1600" style="fill:none;stroke-width:1px;stroke:#b3b3b3;"/><path d="M2000.14,100.742l0,1600" style="fill:none;stroke-width:1px;stroke:#b3b3b3;"/><path d="M2600.14,100.742l0,1600" style="fill:none;stroke-width:1px;stroke:#b3b3b3;"/><path d="M400.142,100.742l0,1600" style="fill:none;stroke-width:1px;stroke:#b3b3b3;"/><path d="M1000.14,100.742l0,1600" style="fill:none;stroke-width:1px;stroke:#b3b3b3;"/><path d="M1600.14,100.742l0,1600" style="fill:none;stroke-width:1px;stroke:#b3b3b3;"/><path d="M2200.14,100.742l0,1600" style="fill:none;stroke-width:1px;stroke:#b3b3b3;"/><path d="M2800.14,100.742l0,1600" style="fill:none;stroke-width:1px;stroke:#b3b3b3;"/><path d="M600.142,100.742l0,1600" style="fill:none;stroke-width:1px;stroke:#b3b3b3;"/><path d="M1200.14,100.742l0,1600" style="fill:none;stroke-width:1px;stroke:#b3b3b3;"/><path d="M1800.14,100.742l0,1600" style="fill:none;stroke-width:1px;stroke:#b3b3b3;"/><path d="M2400.14,100.742l0,1600" style="fill:none;stroke-width:1px;stroke:#b3b3b3;"/></g><g id="horizontal lines"><path d="M100.142,100.742l2700,0" style="fill:none;stroke-width:1px;stroke-linejoin:round;stroke-miterlimit:1.41421;stroke:#b3b3b3;"/><path d="M100.142,500.742l2700,0" style="fill:none;stroke-width:1px;stroke-linejoin:round;stroke-miterlimit:1.41421;stroke:#b3b3b3;"/><path d="M100.142,900.742l2700,0" style="fill:none;stroke-width:1px;stroke-linejoin:round;stroke-miterlimit:1.41421;stroke:#b3b3b3;"/><path d="M100.142,1300.74l2700,0" style="fill:none;stroke-width:1px;stroke-linejoin:round;stroke-miterlimit:1.41421;stroke:#b3b3b3;"/><path d="M2800.14,200.742l-2700,0" style="fill:none;stroke-width:1px;stroke-linejoin:round;stroke-miterlimit:1.41421;stroke:#b3b3b3;"/><path d="M2800.14,600.742l-2700,0" style="fill:none;stroke-width:1px;stroke-linejoin:round;stroke-miterlimit:1.41421;stroke:#b3b3b3;"/><path d="M2800.14,1000.74l-2700,0" style="fill:none;stroke-width:1px;stroke-linejoin:round;stroke-miterlimit:1.41421;stroke:#b3b3b3;"/><path d="M2800.14,1400.74l-2700,0" style="fill:none;stroke-width:1px;stroke-linejoin:round;stroke-miterlimit:1.41421;stroke:#b3b3b3;"/><path d="M100.142,300.742l2700,0" style="fill:none;stroke-width:1px;stroke-linejoin:round;stroke-miterlimit:1.41421;stroke:#b3b3b3;"/><path d="M100.142,700.742l2700,0" style="fill:none;stroke-width:1px;stroke-linejoin:round;stroke-miterlimit:1.41421;stroke:#b3b3b3;"/><path d="M100.142,1100.74l2700,0" style="fill:none;stroke-width:1px;stroke-linejoin:round;stroke-miterlimit:1.41421;stroke:#b3b3b3;"/><path d="M100.142,1500.74l2700,0" style="fill:none;stroke-width:1px;stroke-linejoin:round;stroke-miterlimit:1.41421;stroke:#b3b3b3;"/><path d="M100.142,400.742l2700,0" style="fill:none;stroke-width:1px;stroke-linejoin:round;stroke-miterlimit:1.41421;stroke:#b3b3b3;"/><path d="M100.142,800.742l2700,0" style="fill:none;stroke-width:1px;stroke-linejoin:round;stroke-miterlimit:1.41421;stroke:#b3b3b3;"/><path d="M100.142,1200.74l2700,0" style="fill:none;stroke-width:1px;stroke-linejoin:round;stroke-miterlimit:1.41421;stroke:#b3b3b3;"/><path d="M100.142,1600.74l2700,0" style="fill:none;stroke-width:1px;stroke-linejoin:round;stroke-miterlimit:1.41421;stroke:#b3b3b3;"/><path d="M100.142,1700.74l2700,0" style="fill:none;stroke-width:1px;stroke-linejoin:round;stroke-miterlimit:1.41421;stroke:#b3b3b3;"/></g><g id="top labels"><rect x="200.142" y="50.742" width="100" height="50" style="fill:#808080;stroke-width:1px;stroke-linejoin:round;stroke-miterlimit:1.41421;stroke:#000;"/><rect x="700.142" y="50.742" width="100" height="50" style="fill:#808080;stroke-width:1px;stroke-linejoin:round;stroke-miterlimit:1.41421;stroke:#000;"/><rect x="1200.14" y="50.742" width="100" height="50" style="fill:#808080;stroke-width:1px;stroke-linejoin:round;stroke-miterlimit:1.41421;stroke:#000;"/><rect x="1700.14" y="50.742" width="100" height="50" style="fill:#808080;stroke-width:1px;stroke-linejoin:round;stroke-miterlimit:1.41421;stroke:#000;"/><rect x="2200.14" y="50.742" width="100" height="50" style="fill:#808080;stroke-width:1px;stroke-linejoin:round;stroke-miterlimit:1.41421;stroke:#000;"/><rect x="300.142" y="50.742" width="100" height="50" style="fill:#808080;stroke-width:1px;stroke-linejoin:round;stroke-miterlimit:1.41421;stroke:#000;"/><rect x="800.142" y="50.742" width="100" height="50" style="fill:#808080;stroke-width:1px;stroke-linejoin:round;stroke-miterlimit:1.41421;stroke:#000;"/><rect x="1300.14" y="50.742" width="100" height="50" style="fill:#808080;stroke-width:1px;stroke-linejoin:round;stroke-miterlimit:1.41421;stroke:#000;"/><rect x="1800.14" y="50.742" width="100" height="50" style="fill:#808080;stroke-width:1px;stroke-linejoin:round;stroke-miterlimit:1.41421;stroke:#000;"/><rect x="2300.14" y="50.742" width="100" height="50" style="fill:#808080;stroke-width:1px;stroke-linejoin:round;stroke-miterlimit:1.41421;stroke:#000;"/><rect x="400.142" y="50.742" width="100" height="50" style="fill:#808080;stroke-width:1px;stroke-linejoin:round;stroke-miterlimit:1.41421;stroke:#000;"/><rect x="900.142" y="50.742" width="100" height="50" style="fill:#808080;stroke-width:1px;stroke-linejoin:round;stroke-miterlimit:1.41421;stroke:#000;"/><rect x="1400.14" y="50.742" width="100" height="50" style="fill:#808080;stroke-width:1px;stroke-linejoin:round;stroke-miterlimit:1.41421;stroke:#000;"/><rect x="1900.14" y="50.742" width="100" height="50" style="fill:#808080;stroke-width:1px;stroke-linejoin:round;stroke-miterlimit:1.41421;stroke:#000;"/><rect x="2400.14" y="50.742" width="100" height="50" style="fill:#808080;stroke-width:1px;stroke-linejoin:round;stroke-miterlimit:1.41421;stroke:#000;"/><rect x="500.142" y="50.742" width="100" height="50" style="fill:#808080;stroke-width:1px;stroke-linejoin:round;stroke-miterlimit:1.41421;stroke:#000;"/><rect x="1000.14" y="50.742" width="100" height="50" style="fill:#808080;stroke-width:1px;stroke-linejoin:round;stroke-miterlimit:1.41421;stroke:#000;"/><rect x="1500.14" y="50.742" width="100" height="50" style="fill:#808080;stroke-width:1px;stroke-linejoin:round;stroke-miterlimit:1.41421;stroke:#000;"/><rect x="2000.14" y="50.742" width="100" height="50" style="fill:#808080;stroke-width:1px;stroke-linejoin:round;stroke-miterlimit:1.41421;stroke:#000;"/><rect x="2500.14" y="50.742" width="100" height="50" style="fill:#808080;stroke-width:1px;stroke-linejoin:round;stroke-miterlimit:1.41421;stroke:#000;"/><rect x="600.142" y="50.742" width="100" height="50" style="fill:#808080;stroke-width:1px;stroke-linejoin:round;stroke-miterlimit:1.41421;stroke:#000;"/><rect x="1100.14" y="50.742" width="100" height="50" style="fill:#808080;stroke-width:1px;stroke-linejoin:round;stroke-miterlimit:1.41421;stroke:#000;"/><rect x="1600.14" y="50.742" width="100" height="50" style="fill:#808080;stroke-width:1px;stroke-linejoin:round;stroke-miterlimit:1.41421;stroke:#000;"/><rect x="2100.14" y="50.742" width="100" height="50" style="fill:#808080;stroke-width:1px;stroke-linejoin:round;stroke-miterlimit:1.41421;stroke:#000;"/><rect x="2600.14" y="50.742" width="100" height="50" style="fill:#808080;stroke-width:1px;stroke-linejoin:round;stroke-miterlimit:1.41421;stroke:#000;"/><rect x="2700.14" y="50.742" width="100" height="50" style="fill:#808080;stroke-width:1px;stroke-linejoin:round;stroke-miterlimit:1.41421;stroke:#000;"/><text x="238.152px" y="89.821px" style="font-family:'ArialMT';font-size:36px;fill:#000;">A</text><text x="738.152px" y="89.821px" style="font-family:'ArialMT';font-size:36px;fill:#000;">F</text><text x="1238.15px" y="89.821px" style="font-family:'ArialMT';font-size:36px;fill:#000;">K</text><text x="1738.15px" y="89.821px" style="font-family:'ArialMT';font-size:36px;fill:#000;">P</text><text x="2238.15px" y="89.821px" style="font-family:'ArialMT';font-size:36px;fill:#000;">U</text><text x="338.152px" y="89.821px" style="font-family:'ArialMT';font-size:36px;fill:#000;">B</text><text x="838.152px" y="89.821px" style="font-family:'ArialMT';font-size:36px;fill:#000;">G</text><text x="1338.15px" y="89.821px" style="font-family:'ArialMT';font-size:36px;fill:#000;">L</text><text x="1838.15px" y="89.821px" style="font-family:'ArialMT';font-size:36px;fill:#000;">Q</text><text x="2338.15px" y="89.821px" style="font-family:'ArialMT';font-size:36px;fill:#000;">V</text><text x="438.152px" y="89.821px" style="font-family:'ArialMT';font-size:36px;fill:#000;">C</text><text x="938.152px" y="89.821px" style="font-family:'ArialMT';font-size:36px;fill:#000;">H</text><text x="1438.15px" y="89.821px" style="font-family:'ArialMT';font-size:36px;fill:#000;">M</text><text x="1938.15px" y="89.821px" style="font-family:'ArialMT';font-size:36px;fill:#000;">R</text><text x="2438.15px" y="89.821px" style="font-family:'ArialMT';font-size:36px;fill:#000;">W</text><text x="538.152px" y="89.821px" style="font-family:'ArialMT';font-size:36px;fill:#000;">D</text><text x="1045.16px" y="89.821px" style="font-family:'ArialMT';font-size:36px;fill:#000;">I</text><text x="1538.15px" y="89.821px" style="font-family:'ArialMT';font-size:36px;fill:#000;">N</text><text x="2038.15px" y="89.821px" style="font-family:'ArialMT';font-size:36px;fill:#000;">S</text><text x="2538.15px" y="89.821px" style="font-family:'ArialMT';font-size:36px;fill:#000;">X</text><text x="638.152px" y="89.821px" style="font-family:'ArialMT';font-size:36px;fill:#000;">E</text><text x="1138.15px" y="89.821px" style="font-family:'ArialMT';font-size:36px;fill:#000;">J</text><text x="1638.15px" y="89.821px" style="font-family:'ArialMT';font-size:36px;fill:#000;">O</text><text x="2138.15px" y="89.821px" style="font-family:'ArialMT';font-size:36px;fill:#000;">T</text><text x="2638.15px" y="89.821px" style="font-family:'ArialMT';font-size:36px;fill:#000;">Y</text><text x="2738.15px" y="89.821px" style="font-family:'ArialMT';font-size:36px;fill:#000;">Z</text></g><g id="side labels"><rect x="50.142" y="200.742" width="50" height="100" style="fill:#808080;stroke-width:1px;stroke-linejoin:round;stroke-miterlimit:1.41421;stroke:#000;"/><rect x="50.142" y="600.742" width="50" height="100" style="fill:#808080;stroke-width:1px;stroke-linejoin:round;stroke-miterlimit:1.41421;stroke:#000;"/><rect x="50.142" y="1000.74" width="50" height="100" style="fill:#808080;stroke-width:1px;stroke-linejoin:round;stroke-miterlimit:1.41421;stroke:#000;"/><rect x="50.142" y="1400.74" width="50" height="100" style="fill:#808080;stroke-width:1px;stroke-linejoin:round;stroke-miterlimit:1.41421;stroke:#000;"/><rect x="50.142" y="300.742" width="50" height="100" style="fill:#808080;stroke-width:1px;stroke-linejoin:round;stroke-miterlimit:1.41421;stroke:#000;"/><rect x="50.142" y="700.742" width="50" height="100" style="fill:#808080;stroke-width:1px;stroke-linejoin:round;stroke-miterlimit:1.41421;stroke:#000;"/><rect x="50.142" y="1100.74" width="50" height="100" style="fill:#808080;stroke-width:1px;stroke-linejoin:round;stroke-miterlimit:1.41421;stroke:#000;"/><rect x="50.142" y="1500.74" width="50" height="100" style="fill:#808080;stroke-width:1px;stroke-linejoin:round;stroke-miterlimit:1.41421;stroke:#000;"/><rect x="50.142" y="400.742" width="50" height="100" style="fill:#808080;stroke-width:1px;stroke-linejoin:round;stroke-miterlimit:1.41421;stroke:#000;"/><rect x="50.142" y="800.742" width="50" height="100" style="fill:#808080;stroke-width:1px;stroke-linejoin:round;stroke-miterlimit:1.41421;stroke:#000;"/><rect x="50.142" y="1200.74" width="50" height="100" style="fill:#808080;stroke-width:1px;stroke-linejoin:round;stroke-miterlimit:1.41421;stroke:#000;"/><rect x="50.142" y="1600.74" width="50" height="100" style="fill:#808080;stroke-width:1px;stroke-linejoin:round;stroke-miterlimit:1.41421;stroke:#000;"/><rect x="50.142" y="500.742" width="50" height="100" style="fill:#808080;stroke-width:1px;stroke-linejoin:round;stroke-miterlimit:1.41421;stroke:#000;"/><rect x="50.142" y="900.742" width="50" height="100" style="fill:#808080;stroke-width:1px;stroke-linejoin:round;stroke-miterlimit:1.41421;stroke:#000;"/><rect x="50.142" y="1300.74" width="50" height="100" style="fill:#808080;stroke-width:1px;stroke-linejoin:round;stroke-miterlimit:1.41421;stroke:#000;"/><text x="65.127px" y="263.113px" style="font-family:'ArialMT';font-size:36px;fill:#000;">1</text><text x="65.127px" y="663.113px" style="font-family:'ArialMT';font-size:36px;fill:#000;">5</text><text x="65.127px" y="1063.11px" style="font-family:'ArialMT';font-size:36px;fill:#000;">9</text><text x="55.116px" y="1463.11px" style="font-family:'ArialMT';font-size:36px;fill:#000;">13</text><text x="65.127px" y="363.113px" style="font-family:'ArialMT';font-size:36px;fill:#000;">2</text><text x="65.127px" y="763.113px" style="font-family:'ArialMT';font-size:36px;fill:#000;">6</text><text x="55.116px" y="1163.11px" style="font-family:'ArialMT';font-size:36px;fill:#000;">10</text><text x="55.116px" y="1563.11px" style="font-family:'ArialMT';font-size:36px;fill:#000;">14</text><text x="65.127px" y="463.113px" style="font-family:'ArialMT';font-size:36px;fill:#000;">3</text><text x="65.127px" y="863.113px" style="font-family:'ArialMT';font-size:36px;fill:#000;">7</text><text x="56.452px" y="1263.11px" style="font-family:'ArialMT';font-size:36px;fill:#000;">1<tspan x="73.802px " y="1263.11px ">1</tspan></text><text x="55.116px" y="1663.11px" style="font-family:'ArialMT';font-size:36px;fill:#000;">15</text><text x="65.127px" y="563.113px" style="font-family:'ArialMT';font-size:36px;fill:#000;">4</text><text x="65.127px" y="963.113px" style="font-family:'ArialMT';font-size:36px;fill:#000;">8</text><text x="55.116px" y="1363.11px" style="font-family:'ArialMT';font-size:36px;fill:#000;">12</text></g><rect x="100.142" y="100.742" width="100" height="100" style="fill:#808080;stroke-width:1px;stroke-linejoin:round;stroke-miterlimit:1.41421;stroke:#000;"/><text x="105.689px" y="176.585px" style="font-family:'ArialMT';font-size:64px;fill:#000;">1m</text></g><g><circle cx="280.142" cy="620.742" r="20" style="fill:#fcd1d1;stroke-width:1px;stroke-linejoin:round;stroke-miterlimit:1.41421;stroke:#000;"/><circle cx="280.142" cy="620.742" r="10" style="fill:#fc2e30;stroke-width:1px;stroke-linejoin:round;stroke-miterlimit:1.41421;stroke:#000;"/></g><g><circle cx="920.142" cy="220.742" r="20" style="fill:#fcd1d1;stroke-width:1px;stroke-linejoin:round;stroke-miterlimit:1.41421;stroke:#000;"/><circle cx="920.142" cy="220.742" r="10" style="fill:#fc2e30;stroke-width:1px;stroke-linejoin:round;stroke-miterlimit:1.41421;stroke:#000;"/></g><g><circle cx="920.142" cy="1020.74" r="20" style="fill:#fcd1d1;stroke-width:1px;stroke-linejoin:round;stroke-miterlimit:1.41421;stroke:#000;"/><circle cx="920.142" cy="1020.74" r="10" style="fill:#fc2e30;stroke-width:1px;stroke-linejoin:round;stroke-miterlimit:1.41421;stroke:#000;"/></g><g><circle cx="1620.14" cy="620.742" r="20" style="fill:#fcd1d1;stroke-width:1px;stroke-linejoin:round;stroke-miterlimit:1.41421;stroke:#000;"/><circle cx="1620.14" cy="620.742" r="10" style="fill:#fc2e30;stroke-width:1px;stroke-linejoin:round;stroke-miterlimit:1.41421;stroke:#000;"/></g><g><circle cx="280.142" cy="780.742" r="20" style="fill:#fcd1d1;stroke-width:1px;stroke-linejoin:round;stroke-miterlimit:1.41421;stroke:#000;"/><circle cx="280.142" cy="780.742" r="10" style="fill:#fc2e30;stroke-width:1px;stroke-linejoin:round;stroke-miterlimit:1.41421;stroke:#000;"/></g><g><circle cx="920.142" cy="380.742" r="20" style="fill:#fcd1d1;stroke-width:1px;stroke-linejoin:round;stroke-miterlimit:1.41421;stroke:#000;"/><circle cx="920.142" cy="380.742" r="10" style="fill:#fc2e30;stroke-width:1px;stroke-linejoin:round;stroke-miterlimit:1.41421;stroke:#000;"/></g><g><circle cx="920.142" cy="1180.74" r="20" style="fill:#fcd1d1;stroke-width:1px;stroke-linejoin:round;stroke-miterlimit:1.41421;stroke:#000;"/><circle cx="920.142" cy="1180.74" r="10" style="fill:#fc2e30;stroke-width:1px;stroke-linejoin:round;stroke-miterlimit:1.41421;stroke:#000;"/></g><g><circle cx="1620.14" cy="780.742" r="20" style="fill:#fcd1d1;stroke-width:1px;stroke-linejoin:round;stroke-miterlimit:1.41421;stroke:#000;"/><circle cx="1620.14" cy="780.742" r="10" style="fill:#fc2e30;stroke-width:1px;stroke-linejoin:round;stroke-miterlimit:1.41421;stroke:#000;"/></g><g><circle cx="380.142" cy="780.742" r="20" style="fill:#fcd1d1;stroke-width:1px;stroke-linejoin:round;stroke-miterlimit:1.41421;stroke:#000;"/><circle cx="380.142" cy="780.742" r="10" style="fill:#fc2e30;stroke-width:1px;stroke-linejoin:round;stroke-miterlimit:1.41421;stroke:#000;"/></g><g><circle cx="1020.14" cy="380.742" r="20" style="fill:#fcd1d1;stroke-width:1px;stroke-linejoin:round;stroke-miterlimit:1.41421;stroke:#000;"/><circle cx="1020.14" cy="380.742" r="10" style="fill:#fc2e30;stroke-width:1px;stroke-linejoin:round;stroke-miterlimit:1.41421;stroke:#000;"/></g><g><circle cx="1020.14" cy="1180.74" r="20" style="fill:#fcd1d1;stroke-width:1px;stroke-linejoin:round;stroke-miterlimit:1.41421;stroke:#000;"/><circle cx="1020.14" cy="1180.74" r="10" style="fill:#fc2e30;stroke-width:1px;stroke-linejoin:round;stroke-miterlimit:1.41421;stroke:#000;"/></g><g><circle cx="1720.14" cy="780.742" r="20" style="fill:#fcd1d1;stroke-width:1px;stroke-linejoin:round;stroke-miterlimit:1.41421;stroke:#000;"/><circle cx="1720.14" cy="780.742" r="10" style="fill:#fc2e30;stroke-width:1px;stroke-linejoin:round;stroke-miterlimit:1.41421;stroke:#000;"/></g><g><circle cx="580.142" cy="620.742" r="20" style="fill:#fcd1d1;stroke-width:1px;stroke-linejoin:round;stroke-miterlimit:1.41421;stroke:#000;"/><circle cx="580.142" cy="620.742" r="10" style="fill:#fc2e30;stroke-width:1px;stroke-linejoin:round;stroke-miterlimit:1.41421;stroke:#000;"/></g><g><circle cx="1280.14" cy="220.742" r="20" style="fill:#fcd1d1;stroke-width:1px;stroke-linejoin:round;stroke-miterlimit:1.41421;stroke:#000;"/><circle cx="1280.14" cy="220.742" r="10" style="fill:#fc2e30;stroke-width:1px;stroke-linejoin:round;stroke-miterlimit:1.41421;stroke:#000;"/></g><g><circle cx="1280.14" cy="1020.74" r="20" style="fill:#fcd1d1;stroke-width:1px;stroke-linejoin:round;stroke-miterlimit:1.41421;stroke:#000;"/><circle cx="1280.14" cy="1020.74" r="10" style="fill:#fc2e30;stroke-width:1px;stroke-linejoin:round;stroke-miterlimit:1.41421;stroke:#000;"/></g><g><circle cx="1920.14" cy="620.742" r="20" style="fill:#fcd1d1;stroke-width:1px;stroke-linejoin:round;stroke-miterlimit:1.41421;stroke:#000;"/><circle cx="1920.14" cy="620.742" r="10" style="fill:#fc2e30;stroke-width:1px;stroke-linejoin:round;stroke-miterlimit:1.41421;stroke:#000;"/></g><g><circle cx="480.142" cy="780.742" r="20" style="fill:#fcd1d1;stroke-width:1px;stroke-linejoin:round;stroke-miterlimit:1.41421;stroke:#000;"/><circle cx="480.142" cy="780.742" r="10" style="fill:#fc2e30;stroke-width:1px;stroke-linejoin:round;stroke-miterlimit:1.41421;stroke:#000;"/></g><g><circle cx="1180.14" cy="380.742" r="20" style="fill:#fcd1d1;stroke-width:1px;stroke-linejoin:round;stroke-miterlimit:1.41421;stroke:#000;"/><circle cx="1180.14" cy="380.742" r="10" style="fill:#fc2e30;stroke-width:1px;stroke-linejoin:round;stroke-miterlimit:1.41421;stroke:#000;"/></g><g><circle cx="1180.14" cy="1180.74" r="20" style="fill:#fcd1d1;stroke-width:1px;stroke-linejoin:round;stroke-miterlimit:1.41421;stroke:#000;"/><circle cx="1180.14" cy="1180.74" r="10" style="fill:#fc2e30;stroke-width:1px;stroke-linejoin:round;stroke-miterlimit:1.41421;stroke:#000;"/></g><g><circle cx="1820.14" cy="780.742" r="20" style="fill:#fcd1d1;stroke-width:1px;stroke-linejoin:round;stroke-miterlimit:1.41421;stroke:#000;"/><circle cx="1820.14" cy="780.742" r="10" style="fill:#fc2e30;stroke-width:1px;stroke-linejoin:round;stroke-miterlimit:1.41421;stroke:#000;"/></g><g><circle cx="580.142" cy="780.742" r="20" style="fill:#fcd1d1;stroke-width:1px;stroke-linejoin:round;stroke-miterlimit:1.41421;stroke:#000;"/><circle cx="580.142" cy="780.742" r="10" style="fill:#fc2e30;stroke-width:1px;stroke-linejoin:round;stroke-miterlimit:1.41421;stroke:#000;"/></g><g><circle cx="1280.14" cy="380.742" r="20" style="fill:#fcd1d1;stroke-width:1px;stroke-linejoin:round;stroke-miterlimit:1.41421;stroke:#000;"/><circle cx="1280.14" cy="380.742" r="10" style="fill:#fc2e30;stroke-width:1px;stroke-linejoin:round;stroke-miterlimit:1.41421;stroke:#000;"/></g><g><circle cx="1280.14" cy="1180.74" r="20" style="fill:#fcd1d1;stroke-width:1px;stroke-linejoin:round;stroke-miterlimit:1.41421;stroke:#000;"/><circle cx="1280.14" cy="1180.74" r="10" style="fill:#fc2e30;stroke-width:1px;stroke-linejoin:round;stroke-miterlimit:1.41421;stroke:#000;"/></g><g><circle cx="1920.14" cy="780.742" r="20" style="fill:#fcd1d1;stroke-width:1px;stroke-linejoin:round;stroke-miterlimit:1.41421;stroke:#000;"/><circle cx="1920.14" cy="780.742" r="10" style="fill:#fc2e30;stroke-width:1px;stroke-linejoin:round;stroke-miterlimit:1.41421;stroke:#000;"/></g><g><circle cx="380.142" cy="620.742" r="20" style="fill:#fcd1d1;stroke-width:1px;stroke-linejoin:round;stroke-miterlimit:1.41421;stroke:#000;"/><circle cx="380.142" cy="620.742" r="10" style="fill:#fc2e30;stroke-width:1px;stroke-linejoin:round;stroke-miterlimit:1.41421;stroke:#000;"/></g><g><circle cx="1020.14" cy="220.742" r="20" style="fill:#fcd1d1;stroke-width:1px;stroke-linejoin:round;stroke-miterlimit:1.41421;stroke:#000;"/><circle cx="1020.14" cy="220.742" r="10" style="fill:#fc2e30;stroke-width:1px;stroke-linejoin:round;stroke-miterlimit:1.41421;stroke:#000;"/></g><g><circle cx="1020.14" cy="1020.74" r="20" style="fill:#fcd1d1;stroke-width:1px;stroke-linejoin:round;stroke-miterlimit:1.41421;stroke:#000;"/><circle cx="1020.14" cy="1020.74" r="10" style="fill:#fc2e30;stroke-width:1px;stroke-linejoin:round;stroke-miterlimit:1.41421;stroke:#000;"/></g><g><circle cx="1720.14" cy="620.742" r="20" style="fill:#fcd1d1;stroke-width:1px;stroke-linejoin:round;stroke-miterlimit:1.41421;stroke:#000;"/><circle cx="1720.14" cy="620.742" r="10" style="fill:#fc2e30;stroke-width:1px;stroke-linejoin:round;stroke-miterlimit:1.41421;stroke:#000;"/></g><g><circle cx="480.142" cy="620.742" r="20" style="fill:#fcd1d1;stroke-width:1px;stroke-linejoin:round;stroke-miterlimit:1.41421;stroke:#000;"/><circle cx="480.142" cy="620.742" r="10" style="fill:#fc2e30;stroke-width:1px;stroke-linejoin:round;stroke-miterlimit:1.41421;stroke:#000;"/></g><g><circle cx="1180.14" cy="220.742" r="20" style="fill:#fcd1d1;stroke-width:1px;stroke-linejoin:round;stroke-miterlimit:1.41421;stroke:#000;"/><circle cx="1180.14" cy="220.742" r="10" style="fill:#fc2e30;stroke-width:1px;stroke-linejoin:round;stroke-miterlimit:1.41421;stroke:#000;"/></g><g><circle cx="1180.14" cy="1020.74" r="20" style="fill:#fcd1d1;stroke-width:1px;stroke-linejoin:round;stroke-miterlimit:1.41421;stroke:#000;"/><circle cx="1180.14" cy="1020.74" r="10" style="fill:#fc2e30;stroke-width:1px;stroke-linejoin:round;stroke-miterlimit:1.41421;stroke:#000;"/></g><g><circle cx="1820.14" cy="620.742" r="20" style="fill:#fcd1d1;stroke-width:1px;stroke-linejoin:round;stroke-miterlimit:1.41421;stroke:#000;"/><circle cx="1820.14" cy="620.742" r="10" style="fill:#fc2e30;stroke-width:1px;stroke-linejoin:round;stroke-miterlimit:1.41421;stroke:#000;"/></g><path d="M157.498,700.742c53.921,0 161.763,0 242.644,0c90.441,0 221.913,62.469 300,0c83.334,-66.667 84.11,-368.159 200,-400c99.706,-27.395 283.89,-20.249 400,0c132.373,23.084 200,333.333 300,400c83.205,55.47 216.667,0 300,0c66.667,0 155.556,0 200,0" style="fill:none;stroke-width:18px;stroke-linejoin:round;stroke-miterlimit:1.41421;stroke:#14a90c;stroke-opacity:0.698039;"/><path d="M300.142,700.742l-159,49.247l0,-98.495l159,49.248Z" style="fill:#000;"/></svg>