<?xml version="1.0" standalone="no"?><!DOCTYPE svg PUBLIC "-//W3C//DTD SVG 1.1//EN" "http://www.w3.org/Graphics/SVG/1.1/DTD/svg11.dtd"><svg width="100%" height="100%" viewBox="0 0 2301 1301" version="1.1" xmlns="http://www.w3.org/2000/svg" xmlns:xlink="http://www.w3.org/1999/xlink" xml:space="preserve" style="fill-rule:evenodd;clip-rule:evenodd;stroke-linejoin:round;stroke-miterlimit:1.41421;"><clipPath id="_clip1"><rect id="little general" x="0.682" y="0.201" width="2300" height="1300"/></clipPath><g clip-path="url(#_clip1)"><g id="Layer4"><path d="M200.682,300.201l0,-100l1800,0.902l0,99.098" style="fill:none;stroke-width:4.5px;stroke:#000;"/><path d="M2000.68,500.201l0,600l-1800,0l0,-600" style="fill:none;stroke-width:4.5px;stroke:#000;"/></g><g id="Layer3"><g><path d="M220.682,200.201c0,-11.038 -8.961,-20 -20,-20c-11.038,0 -20,8.962 -20,20c0,11.038 8.962,20 20,20c11.039,0 20,-8.962 20,-20Z" style="fill:#fcd1d1;stroke-width:1px;stroke:#000;"/><path d="M210.682,200.201c0,-5.519 -4.481,-10 -10,-10c-5.519,0 -10,4.481 -10,10c0,5.519 4.481,10 10,10c5.519,0 10,-4.481 10,-10Z" style="fill:#fc2e30;stroke-width:1px;stroke:#000;"/></g><g><path d="M420.682,200.201c0,-11.038 -8.961,-20 -20,-20c-11.038,0 -20,8.962 -20,20c0,11.038 8.962,20 20,20c11.039,0 20,-8.962 20,-20Z" style="fill:#fcd1d1;stroke-width:1px;stroke:#000;"/><path d="M410.682,200.201c0,-5.519 -4.481,-10 -10,-10c-5.519,0 -10,4.481 -10,10c0,5.519 4.481,10 10,10c5.519,0 10,-4.481 10,-10Z" style="fill:#fc2e30;stroke-width:1px;stroke:#000;"/></g><g><path d="M620.682,200.201c0,-11.038 -8.961,-20 -20,-20c-11.038,0 -20,8.962 -20,20c0,11.038 8.962,20 20,20c11.039,0 20,-8.962 20,-20Z" style="fill:#fcd1d1;stroke-width:1px;stroke:#000;"/><path d="M610.682,200.201c0,-5.519 -4.481,-10 -10,-10c-5.519,0 -10,4.481 -10,10c0,5.519 4.481,10 10,10c5.519,0 10,-4.481 10,-10Z" style="fill:#fc2e30;stroke-width:1px;stroke:#000;"/></g><g><path d="M820.682,200.201c0,-11.038 -8.961,-20 -20,-20c-11.038,0 -20,8.962 -20,20c0,11.038 8.962,20 20,20c11.039,0 20,-8.962 20,-20Z" style="fill:#fcd1d1;stroke-width:1px;stroke:#000;"/><path d="M810.682,200.201c0,-5.519 -4.481,-10 -10,-10c-5.519,0 -10,4.481 -10,10c0,5.519 4.481,10 10,10c5.519,0 10,-4.481 10,-10Z" style="fill:#fc2e30;stroke-width:1px;stroke:#000;"/></g><g><path d="M1020.68,200.201c0,-11.038 -8.961,-20 -20,-20c-11.038,0 -20,8.962 -20,20c0,11.038 8.962,20 20,20c11.039,0 20,-8.962 20,-20Z" style="fill:#fcd1d1;stroke-width:1px;stroke:#000;"/><path d="M1010.68,200.201c0,-5.519 -4.481,-10 -10,-10c-5.519,0 -10,4.481 -10,10c0,5.519 4.481,10 10,10c5.519,0 10,-4.481 10,-10Z" style="fill:#fc2e30;stroke-width:1px;stroke:#000;"/></g><g><path d="M1220.68,200.201c0,-11.038 -8.961,-20 -20,-20c-11.038,0 -20,8.962 -20,20c0,11.038 8.962,20 20,20c11.039,0 20,-8.962 20,-20Z" style="fill:#fcd1d1;stroke-width:1px;stroke:#000;"/><path d="M1210.68,200.201c0,-5.519 -4.481,-10 -10,-10c-5.519,0 -10,4.481 -10,10c0,5.519 4.481,10 10,10c5.519,0 10,-4.481 10,-10Z" style="fill:#fc2e30;stroke-width:1px;stroke:#000;"/></g><g><path d="M1420.68,200.201c0,-11.038 -8.961,-20 -20,-20c-11.038,0 -20,8.962 -20,20c0,11.038 8.962,20 20,20c11.039,0 20,-8.962 20,-20Z" style="fill:#fcd1d1;stroke-width:1px;stroke:#000;"/><path d="M1410.68,200.201c0,-5.519 -4.481,-10 -10,-10c-5.519,0 -10,4.481 -10,10c0,5.519 4.481,10 10,10c5.519,0 10,-4.481 10,-10Z" style="fill:#fc2e30;stroke-width:1px;stroke:#000;"/></g><g><path d="M1620.68,200.201c0,-11.038 -8.961,-20 -20,-20c-11.038,0 -20,8.962 -20,20c0,11.038 8.962,20 20,20c11.039,0 20,-8.962 20,-20Z" style="fill:#fcd1d1;stroke-width:1px;stroke:#000;"/><path d="M1610.68,200.201c0,-5.519 -4.481,-10 -10,-10c-5.519,0 -10,4.481 -10,10c0,5.519 4.481,10 10,10c5.519,0 10,-4.481 10,-10Z" style="fill:#fc2e30;stroke-width:1px;stroke:#000;"/></g><g><path d="M1820.68,200.201c0,-11.038 -8.961,-20 -20,-20c-11.038,0 -20,8.962 -20,20c0,11.038 8.962,20 20,20c11.039,0 20,-8.962 20,-20Z" style="fill:#fcd1d1;stroke-width:1px;stroke:#000;"/><path d="M1810.68,200.201c0,-5.519 -4.481,-10 -10,-10c-5.519,0 -10,4.481 -10,10c0,5.519 4.481,10 10,10c5.519,0 10,-4.481 10,-10Z" style="fill:#fc2e30;stroke-width:1px;stroke:#000;"/></g><g><path d="M220.682,300.201c0,-11.038 -8.961,-20 -20,-20c-11.038,0 -20,8.962 -20,20c0,11.038 8.962,20 20,20c11.039,0 20,-8.962 20,-20Z" style="fill:#fcd1d1;stroke-width:1px;stroke:#000;"/><path d="M210.682,300.201c0,-5.519 -4.481,-10 -10,-10c-5.519,0 -10,4.481 -10,10c0,5.519 4.481,10 10,10c5.519,0 10,-4.481 10,-10Z" style="fill:#fc2e30;stroke-width:1px;stroke:#000;"/></g><g><path d="M220.682,500.201c0,-11.038 -8.961,-20 -20,-20c-11.038,0 -20,8.962 -20,20c0,11.038 8.962,20 20,20c11.039,0 20,-8.962 20,-20Z" style="fill:#fcd1d1;stroke-width:1px;stroke:#000;"/><path d="M210.682,500.201c0,-5.519 -4.481,-10 -10,-10c-5.519,0 -10,4.481 -10,10c0,5.519 4.481,10 10,10c5.519,0 10,-4.481 10,-10Z" style="fill:#fc2e30;stroke-width:1px;stroke:#000;"/></g><g><path d="M220.682,1100.2c0,-11.038 -8.961,-20 -20,-20c-11.038,0 -20,8.962 -20,20c0,11.038 8.962,20 20,20c11.039,0 20,-8.962 20,-20Z" style="fill:#fcd1d1;stroke-width:1px;stroke:#000;"/><path d="M210.682,1100.2c0,-5.519 -4.481,-10 -10,-10c-5.519,0 -10,4.481 -10,10c0,5.519 4.481,10 10,10c5.519,0 10,-4.481 10,-10Z" style="fill:#fc2e30;stroke-width:1px;stroke:#000;"/></g><g><path d="M420.682,1100.2c0,-11.038 -8.961,-20 -20,-20c-11.038,0 -20,8.962 -20,20c0,11.038 8.962,20 20,20c11.039,0 20,-8.962 20,-20Z" style="fill:#fcd1d1;stroke-width:1px;stroke:#000;"/><path d="M410.682,1100.2c0,-5.519 -4.481,-10 -10,-10c-5.519,0 -10,4.481 -10,10c0,5.519 4.481,10 10,10c5.519,0 10,-4.481 10,-10Z" style="fill:#fc2e30;stroke-width:1px;stroke:#000;"/></g><g><path d="M620.682,1100.2c0,-11.038 -8.961,-20 -20,-20c-11.038,0 -20,8.962 -20,20c0,11.038 8.962,20 20,20c11.039,0 20,-8.962 20,-20Z" style="fill:#fcd1d1;stroke-width:1px;stroke:#000;"/><path d="M610.682,1100.2c0,-5.519 -4.481,-10 -10,-10c-5.519,0 -10,4.481 -10,10c0,5.519 4.481,10 10,10c5.519,0 10,-4.481 10,-10Z" style="fill:#fc2e30;stroke-width:1px;stroke:#000;"/></g><g><path d="M220.682,900.201c0,-11.038 -8.961,-20 -20,-20c-11.038,0 -20,8.962 -20,20c0,11.038 8.962,20 20,20c11.039,0 20,-8.962 20,-20Z" style="fill:#fcd1d1;stroke-width:1px;stroke:#000;"/><path d="M210.682,900.201c0,-5.519 -4.481,-10 -10,-10c-5.519,0 -10,4.481 -10,10c0,5.519 4.481,10 10,10c5.519,0 10,-4.481 10,-10Z" style="fill:#fc2e30;stroke-width:1px;stroke:#000;"/></g><g><path d="M220.682,700.201c0,-11.038 -8.961,-20 -20,-20c-11.038,0 -20,8.962 -20,20c0,11.038 8.962,20 20,20c11.039,0 20,-8.962 20,-20Z" style="fill:#fcd1d1;stroke-width:1px;stroke:#000;"/><path d="M210.682,700.201c0,-5.519 -4.481,-10 -10,-10c-5.519,0 -10,4.481 -10,10c0,5.519 4.481,10 10,10c5.519,0 10,-4.481 10,-10Z" style="fill:#fc2e30;stroke-width:1px;stroke:#000;"/></g><g><path d="M820.682,880.201c0,-11.038 -8.961,-20 -20,-20c-11.038,0 -20,8.962 -20,20c0,11.038 8.962,20 20,20c11.039,0 20,-8.962 20,-20Z" style="fill:#fcd1d1;stroke-width:1px;stroke:#000;"/><path d="M810.682,880.201c0,-5.519 -4.481,-10 -10,-10c-5.519,0 -10,4.481 -10,10c0,5.519 4.481,10 10,10c5.519,0 10,-4.481 10,-10Z" style="fill:#fc2e30;stroke-width:1px;stroke:#000;"/></g><g><path d="M1020.68,420.201c0,-11.038 -8.961,-20 -20,-20c-11.038,0 -20,8.962 -20,20c0,11.038 8.962,20 20,20c11.039,0 20,-8.962 20,-20Z" style="fill:#fcd1d1;stroke-width:1px;stroke:#000;"/><path d="M1010.68,420.201c0,-5.519 -4.481,-10 -10,-10c-5.519,0 -10,4.481 -10,10c0,5.519 4.481,10 10,10c5.519,0 10,-4.481 10,-10Z" style="fill:#fc2e30;stroke-width:1px;stroke:#000;"/></g><g><path d="M1220.68,880.201c0,-11.038 -8.961,-20 -20,-20c-11.038,0 -20,8.962 -20,20c0,11.038 8.962,20 20,20c11.039,0 20,-8.962 20,-20Z" style="fill:#fcd1d1;stroke-width:1px;stroke:#000;"/><path d="M1210.68,880.201c0,-5.519 -4.481,-10 -10,-10c-5.519,0 -10,4.481 -10,10c0,5.519 4.481,10 10,10c5.519,0 10,-4.481 10,-10Z" style="fill:#fc2e30;stroke-width:1px;stroke:#000;"/></g><g><path d="M1420.68,420.201c0,-11.038 -8.961,-20 -20,-20c-11.038,0 -20,8.962 -20,20c0,11.038 8.962,20 20,20c11.039,0 20,-8.962 20,-20Z" style="fill:#fcd1d1;stroke-width:1px;stroke:#000;"/><path d="M1410.68,420.201c0,-5.519 -4.481,-10 -10,-10c-5.519,0 -10,4.481 -10,10c0,5.519 4.481,10 10,10c5.519,0 10,-4.481 10,-10Z" style="fill:#fc2e30;stroke-width:1px;stroke:#000;"/></g><g><path d="M2020.68,200.201c0,-11.038 -8.961,-20 -20,-20c-11.038,0 -20,8.962 -20,20c0,11.038 8.962,20 20,20c11.039,0 20,-8.962 20,-20Z" style="fill:#fcd1d1;stroke-width:1px;stroke:#000;"/><path d="M2010.68,200.201c0,-5.519 -4.481,-10 -10,-10c-5.519,0 -10,4.481 -10,10c0,5.519 4.481,10 10,10c5.519,0 10,-4.481 10,-10Z" style="fill:#fc2e30;stroke-width:1px;stroke:#000;"/></g><g><path d="M1620.68,880.201c0,-11.038 -8.961,-20 -20,-20c-11.038,0 -20,8.962 -20,20c0,11.038 8.962,20 20,20c11.039,0 20,-8.962 20,-20Z" style="fill:#fcd1d1;stroke-width:1px;stroke:#000;"/><path d="M1610.68,880.201c0,-5.519 -4.481,-10 -10,-10c-5.519,0 -10,4.481 -10,10c0,5.519 4.481,10 10,10c5.519,0 10,-4.481 10,-10Z" style="fill:#fc2e30;stroke-width:1px;stroke:#000;"/></g><g><path d="M1820.68,420.201c0,-11.038 -8.961,-20 -20,-20c-11.038,0 -20,8.962 -20,20c0,11.038 8.962,20 20,20c11.039,0 20,-8.962 20,-20Z" style="fill:#fcd1d1;stroke-width:1px;stroke:#000;"/><path d="M1810.68,420.201c0,-5.519 -4.481,-10 -10,-10c-5.519,0 -10,4.481 -10,10c0,5.519 4.481,10 10,10c5.519,0 10,-4.481 10,-10Z" style="fill:#fc2e30;stroke-width:1px;stroke:#000;"/></g><g><path d="M2020.68,500.201c0,-11.038 -8.961,-20 -20,-20c-11.038,0 -20,8.962 -20,20c0,11.038 8.962,20 20,20c11.039,0 20,-8.962 20,-20Z" style="fill:#fcd1d1;stroke-width:1px;stroke:#000;"/><path d="M2010.68,500.201c0,-5.519 -4.481,-10 -10,-10c-5.519,0 -10,4.481 -10,10c0,5.519 4.481,10 10,10c5.519,0 10,-4.481 10,-10Z" style="fill:#fc2e30;stroke-width:1px;stroke:#000;"/></g><g><path d="M2020.68,1100.2c0,-11.038 -8.961,-20 -20,-20c-11.038,0 -20,8.962 -20,20c0,11.038 8.962,20 20,20c11.039,0 20,-8.962 20,-20Z" style="fill:#fcd1d1;stroke-width:1px;stroke:#000;"/><path d="M2010.68,1100.2c0,-5.519 -4.481,-10 -10,-10c-5.519,0 -10,4.481 -10,10c0,5.519 4.481,10 10,10c5.519,0 10,-4.481 10,-10Z" style="fill:#fc2e30;stroke-width:1px;stroke:#000;"/></g><g><path d="M2020.68,700.201c0,-11.038 -8.961,-20 -20,-20c-11.038,0 -20,8.962 -20,20c0,11.038 8.962,20 20,20c11.039,0 20,-8.962 20,-20Z" style="fill:#fcd1d1;stroke-width:1px;stroke:#000;"/><path d="M2010.68,700.201c0,-5.519 -4.481,-10 -10,-10c-5.519,0 -10,4.481 -10,10c0,5.519 4.481,10 10,10c5.519,0 10,-4.481 10,-10Z" style="fill:#fc2e30;stroke-width:1px;stroke:#000;"/></g><g><path d="M2020.68,900.201c0,-11.038 -8.961,-20 -20,-20c-11.038,0 -20,8.962 -20,20c0,11.038 8.962,20 20,20c11.039,0 20,-8.962 20,-20Z" style="fill:#fcd1d1;stroke-width:1px;stroke:#000;"/><path d="M2010.68,900.201c0,-5.519 -4.481,-10 -10,-10c-5.519,0 -10,4.481 -10,10c0,5.519 4.481,10 10,10c5.519,0 10,-4.481 10,-10Z" style="fill:#fc2e30;stroke-width:1px;stroke:#000;"/></g><g><path d="M1820.68,1100.2c0,-11.038 -8.961,-20 -20,-20c-11.038,0 -20,8.962 -20,20c0,11.038 8.962,20 20,20c11.039,0 20,-8.962 20,-20Z" style="fill:#fcd1d1;stroke-width:1px;stroke:#000;"/><path d="M1810.68,1100.2c0,-5.519 -4.481,-10 -10,-10c-5.519,0 -10,4.481 -10,10c0,5.519 4.481,10 10,10c5.519,0 10,-4.481 10,-10Z" style="fill:#fc2e30;stroke-width:1px;stroke:#000;"/></g><g><path d="M1620.68,1100.2c0,-11.038 -8.961,-20 -20,-20c-11.038,0 -20,8.962 -20,20c0,11.038 8.962,20 20,20c11.039,0 20,-8.962 20,-20Z" style="fill:#fcd1d1;stroke-width:1px;stroke:#000;"/><path d="M1610.68,1100.2c0,-5.519 -4.481,-10 -10,-10c-5.519,0 -10,4.481 -10,10c0,5.519 4.481,10 10,10c5.519,0 10,-4.481 10,-10Z" style="fill:#fc2e30;stroke-width:1px;stroke:#000;"/></g><g><path d="M1420.68,1100.2c0,-11.038 -8.961,-20 -20,-20c-11.038,0 -20,8.962 -20,20c0,11.038 8.962,20 20,20c11.039,0 20,-8.962 20,-20Z" style="fill:#fcd1d1;stroke-width:1px;stroke:#000;"/><path d="M1410.68,1100.2c0,-5.519 -4.481,-10 -10,-10c-5.519,0 -10,4.481 -10,10c0,5.519 4.481,10 10,10c5.519,0 10,-4.481 10,-10Z" style="fill:#fc2e30;stroke-width:1px;stroke:#000;"/></g><g><path d="M1220.68,1100.2c0,-11.038 -8.961,-20 -20,-20c-11.038,0 -20,8.962 -20,20c0,11.038 8.962,20 20,20c11.039,0 20,-8.962 20,-20Z" style="fill:#fcd1d1;stroke-width:1px;stroke:#000;"/><path d="M1210.68,1100.2c0,-5.519 -4.481,-10 -10,-10c-5.519,0 -10,4.481 -10,10c0,5.519 4.481,10 10,10c5.519,0 10,-4.481 10,-10Z" style="fill:#fc2e30;stroke-width:1px;stroke:#000;"/></g><g><path d="M1020.68,1100.2c0,-11.038 -8.961,-20 -20,-20c-11.038,0 -20,8.962 -20,20c0,11.038 8.962,20 20,20c11.039,0 20,-8.962 20,-20Z" style="fill:#fcd1d1;stroke-width:1px;stroke:#000;"/><path d="M1010.68,1100.2c0,-5.519 -4.481,-10 -10,-10c-5.519,0 -10,4.481 -10,10c0,5.519 4.481,10 10,10c5.519,0 10,-4.481 10,-10Z" style="fill:#fc2e30;stroke-width:1px;stroke:#000;"/></g><g><path d="M820.682,1100.2c0,-11.038 -8.961,-20 -20,-20c-11.038,0 -20,8.962 -20,20c0,11.038 8.962,20 20,20c11.039,0 20,-8.962 20,-20Z" style="fill:#fcd1d1;stroke-width:1px;stroke:#000;"/><path d="M810.682,1100.2c0,-5.519 -4.481,-10 -10,-10c-5.519,0 -10,4.481 -10,10c0,5.519 4.481,10 10,10c5.519,0 10,-4.481 10,-10Z" style="fill:#fc2e30;stroke-width:1px;stroke:#000;"/></g><g><path d="M2020.68,300.201c0,-11.038 -8.961,-20 -20,-20c-11.038,0 -20,8.962 -20,20c0,11.038 8.962,20 20,20c11.039,0 20,-8.962 20,-20Z" style="fill:#fcd1d1;stroke-width:1px;stroke:#000;"/><path d="M2010.68,300.201c0,-5.519 -4.481,-10 -10,-10c-5.519,0 -10,4.481 -10,10c0,5.519 4.481,10 10,10c5.519,0 10,-4.481 10,-10Z" style="fill:#fc2e30;stroke-width:1px;stroke:#000;"/></g><g><path d="M420.682,880.201c0,-11.038 -8.961,-20 -20,-20c-11.038,0 -20,8.962 -20,20c0,11.038 8.962,20 20,20c11.039,0 20,-8.962 20,-20Z" style="fill:#fcd1d1;stroke-width:1px;stroke:#000;"/><path d="M410.682,880.201c0,-5.519 -4.481,-10 -10,-10c-5.519,0 -10,4.481 -10,10c0,5.519 4.481,10 10,10c5.519,0 10,-4.481 10,-10Z" style="fill:#fc2e30;stroke-width:1px;stroke:#000;"/></g><g><path d="M620.682,420.201c0,-11.038 -8.961,-20 -20,-20c-11.038,0 -20,8.962 -20,20c0,11.038 8.962,20 20,20c11.039,0 20,-8.962 20,-20Z" style="fill:#fcd1d1;stroke-width:1px;stroke:#000;"/><path d="M610.682,420.201c0,-5.519 -4.481,-10 -10,-10c-5.519,0 -10,4.481 -10,10c0,5.519 4.481,10 10,10c5.519,0 10,-4.481 10,-10Z" style="fill:#fc2e30;stroke-width:1px;stroke:#000;"/></g></g><path d="M170.682,400.201c47.112,-0.663 141.336,-1.988 150,50c13.334,80 -85.768,343.422 -70,430c43.147,236.898 297.34,217.362 320,0c8.8,-84.412 -161.801,-393.48 -150,-480c26.58,-194.867 319.721,-197.49 360,0c17.195,84.304 -181.471,394.729 -170,480c28.98,215.419 320.084,243.754 360,0c14.222,-86.846 -154.276,-393.854 -140,-480c31.997,-193.076 315.096,-201.926 350,0c14.655,84.782 -170.976,394.031 -160,480c27.515,215.504 320.026,232.981 360,0c14.396,-83.905 -172.987,-385.866 -160,-470c33.37,-216.18 326.702,-212.204 360,0c13.197,84.101 -173.498,385.946 -160,470c33.263,207.132 324.912,238.136 360,0c12.507,-84.881 -155.336,-385.842 -150,-470c8.475,-133.67 193.574,-183.097 270,-70c55.987,82.85 150.629,62.312 230,60" style="fill:none;stroke-width:8px;stroke-dasharray:24,48,0,0;stroke:#14a90c;stroke-opacity:0.698039;"/><g id="grid"><g id="bold lines"><path d="M700.682,100.201l0,2800" style="fill:none;stroke-width:1px;stroke-miterlimit:1;stroke:#000;stroke-opacity:0.298039;"/><path d="M100.682,700.201l2600,0" style="fill:none;stroke-width:1px;stroke-miterlimit:1;stroke:#000;stroke-opacity:0.298039;"/><path d="M1200.68,100.201l0,2800" style="fill:none;stroke-width:1px;stroke-miterlimit:1;stroke:#000;stroke-opacity:0.298039;"/><path d="M1700.68,100.201l0,2800" style="fill:none;stroke-width:1px;stroke-miterlimit:1;stroke:#000;stroke-opacity:0.298039;"/><path d="M2200.68,100.201l0,2800" style="fill:none;stroke-width:1px;stroke-miterlimit:1;stroke:#000;stroke-opacity:0.298039;"/><path d="M100.682,1200.2l2600,0" style="fill:none;stroke-width:1px;stroke-miterlimit:1;stroke:#000;stroke-opacity:0.298039;"/><path d="M100.682,200.201l2600,0" style="fill:none;stroke-width:1px;stroke-miterlimit:1;stroke:#000;stroke-opacity:0.298039;"/><path d="M200.682,2900.2l0,-2800" style="fill:none;stroke-width:1px;stroke-miterlimit:1;stroke:#000;stroke-opacity:0.298039;"/></g><g id="vertical lines"><path d="M100.682,100.201l0,2800" style="fill:none;stroke-width:1px;stroke-linejoin:miter;stroke-miterlimit:1;stroke-dasharray:10,44,2,44;stroke-dashoffset:5;stroke:#000;"/><path d="M700.682,100.201l0,2800" style="fill:none;stroke-width:1px;stroke-linejoin:miter;stroke-miterlimit:1;stroke-dasharray:10,44,2,44;stroke-dashoffset:5;stroke:#000;"/><path d="M1300.68,100.201l0,2800" style="fill:none;stroke-width:1px;stroke-linejoin:miter;stroke-miterlimit:1;stroke-dasharray:10,44,2,44;stroke-dashoffset:5;stroke:#000;"/><path d="M1900.68,100.201l0,2800" style="fill:none;stroke-width:1px;stroke-linejoin:miter;stroke-miterlimit:1;stroke-dasharray:10,44,2,44;stroke-dashoffset:5;stroke:#000;"/><path d="M300.682,100.201l0,2800" style="fill:none;stroke-width:1px;stroke-linejoin:miter;stroke-miterlimit:1;stroke-dasharray:10,44,2,44;stroke-dashoffset:5;stroke:#000;"/><path d="M900.682,100.201l0,2800" style="fill:none;stroke-width:1px;stroke-linejoin:miter;stroke-miterlimit:1;stroke-dasharray:10,44,2,44;stroke-dashoffset:5;stroke:#000;"/><path d="M1500.68,100.201l0,2800" style="fill:none;stroke-width:1px;stroke-linejoin:miter;stroke-miterlimit:1;stroke-dasharray:10,44,2,44;stroke-dashoffset:5;stroke:#000;"/><path d="M2100.68,100.201l0,2800" style="fill:none;stroke-width:1px;stroke-linejoin:miter;stroke-miterlimit:1;stroke-dasharray:10,44,2,44;stroke-dashoffset:5;stroke:#000;"/><path d="M500.682,100.201l0,2800" style="fill:none;stroke-width:1px;stroke-linejoin:miter;stroke-miterlimit:1;stroke-dasharray:10,44,2,44;stroke-dashoffset:5;stroke:#000;"/><path d="M1100.68,100.201l0,2800" style="fill:none;stroke-width:1px;stroke-linejoin:miter;stroke-miterlimit:1;stroke-dasharray:10,44,2,44;stroke-dashoffset:5;stroke:#000;"/><path d="M1700.68,100.201l0,2800" style="fill:none;stroke-width:1px;stroke-linejoin:miter;stroke-miterlimit:1;stroke-dasharray:10,44,2,44;stroke-dashoffset:5;stroke:#000;"/><path d="M2300.68,100.201l0,2800" style="fill:none;stroke-width:1px;stroke-linejoin:miter;stroke-miterlimit:1;stroke-dasharray:10,44,2,44;stroke-dashoffset:5;stroke:#000;"/><path d="M200.682,100.201l0,2800" style="fill:none;stroke-width:1px;stroke-linejoin:miter;stroke-miterlimit:1;stroke-dasharray:10,44,2,44;stroke-dashoffset:5;stroke:#000;"/><path d="M800.682,100.201l0,2800" style="fill:none;stroke-width:1px;stroke-linejoin:miter;stroke-miterlimit:1;stroke-dasharray:10,44,2,44;stroke-dashoffset:5;stroke:#000;"/><path d="M1400.68,100.201l0,2800" style="fill:none;stroke-width:1px;stroke-linejoin:miter;stroke-miterlimit:1;stroke-dasharray:10,44,2,44;stroke-dashoffset:5;stroke:#000;"/><path d="M2000.68,100.201l0,2800" style="fill:none;stroke-width:1px;stroke-linejoin:miter;stroke-miterlimit:1;stroke-dasharray:10,44,2,44;stroke-dashoffset:5;stroke:#000;"/><path d="M400.682,100.201l0,2800" style="fill:none;stroke-width:1px;stroke-linejoin:miter;stroke-miterlimit:1;stroke-dasharray:10,44,2,44;stroke-dashoffset:5;stroke:#000;"/><path d="M1000.68,100.201l0,2800" style="fill:none;stroke-width:1px;stroke-linejoin:miter;stroke-miterlimit:1;stroke-dasharray:10,44,2,44;stroke-dashoffset:5;stroke:#000;"/><path d="M1600.68,100.201l0,2800" style="fill:none;stroke-width:1px;stroke-linejoin:miter;stroke-miterlimit:1;stroke-dasharray:10,44,2,44;stroke-dashoffset:5;stroke:#000;"/><path d="M2200.68,100.201l0,2800" style="fill:none;stroke-width:1px;stroke-linejoin:miter;stroke-miterlimit:1;stroke-dasharray:10,44,2,44;stroke-dashoffset:5;stroke:#000;"/><path d="M600.682,100.201l0,2800" style="fill:none;stroke-width:1px;stroke-linejoin:miter;stroke-miterlimit:1;stroke-dasharray:10,44,2,44;stroke-dashoffset:5;stroke:#000;"/><path d="M1200.68,100.201l0,2800" style="fill:none;stroke-width:1px;stroke-linejoin:miter;stroke-miterlimit:1;stroke-dasharray:10,44,2,44;stroke-dashoffset:5;stroke:#000;"/><path d="M1800.68,100.201l0,2800" style="fill:none;stroke-width:1px;stroke-linejoin:miter;stroke-miterlimit:1;stroke-dasharray:10,44,2,44;stroke-dashoffset:5;stroke:#000;"/></g><g id="horizontal lines"><path d="M100.682,100.201l2600,0" style="fill:none;stroke-width:1px;stroke-dasharray:10,44,2,44;stroke-dashoffset:5;stroke:#000;"/><path d="M100.682,500.201l2600,0" style="fill:none;stroke-width:1px;stroke-dasharray:10,44,2,44;stroke-dashoffset:5;stroke:#000;"/><path d="M100.682,900.201l2600,0" style="fill:none;stroke-width:1px;stroke-dasharray:10,44,2,44;stroke-dashoffset:5;stroke:#000;"/><path d="M100.682,1300.2l2600,0" style="fill:none;stroke-width:1px;stroke-dasharray:10,44,2,44;stroke-dashoffset:5;stroke:#000;"/><path d="M2700.68,200.201l-2600,0" style="fill:none;stroke-width:1px;stroke-dasharray:10,44,2,44;stroke-dashoffset:5;stroke:#000;"/><path d="M2700.68,600.201l-2600,0" style="fill:none;stroke-width:1px;stroke-dasharray:10,44,2,44;stroke-dashoffset:5;stroke:#000;"/><path d="M2700.68,1000.2l-2600,0" style="fill:none;stroke-width:1px;stroke-dasharray:10,44,2,44;stroke-dashoffset:5;stroke:#000;"/><path d="M100.682,300.201l2600,0" style="fill:none;stroke-width:1px;stroke-dasharray:10,44,2,44;stroke-dashoffset:5;stroke:#000;"/><path d="M100.682,700.201l2600,0" style="fill:none;stroke-width:1px;stroke-dasharray:10,44,2,44;stroke-dashoffset:5;stroke:#000;"/><path d="M100.682,1100.2l2600,0" style="fill:none;stroke-width:1px;stroke-dasharray:10,44,2,44;stroke-dashoffset:5;stroke:#000;"/><path d="M100.682,400.201l2600,0" style="fill:none;stroke-width:1px;stroke-dasharray:10,44,2,44;stroke-dashoffset:5;stroke:#000;"/><path d="M100.682,800.201l2600,0" style="fill:none;stroke-width:1px;stroke-dasharray:10,44,2,44;stroke-dashoffset:5;stroke:#000;"/><path d="M100.682,1200.2l2600,0" style="fill:none;stroke-width:1px;stroke-dasharray:10,44,2,44;stroke-dashoffset:5;stroke:#000;"/></g><g id="top labels"><rect x="150.682" y="50.201" width="100" height="50" style="fill:#808080;stroke-width:1px;stroke:#000;"/><rect x="650.682" y="50.201" width="100" height="50" style="fill:#808080;stroke-width:1px;stroke:#000;"/><rect x="1150.68" y="50.201" width="100" height="50" style="fill:#808080;stroke-width:1px;stroke:#000;"/><rect x="1650.68" y="50.201" width="100" height="50" style="fill:#808080;stroke-width:1px;stroke:#000;"/><rect x="2150.68" y="50.201" width="100" height="50" style="fill:#808080;stroke-width:1px;stroke:#000;"/><rect x="250.682" y="50.201" width="100" height="50" style="fill:#808080;stroke-width:1px;stroke:#000;"/><rect x="750.682" y="50.201" width="100" height="50" style="fill:#808080;stroke-width:1px;stroke:#000;"/><rect x="1250.68" y="50.201" width="100" height="50" style="fill:#808080;stroke-width:1px;stroke:#000;"/><rect x="1750.68" y="50.201" width="100" height="50" style="fill:#808080;stroke-width:1px;stroke:#000;"/><rect x="2250.68" y="50.201" width="100" height="50" style="fill:#808080;stroke-width:1px;stroke:#000;"/><rect x="350.682" y="50.201" width="100" height="50" style="fill:#808080;stroke-width:1px;stroke:#000;"/><rect x="850.682" y="50.201" width="100" height="50" style="fill:#808080;stroke-width:1px;stroke:#000;"/><rect x="1350.68" y="50.201" width="100" height="50" style="fill:#808080;stroke-width:1px;stroke:#000;"/><rect x="1850.68" y="50.201" width="100" height="50" style="fill:#808080;stroke-width:1px;stroke:#000;"/><rect x="450.682" y="50.201" width="100" height="50" style="fill:#808080;stroke-width:1px;stroke:#000;"/><rect x="950.682" y="50.201" width="100" height="50" style="fill:#808080;stroke-width:1px;stroke:#000;"/><rect x="1450.68" y="50.201" width="100" height="50" style="fill:#808080;stroke-width:1px;stroke:#000;"/><rect x="1950.68" y="50.201" width="100" height="50" style="fill:#808080;stroke-width:1px;stroke:#000;"/><rect x="550.682" y="50.201" width="100" height="50" style="fill:#808080;stroke-width:1px;stroke:#000;"/><rect x="1050.68" y="50.201" width="100" height="50" style="fill:#808080;stroke-width:1px;stroke:#000;"/><rect x="1550.68" y="50.201" width="100" height="50" style="fill:#808080;stroke-width:1px;stroke:#000;"/><rect x="2050.68" y="50.201" width="100" height="50" style="fill:#808080;stroke-width:1px;stroke:#000;"/><text x="188.692px" y="89.28px" style="font-family:'ArialMT';font-size:36px;fill:#000;stroke-width:1px;stroke:#000;">A</text><text x="688.692px" y="89.28px" style="font-family:'ArialMT';font-size:36px;fill:#000;stroke-width:1px;stroke:#000;">F</text><text x="1188.69px" y="89.28px" style="font-family:'ArialMT';font-size:36px;fill:#000;stroke-width:1px;stroke:#000;">K</text><text x="1688.69px" y="89.28px" style="font-family:'ArialMT';font-size:36px;fill:#000;stroke-width:1px;stroke:#000;">P</text><text x="2188.69px" y="89.28px" style="font-family:'ArialMT';font-size:36px;fill:#000;stroke-width:1px;stroke:#000;">U</text><text x="288.692px" y="89.28px" style="font-family:'ArialMT';font-size:36px;fill:#000;stroke-width:1px;stroke:#000;">B</text><text x="788.692px" y="89.28px" style="font-family:'ArialMT';font-size:36px;fill:#000;stroke-width:1px;stroke:#000;">G</text><text x="1288.69px" y="89.28px" style="font-family:'ArialMT';font-size:36px;fill:#000;stroke-width:1px;stroke:#000;">L</text><text x="1788.69px" y="89.28px" style="font-family:'ArialMT';font-size:36px;fill:#000;stroke-width:1px;stroke:#000;">Q</text><text x="2288.69px" y="89.28px" style="font-family:'ArialMT';font-size:36px;fill:#000;stroke-width:1px;stroke:#000;">V</text><text x="388.692px" y="89.28px" style="font-family:'ArialMT';font-size:36px;fill:#000;stroke-width:1px;stroke:#000;">C</text><text x="888.692px" y="89.28px" style="font-family:'ArialMT';font-size:36px;fill:#000;stroke-width:1px;stroke:#000;">H</text><text x="1388.69px" y="89.28px" style="font-family:'ArialMT';font-size:36px;fill:#000;stroke-width:1px;stroke:#000;">M</text><text x="1888.69px" y="89.28px" style="font-family:'ArialMT';font-size:36px;fill:#000;stroke-width:1px;stroke:#000;">R</text><text x="488.692px" y="89.28px" style="font-family:'ArialMT';font-size:36px;fill:#000;stroke-width:1px;stroke:#000;">D</text><text x="995.697px" y="89.28px" style="font-family:'ArialMT';font-size:36px;fill:#000;stroke-width:1px;stroke:#000;">I</text><text x="1488.69px" y="89.28px" style="font-family:'ArialMT';font-size:36px;fill:#000;stroke-width:1px;stroke:#000;">N</text><text x="1988.69px" y="89.28px" style="font-family:'ArialMT';font-size:36px;fill:#000;stroke-width:1px;stroke:#000;">S</text><text x="588.692px" y="89.28px" style="font-family:'ArialMT';font-size:36px;fill:#000;stroke-width:1px;stroke:#000;">E</text><text x="1088.69px" y="89.28px" style="font-family:'ArialMT';font-size:36px;fill:#000;stroke-width:1px;stroke:#000;">J</text><text x="1588.69px" y="89.28px" style="font-family:'ArialMT';font-size:36px;fill:#000;stroke-width:1px;stroke:#000;">O</text><text x="2088.69px" y="89.28px" style="font-family:'ArialMT';font-size:36px;fill:#000;stroke-width:1px;stroke:#000;">T</text></g><g id="top numbers"><text x="293.451px" y="45.963px" style="font-family:'ArialMT';font-size:20px;fill:#000;stroke-width:1px;stroke:#000;">1</text><text x="195.121px" y="45.963px" style="font-family:'ArialMT';font-size:20px;fill:#000;stroke-width:1px;stroke:#000;">0</text><text x="793.451px" y="45.963px" style="font-family:'ArialMT';font-size:20px;fill:#000;stroke-width:1px;stroke:#000;">6</text><text x="1288.8px" y="45.963px" style="font-family:'ArialMT';font-size:20px;fill:#000;stroke-width:1px;stroke:#000;">1<tspan x="1298.44px " y="45.963px ">1</tspan></text><text x="1789.56px" y="45.963px" style="font-family:'ArialMT';font-size:20px;fill:#000;stroke-width:1px;stroke:#000;">16</text><text x="2289.56px" y="45.963px" style="font-family:'ArialMT';font-size:20px;fill:#000;stroke-width:1px;stroke:#000;">21</text><text x="393.451px" y="45.963px" style="font-family:'ArialMT';font-size:20px;fill:#000;stroke-width:1px;stroke:#000;">2</text><text x="893.998px" y="45.963px" style="font-family:'ArialMT';font-size:20px;fill:#000;stroke-width:1px;stroke:#000;">7</text><text x="1389.56px" y="45.963px" style="font-family:'ArialMT';font-size:20px;fill:#000;stroke-width:1px;stroke:#000;">12</text><text x="1888.44px" y="45.963px" style="font-family:'ArialMT';font-size:20px;fill:#000;stroke-width:1px;stroke:#000;">17</text><text x="493.451px" y="45.963px" style="font-family:'ArialMT';font-size:20px;fill:#000;stroke-width:1px;stroke:#000;">3</text><text x="993.998px" y="45.963px" style="font-family:'ArialMT';font-size:20px;fill:#000;stroke-width:1px;stroke:#000;">8</text><text x="1489.56px" y="45.963px" style="font-family:'ArialMT';font-size:20px;fill:#000;stroke-width:1px;stroke:#000;">13</text><text x="1988.44px" y="45.963px" style="font-family:'ArialMT';font-size:20px;fill:#000;stroke-width:1px;stroke:#000;">18</text><text x="593.451px" y="45.963px" style="font-family:'ArialMT';font-size:20px;fill:#000;stroke-width:1px;stroke:#000;">4</text><text x="1094px" y="45.963px" style="font-family:'ArialMT';font-size:20px;fill:#000;stroke-width:1px;stroke:#000;">9</text><text x="1589.56px" y="45.963px" style="font-family:'ArialMT';font-size:20px;fill:#000;stroke-width:1px;stroke:#000;">14</text><text x="2088.44px" y="45.963px" style="font-family:'ArialMT';font-size:20px;fill:#000;stroke-width:1px;stroke:#000;">19</text><text x="693.451px" y="45.963px" style="font-family:'ArialMT';font-size:20px;fill:#000;stroke-width:1px;stroke:#000;">5</text><text x="1189.56px" y="45.963px" style="font-family:'ArialMT';font-size:20px;fill:#000;stroke-width:1px;stroke:#000;">10</text><text x="1688.44px" y="45.963px" style="font-family:'ArialMT';font-size:20px;fill:#000;stroke-width:1px;stroke:#000;">15</text><text x="2188.44px" y="45.963px" style="font-family:'ArialMT';font-size:20px;fill:#000;stroke-width:1px;stroke:#000;">20</text></g><g id="side labels"><rect x="50.682" y="250.201" width="50" height="100" style="fill:#808080;stroke-width:1px;stroke:#000;"/><rect x="50.682" y="150.201" width="50" height="100" style="fill:#808080;stroke-width:1px;stroke:#000;"/><rect x="50.682" y="650.201" width="50" height="100" style="fill:#808080;stroke-width:1px;stroke:#000;"/><rect x="50.682" y="1050.2" width="50" height="100" style="fill:#808080;stroke-width:1px;stroke:#000;"/><rect x="50.682" y="350.201" width="50" height="100" style="fill:#808080;stroke-width:1px;stroke:#000;"/><rect x="50.682" y="750.201" width="50" height="100" style="fill:#808080;stroke-width:1px;stroke:#000;"/><rect x="50.682" y="1150.2" width="50" height="100" style="fill:#808080;stroke-width:1px;stroke:#000;"/><rect x="50.682" y="450.201" width="50" height="100" style="fill:#808080;stroke-width:1px;stroke:#000;"/><rect x="50.682" y="850.201" width="50" height="100" style="fill:#808080;stroke-width:1px;stroke:#000;"/><rect x="50.682" y="1250.2" width="50" height="100" style="fill:#808080;stroke-width:1px;stroke:#000;"/><rect x="50.682" y="550.201" width="50" height="100" style="fill:#808080;stroke-width:1px;stroke:#000;"/><rect x="50.682" y="950.201" width="50" height="100" style="fill:#808080;stroke-width:1px;stroke:#000;"/><text x="65.667px" y="312.572px" style="font-family:'ArialMT';font-size:36px;fill:#000;stroke-width:1px;stroke:#000;">1</text><text x="65.667px" y="212.572px" style="font-family:'ArialMT';font-size:36px;fill:#000;stroke-width:1px;stroke:#000;">0</text><text x="65.667px" y="712.572px" style="font-family:'ArialMT';font-size:36px;fill:#000;stroke-width:1px;stroke:#000;">5</text><text x="65.667px" y="1112.57px" style="font-family:'ArialMT';font-size:36px;fill:#000;stroke-width:1px;stroke:#000;">9</text><text x="65.667px" y="412.572px" style="font-family:'ArialMT';font-size:36px;fill:#000;stroke-width:1px;stroke:#000;">2</text><text x="65.667px" y="812.572px" style="font-family:'ArialMT';font-size:36px;fill:#000;stroke-width:1px;stroke:#000;">6</text><text x="55.656px" y="1212.57px" style="font-family:'ArialMT';font-size:36px;fill:#000;stroke-width:1px;stroke:#000;">10</text><text x="65.667px" y="512.572px" style="font-family:'ArialMT';font-size:36px;fill:#000;stroke-width:1px;stroke:#000;">3</text><text x="65.667px" y="912.572px" style="font-family:'ArialMT';font-size:36px;fill:#000;stroke-width:1px;stroke:#000;">7</text><text x="56.992px" y="1312.57px" style="font-family:'ArialMT';font-size:36px;fill:#000;stroke-width:1px;stroke:#000;">1<tspan x="74.342px " y="1312.57px ">1</tspan></text><text x="65.667px" y="612.572px" style="font-family:'ArialMT';font-size:36px;fill:#000;stroke-width:1px;stroke:#000;">4</text><text x="65.667px" y="1012.57px" style="font-family:'ArialMT';font-size:36px;fill:#000;stroke-width:1px;stroke:#000;">8</text></g><rect x="0.682" y="0.201" width="100" height="100" style="fill:none;stroke-width:1px;stroke-miterlimit:1;stroke:#000;"/><rect x="50.682" y="50.201" width="100" height="100" style="fill:#808080;stroke-width:1px;stroke:#000;"/><text x="56.229px" y="126.045px" style="font-family:'ArialMT';font-size:64px;fill:#000;stroke-width:1px;stroke:#000;">1m</text></g><g><path d="M172.932,450.201l-4.5,0l0,-100l4.5,0l0,100Z" style="fill:#000;"/><path d="M170.682,402.451l-50,0l0,-4.5l50,0l0,4.5Z" style="fill:#000;"/></g></g></svg>