<?xml version="1.0" standalone="no"?><!DOCTYPE svg PUBLIC "-//W3C//DTD SVG 1.1//EN" "http://www.w3.org/Graphics/SVG/1.1/DTD/svg11.dtd"><svg width="100%" height="100%" viewBox="0 0 1301 2301" version="1.1" xmlns="http://www.w3.org/2000/svg" xmlns:xlink="http://www.w3.org/1999/xlink" xml:space="preserve" style="fill-rule:evenodd;clip-rule:evenodd;stroke-linejoin:round;stroke-miterlimit:1.41421;"><clipPath id="_clip1"><rect id="little general" x="0.089" y="0.201" width="1300" height="2300"/></clipPath><g clip-path="url(#_clip1)"><g id="Layer4"><path d="M299,2000.24l-100,0l0.902,-1800l99.098,0" style="fill:none;stroke-width:4.5px;stroke:#000;"/><path d="M499,200.244l600,0l0,1800l-600,0" style="fill:none;stroke-width:4.5px;stroke:#000;"/></g><g id="Layer3"><g><circle cx="199" cy="1200.24" r="20" style="fill:#fcd1d1;stroke-width:1px;stroke:#000;"/><circle cx="199" cy="1200.24" r="10" style="fill:#fc2e30;stroke-width:1px;stroke:#000;"/></g><g><circle cx="199" cy="1000.24" r="20" style="fill:#fcd1d1;stroke-width:1px;stroke:#000;"/><circle cx="199" cy="1000.24" r="10" style="fill:#fc2e30;stroke-width:1px;stroke:#000;"/></g><g><circle cx="199" cy="800.244" r="20" style="fill:#fcd1d1;stroke-width:1px;stroke:#000;"/><circle cx="199" cy="800.244" r="10" style="fill:#fc2e30;stroke-width:1px;stroke:#000;"/></g><g><circle cx="199" cy="600.244" r="20" style="fill:#fcd1d1;stroke-width:1px;stroke:#000;"/><circle cx="199" cy="600.244" r="10" style="fill:#fc2e30;stroke-width:1px;stroke:#000;"/></g><g><circle cx="199" cy="400.244" r="20" style="fill:#fcd1d1;stroke-width:1px;stroke:#000;"/><circle cx="199" cy="400.244" r="10" style="fill:#fc2e30;stroke-width:1px;stroke:#000;"/></g><g><circle cx="419" cy="1200.24" r="20" style="fill:#fcd1d1;stroke-width:1px;stroke:#000;"/><circle cx="419" cy="1200.24" r="10" style="fill:#fc2e30;stroke-width:1px;stroke:#000;"/></g><g><circle cx="879" cy="1000.24" r="20" style="fill:#fcd1d1;stroke-width:1px;stroke:#000;"/><circle cx="879" cy="1000.24" r="10" style="fill:#fc2e30;stroke-width:1px;stroke:#000;"/></g><g><circle cx="419" cy="800.244" r="20" style="fill:#fcd1d1;stroke-width:1px;stroke:#000;"/><circle cx="419" cy="800.244" r="10" style="fill:#fc2e30;stroke-width:1px;stroke:#000;"/></g><g><circle cx="199" cy="200.244" r="20" style="fill:#fcd1d1;stroke-width:1px;stroke:#000;"/><circle cx="199" cy="200.244" r="10" style="fill:#fc2e30;stroke-width:1px;stroke:#000;"/></g><g><circle cx="879" cy="600.244" r="20" style="fill:#fcd1d1;stroke-width:1px;stroke:#000;"/><circle cx="879" cy="600.244" r="10" style="fill:#fc2e30;stroke-width:1px;stroke:#000;"/></g><g><circle cx="419" cy="400.244" r="20" style="fill:#fcd1d1;stroke-width:1px;stroke:#000;"/><circle cx="419" cy="400.244" r="10" style="fill:#fc2e30;stroke-width:1px;stroke:#000;"/></g><g><circle cx="499" cy="200.244" r="20" style="fill:#fcd1d1;stroke-width:1px;stroke:#000;"/><circle cx="499" cy="200.244" r="10" style="fill:#fc2e30;stroke-width:1px;stroke:#000;"/></g><g><circle cx="1099" cy="200.244" r="20" style="fill:#fcd1d1;stroke-width:1px;stroke:#000;"/><circle cx="1099" cy="200.244" r="10" style="fill:#fc2e30;stroke-width:1px;stroke:#000;"/></g><g><circle cx="699" cy="200.244" r="20" style="fill:#fcd1d1;stroke-width:1px;stroke:#000;"/><circle cx="699" cy="200.244" r="10" style="fill:#fc2e30;stroke-width:1px;stroke:#000;"/></g><g><circle cx="899" cy="200.244" r="20" style="fill:#fcd1d1;stroke-width:1px;stroke:#000;"/><circle cx="899" cy="200.244" r="10" style="fill:#fc2e30;stroke-width:1px;stroke:#000;"/></g><g><circle cx="1099" cy="400.244" r="20" style="fill:#fcd1d1;stroke-width:1px;stroke:#000;"/><circle cx="1099" cy="400.244" r="10" style="fill:#fc2e30;stroke-width:1px;stroke:#000;"/></g><g><circle cx="1099" cy="600.244" r="20" style="fill:#fcd1d1;stroke-width:1px;stroke:#000;"/><circle cx="1099" cy="600.244" r="10" style="fill:#fc2e30;stroke-width:1px;stroke:#000;"/></g><g><circle cx="1099" cy="800.244" r="20" style="fill:#fcd1d1;stroke-width:1px;stroke:#000;"/><circle cx="1099" cy="800.244" r="10" style="fill:#fc2e30;stroke-width:1px;stroke:#000;"/></g><g><circle cx="1099" cy="1000.24" r="20" style="fill:#fcd1d1;stroke-width:1px;stroke:#000;"/><circle cx="1099" cy="1000.24" r="10" style="fill:#fc2e30;stroke-width:1px;stroke:#000;"/></g><g><circle cx="1099" cy="1200.24" r="20" style="fill:#fcd1d1;stroke-width:1px;stroke:#000;"/><circle cx="1099" cy="1200.24" r="10" style="fill:#fc2e30;stroke-width:1px;stroke:#000;"/></g><g><circle cx="299" cy="200.244" r="20" style="fill:#fcd1d1;stroke-width:1px;stroke:#000;"/><circle cx="299" cy="200.244" r="10" style="fill:#fc2e30;stroke-width:1px;stroke:#000;"/></g></g><path d="M399,2030.24c-0.663,-47.112 -1.988,-141.336 50,-150c80,-13.334 343.422,85.768 430,70c236.898,-43.147 217.362,-297.34 0,-320c-84.412,-8.8 -393.48,161.801 -480,150c-194.867,-26.58 -197.49,-319.721 0,-360c84.304,-17.195 394.729,181.471 480,170c215.419,-28.98 243.754,-320.084 0,-360c-86.846,-14.222 -393.854,154.276 -480,140c-193.076,-31.998 -201.926,-315.096 0,-350c84.782,-14.656 394.031,170.976 480,160c215.504,-27.515 232.981,-320.026 0,-360c-83.905,-14.396 -385.866,172.987 -470,160c-216.18,-33.37 -212.204,-326.702 0,-360c84.102,-13.197 385.946,173.498 470,160c207.132,-33.263 238.136,-324.912 0,-360c-84.88,-12.507 -385.842,155.336 -470,150c-133.67,-8.475 -183.097,-193.574 -70,-270c82.85,-55.987 62.312,-150.629 60,-230" style="fill:none;stroke-width:8px;stroke-dasharray:24,48,0,0;stroke:#14a90c;stroke-opacity:0.698039;"/><g id="grid"><g id="bold lines"><path d="M700.089,100.201l0,2800" style="fill:none;stroke-width:1px;stroke-miterlimit:1;stroke:#000;stroke-opacity:0.298039;"/><path d="M100.089,700.201l2600,0" style="fill:none;stroke-width:1px;stroke-miterlimit:1;stroke:#000;stroke-opacity:0.298039;"/><path d="M1200.09,100.201l0,2800" style="fill:none;stroke-width:1px;stroke-miterlimit:1;stroke:#000;stroke-opacity:0.298039;"/><path d="M100.089,1200.2l2600,0" style="fill:none;stroke-width:1px;stroke-miterlimit:1;stroke:#000;stroke-opacity:0.298039;"/><path d="M100.089,1700.2l2600,0" style="fill:none;stroke-width:1px;stroke-miterlimit:1;stroke:#000;stroke-opacity:0.298039;"/><path d="M100.089,2200.2l2600,0" style="fill:none;stroke-width:1px;stroke-miterlimit:1;stroke:#000;stroke-opacity:0.298039;"/><path d="M100.089,200.201l2600,0" style="fill:none;stroke-width:1px;stroke-miterlimit:1;stroke:#000;stroke-opacity:0.298039;"/><path d="M200.089,2900.2l0,-2800" style="fill:none;stroke-width:1px;stroke-miterlimit:1;stroke:#000;stroke-opacity:0.298039;"/></g><g id="vertical lines"><path d="M100.089,100.201l0,2800" style="fill:none;stroke-width:1px;stroke-linejoin:miter;stroke-miterlimit:1;stroke-dasharray:10,44,2,44;stroke-dashoffset:5;stroke:#000;"/><path d="M700.089,100.201l0,2800" style="fill:none;stroke-width:1px;stroke-linejoin:miter;stroke-miterlimit:1;stroke-dasharray:10,44,2,44;stroke-dashoffset:5;stroke:#000;"/><path d="M1300.09,100.201l0,2800" style="fill:none;stroke-width:1px;stroke-linejoin:miter;stroke-miterlimit:1;stroke-dasharray:10,44,2,44;stroke-dashoffset:5;stroke:#000;"/><path d="M300.089,100.201l0,2800" style="fill:none;stroke-width:1px;stroke-linejoin:miter;stroke-miterlimit:1;stroke-dasharray:10,44,2,44;stroke-dashoffset:5;stroke:#000;"/><path d="M900.089,100.201l0,2800" style="fill:none;stroke-width:1px;stroke-linejoin:miter;stroke-miterlimit:1;stroke-dasharray:10,44,2,44;stroke-dashoffset:5;stroke:#000;"/><path d="M500.089,100.201l0,2800" style="fill:none;stroke-width:1px;stroke-linejoin:miter;stroke-miterlimit:1;stroke-dasharray:10,44,2,44;stroke-dashoffset:5;stroke:#000;"/><path d="M1100.09,100.201l0,2800" style="fill:none;stroke-width:1px;stroke-linejoin:miter;stroke-miterlimit:1;stroke-dasharray:10,44,2,44;stroke-dashoffset:5;stroke:#000;"/><path d="M200.089,100.201l0,2800" style="fill:none;stroke-width:1px;stroke-linejoin:miter;stroke-miterlimit:1;stroke-dasharray:10,44,2,44;stroke-dashoffset:5;stroke:#000;"/><path d="M800.089,100.201l0,2800" style="fill:none;stroke-width:1px;stroke-linejoin:miter;stroke-miterlimit:1;stroke-dasharray:10,44,2,44;stroke-dashoffset:5;stroke:#000;"/><path d="M400.089,100.201l0,2800" style="fill:none;stroke-width:1px;stroke-linejoin:miter;stroke-miterlimit:1;stroke-dasharray:10,44,2,44;stroke-dashoffset:5;stroke:#000;"/><path d="M1000.09,100.201l0,2800" style="fill:none;stroke-width:1px;stroke-linejoin:miter;stroke-miterlimit:1;stroke-dasharray:10,44,2,44;stroke-dashoffset:5;stroke:#000;"/><path d="M600.089,100.201l0,2800" style="fill:none;stroke-width:1px;stroke-linejoin:miter;stroke-miterlimit:1;stroke-dasharray:10,44,2,44;stroke-dashoffset:5;stroke:#000;"/><path d="M1200.09,100.201l0,2800" style="fill:none;stroke-width:1px;stroke-linejoin:miter;stroke-miterlimit:1;stroke-dasharray:10,44,2,44;stroke-dashoffset:5;stroke:#000;"/></g><g id="horizontal lines"><path d="M100.089,100.201l2600,0" style="fill:none;stroke-width:1px;stroke-dasharray:10,44,2,44;stroke-dashoffset:5;stroke:#000;"/><path d="M100.089,500.201l2600,0" style="fill:none;stroke-width:1px;stroke-dasharray:10,44,2,44;stroke-dashoffset:5;stroke:#000;"/><path d="M100.089,900.201l2600,0" style="fill:none;stroke-width:1px;stroke-dasharray:10,44,2,44;stroke-dashoffset:5;stroke:#000;"/><path d="M100.089,1300.2l2600,0" style="fill:none;stroke-width:1px;stroke-dasharray:10,44,2,44;stroke-dashoffset:5;stroke:#000;"/><path d="M2700.09,200.201l-2600,0" style="fill:none;stroke-width:1px;stroke-dasharray:10,44,2,44;stroke-dashoffset:5;stroke:#000;"/><path d="M2700.09,600.201l-2600,0" style="fill:none;stroke-width:1px;stroke-dasharray:10,44,2,44;stroke-dashoffset:5;stroke:#000;"/><path d="M2700.09,1000.2l-2600,0" style="fill:none;stroke-width:1px;stroke-dasharray:10,44,2,44;stroke-dashoffset:5;stroke:#000;"/><path d="M2700.09,1400.2l-2600,0" style="fill:none;stroke-width:1px;stroke-dasharray:10,44,2,44;stroke-dashoffset:5;stroke:#000;"/><path d="M100.089,300.201l2600,0" style="fill:none;stroke-width:1px;stroke-dasharray:10,44,2,44;stroke-dashoffset:5;stroke:#000;"/><path d="M100.089,700.201l2600,0" style="fill:none;stroke-width:1px;stroke-dasharray:10,44,2,44;stroke-dashoffset:5;stroke:#000;"/><path d="M100.089,1100.2l2600,0" style="fill:none;stroke-width:1px;stroke-dasharray:10,44,2,44;stroke-dashoffset:5;stroke:#000;"/><path d="M100.089,1500.2l2600,0" style="fill:none;stroke-width:1px;stroke-dasharray:10,44,2,44;stroke-dashoffset:5;stroke:#000;"/><path d="M100.089,400.201l2600,0" style="fill:none;stroke-width:1px;stroke-dasharray:10,44,2,44;stroke-dashoffset:5;stroke:#000;"/><path d="M100.089,800.201l2600,0" style="fill:none;stroke-width:1px;stroke-dasharray:10,44,2,44;stroke-dashoffset:5;stroke:#000;"/><path d="M100.089,1200.2l2600,0" style="fill:none;stroke-width:1px;stroke-dasharray:10,44,2,44;stroke-dashoffset:5;stroke:#000;"/><path d="M100.089,1600.2l2600,0" style="fill:none;stroke-width:1px;stroke-dasharray:10,44,2,44;stroke-dashoffset:5;stroke:#000;"/><path d="M100.089,1800.2l2600,0" style="fill:none;stroke-width:1px;stroke-dasharray:10,44,2,44;stroke-dashoffset:5;stroke:#000;"/><path d="M100.089,2000.2l2600,0" style="fill:none;stroke-width:1px;stroke-dasharray:10,44,2,44;stroke-dashoffset:5;stroke:#000;"/><path d="M100.089,2200.2l2600,0" style="fill:none;stroke-width:1px;stroke-dasharray:10,44,2,44;stroke-dashoffset:5;stroke:#000;"/><path d="M100.089,1700.2l2600,0" style="fill:none;stroke-width:1px;stroke-dasharray:10,44,2,44;stroke-dashoffset:5;stroke:#000;"/><path d="M100.089,1900.2l2600,0" style="fill:none;stroke-width:1px;stroke-dasharray:10,44,2,44;stroke-dashoffset:5;stroke:#000;"/><path d="M100.089,2100.2l2600,0" style="fill:none;stroke-width:1px;stroke-dasharray:10,44,2,44;stroke-dashoffset:5;stroke:#000;"/><path d="M100.089,2300.2l2600,0" style="fill:none;stroke-width:1px;stroke-dasharray:10,44,2,44;stroke-dashoffset:5;stroke:#000;"/></g><g id="top labels"><rect x="150.089" y="50.201" width="100" height="50" style="fill:#808080;stroke-width:1px;stroke:#000;"/><rect x="650.089" y="50.201" width="100" height="50" style="fill:#808080;stroke-width:1px;stroke:#000;"/><rect x="1150.09" y="50.201" width="100" height="50" style="fill:#808080;stroke-width:1px;stroke:#000;"/><rect x="250.089" y="50.201" width="100" height="50" style="fill:#808080;stroke-width:1px;stroke:#000;"/><rect x="750.089" y="50.201" width="100" height="50" style="fill:#808080;stroke-width:1px;stroke:#000;"/><rect x="1250.09" y="50.201" width="100" height="50" style="fill:#808080;stroke-width:1px;stroke:#000;"/><rect x="350.089" y="50.201" width="100" height="50" style="fill:#808080;stroke-width:1px;stroke:#000;"/><rect x="850.089" y="50.201" width="100" height="50" style="fill:#808080;stroke-width:1px;stroke:#000;"/><rect x="450.089" y="50.201" width="100" height="50" style="fill:#808080;stroke-width:1px;stroke:#000;"/><rect x="950.089" y="50.201" width="100" height="50" style="fill:#808080;stroke-width:1px;stroke:#000;"/><rect x="550.089" y="50.201" width="100" height="50" style="fill:#808080;stroke-width:1px;stroke:#000;"/><rect x="1050.09" y="50.201" width="100" height="50" style="fill:#808080;stroke-width:1px;stroke:#000;"/><text x="188.099px" y="89.28px" style="font-family:'ArialMT';font-size:36px;fill:#000;stroke-width:1px;stroke:#000;">A</text><text x="688.099px" y="89.28px" style="font-family:'ArialMT';font-size:36px;fill:#000;stroke-width:1px;stroke:#000;">F</text><text x="1188.1px" y="89.28px" style="font-family:'ArialMT';font-size:36px;fill:#000;stroke-width:1px;stroke:#000;">K</text><text x="288.099px" y="89.28px" style="font-family:'ArialMT';font-size:36px;fill:#000;stroke-width:1px;stroke:#000;">B</text><text x="788.099px" y="89.28px" style="font-family:'ArialMT';font-size:36px;fill:#000;stroke-width:1px;stroke:#000;">G</text><text x="1288.1px" y="89.28px" style="font-family:'ArialMT';font-size:36px;fill:#000;stroke-width:1px;stroke:#000;">L</text><text x="388.099px" y="89.28px" style="font-family:'ArialMT';font-size:36px;fill:#000;stroke-width:1px;stroke:#000;">C</text><text x="888.099px" y="89.28px" style="font-family:'ArialMT';font-size:36px;fill:#000;stroke-width:1px;stroke:#000;">H</text><text x="488.099px" y="89.28px" style="font-family:'ArialMT';font-size:36px;fill:#000;stroke-width:1px;stroke:#000;">D</text><text x="995.104px" y="89.28px" style="font-family:'ArialMT';font-size:36px;fill:#000;stroke-width:1px;stroke:#000;">I</text><text x="588.099px" y="89.28px" style="font-family:'ArialMT';font-size:36px;fill:#000;stroke-width:1px;stroke:#000;">E</text><text x="1088.1px" y="89.28px" style="font-family:'ArialMT';font-size:36px;fill:#000;stroke-width:1px;stroke:#000;">J</text></g><g id="top numbers"><text x="292.858px" y="45.963px" style="font-family:'ArialMT';font-size:20px;fill:#000;stroke-width:1px;stroke:#000;">1</text><text x="194.528px" y="45.963px" style="font-family:'ArialMT';font-size:20px;fill:#000;stroke-width:1px;stroke:#000;">0</text><text x="792.858px" y="45.963px" style="font-family:'ArialMT';font-size:20px;fill:#000;stroke-width:1px;stroke:#000;">6</text><text x="1288.2px" y="45.963px" style="font-family:'ArialMT';font-size:20px;fill:#000;stroke-width:1px;stroke:#000;">1<tspan x="1297.84px " y="45.963px ">1</tspan></text><text x="392.858px" y="45.963px" style="font-family:'ArialMT';font-size:20px;fill:#000;stroke-width:1px;stroke:#000;">2</text><text x="893.405px" y="45.963px" style="font-family:'ArialMT';font-size:20px;fill:#000;stroke-width:1px;stroke:#000;">7</text><text x="492.858px" y="45.963px" style="font-family:'ArialMT';font-size:20px;fill:#000;stroke-width:1px;stroke:#000;">3</text><text x="993.405px" y="45.963px" style="font-family:'ArialMT';font-size:20px;fill:#000;stroke-width:1px;stroke:#000;">8</text><text x="592.858px" y="45.963px" style="font-family:'ArialMT';font-size:20px;fill:#000;stroke-width:1px;stroke:#000;">4</text><text x="1093.4px" y="45.963px" style="font-family:'ArialMT';font-size:20px;fill:#000;stroke-width:1px;stroke:#000;">9</text><text x="692.858px" y="45.963px" style="font-family:'ArialMT';font-size:20px;fill:#000;stroke-width:1px;stroke:#000;">5</text><text x="1188.97px" y="45.963px" style="font-family:'ArialMT';font-size:20px;fill:#000;stroke-width:1px;stroke:#000;">10</text></g><g id="side labels"><rect x="50.089" y="250.201" width="50" height="100" style="fill:#808080;stroke-width:1px;stroke:#000;"/><rect x="50.089" y="150.201" width="50" height="100" style="fill:#808080;stroke-width:1px;stroke:#000;"/><rect x="50.089" y="650.201" width="50" height="100" style="fill:#808080;stroke-width:1px;stroke:#000;"/><rect x="50.089" y="1050.2" width="50" height="100" style="fill:#808080;stroke-width:1px;stroke:#000;"/><rect x="50.089" y="1450.2" width="50" height="100" style="fill:#808080;stroke-width:1px;stroke:#000;"/><rect x="50.089" y="350.201" width="50" height="100" style="fill:#808080;stroke-width:1px;stroke:#000;"/><rect x="50.089" y="750.201" width="50" height="100" style="fill:#808080;stroke-width:1px;stroke:#000;"/><rect x="50.089" y="1150.2" width="50" height="100" style="fill:#808080;stroke-width:1px;stroke:#000;"/><rect x="50.089" y="1550.2" width="50" height="100" style="fill:#808080;stroke-width:1px;stroke:#000;"/><rect x="50.089" y="1750.2" width="50" height="100" style="fill:#808080;stroke-width:1px;stroke:#000;"/><rect x="50.089" y="1950.2" width="50" height="100" style="fill:#808080;stroke-width:1px;stroke:#000;"/><rect x="50.089" y="2150.2" width="50" height="100" style="fill:#808080;stroke-width:1px;stroke:#000;"/><rect x="50.089" y="450.201" width="50" height="100" style="fill:#808080;stroke-width:1px;stroke:#000;"/><rect x="50.089" y="850.201" width="50" height="100" style="fill:#808080;stroke-width:1px;stroke:#000;"/><rect x="50.089" y="1250.2" width="50" height="100" style="fill:#808080;stroke-width:1px;stroke:#000;"/><rect x="50.089" y="1650.2" width="50" height="100" style="fill:#808080;stroke-width:1px;stroke:#000;"/><rect x="50.089" y="1850.2" width="50" height="100" style="fill:#808080;stroke-width:1px;stroke:#000;"/><rect x="50.089" y="2050.2" width="50" height="100" style="fill:#808080;stroke-width:1px;stroke:#000;"/><rect x="50.089" y="2250.2" width="50" height="100" style="fill:#808080;stroke-width:1px;stroke:#000;"/><rect x="50.089" y="550.201" width="50" height="100" style="fill:#808080;stroke-width:1px;stroke:#000;"/><rect x="50.089" y="950.201" width="50" height="100" style="fill:#808080;stroke-width:1px;stroke:#000;"/><rect x="50.089" y="1350.2" width="50" height="100" style="fill:#808080;stroke-width:1px;stroke:#000;"/><text x="65.074px" y="312.572px" style="font-family:'ArialMT';font-size:36px;fill:#000;stroke-width:1px;stroke:#000;">1</text><text x="65.074px" y="212.572px" style="font-family:'ArialMT';font-size:36px;fill:#000;stroke-width:1px;stroke:#000;">0</text><text x="65.074px" y="712.572px" style="font-family:'ArialMT';font-size:36px;fill:#000;stroke-width:1px;stroke:#000;">5</text><text x="65.074px" y="1112.57px" style="font-family:'ArialMT';font-size:36px;fill:#000;stroke-width:1px;stroke:#000;">9</text><text x="55.063px" y="1512.57px" style="font-family:'ArialMT';font-size:36px;fill:#000;stroke-width:1px;stroke:#000;">13</text><text x="54.99px" y="1912.57px" style="font-family:'ArialMT';font-size:36px;fill:#000;stroke-width:1px;stroke:#000;">17</text><text x="56.738px" y="2315.99px" style="font-family:'ArialMT';font-size:36px;fill:#000;stroke-width:1px;stroke:#000;">21</text><text x="65.074px" y="412.572px" style="font-family:'ArialMT';font-size:36px;fill:#000;stroke-width:1px;stroke:#000;">2</text><text x="65.074px" y="812.572px" style="font-family:'ArialMT';font-size:36px;fill:#000;stroke-width:1px;stroke:#000;">6</text><text x="55.063px" y="1212.57px" style="font-family:'ArialMT';font-size:36px;fill:#000;stroke-width:1px;stroke:#000;">10</text><text x="55.063px" y="1612.57px" style="font-family:'ArialMT';font-size:36px;fill:#000;stroke-width:1px;stroke:#000;">14</text><text x="54.99px" y="2012.57px" style="font-family:'ArialMT';font-size:36px;fill:#000;stroke-width:1px;stroke:#000;">18</text><text x="65.074px" y="512.572px" style="font-family:'ArialMT';font-size:36px;fill:#000;stroke-width:1px;stroke:#000;">3</text><text x="65.074px" y="912.572px" style="font-family:'ArialMT';font-size:36px;fill:#000;stroke-width:1px;stroke:#000;">7</text><text x="56.399px" y="1312.57px" style="font-family:'ArialMT';font-size:36px;fill:#000;stroke-width:1px;stroke:#000;">1<tspan x="73.749px " y="1312.57px ">1</tspan></text><text x="55.063px" y="1712.57px" style="font-family:'ArialMT';font-size:36px;fill:#000;stroke-width:1px;stroke:#000;">15</text><text x="54.99px" y="2112.57px" style="font-family:'ArialMT';font-size:36px;fill:#000;stroke-width:1px;stroke:#000;">19</text><text x="65.074px" y="612.572px" style="font-family:'ArialMT';font-size:36px;fill:#000;stroke-width:1px;stroke:#000;">4</text><text x="65.074px" y="1012.57px" style="font-family:'ArialMT';font-size:36px;fill:#000;stroke-width:1px;stroke:#000;">8</text><text x="55.063px" y="1412.57px" style="font-family:'ArialMT';font-size:36px;fill:#000;stroke-width:1px;stroke:#000;">12</text><text x="54.99px" y="1812.57px" style="font-family:'ArialMT';font-size:36px;fill:#000;stroke-width:1px;stroke:#000;">16</text><text x="56.738px" y="2215.99px" style="font-family:'ArialMT';font-size:36px;fill:#000;stroke-width:1px;stroke:#000;">20</text></g><rect x="0.089" y="0.201" width="100" height="100" style="fill:none;stroke-width:1px;stroke-miterlimit:1;stroke:#000;"/><rect x="50.089" y="50.201" width="100" height="100" style="fill:#808080;stroke-width:1px;stroke:#000;"/><text x="55.636px" y="126.045px" style="font-family:'ArialMT';font-size:64px;fill:#000;stroke-width:1px;stroke:#000;">1m</text></g><g><circle cx="199" cy="2000.24" r="20" style="fill:#fcd1d1;stroke-width:1px;stroke:#000;"/><circle cx="199" cy="2000.24" r="10" style="fill:#fc2e30;stroke-width:1px;stroke:#000;"/></g><g><circle cx="199" cy="1800.24" r="20" style="fill:#fcd1d1;stroke-width:1px;stroke:#000;"/><circle cx="199" cy="1800.24" r="10" style="fill:#fc2e30;stroke-width:1px;stroke:#000;"/></g><g><circle cx="199" cy="1600.24" r="20" style="fill:#fcd1d1;stroke-width:1px;stroke:#000;"/><circle cx="199" cy="1600.24" r="10" style="fill:#fc2e30;stroke-width:1px;stroke:#000;"/></g><g><circle cx="199" cy="1400.24" r="20" style="fill:#fcd1d1;stroke-width:1px;stroke:#000;"/><circle cx="199" cy="1400.24" r="10" style="fill:#fc2e30;stroke-width:1px;stroke:#000;"/></g><g><circle cx="299" cy="2000.24" r="20" style="fill:#fcd1d1;stroke-width:1px;stroke:#000;"/><circle cx="299" cy="2000.24" r="10" style="fill:#fc2e30;stroke-width:1px;stroke:#000;"/></g><g><circle cx="499" cy="2000.24" r="20" style="fill:#fcd1d1;stroke-width:1px;stroke:#000;"/><circle cx="499" cy="2000.24" r="10" style="fill:#fc2e30;stroke-width:1px;stroke:#000;"/></g><g><circle cx="1099" cy="2000.24" r="20" style="fill:#fcd1d1;stroke-width:1px;stroke:#000;"/><circle cx="1099" cy="2000.24" r="10" style="fill:#fc2e30;stroke-width:1px;stroke:#000;"/></g><g><circle cx="1099" cy="1800.24" r="20" style="fill:#fcd1d1;stroke-width:1px;stroke:#000;"/><circle cx="1099" cy="1800.24" r="10" style="fill:#fc2e30;stroke-width:1px;stroke:#000;"/></g><g><circle cx="1099" cy="1600.24" r="20" style="fill:#fcd1d1;stroke-width:1px;stroke:#000;"/><circle cx="1099" cy="1600.24" r="10" style="fill:#fc2e30;stroke-width:1px;stroke:#000;"/></g><g><circle cx="899" cy="2000.24" r="20" style="fill:#fcd1d1;stroke-width:1px;stroke:#000;"/><circle cx="899" cy="2000.24" r="10" style="fill:#fc2e30;stroke-width:1px;stroke:#000;"/></g><g><circle cx="699" cy="2000.24" r="20" style="fill:#fcd1d1;stroke-width:1px;stroke:#000;"/><circle cx="699" cy="2000.24" r="10" style="fill:#fc2e30;stroke-width:1px;stroke:#000;"/></g><g><circle cx="879" cy="1400.24" r="20" style="fill:#fcd1d1;stroke-width:1px;stroke:#000;"/><circle cx="879" cy="1400.24" r="10" style="fill:#fc2e30;stroke-width:1px;stroke:#000;"/></g><g><circle cx="1099" cy="1400.24" r="20" style="fill:#fcd1d1;stroke-width:1px;stroke:#000;"/><circle cx="1099" cy="1400.24" r="10" style="fill:#fc2e30;stroke-width:1px;stroke:#000;"/></g><g><circle cx="879" cy="1800.24" r="20" style="fill:#fcd1d1;stroke-width:1px;stroke:#000;"/><circle cx="879" cy="1800.24" r="10" style="fill:#fc2e30;stroke-width:1px;stroke:#000;"/></g><g><circle cx="419" cy="1600.24" r="20" style="fill:#fcd1d1;stroke-width:1px;stroke:#000;"/><circle cx="419" cy="1600.24" r="10" style="fill:#fc2e30;stroke-width:1px;stroke:#000;"/></g><g><rect x="349" y="2027.99" width="100" height="4.5" style="fill:#000;"/><rect x="396.75" y="2030.24" width="4.5" height="50" style="fill:#000;"/></g></g></svg>