<?xml version="1.0" standalone="no"?><!DOCTYPE svg PUBLIC "-//W3C//DTD SVG 1.1//EN" "http://www.w3.org/Graphics/SVG/1.1/DTD/svg11.dtd"><svg width="100%" height="100%" viewBox="0 0 5421 9588" version="1.1" xmlns="http://www.w3.org/2000/svg" xmlns:xlink="http://www.w3.org/1999/xlink" xml:space="preserve" style="fill-rule:evenodd;clip-rule:evenodd;stroke-linejoin:round;stroke-miterlimit:1.41421;"><clipPath id="_clip1"><rect id="little general" x="0.372" y="0.837" width="5416.67" height="9583.33"/></clipPath><g clip-path="url(#_clip1)"><g id="Layer4"><path d="M1245.83,8334.35l-416.666,0l3.758,-7500l412.908,0" style="fill:none;stroke-width:18.75px;stroke:#000;"/><path d="M2079.17,834.349l2500,0l0,7500l-2500,0" style="fill:none;stroke-width:18.75px;stroke:#000;"/></g><g id="Layer3"><g><circle cx="829.167" cy="5001.02" r="83.333" style="fill:#fcd1d1;stroke-width:4.17px;stroke:#000;"/><circle cx="829.167" cy="5001.02" r="41.667" style="fill:#fc2e30;stroke-width:4.17px;stroke:#000;"/></g><g><circle cx="829.167" cy="4167.68" r="83.333" style="fill:#fcd1d1;stroke-width:4.17px;stroke:#000;"/><circle cx="829.167" cy="4167.68" r="41.667" style="fill:#fc2e30;stroke-width:4.17px;stroke:#000;"/></g><g><circle cx="829.167" cy="3334.35" r="83.333" style="fill:#fcd1d1;stroke-width:4.17px;stroke:#000;"/><circle cx="829.167" cy="3334.35" r="41.667" style="fill:#fc2e30;stroke-width:4.17px;stroke:#000;"/></g><g><circle cx="829.167" cy="2501.01" r="83.333" style="fill:#fcd1d1;stroke-width:4.17px;stroke:#000;"/><circle cx="829.167" cy="2501.01" r="41.667" style="fill:#fc2e30;stroke-width:4.17px;stroke:#000;"/></g><g><circle cx="829.167" cy="1667.68" r="83.333" style="fill:#fcd1d1;stroke-width:4.17px;stroke:#000;"/><circle cx="829.167" cy="1667.68" r="41.667" style="fill:#fc2e30;stroke-width:4.17px;stroke:#000;"/></g><g><circle cx="1745.83" cy="5001.02" r="83.333" style="fill:#fcd1d1;stroke-width:4.17px;stroke:#000;"/><circle cx="1745.83" cy="5001.02" r="41.667" style="fill:#fc2e30;stroke-width:4.17px;stroke:#000;"/></g><g><circle cx="3662.5" cy="4167.68" r="83.333" style="fill:#fcd1d1;stroke-width:4.17px;stroke:#000;"/><circle cx="3662.5" cy="4167.68" r="41.667" style="fill:#fc2e30;stroke-width:4.17px;stroke:#000;"/></g><g><circle cx="1745.83" cy="3334.35" r="83.333" style="fill:#fcd1d1;stroke-width:4.17px;stroke:#000;"/><circle cx="1745.83" cy="3334.35" r="41.667" style="fill:#fc2e30;stroke-width:4.17px;stroke:#000;"/></g><g><circle cx="829.167" cy="834.349" r="83.333" style="fill:#fcd1d1;stroke-width:4.17px;stroke:#000;"/><circle cx="829.167" cy="834.349" r="41.667" style="fill:#fc2e30;stroke-width:4.17px;stroke:#000;"/></g><g><circle cx="3662.5" cy="2501.01" r="83.333" style="fill:#fcd1d1;stroke-width:4.17px;stroke:#000;"/><circle cx="3662.5" cy="2501.01" r="41.667" style="fill:#fc2e30;stroke-width:4.17px;stroke:#000;"/></g><g><circle cx="1745.83" cy="1667.68" r="83.333" style="fill:#fcd1d1;stroke-width:4.17px;stroke:#000;"/><circle cx="1745.83" cy="1667.68" r="41.667" style="fill:#fc2e30;stroke-width:4.17px;stroke:#000;"/></g><g><circle cx="2079.17" cy="834.349" r="83.333" style="fill:#fcd1d1;stroke-width:4.17px;stroke:#000;"/><circle cx="2079.17" cy="834.349" r="41.667" style="fill:#fc2e30;stroke-width:4.17px;stroke:#000;"/></g><g><circle cx="4579.17" cy="834.349" r="83.333" style="fill:#fcd1d1;stroke-width:4.17px;stroke:#000;"/><circle cx="4579.17" cy="834.349" r="41.667" style="fill:#fc2e30;stroke-width:4.17px;stroke:#000;"/></g><g><circle cx="2912.5" cy="834.349" r="83.333" style="fill:#fcd1d1;stroke-width:4.17px;stroke:#000;"/><circle cx="2912.5" cy="834.349" r="41.667" style="fill:#fc2e30;stroke-width:4.17px;stroke:#000;"/></g><g><circle cx="3745.83" cy="834.349" r="83.333" style="fill:#fcd1d1;stroke-width:4.17px;stroke:#000;"/><circle cx="3745.83" cy="834.349" r="41.667" style="fill:#fc2e30;stroke-width:4.17px;stroke:#000;"/></g><g><circle cx="4579.17" cy="1667.68" r="83.333" style="fill:#fcd1d1;stroke-width:4.17px;stroke:#000;"/><circle cx="4579.17" cy="1667.68" r="41.667" style="fill:#fc2e30;stroke-width:4.17px;stroke:#000;"/></g><g><circle cx="4579.17" cy="2501.01" r="83.333" style="fill:#fcd1d1;stroke-width:4.17px;stroke:#000;"/><circle cx="4579.17" cy="2501.01" r="41.667" style="fill:#fc2e30;stroke-width:4.17px;stroke:#000;"/></g><g><circle cx="4579.17" cy="3334.35" r="83.333" style="fill:#fcd1d1;stroke-width:4.17px;stroke:#000;"/><circle cx="4579.17" cy="3334.35" r="41.667" style="fill:#fc2e30;stroke-width:4.17px;stroke:#000;"/></g><g><circle cx="4579.17" cy="4167.68" r="83.333" style="fill:#fcd1d1;stroke-width:4.17px;stroke:#000;"/><circle cx="4579.17" cy="4167.68" r="41.667" style="fill:#fc2e30;stroke-width:4.17px;stroke:#000;"/></g><g><circle cx="4579.17" cy="5001.02" r="83.333" style="fill:#fcd1d1;stroke-width:4.17px;stroke:#000;"/><circle cx="4579.17" cy="5001.02" r="41.667" style="fill:#fc2e30;stroke-width:4.17px;stroke:#000;"/></g><g><circle cx="1245.83" cy="834.349" r="83.333" style="fill:#fcd1d1;stroke-width:4.17px;stroke:#000;"/><circle cx="1245.83" cy="834.349" r="41.667" style="fill:#fc2e30;stroke-width:4.17px;stroke:#000;"/></g></g><path d="M1662.5,8459.35c-2.76,-196.299 -8.281,-588.898 208.333,-625c333.334,-55.556 1430.92,357.369 1791.67,291.666c987.076,-179.778 905.675,-1238.92 0,-1333.33c-351.716,-36.666 -1639.5,674.172 -2000,625c-811.945,-110.747 -822.877,-1332.17 0,-1500c351.266,-71.643 1644.7,756.13 2000,708.333c897.581,-120.747 1015.64,-1333.68 0,-1500c-361.857,-59.256 -1641.06,642.819 -2000,583.334c-804.483,-133.322 -841.357,-1312.9 0,-1458.33c353.259,-61.063 1641.8,712.401 2000,666.667c897.932,-114.643 970.754,-1333.44 0,-1500c-349.602,-59.984 -1607.77,720.779 -1958.33,666.667c-900.751,-139.041 -884.184,-1361.26 0,-1500c350.423,-54.987 1608.11,722.907 1958.33,666.666c863.048,-138.593 992.233,-1353.8 0,-1500c-353.669,-52.111 -1607.67,647.233 -1958.33,625c-556.958,-35.312 -762.904,-806.559 -291.667,-1125c345.21,-233.277 259.632,-627.619 250,-958.333" style="fill:none;stroke-width:33.33px;stroke-dasharray:100,200,0,0;stroke:#14a90c;stroke-opacity:0.698039;"/><g id="grid"><g id="bold lines"><path d="M2917.04,417.504l0,11666.7" style="fill:none;stroke-width:4.17px;stroke-miterlimit:1;stroke:#000;stroke-opacity:0.298039;"/><path d="M417.039,2917.5l10833.3,0" style="fill:none;stroke-width:4.17px;stroke-miterlimit:1;stroke:#000;stroke-opacity:0.298039;"/><path d="M5000.37,417.504l0,11666.7" style="fill:none;stroke-width:4.17px;stroke-miterlimit:1;stroke:#000;stroke-opacity:0.298039;"/><path d="M417.039,5000.84l10833.3,0" style="fill:none;stroke-width:4.17px;stroke-miterlimit:1;stroke:#000;stroke-opacity:0.298039;"/><path d="M417.039,7084.17l10833.3,0" style="fill:none;stroke-width:4.17px;stroke-miterlimit:1;stroke:#000;stroke-opacity:0.298039;"/><path d="M417.039,9167.5l10833.3,0" style="fill:none;stroke-width:4.17px;stroke-miterlimit:1;stroke:#000;stroke-opacity:0.298039;"/><path d="M417.039,834.171l10833.3,0" style="fill:none;stroke-width:4.17px;stroke-miterlimit:1;stroke:#000;stroke-opacity:0.298039;"/><path d="M833.705,12084.2l0,-11666.7" style="fill:none;stroke-width:4.17px;stroke-miterlimit:1;stroke:#000;stroke-opacity:0.298039;"/></g><g id="vertical lines"><path d="M417.039,417.504l0,11666.7" style="fill:none;stroke-width:4.17px;stroke-linejoin:miter;stroke-miterlimit:1;stroke-dasharray:41.67,183.33,8.33,183.33;stroke-dashoffset:20.83;stroke:#000;"/><path d="M2917.04,417.504l0,11666.7" style="fill:none;stroke-width:4.17px;stroke-linejoin:miter;stroke-miterlimit:1;stroke-dasharray:41.67,183.33,8.33,183.33;stroke-dashoffset:20.83;stroke:#000;"/><path d="M5417.04,417.504l0,11666.7" style="fill:none;stroke-width:4.17px;stroke-linejoin:miter;stroke-miterlimit:1;stroke-dasharray:41.67,183.33,8.33,183.33;stroke-dashoffset:20.83;stroke:#000;"/><path d="M1250.37,417.504l0,11666.7" style="fill:none;stroke-width:4.17px;stroke-linejoin:miter;stroke-miterlimit:1;stroke-dasharray:41.67,183.33,8.33,183.33;stroke-dashoffset:20.83;stroke:#000;"/><path d="M3750.37,417.504l0,11666.7" style="fill:none;stroke-width:4.17px;stroke-linejoin:miter;stroke-miterlimit:1;stroke-dasharray:41.67,183.33,8.33,183.33;stroke-dashoffset:20.83;stroke:#000;"/><path d="M2083.7,417.504l0,11666.7" style="fill:none;stroke-width:4.17px;stroke-linejoin:miter;stroke-miterlimit:1;stroke-dasharray:41.67,183.33,8.33,183.33;stroke-dashoffset:20.83;stroke:#000;"/><path d="M4583.7,417.504l0,11666.7" style="fill:none;stroke-width:4.17px;stroke-linejoin:miter;stroke-miterlimit:1;stroke-dasharray:41.67,183.33,8.33,183.33;stroke-dashoffset:20.83;stroke:#000;"/><path d="M833.705,417.504l0,11666.7" style="fill:none;stroke-width:4.17px;stroke-linejoin:miter;stroke-miterlimit:1;stroke-dasharray:41.67,183.33,8.33,183.33;stroke-dashoffset:20.83;stroke:#000;"/><path d="M3333.7,417.504l0,11666.7" style="fill:none;stroke-width:4.17px;stroke-linejoin:miter;stroke-miterlimit:1;stroke-dasharray:41.67,183.33,8.33,183.33;stroke-dashoffset:20.83;stroke:#000;"/><path d="M1667.04,417.504l0,11666.7" style="fill:none;stroke-width:4.17px;stroke-linejoin:miter;stroke-miterlimit:1;stroke-dasharray:41.67,183.33,8.33,183.33;stroke-dashoffset:20.83;stroke:#000;"/><path d="M4167.04,417.504l0,11666.7" style="fill:none;stroke-width:4.17px;stroke-linejoin:miter;stroke-miterlimit:1;stroke-dasharray:41.67,183.33,8.33,183.33;stroke-dashoffset:20.83;stroke:#000;"/><path d="M2500.37,417.504l0,11666.7" style="fill:none;stroke-width:4.17px;stroke-linejoin:miter;stroke-miterlimit:1;stroke-dasharray:41.67,183.33,8.33,183.33;stroke-dashoffset:20.83;stroke:#000;"/><path d="M5000.37,417.504l0,11666.7" style="fill:none;stroke-width:4.17px;stroke-linejoin:miter;stroke-miterlimit:1;stroke-dasharray:41.67,183.33,8.33,183.33;stroke-dashoffset:20.83;stroke:#000;"/></g><g id="horizontal lines"><path d="M417.039,417.504l10833.3,0" style="fill:none;stroke-width:4.17px;stroke-dasharray:41.67,183.33,8.33,183.33;stroke-dashoffset:20.83;stroke:#000;"/><path d="M417.039,2084.17l10833.3,0" style="fill:none;stroke-width:4.17px;stroke-dasharray:41.67,183.33,8.33,183.33;stroke-dashoffset:20.83;stroke:#000;"/><path d="M417.039,3750.84l10833.3,0" style="fill:none;stroke-width:4.17px;stroke-dasharray:41.67,183.33,8.33,183.33;stroke-dashoffset:20.83;stroke:#000;"/><path d="M417.039,5417.5l10833.3,0" style="fill:none;stroke-width:4.17px;stroke-dasharray:41.67,183.33,8.33,183.33;stroke-dashoffset:20.83;stroke:#000;"/><path d="M11250.4,834.171l-10833.3,0" style="fill:none;stroke-width:4.17px;stroke-dasharray:41.67,183.33,8.33,183.33;stroke-dashoffset:20.83;stroke:#000;"/><path d="M11250.4,2500.84l-10833.3,0" style="fill:none;stroke-width:4.17px;stroke-dasharray:41.67,183.33,8.33,183.33;stroke-dashoffset:20.83;stroke:#000;"/><path d="M11250.4,4167.5l-10833.3,0" style="fill:none;stroke-width:4.17px;stroke-dasharray:41.67,183.33,8.33,183.33;stroke-dashoffset:20.83;stroke:#000;"/><path d="M11250.4,5834.17l-10833.3,0" style="fill:none;stroke-width:4.17px;stroke-dasharray:41.67,183.33,8.33,183.33;stroke-dashoffset:20.83;stroke:#000;"/><path d="M417.039,1250.84l10833.3,0" style="fill:none;stroke-width:4.17px;stroke-dasharray:41.67,183.33,8.33,183.33;stroke-dashoffset:20.83;stroke:#000;"/><path d="M417.039,2917.5l10833.3,0" style="fill:none;stroke-width:4.17px;stroke-dasharray:41.67,183.33,8.33,183.33;stroke-dashoffset:20.83;stroke:#000;"/><path d="M417.039,4584.17l10833.3,0" style="fill:none;stroke-width:4.17px;stroke-dasharray:41.67,183.33,8.33,183.33;stroke-dashoffset:20.83;stroke:#000;"/><path d="M417.039,6250.84l10833.3,0" style="fill:none;stroke-width:4.17px;stroke-dasharray:41.67,183.33,8.33,183.33;stroke-dashoffset:20.83;stroke:#000;"/><path d="M417.039,1667.5l10833.3,0" style="fill:none;stroke-width:4.17px;stroke-dasharray:41.67,183.33,8.33,183.33;stroke-dashoffset:20.83;stroke:#000;"/><path d="M417.039,3334.17l10833.3,0" style="fill:none;stroke-width:4.17px;stroke-dasharray:41.67,183.33,8.33,183.33;stroke-dashoffset:20.83;stroke:#000;"/><path d="M417.039,5000.84l10833.3,0" style="fill:none;stroke-width:4.17px;stroke-dasharray:41.67,183.33,8.33,183.33;stroke-dashoffset:20.83;stroke:#000;"/><path d="M417.039,6667.5l10833.3,0" style="fill:none;stroke-width:4.17px;stroke-dasharray:41.67,183.33,8.33,183.33;stroke-dashoffset:20.83;stroke:#000;"/><path d="M417.039,7500.84l10833.3,0" style="fill:none;stroke-width:4.17px;stroke-dasharray:41.67,183.33,8.33,183.33;stroke-dashoffset:20.83;stroke:#000;"/><path d="M417.039,8334.17l10833.3,0" style="fill:none;stroke-width:4.17px;stroke-dasharray:41.67,183.33,8.33,183.33;stroke-dashoffset:20.83;stroke:#000;"/><path d="M417.039,9167.5l10833.3,0" style="fill:none;stroke-width:4.17px;stroke-dasharray:41.67,183.33,8.33,183.33;stroke-dashoffset:20.83;stroke:#000;"/><path d="M417.039,7084.17l10833.3,0" style="fill:none;stroke-width:4.17px;stroke-dasharray:41.67,183.33,8.33,183.33;stroke-dashoffset:20.83;stroke:#000;"/><path d="M417.039,7917.5l10833.3,0" style="fill:none;stroke-width:4.17px;stroke-dasharray:41.67,183.33,8.33,183.33;stroke-dashoffset:20.83;stroke:#000;"/><path d="M417.039,8750.84l10833.3,0" style="fill:none;stroke-width:4.17px;stroke-dasharray:41.67,183.33,8.33,183.33;stroke-dashoffset:20.83;stroke:#000;"/><path d="M417.039,9584.17l10833.3,0" style="fill:none;stroke-width:4.17px;stroke-dasharray:41.67,183.33,8.33,183.33;stroke-dashoffset:20.83;stroke:#000;"/></g><g id="top labels"><rect x="625.372" y="209.171" width="416.667" height="208.333" style="fill:#808080;stroke-width:4.17px;stroke:#000;"/><rect x="2708.7" y="209.171" width="416.667" height="208.333" style="fill:#808080;stroke-width:4.17px;stroke:#000;"/><rect x="4792.04" y="209.171" width="416.667" height="208.333" style="fill:#808080;stroke-width:4.17px;stroke:#000;"/><rect x="1042.04" y="209.171" width="416.667" height="208.333" style="fill:#808080;stroke-width:4.17px;stroke:#000;"/><rect x="3125.37" y="209.171" width="416.667" height="208.333" style="fill:#808080;stroke-width:4.17px;stroke:#000;"/><rect x="5208.7" y="209.171" width="416.667" height="208.333" style="fill:#808080;stroke-width:4.17px;stroke:#000;"/><rect x="1458.7" y="209.171" width="416.667" height="208.333" style="fill:#808080;stroke-width:4.17px;stroke:#000;"/><rect x="3542.04" y="209.171" width="416.667" height="208.333" style="fill:#808080;stroke-width:4.17px;stroke:#000;"/><rect x="1875.37" y="209.171" width="416.667" height="208.333" style="fill:#808080;stroke-width:4.17px;stroke:#000;"/><rect x="3958.7" y="209.171" width="416.667" height="208.333" style="fill:#808080;stroke-width:4.17px;stroke:#000;"/><rect x="2292.04" y="209.171" width="416.667" height="208.333" style="fill:#808080;stroke-width:4.17px;stroke:#000;"/><rect x="4375.37" y="209.171" width="416.667" height="208.333" style="fill:#808080;stroke-width:4.17px;stroke:#000;"/><text x="783.746px" y="372px" style="font-family:'ArialMT';font-size:150px;fill:#000;stroke-width:4.17px;stroke:#000;">A</text><text x="2867.08px" y="372px" style="font-family:'ArialMT';font-size:150px;fill:#000;stroke-width:4.17px;stroke:#000;">F</text><text x="4950.41px" y="372px" style="font-family:'ArialMT';font-size:150px;fill:#000;stroke-width:4.17px;stroke:#000;">K</text><text x="1200.41px" y="372px" style="font-family:'ArialMT';font-size:150px;fill:#000;stroke-width:4.17px;stroke:#000;">B</text><text x="3283.75px" y="372px" style="font-family:'ArialMT';font-size:150px;fill:#000;stroke-width:4.17px;stroke:#000;">G</text><text x="5367.08px" y="372px" style="font-family:'ArialMT';font-size:150px;fill:#000;stroke-width:4.17px;stroke:#000;">L</text><text x="1617.08px" y="372px" style="font-family:'ArialMT';font-size:150px;fill:#000;stroke-width:4.17px;stroke:#000;">C</text><text x="3700.41px" y="372px" style="font-family:'ArialMT';font-size:150px;fill:#000;stroke-width:4.17px;stroke:#000;">H</text><text x="2033.75px" y="372px" style="font-family:'ArialMT';font-size:150px;fill:#000;stroke-width:4.17px;stroke:#000;">D</text><text x="4146.27px" y="372px" style="font-family:'ArialMT';font-size:150px;fill:#000;stroke-width:4.17px;stroke:#000;">I</text><text x="2450.41px" y="372px" style="font-family:'ArialMT';font-size:150px;fill:#000;stroke-width:4.17px;stroke:#000;">E</text><text x="4533.75px" y="372px" style="font-family:'ArialMT';font-size:150px;fill:#000;stroke-width:4.17px;stroke:#000;">J</text></g><g id="top numbers"><text x="1220.24px" y="191.511px" style="font-family:'ArialMT';font-size:83.333px;fill:#000;stroke-width:4.17px;stroke:#000;">1</text><text x="810.532px" y="191.511px" style="font-family:'ArialMT';font-size:83.333px;fill:#000;stroke-width:4.17px;stroke:#000;">0</text><text x="3303.57px" y="191.511px" style="font-family:'ArialMT';font-size:83.333px;fill:#000;stroke-width:4.17px;stroke:#000;">6</text><text x="5367.52px" y="191.511px" style="font-family:'ArialMT';font-size:83.333px;fill:#000;stroke-width:4.17px;stroke:#000;">1<tspan x="5407.68px " y="191.511px ">1</tspan></text><text x="1636.91px" y="191.511px" style="font-family:'ArialMT';font-size:83.333px;fill:#000;stroke-width:4.17px;stroke:#000;">2</text><text x="3722.52px" y="191.511px" style="font-family:'ArialMT';font-size:83.333px;fill:#000;stroke-width:4.17px;stroke:#000;">7</text><text x="2053.57px" y="191.511px" style="font-family:'ArialMT';font-size:83.333px;fill:#000;stroke-width:4.17px;stroke:#000;">3</text><text x="4139.19px" y="191.511px" style="font-family:'ArialMT';font-size:83.333px;fill:#000;stroke-width:4.17px;stroke:#000;">8</text><text x="2470.24px" y="191.511px" style="font-family:'ArialMT';font-size:83.333px;fill:#000;stroke-width:4.17px;stroke:#000;">4</text><text x="4555.85px" y="191.511px" style="font-family:'ArialMT';font-size:83.333px;fill:#000;stroke-width:4.17px;stroke:#000;">9</text><text x="2886.91px" y="191.511px" style="font-family:'ArialMT';font-size:83.333px;fill:#000;stroke-width:4.17px;stroke:#000;">5</text><text x="4954.03px" y="191.511px" style="font-family:'ArialMT';font-size:83.333px;fill:#000;stroke-width:4.17px;stroke:#000;">10</text></g><g id="side labels"><rect x="208.705" y="1042.5" width="208.333" height="416.667" style="fill:#808080;stroke-width:4.17px;stroke:#000;"/><rect x="208.705" y="625.837" width="208.333" height="416.667" style="fill:#808080;stroke-width:4.17px;stroke:#000;"/><rect x="208.705" y="2709.17" width="208.333" height="416.667" style="fill:#808080;stroke-width:4.17px;stroke:#000;"/><rect x="208.705" y="4375.84" width="208.333" height="416.667" style="fill:#808080;stroke-width:4.17px;stroke:#000;"/><rect x="208.705" y="6042.5" width="208.333" height="416.667" style="fill:#808080;stroke-width:4.17px;stroke:#000;"/><rect x="208.705" y="1459.17" width="208.333" height="416.667" style="fill:#808080;stroke-width:4.17px;stroke:#000;"/><rect x="208.705" y="3125.84" width="208.333" height="416.667" style="fill:#808080;stroke-width:4.17px;stroke:#000;"/><rect x="208.705" y="4792.5" width="208.333" height="416.667" style="fill:#808080;stroke-width:4.17px;stroke:#000;"/><rect x="208.705" y="6459.17" width="208.333" height="416.667" style="fill:#808080;stroke-width:4.17px;stroke:#000;"/><rect x="208.705" y="7292.5" width="208.333" height="416.667" style="fill:#808080;stroke-width:4.17px;stroke:#000;"/><rect x="208.705" y="8125.84" width="208.333" height="416.667" style="fill:#808080;stroke-width:4.17px;stroke:#000;"/><rect x="208.705" y="8959.17" width="208.333" height="416.667" style="fill:#808080;stroke-width:4.17px;stroke:#000;"/><rect x="208.705" y="1875.84" width="208.333" height="416.667" style="fill:#808080;stroke-width:4.17px;stroke:#000;"/><rect x="208.705" y="3542.5" width="208.333" height="416.667" style="fill:#808080;stroke-width:4.17px;stroke:#000;"/><rect x="208.705" y="5209.17" width="208.333" height="416.667" style="fill:#808080;stroke-width:4.17px;stroke:#000;"/><rect x="208.705" y="6875.84" width="208.333" height="416.667" style="fill:#808080;stroke-width:4.17px;stroke:#000;"/><rect x="208.705" y="7709.17" width="208.333" height="416.667" style="fill:#808080;stroke-width:4.17px;stroke:#000;"/><rect x="208.705" y="8542.5" width="208.333" height="416.667" style="fill:#808080;stroke-width:4.17px;stroke:#000;"/><rect x="208.705" y="9375.84" width="208.333" height="416.667" style="fill:#808080;stroke-width:4.17px;stroke:#000;"/><rect x="208.705" y="2292.5" width="208.333" height="416.667" style="fill:#808080;stroke-width:4.17px;stroke:#000;"/><rect x="208.705" y="3959.17" width="208.333" height="416.667" style="fill:#808080;stroke-width:4.17px;stroke:#000;"/><rect x="208.705" y="5625.84" width="208.333" height="416.667" style="fill:#808080;stroke-width:4.17px;stroke:#000;"/><text x="271.141px" y="1302.38px" style="font-family:'ArialMT';font-size:150px;fill:#000;stroke-width:4.17px;stroke:#000;">1</text><text x="271.141px" y="885.717px" style="font-family:'ArialMT';font-size:150px;fill:#000;stroke-width:4.17px;stroke:#000;">0</text><text x="271.141px" y="2969.05px" style="font-family:'ArialMT';font-size:150px;fill:#000;stroke-width:4.17px;stroke:#000;">5</text><text x="271.141px" y="4635.72px" style="font-family:'ArialMT';font-size:150px;fill:#000;stroke-width:4.17px;stroke:#000;">9</text><text x="229.43px" y="6302.38px" style="font-family:'ArialMT';font-size:150px;fill:#000;stroke-width:4.17px;stroke:#000;">13</text><text x="229.125px" y="7969.05px" style="font-family:'ArialMT';font-size:150px;fill:#000;stroke-width:4.17px;stroke:#000;">17</text><text x="236.409px" y="9649.95px" style="font-family:'ArialMT';font-size:150px;fill:#000;stroke-width:4.17px;stroke:#000;">21</text><text x="271.141px" y="1719.05px" style="font-family:'ArialMT';font-size:150px;fill:#000;stroke-width:4.17px;stroke:#000;">2</text><text x="271.141px" y="3385.72px" style="font-family:'ArialMT';font-size:150px;fill:#000;stroke-width:4.17px;stroke:#000;">6</text><text x="229.43px" y="5052.38px" style="font-family:'ArialMT';font-size:150px;fill:#000;stroke-width:4.17px;stroke:#000;">10</text><text x="229.43px" y="6719.05px" style="font-family:'ArialMT';font-size:150px;fill:#000;stroke-width:4.17px;stroke:#000;">14</text><text x="229.125px" y="8385.72px" style="font-family:'ArialMT';font-size:150px;fill:#000;stroke-width:4.17px;stroke:#000;">18</text><text x="271.141px" y="2135.72px" style="font-family:'ArialMT';font-size:150px;fill:#000;stroke-width:4.17px;stroke:#000;">3</text><text x="271.141px" y="3802.38px" style="font-family:'ArialMT';font-size:150px;fill:#000;stroke-width:4.17px;stroke:#000;">7</text><text x="234.996px" y="5469.05px" style="font-family:'ArialMT';font-size:150px;fill:#000;stroke-width:4.17px;stroke:#000;">1<tspan x="307.286px " y="5469.05px ">1</tspan></text><text x="229.43px" y="7135.72px" style="font-family:'ArialMT';font-size:150px;fill:#000;stroke-width:4.17px;stroke:#000;">15</text><text x="229.125px" y="8802.38px" style="font-family:'ArialMT';font-size:150px;fill:#000;stroke-width:4.17px;stroke:#000;">19</text><text x="271.141px" y="2552.38px" style="font-family:'ArialMT';font-size:150px;fill:#000;stroke-width:4.17px;stroke:#000;">4</text><text x="271.141px" y="4219.05px" style="font-family:'ArialMT';font-size:150px;fill:#000;stroke-width:4.17px;stroke:#000;">8</text><text x="229.43px" y="5885.72px" style="font-family:'ArialMT';font-size:150px;fill:#000;stroke-width:4.17px;stroke:#000;">12</text><text x="229.125px" y="7552.38px" style="font-family:'ArialMT';font-size:150px;fill:#000;stroke-width:4.17px;stroke:#000;">16</text><text x="236.409px" y="9233.28px" style="font-family:'ArialMT';font-size:150px;fill:#000;stroke-width:4.17px;stroke:#000;">20</text></g><rect x="0.372" y="0.837" width="416.667" height="416.667" style="fill:none;stroke-width:4.17px;stroke-miterlimit:1;stroke:#000;"/><rect x="208.705" y="209.171" width="416.667" height="416.667" style="fill:#808080;stroke-width:4.17px;stroke:#000;"/><text x="231.817px" y="525.186px" style="font-family:'ArialMT';font-size:266.667px;fill:#000;stroke-width:4.17px;stroke:#000;">1m</text></g><g><circle cx="829.167" cy="8334.35" r="83.333" style="fill:#fcd1d1;stroke-width:4.17px;stroke:#000;"/><circle cx="829.167" cy="8334.35" r="41.667" style="fill:#fc2e30;stroke-width:4.17px;stroke:#000;"/></g><g><circle cx="829.167" cy="7501.02" r="83.333" style="fill:#fcd1d1;stroke-width:4.17px;stroke:#000;"/><circle cx="829.167" cy="7501.02" r="41.667" style="fill:#fc2e30;stroke-width:4.17px;stroke:#000;"/></g><g><circle cx="829.167" cy="6667.68" r="83.333" style="fill:#fcd1d1;stroke-width:4.17px;stroke:#000;"/><circle cx="829.167" cy="6667.68" r="41.667" style="fill:#fc2e30;stroke-width:4.17px;stroke:#000;"/></g><g><circle cx="829.167" cy="5834.35" r="83.333" style="fill:#fcd1d1;stroke-width:4.17px;stroke:#000;"/><circle cx="829.167" cy="5834.35" r="41.667" style="fill:#fc2e30;stroke-width:4.17px;stroke:#000;"/></g><g><circle cx="1245.83" cy="8334.35" r="83.333" style="fill:#fcd1d1;stroke-width:4.17px;stroke:#000;"/><circle cx="1245.83" cy="8334.35" r="41.667" style="fill:#fc2e30;stroke-width:4.17px;stroke:#000;"/></g><g><circle cx="2079.17" cy="8334.35" r="83.333" style="fill:#fcd1d1;stroke-width:4.17px;stroke:#000;"/><circle cx="2079.17" cy="8334.35" r="41.667" style="fill:#fc2e30;stroke-width:4.17px;stroke:#000;"/></g><g><circle cx="4579.17" cy="8334.35" r="83.333" style="fill:#fcd1d1;stroke-width:4.17px;stroke:#000;"/><circle cx="4579.17" cy="8334.35" r="41.667" style="fill:#fc2e30;stroke-width:4.17px;stroke:#000;"/></g><g><circle cx="4579.17" cy="7501.02" r="83.333" style="fill:#fcd1d1;stroke-width:4.17px;stroke:#000;"/><circle cx="4579.17" cy="7501.02" r="41.667" style="fill:#fc2e30;stroke-width:4.17px;stroke:#000;"/></g><g><circle cx="4579.17" cy="6667.68" r="83.333" style="fill:#fcd1d1;stroke-width:4.17px;stroke:#000;"/><circle cx="4579.17" cy="6667.68" r="41.667" style="fill:#fc2e30;stroke-width:4.17px;stroke:#000;"/></g><g><circle cx="3745.83" cy="8334.35" r="83.333" style="fill:#fcd1d1;stroke-width:4.17px;stroke:#000;"/><circle cx="3745.83" cy="8334.35" r="41.667" style="fill:#fc2e30;stroke-width:4.17px;stroke:#000;"/></g><g><circle cx="2912.5" cy="8334.35" r="83.333" style="fill:#fcd1d1;stroke-width:4.17px;stroke:#000;"/><circle cx="2912.5" cy="8334.35" r="41.667" style="fill:#fc2e30;stroke-width:4.17px;stroke:#000;"/></g><g><circle cx="3662.5" cy="5834.35" r="83.333" style="fill:#fcd1d1;stroke-width:4.17px;stroke:#000;"/><circle cx="3662.5" cy="5834.35" r="41.667" style="fill:#fc2e30;stroke-width:4.17px;stroke:#000;"/></g><g><circle cx="4579.17" cy="5834.35" r="83.333" style="fill:#fcd1d1;stroke-width:4.17px;stroke:#000;"/><circle cx="4579.17" cy="5834.35" r="41.667" style="fill:#fc2e30;stroke-width:4.17px;stroke:#000;"/></g><g><circle cx="3662.5" cy="7501.02" r="83.333" style="fill:#fcd1d1;stroke-width:4.17px;stroke:#000;"/><circle cx="3662.5" cy="7501.02" r="41.667" style="fill:#fc2e30;stroke-width:4.17px;stroke:#000;"/></g><g><circle cx="1745.83" cy="6667.68" r="83.333" style="fill:#fcd1d1;stroke-width:4.17px;stroke:#000;"/><circle cx="1745.83" cy="6667.68" r="41.667" style="fill:#fc2e30;stroke-width:4.17px;stroke:#000;"/></g><g><rect x="1454.17" y="8449.97" width="416.667" height="18.75" style="fill:#000;"/><rect x="1653.12" y="8459.35" width="18.75" height="208.333" style="fill:#000;"/></g></g></svg>