<?xml version="1.0" standalone="no"?><!DOCTYPE svg PUBLIC "-//W3C//DTD SVG 1.1//EN" "http://www.w3.org/Graphics/SVG/1.1/DTD/svg11.dtd"><svg width="100%" height="100%" viewBox="0 0 1801 1301" version="1.1" xmlns="http://www.w3.org/2000/svg" xmlns:xlink="http://www.w3.org/1999/xlink" xml:space="preserve" style="fill-rule:evenodd;clip-rule:evenodd;stroke-linejoin:round;stroke-miterlimit:1.41421;"><clipPath id="_clip1"><rect id="maze" x="0.659" y="0.244" width="1800" height="1300"/></clipPath><g clip-path="url(#_clip1)"><g id="Layer4"><path d="M1600.66,200.244l-1400,0l0,1000l1200,0" style="fill:none;stroke-width:4.5px;stroke:#000;"/><path d="M1600.66,1210.24l0,-810l-1200,0l0,620l950,0l0,-370" style="fill:none;stroke-width:4.5px;stroke:#000;"/><path d="M1000.66,400.244l0,300" style="fill:none;stroke-width:4.5px;stroke:#000;"/><path d="M1700.66,300.244c-320,-21.112 -960,-63.334 -1200,-30c-109.752,15.243 -203.537,125.366 -240,230c-38.334,110 -30,321.666 10,430c36.747,99.524 126.05,198.785 230,220c163.333,33.333 588.333,15 750,-20c94.702,-20.503 168.333,-118.334 220,-190c49.965,-69.307 98.274,-159.804 90,-240c-33.825,-327.838 -366.562,-354.568 -400,10c-23.306,254.088 -304.81,268.612 -430,260c-166.508,-11.456 -258.48,-133.186 -280,-270c-18.761,-119.272 132.664,-235.928 250,-250c114.843,-13.774 233.354,121.713 240,250c10.965,211.692 266.593,149.951 280,-50c15.231,-227.16 313.018,-105.571 300,50c-10.02,119.731 -3.34,426.577 0,580" style="fill:none;stroke-width:8px;stroke-dasharray:24,48,0,0;stroke:#14a90c;stroke-opacity:0.698039;"/></g><g id="Layer3"><g><path d="M220.659,200.244c0,-11.039 -8.962,-20 -20,-20c-11.039,0 -20,8.961 -20,20c0,11.038 8.961,20 20,20c11.038,0 20,-8.962 20,-20Z" style="fill:#fcd1d1;stroke-width:1px;stroke:#000;"/><path d="M210.659,200.244c0,-5.52 -4.481,-10 -10,-10c-5.52,0 -10,4.48 -10,10c0,5.519 4.48,10 10,10c5.519,0 10,-4.481 10,-10Z" style="fill:#fc2e30;stroke-width:1px;stroke:#000;"/></g><g><path d="M220.659,400.244c0,-11.039 -8.962,-20 -20,-20c-11.039,0 -20,8.961 -20,20c0,11.038 8.961,20 20,20c11.038,0 20,-8.962 20,-20Z" style="fill:#fcd1d1;stroke-width:1px;stroke:#000;"/><path d="M210.659,400.244c0,-5.52 -4.481,-10 -10,-10c-5.52,0 -10,4.48 -10,10c0,5.519 4.48,10 10,10c5.519,0 10,-4.481 10,-10Z" style="fill:#fc2e30;stroke-width:1px;stroke:#000;"/></g><g><path d="M220.659,600.244c0,-11.039 -8.962,-20 -20,-20c-11.039,0 -20,8.961 -20,20c0,11.038 8.961,20 20,20c11.038,0 20,-8.962 20,-20Z" style="fill:#fcd1d1;stroke-width:1px;stroke:#000;"/><path d="M210.659,600.244c0,-5.52 -4.481,-10 -10,-10c-5.52,0 -10,4.48 -10,10c0,5.519 4.48,10 10,10c5.519,0 10,-4.481 10,-10Z" style="fill:#fc2e30;stroke-width:1px;stroke:#000;"/></g><g><path d="M220.659,800.244c0,-11.039 -8.962,-20 -20,-20c-11.039,0 -20,8.961 -20,20c0,11.038 8.961,20 20,20c11.038,0 20,-8.962 20,-20Z" style="fill:#fcd1d1;stroke-width:1px;stroke:#000;"/><path d="M210.659,800.244c0,-5.52 -4.481,-10 -10,-10c-5.52,0 -10,4.48 -10,10c0,5.519 4.48,10 10,10c5.519,0 10,-4.481 10,-10Z" style="fill:#fc2e30;stroke-width:1px;stroke:#000;"/></g><g><path d="M220.659,1000.24c0,-11.039 -8.962,-20 -20,-20c-11.039,0 -20,8.961 -20,20c0,11.038 8.961,20 20,20c11.038,0 20,-8.962 20,-20Z" style="fill:#fcd1d1;stroke-width:1px;stroke:#000;"/><path d="M210.659,1000.24c0,-5.52 -4.481,-10 -10,-10c-5.52,0 -10,4.48 -10,10c0,5.519 4.48,10 10,10c5.519,0 10,-4.481 10,-10Z" style="fill:#fc2e30;stroke-width:1px;stroke:#000;"/></g><g><path d="M220.659,1200.24c0,-11.039 -8.962,-20 -20,-20c-11.039,0 -20,8.961 -20,20c0,11.038 8.961,20 20,20c11.038,0 20,-8.962 20,-20Z" style="fill:#fcd1d1;stroke-width:1px;stroke:#000;"/><path d="M210.659,1200.24c0,-5.52 -4.481,-10 -10,-10c-5.52,0 -10,4.48 -10,10c0,5.519 4.48,10 10,10c5.519,0 10,-4.481 10,-10Z" style="fill:#fc2e30;stroke-width:1px;stroke:#000;"/></g><g><path d="M420.659,1200.24c0,-11.039 -8.962,-20 -20,-20c-11.039,0 -20,8.961 -20,20c0,11.038 8.961,20 20,20c11.038,0 20,-8.962 20,-20Z" style="fill:#fcd1d1;stroke-width:1px;stroke:#000;"/><path d="M410.659,1200.24c0,-5.52 -4.481,-10 -10,-10c-5.52,0 -10,4.48 -10,10c0,5.519 4.48,10 10,10c5.519,0 10,-4.481 10,-10Z" style="fill:#fc2e30;stroke-width:1px;stroke:#000;"/></g><g><path d="M620.659,1200.24c0,-11.039 -8.962,-20 -20,-20c-11.039,0 -20,8.961 -20,20c0,11.038 8.961,20 20,20c11.038,0 20,-8.962 20,-20Z" style="fill:#fcd1d1;stroke-width:1px;stroke:#000;"/><path d="M610.659,1200.24c0,-5.52 -4.481,-10 -10,-10c-5.52,0 -10,4.48 -10,10c0,5.519 4.48,10 10,10c5.519,0 10,-4.481 10,-10Z" style="fill:#fc2e30;stroke-width:1px;stroke:#000;"/></g><g><path d="M820.659,1200.24c0,-11.039 -8.962,-20 -20,-20c-11.039,0 -20,8.961 -20,20c0,11.038 8.961,20 20,20c11.038,0 20,-8.962 20,-20Z" style="fill:#fcd1d1;stroke-width:1px;stroke:#000;"/><path d="M810.659,1200.24c0,-5.52 -4.481,-10 -10,-10c-5.52,0 -10,4.48 -10,10c0,5.519 4.48,10 10,10c5.519,0 10,-4.481 10,-10Z" style="fill:#fc2e30;stroke-width:1px;stroke:#000;"/></g><g><path d="M1020.66,1200.24c0,-11.039 -8.962,-20 -20,-20c-11.039,0 -20,8.961 -20,20c0,11.038 8.961,20 20,20c11.038,0 20,-8.962 20,-20Z" style="fill:#fcd1d1;stroke-width:1px;stroke:#000;"/><path d="M1010.66,1200.24c0,-5.52 -4.481,-10 -10,-10c-5.52,0 -10,4.48 -10,10c0,5.519 4.48,10 10,10c5.519,0 10,-4.481 10,-10Z" style="fill:#fc2e30;stroke-width:1px;stroke:#000;"/></g><g><path d="M1220.66,1200.24c0,-11.039 -8.962,-20 -20,-20c-11.039,0 -20,8.961 -20,20c0,11.038 8.961,20 20,20c11.038,0 20,-8.962 20,-20Z" style="fill:#fcd1d1;stroke-width:1px;stroke:#000;"/><path d="M1210.66,1200.24c0,-5.52 -4.481,-10 -10,-10c-5.52,0 -10,4.48 -10,10c0,5.519 4.48,10 10,10c5.519,0 10,-4.481 10,-10Z" style="fill:#fc2e30;stroke-width:1px;stroke:#000;"/></g><g><path d="M1420.66,1200.24c0,-11.039 -8.962,-20 -20,-20c-11.039,0 -20,8.961 -20,20c0,11.038 8.961,20 20,20c11.038,0 20,-8.962 20,-20Z" style="fill:#fcd1d1;stroke-width:1px;stroke:#000;"/><path d="M1410.66,1200.24c0,-5.52 -4.481,-10 -10,-10c-5.52,0 -10,4.48 -10,10c0,5.519 4.48,10 10,10c5.519,0 10,-4.481 10,-10Z" style="fill:#fc2e30;stroke-width:1px;stroke:#000;"/></g><g><path d="M1620.66,1200.24c0,-11.039 -8.962,-20 -20,-20c-11.039,0 -20,8.961 -20,20c0,11.038 8.961,20 20,20c11.038,0 20,-8.962 20,-20Z" style="fill:#fcd1d1;stroke-width:1px;stroke:#000;"/><path d="M1610.66,1200.24c0,-5.52 -4.481,-10 -10,-10c-5.52,0 -10,4.48 -10,10c0,5.519 4.48,10 10,10c5.519,0 10,-4.481 10,-10Z" style="fill:#fc2e30;stroke-width:1px;stroke:#000;"/></g><g><path d="M1620.66,1000.24c0,-11.039 -8.962,-20 -20,-20c-11.039,0 -20,8.961 -20,20c0,11.038 8.961,20 20,20c11.038,0 20,-8.962 20,-20Z" style="fill:#fcd1d1;stroke-width:1px;stroke:#000;"/><path d="M1610.66,1000.24c0,-5.52 -4.481,-10 -10,-10c-5.52,0 -10,4.48 -10,10c0,5.519 4.48,10 10,10c5.519,0 10,-4.481 10,-10Z" style="fill:#fc2e30;stroke-width:1px;stroke:#000;"/></g><g><path d="M1620.66,800.244c0,-11.039 -8.962,-20 -20,-20c-11.039,0 -20,8.961 -20,20c0,11.038 8.961,20 20,20c11.038,0 20,-8.962 20,-20Z" style="fill:#fcd1d1;stroke-width:1px;stroke:#000;"/><path d="M1610.66,800.244c0,-5.52 -4.481,-10 -10,-10c-5.52,0 -10,4.48 -10,10c0,5.519 4.48,10 10,10c5.519,0 10,-4.481 10,-10Z" style="fill:#fc2e30;stroke-width:1px;stroke:#000;"/></g><g><path d="M1370.66,1020.24c0,-11.039 -8.962,-20 -20,-20c-11.039,0 -20,8.961 -20,20c0,11.038 8.961,20 20,20c11.038,0 20,-8.962 20,-20Z" style="fill:#fcd1d1;stroke-width:1px;stroke:#000;"/><path d="M1360.66,1020.24c0,-5.52 -4.481,-10 -10,-10c-5.52,0 -10,4.48 -10,10c0,5.519 4.48,10 10,10c5.519,0 10,-4.481 10,-10Z" style="fill:#fc2e30;stroke-width:1px;stroke:#000;"/></g><g><path d="M1370.66,900.244c0,-11.039 -8.962,-20 -20,-20c-11.039,0 -20,8.961 -20,20c0,11.038 8.961,20 20,20c11.038,0 20,-8.962 20,-20Z" style="fill:#fcd1d1;stroke-width:1px;stroke:#000;"/><path d="M1360.66,900.244c0,-5.52 -4.481,-10 -10,-10c-5.52,0 -10,4.48 -10,10c0,5.519 4.48,10 10,10c5.519,0 10,-4.481 10,-10Z" style="fill:#fc2e30;stroke-width:1px;stroke:#000;"/></g><g><path d="M1370.66,650.244c0,-11.039 -8.962,-20 -20,-20c-11.039,0 -20,8.961 -20,20c0,11.038 8.961,20 20,20c11.038,0 20,-8.962 20,-20Z" style="fill:#fcd1d1;stroke-width:1px;stroke:#000;"/><path d="M1360.66,650.244c0,-5.52 -4.481,-10 -10,-10c-5.52,0 -10,4.48 -10,10c0,5.519 4.48,10 10,10c5.519,0 10,-4.481 10,-10Z" style="fill:#fc2e30;stroke-width:1px;stroke:#000;"/></g><g><path d="M1370.66,800.244c0,-11.039 -8.962,-20 -20,-20c-11.039,0 -20,8.961 -20,20c0,11.038 8.961,20 20,20c11.038,0 20,-8.962 20,-20Z" style="fill:#fcd1d1;stroke-width:1px;stroke:#000;"/><path d="M1360.66,800.244c0,-5.52 -4.481,-10 -10,-10c-5.52,0 -10,4.48 -10,10c0,5.519 4.48,10 10,10c5.519,0 10,-4.481 10,-10Z" style="fill:#fc2e30;stroke-width:1px;stroke:#000;"/></g><g><path d="M1220.66,1020.24c0,-11.039 -8.962,-20 -20,-20c-11.039,0 -20,8.961 -20,20c0,11.038 8.961,20 20,20c11.038,0 20,-8.962 20,-20Z" style="fill:#fcd1d1;stroke-width:1px;stroke:#000;"/><path d="M1210.66,1020.24c0,-5.52 -4.481,-10 -10,-10c-5.52,0 -10,4.48 -10,10c0,5.519 4.48,10 10,10c5.519,0 10,-4.481 10,-10Z" style="fill:#fc2e30;stroke-width:1px;stroke:#000;"/></g><g><path d="M1020.66,1020.24c0,-11.039 -8.962,-20 -20,-20c-11.039,0 -20,8.961 -20,20c0,11.038 8.961,20 20,20c11.038,0 20,-8.962 20,-20Z" style="fill:#fcd1d1;stroke-width:1px;stroke:#000;"/><path d="M1010.66,1020.24c0,-5.52 -4.481,-10 -10,-10c-5.52,0 -10,4.48 -10,10c0,5.519 4.48,10 10,10c5.519,0 10,-4.481 10,-10Z" style="fill:#fc2e30;stroke-width:1px;stroke:#000;"/></g><g><path d="M820.659,1020.24c0,-11.039 -8.962,-20 -20,-20c-11.039,0 -20,8.961 -20,20c0,11.038 8.961,20 20,20c11.038,0 20,-8.962 20,-20Z" style="fill:#fcd1d1;stroke-width:1px;stroke:#000;"/><path d="M810.659,1020.24c0,-5.52 -4.481,-10 -10,-10c-5.52,0 -10,4.48 -10,10c0,5.519 4.48,10 10,10c5.519,0 10,-4.481 10,-10Z" style="fill:#fc2e30;stroke-width:1px;stroke:#000;"/></g><g><path d="M620.659,1020.24c0,-11.039 -8.962,-20 -20,-20c-11.039,0 -20,8.961 -20,20c0,11.038 8.961,20 20,20c11.038,0 20,-8.962 20,-20Z" style="fill:#fcd1d1;stroke-width:1px;stroke:#000;"/><path d="M610.659,1020.24c0,-5.52 -4.481,-10 -10,-10c-5.52,0 -10,4.48 -10,10c0,5.519 4.48,10 10,10c5.519,0 10,-4.481 10,-10Z" style="fill:#fc2e30;stroke-width:1px;stroke:#000;"/></g><g><path d="M420.659,1020.24c0,-11.039 -8.962,-20 -20,-20c-11.039,0 -20,8.961 -20,20c0,11.038 8.961,20 20,20c11.038,0 20,-8.962 20,-20Z" style="fill:#fcd1d1;stroke-width:1px;stroke:#000;"/><path d="M410.659,1020.24c0,-5.52 -4.481,-10 -10,-10c-5.52,0 -10,4.48 -10,10c0,5.519 4.48,10 10,10c5.519,0 10,-4.481 10,-10Z" style="fill:#fc2e30;stroke-width:1px;stroke:#000;"/></g><g><path d="M420.659,800.244c0,-11.039 -8.962,-20 -20,-20c-11.039,0 -20,8.961 -20,20c0,11.038 8.961,20 20,20c11.038,0 20,-8.962 20,-20Z" style="fill:#fcd1d1;stroke-width:1px;stroke:#000;"/><path d="M410.659,800.244c0,-5.52 -4.481,-10 -10,-10c-5.52,0 -10,4.48 -10,10c0,5.519 4.48,10 10,10c5.519,0 10,-4.481 10,-10Z" style="fill:#fc2e30;stroke-width:1px;stroke:#000;"/></g><g><path d="M420.659,600.244c0,-11.039 -8.962,-20 -20,-20c-11.039,0 -20,8.961 -20,20c0,11.038 8.961,20 20,20c11.038,0 20,-8.962 20,-20Z" style="fill:#fcd1d1;stroke-width:1px;stroke:#000;"/><path d="M410.659,600.244c0,-5.52 -4.481,-10 -10,-10c-5.52,0 -10,4.48 -10,10c0,5.519 4.48,10 10,10c5.519,0 10,-4.481 10,-10Z" style="fill:#fc2e30;stroke-width:1px;stroke:#000;"/></g><g><path d="M1020.66,700.244c0,-11.039 -8.962,-20 -20,-20c-11.039,0 -20,8.961 -20,20c0,11.038 8.961,20 20,20c11.038,0 20,-8.962 20,-20Z" style="fill:#fcd1d1;stroke-width:1px;stroke:#000;"/><path d="M1010.66,700.244c0,-5.52 -4.481,-10 -10,-10c-5.52,0 -10,4.48 -10,10c0,5.519 4.48,10 10,10c5.519,0 10,-4.481 10,-10Z" style="fill:#fc2e30;stroke-width:1px;stroke:#000;"/></g><g><path d="M1020.66,600.244c0,-11.039 -8.962,-20 -20,-20c-11.039,0 -20,8.961 -20,20c0,11.038 8.961,20 20,20c11.038,0 20,-8.962 20,-20Z" style="fill:#fcd1d1;stroke-width:1px;stroke:#000;"/><path d="M1010.66,600.244c0,-5.52 -4.481,-10 -10,-10c-5.52,0 -10,4.48 -10,10c0,5.519 4.48,10 10,10c5.519,0 10,-4.481 10,-10Z" style="fill:#fc2e30;stroke-width:1px;stroke:#000;"/></g><g><path d="M1020.66,500.244c0,-11.039 -8.962,-20 -20,-20c-11.039,0 -20,8.961 -20,20c0,11.038 8.961,20 20,20c11.038,0 20,-8.962 20,-20Z" style="fill:#fcd1d1;stroke-width:1px;stroke:#000;"/><path d="M1010.66,500.244c0,-5.52 -4.481,-10 -10,-10c-5.52,0 -10,4.48 -10,10c0,5.519 4.48,10 10,10c5.519,0 10,-4.481 10,-10Z" style="fill:#fc2e30;stroke-width:1px;stroke:#000;"/></g><g><path d="M1620.66,600.244c0,-11.039 -8.962,-20 -20,-20c-11.039,0 -20,8.961 -20,20c0,11.038 8.961,20 20,20c11.038,0 20,-8.962 20,-20Z" style="fill:#fcd1d1;stroke-width:1px;stroke:#000;"/><path d="M1610.66,600.244c0,-5.52 -4.481,-10 -10,-10c-5.52,0 -10,4.48 -10,10c0,5.519 4.48,10 10,10c5.519,0 10,-4.481 10,-10Z" style="fill:#fc2e30;stroke-width:1px;stroke:#000;"/></g><g><path d="M420.659,200.244c0,-11.039 -8.962,-20 -20,-20c-11.039,0 -20,8.961 -20,20c0,11.038 8.961,20 20,20c11.038,0 20,-8.962 20,-20Z" style="fill:#fcd1d1;stroke-width:1px;stroke:#000;"/><path d="M410.659,200.244c0,-5.52 -4.481,-10 -10,-10c-5.52,0 -10,4.48 -10,10c0,5.519 4.48,10 10,10c5.519,0 10,-4.481 10,-10Z" style="fill:#fc2e30;stroke-width:1px;stroke:#000;"/></g><g><path d="M420.659,400.244c0,-11.039 -8.962,-20 -20,-20c-11.039,0 -20,8.961 -20,20c0,11.038 8.961,20 20,20c11.038,0 20,-8.962 20,-20Z" style="fill:#fcd1d1;stroke-width:1px;stroke:#000;"/><path d="M410.659,400.244c0,-5.52 -4.481,-10 -10,-10c-5.52,0 -10,4.48 -10,10c0,5.519 4.48,10 10,10c5.519,0 10,-4.481 10,-10Z" style="fill:#fc2e30;stroke-width:1px;stroke:#000;"/></g><g><path d="M620.659,200.244c0,-11.039 -8.962,-20 -20,-20c-11.039,0 -20,8.961 -20,20c0,11.038 8.961,20 20,20c11.038,0 20,-8.962 20,-20Z" style="fill:#fcd1d1;stroke-width:1px;stroke:#000;"/><path d="M610.659,200.244c0,-5.52 -4.481,-10 -10,-10c-5.52,0 -10,4.48 -10,10c0,5.519 4.48,10 10,10c5.519,0 10,-4.481 10,-10Z" style="fill:#fc2e30;stroke-width:1px;stroke:#000;"/></g><g><path d="M620.659,400.244c0,-11.039 -8.962,-20 -20,-20c-11.039,0 -20,8.961 -20,20c0,11.038 8.961,20 20,20c11.038,0 20,-8.962 20,-20Z" style="fill:#fcd1d1;stroke-width:1px;stroke:#000;"/><path d="M610.659,400.244c0,-5.52 -4.481,-10 -10,-10c-5.52,0 -10,4.48 -10,10c0,5.519 4.48,10 10,10c5.519,0 10,-4.481 10,-10Z" style="fill:#fc2e30;stroke-width:1px;stroke:#000;"/></g><g><path d="M820.659,400.244c0,-11.039 -8.962,-20 -20,-20c-11.039,0 -20,8.961 -20,20c0,11.038 8.961,20 20,20c11.038,0 20,-8.962 20,-20Z" style="fill:#fcd1d1;stroke-width:1px;stroke:#000;"/><path d="M810.659,400.244c0,-5.52 -4.481,-10 -10,-10c-5.52,0 -10,4.48 -10,10c0,5.519 4.48,10 10,10c5.519,0 10,-4.481 10,-10Z" style="fill:#fc2e30;stroke-width:1px;stroke:#000;"/></g><g><path d="M1020.66,400.244c0,-11.039 -8.962,-20 -20,-20c-11.039,0 -20,8.961 -20,20c0,11.038 8.961,20 20,20c11.038,0 20,-8.962 20,-20Z" style="fill:#fcd1d1;stroke-width:1px;stroke:#000;"/><path d="M1010.66,400.244c0,-5.52 -4.481,-10 -10,-10c-5.52,0 -10,4.48 -10,10c0,5.519 4.48,10 10,10c5.519,0 10,-4.481 10,-10Z" style="fill:#fc2e30;stroke-width:1px;stroke:#000;"/></g><g><path d="M1220.66,400.244c0,-11.039 -8.962,-20 -20,-20c-11.039,0 -20,8.961 -20,20c0,11.038 8.961,20 20,20c11.038,0 20,-8.962 20,-20Z" style="fill:#fcd1d1;stroke-width:1px;stroke:#000;"/><path d="M1210.66,400.244c0,-5.52 -4.481,-10 -10,-10c-5.52,0 -10,4.48 -10,10c0,5.519 4.48,10 10,10c5.519,0 10,-4.481 10,-10Z" style="fill:#fc2e30;stroke-width:1px;stroke:#000;"/></g><g><path d="M1420.66,400.244c0,-11.039 -8.962,-20 -20,-20c-11.039,0 -20,8.961 -20,20c0,11.038 8.961,20 20,20c11.038,0 20,-8.962 20,-20Z" style="fill:#fcd1d1;stroke-width:1px;stroke:#000;"/><path d="M1410.66,400.244c0,-5.52 -4.481,-10 -10,-10c-5.52,0 -10,4.48 -10,10c0,5.519 4.48,10 10,10c5.519,0 10,-4.481 10,-10Z" style="fill:#fc2e30;stroke-width:1px;stroke:#000;"/></g><g><path d="M1620.66,390.244c0,-11.039 -8.962,-20 -20,-20c-11.039,0 -20,8.961 -20,20c0,11.038 8.961,20 20,20c11.038,0 20,-8.962 20,-20Z" style="fill:#fcd1d1;stroke-width:1px;stroke:#000;"/><path d="M1610.66,390.244c0,-5.52 -4.481,-10 -10,-10c-5.52,0 -10,4.48 -10,10c0,5.519 4.48,10 10,10c5.519,0 10,-4.481 10,-10Z" style="fill:#fc2e30;stroke-width:1px;stroke:#000;"/></g><g><path d="M820.659,200.244c0,-11.039 -8.962,-20 -20,-20c-11.039,0 -20,8.961 -20,20c0,11.038 8.961,20 20,20c11.038,0 20,-8.962 20,-20Z" style="fill:#fcd1d1;stroke-width:1px;stroke:#000;"/><path d="M810.659,200.244c0,-5.52 -4.481,-10 -10,-10c-5.52,0 -10,4.48 -10,10c0,5.519 4.48,10 10,10c5.519,0 10,-4.481 10,-10Z" style="fill:#fc2e30;stroke-width:1px;stroke:#000;"/></g><g><path d="M1020.66,200.244c0,-11.039 -8.962,-20 -20,-20c-11.039,0 -20,8.961 -20,20c0,11.038 8.961,20 20,20c11.038,0 20,-8.962 20,-20Z" style="fill:#fcd1d1;stroke-width:1px;stroke:#000;"/><path d="M1010.66,200.244c0,-5.52 -4.481,-10 -10,-10c-5.52,0 -10,4.48 -10,10c0,5.519 4.48,10 10,10c5.519,0 10,-4.481 10,-10Z" style="fill:#fc2e30;stroke-width:1px;stroke:#000;"/></g><g><path d="M1220.66,200.244c0,-11.039 -8.962,-20 -20,-20c-11.039,0 -20,8.961 -20,20c0,11.038 8.961,20 20,20c11.038,0 20,-8.962 20,-20Z" style="fill:#fcd1d1;stroke-width:1px;stroke:#000;"/><path d="M1210.66,200.244c0,-5.52 -4.481,-10 -10,-10c-5.52,0 -10,4.48 -10,10c0,5.519 4.48,10 10,10c5.519,0 10,-4.481 10,-10Z" style="fill:#fc2e30;stroke-width:1px;stroke:#000;"/></g><g><path d="M1420.66,200.244c0,-11.039 -8.962,-20 -20,-20c-11.039,0 -20,8.961 -20,20c0,11.038 8.961,20 20,20c11.038,0 20,-8.962 20,-20Z" style="fill:#fcd1d1;stroke-width:1px;stroke:#000;"/><path d="M1410.66,200.244c0,-5.52 -4.481,-10 -10,-10c-5.52,0 -10,4.48 -10,10c0,5.519 4.48,10 10,10c5.519,0 10,-4.481 10,-10Z" style="fill:#fc2e30;stroke-width:1px;stroke:#000;"/></g><g><path d="M1620.66,200.244c0,-11.039 -8.962,-20 -20,-20c-11.039,0 -20,8.961 -20,20c0,11.038 8.961,20 20,20c11.038,0 20,-8.962 20,-20Z" style="fill:#fcd1d1;stroke-width:1px;stroke:#000;"/><path d="M1610.66,200.244c0,-5.52 -4.481,-10 -10,-10c-5.52,0 -10,4.48 -10,10c0,5.519 4.48,10 10,10c5.519,0 10,-4.481 10,-10Z" style="fill:#fc2e30;stroke-width:1px;stroke:#000;"/></g></g><g><path d="M1702.91,350.243l-4.5,0l0,-100l4.5,0l0,100Z" style="fill:#000;"/><path d="M1750.66,302.493l-50,0l0,-4.5l50,0l0,4.5Z" style="fill:#000;"/></g><g id="grid"><g id="bold lines"><path d="M700.659,100.244l0,2800" style="fill:none;stroke-width:1px;stroke-miterlimit:1;stroke:#000;stroke-opacity:0.298039;"/><path d="M100.659,700.244l2600,0" style="fill:none;stroke-width:1px;stroke-miterlimit:1;stroke:#000;stroke-opacity:0.298039;"/><path d="M1200.66,100.244l0,2800" style="fill:none;stroke-width:1px;stroke-miterlimit:1;stroke:#000;stroke-opacity:0.298039;"/><path d="M1700.66,100.244l0,2800" style="fill:none;stroke-width:1px;stroke-miterlimit:1;stroke:#000;stroke-opacity:0.298039;"/><path d="M100.659,1200.24l2600,0" style="fill:none;stroke-width:1px;stroke-miterlimit:1;stroke:#000;stroke-opacity:0.298039;"/><path d="M100.659,200.244l2600,0" style="fill:none;stroke-width:1px;stroke-miterlimit:1;stroke:#000;stroke-opacity:0.298039;"/><path d="M200.659,2900.24l0,-2800" style="fill:none;stroke-width:1px;stroke-miterlimit:1;stroke:#000;stroke-opacity:0.298039;"/></g><g id="vertical lines"><path d="M100.659,100.244l0,2800" style="fill:none;stroke-width:1px;stroke-linejoin:miter;stroke-miterlimit:1;stroke-dasharray:10,44,2,44;stroke-dashoffset:5;stroke:#000;"/><path d="M700.659,100.244l0,2800" style="fill:none;stroke-width:1px;stroke-linejoin:miter;stroke-miterlimit:1;stroke-dasharray:10,44,2,44;stroke-dashoffset:5;stroke:#000;"/><path d="M1300.66,100.244l0,2800" style="fill:none;stroke-width:1px;stroke-linejoin:miter;stroke-miterlimit:1;stroke-dasharray:10,44,2,44;stroke-dashoffset:5;stroke:#000;"/><path d="M300.659,100.244l0,2800" style="fill:none;stroke-width:1px;stroke-linejoin:miter;stroke-miterlimit:1;stroke-dasharray:10,44,2,44;stroke-dashoffset:5;stroke:#000;"/><path d="M900.659,100.244l0,2800" style="fill:none;stroke-width:1px;stroke-linejoin:miter;stroke-miterlimit:1;stroke-dasharray:10,44,2,44;stroke-dashoffset:5;stroke:#000;"/><path d="M1500.66,100.244l0,2800" style="fill:none;stroke-width:1px;stroke-linejoin:miter;stroke-miterlimit:1;stroke-dasharray:10,44,2,44;stroke-dashoffset:5;stroke:#000;"/><path d="M500.659,100.244l0,2800" style="fill:none;stroke-width:1px;stroke-linejoin:miter;stroke-miterlimit:1;stroke-dasharray:10,44,2,44;stroke-dashoffset:5;stroke:#000;"/><path d="M1100.66,100.244l0,2800" style="fill:none;stroke-width:1px;stroke-linejoin:miter;stroke-miterlimit:1;stroke-dasharray:10,44,2,44;stroke-dashoffset:5;stroke:#000;"/><path d="M1700.66,100.244l0,2800" style="fill:none;stroke-width:1px;stroke-linejoin:miter;stroke-miterlimit:1;stroke-dasharray:10,44,2,44;stroke-dashoffset:5;stroke:#000;"/><path d="M200.659,100.244l0,2800" style="fill:none;stroke-width:1px;stroke-linejoin:miter;stroke-miterlimit:1;stroke-dasharray:10,44,2,44;stroke-dashoffset:5;stroke:#000;"/><path d="M800.659,100.244l0,2800" style="fill:none;stroke-width:1px;stroke-linejoin:miter;stroke-miterlimit:1;stroke-dasharray:10,44,2,44;stroke-dashoffset:5;stroke:#000;"/><path d="M1400.66,100.244l0,2800" style="fill:none;stroke-width:1px;stroke-linejoin:miter;stroke-miterlimit:1;stroke-dasharray:10,44,2,44;stroke-dashoffset:5;stroke:#000;"/><path d="M400.659,100.244l0,2800" style="fill:none;stroke-width:1px;stroke-linejoin:miter;stroke-miterlimit:1;stroke-dasharray:10,44,2,44;stroke-dashoffset:5;stroke:#000;"/><path d="M1000.66,100.244l0,2800" style="fill:none;stroke-width:1px;stroke-linejoin:miter;stroke-miterlimit:1;stroke-dasharray:10,44,2,44;stroke-dashoffset:5;stroke:#000;"/><path d="M1600.66,100.244l0,2800" style="fill:none;stroke-width:1px;stroke-linejoin:miter;stroke-miterlimit:1;stroke-dasharray:10,44,2,44;stroke-dashoffset:5;stroke:#000;"/><path d="M600.659,100.244l0,2800" style="fill:none;stroke-width:1px;stroke-linejoin:miter;stroke-miterlimit:1;stroke-dasharray:10,44,2,44;stroke-dashoffset:5;stroke:#000;"/><path d="M1200.66,100.244l0,2800" style="fill:none;stroke-width:1px;stroke-linejoin:miter;stroke-miterlimit:1;stroke-dasharray:10,44,2,44;stroke-dashoffset:5;stroke:#000;"/><path d="M1800.66,100.244l0,2800" style="fill:none;stroke-width:1px;stroke-linejoin:miter;stroke-miterlimit:1;stroke-dasharray:10,44,2,44;stroke-dashoffset:5;stroke:#000;"/></g><g id="horizontal lines"><path d="M100.659,100.244l2600,0" style="fill:none;stroke-width:1px;stroke-dasharray:10,44,2,44;stroke-dashoffset:5;stroke:#000;"/><path d="M100.659,500.244l2600,0" style="fill:none;stroke-width:1px;stroke-dasharray:10,44,2,44;stroke-dashoffset:5;stroke:#000;"/><path d="M100.659,900.244l2600,0" style="fill:none;stroke-width:1px;stroke-dasharray:10,44,2,44;stroke-dashoffset:5;stroke:#000;"/><path d="M100.659,1300.24l2600,0" style="fill:none;stroke-width:1px;stroke-dasharray:10,44,2,44;stroke-dashoffset:5;stroke:#000;"/><path d="M2700.66,200.244l-2600,0" style="fill:none;stroke-width:1px;stroke-dasharray:10,44,2,44;stroke-dashoffset:5;stroke:#000;"/><path d="M2700.66,600.244l-2600,0" style="fill:none;stroke-width:1px;stroke-dasharray:10,44,2,44;stroke-dashoffset:5;stroke:#000;"/><path d="M2700.66,1000.24l-2600,0" style="fill:none;stroke-width:1px;stroke-dasharray:10,44,2,44;stroke-dashoffset:5;stroke:#000;"/><path d="M100.659,300.244l2600,0" style="fill:none;stroke-width:1px;stroke-dasharray:10,44,2,44;stroke-dashoffset:5;stroke:#000;"/><path d="M100.659,700.244l2600,0" style="fill:none;stroke-width:1px;stroke-dasharray:10,44,2,44;stroke-dashoffset:5;stroke:#000;"/><path d="M100.659,1100.24l2600,0" style="fill:none;stroke-width:1px;stroke-dasharray:10,44,2,44;stroke-dashoffset:5;stroke:#000;"/><path d="M100.659,400.244l2600,0" style="fill:none;stroke-width:1px;stroke-dasharray:10,44,2,44;stroke-dashoffset:5;stroke:#000;"/><path d="M100.659,800.244l2600,0" style="fill:none;stroke-width:1px;stroke-dasharray:10,44,2,44;stroke-dashoffset:5;stroke:#000;"/><path d="M100.659,1200.24l2600,0" style="fill:none;stroke-width:1px;stroke-dasharray:10,44,2,44;stroke-dashoffset:5;stroke:#000;"/></g><g id="top labels"><rect x="150.659" y="50.244" width="100" height="50" style="fill:#808080;stroke-width:1px;stroke:#000;"/><rect x="650.659" y="50.244" width="100" height="50" style="fill:#808080;stroke-width:1px;stroke:#000;"/><rect x="1150.66" y="50.244" width="100" height="50" style="fill:#808080;stroke-width:1px;stroke:#000;"/><rect x="1650.66" y="50.244" width="100" height="50" style="fill:#808080;stroke-width:1px;stroke:#000;"/><rect x="250.659" y="50.244" width="100" height="50" style="fill:#808080;stroke-width:1px;stroke:#000;"/><rect x="750.659" y="50.244" width="100" height="50" style="fill:#808080;stroke-width:1px;stroke:#000;"/><rect x="1250.66" y="50.244" width="100" height="50" style="fill:#808080;stroke-width:1px;stroke:#000;"/><rect x="1750.66" y="50.244" width="100" height="50" style="fill:#808080;stroke-width:1px;stroke:#000;"/><rect x="350.659" y="50.244" width="100" height="50" style="fill:#808080;stroke-width:1px;stroke:#000;"/><rect x="850.659" y="50.244" width="100" height="50" style="fill:#808080;stroke-width:1px;stroke:#000;"/><rect x="1350.66" y="50.244" width="100" height="50" style="fill:#808080;stroke-width:1px;stroke:#000;"/><rect x="450.659" y="50.244" width="100" height="50" style="fill:#808080;stroke-width:1px;stroke:#000;"/><rect x="950.659" y="50.244" width="100" height="50" style="fill:#808080;stroke-width:1px;stroke:#000;"/><rect x="1450.66" y="50.244" width="100" height="50" style="fill:#808080;stroke-width:1px;stroke:#000;"/><rect x="550.659" y="50.244" width="100" height="50" style="fill:#808080;stroke-width:1px;stroke:#000;"/><rect x="1050.66" y="50.244" width="100" height="50" style="fill:#808080;stroke-width:1px;stroke:#000;"/><rect x="1550.66" y="50.244" width="100" height="50" style="fill:#808080;stroke-width:1px;stroke:#000;"/><text x="188.668px" y="89.323px" style="font-family:'ArialMT';font-size:36px;fill:#000;stroke-width:1px;stroke:#000;">A</text><text x="688.668px" y="89.323px" style="font-family:'ArialMT';font-size:36px;fill:#000;stroke-width:1px;stroke:#000;">F</text><text x="1188.67px" y="89.323px" style="font-family:'ArialMT';font-size:36px;fill:#000;stroke-width:1px;stroke:#000;">K</text><text x="1688.67px" y="89.323px" style="font-family:'ArialMT';font-size:36px;fill:#000;stroke-width:1px;stroke:#000;">P</text><text x="288.668px" y="89.323px" style="font-family:'ArialMT';font-size:36px;fill:#000;stroke-width:1px;stroke:#000;">B</text><text x="788.668px" y="89.323px" style="font-family:'ArialMT';font-size:36px;fill:#000;stroke-width:1px;stroke:#000;">G</text><text x="1288.67px" y="89.323px" style="font-family:'ArialMT';font-size:36px;fill:#000;stroke-width:1px;stroke:#000;">L</text><text x="1788.67px" y="89.323px" style="font-family:'ArialMT';font-size:36px;fill:#000;stroke-width:1px;stroke:#000;">Q</text><text x="388.668px" y="89.323px" style="font-family:'ArialMT';font-size:36px;fill:#000;stroke-width:1px;stroke:#000;">C</text><text x="888.668px" y="89.323px" style="font-family:'ArialMT';font-size:36px;fill:#000;stroke-width:1px;stroke:#000;">H</text><text x="1388.67px" y="89.323px" style="font-family:'ArialMT';font-size:36px;fill:#000;stroke-width:1px;stroke:#000;">M</text><text x="488.668px" y="89.323px" style="font-family:'ArialMT';font-size:36px;fill:#000;stroke-width:1px;stroke:#000;">D</text><text x="995.673px" y="89.323px" style="font-family:'ArialMT';font-size:36px;fill:#000;stroke-width:1px;stroke:#000;">I</text><text x="1488.67px" y="89.323px" style="font-family:'ArialMT';font-size:36px;fill:#000;stroke-width:1px;stroke:#000;">N</text><text x="588.668px" y="89.323px" style="font-family:'ArialMT';font-size:36px;fill:#000;stroke-width:1px;stroke:#000;">E</text><text x="1088.67px" y="89.323px" style="font-family:'ArialMT';font-size:36px;fill:#000;stroke-width:1px;stroke:#000;">J</text><text x="1588.67px" y="89.323px" style="font-family:'ArialMT';font-size:36px;fill:#000;stroke-width:1px;stroke:#000;">O</text></g><g id="top numbers"><text x="293.427px" y="46.005px" style="font-family:'ArialMT';font-size:20px;fill:#000;stroke-width:1px;stroke:#000;">1</text><text x="195.097px" y="46.005px" style="font-family:'ArialMT';font-size:20px;fill:#000;stroke-width:1px;stroke:#000;">0</text><text x="793.427px" y="46.005px" style="font-family:'ArialMT';font-size:20px;fill:#000;stroke-width:1px;stroke:#000;">6</text><text x="1288.77px" y="46.005px" style="font-family:'ArialMT';font-size:20px;fill:#000;stroke-width:1px;stroke:#000;">1<tspan x="1298.41px " y="46.005px ">1</tspan></text><text x="1789.54px" y="46.005px" style="font-family:'ArialMT';font-size:20px;fill:#000;stroke-width:1px;stroke:#000;">16</text><text x="393.427px" y="46.005px" style="font-family:'ArialMT';font-size:20px;fill:#000;stroke-width:1px;stroke:#000;">2</text><text x="893.974px" y="46.005px" style="font-family:'ArialMT';font-size:20px;fill:#000;stroke-width:1px;stroke:#000;">7</text><text x="1389.54px" y="46.005px" style="font-family:'ArialMT';font-size:20px;fill:#000;stroke-width:1px;stroke:#000;">12</text><text x="493.427px" y="46.005px" style="font-family:'ArialMT';font-size:20px;fill:#000;stroke-width:1px;stroke:#000;">3</text><text x="993.974px" y="46.005px" style="font-family:'ArialMT';font-size:20px;fill:#000;stroke-width:1px;stroke:#000;">8</text><text x="1489.54px" y="46.005px" style="font-family:'ArialMT';font-size:20px;fill:#000;stroke-width:1px;stroke:#000;">13</text><text x="593.427px" y="46.005px" style="font-family:'ArialMT';font-size:20px;fill:#000;stroke-width:1px;stroke:#000;">4</text><text x="1093.97px" y="46.005px" style="font-family:'ArialMT';font-size:20px;fill:#000;stroke-width:1px;stroke:#000;">9</text><text x="1589.54px" y="46.005px" style="font-family:'ArialMT';font-size:20px;fill:#000;stroke-width:1px;stroke:#000;">14</text><text x="693.427px" y="46.005px" style="font-family:'ArialMT';font-size:20px;fill:#000;stroke-width:1px;stroke:#000;">5</text><text x="1189.54px" y="46.005px" style="font-family:'ArialMT';font-size:20px;fill:#000;stroke-width:1px;stroke:#000;">10</text><text x="1688.41px" y="46.005px" style="font-family:'ArialMT';font-size:20px;fill:#000;stroke-width:1px;stroke:#000;">15</text></g><g id="side labels"><rect x="50.659" y="250.244" width="50" height="100" style="fill:#808080;stroke-width:1px;stroke:#000;"/><rect x="50.659" y="150.244" width="50" height="100" style="fill:#808080;stroke-width:1px;stroke:#000;"/><rect x="50.659" y="650.244" width="50" height="100" style="fill:#808080;stroke-width:1px;stroke:#000;"/><rect x="50.659" y="1050.24" width="50" height="100" style="fill:#808080;stroke-width:1px;stroke:#000;"/><rect x="50.659" y="350.244" width="50" height="100" style="fill:#808080;stroke-width:1px;stroke:#000;"/><rect x="50.659" y="750.244" width="50" height="100" style="fill:#808080;stroke-width:1px;stroke:#000;"/><rect x="50.659" y="1150.24" width="50" height="100" style="fill:#808080;stroke-width:1px;stroke:#000;"/><rect x="50.659" y="450.244" width="50" height="100" style="fill:#808080;stroke-width:1px;stroke:#000;"/><rect x="50.659" y="850.244" width="50" height="100" style="fill:#808080;stroke-width:1px;stroke:#000;"/><rect x="50.659" y="1250.24" width="50" height="100" style="fill:#808080;stroke-width:1px;stroke:#000;"/><rect x="50.659" y="550.244" width="50" height="100" style="fill:#808080;stroke-width:1px;stroke:#000;"/><rect x="50.659" y="950.244" width="50" height="100" style="fill:#808080;stroke-width:1px;stroke:#000;"/><text x="65.643px" y="312.615px" style="font-family:'ArialMT';font-size:36px;fill:#000;stroke-width:1px;stroke:#000;">1</text><text x="65.643px" y="212.615px" style="font-family:'ArialMT';font-size:36px;fill:#000;stroke-width:1px;stroke:#000;">0</text><text x="65.643px" y="712.615px" style="font-family:'ArialMT';font-size:36px;fill:#000;stroke-width:1px;stroke:#000;">5</text><text x="65.643px" y="1112.62px" style="font-family:'ArialMT';font-size:36px;fill:#000;stroke-width:1px;stroke:#000;">9</text><text x="65.643px" y="412.615px" style="font-family:'ArialMT';font-size:36px;fill:#000;stroke-width:1px;stroke:#000;">2</text><text x="65.643px" y="812.615px" style="font-family:'ArialMT';font-size:36px;fill:#000;stroke-width:1px;stroke:#000;">6</text><text x="55.632px" y="1212.62px" style="font-family:'ArialMT';font-size:36px;fill:#000;stroke-width:1px;stroke:#000;">10</text><text x="65.643px" y="512.615px" style="font-family:'ArialMT';font-size:36px;fill:#000;stroke-width:1px;stroke:#000;">3</text><text x="65.643px" y="912.615px" style="font-family:'ArialMT';font-size:36px;fill:#000;stroke-width:1px;stroke:#000;">7</text><text x="56.968px" y="1312.62px" style="font-family:'ArialMT';font-size:36px;fill:#000;stroke-width:1px;stroke:#000;">1<tspan x="74.318px " y="1312.62px ">1</tspan></text><text x="65.643px" y="612.615px" style="font-family:'ArialMT';font-size:36px;fill:#000;stroke-width:1px;stroke:#000;">4</text><text x="65.643px" y="1012.62px" style="font-family:'ArialMT';font-size:36px;fill:#000;stroke-width:1px;stroke:#000;">8</text></g><rect x="0.659" y="0.244" width="100" height="100" style="fill:none;stroke-width:1px;stroke-miterlimit:1;stroke:#000;"/><rect x="50.659" y="50.244" width="100" height="100" style="fill:#808080;stroke-width:1px;stroke:#000;"/><text x="56.205px" y="126.087px" style="font-family:'ArialMT';font-size:64px;fill:#000;stroke-width:1px;stroke:#000;">1m</text></g></g></svg>