<?xml version="1.0" standalone="no"?>
<!DOCTYPE svg PUBLIC "-//W3C//DTD SVG 1.1//EN" "http://www.w3.org/Graphics/SVG/1.1/DTD/svg11.dtd">
<svg width="100%" height="100%" viewBox="0 0 3678 2304" version="1.1" xmlns="http://www.w3.org/2000/svg" xmlns:xlink="http://www.w3.org/1999/xlink" xml:space="preserve" style="fill-rule:evenodd;clip-rule:evenodd;stroke-linejoin:round;stroke-miterlimit:1.41421;">
    <g transform="matrix(1,0,0,1,-42195,-0)">
        <g id="parking-9" transform="matrix(2.87248,0,0,2.25,42195.9,0)">
            <g transform="matrix(2.08676,0,0,5.15206,-116.151,-2349.03)">
                <g transform="matrix(0.516355,0,0,0.342776,217.275,407.725)">
                    <rect x="676.756" y="269.252" width="4.487" height="305.495" style="fill:black;"/>
                </g>
                <g transform="matrix(0.516355,0,0,0.342776,167.974,407.725)">
                    <rect x="676.757" y="269.252" width="4.487" height="305.495" style="fill:black;"/>
                </g>
                <g transform="matrix(-2.3627e-16,-0.975331,1.46923,-1.56845e-16,-273.988,1214.63)">
                    <rect x="678.386" y="270.212" width="1.228" height="303.577" style="fill:black;"/>
                </g>
                <g transform="matrix(0.516355,0,0,0.342776,118.674,407.725)">
                    <rect x="676.756" y="269.252" width="4.487" height="305.495" style="fill:black;"/>
                </g>
                <g transform="matrix(0.516355,0,0,0.342776,69.3729,407.725)">
                    <rect x="676.757" y="269.252" width="4.487" height="305.495" style="fill:black;"/>
                </g>
                <g transform="matrix(0.516355,0,0,0.342776,20.0721,407.725)">
                    <rect x="676.756" y="269.252" width="4.487" height="305.495" style="fill:black;"/>
                </g>
                <g transform="matrix(0.516355,0,0,0.342776,-29.2287,407.725)">
                    <rect x="676.756" y="269.252" width="4.487" height="305.495" style="fill:black;"/>
                </g>
                <g transform="matrix(0.516355,0,0,0.342776,-78.5295,407.725)">
                    <rect x="676.757" y="269.252" width="4.487" height="305.495" style="fill:black;"/>
                </g>
                <g transform="matrix(0.516355,0,0,0.342776,-127.83,407.725)">
                    <rect x="676.756" y="269.252" width="4.487" height="305.495" style="fill:black;"/>
                </g>
                <g transform="matrix(0.516355,0,0,0.342776,-177.131,407.725)">
                    <rect x="676.756" y="269.252" width="4.487" height="305.495" style="fill:black;"/>
                </g>
                <g transform="matrix(0.516355,0,0,0.342776,-226.432,407.725)">
                    <rect x="676.756" y="269.252" width="4.487" height="305.495" style="fill:black;"/>
                </g>
            </g>
            <g transform="matrix(0.126249,-3.77701e-17,-6.84244e-16,0.161177,71.7512,-352.475)">
                <path d="M1097.11,3478.42C1097.11,3453.29 1076.71,3432.89 1051.58,3432.89L960.528,3432.89C935.4,3432.89 915,3453.29 915,3478.42L915,3569.47C915,3594.6 935.4,3615 960.528,3615L1051.58,3615C1076.71,3615 1097.11,3594.6 1097.11,3569.47L1097.11,3478.42Z" style="fill:rgb(23,16,252);"/>
            </g>
            <g transform="matrix(0.126249,-3.77701e-17,-6.84244e-16,0.161177,221.713,-304.523)">
                <path d="M1097.11,3478.42C1097.11,3453.29 1076.71,3432.89 1051.58,3432.89L960.528,3432.89C935.4,3432.89 915,3453.29 915,3478.42L915,3569.47C915,3594.6 935.4,3615 960.528,3615L1051.58,3615C1076.71,3615 1097.11,3594.6 1097.11,3569.47L1097.11,3478.42Z" style="fill:rgb(23,16,252);"/>
            </g>
            <g transform="matrix(0.126249,-3.77701e-17,-6.84244e-16,0.161177,427.471,-71.1325)">
                <path d="M1097.11,3478.42C1097.11,3453.29 1076.71,3432.89 1051.58,3432.89L960.528,3432.89C935.4,3432.89 915,3453.29 915,3478.42L915,3569.47C915,3594.6 935.4,3615 960.528,3615L1051.58,3615C1076.71,3615 1097.11,3594.6 1097.11,3569.47L1097.11,3478.42Z" style="fill:rgb(23,16,252);"/>
            </g>
            <g transform="matrix(0.126249,-3.77701e-17,-6.84244e-16,0.161177,359.237,-215.577)">
                <path d="M1097.11,3478.42C1097.11,3453.29 1076.71,3432.89 1051.58,3432.89L960.528,3432.89C935.4,3432.89 915,3453.29 915,3478.42L915,3569.47C915,3594.6 935.4,3615 960.528,3615L1051.58,3615C1076.71,3615 1097.11,3594.6 1097.11,3569.47L1097.11,3478.42Z" style="fill:rgb(23,16,252);"/>
            </g>
            <g transform="matrix(0.093143,0,0,0.118912,291.41,-248.554)">
                <path d="M1159.24,3691.36L1159.36,3691.4L1165.32,3693.34L1165.38,3693.36L1171.35,3695.32L1171.47,3695.36L1177.48,3697.33L1177.6,3697.37L1183.6,3699.35L1183.72,3699.39L1189.7,3701.38L1189.75,3701.39L1195.71,3703.37L1195.76,3703.39L1201.8,3705.4L1201.99,3705.47L1208.01,3707.49L1208.06,3707.5L1214.03,3709.51L1214.08,3709.53L1220.13,3711.57L1220.32,3711.63L1226.35,3713.68L1226.41,3713.7L1232.39,3715.73L1232.44,3715.75L1238.47,3717.8L1238.6,3717.84L1244.66,3719.92L1244.78,3719.96L1250.84,3722.04L1250.96,3722.08L1256.99,3724.17L1257.05,3724.18L1263.09,3726.28L1263.21,3726.32L1269.29,3728.43L1269.41,3728.47L1275.49,3730.59L1275.61,3730.63L1281.65,3732.75L1281.7,3732.77L1287.73,3734.89L1287.78,3734.9L1293.89,3737.05L1294.08,3737.12L1300.17,3739.28L1300.22,3739.3L1306.29,3741.45L1306.41,3741.49L1312.52,3743.67L1312.63,3743.71L1318.71,3745.89L1318.76,3745.9L1324.85,3748.09L1324.97,3748.13L1331.09,3750.34L1331.21,3750.38L1337.33,3752.59L1337.44,3752.63L1343.53,3754.85L1343.58,3754.86L1349.68,3757.08L1349.8,3757.13L1355.94,3759.37L1356.06,3759.41L1362.19,3761.66L1362.31,3761.71L1368.41,3763.96L1368.46,3763.97L1374.61,3766.24L1374.8,3766.32L1380.93,3768.6L1380.98,3768.61L1387.06,3770.88L1387.11,3770.89L1393.27,3773.19L1393.46,3773.26L1399.61,3775.57L1399.66,3775.59L1405.79,3777.89L1405.91,3777.94L1412.07,3780.27L1412.19,3780.31L1418.36,3782.65L1418.47,3782.69L1424.6,3785.03L1424.65,3785.05L1430.83,3787.4L1431.02,3787.47L1437.18,3789.84L1437.23,3789.86L1443.37,3792.22L1443.49,3792.26L1449.66,3794.65L1449.78,3794.69L1455.92,3797.07L1455.97,3797.09L1462.16,3799.5L1462.35,3799.57L1468.53,3801.98L1468.58,3802L1474.73,3804.41L1474.85,3804.46L1481.04,3806.89L1481.16,3806.94L1487.35,3809.38L1487.47,3809.43L1493.63,3811.86L1493.67,3811.88L1499.88,3814.34L1500.07,3814.42L1506.26,3816.89L1506.3,3816.91L1512.51,3819.39L1512.7,3819.46L1518.89,3821.95L1518.94,3821.97L1525.11,3824.46L1525.22,3824.51L1531.43,3827.02L1531.55,3827.06L1537.72,3829.57L1537.76,3829.59L1543.98,3832.12L1544.17,3832.2L1550.41,3834.75L1550.53,3834.8L1556.7,3837.33L1556.74,3837.35L1562.96,3839.91L1563.15,3839.99L1569.36,3842.56L1569.4,3842.57L1575.59,3845.14L1575.7,3845.19L1581.92,3847.78L1582.04,3847.82L1588.26,3850.42L1588.37,3850.47L1594.59,3853.08L1594.71,3853.13L1600.93,3855.74L1601.05,3855.8L1607.27,3858.42L1607.38,3858.47L1613.6,3861.11L1613.72,3861.16L1619.9,3863.79L1619.94,3863.81L1626.18,3866.47L1626.37,3866.55L1632.62,3869.23L1632.74,3869.28L1638.92,3871.94L1638.96,3871.96L1645.2,3874.65L1645.39,3874.73L1651.61,3877.43L1651.65,3877.45L1657.88,3880.15L1658.07,3880.24L1664.29,3882.95L1664.33,3882.97L1670.56,3885.7L1670.76,3885.78L1676.98,3888.52L1677.02,3888.54L1683.25,3891.29L1683.44,3891.37L1689.65,3894.13L1689.69,3894.14L1695.89,3896.89L1696.01,3896.95L1702.28,3899.74L1702.47,3899.83L1708.69,3902.62L1708.73,3902.63L1714.96,3905.43L1715.15,3905.52L1721.37,3908.33L1721.41,3908.34L1727.64,3911.16L1727.83,3911.25L1734.05,3914.08L1734.09,3914.09L1740.32,3916.93L1740.51,3917.02L1746.73,3919.87L1746.77,3919.88L1753,3922.74L1753.19,3922.83L1759.45,3925.72L1759.57,3925.77L1765.75,3928.63L1765.78,3928.65L1772.01,3931.54L1772.2,3931.63L1778.46,3934.54L1778.57,3934.6L1784.79,3937.51L1784.91,3937.56L1791.12,3940.48L1791.24,3940.53L1797.45,3943.46L1797.57,3943.52L1803.79,3946.46L1803.9,3946.51L1810.12,3949.46L1810.23,3949.52L1816.45,3952.48L1816.56,3952.53L1822.82,3955.52L1823.01,3955.62L1829.21,3958.6L1829.25,3958.61L1835.47,3961.61L1835.66,3961.7L1841.86,3964.7L1841.89,3964.72L1848.11,3967.73L1848.31,3967.82L1854.55,3970.87L1854.66,3970.92L1860.86,3973.95L1860.98,3974.01L1867.18,3977.05L1867.29,3977.11L1873.49,3980.16L1873.6,3980.22L1879.85,3983.3L1880.04,3983.4L1886.23,3986.47L1886.26,3986.49L1892.46,3989.57L1892.65,3989.67L1898.88,3992.79L1898.99,3992.84L1905.18,3995.95L1905.29,3996.01L1911.48,3999.12L1911.59,3999.18L1917.78,4002.31L1917.89,4002.36L1924.07,4005.5L1924.19,4005.56L1930.41,4008.72L1930.61,4008.82L1936.82,4012L1936.93,4012.06L1943.11,4015.23L1943.22,4015.29L1949.39,4018.47L1949.5,4018.53L1955.67,4021.72L1955.78,4021.77L1961.99,4024.99L1962.19,4025.1L1968.35,4028.31L1968.38,4028.32L1974.55,4031.54L1974.74,4031.64L1980.94,4034.9L1981.05,4034.96L1987.21,4038.2L1987.32,4038.26L1993.52,4041.54L1993.71,4041.64L1999.89,4044.92L2000,4044.98L2006.14,4048.26L2006.26,4048.32L2012.4,4051.6L2012.51,4051.66L2018.65,4054.96L2018.76,4055.02L2024.94,4058.35L2025.14,4058.45L2031.26,4061.77L2031.29,4061.79L2037.48,4065.14L2037.75,4065.29L2043.91,4068.65L2043.93,4068.66L2050.06,4072.01L2050.25,4072.12L2056.36,4075.48L2056.39,4075.49L2062.52,4078.87L2062.71,4078.97L2068.91,4082.4L2069.1,4082.51L2075.2,4085.9L2075.22,4085.92L2081.32,4089.31L2081.49,4089.41L2084.59,4091.14L2084.65,4091.17L2087.7,4092.88L2087.75,4092.91L2090.88,4094.67L2091.11,4094.8L2094.08,4096.48L2096.99,4098.11L2097.04,4098.14L2100.09,4099.86L2100.15,4099.9L2103.28,4101.67L2103.51,4101.8L2106.48,4103.49L2109.47,4105.18L2109.7,4105.31L2112.81,4107.09L2112.87,4107.12L2115.76,4108.77L2118.75,4110.47L2118.97,4110.6L2122.09,4112.39L2122.15,4112.42L2125.18,4114.16L2125.24,4114.19L2128.27,4115.94L2128.32,4115.97L2131.36,4117.71L2131.41,4117.74L2134.44,4119.49L2134.49,4119.52L2137.53,4121.27L2137.59,4121.31L2140.71,4123.11L2140.93,4123.24L2143.89,4124.97L2146.87,4126.69L2147.09,4126.82L2150.05,4128.55L2153.03,4130.29L2153.25,4130.42L2156.36,4132.23L2156.41,4132.27L2159.28,4133.95L2162.26,4135.69L2162.48,4135.82L2165.59,4137.65L2165.64,4137.68L2168.66,4139.46L2168.72,4139.5L2171.83,4141.33L2172.05,4141.46L2174.99,4143.21L2177.86,4144.91L2177.92,4144.94L2181.03,4146.79L2181.26,4146.92L2184.2,4148.68L2187.15,4150.44L2187.38,4150.57L2190.32,4152.34L2193.28,4154.1L2193.51,4154.24L2196.6,4156.1L2196.66,4156.13L2199.66,4157.93L2199.71,4157.96L2202.71,4159.77L2202.77,4159.81L2205.77,4161.62L2205.82,4161.65L2208.83,4163.47L2208.88,4163.5L2211.97,4165.37L2212.21,4165.51L2215.13,4167.3L2218.07,4169.08L2218.3,4169.22L2221.23,4171.01L2224.17,4172.8L2224.4,4172.94L2227.47,4174.82L2227.53,4174.86L2230.37,4176.6L2233.32,4178.4L2233.55,4178.54L2236.71,4180.49L2236.93,4180.63L2239.85,4182.44L2242.69,4184.19L2242.74,4184.22L2245.73,4186.07L2245.78,4186.1L2248.86,4188.01L2249.09,4188.15L2252,4189.97L2254.93,4191.79L2255.16,4191.93L2258.22,4193.84L2258.27,4193.87L2261.24,4195.74L2261.3,4195.77L2264.28,4197.64L2264.32,4197.67L2267.3,4199.54L2267.36,4199.57L2270.33,4201.44L2270.38,4201.47L2273.35,4203.35L2273.41,4203.38L2276.47,4205.31L2276.7,4205.46L2279.6,4207.3L2282.51,4209.14L2282.73,4209.28L2285.63,4211.13L2288.54,4212.98L2288.77,4213.12L2291.82,4215.07L2291.88,4215.11L2294.84,4217L2294.89,4217.03L2297.85,4218.93L2297.9,4218.96L2300.86,4220.86L2300.91,4220.89L2303.96,4222.85L2304.19,4223L2307.07,4224.86L2309.96,4226.73L2310.2,4226.88L2313.08,4228.75L2315.97,4230.62L2316.2,4230.77L2319.24,4232.74L2319.29,4232.78L2322.24,4234.7L2322.29,4234.73L2325.23,4236.65L2325.28,4236.69L2328.23,4238.61L2328.28,4238.64L2331.31,4240.63L2331.55,4240.78L2334.41,4242.67L2337.28,4244.56L2337.52,4244.71L2340.54,4246.71L2340.6,4246.74L2343.37,4248.58L2346.25,4250.48L2346.48,4250.63L2349.5,4252.63L2349.55,4252.67L2352.57,4254.67L2352.8,4254.83L2355.65,4256.74L2358.43,4258.59L2358.48,4258.62L2361.5,4260.63L2361.73,4260.79L2364.58,4262.7L2367.44,4264.62L2367.68,4264.77L2370.68,4266.8L2370.74,4266.84L2373.65,4268.8L2373.7,4268.84L2376.61,4270.81L2376.66,4270.84L2379.58,4272.81L2379.63,4272.85L2382.63,4274.88L2382.87,4275.05L2385.71,4276.98L2388.55,4278.91L2388.79,4279.07L2391.78,4281.12L2391.83,4281.15L2394.72,4283.14L2394.78,4283.18L2397.68,4285.16L2397.73,4285.2L2400.63,4287.19L2400.68,4287.22L2403.57,4289.22L2403.62,4289.25L2406.52,4291.25L2406.58,4291.29L2409.57,4293.35L2409.8,4293.51L2412.78,4295.58L2412.84,4295.62L2415.56,4297.51L2418.39,4299.47L2418.62,4299.64L2421.6,4301.71L2421.65,4301.75L2424.53,4303.76L2424.59,4303.8L2427.56,4305.88L2427.8,4306.05L2430.6,4308.02L2433.42,4310L2433.66,4310.16L2436.46,4312.14L2439.27,4314.12L2439.5,4314.28L2442.47,4316.38L2442.52,4316.42L2445.39,4318.46L2445.44,4318.49L2448.41,4320.6L2448.64,4320.77L2451.43,4322.76L2454.13,4324.68L2454.18,4324.72L2457.14,4326.83L2457.38,4327L2460.33,4329.12L2460.39,4329.16L2463.24,4331.21L2463.29,4331.24L2466.14,4333.3L2466.19,4333.33L2469.04,4335.39L2469.1,4335.43L2471.95,4337.49L2472,4337.52L2474.94,4339.65L2475.18,4339.82L2478.11,4341.96L2478.16,4341.99L2480.84,4343.95L2483.63,4345.97L2483.87,4346.14L2486.8,4348.28L2486.85,4348.32L2489.78,4350.47L2490.02,4350.64L2492.78,4352.67L2495.45,4354.64L2495.49,4354.67L2498.43,4356.82L2498.67,4357L2501.59,4359.16L2501.64,4359.2L2504.46,4361.29L2504.51,4361.33L2507.33,4363.42L2507.39,4363.46L2510.21,4365.56L2510.26,4365.6L2513.18,4367.77L2513.42,4367.94L2516.15,4369.99L2518.91,4372.05L2519.15,4372.23L2522.05,4374.41L2522.1,4374.45L2524.91,4376.56L2524.96,4376.59L2527.77,4378.71L2527.82,4378.75L2530.63,4380.86L2530.68,4380.9L2533.48,4383.02L2533.53,4383.06L2536.44,4385.26L2536.68,4385.44L2539.57,4387.64L2539.62,4387.67L2542.41,4389.8L2542.46,4389.84L2545.25,4391.97L2545.31,4392.01L2548.1,4394.15L2548.15,4394.19L2550.94,4396.32L2550.99,4396.36L2553.88,4398.57L2554.12,4398.76L2556.83,4400.85L2559.55,4402.94L2559.79,4403.12L2562.66,4405.35L2562.71,4405.39L2565.49,4407.54L2565.54,4407.58L2568.42,4409.81L2568.65,4409.99L2571.35,4412.1L2574.06,4414.2L2574.3,4414.39L2577.16,4416.63L2577.2,4416.67L2579.97,4418.84L2580.01,4418.88L2582.78,4421.05L2582.83,4421.09L2585.59,4423.26L2585.64,4423.29L2588.4,4425.47L2588.45,4425.51L2591.31,4427.77L2591.55,4427.96L2594.4,4430.22L2594.45,4430.25L2597.2,4432.44L2597.24,4432.48L2599.99,4434.66L2600.04,4434.7L2602.79,4436.89L2602.84,4436.93L2605.68,4439.2L2605.92,4439.39L2608.58,4441.53L2611.26,4443.68L2611.5,4443.87L2614.34,4446.15L2614.38,4446.19L2617.12,4448.4L2617.16,4448.43L2619.89,4450.64L2619.94,4450.68L2622.78,4452.97L2623.02,4453.16L2625.66,4455.32L2628.33,4457.48L2628.56,4457.67L2631.38,4459.97L2631.43,4460.01L2634.15,4462.24L2634.2,4462.28L2636.92,4464.51L2636.96,4464.54L2639.77,4466.85L2640.02,4467.05L2642.82,4469.36L2642.87,4469.4L2645.4,4471.49L2648.04,4473.67L2648.28,4473.87L2651.18,4476.27L2651.43,4476.47L2654.04,4478.66L2656.58,4480.76L2656.62,4480.8L2659.42,4483.13L2659.66,4483.33L2662.45,4485.67L2662.5,4485.71L2665.19,4487.97L2665.23,4488L2667.92,4490.26L2667.97,4490.3L2670.76,4492.64L2671,4492.85L2673.6,4495.05L2676.21,4497.26L2676.45,4497.46L2679.23,4499.82L2679.27,4499.86L2681.95,4502.13L2681.99,4502.16L2684.76,4504.52L2685.01,4504.73L2687.59,4506.95L2690.19,4509.17L2690.43,4509.38L2693.19,4511.75L2693.23,4511.78L2695.89,4514.07L2695.94,4514.11L2698.6,4516.4L2698.64,4516.44L2701.3,4518.74L2701.35,4518.78L2704.11,4521.16L2704.35,4521.37L2707.1,4523.76L2707.14,4523.8L2709.78,4526.1L2709.83,4526.14L2712.47,4528.45L2712.52,4528.49L2715.16,4530.8L2715.21,4530.84L2717.95,4533.23L2718.19,4533.45L2720.92,4535.85L2720.96,4535.89L2723.59,4538.21L2723.64,4538.25L2726.27,4540.57L2726.31,4540.61L2728.94,4542.93L2728.99,4542.97L2731.71,4545.39L2731.95,4545.6L2734.49,4547.87L2737.05,4550.13L2737.29,4550.35L2740,4552.77L2740.05,4552.81L2742.76,4555.24L2743,4555.46L2745.52,4557.73L2748.06,4560.01L2748.3,4560.23L2751,4562.66L2751.05,4562.71L2753.65,4565.06L2753.69,4565.1L2756.29,4567.45L2756.34,4567.49L2758.93,4569.85L2758.97,4569.89L2761.67,4572.34L2761.92,4572.56L2764.6,4575.02L2764.64,4575.06L2767.23,4577.42L2767.27,4577.46L2769.86,4579.83L2769.9,4579.87L2772.58,4582.33L2772.83,4582.56L2775.32,4584.86L2777.82,4587.17L2778.06,4587.39L2780.73,4589.87L2780.78,4589.91L2783.35,4592.29L2783.39,4592.33L2786.06,4594.81L2786.3,4595.04L2788.95,4597.52L2789,4597.56L2791.38,4599.79L2793.97,4602.21L2794.41,4602.62L2796.97,4605.04L2799.34,4607.28L2799.39,4607.32L2802.04,4609.82L2802.28,4610.05L2804.92,4612.55L2804.96,4612.59L2807.5,4615L2807.55,4615.04L2810.08,4617.46L2810.13,4617.5L2812.77,4620.01L2813.01,4620.24L2815.63,4622.76L2815.68,4622.8L2818.2,4625.23L2818.24,4625.27L2820.76,4627.69L2820.81,4627.73L2823.33,4630.16L2823.37,4630.2L2826,4632.73L2826.24,4632.97L2828.85,4635.5L2828.89,4635.54L2831.4,4637.98L2831.44,4638.02L2833.95,4640.46L2833.99,4640.51L2836.5,4642.95L2836.54,4642.99L2839.15,4645.53L2839.39,4645.77L2841.99,4648.32L2842.03,4648.37L2844.53,4650.82L2844.56,4650.86L2847.06,4653.31L2847.1,4653.36L2849.7,4655.92L2849.93,4656.15L2852.34,4658.54L2854.75,4660.93L2854.99,4661.17L2857.57,4663.74L2857.61,4663.78L2860.19,4666.35L2860.43,4666.59L2862.82,4668.99L2865.22,4671.39L2865.46,4671.63L2868.02,4674.21L2868.06,4674.26L2870.62,4676.84L2870.86,4677.08L2873.23,4679.49L2875.62,4681.9L2875.86,4682.15L2878.41,4684.74L2878.45,4684.78L2880.9,4687.28L2880.94,4687.32L2883.39,4689.82L2883.43,4689.86L2885.98,4692.47L2886.22,4692.71L2888.75,4695.32L2888.79,4695.36L2891.22,4697.87L2891.26,4697.91L2893.7,4700.43L2893.74,4700.47L2896.17,4702.98L2896.22,4703.03L2898.75,4705.65L2898.99,4705.9L2901.5,4708.52L2901.54,4708.56L2903.96,4711.09L2904,4711.13L2906.52,4713.76L2906.76,4714.02L2909.09,4716.46L2911.43,4718.91L2911.66,4719.16L2914.17,4721.8L2914.21,4721.85L2916.71,4724.49L2916.95,4724.74L2919.26,4727.2L2921.58,4729.66L2921.82,4729.91L2924.31,4732.57L2924.35,4732.62L2926.74,4735.17L2926.78,4735.21L2929.26,4737.87L2929.5,4738.13L2931.98,4740.79L2932.01,4740.83L2934.39,4743.4L2934.42,4743.44L2936.8,4746L2936.84,4746.05L2939.22,4748.62L2939.25,4748.65L2941.72,4751.33L2941.96,4751.59L2944.42,4754.27L2944.46,4754.32L2946.82,4756.9L2946.86,4756.94L2949.32,4759.62L2949.55,4759.88L2951.82,4762.38L2954.1,4764.88L2954.33,4765.14L2956.78,4767.84L2956.82,4767.88L2959.26,4770.59L2959.49,4770.85L2961.74,4773.35L2964.01,4775.86L2964.24,4776.13L2966.67,4778.84L2966.7,4778.88L2969.03,4781.48L2969.08,4781.53L2971.5,4784.25L2971.74,4784.51L2974.15,4787.23L2974.18,4787.27L2976.5,4789.89L2976.54,4789.93L2978.85,4792.55L2978.89,4792.59L2981.3,4795.33L2981.54,4795.59L2983.94,4798.33L2983.97,4798.37L2986.27,4801L2986.31,4801.04L2988.61,4803.67L2988.64,4803.71L2990.94,4806.34L2990.98,4806.39L2993.38,4809.14L2993.61,4809.41L2995.99,4812.16L2996.03,4812.2L2998.41,4814.96L2998.64,4815.23L3000.84,4817.78L3003.04,4820.34L3003.27,4820.61L3005.64,4823.37L3005.67,4823.42L3007.94,4826.07L3007.98,4826.11L3010.35,4828.89L3010.58,4829.16L3012.93,4831.94L3012.97,4831.98L3015.22,4834.65L3015.26,4834.69L3017.51,4837.36L3017.55,4837.4L3019.9,4840.18L3020.13,4840.46L3022.29,4843.04L3024.47,4845.62L3024.7,4845.9L3027.13,4848.81L3027.36,4849.08L3029.51,4851.68L3031.67,4854.27L3031.89,4854.54L3034.22,4857.35L3034.25,4857.39L3036.57,4860.2L3036.8,4860.48L3038.93,4863.08L3041.08,4865.69L3041.3,4865.96L3043.61,4868.78L3043.65,4868.82L3045.95,4871.65L3046.18,4871.93L3048.3,4874.54L3050.43,4877.16L3050.65,4877.44L3053.04,4880.39L3053.27,4880.67L3055.37,4883.29L3057.48,4885.92L3057.71,4886.2L3059.99,4889.05L3060.02,4889.09L3062.2,4891.82L3062.24,4891.86L3064.51,4894.71L3064.74,4894.99L3066.82,4897.62L3068.92,4900.26L3069.15,4900.55L3071.51,4903.54L3071.73,4903.82L3073.8,4906.46L3075.89,4909.11L3076.11,4909.39L3078.35,4912.27L3078.39,4912.31L3080.64,4915.19L3080.86,4915.48L3082.91,4918.13L3084.98,4920.78L3085.21,4921.07L3087.44,4923.96L3087.47,4924.01L3089.7,4926.9L3089.93,4927.19L3092.14,4930.08L3092.17,4930.12L3094.29,4932.89L3094.32,4932.93L3096.44,4935.71L3096.48,4935.75L3098.69,4938.65L3098.91,4938.95L3100.94,4941.62L3103.08,4944.43L3103.49,4944.98L3105.59,4947.79L3107.62,4950.47L3107.84,4950.77L3110.02,4953.69L3110.05,4953.73L3112.14,4956.52L3112.18,4956.57L3114.27,4959.37L3114.3,4959.41L3116.48,4962.34L3116.7,4962.64L3118.87,4965.57L3118.9,4965.62L3120.97,4968.43L3121,4968.46L3123.17,4971.4L3123.39,4971.71L3125.55,4974.65L3125.58,4974.7L3127.64,4977.52L3127.67,4977.56L3129.82,4980.51L3130.04,4980.81L3132.01,4983.53L3133.99,4986.24L3134.2,4986.54L3136.43,4989.64L3136.66,4989.94L3138.61,4992.67L3140.58,4995.4L3140.79,4995.7L3142.91,4998.67L3142.94,4998.71L3145.06,5001.69L3145.28,5001.99L3147.39,5004.97L3147.42,5005.02L3149.43,5007.87L3149.46,5007.91L3151.48,5010.76L3151.51,5010.81L3153.62,5013.8L3153.83,5014.1L3155.75,5016.85L3157.78,5019.74L3158.18,5020.31L3160.18,5023.2L3162.1,5025.95L3162.31,5026.26L3164.39,5029.27L3164.42,5029.31L3166.4,5032.19L3166.43,5032.23L3168.51,5035.24L3168.72,5035.55L3170.78,5038.57L3170.81,5038.61L3172.78,5041.5L3172.81,5041.54L3174.87,5044.57L3175.08,5044.88L3176.96,5047.65L3178.94,5050.57L3179.34,5051.16L3181.29,5054.07L3183.16,5056.86L3183.38,5057.18L3185.41,5060.22L3185.43,5060.26L3187.37,5063.17L3187.4,5063.21L3189.43,5066.26L3189.64,5066.57L3191.49,5069.37L3193.44,5072.31L3193.83,5072.9L3195.75,5075.84L3197.6,5078.65L3197.81,5078.97L3199.81,5082.03L3199.84,5082.07L3201.75,5085.01L3201.77,5085.05L3203.77,5088.12L3203.98,5088.44L3205.96,5091.52L3205.99,5091.55L3207.88,5094.5L3207.91,5094.54L3209.89,5097.62L3210.1,5097.94L3212.07,5101.03L3212.09,5101.07L3213.97,5104.02L3214,5104.06L3215.97,5107.15L3216.17,5107.48L3217.96,5110.31L3219.85,5113.29L3220.23,5113.9L3222.1,5116.88L3223.88,5119.73L3224.09,5120.05L3226.02,5123.16L3226.05,5123.2L3227.9,5126.17L3227.92,5126.22L3229.86,5129.34L3230.06,5129.66L3231.98,5132.78L3232.01,5132.82L3233.84,5135.8L3233.87,5135.84L3235.79,5138.97L3235.99,5139.3L3237.9,5142.43L3237.92,5142.47L3239.74,5145.46L3239.77,5145.5L3241.59,5148.5L3241.61,5148.54L3243.52,5151.68L3243.72,5152.01L3245.61,5155.16L3245.63,5155.2L3247.52,5158.35L3247.72,5158.68L3249.59,5161.83L3249.62,5161.87L3251.41,5164.88L3251.43,5164.92L3253.22,5167.93L3253.24,5167.97L3255.12,5171.14L3255.32,5171.47L3257.18,5174.64L3257.2,5174.68L3258.97,5177.7L3258.99,5177.74L3260.86,5180.91L3261.05,5181.25L3262.9,5184.43L3262.92,5184.46L3264.68,5187.5L3264.7,5187.54L3266.55,5190.72L3266.74,5191.06L3268.57,5194.25L3268.59,5194.28L3270.34,5197.33L3270.36,5197.37L3272.19,5200.57L3272.38,5200.9L3274.19,5204.1L3274.21,5204.13L3275.94,5207.19L3275.97,5207.23L3277.78,5210.44L3277.97,5210.77L3279.61,5213.7L3281.35,5216.78L3281.71,5217.42L3283.42,5220.51L3285.06,5223.45L3285.25,5223.79L3287.03,5227.01L3287.05,5227.05L3288.84,5230.27L3289.02,5230.61L3290.79,5233.84L3290.81,5233.88L3292.49,5236.96L3292.52,5237L3294.2,5240.09L3294.22,5240.12L3295.99,5243.37L3296.17,5243.71L3297.93,5246.95L3297.95,5246.99L3299.7,5250.24L3299.88,5250.58L3301.62,5253.83L3301.64,5253.87L3303.29,5256.97L3303.31,5257.01L3304.97,5260.11L3304.99,5260.15L3306.72,5263.41L3306.91,5263.76L3308.63,5267.02L3308.65,5267.06L3310.37,5270.33L3310.55,5270.68L3312.25,5273.95L3312.27,5273.98L3313.9,5277.1L3313.91,5277.14L3315.54,5280.27L3315.56,5280.31L3317.27,5283.59L3317.44,5283.93L3319.13,5287.22L3319.15,5287.26L3320.84,5290.55L3321.02,5290.89L3322.69,5294.19L3322.71,5294.22L3324.31,5297.36L3324.33,5297.4L3325.92,5300.55L3325.94,5300.59L3327.62,5303.89L3327.79,5304.24L3329.45,5307.54L3329.46,5307.58L3331.12,5310.89L3331.3,5311.24L3332.94,5314.56L3332.96,5314.59L3334.52,5317.75L3334.54,5317.79L3336.11,5320.95L3336.12,5320.99L3337.77,5324.31L3337.94,5324.66L3339.64,5328.15L3339.82,5328.5L3341.28,5331.54L3342.76,5334.57L3342.93,5334.92L3344.55,5338.26L3344.56,5338.3L3346.18,5341.64L3346.35,5341.99L3347.94,5345.34L3347.96,5345.37L3349.48,5348.56L3349.49,5348.6L3351.09,5351.95L3351.26,5352.31L3352.84,5355.66L3352.86,5355.7L3354.36,5358.9L3354.38,5358.93L3355.96,5362.3L3356.12,5362.65L3357.69,5366.02L3357.7,5366.05L3359.19,5369.26L3359.21,5369.3L3360.78,5372.67L3360.94,5373.03L3362.49,5376.4L3362.5,5376.44L3364.05,5379.82L3364.22,5380.18L3365.61,5383.26L3367.1,5386.5L3367.4,5387.18L3368.86,5390.43L3370.25,5393.52L3370.41,5393.87L3371.93,5397.27L3371.94,5397.3L3373.46,5400.7L3373.62,5401.07L3375.12,5404.47L3375.14,5404.5L3376.57,5407.75L3376.58,5407.78L3378.09,5411.19L3378.24,5411.55L3379.73,5414.97L3379.75,5415L3381.16,5418.26L3381.18,5418.29L3382.66,5421.72L3382.82,5422.07L3384.29,5425.5L3384.3,5425.54L3385.7,5428.8L3385.72,5428.83L3387.19,5432.27L3387.34,5432.63L3388.8,5436.07L3388.81,5436.1L3390.27,5439.54L3390.42,5439.9L3391.73,5443.03L3393.12,5446.33L3393.41,5447.02L3394.77,5450.32L3396.08,5453.46L3396.23,5453.82L3397.66,5457.28L3397.67,5457.31L3399.09,5460.77L3399.24,5461.14L3400.65,5464.6L3400.66,5464.64L3402.07,5468.11L3402.22,5468.47L3403.49,5471.62L3404.84,5474.95L3405.11,5475.65L3406.43,5478.97L3407.7,5482.14L3407.84,5482.5L3409.22,5485.99L3409.23,5486.02L3410.61,5489.51L3410.75,5489.87L3412.12,5493.37L3412.13,5493.4L3413.42,5496.73L3413.43,5496.75L3414.8,5500.25L3414.94,5500.62L3416.28,5504.12L3416.3,5504.15L3417.58,5507.49L3417.59,5507.52L3418.94,5511.03L3419.08,5511.4L3420.41,5514.91L3420.42,5514.94L3421.75,5518.46L3421.89,5518.83L3423.2,5522.35L3423.21,5522.38L3424.46,5525.73L3424.48,5525.77L3425.79,5529.29L3425.93,5529.66L3427.22,5533.19L3427.24,5533.22L3428.53,5536.75L3428.67,5537.12L3429.84,5540.33L3431.08,5543.72L3431.34,5544.43L3432.55,5547.82L3433.71,5551.04L3433.85,5551.41L3435.17,5555.13L3435.31,5555.5L3436.44,5558.73L3437.6,5561.96L3437.72,5562.33L3439.04,5566.06L3439.17,5566.43L3440.4,5570L3440.41,5570.03L3441.59,5573.42L3441.6,5573.45L3442.84,5577.03L3442.96,5577.4L3444.19,5580.97L3444.2,5581L3445.36,5584.41L3445.37,5584.44L3446.59,5588.02L3446.71,5588.39L3447.92,5591.98L3447.93,5592L3449.13,5595.6L3449.26,5595.97L3450.34,5599.23L3451.49,5602.67L3451.73,5603.38L3452.96,5607.15L3452.97,5607.18L3454.08,5610.61L3454.09,5610.64L3455.21,5614.08L3455.22,5614.1L3456.39,5617.71L3456.51,5618.08L3457.67,5621.7L3457.68,5621.72L3458.84,5625.34L3458.96,5625.71L3460.1,5629.34L3460.11,5629.36L3461.2,5632.81L3461.21,5632.84L3462.35,5636.47L3462.46,5636.84L3463.59,5640.47L3463.6,5640.5L3464.73,5644.13L3464.84,5644.5L3465.95,5648.14L3465.96,5648.17L3467.02,5651.64L3467.03,5651.66L3468.14,5655.31L3468.25,5655.68L3469.35,5659.33L3469.36,5659.35L3470.45,5663L3470.56,5663.38L3471.64,5667.03L3471.65,5667.06L3472.68,5670.54L3472.69,5670.57L3473.77,5674.23L3473.88,5674.6L3474.94,5678.27L3474.95,5678.29L3476.01,5681.96L3476.12,5682.34L3477.17,5686.01L3477.18,5686.03L3478.18,5689.53L3478.18,5689.56L3479.23,5693.24L3479.34,5693.61L3480.37,5697.3L3480.38,5697.32L3481.41,5701.01L3481.52,5701.38L3482.53,5705.07L3482.54,5705.09L3483.51,5708.61L3483.52,5708.63L3484.54,5712.33L3484.64,5712.71L3485.64,5716.41L3485.65,5716.43L3486.6,5719.96L3486.61,5719.98L3487.61,5723.69L3487.71,5724.06L3488.74,5727.95L3488.84,5728.32L3489.81,5732.04L3489.82,5732.06L3490.74,5735.6L3490.75,5735.62L3491.68,5739.17L3491.68,5739.19L3492.65,5742.92L3492.75,5743.29L3493.75,5747.19L3493.85,5747.57L3494.79,5751.3L3494.79,5751.32L3495.69,5754.88L3495.69,5754.9L3496.63,5758.64L3496.72,5759.01L3497.65,5762.76L3497.66,5762.78L3498.54,5766.35L3498.54,5766.37L3499.47,5770.12L3499.56,5770.49L3500.47,5774.24L3500.47,5774.26L3501.38,5778.02L3501.47,5778.39L3502.36,5782.15L3502.37,5782.17L3503.26,5785.94L3503.35,5786.31L3504.15,5789.73L3505,5793.33L3505.17,5794.06L3506.07,5798.01L3506.08,5798.03L3506.9,5801.63L3506.9,5801.65L3507.73,5805.25L3507.73,5805.27L3508.59,5809.06L3508.68,5809.43L3509.56,5813.39L3509.64,5813.76L3510.48,5817.55L3510.48,5817.57L3511.27,5821.19L3511.28,5821.21L3512.11,5825.01L3512.19,5825.38L3513.01,5829.18L3513.01,5829.2L3513.79,5832.83L3513.79,5832.84L3514.61,5836.65L3514.68,5837.02L3515.52,5841.01L3515.6,5841.38L3516.31,5844.85L3517.08,5848.5L3517.23,5849.23L3517.96,5852.88L3518.68,5856.36L3518.75,5856.73L3519.56,5860.74L3519.63,5861.11L3520.38,5864.94L3520.39,5864.96L3521.11,5868.61L3521.11,5868.63L3521.86,5872.47L3521.93,5872.84L3522.67,5876.68L3522.68,5876.7L3523.38,5880.37L3523.38,5880.39L3524.12,5884.23L3524.19,5884.61L3524.95,5888.63L3525.01,5889L3525.72,5892.86L3525.72,5892.88L3526.4,5896.56L3526.4,5896.57L3527.11,5900.44L3527.18,5900.81L3527.87,5904.67L3527.87,5904.69L3528.56,5908.56L3528.63,5908.93L3529.3,5912.8L3529.31,5912.82L3529.95,5916.51L3529.95,5916.53L3530.63,5920.41L3530.69,5920.78L3531.35,5924.66L3531.36,5924.68L3532.02,5928.56L3532.08,5928.93L3532.72,5932.82L3532.72,5932.83L3533.37,5936.73L3533.43,5937.1L3534.06,5940.99L3534.06,5941.01L3534.69,5944.9L3534.75,5945.28L3535.36,5949.18L3535.37,5949.19L3535.95,5952.92L3535.95,5952.94L3536.57,5956.85L3536.62,5957.21L3537.22,5961.13L3537.22,5961.14L3537.82,5965.06L3537.88,5965.43L3538.46,5969.35L3538.46,5969.36L3539.02,5973.11L3539.02,5973.12L3539.61,5977.04L3539.66,5977.41L3540.25,5981.52L3540.31,5981.89L3540.86,5985.82L3540.86,5985.83L3541.39,5989.6L3541.39,5989.61L3541.94,5993.55L3541.99,5993.91L3542.53,5997.86L3542.53,5997.87L3543.07,6001.82L3543.11,6002.18L3543.64,6006.13L3543.64,6006.15L3544.16,6010.1L3544.2,6010.47L3544.71,6014.42L3544.71,6014.43L3545.2,6018.22L3545.2,6018.23L3545.7,6022.2L3545.75,6022.56L3546.24,6026.53L3546.24,6026.54L3546.73,6030.51L3546.77,6030.87L3547.25,6034.85L3547.25,6034.86L3547.72,6038.84L3547.77,6039.2L3548.23,6043.18L3548.23,6043.19L3548.69,6047.18L3548.73,6047.54L3549.17,6051.53L3549.6,6055.36L3550.04,6059.36L3550.08,6059.72L3550.53,6063.9L3550.57,6064.26L3550.95,6067.91L3551.36,6071.75L3551.43,6072.46L3551.81,6076.3L3552.21,6080.14L3552.28,6080.85L3552.64,6084.7L3553.01,6088.37L3553.04,6088.73L3553.44,6092.93L3553.47,6093.29L3553.84,6097.32L3554.19,6101.18L3554.56,6105.22L3554.59,6105.57L3554.96,6109.79L3554.99,6110.14L3555.33,6114.19L3555.65,6118.07L3555.99,6122.11L3556.01,6122.47L3556.34,6126.53L3556.66,6130.58L3556.68,6130.94L3556.99,6135L3557.3,6139.06L3557.32,6139.42L3557.61,6143.49L3557.89,6147.39L3558.18,6151.46L3558.21,6151.81L3558.49,6156.06L3558.52,6156.41L3558.78,6160.5L3559.03,6164.41L3559.28,6168.49L3559.31,6168.85L3559.55,6172.94L3559.8,6177.03L3559.82,6177.38L3560.04,6181.48L3560.27,6185.58L3560.29,6185.93L3560.51,6190.04L3560.72,6194.14L3560.74,6194.49L3560.94,6198.61L3561.13,6202.72L3561.15,6203.07L3561.33,6207.19L3561.51,6211.14L3561.69,6215.26L3561.71,6215.61L3561.88,6219.9L3561.89,6220.25L3562.05,6224.39L3562.19,6228.35L3562.35,6232.48L3562.36,6232.83L3562.5,6237.14L3562.51,6237.49L3562.64,6241.63L3562.75,6245.61L3562.87,6249.76L3562.88,6250.1L3562.99,6254.26L3563.1,6258.42L3563.1,6258.76L3563.2,6262.94L3563.2,6262.99L3563.52,6277.99L3563.52,6278L3563.84,6293.07L3563.84,6293.17L3564.15,6308.31L3564.15,6308.31L3564.46,6323.5L3564.46,6323.6L3564.76,6338.89L3564.76,6338.99L3565.03,6354.2L3565.33,6369.51L3565.33,6369.7L3565.59,6385.06L3565.87,6400.48L3565.87,6400.66L3566.12,6416.14L3566.38,6431.62L3566.39,6431.71L3566.63,6447.38L3566.64,6447.47L3566.87,6463.05L3567.12,6478.74L3567.12,6478.91L3567.34,6494.65L3567.57,6510.39L3567.57,6510.48L3567.79,6526.4L3567.8,6526.49L3568,6542.42L3568.2,6558.35L3568.41,6574.38L3568.41,6574.47L3568.6,6590.46L3568.8,6606.54L3568.81,6606.71L3568.98,6622.84L3569.17,6638.98L3569.17,6639.06L3569.35,6655.37L3569.35,6655.46L3569.51,6671.69L3569.68,6687.97L3569.68,6688.05L3569.85,6704.46L3570.01,6720.91L3570.01,6721L3570.15,6737.5L3570.3,6754L3570.45,6770.55L3570.59,6787.18L3570.59,6787.27L3570.72,6803.94L3570.86,6820.62L3570.99,6837.35L3571.12,6854.15L3571.12,6854.24L3571.24,6871.09L3571.35,6887.94L3571.47,6904.87L3571.47,6904.95L3571.57,6921.84L3571.69,6938.78L3571.69,6938.86L3571.79,6955.92L3571.89,6972.97L3572,6990.11L3572,6990.19L3572.09,7007.32L3572.28,7041.69L3572.28,7041.73L3572.45,7076.29L3572.63,7111L3572.63,7111.04L3572.79,7145.92L3572.79,7145.96L3572.93,7180.96L3573.08,7216.09L3573.23,7251.36L3573.23,7251.4L3573.36,7286.82L3573.49,7322.35L3573.62,7358.02L3573.62,7358.06L3573.74,7393.85L3573.99,7465.74L3574.25,7538.13L3574.25,7538.15L3574.5,7610.94L3574.64,7647.48L3574.64,7647.52L3574.77,7684.17L3574.92,7720.91L3575.07,7757.75L3575.23,7794.67L3575.39,7831.69L3575.56,7868.75L3575.75,7905.94L3575.94,7943.2L3576.04,7961.84L3576.14,7980.46L3576.26,7999.14L3576.26,7999.22L3576.36,8017.91L3576.48,8036.59L3576.6,8055.36L3576.71,8074.07L3576.84,8092.84L3576.84,8092.91L3576.96,8111.69L3577.09,8130.38L3577.24,8149.19L3577.24,8149.26L3577.37,8168.09L3577.51,8186.89L3577.66,8205.78L3577.81,8224.62L3577.97,8243.46L3578.13,8262.4L3578.29,8281.27L3578.46,8300.15L3578.64,8319.12L3578.81,8338.03L3579,8356.94L3579.19,8375.94L3579.38,8394.88L3579.58,8413.83L3579.79,8432.86L3579.99,8451.83L3580.21,8470.81L3580.43,8489.79L3582.95,8695.65L3209.22,8700.23L3206.69,8494.26L3206.69,8494.19L3206.47,8475.1L3206.25,8456.02L3206.25,8455.95L3206.05,8436.88L3205.84,8417.85L3205.64,8398.79L3205.64,8398.72L3205.45,8379.68L3205.26,8360.68L3205.07,8341.66L3205.07,8341.58L3204.89,8322.57L3204.72,8303.6L3204.54,8284.61L3204.54,8284.54L3204.38,8265.57L3204.22,8246.64L3204.06,8227.68L3204.06,8227.61L3203.91,8208.67L3203.77,8189.78L3203.62,8170.87L3203.62,8170.8L3203.49,8151.97L3203.34,8133.16L3203.34,8133.09L3203.21,8114.19L3203.21,8114.12L3203.09,8095.34L3202.96,8076.57L3202.96,8076.5L3202.84,8057.68L3202.73,8038.92L3202.61,8020.13L3202.61,8020.06L3202.51,8001.36L3202.39,7982.69L3202.39,7982.61L3202.29,7963.88L3202.19,7945.19L3202.19,7945.15L3202,7907.84L3201.81,7870.6L3201.81,7870.57L3201.63,7833.4L3201.63,7833.36L3201.47,7796.3L3201.31,7759.32L3201.31,7759.28L3201.16,7722.4L3201.02,7685.6L3201.02,7685.57L3200.89,7648.91L3200.74,7612.35L3200.74,7612.29L3200.49,7539.45L3200.23,7467.07L3200.23,7467.06L3199.98,7395.11L3199.98,7395.09L3199.86,7359.34L3199.73,7323.73L3199.6,7288.2L3199.47,7252.85L3199.32,7217.64L3199.18,7182.52L3199.03,7147.58L3198.87,7112.83L3198.7,7078.18L3198.52,7043.69L3198.33,7009.33L3198.33,7009.29L3198.24,6992.22L3198.14,6975.21L3198.04,6958.16L3197.94,6941.23L3197.82,6924.3L3197.82,6924.22L3197.72,6907.33L3197.6,6890.52L3197.49,6873.68L3197.37,6856.96L3197.24,6840.28L3197.11,6823.56L3196.98,6806.89L3196.85,6790.35L3196.7,6773.84L3196.56,6757.3L3196.41,6740.81L3196.26,6724.44L3196.1,6708.12L3195.94,6691.85L3195.77,6675.58L3195.77,6675.5L3195.61,6659.28L3195.43,6643.23L3195.25,6627.11L3195.24,6627.03L3195.07,6611.03L3194.87,6595.09L3194.87,6595.01L3194.68,6579.03L3194.47,6563.14L3194.27,6547.22L3194.07,6531.43L3193.85,6515.79L3193.62,6500.06L3193.62,6499.98L3193.4,6484.39L3193.15,6468.85L3193.15,6468.77L3192.92,6453.19L3192.68,6437.81L3192.41,6422.34L3192.41,6422.26L3192.16,6406.94L3191.89,6391.66L3191.89,6391.58L3191.63,6376.37L3191.34,6361.21L3191.34,6361.12L3191.06,6345.93L3190.77,6330.93L3190.47,6315.89L3190.16,6300.92L3189.85,6285.99L3189.53,6271.08L3189.45,6267.49L3189.35,6263.85L3189.26,6260.22L3189.15,6256.59L3189.04,6252.62L3188.93,6249L3188.82,6245.73L3188.69,6242.12L3188.54,6238.17L3188.41,6234.57L3188.28,6231.32L3188.12,6227.72L3187.94,6223.79L3187.78,6220.2L3187.61,6216.62L3187.44,6213.04L3187.25,6209.47L3187.07,6205.9L3186.87,6202.34L3186.67,6198.78L3186.46,6195.22L3186.24,6191.67L3186.02,6188.12L3185.77,6184.23L3185.55,6180.69L3185.33,6177.51L3185.08,6173.98L3184.8,6170.1L3184.55,6166.58L3184.28,6163.06L3184.02,6159.55L3183.74,6156.04L3183.47,6152.53L3183.17,6149.03L3182.85,6145.19L3182.56,6141.69L3182.29,6138.55L3181.97,6135.07L3181.62,6131.24L3181.31,6127.76L3181.01,6124.64L3180.65,6120.99L3180.62,6120.65L3180.3,6117.36L3179.96,6114.07L3179.93,6113.72L3179.6,6110.44L3179.25,6107.16L3179.22,6106.82L3178.84,6103.19L3178.51,6100.1L3178.13,6096.66L3177.71,6092.87L3177.32,6089.44L3176.93,6086.01L3176.53,6082.59L3176.13,6079.17L3175.72,6075.75L3175.3,6072.34L3174.88,6068.94L3174.44,6065.53L3173.96,6061.78L3173.53,6058.39L3173.08,6054.99L3172.64,6051.61L3172.18,6048.22L3171.72,6044.85L3171.24,6041.47L3170.72,6037.74L3170.25,6034.38L3169.82,6031.37L3169.32,6028.01L3168.76,6024.3L3168.27,6020.95L3167.76,6017.61L3167.24,6014.26L3166.72,6010.92L3166.14,6007.23L3165.62,6003.9L3165.08,6000.58L3164.54,5997.25L3163.99,5993.93L3163.44,5990.62L3162.88,5987.31L3162.32,5984L3161.74,5980.69L3161.11,5977.04L3160.53,5973.74L3159.94,5970.45L3159.35,5967.17L3158.75,5963.88L3158.09,5960.25L3157.49,5956.97L3156.94,5954.05L3156.31,5950.78L3155.62,5947.16L3154.99,5943.9L3154.35,5940.65L3153.64,5937.04L3153,5933.79L3152.42,5930.9L3151.72,5927.47L3151.65,5927.13L3151.03,5924.07L3150.39,5921L3150.32,5920.66L3149.62,5917.25L3149.02,5914.38L3148.33,5911.15L3147.56,5907.58L3146.87,5904.36L3146.17,5901.15L3145.39,5897.59L3144.68,5894.39L3144.05,5891.54L3143.32,5888.35L3142.51,5884.8L3141.7,5881.26L3141.06,5878.43L3140.34,5875.41L3140.26,5875.08L3139.48,5871.72L3138.72,5868.54L3137.97,5865.37L3137.2,5862.21L3136.44,5859.04L3135.66,5855.89L3134.8,5852.38L3134.02,5849.23L3133.22,5846.08L3132.35,5842.58L3131.55,5839.44L3130.84,5836.66L3130.02,5833.53L3129.11,5830.05L3128.21,5826.57L3127.39,5823.45L3126.65,5820.68L3125.81,5817.56L3124.87,5814.1L3124.03,5811L3123.18,5807.89L3122.23,5804.44L3121.37,5801.35L3120.51,5798.25L3119.64,5795.16L3118.76,5792.08L3117.78,5788.65L3116.9,5785.57L3116.01,5782.49L3115.12,5779.42L3114.21,5776.35L3113.2,5772.94L3112.3,5769.88L3111.38,5766.82L3110.46,5763.77L3109.53,5760.72L3108.5,5757.33L3107.57,5754.28L3106.63,5751.25L3105.68,5748.21L3104.73,5745.18L3103.66,5741.8L3102.71,5738.78L3101.74,5735.76L3100.77,5732.74L3099.79,5729.72L3098.7,5726.37L3097.61,5723.02L3096.74,5720.36L3095.79,5717.51L3095.68,5717.2L3094.63,5714.01L3093.62,5711.02L3092.62,5708.03L3091.6,5705.04L3090.47,5701.72L3089.45,5698.73L3088.42,5695.76L3087.27,5692.44L3086.24,5689.47L3085.32,5686.85L3084.2,5683.7L3084.08,5683.39L3082.98,5680.25L3082.04,5677.63L3080.91,5674.49L3080.8,5674.18L3079.8,5671.39L3078.77,5668.6L3078.66,5668.28L3077.53,5665.16L3076.45,5662.22L3075.36,5659.28L3074.27,5656.35L3073.05,5653.09L3071.96,5650.16L3070.85,5647.24L3069.75,5644.32L3068.63,5641.4L3067.38,5638.15L3066.26,5635.24L3065.14,5632.34L3063.87,5629.1L3062.74,5626.2L3061.6,5623.3L3060.46,5620.41L3059.23,5617.34L3059.11,5617.04L3058.02,5614.3L3056.92,5611.57L3056.8,5611.27L3055.57,5608.21L3054.4,5605.33L3053.23,5602.46L3052.05,5599.59L3050.87,5596.72L3049.6,5593.68L3049.48,5593.38L3048.36,5590.67L3047.21,5587.96L3047.09,5587.66L3045.82,5584.63L3044.61,5581.78L3043.41,5578.93L3042.19,5576.09L3040.83,5572.92L3039.61,5570.09L3038.38,5567.25L3037.01,5564.09L3035.78,5561.27L3034.53,5558.44L3033.15,5555.29L3031.9,5552.48L3030.65,5549.66L3029.39,5546.85L3028.04,5543.86L3027.91,5543.57L3026.72,5540.91L3025.51,5538.25L3025.37,5537.96L3024.03,5534.99L3022.74,5532.19L3021.46,5529.4L3020.17,5526.61L3018.72,5523.5L3017.43,5520.72L3016.13,5517.94L3014.67,5514.84L3013.36,5512.07L3012.04,5509.3L3010.57,5506.21L3009.25,5503.44L3007.92,5500.68L3006.59,5497.92L3005.16,5494.99L3005.02,5494.71L3003.61,5491.78L3002.42,5489.35L3001.06,5486.6L2999.55,5483.55L2998.04,5480.49L2996.68,5477.76L2995.31,5475.02L2993.94,5472.29L2992.56,5469.56L2991.02,5466.53L2989.48,5463.49L2988.1,5460.77L2986.7,5458.06L2985.31,5455.34L2983.9,5452.64L2982.33,5449.62L2980.76,5446.61L2979.36,5443.91L2977.94,5441.21L2976.52,5438.52L2975.08,5435.82L2973.49,5432.83L2971.89,5429.84L2970.46,5427.15L2969.01,5424.47L2967.57,5421.8L2966.11,5419.12L2964.49,5416.15L2962.87,5413.18L2961.41,5410.52L2959.94,5407.85L2958.47,5405.19L2956.89,5402.37L2956.74,5402.11L2955.34,5399.59L2953.92,5397.06L2953.77,5396.8L2952.2,5393.99L2950.7,5391.35L2949.04,5388.41L2947.54,5385.77L2946.03,5383.13L2944.35,5380.2L2942.84,5377.57L2941.32,5374.95L2939.63,5372.03L2938.11,5369.41L2936.57,5366.79L2934.87,5363.88L2933.33,5361.27L2931.78,5358.66L2930.06,5355.76L2928.34,5352.86L2926.8,5350.26L2925.24,5347.66L2923.68,5345.07L2922.1,5342.48L2920.36,5339.6L2918.61,5336.73L2917.03,5334.14L2915.45,5331.56L2913.69,5328.7L2912.1,5326.12L2910.5,5323.55L2908.73,5320.7L2907.13,5318.13L2905.41,5315.4L2905.26,5315.16L2903.74,5312.72L2902.19,5310.28L2902.04,5310.04L2900.33,5307.32L2898.7,5304.77L2896.9,5301.94L2895.27,5299.39L2893.64,5296.85L2891.82,5294.03L2890.18,5291.49L2888.53,5288.95L2886.7,5286.15L2885.05,5283.62L2883.29,5280.93L2883.13,5280.69L2881.56,5278.29L2879.96,5275.88L2879.8,5275.65L2878.04,5272.97L2876.36,5270.45L2874.5,5267.67L2872.83,5265.16L2871.03,5262.49L2870.88,5262.26L2869.28,5259.87L2867.66,5257.48L2867.5,5257.25L2865.7,5254.6L2864,5252.1L2862.12,5249.34L2860.41,5246.85L2858.7,5244.36L2856.8,5241.6L2855.09,5239.12L2853.25,5236.48L2853.09,5236.26L2851.45,5233.89L2849.79,5231.53L2849.64,5231.31L2847.8,5228.68L2846.06,5226.21L2844.13,5223.48L2842.2,5220.75L2840.47,5218.29L2838.71,5215.83L2836.95,5213.37L2835.08,5210.77L2834.92,5210.55L2833.06,5207.95L2831.48,5205.76L2829.59,5203.16L2829.43,5202.94L2827.56,5200.35L2825.78,5197.91L2823.81,5195.22L2822.03,5192.78L2820.24,5190.35L2818.25,5187.66L2816.46,5185.24L2814.65,5182.81L2812.66,5180.14L2810.66,5177.47L2808.85,5175.05L2806.92,5172.49L2806.76,5172.28L2805.03,5169.97L2803.28,5167.67L2803.12,5167.46L2801.19,5164.91L2799.36,5162.51L2797.34,5159.86L2795.31,5157.21L2793.48,5154.81L2791.63,5152.42L2789.79,5150.04L2787.82,5147.5L2787.65,5147.3L2785.7,5144.77L2783.84,5142.39L2781.98,5140.01L2779.99,5137.49L2779.83,5137.29L2777.86,5134.77L2776.18,5132.64L2774.18,5130.13L2774.02,5129.93L2772.04,5127.42L2770.15,5125.06L2768.07,5122.46L2766.18,5120.1L2764.17,5117.6L2764.01,5117.4L2762.01,5114.91L2760.31,5112.8L2758.28,5110.31L2758.12,5110.11L2756.11,5107.63L2754.2,5105.29L2752.28,5102.95L2750.24,5100.47L2750.08,5100.28L2748.06,5097.81L2746.13,5095.47L2744.2,5093.14L2742.15,5090.68L2741.99,5090.49L2739.95,5088.03L2738.2,5085.94L2736.14,5083.48L2735.97,5083.29L2733.92,5080.84L2731.97,5078.52L2729.82,5075.98L2727.67,5073.44L2725.72,5071.13L2723.75,5068.83L2721.59,5066.3L2719.62,5064L2717.53,5061.57L2717.37,5061.39L2715.29,5058.96L2713.31,5056.67L2711.33,5054.38L2709.34,5052.1L2707.14,5049.59L2704.95,5047.08L2702.76,5044.58L2700.77,5042.3L2698.77,5040.03L2696.57,5037.54L2694.36,5035.05L2692.35,5032.78L2690.33,5030.52L2688.12,5028.04L2686.09,5025.78L2683.95,5023.4L2683.78,5023.22L2681.64,5020.84L2679.61,5018.59L2677.58,5016.35L2675.41,5013.97L2675.25,5013.79L2673.1,5011.42L2671.05,5009.18L2668.81,5006.73L2666.76,5004.5L2664.7,5002.27L2662.44,4999.82L2660.19,4997.38L2657.93,4994.94L2655.86,4992.72L2653.79,4990.5L2651.52,4988.07L2649.45,4985.86L2647.24,4983.53L2647.08,4983.36L2644.88,4981.02L2642.8,4978.81L2640.71,4976.61L2638.48,4974.28L2638.33,4974.11L2636.12,4971.79L2634.02,4969.6L2631.72,4967.2L2629.62,4965L2627.5,4962.81L2625.19,4960.42L2622.87,4958.03L2620.56,4955.65L2618.44,4953.47L2616.31,4951.29L2613.99,4948.92L2611.66,4946.54L2609.53,4944.37L2607.27,4942.09L2607.11,4941.93L2604.86,4939.64L2602.71,4937.48L2600.57,4935.32L2598.29,4933.04L2598.14,4932.89L2595.88,4930.61L2593.72,4928.46L2591.56,4926.31L2589.27,4924.04L2589.11,4923.89L2586.84,4921.63L2584.67,4919.49L2582.3,4917.15L2579.92,4914.82L2577.76,4912.69L2575.57,4910.55L2573.18,4908.23L2570.8,4905.91L2568.42,4903.59L2566.24,4901.47L2564.04,4899.35L2561.64,4897.05L2559.24,4894.74L2556.84,4892.44L2554.65,4890.33L2552.43,4888.22L2550.02,4885.93L2547.61,4883.64L2545.4,4881.54L2543.17,4879.44L2540.63,4877.05L2540.47,4876.9L2538.34,4874.88L2536.17,4872.86L2536.02,4872.72L2533.47,4870.33L2531.25,4868.25L2529.01,4866.17L2526.57,4863.9L2524.33,4861.83L2521.95,4859.64L2521.79,4859.49L2519.43,4857.31L2517.18,4855.24L2514.73,4852.99L2512.27,4850.75L2510.02,4848.69L2507.75,4846.62L2505.28,4844.39L2502.82,4842.15L2500.35,4839.92L2498.08,4837.87L2495.68,4835.71L2495.53,4835.58L2493.14,4833.42L2490.85,4831.38L2488.57,4829.34L2486.15,4827.19L2486,4827.06L2483.6,4824.91L2481.3,4822.88L2478.8,4820.67L2476.31,4818.47L2473.82,4816.27L2471.52,4814.25L2469.21,4812.23L2466.7,4810.04L2464.19,4807.85L2461.68,4805.66L2459.37,4803.65L2457.05,4801.64L2454.53,4799.47L2452.01,4797.3L2449.48,4795.12L2447.16,4793.12L2444.7,4791.02L2444.54,4790.89L2442.1,4788.8L2439.76,4786.81L2437.22,4784.65L2434.88,4782.66L2432.41,4780.57L2432.26,4780.45L2429.8,4778.36L2427.45,4776.39L2424.89,4774.24L2422.35,4772.1L2419.99,4770.13L2417.62,4768.16L2414.94,4765.93L2414.79,4765.81L2412.31,4763.74L2410.14,4761.94L2407.64,4759.88L2407.49,4759.75L2404.8,4757.53L2402.44,4755.58L2400.05,4753.63L2397.47,4751.51L2394.9,4749.41L2392.51,4747.46L2389.99,4745.42L2389.85,4745.3L2387.35,4743.26L2384.95,4741.32L2382.36,4739.23L2379.76,4737.14L2377.37,4735.21L2374.84,4733.18L2374.69,4733.07L2372.17,4731.04L2369.76,4729.11L2367.16,4727.04L2364.55,4724.96L2361.94,4722.89L2359.53,4720.98L2357.11,4719.07L2354.49,4717L2351.87,4714.94L2349.25,4712.89L2346.63,4710.83L2344.2,4708.93L2341.64,4706.94L2341.5,4706.83L2338.95,4704.84L2336.51,4702.95L2333.88,4700.91L2331.44,4699.02L2328.86,4697.04L2328.72,4696.93L2326.16,4694.95L2323.7,4693.07L2321.05,4691.04L2318.41,4689.02L2315.77,4687L2313.12,4684.98L2310.66,4683.11L2308.19,4681.25L2305.53,4679.24L2302.87,4677.23L2300.21,4675.23L2297.55,4673.23L2295.08,4671.37L2292.47,4669.43L2292.33,4669.33L2289.74,4667.38L2287.25,4665.53L2284.58,4663.55L2281.91,4661.57L2279.23,4659.58L2276.75,4657.75L2274.25,4655.91L2271.44,4653.85L2271.3,4653.75L2268.7,4651.83L2266.2,4650L2263.69,4648.17L2261.06,4646.26L2260.92,4646.16L2258.12,4644.12L2255.62,4642.3L2253.1,4640.48L2250.4,4638.53L2247.7,4636.58L2244.99,4634.63L2242.29,4632.69L2239.78,4630.89L2237.25,4629.08L2234.41,4627.06L2234.28,4626.96L2231.64,4625.08L2229.11,4623.28L2226.4,4621.36L2223.87,4619.57L2221.21,4617.7L2221.07,4617.6L2218.42,4615.73L2215.76,4613.86L2215.62,4613.77L2212.98,4611.9L2210.43,4610.12L2207.7,4608.22L2205.16,4606.44L2202.48,4604.58L2202.34,4604.49L2199.5,4602.51L2196.95,4600.74L2194.39,4598.98L2191.65,4597.09L2188.91,4595.2L2186.16,4593.31L2183.42,4591.43L2180.68,4589.55L2178.11,4587.8L2175.42,4585.97L2175.29,4585.88L2172.61,4584.06L2170.04,4582.31L2167.28,4580.44L2164.52,4578.58L2161.76,4576.72L2159.19,4574.99L2156.48,4573.18L2156.35,4573.09L2153.66,4571.28L2151.07,4569.55L2148.18,4567.62L2148.05,4567.54L2145.36,4565.74L2142.77,4564.02L2140.18,4562.3L2137.45,4560.5L2137.32,4560.41L2134.44,4558.51L2131.85,4556.8L2129.13,4555.01L2129,4554.93L2126.29,4553.14L2123.69,4551.44L2120.9,4549.61L2118.11,4547.8L2115.33,4545.98L2112.72,4544.29L2109.99,4542.52L2109.86,4542.44L2107.14,4540.67L2104.4,4538.91L2104.28,4538.83L2101.55,4537.07L2098.93,4535.38L2096.13,4533.59L2093.33,4531.79L2090.54,4530L2087.92,4528.33L2085.16,4526.58L2085.04,4526.5L2082.3,4524.76L2079.55,4523.02L2079.43,4522.94L2076.69,4521.2L2074.05,4519.54L2071.24,4517.77L2068.43,4515.99L2065.61,4514.23L2062.8,4512.46L2059.99,4510.7L2057.35,4509.05L2054.58,4507.33L2054.46,4507.26L2051.71,4505.54L2049.06,4503.9L2046.23,4502.15L2043.29,4500.34L2043.17,4500.26L2040.41,4498.56L2037.94,4497.03L2035.16,4495.33L2035.03,4495.25L2032.1,4493.45L2029.45,4491.83L2026.66,4490.13L2026.54,4490.06L2023.77,4488.37L2020.99,4486.68L2020.87,4486.6L2018.1,4484.92L2015.44,4483.31L2012.6,4481.59L2009.76,4479.88L2006.92,4478.16L2004.07,4476.45L2001.41,4474.85L1998.61,4473.19L1998.49,4473.11L1995.71,4471.45L1992.92,4469.78L1992.79,4469.71L1990.01,4468.05L1987.34,4466.46L1984.37,4464.71L1984.25,4464.63L1981.46,4462.98L1978.78,4461.4L1975.93,4459.72L1973.25,4458.14L1970.43,4456.49L1970.32,4456.42L1967.35,4454.68L1964.66,4453.11L1961.85,4451.47L1961.74,4451.41L1958.94,4449.77L1956.13,4448.14L1956.01,4448.07L1953.21,4446.44L1950.52,4444.89L1947.65,4443.23L1944.78,4441.57L1941.91,4439.92L1939.04,4438.27L1936.17,4436.62L1933.48,4435.08L1930.65,4433.47L1930.54,4433.41L1927.55,4431.7L1924.85,4430.16L1922.03,4428.56L1921.91,4428.49L1919.1,4426.9L1916.39,4425.36L1913.51,4423.74L1910.51,4422.05L1910.39,4421.99L1907.59,4420.4L1904.87,4418.87L1901.99,4417.26L1899.22,4415.71L1893.41,4412.48L1887.65,4409.27L1882.03,4406.16L1876.24,4402.97L1870.46,4399.8L1864.67,4396.63L1858.97,4393.51L1853.25,4390.41L1847.45,4387.28L1841.73,4384.19L1835.92,4381.08L1830.12,4377.97L1824.31,4374.87L1818.58,4371.83L1812.85,4368.8L1807.03,4365.73L1801.29,4362.72L1795.45,4359.67L1789.63,4356.64L1783.88,4353.65L1778.04,4350.64L1772.21,4347.63L1766.37,4344.64L1760.62,4341.69L1754.86,4338.76L1749.01,4335.79L1743.16,4332.84L1737.31,4329.89L1731.46,4326.95L1725.69,4324.07L1719.83,4321.15L1713.98,4318.24L1708.2,4315.39L1702.34,4312.5L1696.48,4309.62L1690.62,4306.76L1684.84,4303.94L1678.96,4301.1L1673.1,4298.26L1667.23,4295.43L1661.37,4292.61L1655.57,4289.84L1649.69,4287.05L1643.82,4284.26L1637.95,4281.48L1632.07,4278.71L1626.2,4275.95L1620.33,4273.2L1614.53,4270.5L1608.64,4267.77L1602.69,4265.02L1596.89,4262.34L1591.01,4259.64L1585.13,4256.95L1579.25,4254.27L1573.37,4251.6L1567.49,4248.94L1561.61,4246.28L1555.73,4243.64L1549.85,4241.01L1544.05,4238.42L1538.08,4235.77L1532.21,4233.17L1526.32,4230.57L1520.45,4227.99L1514.57,4225.42L1508.7,4222.85L1502.81,4220.29L1496.94,4217.75L1491.06,4215.21L1485.11,4212.65L1479.32,4210.16L1473.43,4207.66L1467.49,4205.12L1461.61,4202.63L1455.75,4200.15L1449.88,4197.69L1444.01,4195.22L1438.14,4192.77L1432.27,4190.33L1426.33,4187.86L1420.47,4185.44L1414.6,4183.03L1408.68,4180.59L1402.9,4178.23L1397.03,4175.84L1391.1,4173.43L1385.25,4171.07L1379.32,4168.68L1373.49,4166.33L1367.63,4163.99L1361.79,4161.66L1355.94,4159.34L1350.03,4157L1344.19,4154.69L1338.36,4152.4L1332.45,4150.09L1326.62,4147.81L1320.79,4145.55L1314.89,4143.27L1309.07,4141.02L1303.18,4138.75L1297.37,4136.52L1291.55,4134.3L1285.67,4132.07L1279.87,4129.86L1274.06,4127.67L1268.18,4125.46L1262.39,4123.29L1256.59,4121.12L1250.65,4118.91L1244.88,4116.77L1239.09,4114.63L1233.24,4112.48L1227.46,4110.36L1221.69,4108.24L1215.84,4106.12L1210.01,4104L1204.25,4101.91L1198.49,4099.84L1192.66,4097.75L1186.85,4095.67L1181.1,4093.62L1175.29,4091.56L1169.56,4089.53L1163.81,4087.51L1157.95,4085.45L1152.16,4083.42L1146.45,4081.42L1140.73,4079.44L1134.95,4077.44L1129.18,4075.45L1123.48,4073.49L1117.78,4071.54L1112.01,4069.57L1106.19,4067.6L1100.52,4065.67L1094.84,4063.76L1089.04,4061.81L1083.38,4059.91L1077.71,4058.02L1071.92,4056.1L1066.22,4054.2L1060.58,4052.34L1054.94,4050.49L1049.23,4048.62L1043.54,4046.76L860.062,3987.13L975.578,3631.67L1159.24,3691.36Z" style="fill:rgb(20,169,12);fill-opacity:0.698039;"/>
            </g>
        </g>
    </g>
</svg>
