<?xml version="1.0" standalone="no"?>
<!DOCTYPE svg PUBLIC "-//W3C//DTD SVG 1.1//EN" "http://www.w3.org/Graphics/SVG/1.1/DTD/svg11.dtd">
<svg width="100%" height="100%" viewBox="0 0 3678 2304" version="1.1" xmlns="http://www.w3.org/2000/svg" xmlns:xlink="http://www.w3.org/1999/xlink" xml:space="preserve" style="fill-rule:evenodd;clip-rule:evenodd;stroke-linejoin:round;stroke-miterlimit:1.41421;">
    <g transform="matrix(1,0,0,1,-45401,-0)">
        <g id="parking-9" transform="matrix(2.87248,0,0,2.25,45401.3,0)">
            <g transform="matrix(2.08676,0,0,5.15206,-116.151,-2349.03)">
                <g transform="matrix(0.516355,0,0,0.342776,217.275,407.725)">
                    <rect x="676.757" y="269.252" width="4.487" height="305.495" style="fill:black;"/>
                </g>
                <g transform="matrix(0.516355,0,0,0.342776,167.974,407.725)">
                    <rect x="676.756" y="269.252" width="4.487" height="305.495" style="fill:black;"/>
                </g>
                <g transform="matrix(-2.3627e-16,-0.975331,1.46923,-1.56845e-16,-273.988,1214.63)">
                    <rect x="678.386" y="270.211" width="1.228" height="303.577" style="fill:black;"/>
                </g>
                <g transform="matrix(0.516355,0,0,0.342776,118.674,407.725)">
                    <rect x="676.756" y="269.252" width="4.487" height="305.495" style="fill:black;"/>
                </g>
                <g transform="matrix(0.516355,0,0,0.342776,69.3729,407.725)">
                    <rect x="676.757" y="269.252" width="4.487" height="305.495" style="fill:black;"/>
                </g>
                <g transform="matrix(0.516355,0,0,0.342776,20.0721,407.725)">
                    <rect x="676.756" y="269.252" width="4.487" height="305.495" style="fill:black;"/>
                </g>
                <g transform="matrix(0.516355,0,0,0.342776,-29.2287,407.725)">
                    <rect x="676.757" y="269.252" width="4.487" height="305.495" style="fill:black;"/>
                </g>
                <g transform="matrix(0.516355,0,0,0.342776,-78.5295,407.725)">
                    <rect x="676.756" y="269.252" width="4.487" height="305.495" style="fill:black;"/>
                </g>
                <g transform="matrix(0.516355,0,0,0.342776,-127.83,407.725)">
                    <rect x="676.756" y="269.252" width="4.487" height="305.495" style="fill:black;"/>
                </g>
                <g transform="matrix(0.516355,0,0,0.342776,-177.131,407.725)">
                    <rect x="676.757" y="269.252" width="4.487" height="305.495" style="fill:black;"/>
                </g>
                <g transform="matrix(0.516355,0,0,0.342776,-226.432,407.725)">
                    <rect x="676.756" y="269.252" width="4.487" height="305.495" style="fill:black;"/>
                </g>
            </g>
            <g transform="matrix(0.126249,-3.77701e-17,-6.84244e-16,0.161177,71.7512,-352.475)">
                <path d="M1097.11,3478.42c0,-25.127 -20.4,-45.527 -45.527,-45.527l-91.055,0c-25.128,0 -45.528,20.4 -45.528,45.527l0,91.055c0,25.128 20.4,45.528 45.528,45.528l91.055,0c25.127,0 45.527,-20.4 45.527,-45.528l0,-91.055Z" style="fill:rgb(23,16,252);"/>
            </g>
            <g transform="matrix(0.126249,-3.77701e-17,-6.84244e-16,0.161177,221.713,-304.523)">
                <path d="M1097.11,3478.42c0,-25.127 -20.4,-45.527 -45.527,-45.527l-91.055,0c-25.128,0 -45.528,20.4 -45.528,45.527l0,91.055c0,25.128 20.4,45.528 45.528,45.528l91.055,0c25.127,0 45.527,-20.4 45.527,-45.528l0,-91.055Z" style="fill:rgb(23,16,252);"/>
            </g>
            <g transform="matrix(0.126249,-3.77701e-17,-6.84244e-16,0.161177,427.471,-71.1325)">
                <path d="M1097.11,3478.42c0,-25.127 -20.4,-45.527 -45.527,-45.527l-91.055,0c-25.128,0 -45.528,20.4 -45.528,45.527l0,91.055c0,25.128 20.4,45.528 45.528,45.528l91.055,0c25.127,0 45.527,-20.4 45.527,-45.528l0,-91.055Z" style="fill:rgb(23,16,252);"/>
            </g>
            <g transform="matrix(0.126249,-3.77701e-17,-6.84244e-16,0.161177,359.237,-215.577)">
                <path d="M1097.11,3478.42c0,-25.127 -20.4,-45.527 -45.527,-45.527l-91.055,0c-25.128,0 -45.528,20.4 -45.528,45.527l0,91.055c0,25.128 20.4,45.528 45.528,45.528l91.055,0c25.127,0 45.527,-20.4 45.527,-45.528l0,-91.055Z" style="fill:rgb(23,16,252);"/>
            </g>
            <g transform="matrix(0.093143,0,0,0.118912,291.41,-248.554)">
                <path d="M1159.33,3691.39l0.056,0.018l5.926,1.935l0.056,0.018l5.973,1.955l0.121,0.039l6.006,1.974l0.122,0.041l5.973,1.972l0.055,0.019l5.987,1.981l0.123,0.04l6.02,2.002l0.122,0.04l6.02,2.011l0.122,0.041l5.947,1.995l6.01,2.016l0.188,0.063l6.035,2.038l0.055,0.019l6.015,2.035l0.121,0.041l6.048,2.056l0.12,0.041l6.016,2.054l0.055,0.019l6.03,2.064l0.122,0.041l6.062,2.084l0.12,0.041l6.029,2.082l0.054,0.018l6.045,2.091l0.12,0.042l6.078,2.111l0.12,0.042l6.044,2.109l0.053,0.019l6.058,2.118l0.12,0.042l6.091,2.139l0.12,0.042l6.092,2.149l0.121,0.042l6.058,2.146l0.052,0.019l6.072,2.155l0.121,0.043l6.105,2.176l0.119,0.042l6.072,2.174l0.052,0.018l6.087,2.184l0.122,0.043l6.12,2.205l0.118,0.042l6.12,2.214l0.119,0.043l6.086,2.211l0.051,0.018l6.101,2.22l0.12,0.044l6.135,2.242l0.119,0.044l6.135,2.251l0.12,0.045l6.1,2.248l0.049,0.018l6.114,2.257l0.12,0.045l6.149,2.279l0.119,0.045l6.149,2.289l0.118,0.044l6.148,2.298l0.121,0.045l6.114,2.295l0.047,0.018l6.129,2.305l0.12,0.045l6.164,2.327l0.12,0.046l6.162,2.336l0.117,0.045l6.127,2.332l0.049,0.019l6.143,2.342l0.119,0.046l6.214,2.379l0.189,0.073l6.162,2.374l0.047,0.018l6.106,2.357l0.048,0.019l6.192,2.394l0.189,0.073l6.178,2.404l0.048,0.019l6.192,2.413l0.187,0.073l6.177,2.423l0.048,0.019l6.156,2.419l0.117,0.046l6.192,2.442l0.118,0.047l6.157,2.438l0.046,0.018l6.206,2.462l0.189,0.075l6.19,2.471l0.046,0.018l6.171,2.467l0.117,0.047l6.242,2.505l0.19,0.076l6.191,2.501l0.045,0.018l6.133,2.481l0.045,0.018l6.219,2.52l0.19,0.076l6.242,2.545l0.119,0.049l6.17,2.525l0.044,0.018l6.219,2.549l0.189,0.077l6.204,2.559l0.043,0.018l6.221,2.568l0.191,0.08l6.207,2.579l0.045,0.019l6.183,2.573l0.115,0.048l6.218,2.598l0.116,0.048l6.219,2.608l0.117,0.05l6.221,2.618l0.117,0.05l6.22,2.628l0.118,0.05l6.181,2.621l0.041,0.018l6.233,2.647l0.191,0.081l6.256,2.674l0.117,0.05l6.182,2.652l0.042,0.018l6.234,2.677l0.191,0.082l6.256,2.704l0.116,0.05l6.181,2.681l0.041,0.018l6.233,2.707l0.191,0.083l6.218,2.718l0.04,0.017l6.234,2.728l0.194,0.085l6.219,2.737l0.039,0.018l6.195,2.73l0.115,0.051l6.269,2.774l0.191,0.084l6.218,2.768l0.041,0.018l6.235,2.778l0.192,0.086l6.219,2.788l0.037,0.017l6.233,2.798l0.193,0.087l6.217,2.807l0.037,0.017l6.233,2.818l0.192,0.087l6.217,2.828l0.037,0.017l6.233,2.838l0.195,0.089l6.218,2.849l0.036,0.016l6.231,2.858l0.192,0.089l6.219,2.869l0.041,0.019l6.232,2.879l0.189,0.087l6.255,2.907l0.114,0.053l6.218,2.899l0.114,0.054l6.218,2.91l0.117,0.054l6.217,2.92l0.111,0.052l6.217,2.93l0.116,0.055l6.217,2.94l0.114,0.054l6.217,2.951l0.116,0.055l6.217,2.961l0.113,0.054l6.255,2.989l0.192,0.092l6.202,2.981l0.036,0.018l6.217,2.991l0.191,0.093l6.202,3.002l0.036,0.017l6.217,3.013l0.194,0.094l6.241,3.042l0.111,0.054l6.203,3.033l0.116,0.058l6.201,3.043l0.109,0.053l6.201,3.054l0.116,0.057l6.243,3.085l0.193,0.096l6.187,3.074l0.033,0.017l6.201,3.084l0.19,0.096l6.227,3.115l0.115,0.058l6.148,3.086l0.032,0.016l6.241,3.137l0.274,0.138l6.211,3.147l0.031,0.016l6.146,3.116l0.112,0.057l6.227,3.169l0.195,0.099l6.213,3.18l0.111,0.057l6.131,3.148l0.032,0.017l6.228,3.2l0.274,0.142l6.196,3.21l0.029,0.015l6.13,3.179l0.113,0.059l6.213,3.233l0.195,0.102l6.197,3.243l0.11,0.058l6.156,3.231l0.112,0.06l6.157,3.243l0.112,0.059l6.198,3.275l0.195,0.104l6.14,3.263l0.027,0.015l6.156,3.274l0.197,0.105l6.182,3.308l0.109,0.058l6.183,3.318l0.197,0.106l6.126,3.307l0.025,0.014l6.141,3.317l0.196,0.106l6.169,3.352l0.111,0.06l6.167,3.361l0.194,0.106l6.111,3.349l0.026,0.015l6.126,3.36l0.197,0.108l6.153,3.394l0.11,0.061l6.152,3.404l0.194,0.108l6.096,3.392l0.027,0.016l6.098,3.395l0.167,0.094l3.105,1.738l0.057,0.031l3.048,1.708l0.051,0.03l3.048,1.71l0.056,0.032l3.133,1.761l0.222,0.126l2.976,1.684l2.907,1.639l0.057,0.032l3.134,1.771l0.227,0.129l2.973,1.69l2.988,1.693l0.227,0.129l2.972,1.696l2.988,1.698l0.227,0.129l3.119,1.785l0.057,0.033l3.034,1.739l0.056,0.032l3.035,1.741l0.055,0.033l3.033,1.743l0.051,0.029l3.032,1.746l0.056,0.032l3.032,1.748l0.051,0.03l3.034,1.752l0.06,0.035l3.121,1.805l0.223,0.13l2.959,1.723l2.887,1.675l0.051,0.029l3.12,1.814l0.233,0.135l3.105,1.817l0.051,0.03l2.872,1.682l2.975,1.737l0.228,0.134l3.103,1.823l0.051,0.03l3.017,1.776l0.055,0.032l3.021,1.781l0.06,0.035l3.019,1.783l0.05,0.03l3.102,1.833l0.224,0.134l2.947,1.753l2.877,1.706l0.055,0.033l3.103,1.844l0.225,0.134l2.942,1.758l2.958,1.763l0.23,0.137l3.091,1.854l0.054,0.033l3.004,1.804l0.055,0.033l3.001,1.805l0.05,0.03l3.004,1.81l0.059,0.036l3.004,1.812l0.049,0.03l3.002,1.814l0.054,0.033l3.006,1.819l0.059,0.035l3.091,1.874l0.226,0.138l2.925,1.784l2.943,1.789l0.23,0.141l3.074,1.881l0.05,0.03l2.842,1.742l2.946,1.799l0.23,0.141l3.077,1.892l0.054,0.033l2.986,1.838l0.049,0.031l2.988,1.842l0.059,0.036l3.077,1.9l0.226,0.141l2.914,1.811l2.929,1.813l0.226,0.141l2.914,1.817l2.928,1.819l0.227,0.141l3.06,1.913l0.053,0.033l2.827,1.771l2.928,1.827l0.226,0.142l3.062,1.923l0.058,0.036l3.062,1.926l0.228,0.144l2.898,1.834l2.822,1.781l0.049,0.031l3.063,1.935l0.236,0.15l2.893,1.84l2.907,1.842l0.236,0.15l3.048,1.944l0.048,0.031l2.958,1.889l0.057,0.037l2.961,1.894l0.052,0.033l2.958,1.896l0.053,0.033l2.958,1.898l0.052,0.034l3.048,1.959l0.233,0.149l2.879,1.863l2.894,1.865l0.232,0.15l2.883,1.87l2.896,1.872l0.228,0.148l3.033,1.973l0.057,0.037l2.945,1.919l0.052,0.034l2.942,1.92l0.052,0.034l2.943,1.923l0.052,0.034l3.033,1.985l0.234,0.153l2.863,1.886l2.877,1.889l0.234,0.154l2.867,1.894l2.882,1.897l0.233,0.154l3.018,2l0.052,0.034l2.927,1.942l0.052,0.035l2.927,1.945l0.052,0.034l3.021,2.01l0.238,0.159l2.849,1.909l2.862,1.91l0.234,0.157l2.846,1.912l2.862,1.915l0.234,0.157l3.006,2.026l0.055,0.037l2.914,1.966l0.051,0.035l2.913,1.968l0.051,0.034l2.912,1.971l0.051,0.034l3.006,2.037l0.239,0.163l2.833,1.932l2.846,1.934l0.234,0.16l2.831,1.936l2.847,1.941l0.239,0.163l2.991,2.052l0.05,0.035l2.898,1.99l0.05,0.035l2.99,2.057l0.235,0.162l2.819,1.952l2.834,1.956l0.235,0.162l2.819,1.958l2.834,1.961l0.235,0.163l2.974,2.072l0.05,0.035l2.882,2.01l0.05,0.035l2.884,2.014l0.054,0.038l2.977,2.083l0.236,0.165l2.803,1.974l2.818,1.977l0.236,0.165l2.799,1.977l2.813,1.979l0.236,0.166l2.962,2.097l0.053,0.038l2.871,2.036l0.053,0.038l2.87,2.037l0.049,0.035l2.96,2.106l0.236,0.168l2.783,1.992l2.8,1.997l0.24,0.172l2.95,2.117l0.053,0.038l2.854,2.052l0.049,0.035l2.852,2.053l0.048,0.035l2.854,2.057l0.053,0.038l2.854,2.061l0.048,0.035l2.946,2.129l0.236,0.172l2.772,2.016l2.788,2.022l0.24,0.174l2.933,2.14l0.048,0.036l2.837,2.073l0.048,0.035l2.839,2.077l0.052,0.039l2.935,2.151l0.241,0.177l2.75,2.028l2.766,2.033l0.245,0.18l2.92,2.16l0.048,0.036l2.821,2.09l0.048,0.036l2.824,2.094l0.052,0.039l2.825,2.099l0.052,0.038l2.824,2.101l0.047,0.035l2.917,2.173l0.237,0.177l2.903,2.177l0.051,0.038l2.648,1.988l2.754,2.06l0.236,0.178l2.904,2.186l0.051,0.038l2.904,2.19l0.237,0.18l2.724,2.067l2.741,2.073l0.241,0.183l2.889,2.199l0.047,0.035l2.625,2.001l2.738,2.079l0.245,0.187l2.986,2.282l0.237,0.182l2.705,2.081l2.721,2.086l0.242,0.185l2.71,2.092l2.723,2.092l0.237,0.183l2.874,2.224l0.05,0.038l2.78,2.154l0.051,0.039l2.874,2.23l0.238,0.185l2.692,2.103l2.71,2.108l0.241,0.188l2.691,2.108l2.705,2.11l0.241,0.188l2.957,2.323l0.242,0.19l2.676,2.115l2.593,2.043l0.05,0.039l2.861,2.256l0.242,0.191l2.846,2.259l0.049,0.039l2.748,2.185l0.046,0.036l2.748,2.188l0.049,0.039l2.75,2.192l0.049,0.039l2.748,2.193l0.045,0.036l2.845,2.273l0.242,0.194l2.831,2.278l0.049,0.04l2.735,2.203l0.049,0.04l2.733,2.205l0.045,0.036l2.733,2.208l0.048,0.039l2.735,2.212l0.049,0.04l2.831,2.293l0.242,0.197l2.815,2.296l0.044,0.036l2.718,2.219l0.049,0.04l2.721,2.225l0.052,0.043l2.718,2.226l0.041,0.033l2.815,2.308l0.245,0.202l2.634,2.174l2.645,2.174l0.238,0.197l2.8,2.317l0.047,0.04l2.705,2.241l0.048,0.04l2.802,2.325l0.242,0.202l2.616,2.186l2.629,2.188l0.238,0.199l2.787,2.335l0.051,0.042l2.69,2.257l0.043,0.037l2.688,2.258l0.047,0.039l2.788,2.345l0.241,0.204l2.601,2.203l2.616,2.205l0.241,0.205l2.772,2.354l0.047,0.04l2.673,2.272l0.043,0.037l2.674,2.277l0.05,0.043l2.773,2.363l0.238,0.204l2.757,2.367l0.05,0.043l2.486,2.137l2.694,2.306l0.438,0.377l2.667,2.311l2.486,2.146l0.046,0.039l2.759,2.385l0.245,0.212l2.743,2.386l0.042,0.037l2.643,2.303l0.045,0.039l2.645,2.307l0.045,0.04l2.645,2.31l0.045,0.04l2.743,2.399l0.241,0.212l2.554,2.249l2.569,2.253l0.241,0.212l2.826,2.495l0.242,0.214l2.539,2.258l2.455,2.173l0.045,0.04l2.727,2.418l0.241,0.215l2.713,2.421l0.045,0.04l2.614,2.337l0.044,0.04l2.615,2.339l0.044,0.04l2.713,2.431l0.241,0.217l2.524,2.277l2.539,2.282l0.244,0.22l2.698,2.441l0.041,0.037l2.697,2.444l0.245,0.222l2.506,2.287l2.521,2.289l0.244,0.223l2.685,2.455l0.043,0.04l2.584,2.367l0.044,0.04l2.583,2.368l0.04,0.037l2.586,2.374l0.05,0.046l2.684,2.468l0.238,0.219l2.665,2.468l0.044,0.04l2.571,2.384l0.046,0.043l2.569,2.384l0.04,0.037l2.668,2.48l0.244,0.227l2.478,2.32l2.492,2.322l0.24,0.225l2.652,2.489l0.043,0.04l2.653,2.493l0.241,0.226l2.465,2.333l2.479,2.336l0.24,0.227l2.638,2.502l0.042,0.04l2.539,2.412l0.042,0.04l2.539,2.415l0.042,0.04l2.64,2.514l0.243,0.232l2.448,2.348l2.46,2.349l0.24,0.23l2.722,2.617l0.24,0.231l2.43,2.355l2.447,2.359l0.243,0.234l2.432,2.362l2.446,2.363l0.239,0.232l2.708,2.637l0.243,0.237l2.414,2.366l2.428,2.37l0.243,0.237l2.42,2.379l2.531,2.476l0.434,0.428l2.5,2.478l2.319,2.287l0.04,0.041l2.594,2.562l0.242,0.24l2.579,2.566l0.041,0.041l2.478,2.469l0.041,0.04l2.578,2.571l0.238,0.239l2.388,2.399l2.402,2.403l0.239,0.239l2.564,2.582l0.043,0.044l2.463,2.484l0.037,0.037l2.563,2.588l0.241,0.244l2.55,2.595l0.043,0.043l2.272,2.314l2.484,2.517l0.435,0.445l2.456,2.522l2.372,2.425l0.237,0.244l2.355,2.424l2.37,2.428l0.24,0.247l2.633,2.718l0.237,0.246l2.342,2.435l2.356,2.439l0.237,0.246l2.517,2.624l0.039,0.04l2.42,2.526l0.041,0.043l2.521,2.634l0.239,0.252l2.325,2.448l2.339,2.449l0.236,0.249l2.503,2.642l0.041,0.043l2.504,2.646l0.236,0.25l2.309,2.458l2.324,2.462l0.239,0.253l2.49,2.658l0.04,0.043l2.39,2.553l0.037,0.04l2.489,2.663l0.238,0.256l2.474,2.666l0.037,0.04l2.373,2.561l0.038,0.04l2.376,2.567l0.042,0.046l2.375,2.569l0.034,0.037l2.472,2.677l0.238,0.258l2.459,2.684l0.04,0.044l2.359,2.578l0.037,0.04l2.36,2.581l0.039,0.043l2.458,2.692l0.234,0.257l2.443,2.696l0.04,0.043l2.345,2.592l0.04,0.043l2.344,2.594l0.036,0.04l2.442,2.704l0.233,0.26l2.43,2.71l0.041,0.047l2.329,2.602l0.034,0.037l2.329,2.606l0.041,0.046l2.43,2.721l0.232,0.262l2.412,2.721l0.035,0.04l2.314,2.615l0.039,0.043l2.315,2.619l0.038,0.043l2.414,2.735l0.235,0.266l2.219,2.533l2.233,2.535l0.234,0.267l2.496,2.855l0.232,0.266l2.205,2.542l2.22,2.547l0.234,0.269l2.382,2.753l0.035,0.04l2.284,2.642l0.037,0.043l2.384,2.762l0.233,0.271l2.367,2.763l0.034,0.04l2.269,2.652l0.037,0.043l2.27,2.657l0.037,0.042l2.368,2.775l0.233,0.274l2.173,2.566l2.188,2.569l0.232,0.273l2.449,2.899l0.229,0.272l2.163,2.579l2.176,2.582l0.229,0.273l2.336,2.793l0.036,0.043l2.337,2.797l0.228,0.274l2.147,2.591l2.162,2.593l0.227,0.274l2.322,2.807l0.035,0.043l2.321,2.811l0.228,0.276l2.132,2.602l2.146,2.604l0.227,0.277l2.306,2.82l0.035,0.043l2.307,2.826l0.229,0.281l2.116,2.612l2.128,2.613l0.226,0.278l2.291,2.834l0.034,0.043l2.292,2.839l0.228,0.284l2.277,2.843l0.034,0.042l2.18,2.725l0.034,0.043l2.18,2.728l0.034,0.042l2.179,2.731l0.031,0.039l2.275,2.854l0.227,0.286l2.263,2.861l0.035,0.045l2.165,2.741l0.031,0.04l2.261,2.865l0.225,0.287l2.245,2.869l0.031,0.039l2.15,2.75l0.035,0.045l2.151,2.755l0.033,0.042l2.245,2.879l0.222,0.286l2.23,2.882l0.033,0.042l2.136,2.765l0.034,0.045l2.231,2.891l0.222,0.288l2.039,2.664l2.151,2.793l0.415,0.543l2.12,2.796l1.944,2.549l0.032,0.041l2.216,2.908l0.222,0.293l2.2,2.911l0.032,0.042l2.2,2.914l0.222,0.295l2.01,2.686l2.024,2.687l0.219,0.292l2.28,3.052l0.223,0.3l1.997,2.695l2.01,2.697l0.22,0.297l2.169,2.935l0.031,0.042l2.073,2.808l0.029,0.039l2.169,2.941l0.222,0.302l2.155,2.947l0.03,0.042l2.06,2.819l0.03,0.042l2.059,2.822l0.03,0.042l2.154,2.955l0.219,0.301l2.137,2.957l0.028,0.039l2.138,2.962l0.22,0.306l1.954,2.729l1.966,2.73l0.215,0.3l2.122,2.971l0.029,0.041l2.123,2.977l0.217,0.304l1.937,2.74l1.952,2.741l0.213,0.302l2.201,3.118l0.217,0.309l1.92,2.744l1.934,2.747l0.217,0.309l2.093,2.999l0.029,0.04l2.092,3.001l0.214,0.308l2.077,3.004l0.028,0.04l1.984,2.874l0.028,0.04l1.986,2.878l0.03,0.044l2.076,3.014l0.211,0.307l2.061,3.017l0.03,0.044l1.97,2.887l0.028,0.04l1.969,2.89l0.027,0.04l2.062,3.028l0.211,0.311l2.047,3.033l0.029,0.043l2.046,3.035l0.208,0.311l1.862,2.786l1.878,2.792l0.21,0.313l2.122,3.182l0.209,0.315l1.848,2.797l1.862,2.799l0.207,0.312l2.015,3.055l0.028,0.043l2.016,3.06l0.207,0.317l2,3.063l0.026,0.039l1.91,2.929l0.028,0.042l1.91,2.933l0.025,0.039l2,3.073l0.206,0.318l1.984,3.077l0.026,0.039l1.895,2.942l0.027,0.042l1.985,3.085l0.205,0.319l1.968,3.087l0.025,0.04l1.879,2.949l0.025,0.04l1.88,2.954l0.027,0.042l1.969,3.098l0.204,0.321l1.953,3.101l0.024,0.039l1.954,3.106l0.204,0.325l1.939,3.11l0.024,0.039l1.849,2.969l0.024,0.038l1.85,2.974l0.026,0.041l1.939,3.12l0.2,0.324l1.922,3.122l0.024,0.038l1.835,2.984l0.026,0.041l1.834,2.986l0.024,0.039l1.922,3.132l0.199,0.325l1.995,3.281l0.2,0.33l1.729,2.871l1.744,2.874l0.199,0.33l1.892,3.147l0.023,0.038l1.891,3.15l0.197,0.328l1.715,2.884l1.73,2.887l0.196,0.329l1.962,3.305l0.195,0.33l1.861,3.165l0.024,0.041l1.776,3.023l0.024,0.04l1.774,3.024l0.02,0.035l1.861,3.174l0.196,0.337l1.846,3.179l0.02,0.035l1.759,3.033l0.023,0.04l1.846,3.187l0.194,0.335l1.83,3.189l0.021,0.038l1.745,3.044l0.023,0.04l1.829,3.196l0.191,0.334l1.655,2.919l1.756,3.073l0.359,0.635l1.727,3.078l1.656,2.931l0.189,0.336l1.798,3.211l0.02,0.037l1.799,3.217l0.189,0.339l1.784,3.222l0.022,0.039l1.699,3.073l0.021,0.037l1.782,3.226l0.186,0.338l1.613,2.948l1.711,3.104l0.352,0.644l1.68,3.104l1.611,2.956l0.186,0.342l1.753,3.246l0.02,0.038l1.752,3.249l0.183,0.34l1.583,2.964l1.679,3.12l0.346,0.65l1.651,3.125l1.583,2.975l0.181,0.342l1.721,3.265l0.02,0.038l1.722,3.27l0.181,0.346l1.554,2.982l1.648,3.139l0.339,0.652l1.621,3.146l1.556,2.995l0.178,0.344l1.689,3.286l0.019,0.038l1.69,3.29l0.176,0.345l1.526,3.002l1.619,3.16l0.334,0.657l1.59,3.165l1.527,3.013l0.174,0.346l1.658,3.306l0.017,0.035l1.659,3.311l0.176,0.353l1.497,3.019l1.588,3.178l0.329,0.665l1.558,3.181l1.496,3.026l0.172,0.351l1.628,3.33l0.018,0.036l1.627,3.333l0.171,0.352l1.612,3.335l0.016,0.034l1.535,3.18l0.018,0.036l1.612,3.343l0.169,0.353l1.596,3.346l0.016,0.033l1.521,3.191l0.018,0.038l1.596,3.354l0.166,0.352l1.581,3.356l0.016,0.035l1.506,3.2l0.015,0.033l1.581,3.364l0.167,0.357l1.565,3.368l0.015,0.032l1.49,3.21l0.017,0.035l1.565,3.374l0.164,0.356l1.549,3.377l0.015,0.033l1.476,3.22l0.016,0.037l1.55,3.385l0.161,0.354l1.534,3.388l0.015,0.034l1.534,3.392l0.161,0.358l1.518,3.395l0.016,0.034l1.445,3.236l0.014,0.032l1.518,3.402l0.161,0.361l1.366,3.097l1.452,3.262l0.302,0.684l1.423,3.267l1.367,3.107l0.157,0.359l1.558,3.583l0.155,0.36l1.338,3.111l1.351,3.115l0.156,0.362l1.542,3.594l0.153,0.359l1.456,3.434l0.015,0.035l1.386,3.273l0.013,0.03l1.386,3.275l0.013,0.033l1.456,3.445l0.153,0.363l1.44,3.448l0.013,0.03l1.439,3.45l0.151,0.363l1.424,3.454l0.013,0.032l1.356,3.292l0.013,0.03l1.424,3.461l0.149,0.365l1.41,3.466l0.012,0.032l1.342,3.303l0.013,0.031l1.408,3.472l0.147,0.364l1.393,3.475l0.013,0.031l1.392,3.478l0.145,0.363l1.377,3.482l0.013,0.033l1.312,3.32l0.013,0.031l1.377,3.489l0.143,0.365l1.362,3.493l0.012,0.031l1.296,3.328l0.012,0.028l1.361,3.5l0.142,0.367l1.347,3.504l0.012,0.031l1.281,3.339l0.012,0.03l1.346,3.51l0.14,0.366l1.33,3.513l0.011,0.03l1.331,3.517l0.138,0.367l1.315,3.52l0.011,0.03l1.252,3.356l0.012,0.032l1.315,3.527l0.135,0.365l1.299,3.53l0.011,0.029l1.237,3.367l0.012,0.031l1.299,3.538l0.133,0.365l1.284,3.541l0.011,0.031l1.284,3.546l0.132,0.368l1.268,3.548l0.011,0.029l1.207,3.382l0.01,0.028l1.268,3.555l0.13,0.369l1.253,3.558l0.01,0.028l1.252,3.563l0.13,0.371l1.237,3.566l0.009,0.026l1.177,3.398l0.011,0.03l1.178,3.403l0.009,0.027l1.237,3.576l0.126,0.369l1.28,3.752l0.126,0.371l1.206,3.583l0.008,0.026l1.148,3.415l0.01,0.028l1.148,3.42l0.009,0.027l1.205,3.593l0.123,0.37l1.247,3.768l0.122,0.371l1.066,3.269l1.081,3.274l0.122,0.372l1.23,3.78l0.12,0.371l1.159,3.61l0.008,0.026l1.103,3.442l0.009,0.026l1.158,3.618l0.119,0.373l1.143,3.622l0.008,0.025l1.089,3.452l0.008,0.025l1.143,3.628l0.116,0.371l1.127,3.632l0.008,0.027l1.128,3.636l0.114,0.371l1.112,3.638l0.008,0.025l1.059,3.469l0.008,0.027l1.112,3.646l0.112,0.371l1.096,3.649l0.007,0.024l1.096,3.652l0.111,0.372l1.081,3.657l0.008,0.025l1.029,3.486l0.007,0.024l1.08,3.663l0.109,0.371l1.065,3.667l0.008,0.025l1.065,3.67l0.107,0.372l1.049,3.673l0.007,0.024l0.999,3.502l0.008,0.025l1.049,3.68l0.105,0.372l1.034,3.684l0.007,0.025l0.985,3.513l0.006,0.023l1.034,3.69l0.103,0.371l1.066,3.869l0.102,0.372l1.003,3.698l0.006,0.024l0.956,3.526l0.006,0.024l0.955,3.53l0.006,0.022l1.002,3.707l0.1,0.372l1.034,3.887l0.098,0.374l0.883,3.375l0.943,3.553l0.189,0.723l0.914,3.558l0.882,3.385l0.097,0.372l1,3.904l0.095,0.374l0.855,3.391l0.913,3.571l0.183,0.725l0.883,3.573l0.855,3.401l0.093,0.373l0.968,3.922l0.091,0.372l0.909,3.75l0.005,0.021l0.867,3.577l0.004,0.02l0.909,3.755l0.089,0.372l0.894,3.76l0.005,0.022l0.852,3.587l0.004,0.019l0.894,3.765l0.087,0.373l0.919,3.947l0.086,0.373l0.784,3.43l0.839,3.61l0.166,0.726l0.81,3.613l0.783,3.44l0.085,0.373l0.886,3.963l0.082,0.372l0.756,3.447l0.81,3.627l0.159,0.726l0.779,3.63l0.756,3.456l0.081,0.372l0.853,3.981l0.079,0.372l0.8,3.807l0.004,0.019l0.763,3.634l0.004,0.017l0.8,3.814l0.077,0.372l0.785,3.819l0.003,0.018l0.785,3.821l0.075,0.371l0.769,3.825l0.004,0.017l0.733,3.652l0.004,0.018l0.769,3.832l0.073,0.37l0.789,4.012l0.072,0.371l0.671,3.493l0.72,3.672l0.14,0.725l0.691,3.678l0.671,3.503l0.071,0.371l0.755,4.028l0.068,0.369l0.708,3.856l0.003,0.018l0.674,3.683l0.003,0.014l0.707,3.862l0.067,0.37l0.691,3.866l0.003,0.016l0.66,3.692l0.003,0.016l0.723,4.05l0.126,0.724l0.631,3.706l0.616,3.531l0.063,0.369l0.661,3.884l0.003,0.017l0.66,3.887l0.062,0.367l0.644,3.889l0.003,0.015l0.645,3.893l0.06,0.369l0.629,3.896l0.003,0.013l0.6,3.723l0.003,0.016l0.63,3.905l0.058,0.367l0.642,4.084l0.057,0.366l0.598,3.91l0.002,0.013l0.572,3.737l0.002,0.014l0.598,3.918l0.056,0.369l0.583,3.921l0.002,0.011l0.556,3.746l0.002,0.012l0.583,3.927l0.054,0.368l0.593,4.109l0.052,0.366l0.552,3.935l0.002,0.012l0.527,3.761l0.002,0.011l0.552,3.941l0.05,0.366l0.537,3.946l0.001,0.01l0.537,3.947l0.049,0.365l0.521,3.952l0.002,0.014l0.498,3.778l0.001,0.011l0.521,3.957l0.047,0.364l0.529,4.138l0.045,0.364l0.491,3.966l0.001,0.011l0.469,3.792l0.001,0.011l0.49,3.972l0.044,0.363l0.475,3.975l0.002,0.011l0.474,3.978l0.043,0.362l0.459,3.981l0.002,0.012l0.439,3.81l0.001,0.01l0.48,4.166l0.079,0.713l0.41,3.821l0.406,3.648l0.039,0.362l0.43,4.008l0.428,4.002l0.038,0.362l0.415,4.016l0.413,4.009l0.036,0.359l0.398,4.013l0.001,0.009l0.398,4.017l0.035,0.358l0.383,4.029l0.382,4.023l0.034,0.358l0.368,4.035l0.351,3.862l0.367,4.034l0.032,0.358l0.367,4.212l0.031,0.357l0.307,3.694l0.337,3.873l0.059,0.706l0.335,4.229l0.308,3.882l0.321,4.054l0.027,0.356l0.307,4.065l0.292,3.891l0.306,4.064l0.026,0.356l0.303,4.242l0.024,0.354l0.276,4.077l0.263,3.905l0.275,4.077l0.023,0.354l0.271,4.256l0.022,0.353l0.244,4.089l0.235,3.92l0.244,4.091l0.02,0.352l0.23,4.1l0.228,4.099l0.019,0.35l0.214,4.106l0.214,4.105l0.017,0.35l0.199,4.113l0.198,4.112l0.017,0.349l0.183,4.119l0.175,3.951l0.183,4.122l0.015,0.347l0.175,4.298l0.013,0.348l0.153,4.132l0.146,3.964l0.153,4.135l0.012,0.347l0.143,4.311l0.011,0.346l0.111,3.801l0.132,3.975l0.02,0.689l0.111,4.323l0.103,3.983l0.106,4.157l0.009,0.344l0.091,4.183l0.001,0.048l0.322,14.997l0,0.008l0.323,15.079l0.002,0.098l0.307,15.134l0.001,0.007l0.307,15.19l0.002,0.097l0.293,15.245l0,0.006l0.293,15.3l0.002,0.095l0.279,15.399l0.002,0.094l0.262,15.322l0.277,15.376l0.001,0.094l0.265,15.558l0.001,0.094l0.249,15.567l0,0.005l0.249,15.575l0,0.005l0.249,15.672l0.001,0.092l0.235,15.766l0.001,0.092l0.219,15.69l0.233,15.74l0.001,0.091l0.221,15.918l0.001,0.09l0.205,15.93l0.204,15.936l0.205,15.986l0.205,16.074l0.001,0.089l0.191,16.164l0.001,0.088l0.174,16.088l0.19,16.135l0.001,0.087l0.176,16.269l0.175,16.313l0.001,0.087l0.161,16.362l0.161,16.367l0.161,16.451l0.001,0.086l0.145,16.416l0.161,16.502l0.001,0.167l0.132,16.547l0.146,16.551l0,0.084l0.132,16.677l0.131,16.681l0.132,16.724l0.132,16.805l0,0.083l0.117,16.85l0.117,16.851l0.117,16.893l0.117,16.973l0.001,0.082l0.102,17.016l0.102,17.015l0.102,17.056l0.103,17.097l0.102,17.174l0.001,0.081l0.175,34.427l0.175,34.541l0.176,34.709l0,0.041l0.16,34.876l0.001,0.041l0.146,35.002l0.146,35.124l0.146,35.28l0,0.04l0.132,35.416l0.131,35.528l0.131,35.675l0.001,0.04l0.116,35.764l0.263,71.901l0,0.021l0.248,72.386l0.263,72.82l0.131,36.578l0.132,36.64l0.146,36.739l0.145,36.834l0.161,36.889l0.175,37.015l0.175,37.137l0.175,37.183l0.189,37.225l0.102,18.57l0.117,18.66l0,0.074l0.102,18.752l0.102,18.66l0.117,18.678l0.116,18.768l0.117,18.712l0.131,18.729l0.131,18.818l0.131,18.833l0.132,18.848l0.131,18.79l0.145,18.805l0.146,18.82l0.16,18.868l0.001,0.073l0.145,18.882l0.16,18.859l0.16,18.872l0.175,18.885l0.175,18.967l0.175,18.907l0.189,18.919l0.189,19l0.19,18.939l0.203,18.949l0.205,19.03l0.203,18.967l0.218,18.976l0.219,18.985l2.522,205.857l-373.731,4.58l-2.524,-205.964l-0.001,-0.071l-0.22,-19.091l-0.219,-19.081l-0.001,-0.071l-0.205,-19.073l-0.204,-19.029l-0.205,-19.055l0,-0.071l-0.191,-19.045l-0.189,-18.998l-0.191,-19.024l0,-0.072l-0.176,-19.013l-0.175,-18.965l-0.176,-18.99l0,-0.072l-0.161,-18.978l-0.161,-18.966l-0.001,-0.071l-0.145,-18.881l-0.161,-18.867l0,-0.071l-0.146,-18.926l-0.147,-18.912l0,-0.072l-0.132,-18.897l-0.131,-18.846l-0.132,-18.831l-0.131,-18.815l-0.132,-18.836l0,-0.072l-0.117,-18.819l-0.117,-18.766l-0.117,-18.785l0,-0.073l-0.103,-18.768l-0.102,-18.64l-0.116,-18.659l-0.001,-0.072l-0.102,-18.732l0,-0.036l-0.19,-37.333l0,-0.035l-0.176,-37.235l-0.175,-37.133l-0.175,-37.066l0,-0.036l-0.161,-36.997l0,-0.036l-0.146,-36.886l-0.146,-36.791l0,-0.037l-0.132,-36.693l-0.131,-36.573l-0.263,-72.841l0,-0.017l-0.248,-72.38l-0.263,-71.924l0,-0.036l-0.117,-35.76l-0.131,-35.615l-0.132,-35.523l-0.131,-35.353l-0.146,-35.217l-0.146,-35.118l-0.146,-34.937l-0.16,-34.753l-0.175,-34.644l-0.175,-34.533l-0.175,-34.299l-0.101,-17.051l-0.103,-17.091l-0.102,-17.051l-0.102,-17.01l-0.102,-16.89l-0.116,-16.847l-0.117,-16.887l-0.116,-16.845l-0.117,-16.721l-0.13,-16.678l-0.132,-16.716l-0.131,-16.673l-0.131,-16.546l-0.145,-16.544l-0.001,-0.081l-0.131,-16.416l-0.159,-16.372l-0.001,-0.08l-0.145,-16.409l-0.16,-16.319l-0.161,-16.357l-0.159,-16.226l-0.174,-16.178l-0.175,-16.131l-0.189,-16.126l-0.001,-0.081l-0.175,-16.078l-0.187,-15.9l-0.204,-15.936l-0.204,-15.971l-0.204,-15.922l-0.203,-15.785l-0.217,-15.647l-0.233,-15.729l-0.001,-0.082l-0.218,-15.676l-0.231,-15.492l-0.247,-15.526l-0.248,-15.561l-0.246,-15.419l-0.26,-15.278l-0.276,-15.359l-0.002,-0.082l-0.262,-15.304l-0.274,-15.113l-0.29,-15.147l-0.29,-15.091l-0.304,-15.034l-0.305,-14.977l-0.319,-14.921l-0.32,-14.914l-0.079,-3.594l-0.093,-3.637l-0.102,-3.974l-0.085,-3.286l-0.114,-3.453l-0.01,-0.341l-0.112,-3.792l-0.108,-3.271l-0.134,-3.611l-0.145,-3.951l-0.133,-3.602l-0.133,-3.253l-0.159,-3.595l-0.175,-3.934l-0.16,-3.585l-0.172,-3.582l-0.173,-3.576l-0.186,-3.572l-0.186,-3.569l-0.199,-3.565l-0.199,-3.559l-0.212,-3.556l-0.233,-3.899l-0.212,-3.547l-0.204,-3.195l-0.238,-3.539l-0.262,-3.884l-0.239,-3.53l-0.227,-3.178l-0.264,-3.522l-0.291,-3.867l-0.265,-3.513l-0.278,-3.51l-0.305,-3.855l-0.251,-3.152l-0.289,-3.327l-0.029,-0.341l-0.306,-3.672l-0.273,-3.139l-0.317,-3.485l-0.349,-3.831l-0.317,-3.476l-0.33,-3.473l-0.33,-3.468l-0.343,-3.464l-0.343,-3.46l-0.357,-3.457l-0.356,-3.451l-0.369,-3.448l-0.369,-3.443l-0.402,-3.62l-0.038,-0.343l-0.35,-3.265l-0.355,-3.08l-0.435,-3.778l-0.395,-3.422l-0.409,-3.421l-0.408,-3.415l-0.421,-3.411l-0.464,-3.76l-0.421,-3.402l-0.389,-3.046l-0.447,-3.397l-0.493,-3.744l-0.447,-3.385l-0.46,-3.384l-0.459,-3.379l-0.473,-3.374l-0.522,-3.726l-0.473,-3.366l-0.434,-3.008l-0.499,-3.358l-0.551,-3.712l-0.498,-3.351l-0.511,-3.345l-0.566,-3.696l-0.511,-3.34l-0.468,-2.983l-0.537,-3.329l-0.594,-3.68l-0.537,-3.325l-0.55,-3.319l-0.55,-3.317l-0.563,-3.311l-0.562,-3.305l-0.607,-3.489l-0.059,-0.34l-0.534,-3.131l-0.525,-2.941l-0.651,-3.646l-0.588,-3.287l-0.601,-3.285l-0.666,-3.634l-0.601,-3.276l-0.547,-2.92l-0.662,-3.453l-0.064,-0.338l-0.582,-3.095l-0.606,-3.092l-0.066,-0.338l-0.662,-3.442l-0.569,-2.9l-0.653,-3.249l-0.722,-3.599l-0.652,-3.242l-0.665,-3.238l-0.664,-3.233l-0.678,-3.23l-0.752,-3.581l-0.677,-3.222l-0.614,-2.866l-0.744,-3.401l-0.073,-0.336l-0.654,-3.043l-0.678,-3.04l-0.074,-0.334l-0.743,-3.389l-0.637,-2.847l-0.771,-3.383l-0.075,-0.334l-0.678,-3.025l-0.702,-3.022l-0.077,-0.334l-0.77,-3.371l-0.659,-2.827l-0.754,-3.178l-0.837,-3.527l-0.753,-3.168l-0.767,-3.168l-0.851,-3.514l-0.766,-3.159l-0.692,-2.803l-0.838,-3.338l-0.083,-0.331l-0.737,-2.982l-0.762,-2.979l-0.084,-0.33l-0.838,-3.326l-0.714,-2.785l-0.866,-3.32l-0.085,-0.329l-0.761,-2.964l-0.787,-2.963l-0.086,-0.329l-0.865,-3.307l-0.736,-2.768l-0.843,-3.116l-0.936,-3.461l-0.937,-3.456l-0.841,-3.103l-0.758,-2.751l-0.868,-3.098l-0.965,-3.442l-0.867,-3.089l-0.88,-3.085l-0.979,-3.43l-0.879,-3.08l-0.893,-3.074l-0.892,-3.071l-0.905,-3.069l-1.007,-3.411l-0.905,-3.06l-0.917,-3.058l-0.918,-3.055l-0.93,-3.049l-1.036,-3.392l-0.93,-3.044l-0.942,-3.039l-0.942,-3.035l-0.956,-3.033l-1.064,-3.375l-0.955,-3.025l-0.967,-3.021l-1.079,-3.364l-0.967,-3.015l-0.868,-2.666l-1.054,-3.193l-0.104,-0.317l-1.041,-3.19l-0.879,-2.658l-1.006,-2.998l-1.12,-3.336l-1.12,-3.334l-1.006,-2.988l-0.9,-2.64l-1.031,-2.981l-1.149,-3.317l-1.148,-3.315l-1.031,-2.971l-1.042,-2.965l-1.043,-2.963l-1.056,-2.96l-1.177,-3.297l-1.055,-2.953l-1.068,-2.948l-1.068,-2.947l-1.08,-2.943l-1.205,-3.276l-1.081,-2.938l-1.093,-2.933l-1.219,-3.265l-1.092,-2.926l-1.106,-2.923l-1.106,-2.92l-1.118,-2.916l-1.247,-3.248l-1.117,-2.908l-1.131,-2.906l-1.262,-3.239l-1.131,-2.899l-1.143,-2.897l-1.274,-3.224l-1.143,-2.889l-1.156,-2.888l-1.156,-2.883l-1.168,-2.879l-1.303,-3.208l-1.168,-2.871l-1.18,-2.869l-1.318,-3.2l-1.181,-2.862l-1.194,-2.862l-1.193,-2.857l-1.205,-2.851l-1.346,-3.181l-1.345,-3.175l-1.205,-2.843l-1.078,-2.513l-1.309,-3.016l-0.128,-0.296l-1.295,-3.015l-1.089,-2.504l-1.323,-3.007l-0.128,-0.293l-1.167,-2.677l-1.192,-2.677l-0.129,-0.293l-1.322,-2.996l-1.256,-2.814l-1.401,-3.137l-1.256,-2.808l-1.268,-2.804l-1.269,-2.804l-1.282,-2.799l-1.428,-3.117l-1.282,-2.794l-1.293,-2.789l-1.444,-3.109l-1.293,-2.783l-1.306,-2.779l-1.457,-3.098l-1.307,-2.775l-1.318,-2.77l-1.47,-3.085l-1.32,-2.766l-1.331,-2.76l-1.485,-3.076l-1.332,-2.757l-1.343,-2.751l-1.344,-2.748l-1.444,-2.922l-0.138,-0.281l-1.275,-2.604l-1.301,-2.602l-0.139,-0.279l-1.442,-2.909l-1.368,-2.732l-1.372,-2.735l-1.47,-2.902l-0.138,-0.273l-1.3,-2.587l-1.325,-2.586l-0.139,-0.273l-1.471,-2.893l-1.395,-2.717l-1.395,-2.713l-1.497,-2.883l-0.14,-0.27l-1.324,-2.569l-1.35,-2.571l-0.143,-0.273l-1.496,-2.872l-1.419,-2.696l-1.421,-2.695l-1.524,-2.865l-0.143,-0.268l-1.348,-2.552l-1.373,-2.552l-0.144,-0.269l-1.525,-2.856l-1.446,-2.68l-1.444,-2.675l-1.551,-2.844l-0.145,-0.267l-1.373,-2.537l-1.397,-2.535l-0.145,-0.263l-1.551,-2.835l-1.472,-2.664l-1.637,-2.96l-1.469,-2.654l-1.484,-2.653l-1.485,-2.653l-1.592,-2.817l-0.146,-0.259l-1.409,-2.512l-1.435,-2.512l-0.148,-0.26l-1.592,-2.808l-1.509,-2.635l-1.679,-2.929l-1.509,-2.629l-1.52,-2.624l-1.694,-2.921l-1.521,-2.621l-1.534,-2.618l-1.708,-2.911l-1.705,-2.902l-1.534,-2.608l-1.375,-2.318l-1.66,-2.769l-0.149,-0.25l-1.645,-2.766l-1.561,-2.6l-1.56,-2.595l-1.672,-2.755l-0.152,-0.251l-1.657,-2.751l-1.398,-2.298l-1.587,-2.586l-1.761,-2.867l-1.761,-2.863l-1.587,-2.577l-1.598,-2.572l-1.775,-2.853l-1.777,-2.853l-1.598,-2.562l-1.61,-2.56l-1.613,-2.56l-1.623,-2.554l-1.803,-2.833l-1.804,-2.832l-1.625,-2.549l-1.637,-2.543l-1.816,-2.819l-1.638,-2.54l-1.651,-2.537l-1.83,-2.809l-1.83,-2.806l-1.651,-2.528l-1.662,-2.523l-1.664,-2.524l-1.782,-2.679l-0.154,-0.232l-1.766,-2.673l-1.495,-2.241l-1.794,-2.667l-0.154,-0.23l-1.782,-2.667l-1.689,-2.506l-1.688,-2.5l-1.703,-2.501l-1.887,-2.769l-1.885,-2.762l-1.702,-2.492l-1.715,-2.49l-1.899,-2.752l-1.9,-2.752l-1.716,-2.481l-1.728,-2.478l-1.726,-2.473l-1.849,-2.625l-0.159,-0.228l-1.835,-2.621l-1.554,-2.203l-1.864,-2.619l-0.156,-0.22l-1.848,-2.612l-1.754,-2.459l-1.757,-2.46l-1.877,-2.607l-0.156,-0.217l-1.859,-2.597l-1.767,-2.448l-1.77,-2.448l-1.78,-2.443l-1.97,-2.699l-1.969,-2.696l-1.778,-2.432l-1.793,-2.431l-1.985,-2.689l-1.793,-2.427l-1.918,-2.573l-0.159,-0.214l-1.9,-2.565l-1.617,-2.164l-1.933,-2.567l-0.159,-0.212l-1.917,-2.56l-1.819,-2.409l-1.819,-2.408l-1.833,-2.406l-2.136,-2.799l-0.159,-0.21l-1.74,-2.294l-1.766,-2.293l-0.159,-0.207l-1.946,-2.543l-1.846,-2.391l-2.035,-2.634l-1.848,-2.389l-1.861,-2.386l-2.049,-2.625l-2.051,-2.624l-1.861,-2.378l-1.875,-2.375l-2.064,-2.615l-1.87,-2.364l-1.888,-2.368l-2.081,-2.608l-2.079,-2.601l-2.078,-2.599l-1.885,-2.353l-1.898,-2.351l-1.901,-2.352l-2.029,-2.491l-0.159,-0.196l-2.013,-2.484l-1.911,-2.341l-1.914,-2.341l-2.041,-2.478l-0.157,-0.191l-2.027,-2.473l-1.927,-2.333l-1.928,-2.331l-2.055,-2.466l-0.157,-0.189l-2.041,-2.461l-1.94,-2.323l-1.94,-2.32l-2.069,-2.454l-0.157,-0.187l-2.054,-2.45l-1.759,-2.081l-2.082,-2.446l-0.162,-0.19l-2.069,-2.442l-1.964,-2.302l-2.16,-2.528l-2.163,-2.528l-1.967,-2.296l-1.978,-2.291l-2.177,-2.519l-1.981,-2.289l-2.108,-2.418l-0.159,-0.183l-2.097,-2.417l-1.798,-2.056l-2.123,-2.411l-0.162,-0.184l-2.109,-2.408l-2.005,-2.27l-2.201,-2.49l-2.204,-2.491l-2.01,-2.268l-2.018,-2.26l-2.218,-2.481l-2.218,-2.477l-2.018,-2.252l-2.036,-2.256l-2.232,-2.469l-2.229,-2.462l-2.034,-2.244l-2.047,-2.243l-2.246,-2.456l-2.245,-2.453l-2.045,-2.231l-2.063,-2.235l-2.259,-2.444l-2.256,-2.437l-2.262,-2.441l-2.061,-2.221l-2.074,-2.219l-2.273,-2.428l-2.072,-2.212l-2.206,-2.337l-0.16,-0.17l-2.195,-2.336l-2.088,-2.206l-2.088,-2.204l-2.223,-2.33l-0.16,-0.167l-2.206,-2.323l-2.098,-2.193l-2.3,-2.4l-2.105,-2.194l-2.236,-2.314l-0.156,-0.162l-2.221,-2.31l-1.917,-1.979l-2.248,-2.303l-0.159,-0.164l-2.237,-2.303l-2.249,-2.299l-0.156,-0.16l-2.038,-2.093l-2.066,-2.094l-0.158,-0.161l-2.446,-2.491l-2.126,-2.162l-2.145,-2.166l-2.344,-2.364l-2.142,-2.158l-2.278,-2.277l-0.155,-0.156l-2.262,-2.273l-2.159,-2.153l-2.358,-2.349l-2.156,-2.146l-2.17,-2.143l-2.489,-2.456l-0.155,-0.153l-2.083,-2.064l-2.109,-2.064l-0.153,-0.151l-2.288,-2.248l-2.305,-2.249l-0.16,-0.157l-2.291,-2.246l-1.985,-1.932l-2.321,-2.243l-0.156,-0.152l-2.303,-2.236l-2.318,-2.234l-0.156,-0.151l-2.306,-2.233l-2.002,-1.926l-2.335,-2.229l-0.156,-0.149l-2.317,-2.222l-2.211,-2.106l-2.412,-2.294l-2.412,-2.291l-2.214,-2.101l-2.347,-2.211l-0.152,-0.143l-2.332,-2.207l-2.228,-2.093l-2.229,-2.092l-2.362,-2.201l-0.155,-0.144l-2.345,-2.195l-2.241,-2.084l-2.44,-2.264l-2.436,-2.258l-2.245,-2.079l-2.252,-2.071l-2.45,-2.249l-2.457,-2.253l-2.453,-2.246l-2.252,-2.061l-2.389,-2.169l-0.156,-0.143l-2.375,-2.166l-2.269,-2.056l-2.27,-2.054l-2.401,-2.157l-0.153,-0.137l-2.39,-2.157l-2.283,-2.046l-2.48,-2.22l-2.481,-2.217l-2.284,-2.039l-2.297,-2.037l-2.615,-2.315l-0.152,-0.134l-2.404,-2.138l-2.101,-1.855l-2.433,-2.134l-0.15,-0.132l-2.419,-2.13l-2.311,-2.022l-2.508,-2.19l-2.507,-2.188l-2.511,-2.187l-2.312,-2.012l-2.322,-2.006l-2.642,-2.281l-0.15,-0.129l-2.238,-1.939l-2.266,-1.94l-0.152,-0.131l-2.64,-2.269l-2.326,-1.996l-2.339,-1.995l-2.535,-2.158l-2.538,-2.159l-2.34,-1.987l-2.475,-2.087l-0.148,-0.125l-2.461,-2.084l-2.353,-1.979l-2.552,-2.144l-2.548,-2.138l-2.354,-1.973l-2.493,-2.074l-0.147,-0.122l-2.474,-2.068l-2.368,-1.965l-2.562,-2.123l-2.372,-1.963l-2.506,-2.061l-0.146,-0.121l-2.485,-2.051l-2.386,-1.956l-2.579,-2.112l-2.572,-2.103l-2.579,-2.106l-2.386,-1.946l-2.396,-1.941l-2.589,-2.094l-2.593,-2.095l-2.593,-2.092l-2.589,-2.086l-2.396,-1.928l-2.414,-1.929l-2.607,-2.081l-2.603,-2.074l-2.606,-2.075l-2.607,-2.072l-2.41,-1.913l-2.425,-1.912l-2.739,-2.157l-0.147,-0.115l-2.532,-2.003l-2.233,-1.753l-2.561,-1.998l-0.146,-0.114l-2.547,-1.995l-2.559,-1.991l-0.142,-0.11l-2.549,-1.991l-2.442,-1.894l-2.63,-2.038l-2.443,-1.89l-2.578,-1.981l-0.14,-0.108l-2.559,-1.975l-2.576,-1.973l-0.144,-0.111l-2.565,-1.974l-2.263,-1.729l-2.586,-1.964l-0.143,-0.109l-2.769,-2.11l-2.457,-1.871l-2.588,-1.956l-0.139,-0.106l-2.578,-1.956l-2.47,-1.863l-2.472,-1.861l-2.606,-1.95l-0.138,-0.103l-2.777,-2.086l-2.472,-1.853l-2.489,-1.854l-2.675,-1.99l-2.67,-1.984l-2.675,-1.984l-2.678,-1.984l-2.482,-1.836l-2.616,-1.922l-0.145,-0.106l-2.605,-1.923l-2.496,-1.829l-2.688,-1.967l-2.692,-1.967l-2.501,-1.825l-2.63,-1.907l-0.135,-0.098l-2.62,-1.906l-2.518,-1.821l-2.702,-1.95l-2.702,-1.948l-2.706,-1.948l-2.701,-1.942l-2.511,-1.802l-2.646,-1.887l-0.138,-0.099l-2.637,-1.887l-2.532,-1.801l-2.715,-1.928l-2.711,-1.923l-2.53,-1.791l-2.665,-1.874l-0.136,-0.096l-2.651,-1.872l-2.663,-1.868l-0.132,-0.093l-2.649,-1.865l-2.543,-1.779l-2.728,-1.906l-2.733,-1.906l-2.548,-1.774l-2.677,-1.853l-0.131,-0.091l-2.663,-1.849l-2.677,-1.847l-0.131,-0.091l-2.663,-1.844l-2.561,-1.762l-2.746,-1.887l-2.559,-1.755l-2.689,-1.833l-0.134,-0.091l-2.679,-1.833l-2.694,-1.83l-0.133,-0.091l-2.675,-1.825l-2.572,-1.743l-2.76,-1.867l-2.76,-1.865l-2.756,-1.859l-2.572,-1.734l-2.709,-1.812l-0.131,-0.089l-2.694,-1.809l-2.708,-1.808l-0.131,-0.088l-2.69,-1.801l-2.586,-1.721l-2.773,-1.843l-2.774,-1.84l-2.592,-1.718l-2.72,-1.791l-0.126,-0.082l-2.706,-1.788l-2.722,-1.787l-0.13,-0.085l-2.708,-1.784l-2.605,-1.705l-2.787,-1.821l-2.787,-1.819l-2.782,-1.813l-2.607,-1.695l-2.739,-1.771l-0.123,-0.08l-2.721,-1.765l-2.736,-1.763l-0.128,-0.083l-2.723,-1.761l-2.62,-1.683l-2.8,-1.797l-2.8,-1.794l-2.796,-1.789l-2.8,-1.789l-2.621,-1.671l-2.749,-1.742l-0.131,-0.083l-2.734,-1.739l-2.635,-1.665l-2.933,-1.85l-0.121,-0.077l-2.739,-1.734l-2.634,-1.657l-2.637,-1.656l-2.768,-1.727l-0.119,-0.075l-2.927,-1.833l-2.64,-1.651l-2.768,-1.719l-0.12,-0.074l-2.753,-1.717l-2.768,-1.714l-0.119,-0.074l-2.753,-1.711l-2.65,-1.636l-2.827,-1.743l-2.831,-1.744l-2.651,-1.629l-2.778,-1.697l-0.118,-0.072l-2.944,-1.804l-2.655,-1.625l-2.779,-1.69l-0.122,-0.074l-2.77,-1.69l-2.665,-1.615l-2.836,-1.716l-2.845,-1.72l-2.84,-1.713l-2.84,-1.711l-2.845,-1.712l-2.84,-1.705l-2.666,-1.599l-2.794,-1.665l-0.119,-0.071l-2.785,-1.665l-2.684,-1.595l-2.966,-1.759l-0.115,-0.068l-2.782,-1.656l-2.689,-1.589l-2.853,-1.685l-2.849,-1.679l-2.858,-1.682l-2.685,-1.578l-2.809,-1.64l-0.117,-0.069l-2.972,-1.741l-2.68,-1.568l-2.695,-1.566l-2.986,-1.732l-0.117,-0.068l-2.799,-1.63l-2.694,-1.558l-2.867,-1.656l-2.871,-1.656l-2.871,-1.653l-2.872,-1.651l-2.866,-1.645l-2.866,-1.642l-2.696,-1.543l-2.825,-1.606l-0.119,-0.068l-2.812,-1.603l-2.825,-1.601l-0.119,-0.068l-2.811,-1.598l-2.709,-1.531l-2.994,-1.688l-0.114,-0.065l-2.813,-1.592l-2.714,-1.526l-2.884,-1.619l-2.885,-1.616l-2.768,-1.55l-5.807,-3.233l-5.765,-3.209l-5.697,-3.152l-5.695,-3.142l-5.793,-3.177l-5.78,-3.168l-5.711,-3.113l-5.708,-3.101l-5.808,-3.137l-5.793,-3.127l-5.724,-3.072l-5.724,-3.063l-5.821,-3.096l-5.809,-3.087l-5.737,-3.033l-5.82,-3.065l-5.822,-3.057l-5.739,-3.003l-5.751,-2.993l-5.917,-3.068l-5.741,-2.975l-5.767,-2.964l-5.915,-3.037l-5.752,-2.944l-5.766,-2.934l-5.931,-3.007l-5.754,-2.916l-5.782,-2.906l-5.926,-2.975l-5.768,-2.886l-5.864,-2.917l-5.847,-2.906l-5.778,-2.855l-5.864,-2.887l-5.862,-2.878l-5.86,-2.865l-5.783,-2.819l-5.873,-2.846l-5.862,-2.837l-5.875,-2.827l-5.86,-2.818l-5.798,-2.771l-5.874,-2.797l-5.874,-2.788l-5.873,-2.777l-5.875,-2.769l-5.875,-2.759l-5.872,-2.748l-5.874,-2.739l-5.799,-2.695l-5.888,-2.72l-5.87,-2.708l-5.889,-2.701l-5.873,-2.691l-5.886,-2.68l-5.874,-2.672l-5.887,-2.661l-5.873,-2.653l-5.887,-2.642l-5.872,-2.633l-5.884,-2.622l-5.871,-2.613l-5.813,-2.571l-5.963,-2.629l-5.87,-2.584l-5.884,-2.574l-5.872,-2.566l-5.886,-2.557l-5.945,-2.579l-5.797,-2.504l-5.884,-2.528l-5.944,-2.55l-5.796,-2.476l-5.886,-2.5l-5.945,-2.522l-5.868,-2.479l-5.867,-2.47l-5.87,-2.462l-5.873,-2.453l-5.942,-2.473l-5.851,-2.432l-5.868,-2.423l-5.857,-2.415l-5.87,-2.406l-5.925,-2.425l-5.779,-2.356l-5.869,-2.377l-5.998,-2.426l-5.839,-2.359l-5.781,-2.32l-5.925,-2.368l-5.839,-2.331l-5.853,-2.321l-5.908,-2.34l-5.838,-2.303l-5.908,-2.321l-5.824,-2.284l-5.838,-2.276l-5.821,-2.265l-5.837,-2.257l-5.965,-2.302l-5.808,-2.238l-5.751,-2.202l-5.89,-2.246l-5.879,-2.238l-5.808,-2.202l-5.805,-2.192l-5.876,-2.21l-5.862,-2.2l-5.792,-2.165l-5.792,-2.157l-5.791,-2.147l-5.861,-2.164l-5.846,-2.154l-5.776,-2.12l-5.776,-2.111l-5.844,-2.127l-5.83,-2.117l-5.763,-2.085l-5.761,-2.075l-5.827,-2.09l-5.815,-2.081l-5.746,-2.049l-5.814,-2.063l-5.799,-2.054l-5.73,-2.021l-5.731,-2.013l-5.799,-2.027l-5.783,-2.018l-5.715,-1.986l-5.782,-2l-5.769,-1.991l-5.701,-1.959l-5.765,-1.973l-5.752,-1.964l-5.687,-1.933l-5.752,-1.947l-5.67,-1.915l-5.745,-1.926l-0.012,-0.004l-5.783,-1.941l-5.654,-1.888l-5.655,-1.88l-5.721,-1.893l-5.706,-1.885l-5.64,-1.854l-5.706,-1.867l-5.756,-1.879l-183.486,-59.777l115.777,-355.376l183.571,59.805Z" style="fill:rgb(20,169,12);fill-opacity:0.698039;"/>
            </g>
        </g>
    </g>
</svg>
