<?xml version="1.0" standalone="no"?>
<!DOCTYPE svg PUBLIC "-//W3C//DTD SVG 1.1//EN" "http://www.w3.org/Graphics/SVG/1.1/DTD/svg11.dtd">
<svg width="100%" height="100%" viewBox="0 0 3678 2305" version="1.1" xmlns="http://www.w3.org/2000/svg" xmlns:xlink="http://www.w3.org/1999/xlink" xml:space="preserve" style="fill-rule:evenodd;clip-rule:evenodd;stroke-linejoin:round;stroke-miterlimit:1.41421;">
    <g transform="matrix(1,0,0,1,-41432,-20)">
        <g id="parking-8" transform="matrix(2.87248,0,0,2.25,41432.7,20.4531)">
            <g transform="matrix(2.08676,0,0,5.15206,-116.151,-2349.03)">
                <g transform="matrix(0.516355,0,0,0.342776,217.275,407.725)">
                    <rect x="676.757" y="269.252" width="4.487" height="305.495" style="fill:black;"/>
                </g>
                <g transform="matrix(0.516355,0,0,0.342776,167.974,407.725)">
                    <rect x="676.756" y="269.252" width="4.487" height="305.495" style="fill:black;"/>
                </g>
                <g transform="matrix(-2.3627e-16,-0.975331,1.46923,-1.56845e-16,-273.988,1214.63)">
                    <rect x="678.386" y="270.211" width="1.228" height="303.577" style="fill:black;"/>
                </g>
                <g transform="matrix(0.516355,0,0,0.342776,118.674,407.725)">
                    <rect x="676.756" y="269.252" width="4.487" height="305.495" style="fill:black;"/>
                </g>
                <g transform="matrix(0.516355,0,0,0.342776,69.3729,407.725)">
                    <rect x="676.757" y="269.252" width="4.487" height="305.495" style="fill:black;"/>
                </g>
                <g transform="matrix(0.516355,0,0,0.342776,20.0721,407.725)">
                    <rect x="676.756" y="269.252" width="4.487" height="305.495" style="fill:black;"/>
                </g>
                <g transform="matrix(0.516355,0,0,0.342776,-29.2287,407.725)">
                    <rect x="676.756" y="269.252" width="4.487" height="305.495" style="fill:black;"/>
                </g>
                <g transform="matrix(0.516355,0,0,0.342776,-78.5295,407.725)">
                    <rect x="676.756" y="269.252" width="4.487" height="305.495" style="fill:black;"/>
                </g>
                <g transform="matrix(0.516355,0,0,0.342776,-127.83,407.725)">
                    <rect x="676.756" y="269.252" width="4.487" height="305.495" style="fill:black;"/>
                </g>
                <g transform="matrix(0.516355,0,0,0.342776,-177.131,407.725)">
                    <rect x="676.757" y="269.252" width="4.487" height="305.495" style="fill:black;"/>
                </g>
                <g transform="matrix(0.516355,0,0,0.342776,-226.432,407.725)">
                    <rect x="676.756" y="269.252" width="4.487" height="305.495" style="fill:black;"/>
                </g>
            </g>
            <g transform="matrix(0.126249,-3.77701e-17,-6.84244e-16,0.161177,71.7512,-352.475)">
                <path d="M1097.11,3478.42C1097.11,3453.29 1076.71,3432.89 1051.58,3432.89L960.528,3432.89C935.4,3432.89 915,3453.29 915,3478.42L915,3569.47C915,3594.6 935.4,3615 960.528,3615L1051.58,3615C1076.71,3615 1097.11,3594.6 1097.11,3569.47L1097.11,3478.42Z" style="fill:rgb(23,16,252);"/>
            </g>
            <g transform="matrix(0.126249,-3.77701e-17,-6.84244e-16,0.161177,221.713,-304.523)">
                <path d="M1097.11,3478.42C1097.11,3453.29 1076.71,3432.89 1051.58,3432.89L960.528,3432.89C935.4,3432.89 915,3453.29 915,3478.42L915,3569.47C915,3594.6 935.4,3615 960.528,3615L1051.58,3615C1076.71,3615 1097.11,3594.6 1097.11,3569.47L1097.11,3478.42Z" style="fill:rgb(23,16,252);"/>
            </g>
            <g transform="matrix(0.126249,-3.77701e-17,-6.84244e-16,0.161177,427.471,-71.1325)">
                <path d="M1097.11,3478.42C1097.11,3453.29 1076.71,3432.89 1051.58,3432.89L960.528,3432.89C935.4,3432.89 915,3453.29 915,3478.42L915,3569.47C915,3594.6 935.4,3615 960.528,3615L1051.58,3615C1076.71,3615 1097.11,3594.6 1097.11,3569.47L1097.11,3478.42Z" style="fill:rgb(23,16,252);"/>
            </g>
            <g transform="matrix(0.126249,-3.77701e-17,-6.84244e-16,0.161177,359.237,-215.577)">
                <path d="M1097.11,3478.42C1097.11,3453.29 1076.71,3432.89 1051.58,3432.89L960.528,3432.89C935.4,3432.89 915,3453.29 915,3478.42L915,3569.47C915,3594.6 935.4,3615 960.528,3615L1051.58,3615C1076.71,3615 1097.11,3594.6 1097.11,3569.47L1097.11,3478.42Z" style="fill:rgb(23,16,252);"/>
            </g>
            <g transform="matrix(0.093143,0,0,0.118912,291.41,-248.554)">
                <path d="M-342.662,3458.2L-332.414,3458.31L-321.956,3458.42L-311.331,3458.52L-300.544,3458.63L-289.578,3458.73L-278.448,3458.84L-267.182,3458.94L-255.754,3459.03L-244.201,3459.13L-220.663,3459.32L-196.645,3459.51L-172.181,3459.68L-147.329,3459.86L-122.135,3460.02L-96.642,3460.19L-70.91,3460.35L-44.982,3460.51L-18.907,3460.66L33.506,3460.96L85.917,3461.25L137.951,3461.54L137.957,3461.54L189.211,3461.83L189.222,3461.83L214.432,3461.97L214.443,3461.97L239.319,3462.12L239.333,3462.12L263.833,3462.26L263.85,3462.26L287.9,3462.41L287.921,3462.41L311.493,3462.56L311.517,3462.56L334.567,3462.72L334.596,3462.72L357.053,3462.87L357.086,3462.87L378.92,3463.03L378.959,3463.03L400.126,3463.2L400.171,3463.2L420.641,3463.36L420.744,3463.36L425.093,3463.41L425.25,3463.41L429.624,3463.45L429.778,3463.46L434.153,3463.51L434.31,3463.51L438.686,3463.58L438.842,3463.58L443.217,3463.65L443.371,3463.65L447.744,3463.73L447.898,3463.73L452.273,3463.82L452.429,3463.82L456.805,3463.91L456.962,3463.91L461.335,3464.01L461.487,3464.02L465.856,3464.12L466.004,3464.13L470.392,3464.24L470.552,3464.24L474.929,3464.36L475.085,3464.37L479.46,3464.5L479.614,3464.5L483.987,3464.64L484.141,3464.64L488.514,3464.78L488.668,3464.79L493.036,3464.94L493.178,3464.94L497.566,3465.1L497.731,3465.11L502.109,3465.27L502.26,3465.28L506.632,3465.45L506.785,3465.45L511.152,3465.63L511.292,3465.64L515.678,3465.82L515.843,3465.83L520.221,3466.02L520.375,3466.03L524.747,3466.23L524.898,3466.23L529.262,3466.44L529.4,3466.45L533.787,3466.66L533.956,3466.67L538.335,3466.89L538.483,3466.9L542.845,3467.13L542.981,3467.13L547.367,3467.37L547.535,3467.38L551.914,3467.62L552.065,3467.63L556.436,3467.88L556.59,3467.89L560.95,3468.14L561.079,3468.15L565.464,3468.41L565.636,3468.43L570.016,3468.7L570.164,3468.71L574.523,3468.98L574.652,3468.99L579.038,3469.28L579.212,3469.29L583.593,3469.58L583.741,3469.59L588.108,3469.89L588.256,3469.9L592.614,3470.2L592.744,3470.21L597.129,3470.53L597.3,3470.54L601.678,3470.86L601.826,3470.87L606.194,3471.2L606.345,3471.21L610.702,3471.54L610.827,3471.55L615.21,3471.89L615.383,3471.91L619.762,3472.26L619.91,3472.27L624.278,3472.62L624.428,3472.64L628.783,3473L628.903,3473.01L633.285,3473.38L633.459,3473.39L637.839,3473.77L637.987,3473.78L642.353,3474.16L642.501,3474.18L646.854,3474.56L646.975,3474.58L651.356,3474.97L651.53,3474.99L655.909,3475.39L656.057,3475.41L660.423,3475.82L660.57,3475.83L664.936,3476.25L665.083,3476.26L669.45,3476.69L669.597,3476.7L673.962,3477.13L674.106,3477.15L678.455,3477.59L678.569,3477.6L682.949,3478.04L683.125,3478.06L687.508,3478.51L687.657,3478.53L692.021,3478.99L692.163,3479L696.526,3479.47L696.673,3479.49L701.039,3479.96L701.185,3479.97L705.548,3480.45L705.69,3480.47L710.053,3480.96L710.199,3480.97L714.564,3481.47L714.707,3481.48L719.072,3481.98L719.218,3482L723.581,3482.51L723.722,3482.52L728.085,3483.04L728.231,3483.06L732.613,3483.58L732.792,3483.6L737.14,3484.13L737.248,3484.14L741.591,3484.67L741.732,3484.69L746.093,3485.23L746.236,3485.25L750.599,3485.8L750.742,3485.82L755.104,3486.37L755.247,3486.39L759.629,3486.95L759.811,3486.97L764.157,3487.54L764.259,3487.56L768.599,3488.13L768.739,3488.15L773.121,3488.73L773.307,3488.76L777.654,3489.35L777.754,3489.36L782.092,3489.95L782.23,3489.97L786.612,3490.58L786.801,3490.6L791.147,3491.21L791.24,3491.22L795.6,3491.84L795.787,3491.87L800.131,3492.49L800.224,3492.5L804.583,3493.13L804.771,3493.16L809.117,3493.79L809.21,3493.81L813.569,3494.45L813.756,3494.48L818.123,3495.13L818.263,3495.15L822.584,3495.8L822.676,3495.82L827.035,3496.48L827.222,3496.51L831.59,3497.18L831.729,3497.2L836.048,3497.88L836.136,3497.89L840.493,3498.57L840.681,3498.6L845.049,3499.29L845.185,3499.32L849.529,3500.01L849.671,3500.03L854.013,3500.74L854.147,3500.76L858.489,3501.47L858.627,3501.49L862.971,3502.21L863.11,3502.23L867.452,3502.95L867.588,3502.97L871.929,3503.7L872.065,3503.72L876.406,3504.46L876.542,3504.48L880.884,3505.23L881.022,3505.25L885.364,3506L885.5,3506.02L889.841,3506.78L889.976,3506.8L894.344,3507.57L894.535,3507.6L898.859,3508.37L898.937,3508.38L903.25,3509.15L903.388,3509.18L907.757,3509.96L907.949,3510L912.273,3510.79L912.349,3510.8L916.69,3511.6L916.884,3511.63L921.21,3512.43L921.285,3512.45L925.623,3513.25L925.813,3513.29L930.137,3514.1L930.214,3514.12L934.553,3514.94L934.747,3514.97L939.1,3515.81L939.232,3515.83L943.526,3516.66L943.602,3516.68L947.94,3517.51L948.132,3517.55L952.484,3518.41L952.616,3518.43L956.94,3519.28L957.074,3519.31L961.398,3520.17L961.53,3520.2L965.852,3521.06L965.983,3521.09L970.305,3521.96L970.437,3521.99L974.759,3522.87L974.891,3522.89L979.212,3523.78L979.344,3523.81L983.697,3524.7L983.892,3524.74L988.199,3525.64L988.267,3525.66L992.556,3526.55L992.687,3526.58L997.04,3527.5L997.233,3527.54L1001.54,3528.46L1001.61,3528.47L1005.89,3529.39L1006.02,3529.42L1010.38,3530.35L1010.58,3530.4L1014.91,3531.34L1015.04,3531.37L1019.31,3532.3L1019.38,3532.32L1023.7,3533.27L1023.89,3533.31L1028.23,3534.27L1028.36,3534.3L1032.66,3535.26L1032.79,3535.29L1037.1,3536.26L1037.23,3536.29L1041.53,3537.26L1041.66,3537.29L1045.96,3538.27L1046.09,3538.3L1050.39,3539.29L1050.52,3539.32L1054.82,3540.31L1054.95,3540.34L1059.26,3541.34L1059.38,3541.37L1063.69,3542.38L1063.81,3542.41L1068.15,3543.43L1068.35,3543.48L1072.64,3544.49L1072.69,3544.51L1076.99,3545.53L1077.19,3545.58L1081.48,3546.61L1081.53,3546.62L1085.84,3547.66L1086.04,3547.71L1090.32,3548.75L1090.37,3548.77L1094.67,3549.82L1094.88,3549.87L1099.2,3550.93L1099.32,3550.96L1103.61,3552.02L1103.74,3552.06L1108.02,3553.12L1108.14,3553.16L1112.43,3554.23L1112.56,3554.26L1116.84,3555.34L1116.97,3555.38L1121.25,3556.46L1121.38,3556.49L1125.66,3557.59L1125.78,3557.62L1130.11,3558.73L1130.31,3558.78L1134.58,3559.89L1134.62,3559.9L1138.91,3561.01L1139.11,3561.06L1143.38,3562.18L1143.42,3562.19L1147.71,3563.32L1147.91,3563.37L1152.18,3564.5L1152.22,3564.51L1156.51,3565.65L1156.71,3565.7L1161.02,3566.86L1161.14,3566.89L1165.41,3568.04L1165.53,3568.07L1169.8,3569.23L1169.92,3569.26L1174.18,3570.42L1174.31,3570.45L1178.58,3571.62L1178.69,3571.66L1182.96,3572.83L1183.08,3572.86L1187.39,3574.05L1187.6,3574.11L1191.85,3575.3L1191.88,3575.31L1196.11,3576.49L1196.23,3576.52L1200.54,3577.73L1200.74,3577.79L1205.04,3579L1205.15,3579.04L1209.36,3580.24L1209.4,3580.25L1213.67,3581.46L1213.87,3581.52L1218.16,3582.75L1218.28,3582.79L1222.53,3584.02L1222.65,3584.05L1226.9,3585.29L1227.02,3585.32L1231.27,3586.56L1231.39,3586.6L1235.64,3587.84L1235.76,3587.88L1240.05,3589.14L1240.25,3589.2L1244.49,3590.46L1244.52,3590.47L1248.77,3591.73L1248.98,3591.8L1253.21,3593.07L1253.24,3593.08L1257.49,3594.35L1257.69,3594.41L1261.97,3595.71L1262.09,3595.74L1266.28,3597.02L1266.31,3597.03L1270.55,3598.32L1270.76,3598.39L1275.04,3599.7L1275.15,3599.74L1279.39,3601.04L1279.5,3601.08L1283.78,3602.4L1283.98,3602.47L1288.2,3603.78L1288.23,3603.79L1292.41,3605.1L1292.53,3605.14L1296.81,3606.48L1297.01,3606.55L1301.23,3607.89L1301.25,3607.89L1305.48,3609.23L1305.69,3609.3L1309.95,3610.66L1310.07,3610.7L1314.28,3612.05L1314.4,3612.09L1318.61,3613.45L1318.73,3613.49L1322.94,3614.85L1323.06,3614.89L1327.27,3616.26L1327.38,3616.3L1331.6,3617.67L1331.71,3617.71L1335.98,3619.11L1336.18,3619.18L1340.38,3620.57L1340.4,3620.57L1344.62,3621.97L1344.82,3622.04L1349.02,3623.44L1349.04,3623.44L1353.26,3624.85L1353.46,3624.92L1357.71,3626.35L1357.82,3626.39L1362.02,3627.8L1362.13,3627.84L1366.33,3629.26L1366.44,3629.3L1370.64,3630.73L1370.75,3630.77L1375,3632.22L1375.21,3632.3L1379.39,3633.74L1379.4,3633.74L1383.55,3635.17L1383.66,3635.21L1387.91,3636.68L1388.12,3636.75L1392.35,3638.23L1392.46,3638.27L1396.64,3639.73L1396.75,3639.77L1400.94,3641.24L1401.04,3641.28L1405.23,3642.75L1405.34,3642.79L1409.52,3644.28L1409.63,3644.31L1413.81,3645.8L1413.92,3645.84L1418.1,3647.33L1418.21,3647.37L1422.44,3648.89L1422.65,3648.96L1426.82,3650.47L1431,3651.98L1431.21,3652.06L1435.43,3653.59L1435.54,3653.63L1439.7,3655.15L1439.81,3655.19L1443.98,3656.72L1444.08,3656.76L1448.25,3658.29L1448.36,3658.33L1452.52,3659.87L1452.62,3659.91L1456.84,3661.47L1457.05,3661.55L1461.21,3663.11L1465.37,3664.66L1465.58,3664.74L1469.78,3666.32L1469.89,3666.36L1473.99,3667.91L1478.15,3669.48L1478.36,3669.56L1482.61,3671.18L1482.82,3671.26L1486.95,3672.84L1491.05,3674.41L1491.15,3674.45L1495.36,3676.07L1495.57,3676.15L1499.7,3677.75L1503.85,3679.36L1504.06,3679.44L1508.24,3681.07L1508.35,3681.11L1512.48,3682.73L1512.58,3682.77L1516.71,3684.39L1516.82,3684.44L1520.95,3686.07L1521.05,3686.1L1525.18,3687.74L1525.29,3687.78L1529.48,3689.44L1529.68,3689.53L1533.8,3691.17L1537.92,3692.82L1538.13,3692.9L1542.31,3694.58L1542.41,3694.62L1546.53,3696.29L1546.63,3696.33L1550.74,3698L1550.84,3698.04L1554.96,3699.71L1555.06,3699.75L1559.18,3701.43L1559.28,3701.47L1563.45,3703.18L1563.66,3703.27L1567.75,3704.95L1571.86,3706.65L1572.07,3706.73L1576.23,3708.46L1576.33,3708.5L1580.43,3710.21L1580.53,3710.25L1584.63,3711.96L1584.73,3712L1588.83,3713.72L1588.93,3713.76L1593.08,3715.51L1593.29,3715.6L1597.37,3717.32L1601.46,3719.05L1601.67,3719.14L1605.81,3720.91L1605.91,3720.95L1610,3722.69L1610.09,3722.73L1614.18,3724.48L1614.27,3724.53L1618.36,3726.28L1618.46,3726.32L1622.54,3728.08L1622.64,3728.12L1626.78,3729.92L1626.99,3730.01L1631.05,3731.78L1635.12,3733.55L1635.33,3733.64L1639.45,3735.45L1639.55,3735.49L1643.62,3737.28L1643.72,3737.32L1647.78,3739.12L1647.88,3739.16L1652.01,3740.98L1652.22,3741.08L1656.26,3742.87L1660.31,3744.68L1660.53,3744.78L1664.64,3746.62L1664.73,3746.66L1668.71,3748.45L1672.77,3750.27L1672.98,3750.36L1677.15,3752.25L1677.36,3752.34L1681.38,3754.17L1685.42,3756.01L1685.63,3756.11L1689.66,3757.95L1693.69,3759.79L1693.9,3759.89L1698,3761.77L1698.1,3761.82L1702.13,3763.68L1702.22,3763.72L1706.25,3765.59L1706.35,3765.63L1710.44,3767.53L1710.65,3767.63L1714.66,3769.51L1718.68,3771.38L1718.89,3771.48L1722.97,3773.4L1723.07,3773.44L1727.09,3775.34L1727.17,3775.38L1731.19,3777.28L1731.28,3777.32L1735.3,3779.22L1735.39,3779.27L1739.47,3781.21L1739.68,3781.31L1743.67,3783.22L1747.68,3785.13L1747.88,3785.23L1751.95,3787.18L1752.05,3787.23L1756.05,3789.16L1756.14,3789.2L1760.14,3791.14L1760.22,3791.18L1764.29,3793.15L1764.5,3793.26L1768.48,3795.19L1772.46,3797.14L1772.67,3797.24L1776.72,3799.23L1776.81,3799.27L1780.79,3801.23L1780.88,3801.28L1784.87,3803.24L1784.96,3803.29L1788.95,3805.26L1789.04,3805.3L1793.09,3807.31L1793.3,3807.42L1797.25,3809.39L1801.21,3811.37L1801.43,3811.47L1805.46,3813.5L1805.55,3813.54L1809.52,3815.54L1809.61,3815.58L1813.64,3817.62L1813.85,3817.72L1817.79,3819.72L1821.74,3821.72L1821.95,3821.83L1825.97,3823.88L1826.06,3823.93L1830.01,3825.95L1830.1,3825.99L1834.05,3828.02L1834.14,3828.07L1838.09,3830.1L1838.18,3830.14L1842.2,3832.21L1842.41,3832.32L1846.33,3834.36L1850.27,3836.39L1850.47,3836.5L1854.48,3838.59L1854.56,3838.63L1858.5,3840.69L1858.58,3840.73L1862.58,3842.83L1862.8,3842.95L1866.7,3845L1870.62,3847.06L1870.83,3847.17L1874.82,3849.29L1874.9,3849.33L1878.83,3851.42L1878.91,3851.46L1882.83,3853.55L1882.91,3853.59L1886.83,3855.68L1886.92,3855.73L1890.91,3857.86L1891.12,3857.98L1895.09,3860.12L1895.17,3860.16L1899.08,3862.27L1899.16,3862.31L1903.07,3864.42L1903.15,3864.47L1907.06,3866.59L1907.14,3866.63L1911.05,3868.76L1911.13,3868.8L1915.1,3870.96L1915.32,3871.08L1919.27,3873.25L1919.35,3873.29L1923.25,3875.43L1923.33,3875.48L1927.22,3877.62L1927.3,3877.66L1931.19,3879.81L1931.27,3879.86L1935.23,3882.05L1935.44,3882.16L1939.38,3884.36L1939.46,3884.4L1943.34,3886.56L1943.42,3886.61L1947.3,3888.78L1947.38,3888.82L1951.25,3890.99L1951.33,3891.03L1955.2,3893.21L1955.29,3893.26L1959.23,3895.48L1959.43,3895.6L1963.36,3897.82L1963.44,3897.87L1967.31,3900.06L1967.39,3900.11L1971.25,3902.3L1971.32,3902.34L1975.18,3904.54L1975.26,3904.59L1979.18,3906.83L1979.4,3906.96L1983.31,3909.21L1983.38,3909.25L1987.23,3911.46L1987.31,3911.51L1991.16,3913.73L1991.23,3913.78L1995.08,3916L1995.15,3916.04L1999.06,3918.31L1999.28,3918.44L2003.08,3920.66L2006.88,3922.88L2007.1,3923L2011.07,3925.33L2011.28,3925.45L2015.06,3927.68L2018.79,3929.88L2018.87,3929.92L2022.76,3932.22L2022.97,3932.35L2026.85,3934.65L2026.93,3934.7L2030.75,3936.97L2030.82,3937.01L2034.63,3939.28L2034.71,3939.33L2038.59,3941.65L2038.8,3941.77L2042.57,3944.04L2046.35,3946.3L2046.56,3946.43L2050.43,3948.76L2050.5,3948.81L2054.36,3951.15L2054.58,3951.28L2058.33,3953.56L2062.09,3955.85L2062.3,3955.97L2066.16,3958.33L2066.23,3958.37L2070.01,3960.69L2070.08,3960.73L2073.86,3963.05L2073.93,3963.09L2077.72,3965.42L2077.79,3965.47L2081.64,3967.84L2081.85,3967.97L2085.69,3970.35L2085.76,3970.39L2089.53,3972.73L2089.6,3972.77L2093.37,3975.12L2093.44,3975.16L2097.27,3977.55L2097.49,3977.69L2101.2,3980.02L2104.93,3982.35L2105.14,3982.48L2108.96,3984.89L2109.03,3984.93L2112.85,3987.34L2113.07,3987.48L2116.77,3989.83L2120.48,3992.18L2120.69,3992.31L2124.5,3994.74L2124.57,3994.79L2128.3,3997.17L2128.38,3997.22L2132.11,3999.6L2132.18,3999.65L2135.98,4002.09L2136.19,4002.22L2139.98,4004.66L2140.05,4004.71L2143.78,4007.12L2143.84,4007.16L2147.56,4009.57L2147.63,4009.61L2151.42,4012.07L2151.63,4012.21L2155.3,4014.6L2158.98,4017L2159.19,4017.13L2162.97,4019.61L2163.03,4019.65L2166.74,4022.08L2166.81,4022.12L2170.58,4024.61L2170.79,4024.74L2174.55,4027.23L2174.62,4027.28L2178.31,4029.72L2178.38,4029.77L2182.06,4032.21L2182.13,4032.26L2185.82,4034.71L2185.89,4034.76L2189.65,4037.26L2189.86,4037.4L2193.49,4039.83L2197.21,4042.32L2197.57,4042.56L2201.26,4045.06L2204.82,4047.45L2204.88,4047.5L2208.63,4050.03L2208.84,4050.17L2212.57,4052.7L2212.63,4052.75L2216.29,4055.23L2216.35,4055.28L2220.01,4057.77L2220.08,4057.82L2223.81,4060.36L2224.02,4060.51L2227.73,4063.06L2227.8,4063.1L2231.44,4065.61L2231.5,4065.65L2235.14,4068.16L2235.21,4068.2L2238.92,4070.77L2239.14,4070.92L2242.72,4073.41L2246.32,4075.9L2246.53,4076.05L2250.3,4078.68L2250.51,4078.82L2254.08,4081.33L2257.66,4083.83L2257.88,4083.98L2261.44,4086.49L2265.1,4089.06L2265.46,4089.31L2269.08,4091.88L2272.57,4094.35L2272.64,4094.4L2276.33,4097.01L2276.53,4097.16L2280.2,4099.77L2280.26,4099.81L2283.93,4102.43L2284.14,4102.59L2287.68,4105.12L2291.23,4107.67L2291.44,4107.82L2295.1,4110.45L2295.16,4110.5L2298.73,4113.08L2298.8,4113.12L2302.38,4115.71L2302.44,4115.76L2306.09,4118.4L2306.3,4118.56L2309.94,4121.2L2310,4121.25L2313.56,4123.85L2313.62,4123.89L2317.26,4126.55L2317.47,4126.71L2320.97,4129.28L2324.49,4131.86L2324.7,4132.01L2328.33,4134.69L2328.39,4134.73L2332.01,4137.41L2332.22,4137.56L2335.71,4140.16L2339.21,4142.75L2339.42,4142.91L2343.03,4145.6L2343.09,4145.64L2346.62,4148.28L2346.68,4148.32L2350.28,4151.02L2350.49,4151.18L2354.09,4153.88L2354.14,4153.93L2357.66,4156.58L2357.72,4156.62L2361.24,4159.28L2361.3,4159.32L2364.89,4162.04L2365.1,4162.19L2368.68,4164.92L2368.74,4164.96L2372.24,4167.63L2372.29,4167.67L2375.79,4170.34L2375.86,4170.39L2379.36,4173.06L2379.41,4173.11L2382.99,4175.84L2383.2,4176L2386.76,4178.75L2386.82,4178.79L2390.38,4181.53L2390.59,4181.7L2394.01,4184.35L2397.45,4187.01L2397.66,4187.18L2401.21,4189.94L2401.26,4189.98L2404.73,4192.68L2404.79,4192.72L2408.34,4195.49L2408.55,4195.65L2412.08,4198.43L2412.14,4198.47L2415.59,4201.19L2415.64,4201.23L2419.1,4203.95L2419.16,4203.99L2422.69,4206.78L2422.9,4206.94L2426.41,4209.73L2426.47,4209.78L2429.91,4212.51L2429.97,4212.55L2433.41,4215.29L2433.46,4215.33L2436.97,4218.13L2437.18,4218.3L2440.56,4221.01L2444.03,4223.78L2444.39,4224.07L2447.82,4226.84L2451.2,4229.55L2451.41,4229.72L2454.77,4232.44L2458.22,4235.23L2458.58,4235.52L2462,4238.32L2465.36,4241.05L2465.57,4241.22L2469.04,4244.06L2469.09,4244.1L2472.49,4246.88L2472.54,4246.92L2475.93,4249.7L2475.98,4249.75L2479.46,4252.6L2479.66,4252.77L2483.12,4255.63L2483.17,4255.67L2486.55,4258.47L2486.6,4258.51L2490.06,4261.38L2490.27,4261.55L2493.71,4264.41L2493.76,4264.45L2497.12,4267.26L2497.17,4267.31L2500.54,4270.12L2500.59,4270.16L2504.03,4273.04L2504.24,4273.22L2507.66,4276.1L2507.72,4276.15L2511.06,4278.97L2511.11,4279.01L2514.46,4281.84L2514.51,4281.88L2517.94,4284.78L2518.14,4284.95L2521.56,4287.85L2521.61,4287.9L2524.94,4290.74L2524.99,4290.78L2528.4,4293.69L2528.6,4293.86L2532,4296.78L2532.05,4296.82L2535.37,4299.67L2535.41,4299.71L2538.73,4302.57L2538.78,4302.61L2542.18,4305.54L2542.38,4305.71L2545.64,4308.53L2548.98,4311.42L2549.34,4311.73L2552.65,4314.62L2555.9,4317.44L2556.1,4317.62L2559.47,4320.57L2559.52,4320.61L2562.81,4323.49L2562.85,4323.54L2566.22,4326.49L2566.43,4326.67L2569.64,4329.51L2572.95,4332.42L2573.31,4332.74L2576.6,4335.66L2579.81,4338.51L2580.01,4338.69L2583.35,4341.66L2583.4,4341.71L2586.66,4344.62L2586.7,4344.66L2589.96,4347.57L2590,4347.61L2593.34,4350.6L2593.54,4350.78L2596.87,4353.77L2596.91,4353.81L2600.23,4356.81L2600.43,4356.99L2603.61,4359.86L2606.79,4362.74L2606.99,4362.93L2610.38,4366L2610.58,4366.19L2613.74,4369.07L2616.91,4371.97L2617.11,4372.15L2620.4,4375.17L2620.44,4375.2L2623.66,4378.15L2623.7,4378.2L2626.99,4381.22L2627.19,4381.41L2630.47,4384.44L2630.51,4384.48L2633.71,4387.44L2633.76,4387.48L2637.03,4390.52L2637.23,4390.7L2640.49,4393.74L2640.53,4393.78L2643.72,4396.75L2643.76,4396.8L2646.95,4399.77L2646.99,4399.81L2650.24,4402.86L2650.45,4403.05L2653.69,4406.1L2653.73,4406.14L2656.9,4409.13L2656.95,4409.17L2660.19,4412.24L2660.39,4412.42L2663.62,4415.49L2663.66,4415.53L2666.82,4418.53L2666.85,4418.57L2670.09,4421.64L2670.29,4421.84L2673.37,4424.78L2676.45,4427.73L2676.66,4427.92L2679.95,4431.09L2680.15,4431.28L2683.35,4434.37L2683.39,4434.41L2686.51,4437.43L2686.56,4437.47L2689.68,4440.49L2689.72,4440.53L2692.84,4443.55L2692.88,4443.59L2696.08,4446.7L2696.28,4446.89L2699.46,4450L2699.5,4450.04L2702.69,4453.15L2702.89,4453.35L2706.06,4456.46L2706.1,4456.5L2709.19,4459.55L2709.23,4459.58L2712.32,4462.63L2712.36,4462.67L2715.53,4465.8L2715.72,4465.99L2718.88,4469.12L2718.92,4469.16L2722,4472.22L2722.04,4472.26L2725.19,4475.4L2725.39,4475.6L2728.53,4478.74L2728.57,4478.78L2731.63,4481.85L2731.67,4481.88L2734.81,4485.03L2735,4485.23L2738.13,4488.38L2738.17,4488.42L2741.21,4491.5L2741.25,4491.54L2744.3,4494.62L2744.34,4494.66L2747.46,4497.82L2747.66,4498.02L2750.77,4501.19L2750.8,4501.23L2753.91,4504.4L2754.11,4504.6L2757.06,4507.63L2760.03,4510.67L2760.23,4510.87L2763.41,4514.14L2763.6,4514.34L2766.68,4517.52L2766.71,4517.56L2769.71,4520.67L2769.75,4520.71L2772.75,4523.82L2772.79,4523.86L2775.79,4526.97L2775.83,4527.01L2778.91,4530.21L2779.1,4530.41L2782.24,4533.7L2782.44,4533.91L2785.35,4536.97L2788.27,4540.03L2788.47,4540.23L2791.52,4543.45L2791.55,4543.49L2794.6,4546.7L2794.79,4546.91L2797.83,4550.13L2797.87,4550.17L2800.82,4553.31L2800.86,4553.35L2803.81,4556.49L2803.85,4556.53L2806.88,4559.77L2807.08,4559.97L2810.09,4563.21L2810.12,4563.24L2813.14,4566.48L2813.34,4566.69L2816.35,4569.94L2816.38,4569.97L2819.3,4573.14L2819.34,4573.17L2822.26,4576.34L2822.3,4576.37L2825.3,4579.62L2825.49,4579.84L2828.48,4583.1L2828.52,4583.13L2831.43,4586.31L2831.46,4586.34L2834.45,4589.61L2834.64,4589.82L2837.62,4593.09L2837.65,4593.12L2840.62,4596.39L2840.81,4596.6L2843.63,4599.72L2846.47,4602.85L2846.65,4603.05L2849.69,4606.42L2849.89,4606.64L2852.83,4609.93L2852.86,4609.96L2855.73,4613.16L2855.76,4613.2L2858.62,4616.4L2858.66,4616.44L2861.6,4619.73L2861.79,4619.94L2864.72,4623.24L2864.75,4623.28L2867.6,4626.49L2867.63,4626.53L2870.56,4629.84L2870.75,4630.05L2873.66,4633.36L2873.7,4633.4L2876.53,4636.62L2876.56,4636.65L2879.47,4639.97L2879.66,4640.18L2882.56,4643.5L2882.59,4643.54L2885.41,4646.77L2885.45,4646.81L2888.34,4650.13L2888.53,4650.35L2891.41,4653.68L2891.45,4653.72L2894.33,4657.05L2894.52,4657.27L2897.24,4660.44L2900.06,4663.7L2900.41,4664.11L2903.2,4667.38L2905.92,4670.55L2906.11,4670.77L2908.97,4674.12L2908.99,4674.16L2911.77,4677.42L2911.8,4677.45L2914.65,4680.81L2914.84,4681.03L2917.68,4684.39L2917.71,4684.42L2920.55,4687.78L2920.73,4688.01L2923.41,4691.2L2926.19,4694.5L2926.53,4694.91L2929.27,4698.2L2931.95,4701.41L2932.14,4701.63L2934.95,4705.01L2934.98,4705.04L2937.78,4708.42L2937.97,4708.65L2940.76,4712.04L2940.79,4712.07L2943.51,4715.36L2943.53,4715.4L2946.33,4718.79L2946.51,4719.01L2949.15,4722.23L2951.87,4725.55L2952.22,4725.97L2954.91,4729.3L2957.55,4732.52L2957.73,4732.75L2960.58,4736.26L2960.76,4736.48L2963.36,4739.72L2966.06,4743.05L2966.4,4743.48L2969.07,4746.81L2971.67,4750.05L2971.86,4750.28L2974.59,4753.71L2974.62,4753.74L2977.27,4757.07L2977.3,4757.1L2980.03,4760.53L2980.21,4760.76L2982.93,4764.2L2982.95,4764.23L2985.67,4767.67L2985.86,4767.9L2988.56,4771.34L2988.58,4771.37L2991.21,4774.71L2991.23,4774.74L2993.93,4778.19L2994.12,4778.43L2996.81,4781.88L2996.83,4781.91L2999.44,4785.26L2999.47,4785.29L3002.15,4788.75L3002.33,4788.98L3005.01,4792.44L3005.03,4792.47L3007.62,4795.83L3007.65,4795.86L3010.32,4799.33L3010.5,4799.57L3013.16,4803.03L3013.18,4803.07L3015.84,4806.54L3016.02,4806.77L3018.52,4810.06L3021.11,4813.45L3021.45,4813.89L3024.01,4817.28L3026.51,4820.58L3026.69,4820.82L3029.39,4824.41L3029.57,4824.64L3032.04,4827.94L3034.52,4831.24L3034.7,4831.48L3037.39,4835.08L3037.57,4835.32L3040.17,4838.82L3040.19,4838.85L3042.7,4842.24L3042.73,4842.28L3045.25,4845.68L3045.27,4845.71L3047.87,4849.22L3048.05,4849.46L3050.71,4853.07L3050.88,4853.32L3053.31,4856.63L3055.74,4859.95L3055.92,4860.19L3058.56,4863.82L3058.74,4864.07L3061.15,4867.39L3063.65,4870.82L3063.98,4871.28L3066.45,4874.72L3068.86,4878.05L3069.03,4878.3L3071.57,4881.83L3071.59,4881.86L3074.13,4885.4L3074.3,4885.64L3076.83,4889.18L3076.85,4889.21L3079.29,4892.65L3079.31,4892.68L3081.84,4896.22L3082.01,4896.47L3084.51,4900.02L3084.54,4900.05L3087.04,4903.6L3087.22,4903.85L3089.71,4907.4L3089.73,4907.43L3092.14,4910.88L3092.16,4910.91L3094.65,4914.47L3094.83,4914.72L3097.3,4918.28L3097.32,4918.31L3099.72,4921.77L3099.74,4921.8L3102.22,4925.37L3102.39,4925.62L3104.85,4929.19L3104.87,4929.22L3107.33,4932.79L3107.5,4933.04L3109.95,4936.62L3109.97,4936.65L3112.34,4940.12L3112.36,4940.15L3114.81,4943.73L3114.98,4943.98L3117.41,4947.57L3117.43,4947.6L3119.86,4951.19L3120.03,4951.44L3122.45,4955.04L3122.46,4955.06L3124.8,4958.55L3124.82,4958.57L3127.16,4962.06L3127.18,4962.09L3129.67,4965.8L3129.99,4966.28L3132.31,4969.79L3134.57,4973.18L3134.74,4973.43L3137.12,4977.04L3137.14,4977.07L3139.53,4980.68L3139.7,4980.94L3142.07,4984.55L3142.09,4984.58L3144.38,4988.09L3144.4,4988.11L3146.77,4991.73L3146.93,4991.99L3149.29,4995.61L3149.31,4995.64L3151.66,4999.27L3151.83,4999.53L3154.17,5003.15L3154.19,5003.18L3156.45,5006.69L3156.47,5006.72L3158.81,5010.36L3158.98,5010.61L3161.3,5014.25L3161.32,5014.28L3163.65,5017.92L3163.81,5018.18L3166.12,5021.82L3166.14,5021.84L3168.37,5025.37L3168.39,5025.4L3170.7,5029.05L3170.87,5029.31L3173.16,5032.96L3173.18,5032.99L3175.39,5036.52L3175.41,5036.55L3177.71,5040.2L3177.87,5040.47L3180.23,5044.24L3180.39,5044.51L3182.65,5048.17L3182.67,5048.19L3184.86,5051.74L3184.88,5051.76L3187.07,5055.31L3187.08,5055.34L3189.35,5059.01L3189.51,5059.27L3191.83,5063.06L3191.99,5063.33L3194.09,5066.78L3196.28,5070.35L3196.58,5070.85L3198.74,5074.42L3200.83,5077.87L3200.99,5078.14L3203.28,5081.95L3203.44,5082.21L3205.51,5085.67L3207.66,5089.25L3207.97,5089.77L3210.1,5093.35L3212.16,5096.81L3212.32,5097.08L3214.58,5100.9L3214.74,5101.17L3216.91,5104.87L3216.93,5104.9L3219.03,5108.48L3219.04,5108.5L3221.22,5112.2L3221.38,5112.47L3223.53,5116.18L3223.55,5116.21L3225.64,5119.8L3225.65,5119.82L3227.81,5123.53L3227.96,5123.8L3230.11,5127.52L3230.12,5127.54L3232.27,5131.26L3232.42,5131.53L3234.55,5135.26L3234.56,5135.28L3236.69,5139L3236.85,5139.27L3238.96,5143L3238.97,5143.02L3241.02,5146.63L3241.03,5146.65L3243.14,5150.38L3243.3,5150.65L3245.4,5154.39L3245.41,5154.41L3247.51,5158.15L3247.66,5158.42L3249.74,5162.16L3249.76,5162.18L3251.84,5165.93L3251.99,5166.2L3253.93,5169.7L3255.95,5173.33L3256.24,5173.87L3258.36,5177.74L3258.37,5177.76L3260.36,5181.38L3260.37,5181.41L3262.35,5185.03L3262.36,5185.05L3264.42,5188.81L3264.57,5189.09L3266.68,5192.98L3266.83,5193.26L3268.85,5197.02L3268.86,5197.04L3270.81,5200.67L3270.83,5200.69L3272.85,5204.46L3273,5204.74L3275.01,5208.51L3275.02,5208.53L3276.96,5212.17L3276.97,5212.19L3278.97,5215.96L3279.12,5216.24L3281.18,5220.15L3281.33,5220.43L3283.31,5224.21L3283.32,5224.23L3285.23,5227.88L3285.24,5227.9L3287.22,5231.68L3287.37,5231.96L3289.33,5235.75L3289.34,5235.77L3291.23,5239.43L3291.24,5239.45L3293.2,5243.23L3293.35,5243.52L3295.37,5247.44L3295.51,5247.73L3297.44,5251.52L3297.45,5251.54L3299.32,5255.2L3299.33,5255.22L3301.26,5259.02L3301.41,5259.31L3303.32,5263.11L3303.33,5263.13L3305.18,5266.8L3305.19,5266.82L3307.11,5270.63L3307.25,5270.91L3309.22,5274.85L3309.36,5275.14L3311.25,5278.95L3311.26,5278.97L3313.08,5282.65L3313.09,5282.67L3314.97,5286.48L3315.12,5286.77L3316.99,5290.59L3317,5290.61L3318.87,5294.43L3319.01,5294.72L3320.87,5298.54L3320.88,5298.56L3322.67,5302.25L3322.67,5302.26L3324.53,5306.09L3324.67,5306.38L3326.58,5310.35L3326.72,5310.64L3328.54,5314.47L3328.55,5314.48L3330.31,5318.18L3330.32,5318.2L3332.15,5322.03L3332.29,5322.33L3334.1,5326.16L3334.1,5326.18L3335.85,5329.88L3335.86,5329.9L3337.73,5333.88L3338,5334.45L3339.72,5338.16L3341.39,5341.74L3341.53,5342.04L3343.31,5345.88L3343.32,5345.9L3345.1,5349.75L3345.23,5350.05L3347.06,5354.04L3347.2,5354.33L3348.82,5357.92L3350.47,5361.51L3350.6,5361.8L3352.41,5365.8L3352.55,5366.1L3354.28,5369.96L3354.29,5369.98L3356.02,5373.84L3356.16,5374.13L3357.88,5378L3357.89,5378.02L3359.54,5381.75L3359.55,5381.76L3361.27,5385.63L3361.4,5385.93L3363.1,5389.8L3363.11,5389.82L3364.82,5393.69L3364.95,5393.99L3366.64,5397.86L3366.64,5397.88L3368.33,5401.76L3368.46,5402.06L3370.14,5405.94L3370.14,5405.96L3371.82,5409.84L3371.95,5410.14L3373.61,5414.02L3373.61,5414.04L3375.27,5417.93L3375.4,5418.23L3376.93,5421.84L3378.53,5425.59L3378.78,5426.18L3380.46,5430.21L3380.47,5430.23L3382.04,5433.98L3382.05,5434L3383.68,5437.9L3383.8,5438.2L3385.41,5442.09L3385.42,5442.11L3387.03,5446.01L3387.16,5446.32L3388.76,5450.22L3388.76,5450.23L3390.36,5454.14L3390.49,5454.44L3392.07,5458.35L3392.08,5458.36L3393.66,5462.27L3393.78,5462.58L3395.35,5466.49L3395.36,5466.5L3396.87,5470.27L3396.87,5470.28L3398.44,5474.2L3398.56,5474.5L3400.11,5478.42L3400.12,5478.43L3401.67,5482.35L3401.79,5482.66L3403.39,5486.73L3403.51,5487.03L3405.03,5490.96L3405.04,5490.97L3406.5,5494.75L3406.51,5494.76L3408.03,5498.69L3408.15,5498.99L3409.66,5502.92L3409.66,5502.94L3411.17,5506.87L3411.29,5507.18L3412.78,5511.11L3412.78,5511.12L3414.22,5514.91L3414.22,5514.92L3415.72,5518.86L3415.83,5519.17L3417.37,5523.25L3417.48,5523.57L3418.94,5527.5L3418.95,5527.51L3420.41,5531.45L3420.53,5531.77L3421.97,5535.71L3421.98,5535.73L3423.37,5539.52L3423.37,5539.53L3424.82,5543.48L3424.93,5543.79L3426.42,5547.89L3426.53,5548.2L3427.84,5551.86L3429.22,5555.67L3429.44,5556.28L3430.89,5560.38L3430.9,5560.4L3432.25,5564.2L3432.25,5564.22L3433.65,5568.18L3433.76,5568.49L3435.15,5572.45L3435.15,5572.46L3436.54,5576.42L3436.65,5576.73L3438.02,5580.7L3438.02,5580.71L3439.39,5584.68L3439.5,5584.99L3440.86,5588.96L3440.86,5588.97L3442.22,5592.94L3442.32,5593.26L3443.66,5597.23L3443.67,5597.24L3444.96,5601.06L3444.96,5601.07L3446.35,5605.19L3446.56,5605.82L3447.82,5609.65L3449.05,5613.32L3449.15,5613.64L3450.51,5617.77L3450.62,5618.09L3451.91,5622.07L3451.91,5622.08L3453.16,5625.91L3453.16,5625.92L3454.45,5629.91L3454.56,5630.23L3455.89,5634.36L3455.99,5634.68L3457.25,5638.67L3457.26,5638.68L3458.47,5642.52L3458.47,5642.53L3459.74,5646.52L3459.84,5646.84L3461.14,5650.99L3461.24,5651.31L3462.47,5655.3L3462.47,5655.31L3463.66,5659.15L3463.66,5659.16L3464.9,5663.16L3464.99,5663.48L3466.26,5667.64L3466.36,5667.96L3467.56,5671.96L3467.56,5671.97L3468.72,5675.83L3469.93,5679.83L3470.02,5680.15L3471.21,5684.16L3471.21,5684.17L3472.4,5688.18L3472.5,5688.5L3473.72,5692.67L3473.81,5692.99L3474.97,5697.01L3476.09,5700.87L3477.24,5704.89L3477.34,5705.21L3478.48,5709.23L3479.62,5713.25L3479.72,5713.58L3480.85,5717.61L3481.97,5721.62L3482.06,5721.95L3483.22,5726.13L3483.31,5726.46L3484.41,5730.49L3485.46,5734.35L3485.46,5734.36L3486.56,5738.39L3486.65,5738.72L3487.73,5742.75L3488.81,5746.78L3488.9,5747.11L3489.97,5751.15L3491.03,5755.18L3491.12,5755.51L3492.21,5759.7L3492.3,5760.03L3493.34,5764.07L3494.33,5767.96L3495.37,5772L3495.45,5772.32L3496.48,5776.37L3497.5,5780.41L3497.58,5780.74L3498.62,5784.95L3498.71,5785.28L3499.7,5789.33L3500.65,5793.22L3501.64,5797.27L3501.72,5797.6L3502.7,5801.65L3503.67,5805.7L3503.75,5806.03L3504.75,5810.25L3504.83,5810.58L3505.77,5814.64L3506.68,5818.53L3507.63,5822.59L3507.7,5822.93L3508.67,5827.15L3508.74,5827.48L3509.66,5831.54L3510.58,5835.6L3510.65,5835.93L3511.55,5840L3512.41,5843.9L3513.31,5847.97L3513.39,5848.3L3514.31,5852.53L3514.38,5852.86L3515.25,5856.94L3516.12,5861L3516.18,5861.34L3517.04,5865.41L3517.89,5869.48L3517.96,5869.82L3518.8,5873.89L3519.61,5877.81L3520.48,5882.05L3520.61,5882.71L3521.39,5886.62L3522.18,5890.54L3522.31,5891.2L3523.14,5895.45L3523.9,5899.37L3524.69,5903.45L3524.75,5903.79L3525.53,5907.88L3526.31,5911.96L3526.37,5912.29L3527.16,5916.54L3527.23,5916.88L3527.91,5920.64L3528.64,5924.56L3528.77,5925.23L3529.53,5929.49L3530.26,5933.58L3530.32,5933.91L3531.03,5938.01L3531.72,5941.94L3532.44,5946.03L3532.5,5946.37L3533.23,5950.63L3533.28,5950.97L3533.97,5955.07L3534.66,5959.16L3534.71,5959.5L3535.38,5963.6L3536.05,5967.7L3536.11,5968.04L3536.76,5972.14L3537.42,5976.24L3537.47,5976.58L3538.11,5980.69L3538.75,5984.79L3538.81,5985.13L3539.46,5989.4L3539.51,5989.74L3540.12,5993.85L3540.7,5997.79L3541.31,6001.9L3541.36,6002.24L3541.98,6006.52L3542.03,6006.86L3542.61,6010.97L3543.19,6015.08L3543.23,6015.42L3543.8,6019.53L3544.36,6023.65L3544.41,6023.99L3544.96,6028.1L3545.5,6032.22L3545.55,6032.56L3546.08,6036.68L3546.62,6040.8L3546.66,6041.13L3547.2,6045.42L3547.24,6045.76L3547.74,6049.89L3548.23,6053.84L3548.73,6057.96L3548.77,6058.3L3549.28,6062.59L3549.32,6062.93L3549.79,6067.06L3550.26,6071.18L3550.3,6071.52L3550.76,6075.65L3551.22,6079.78L3551.25,6080.12L3551.69,6084.25L3552.14,6088.37L3552.17,6088.72L3552.62,6093.02L3552.65,6093.36L3553.06,6097.49L3553.46,6101.45L3553.87,6105.58L3553.9,6105.93L3554.31,6110.23L3554.35,6110.57L3554.73,6114.7L3555.11,6118.84L3555.14,6119.18L3555.5,6123.32L3555.87,6127.45L3555.9,6127.79L3556.26,6132.1L3556.29,6132.44L3556.63,6136.58L3556.95,6140.55L3557.28,6144.69L3557.31,6145.03L3557.64,6149.35L3557.67,6149.69L3557.97,6153.83L3558.28,6157.97L3558.3,6158.32L3558.59,6162.46L3558.88,6166.6L3558.91,6166.94L3559.19,6171.26L3559.21,6171.6L3559.47,6175.75L3559.72,6179.73L3559.98,6183.87L3560,6184.21L3560.26,6188.53L3560.27,6188.87L3560.5,6193.02L3560.73,6197.17L3560.75,6197.52L3560.96,6201.67L3561.18,6205.82L3561.19,6206.16L3561.4,6210.48L3561.41,6210.82L3561.6,6214.98L3561.78,6219.13L3561.8,6219.47L3561.96,6223.62L3562.12,6227.61L3562.3,6231.94L3562.32,6232.62L3562.47,6236.95L3562.6,6240.93L3562.73,6245.09L3562.74,6245.43L3562.87,6249.76L3562.88,6250.1L3562.99,6254.26L3563.09,6258.42L3563.1,6258.76L3563.19,6262.94L3563.2,6262.99L3563.52,6277.99L3563.52,6278L3563.84,6293.07L3563.84,6293.17L3564.15,6308.31L3564.15,6308.31L3564.46,6323.5L3564.46,6323.6L3564.75,6338.85L3564.75,6338.85L3565.05,6354.15L3565.05,6354.25L3565.33,6369.65L3565.33,6369.74L3565.59,6385.06L3565.87,6400.44L3565.87,6400.53L3566.13,6416.09L3566.13,6416.18L3566.38,6431.75L3566.38,6431.76L3566.63,6447.33L3566.63,6447.34L3566.88,6463.01L3566.88,6463.1L3567.12,6478.87L3567.12,6478.96L3567.34,6494.65L3567.57,6510.39L3567.57,6510.48L3567.79,6526.4L3567.79,6526.49L3568,6542.42L3568.2,6558.35L3568.41,6574.34L3568.61,6590.41L3568.61,6590.5L3568.8,6606.67L3568.8,6606.75L3568.98,6622.84L3569.17,6638.98L3569.17,6639.06L3569.35,6655.33L3569.52,6671.65L3569.52,6671.73L3569.68,6688.1L3569.84,6704.46L3570,6720.91L3570.01,6721L3570.15,6737.5L3570.3,6754L3570.44,6770.55L3570.59,6787.18L3570.59,6787.27L3570.72,6803.94L3570.85,6820.62L3570.99,6837.35L3571.12,6854.15L3571.12,6854.24L3571.24,6871.09L3571.35,6887.94L3571.47,6904.83L3571.59,6921.8L3571.59,6921.89L3571.69,6938.9L3571.79,6955.92L3571.89,6972.97L3571.99,6990.07L3572.1,7007.24L3572.1,7007.32L3572.27,7041.75L3572.45,7076.29L3572.62,7111L3572.62,7111.04L3572.78,7145.92L3572.78,7145.96L3572.93,7180.96L3573.08,7216.09L3573.22,7251.36L3573.22,7251.4L3573.36,7286.82L3573.49,7322.35L3573.62,7358.03L3573.62,7358.06L3573.74,7393.83L3574,7465.73L3574,7465.75L3574.25,7538.14L3574.51,7610.96L3574.64,7647.53L3574.77,7684.17L3574.92,7720.91L3575.06,7757.75L3575.22,7794.64L3575.4,7831.65L3575.57,7868.79L3575.75,7905.97L3575.94,7943.2L3576.04,7961.84L3576.14,7980.46L3576.26,7999.14L3576.26,7999.22L3576.36,8017.91L3576.48,8036.59L3576.59,8055.36L3576.71,8074.07L3576.84,8092.8L3576.97,8111.62L3577.1,8130.45L3577.24,8149.3L3577.37,8168.09L3577.51,8186.89L3577.66,8205.78L3577.8,8224.62L3577.96,8243.46L3578.12,8262.4L3578.28,8281.27L3578.46,8300.15L3578.63,8319.12L3578.81,8338.03L3579,8356.94L3579.19,8375.94L3579.38,8394.88L3579.58,8413.83L3579.78,8432.86L3579.99,8451.83L3580.21,8470.81L3580.42,8489.79L3582.95,8695.65L3209.22,8700.23L3206.69,8494.26L3206.69,8494.19L3206.47,8475.1L3206.25,8456.02L3206.25,8455.95L3206.05,8436.88L3205.84,8417.85L3205.64,8398.79L3205.64,8398.72L3205.45,8379.68L3205.26,8360.68L3205.07,8341.66L3205.07,8341.58L3204.89,8322.57L3204.71,8303.6L3204.54,8284.61L3204.54,8284.54L3204.38,8265.57L3204.22,8246.64L3204.06,8227.68L3204.06,8227.61L3203.91,8208.67L3203.76,8189.78L3203.62,8170.87L3203.62,8170.8L3203.49,8151.9L3203.35,8133.06L3203.22,8114.23L3203.09,8095.41L3202.96,8076.57L3202.96,8076.5L3202.84,8057.68L3202.72,8038.92L3202.61,8020.13L3202.61,8020.06L3202.51,8001.36L3202.39,7982.69L3202.39,7982.61L3202.29,7963.88L3202.18,7945.19L3202.18,7945.15L3201.99,7907.82L3201.99,7907.78L3201.82,7870.55L3201.64,7833.42L3201.47,7796.35L3201.47,7796.31L3201.31,7759.32L3201.31,7759.28L3201.16,7722.4L3201.01,7685.6L3201.01,7685.57L3200.88,7648.87L3200.75,7612.3L3200.49,7539.46L3200.49,7539.44L3200.24,7467.06L3199.98,7395.14L3199.98,7395.1L3199.86,7359.34L3199.73,7323.73L3199.6,7288.2L3199.47,7252.85L3199.32,7217.64L3199.18,7182.52L3199.03,7147.58L3198.87,7112.83L3198.69,7078.18L3198.52,7043.65L3198.34,7009.35L3198.24,6992.3L3198.14,6975.21L3198.04,6958.16L3197.93,6941.15L3197.83,6924.26L3197.72,6907.41L3197.6,6890.52L3197.48,6873.68L3197.37,6856.96L3197.24,6840.28L3197.11,6823.56L3196.97,6806.89L3196.84,6790.35L3196.7,6773.84L3196.55,6757.3L3196.41,6740.81L3196.26,6724.44L3196.1,6708.12L3195.94,6691.77L3195.78,6675.54L3195.61,6659.36L3195.43,6643.23L3195.24,6627.11L3195.24,6627.02L3195.07,6610.95L3194.88,6595.05L3194.68,6579.11L3194.47,6563.14L3194.27,6547.22L3194.07,6531.43L3193.85,6515.79L3193.62,6500.06L3193.62,6499.98L3193.4,6484.3L3193.16,6468.81L3192.92,6453.28L3192.67,6437.72L3192.42,6422.3L3192.16,6407.02L3191.89,6391.66L3191.89,6391.58L3191.62,6376.28L3191.35,6361.16L3191.06,6346.02L3190.77,6330.93L3190.47,6315.89L3190.16,6300.92L3189.84,6285.99L3189.52,6271.08L3189.44,6267.48L3189.35,6263.84L3189.26,6260.19L3189.16,6256.89L3189.04,6253.25L3188.91,6249.27L3188.8,6245.97L3188.67,6242.67L3188.51,6238.69L3188.36,6235.05L3188.2,6231.41L3188.04,6227.77L3187.88,6224.48L3187.7,6220.84L3187.51,6217.21L3187.31,6213.57L3187.11,6209.94L3186.91,6206.65L3186.69,6203.02L3186.44,6199.05L3186.21,6195.42L3186,6192.13L3185.74,6188.5L3185.49,6184.88L3185.22,6181.25L3184.96,6177.62L3184.7,6174.34L3184.41,6170.72L3184.09,6166.75L3183.79,6163.13L3183.52,6159.85L3183.2,6156.23L3182.88,6152.61L3182.54,6148.99L3182.21,6145.37L3181.9,6142.1L3181.54,6138.48L3181.14,6134.53L3180.78,6130.91L3180.44,6127.64L3180.06,6124.03L3179.67,6120.41L3179.27,6116.8L3178.87,6113.2L3178.46,6109.59L3178.04,6105.98L3177.66,6102.71L3177.22,6099.1L3176.74,6095.16L3176.3,6091.56L3175.89,6088.29L3175.42,6084.69L3174.95,6081.09L3174.47,6077.49L3173.99,6073.89L3173.5,6070.29L3173.01,6066.69L3172.5,6063.1L3171.99,6059.5L3171.52,6056.24L3170.99,6052.65L3170.41,6048.72L3169.87,6045.13L3169.38,6041.87L3168.82,6038.29L3168.26,6034.7L3167.69,6031.11L3167.11,6027.52L3166.53,6023.94L3165.94,6020.36L3165.34,6016.77L3164.74,6013.19L3164.18,6009.94L3163.56,6006.36L3162.87,6002.45L3162.25,5998.87L3161.61,5995.29L3161.03,5992.05L3160.39,5988.64L3160.33,5988.31L3159.65,5984.57L3159.04,5981.33L3158.36,5977.76L3157.68,5974.18L3156.99,5970.61L3156.23,5966.72L3155.6,5963.48L3154.92,5960.08L3154.85,5959.75L3154.18,5956.35L3153.51,5953.11L3152.71,5949.22L3151.98,5945.66L3151.23,5942.1L3150.49,5938.54L3149.72,5934.98L3148.97,5931.42L3148.26,5928.19L3147.48,5924.64L3146.62,5920.76L3145.83,5917.2L3145.03,5913.65L3144.23,5910.1L3143.49,5906.88L3142.67,5903.33L3141.77,5899.46L3140.94,5895.91L3140.18,5892.69L3139.32,5889.15L3138.47,5885.6L3137.6,5882.06L3136.66,5878.2L3135.79,5874.66L3134.99,5871.44L3134.1,5867.91L3133.2,5864.37L3132.3,5860.84L3131.31,5856.99L3130.4,5853.45L3129.57,5850.24L3128.63,5846.72L3127.7,5843.19L3126.75,5839.66L3125.81,5836.13L3124.85,5832.61L3123.8,5828.77L3122.84,5825.25L3121.95,5822.05L3120.97,5818.53L3119.98,5815.01L3118.98,5811.49L3117.98,5807.98L3116.97,5804.46L3115.86,5800.64L3114.85,5797.12L3113.91,5793.93L3112.88,5790.42L3111.84,5786.91L3110.78,5783.4L3109.63,5779.59L3108.58,5776.09L3107.61,5772.89L3106.53,5769.39L3105.35,5765.59L3104.27,5762.09L3103.27,5758.9L3102.17,5755.4L3100.96,5751.6L3099.86,5748.11L3098.83,5744.93L3097.7,5741.44L3096.47,5737.64L3095.33,5734.15L3094.28,5730.97L3093.07,5727.33L3092.97,5727.03L3091.87,5723.7L3090.8,5720.52L3089.53,5716.74L3088.35,5713.26L3087.16,5709.78L3085.98,5706.31L3084.78,5702.83L3083.58,5699.36L3082.36,5695.89L3081.15,5692.42L3079.92,5688.95L3078.59,5685.18L3077.46,5682.02L3076.26,5678.69L3076.16,5678.41L3074.86,5674.79L3073.71,5671.63L3072.45,5668.17L3071.07,5664.41L3069.8,5660.95L3068.52,5657.5L3067.24,5654.05L3066.05,5650.89L3064.75,5647.44L3063.33,5643.7L3062.02,5640.24L3060.7,5636.8L3059.37,5633.36L3058.04,5629.91L3056.59,5626.18L3055.25,5622.74L3054.02,5619.59L3052.66,5616.16L3051.3,5612.72L3049.92,5609.28L3048.43,5605.56L3047.05,5602.13L3045.66,5598.7L3044.28,5595.28L3042.87,5591.85L3041.47,5588.43L3040.05,5585L3038.64,5581.58L3037.21,5578.16L3035.66,5574.46L3034.35,5571.33L3032.95,5568.05L3032.84,5567.78L3031.33,5564.22L3029.88,5560.81L3028.42,5557.4L3026.95,5553.99L3025.48,5550.58L3024,5547.18L3022.51,5543.77L3021.02,5540.37L3019.52,5536.98L3018.01,5533.58L3016.38,5529.9L3014.87,5526.51L3013.34,5523.11L3011.82,5519.72L3010.41,5516.61L3008.79,5513.07L3008.67,5512.82L3007.07,5509.28L3005.64,5506.18L3004.08,5502.8L3002.52,5499.41L3000.87,5495.89L3000.75,5495.63L2999.24,5492.38L2997.78,5489.28L2996.06,5485.63L2994.47,5482.26L2992.87,5478.89L2991.14,5475.25L2989.53,5471.89L2988.04,5468.79L2986.41,5465.43L2984.65,5461.8L2983.02,5458.44L2981.37,5455.08L2979.73,5451.73L2978.07,5448.37L2976.28,5444.75L2974.62,5441.4L2973.08,5438.32L2971.4,5434.98L2969.58,5431.37L2967.89,5428.02L2966.19,5424.68L2964.36,5421.08L2962.66,5417.74L2961.08,5414.67L2959.36,5411.34L2957.49,5407.74L2955.77,5404.42L2954.03,5401.09L2952.15,5397.5L2950.41,5394.18L2948.8,5391.12L2947.03,5387.8L2945.13,5384.22L2943.36,5380.9L2941.58,5377.59L2939.66,5374.02L2937.88,5370.71L2936.23,5367.66L2934.42,5364.36L2932.47,5360.8L2930.53,5357.24L2928.86,5354.19L2927.09,5351.01L2926.96,5350.78L2925.06,5347.35L2923.23,5344.05L2921.39,5340.76L2919.55,5337.47L2917.7,5334.18L2915.84,5330.9L2913.84,5327.36L2911.97,5324.08L2910.1,5320.8L2908.22,5317.52L2906.34,5314.25L2904.45,5310.98L2902.55,5307.7L2900.5,5304.19L2898.6,5300.92L2896.68,5297.65L2894.62,5294.15L2892.71,5290.89L2890.92,5287.87L2888.9,5284.48L2888.77,5284.26L2886.91,5281.11L2885.02,5277.97L2884.89,5277.76L2882.86,5274.37L2881.05,5271.36L2879,5267.99L2878.87,5267.77L2876.98,5264.63L2875.06,5261.5L2874.93,5261.28L2872.88,5257.91L2871.04,5254.91L2869.05,5251.68L2866.9,5248.21L2864.76,5244.74L2862.76,5241.51L2860.9,5238.52L2858.88,5235.3L2856.7,5231.84L2854.68,5228.62L2852.64,5225.4L2850.46,5221.95L2848.42,5218.74L2846.37,5215.53L2844.32,5212.32L2842.25,5209.11L2840.04,5205.68L2837.97,5202.47L2835.9,5199.28L2833.82,5196.08L2831.72,5192.88L2829.48,5189.46L2827.39,5186.27L2825.28,5183.08L2823.18,5179.9L2820.97,5176.59L2820.84,5176.39L2818.8,5173.31L2816.82,5170.36L2814.54,5166.95L2812.25,5163.55L2810.12,5160.38L2807.98,5157.21L2805.83,5154.05L2803.67,5150.88L2801.36,5147.49L2799.2,5144.34L2797.03,5141.18L2794.85,5138.02L2792.66,5134.87L2790.33,5131.5L2788.14,5128.35L2785.94,5125.21L2783.58,5121.84L2781.38,5118.7L2779.17,5115.57L2776.95,5112.43L2774.73,5109.3L2772.35,5105.95L2770.12,5102.82L2767.88,5099.69L2765.63,5096.57L2763.29,5093.33L2763.16,5093.14L2760.98,5090.12L2758.78,5087.09L2758.65,5086.91L2756.31,5083.68L2754.19,5080.78L2751.82,5077.55L2751.69,5077.36L2749.33,5074.14L2747.2,5071.25L2744.91,5068.15L2742.46,5064.84L2740.01,5061.53L2737.71,5058.44L2735.56,5055.56L2733.14,5052.35L2733.01,5052.17L2730.61,5048.97L2728.44,5046.09L2726.02,5042.89L2725.89,5042.72L2723.63,5039.73L2721.35,5036.74L2721.21,5036.56L2718.78,5033.37L2716.44,5030.3L2714.09,5027.23L2711.72,5024.17L2709.2,5020.9L2706.84,5017.84L2704.46,5014.79L2701.93,5011.53L2699.55,5008.48L2697.16,5005.43L2694.61,5002.18L2692.22,4999.14L2689.81,4996.1L2687.41,4993.06L2684.99,4990.02L2682.41,4986.79L2680,4983.77L2677.47,4980.62L2677.34,4980.46L2674.99,4977.51L2672.61,4974.57L2672.48,4974.41L2669.95,4971.28L2667.66,4968.45L2665.11,4965.33L2664.98,4965.17L2662.6,4962.23L2660.19,4959.31L2660.06,4959.15L2657.51,4956.03L2655.04,4953.03L2652.41,4949.83L2649.93,4946.83L2647.45,4943.84L2644.96,4940.85L2642.37,4937.75L2642.24,4937.59L2639.82,4934.68L2637.37,4931.77L2637.24,4931.62L2634.64,4928.53L2632.13,4925.55L2629.62,4922.58L2627.09,4919.6L2624.4,4916.45L2621.88,4913.48L2619.24,4910.4L2619.11,4910.25L2616.65,4907.37L2614.16,4904.49L2614.03,4904.34L2611.39,4901.27L2608.84,4898.32L2606.29,4895.37L2603.72,4892.42L2600.99,4889.3L2598.42,4886.36L2595.84,4883.42L2593.1,4880.3L2590.52,4877.37L2587.92,4874.44L2585.17,4871.33L2582.57,4868.41L2579.96,4865.49L2577.19,4862.39L2574.43,4859.3L2571.82,4856.39L2569.35,4853.66L2566.62,4850.64L2566.5,4850.51L2563.78,4847.5L2561.14,4844.6L2558.5,4841.7L2555.85,4838.8L2553.04,4835.74L2550.39,4832.85L2547.73,4829.97L2544.91,4826.91L2542.08,4823.86L2539.42,4820.99L2536.75,4818.11L2534.07,4815.24L2531.38,4812.38L2528.53,4809.34L2525.68,4806.31L2522.99,4803.46L2520.28,4800.6L2517.58,4797.75L2514.76,4794.8L2514.64,4794.67L2511.84,4791.72L2509.27,4789.04L2506.54,4786.2L2503.65,4783.2L2500.76,4780.21L2497.87,4777.21L2495.14,4774.38L2492.55,4771.73L2489.7,4768.81L2489.58,4768.68L2486.73,4765.76L2483.97,4762.95L2481.21,4760.14L2478.44,4757.33L2475.51,4754.36L2472.58,4751.4L2469.8,4748.61L2467.02,4745.81L2464.07,4742.86L2461.29,4740.07L2458.49,4737.28L2455.53,4734.35L2452.73,4731.56L2449.91,4728.79L2446.94,4725.86L2443.97,4722.93L2441.16,4720.17L2438.33,4717.4L2435.5,4714.65L2432.66,4711.89L2429.66,4708.98L2426.66,4706.08L2423.66,4703.18L2420.82,4700.44L2418.13,4697.85L2415.16,4695.02L2415.04,4694.9L2412.09,4692.07L2409.22,4689.35L2406.19,4686.47L2403.33,4683.74L2400.44,4681.03L2397.41,4678.16L2394.52,4675.45L2391.63,4672.73L2388.57,4669.88L2385.52,4667.03L2382.62,4664.33L2379.72,4661.63L2376.65,4658.8L2373.74,4656.11L2370.82,4653.42L2367.74,4650.59L2364.82,4647.91L2361.78,4645.14L2361.67,4645.04L2358.64,4642.28L2355.87,4639.75L2352.82,4636.99L2352.7,4636.89L2349.66,4634.13L2346.71,4631.48L2343.77,4628.82L2340.8,4626.17L2337.68,4623.38L2334.56,4620.6L2331.6,4617.95L2328.52,4615.22L2328.41,4615.12L2325.5,4612.54L2322.57,4609.96L2322.45,4609.86L2319.38,4607.14L2316.39,4604.52L2313.24,4601.76L2310.25,4599.15L2307.15,4596.44L2307.04,4596.35L2304.1,4593.78L2301.14,4591.22L2301.03,4591.13L2297.92,4588.44L2294.91,4585.84L2291.73,4583.11L2288.56,4580.38L2285.54,4577.8L2282.51,4575.21L2279.32,4572.49L2276.29,4569.92L2273.25,4567.34L2270.05,4564.64L2266.85,4561.94L2263.8,4559.38L2260.74,4556.82L2257.53,4554.13L2254.32,4551.45L2251.26,4548.9L2248.19,4546.35L2244.96,4543.68L2241.89,4541.15L2238.8,4538.61L2235.56,4535.95L2232.32,4533.3L2229.24,4530.78L2226.04,4528.17L2225.93,4528.09L2222.9,4525.61L2219.84,4523.14L2219.74,4523.06L2216.54,4520.47L2213.32,4517.88L2213.22,4517.8L2210.17,4515.34L2207.09,4512.88L2206.99,4512.8L2203.78,4510.22L2200.65,4507.73L2197.37,4505.12L2194.09,4502.52L2190.97,4500.04L2187.83,4497.57L2184.53,4494.97L2181.24,4492.38L2178.11,4489.92L2174.95,4487.46L2171.64,4484.88L2168.49,4482.43L2165.22,4479.9L2165.12,4479.83L2161.87,4477.3L2158.7,4474.86L2155.53,4472.42L2152.35,4469.99L2149.02,4467.44L2145.69,4464.9L2142.36,4462.36L2139.18,4459.95L2135.98,4457.53L2132.64,4455.01L2129.29,4452.49L2126.1,4450.09L2122.89,4447.69L2119.53,4445.18L2116.33,4442.78L2113,4440.32L2112.91,4440.25L2109.6,4437.79L2106.38,4435.41L2103.16,4433.04L2099.82,4430.59L2099.73,4430.52L2096.4,4428.08L2093.17,4425.72L2089.78,4423.24L2086.55,4420.89L2083.3,4418.54L2079.91,4416.08L2076.51,4413.63L2073.26,4411.29L2069.9,4408.88L2069.8,4408.81L2066.45,4406.41L2063.2,4404.08L2059.93,4401.75L2056.66,4399.44L2053.13,4396.94L2053.04,4396.88L2049.82,4394.6L2046.58,4392.32L2046.49,4392.26L2043.11,4389.88L2039.72,4387.51L2039.64,4387.45L2036.26,4385.08L2033.11,4382.89L2029.71,4380.53L2029.62,4380.47L2026.23,4378.11L2022.93,4375.83L2019.48,4373.45L2016.03,4371.08L2012.73,4368.82L2009.42,4366.55L2005.96,4364.19L2002.49,4361.84L1999.18,4359.59L1995.85,4357.34L1992.27,4354.93L1992.19,4354.87L1988.91,4352.66L1985.61,4350.45L1985.53,4350.4L1982.1,4348.1L1978.76,4345.87L1975.27,4343.55L1971.78,4341.24L1968.29,4338.93L1964.95,4336.72L1961.6,4334.51L1958.1,4332.22L1954.74,4330.02L1951.26,4327.75L1951.19,4327.71L1947.73,4325.45L1944.36,4323.26L1940.85,4320.99L1937.34,4318.72L1933.97,4316.55L1930.58,4314.38L1927.06,4312.12L1923.54,4309.88L1920.15,4307.72L1916.65,4305.5L1916.58,4305.46L1913.09,4303.24L1909.69,4301.1L1906.3,4298.96L1902.78,4296.76L1902.71,4296.71L1899.21,4294.52L1895.8,4292.39L1892.25,4290.18L1888.7,4287.98L1885.29,4285.87L1881.87,4283.76L1878.31,4281.57L1874.74,4279.38L1871.18,4277.2L1867.76,4275.11L1864.21,4272.96L1864.15,4272.92L1860.62,4270.77L1857.18,4268.69L1853.75,4266.62L1850.19,4264.48L1850.12,4264.44L1846.58,4262.32L1843.13,4260.26L1839.55,4258.12L1835.96,4255.98L1832.51,4253.94L1829.05,4251.89L1825.34,4249.71L1825.27,4249.67L1821.72,4247.58L1818.4,4245.63L1814.81,4243.54L1814.75,4243.5L1811.18,4241.42L1807.71,4239.4L1804.09,4237.31L1800.48,4235.23L1796.87,4233.14L1793.39,4231.14L1789.9,4229.15L1786.28,4227.08L1782.65,4225.02L1779.03,4222.96L1775.54,4220.98L1772.03,4219.01L1768.4,4216.97L1764.76,4214.93L1761.12,4212.9L1757.49,4210.87L1753.98,4208.92L1750.47,4206.97L1746.82,4204.96L1743.17,4202.95L1739.52,4200.94L1736,4199.02L1732.47,4197.09L1728.81,4195.1L1725.15,4193.12L1721.49,4191.14L1717.83,4189.16L1714.3,4187.26L1710.75,4185.37L1707.08,4183.41L1703.4,4181.45L1699.73,4179.5L1696.19,4177.62L1692.52,4175.69L1692.48,4175.67L1688.83,4173.75L1685.28,4171.89L1681.59,4169.96L1678.03,4168.1L1674.35,4166.2L1674.31,4166.18L1670.65,4164.28L1667.08,4162.44L1663.38,4160.54L1659.68,4158.64L1655.99,4156.75L1652.41,4154.93L1648.72,4153.06L1648.68,4153.04L1645.01,4151.17L1641.42,4149.36L1637.71,4147.5L1634.13,4145.7L1630.43,4143.86L1630.39,4143.84L1626.7,4141.99L1623.1,4140.21L1619.38,4138.37L1615.66,4136.53L1611.94,4134.7L1608.34,4132.94L1604.62,4131.12L1604.59,4131.11L1600.89,4129.3L1597.28,4127.55L1593.54,4125.74L1589.81,4123.94L1586.2,4122.21L1582.47,4120.42L1582.44,4120.41L1578.72,4118.63L1575.1,4116.91L1571.36,4115.14L1567.61,4113.36L1563.87,4111.6L1560.24,4109.9L1556.5,4108.15L1556.47,4108.14L1552.74,4106.4L1549.11,4104.71L1545.35,4102.97L1541.59,4101.23L1537.96,4099.56L1534.2,4097.84L1534.17,4097.83L1530.43,4096.12L1526.67,4094.41L1526.65,4094.4L1522.91,4092.7L1519.38,4091.1L1515.6,4089.41L1515.58,4089.4L1511.71,4087.66L1508.06,4086.02L1504.29,4084.35L1504.27,4084.34L1500.51,4082.66L1496.85,4081.04L1493.07,4079.38L1489.29,4077.72L1485.63,4076.11L1481.84,4074.46L1481.83,4074.46L1478.06,4072.82L1474.38,4071.22L1470.59,4069.59L1466.8,4067.96L1463.01,4066.34L1459.22,4064.72L1455.54,4063.15L1451.75,4061.54L1451.73,4061.54L1447.95,4059.94L1444.26,4058.39L1440.46,4056.79L1436.65,4055.21L1432.86,4053.62L1429.16,4052.09L1425.36,4050.52L1425.35,4050.52L1421.55,4048.95L1417.85,4047.44L1414.03,4045.89L1410.22,4044.33L1406.4,4042.79L1402.6,4041.25L1398.89,4039.76L1395.07,4038.23L1395.06,4038.23L1391.25,4036.7L1387.54,4035.23L1383.71,4033.72L1379.89,4032.21L1376.07,4030.71L1372.24,4029.21L1368.53,4027.76L1364.69,4026.28L1364.69,4026.27L1360.87,4024.79L1357.14,4023.36L1353.2,4021.85L1353.2,4021.85L1349.38,4020.39L1345.75,4019.01L1341.9,4017.55L1341.9,4017.55L1337.97,4016.07L1334.24,4014.66L1330.39,4013.22L1326.56,4011.79L1322.82,4010.4L1318.97,4008.98L1315.12,4007.57L1311.28,4006.16L1307.43,4004.75L1303.69,4003.39L1299.84,4002L1295.99,4000.61L1292.23,3999.26L1288.38,3997.89L1284.52,3996.51L1280.67,3995.15L1276.81,3993.79L1272.96,3992.43L1269.1,3991.08L1265.35,3989.77L1261.58,3988.47L1257.61,3987.1L1253.76,3985.77L1249.99,3984.48L1246.12,3983.17L1242.26,3981.86L1238.39,3980.55L1234.62,3979.28L1230.75,3977.99L1226.88,3976.7L1223,3975.42L1219.14,3974.14L1215.36,3972.9L1211.48,3971.63L1207.6,3970.37L1203.73,3969.11L1199.86,3967.87L1195.98,3966.62L1192.2,3965.41L1188.31,3964.18L1184.43,3962.95L1180.64,3961.76L1176.66,3960.51L1172.79,3959.3L1168.99,3958.13L1165.11,3956.93L1161.31,3955.76L1157.41,3954.57L1153.44,3953.37L1149.64,3952.22L1145.75,3951.04L1141.86,3949.88L1137.97,3948.72L1134.09,3947.57L1130.28,3946.44L1126.38,3945.3L1122.49,3944.16L1118.59,3943.03L1114.7,3941.91L1110.89,3940.81L1106.98,3939.7L1103.01,3938.57L1099.19,3937.49L1095.38,3936.41L1091.38,3935.3L1087.49,3934.22L1083.67,3933.16L1079.77,3932.09L1075.86,3931.02L1071.96,3929.95L1068.06,3928.9L1064.15,3927.85L1060.33,3926.82L1056.41,3925.78L1052.51,3924.75L1048.6,3923.72L1044.7,3922.7L1040.79,3921.69L1036.88,3920.68L1033.05,3919.69L1029.14,3918.69L1025.22,3917.7L1021.31,3916.71L1017.4,3915.73L1013.49,3914.76L1009.58,3913.79L1005.74,3912.84L1001.82,3911.88L997.908,3910.93L993.986,3909.99L990.079,3909.05L986.155,3908.11L982.248,3907.18L978.399,3906.28L974.475,3905.36L970.557,3904.45L966.636,3903.54L962.716,3902.64L958.798,3901.75L954.878,3900.86L950.961,3899.98L947.044,3899.11L943.192,3898.25L939.261,3897.39L935.277,3896.52L931.427,3895.68L927.564,3894.85L923.571,3893.99L919.655,3893.16L915.789,3892.35L911.798,3891.51L907.885,3890.69L904.021,3889.9L900.094,3889.09L896.167,3888.29L892.24,3887.5L888.314,3886.72L884.39,3885.93L880.467,3885.16L876.6,3884.4L872.663,3883.64L868.68,3882.87L864.816,3882.13L860.881,3881.39L856.958,3880.65L853.019,3879.92L849.099,3879.19L845.165,3878.47L841.243,3877.76L837.368,3877.06L833.379,3876.35L829.457,3875.65L825.578,3874.97L821.645,3874.29L817.714,3873.61L813.784,3872.94L809.851,3872.27L805.919,3871.61L801.989,3870.96L798.062,3870.31L794.13,3869.67L790.201,3869.03L786.274,3868.4L782.394,3867.79L778.451,3867.17L774.473,3866.55L770.595,3865.95L766.655,3865.36L762.682,3864.76L758.803,3864.18L754.863,3863.6L750.94,3863.02L747.001,3862.45L743.075,3861.89L739.136,3861.34L735.214,3860.78L731.321,3860.25L727.339,3859.7L723.419,3859.17L719.525,3858.65L715.548,3858.13L711.626,3857.62L707.731,3857.12L703.798,3856.62L699.865,3856.12L695.929,3855.63L691.958,3855.15L688.04,3854.67L684.146,3854.2L680.213,3853.74L676.281,3853.28L672.352,3852.84L668.422,3852.39L664.49,3851.95L660.559,3851.52L656.632,3851.09L652.701,3850.68L648.772,3850.26L644.878,3849.86L640.935,3849.46L636.975,3849.06L633.047,3848.67L629.121,3848.29L625.196,3847.91L621.271,3847.54L617.372,3847.18L613.432,3846.83L609.481,3846.47L605.556,3846.13L601.659,3845.79L597.719,3845.46L593.771,3845.14L589.849,3844.82L585.95,3844.51L582.014,3844.2L578.07,3843.9L574.148,3843.6L570.248,3843.32L566.314,3843.04L562.373,3842.76L558.45,3842.49L554.552,3842.23L550.622,3841.98L546.68,3841.73L542.782,3841.49L538.849,3841.25L534.912,3841.02L530.997,3840.79L527.096,3840.58L523.167,3840.37L519.232,3840.16L515.33,3839.97L511.403,3839.77L507.473,3839.59L503.558,3839.41L499.657,3839.24L495.728,3839.07L491.802,3838.91L487.888,3838.76L483.985,3838.61L480.058,3838.47L476.135,3838.34L472.223,3838.21L468.312,3838.09L464.403,3837.97L460.499,3837.87L456.573,3837.77L452.653,3837.67L448.742,3837.58L444.835,3837.5L440.927,3837.43L437.015,3837.36L433.106,3837.29L429.2,3837.24L425.291,3837.19L421.383,3837.15L417.423,3837.11L397.174,3836.94L376.131,3836.78L354.405,3836.62L332.042,3836.47L309.07,3836.31L285.565,3836.16L261.571,3836.02L237.118,3835.87L212.279,3835.72L187.101,3835.58L135.872,3835.29L83.841,3835.01L83.838,3835.01L31.401,3834.71L31.387,3834.71L-21.071,3834.41L-21.087,3834.41L-47.208,3834.26L-47.222,3834.26L-73.196,3834.1L-73.212,3834.1L-99,3833.94L-99.02,3833.94L-124.576,3833.78L-124.599,3833.78L-149.867,3833.61L-149.893,3833.61L-174.829,3833.43L-174.859,3833.43L-199.419,3833.25L-199.452,3833.25L-223.578,3833.07L-223.617,3833.07L-247.26,3832.88L-247.291,3832.88L-258.925,3832.78L-258.948,3832.78L-270.447,3832.68L-270.472,3832.68L-281.812,3832.58L-281.837,3832.58L-293.047,3832.48L-293.075,3832.48L-304.126,3832.37L-304.155,3832.37L-315.034,3832.26L-315.065,3832.26L-325.784,3832.16L-325.814,3832.16L-336.375,3832.05L-336.413,3832.05L-346.772,3831.93L-346.809,3831.93L-543.842,3829.72L-539.641,3455.98L-342.662,3458.2Z" style="fill:rgb(20,169,12);fill-opacity:0.698039;"/>
            </g>
        </g>
    </g>
</svg>
