<?xml version="1.0" standalone="no"?><!DOCTYPE svg PUBLIC "-//W3C//DTD SVG 1.1//EN" "http://www.w3.org/Graphics/SVG/1.1/DTD/svg11.dtd"><svg width="100%" height="100%" viewBox="0 0 15325 9605" version="1.1" xmlns="http://www.w3.org/2000/svg" xmlns:xlink="http://www.w3.org/1999/xlink" xml:space="preserve" style="fill-rule:evenodd;clip-rule:evenodd;stroke-linejoin:round;stroke-miterlimit:1.41421;"><g><rect x="12765.8" y="2131.29" width="57.87" height="5057.87" style="fill:#000;"/><rect x="11534.5" y="2131.29" width="57.87" height="5057.87" style="fill:#000;"/><path d="M12823.7,4689.16l-11139.8,0l0,-57.871l11139.8,0l0,57.871Z" style="fill:#000;"/><rect x="10303.2" y="2131.29" width="57.87" height="5057.87" style="fill:#000;"/><rect x="9071.85" y="2131.29" width="57.87" height="5057.87" style="fill:#000;"/><rect x="7840.53" y="2131.29" width="57.87" height="5057.87" style="fill:#000;"/><rect x="6609.21" y="2131.29" width="57.87" height="5057.87" style="fill:#000;"/><rect x="5377.88" y="2131.29" width="57.87" height="5057.87" style="fill:#000;"/><rect x="4146.56" y="2131.29" width="57.87" height="5057.87" style="fill:#000;"/><rect x="2915.23" y="2131.29" width="57.87" height="5057.87" style="fill:#000;"/><rect x="1683.91" y="2131.29" width="57.87" height="5057.87" style="fill:#000;"/></g><path d="M7383.38,3058.18c0,-37.969 -30.825,-68.794 -68.793,-68.794l-137.588,0c-37.968,0 -68.793,30.825 -68.793,68.794l0,137.587c0,37.968 30.825,68.794 68.793,68.794l137.588,0c37.968,0 68.793,-30.826 68.793,-68.794l0,-137.587Z" style="fill:#1710fc;"/><path d="M3767.25,2099.85c0,-37.968 -30.825,-68.793 -68.793,-68.793l-137.588,0c-37.968,0 -68.793,30.825 -68.793,68.793l0,137.588c0,37.968 30.825,68.793 68.793,68.793l137.588,0c37.968,0 68.793,-30.825 68.793,-68.793l0,-137.588Z" style="fill:#1710fc;"/><path d="M8009.06,4599.85c0,-37.968 -30.825,-68.793 -68.794,-68.793l-137.587,0c-37.968,0 -68.794,30.825 -68.794,68.793l0,137.588c0,37.968 30.826,68.793 68.794,68.793l137.587,0c37.969,0 68.794,-30.825 68.794,-68.793l0,-137.588Z" style="fill:#1710fc;"/><path d="M5546.41,2119.35c0,-37.968 -30.825,-68.793 -68.794,-68.793l-137.587,0c-37.968,0 -68.793,30.825 -68.793,68.793l0,137.588c0,37.968 30.825,68.793 68.793,68.793l137.587,0c37.969,0 68.794,-30.825 68.794,-68.793l0,-137.588Z" style="fill:#1710fc;"/><path d="M5580.51,1491.75l0.072,0l12.631,0.011l0.076,0l12.608,0.02l0.074,0l12.601,0.03l0.079,0l12.578,0.039l0.078,0l12.563,0.048l0.08,0l12.548,0.058l0.082,0l12.533,0.068l0.083,0l12.519,0.078l0.085,0l12.504,0.088l0.085,0l12.488,0.098l0.088,0.001l12.465,0.107l0.089,0.001l12.459,0.119l0.091,0.001l12.436,0.129l0.091,0l12.421,0.14l0.094,0.001l12.407,0.151l0.093,0.001l12.392,0.162l0.096,0.001l12.369,0.173l0.097,0.001l12.362,0.184l0.1,0.002l12.339,0.195l0.101,0.002l12.324,0.207l0.101,0.002l12.31,0.219l0.103,0.002l12.296,0.231l0.106,0.002l12.259,0.243l0.078,0.001l6.146,0.127l0.056,0.001l6.124,0.129l0.053,0.001l6.125,0.133l0.055,0.001l6.117,0.135l0.052,0.001l6.118,0.139l0.058,0.001l6.111,0.142l0.056,0.001l6.102,0.145l0.055,0.001l6.101,0.148l0.055,0.001l6.103,0.152l0.058,0.001l6.096,0.154l0.056,0.002l6.09,0.157l0.063,0.002l6.078,0.161l0.049,0.001l6.087,0.164l0.065,0.002l6.075,0.168l0.057,0.001l6.071,0.171l0.057,0.002l6.075,0.174l0.066,0.002l6.056,0.177l0.051,0.002l6.065,0.18l0.068,0.002l6.054,0.185l0.059,0.001l6.047,0.188l0.055,0.002l6.051,0.191l0.066,0.002l6.046,0.194l0.062,0.002l6.034,0.198l0.06,0.002l6.037,0.201l0.066,0.003l6.028,0.205l0.057,0.002l6.028,0.208l0.067,0.002l6.024,0.212l0.067,0.003l6.013,0.215l0.06,0.002l6.009,0.219l0.06,0.002l6.016,0.223l0.075,0.003l6.002,0.226l0.062,0.003l5.995,0.229l0.063,0.003l5.997,0.233l0.068,0.003l5.994,0.237l0.07,0.003l5.983,0.241l0.063,0.002l5.983,0.245l0.07,0.003l5.976,0.248l0.065,0.003l5.976,0.252l0.071,0.003l5.971,0.255l0.072,0.003l5.961,0.26l0.067,0.003l5.96,0.263l0.069,0.003l5.954,0.267l0.069,0.003l5.955,0.271l0.071,0.004l5.949,0.275l0.074,0.003l5.938,0.279l0.068,0.003l5.938,0.282l0.075,0.004l5.931,0.286l0.07,0.004l5.932,0.29l0.074,0.004l5.927,0.294l0.074,0.004l5.916,0.298l0.07,0.004l5.917,0.302l0.077,0.004l5.909,0.306l0.07,0.004l5.913,0.31l0.085,0.005l5.893,0.314l0.063,0.003l5.898,0.318l0.08,0.005l5.898,0.322l0.078,0.004l5.891,0.327l0.08,0.005l5.879,0.33l0.073,0.004l5.878,0.335l0.079,0.005l5.871,0.338l0.075,0.005l5.873,0.343l0.081,0.004l5.868,0.348l0.081,0.005l5.857,0.351l0.075,0.005l5.857,0.355l0.082,0.005l5.848,0.36l0.075,0.005l5.85,0.364l0.085,0.005l5.847,0.369l0.087,0.005l5.834,0.373l0.073,0.005l5.834,0.376l0.087,0.006l5.827,0.381l0.076,0.005l5.831,0.386l0.095,0.007l5.812,0.39l0.07,0.004l5.821,0.395l0.096,0.006l5.809,0.399l0.08,0.006l5.806,0.403l0.088,0.007l5.795,0.407l0.076,0.006l5.798,0.412l0.093,0.006l5.796,0.417l0.089,0.007l5.781,0.421l0.078,0.006l5.783,0.425l0.094,0.007l5.776,0.43l0.081,0.007l5.773,0.434l0.09,0.007l5.773,0.44l0.094,0.007l5.762,0.444l0.083,0.006l5.76,0.449l0.093,0.007l5.756,0.454l0.093,0.007l5.746,0.458l0.085,0.007l5.746,0.462l0.093,0.008l5.744,0.467l0.098,0.008l5.73,0.472l0.084,0.007l5.73,0.477l0.096,0.008l5.729,0.482l0.099,0.008l5.715,0.486l0.087,0.008l5.715,0.491l0.096,0.008l5.707,0.496l0.086,0.007l5.715,0.501l0.113,0.01l5.693,0.506l0.075,0.006l5.702,0.511l0.113,0.01l5.691,0.516l0.087,0.007l5.686,0.52l0.106,0.01l5.677,0.525l0.084,0.008l5.678,0.53l0.105,0.01l5.679,0.535l0.104,0.01l5.662,0.54l0.09,0.008l5.664,0.545l0.106,0.01l5.663,0.551l0.104,0.01l5.654,0.556l0.105,0.01l5.641,0.56l0.094,0.009l5.634,0.565l0.089,0.009l5.648,0.57l0.123,0.013l5.633,0.576l0.092,0.009l5.627,0.581l0.11,0.011l5.619,0.586l0.092,0.009l5.619,0.591l0.11,0.011l5.62,0.597l0.111,0.012l5.603,0.601l0.092,0.01l5.604,0.606l0.114,0.013l5.604,0.612l0.109,0.012l5.589,0.617l0.097,0.011l5.589,0.622l0.112,0.012l5.59,0.628l0.115,0.013l5.583,0.634l0.115,0.013l5.566,0.638l0.095,0.011l5.558,0.643l0.1,0.011l5.576,0.65l0.131,0.015l5.559,0.655l0.1,0.012l5.553,0.66l0.116,0.014l5.544,0.665l0.1,0.012l5.555,0.672l0.138,0.016l5.528,0.676l0.079,0.01l5.537,0.681l0.138,0.017l5.532,0.689l0.103,0.013l5.522,0.692l0.117,0.015l5.524,0.699l0.122,0.016l5.508,0.704l0.103,0.013l5.508,0.709l0.12,0.016l5.509,0.716l0.124,0.016l5.492,0.72l0.103,0.014l5.493,0.726l0.123,0.017l5.495,0.733l0.124,0.016l5.487,0.739l0.125,0.017l5.469,0.743l0.106,0.015l5.472,0.749l0.127,0.017l5.462,0.755l0.103,0.014l5.464,0.761l0.13,0.018l5.466,0.768l0.125,0.018l5.459,0.773l0.13,0.019l5.452,0.779l0.128,0.019l5.432,0.784l0.106,0.015l5.422,0.788l0.109,0.016l5.445,0.797l0.155,0.023l5.428,0.803l0.106,0.016l5.419,0.807l0.134,0.02l5.423,0.816l0.133,0.02l5.402,0.819l0.109,0.016l5.403,0.826l0.132,0.02l5.408,0.833l0.136,0.021l5.389,0.837l0.111,0.018l5.389,0.843l0.136,0.022l5.394,0.851l0.136,0.022l5.386,0.857l0.137,0.022l5.365,0.862l0.112,0.018l5.365,0.868l0.137,0.022l5.372,0.876l0.14,0.023l5.351,0.88l0.115,0.019l5.352,0.886l0.14,0.024l5.356,0.894l0.138,0.023l5.35,0.901l0.143,0.024l5.328,0.905l0.112,0.02l5.331,0.911l0.149,0.025l5.334,0.92l0.134,0.024l5.326,0.925l0.15,0.026l5.309,0.931l0.117,0.021l5.307,0.937l0.145,0.025l5.297,0.943l0.112,0.02l5.314,0.951l0.178,0.033l5.3,0.958l0.117,0.021l5.284,0.962l0.146,0.027l5.292,0.971l0.151,0.028l5.27,0.976l0.118,0.022l5.267,0.981l0.147,0.027l5.277,0.991l0.152,0.029l5.256,0.994l0.123,0.024l5.269,1.004l0.178,0.034l5.253,1.01l0.123,0.024l5.223,1.011l0.118,0.023l5.256,1.024l0.189,0.037l5.243,1.031l0.123,0.024l5.222,1.034l0.15,0.03l5.232,1.043l0.16,0.032l5.211,1.048l0.123,0.025l5.225,1.057l0.187,0.038l5.209,1.064l0.123,0.026l5.18,1.064l0.128,0.026l5.212,1.078l0.189,0.04l5.195,1.084l0.129,0.027l5.179,1.088l0.157,0.033l5.188,1.098l0.162,0.035l5.164,1.101l0.123,0.027l5.164,1.108l0.163,0.035l5.178,1.12l0.167,0.036l5.168,1.127l0.158,0.034l5.157,1.133l0.164,0.036l5.134,1.136l0.129,0.029l5.134,1.143l0.164,0.036l5.147,1.155l0.169,0.038l5.121,1.158l0.129,0.029l5.118,1.164l0.165,0.037l5.147,1.179l0.202,0.047l5.097,1.178l0.097,0.023l5.108,1.186l0.207,0.048l5.108,1.197l0.129,0.03l5.089,1.2l0.171,0.04l5.1,1.212l0.167,0.039l5.095,1.219l0.177,0.042l5.068,1.222l0.128,0.031l5.066,1.228l0.172,0.042l5.082,1.241l0.178,0.043l5.071,1.248l0.168,0.042l5.064,1.255l0.178,0.044l5.039,1.258l0.134,0.034l5.036,1.264l0.174,0.044l5.048,1.277l0.174,0.044l5.023,1.28l0.139,0.035l5.046,1.293l0.22,0.057l5.027,1.299l0.134,0.035l5.007,1.302l0.18,0.047l5.02,1.314l0.175,0.046l4.991,1.317l0.139,0.036l4.996,1.325l0.186,0.05l5.007,1.337l0.176,0.048l4.996,1.344l0.182,0.049l4.991,1.353l0.182,0.049l4.961,1.354l0.139,0.038l4.964,1.362l0.187,0.052l4.978,1.376l0.183,0.051l4.968,1.383l0.183,0.051l4.96,1.39l0.183,0.052l4.932,1.392l0.144,0.041l4.935,1.401l0.188,0.053l4.947,1.415l0.184,0.052l4.939,1.422l0.189,0.055l4.911,1.424l0.143,0.041l4.934,1.439l0.237,0.069l4.915,1.445l0.138,0.041l4.895,1.447l0.195,0.058l4.911,1.461l0.185,0.056l4.879,1.462l0.148,0.045l4.882,1.47l0.191,0.058l4.919,1.493l0.239,0.073l4.857,1.486l0.1,0.031l4.863,1.493l0.235,0.073l4.899,1.517l0.202,0.063l4.843,1.511l0.143,0.045l4.839,1.517l0.193,0.06l4.858,1.534l0.198,0.062l4.852,1.543l0.198,0.063l4.845,1.551l0.199,0.063l4.811,1.551l0.148,0.048l4.809,1.558l0.194,0.063l4.829,1.574l0.204,0.067l4.822,1.583l0.194,0.064l4.814,1.591l0.204,0.068l4.782,1.591l0.148,0.05l4.782,1.599l0.204,0.069l4.798,1.616l0.196,0.066l4.792,1.624l0.21,0.072l4.785,1.633l0.196,0.067l4.777,1.641l0.211,0.073l4.744,1.641l0.147,0.051l4.739,1.648l0.201,0.07l4.764,1.667l0.211,0.074l4.756,1.676l0.202,0.071l4.745,1.683l0.207,0.074l4.714,1.683l0.156,0.056l4.741,1.701l0.258,0.093l4.722,1.709l0.151,0.055l4.698,1.708l0.213,0.077l4.719,1.728l0.208,0.076l4.679,1.724l0.151,0.056l4.711,1.744l0.271,0.1l4.695,1.753l0.15,0.057l4.666,1.75l0.214,0.08l4.687,1.77l0.209,0.079l4.679,1.779l0.214,0.081l4.674,1.788l0.214,0.083l4.636,1.785l0.154,0.06l4.636,1.794l0.215,0.083l4.685,1.825l0.271,0.105l4.642,1.823l0.159,0.063l4.581,1.808l0.149,0.059l4.642,1.84l0.281,0.112l4.66,1.862l0.215,0.086l4.59,1.847l0.158,0.064l4.59,1.855l0.215,0.087l4.611,1.876l0.215,0.088l4.605,1.885l0.221,0.091l4.596,1.894l0.217,0.09l4.588,1.903l0.222,0.092l4.551,1.9l0.157,0.066l4.584,1.922l0.285,0.12l4.565,1.93l0.152,0.065l4.535,1.926l0.226,0.097l4.559,1.949l0.217,0.093l4.519,1.944l0.161,0.069l4.554,1.968l0.287,0.125l4.535,1.976l0.156,0.069l4.536,1.985l0.288,0.127l4.522,1.995l0.16,0.071l4.488,1.99l0.223,0.099l4.511,2.013l0.222,0.099l4.506,2.023l0.227,0.102l4.466,2.018l0.159,0.072l4.5,2.043l0.296,0.135l4.481,2.05l0.154,0.071l4.447,2.044l0.228,0.105l4.475,2.07l0.228,0.106l4.467,2.079l0.228,0.106l4.46,2.089l0.227,0.107l4.454,2.099l0.233,0.11l4.443,2.108l0.224,0.106l4.4,2.1l0.161,0.078l4.403,2.11l0.227,0.11l4.463,2.152l0.3,0.146l4.413,2.146l0.161,0.078l4.38,2.139l0.232,0.114l4.369,2.148l0.156,0.077l4.403,2.173l0.301,0.149l4.427,2.203l0.237,0.119l4.347,2.176l0.155,0.078l4.346,2.186l0.237,0.119l4.412,2.233l0.302,0.154l4.357,2.222l0.158,0.081l4.322,2.214l0.232,0.12l4.353,2.244l0.237,0.122l4.307,2.235l0.158,0.082l4.342,2.262l0.308,0.161l4.364,2.291l0.232,0.123l4.282,2.262l0.162,0.086l4.284,2.273l0.237,0.126l4.35,2.323l0.309,0.165l4.293,2.311l0.155,0.084l4.26,2.302l0.241,0.131l4.289,2.333l0.232,0.126l4.241,2.32l0.159,0.087l4.281,2.353l0.314,0.173l4.303,2.384l0.237,0.131l4.217,2.35l0.158,0.089l4.259,2.383l0.319,0.179l4.24,2.392l0.153,0.087l4.2,2.379l0.24,0.136l4.234,2.413l0.236,0.135l4.225,2.423l0.24,0.138l4.218,2.433l0.235,0.137l4.207,2.441l0.236,0.138l4.162,2.43l0.163,0.096l4.203,2.464l0.316,0.186l4.222,2.496l0.235,0.139l4.138,2.461l0.162,0.096l4.137,2.47l0.234,0.141l4.211,2.529l0.325,0.196l4.152,2.515l0.153,0.092l4.111,2.5l0.243,0.148l4.146,2.537l0.239,0.146l4.136,2.545l0.238,0.147l4.086,2.53l0.154,0.096l4.13,2.566l0.325,0.203l4.155,2.604l0.237,0.149l4.063,2.561l0.157,0.099l4.107,2.6l0.325,0.206l4.087,2.608l0.153,0.098l4.088,2.618l0.324,0.209l4.071,2.629l0.152,0.098l4.03,2.613l0.244,0.158l4.067,2.652l0.239,0.157l4.054,2.66l0.235,0.155l4.048,2.671l0.243,0.161l4.041,2.683l0.239,0.159l4.031,2.693l0.238,0.159l4.022,2.703l0.238,0.161l3.973,2.685l0.155,0.105l4.016,2.725l0.324,0.221l3.999,2.736l0.154,0.105l3.999,2.747l0.323,0.223l3.982,2.756l0.153,0.106l3.982,2.768l0.323,0.225l3.967,2.779l0.156,0.11l3.922,2.759l0.236,0.166l3.938,2.786l0.204,0.145l1.992,1.416l0.07,0.05l2.021,1.439l0.261,0.187l1.87,1.341l1.872,1.338l0.245,0.176l2.012,1.447l0.084,0.061l2.013,1.451l0.245,0.178l1.862,1.35l1.873,1.355l0.253,0.184l2.004,1.459l0.076,0.056l1.915,1.397l0.076,0.055l2,1.462l0.246,0.18l1.991,1.465l0.076,0.056l1.907,1.404l0.075,0.056l1.906,1.407l0.076,0.056l1.995,1.476l0.254,0.188l1.846,1.374l1.85,1.374l0.246,0.183l1.983,1.481l0.075,0.055l1.99,1.49l0.261,0.196l1.833,1.381l1.838,1.38l0.253,0.191l2.068,1.563l0.254,0.192l1.827,1.391l1.836,1.392l0.253,0.193l1.828,1.395l1.925,1.467l0.433,0.331l1.908,1.469l1.733,1.33l0.066,0.051l1.969,1.514l0.261,0.201l1.965,1.521l0.072,0.057l1.962,1.521l0.253,0.197l1.809,1.411l1.813,1.411l0.246,0.192l1.953,1.529l0.079,0.063l1.866,1.464l0.072,0.056l1.953,1.536l0.253,0.199l1.799,1.423l1.807,1.426l0.253,0.2l1.944,1.544l0.071,0.056l1.945,1.547l0.253,0.202l1.936,1.549l0.071,0.057l1.706,1.368l1.892,1.514l0.427,0.343l1.875,1.516l1.796,1.448l0.252,0.204l1.924,1.561l0.063,0.051l1.836,1.493l0.077,0.062l1.843,1.501l0.077,0.063l1.927,1.572l0.245,0.201l1.768,1.451l1.874,1.534l0.441,0.364l1.857,1.537l1.678,1.386l0.069,0.057l1.919,1.586l0.251,0.209l1.91,1.589l0.069,0.057l1.913,1.596l0.259,0.216l1.756,1.474l1.76,1.473l0.252,0.211l1.901,1.601l0.068,0.057l1.812,1.529l0.075,0.063l1.905,1.61l0.251,0.213l1.743,1.483l1.754,1.488l0.258,0.219l1.984,1.694l0.244,0.209l1.738,1.493l1.752,1.5l0.257,0.221l1.883,1.625l0.06,0.052l1.792,1.547l0.073,0.063l1.799,1.556l0.073,0.063l1.883,1.633l0.244,0.212l1.875,1.636l0.072,0.063l1.787,1.561l0.065,0.058l1.787,1.563l0.072,0.064l1.878,1.647l0.25,0.22l1.869,1.65l0.072,0.064l1.777,1.571l0.065,0.058l1.867,1.653l0.249,0.222l1.713,1.527l1.72,1.529l0.249,0.222l1.857,1.662l0.064,0.058l1.861,1.667l0.256,0.23l1.706,1.539l1.708,1.536l0.242,0.219l1.851,1.676l0.077,0.069l1.762,1.599l0.064,0.058l1.849,1.679l0.248,0.226l1.843,1.686l0.069,0.063l1.751,1.604l0.063,0.058l1.751,1.606l0.069,0.063l1.843,1.695l0.247,0.228l1.834,1.697l0.069,0.063l1.742,1.615l0.062,0.058l1.742,1.617l0.068,0.063l1.834,1.706l0.247,0.23l1.675,1.568l1.686,1.574l0.252,0.236l1.918,1.802l0.246,0.232l1.666,1.575l1.674,1.578l0.246,0.232l1.816,1.723l0.067,0.064l1.727,1.642l0.067,0.063l1.816,1.73l0.245,0.234l1.808,1.733l0.066,0.063l1.715,1.647l0.061,0.058l1.715,1.649l0.066,0.064l1.718,1.655l0.065,0.063l1.808,1.744l0.244,0.237l1.798,1.747l0.066,0.063l1.709,1.663l0.065,0.064l1.799,1.753l0.243,0.238l1.793,1.759l0.071,0.07l1.697,1.668l0.053,0.052l1.697,1.671l0.07,0.069l1.7,1.677l0.059,0.058l1.789,1.767l0.249,0.247l1.783,1.773l0.064,0.064l1.688,1.682l0.058,0.058l1.784,1.779l0.253,0.254l1.775,1.783l0.057,0.058l1.677,1.687l0.057,0.058l1.683,1.695l0.068,0.069l1.682,1.699l0.057,0.058l1.774,1.794l0.253,0.256l1.765,1.798l0.056,0.057l1.668,1.701l0.057,0.058l1.765,1.803l0.251,0.258l1.76,1.809l0.061,0.064l1.662,1.712l0.056,0.057l1.662,1.715l0.061,0.063l1.664,1.72l0.061,0.063l1.756,1.819l0.245,0.254l1.747,1.821l0.061,0.063l1.652,1.726l0.055,0.057l1.748,1.828l0.249,0.261l1.582,1.667l1.591,1.668l0.248,0.262l1.83,1.933l0.238,0.252l1.573,1.674l1.587,1.682l0.248,0.263l1.729,1.846l0.053,0.057l1.635,1.748l0.059,0.063l1.729,1.851l0.242,0.259l1.567,1.69l1.574,1.691l0.241,0.26l1.812,1.959l0.24,0.261l1.558,1.697l1.566,1.699l0.24,0.261l1.711,1.87l0.057,0.062l1.62,1.773l0.057,0.063l1.711,1.875l0.239,0.263l1.704,1.881l0.062,0.069l1.611,1.781l0.052,0.057l1.608,1.78l0.056,0.063l1.611,1.786l0.056,0.063l1.704,1.893l0.242,0.27l1.693,1.894l0.051,0.056l1.692,1.897l0.242,0.272l1.533,1.73l1.539,1.729l0.236,0.267l1.683,1.905l0.055,0.062l1.593,1.806l0.055,0.062l1.683,1.912l0.236,0.268l1.674,1.915l0.054,0.062l1.587,1.817l0.059,0.068l1.586,1.82l0.054,0.062l1.674,1.923l0.234,0.27l1.666,1.927l0.053,0.062l1.575,1.825l0.054,0.062l1.575,1.828l0.053,0.062l1.667,1.939l0.237,0.276l1.659,1.942l0.052,0.062l1.567,1.837l0.052,0.061l1.566,1.84l0.053,0.061l1.658,1.951l0.236,0.278l1.649,1.954l0.052,0.062l1.557,1.848l0.052,0.061l1.559,1.854l0.056,0.067l1.647,1.96l0.225,0.269l1.637,1.963l0.056,0.066l1.551,1.862l0.051,0.062l1.55,1.864l0.056,0.067l1.639,1.975l0.228,0.276l1.629,1.975l0.05,0.061l1.542,1.873l0.055,0.067l1.63,1.984l0.227,0.278l1.467,1.798l1.478,1.804l0.231,0.283l1.619,1.99l0.044,0.055l1.622,1.996l0.234,0.29l1.615,2.003l0.048,0.06l1.522,1.891l0.049,0.06l1.522,1.893l0.048,0.061l1.524,1.898l0.053,0.066l1.613,2.014l0.228,0.286l1.601,2.012l0.043,0.055l1.603,2.017l0.232,0.293l1.44,1.827l1.447,1.827l0.226,0.287l1.596,2.029l0.051,0.065l1.506,1.919l0.047,0.06l1.593,2.033l0.225,0.288l1.585,2.037l0.046,0.059l1.495,1.925l0.047,0.06l1.497,1.929l0.05,0.065l1.586,2.048l0.223,0.29l1.575,2.048l0.046,0.06l1.486,1.936l0.046,0.059l1.49,1.944l0.054,0.07l1.574,2.058l0.214,0.28l1.565,2.06l0.053,0.07l1.479,1.95l0.041,0.054l1.565,2.066l0.225,0.298l1.409,1.874l1.413,1.872l0.216,0.286l1.558,2.079l0.052,0.069l1.556,2.079l0.211,0.283l1.547,2.082l0.051,0.069l1.464,1.973l0.043,0.059l1.462,1.973l0.047,0.063l1.546,2.092l0.213,0.289l1.392,1.895l1.399,1.898l0.213,0.289l1.624,2.218l0.219,0.302l1.383,1.903l1.386,1.9l0.212,0.291l1.529,2.111l0.05,0.069l1.53,2.115l0.21,0.292l1.374,1.914l1.381,1.916l0.21,0.291l1.52,2.125l0.049,0.068l1.52,2.128l0.209,0.292l1.361,1.919l1.373,1.927l0.215,0.303l1.594,2.255l0.207,0.294l1.357,1.932l1.366,1.937l0.21,0.299l1.501,2.146l0.044,0.062l1.417,2.028l0.04,0.057l1.499,2.15l0.209,0.3l1.349,1.948l1.357,1.951l0.208,0.3l1.574,2.28l0.207,0.301l1.341,1.957l1.346,1.956l0.203,0.296l1.481,2.168l0.042,0.061l1.485,2.176l0.208,0.307l1.33,1.965l1.336,1.965l0.205,0.301l1.471,2.181l0.038,0.056l1.474,2.186l0.206,0.307l1.466,2.192l0.041,0.061l1.239,1.855l1.41,2.102l0.367,0.55l1.393,2.105l1.32,1.986l0.205,0.309l1.454,2.204l0.037,0.056l1.374,2.086l0.043,0.065l1.454,2.211l0.197,0.299l1.443,2.212l0.039,0.059l1.366,2.095l0.039,0.06l1.367,2.1l0.042,0.065l1.445,2.223l0.194,0.3l1.435,2.224l0.038,0.059l1.358,2.109l0.042,0.065l1.356,2.109l0.035,0.055l1.436,2.235l0.198,0.311l1.427,2.239l0.034,0.054l1.348,2.118l0.041,0.064l1.426,2.245l0.191,0.302l1.281,2.032l1.291,2.037l0.193,0.307l1.495,2.378l0.192,0.308l1.271,2.037l1.279,2.041l0.192,0.307l1.408,2.264l0.036,0.058l1.407,2.267l0.191,0.308l1.265,2.053l1.273,2.057l0.19,0.308l1.397,2.274l0.032,0.053l1.398,2.279l0.192,0.313l1.392,2.287l0.038,0.062l1.312,2.16l0.032,0.053l1.311,2.16l0.035,0.057l1.313,2.169l0.038,0.061l1.39,2.297l0.186,0.309l1.379,2.298l0.034,0.057l1.381,2.304l0.188,0.314l1.235,2.078l1.243,2.079l0.187,0.315l1.372,2.312l0.033,0.057l1.371,2.316l0.186,0.315l1.23,2.093l1.236,2.094l0.182,0.31l1.36,2.322l0.033,0.056l1.36,2.326l0.181,0.311l1.353,2.331l0.035,0.061l1.279,2.207l0.032,0.055l1.278,2.21l0.035,0.06l1.352,2.341l0.179,0.311l1.342,2.342l0.032,0.055l1.268,2.217l0.032,0.055l1.269,2.222l0.034,0.059l1.344,2.356l0.18,0.316l1.332,2.354l0.029,0.05l1.259,2.229l0.034,0.059l1.262,2.236l0.033,0.059l1.332,2.364l0.172,0.307l1.325,2.369l0.035,0.063l1.252,2.244l0.028,0.049l1.322,2.373l0.176,0.317l1.317,2.381l0.032,0.058l1.243,2.252l0.03,0.054l1.242,2.253l0.029,0.053l1.315,2.388l0.173,0.317l1.306,2.391l0.029,0.053l1.235,2.265l0.031,0.057l1.305,2.397l0.17,0.313l1.171,2.169l1.181,2.175l0.171,0.317l1.365,2.535l0.165,0.309l1.164,2.179l1.174,2.185l0.167,0.313l1.285,2.414l0.028,0.053l1.287,2.419l0.168,0.318l1.155,2.191l1.163,2.192l0.165,0.313l1.345,2.558l0.164,0.314l1.149,2.202l1.155,2.203l0.161,0.309l1.268,2.438l0.031,0.06l1.201,2.312l0.026,0.051l1.268,2.445l0.164,0.318l1.259,2.448l0.026,0.051l1.19,2.319l0.029,0.055l1.191,2.324l0.029,0.055l1.258,2.457l0.16,0.314l1.249,2.461l0.027,0.054l1.182,2.332l0.026,0.05l1.25,2.469l0.162,0.322l1.241,2.472l0.025,0.05l1.173,2.339l0.025,0.05l1.174,2.346l0.029,0.057l1.24,2.482l0.157,0.314l1.23,2.483l0.027,0.053l1.164,2.353l0.025,0.05l1.164,2.356l0.026,0.053l1.231,2.494l0.157,0.318l1.222,2.498l0.025,0.052l1.157,2.368l0.026,0.053l1.221,2.501l0.153,0.315l1.211,2.505l0.026,0.052l1.148,2.377l0.025,0.052l1.148,2.38l0.025,0.052l1.212,2.515l0.15,0.314l1.204,2.519l0.026,0.056l1.14,2.39l0.023,0.047l1.202,2.524l0.151,0.318l1.08,2.288l1.15,2.423l0.274,0.581l1.136,2.429l1.08,2.299l0.147,0.314l1.073,2.302l1.143,2.439l0.271,0.582l1.124,2.437l1.072,2.309l0.147,0.318l1.175,2.554l0.023,0.05l1.113,2.424l0.023,0.05l1.175,2.561l0.145,0.318l1.166,2.564l0.023,0.05l1.104,2.431l0.021,0.046l1.104,2.436l0.025,0.053l1.165,2.574l0.141,0.314l1.157,2.577l0.024,0.052l1.097,2.448l0.022,0.049l1.155,2.581l0.14,0.314l1.147,2.587l0.023,0.052l1.088,2.455l0.02,0.045l1.087,2.458l0.023,0.052l1.148,2.598l0.139,0.318l1.137,2.597l0.02,0.044l1.079,2.468l0.022,0.052l1.08,2.472l0.021,0.048l1.137,2.609l0.137,0.317l1.129,2.612l0.02,0.048l1.128,2.613l0.135,0.314l1.016,2.377l1.025,2.381l0.134,0.313l1.118,2.623l0.02,0.047l1.119,2.628l0.134,0.317l1.111,2.633l0.021,0.05l1.054,2.502l0.019,0.046l1.053,2.501l0.018,0.043l1.109,2.64l0.134,0.32l1.102,2.647l0.019,0.045l1.045,2.514l0.02,0.05l1.044,2.515l0.018,0.042l1.1,2.654l0.132,0.32l1.092,2.659l0.019,0.045l1.035,2.525l0.019,0.045l1.091,2.664l0.129,0.315l1.082,2.667l0.018,0.045l1.028,2.536l0.019,0.048l1.083,2.676l0.127,0.315l0.974,2.428l0.981,2.433l0.128,0.318l1.127,2.819l0.124,0.312l0.966,2.438l0.975,2.444l0.124,0.315l1.065,2.694l0.018,0.047l1.064,2.698l0.124,0.315l0.957,2.449l0.965,2.453l0.123,0.314l1.108,2.843l0.123,0.318l0.949,2.461l0.958,2.464l0.123,0.317l1.045,2.717l0.017,0.043l1.045,2.719l0.12,0.313l1.036,2.723l0.016,0.042l0.985,2.591l0.017,0.045l0.985,2.594l0.016,0.042l0.985,2.598l0.017,0.045l1.036,2.737l0.118,0.313l1.027,2.74l0.017,0.044l1.027,2.743l0.117,0.313l1.017,2.746l0.016,0.04l0.967,2.614l0.017,0.044l0.968,2.618l0.015,0.04l1.017,2.757l0.116,0.315l0.918,2.508l0.974,2.646l0.213,0.584l0.96,2.655l0.918,2.52l0.112,0.309l0.999,2.771l0.015,0.043l0.952,2.641l0.015,0.043l1,2.779l0.111,0.312l0.991,2.782l0.015,0.043l0.942,2.65l0.014,0.039l0.942,2.652l0.013,0.039l0.991,2.793l0.112,0.317l0.982,2.797l0.013,0.039l0.934,2.661l0.013,0.039l0.981,2.802l0.109,0.313l0.973,2.806l0.013,0.038l0.926,2.674l0.015,0.044l0.972,2.813l0.105,0.306l0.878,2.566l0.886,2.571l0.106,0.309l1.009,2.956l0.105,0.309l0.954,2.825l0.014,0.04l0.824,2.443l0.924,2.718l0.196,0.583l0.906,2.718l0.868,2.585l0.104,0.311l0.946,2.843l0.013,0.04l0.899,2.709l0.013,0.037l0.944,2.848l0.102,0.31l0.936,2.852l0.012,0.036l0.892,2.721l0.013,0.042l0.936,2.859l0.1,0.308l0.927,2.861l0.013,0.039l0.882,2.729l0.012,0.036l0.883,2.734l0.013,0.041l0.927,2.873l0.098,0.306l0.917,2.874l0.011,0.035l0.875,2.744l0.013,0.04l0.918,2.883l0.096,0.306l0.909,2.886l0.013,0.04l0.866,2.754l0.011,0.035l0.866,2.756l0.012,0.037l0.908,2.895l0.095,0.305l0.9,2.899l0.012,0.04l0.899,2.903l0.094,0.304l0.813,2.653l0.822,2.657l0.094,0.307l0.891,2.913l0.011,0.036l0.89,2.916l0.093,0.306l0.882,2.919l0.01,0.033l0.84,2.787l0.012,0.039l0.841,2.791l0.01,0.033l0.881,2.928l0.091,0.305l0.873,2.935l0.011,0.037l0.832,2.802l0.01,0.032l0.872,2.938l0.09,0.305l0.864,2.943l0.01,0.035l0.824,2.811l0.01,0.035l0.824,2.815l0.01,0.034l0.863,2.953l0.088,0.304l0.855,2.956l0.01,0.034l0.815,2.826l0.01,0.034l0.854,2.961l0.086,0.301l0.846,2.966l0.01,0.036l0.807,2.837l0.01,0.033l0.845,2.974l0.085,0.302l0.766,2.724l0.774,2.728l0.085,0.302l0.874,3.117l0.084,0.302l0.827,2.987l0.009,0.032l0.791,2.856l0.009,0.033l0.79,2.859l0.009,0.032l0.79,2.864l0.01,0.035l0.827,3l0.082,0.298l0.818,3.003l0.008,0.031l0.819,3.008l0.082,0.303l0.81,3.011l0.008,0.032l0.773,2.879l0.008,0.029l0.773,2.883l0.009,0.033l0.81,3.022l0.08,0.299l0.8,3.025l0.009,0.033l0.765,2.894l0.008,0.029l0.765,2.897l0.008,0.033l0.801,3.034l0.077,0.296l0.792,3.037l0.008,0.033l0.792,3.042l0.077,0.297l0.783,3.046l0.008,0.032l0.748,2.914l0.007,0.028l0.748,2.918l0.009,0.032l0.782,3.055l0.076,0.297l0.71,2.806l0.752,2.944l0.142,0.565l0.735,2.945l0.71,2.815l0.074,0.298l0.766,3.073l0.007,0.031l0.765,3.076l0.072,0.293l0.695,2.828l0.702,2.832l0.073,0.294l0.788,3.218l0.071,0.295l0.687,2.839l0.694,2.843l0.072,0.293l0.747,3.097l0.007,0.03l0.747,3.099l0.069,0.291l0.738,3.103l0.007,0.029l0.707,2.976l0.007,0.029l0.707,2.978l0.006,0.028l0.738,3.113l0.069,0.292l0.729,3.117l0.007,0.029l0.698,2.989l0.006,0.027l0.729,3.123l0.068,0.291l0.72,3.128l0.007,0.028l0.689,2.999l0.007,0.027l0.689,3.002l0.007,0.029l0.72,3.138l0.066,0.29l0.711,3.14l0.006,0.026l0.712,3.145l0.065,0.291l0.647,2.901l0.685,3.033l0.122,0.55l0.668,3.038l0.619,2.78l0.005,0.026l0.702,3.161l0.064,0.288l0.722,3.297l0.063,0.289l0.631,2.92l0.639,2.922l0.063,0.289l0.685,3.177l0.006,0.027l0.684,3.18l0.062,0.286l0.623,2.933l0.631,2.937l0.061,0.288l0.704,3.321l0.06,0.288l0.615,2.944l0.624,2.948l0.06,0.287l0.667,3.201l0.005,0.026l0.667,3.204l0.059,0.284l0.658,3.207l0.005,0.024l0.632,3.081l0.005,0.027l0.632,3.084l0.004,0.022l0.659,3.218l0.058,0.286l0.65,3.223l0.004,0.023l0.65,3.225l0.056,0.284l0.592,2.981l0.6,2.984l0.056,0.285l0.667,3.367l0.055,0.282l0.584,2.99l0.591,2.994l0.056,0.283l0.632,3.247l0.004,0.024l0.632,3.25l0.055,0.283l0.623,3.253l0.004,0.022l0.599,3.127l0.004,0.023l0.599,3.132l0.004,0.023l0.623,3.265l0.053,0.281l0.615,3.267l0.004,0.022l0.59,3.142l0.004,0.022l0.614,3.275l0.052,0.281l0.606,3.278l0.004,0.023l0.582,3.153l0.004,0.02l0.605,3.286l0.052,0.281l0.598,3.295l0.005,0.031l1.158,6.39l0.031,0.171l1.162,6.475l0.03,0.171l1.165,6.553l0.052,0.298l1.148,6.568l0.03,0.169l1.127,6.519l0.029,0.168l1.131,6.596l0.05,0.296l1.102,6.547l0.007,0.04l1.102,6.562l0.049,0.293l1.096,6.64l0.027,0.167l1.088,6.654l0.047,0.291l1.06,6.606l0.006,0.038l1.06,6.62l0.046,0.291l1.053,6.698l0.025,0.162l1.035,6.649l0.025,0.164l1.035,6.727l0.044,0.287l1.009,6.679l0.006,0.035l1.009,6.694l0.043,0.286l1.01,6.834l0.042,0.286l0.975,6.722l0.005,0.034l0.975,6.737l0.041,0.284l0.967,6.815l0.023,0.158l0.949,6.767l0.022,0.158l0.951,6.844l0.038,0.281l0.925,6.797l0.004,0.032l0.925,6.812l0.037,0.279l0.916,6.889l0.021,0.154l0.907,6.904l0.036,0.277l0.89,6.918l0.02,0.153l0.874,6.871l0.019,0.153l0.866,6.886l0.019,0.153l0.857,6.901l0.019,0.152l0.856,6.977l0.033,0.274l0.839,6.992l0.018,0.15l0.824,6.946l0.017,0.149l0.822,7.022l0.032,0.272l0.805,7.037l0.017,0.148l0.79,6.991l0.016,0.148l0.782,7.006l0.016,0.147l0.773,7.022l0.016,0.147l0.771,7.097l0.029,0.266l0.754,7.112l0.015,0.146l0.746,7.127l0.028,0.264l0.722,7.082l0.003,0.024l0.722,7.097l0.027,0.264l0.712,7.173l0.014,0.142l0.703,7.188l0.025,0.261l0.681,7.144l0.002,0.022l0.681,7.158l0.024,0.259l0.676,7.293l0.023,0.259l0.648,7.189l0.001,0.021l0.648,7.204l0.023,0.257l0.635,7.279l0.012,0.139l0.623,7.235l0.011,0.137l0.619,7.309l0.021,0.255l0.602,7.325l0.012,0.137l0.588,7.281l0.011,0.135l0.581,7.297l0.01,0.135l0.577,7.371l0.02,0.252l0.559,7.386l0.01,0.134l0.548,7.342l0.009,0.134l0.543,7.417l0.018,0.249l0.527,7.433l0.009,0.132l0.514,7.389l0.009,0.132l0.505,7.405l0.009,0.131l0.501,7.479l0.016,0.246l0.484,7.494l0.008,0.13l0.472,7.452l0.009,0.129l0.467,7.525l0.015,0.244l0.45,7.541l0.008,0.128l0.439,7.499l0.007,0.127l0.431,7.515l0.007,0.127l0.425,7.588l0.013,0.24l0.409,7.603l0.007,0.126l0.4,7.619l0.012,0.238l0.381,7.578l0,0.012l0.381,7.593l0.011,0.237l0.37,7.723l0.011,0.236l0.347,7.625l0.001,0.011l0.347,7.641l0.01,0.235l0.334,7.713l0.005,0.122l0.325,7.729l0.009,0.232l0.306,7.689l0,0.009l0.306,7.705l0.009,0.232l0.294,7.833l0.008,0.23l0.273,7.745l0.273,7.752l0.008,0.229l0.26,7.88l0.007,0.228l0.24,7.792l0.239,7.802l0.007,0.226l0.226,7.927l0.006,0.226l0.207,7.839l0.207,7.849l0.005,0.225l0.191,7.92l0.003,0.114l0.183,7.937l0.005,0.222l0.165,7.903l0.166,7.969l0.007,0.329l0.141,7.989l0.14,7.946l0.004,0.22l0.125,8.016l0.001,0.111l0.116,7.98l0.002,0.11l0.108,8.049l0.002,0.218l0.092,8.065l0.001,0.11l0.083,8.081l0.002,0.216l0.066,8.046l0.066,8.061l0.001,0.215l0.051,8.183l0.001,0.214l0.033,8.094l0.033,8.11l0,0.212l0.017,8.157l0,0.061l0.049,33.791l0.057,34.649l0.065,35.508l0.081,36.388l0,0.005l0.081,37.224l0.098,38.011l0.105,38.819l0.114,39.579l0.122,40.313l0.13,41.004l0.147,41.706l0,0.006l0.146,42.368l0.163,43.004l0,0.006l0.162,43.615l0.179,44.186l0.187,44.783l0,0.006l0.187,45.302l0.204,45.799l0.211,46.306l0.22,46.769l0.228,47.224l0,0.004l0.227,47.62l0.244,47.995l0.252,48.377l0.261,48.717l0.268,49.048l0,0.003l0.269,49.323l0.284,49.591l0.285,49.831l0.301,50.05l0.301,50.24l0.317,50.41l0.317,50.568l0.326,50.671l0.333,50.764l0.342,50.834l0.349,50.878l0.358,50.915l0.358,50.91l0.366,50.847l0.382,50.819l0,0.016l0.375,50.74l0.39,50.612l0.398,50.516l0.399,50.364l0.407,50.17l0.414,49.968l0.423,49.74l0.431,49.507l0.431,49.231l0.439,48.913l0.448,48.604l0.447,48.255l0.455,47.862l0.463,47.463l0.472,47.057l0.472,46.607l0.479,46.116l0.488,45.635l0.488,45.113l0.496,44.565l0.495,43.972l0.512,43.397l0.001,0.006l0.251,21.448l2.803,229.604l-416.636,5.086l-2.803,-229.678l-0.001,-0.048l-0.252,-21.512l-0.513,-43.469l-0.001,-0.055l-0.497,-44.078l0,-0.015l-0.497,-44.636l0,-0.033l-0.488,-45.181l-0.001,-0.013l-0.488,-45.7l0,-0.03l-0.481,-46.205l0,-0.029l-0.472,-46.666l0,-0.01l-0.473,-47.113l0,-0.027l-0.464,-47.542l0,-0.026l-0.456,-47.94l-0.001,-0.025l-0.447,-48.303l0,-0.007l-0.448,-48.65l0,-0.024l-0.44,-48.983l0,-0.023l-0.432,-49.272l0,-0.005l-0.431,-49.547l0,-0.022l-0.424,-49.804l0,-0.021l-0.415,-50.03l0,-0.02l-0.407,-50.23l0,-0.02l-0.399,-50.397l0,-0.003l-0.399,-50.548l0,-0.019l-0.391,-50.692l0,-0.035l-0.375,-50.77l-0.382,-50.846l0,-0.035l-0.367,-50.923l0,-0.017l-0.358,-50.936l-0.358,-50.94l0,-0.016l-0.35,-50.927l-0.001,-0.016l-0.341,-50.881l-0.001,-0.016l-0.333,-50.812l0,-0.015l-0.326,-50.716l0,-0.016l-0.318,-50.588l-0.317,-50.453l0,-0.031l-0.301,-50.284l-0.302,-50.091l0,-0.031l-0.285,-49.873l-0.285,-49.631l0,-0.031l-0.268,-49.364l-0.269,-49.064l0,-0.013l-0.26,-48.759l-0.001,-0.013l-0.252,-48.418l0,-0.013l-0.244,-48.062l0,-0.031l-0.228,-47.661l-0.228,-47.237l0,-0.013l-0.22,-46.81l0,-0.013l-0.212,-46.347l0,-0.013l-0.203,-45.867l0,-0.033l-0.188,-45.342l-0.187,-44.797l0,-0.013l-0.179,-44.256l0,-0.034l-0.163,-43.656l-0.163,-43.047l0,-0.034l-0.146,-42.411l-0.147,-41.751l0,-0.035l-0.13,-41.079l0,-0.015l-0.123,-40.36l0,-0.015l-0.114,-39.626l0,-0.016l-0.105,-38.868l-0.001,-0.016l-0.097,-38.096l0,-0.04l-0.082,-37.275l-0.081,-36.443l0,-0.042l-0.065,-35.601l0,-0.02l-0.057,-34.708l0,-0.021l-0.049,-33.731l-0.016,-7.747l-0.032,-7.79l-0.031,-7.772l-0.047,-7.541l-0.063,-7.736l-0.063,-7.718l-0.078,-7.593l-0.086,-7.575l-0.101,-7.557l-0.111,-7.646l-0.117,-7.52l-0.134,-7.611l-0.133,-7.484l-0.156,-7.467l-0.158,-7.556l-0.171,-7.431l-0.179,-7.411l-0.197,-7.504l-0.198,-7.486l-0.206,-7.248l-0.229,-7.45l-0.229,-7.433l-0.237,-7.193l-0.26,-7.397l-0.261,-7.379l-0.267,-7.14l-0.292,-7.343l-0.291,-7.326l-0.303,-7.197l-0.31,-7.179l-0.33,-7.274l-0.331,-7.256l-0.335,-7.012l-0.362,-7.221l-0.362,-7.203l-0.372,-7.072l-0.379,-7.054l-0.394,-7.037l-0.409,-7.133l-0.416,-7.115l-0.417,-6.984l-0.433,-6.966l-0.447,-7.063l-0.448,-6.93l-0.463,-6.913l-0.479,-7.011l-0.486,-6.994l-0.485,-6.86l-0.501,-6.842l-0.518,-6.942l-0.516,-6.807l-0.531,-6.79l-0.548,-6.889l-0.556,-6.873l-0.553,-6.737l-0.569,-6.72l-0.587,-6.821l-0.584,-6.685l-0.61,-6.786l-0.609,-6.768l-0.603,-6.514l-0.641,-6.735l-0.64,-6.718l-0.644,-6.581l-0.651,-6.563l-0.679,-6.666l-0.679,-6.649l-0.681,-6.512l-0.689,-6.494l-0.704,-6.477l-0.724,-6.581l-0.732,-6.563l-0.74,-6.548l-0.733,-6.408l-0.748,-6.39l-0.77,-6.497l-0.763,-6.356l-0.778,-6.34l-0.801,-6.445l-0.808,-6.428l-0.815,-6.412l-0.807,-6.271l-0.823,-6.255l-0.829,-6.237l-0.861,-6.345l-0.861,-6.327l-0.858,-6.186l-0.884,-6.294l-0.873,-6.152l-0.906,-6.261l-0.906,-6.244l-0.884,-5.976l-0.936,-6.21l-0.936,-6.194l-0.931,-6.051l-0.959,-6.16l-0.946,-6.018l-0.981,-6.127l-0.98,-6.111l-0.975,-5.968l-0.982,-5.95l-1.019,-6.061l-1.017,-6.044l-1.011,-5.901l-1.041,-6.012l-1.025,-5.867l-1.039,-5.851l-1.07,-5.961l-1.103,-6.087l-0.513,-2.827l-0.522,-2.833l-0.57,-3.089l-0.522,-2.825l-0.529,-2.821l-0.578,-3.076l-0.529,-2.814l-0.536,-2.808l-0.585,-3.062l-0.586,-3.061l-0.535,-2.797l-0.543,-2.791l-0.543,-2.788l-0.578,-2.925l-0.046,-0.237l-0.57,-2.923l-0.498,-2.516l-0.585,-2.911l-0.048,-0.238l-0.577,-2.909l-0.557,-2.764l-0.556,-2.758l-0.563,-2.755l-0.617,-3.012l-0.617,-3.007l-0.563,-2.744l-0.57,-2.74l-0.57,-2.733l-0.607,-2.873l-0.05,-0.238l-0.6,-2.869l-0.521,-2.459l-0.614,-2.861l-0.051,-0.238l-0.607,-2.859l-0.584,-2.71l-0.583,-2.704l-0.622,-2.845l-0.052,-0.238l-0.614,-2.841l-0.532,-2.431l-0.598,-2.691l-0.688,-3.093l-0.052,-0.234l-0.563,-2.564l-0.578,-2.561l-0.053,-0.236l-0.629,-2.816l-0.603,-2.669l-0.604,-2.667l-0.611,-2.661l-0.671,-2.92l-0.671,-2.916l-0.61,-2.649l-0.617,-2.646l-0.679,-2.905l-0.617,-2.636l-0.624,-2.634l-0.686,-2.893l-0.686,-2.887l-0.624,-2.621l-0.63,-2.618l-0.63,-2.612l-0.674,-2.756l-0.057,-0.235l-0.665,-2.751l-0.572,-2.336l-0.681,-2.744l-0.058,-0.235l-0.673,-2.741l-0.644,-2.59l-0.642,-2.581l-0.688,-2.728l-0.06,-0.24l-0.613,-2.457l-0.627,-2.453l-0.06,-0.237l-0.687,-2.717l-0.657,-2.563l-0.725,-2.828l-0.725,-2.824l-0.656,-2.551l-0.663,-2.547l-0.663,-2.545l-0.67,-2.542l-0.741,-2.804l-0.74,-2.801l-0.669,-2.527l-0.676,-2.523l-0.748,-2.788l-0.749,-2.788l-0.675,-2.511l-0.682,-2.507l-0.683,-2.507l-0.69,-2.501l-0.763,-2.764l-0.763,-2.761l-0.763,-2.758l-0.689,-2.486l-0.62,-2.212l-0.745,-2.629l-0.067,-0.235l-0.737,-2.625l-0.702,-2.469l-0.778,-2.733l-0.702,-2.461l-0.709,-2.46l-0.786,-2.723l-0.708,-2.45l-0.715,-2.446l-0.794,-2.711l-0.793,-2.708l-0.714,-2.433l-0.722,-2.433l-0.801,-2.696l-0.72,-2.42l-0.728,-2.421l-0.809,-2.684l-0.809,-2.681l-0.727,-2.409l-0.734,-2.403l-0.733,-2.398l-0.788,-2.549l-0.072,-0.234l-0.781,-2.546l-0.74,-2.388l-0.739,-2.383l-0.747,-2.382l-0.832,-2.648l-0.831,-2.643l-0.746,-2.367l-0.752,-2.364l-0.839,-2.631l-0.754,-2.361l-0.758,-2.353l-0.846,-2.619l-0.847,-2.618l-0.759,-2.343l-0.765,-2.337l-0.853,-2.604l-0.766,-2.332l-0.772,-2.328l-0.861,-2.596l-0.771,-2.317l-0.83,-2.471l-0.079,-0.235l-0.731,-2.195l-0.745,-2.191l-0.078,-0.231l-0.921,-2.729l-0.777,-2.301l-0.692,-2.029l-0.845,-2.449l-0.078,-0.228l-0.837,-2.447l-0.79,-2.286l-0.883,-2.551l-0.79,-2.279l-0.797,-2.274l-0.892,-2.546l-0.795,-2.264l-0.802,-2.261l-0.899,-2.534l-0.899,-2.528l-0.802,-2.252l-0.809,-2.248l-0.905,-2.513l-0.809,-2.244l-0.873,-2.397l-0.081,-0.225l-0.766,-2.117l-0.78,-2.118l-0.085,-0.231l-0.87,-2.382l-0.821,-2.222l-0.921,-2.49l-0.921,-2.487l-0.821,-2.214l-0.826,-2.207l-0.826,-2.204l-0.833,-2.2l-0.936,-2.467l-0.935,-2.464l-0.935,-2.461l-0.833,-2.188l-0.84,-2.184l-0.838,-2.178l-0.906,-2.332l-0.089,-0.228l-0.898,-2.327l-0.738,-1.896l-0.914,-2.323l-0.09,-0.228l-0.906,-2.32l-0.85,-2.156l-0.85,-2.152l-0.92,-2.308l-0.09,-0.224l-0.913,-2.306l-0.749,-1.874l-0.927,-2.295l-0.091,-0.227l-0.92,-2.294l-0.862,-2.131l-0.971,-2.397l-0.863,-2.126l-0.87,-2.123l-0.98,-2.39l-0.867,-2.112l-0.876,-2.112l-0.987,-2.379l-0.986,-2.371l-0.873,-2.098l-0.882,-2.097l-0.996,-2.368l-0.993,-2.357l-0.879,-2.083l-0.887,-2.083l-0.888,-2.084l-0.961,-2.235l-0.093,-0.215l-0.954,-2.231l-0.894,-2.072l-0.892,-2.066l-0.899,-2.062l-1.015,-2.324l-1.016,-2.324l-0.899,-2.055l-0.903,-2.044l-1.024,-2.314l-1.023,-2.309l-0.903,-2.037l-0.912,-2.038l-1.029,-2.295l-0.91,-2.027l-0.916,-2.023l-1.037,-2.288l-1.04,-2.288l-0.915,-2.013l-0.921,-2.009l-1.045,-2.274l-0.921,-2.002l-1.002,-2.158l-0.1,-0.218l-0.872,-1.89l-0.885,-1.886l-0.099,-0.213l-1.002,-2.149l-1.009,-2.146l-0.099,-0.213l-0.876,-1.874l-0.891,-1.875l-0.102,-0.216l-1.007,-2.133l-0.941,-1.975l-1.065,-2.235l-0.938,-1.964l-0.947,-1.965l-1.073,-2.224l-1.072,-2.22l-0.946,-1.954l-0.952,-1.952l-1.08,-2.209l-0.949,-1.941l-0.957,-1.937l-1.088,-2.203l-1.089,-2.2l-0.957,-1.93l-0.962,-1.924l-1.093,-2.185l-1.098,-2.19l-0.96,-1.913l-0.967,-1.91l-1.103,-2.175l-0.968,-1.908l-0.975,-1.904l-1.108,-2.16l-1.11,-2.161l-0.973,-1.894l-0.981,-1.892l-1.114,-2.146l-0.98,-1.884l-1.071,-2.043l-0.106,-0.202l-1.061,-2.034l-0.85,-1.617l-1.077,-2.031l-0.108,-0.205l-1.067,-2.022l-0.991,-1.865l-0.994,-1.866l-1.082,-2.015l-0.107,-0.2l-1.076,-2.015l-0.859,-1.596l-1.088,-2.004l-0.11,-0.202l-1.082,-2.004l-1.002,-1.842l-1.145,-2.098l-1.002,-1.836l-1.008,-1.832l-1.154,-2.093l-1.151,-2.084l-1.005,-1.818l-1.017,-1.824l-1.158,-2.075l-1.013,-1.813l-1.023,-1.814l-1.162,-2.06l-1.167,-2.065l-1.022,-1.805l-1.023,-1.793l-1.171,-2.05l-1.174,-2.052l-1.027,-1.792l-1.031,-1.785l-1.178,-2.036l-1.178,-2.034l-1.03,-1.775l-1.039,-1.776l-1.039,-1.774l-1.137,-1.926l-0.117,-0.198l-1.126,-1.917l-1.042,-1.76l-1.041,-1.756l-1.142,-1.911l-0.12,-0.201l-1.134,-1.907l-1.047,-1.747l-1.05,-1.749l-1.053,-1.741l-1.206,-1.989l-1.211,-1.996l-1.208,-1.988l-1.049,-1.723l-1.061,-1.731l-1.064,-1.732l-1.162,-1.876l-0.116,-0.188l-1.153,-1.872l-1.067,-1.718l-1.066,-1.715l-1.17,-1.866l-0.119,-0.191l-1.162,-1.862l-0.916,-1.458l-1.175,-1.854l-0.116,-0.185l-1.17,-1.855l-1.078,-1.697l-1.235,-1.941l-1.078,-1.692l-1.084,-1.688l-1.242,-1.932l-1.238,-1.923l-1.087,-1.684l-1.089,-1.676l-1.246,-1.914l-1.248,-1.915l-1.092,-1.672l-1.095,-1.665l-1.255,-1.905l-1.095,-1.658l-1.2,-1.806l-0.124,-0.187l-1.032,-1.559l-1.045,-1.557l-0.124,-0.186l-1.365,-2.043l-1.096,-1.639l-1.106,-1.641l-1.109,-1.644l-1.217,-1.789l-0.125,-0.184l-1.206,-1.781l-1.108,-1.624l-1.114,-1.632l-1.225,-1.78l-0.122,-0.177l-1.214,-1.771l-0.952,-1.38l-1.229,-1.766l-0.122,-0.176l-1.22,-1.762l-1.127,-1.615l-1.292,-1.849l-1.122,-1.604l-1.235,-1.751l-0.122,-0.174l-1.23,-1.752l-0.961,-1.36l-1.24,-1.739l-0.126,-0.178l-1.239,-1.746l-1.134,-1.587l-1.134,-1.584l-1.251,-1.736l-0.123,-0.17l-1.243,-1.732l-1.14,-1.576l-1.139,-1.573l-1.26,-1.727l-0.127,-0.174l-1.244,-1.712l-0.976,-1.333l-1.264,-1.715l-0.123,-0.168l-1.257,-1.711l-1.155,-1.562l-1.325,-1.789l-1.321,-1.781l-1.154,-1.553l-1.161,-1.551l-1.157,-1.543l-1.28,-1.695l-0.127,-0.169l-1.263,-1.68l-1.167,-1.54l-1.338,-1.765l-1.166,-1.534l-1.173,-1.532l-1.341,-1.75l-1.349,-1.757l-1.171,-1.524l-1.174,-1.516l-1.352,-1.743l-1.356,-1.745l-1.177,-1.513l-1.184,-1.511l-1.358,-1.73l-1.18,-1.5l-1.303,-1.647l-0.132,-0.167l-1.292,-1.637l-1.189,-1.497l-1.193,-1.501l-1.192,-1.487l-1.372,-1.709l-1.375,-1.711l-1.376,-1.709l-1.19,-1.476l-1.201,-1.479l-1.206,-1.483l-1.321,-1.613l-0.128,-0.156l-1.318,-1.615l-1.207,-1.469l-1.384,-1.682l-1.211,-1.469l-1.213,-1.462l-1.391,-1.673l-1.391,-1.67l-1.217,-1.459l-1.224,-1.457l-1.398,-1.661l-1.401,-1.663l-1.219,-1.444l-1.225,-1.441l-1.409,-1.655l-1.408,-1.651l-1.224,-1.434l-1.231,-1.431l-1.415,-1.642l-1.415,-1.64l-1.235,-1.429l-1.242,-1.427l-1.417,-1.626l-1.417,-1.622l-1.24,-1.419l-1.248,-1.417l-1.429,-1.619l-1.247,-1.412l-1.373,-1.544l-0.126,-0.141l-1.359,-1.534l-1.253,-1.404l-1.254,-1.403l-1.255,-1.394l-1.442,-1.599l-1.446,-1.602l-1.442,-1.594l-1.253,-1.384l-1.266,-1.387l-1.448,-1.585l-1.266,-1.383l-1.393,-1.511l-0.125,-0.136l-1.384,-1.508l-1.09,-1.178l-1.399,-1.504l-0.125,-0.134l-1.391,-1.5l-1.279,-1.369l-1.466,-1.567l-1.278,-1.364l-1.401,-1.485l-0.124,-0.132l-1.403,-1.492l-1.101,-1.164l-1.411,-1.48l-0.129,-0.135l-1.403,-1.477l-1.29,-1.35l-1.48,-1.545l-1.29,-1.345l-1.297,-1.343l-1.481,-1.531l-1.487,-1.534l-1.486,-1.531l-1.29,-1.327l-1.303,-1.331l-1.499,-1.529l-1.303,-1.326l-1.31,-1.325l-1.494,-1.509l-1.494,-1.505l-1.505,-1.515l-1.309,-1.315l-1.315,-1.313l-1.506,-1.5l-1.316,-1.309l-1.329,-1.312l-1.507,-1.487l-1.513,-1.489l-1.512,-1.487l-1.322,-1.296l-1.334,-1.301l-1.514,-1.473l-1.334,-1.296l-1.342,-1.295l-1.52,-1.465l-1.526,-1.467l-1.526,-1.465l-1.34,-1.285l-1.348,-1.283l-1.526,-1.451l-1.348,-1.279l-1.481,-1.396l-0.118,-0.111l-1.473,-1.393l-1.169,-1.099l-1.482,-1.383l-0.117,-0.109l-1.48,-1.386l-1.361,-1.265l-1.546,-1.436l-1.546,-1.432l-1.36,-1.259l-1.368,-1.257l-1.553,-1.425l-1.552,-1.422l-1.367,-1.25l-1.381,-1.254l-1.553,-1.409l-1.374,-1.244l-1.516,-1.363l-0.114,-0.103l-1.495,-1.349l-1.381,-1.237l-1.388,-1.242l-1.516,-1.348l-0.113,-0.101l-1.509,-1.345l-1.394,-1.235l-1.572,-1.39l-1.388,-1.225l-1.395,-1.224l-1.579,-1.382l-1.579,-1.38l-1.401,-1.222l-1.408,-1.221l-1.58,-1.367l-1.592,-1.375l-1.408,-1.214l-1.531,-1.312l-0.11,-0.094l-1.536,-1.32l-1.232,-1.052l-1.542,-1.307l-0.116,-0.099l-1.54,-1.31l-1.416,-1.196l-1.598,-1.349l-1.423,-1.198l-1.555,-1.302l-0.115,-0.096l-1.541,-1.293l-1.422,-1.186l-1.43,-1.189l-1.436,-1.189l-1.746,-1.441l-0.114,-0.094l-1.366,-1.131l-1.38,-1.129l-0.112,-0.093l-1.57,-1.288l-1.443,-1.178l-1.613,-1.313l-1.625,-1.321l-1.451,-1.178l-1.574,-1.269l-0.104,-0.084l-1.392,-1.125l-1.406,-1.125l-0.104,-0.083l-1.755,-1.407l-1.45,-1.161l-1.458,-1.16l-1.458,-1.158l-1.593,-1.256l-0.109,-0.086l-1.584,-1.254l-1.466,-1.151l-1.639,-1.286l-1.465,-1.148l-1.607,-1.251l-0.108,-0.084l-1.592,-1.242l-1.472,-1.141l-1.465,-1.135l-1.481,-1.138l-1.794,-1.378l-0.107,-0.082l-1.42,-1.093l-1.434,-1.092l-0.105,-0.081l-1.607,-1.226l-1.614,-1.225l-0.106,-0.08l-1.606,-1.222l-1.308,-0.989l-1.626,-1.221l-0.112,-0.084l-1.61,-1.213l-1.487,-1.113l-1.503,-1.122l-1.637,-1.215l-0.103,-0.077l-1.621,-1.207l-1.503,-1.111l-1.68,-1.24l-1.68,-1.238l-1.51,-1.111l-1.517,-1.109l-1.688,-1.231l-1.51,-1.099l-1.644,-1.19l-0.101,-0.073l-1.644,-1.192l-1.517,-1.094l-1.518,-1.092l-1.663,-1.19l-0.107,-0.076l-1.64,-1.176l-1.525,-1.086l-1.582,-1.125l-3.28,-2.321l-3.336,-2.346l-3.249,-2.276l-3.266,-2.27l-3.268,-2.262l-3.281,-2.254l-3.282,-2.245l-3.297,-2.237l-3.383,-2.287l-3.307,-2.223l-3.316,-2.214l-3.319,-2.204l-3.33,-2.198l-3.342,-2.193l-3.342,-2.179l-3.438,-2.229l-3.357,-2.168l-3.372,-2.16l-3.372,-2.151l-3.383,-2.142l-3.471,-2.188l-3.312,-2.075l-3.41,-2.12l-3.498,-2.165l-3.422,-2.106l-3.426,-2.096l-3.519,-2.139l-3.438,-2.082l-3.371,-2.025l-3.542,-2.115l-3.542,-2.107l-3.396,-2.007l-3.484,-2.043l-3.565,-2.081l-3.5,-2.032l-3.504,-2.022l-3.512,-2.013l-3.52,-2.006l-3.61,-2.046l-3.533,-1.993l-3.542,-1.982l-3.626,-2.021l-3.478,-1.926l-3.571,-1.963l-3.654,-1.999l-3.579,-1.946l-3.664,-1.981l-3.597,-1.935l-3.531,-1.886l-3.687,-1.956l-3.692,-1.951l-3.553,-1.866l-3.644,-1.898l-3.715,-1.928l-3.648,-1.88l-3.735,-1.913l-3.666,-1.871l-3.603,-1.823l-3.758,-1.89l-3.758,-1.882l-3.621,-1.802l-3.718,-1.835l-3.787,-1.861l-3.789,-1.851l-3.722,-1.81l-3.672,-1.772l-3.818,-1.83l-3.822,-1.824l-3.76,-1.783l-3.763,-1.774l-3.776,-1.769l-3.785,-1.762l-3.793,-1.754l-3.874,-1.781l-3.807,-1.742l-3.817,-1.732l-3.886,-1.756l-3.831,-1.72l-3.844,-1.715l-3.914,-1.735l-3.848,-1.699l-3.868,-1.693l-3.87,-1.686l-3.881,-1.677l-3.951,-1.7l-3.894,-1.665l-3.967,-1.685l-3.908,-1.653l-3.919,-1.643l-3.984,-1.663l-3.933,-1.631l-3.941,-1.625l-3.95,-1.617l-3.963,-1.612l-4.029,-1.629l-4.028,-1.621l-3.915,-1.564l-3.996,-1.584l-4.119,-1.626l-3.998,-1.57l-3.959,-1.541l-4.082,-1.58l-4.083,-1.572l-4.031,-1.543l-4.045,-1.537l-4.053,-1.531l-4.121,-1.545l-4.062,-1.517l-4.079,-1.51l-4.142,-1.526l-4.088,-1.496l-4.153,-1.51l-4.106,-1.486l-4.119,-1.478l-4.169,-1.489l-4.133,-1.465l-4.136,-1.458l-4.144,-1.45l-4.218,-1.466l-4.208,-1.456l-4.167,-1.432l-4.175,-1.425l-4.185,-1.419l-4.198,-1.413l-4.254,-1.423l-4.254,-1.416l-4.216,-1.394l-4.224,-1.387l-4.233,-1.38l-4.297,-1.392l-4.293,-1.383l-4.25,-1.36l-4.26,-1.354l-4.272,-1.349l-4.336,-1.359l-4.326,-1.35l-4.242,-1.314l-4.361,-1.339l-4.348,-1.331l-4.274,-1.297l-4.373,-1.317l-4.378,-1.312l-4.339,-1.292l-4.395,-1.299l-4.353,-1.28l-4.365,-1.273l-4.412,-1.279l-4.38,-1.261l-4.388,-1.254l-4.437,-1.26l-4.442,-1.254l-4.411,-1.236l-4.42,-1.231l-4.424,-1.223l-4.475,-1.228l-4.481,-1.223l-4.447,-1.205l-4.46,-1.2l-4.464,-1.192l-4.51,-1.196l-4.519,-1.192l-4.487,-1.175l-4.537,-1.18l-4.496,-1.162l-4.508,-1.155l-4.554,-1.16l-4.527,-1.145l-4.575,-1.149l-4.571,-1.141l-4.545,-1.127l-4.554,-1.12l-4.558,-1.113l-4.614,-1.119l-4.61,-1.111l-4.581,-1.096l-4.594,-1.091l-4.64,-1.093l-4.604,-1.079l-4.652,-1.08l-4.649,-1.075l-4.598,-1.054l-4.68,-1.064l-4.674,-1.057l-4.648,-1.042l-4.696,-1.046l-4.697,-1.039l-4.676,-1.027l-4.679,-1.02l-4.683,-1.013l-4.736,-1.016l-4.736,-1.01l-4.711,-0.997l-4.752,-0.999l-4.721,-0.985l-4.737,-0.98l-4.802,-0.987l-4.743,-0.969l-4.76,-0.963l-4.788,-0.963l-4.769,-0.951l-4.814,-0.953l-4.774,-0.939l-4.795,-0.934l-4.862,-0.941l-4.802,-0.924l-4.818,-0.918l-4.844,-0.916l-4.827,-0.907l-4.871,-0.907l-4.866,-0.901l-4.845,-0.889l-4.888,-0.89l-4.855,-0.878l-4.876,-0.873l-4.91,-0.874l-4.913,-0.867l-4.909,-0.861l-4.9,-0.851l-4.909,-0.847l-4.939,-0.844l-4.944,-0.84l-4.927,-0.83l-4.938,-0.825l-4.97,-0.823l-4.97,-0.817l-4.955,-0.808l-4.992,-0.808l-4.993,-0.801l-4.975,-0.793l-4.985,-0.787l-5.018,-0.785l-5.018,-0.78l-5.005,-0.771l-5.039,-0.77l-5.041,-0.764l-5.022,-0.755l-5.057,-0.753l-5.037,-0.746l-5.051,-0.739l-5.099,-0.741l-5.08,-0.733l-5.063,-0.724l-5.074,-0.719l-5.084,-0.715l-5.113,-0.711l-5.116,-0.707l-5.122,-0.702l-5.124,-0.696l-5.115,-0.689l-5.124,-0.683l-5.152,-0.681l-5.153,-0.676l-5.144,-0.669l-5.172,-0.666l-5.17,-0.661l-5.164,-0.653l-5.191,-0.651l-5.171,-0.644l-5.211,-0.641l-5.203,-0.636l-5.199,-0.629l-5.22,-0.626l-5.228,-0.621l-5.214,-0.615l-5.229,-0.609l-5.266,-0.609l-5.251,-0.602l-5.239,-0.594l-5.251,-0.59l-5.275,-0.588l-5.279,-0.582l-5.271,-0.576l-5.295,-0.573l-5.298,-0.568l-5.289,-0.562l-5.315,-0.558l-5.315,-0.554l-5.324,-0.549l-5.311,-0.543l-5.33,-0.539l-5.358,-0.537l-5.344,-0.53l-5.341,-0.525l-5.348,-0.52l-5.371,-0.517l-5.374,-0.512l-5.366,-0.506l-5.393,-0.503l-5.393,-0.499l-5.399,-0.494l-5.391,-0.488l-5.418,-0.485l-5.411,-0.48l-5.416,-0.475l-5.432,-0.472l-5.441,-0.467l-5.438,-0.463l-5.437,-0.457l-5.46,-0.454l-5.457,-0.45l-5.457,-0.444l-5.477,-0.441l-5.477,-0.437l-5.478,-0.431l-5.497,-0.428l-5.494,-0.424l-5.496,-0.418l-5.518,-0.416l-5.513,-0.41l-5.525,-0.407l-5.529,-0.403l-5.522,-0.397l-5.543,-0.394l-5.549,-0.39l-5.552,-0.386l-5.545,-0.381l-5.571,-0.378l-5.563,-0.373l-5.575,-0.369l-5.582,-0.365l-5.593,-0.361l-5.594,-0.358l-5.59,-0.352l-5.61,-0.349l-5.613,-0.346l-5.62,-0.341l-5.622,-0.337l-5.623,-0.333l-5.638,-0.329l-5.64,-0.326l-5.651,-0.321l-5.649,-0.318l-5.651,-0.314l-5.66,-0.309l-5.684,-0.307l-5.671,-0.302l-5.679,-0.298l-5.688,-0.295l-5.695,-0.291l-5.699,-0.287l-5.701,-0.283l-5.715,-0.28l-5.715,-0.276l-5.726,-0.272l-5.726,-0.269l-5.729,-0.265l-5.743,-0.261l-5.745,-0.258l-5.755,-0.254l-5.754,-0.25l-5.758,-0.247l-5.772,-0.243l-5.773,-0.24l-5.783,-0.237l-5.783,-0.232l-5.786,-0.229l-5.803,-0.226l-5.808,-0.223l-5.795,-0.218l-5.813,-0.215l-5.829,-0.213l-5.822,-0.208l-5.823,-0.205l-5.84,-0.202l-5.841,-0.199l-5.847,-0.195l-5.851,-0.192l-5.853,-0.188l-5.868,-0.185l-5.875,-0.182l-5.862,-0.179l-5.887,-0.175l-5.881,-0.173l-5.891,-0.168l-5.9,-0.166l-5.892,-0.163l-5.916,-0.159l-5.911,-0.157l-5.911,-0.153l-5.924,-0.15l-5.933,-0.147l-5.937,-0.144l-5.936,-0.14l-5.941,-0.138l-5.953,-0.135l-5.955,-0.132l-5.963,-0.128l-5.964,-0.126l-5.945,-0.122l-11.981,-0.238l-11.982,-0.225l-12.002,-0.213l-12.022,-0.203l-12.039,-0.19l-12.068,-0.18l-12.078,-0.169l-12.107,-0.158l-12.125,-0.147l-12.145,-0.137l-12.164,-0.126l-12.19,-0.116l-12.202,-0.105l-12.23,-0.096l-12.248,-0.085l-12.267,-0.076l-12.287,-0.066l-12.306,-0.057l-12.326,-0.047l-12.343,-0.038l-12.372,-0.029l-12.382,-0.02l-12.409,-0.011l-12.42,-0.002l-12.447,0.006l-12.458,0.015l-12.485,0.023l-12.497,0.031l-12.522,0.039l-12.542,0.047l-12.553,0.055l-12.58,0.063l-12.591,0.07l-12.617,0.077l-12.637,0.085l-12.647,0.091l-12.667,0.099l-12.692,0.105l-12.704,0.112l-12.722,0.119l-12.743,0.124l-12.76,0.132l-12.779,0.137l-12.798,0.143l-12.816,0.149l-12.828,0.155l-12.853,0.16l-12.864,0.166l-12.884,0.171l-12.903,0.176l-12.921,0.181l-12.938,0.186l-12.951,0.191l-12.978,0.195l-12.987,0.2l-13.005,0.204l-13.016,0.208l-13.045,0.213l-13.054,0.216l-13.072,0.22l-13.079,0.223l-26.235,0.458l-26.297,0.469l-26.361,0.482l-26.421,0.492l-26.487,0.502l-26.552,0.51l-26.611,0.516l-26.679,0.523l-53.542,1.059l-53.777,1.07l-0.006,0l-53.999,1.071l-0.015,0l-27.083,0.533l-0.016,0l-27.134,0.53l-0.021,0l-27.187,0.526l-0.026,0l-27.248,0.52l-0.029,0.001l-27.292,0.513l-0.032,0.001l-27.338,0.506l-0.039,0l-27.4,0.497l-0.04,0.001l-27.438,0.487l-0.033,0l-13.75,0.24l-0.024,0l-13.754,0.237l-0.025,0l-13.77,0.233l-0.025,0.001l-13.779,0.23l-0.026,0.001l-13.789,0.226l-0.029,0.001l-13.806,0.223l-0.029,0.001l-13.815,0.219l-0.029,0.001l-13.824,0.216l-0.032,0l-13.842,0.212l-0.032,0.001l-13.851,0.208l-0.031,0l-13.86,0.204l-0.034,0.001l-13.907,0.2l-0.093,0.001l-5.931,0.08l-0.131,0.001l-6.43,0.079l-0.113,0.001l-6.892,0.077l-0.095,0.001l-7.349,0.075l-0.082,0.001l-7.801,0.073l-0.073,0.001l-8.24,0.072l-0.066,0l-8.679,0.071l-0.056,0l-9.12,0.069l-0.053,0l-9.546,0.067l-0.045,0.001l-9.956,0.066l-0.042,0l-10.376,0.064l-0.038,0l-10.779,0.063l-0.037,0l-11.182,0.062l-0.031,0l-11.562,0.06l-0.03,0l-11.959,0.059l-0.029,0l-12.329,0.057l-0.037,0l-25.748,0.11l-0.044,0.001l-27.166,0.104l-0.04,0l-28.52,0.099l-0.034,0.001l-29.809,0.093l-0.032,0.001l-31.044,0.088l-0.028,0l-32.212,0.083l-0.026,0l-33.317,0.078l-0.023,0l-34.373,0.072l-0.022,0l-35.348,0.067l-0.019,0l-36.282,0.062l-0.018,0.001l-37.136,0.057l-0.017,0l-37.949,0.052l-0.016,0l-38.679,0.047l-0.015,0l-39.363,0.042l-0.014,0l-39.98,0.037l-0.014,0l-40.533,0.032l-0.014,0l-41.028,0.027l-0.013,0l-41.451,0.022l-0.012,0.001l-41.834,0.017l-0.012,0l-42.134,0.013l-0.012,0l-42.386,0.009l-0.011,0l-42.573,0.004l-0.011,0l-42.695,-0.001l-0.012,0l-42.76,-0.005l-0.01,0l-42.752,-0.01l-0.011,0l-42.703,-0.015l-0.011,0l-42.572,-0.018l-0.012,0l-42.385,-0.023l-0.011,0l-42.15,-0.027l-0.011,0l-41.832,-0.032l-0.012,0l-41.466,-0.036l-0.012,0l-41.043,-0.04l-0.012,0l-40.539,-0.044l-0.012,0l-39.995,-0.048l-0.013,0l-39.377,-0.052l-0.012,0l-38.694,-0.056l-0.014,0l-37.962,-0.06l-0.014,0l-37.157,-0.064l-0.015,0l-36.304,-0.068l-0.016,0l-35.376,-0.072l-0.018,0l-34.385,-0.076l-0.019,0l-33.345,-0.079l-0.02,0l-32.24,-0.083l-0.022,0l-31.062,-0.086l-0.025,-0.001l-29.835,-0.09l-0.027,0l-28.553,-0.094l-0.03,0l-27.19,-0.097l-0.035,0l-25.777,-0.101l-0.039,0l-24.31,-0.104l-0.046,0l-22.772,-0.108l-0.053,0l-21.169,-0.111l-0.047,-0.001l-9.977,-0.056l-0.036,-0.001l-9.559,-0.057l-0.039,-0.001l-9.123,-0.058l-0.043,0l-8.689,-0.06l-0.05,0l-8.255,-0.06l-0.056,-0.001l-7.798,-0.061l-0.062,0l-7.351,-0.062l-0.073,-0.001l-6.891,-0.063l-0.087,-0.001l-6.423,-0.064l-0.098,-0.001l-214.214,-2.335l4.543,-416.642l214.066,2.334l6.147,0.061l6.652,0.061l7.149,0.06l7.621,0.06l8.098,0.059l8.55,0.058l9,0.058l9.447,0.057l9.854,0.056l21.017,0.11l22.622,0.107l24.182,0.104l25.667,0.1l27.091,0.097l28.466,0.094l29.758,0.09l30.991,0.086l32.176,0.083l33.286,0.079l34.331,0.075l35.326,0.072l36.255,0.068l37.112,0.064l37.919,0.06l38.654,0.056l39.337,0.052l39.957,0.048l40.504,0.044l41.008,0.04l41.433,0.036l41.798,0.031l42.117,0.027l42.353,0.023l42.54,0.019l42.671,0.014l42.719,0.01l42.727,0.005l42.661,0.001l42.54,-0.004l42.351,-0.008l42.099,-0.013l41.797,-0.018l41.414,-0.023l40.99,-0.027l40.491,-0.032l39.938,-0.037l39.317,-0.042l38.633,-0.047l37.897,-0.052l37.082,-0.057l36.225,-0.062l35.286,-0.067l34.306,-0.072l33.244,-0.077l32.132,-0.083l30.954,-0.088l29.712,-0.094l28.409,-0.099l27.041,-0.104l25.626,-0.109l12.232,-0.057l11.872,-0.058l11.471,-0.06l11.082,-0.061l10.668,-0.062l10.255,-0.063l9.824,-0.065l9.399,-0.067l8.957,-0.067l8.497,-0.069l8.032,-0.07l7.567,-0.071l7.081,-0.072l6.578,-0.074l6.062,-0.074l5.594,-0.075l13.715,-0.197l13.761,-0.203l13.754,-0.206l13.746,-0.211l13.733,-0.214l13.729,-0.219l13.719,-0.222l13.707,-0.225l13.702,-0.229l13.695,-0.232l13.679,-0.235l13.663,-0.238l27.327,-0.485l27.281,-0.495l27.232,-0.504l27.203,-0.511l27.167,-0.519l27.119,-0.524l27.08,-0.529l27.035,-0.532l53.966,-1.069l53.783,-1.07l0.011,0l53.587,-1.061l0.02,0l26.736,-0.524l0.018,0l26.673,-0.518l0.023,-0.001l26.629,-0.511l0.028,-0.001l26.576,-0.503l0.031,0l26.524,-0.494l0.037,-0.001l26.48,-0.484l0.042,-0.001l26.427,-0.472l0.045,-0.001l26.359,-0.459l0.038,-0.001l13.175,-0.225l0.027,0l13.154,-0.222l0.027,0l13.139,-0.218l0.029,0l13.131,-0.214l0.028,0l13.109,-0.21l0.033,-0.001l13.102,-0.205l0.032,0l13.086,-0.202l0.034,0l13.079,-0.197l0.033,-0.001l13.056,-0.192l0.038,-0.001l13.05,-0.187l0.036,-0.001l13.035,-0.182l0.039,-0.001l13.018,-0.178l0.038,0l13.004,-0.173l0.041,0l12.99,-0.168l0.043,0l12.983,-0.162l0.042,-0.001l12.959,-0.156l0.044,-0.001l12.953,-0.15l0.046,-0.001l12.937,-0.144l0.046,-0.001l12.922,-0.139l0.049,0l12.907,-0.133l0.049,0l12.892,-0.127l0.05,0l12.877,-0.12l0.053,-0.001l12.862,-0.113l0.053,-0.001l12.855,-0.106l0.056,-0.001l12.832,-0.1l0.055,0l12.816,-0.093l0.058,0l12.81,-0.086l0.059,0l12.795,-0.079l0.06,0l12.772,-0.071l0.06,0l12.766,-0.064l0.063,0l12.742,-0.056l0.063,0l12.735,-0.048l0.067,0l12.72,-0.04l0.066,0l12.697,-0.032l0.068,0l12.69,-0.023l0.069,0l12.668,-0.015l0.07,0l12.661,-0.007l0.073,0l12.637,0.003Z" style="fill:#14a90c;fill-opacity:0.698039;"/><text x="7384.22px" y="7091.07px" style="font-family:'ArialMT';font-size:575.253px;fill:#000;fill-opacity:0.9;">A</text></svg>