<?xml version="1.0" standalone="no"?><!DOCTYPE svg PUBLIC "-//W3C//DTD SVG 1.1//EN" "http://www.w3.org/Graphics/SVG/1.1/DTD/svg11.dtd"><svg width="100%" height="100%" viewBox="0 0 15325 9605" version="1.1" xmlns="http://www.w3.org/2000/svg" xmlns:xlink="http://www.w3.org/1999/xlink" xml:space="preserve" style="fill-rule:evenodd;clip-rule:evenodd;stroke-linejoin:round;stroke-miterlimit:1;"><g><rect x="12765.8" y="2130.89" width="57.87" height="5057.87" style="fill:#000;"/><rect x="11534.5" y="2130.89" width="57.87" height="5057.87" style="fill:#000;"/><path d="M12823.7,4688.76l-11139.8,0l0,-57.87l11139.8,0l0,57.87Z" style="fill:#000;"/><rect x="10303.2" y="2130.89" width="57.87" height="5057.87" style="fill:#000;"/><rect x="9071.86" y="2130.89" width="57.87" height="5057.87" style="fill:#000;"/><rect x="7840.53" y="2130.89" width="57.87" height="5057.87" style="fill:#000;"/><rect x="6609.22" y="2130.89" width="57.87" height="5057.87" style="fill:#000;"/><rect x="5377.88" y="2130.89" width="57.87" height="5057.87" style="fill:#000;"/><rect x="4146.55" y="2130.89" width="57.87" height="5057.87" style="fill:#000;"/><rect x="2915.24" y="2130.89" width="57.87" height="5057.87" style="fill:#000;"/><rect x="1683.91" y="2130.89" width="57.87" height="5057.87" style="fill:#000;"/></g><path d="M6775.73,4964.19c0,-37.968 -30.826,-68.793 -68.794,-68.793l-137.587,0c-37.968,0 -68.794,30.825 -68.794,68.793l0,137.588c0,37.968 30.826,68.793 68.794,68.793l137.587,0c37.968,0 68.794,-30.825 68.794,-68.793l0,-137.588Z" style="fill:#1710fc;"/><path d="M6775.73,4217.87c0,-37.968 -30.826,-68.794 -68.794,-68.794l-137.587,0c-37.968,0 -68.794,30.826 -68.794,68.794l0,137.587c0,37.968 30.826,68.794 68.794,68.794l137.587,0c37.968,0 68.794,-30.826 68.794,-68.794l0,-137.587Z" style="fill:#1710fc;"/><path d="M9236.37,4217.87c0,-37.968 -30.825,-68.794 -68.793,-68.794l-137.588,0c-37.968,0 -68.793,30.826 -68.793,68.794l0,137.587c0,37.968 30.825,68.794 68.793,68.794l137.588,0c37.968,0 68.793,-30.826 68.793,-68.794l0,-137.587Z" style="fill:#1710fc;"/><path d="M9236.37,4964.19c0,-37.968 -30.825,-68.793 -68.793,-68.793l-137.588,0c-37.968,0 -68.793,30.825 -68.793,68.793l0,137.588c0,37.968 30.825,68.793 68.793,68.793l137.588,0c37.968,0 68.793,-30.825 68.793,-68.793l0,-137.588Z" style="fill:#1710fc;"/><path d="M1712.84,4659.82c1411.82,1.335 3500.14,4.621 4872.12,4.608c1205.44,-0.012 1635.35,-790.576 2513.82,-791.294c940.289,-0.767 714.485,755.184 3127.91,786.686" style="fill:none;stroke-width:416.67px;stroke:#14a90c;stroke-opacity:0.698039;"/><path d="M9407.28,5043.97l82.29,0l-126.601,126.601l-126.601,-126.601l82.291,0l0,-768.288l-82.291,0l126.601,-126.601l126.601,126.601l-82.29,0l0,768.288Z" style="fill:#000;"/><path d="M9372.35,6278.12l1533.52,0l0,18.75l-1546.77,0l-5.491,-5.492l0,-1120.81l18.75,0l0,1107.56Z" style="fill:#000;"/><text x="9489.57px" y="6167.71px" style="font-family:'ArialMT';font-size:575.253px;fill:#000;">2.4m</text></svg>