<?xml version="1.0" standalone="no"?><!DOCTYPE svg PUBLIC "-//W3C//DTD SVG 1.1//EN" "http://www.w3.org/Graphics/SVG/1.1/DTD/svg11.dtd"><svg width="100%" height="100%" viewBox="0 0 15325 9605" version="1.1" xmlns="http://www.w3.org/2000/svg" xmlns:xlink="http://www.w3.org/1999/xlink" xml:space="preserve" style="fill-rule:evenodd;clip-rule:evenodd;stroke-linejoin:round;stroke-miterlimit:1.41421;"><g><rect x="12766.9" y="2130.89" width="57.87" height="5057.87" style="fill:#000;"/><rect x="11535.6" y="2130.89" width="57.87" height="5057.87" style="fill:#000;"/><path d="M12824.8,4688.76l-11139.8,0l0,-57.87l11139.8,0l0,57.87Z" style="fill:#000;"/><rect x="10304.3" y="2130.89" width="57.87" height="5057.87" style="fill:#000;"/><rect x="9072.97" y="2130.89" width="57.87" height="5057.87" style="fill:#000;"/><rect x="7841.64" y="2130.89" width="57.87" height="5057.87" style="fill:#000;"/><rect x="6610.31" y="2130.89" width="57.87" height="5057.87" style="fill:#000;"/><rect x="5378.99" y="2130.89" width="57.87" height="5057.87" style="fill:#000;"/><rect x="4147.66" y="2130.89" width="57.87" height="5057.87" style="fill:#000;"/><rect x="2916.35" y="2130.89" width="57.87" height="5057.87" style="fill:#000;"/><rect x="1685.01" y="2130.89" width="57.87" height="5057.87" style="fill:#000;"/></g><path d="M2519.34,1953.44c0,-37.968 -30.825,-68.793 -68.794,-68.793l-137.587,0c-37.968,0 -68.794,30.825 -68.794,68.793l0,137.588c0,37.968 30.826,68.793 68.794,68.793l137.587,0c37.969,0 68.794,-30.825 68.794,-68.793l0,-137.588Z" style="fill:#1710fc;"/><path d="M4314.19,2403c0,-37.968 -30.826,-68.794 -68.794,-68.794l-137.587,0c-37.969,0 -68.794,30.826 -68.794,68.794l0,137.587c0,37.968 30.825,68.794 68.794,68.794l137.587,0c37.968,0 68.794,-30.826 68.794,-68.794l0,-137.587Z" style="fill:#1710fc;"/><path d="M6776.84,4591.03c0,-37.969 -30.826,-68.794 -68.794,-68.794l-137.587,0c-37.969,0 -68.794,30.825 -68.794,68.794l0,137.587c0,37.968 30.825,68.794 68.794,68.794l137.587,0c37.968,0 68.794,-30.826 68.794,-68.794l0,-137.587Z" style="fill:#1710fc;"/><path d="M5960.17,3236.87c0,-37.968 -30.825,-68.794 -68.794,-68.794l-137.587,0c-37.968,0 -68.794,30.826 -68.794,68.794l0,137.587c0,37.969 30.826,68.794 68.794,68.794l137.587,0c37.969,0 68.794,-30.825 68.794,-68.794l0,-137.587Z" style="fill:#1710fc;"/><path d="M3108.6,1526.89l11.424,0.124l11.659,0.122l11.845,0.12l12.025,0.117l12.225,0.116l12.408,0.114l12.559,0.112l12.74,0.11l12.879,0.108l26.241,0.211l26.775,0.205l27.273,0.199l27.704,0.193l28.087,0.188l28.419,0.183l28.686,0.178l28.905,0.175l29.067,0.172l58.43,0.334l58.428,0.326l58.007,0.321l0.007,0l57.138,0.32l0.012,0l28.105,0.161l0.012,0l27.732,0.162l0.015,0l27.312,0.163l0.019,0.001l26.812,0.165l0.023,0l26.278,0.168l0.026,0l25.697,0.171l0.033,0l25.034,0.174l0.037,0l24.34,0.178l0.043,0l23.598,0.182l0.05,0.001l22.82,0.187l0.115,0.001l4.848,0.045l0.175,0.002l4.876,0.053l0.172,0.002l4.877,0.062l0.175,0.002l4.878,0.07l0.175,0.003l4.876,0.078l0.172,0.002l4.876,0.086l0.171,0.004l4.877,0.094l0.175,0.003l4.878,0.102l0.174,0.004l4.876,0.11l0.169,0.004l4.87,0.118l0.165,0.005l4.892,0.126l0.178,0.005l4.88,0.134l0.175,0.005l4.876,0.143l0.172,0.005l4.875,0.15l0.172,0.006l4.875,0.158l0.171,0.006l4.869,0.166l0.159,0.006l4.891,0.174l0.185,0.007l4.88,0.183l0.168,0.007l4.874,0.19l0.171,0.007l4.868,0.198l0.156,0.007l4.89,0.206l0.184,0.008l4.881,0.215l0.171,0.008l4.874,0.222l0.168,0.008l4.865,0.23l0.154,0.007l4.891,0.239l0.189,0.009l4.88,0.247l0.166,0.009l4.862,0.253l0.152,0.008l4.89,0.263l0.187,0.01l4.882,0.27l0.168,0.01l4.873,0.278l0.171,0.01l4.861,0.285l0.144,0.009l4.888,0.294l0.192,0.011l4.883,0.303l0.165,0.01l4.859,0.309l0.145,0.009l4.889,0.318l0.194,0.013l4.883,0.326l0.165,0.011l4.869,0.333l0.165,0.012l4.858,0.34l0.145,0.01l4.888,0.349l0.19,0.014l4.882,0.358l0.165,0.012l4.87,0.364l0.167,0.013l4.857,0.372l0.14,0.01l4.886,0.381l0.193,0.015l4.882,0.389l0.164,0.013l4.87,0.396l0.167,0.014l4.855,0.402l0.134,0.011l4.885,0.412l0.194,0.016l4.883,0.421l0.164,0.014l4.868,0.427l0.165,0.014l4.853,0.434l0.135,0.012l4.884,0.442l0.193,0.018l4.883,0.452l0.164,0.015l4.867,0.458l0.164,0.015l4.868,0.466l0.164,0.016l4.867,0.473l0.164,0.016l4.866,0.481l0.161,0.016l4.848,0.487l0.128,0.013l4.882,0.497l0.197,0.02l4.885,0.506l0.166,0.017l4.866,0.512l0.158,0.017l4.864,0.519l0.164,0.018l4.867,0.527l0.163,0.018l4.864,0.535l0.158,0.017l4.864,0.542l0.163,0.019l4.865,0.55l0.161,0.018l4.865,0.558l0.163,0.019l4.864,0.565l0.157,0.018l4.864,0.573l0.162,0.02l4.885,0.583l0.2,0.024l4.848,0.588l0.119,0.015l4.842,0.593l0.157,0.019l4.862,0.603l0.16,0.02l4.863,0.611l0.16,0.02l4.863,0.619l0.159,0.02l4.885,0.629l0.203,0.026l4.845,0.634l0.113,0.015l4.839,0.638l0.156,0.021l4.885,0.651l0.207,0.028l4.846,0.657l0.112,0.015l4.836,0.66l0.153,0.021l4.886,0.675l0.21,0.029l4.845,0.679l0.104,0.015l4.86,0.686l0.209,0.029l4.843,0.694l0.103,0.015l4.86,0.701l0.209,0.03l4.845,0.709l0.104,0.015l4.86,0.716l0.207,0.031l4.869,0.728l0.156,0.023l4.817,0.727l0.102,0.016l4.86,0.738l0.208,0.032l4.87,0.75l0.155,0.024l4.815,0.75l0.098,0.015l4.857,0.76l0.21,0.034l4.869,0.772l0.152,0.024l4.843,0.776l0.157,0.025l4.842,0.783l0.149,0.025l4.84,0.79l0.154,0.025l4.843,0.798l0.154,0.026l4.841,0.805l0.152,0.025l4.839,0.813l0.152,0.025l4.839,0.82l0.152,0.026l4.84,0.827l0.154,0.026l4.841,0.835l0.151,0.026l4.839,0.842l0.151,0.027l4.869,0.854l0.213,0.038l4.821,0.856l0.087,0.015l4.808,0.858l0.153,0.028l4.871,0.877l0.214,0.039l4.82,0.878l0.086,0.016l4.838,0.885l0.217,0.04l4.822,0.893l0.084,0.016l4.836,0.9l0.212,0.04l4.82,0.907l0.085,0.016l4.839,0.915l0.215,0.041l4.853,0.928l0.148,0.029l4.787,0.922l0.083,0.017l4.837,0.936l0.214,0.042l4.852,0.95l0.147,0.029l4.82,0.951l0.15,0.029l4.819,0.959l0.147,0.029l4.819,0.965l0.147,0.03l4.818,0.972l0.147,0.03l4.818,0.979l0.146,0.03l4.818,0.987l0.147,0.03l4.853,1.001l0.217,0.046l4.802,1.001l0.075,0.016l4.782,1l0.146,0.031l4.852,1.023l0.216,0.046l4.8,1.022l0.073,0.016l4.781,1.022l0.146,0.031l4.854,1.045l0.219,0.047l4.836,1.052l0.144,0.032l4.762,1.042l0.071,0.016l4.816,1.058l0.217,0.048l4.835,1.074l0.143,0.031l4.799,1.073l0.146,0.032l4.799,1.08l0.142,0.032l4.798,1.086l0.142,0.033l4.799,1.093l0.145,0.034l4.797,1.1l0.14,0.032l4.797,1.108l0.145,0.033l4.798,1.115l0.142,0.033l4.795,1.121l0.14,0.033l4.836,1.138l0.224,0.053l4.78,1.136l0.059,0.014l4.796,1.142l0.222,0.053l4.78,1.15l0.061,0.015l4.796,1.157l0.223,0.053l4.778,1.164l0.057,0.014l4.795,1.17l0.223,0.055l4.819,1.188l0.139,0.034l4.778,1.184l0.141,0.035l4.778,1.192l0.138,0.035l4.778,1.198l0.141,0.035l4.778,1.206l0.138,0.035l4.776,1.212l0.138,0.035l4.776,1.219l0.138,0.035l4.821,1.237l0.226,0.059l4.759,1.233l0.049,0.012l4.776,1.24l0.227,0.059l4.759,1.247l0.048,0.012l4.776,1.254l0.227,0.06l4.759,1.26l0.047,0.013l4.774,1.267l0.225,0.06l4.803,1.286l0.137,0.037l4.759,1.281l0.137,0.037l4.758,1.288l0.134,0.036l4.757,1.295l0.136,0.037l4.758,1.301l0.133,0.037l4.758,1.308l0.136,0.038l4.804,1.328l0.227,0.063l4.74,1.322l0.039,0.011l4.71,1.315l0.135,0.038l4.804,1.349l0.229,0.065l4.785,1.355l0.13,0.037l4.693,1.336l0.042,0.012l4.757,1.356l0.226,0.065l4.784,1.375l0.13,0.038l4.739,1.369l0.135,0.039l4.74,1.377l0.132,0.038l4.739,1.383l0.132,0.039l4.737,1.389l0.129,0.038l4.785,1.41l0.229,0.068l4.721,1.403l0.036,0.011l4.738,1.41l0.228,0.068l4.72,1.416l0.032,0.01l4.737,1.423l0.229,0.069l4.769,1.444l0.129,0.039l4.67,1.422l0.033,0.01l4.736,1.443l0.227,0.069l4.769,1.465l0.131,0.041l4.72,1.456l0.128,0.04l4.768,1.478l0.229,0.071l4.702,1.47l0.027,0.009l4.668,1.46l0.128,0.04l4.769,1.499l0.232,0.073l4.701,1.489l0.024,0.008l4.717,1.496l0.232,0.074l4.753,1.519l0.125,0.04l4.699,1.509l0.128,0.041l4.701,1.516l0.127,0.041l4.701,1.523l0.127,0.041l4.699,1.529l0.125,0.04l4.699,1.535l0.127,0.042l4.751,1.559l0.229,0.075l4.684,1.549l0.024,0.008l4.699,1.555l0.227,0.076l4.681,1.561l0.02,0.007l4.699,1.568l0.23,0.077l4.735,1.593l0.126,0.042l4.682,1.582l0.124,0.041l4.681,1.588l0.123,0.042l4.681,1.594l0.123,0.042l4.736,1.619l0.233,0.08l4.664,1.607l0.012,0.005l4.625,1.594l0.123,0.042l4.736,1.639l0.234,0.082l4.718,1.645l0.12,0.043l4.663,1.632l0.122,0.043l4.663,1.639l0.12,0.042l4.663,1.646l0.125,0.044l4.663,1.653l0.119,0.042l4.661,1.658l0.119,0.043l4.663,1.665l0.124,0.044l4.718,1.692l0.229,0.082l4.653,1.681l4.662,1.684l0.235,0.085l4.701,1.711l0.119,0.044l4.643,1.696l0.119,0.044l4.643,1.703l0.119,0.043l4.645,1.71l0.12,0.044l4.644,1.716l0.116,0.043l4.7,1.743l0.236,0.088l4.63,1.73l4.642,1.735l0.231,0.086l4.684,1.763l0.121,0.046l4.567,1.725l4.641,1.753l0.234,0.089l4.743,1.804l0.235,0.09l4.607,1.766l4.564,1.749l0.118,0.045l4.684,1.802l0.235,0.091l4.606,1.784l4.623,1.791l0.235,0.091l4.667,1.821l0.114,0.045l4.607,1.803l0.114,0.045l4.608,1.81l0.116,0.046l4.606,1.816l0.112,0.044l4.607,1.822l0.118,0.047l4.668,1.853l0.232,0.093l4.584,1.832l4.602,1.84l0.235,0.094l4.65,1.871l0.113,0.046l4.59,1.854l0.116,0.047l4.588,1.859l0.108,0.044l4.588,1.865l0.115,0.047l4.59,1.872l0.112,0.046l4.649,1.903l0.234,0.096l4.565,1.882l4.582,1.888l0.234,0.096l4.633,1.922l0.112,0.047l4.572,1.903l0.112,0.046l4.569,1.909l0.107,0.044l4.571,1.915l0.114,0.048l4.633,1.947l0.233,0.098l4.545,1.924l4.563,1.93l0.235,0.1l4.616,1.965l0.109,0.047l4.552,1.945l0.109,0.046l4.552,1.951l0.109,0.047l4.553,1.957l0.111,0.048l4.551,1.963l0.107,0.046l4.614,1.996l0.237,0.103l4.525,1.971l4.54,1.976l0.234,0.103l4.598,2.015l0.108,0.047l4.535,1.993l0.108,0.048l4.535,1.999l0.108,0.048l4.598,2.034l0.236,0.104l4.503,2.005l4.522,2.012l0.24,0.107l4.582,2.053l0.103,0.046l4.438,1.994l4.521,2.029l0.235,0.106l4.647,2.1l0.237,0.107l4.485,2.041l4.502,2.046l0.239,0.109l4.483,2.052l4.499,2.057l0.236,0.108l4.567,2.102l0.109,0.05l4.498,2.077l0.099,0.045l4.496,2.082l0.104,0.048l4.565,2.119l0.237,0.111l4.466,2.087l4.48,2.091l0.234,0.11l4.548,2.137l0.108,0.051l4.481,2.112l0.098,0.046l4.479,2.117l0.103,0.048l4.481,2.124l0.103,0.049l4.546,2.161l0.234,0.111l4.45,2.128l4.464,2.134l0.23,0.11l4.53,2.179l0.106,0.051l4.464,2.153l0.098,0.047l4.459,2.157l0.098,0.047l4.53,2.197l0.24,0.116l4.429,2.162l4.443,2.167l0.235,0.115l4.512,2.213l0.097,0.048l4.445,2.187l0.101,0.05l4.447,2.193l0.101,0.05l4.444,2.199l0.097,0.048l4.512,2.237l0.236,0.118l4.404,2.198l4.422,2.205l0.24,0.12l4.498,2.257l0.096,0.048l4.425,2.226l0.096,0.048l4.496,2.268l0.237,0.12l4.39,2.228l4.405,2.233l0.232,0.118l4.48,2.285l0.099,0.051l4.411,2.256l0.095,0.049l4.409,2.261l0.095,0.049l4.408,2.266l0.095,0.049l4.479,2.308l0.238,0.123l4.372,2.268l4.386,2.272l0.233,0.121l4.461,2.325l0.094,0.049l4.39,2.294l0.09,0.047l4.463,2.338l0.243,0.128l4.351,2.294l4.364,2.297l0.234,0.123l4.447,2.356l0.098,0.052l4.374,2.323l0.09,0.048l4.37,2.326l0.089,0.047l4.374,2.334l0.098,0.053l4.447,2.378l0.235,0.126l4.428,2.384l0.093,0.05l4.355,2.35l0.089,0.048l4.355,2.355l0.093,0.05l4.358,2.362l0.092,0.051l4.355,2.366l0.089,0.048l4.428,2.412l0.24,0.131l4.412,2.418l0.088,0.049l4.338,2.383l0.093,0.051l4.338,2.389l0.088,0.048l4.338,2.394l0.092,0.051l4.412,2.441l0.236,0.131l4.393,2.445l0.088,0.049l4.321,2.411l0.092,0.051l4.321,2.417l0.088,0.049l4.319,2.42l0.087,0.049l4.321,2.427l0.091,0.052l4.394,2.473l0.232,0.132l4.377,2.479l0.091,0.052l4.307,2.445l0.091,0.051l4.302,2.448l0.082,0.047l4.3,2.453l0.087,0.049l4.379,2.503l0.241,0.138l4.361,2.508l0.082,0.048l4.286,2.469l0.09,0.052l4.287,2.477l0.086,0.049l4.283,2.48l0.082,0.047l4.361,2.53l0.242,0.141l4.233,2.471l4.247,2.475l0.238,0.139l4.423,2.592l0.242,0.143l4.216,2.487l4.154,2.445l0.085,0.05l4.342,2.563l0.234,0.138l4.328,2.569l0.089,0.053l4.252,2.529l0.08,0.048l4.25,2.533l0.084,0.051l4.329,2.586l0.238,0.143l4.196,2.521l4.212,2.527l0.238,0.144l4.31,2.601l0.08,0.048l4.31,2.607l0.239,0.145l4.182,2.544l4.197,2.549l0.235,0.143l4.293,2.623l0.084,0.051l4.215,2.582l0.08,0.048l4.213,2.585l0.079,0.049l4.216,2.591l0.083,0.051l4.293,2.645l0.236,0.146l4.276,2.65l0.083,0.051l4.199,2.608l0.079,0.049l4.197,2.611l0.078,0.049l4.277,2.666l0.24,0.15l4.143,2.599l4.156,2.602l0.236,0.148l4.259,2.681l0.078,0.05l4.259,2.687l0.236,0.149l4.127,2.62l4.141,2.623l0.232,0.148l4.243,2.703l0.081,0.052l4.165,2.659l0.078,0.05l4.162,2.663l0.078,0.05l4.24,2.718l0.233,0.149l4.226,2.725l0.081,0.052l4.148,2.68l0.077,0.05l4.146,2.684l0.077,0.05l4.224,2.739l0.233,0.152l4.09,2.668l4.106,2.673l0.232,0.152l4.208,2.755l0.076,0.05l4.129,2.71l0.077,0.05l4.207,2.766l0.234,0.153l4.193,2.773l0.079,0.053l4.113,2.725l0.072,0.047l4.109,2.728l0.072,0.047l4.112,2.735l0.08,0.053l4.193,2.793l0.233,0.156l4.047,2.712l4.146,2.773l0.4,0.269l4.116,2.779l3.969,2.675l0.071,0.048l4.175,2.818l0.237,0.161l4.158,2.824l0.071,0.048l4.075,2.773l0.071,0.048l4.077,2.778l0.075,0.051l4.158,2.839l0.234,0.161l4.141,2.844l0.075,0.051l4.06,2.794l0.07,0.048l4.058,2.798l0.071,0.048l4.142,2.86l0.238,0.165l3.996,2.776l4.011,2.779l0.234,0.163l4.206,2.932l0.234,0.163l3.978,2.789l3.995,2.795l0.238,0.167l3.975,2.797l4.075,2.86l0.403,0.284l4.04,2.865l3.892,2.752l0.073,0.052l4.109,2.911l0.234,0.167l4.089,2.914l0.065,0.046l4.091,2.92l0.238,0.171l3.941,2.83l3.957,2.834l0.238,0.172l4.074,2.935l0.065,0.047l3.989,2.879l0.069,0.049l3.99,2.886l0.069,0.049l4.074,2.95l0.235,0.171l4.055,2.954l0.065,0.047l3.972,2.899l0.068,0.049l4.058,2.966l0.235,0.172l3.904,2.87l3.92,2.875l0.235,0.173l4.041,2.98l0.067,0.05l4.04,2.984l0.232,0.172l3.888,2.89l3.907,2.896l0.235,0.174l4.023,2.999l0.063,0.048l3.937,2.94l0.063,0.047l4.023,3.009l0.235,0.177l4.007,3.014l0.063,0.047l3.922,2.956l0.066,0.05l3.922,2.96l0.063,0.048l4.005,3.027l0.231,0.176l3.99,3.034l0.066,0.05l3.904,2.973l0.059,0.045l3.905,2.979l0.07,0.053l3.905,2.984l0.058,0.045l3.989,3.052l0.235,0.18l3.971,3.057l0.059,0.045l3.972,3.062l0.235,0.182l3.818,2.961l3.834,2.965l0.235,0.182l3.955,3.077l0.058,0.045l3.869,3.014l0.061,0.048l3.955,3.086l0.232,0.181l3.941,3.093l0.064,0.05l3.854,3.029l0.057,0.046l3.852,3.032l0.061,0.048l3.939,3.105l0.231,0.183l3.923,3.111l0.06,0.048l3.837,3.047l0.061,0.048l3.834,3.051l0.058,0.045l3.922,3.125l0.235,0.188l3.763,3.015l3.863,3.087l0.404,0.324l3.829,3.091l3.761,3.027l0.232,0.187l3.747,3.034l3.85,3.108l0.404,0.328l3.812,3.109l3.743,3.044l0.232,0.189l3.871,3.166l0.056,0.046l3.785,3.1l0.059,0.049l3.785,3.104l0.056,0.046l3.871,3.18l0.231,0.191l3.855,3.185l0.055,0.046l3.768,3.118l0.059,0.049l3.854,3.194l0.229,0.19l3.836,3.198l0.055,0.046l3.752,3.132l0.058,0.048l3.752,3.136l0.055,0.046l3.836,3.212l0.228,0.192l3.822,3.217l0.058,0.049l3.733,3.148l0.051,0.044l3.733,3.152l0.058,0.048l3.821,3.232l0.229,0.194l3.805,3.236l0.057,0.049l3.716,3.165l0.051,0.044l3.802,3.242l0.229,0.196l3.788,3.25l0.057,0.049l3.7,3.179l0.05,0.043l3.7,3.183l0.057,0.049l3.787,3.262l0.225,0.195l3.624,3.14l3.728,3.221l0.4,0.347l3.691,3.222l3.622,3.151l0.228,0.199l3.754,3.285l0.053,0.047l3.666,3.213l0.053,0.047l3.754,3.294l0.228,0.201l3.585,3.165l3.69,3.247l0.403,0.356l3.659,3.253l3.587,3.179l0.224,0.2l3.719,3.315l0.052,0.047l3.633,3.243l0.053,0.046l3.631,3.246l0.049,0.044l3.719,3.329l0.228,0.204l3.703,3.335l0.052,0.047l3.703,3.338l0.225,0.203l3.533,3.204l3.551,3.209l0.227,0.206l3.774,3.432l0.224,0.204l3.52,3.219l3.535,3.222l0.224,0.205l3.668,3.363l0.048,0.044l3.581,3.288l0.051,0.047l3.67,3.374l0.224,0.206l3.651,3.377l0.048,0.044l3.565,3.3l0.05,0.047l3.653,3.387l0.224,0.208l3.634,3.388l0.044,0.042l3.548,3.312l0.053,0.05l3.549,3.317l0.044,0.042l3.633,3.401l0.224,0.21l3.618,3.407l0.047,0.044l3.532,3.329l0.049,0.047l3.619,3.416l0.22,0.209l3.602,3.42l0.05,0.047l3.513,3.34l0.044,0.042l3.601,3.428l0.227,0.216l3.43,3.285l3.445,3.287l0.223,0.214l3.674,3.526l0.223,0.215l3.569,3.446l0.045,0.045l3.481,3.364l0.045,0.045l3.479,3.367l0.043,0.041l3.478,3.371l0.046,0.045l3.569,3.462l0.222,0.217l3.552,3.467l0.046,0.045l3.551,3.47l0.219,0.215l3.535,3.475l0.045,0.044l3.445,3.392l0.042,0.041l3.447,3.397l0.048,0.047l3.534,3.487l0.217,0.214l3.516,3.49l0.045,0.044l3.43,3.409l0.044,0.044l3.518,3.5l0.219,0.219l3.501,3.504l0.045,0.044l3.412,3.419l0.041,0.042l3.5,3.511l0.219,0.22l3.484,3.516l0.044,0.045l3.396,3.431l0.041,0.041l3.396,3.435l0.043,0.044l3.485,3.529l0.219,0.222l3.466,3.532l0.041,0.042l3.466,3.535l0.219,0.224l3.293,3.379l3.31,3.383l0.221,0.227l3.54,3.641l0.218,0.225l3.432,3.552l0.038,0.038l3.344,3.465l0.043,0.044l3.346,3.469l0.04,0.042l3.346,3.473l0.042,0.045l3.434,3.568l0.215,0.225l3.504,3.664l0.218,0.229l3.242,3.41l3.259,3.415l0.217,0.229l3.4,3.584l0.04,0.042l3.398,3.588l0.215,0.227l3.384,3.593l0.042,0.044l3.294,3.503l0.037,0.039l3.294,3.506l0.042,0.044l3.383,3.605l0.215,0.229l3.364,3.606l0.036,0.039l3.367,3.613l0.22,0.237l3.35,3.617l0.036,0.039l3.26,3.523l0.039,0.042l3.26,3.527l0.036,0.039l3.349,3.627l0.216,0.235l3.333,3.633l0.039,0.042l3.243,3.538l0.036,0.039l3.332,3.64l0.216,0.236l3.316,3.644l0.035,0.039l3.315,3.646l0.213,0.235l3.143,3.478l3.158,3.481l0.21,0.233l3.387,3.756l0.216,0.24l3.282,3.663l0.035,0.039l3.194,3.568l0.037,0.041l3.194,3.572l0.034,0.039l3.282,3.673l0.212,0.238l3.265,3.678l0.034,0.039l3.177,3.582l0.037,0.041l3.266,3.687l0.212,0.24l3.248,3.689l0.034,0.039l3.16,3.591l0.034,0.039l3.248,3.696l0.211,0.242l3.232,3.7l0.034,0.039l3.144,3.604l0.036,0.042l3.231,3.708l0.209,0.24l3.215,3.712l0.036,0.041l3.215,3.716l0.209,0.242l3.036,3.532l3.144,3.641l0.391,0.455l3.108,3.642l3.035,3.54l0.21,0.246l3.182,3.735l0.033,0.038l3.091,3.633l0.031,0.036l3.182,3.742l0.212,0.251l3.165,3.746l0.03,0.036l3.164,3.748l0.21,0.249l2.988,3.563l3.091,3.67l0.384,0.458l3.058,3.673l2.988,3.572l0.209,0.251l3.13,3.767l0.03,0.036l3.13,3.77l0.209,0.253l3.114,3.774l0.03,0.036l3.025,3.671l0.032,0.039l3.114,3.782l0.206,0.251l2.937,3.589l3.041,3.701l0.382,0.468l3.008,3.703l2.937,3.599l0.205,0.253l3.168,3.908l0.205,0.254l2.903,3.604l3.008,3.718l0.382,0.474l2.972,3.718l2.901,3.611l0.204,0.256l3.047,3.818l0.031,0.038l2.959,3.712l0.029,0.036l3.046,3.824l0.204,0.257l3.029,3.828l0.029,0.035l3.03,3.833l0.206,0.261l3.013,3.836l0.026,0.033l2.924,3.725l0.028,0.036l3.014,3.843l0.205,0.263l2.996,3.846l0.026,0.032l2.908,3.737l0.03,0.038l2.996,3.853l0.201,0.259l2.978,3.855l0.028,0.035l2.892,3.747l0.027,0.035l2.98,3.864l0.202,0.263l2.963,3.866l0.027,0.036l2.963,3.871l0.201,0.264l2.784,3.66l2.887,3.778l0.376,0.495l2.855,3.783l2.785,3.672l0.201,0.266l3.015,4.002l0.199,0.264l2.751,3.676l2.768,3.679l0.198,0.265l3,4.014l0.202,0.272l2.895,3.901l0.022,0.029l2.808,3.786l0.026,0.035l2.809,3.792l0.026,0.035l2.895,3.91l0.197,0.268l2.965,4.032l0.199,0.271l2.701,3.698l2.716,3.7l0.197,0.268l2.948,4.043l0.198,0.273l2.685,3.706l2.787,3.829l0.371,0.512l2.753,3.831l2.683,3.714l0.196,0.271l2.827,3.94l0.023,0.033l2.828,3.943l0.195,0.273l2.811,3.948l0.025,0.035l2.726,3.831l0.023,0.032l2.811,3.953l0.194,0.275l2.794,3.956l0.023,0.032l2.794,3.961l0.194,0.275l2.777,3.964l0.023,0.032l2.691,3.845l0.023,0.032l2.777,3.97l0.193,0.277l2.761,3.973l0.022,0.032l2.675,3.854l0.023,0.032l2.76,3.98l0.193,0.278l2.744,3.983l0.022,0.032l2.743,3.985l0.19,0.278l2.727,3.989l0.024,0.035l2.642,3.869l0.02,0.029l2.726,3.995l0.191,0.281l2.711,3.999l0.021,0.032l2.711,4.003l0.191,0.283l2.693,4.005l0.019,0.029l2.608,3.882l0.022,0.031l2.608,3.885l0.019,0.029l2.778,4.141l0.359,0.538l2.586,3.907l2.518,3.783l0.188,0.283l2.659,4.023l0.021,0.032l2.659,4.027l0.187,0.284l2.643,4.03l0.021,0.032l2.558,3.905l0.019,0.029l2.642,4.035l0.186,0.286l2.626,4.039l0.021,0.031l2.627,4.045l0.187,0.289l2.608,4.045l0.017,0.026l2.525,3.918l0.02,0.031l2.609,4.053l0.185,0.288l2.593,4.055l0.02,0.031l2.592,4.059l0.185,0.289l2.574,4.059l0.016,0.026l2.492,3.932l0.02,0.032l2.577,4.068l0.185,0.294l2.558,4.07l0.016,0.025l2.475,3.94l0.018,0.028l2.559,4.077l0.184,0.295l2.624,4.211l0.181,0.291l2.524,4.081l0.019,0.031l2.443,3.952l0.016,0.026l2.442,3.955l0.019,0.03l2.525,4.091l0.18,0.292l2.589,4.227l0.181,0.296l2.338,3.845l2.436,3.982l0.341,0.563l2.4,3.978l2.335,3.849l0.181,0.3l2.556,4.244l0.178,0.296l2.303,3.853l2.402,3.994l0.341,0.571l2.368,3.995l2.303,3.861l0.177,0.298l2.52,4.257l0.176,0.299l2.424,4.127l0.018,0.03l2.344,3.993l0.015,0.025l2.422,4.13l0.176,0.3l2.406,4.134l0.016,0.027l2.328,4.001l0.016,0.027l2.406,4.139l0.173,0.299l2.39,4.142l0.017,0.03l2.391,4.147l0.173,0.303l2.373,4.147l0.014,0.025l2.372,4.151l0.173,0.303l2.357,4.155l0.015,0.027l2.277,4.017l0.014,0.025l2.356,4.159l0.172,0.305l2.34,4.163l0.015,0.027l2.34,4.166l0.171,0.306l2.322,4.168l0.014,0.024l2.322,4.171l0.171,0.307l2.155,3.902l2.251,4.048l0.328,0.594l2.367,4.321l0.012,0.022l2.21,4.039l0.015,0.027l2.21,4.042l0.012,0.022l2.289,4.186l0.17,0.313l2.35,4.334l0.168,0.311l2.255,4.192l0.011,0.022l2.177,4.05l0.013,0.024l2.256,4.199l0.168,0.315l2.238,4.201l0.012,0.022l2.161,4.058l0.012,0.024l2.239,4.206l0.166,0.313l2.297,4.353l0.164,0.313l2.205,4.212l0.014,0.026l2.128,4.069l0.011,0.021l2.204,4.215l0.163,0.314l2.188,4.22l0.013,0.026l2.112,4.076l0.011,0.021l2.187,4.224l0.164,0.317l2.246,4.374l0.161,0.316l2.154,4.23l0.012,0.023l2.078,4.085l0.011,0.021l2.154,4.234l0.161,0.32l2.137,4.237l0.011,0.021l2.062,4.092l0.012,0.023l2.136,4.243l0.16,0.318l2.194,4.394l0.16,0.322l2.103,4.248l0.011,0.021l2.028,4.1l0.011,0.02l2.103,4.253l0.159,0.323l2.086,4.256l0.01,0.021l2.086,4.257l0.157,0.322l2.069,4.261l0.011,0.022l1.996,4.112l0.009,0.018l2.069,4.265l0.157,0.325l2.126,4.42l0.155,0.324l2.035,4.27l0.01,0.021l1.963,4.12l0.009,0.02l2.036,4.277l0.155,0.327l2.019,4.278l0.008,0.018l1.946,4.126l0.01,0.02l2.091,4.437l0.297,0.636l1.918,4.14l1.861,3.988l0.153,0.327l1.984,4.29l0.01,0.02l1.984,4.293l0.152,0.328l2.038,4.45l0.151,0.33l1.815,3.998l1.83,3.999l0.149,0.327l2.021,4.457l0.151,0.333l1.934,4.305l0.008,0.018l1.933,4.305l0.148,0.329l1.917,4.31l0.01,0.022l1.847,4.156l0.008,0.017l1.917,4.312l0.146,0.331l1.9,4.317l0.01,0.021l1.9,4.32l0.146,0.332l1.882,4.319l0.008,0.017l1.883,4.323l0.145,0.335l1.867,4.327l0.008,0.019l1.866,4.327l0.143,0.332l1.849,4.33l0.009,0.021l1.85,4.334l0.143,0.334l1.701,4.025l1.785,4.185l0.276,0.654l1.883,4.499l0.007,0.019l1.75,4.183l0.008,0.019l1.815,4.343l0.139,0.335l1.799,4.345l0.007,0.019l1.799,4.349l0.14,0.338l1.781,4.35l0.007,0.016l1.782,4.353l0.138,0.339l1.765,4.355l0.007,0.019l1.765,4.357l0.136,0.338l1.748,4.359l0.007,0.018l1.684,4.201l0.006,0.016l1.748,4.363l0.135,0.338l1.731,4.366l0.007,0.018l1.731,4.369l0.135,0.342l1.778,4.534l0.134,0.343l1.697,4.372l0.005,0.013l1.634,4.212l0.007,0.017l1.697,4.378l0.132,0.341l1.681,4.379l0.006,0.018l1.681,4.382l0.131,0.343l1.662,4.381l0.006,0.014l1.6,4.221l0.007,0.017l1.664,4.388l0.129,0.344l1.709,4.555l0.13,0.348l1.629,4.392l0.004,0.012l1.63,4.393l0.129,0.349l1.613,4.397l0.004,0.014l1.552,4.23l0.004,0.013l1.613,4.401l0.128,0.35l1.656,4.569l0.125,0.346l1.462,4.078l1.538,4.248l0.244,0.68l1.62,4.575l0.006,0.015l1.502,4.243l0.006,0.015l1.561,4.413l0.123,0.349l1.545,4.414l0.005,0.015l1.545,4.416l0.121,0.348l1.528,4.418l0.006,0.017l1.528,4.42l0.12,0.35l1.51,4.421l0.005,0.015l1.511,4.424l0.12,0.352l1.494,4.426l0.004,0.013l1.436,4.257l0.005,0.013l1.551,4.601l0.232,0.695l1.406,4.267l1.365,4.098l0.117,0.355l1.517,4.607l0.116,0.355l1.443,4.438l0.004,0.012l1.387,4.268l0.004,0.012l1.443,4.442l0.115,0.355l1.481,4.615l0.113,0.354l1.409,4.445l0.005,0.014l1.355,4.276l0.004,0.012l1.409,4.449l0.112,0.357l1.446,4.624l0.111,0.356l1.375,4.452l0.004,0.012l1.322,4.282l0.004,0.014l1.375,4.457l0.11,0.357l1.411,4.63l0.108,0.358l1.342,4.461l0.004,0.013l1.292,4.298l1.341,4.463l0.107,0.358l1.324,4.467l0.004,0.012l1.325,4.469l0.106,0.359l1.358,4.644l0.105,0.362l1.294,4.48l1.242,4.306l1.291,4.476l0.104,0.363l1.276,4.485l1.273,4.478l0.103,0.364l1.259,4.488l1.257,4.481l0.101,0.364l1.289,4.661l0.1,0.364l1.224,4.493l1.175,4.309l0.003,0.01l1.222,4.49l0.099,0.365l1.208,4.497l1.205,4.492l0.098,0.365l1.191,4.503l1.189,4.495l0.096,0.365l1.218,4.676l0.095,0.367l1.156,4.506l1.112,4.331l1.155,4.502l0.093,0.365l1.14,4.513l1.138,4.506l0.092,0.367l1.165,4.686l0.091,0.368l1.106,4.515l1.062,4.339l1.104,4.513l0.089,0.368l1.088,4.518l1.087,4.514l0.089,0.371l1.113,4.699l0.087,0.369l1.054,4.523l1.012,4.345l1.054,4.523l0.086,0.372l1.077,4.705l0.084,0.368l1.021,4.531l1.018,4.525l0.083,0.368l1.004,4.538l0.963,4.352l1.002,4.529l0.081,0.372l1.025,4.714l0.08,0.372l0.97,4.541l0.968,4.535l0.079,0.37l0.953,4.546l0.951,4.539l0.077,0.371l0.935,4.542l0.899,4.367l0.972,4.726l0.149,0.739l0.864,4.36l0.88,4.363l0.147,0.742l0.92,4.737l0.849,4.372l0.883,4.549l0.072,0.373l0.868,4.556l0.866,4.552l0.07,0.373l0.884,4.738l0.069,0.376l0.766,4.189l0.815,4.375l0.136,0.743l0.849,4.749l0.816,4.558l0.066,0.375l0.799,4.563l0.767,4.382l0.798,4.564l0.065,0.376l0.813,4.75l0.064,0.376l0.765,4.571l0.765,4.566l0.061,0.374l0.749,4.575l0.748,4.571l0.06,0.376l0.731,4.573l0.73,4.571l0.06,0.377l0.714,4.578l0.714,4.576l0.058,0.378l0.725,4.763l0.056,0.375l0.68,4.581l0.653,4.395l0.679,4.579l0.056,0.38l0.689,4.768l0.054,0.378l0.646,4.584l0.645,4.583l0.053,0.378l0.629,4.589l0.628,4.586l0.052,0.378l0.611,4.589l0.612,4.587l0.05,0.379l0.595,4.594l0.594,4.589l0.048,0.378l0.601,4.779l0.048,0.381l0.561,4.595l0.537,4.407l0.561,4.594l0.045,0.38l0.566,4.784l0.045,0.382l0.526,4.598l0.527,4.596l0.043,0.38l0.51,4.603l0.509,4.6l0.042,0.381l0.492,4.601l0.493,4.601l0.04,0.382l0.495,4.793l0.039,0.381l0.458,4.604l0.44,4.419l0.459,4.607l0.037,0.381l0.46,4.796l0.035,0.381l0.425,4.609l0.425,4.608l0.034,0.383l0.408,4.611l0.407,4.61l0.033,0.381l0.407,4.802l0.032,0.383l0.373,4.614l0.359,4.425l0.373,4.615l0.03,0.38l0.372,4.806l0.029,0.382l0.339,4.619l0.34,4.618l0.027,0.381l0.323,4.619l0.323,4.619l0.026,0.382l0.318,4.811l0.024,0.382l0.289,4.622l0.277,4.432l0.289,4.623l0.023,0.382l0.283,4.814l0.021,0.381l0.255,4.626l0.255,4.626l0.02,0.382l0.238,4.626l0.238,4.627l0.018,0.382l0.23,4.819l0.018,0.382l0.204,4.628l0.203,4.629l0.016,0.382l0.187,4.632l0.179,4.441l0.195,4.823l0.028,0.762l0.159,4.823l0.146,4.443l0.153,4.635l0.012,0.381l0.141,4.826l0.011,0.381l0.119,4.636l0.118,4.637l0.01,0.381l0.102,4.663l0.001,0.053l0.359,16.719l0,0.008l0.359,16.81l0.003,0.109l0.343,16.872l0,0.008l0.343,16.933l0.002,0.108l0.326,16.995l0.001,0.007l0.326,17.056l0.002,0.107l0.311,17.166l0.002,0.106l0.293,17.08l0.308,17.141l0.002,0.104l0.295,17.345l0.001,0.104l0.278,17.354l0,0.006l0.277,17.364l0,0.005l0.277,17.471l0.002,0.103l0.262,17.576l0.001,0.102l0.244,17.491l0.26,17.547l0.001,0.101l0.246,17.746l0.001,0.101l0.229,17.758l0.228,17.766l0.228,17.821l0.228,17.919l0.001,0.099l0.213,18.02l0.001,0.098l0.195,17.934l0.211,17.988l0.001,0.097l0.196,18.137l0.196,18.186l0.001,0.096l0.18,18.241l0.179,18.245l0.179,18.34l0.001,0.096l0.163,18.394l0.163,18.398l0.163,18.447l0.163,18.541l0.001,0.094l0.147,18.592l0.146,18.596l0.147,18.643l0.147,18.735l0,0.093l0.131,18.783l0.13,18.786l0.13,18.832l0.131,18.922l0,0.091l0.115,18.969l0.114,18.969l0.114,19.014l0.114,19.059l0.114,19.146l0,0.091l0.196,38.379l0.195,38.506l0.196,38.694l0,0.046l0.179,38.879l0,0.046l0.163,39.02l0.163,39.156l0.163,39.33l0,0.044l0.146,39.482l0.147,39.607l0.147,39.771l0,0.044l0.13,39.87l0.293,80.155l0,0.023l0.276,80.696l0.293,81.18l0.147,40.776l0.146,40.847l0.163,40.957l0.162,41.062l0.179,41.123l0.195,41.265l0.196,41.4l0.195,41.451l0.211,41.499l0.114,20.783l0.113,20.762l0.13,20.823l0.001,0.082l0.113,20.843l0.13,20.823l0.13,20.922l0.13,20.86l0.146,20.879l0.146,20.978l0.147,20.995l0.146,21.012l0.146,20.947l0.162,20.964l0.163,21.061l0.162,20.994l0.179,21.01l0.179,21.105l0.178,21.038l0.195,21.052l0.195,21.146l0.195,21.077l0.21,21.09l0.212,21.182l0.211,21.113l0.227,21.124l0.228,21.215l0.227,21.144l0.243,21.155l0.243,21.164l2.812,229.489l-416.635,5.106l-2.814,-229.609l-0.001,-0.079l-0.244,-21.282l-0.245,-21.272l-0.001,-0.079l-0.228,-21.263l-0.228,-21.213l-0.228,-21.242l-0.001,-0.079l-0.212,-21.231l-0.212,-21.18l-0.211,-21.208l-0.001,-0.08l-0.196,-21.195l-0.195,-21.143l-0.196,-21.17l-0.001,-0.08l-0.179,-21.157l-0.179,-21.102l-0.179,-21.129l-0.001,-0.079l-0.163,-21.114l-0.163,-21.058l-0.163,-21.082l0,-0.08l-0.147,-21.067l-0.147,-21.009l-0.146,-20.993l-0.147,-20.975l-0.146,-20.998l-0.001,-0.08l-0.13,-20.98l-0.131,-20.92l-0.13,-20.942l-0.001,-0.081l-0.113,-20.841l-0.13,-20.822l-0.001,-0.08l-0.114,-20.883l-0.114,-20.841l0,-0.039l-0.212,-41.619l0,-0.04l-0.195,-41.509l-0.196,-41.396l-0.195,-41.321l0,-0.04l-0.18,-41.244l0,-0.04l-0.163,-41.121l-0.162,-41.015l-0.001,-0.04l-0.146,-40.906l-0.147,-40.771l-0.293,-81.203l0,-0.019l-0.276,-80.689l-0.293,-80.181l0,-0.041l-0.131,-39.864l-0.146,-39.703l-0.146,-39.602l-0.147,-39.411l-0.162,-39.26l-0.163,-39.149l-0.163,-38.948l-0.178,-38.743l-0.195,-38.621l-0.195,-38.497l-0.195,-38.237l-0.114,-19.008l-0.114,-19.054l-0.114,-19.007l-0.113,-18.964l-0.114,-18.828l-0.129,-18.782l-0.131,-18.825l-0.13,-18.778l-0.129,-18.641l-0.146,-18.593l-0.146,-18.635l-0.147,-18.587l-0.146,-18.445l-0.162,-18.397l-0.162,-18.438l-0.163,-18.387l-0.162,-18.245l-0.178,-18.193l-0.179,-18.234l-0.178,-18.089l-0.194,-18.036l-0.194,-17.983l-0.211,-17.977l-0.001,-0.091l-0.195,-17.923l-0.21,-17.725l-0.226,-17.766l-0.228,-17.804l-0.228,-17.749l-0.226,-17.598l-0.241,-17.444l-0.26,-17.533l-0.001,-0.092l-0.244,-17.476l-0.257,-17.27l-0.275,-17.309l-0.277,-17.346l-0.275,-17.19l-0.289,-17.032l-0.308,-17.122l-0.002,-0.092l-0.292,-17.061l-0.305,-16.848l-0.323,-16.885l-0.324,-16.823l-0.339,-16.76l-0.34,-16.697l-0.355,-16.634l-0.357,-16.626l-0.088,-4.012l-0.104,-4.064l-0.104,-4.062l-0.108,-3.681l-0.134,-4.06l-0.147,-4.441l-0.121,-3.678l-0.148,-3.678l-0.179,-4.437l-0.164,-4.056l-0.178,-4.056l-0.179,-4.055l-0.175,-3.673l-0.208,-4.052l-0.208,-4.052l-0.223,-4.051l-0.223,-4.05l-0.216,-3.669l-0.253,-4.047l-0.276,-4.428l-0.253,-4.047l-0.242,-3.665l-0.283,-4.044l-0.282,-4.044l-0.298,-4.043l-0.297,-4.041l-0.283,-3.66l-0.327,-4.041l-0.358,-4.419l-0.327,-4.038l-0.309,-3.656l-0.357,-4.036l-0.357,-4.035l-0.372,-4.034l-0.371,-4.034l-0.35,-3.653l-0.402,-4.03l-0.439,-4.408l-0.401,-4.031l-0.377,-3.648l-0.431,-4.027l-0.431,-4.028l-0.446,-4.024l-0.445,-4.022l-0.461,-4.024l-0.461,-4.023l-0.431,-3.642l-0.49,-4.021l-0.537,-4.396l-0.49,-4.016l-0.458,-3.641l-0.52,-4.016l-0.52,-4.014l-0.535,-4.014l-0.535,-4.013l-0.55,-4.01l-0.549,-4.01l-0.565,-4.01l-0.565,-4.009l-0.525,-3.632l-0.594,-4.005l-0.65,-4.378l-0.595,-4.005l-0.552,-3.63l-0.624,-3.999l-0.624,-4l-0.639,-4l-0.639,-4l-0.653,-3.995l-0.654,-3.995l-0.669,-3.997l-0.669,-3.993l-0.62,-3.621l-0.698,-3.99l-0.763,-4.36l-0.698,-3.991l-0.714,-3.988l-0.647,-3.617l-0.709,-3.804l-0.067,-0.363l-0.762,-4.17l-0.674,-3.614l-0.758,-3.983l-0.757,-3.981l-0.773,-3.98l-0.844,-4.344l-0.701,-3.608l-0.766,-3.795l-0.072,-0.362l-0.752,-3.797l-0.742,-3.606l-0.892,-4.336l-0.818,-3.974l-0.832,-3.969l-0.832,-3.967l-0.847,-3.968l-0.847,-3.965l-0.782,-3.599l-0.877,-3.965l-0.957,-4.325l-0.876,-3.96l-0.892,-3.961l-0.892,-3.96l-0.824,-3.594l-0.92,-3.952l-1.006,-4.318l-0.922,-3.956l-0.85,-3.587l-0.951,-3.95l-0.952,-3.952l-0.965,-3.946l-1.054,-4.306l-0.967,-3.946l-0.891,-3.585l-0.996,-3.942l-0.995,-3.941l-1.011,-3.94l-1.102,-4.296l-1.011,-3.937l-0.932,-3.578l-1.041,-3.935l-1.04,-3.932l-1.056,-3.932l-1.055,-3.932l-1.07,-3.926l-1.167,-4.282l-1.07,-3.927l-0.987,-3.569l-1.101,-3.925l-1.1,-3.921l-1.115,-3.92l-1.114,-3.919l-1.13,-3.916l-1.231,-4.268l-1.13,-3.915l-1.043,-3.563l-1.159,-3.911l-1.159,-3.909l-1.176,-3.911l-1.279,-4.254l-1.174,-3.904l-1.084,-3.56l-1.204,-3.902l-1.311,-4.245l-1.205,-3.901l-1.111,-3.554l-1.235,-3.896l-1.342,-4.238l-1.235,-3.893l-1.139,-3.55l-1.264,-3.891l-1.376,-4.232l-1.264,-3.887l-1.166,-3.543l-1.353,-4.061l-0.109,-0.331l-1.225,-3.718l-1.194,-3.539l-1.424,-4.22l-1.309,-3.879l-1.323,-3.876l-1.325,-3.876l-1.338,-3.872l-1.339,-3.871l-1.354,-3.872l-1.354,-3.868l-1.368,-3.866l-1.487,-4.199l-1.251,-3.53l-1.341,-3.704l-0.114,-0.317l-1.447,-4.035l-1.278,-3.526l-1.413,-3.855l-1.536,-4.19l-1.413,-3.853l-1.429,-3.852l-1.429,-3.851l-1.319,-3.517l-1.458,-3.846l-1.583,-4.174l-1.46,-3.846l-1.473,-3.842l-1.473,-3.839l-1.489,-3.838l-1.615,-4.164l-1.489,-3.836l-1.375,-3.506l-1.518,-3.83l-1.518,-3.83l-1.535,-3.83l-1.662,-4.149l-1.534,-3.824l-1.548,-3.824l-1.548,-3.819l-1.564,-3.819l-1.563,-3.819l-1.578,-3.814l-1.579,-3.815l-1.594,-3.813l-1.726,-4.127l-1.459,-3.488l-1.56,-3.658l-0.128,-0.301l-1.68,-3.974l-1.622,-3.8l-1.623,-3.8l-1.64,-3.801l-1.637,-3.795l-1.653,-3.795l-1.655,-3.796l-1.667,-3.79l-1.668,-3.788l-1.685,-3.791l-1.822,-4.097l-1.682,-3.783l-1.7,-3.785l-1.698,-3.779l-1.573,-3.467l-1.804,-3.943l-0.132,-0.29l-1.788,-3.938l-1.587,-3.462l-1.743,-3.77l-1.743,-3.769l-1.836,-3.931l-0.134,-0.29l-1.677,-3.619l-1.628,-3.455l-1.919,-4.068l-1.773,-3.759l-1.788,-3.755l-1.934,-4.059l-1.788,-3.753l-1.658,-3.447l-1.819,-3.749l-1.966,-4.05l-1.818,-3.743l-1.834,-3.744l-1.833,-3.74l-1.849,-3.738l-1.997,-4.037l-1.849,-3.734l-1.714,-3.434l-1.879,-3.73l-2.029,-4.025l-1.879,-3.726l-1.894,-3.724l-2.044,-4.018l-1.894,-3.719l-1.758,-3.424l-1.925,-3.717l-2.075,-4.005l-1.923,-3.71l-1.941,-3.712l-2.091,-3.998l-1.938,-3.703l-1.802,-3.414l-1.969,-3.7l-2.124,-3.989l-1.969,-3.696l-1.983,-3.691l-2.14,-3.982l-1.985,-3.692l-1.843,-3.398l-2.015,-3.686l-2.171,-3.969l-2.17,-3.966l-1.859,-3.395l-1.972,-3.545l-0.143,-0.259l-2.115,-3.828l-2.045,-3.673l-2.046,-3.67l-2.059,-3.666l-2.059,-3.664l-2.076,-3.665l-2.232,-3.939l-2.075,-3.658l-2.091,-3.657l-2.091,-3.656l-2.103,-3.649l-2.105,-3.649l-2.122,-3.649l-2.279,-3.918l-2.121,-3.642l-2.136,-3.643l-2.295,-3.91l-2.134,-3.632l-1.991,-3.364l-2.256,-3.781l-0.145,-0.245l-2.077,-3.504l-2.107,-3.503l-0.146,-0.243l-2.255,-3.773l-2.017,-3.35l-2.285,-3.765l-0.148,-0.244l-2.109,-3.499l-2.138,-3.494l-0.145,-0.238l-2.284,-3.757l-2.049,-3.343l-2.226,-3.607l-2.39,-3.87l-2.39,-3.867l-2.226,-3.599l-2.077,-3.332l-2.255,-3.592l-2.423,-3.858l-2.257,-3.591l-2.269,-3.582l-2.437,-3.847l-2.274,-3.585l-2.286,-3.578l-2.285,-3.576l-2.301,-3.573l-2.47,-3.832l-2.303,-3.571l-2.314,-3.563l-2.317,-3.564l-2.333,-3.564l-2.5,-3.815l-2.332,-3.556l-2.347,-3.554l-2.347,-3.552l-2.458,-3.692l-0.147,-0.222l-2.272,-3.433l-2.209,-3.291l-2.547,-3.794l-2.547,-3.791l-2.378,-3.537l-2.391,-3.531l-2.392,-3.529l-2.409,-3.53l-2.577,-3.773l-2.407,-3.521l-2.424,-3.522l-2.422,-3.517l-2.438,-3.514l-2.608,-3.757l-2.438,-3.509l-2.453,-3.507l-2.625,-3.748l-2.453,-3.501l-2.468,-3.499l-2.469,-3.496l-2.484,-3.494l-2.654,-3.73l-2.483,-3.485l-2.499,-3.486l-2.5,-3.484l-2.613,-3.617l-0.149,-0.206l-2.424,-3.372l-2.453,-3.37l-0.149,-0.206l-2.611,-3.605l-2.356,-3.23l-2.644,-3.602l-0.15,-0.204l-2.626,-3.596l-2.371,-3.224l-2.559,-3.457l-2.731,-3.686l-2.735,-3.688l-2.56,-3.448l-2.399,-3.211l-2.691,-3.577l-0.147,-0.197l-2.675,-3.574l-2.416,-3.206l-2.705,-3.566l-0.147,-0.195l-2.515,-3.332l-2.546,-3.332l-0.15,-0.196l-2.705,-3.558l-2.619,-3.421l-2.62,-3.419l-2.635,-3.416l-2.809,-3.64l-2.637,-3.413l-2.65,-3.408l-2.826,-3.63l-2.65,-3.402l-2.664,-3.396l-2.843,-3.623l-2.666,-3.394l-2.679,-3.387l-2.681,-3.389l-2.697,-3.385l-2.871,-3.601l-2.694,-3.376l-2.815,-3.505l-0.148,-0.184l-2.623,-3.281l-2.653,-3.278l-0.145,-0.18l-2.813,-3.493l-2.552,-3.148l-2.845,-3.487l-0.145,-0.179l-2.654,-3.267l-2.684,-3.266l-0.145,-0.176l-2.845,-3.478l-2.756,-3.348l-2.934,-3.559l-2.756,-3.341l-2.772,-3.339l-2.773,-3.337l-2.89,-3.456l-0.145,-0.173l-2.7,-3.243l-2.731,-3.242l-0.144,-0.172l-2.89,-3.446l-2.804,-3.32l-2.801,-3.316l-2.816,-3.313l-2.997,-3.52l-2.816,-3.307l-2.939,-3.428l-0.147,-0.171l-2.744,-3.215l-2.772,-3.211l-0.144,-0.167l-2.94,-3.419l-2.847,-3.291l-2.848,-3.289l-2.863,-3.285l-3.039,-3.483l-2.863,-3.279l-2.879,-3.276l-3.057,-3.475l-2.879,-3.27l-2.892,-3.264l-3.07,-3.462l-2.894,-3.26l-2.91,-3.258l-3.086,-3.45l-3.085,-3.447l-2.908,-3.245l-2.748,-3.047l-3.048,-3.36l-0.137,-0.152l-3.03,-3.353l-2.941,-3.235l-2.939,-3.23l-2.954,-3.226l-3.133,-3.418l-2.952,-3.217l-2.97,-3.216l-3.148,-3.407l-3.148,-3.402l-2.967,-3.204l-2.983,-3.201l-2.989,-3.203l-2.998,-3.195l-3.177,-3.381l-3.177,-3.377l-2.999,-3.184l-3.016,-3.185l-3.015,-3.178l-3.139,-3.29l-0.138,-0.145l-3.123,-3.285l-2.855,-2.985l-3.046,-3.166l-3.221,-3.344l-3.22,-3.34l-3.224,-3.339l-3.048,-3.154l-2.881,-2.963l-3.184,-3.254l-0.137,-0.141l-3.17,-3.253l-3.077,-3.138l-3.077,-3.135l-3.09,-3.129l-3.268,-3.306l-3.267,-3.301l-3.09,-3.119l-3.108,-3.118l-3.283,-3.289l-3.106,-3.109l-3.121,-3.105l-3.296,-3.275l-3.124,-3.101l-3.137,-3.095l-3.312,-3.263l-3.314,-3.263l-3.137,-3.083l-3.152,-3.081l-3.151,-3.075l-3.165,-3.072l-3.346,-3.242l-3.345,-3.238l-3.343,-3.232l-3.165,-3.057l-3.004,-2.883l-3.31,-3.159l-0.134,-0.128l-3.291,-3.151l-3.197,-3.043l-3.374,-3.208l-3.196,-3.035l-3.213,-3.033l-3.386,-3.192l-3.213,-3.025l-3.231,-3.025l-3.402,-3.181l-3.402,-3.176l-3.231,-3.013l-3.241,-3.005l-3.417,-3.164l-3.244,-2.999l-3.257,-2.994l-3.433,-3.152l-3.26,-2.989l-3.386,-3.087l-0.125,-0.114l-3.37,-3.082l-3.097,-2.815l-3.4,-3.073l-0.127,-0.116l-3.388,-3.072l-3.288,-2.964l-3.285,-2.958l-3.304,-2.957l-3.48,-3.11l-3.476,-3.103l-3.304,-2.946l-3.434,-3.043l-0.123,-0.109l-3.24,-2.881l-3.272,-2.879l-0.125,-0.111l-3.432,-3.029l-3.332,-2.925l-3.507,-3.073l-3.333,-2.917l-3.462,-3.013l-0.122,-0.105l-3.275,-2.859l-3.304,-2.855l-0.118,-0.102l-3.464,-3.001l-3.363,-2.898l-3.539,-3.044l-3.538,-3.04l-3.36,-2.883l-3.383,-2.885l-3.554,-3.027l-3.376,-2.872l-3.392,-2.868l-3.57,-3.014l-3.569,-3.01l-3.392,-2.856l-3.411,-2.856l-3.581,-2.994l-3.581,-2.989l-3.412,-2.843l-3.423,-2.838l-3.597,-2.976l-3.424,-2.829l-3.44,-2.826l-3.612,-2.963l-3.612,-2.959l-3.44,-2.814l-3.569,-2.902l-0.116,-0.095l-3.383,-2.758l-3.411,-2.754l-0.112,-0.091l-3.568,-2.888l-3.585,-2.886l-0.116,-0.093l-3.398,-2.743l-3.429,-2.74l-0.115,-0.092l-3.582,-2.87l-3.483,-2.775l-3.659,-2.91l-3.654,-2.903l-3.484,-2.763l-3.5,-2.759l-3.673,-2.892l-3.67,-2.885l-3.497,-2.744l-3.515,-2.743l-3.689,-2.873l-3.516,-2.735l-3.643,-2.818l-0.109,-0.084l-3.627,-2.813l-3.531,-2.722l-3.531,-2.718l-3.548,-2.715l-3.713,-2.837l-3.713,-2.832l-3.716,-2.83l-3.543,-2.695l-3.563,-2.693l-3.728,-2.814l-3.728,-2.81l-3.56,-2.678l-3.575,-2.674l-3.747,-2.798l-3.576,-2.666l-3.705,-2.747l-0.101,-0.074l-3.692,-2.744l-3.591,-2.653l-3.588,-2.647l-3.723,-2.73l-0.103,-0.076l-3.707,-2.725l-3.603,-2.633l-3.774,-2.754l-3.608,-2.627l-3.619,-2.621l-3.786,-2.738l-3.789,-2.734l-3.62,-2.609l-3.751,-2.686l-0.101,-0.073l-3.734,-2.682l-3.635,-2.594l-3.639,-2.594l-3.648,-2.584l-3.932,-2.781l-0.1,-0.071l-3.586,-2.543l-3.617,-2.538l-0.099,-0.07l-3.766,-2.65l-3.781,-2.645l-0.095,-0.066l-3.768,-2.642l-3.503,-2.442l-3.8,-2.633l-0.094,-0.065l-3.781,-2.626l-3.679,-2.541l-3.846,-2.651l-3.843,-2.644l-3.68,-2.527l-3.695,-2.523l-3.858,-2.63l-3.862,-2.627l-3.696,-2.51l-3.711,-2.505l-3.992,-2.691l-0.087,-0.059l-3.649,-2.464l-3.681,-2.461l-0.09,-0.061l-3.832,-2.568l-3.724,-2.48l-3.884,-2.584l-3.893,-2.583l-3.884,-2.574l-3.723,-2.462l-3.743,-2.46l-3.9,-2.559l-3.744,-2.452l-3.876,-2.523l-0.079,-0.052l-3.86,-2.518l-3.759,-2.438l-3.915,-2.534l-3.911,-2.526l-3.755,-2.422l-3.775,-2.42l-3.93,-2.514l-3.926,-2.507l-3.772,-2.403l-3.908,-2.475l-0.076,-0.049l-3.887,-2.467l-3.787,-2.39l-3.788,-2.385l-3.921,-2.455l-0.079,-0.049l-3.902,-2.447l-3.799,-2.369l-3.96,-2.464l-3.956,-2.457l-3.8,-2.354l-3.816,-2.351l-3.971,-2.441l-3.976,-2.439l-3.971,-2.432l-3.816,-2.331l-3.951,-2.399l-0.071,-0.044l-3.931,-2.392l-3.831,-2.317l-3.832,-2.312l-3.965,-2.379l-0.074,-0.045l-3.949,-2.373l-3.843,-2.296l-4.002,-2.385l-3.997,-2.378l-3.844,-2.282l-3.863,-2.28l-4.134,-2.434l-0.072,-0.042l-3.961,-2.336l-3.703,-2.171l-3.996,-2.329l-0.071,-0.041l-3.977,-2.321l-3.875,-2.248l-4.032,-2.334l-4.023,-2.324l-4.027,-2.321l-3.876,-2.229l-3.887,-2.222l-4.047,-2.308l-4.042,-2.3l-4.034,-2.29l-3.892,-2.205l-3.908,-2.2l-4.053,-2.277l-4.057,-2.274l-4.053,-2.266l-4.053,-2.261l-3.908,-2.175l-3.92,-2.169l-4.068,-2.245l-4.068,-2.24l-4.067,-2.234l-3.921,-2.149l-3.936,-2.144l-4.083,-2.218l-4.078,-2.212l-4.083,-2.207l-4.082,-2.203l-3.937,-2.119l-3.948,-2.111l-4.093,-2.185l-4.102,-2.183l-4.093,-2.174l-3.949,-2.091l-4.087,-2.152l-0.05,-0.027l-4.064,-2.142l-3.964,-2.076l-4.112,-2.149l-3.969,-2.069l-4.102,-2.125l-0.044,-0.022l-4.081,-2.117l-3.98,-2.052l-4.123,-2.119l-4.123,-2.114l-4.118,-2.107l-3.981,-2.031l-4.118,-2.087l-0.041,-0.021l-4.097,-2.079l-3.996,-2.016l-4.138,-2.082l-3.993,-2.003l-4.127,-2.058l-0.043,-0.021l-4.116,-2.054l-4.013,-1.991l-4.148,-2.052l-4.143,-2.044l-4.148,-2.04l-4.014,-1.97l-4.145,-2.021l-0.036,-0.017l-4.124,-2.013l-4.025,-1.952l-4.167,-2.015l-4.158,-2.006l-4.026,-1.936l-4.163,-1.99l-0.03,-0.014l-4.142,-1.981l-4.042,-1.921l-4.173,-1.977l-4.177,-1.974l-4.172,-1.967l-4.037,-1.897l-4.177,-1.95l-0.031,-0.015l-4.156,-1.942l-4.054,-1.882l-4.192,-1.94l-4.187,-1.933l-4.049,-1.864l-4.19,-1.915l-0.03,-0.014l-4.172,-1.909l-4.185,-1.903l-0.028,-0.012l-4.172,-1.898l-3.939,-1.78l-4.203,-1.887l-0.024,-0.011l-4.32,-1.941l-4.069,-1.822l-4.199,-1.869l-0.025,-0.011l-4.188,-1.864l-4.084,-1.807l-4.212,-1.857l-4.211,-1.851l-4.085,-1.79l-4.219,-1.836l-0.02,-0.009l-4.201,-1.83l-4.101,-1.774l-4.226,-1.823l-4.224,-1.816l-4.226,-1.811l-4.226,-1.805l-4.099,-1.746l-4.231,-1.79l-0.015,-0.006l-4.217,-1.784l-4.113,-1.729l-4.238,-1.775l-4.241,-1.771l-4.235,-1.763l-4.114,-1.707l-4.247,-1.75l-0.011,-0.004l-4.232,-1.744l-4.129,-1.691l-4.249,-1.733l-4.252,-1.729l-4.252,-1.723l-4.247,-1.715l-4.128,-1.662l-4.261,-1.703l-0.008,-0.003l-4.248,-1.698l-4.141,-1.644l-4.262,-1.686l-4.265,-1.681l-4.261,-1.674l-4.264,-1.67l-4.142,-1.616l-4.275,-1.656l-0.004,-0.001l-4.259,-1.65l-4.156,-1.599l-4.393,-1.683l-0.002,-0.001l-4.259,-1.632l-4.04,-1.537l-4.291,-1.621l-0.001,-0.001l-4.388,-1.657l-4.157,-1.565l-4.291,-1.603l-4.27,-1.596l-4.173,-1.547l-4.288,-1.585l-4.285,-1.577l-4.288,-1.573l-4.287,-1.566l-4.172,-1.518l-4.297,-1.553l-4.287,-1.548l-4.188,-1.502l-4.297,-1.534l-4.302,-1.531l-4.297,-1.522l-4.296,-1.517l-4.299,-1.511l-4.298,-1.505l-4.187,-1.46l-4.2,-1.454l-4.422,-1.525l-4.296,-1.48l-4.2,-1.436l-4.311,-1.468l-4.31,-1.462l-4.308,-1.455l-4.201,-1.413l-4.323,-1.442l-4.31,-1.438l-4.323,-1.43l-4.304,-1.424l-4.218,-1.384l-4.322,-1.412l-4.322,-1.406l-4.319,-1.399l-4.319,-1.393l-4.321,-1.387l-4.217,-1.348l-4.334,-1.374l-4.318,-1.369l-4.231,-1.329l-4.434,-1.387l-4.318,-1.35l-4.232,-1.312l-4.331,-1.337l-4.232,-1.3l-4.346,-1.324l-4.428,-1.347l-4.232,-1.282l-4.345,-1.306l-4.329,-1.299l-4.342,-1.292l-4.327,-1.285l-4.248,-1.252l-4.344,-1.274l-4.342,-1.268l-4.339,-1.26l-4.341,-1.254l-4.25,-1.222l-4.353,-1.241l-4.434,-1.262l-4.247,-1.203l-4.259,-1.196l-4.448,-1.242l-4.339,-1.211l-4.259,-1.177l-4.353,-1.197l-4.352,-1.191l-4.352,-1.184l-4.352,-1.178l-4.349,-1.171l-4.261,-1.141l-4.367,-1.159l-4.349,-1.152l-4.364,-1.145l-4.348,-1.139l-4.364,-1.133l-4.347,-1.126l-4.275,-1.097l-4.364,-1.114l-4.363,-1.107l-4.36,-1.1l-4.36,-1.094l-4.359,-1.087l-4.36,-1.08l-4.277,-1.055l-4.375,-1.067l-4.359,-1.062l-4.372,-1.054l-4.356,-1.048l-4.374,-1.042l-4.355,-1.035l-4.292,-1.01l-4.374,-1.023l-4.368,-1.015l-4.371,-1.009l-4.37,-1.002l-4.368,-0.995l-4.37,-0.99l-4.366,-0.982l-4.367,-0.976l-4.295,-0.953l-4.382,-0.963l-4.44,-0.973l-4.293,-0.933l-4.306,-0.927l-4.452,-0.952l-4.365,-0.93l-4.31,-0.908l-4.449,-0.932l-4.363,-0.909l-4.307,-0.889l-4.378,-0.897l-4.378,-0.89l-4.377,-0.883l-4.377,-0.877l-4.374,-0.87l-4.374,-0.863l-4.31,-0.843l-4.39,-0.85l-4.44,-0.856l-4.308,-0.824l-4.386,-0.83l-4.374,-0.823l-4.391,-0.817l-4.37,-0.81l-4.385,-0.803l-4.373,-0.796l-4.32,-0.778l-4.447,-0.794l-4.372,-0.776l-4.324,-0.759l-4.384,-0.763l-4.382,-0.755l-4.382,-0.749l-4.384,-0.743l-4.384,-0.736l-4.381,-0.728l-4.378,-0.722l-4.383,-0.716l-4.381,-0.708l-4.377,-0.701l-4.325,-0.687l-4.396,-0.688l-4.434,-0.69l-4.324,-0.666l-4.392,-0.667l-4.43,-0.669l-4.324,-0.646l-4.392,-0.647l-4.374,-0.64l-4.391,-0.634l-4.376,-0.627l-4.391,-0.619l-4.373,-0.613l-4.34,-0.599l-4.439,-0.606l-4.37,-0.592l-4.341,-0.579l-4.434,-0.585l-4.371,-0.572l-4.342,-0.559l-4.385,-0.557l-4.385,-0.551l-4.387,-0.545l-4.427,-0.542l-4.368,-0.53l-4.341,-0.518l-4.384,-0.517l-4.384,-0.509l-4.381,-0.502l-4.38,-0.496l-4.383,-0.488l-4.383,-0.482l-4.378,-0.474l-4.382,-0.468l-4.38,-0.461l-4.341,-0.45l-4.395,-0.447l-4.416,-0.443l-4.379,-0.433l-4.376,-0.426l-4.376,-0.418l-4.376,-0.412l-4.346,-0.402l-4.392,-0.398l-4.405,-0.393l-4.375,-0.384l-4.345,-0.374l-4.391,-0.37l-4.402,-0.365l-4.372,-0.355l-4.347,-0.346l-4.388,-0.342l-4.397,-0.336l-4.371,-0.327l-4.349,-0.319l-4.385,-0.313l-4.394,-0.308l-4.373,-0.299l-4.345,-0.29l-4.382,-0.285l-4.394,-0.279l-4.346,-0.27l-4.384,-0.263l-4.389,-0.258l-4.365,-0.249l-4.348,-0.241l-4.381,-0.235l-4.386,-0.229l-4.35,-0.22l-4.378,-0.213l-4.381,-0.207l-4.364,-0.2l-4.349,-0.191l-4.381,-0.185l-4.376,-0.178l-4.364,-0.171l-4.351,-0.163l-4.377,-0.156l-4.373,-0.15l-4.361,-0.141l-4.361,-0.135l-4.358,-0.127l-4.351,-0.12l-4.377,-0.113l-4.37,-0.106l-4.36,-0.099l-4.355,-0.091l-4.358,-0.084l-4.36,-0.077l-4.358,-0.07l-4.354,-0.062l-4.358,-0.055l-4.357,-0.048l-4.415,-0.041l-22.573,-0.185l-23.459,-0.181l-24.22,-0.177l-24.93,-0.173l-25.609,-0.17l-26.204,-0.168l-26.748,-0.165l-27.26,-0.163l-27.691,-0.161l-28.068,-0.161l-57.11,-0.32l-58.004,-0.321l-0.004,0l-58.457,-0.326l-0.015,0l-58.48,-0.335l-0.018,0l-29.119,-0.172l-0.016,0l-28.956,-0.175l-0.018,0l-28.748,-0.179l-0.022,0l-28.491,-0.184l-0.025,0l-28.169,-0.188l-0.029,0l-27.798,-0.194l-0.033,0l-27.38,-0.2l-0.037,0l-26.896,-0.206l-0.043,0l-26.357,-0.213l-0.035,0l-12.969,-0.109l-0.026,0l-12.819,-0.111l-0.028,0l-12.641,-0.112l-0.028,-0.001l-12.497,-0.114l-0.031,0l-12.32,-0.117l-0.033,0l-12.127,-0.119l-0.035,0l-11.949,-0.121l-0.034,-0.001l-11.773,-0.123l-0.042,0l-11.549,-0.125l-0.041,-0.001l-219.652,-2.469l4.684,-416.64l219.591,2.468Z" style="fill:#14a90c;fill-opacity:0.698039;"/></svg>