<?xml version="1.0" standalone="no"?>
<!DOCTYPE svg PUBLIC "-//W3C//DTD SVG 1.1//EN" "http://www.w3.org/Graphics/SVG/1.1/DTD/svg11.dtd">
<svg width="100%" height="100%" viewBox="0 0 3678 2305" version="1.1" xmlns="http://www.w3.org/2000/svg" xmlns:xlink="http://www.w3.org/1999/xlink" xml:space="preserve" style="fill-rule:evenodd;clip-rule:evenodd;stroke-linejoin:round;stroke-miterlimit:1;">
    <g transform="matrix(1,0,0,1,-3205,-144)">
        <g id="parking-1" transform="matrix(2.87248,0,0,2.25,3205.41,144.244)">
            <g transform="matrix(2.08676,0,0,5.15206,-116.151,-2349.03)">
                <g transform="matrix(0.516355,0,0,0.342776,217.275,407.725)">
                    <rect x="676.756" y="269.252" width="4.487" height="305.495" style="fill:black;"/>
                </g>
                <g transform="matrix(0.516355,0,0,0.342776,167.974,407.725)">
                    <rect x="676.756" y="269.252" width="4.487" height="305.495" style="fill:black;"/>
                </g>
                <g transform="matrix(-2.3627e-16,-0.975331,1.46923,-1.56845e-16,-273.988,1214.63)">
                    <rect x="678.386" y="270.211" width="1.228" height="303.577" style="fill:black;"/>
                </g>
                <g transform="matrix(0.516355,0,0,0.342776,118.674,407.725)">
                    <rect x="676.756" y="269.252" width="4.487" height="305.495" style="fill:black;"/>
                </g>
                <g transform="matrix(0.516355,0,0,0.342776,69.3729,407.725)">
                    <rect x="676.756" y="269.252" width="4.487" height="305.495" style="fill:black;"/>
                </g>
                <g transform="matrix(0.516355,0,0,0.342776,20.0721,407.725)">
                    <rect x="676.756" y="269.252" width="4.487" height="305.495" style="fill:black;"/>
                </g>
                <g transform="matrix(0.516355,0,0,0.342776,-29.2287,407.725)">
                    <rect x="676.756" y="269.252" width="4.487" height="305.495" style="fill:black;"/>
                </g>
                <g transform="matrix(0.516355,0,0,0.342776,-78.5295,407.725)">
                    <rect x="676.756" y="269.252" width="4.487" height="305.495" style="fill:black;"/>
                </g>
                <g transform="matrix(0.516355,0,0,0.342776,-127.83,407.725)">
                    <rect x="676.756" y="269.252" width="4.487" height="305.495" style="fill:black;"/>
                </g>
                <g transform="matrix(0.516355,0,0,0.342776,-177.131,407.725)">
                    <rect x="676.756" y="269.252" width="4.487" height="305.495" style="fill:black;"/>
                </g>
                <g transform="matrix(0.516355,0,0,0.342776,-226.432,407.725)">
                    <rect x="676.756" y="269.252" width="4.487" height="305.495" style="fill:black;"/>
                </g>
            </g>
            <g transform="matrix(0.126249,-3.77701e-17,-6.84244e-16,0.161177,941.866,-71.1325)">
                <path d="M1097.11,3478.42c0,-25.127 -20.4,-45.527 -45.527,-45.527l-91.055,0c-25.128,0 -45.528,20.4 -45.528,45.527l0,91.055c0,25.128 20.4,45.528 45.528,45.528l91.055,0c25.127,0 45.527,-20.4 45.527,-45.528l0,-91.055Z" style="fill:rgb(23,16,252);"/>
            </g>
            <g transform="matrix(0.126249,-3.77701e-17,-6.84244e-16,0.161177,633.59,-71.1325)">
                <path d="M1097.11,3478.42c0,-25.127 -20.4,-45.527 -45.527,-45.527l-91.055,0c-25.128,0 -45.528,20.4 -45.528,45.527l0,91.055c0,25.128 20.4,45.528 45.528,45.528l91.055,0c25.127,0 45.527,-20.4 45.527,-45.528l0,-91.055Z" style="fill:rgb(23,16,252);"/>
            </g>
            <g transform="matrix(0.348131,0,0,0.444444,-6876.63,-2.0211e-13)">
                <path d="M20163.7,965l2659.66,0" style="fill:none;stroke-width:100px;stroke:rgb(20,169,12);stroke-opacity:0.698039;"/>
            </g>
            <g transform="matrix(3.46907e-17,0.156342,-0.188917,6.83216e-17,304.965,-2996.88)">
                <path d="M21912,965l140,293l-280,0l140,-293Z" style="fill:black;"/>
            </g>
            <g transform="matrix(0.348131,0,0,0.444444,-1.39252,-58.1579)">
                <path d="M2304.46,1394.66l-12.134,0l0,-77.322c-2.921,2.786 -6.753,5.573 -11.494,8.359c-4.741,2.786 -9,4.876 -12.775,6.269l0,-11.729c6.787,-3.191 12.719,-7.056 17.797,-11.595c5.079,-4.539 8.674,-8.944 10.786,-13.213l7.82,0l0,99.231Z" style="fill:black;fill-rule:nonzero;"/>
            </g>
            <g transform="matrix(0.348131,0,0,0.444444,-1.39252,-31.8368)">
                <path d="M3009.39,1323.78l0,11.663l-65.323,0c-0.09,-2.922 0.382,-5.731 1.416,-8.427c1.662,-4.449 4.325,-8.831 7.988,-13.145c3.663,-4.315 8.955,-9.303 15.876,-14.966c10.741,-8.809 17.999,-15.786 21.774,-20.932c3.775,-5.145 5.662,-10.01 5.662,-14.594c0,-4.809 -1.719,-8.865 -5.157,-12.168c-3.438,-3.304 -7.921,-4.955 -13.448,-4.955c-5.843,0 -10.517,1.753 -14.022,5.258c-3.506,3.505 -5.281,8.359 -5.326,14.561l-12.471,-1.281c0.854,-9.303 4.067,-16.392 9.64,-21.268c5.573,-4.877 13.055,-7.315 22.448,-7.315c9.483,0 16.988,2.629 22.516,7.888c5.528,5.258 8.292,11.774 8.292,19.549c0,3.955 -0.809,7.843 -2.427,11.663c-1.618,3.82 -4.303,7.842 -8.056,12.066c-3.753,4.225 -9.988,10.022 -18.707,17.393c-7.28,6.112 -11.954,10.258 -14.022,12.437c-2.067,2.18 -3.775,4.371 -5.123,6.573l48.47,0Z" style="fill:black;fill-rule:nonzero;"/>
            </g>
        </g>
    </g>
</svg>
