<?xml version="1.0" standalone="no"?><!DOCTYPE svg PUBLIC "-//W3C//DTD SVG 1.1//EN" "http://www.w3.org/Graphics/SVG/1.1/DTD/svg11.dtd"><svg width="100%" height="100%" viewBox="0 0 15325 9605" version="1.1" xmlns="http://www.w3.org/2000/svg" xmlns:xlink="http://www.w3.org/1999/xlink" xml:space="preserve" style="fill-rule:evenodd;clip-rule:evenodd;stroke-linejoin:round;stroke-miterlimit:1;"><g><rect x="12765.8" y="2129.62" width="57.87" height="5057.87" style="fill:#000;"/><rect x="11534.5" y="2129.62" width="57.87" height="5057.87" style="fill:#000;"/><path d="M12823.7,4687.49l-11139.8,0l0,-57.87l11139.8,0l0,57.87Z" style="fill:#000;"/><rect x="10303.2" y="2129.62" width="57.87" height="5057.87" style="fill:#000;"/><rect x="9071.85" y="2129.62" width="57.87" height="5057.87" style="fill:#000;"/><rect x="7840.53" y="2129.62" width="57.87" height="5057.87" style="fill:#000;"/><rect x="6609.21" y="2129.62" width="57.87" height="5057.87" style="fill:#000;"/><rect x="5377.88" y="2129.62" width="57.87" height="5057.87" style="fill:#000;"/><rect x="4146.56" y="2129.62" width="57.87" height="5057.87" style="fill:#000;"/><rect x="2915.23" y="2129.62" width="57.87" height="5057.87" style="fill:#000;"/><rect x="1683.91" y="2129.62" width="57.87" height="5057.87" style="fill:#000;"/></g><path d="M1850.43,4589.76c0,-37.968 -30.826,-68.793 -68.794,-68.793l-137.587,0c-37.968,0 -68.794,30.825 -68.794,68.793l0,137.588c0,37.968 30.826,68.793 68.794,68.793l137.587,0c37.968,0 68.794,-30.825 68.794,-68.793l0,-137.588Z" style="fill:#1710fc;"/><path d="M4300.58,2089.76c0,-37.968 -30.826,-68.793 -68.794,-68.793l-137.587,0c-37.968,0 -68.794,30.825 -68.794,68.793l0,137.588c0,37.968 30.826,68.793 68.794,68.793l137.587,0c37.968,0 68.794,-30.825 68.794,-68.793l0,-137.588Z" style="fill:#1710fc;"/><path d="M4313.08,7089.76c0,-37.968 -30.826,-68.793 -68.794,-68.793l-137.587,0c-37.968,0 -68.794,30.825 -68.794,68.793l0,137.588c0,37.968 30.826,68.793 68.794,68.793l137.587,0c37.968,0 68.794,-30.825 68.794,-68.793l0,-137.588Z" style="fill:#1710fc;"/><path d="M12932.4,4589.76c0,-37.968 -30.826,-68.793 -68.794,-68.793l-137.587,0c-37.969,0 -68.794,30.825 -68.794,68.793l0,137.588c0,37.968 30.825,68.793 68.794,68.793l137.587,0c37.968,0 68.794,-30.825 68.794,-68.793l0,-137.588Z" style="fill:#1710fc;"/><path d="M10469.7,7089.76c0,-37.968 -30.826,-68.793 -68.794,-68.793l-137.587,0c-37.968,0 -68.794,30.825 -68.794,68.793l0,137.588c0,37.968 30.826,68.793 68.794,68.793l137.587,0c37.968,0 68.794,-30.825 68.794,-68.793l0,-137.588Z" style="fill:#1710fc;"/><path d="M10469.7,2089.76c0,-37.968 -30.826,-68.793 -68.794,-68.793l-137.587,0c-37.968,0 -68.794,30.825 -68.794,68.793l0,137.588c0,37.968 30.826,68.793 68.794,68.793l137.587,0c37.968,0 68.794,-30.825 68.794,-68.793l0,-137.588Z" style="fill:#1710fc;"/><path d="M10332.1,7733.56c1456.84,-5.068 3014.13,-1635.38 2982.08,-3075c-35.51,-1594.88 -1456.57,-3046.21 -2982.08,-3016.27c-1564.05,30.697 -4692.75,8.77 -6156.62,37.5c-1412.3,27.719 -2923.81,1268.45 -2943.33,2978.77c-17.233,1509.68 1503.07,3100.71 2943.33,3095.83c1572.23,-5.32 4539.07,-15.206 6156.62,-20.833Z" style="fill:none;stroke-width:416.67px;stroke:#14a90c;stroke-opacity:0.701961;"/><text x="9572.53px" y="6900.18px" style="font-family:'ArialMT';font-size:575.253px;fill:#000;">1</text><text x="12289.1px" y="4429.71px" style="font-family:'ArialMT';font-size:575.253px;fill:#000;fill-opacity:0.9;">2</text><text x="9786.84px" y="2461.59px" style="font-family:'ArialMT';font-size:575.253px;fill:#000;fill-opacity:0.9;">3</text><text x="4485.28px" y="2495.76px" style="font-family:'ArialMT';font-size:575.253px;fill:#000;fill-opacity:0.9;">4</text><text x="1920.27px" y="4368.06px" style="font-family:'ArialMT';font-size:575.253px;fill:#000;fill-opacity:0.9;">5</text><text x="4416.58px" y="6988.31px" style="font-family:'ArialMT';font-size:575.253px;fill:#000;fill-opacity:0.9;">6</text></svg>