<?xml version="1.0" standalone="no"?>
<!DOCTYPE svg PUBLIC "-//W3C//DTD SVG 1.1//EN" "http://www.w3.org/Graphics/SVG/1.1/DTD/svg11.dtd">
<svg width="100%" height="100%" viewBox="0 0 3678 2305" version="1.1" xmlns="http://www.w3.org/2000/svg" xmlns:xlink="http://www.w3.org/1999/xlink" xml:space="preserve" style="fill-rule:evenodd;clip-rule:evenodd;stroke-linejoin:round;stroke-miterlimit:1.41421;">
    <g transform="matrix(1,0,0,1,-24217,-85)">
        <g id="parking-5" transform="matrix(2.87248,0,0,2.25,24217.4,85.5482)">
            <g transform="matrix(2.08676,0,0,5.15206,-116.151,-2349.03)">
                <g transform="matrix(0.516355,0,0,0.342776,217.275,407.725)">
                    <rect x="676.756" y="269.252" width="4.487" height="305.495" style="fill:black;"/>
                </g>
                <g transform="matrix(0.516355,0,0,0.342776,167.974,407.725)">
                    <rect x="676.756" y="269.252" width="4.487" height="305.495" style="fill:black;"/>
                </g>
                <g transform="matrix(-2.3627e-16,-0.975331,1.46923,-1.56845e-16,-273.988,1214.63)">
                    <rect x="678.386" y="270.211" width="1.228" height="303.577" style="fill:black;"/>
                </g>
                <g transform="matrix(0.516355,0,0,0.342776,118.674,407.725)">
                    <rect x="676.757" y="269.252" width="4.487" height="305.495" style="fill:black;"/>
                </g>
                <g transform="matrix(0.516355,0,0,0.342776,69.3729,407.725)">
                    <rect x="676.756" y="269.252" width="4.487" height="305.495" style="fill:black;"/>
                </g>
                <g transform="matrix(0.516355,0,0,0.342776,20.0721,407.725)">
                    <rect x="676.756" y="269.252" width="4.487" height="305.495" style="fill:black;"/>
                </g>
                <g transform="matrix(0.516355,0,0,0.342776,-29.2287,407.725)">
                    <rect x="676.756" y="269.252" width="4.487" height="305.495" style="fill:black;"/>
                </g>
                <g transform="matrix(0.516355,0,0,0.342776,-78.5295,407.725)">
                    <rect x="676.756" y="269.252" width="4.487" height="305.495" style="fill:black;"/>
                </g>
                <g transform="matrix(0.516355,0,0,0.342776,-127.83,407.725)">
                    <rect x="676.757" y="269.252" width="4.487" height="305.495" style="fill:black;"/>
                </g>
                <g transform="matrix(0.516355,0,0,0.342776,-177.131,407.725)">
                    <rect x="676.756" y="269.252" width="4.487" height="305.495" style="fill:black;"/>
                </g>
                <g transform="matrix(0.516355,0,0,0.342776,-226.432,407.725)">
                    <rect x="676.756" y="269.252" width="4.487" height="305.495" style="fill:black;"/>
                </g>
            </g>
            <g transform="matrix(0.126249,-3.77701e-17,-6.84244e-16,0.161177,478.241,-234.679)">
                <path d="M1097.11,3478.42C1097.11,3453.29 1076.71,3432.89 1051.58,3432.89L960.528,3432.89C935.4,3432.89 915,3453.29 915,3478.42L915,3569.47C915,3594.6 935.4,3615 960.528,3615L1051.58,3615C1076.71,3615 1097.11,3594.6 1097.11,3569.47L1097.11,3478.42Z" style="fill:rgb(23,16,252);"/>
            </g>
            <g transform="matrix(0.126249,-3.77701e-17,-6.84244e-16,0.161177,176.108,-336.901)">
                <path d="M1097.11,3478.42C1097.11,3453.29 1076.71,3432.89 1051.58,3432.89L960.528,3432.89C935.4,3432.89 915,3453.29 915,3478.42L915,3569.47C915,3594.6 935.4,3615 960.528,3615L1051.58,3615C1076.71,3615 1097.11,3594.6 1097.11,3569.47L1097.11,3478.42Z" style="fill:rgb(23,16,252);"/>
            </g>
            <g transform="matrix(0.126249,-3.77701e-17,-6.84244e-16,0.161177,530.518,-70.2343)">
                <path d="M1097.11,3478.42C1097.11,3453.29 1076.71,3432.89 1051.58,3432.89L960.528,3432.89C935.4,3432.89 915,3453.29 915,3478.42L915,3569.47C915,3594.6 935.4,3615 960.528,3615L1051.58,3615C1076.71,3615 1097.11,3594.6 1097.11,3569.47L1097.11,3478.42Z" style="fill:rgb(23,16,252);"/>
            </g>
            <g transform="matrix(0.126249,-3.77701e-17,-6.84244e-16,0.161177,324.76,-334.821)">
                <path d="M1097.11,3478.42C1097.11,3453.29 1076.71,3432.89 1051.58,3432.89L960.528,3432.89C935.4,3432.89 915,3453.29 915,3478.42L915,3569.47C915,3594.6 935.4,3615 960.528,3615L1051.58,3615C1076.71,3615 1097.11,3594.6 1097.11,3569.47L1097.11,3478.42Z" style="fill:rgb(23,16,252);"/>
            </g>
            <g transform="matrix(0.093143,0,0,0.118912,403.782,-248.554)">
                <path d="M669.253,3426.32L669.317,3426.32L680.647,3426.33L680.716,3426.33L692.025,3426.35L692.092,3426.35L703.395,3426.38L703.466,3426.38L714.749,3426.41L714.819,3426.41L726.088,3426.45L726.16,3426.45L737.416,3426.51L737.489,3426.51L748.732,3426.57L748.806,3426.57L760.035,3426.64L760.112,3426.64L771.328,3426.72L771.405,3426.72L782.607,3426.8L782.685,3426.81L793.867,3426.9L793.947,3426.9L805.123,3427.01L805.205,3427.01L816.36,3427.12L816.442,3427.13L827.584,3427.25L827.668,3427.25L838.797,3427.39L838.881,3427.39L849.996,3427.53L850.083,3427.53L861.178,3427.69L861.265,3427.69L872.354,3427.86L872.443,3427.86L883.512,3428.03L883.603,3428.03L894.658,3428.22L894.748,3428.22L905.79,3428.42L905.883,3428.42L916.912,3428.63L917.008,3428.63L928.004,3428.85L928.075,3428.85L933.588,3428.96L933.637,3428.96L939.131,3429.08L939.178,3429.08L944.672,3429.2L944.722,3429.2L950.209,3429.32L950.256,3429.32L955.744,3429.45L955.796,3429.45L961.278,3429.57L961.328,3429.58L966.801,3429.7L966.85,3429.71L972.323,3429.84L972.373,3429.84L977.847,3429.98L977.899,3429.98L983.367,3430.12L983.418,3430.12L988.88,3430.26L988.937,3430.26L994.389,3430.4L994.433,3430.41L999.893,3430.55L999.951,3430.55L1005.4,3430.7L1005.45,3430.71L1010.9,3430.86L1010.95,3430.86L1016.4,3431.02L1016.46,3431.02L1021.89,3431.18L1021.94,3431.18L1027.38,3431.34L1027.44,3431.34L1032.87,3431.51L1032.92,3431.51L1038.35,3431.68L1038.39,3431.68L1043.82,3431.85L1043.88,3431.85L1049.31,3432.03L1049.36,3432.03L1054.77,3432.21L1054.83,3432.21L1060.24,3432.39L1060.3,3432.39L1065.71,3432.58L1065.76,3432.58L1071.17,3432.76L1071.23,3432.76L1076.63,3432.96L1076.69,3432.96L1082.09,3433.15L1082.14,3433.15L1087.53,3433.35L1087.58,3433.35L1092.98,3433.55L1093.05,3433.55L1098.43,3433.76L1098.49,3433.76L1103.86,3433.97L1103.92,3433.97L1109.3,3434.18L1109.36,3434.18L1114.74,3434.39L1114.8,3434.39L1120.17,3434.61L1120.22,3434.61L1125.59,3434.83L1125.65,3434.83L1131.02,3435.06L1131.07,3435.06L1136.43,3435.28L1136.5,3435.29L1141.85,3435.52L1141.92,3435.52L1147.26,3435.75L1147.33,3435.76L1152.67,3435.99L1152.73,3435.99L1158.07,3436.23L1158.14,3436.24L1163.48,3436.48L1163.54,3436.48L1168.88,3436.73L1168.94,3436.73L1174.27,3436.98L1174.33,3436.99L1179.66,3437.24L1179.73,3437.24L1185.05,3437.5L1185.11,3437.5L1190.43,3437.76L1190.5,3437.77L1195.81,3438.03L1195.88,3438.03L1201.19,3438.3L1201.25,3438.3L1206.56,3438.58L1206.63,3438.58L1211.93,3438.85L1211.99,3438.86L1217.29,3439.14L1217.37,3439.14L1222.65,3439.42L1222.71,3439.42L1228,3439.71L1228.07,3439.71L1233.37,3440L1233.43,3440.01L1238.72,3440.3L1238.79,3440.3L1244.07,3440.6L1244.13,3440.6L1249.4,3440.9L1249.47,3440.91L1254.74,3441.21L1254.81,3441.22L1260.08,3441.52L1260.15,3441.53L1265.41,3441.84L1265.49,3441.84L1270.74,3442.16L1270.81,3442.16L1276.06,3442.48L1276.13,3442.49L1281.38,3442.81L1281.45,3442.81L1286.69,3443.14L1286.77,3443.14L1292.02,3443.47L1292.09,3443.48L1297.33,3443.82L1297.39,3443.82L1302.62,3444.16L1302.7,3444.16L1307.93,3444.5L1308,3444.51L1313.23,3444.86L1313.31,3444.86L1318.53,3445.21L1318.59,3445.21L1323.81,3445.57L1323.9,3445.57L1329.11,3445.93L1329.18,3445.94L1334.39,3446.3L1334.47,3446.3L1339.67,3446.67L1339.73,3446.68L1344.93,3447.04L1345.02,3447.05L1350.22,3447.43L1350.3,3447.43L1355.48,3447.81L1355.55,3447.81L1360.74,3448.2L1360.82,3448.2L1366.01,3448.59L1366.08,3448.59L1371.26,3448.98L1371.34,3448.99L1376.52,3449.38L1376.6,3449.39L1381.77,3449.79L1381.84,3449.79L1387.01,3450.2L1387.09,3450.2L1392.26,3450.61L1392.34,3450.62L1397.49,3451.03L1397.57,3451.03L1402.73,3451.45L1402.81,3451.45L1407.96,3451.87L1408.05,3451.88L1413.19,3452.3L1413.26,3452.31L1418.4,3452.74L1418.49,3452.74L1423.63,3453.18L1423.72,3453.18L1428.85,3453.62L1428.92,3453.63L1434.05,3454.07L1434.14,3454.08L1439.26,3454.52L1439.33,3454.53L1444.46,3454.98L1444.56,3454.99L1449.67,3455.44L1449.73,3455.45L1454.85,3455.9L1454.95,3455.91L1460.06,3456.37L1460.13,3456.38L1465.23,3456.85L1465.33,3456.86L1470.42,3457.33L1470.5,3457.34L1475.59,3457.81L1475.68,3457.82L1480.78,3458.3L1480.87,3458.31L1485.95,3458.79L1486.03,3458.8L1491.11,3459.29L1491.21,3459.3L1496.29,3459.79L1496.38,3459.8L1501.45,3460.3L1501.55,3460.31L1506.61,3460.81L1506.69,3460.82L1511.74,3461.33L1511.82,3461.33L1516.89,3461.85L1517,3461.86L1522.05,3462.37L1522.14,3462.38L1527.18,3462.9L1527.28,3462.91L1532.32,3463.44L1532.4,3463.45L1537.44,3463.98L1537.54,3463.99L1542.59,3464.52L1542.68,3464.53L1547.71,3465.07L1547.79,3465.08L1552.82,3465.62L1552.92,3465.64L1557.95,3466.18L1558.05,3466.2L1563.06,3466.75L1563.15,3466.76L1568.16,3467.32L1568.26,3467.33L1573.28,3467.89L1573.38,3467.9L1578.39,3468.47L1578.49,3468.48L1583.48,3469.06L1583.57,3469.07L1588.55,3469.64L1588.64,3469.65L1593.65,3470.24L1593.76,3470.25L1598.75,3470.84L1598.84,3470.85L1603.82,3471.44L1603.92,3471.45L1608.9,3472.05L1608.99,3472.06L1613.97,3472.66L1614.09,3472.68L1619.05,3473.28L1619.12,3473.29L1624.09,3473.9L1624.21,3473.92L1629.18,3474.53L1629.27,3474.55L1634.22,3475.17L1634.33,3475.18L1639.28,3475.81L1639.39,3475.82L1644.33,3476.45L1644.43,3476.47L1649.37,3477.1L1649.47,3477.12L1654.42,3477.76L1654.53,3477.77L1659.45,3478.42L1659.55,3478.43L1664.47,3479.08L1664.58,3479.1L1669.51,3479.76L1669.62,3479.77L1674.55,3480.43L1674.66,3480.45L1679.56,3481.11L1679.66,3481.13L1684.57,3481.8L1684.68,3481.82L1689.58,3482.49L1689.67,3482.51L1694.57,3483.19L1694.69,3483.2L1699.59,3483.89L1699.71,3483.91L1704.6,3484.6L1704.72,3484.62L1709.61,3485.32L1709.73,3485.33L1714.6,3486.04L1714.69,3486.05L1719.56,3486.76L1719.65,3486.77L1724.54,3487.49L1724.68,3487.51L1729.55,3488.23L1729.64,3488.24L1734.5,3488.97L1734.62,3488.99L1739.49,3489.72L1739.61,3489.73L1744.45,3490.47L1744.55,3490.48L1749.4,3491.22L1749.52,3491.24L1754.37,3491.99L1754.49,3492.01L1759.32,3492.76L1759.42,3492.78L1764.26,3493.53L1764.38,3493.55L1769.22,3494.32L1769.34,3494.33L1774.17,3495.1L1774.29,3495.12L1779.11,3495.9L1779.21,3495.91L1784.02,3496.69L1784.14,3496.71L1788.96,3497.5L1789.09,3497.52L1793.89,3498.31L1793.99,3498.32L1798.79,3499.12L1798.92,3499.14L1803.72,3499.94L1803.84,3499.96L1808.64,3500.77L1808.77,3500.79L1813.55,3501.6L1813.65,3501.62L1818.43,3502.44L1818.57,3502.46L1823.35,3503.29L1823.47,3503.31L1828.25,3504.14L1828.38,3504.16L1833.15,3505L1833.25,3505.01L1838.01,3505.86L1838.14,3505.88L1842.89,3506.72L1842.99,3506.74L1847.76,3507.6L1847.92,3507.62L1852.67,3508.48L1852.78,3508.5L1857.52,3509.37L1857.65,3509.39L1862.4,3510.26L1862.53,3510.29L1867.26,3511.16L1867.37,3511.18L1872.09,3512.06L1872.22,3512.09L1876.95,3512.97L1877.09,3513L1881.81,3513.89L1881.92,3513.91L1886.64,3514.81L1886.8,3514.84L1891.52,3515.75L1891.63,3515.77L1896.31,3516.68L1896.42,3516.7L1901.13,3517.62L1901.3,3517.65L1906,3518.58L1906.11,3518.6L1910.8,3519.53L1910.93,3519.55L1915.63,3520.49L1915.77,3520.52L1920.44,3521.46L1920.55,3521.48L1925.24,3522.43L1925.41,3522.46L1930.08,3523.42L1930.19,3523.44L1934.84,3524.39L1934.95,3524.42L1939.63,3525.38L1939.8,3525.42L1944.46,3526.39L1944.57,3526.42L1949.22,3527.39L1949.36,3527.42L1954.02,3528.41L1954.16,3528.44L1958.79,3529.43L1958.9,3529.45L1963.54,3530.44L1963.68,3530.47L1968.33,3531.48L1968.48,3531.51L1973.11,3532.52L1973.25,3532.55L1977.88,3533.57L1978.03,3533.6L1982.63,3534.62L1982.75,3534.65L1987.35,3535.67L1987.5,3535.7L1992.12,3536.74L1992.27,3536.78L1996.86,3537.81L1996.98,3537.84L2001.57,3538.88L2001.72,3538.92L2006.33,3539.97L2006.51,3540.02L2011.09,3541.07L2011.17,3541.09L2015.76,3542.16L2015.94,3542.2L2020.52,3543.28L2020.64,3543.3L2025.2,3544.38L2025.36,3544.41L2029.93,3545.5L2030.08,3545.54L2034.65,3546.63L2034.81,3546.67L2039.36,3547.76L2039.47,3547.79L2044.02,3548.89L2044.17,3548.93L2048.73,3550.04L2048.89,3550.08L2053.44,3551.2L2053.59,3551.24L2058.13,3552.37L2058.29,3552.41L2062.81,3553.53L2062.93,3553.56L2067.45,3554.7L2067.6,3554.74L2072.13,3555.88L2072.29,3555.92L2076.79,3557.07L2076.92,3557.1L2081.45,3558.26L2081.64,3558.31L2086.15,3559.48L2086.27,3559.51L2090.76,3560.68L2090.93,3560.72L2095.43,3561.9L2095.59,3561.94L2100.06,3563.12L2100.19,3563.15L2104.67,3564.34L2104.84,3564.39L2109.33,3565.59L2109.48,3565.63L2113.97,3566.83L2114.13,3566.88L2118.61,3568.09L2118.77,3568.14L2123.22,3569.35L2123.34,3569.39L2127.8,3570.61L2127.97,3570.65L2132.43,3571.89L2132.6,3571.93L2137.05,3573.17L2137.22,3573.22L2141.66,3574.47L2141.83,3574.51L2146.25,3575.76L2146.38,3575.8L2150.81,3577.06L2150.98,3577.1L2155.41,3578.37L2155.58,3578.42L2160.01,3579.69L2160.18,3579.74L2164.59,3581.02L2164.71,3581.06L2169.14,3582.35L2169.35,3582.41L2173.76,3583.71L2173.89,3583.74L2178.28,3585.04L2178.45,3585.09L2182.86,3586.4L2183.02,3586.45L2187.4,3587.76L2187.53,3587.81L2191.91,3589.12L2192.08,3589.18L2196.49,3590.51L2196.71,3590.58L2201.07,3591.91L2201.16,3591.94L2205.52,3593.28L2205.73,3593.35L2210.12,3594.71L2210.3,3594.76L2214.65,3596.12L2214.78,3596.16L2219.12,3597.52L2219.29,3597.58L2223.65,3598.95L2223.83,3599.01L2228.18,3600.39L2228.36,3600.45L2232.7,3601.84L2232.88,3601.89L2237.2,3603.29L2237.33,3603.33L2241.64,3604.73L2241.82,3604.78L2246.15,3606.2L2246.33,3606.26L2250.66,3607.68L2250.83,3607.73L2255.15,3609.16L2255.33,3609.22L2259.62,3610.65L2259.75,3610.69L2264.04,3612.13L2264.23,3612.19L2268.53,3613.64L2268.71,3613.7L2273.01,3615.15L2273.19,3615.22L2277.49,3616.68L2277.66,3616.74L2281.95,3618.22L2282.14,3618.28L2286.39,3619.75L2286.52,3619.8L2290.77,3621.28L2290.95,3621.34L2295.23,3622.84L2295.42,3622.9L2299.68,3624.41L2299.86,3624.47L2304.12,3625.98L2304.31,3626.05L2308.53,3627.56L2308.68,3627.61L2312.93,3629.13L2313.16,3629.22L2317.39,3630.75L2317.53,3630.8L2321.74,3632.33L2321.93,3632.4L2326.17,3633.95L2326.36,3634.02L2330.55,3635.56L2330.69,3635.61L2334.91,3637.18L2335.16,3637.27L2339.37,3638.84L2339.5,3638.89L2343.69,3640.46L2343.88,3640.53L2348.09,3642.12L2348.27,3642.19L2352.47,3643.79L2352.66,3643.86L2356.85,3645.46L2357.05,3645.54L2361.2,3647.14L2361.34,3647.19L2365.5,3648.8L2365.69,3648.88L2369.9,3650.51L2370.14,3650.61L2374.3,3652.24L2374.45,3652.3L2378.56,3653.92L2378.69,3653.97L2382.85,3655.62L2383.11,3655.72L2387.28,3657.39L2387.48,3657.47L2391.6,3659.13L2391.74,3659.19L2395.86,3660.85L2396.05,3660.93L2400.18,3662.61L2400.38,3662.69L2404.51,3664.38L2404.7,3664.46L2408.83,3666.16L2409.02,3666.24L2413.14,3667.95L2413.34,3668.03L2417.42,3669.74L2417.56,3669.8L2421.67,3671.52L2421.93,3671.63L2426.02,3673.36L2426.16,3673.42L2430.23,3675.14L2430.43,3675.23L2434.52,3676.98L2434.72,3677.06L2438.77,3678.81L2438.91,3678.87L2443,3680.64L2443.26,3680.75L2447.32,3682.52L2447.46,3682.58L2451.53,3684.36L2451.79,3684.47L2455.85,3686.26L2455.99,3686.33L2460.02,3688.11L2460.22,3688.2L2464.26,3690.01L2464.46,3690.1L2468.5,3691.91L2468.71,3692L2472.71,3693.81L2472.86,3693.88L2476.89,3695.71L2477.16,3695.83L2481.18,3697.67L2481.32,3697.73L2485.3,3699.57L2485.51,3699.66L2489.52,3701.52L2489.73,3701.61L2493.74,3703.48L2493.94,3703.57L2497.94,3705.45L2498.14,3705.54L2502.14,3707.43L2502.35,3707.53L2506.33,3709.42L2506.53,3709.51L2510.48,3711.39L2510.63,3711.47L2514.58,3713.36L2514.78,3713.46L2518.78,3715.39L2519.05,3715.52L2523.01,3717.44L2523.16,3717.51L2527.08,3719.43L2527.29,3719.53L2531.21,3721.46L2531.35,3721.53L2535.3,3723.48L2535.57,3723.61L2539.54,3725.59L2539.76,3725.7L2543.65,3727.65L2543.79,3727.72L2547.69,3729.68L2547.9,3729.78L2551.86,3731.79L2552.13,3731.93L2556.04,3733.92L2556.18,3733.99L2560.06,3735.98L2560.27,3736.09L2564.17,3738.1L2564.39,3738.21L2568.25,3740.21L2568.39,3740.29L2572.28,3742.32L2572.56,3742.46L2576.48,3744.51L2576.68,3744.62L2580.53,3746.66L2580.67,3746.73L2584.51,3748.77L2584.72,3748.88L2588.63,3750.97L2588.91,3751.12L2592.76,3753.19L2592.89,3753.26L2596.72,3755.33L2596.93,3755.45L2600.78,3757.54L2600.99,3757.65L2604.79,3759.73L2604.93,3759.81L2608.78,3761.92L2609.06,3762.08L2612.92,3764.22L2613.13,3764.33L2616.91,3766.44L2617.05,3766.52L2620.87,3768.66L2621.16,3768.82L2624.96,3770.97L2625.1,3771.04L2628.87,3773.18L2629.08,3773.3L2632.88,3775.46L2633.09,3775.58L2636.88,3777.76L2637.1,3777.88L2640.88,3780.06L2641.09,3780.19L2644.87,3782.38L2645.08,3782.5L2648.81,3784.68L2648.96,3784.77L2652.73,3786.98L2653.01,3787.14L2656.8,3789.38L2657.01,3789.51L2660.72,3791.71L2660.87,3791.8L2664.58,3794.02L2664.79,3794.14L2668.57,3796.41L2668.86,3796.59L2672.58,3798.84L2672.72,3798.93L2676.41,3801.17L2676.62,3801.3L2680.34,3803.58L2680.56,3803.71L2684.27,3805.99L2684.48,3806.12L2688.15,3808.39L2688.28,3808.48L2691.99,3810.78L2692.28,3810.96L2696.01,3813.3L2696.22,3813.43L2699.87,3815.73L2700.01,3815.82L2703.69,3818.15L2703.98,3818.33L2707.65,3820.67L2707.78,3820.76L2711.45,3823.11L2711.74,3823.3L2715.39,3825.66L2715.53,3825.74L2719.15,3828.09L2719.37,3828.23L2723.01,3830.61L2723.23,3830.75L2726.86,3833.14L2727.08,3833.27L2730.71,3835.67L2730.92,3835.82L2734.55,3838.22L2734.76,3838.36L2738.38,3840.78L2738.59,3840.92L2742.2,3843.35L2742.41,3843.49L2745.98,3845.9L2746.12,3845.99L2749.72,3848.44L2750.01,3848.64L2753.6,3851.09L2753.74,3851.19L2757.32,3853.65L2757.61,3853.85L2761.18,3856.32L2761.32,3856.42L2764.89,3858.9L2765.18,3859.1L2768.74,3861.6L2768.88,3861.69L2772.4,3864.17L2772.61,3864.32L2776.14,3866.82L2776.33,3866.95L2778.11,3868.22L2778.18,3868.26L2779.99,3869.55L2780.22,3869.72L2781.9,3870.92L2783.58,3872.12L2783.8,3872.28L2785.6,3873.58L2785.68,3873.63L2787.49,3874.93L2787.7,3875.09L2789.38,3876.31L2791.06,3877.52L2791.28,3877.69L2793.08,3878.99L2793.15,3879.05L2794.87,3880.3L2794.93,3880.35L2796.73,3881.66L2796.95,3881.82L2798.74,3883.14L2798.8,3883.18L2800.51,3884.45L2800.58,3884.49L2802.29,3885.76L2802.36,3885.81L2804.15,3887.13L2804.38,3887.3L2806.03,3888.53L2807.69,3889.76L2807.91,3889.93L2809.69,3891.26L2809.76,3891.31L2811.54,3892.64L2811.78,3892.82L2813.42,3894.06L2815.07,3895.3L2815.3,3895.47L2817.15,3896.87L2817.38,3897.04L2819.02,3898.29L2820.67,3899.54L2820.89,3899.71L2822.53,3900.96L2824.26,3902.28L2824.65,3902.58L2826.36,3903.89L2827.91,3905.09L2827.97,3905.13L2829.74,3906.49L2829.97,3906.67L2831.74,3908.03L2831.8,3908.09L2833.56,3909.45L2833.79,3909.63L2835.41,3910.89L2837.04,3912.16L2837.26,3912.33L2839.01,3913.7L2839.08,3913.76L2840.75,3915.07L2840.82,3915.12L2842.57,3916.5L2842.8,3916.68L2844.41,3917.95L2846.03,3919.23L2846.26,3919.41L2848,3920.8L2848.07,3920.85L2849.81,3922.24L2850.04,3922.42L2851.78,3923.81L2851.84,3923.86L2853.37,3925.09L2855.07,3926.44L2855.45,3926.75L2857.13,3928.11L2858.74,3929.41L2858.97,3929.59L2860.69,3930.99L2860.75,3931.04L2862.4,3932.38L2862.47,3932.43L2864.12,3933.78L2864.19,3933.84L2865.92,3935.25L2866.14,3935.43L2867.72,3936.73L2869.4,3938.11L2869.8,3938.43L2871.47,3939.81L2872.97,3941.05L2873.03,3941.1L2874.75,3942.53L2874.98,3942.71L2876.69,3944.14L2876.75,3944.19L2878.47,3945.62L2878.7,3945.82L2880.28,3947.14L2881.86,3948.46L2882.08,3948.65L2883.79,3950.09L2883.85,3950.14L2885.47,3951.51L2885.54,3951.56L2887.25,3953.01L2887.48,3953.2L2889.04,3954.53L2890.61,3955.86L2890.84,3956.06L2892.62,3957.58L2892.84,3957.77L2894.4,3959.11L2895.97,3960.45L2896.2,3960.65L2897.89,3962.11L2897.95,3962.16L2899.55,3963.54L2899.62,3963.6L2901.23,3964.99L2901.3,3965.05L2902.99,3966.52L2903.21,3966.71L2904.89,3968.17L2904.95,3968.23L2906.56,3969.63L2906.62,3969.68L2908.22,3971.09L2908.28,3971.14L2909.97,3972.62L2910.19,3972.82L2911.87,3974.3L2911.93,3974.35L2913.53,3975.76L2913.59,3975.82L2915.26,3977.3L2915.48,3977.5L2917.02,3978.87L2918.56,3980.24L2918.78,3980.44L2920.45,3981.93L2920.51,3981.98L2922.18,3983.48L2922.41,3983.68L2923.94,3985.06L2925.47,3986.44L2925.69,3986.64L2927.35,3988.14L2927.42,3988.2L2929,3989.64L2929.05,3989.69L2930.71,3991.2L2930.93,3991.4L2932.59,3992.91L2932.65,3992.97L2934.22,3994.41L2934.28,3994.46L2935.85,3995.9L2935.91,3995.95L2937.56,3997.47L2937.78,3997.68L2939.43,3999.2L2939.49,3999.26L2941.05,4000.71L2941.11,4000.76L2942.67,4002.21L2942.73,4002.27L2944.38,4003.8L2944.6,4004L2946.1,4005.41L2947.62,4006.82L2947.84,4007.03L2949.56,4008.65L2949.78,4008.86L2951.28,4010.27L2952.78,4011.69L2953,4011.89L2954.63,4013.44L2954.69,4013.5L2956.24,4014.97L2956.3,4015.03L2957.93,4016.58L2958.15,4016.79L2959.77,4018.34L2959.83,4018.4L2961.37,4019.88L2961.42,4019.93L2962.96,4021.41L2963.02,4021.47L2964.56,4022.95L2964.62,4023.01L2966.24,4024.57L2966.46,4024.78L2968.07,4026.35L2968.13,4026.41L2969.66,4027.9L2969.72,4027.96L2971.34,4029.53L2971.55,4029.74L2973.16,4031.32L2973.22,4031.38L2974.75,4032.88L2974.8,4032.93L2976.32,4034.43L2976.38,4034.49L2977.91,4035.99L2977.96,4036.04L2979.56,4037.63L2979.79,4037.85L2981.39,4039.44L2981.44,4039.5L2982.96,4041.01L2983.01,4041.06L2984.61,4042.65L2984.84,4042.88L2986.43,4044.48L2986.48,4044.53L2987.98,4046.05L2988.04,4046.1L2989.55,4047.62L2989.61,4047.68L2991.12,4049.2L2991.17,4049.26L2992.76,4050.87L2992.98,4051.1L2994.57,4052.71L2994.62,4052.76L2996.11,4054.29L2996.16,4054.34L2997.75,4055.95L2997.97,4056.19L2999.55,4057.81L2999.61,4057.87L3001.1,4059.4L3001.15,4059.45L3002.64,4060.99L3002.69,4061.05L3004.19,4062.59L3004.24,4062.65L3005.82,4064.28L3006.04,4064.51L3007.6,4066.14L3007.66,4066.2L3009.14,4067.75L3009.19,4067.8L3010.76,4069.44L3010.98,4069.67L3012.4,4071.17L3013.83,4072.66L3014.05,4072.9L3015.69,4074.63L3015.9,4074.86L3017.32,4076.36L3018.74,4077.87L3018.96,4078.1L3020.51,4079.76L3020.56,4079.81L3022.03,4081.38L3022.08,4081.43L3023.63,4083.1L3023.85,4083.33L3025.25,4084.84L3026.66,4086.36L3026.88,4086.59L3028.51,4088.35L3028.72,4088.59L3030.12,4090.11L3031.52,4091.63L3031.74,4091.87L3033.27,4093.54L3033.33,4093.6L3034.78,4095.19L3034.83,4095.24L3036.36,4096.93L3036.58,4097.16L3038.11,4098.85L3038.16,4098.91L3039.61,4100.51L3039.65,4100.56L3041.1,4102.16L3041.15,4102.22L3042.59,4103.82L3042.64,4103.87L3044.17,4105.57L3044.39,4105.81L3045.91,4107.51L3045.95,4107.56L3047.47,4109.26L3047.69,4109.51L3049.06,4111.06L3050.44,4112.61L3050.66,4112.85L3052.16,4114.56L3052.21,4114.61L3053.64,4116.23L3053.69,4116.29L3055.2,4118.01L3055.41,4118.25L3056.91,4119.96L3056.96,4120.02L3058.39,4121.65L3058.44,4121.71L3059.86,4123.34L3059.91,4123.4L3061.41,4125.12L3061.62,4125.37L3063.12,4127.09L3063.16,4127.15L3064.58,4128.79L3064.63,4128.84L3066.04,4130.48L3066.09,4130.54L3067.58,4132.28L3067.8,4132.52L3069.28,4134.27L3069.33,4134.32L3070.74,4135.97L3070.78,4136.03L3072.19,4137.68L3072.23,4137.73L3073.72,4139.48L3073.93,4139.73L3075.41,4141.48L3075.46,4141.54L3076.86,4143.2L3076.9,4143.25L3078.3,4144.91L3078.35,4144.97L3079.83,4146.73L3080.03,4146.97L3081.5,4148.73L3081.55,4148.79L3082.94,4150.46L3082.99,4150.52L3084.38,4152.19L3084.43,4152.25L3085.9,4154.02L3086.1,4154.27L3087.56,4156.04L3087.61,4156.1L3088.99,4157.78L3089.04,4157.84L3090.5,4159.62L3090.7,4159.87L3092.02,4161.48L3093.35,4163.1L3093.55,4163.35L3095.01,4165.14L3095.05,4165.19L3096.5,4166.98L3096.71,4167.24L3098.16,4169.03L3098.2,4169.09L3099.57,4170.78L3099.61,4170.84L3100.98,4172.53L3101.02,4172.59L3102.39,4174.29L3102.43,4174.35L3103.88,4176.16L3104.09,4176.41L3105.52,4178.22L3105.56,4178.27L3107,4180.08L3107.21,4180.34L3108.5,4181.98L3109.8,4183.62L3110,4183.88L3111.43,4185.7L3111.48,4185.76L3112.83,4187.48L3112.87,4187.53L3114.3,4189.35L3114.5,4189.61L3115.92,4191.44L3115.96,4191.49L3117.31,4193.22L3117.35,4193.27L3118.69,4195L3118.74,4195.06L3120.16,4196.9L3120.36,4197.16L3121.77,4199L3121.81,4199.05L3123.14,4200.78L3123.18,4200.84L3124.52,4202.58L3124.57,4202.65L3125.98,4204.49L3126.17,4204.74L3127.58,4206.59L3127.63,4206.65L3128.95,4208.4L3128.99,4208.45L3130.39,4210.31L3130.6,4210.57L3131.86,4212.25L3133.13,4213.93L3133.32,4214.19L3134.72,4216.05L3134.76,4216.11L3136.16,4217.98L3136.35,4218.23L3137.74,4220.1L3137.78,4220.16L3139.1,4221.93L3139.14,4221.99L3140.45,4223.76L3140.49,4223.81L3141.88,4225.69L3142.07,4225.95L3143.32,4227.65L3144.57,4229.35L3144.76,4229.61L3146.22,4231.6L3146.41,4231.87L3147.65,4233.58L3148.9,4235.28L3149.09,4235.54L3150.46,4237.44L3150.5,4237.5L3151.88,4239.4L3152.07,4239.66L3153.3,4241.37L3154.54,4243.09L3154.72,4243.35L3156.09,4245.26L3156.13,4245.32L3157.5,4247.23L3157.68,4247.49L3158.9,4249.21L3160.14,4250.94L3160.33,4251.21L3161.76,4253.24L3161.95,4253.5L3163.16,4255.23L3164.39,4256.97L3164.58,4257.24L3165.92,4259.16L3165.96,4259.22L3167.23,4261.04L3167.27,4261.09L3168.61,4263.02L3168.8,4263.29L3170.01,4265.03L3171.23,4266.78L3171.41,4267.05L3172.83,4269.1L3173.01,4269.37L3174.21,4271.12L3175.42,4272.88L3175.6,4273.15L3176.93,4275.09L3176.97,4275.15L3178.3,4277.1L3178.49,4277.37L3179.68,4279.14L3180.88,4280.9L3181.06,4281.17L3182.38,4283.12L3182.42,4283.17L3183.74,4285.13L3183.93,4285.41L3185.24,4287.38L3185.28,4287.43L3186.39,4289.1L3187.65,4290.98L3187.98,4291.47L3189.23,4293.36L3190.42,4295.14L3190.6,4295.42L3191.9,4297.4L3191.94,4297.45L3193.17,4299.32L3193.21,4299.38L3194.51,4301.36L3194.69,4301.63L3195.98,4303.61L3196.02,4303.67L3197.24,4305.55L3197.28,4305.6L3198.51,4307.48L3198.54,4307.54L3199.84,4309.54L3200.01,4309.81L3201.3,4311.8L3201.33,4311.85L3202.55,4313.74L3202.59,4313.8L3203.81,4315.69L3203.84,4315.74L3205.13,4317.75L3205.3,4318.03L3206.58,4320.04L3206.62,4320.08L3207.82,4321.98L3207.86,4322.04L3209.14,4324.06L3209.31,4324.33L3210.46,4326.15L3211.62,4327.98L3211.79,4328.25L3213.13,4330.39L3213.3,4330.66L3214.45,4332.49L3215.59,4334.32L3215.76,4334.6L3217.03,4336.63L3217.06,4336.68L3218.32,4338.71L3218.49,4338.99L3219.63,4340.83L3220.77,4342.68L3220.94,4342.95L3222.19,4344.99L3222.22,4345.04L3223.48,4347.08L3223.65,4347.36L3224.9,4349.41L3224.93,4349.47L3226.11,4351.41L3226.14,4351.45L3227.31,4353.39L3227.34,4353.44L3228.52,4355.39L3228.56,4355.44L3229.8,4357.51L3229.97,4357.78L3231.21,4359.84L3231.24,4359.9L3232.47,4361.96L3232.64,4362.24L3233.75,4364.11L3234.87,4365.97L3235.03,4366.25L3236.26,4368.33L3236.3,4368.38L3237.53,4370.46L3237.69,4370.74L3238.79,4372.62L3239.9,4374.49L3240.07,4374.77L3241.29,4376.86L3241.32,4376.91L3242.54,4378.99L3242.7,4379.27L3243.91,4381.36L3243.94,4381.42L3245.09,4383.4L3245.12,4383.45L3246.27,4385.43L3246.3,4385.48L3247.51,4387.58L3247.67,4387.86L3248.88,4389.96L3248.9,4390.01L3250.04,4392L3250.07,4392.05L3251.21,4394.04L3251.24,4394.1L3252.44,4396.21L3252.61,4396.49L3253.8,4398.61L3253.83,4398.65L3254.96,4400.65L3254.99,4400.7L3256.12,4402.71L3256.15,4402.76L3257.34,4404.88L3257.5,4405.16L3258.68,4407.28L3258.72,4407.34L3259.84,4409.35L3259.87,4409.4L3261.05,4411.52L3261.21,4411.81L3262.39,4413.94L3262.42,4414L3263.53,4416.02L3263.56,4416.06L3264.68,4418.09L3264.7,4418.13L3265.88,4420.28L3266.04,4420.56L3267.21,4422.7L3267.23,4422.75L3268.34,4424.78L3268.37,4424.83L3269.54,4426.98L3269.69,4427.27L3270.74,4429.21L3271.8,4431.16L3271.95,4431.45L3273.18,4433.72L3273.33,4434L3274.37,4435.95L3275.42,4437.91L3275.57,4438.19L3276.73,4440.36L3276.75,4440.4L3277.91,4442.58L3278.06,4442.86L3279.09,4444.83L3280.14,4446.79L3280.28,4447.07L3281.49,4449.37L3281.64,4449.65L3282.67,4451.62L3283.7,4453.6L3283.85,4453.88L3284.99,4456.07L3285.01,4456.12L3286.09,4458.19L3286.12,4458.24L3287.25,4460.43L3287.4,4460.72L3288.53,4462.91L3288.55,4462.96L3289.62,4465.04L3289.65,4465.09L3290.72,4467.17L3290.74,4467.22L3291.87,4469.43L3292.01,4469.71L3293.13,4471.91L3293.16,4471.96L3294.22,4474.06L3294.24,4474.1L3295.36,4476.32L3295.51,4476.6L3296.62,4478.82L3296.64,4478.87L3297.7,4480.97L3297.72,4481.01L3298.77,4483.11L3298.8,4483.17L3299.91,4485.39L3300.05,4485.67L3301.15,4487.9L3301.18,4487.95L3302.22,4490.06L3302.24,4490.1L3303.29,4492.22L3303.31,4492.27L3304.42,4494.5L3304.56,4494.79L3305.65,4497.03L3305.68,4497.07L3306.71,4499.2L3306.74,4499.25L3307.83,4501.49L3307.97,4501.77L3309.06,4504.02L3309.08,4504.07L3310.11,4506.2L3310.13,4506.24L3311.16,4508.38L3311.18,4508.43L3312.27,4510.68L3312.41,4510.96L3313.48,4513.22L3313.51,4513.27L3314.53,4515.42L3314.55,4515.46L3315.63,4517.72L3315.76,4518.01L3316.73,4520.06L3317.76,4522.23L3318.01,4522.76L3319.03,4524.94L3320,4527L3320.13,4527.28L3321.09,4529.34L3322.12,4531.53L3322.36,4532.05L3323.37,4534.24L3324.33,4536.31L3324.46,4536.6L3325.52,4538.89L3325.54,4538.93L3326.54,4541.11L3326.56,4541.15L3327.61,4543.45L3327.74,4543.73L3328.79,4546.03L3328.81,4546.08L3329.8,4548.26L3329.82,4548.3L3330.81,4550.49L3330.83,4550.53L3331.87,4552.84L3332,4553.12L3333.04,4555.44L3333.06,4555.48L3334.04,4557.68L3334.06,4557.72L3335.1,4560.04L3335.23,4560.32L3336.26,4562.64L3336.28,4562.69L3337.25,4564.89L3337.27,4564.93L3338.24,4567.13L3338.26,4567.18L3339.29,4569.51L3339.42,4569.8L3340.44,4572.13L3340.46,4572.17L3341.43,4574.38L3341.45,4574.43L3342.41,4576.64L3342.43,4576.69L3343.45,4579.03L3343.58,4579.31L3344.59,4581.65L3344.61,4581.7L3345.62,4584.04L3345.74,4584.32L3346.65,4586.45L3347.57,4588.59L3347.69,4588.87L3348.69,4591.23L3348.71,4591.27L3349.71,4593.62L3349.84,4593.91L3350.83,4596.27L3350.85,4596.32L3351.8,4598.56L3351.81,4598.6L3352.76,4600.84L3352.77,4600.88L3353.77,4603.25L3353.89,4603.54L3354.88,4605.91L3354.89,4605.95L3355.83,4608.21L3355.85,4608.25L3356.79,4610.51L3356.8,4610.55L3357.79,4612.93L3357.91,4613.21L3358.89,4615.6L3358.9,4615.64L3359.83,4617.9L3359.85,4617.94L3360.83,4620.33L3360.94,4620.62L3361.91,4623.01L3361.93,4623.05L3362.85,4625.32L3362.87,4625.37L3363.84,4627.77L3363.95,4628.05L3364.83,4630.23L3365.71,4632.41L3365.82,4632.7L3366.83,4635.23L3366.95,4635.51L3367.81,4637.69L3368.69,4639.88L3368.8,4640.17L3369.75,4642.58L3369.77,4642.62L3370.72,4645.05L3370.84,4645.33L3371.69,4647.53L3372.56,4649.73L3372.67,4650.01L3373.66,4652.56L3373.77,4652.84L3374.62,4655.05L3375.48,4657.26L3375.59,4657.55L3376.53,4659.98L3376.55,4660.02L3377.48,4662.46L3377.59,4662.74L3378.52,4665.18L3378.54,4665.22L3379.42,4667.55L3379.43,4667.59L3380.32,4669.91L3380.33,4669.95L3381.22,4672.28L3381.23,4672.32L3382.16,4674.78L3382.27,4675.06L3383.19,4677.51L3383.2,4677.55L3384.12,4680.02L3384.23,4680.3L3385.14,4682.76L3385.16,4682.8L3386.02,4685.14L3386.04,4685.18L3386.91,4687.53L3386.92,4687.56L3387.83,4690.03L3387.94,4690.32L3388.76,4692.57L3389.63,4694.94L3389.83,4695.47L3390.69,4697.85L3391.51,4700.11L3391.61,4700.39L3392.51,4702.87L3392.52,4702.91L3393.37,4705.28L3393.39,4705.32L3394.28,4707.81L3394.38,4708.09L3395.27,4710.59L3395.29,4710.62L3396.13,4713L3396.14,4713.03L3396.99,4715.41L3397,4715.45L3397.89,4717.95L3397.99,4718.24L3398.87,4720.75L3398.88,4720.78L3399.72,4723.17L3399.73,4723.2L3400.61,4725.72L3400.71,4726L3401.58,4728.52L3401.59,4728.55L3402.42,4730.95L3402.44,4730.99L3403.31,4733.51L3403.4,4733.79L3404.19,4736.09L3404.99,4738.39L3405.08,4738.67L3405.99,4741.32L3406.08,4741.6L3406.94,4744.14L3406.95,4744.17L3407.69,4746.36L3408.52,4748.8L3408.69,4749.32L3409.51,4751.76L3410.28,4754.08L3410.38,4754.36L3411.23,4756.91L3411.24,4756.94L3412.05,4759.38L3412.06,4759.41L3412.9,4761.96L3412.99,4762.24L3413.83,4764.8L3413.85,4764.83L3414.64,4767.27L3414.66,4767.31L3415.5,4769.88L3415.59,4770.15L3416.42,4772.72L3416.43,4772.75L3417.22,4775.2L3417.23,4775.23L3418.02,4777.69L3418.03,4777.72L3418.87,4780.3L3418.95,4780.57L3419.78,4783.15L3419.79,4783.18L3420.57,4785.64L3420.58,4785.68L3421.41,4788.27L3421.49,4788.54L3422.31,4791.13L3422.32,4791.16L3423.1,4793.64L3423.11,4793.67L3423.88,4796.14L3423.89,4796.17L3424.71,4798.77L3424.79,4799.04L3425.6,4801.64L3425.61,4801.68L3426.42,4804.28L3426.5,4804.56L3427.23,4806.94L3427.97,4809.32L3428.05,4809.59L3428.85,4812.21L3428.86,4812.24L3429.66,4814.86L3429.74,4815.13L3430.53,4817.75L3430.54,4817.78L3431.3,4820.28L3431.31,4820.31L3432.06,4822.82L3432.07,4822.85L3432.86,4825.47L3432.94,4825.75L3433.73,4828.38L3433.74,4828.41L3434.48,4830.93L3434.49,4830.95L3435.27,4833.59L3435.36,4833.86L3436.13,4836.5L3436.14,4836.53L3436.88,4839.06L3436.89,4839.09L3437.63,4841.61L3437.64,4841.64L3438.41,4844.29L3438.49,4844.57L3439.26,4847.22L3439.26,4847.25L3440,4849.78L3440,4849.81L3440.77,4852.47L3440.85,4852.74L3441.61,4855.4L3441.62,4855.43L3442.34,4857.98L3442.35,4858.01L3443.11,4860.67L3443.18,4860.94L3443.87,4863.39L3444.56,4865.84L3444.64,4866.11L3445.42,4868.9L3445.5,4869.17L3446.24,4871.85L3446.25,4871.88L3446.96,4874.44L3446.97,4874.47L3447.68,4877.04L3447.68,4877.07L3448.39,4879.64L3448.4,4879.67L3449.14,4882.36L3449.22,4882.62L3449.95,4885.32L3449.96,4885.35L3450.69,4888.05L3450.77,4888.32L3451.49,4891.02L3451.5,4891.05L3452.19,4893.63L3452.2,4893.65L3452.89,4896.24L3452.9,4896.27L3453.63,4898.98L3453.7,4899.25L3454.42,4901.96L3454.43,4901.99L3455.11,4904.59L3455.12,4904.61L3455.81,4907.21L3455.81,4907.24L3456.53,4909.96L3456.6,4910.23L3457.31,4912.95L3457.32,4912.98L3458.03,4915.71L3458.1,4915.98L3458.8,4918.71L3458.81,4918.74L3459.48,4921.35L3459.48,4921.38L3460.16,4924L3460.16,4924.03L3460.87,4926.77L3460.93,4927.03L3461.57,4929.55L3462.24,4932.19L3462.37,4932.7L3463.03,4935.34L3463.67,4937.86L3463.74,4938.13L3464.42,4940.89L3464.43,4940.92L3465.11,4943.67L3465.18,4943.94L3465.8,4946.47L3466.43,4949.02L3466.5,4949.28L3467.2,4952.16L3467.27,4952.43L3467.88,4954.98L3468.51,4957.53L3468.57,4957.79L3469.24,4960.57L3469.25,4960.59L3469.92,4963.37L3469.98,4963.64L3470.64,4966.42L3470.65,4966.44L3471.28,4969.11L3471.29,4969.14L3471.92,4971.81L3471.93,4971.84L3472.59,4974.63L3472.65,4974.89L3473.31,4977.69L3473.31,4977.71L3473.94,4980.39L3473.94,4980.42L3474.6,4983.22L3474.66,4983.48L3475.3,4986.29L3475.31,4986.31L3475.93,4989L3475.93,4989.03L3476.55,4991.72L3476.56,4991.74L3477.2,4994.56L3477.26,4994.82L3477.9,4997.64L3477.91,4997.66L3478.55,5000.48L3478.6,5000.74L3479.18,5003.34L3479.8,5006.07L3479.91,5006.56L3480.51,5009.28L3481.06,5011.78L3481.07,5011.8L3481.7,5014.64L3481.75,5014.9L3482.4,5017.85L3482.46,5018.11L3483.03,5020.73L3483.6,5023.35L3483.65,5023.61L3484.27,5026.46L3484.27,5026.48L3484.89,5029.34L3484.94,5029.59L3485.5,5032.23L3486.07,5034.86L3486.12,5035.12L3486.75,5038.1L3486.81,5038.36L3487.36,5041L3487.92,5043.64L3487.97,5043.9L3488.57,5046.77L3488.58,5046.79L3489.18,5049.67L3489.23,5049.92L3489.82,5052.8L3489.82,5052.82L3490.39,5055.58L3490.39,5055.61L3490.96,5058.37L3490.97,5058.39L3491.56,5061.28L3491.61,5061.54L3492.19,5064.43L3492.19,5064.45L3492.78,5067.34L3492.83,5067.6L3493.36,5070.27L3493.9,5072.95L3493.95,5073.2L3494.55,5076.22L3494.6,5076.48L3495.12,5079.16L3495.65,5081.84L3495.7,5082.1L3496.27,5085.01L3496.27,5085.03L3496.84,5087.95L3496.89,5088.2L3497.44,5091.12L3497.45,5091.14L3497.99,5093.94L3497.99,5093.97L3498.53,5096.77L3498.53,5096.8L3499.09,5099.72L3499.14,5099.98L3499.69,5102.91L3499.69,5102.93L3500.22,5105.74L3500.22,5105.76L3500.78,5108.7L3500.82,5108.95L3501.37,5111.9L3501.37,5111.91L3501.89,5114.74L3501.89,5114.76L3502.44,5117.71L3502.48,5117.96L3503.02,5120.92L3503.03,5120.94L3504.06,5126.68L3504.09,5126.83L3505.13,5132.64L3505.16,5132.79L3506.21,5138.67L3506.25,5138.94L3507.28,5144.83L3507.31,5144.98L3508.32,5150.83L3508.35,5150.98L3509.36,5156.9L3509.41,5157.16L3510.39,5163.03L3510.4,5163.07L3511.39,5168.96L3511.43,5169.22L3512.42,5175.18L3512.44,5175.32L3513.41,5181.29L3513.46,5181.56L3514.41,5187.48L3514.41,5187.51L3515.37,5193.45L3515.41,5193.71L3516.35,5199.72L3516.37,5199.87L3517.3,5205.83L3517.32,5205.98L3518.25,5212.01L3518.29,5212.27L3519.2,5218.26L3519.2,5218.29L3520.11,5224.3L3520.15,5224.55L3521.05,5230.68L3521.09,5230.94L3521.97,5236.97L3521.97,5237L3522.84,5243.04L3522.88,5243.3L3523.75,5249.41L3523.77,5249.55L3524.62,5255.62L3524.64,5255.77L3525.49,5261.9L3525.53,5262.16L3526.36,5268.25L3526.36,5268.28L3527.19,5274.39L3527.22,5274.64L3528.05,5280.82L3528.06,5280.96L3528.88,5287.15L3528.91,5287.4L3529.71,5293.61L3529.72,5293.75L3530.51,5299.91L3530.53,5300.05L3531.3,5306.22L3531.32,5306.36L3532.09,5312.55L3532.11,5312.69L3532.87,5318.95L3532.9,5319.19L3533.66,5325.46L3533.67,5325.6L3534.41,5331.83L3534.43,5331.96L3535.16,5338.26L3535.19,5338.51L3535.91,5344.82L3535.93,5344.95L3536.64,5351.22L3536.65,5351.36L3537.35,5357.64L3537.37,5357.77L3538.06,5364.07L3538.08,5364.2L3538.77,5370.57L3538.79,5370.81L3539.47,5377.19L3539.49,5377.32L3540.15,5383.71L3540.18,5383.95L3540.83,5390.3L3540.83,5390.32L3541.48,5396.69L3541.5,5396.92L3542.14,5403.36L3542.15,5403.49L3542.78,5409.93L3542.81,5410.17L3543.42,5416.58L3543.42,5416.6L3544.03,5423.02L3544.05,5423.25L3544.66,5429.79L3544.68,5430.02L3545.26,5436.47L3545.26,5436.49L3545.84,5442.95L3545.86,5443.18L3546.43,5449.71L3546.44,5449.84L3547,5456.33L3547.01,5456.45L3547.57,5463.01L3547.59,5463.24L3548.12,5469.81L3548.14,5469.93L3548.66,5476.46L3548.67,5476.58L3549.19,5483.13L3549.2,5483.25L3549.72,5489.86L3549.74,5490.09L3550.24,5496.71L3550.25,5496.83L3550.74,5503.42L3550.75,5503.54L3551.24,5510.19L3551.25,5510.41L3551.72,5517.08L3551.73,5517.2L3552.19,5523.83L3552.2,5523.95L3552.65,5530.59L3552.66,5530.71L3553.11,5537.42L3553.13,5537.64L3553.56,5544.36L3553.57,5544.48L3553.99,5551.16L3554,5551.28L3554.42,5558.03L3554.43,5558.24L3554.84,5565.01L3554.84,5565.12L3555.24,5571.85L3555.24,5571.97L3555.63,5578.71L3555.64,5578.82L3556.02,5585.63L3556.03,5585.84L3556.39,5592.66L3556.4,5592.78L3556.76,5599.61L3556.77,5599.82L3557.11,5606.62L3557.11,5606.63L3557.45,5613.44L3557.47,5613.65L3557.8,5620.58L3557.81,5620.8L3558.12,5627.64L3558.12,5627.64L3558.43,5634.5L3558.44,5634.71L3558.74,5641.63L3558.74,5641.74L3559.03,5648.67L3559.04,5648.88L3559.32,5655.78L3559.32,5655.78L3559.59,5662.7L3559.6,5662.9L3559.86,5669.93L3559.87,5670.14L3560.12,5677.08L3560.36,5684.04L3560.37,5684.24L3560.6,5691.31L3560.61,5691.52L3560.82,5698.51L3561.04,5705.5L3561.04,5705.71L3561.24,5712.82L3561.25,5713.02L3561.44,5720.05L3561.62,5727.09L3561.63,5727.29L3561.8,5734.4L3561.8,5734.5L3561.97,5741.62L3561.97,5741.82L3562.12,5748.91L3562.27,5756.06L3562.27,5756.35L3562.4,5763.52L3562.53,5770.65L3562.53,5770.84L3562.64,5778.03L3562.64,5778.14L3562.74,5785.29L3562.75,5785.39L3562.84,5792.61L3562.85,5792.81L3562.93,5800.04L3562.93,5800.14L3563,5807.39L3563.01,5807.58L3563.06,5814.8L3563.12,5822.03L3563.12,5822.22L3563.17,5829.56L3563.17,5829.76L3563.2,5837.02L3563.23,5844.29L3563.23,5844.48L3563.24,5851.8L3563.24,5851.85L3563.29,5882.16L3563.34,5913.24L3563.4,5945.1L3563.47,5977.74L3563.47,5977.74L3563.54,6011.13L3563.63,6045.23L3563.73,6080.05L3563.83,6115.56L3563.94,6151.72L3564.06,6188.5L3564.19,6225.91L3564.19,6225.91L3564.32,6263.92L3564.46,6302.49L3564.46,6302.5L3564.61,6341.62L3564.77,6381.26L3564.94,6421.43L3564.94,6421.44L3565.11,6462.07L3565.29,6503.16L3565.48,6544.69L3565.67,6586.65L3565.88,6629.01L3565.88,6629.01L3566.08,6671.73L3566.3,6714.78L3566.53,6758.18L3566.76,6801.88L3567,6845.87L3567,6845.88L3567.24,6890.12L3567.5,6934.61L3567.75,6979.3L3568.02,7024.2L3568.29,7069.27L3568.58,7114.49L3568.86,7159.85L3569.16,7205.3L3569.45,7250.84L3569.76,7296.44L3570.07,7342.07L3570.39,7387.75L3570.72,7433.41L3571.04,7479.03L3571.39,7524.61L3571.39,7524.62L3571.72,7570.14L3572.07,7615.54L3572.43,7660.85L3572.79,7706.03L3573.15,7751.03L3573.53,7795.86L3573.9,7840.48L3574.29,7884.88L3574.68,7929.05L3575.07,7972.92L3575.47,8016.52L3575.87,8059.81L3576.28,8102.74L3576.7,8145.32L3577.12,8187.53L3577.54,8229.33L3577.97,8270.7L3578.41,8311.64L3578.85,8352.1L3579.29,8392.08L3579.74,8431.52L3580.2,8470.45L3580.2,8470.46L3580.42,8489.7L3582.94,8695.66L3209.21,8700.22L3206.69,8494.19L3206.69,8494.15L3206.46,8474.85L3206,8435.86L3206,8435.81L3205.56,8396.27L3205.56,8396.26L3205.11,8356.22L3205.11,8356.19L3204.67,8315.66L3204.67,8315.65L3204.24,8274.66L3204.24,8274.63L3203.8,8233.18L3203.8,8233.16L3203.38,8191.29L3203.38,8191.28L3202.96,8149.03L3202.96,8149L3202.54,8106.35L3202.54,8106.33L3202.13,8063.33L3202.13,8063.31L3201.73,8019.98L3201.73,8019.97L3201.33,7976.33L3201.33,7976.31L3200.93,7932.37L3200.93,7932.35L3200.55,7888.15L3200.55,7888.15L3200.16,7843.7L3200.16,7843.68L3199.78,7799.01L3199.78,7798.99L3199.41,7754.11L3199.41,7754.09L3199.04,7709.03L3199.04,7709.02L3198.68,7663.81L3198.68,7663.81L3198.33,7618.46L3198.33,7618.45L3197.97,7572.97L3197.97,7572.94L3197.64,7527.4L3197.3,7481.79L3197.3,7481.76L3196.97,7436.08L3196.97,7436.06L3196.64,7390.37L3196.32,7344.68L3196.32,7344.66L3196.01,7298.98L3196.01,7298.97L3195.7,7253.33L3195.7,7253.31L3195.4,7207.73L3195.4,7207.72L3195.11,7162.23L3195.11,7162.21L3194.83,7116.83L3194.54,7071.58L3194.54,7071.55L3194.27,7026.44L3194,6981.51L3194,6981.48L3193.74,6936.74L3193.49,6892.22L3193.49,6892.2L3193.25,6847.91L3193.01,6803.9L3193.01,6803.89L3192.77,6760.15L3192.77,6760.14L3192.55,6716.71L3192.55,6716.7L3192.33,6673.59L3192.33,6673.56L3192.12,6630.81L3191.92,6588.43L3191.92,6588.42L3191.72,6546.43L3191.72,6546.42L3191.53,6504.85L3191.53,6504.83L3191.35,6463.69L3191.35,6463.66L3191.18,6422.99L3191.01,6382.8L3191.01,6382.79L3190.85,6343.09L3190.85,6343.06L3190.71,6303.9L3190.56,6265.29L3190.56,6265.26L3190.43,6227.21L3190.3,6189.76L3190.3,6189.73L3190.18,6152.88L3190.18,6152.87L3190.07,6116.66L3190.07,6116.65L3189.97,6081.11L3189.97,6081.09L3189.87,6046.23L3189.87,6046.21L3189.79,6012.04L3189.79,6012L3189.71,5978.57L3189.64,5945.88L3189.64,5945.84L3189.58,5913.9L3189.58,5913.89L3189.53,5882.75L3189.53,5882.73L3189.49,5852.48L3189.47,5845.53L3189.44,5838.54L3189.41,5831.57L3189.37,5824.8L3189.32,5817.86L3189.26,5810.94L3189.19,5804.13L3189.11,5797.33L3189.02,5790.56L3188.92,5783.7L3188.82,5776.95L3188.7,5770.12L3188.58,5763.41L3188.44,5756.71L3188.3,5749.93L3188.14,5743.27L3187.98,5736.62L3187.81,5729.89L3187.63,5723.17L3187.44,5716.67L3187.24,5709.99L3187.03,5703.32L3186.82,5696.87L3186.59,5690.23L3186.35,5683.61L3186.11,5677.21L3185.85,5670.62L3185.59,5664.05L3185.32,5657.6L3185.04,5651.16L3184.74,5644.63L3184.45,5638.12L3184.15,5631.83L3183.82,5625.36L3183.5,5618.89L3183.16,5612.55L3182.82,5606.22L3182.47,5599.91L3182.1,5593.51L3181.73,5587.13L3181.36,5580.86L3180.97,5574.62L3180.57,5568.28L3180.16,5562.06L3179.75,5555.86L3179.32,5549.57L3178.89,5543.3L3178.45,5537.15L3178,5531.01L3177.54,5524.78L3177.07,5518.68L3176.6,5512.59L3176.11,5506.4L3175.61,5500.24L3175.11,5494.2L3174.6,5488.17L3174.07,5482.05L3173.55,5476.05L3173,5469.97L3172.45,5463.9L3171.91,5458.05L3171.34,5452.01L3170.77,5445.98L3170.19,5440.08L3169.6,5434.19L3168.99,5428.21L3168.39,5422.25L3167.78,5416.41L3167.16,5410.58L3166.53,5404.77L3165.88,5398.87L3165.22,5392.98L3164.56,5387.11L3163.9,5381.36L3163.23,5375.63L3162.54,5369.8L3161.85,5364.1L3161.15,5358.41L3160.44,5352.63L3159.71,5346.86L3158.98,5341.11L3158.26,5335.49L3157.52,5329.88L3156.77,5324.28L3156,5318.59L3155.23,5312.92L3154.46,5307.37L3153.67,5301.72L3152.88,5296.2L3152.07,5290.59L3151.26,5284.98L3150.47,5279.62L3149.62,5274.05L3148.79,5268.5L3147.95,5263.07L3147.09,5257.54L3146.24,5252.15L3145.36,5246.65L3144.48,5241.17L3143.61,5235.82L3142.73,5230.48L3141.81,5225.04L3140.9,5219.62L3139.99,5214.32L3139.06,5208.93L3138.14,5203.67L3137.21,5198.42L3136.25,5193.07L3135.26,5187.61L3134.8,5185.08L3134.33,5182.54L3133.82,5179.77L3133.35,5177.23L3132.88,5174.7L3132.36,5171.94L3131.88,5169.42L3131.4,5166.9L3130.88,5164.15L3130.35,5161.41L3129.87,5158.9L3129.39,5156.39L3128.9,5153.89L3128.38,5151.27L3128.34,5151.06L3127.83,5148.43L3127.38,5146.18L3126.86,5143.57L3126.81,5143.35L3126.3,5140.74L3125.8,5138.26L3125.3,5135.79L3124.79,5133.32L3124.24,5130.62L3123.69,5127.92L3123.18,5125.46L3122.67,5123L3122.16,5120.55L3121.61,5117.97L3121.57,5117.76L3121.03,5115.19L3120.56,5112.98L3120.01,5110.41L3119.97,5110.2L3119.42,5107.64L3118.9,5105.2L3118.38,5102.78L3117.82,5100.23L3117.77,5100.01L3117.22,5097.46L3116.74,5095.28L3116.21,5092.87L3115.59,5090.1L3115.54,5089.89L3115.04,5087.59L3114.52,5085.29L3114.47,5085.08L3113.91,5082.55L3113.37,5080.16L3112.82,5077.76L3112.28,5075.38L3111.67,5072.76L3111.07,5070.14L3110.53,5067.77L3109.97,5065.39L3109.36,5062.79L3108.81,5060.42L3108.25,5058.06L3107.63,5055.46L3107.02,5052.87L3106.46,5050.52L3105.89,5048.17L3105.33,5045.83L3104.72,5043.36L3104.67,5043.15L3104.08,5040.68L3103.56,5038.59L3102.95,5036.12L3102.9,5035.91L3102.3,5033.45L3101.72,5031.13L3101.14,5028.82L3100.53,5026.37L3100.47,5026.15L3099.92,5023.95L3099.36,5021.75L3099.31,5021.54L3098.69,5019.1L3098.1,5016.8L3097.45,5014.26L3096.8,5011.73L3096.21,5009.44L3095.62,5007.16L3095.02,5004.87L3094.42,5002.59L3093.76,5000.08L3093.09,4997.57L3092.49,4995.3L3091.89,4993.04L3091.22,4990.53L3090.54,4988.03L3089.94,4985.78L3089.33,4983.53L3088.71,4981.28L3088.09,4979.04L3087.41,4976.56L3086.72,4974.08L3086.04,4971.61L3085.42,4969.38L3084.87,4967.4L3084.2,4965.04L3084.14,4964.83L3083.48,4962.47L3082.85,4960.26L3082.15,4957.81L3081.52,4955.6L3080.88,4953.39L3080.18,4950.95L3079.54,4948.75L3078.9,4946.56L3078.19,4944.13L3077.48,4941.7L3076.84,4939.51L3076.19,4937.33L3075.47,4934.91L3074.83,4932.74L3074.17,4930.57L3073.45,4928.16L3072.72,4925.76L3072.07,4923.6L3071.41,4921.44L3070.75,4919.29L3070.05,4917.01L3069.98,4916.8L3069.28,4914.51L3068.62,4912.37L3067.95,4910.23L3067.28,4908.09L3066.54,4905.72L3065.79,4903.35L3065.12,4901.22L3064.45,4899.1L3063.7,4896.74L3063.02,4894.63L3062.34,4892.52L3061.58,4890.17L3060.82,4887.82L3060.14,4885.72L3059.45,4883.62L3058.69,4881.28L3058,4879.19L3057.31,4877.1L3056.54,4874.78L3055.85,4872.7L3055.1,4870.48L3055.03,4870.27L3054.38,4868.3L3053.71,4866.34L3053.64,4866.13L3052.81,4863.68L3052.11,4861.62L3051.49,4859.8L3050.74,4857.6L3050.66,4857.4L3049.91,4855.2L3049.2,4853.15L3048.41,4850.86L3047.7,4848.82L3046.99,4846.78L3046.19,4844.49L3045.48,4842.46L3044.76,4840.43L3043.95,4838.16L3043.14,4835.89L3042.43,4833.87L3041.7,4831.86L3040.89,4829.6L3040.16,4827.59L3039.38,4825.44L3039.3,4825.24L3038.62,4823.34L3037.92,4821.44L3037.84,4821.23L3037.06,4819.09L3036.33,4817.1L3035.5,4814.87L3034.67,4812.64L3033.94,4810.65L3033.2,4808.67L3032.45,4806.69L3031.71,4804.72L3030.87,4802.51L3030.03,4800.3L3029.19,4798.09L3028.44,4796.13L3027.69,4794.17L3026.94,4792.21L3026.13,4790.12L3026.05,4789.92L3025.24,4787.83L3024.58,4786.13L3023.76,4784.05L3023.68,4783.84L3022.87,4781.76L3022.1,4779.83L3021.34,4777.9L3020.51,4775.83L3020.43,4775.62L3019.62,4773.56L3018.94,4771.88L3018.11,4769.82L3018.03,4769.61L3017.2,4767.55L3016.43,4765.64L3015.56,4763.49L3014.79,4761.59L3014.01,4759.68L3013.13,4757.54L3012.35,4755.64L3011.56,4753.75L3010.68,4751.61L3009.79,4749.49L3009.01,4747.61L3008.22,4745.73L3007.33,4743.6L3006.43,4741.49L3005.65,4739.62L3004.85,4737.75L3004.05,4735.88L3003.19,4733.88L3003.11,4733.68L3002.25,4731.68L3001.45,4729.82L3000.65,4727.97L2999.85,4726.12L2998.93,4724.03L2998.02,4721.95L2997.22,4720.11L2996.41,4718.27L2995.49,4716.2L2994.57,4714.13L2993.76,4712.3L2992.94,4710.47L2992.02,4708.41L2991.2,4706.59L2990.38,4704.78L2989.45,4702.73L2988.52,4700.67L2987.7,4698.87L2986.87,4697.07L2985.93,4695.03L2985.11,4693.23L2984.21,4691.3L2984.12,4691.1L2983.34,4689.4L2982.54,4687.71L2982.45,4687.52L2981.56,4685.59L2980.65,4683.67L2980.56,4683.48L2979.78,4681.8L2978.98,4680.11L2978.89,4679.92L2977.98,4678.01L2977.14,4676.24L2976.18,4674.23L2975.34,4672.47L2974.49,4670.71L2973.53,4668.71L2972.57,4666.72L2971.72,4664.97L2970.87,4663.22L2969.9,4661.23L2969.04,4659.49L2968.19,4657.76L2967.21,4655.78L2966.23,4653.81L2965.38,4652.07L2964.51,4650.35L2963.53,4648.39L2962.55,4646.43L2961.68,4644.71L2960.82,4643L2959.83,4641.05L2958.96,4639.33L2958.09,4637.62L2957.09,4635.69L2956.1,4633.75L2955.22,4632.05L2954.34,4630.35L2953.34,4628.43L2952.47,4626.74L2951.5,4624.91L2951.41,4624.72L2950.46,4622.9L2949.7,4621.45L2948.73,4619.63L2948.63,4619.44L2947.68,4617.63L2946.79,4615.96L2945.89,4614.28L2944.92,4612.48L2944.83,4612.3L2943.86,4610.49L2943.09,4609.06L2942.12,4607.26L2942.02,4607.08L2941.05,4605.28L2940.15,4603.63L2939.12,4601.75L2938.22,4600.1L2937.32,4598.46L2936.28,4596.58L2935.25,4594.71L2934.35,4593.08L2933.44,4591.44L2932.4,4589.58L2931.49,4587.95L2930.57,4586.33L2929.53,4584.48L2928.48,4582.63L2927.57,4581.01L2926.65,4579.4L2925.6,4577.56L2924.54,4575.72L2923.62,4574.11L2922.7,4572.51L2921.64,4570.69L2920.58,4568.86L2919.66,4567.27L2918.73,4565.68L2917.8,4564.08L2916.78,4562.36L2916.67,4562.18L2915.66,4560.46L2914.73,4558.88L2913.79,4557.31L2912.77,4555.59L2912.66,4555.41L2911.64,4553.7L2910.7,4552.13L2909.76,4550.56L2908.82,4549L2907.74,4547.22L2906.65,4545.43L2905.57,4543.64L2904.63,4542.1L2903.67,4540.55L2902.72,4538.99L2901.68,4537.31L2901.57,4537.14L2900.54,4535.46L2899.58,4533.92L2898.62,4532.38L2897.58,4530.71L2897.47,4530.54L2896.43,4528.87L2895.61,4527.56L2894.55,4525.9L2894.45,4525.73L2893.4,4524.07L2892.43,4522.54L2891.32,4520.8L2890.36,4519.28L2889.38,4517.77L2888.27,4516.04L2887.16,4514.31L2886.18,4512.8L2885.21,4511.3L2884.09,4509.58L2882.97,4507.86L2881.99,4506.36L2881.01,4504.87L2879.88,4503.16L2878.9,4501.67L2877.82,4500.06L2877.71,4499.89L2876.79,4498.49L2875.85,4497.09L2875.74,4496.92L2874.51,4495.09L2873.53,4493.62L2872.54,4492.15L2871.54,4490.68L2870.45,4489.07L2870.34,4488.9L2869.26,4487.31L2868.26,4485.85L2867.26,4484.39L2866.17,4482.79L2866.06,4482.63L2864.97,4481.04L2864.11,4479.81L2863.01,4478.22L2862.9,4478.06L2861.81,4476.48L2860.8,4475.03L2859.64,4473.38L2858.63,4471.94L2857.52,4470.37L2857.41,4470.21L2856.31,4468.64L2855.45,4467.42L2854.34,4465.86L2854.22,4465.7L2853.11,4464.13L2852.1,4462.71L2851.08,4461.29L2849.95,4459.73L2849.85,4459.58L2848.73,4458.02L2847.71,4456.61L2846.68,4455.2L2845.55,4453.65L2845.44,4453.49L2844.33,4451.96L2843.45,4450.76L2842.32,4449.22L2842.2,4449.07L2841.08,4447.54L2840.04,4446.14L2838.85,4444.53L2837.67,4442.94L2836.63,4441.54L2835.59,4440.15L2834.55,4438.77L2833.41,4437.25L2833.29,4437.1L2832.16,4435.59L2831.11,4434.21L2829.91,4432.62L2828.87,4431.25L2827.81,4429.87L2826.61,4428.3L2825.4,4426.73L2824.35,4425.36L2823.3,4424L2822.08,4422.44L2820.87,4420.87L2819.81,4419.51L2818.75,4418.16L2817.53,4416.61L2816.47,4415.26L2815.3,4413.78L2815.19,4413.64L2814.03,4412.17L2812.96,4410.82L2811.89,4409.48L2810.82,4408.14L2809.59,4406.61L2808.36,4405.07L2807.12,4403.54L2806.06,4402.22L2804.98,4400.89L2803.9,4399.56L2802.71,4398.11L2802.6,4397.97L2801.41,4396.53L2800.33,4395.21L2799.09,4393.7L2798,4392.38L2796.91,4391.07L2795.67,4389.57L2794.42,4388.07L2793.33,4386.76L2792.23,4385.45L2790.98,4383.97L2789.72,4382.47L2788.63,4381.18L2787.53,4379.89L2786.26,4378.4L2785,4376.92L2783.9,4375.63L2782.8,4374.35L2781.53,4372.88L2780.26,4371.41L2779.15,4370.12L2778.04,4368.84L2776.77,4367.39L2775.5,4365.93L2774.38,4364.66L2773.26,4363.39L2771.98,4361.93L2770.86,4360.67L2769.63,4359.28L2769.52,4359.16L2768.3,4357.78L2767.18,4356.52L2766.05,4355.26L2764.93,4354.01L2763.63,4352.58L2762.33,4351.14L2761.04,4349.71L2759.92,4348.47L2758.78,4347.23L2757.48,4345.8L2756.35,4344.56L2755.1,4343.21L2754.99,4343.09L2753.74,4341.73L2752.77,4340.68L2751.51,4339.33L2751.4,4339.21L2750.15,4337.86L2749,4336.63L2747.69,4335.23L2746.54,4334L2745.29,4332.67L2745.18,4332.55L2743.92,4331.21L2742.93,4330.17L2741.66,4328.84L2741.55,4328.72L2740.29,4327.4L2739.13,4326.19L2737.8,4324.8L2736.65,4323.59L2735.48,4322.39L2734.15,4321.02L2732.82,4319.64L2731.49,4318.27L2730.33,4317.08L2729.16,4315.88L2727.82,4314.51L2726.65,4313.32L2725.47,4312.13L2724.13,4310.78L2722.79,4309.43L2721.44,4308.07L2720.27,4306.89L2719.09,4305.71L2717.74,4304.37L2716.56,4303.19L2715.37,4302.02L2714.01,4300.68L2712.66,4299.35L2711.3,4298.01L2710.12,4296.85L2708.92,4295.68L2707.56,4294.36L2706.36,4293.2L2705.16,4292.04L2703.8,4290.72L2702.43,4289.41L2701.06,4288.09L2699.86,4286.94L2698.65,4285.79L2697.28,4284.49L2696.07,4283.34L2694.74,4282.09L2694.64,4281.99L2693.31,4280.74L2692.26,4279.75L2690.93,4278.51L2690.83,4278.41L2689.5,4277.17L2688.28,4276.04L2686.89,4274.75L2685.51,4273.46L2684.29,4272.34L2683.06,4271.21L2681.67,4269.93L2680.28,4268.65L2679.05,4267.53L2677.81,4266.41L2676.42,4265.14L2675.18,4264.03L2673.83,4262.81L2673.72,4262.71L2672.38,4261.5L2671.14,4260.39L2669.9,4259.28L2668.54,4258.07L2668.44,4257.98L2667.08,4256.77L2665.83,4255.66L2664.42,4254.42L2663.18,4253.32L2661.93,4252.22L2660.51,4250.98L2659.09,4249.74L2657.84,4248.65L2656.57,4247.55L2655.16,4246.33L2653.73,4245.09L2652.47,4244L2651.09,4242.83L2650.99,4242.74L2649.62,4241.56L2648.51,4240.61L2647.13,4239.44L2647.02,4239.35L2645.64,4238.18L2644.37,4237.11L2642.94,4235.9L2641.66,4234.82L2640.27,4233.65L2640.16,4233.57L2638.78,4232.41L2637.51,4231.34L2636.22,4230.28L2634.93,4229.21L2633.37,4227.92L2633.27,4227.83L2632.04,4226.82L2630.8,4225.81L2630.7,4225.72L2629.3,4224.57L2628,4223.51L2626.55,4222.33L2625.1,4221.15L2623.79,4220.09L2622.38,4218.95L2622.29,4218.88L2621.04,4217.87L2619.78,4216.86L2619.69,4216.78L2618.11,4215.52L2616.81,4214.48L2615.5,4213.44L2614.19,4212.4L2612.77,4211.27L2612.67,4211.2L2611.25,4210.07L2609.93,4209.04L2608.46,4207.89L2607.15,4206.86L2605.71,4205.73L2605.61,4205.66L2604.18,4204.55L2602.86,4203.52L2601.55,4202.5L2600.22,4201.48L2598.61,4200.25L2598.51,4200.17L2597.24,4199.19L2595.95,4198.21L2595.86,4198.14L2594.42,4197.04L2592.97,4195.94L2592.87,4195.87L2591.43,4194.77L2590.26,4193.89L2588.8,4192.79L2588.7,4192.72L2587.26,4191.63L2585.92,4190.63L2584.58,4189.62L2583.11,4188.53L2583.01,4188.46L2581.56,4187.38L2580.21,4186.39L2578.7,4185.27L2577.2,4184.16L2575.84,4183.17L2574.48,4182.17L2572.97,4181.07L2571.61,4180.08L2570.14,4179.01L2570.05,4178.95L2568.57,4177.88L2567.21,4176.9L2565.85,4175.92L2564.36,4174.85L2564.26,4174.78L2562.79,4173.73L2561.43,4172.75L2560.01,4171.74L2557.06,4169.66L2554.07,4167.56L2551.16,4165.52L2548.23,4163.48L2545.3,4161.45L2542.35,4159.43L2539.41,4157.41L2536.45,4155.41L2533.42,4153.36L2530.45,4151.36L2527.47,4149.38L2524.5,4147.4L2521.51,4145.43L2518.51,4143.46L2515.51,4141.51L2512.43,4139.51L2509.42,4137.56L2506.39,4135.62L2503.37,4133.69L2500.34,4131.77L2497.22,4129.81L2494.25,4127.95L2491.19,4126.05L2488.05,4124.11L2484.99,4122.22L2481.91,4120.34L2478.76,4118.42L2475.67,4116.55L2472.65,4114.73L2469.47,4112.84L2466.29,4110.95L2463.25,4109.15L2460.12,4107.31L2456.92,4105.45L2453.78,4103.62L2450.64,4101.81L2447.49,4100L2444.33,4098.2L2441.09,4096.37L2437.93,4094.58L2434.75,4092.8L2431.49,4090.99L2428.38,4089.26L2425.17,4087.5L2421.89,4085.71L2418.68,4083.96L2415.4,4082.19L2412.17,4080.45L2409,4078.76L2405.7,4077L2402.38,4075.26L2399.2,4073.58L2395.93,4071.88L2392.6,4070.15L2389.32,4068.46L2385.97,4066.75L2382.68,4065.07L2379.45,4063.43L2376.08,4061.74L2372.71,4060.05L2369.46,4058.43L2366.13,4056.79L2362.73,4055.12L2359.33,4053.46L2355.99,4051.83L2352.7,4050.24L2349.27,4048.6L2345.85,4046.97L2342.47,4045.37L2339.1,4043.78L2335.71,4042.19L2332.32,4040.61L2328.91,4039.04L2325.44,4037.44L2322.02,4035.88L2318.6,4034.32L2315.11,4032.75L2311.68,4031.2L2308.23,4029.66L2304.72,4028.11L2301.27,4026.58L2297.8,4025.07L2294.32,4023.55L2290.84,4022.05L2287.3,4020.52L2283.81,4019.03L2280.25,4017.52L2276.74,4016.04L2273.23,4014.56L2269.65,4013.07L2266.12,4011.61L2262.59,4010.15L2259.05,4008.7L2255.49,4007.25L2251.88,4005.79L2248.26,4004.34L2244.75,4002.93L2241.17,4001.51L2237.47,4000.06L2233.89,3998.65L2230.34,3997.26L2226.67,3995.85L2223.01,3994.44L2219.39,3993.05L2215.77,3991.67L2212.13,3990.3L2208.43,3988.91L2204.79,3987.55L2201.13,3986.2L2197.42,3984.83L2193.75,3983.49L2190.02,3982.13L2186.34,3980.8L2182.65,3979.48L2178.91,3978.14L2175.2,3976.83L2171.49,3975.52L2167.77,3974.22L2163.99,3972.9L2160.21,3971.6L2156.47,3970.31L2152.73,3969.03L2148.98,3967.76L2145.21,3966.49L2141.39,3965.22L2137.58,3963.95L2133.8,3962.7L2130.01,3961.45L2126.21,3960.21L2122.36,3958.97L2118.51,3957.72L2114.69,3956.5L2110.87,3955.29L2107.04,3954.08L2103.15,3952.86L2099.27,3951.65L2095.46,3950.47L2091.55,3949.27L2087.65,3948.08L2083.82,3946.91L2079.9,3945.73L2075.97,3944.55L2072.08,3943.4L2068.13,3942.23L2064.23,3941.08L2060.31,3939.94L2056.36,3938.79L2052.43,3937.66L2048.49,3936.54L2044.51,3935.41L2040.53,3934.28L2036.57,3933.17L2032.6,3932.07L2028.64,3930.97L2024.62,3929.87L2020.6,3928.77L2016.61,3927.69L2012.61,3926.62L2008.61,3925.55L2004.56,3924.47L2000.51,3923.4L1996.48,3922.35L1992.41,3921.29L1988.38,3920.25L1984.34,3919.21L1980.25,3918.17L1976.19,3917.15L1972.09,3916.12L1967.99,3915.09L1963.91,3914.08L1959.83,3913.08L1955.74,3912.08L1951.6,3911.07L1947.46,3910.08L1943.35,3909.1L1939.23,3908.12L1935.07,3907.14L1930.94,3906.17L1926.77,3905.2L1922.6,3904.23L1918.47,3903.29L1914.28,3902.34L1910.08,3901.39L1905.91,3900.45L1901.7,3899.51L1897.49,3898.58L1893.29,3897.66L1889.1,3896.74L1884.89,3895.84L1880.65,3894.93L1876.4,3894.02L1872.17,3893.12L1867.91,3892.23L1863.67,3891.35L1859.42,3890.47L1855.12,3889.58L1850.86,3888.71L1846.59,3887.85L1842.3,3886.98L1838.02,3886.13L1833.7,3885.28L1829.42,3884.43L1825.12,3883.6L1820.76,3882.75L1816.45,3881.92L1812.13,3881.1L1807.78,3880.28L1803.45,3879.46L1799.08,3878.65L1794.72,3877.84L1790.37,3877.05L1785.99,3876.25L1781.63,3875.46L1777.26,3874.68L1772.85,3873.89L1768.45,3873.11L1764.04,3872.34L1759.65,3871.58L1755.25,3870.82L1750.81,3870.06L1746.38,3869.31L1741.96,3868.56L1737.53,3867.82L1733.07,3867.09L1728.61,3866.35L1724.17,3865.63L1719.69,3864.9L1715.21,3864.18L1710.75,3863.47L1706.28,3862.77L1701.78,3862.06L1697.28,3861.36L1692.79,3860.67L1688.27,3859.98L1683.74,3859.3L1679.24,3858.62L1674.7,3857.94L1670.18,3857.27L1665.65,3856.61L1661.08,3855.95L1656.52,3855.29L1651.98,3854.64L1647.43,3853.99L1642.87,3853.35L1638.28,3852.71L1633.69,3852.08L1629.1,3851.45L1624.5,3850.83L1619.91,3850.21L1615.32,3849.6L1610.7,3848.99L1606.07,3848.38L1601.46,3847.78L1596.82,3847.18L1592.18,3846.59L1587.55,3846L1582.89,3845.42L1578.26,3844.84L1573.58,3844.27L1568.91,3843.7L1564.25,3843.13L1559.57,3842.57L1554.88,3842.01L1550.2,3841.46L1545.51,3840.91L1540.79,3840.37L1536.08,3839.83L1531.38,3839.3L1526.67,3838.77L1521.93,3838.24L1517.2,3837.72L1512.47,3837.2L1507.72,3836.69L1502.97,3836.18L1498.23,3835.67L1493.46,3835.17L1488.69,3834.67L1483.91,3834.18L1479.15,3833.7L1474.37,3833.21L1469.56,3832.73L1464.77,3832.25L1459.98,3831.78L1455.18,3831.32L1450.36,3830.85L1445.54,3830.39L1440.73,3829.94L1435.89,3829.49L1431.05,3829.04L1426.21,3828.6L1421.37,3828.16L1416.51,3827.72L1411.66,3827.3L1406.8,3826.87L1401.93,3826.45L1397.05,3826.03L1392.17,3825.61L1387.29,3825.2L1382.4,3824.79L1377.5,3824.39L1372.61,3823.99L1367.69,3823.6L1362.78,3823.2L1357.87,3822.82L1352.93,3822.43L1348.01,3822.05L1343.08,3821.68L1338.13,3821.31L1333.18,3820.94L1328.23,3820.57L1323.27,3820.21L1318.31,3819.86L1313.34,3819.5L1308.36,3819.15L1303.38,3818.81L1298.41,3818.46L1293.41,3818.12L1288.42,3817.79L1283.42,3817.46L1278.41,3817.13L1273.4,3816.81L1268.38,3816.49L1263.36,3816.17L1258.33,3815.86L1253.3,3815.55L1248.26,3815.24L1243.21,3814.94L1238.17,3814.64L1233.11,3814.35L1228.05,3814.05L1222.98,3813.76L1217.91,3813.48L1212.85,3813.2L1207.77,3812.92L1202.67,3812.65L1197.58,3812.38L1192.49,3812.11L1187.39,3811.84L1182.28,3811.58L1177.17,3811.32L1172.05,3811.07L1166.93,3810.82L1161.8,3810.57L1156.66,3810.33L1151.53,3810.09L1146.39,3809.85L1141.24,3809.62L1136.08,3809.38L1130.92,3809.16L1125.76,3808.93L1120.59,3808.71L1115.42,3808.49L1110.24,3808.28L1105.05,3808.06L1099.86,3807.86L1094.67,3807.65L1089.47,3807.45L1084.26,3807.25L1079.06,3807.05L1073.84,3806.86L1068.62,3806.67L1063.39,3806.48L1058.17,3806.3L1052.93,3806.12L1047.69,3805.94L1042.45,3805.76L1037.2,3805.59L1031.95,3805.42L1026.68,3805.26L1021.41,3805.09L1016.16,3804.93L1010.88,3804.78L1005.6,3804.62L1000.32,3804.47L995.023,3804.32L989.738,3804.17L984.43,3804.03L979.129,3803.89L973.826,3803.75L968.512,3803.62L963.19,3803.49L957.864,3803.36L952.539,3803.23L947.21,3803.11L941.87,3802.99L936.529,3802.87L931.179,3802.75L925.83,3802.64L920.497,3802.53L909.75,3802.32L899.002,3802.12L888.236,3801.93L877.452,3801.74L866.652,3801.57L855.828,3801.41L844.993,3801.26L834.133,3801.12L823.256,3800.99L812.362,3800.86L801.451,3800.75L790.516,3800.65L779.57,3800.55L768.599,3800.47L757.613,3800.39L746.609,3800.32L735.587,3800.26L724.548,3800.21L713.492,3800.17L702.42,3800.14L691.322,3800.11L680.215,3800.09L669.084,3800.08L657.943,3800.08L646.778,3800.09L635.602,3800.1L624.403,3800.12L613.193,3800.15L601.96,3800.18L590.71,3800.22L579.449,3800.27L568.165,3800.33L556.871,3800.39L545.553,3800.46L534.218,3800.54L522.872,3800.62L511.51,3800.71L500.125,3800.8L488.73,3800.9L477.317,3801.01L465.887,3801.12L454.441,3801.24L442.978,3801.36L431.497,3801.49L420.001,3801.62L408.494,3801.76L396.964,3801.91L385.426,3802.06L373.868,3802.21L362.293,3802.37L350.703,3802.53L339.098,3802.7L327.481,3802.87L315.839,3803.04L304.189,3803.22L292.523,3803.41L280.848,3803.59L269.146,3803.78L257.436,3803.98L245.71,3804.17L233.979,3804.37L210.445,3804.78L186.856,3805.2L163.209,3805.64L139.509,3806.08L115.75,3806.53L91.932,3806.99L68.062,3807.45L44.13,3807.92L-3.899,3808.87L-52.138,3809.83L-52.144,3809.83L-100.582,3810.79L-100.595,3810.79L-124.889,3811.27L-124.904,3811.27L-149.244,3811.74L-149.262,3811.74L-173.65,3812.21L-173.673,3812.21L-198.116,3812.68L-198.141,3812.68L-222.623,3813.14L-222.652,3813.14L-247.175,3813.6L-247.209,3813.6L-271.787,3814.04L-271.824,3814.04L-296.436,3814.48L-296.466,3814.48L-308.8,3814.7L-308.821,3814.7L-321.159,3814.91L-321.181,3814.91L-333.534,3815.12L-333.556,3815.12L-345.916,3815.32L-345.939,3815.33L-358.308,3815.53L-358.334,3815.53L-370.719,3815.73L-370.745,3815.73L-383.137,3815.93L-383.163,3815.93L-395.563,3816.12L-395.592,3816.12L-408.009,3816.31L-408.038,3816.31L-420.462,3816.5L-420.49,3816.5L-432.923,3816.68L-432.953,3816.68L-445.428,3816.86L-445.511,3816.86L-450.831,3816.93L-450.95,3816.94L-456.717,3817.01L-456.819,3817.01L-463.001,3817.08L-463.086,3817.08L-469.678,3817.14L-469.752,3817.14L-476.75,3817.21L-476.815,3817.21L-484.207,3817.28L-484.266,3817.28L-492.051,3817.34L-492.101,3817.34L-500.282,3817.4L-500.329,3817.4L-508.892,3817.46L-508.933,3817.46L-517.864,3817.52L-517.902,3817.52L-527.209,3817.58L-527.243,3817.58L-536.912,3817.64L-536.945,3817.64L-546.976,3817.69L-547.003,3817.69L-557.375,3817.74L-557.402,3817.74L-568.13,3817.8L-568.155,3817.8L-579.214,3817.85L-579.247,3817.85L-602.345,3817.95L-602.384,3817.95L-626.753,3818.04L-626.788,3818.04L-652.371,3818.13L-652.402,3818.13L-679.142,3818.22L-679.17,3818.22L-707.017,3818.3L-707.042,3818.3L-735.938,3818.37L-735.961,3818.37L-765.847,3818.44L-765.867,3818.44L-796.701,3818.5L-796.72,3818.5L-828.428,3818.57L-828.446,3818.57L-860.991,3818.62L-861.008,3818.62L-894.319,3818.67L-894.335,3818.67L-928.375,3818.72L-928.39,3818.72L-963.086,3818.76L-963.1,3818.76L-998.409,3818.8L-998.422,3818.8L-1034.29,3818.83L-1034.3,3818.83L-1070.66,3818.86L-1070.67,3818.86L-1107.47,3818.88L-1107.48,3818.88L-1144.67,3818.91L-1144.68,3818.91L-1182.2,3818.92L-1182.21,3818.92L-1220.01,3818.93L-1220.02,3818.93L-1258.04,3818.94L-1258.05,3818.94L-1296.24,3818.94L-1296.25,3818.94L-1334.55,3818.94L-1334.56,3818.94L-1372.91,3818.94L-1372.92,3818.94L-1411.27,3818.93L-1411.28,3818.93L-1449.59,3818.92L-1449.6,3818.92L-1487.79,3818.9L-1487.8,3818.9L-1525.82,3818.88L-1525.83,3818.88L-1563.64,3818.85L-1563.65,3818.85L-1601.17,3818.83L-1601.18,3818.83L-1638.38,3818.79L-1638.39,3818.79L-1675.21,3818.76L-1675.22,3818.76L-1711.58,3818.72L-1711.59,3818.72L-1747.47,3818.68L-1747.48,3818.68L-1782.8,3818.63L-1782.81,3818.63L-1817.52,3818.58L-1817.54,3818.58L-1851.59,3818.52L-1851.6,3818.52L-1884.93,3818.47L-1884.94,3818.47L-1917.51,3818.41L-1917.52,3818.41L-1949.26,3818.34L-1949.27,3818.34L-1980.12,3818.27L-1980.13,3818.27L-2010.05,3818.2L-2010.06,3818.2L-2038.98,3818.13L-2039,3818.13L-2066.87,3818.05L-2066.89,3818.05L-2093.65,3817.97L-2093.68,3817.97L-2119.29,3817.89L-2119.32,3817.89L-2143.71,3817.8L-2143.74,3817.8L-2166.86,3817.71L-2166.89,3817.71L-2188.7,3817.61L-2188.74,3817.61L-2209.17,3817.52L-2209.22,3817.52L-2228.21,3817.42L-2228.25,3817.42L-2237.2,3817.37L-2237.23,3817.37L-2245.8,3817.31L-2245.84,3817.31L-2254.02,3817.26L-2254.06,3817.26L-2261.86,3817.21L-2261.9,3817.21L-2269.31,3817.15L-2269.36,3817.15L-2276.35,3817.1L-2276.41,3817.1L-2283,3817.04L-2283.07,3817.04L-2289.25,3816.99L-2289.33,3816.99L-2295.09,3816.93L-2295.18,3816.93L-2487.33,3814.83L-2483.26,3441.09L-2291.23,3443.19L-2285.72,3443.24L-2279.75,3443.3L-2273.34,3443.35L-2266.5,3443.4L-2259.24,3443.46L-2251.57,3443.51L-2243.5,3443.56L-2235.02,3443.61L-2226.18,3443.66L-2207.33,3443.76L-2187.04,3443.86L-2165.35,3443.95L-2142.32,3444.04L-2118.02,3444.13L-2092.49,3444.21L-2065.79,3444.29L-2037.99,3444.37L-2009.13,3444.44L-1979.27,3444.51L-1948.48,3444.58L-1916.79,3444.65L-1884.27,3444.71L-1850.98,3444.76L-1816.96,3444.82L-1782.29,3444.87L-1747,3444.92L-1711.16,3444.96L-1674.83,3445L-1638.04,3445.03L-1600.88,3445.07L-1563.38,3445.1L-1525.6,3445.12L-1487.61,3445.14L-1449.45,3445.16L-1411.17,3445.17L-1372.85,3445.18L-1334.53,3445.18L-1296.26,3445.18L-1258.1,3445.18L-1220.11,3445.17L-1182.35,3445.16L-1144.85,3445.14L-1107.7,3445.12L-1070.93,3445.1L-1034.61,3445.07L-998.788,3445.04L-963.519,3445L-928.865,3444.96L-894.87,3444.91L-861.607,3444.86L-829.112,3444.81L-797.46,3444.74L-766.687,3444.68L-736.866,3444.61L-708.043,3444.54L-680.276,3444.46L-653.624,3444.37L-628.14,3444.28L-603.884,3444.19L-580.896,3444.09L-569.924,3444.04L-559.275,3443.99L-548.985,3443.94L-539.044,3443.88L-529.475,3443.83L-520.276,3443.77L-511.463,3443.71L-503.032,3443.65L-494.997,3443.59L-487.376,3443.53L-480.171,3443.47L-473.383,3443.4L-467.032,3443.34L-461.131,3443.27L-455.693,3443.21L-450.675,3443.14L-438.372,3442.96L-426.029,3442.78L-413.691,3442.6L-401.36,3442.41L-389.041,3442.21L-376.726,3442.02L-364.419,3441.82L-352.124,3441.62L-339.833,3441.41L-327.549,3441.2L-315.278,3440.99L-303.022,3440.78L-278.509,3440.34L-254.038,3439.9L-229.609,3439.45L-205.208,3438.99L-180.838,3438.52L-156.512,3438.05L-132.221,3437.58L-107.97,3437.1L-59.561,3436.14L-11.316,3435.18L-11.307,3435.18L36.763,3434.23L36.781,3434.23L60.763,3433.76L60.779,3433.76L84.705,3433.3L84.726,3433.3L108.613,3432.84L108.638,3432.84L132.477,3432.39L132.505,3432.39L156.298,3431.94L156.331,3431.94L180.084,3431.51L180.122,3431.51L203.827,3431.08L203.868,3431.08L227.513,3430.67L227.547,3430.67L239.365,3430.47L239.389,3430.47L251.188,3430.27L251.213,3430.27L262.998,3430.07L263.025,3430.07L274.803,3429.88L274.829,3429.88L286.587,3429.69L286.617,3429.69L298.37,3429.51L298.398,3429.51L310.137,3429.33L310.168,3429.33L321.9,3429.15L321.93,3429.15L333.641,3428.98L333.675,3428.98L345.381,3428.81L345.414,3428.81L357.106,3428.64L357.141,3428.64L368.819,3428.48L368.853,3428.48L380.518,3428.33L380.555,3428.33L392.207,3428.18L392.246,3428.18L403.891,3428.03L403.929,3428.03L415.553,3427.89L415.593,3427.89L427.212,3427.76L427.254,3427.76L438.859,3427.62L438.9,3427.62L450.491,3427.5L450.535,3427.5L462.113,3427.38L462.157,3427.38L473.721,3427.27L473.766,3427.27L485.317,3427.16L485.364,3427.16L496.902,3427.06L496.95,3427.06L508.481,3426.96L508.531,3426.96L520.041,3426.87L520.091,3426.87L531.588,3426.79L531.639,3426.79L543.13,3426.71L543.183,3426.71L554.661,3426.64L554.715,3426.64L566.171,3426.58L566.225,3426.58L577.676,3426.52L577.733,3426.52L589.163,3426.47L589.219,3426.47L600.643,3426.42L600.703,3426.42L612.113,3426.39L612.172,3426.39L623.562,3426.36L623.623,3426.36L635.006,3426.34L635.068,3426.34L646.431,3426.33L646.494,3426.33L657.852,3426.32L657.917,3426.32L669.253,3426.32Z" style="fill:rgb(20,169,12);fill-opacity:0.698039;"/>
            </g>
            <g transform="matrix(0.348131,0,0,0.444444,-5987.22,20.1839)">
                <text x="18970px" y="1655.89px" style="font-family:'ArialMT';font-size:138.061px;fill:black;fill-opacity:0.9;">A</text>
            </g>
        </g>
    </g>
</svg>
