<?xml version="1.0" standalone="no"?>
<!DOCTYPE svg PUBLIC "-//W3C//DTD SVG 1.1//EN" "http://www.w3.org/Graphics/SVG/1.1/DTD/svg11.dtd">
<svg width="100%" height="100%" viewBox="0 0 3678 2305" version="1.1" xmlns="http://www.w3.org/2000/svg" xmlns:xlink="http://www.w3.org/1999/xlink" xml:space="preserve" style="fill-rule:evenodd;clip-rule:evenodd;stroke-linejoin:round;stroke-miterlimit:1.41421;">
    <g transform="matrix(1,0,0,1,-24217,-85)">
        <g id="parking-5" transform="matrix(2.87248,0,0,2.25,24217.4,85.5482)">
            <g transform="matrix(2.08676,0,0,5.15206,-116.151,-2349.03)">
                <g transform="matrix(0.516355,0,0,0.342776,217.275,407.725)">
                    <rect x="676.756" y="269.252" width="4.487" height="305.495" style="fill:black;"/>
                </g>
                <g transform="matrix(0.516355,0,0,0.342776,167.974,407.725)">
                    <rect x="676.756" y="269.252" width="4.487" height="305.495" style="fill:black;"/>
                </g>
                <g transform="matrix(-2.3627e-16,-0.975331,1.46923,-1.56845e-16,-273.988,1214.63)">
                    <rect x="678.386" y="270.211" width="1.228" height="303.577" style="fill:black;"/>
                </g>
                <g transform="matrix(0.516355,0,0,0.342776,118.674,407.725)">
                    <rect x="676.757" y="269.252" width="4.487" height="305.495" style="fill:black;"/>
                </g>
                <g transform="matrix(0.516355,0,0,0.342776,69.3729,407.725)">
                    <rect x="676.756" y="269.252" width="4.487" height="305.495" style="fill:black;"/>
                </g>
                <g transform="matrix(0.516355,0,0,0.342776,20.0721,407.725)">
                    <rect x="676.756" y="269.252" width="4.487" height="305.495" style="fill:black;"/>
                </g>
                <g transform="matrix(0.516355,0,0,0.342776,-29.2287,407.725)">
                    <rect x="676.756" y="269.252" width="4.487" height="305.495" style="fill:black;"/>
                </g>
                <g transform="matrix(0.516355,0,0,0.342776,-78.5295,407.725)">
                    <rect x="676.756" y="269.252" width="4.487" height="305.495" style="fill:black;"/>
                </g>
                <g transform="matrix(0.516355,0,0,0.342776,-127.83,407.725)">
                    <rect x="676.757" y="269.252" width="4.487" height="305.495" style="fill:black;"/>
                </g>
                <g transform="matrix(0.516355,0,0,0.342776,-177.131,407.725)">
                    <rect x="676.756" y="269.252" width="4.487" height="305.495" style="fill:black;"/>
                </g>
                <g transform="matrix(0.516355,0,0,0.342776,-226.432,407.725)">
                    <rect x="676.756" y="269.252" width="4.487" height="305.495" style="fill:black;"/>
                </g>
            </g>
            <g transform="matrix(0.126249,-3.77701e-17,-6.84244e-16,0.161177,478.241,-234.679)">
                <path d="M1097.11,3478.42c0,-25.127 -20.4,-45.527 -45.527,-45.527l-91.055,0c-25.128,0 -45.528,20.4 -45.528,45.527l0,91.055c0,25.128 20.4,45.528 45.528,45.528l91.055,0c25.127,0 45.527,-20.4 45.527,-45.528l0,-91.055Z" style="fill:rgb(23,16,252);"/>
            </g>
            <g transform="matrix(0.126249,-3.77701e-17,-6.84244e-16,0.161177,176.108,-336.901)">
                <path d="M1097.11,3478.42c0,-25.127 -20.4,-45.527 -45.527,-45.527l-91.055,0c-25.128,0 -45.528,20.4 -45.528,45.527l0,91.055c0,25.128 20.4,45.528 45.528,45.528l91.055,0c25.127,0 45.527,-20.4 45.527,-45.528l0,-91.055Z" style="fill:rgb(23,16,252);"/>
            </g>
            <g transform="matrix(0.126249,-3.77701e-17,-6.84244e-16,0.161177,530.518,-70.2343)">
                <path d="M1097.11,3478.42c0,-25.127 -20.4,-45.527 -45.527,-45.527l-91.055,0c-25.128,0 -45.528,20.4 -45.528,45.527l0,91.055c0,25.128 20.4,45.528 45.528,45.528l91.055,0c25.127,0 45.527,-20.4 45.527,-45.528l0,-91.055Z" style="fill:rgb(23,16,252);"/>
            </g>
            <g transform="matrix(0.126249,-3.77701e-17,-6.84244e-16,0.161177,324.76,-334.821)">
                <path d="M1097.11,3478.42c0,-25.127 -20.4,-45.527 -45.527,-45.527l-91.055,0c-25.128,0 -45.528,20.4 -45.528,45.527l0,91.055c0,25.128 20.4,45.528 45.528,45.528l91.055,0c25.127,0 45.527,-20.4 45.527,-45.528l0,-91.055Z" style="fill:rgb(23,16,252);"/>
            </g>
            <g transform="matrix(0.093143,0,0,0.118912,403.782,-248.554)">
                <path d="M669.253,3426.32l0.064,0l11.33,0.01l0.069,0l11.309,0.018l0.067,0l11.303,0.026l0.071,0l11.283,0.035l0.07,0l11.269,0.044l0.072,0l11.256,0.052l0.073,0l11.243,0.061l0.074,0l11.229,0.069l0.077,0.001l11.216,0.078l0.077,0.001l11.202,0.087l0.078,0.001l11.182,0.097l0.08,0l11.176,0.107l0.082,0l11.155,0.116l0.082,0.001l11.142,0.125l0.084,0.001l11.129,0.135l0.084,0.001l11.115,0.145l0.087,0.002l11.095,0.155l0.087,0.001l11.089,0.165l0.089,0.001l11.069,0.176l0.091,0.001l11.055,0.186l0.09,0.002l11.042,0.196l0.093,0.002l11.029,0.207l0.096,0.002l10.996,0.218l0.071,0.001l5.513,0.114l0.049,0.001l5.494,0.116l0.047,0.001l5.494,0.118l0.05,0.001l5.487,0.122l0.047,0.001l5.488,0.124l0.052,0.001l5.482,0.127l0.05,0.001l5.473,0.13l0.049,0.001l5.473,0.133l0.05,0.001l5.474,0.136l0.052,0.001l5.468,0.139l0.051,0.001l5.462,0.141l0.057,0.002l5.452,0.144l0.044,0.001l5.46,0.148l0.058,0.001l5.45,0.15l0.051,0.002l5.446,0.153l0.052,0.001l5.449,0.157l0.059,0.001l5.432,0.16l0.046,0.001l5.441,0.162l0.061,0.002l5.43,0.165l0.053,0.002l5.425,0.168l0.049,0.002l5.427,0.171l0.06,0.002l5.423,0.174l0.056,0.002l5.413,0.177l0.053,0.002l5.415,0.181l0.06,0.002l5.407,0.184l0.052,0.001l5.406,0.187l0.061,0.002l5.403,0.191l0.061,0.002l5.393,0.193l0.054,0.002l5.39,0.196l0.054,0.002l5.397,0.2l0.067,0.003l5.383,0.203l0.056,0.002l5.378,0.206l0.056,0.002l5.38,0.209l0.061,0.003l5.377,0.213l0.063,0.002l5.367,0.216l0.056,0.002l5.367,0.22l0.063,0.002l5.361,0.223l0.058,0.002l5.36,0.226l0.064,0.003l5.356,0.23l0.064,0.002l5.347,0.233l0.061,0.003l5.346,0.236l0.062,0.003l5.34,0.239l0.063,0.003l5.341,0.243l0.064,0.003l5.336,0.247l0.067,0.003l5.327,0.25l0.06,0.003l5.327,0.253l0.067,0.003l5.321,0.257l0.062,0.003l5.321,0.261l0.067,0.003l5.316,0.264l0.067,0.003l5.307,0.268l0.062,0.003l5.308,0.271l0.07,0.004l5.3,0.274l0.063,0.004l5.304,0.278l0.076,0.004l5.286,0.282l0.056,0.003l5.291,0.285l0.072,0.004l5.291,0.29l0.07,0.003l5.283,0.293l0.073,0.004l5.274,0.297l0.065,0.004l5.273,0.3l0.07,0.004l5.267,0.304l0.067,0.004l5.268,0.307l0.073,0.005l5.263,0.311l0.074,0.005l5.253,0.315l0.068,0.004l5.253,0.319l0.073,0.004l5.247,0.323l0.067,0.004l5.248,0.327l0.075,0.005l5.246,0.33l0.078,0.005l5.233,0.335l0.066,0.004l5.233,0.338l0.078,0.005l5.227,0.342l0.068,0.005l5.23,0.346l0.086,0.005l5.213,0.35l0.063,0.004l5.221,0.354l0.086,0.006l5.211,0.358l0.072,0.005l5.208,0.362l0.079,0.005l5.199,0.366l0.068,0.005l5.2,0.369l0.084,0.006l5.199,0.375l0.08,0.005l5.185,0.378l0.071,0.005l5.187,0.382l0.084,0.006l5.181,0.386l0.073,0.006l5.179,0.39l0.081,0.006l5.178,0.394l0.085,0.007l5.168,0.398l0.074,0.006l5.167,0.402l0.083,0.007l5.164,0.406l0.084,0.007l5.153,0.411l0.077,0.006l5.154,0.415l0.084,0.006l5.152,0.42l0.088,0.007l5.14,0.423l0.075,0.007l5.14,0.427l0.086,0.007l5.139,0.433l0.089,0.007l5.127,0.436l0.078,0.007l5.126,0.44l0.087,0.008l5.119,0.444l0.077,0.007l5.127,0.45l0.101,0.009l5.106,0.453l0.068,0.006l5.115,0.458l0.101,0.009l5.105,0.462l0.078,0.007l5.101,0.467l0.094,0.009l5.093,0.471l0.075,0.007l5.093,0.475l0.095,0.009l5.094,0.48l0.093,0.009l5.079,0.484l0.08,0.008l5.081,0.489l0.095,0.009l5.081,0.494l0.093,0.009l5.072,0.498l0.094,0.009l5.06,0.503l0.084,0.008l5.054,0.506l0.08,0.008l5.067,0.512l0.11,0.011l5.053,0.517l0.082,0.009l5.048,0.52l0.098,0.01l5.04,0.526l0.083,0.008l5.04,0.53l0.099,0.011l5.042,0.535l0.099,0.01l5.026,0.54l0.083,0.009l5.027,0.543l0.102,0.011l5.027,0.55l0.098,0.011l5.013,0.553l0.087,0.009l5.014,0.558l0.1,0.012l5.015,0.563l0.102,0.012l5.009,0.568l0.103,0.012l4.992,0.572l0.086,0.01l4.985,0.576l0.09,0.011l5.002,0.583l0.117,0.014l4.987,0.587l0.09,0.011l4.981,0.592l0.104,0.012l4.973,0.596l0.09,0.011l4.983,0.603l0.123,0.015l4.959,0.606l0.071,0.009l4.967,0.611l0.123,0.015l4.963,0.618l0.092,0.011l4.954,0.622l0.105,0.013l4.955,0.627l0.109,0.014l4.941,0.631l0.093,0.012l4.94,0.637l0.108,0.014l4.942,0.642l0.111,0.014l4.926,0.647l0.093,0.012l4.927,0.651l0.111,0.015l4.929,0.658l0.111,0.015l4.922,0.662l0.111,0.015l4.907,0.667l0.095,0.013l4.908,0.672l0.114,0.016l4.899,0.677l0.093,0.013l4.901,0.682l0.117,0.016l4.903,0.689l0.113,0.016l4.896,0.694l0.117,0.016l4.89,0.7l0.116,0.016l4.872,0.703l0.095,0.014l4.863,0.707l0.098,0.014l4.885,0.715l0.138,0.021l4.87,0.72l0.095,0.014l4.86,0.725l0.121,0.018l4.865,0.731l0.119,0.018l4.846,0.735l0.097,0.015l4.847,0.74l0.119,0.018l4.851,0.747l0.121,0.019l4.834,0.751l0.1,0.016l4.835,0.757l0.122,0.019l4.838,0.764l0.122,0.019l4.831,0.769l0.123,0.02l4.812,0.773l0.101,0.016l4.813,0.778l0.123,0.02l4.818,0.786l0.125,0.021l4.801,0.789l0.103,0.017l4.801,0.795l0.126,0.021l4.804,0.803l0.124,0.02l4.798,0.808l0.129,0.022l4.779,0.812l0.101,0.017l4.782,0.818l0.133,0.023l4.785,0.825l0.121,0.021l4.777,0.83l0.134,0.023l4.763,0.835l0.105,0.019l4.76,0.84l0.131,0.023l4.751,0.846l0.101,0.018l4.766,0.853l0.16,0.029l4.754,0.86l0.105,0.019l4.739,0.863l0.132,0.024l4.747,0.871l0.136,0.025l4.727,0.875l0.105,0.02l4.725,0.88l0.132,0.024l4.733,0.889l0.137,0.026l4.715,0.892l0.11,0.021l4.727,0.901l0.159,0.03l4.712,0.907l0.111,0.021l4.685,0.907l0.105,0.02l4.715,0.919l0.17,0.033l4.703,0.925l0.11,0.022l4.685,0.927l0.134,0.027l4.693,0.936l0.143,0.029l4.675,0.94l0.11,0.022l4.687,0.948l0.168,0.035l4.673,0.954l0.11,0.023l4.646,0.954l0.115,0.024l4.676,0.967l0.169,0.035l4.661,0.973l0.115,0.024l4.646,0.976l0.141,0.03l4.654,0.985l0.145,0.031l4.632,0.988l0.11,0.024l4.633,0.994l0.145,0.031l4.645,1.005l0.15,0.032l4.636,1.011l0.142,0.031l4.626,1.016l0.146,0.032l4.606,1.019l0.115,0.026l4.606,1.025l0.147,0.033l4.617,1.036l0.152,0.034l4.594,1.038l0.115,0.027l4.592,1.044l0.147,0.033l4.617,1.058l0.181,0.042l4.572,1.057l0.087,0.02l4.582,1.064l0.186,0.043l4.582,1.074l0.115,0.027l4.566,1.076l0.153,0.036l4.575,1.087l0.15,0.035l4.57,1.094l0.159,0.038l4.546,1.096l0.115,0.028l4.544,1.101l0.155,0.038l4.558,1.113l0.159,0.039l4.55,1.119l0.151,0.037l4.542,1.126l0.16,0.04l4.52,1.128l0.12,0.03l4.517,1.135l0.156,0.039l4.529,1.145l0.156,0.04l4.505,1.148l0.125,0.032l4.526,1.159l0.198,0.051l4.509,1.166l0.12,0.031l4.492,1.168l0.161,0.042l4.503,1.179l0.157,0.042l4.478,1.18l0.124,0.033l4.482,1.189l0.166,0.044l4.491,1.2l0.158,0.042l4.482,1.206l0.163,0.044l4.477,1.214l0.163,0.044l4.451,1.215l0.124,0.034l4.453,1.222l0.168,0.046l4.466,1.234l0.164,0.046l4.456,1.24l0.164,0.046l4.449,1.247l0.164,0.047l4.425,1.249l0.128,0.036l4.427,1.257l0.169,0.048l4.438,1.269l0.165,0.047l4.43,1.275l0.17,0.049l4.405,1.278l0.129,0.037l4.426,1.29l0.211,0.062l4.41,1.297l0.124,0.036l4.391,1.298l0.175,0.052l4.405,1.311l0.166,0.05l4.376,1.311l0.133,0.04l4.379,1.32l0.171,0.052l4.413,1.338l0.215,0.066l4.356,1.333l0.09,0.028l4.362,1.34l0.211,0.065l4.394,1.361l0.181,0.056l4.345,1.355l0.129,0.04l4.34,1.361l0.173,0.055l4.358,1.375l0.177,0.056l4.353,1.384l0.178,0.057l4.346,1.391l0.178,0.057l4.316,1.391l0.132,0.043l4.315,1.397l0.173,0.056l4.332,1.413l0.183,0.06l4.325,1.42l0.174,0.057l4.318,1.427l0.184,0.061l4.289,1.428l0.133,0.044l4.289,1.435l0.184,0.061l4.304,1.45l0.175,0.059l4.299,1.457l0.188,0.065l4.292,1.465l0.176,0.06l4.285,1.472l0.189,0.065l4.256,1.473l0.131,0.045l4.252,1.478l0.18,0.063l4.273,1.496l0.19,0.066l4.266,1.503l0.181,0.064l4.257,1.51l0.185,0.066l4.229,1.51l0.14,0.05l4.252,1.526l0.232,0.084l4.236,1.532l0.135,0.049l4.215,1.532l0.19,0.07l4.233,1.549l0.187,0.069l4.198,1.546l0.135,0.05l4.226,1.565l0.243,0.09l4.211,1.572l0.135,0.051l4.186,1.57l0.191,0.072l4.205,1.588l0.187,0.071l4.197,1.595l0.192,0.073l4.193,1.604l0.192,0.074l4.158,1.602l0.139,0.053l4.159,1.609l0.192,0.075l4.203,1.637l0.243,0.095l4.163,1.635l0.143,0.056l4.11,1.622l0.133,0.052l4.165,1.651l0.252,0.1l4.179,1.671l0.193,0.078l4.117,1.656l0.143,0.057l4.117,1.664l0.193,0.079l4.135,1.682l0.194,0.079l4.13,1.691l0.198,0.082l4.124,1.699l0.194,0.08l4.116,1.707l0.198,0.083l4.083,1.704l0.141,0.059l4.112,1.725l0.256,0.107l4.094,1.732l0.137,0.058l4.068,1.728l0.203,0.086l4.09,1.749l0.194,0.083l4.053,1.744l0.145,0.062l4.085,1.766l0.258,0.112l4.068,1.772l0.139,0.061l4.069,1.781l0.259,0.114l4.056,1.79l0.143,0.064l4.026,1.785l0.2,0.088l4.046,1.806l0.2,0.089l4.042,1.815l0.203,0.092l4.006,1.81l0.143,0.064l4.037,1.832l0.265,0.121l4.02,1.84l0.138,0.063l3.989,1.834l0.204,0.094l4.015,1.857l0.204,0.094l4.008,1.866l0.204,0.095l4,1.874l0.205,0.096l3.995,1.883l0.208,0.099l3.986,1.89l0.201,0.096l3.946,1.883l0.146,0.07l3.948,1.893l0.205,0.098l4.003,1.931l0.269,0.13l3.958,1.925l0.145,0.071l3.929,1.919l0.208,0.102l3.919,1.926l0.14,0.069l3.95,1.95l0.269,0.133l3.972,1.977l0.213,0.106l3.899,1.953l0.139,0.069l3.899,1.961l0.212,0.107l3.958,2.003l0.271,0.138l3.907,1.993l0.143,0.073l3.876,1.986l0.209,0.107l3.904,2.013l0.213,0.11l3.864,2.004l0.141,0.074l3.895,2.029l0.276,0.144l3.915,2.056l0.208,0.11l3.841,2.03l0.145,0.076l3.843,2.039l0.212,0.113l3.903,2.084l0.277,0.148l3.851,2.073l0.139,0.076l3.821,2.064l0.216,0.118l3.848,2.092l0.208,0.114l3.804,2.081l0.142,0.078l3.841,2.11l0.282,0.156l3.86,2.138l0.212,0.118l3.783,2.108l0.142,0.079l3.82,2.138l0.286,0.161l3.804,2.146l0.137,0.077l3.767,2.135l0.216,0.122l3.798,2.165l0.211,0.12l3.791,2.174l0.215,0.124l3.783,2.182l0.211,0.123l3.774,2.19l0.211,0.123l3.734,2.18l0.146,0.086l3.77,2.211l0.284,0.166l3.787,2.239l0.211,0.125l3.711,2.207l0.146,0.087l3.711,2.216l0.21,0.126l3.777,2.268l0.291,0.176l3.726,2.256l0.136,0.083l3.688,2.242l0.218,0.133l3.72,2.275l0.213,0.131l3.71,2.284l0.214,0.131l3.665,2.27l0.139,0.086l3.704,2.302l0.292,0.182l3.726,2.335l0.213,0.134l3.645,2.298l0.141,0.089l3.684,2.331l0.291,0.185l3.667,2.34l0.137,0.088l3.667,2.348l0.291,0.188l3.652,2.358l0.135,0.088l3.616,2.343l0.219,0.143l3.647,2.379l0.215,0.14l3.637,2.386l0.211,0.139l3.631,2.396l0.218,0.145l3.625,2.407l0.214,0.142l3.615,2.416l0.214,0.143l3.608,2.424l0.214,0.144l3.563,2.409l0.14,0.095l3.602,2.444l0.29,0.198l3.587,2.454l0.139,0.095l3.587,2.463l0.29,0.2l3.572,2.473l0.137,0.095l3.572,2.482l0.29,0.203l3.558,2.493l0.14,0.098l3.519,2.475l0.211,0.149l3.533,2.499l0.183,0.13l1.786,1.27l0.063,0.045l1.813,1.291l0.234,0.167l1.678,1.204l1.678,1.2l0.22,0.158l1.805,1.298l0.076,0.054l1.805,1.302l0.22,0.159l1.67,1.212l1.681,1.215l0.227,0.165l1.797,1.309l0.068,0.05l1.718,1.253l0.068,0.05l1.794,1.311l0.221,0.162l1.786,1.314l0.068,0.049l1.71,1.261l0.068,0.049l1.71,1.263l0.068,0.05l1.79,1.324l0.227,0.168l1.656,1.233l1.66,1.232l0.22,0.164l1.779,1.329l0.067,0.05l1.786,1.336l0.234,0.176l1.644,1.239l1.649,1.238l0.227,0.171l1.855,1.402l0.227,0.172l1.64,1.248l1.646,1.249l0.228,0.173l1.639,1.251l1.727,1.316l0.389,0.297l1.711,1.318l1.554,1.193l0.059,0.045l1.767,1.359l0.234,0.18l1.762,1.364l0.065,0.051l1.76,1.364l0.227,0.177l1.623,1.266l1.626,1.266l0.221,0.172l1.751,1.372l0.071,0.056l1.674,1.313l0.065,0.051l1.752,1.377l0.227,0.179l1.614,1.277l1.621,1.279l0.226,0.179l1.744,1.384l0.064,0.051l1.744,1.388l0.227,0.181l1.737,1.39l0.063,0.051l1.531,1.227l1.697,1.358l0.384,0.308l1.681,1.359l1.611,1.299l0.226,0.183l1.726,1.401l0.057,0.046l1.647,1.338l0.069,0.056l1.653,1.347l0.069,0.056l1.728,1.41l0.22,0.18l1.586,1.302l1.681,1.377l0.396,0.326l1.665,1.378l1.506,1.243l0.062,0.051l1.721,1.423l0.225,0.188l1.714,1.425l0.061,0.052l1.717,1.431l0.232,0.194l1.575,1.322l1.579,1.321l0.225,0.189l1.706,1.437l0.061,0.051l1.626,1.372l0.067,0.056l1.708,1.444l0.226,0.191l1.563,1.33l1.574,1.335l0.231,0.197l1.78,1.519l0.219,0.188l1.558,1.339l1.572,1.346l0.23,0.198l1.69,1.457l0.054,0.047l1.607,1.388l0.066,0.057l1.613,1.395l0.065,0.057l1.69,1.465l0.219,0.19l1.682,1.467l0.065,0.057l1.602,1.4l0.059,0.052l1.602,1.402l0.065,0.057l1.685,1.478l0.224,0.197l1.677,1.48l0.064,0.057l1.594,1.41l0.059,0.052l1.674,1.483l0.224,0.199l1.536,1.369l1.543,1.372l0.223,0.199l1.666,1.491l0.058,0.052l1.669,1.496l0.229,0.206l1.531,1.38l1.532,1.378l0.217,0.196l1.661,1.504l0.068,0.062l1.581,1.434l0.057,0.052l1.659,1.506l0.222,0.203l1.654,1.512l0.062,0.057l1.57,1.439l0.057,0.052l1.57,1.44l0.062,0.057l1.653,1.52l0.222,0.205l1.646,1.522l0.061,0.057l1.563,1.448l0.056,0.052l1.562,1.451l0.061,0.057l1.646,1.53l0.221,0.206l1.502,1.407l1.513,1.411l0.226,0.212l1.72,1.616l0.221,0.209l1.494,1.412l1.502,1.416l0.22,0.208l1.63,1.546l0.06,0.057l1.549,1.473l0.06,0.057l1.629,1.551l0.22,0.21l1.621,1.555l0.06,0.057l1.539,1.477l0.053,0.052l1.539,1.479l0.059,0.057l1.541,1.485l0.059,0.057l1.621,1.564l0.219,0.212l1.614,1.567l0.058,0.057l1.533,1.492l0.059,0.057l1.613,1.573l0.219,0.214l1.608,1.578l0.063,0.062l1.523,1.497l0.047,0.046l1.523,1.499l0.063,0.062l1.525,1.504l0.052,0.052l1.605,1.585l0.223,0.221l1.6,1.591l0.057,0.057l1.515,1.509l0.052,0.052l1.599,1.596l0.228,0.228l1.592,1.599l0.051,0.052l1.504,1.514l0.052,0.051l1.509,1.521l0.061,0.062l1.509,1.524l0.051,0.052l1.592,1.609l0.226,0.23l1.584,1.612l0.05,0.052l1.496,1.526l0.051,0.051l1.584,1.618l0.225,0.231l1.578,1.624l0.056,0.056l1.49,1.536l0.05,0.052l1.491,1.538l0.055,0.056l1.493,1.544l0.054,0.056l1.576,1.631l0.219,0.228l1.567,1.634l0.055,0.057l1.482,1.548l0.049,0.051l1.568,1.639l0.223,0.235l1.42,1.495l1.427,1.497l0.222,0.234l1.642,1.735l0.213,0.225l1.411,1.502l1.424,1.509l0.222,0.236l1.551,1.655l0.048,0.052l1.467,1.567l0.053,0.057l1.551,1.66l0.216,0.233l1.406,1.515l1.412,1.518l0.216,0.233l1.625,1.757l0.216,0.234l1.397,1.522l1.405,1.525l0.215,0.234l1.535,1.677l0.051,0.056l1.453,1.59l0.052,0.056l1.534,1.683l0.215,0.235l1.529,1.688l0.055,0.061l1.445,1.598l0.046,0.051l1.443,1.598l0.051,0.056l1.444,1.602l0.051,0.056l1.528,1.698l0.218,0.243l1.518,1.698l0.046,0.051l1.518,1.701l0.217,0.244l1.375,1.552l1.38,1.551l0.212,0.239l1.51,1.71l0.049,0.055l1.429,1.62l0.049,0.056l1.51,1.715l0.211,0.24l1.502,1.718l0.049,0.055l1.423,1.63l0.053,0.061l1.423,1.633l0.049,0.055l1.501,1.726l0.21,0.242l1.494,1.728l0.048,0.056l1.413,1.637l0.048,0.056l1.413,1.64l0.047,0.055l1.496,1.739l0.213,0.248l1.487,1.742l0.048,0.056l1.405,1.647l0.047,0.056l1.405,1.65l0.047,0.055l1.487,1.749l0.211,0.25l1.48,1.753l0.046,0.055l1.397,1.658l0.047,0.055l1.399,1.663l0.05,0.06l1.477,1.758l0.202,0.241l1.469,1.761l0.05,0.06l1.391,1.67l0.045,0.055l1.391,1.673l0.05,0.06l1.471,1.771l0.204,0.248l1.461,1.772l0.045,0.054l1.383,1.681l0.049,0.059l1.463,1.78l0.203,0.249l1.317,1.613l1.325,1.618l0.207,0.254l1.452,1.785l0.04,0.05l1.455,1.79l0.21,0.26l1.448,1.797l0.044,0.054l1.365,1.696l0.044,0.054l1.365,1.698l0.043,0.055l1.367,1.703l0.047,0.059l1.448,1.806l0.205,0.257l1.435,1.804l0.039,0.05l1.438,1.809l0.208,0.263l1.292,1.639l1.297,1.638l0.204,0.258l1.431,1.82l0.046,0.059l1.351,1.721l0.042,0.054l1.429,1.823l0.202,0.259l1.421,1.826l0.042,0.054l1.341,1.726l0.041,0.054l1.343,1.731l0.046,0.058l1.422,1.837l0.201,0.26l1.412,1.838l0.041,0.053l1.333,1.736l0.041,0.054l1.337,1.744l0.048,0.063l1.412,1.845l0.192,0.251l1.404,1.849l0.048,0.062l1.327,1.75l0.036,0.048l1.405,1.854l0.201,0.267l1.264,1.681l1.268,1.678l0.193,0.258l1.398,1.864l0.046,0.062l1.396,1.865l0.189,0.254l1.388,1.867l0.046,0.062l1.313,1.77l0.039,0.053l1.311,1.769l0.042,0.058l1.387,1.876l0.192,0.259l1.248,1.7l1.255,1.702l0.19,0.26l1.457,1.99l0.197,0.27l1.24,1.707l1.244,1.705l0.19,0.26l1.372,1.895l0.044,0.061l1.373,1.898l0.188,0.261l1.233,1.717l1.239,1.719l0.188,0.261l1.364,1.906l0.043,0.061l1.364,1.909l0.187,0.262l1.221,1.722l1.232,1.728l0.193,0.272l1.43,2.023l0.186,0.263l1.216,1.733l1.225,1.738l0.189,0.268l1.347,1.925l0.039,0.056l1.271,1.819l0.036,0.051l1.345,1.928l0.187,0.269l1.21,1.748l1.217,1.75l0.187,0.269l1.412,2.046l0.186,0.27l1.202,1.755l1.208,1.755l0.182,0.265l1.329,1.945l0.037,0.055l1.332,1.952l0.187,0.275l1.193,1.763l1.199,1.762l0.183,0.271l1.32,1.955l0.034,0.051l1.322,1.96l0.185,0.276l1.315,1.967l0.037,0.054l1.111,1.664l1.265,1.886l0.329,0.493l1.249,1.888l1.185,1.782l0.183,0.277l1.305,1.977l0.033,0.05l1.233,1.871l0.038,0.058l1.305,1.984l0.176,0.268l1.295,1.984l0.035,0.054l1.225,1.879l0.035,0.053l1.226,1.884l0.038,0.058l1.296,1.995l0.174,0.269l1.287,1.995l0.034,0.053l1.219,1.892l0.037,0.057l1.217,1.893l0.031,0.049l1.288,2.005l0.178,0.279l1.28,2.008l0.031,0.048l1.208,1.901l0.037,0.057l1.279,2.014l0.172,0.27l1.149,1.823l1.157,1.828l0.174,0.275l1.341,2.133l0.172,0.276l1.141,1.828l1.147,1.831l0.172,0.275l1.262,2.031l0.033,0.052l1.262,2.033l0.171,0.276l1.135,1.843l1.142,1.845l0.171,0.276l1.252,2.039l0.03,0.048l1.254,2.044l0.171,0.281l1.249,2.052l0.034,0.056l1.177,1.937l0.029,0.047l1.176,1.938l0.031,0.051l1.179,1.945l0.033,0.056l1.247,2.06l0.167,0.277l1.237,2.062l0.031,0.051l1.238,2.066l0.169,0.282l1.108,1.863l1.115,1.866l0.168,0.282l1.23,2.075l0.03,0.05l1.23,2.078l0.167,0.282l1.102,1.878l1.109,1.878l0.164,0.278l1.22,2.084l0.029,0.05l1.221,2.086l0.162,0.279l1.214,2.091l0.031,0.054l1.147,1.98l0.029,0.05l1.146,1.982l0.032,0.054l1.213,2.1l0.16,0.279l1.204,2.101l0.028,0.049l1.138,1.989l0.028,0.049l1.139,1.993l0.031,0.053l1.205,2.113l0.161,0.284l1.196,2.112l0.025,0.045l1.13,1.999l0.03,0.053l1.132,2.006l0.03,0.053l1.195,2.12l0.154,0.276l1.188,2.125l0.032,0.056l1.123,2.013l0.025,0.044l1.186,2.129l0.158,0.284l1.181,2.135l0.029,0.053l1.115,2.02l0.026,0.048l1.115,2.021l0.026,0.048l1.179,2.142l0.156,0.284l1.171,2.145l0.026,0.048l1.108,2.031l0.028,0.051l1.171,2.151l0.152,0.281l1.05,1.945l1.059,1.951l0.154,0.284l1.224,2.274l0.149,0.277l1.044,1.955l1.052,1.96l0.15,0.281l1.154,2.166l0.024,0.046l1.154,2.171l0.151,0.285l1.037,1.966l1.043,1.966l0.148,0.281l1.206,2.294l0.148,0.282l1.03,1.975l1.036,1.976l0.145,0.277l1.137,2.187l0.028,0.054l1.077,2.074l0.024,0.046l1.137,2.193l0.147,0.285l1.129,2.196l0.023,0.046l1.069,2.08l0.025,0.049l1.069,2.085l0.025,0.05l1.129,2.204l0.143,0.281l1.121,2.207l0.024,0.049l1.061,2.092l0.023,0.045l1.121,2.214l0.146,0.289l1.113,2.218l0.022,0.045l1.052,2.098l0.022,0.044l1.054,2.105l0.026,0.052l1.112,2.226l0.141,0.281l1.103,2.227l0.024,0.048l1.045,2.111l0.022,0.044l1.044,2.114l0.024,0.048l1.104,2.237l0.14,0.285l1.096,2.24l0.024,0.048l1.037,2.124l0.023,0.047l1.095,2.244l0.137,0.282l1.087,2.247l0.023,0.047l1.03,2.132l0.023,0.047l1.03,2.135l0.022,0.046l1.087,2.256l0.135,0.282l1.079,2.26l0.024,0.05l1.022,2.143l0.021,0.043l1.078,2.264l0.135,0.286l0.969,2.052l1.032,2.173l0.246,0.522l1.019,2.178l0.969,2.062l0.132,0.282l0.962,2.065l1.026,2.188l0.243,0.522l1.008,2.186l0.961,2.071l0.132,0.285l1.054,2.292l0.021,0.045l0.999,2.174l0.02,0.045l1.054,2.297l0.13,0.285l1.046,2.3l0.021,0.045l0.99,2.181l0.018,0.041l0.991,2.185l0.022,0.048l1.045,2.308l0.127,0.282l1.038,2.311l0.021,0.048l0.984,2.195l0.02,0.044l1.036,2.316l0.126,0.281l1.029,2.321l0.021,0.046l0.975,2.203l0.018,0.04l0.975,2.205l0.021,0.047l1.029,2.33l0.126,0.285l1.02,2.33l0.017,0.04l0.968,2.213l0.02,0.046l0.968,2.219l0.019,0.042l1.02,2.341l0.124,0.284l1.012,2.343l0.018,0.043l1.012,2.344l0.121,0.281l0.911,2.133l0.919,2.136l0.121,0.281l1.003,2.353l0.018,0.042l1.003,2.357l0.121,0.284l0.996,2.362l0.019,0.045l0.946,2.244l0.017,0.041l0.944,2.244l0.016,0.038l0.995,2.369l0.12,0.287l0.988,2.374l0.018,0.041l0.937,2.255l0.018,0.044l0.937,2.257l0.016,0.037l0.987,2.381l0.118,0.286l0.98,2.386l0.016,0.04l0.929,2.265l0.017,0.041l0.979,2.389l0.115,0.283l0.971,2.393l0.016,0.04l0.922,2.275l0.018,0.043l0.971,2.4l0.114,0.283l0.873,2.178l0.881,2.182l0.114,0.285l1.011,2.529l0.112,0.28l0.866,2.187l0.874,2.192l0.112,0.282l0.955,2.417l0.016,0.042l0.955,2.42l0.111,0.283l0.858,2.197l0.866,2.201l0.11,0.281l0.994,2.551l0.11,0.285l0.852,2.207l0.859,2.21l0.11,0.285l0.938,2.437l0.015,0.038l0.937,2.439l0.108,0.282l0.929,2.442l0.015,0.037l0.883,2.325l0.016,0.04l0.883,2.327l0.014,0.038l0.884,2.33l0.015,0.04l0.93,2.455l0.105,0.281l0.922,2.458l0.015,0.04l0.921,2.461l0.105,0.28l0.913,2.463l0.013,0.037l0.869,2.344l0.014,0.04l0.868,2.347l0.014,0.037l0.913,2.472l0.104,0.283l0.823,2.251l0.874,2.373l0.191,0.523l0.861,2.382l0.823,2.261l0.101,0.277l0.896,2.485l0.014,0.039l0.853,2.369l0.014,0.039l0.897,2.493l0.099,0.279l0.889,2.496l0.014,0.038l0.845,2.377l0.012,0.035l0.845,2.379l0.013,0.035l0.888,2.506l0.1,0.284l0.881,2.509l0.012,0.035l0.838,2.388l0.012,0.034l0.88,2.514l0.098,0.28l0.872,2.517l0.012,0.034l0.83,2.399l0.014,0.04l0.872,2.523l0.094,0.275l0.788,2.301l0.795,2.306l0.095,0.277l0.905,2.652l0.094,0.277l0.856,2.535l0.012,0.036l0.739,2.191l0.829,2.438l0.176,0.522l0.812,2.439l0.78,2.319l0.093,0.279l0.848,2.55l0.012,0.036l0.807,2.43l0.01,0.033l0.848,2.555l0.092,0.278l0.839,2.558l0.011,0.033l0.799,2.44l0.013,0.038l0.839,2.565l0.09,0.275l0.831,2.567l0.011,0.035l0.792,2.448l0.011,0.032l0.792,2.453l0.012,0.036l0.831,2.578l0.088,0.274l0.823,2.578l0.01,0.031l0.784,2.462l0.012,0.036l0.823,2.586l0.087,0.274l0.815,2.589l0.012,0.036l0.777,2.471l0.009,0.031l0.777,2.472l0.01,0.034l0.815,2.596l0.085,0.274l0.807,2.601l0.011,0.035l0.807,2.604l0.085,0.273l0.729,2.38l0.737,2.383l0.084,0.275l0.799,2.613l0.01,0.033l0.799,2.616l0.083,0.274l0.791,2.618l0.009,0.03l0.754,2.501l0.011,0.034l0.754,2.504l0.009,0.029l0.79,2.627l0.082,0.274l0.783,2.632l0.01,0.034l0.747,2.513l0.008,0.029l0.782,2.636l0.081,0.273l0.775,2.64l0.009,0.031l0.739,2.522l0.009,0.031l0.739,2.525l0.009,0.031l0.775,2.649l0.079,0.272l0.766,2.652l0.009,0.031l0.732,2.534l0.008,0.03l0.766,2.657l0.078,0.27l0.758,2.661l0.009,0.032l0.724,2.544l0.009,0.03l0.758,2.667l0.077,0.272l0.687,2.444l0.694,2.446l0.076,0.271l0.784,2.797l0.075,0.27l0.743,2.68l0.008,0.029l0.709,2.561l0.008,0.03l0.708,2.564l0.009,0.029l0.709,2.569l0.008,0.031l0.742,2.692l0.073,0.267l0.734,2.693l0.008,0.029l0.734,2.698l0.074,0.271l0.726,2.702l0.008,0.028l0.693,2.582l0.007,0.027l0.694,2.586l0.008,0.03l0.726,2.71l0.072,0.269l0.718,2.713l0.008,0.03l0.686,2.596l0.007,0.025l0.686,2.599l0.008,0.03l0.718,2.721l0.069,0.266l0.71,2.724l0.008,0.03l0.71,2.728l0.069,0.267l0.702,2.732l0.008,0.029l0.671,2.614l0.006,0.025l0.672,2.617l0.007,0.029l0.702,2.741l0.068,0.266l0.636,2.517l0.675,2.641l0.128,0.506l0.659,2.643l0.637,2.525l0.067,0.267l0.686,2.757l0.007,0.028l0.686,2.758l0.065,0.263l0.622,2.537l0.631,2.541l0.065,0.264l0.707,2.886l0.064,0.264l0.616,2.547l0.623,2.55l0.064,0.264l0.67,2.777l0.006,0.027l0.67,2.78l0.063,0.261l0.662,2.783l0.006,0.027l0.634,2.669l0.006,0.026l0.634,2.672l0.006,0.025l0.662,2.792l0.061,0.262l0.654,2.796l0.006,0.026l0.627,2.681l0.005,0.024l0.654,2.802l0.061,0.261l0.646,2.805l0.006,0.026l0.619,2.69l0.005,0.024l0.619,2.694l0.006,0.025l0.646,2.815l0.059,0.26l0.638,2.817l0.005,0.024l0.639,2.82l0.058,0.262l0.581,2.601l0.614,2.721l0.11,0.494l0.599,2.725l0.555,2.494l0.005,0.022l0.629,2.836l0.057,0.259l0.649,2.957l0.056,0.26l0.566,2.618l0.573,2.622l0.056,0.259l0.615,2.85l0.005,0.024l0.614,2.852l0.055,0.257l0.559,2.631l0.566,2.635l0.055,0.258l0.631,2.979l0.055,0.258l0.551,2.641l0.559,2.644l0.054,0.258l0.599,2.872l0.005,0.022l0.598,2.875l0.053,0.255l0.59,2.877l0.005,0.021l0.566,2.764l0.005,0.024l0.567,2.766l0.004,0.02l0.59,2.886l0.052,0.258l0.583,2.89l0.004,0.021l0.583,2.893l0.051,0.255l0.53,2.673l0.538,2.677l0.051,0.256l0.598,3.02l0.05,0.253l0.523,2.682l0.531,2.686l0.05,0.254l0.567,2.913l0.004,0.021l0.567,2.916l0.048,0.253l0.559,2.918l0.004,0.02l0.537,2.805l0.004,0.021l0.537,2.809l0.004,0.021l0.559,2.928l0.047,0.252l0.551,2.932l0.004,0.019l0.529,2.818l0.004,0.02l0.551,2.938l0.047,0.251l0.543,2.942l0.004,0.02l0.522,2.828l0.003,0.018l0.544,2.948l0.046,0.252l0.536,2.955l0.005,0.028l1.039,5.732l0.027,0.154l1.042,5.808l0.028,0.153l1.045,5.879l0.047,0.267l1.029,5.891l0.027,0.152l1.011,5.847l0.026,0.151l1.014,5.917l0.045,0.265l0.989,5.874l0.006,0.036l0.989,5.886l0.044,0.263l0.983,5.956l0.024,0.149l0.975,5.969l0.043,0.262l0.951,5.925l0.005,0.034l0.951,5.938l0.041,0.261l0.945,6.009l0.022,0.145l0.928,5.965l0.023,0.146l0.929,6.035l0.039,0.258l0.906,5.99l0.004,0.032l0.905,6.004l0.039,0.257l0.906,6.13l0.038,0.257l0.875,6.03l0.004,0.03l0.875,6.043l0.036,0.255l0.868,6.114l0.02,0.141l0.852,6.07l0.02,0.142l0.852,6.139l0.035,0.252l0.829,6.097l0.004,0.029l0.829,6.11l0.034,0.251l0.822,6.179l0.018,0.139l0.814,6.192l0.032,0.249l0.799,6.206l0.017,0.137l0.784,6.164l0.018,0.137l0.776,6.177l0.017,0.137l0.769,6.19l0.017,0.136l0.768,6.259l0.03,0.246l0.752,6.272l0.017,0.134l0.738,6.231l0.016,0.134l0.737,6.299l0.029,0.243l0.722,6.313l0.015,0.133l0.709,6.271l0.014,0.133l0.701,6.284l0.015,0.132l0.693,6.299l0.015,0.131l0.692,6.367l0.025,0.239l0.677,6.38l0.014,0.13l0.669,6.393l0.024,0.238l0.648,6.352l0.003,0.022l0.648,6.366l0.024,0.236l0.638,6.434l0.013,0.128l0.631,6.448l0.022,0.234l0.611,6.408l0.002,0.02l0.611,6.421l0.022,0.233l0.605,6.541l0.021,0.232l0.581,6.449l0.002,0.019l0.58,6.462l0.021,0.231l0.57,6.53l0.011,0.124l0.558,6.49l0.011,0.123l0.555,6.556l0.019,0.229l0.54,6.571l0.01,0.122l0.528,6.531l0.01,0.122l0.52,6.545l0.01,0.122l0.517,6.611l0.018,0.226l0.502,6.626l0.009,0.12l0.491,6.586l0.009,0.12l0.487,6.653l0.016,0.224l0.472,6.667l0.008,0.119l0.461,6.628l0.008,0.118l0.453,6.643l0.008,0.118l0.45,6.708l0.014,0.221l0.434,6.722l0.008,0.116l0.423,6.685l0.008,0.116l0.419,6.75l0.013,0.219l0.404,6.764l0.007,0.115l0.394,6.727l0.006,0.114l0.386,6.741l0.007,0.114l0.381,6.807l0.012,0.215l0.367,6.82l0.006,0.113l0.359,6.834l0.011,0.214l0.341,6.798l0.001,0.01l0.341,6.812l0.011,0.212l0.331,6.928l0.01,0.212l0.311,6.84l0.001,0.009l0.311,6.854l0.01,0.211l0.299,6.919l0.004,0.109l0.292,6.933l0.008,0.209l0.275,6.897l0,0.008l0.274,6.912l0.008,0.208l0.264,7.025l0.007,0.207l0.245,6.947l0.245,6.954l0.007,0.206l0.233,7.068l0.006,0.205l0.215,6.99l0.215,6.998l0.006,0.203l0.203,7.11l0.006,0.203l0.185,7.032l0.185,7.041l0.006,0.201l0.171,7.105l0.003,0.102l0.164,7.12l0.004,0.199l0.148,7.089l0.149,7.148l0.006,0.296l0.127,7.166l0.126,7.127l0.003,0.198l0.112,7.191l0.001,0.1l0.104,7.157l0.001,0.099l0.097,7.22l0.003,0.196l0.082,7.235l0.001,0.098l0.074,7.249l0.002,0.193l0.059,7.218l0.059,7.231l0.002,0.192l0.045,7.341l0.001,0.192l0.029,7.261l0.03,7.274l0,0.191l0.015,7.316l0,0.055l0.044,30.312l0.051,31.08l0.059,31.852l0.072,32.641l0,0.005l0.073,33.39l0.088,34.097l0.095,34.822l0.102,35.503l0.109,36.162l0.117,36.781l0.131,37.412l0,0.005l0.132,38.005l0.145,38.575l0,0.005l0.146,39.124l0.161,39.636l0.168,40.172l0,0.005l0.167,40.637l0.183,41.083l0.189,41.537l0.197,41.953l0.205,42.361l0,0.004l0.204,42.717l0.219,43.052l0.226,43.395l0.234,43.7l0.24,43.998l0,0.003l0.241,44.243l0.255,44.485l0.256,44.699l0.27,44.896l0.27,45.067l0.284,45.219l0.285,45.36l0.292,45.453l0.299,45.537l0.306,45.599l0.314,45.639l0.321,45.672l0.321,45.668l0.328,45.611l0.343,45.585l0,0.014l0.336,45.515l0.35,45.4l0.357,45.314l0.358,45.178l0.365,45.004l0.372,44.822l0.379,44.619l0.387,44.408l0.386,44.161l0.394,43.876l0.401,43.6l0.402,43.286l0.408,42.933l0.416,42.575l0.423,42.211l0.423,41.808l0.43,41.367l0.438,40.936l0.437,40.467l0.445,39.976l0.444,39.444l0.46,38.928l0,0.005l0.226,19.24l2.514,205.96l-373.732,4.562l-2.515,-206.026l0,-0.044l-0.227,-19.296l-0.46,-38.993l-0.001,-0.049l-0.445,-39.539l0,-0.013l-0.446,-40.04l0,-0.03l-0.439,-40.528l0,-0.012l-0.438,-40.994l0,-0.027l-0.431,-41.447l0,-0.026l-0.424,-41.861l0,-0.009l-0.424,-42.26l0,-0.025l-0.416,-42.646l0,-0.024l-0.409,-43.002l-0.001,-0.023l-0.401,-43.329l0,-0.006l-0.402,-43.641l0,-0.021l-0.395,-43.939l0,-0.02l-0.387,-44.199l0,-0.004l-0.387,-44.445l0,-0.019l-0.38,-44.676l0,-0.019l-0.372,-44.878l-0.001,-0.018l-0.365,-45.058l0,-0.018l-0.358,-45.207l0,-0.002l-0.357,-45.343l0,-0.017l-0.351,-45.472l0,-0.032l-0.336,-45.541l-0.343,-45.611l0,-0.03l-0.329,-45.68l0,-0.016l-0.321,-45.69l-0.322,-45.694l0,-0.015l-0.314,-45.682l0,-0.015l-0.307,-45.642l0,-0.014l-0.299,-45.579l0,-0.014l-0.292,-45.493l0,-0.014l-0.285,-45.379l-0.285,-45.257l0,-0.028l-0.27,-45.106l-0.27,-44.933l-0.001,-0.028l-0.255,-44.737l-0.256,-44.521l0,-0.027l-0.241,-44.281l-0.241,-44.011l0,-0.012l-0.233,-43.738l-0.001,-0.012l-0.226,-43.432l0,-0.012l-0.219,-43.112l0,-0.028l-0.205,-42.753l-0.204,-42.373l0,-0.012l-0.197,-41.989l0,-0.012l-0.19,-41.574l0,-0.012l-0.183,-41.144l0,-0.029l-0.168,-40.673l-0.168,-40.183l0,-0.013l-0.161,-39.698l0,-0.03l-0.146,-39.161l-0.146,-38.614l0,-0.031l-0.131,-38.043l-0.132,-37.452l0,-0.031l-0.117,-36.849l0,-0.014l-0.109,-36.203l0,-0.014l-0.103,-35.546l0,-0.014l-0.095,-34.865l0,-0.015l-0.087,-34.173l0,-0.035l-0.073,-33.437l-0.073,-32.69l0,-0.038l-0.059,-31.935l0,-0.017l-0.051,-31.135l0,-0.018l-0.044,-30.258l-0.014,-6.949l-0.028,-6.988l-0.029,-6.971l-0.041,-6.765l-0.057,-6.94l-0.057,-6.923l-0.07,-6.811l-0.077,-6.795l-0.091,-6.778l-0.099,-6.859l-0.105,-6.746l-0.121,-6.827l-0.118,-6.713l-0.14,-6.698l-0.142,-6.779l-0.153,-6.665l-0.161,-6.648l-0.177,-6.731l-0.177,-6.715l-0.186,-6.502l-0.205,-6.683l-0.205,-6.667l-0.213,-6.453l-0.233,-6.635l-0.234,-6.619l-0.24,-6.405l-0.261,-6.587l-0.262,-6.572l-0.271,-6.456l-0.278,-6.439l-0.297,-6.525l-0.296,-6.508l-0.301,-6.291l-0.325,-6.477l-0.324,-6.461l-0.333,-6.344l-0.341,-6.328l-0.353,-6.312l-0.367,-6.398l-0.373,-6.383l-0.375,-6.264l-0.388,-6.249l-0.401,-6.336l-0.402,-6.216l-0.415,-6.201l-0.429,-6.29l-0.436,-6.273l-0.436,-6.154l-0.449,-6.137l-0.464,-6.227l-0.463,-6.107l-0.477,-6.09l-0.491,-6.18l-0.499,-6.165l-0.497,-6.043l-0.51,-6.028l-0.526,-6.119l-0.524,-5.996l-0.547,-6.088l-0.547,-6.071l-0.541,-5.843l-0.574,-6.042l-0.574,-6.025l-0.578,-5.904l-0.584,-5.887l-0.609,-5.98l-0.609,-5.964l-0.611,-5.841l-0.618,-5.826l-0.631,-5.81l-0.65,-5.903l-0.657,-5.887l-0.663,-5.873l-0.658,-5.749l-0.671,-5.732l-0.691,-5.828l-0.685,-5.702l-0.697,-5.687l-0.718,-5.781l-0.725,-5.766l-0.732,-5.752l-0.724,-5.625l-0.737,-5.611l-0.744,-5.595l-0.772,-5.691l-0.773,-5.675l-0.77,-5.549l-0.792,-5.646l-0.784,-5.519l-0.812,-5.616l-0.813,-5.601l-0.793,-5.361l-0.84,-5.57l-0.839,-5.556l-0.836,-5.428l-0.859,-5.526l-0.849,-5.398l-0.88,-5.496l-0.88,-5.482l-0.874,-5.353l-0.881,-5.338l-0.913,-5.437l-0.913,-5.422l-0.907,-5.293l-0.933,-5.392l-0.92,-5.263l-0.933,-5.248l-0.959,-5.348l-0.989,-5.46l-0.461,-2.536l-0.468,-2.542l-0.511,-2.77l-0.468,-2.534l-0.475,-2.531l-0.518,-2.759l-0.475,-2.524l-0.481,-2.519l-0.525,-2.747l-0.525,-2.745l-0.481,-2.509l-0.486,-2.505l-0.487,-2.5l-0.518,-2.624l-0.042,-0.213l-0.512,-2.622l-0.446,-2.256l-0.525,-2.612l-0.043,-0.213l-0.518,-2.609l-0.499,-2.48l-0.499,-2.474l-0.505,-2.472l-0.554,-2.701l-0.552,-2.697l-0.506,-2.462l-0.511,-2.457l-0.511,-2.452l-0.545,-2.578l-0.045,-0.213l-0.538,-2.573l-0.467,-2.206l-0.551,-2.567l-0.046,-0.213l-0.545,-2.564l-0.523,-2.431l-0.523,-2.426l-0.558,-2.553l-0.046,-0.213l-0.551,-2.548l-0.478,-2.181l-0.536,-2.414l-0.617,-2.774l-0.047,-0.21l-0.505,-2.3l-0.519,-2.298l-0.047,-0.211l-0.564,-2.526l-0.542,-2.394l-0.541,-2.392l-0.548,-2.387l-0.602,-2.62l-0.602,-2.616l-0.547,-2.376l-0.554,-2.373l-0.609,-2.606l-0.553,-2.365l-0.56,-2.362l-0.615,-2.595l-0.616,-2.59l-0.559,-2.352l-0.566,-2.348l-0.565,-2.343l-0.604,-2.472l-0.051,-0.211l-0.597,-2.468l-0.513,-2.095l-0.61,-2.461l-0.052,-0.211l-0.604,-2.459l-0.578,-2.323l-0.576,-2.316l-0.617,-2.447l-0.054,-0.214l-0.55,-2.205l-0.562,-2.2l-0.054,-0.213l-0.617,-2.437l-0.589,-2.299l-0.65,-2.537l-0.651,-2.533l-0.588,-2.289l-0.594,-2.284l-0.595,-2.283l-0.601,-2.28l-0.665,-2.515l-0.664,-2.513l-0.6,-2.266l-0.606,-2.264l-0.671,-2.501l-0.672,-2.501l-0.606,-2.252l-0.611,-2.249l-0.613,-2.249l-0.619,-2.244l-0.684,-2.478l-0.685,-2.478l-0.684,-2.474l-0.618,-2.229l-0.556,-1.985l-0.669,-2.358l-0.06,-0.211l-0.661,-2.354l-0.63,-2.215l-0.698,-2.451l-0.629,-2.208l-0.636,-2.207l-0.705,-2.443l-0.635,-2.197l-0.642,-2.194l-0.712,-2.432l-0.711,-2.429l-0.641,-2.183l-0.648,-2.182l-0.718,-2.419l-0.646,-2.17l-0.653,-2.172l-0.726,-2.408l-0.725,-2.404l-0.653,-2.161l-0.658,-2.156l-0.658,-2.151l-0.706,-2.286l-0.065,-0.21l-0.7,-2.285l-0.664,-2.141l-0.663,-2.138l-0.67,-2.137l-0.747,-2.375l-0.745,-2.371l-0.669,-2.124l-0.675,-2.12l-0.752,-2.36l-0.676,-2.118l-0.681,-2.11l-0.759,-2.35l-0.759,-2.348l-0.681,-2.102l-0.686,-2.097l-0.766,-2.335l-0.686,-2.092l-0.693,-2.088l-0.773,-2.329l-0.691,-2.078l-0.745,-2.217l-0.07,-0.21l-0.656,-1.969l-0.668,-1.966l-0.071,-0.207l-0.825,-2.448l-0.697,-2.064l-0.622,-1.82l-0.757,-2.197l-0.07,-0.204l-0.751,-2.196l-0.709,-2.05l-0.792,-2.289l-0.708,-2.043l-0.715,-2.041l-0.8,-2.283l-0.713,-2.032l-0.72,-2.027l-0.807,-2.273l-0.806,-2.268l-0.719,-2.02l-0.726,-2.017l-0.811,-2.254l-0.726,-2.013l-0.783,-2.15l-0.074,-0.202l-0.686,-1.899l-0.7,-1.9l-0.076,-0.207l-0.781,-2.137l-0.736,-1.993l-0.826,-2.234l-0.826,-2.23l-0.736,-1.986l-0.742,-1.98l-0.741,-1.977l-0.747,-1.973l-0.839,-2.214l-0.839,-2.21l-0.839,-2.207l-0.748,-1.963l-0.753,-1.96l-0.752,-1.953l-0.812,-2.091l-0.08,-0.206l-0.805,-2.087l-0.663,-1.7l-0.82,-2.085l-0.08,-0.204l-0.813,-2.081l-0.763,-1.934l-0.762,-1.93l-0.825,-2.07l-0.08,-0.201l-0.82,-2.07l-0.672,-1.68l-0.831,-2.059l-0.082,-0.203l-0.825,-2.059l-0.773,-1.91l-0.872,-2.151l-0.773,-1.907l-0.78,-1.904l-0.88,-2.144l-0.778,-1.895l-0.785,-1.894l-0.886,-2.134l-0.885,-2.127l-0.783,-1.882l-0.79,-1.881l-0.894,-2.124l-0.891,-2.115l-0.788,-1.868l-0.796,-1.869l-0.796,-1.869l-0.863,-2.005l-0.083,-0.193l-0.855,-2.001l-0.802,-1.859l-0.801,-1.853l-0.806,-1.849l-0.91,-2.085l-0.912,-2.085l-0.807,-1.843l-0.81,-1.834l-0.918,-2.075l-0.918,-2.072l-0.81,-1.827l-0.818,-1.828l-0.923,-2.059l-0.816,-1.818l-0.822,-1.815l-0.93,-2.052l-0.932,-2.053l-0.821,-1.805l-0.827,-1.803l-0.937,-2.039l-0.826,-1.796l-0.899,-1.936l-0.09,-0.195l-0.782,-1.696l-0.794,-1.692l-0.089,-0.19l-0.898,-1.928l-0.905,-1.925l-0.09,-0.191l-0.786,-1.682l-0.798,-1.681l-0.092,-0.194l-0.903,-1.913l-0.844,-1.772l-0.956,-2.005l-0.842,-1.761l-0.849,-1.763l-0.962,-1.995l-0.962,-1.992l-0.848,-1.753l-0.854,-1.75l-0.969,-1.982l-0.852,-1.741l-0.857,-1.738l-0.977,-1.976l-0.976,-1.973l-0.859,-1.732l-0.863,-1.726l-0.981,-1.959l-0.984,-1.964l-0.862,-1.717l-0.867,-1.713l-0.989,-1.951l-0.869,-1.711l-0.875,-1.709l-0.993,-1.937l-0.995,-1.939l-0.874,-1.699l-0.88,-1.696l-0.999,-1.926l-0.879,-1.69l-0.961,-1.832l-0.095,-0.182l-0.951,-1.824l-0.763,-1.451l-0.966,-1.821l-0.097,-0.185l-0.957,-1.813l-0.889,-1.673l-0.892,-1.674l-0.97,-1.808l-0.096,-0.179l-0.966,-1.808l-0.77,-1.431l-0.976,-1.797l-0.098,-0.182l-0.971,-1.797l-0.899,-1.653l-1.027,-1.882l-0.899,-1.646l-0.905,-1.644l-1.034,-1.877l-1.033,-1.87l-0.901,-1.631l-0.912,-1.636l-1.039,-1.861l-0.909,-1.626l-0.917,-1.628l-1.043,-1.847l-1.047,-1.853l-0.916,-1.619l-0.918,-1.608l-1.051,-1.839l-1.053,-1.841l-0.921,-1.607l-0.925,-1.601l-1.057,-1.827l-1.057,-1.824l-0.923,-1.592l-0.932,-1.594l-0.932,-1.591l-1.02,-1.728l-0.105,-0.177l-1.01,-1.72l-0.934,-1.578l-0.935,-1.576l-1.024,-1.714l-0.108,-0.18l-1.017,-1.711l-0.939,-1.567l-0.942,-1.569l-0.945,-1.562l-1.081,-1.784l-1.087,-1.79l-1.083,-1.784l-0.941,-1.546l-0.952,-1.552l-0.955,-1.554l-1.042,-1.683l-0.103,-0.168l-1.035,-1.679l-0.957,-1.541l-0.957,-1.539l-1.049,-1.674l-0.107,-0.171l-1.042,-1.67l-0.822,-1.308l-1.053,-1.664l-0.105,-0.165l-1.049,-1.664l-0.967,-1.523l-1.108,-1.741l-0.967,-1.517l-0.972,-1.514l-1.114,-1.733l-1.111,-1.725l-0.975,-1.511l-0.977,-1.504l-1.117,-1.716l-1.12,-1.718l-0.98,-1.5l-0.982,-1.493l-1.126,-1.709l-0.982,-1.488l-1.076,-1.619l-0.112,-0.169l-0.925,-1.398l-0.938,-1.397l-0.111,-0.167l-1.224,-1.832l-0.983,-1.47l-0.992,-1.472l-0.996,-1.474l-1.091,-1.605l-0.112,-0.166l-1.082,-1.597l-0.993,-1.457l-1.001,-1.464l-1.098,-1.597l-0.11,-0.159l-1.088,-1.589l-0.855,-1.237l-1.102,-1.584l-0.109,-0.158l-1.095,-1.581l-1.01,-1.448l-1.159,-1.659l-1.007,-1.439l-1.107,-1.57l-0.11,-0.156l-1.104,-1.572l-0.862,-1.22l-1.112,-1.56l-0.113,-0.159l-1.111,-1.567l-1.017,-1.423l-1.018,-1.421l-1.122,-1.557l-0.11,-0.153l-1.116,-1.554l-1.022,-1.413l-1.022,-1.411l-1.13,-1.549l-0.114,-0.156l-1.116,-1.536l-0.875,-1.196l-1.134,-1.539l-0.111,-0.15l-1.127,-1.535l-1.036,-1.401l-1.189,-1.605l-1.185,-1.598l-1.035,-1.393l-1.041,-1.391l-1.038,-1.384l-1.148,-1.52l-0.114,-0.152l-1.133,-1.507l-1.047,-1.382l-1.2,-1.582l-1.046,-1.377l-1.052,-1.374l-1.203,-1.57l-1.21,-1.576l-1.051,-1.367l-1.053,-1.36l-1.213,-1.563l-1.216,-1.565l-1.056,-1.358l-1.062,-1.355l-1.218,-1.552l-1.058,-1.346l-1.17,-1.477l-0.118,-0.149l-1.158,-1.469l-1.067,-1.343l-1.071,-1.346l-1.069,-1.334l-1.23,-1.533l-1.234,-1.536l-1.234,-1.532l-1.067,-1.324l-1.078,-1.327l-1.081,-1.33l-1.186,-1.447l-0.114,-0.14l-1.182,-1.449l-1.083,-1.318l-1.242,-1.508l-1.086,-1.318l-1.089,-1.311l-1.247,-1.501l-1.248,-1.498l-1.092,-1.309l-1.097,-1.307l-1.254,-1.49l-1.258,-1.492l-1.092,-1.295l-1.099,-1.292l-1.264,-1.485l-1.263,-1.481l-1.099,-1.286l-1.104,-1.284l-1.269,-1.473l-1.27,-1.471l-1.107,-1.282l-1.114,-1.28l-1.271,-1.458l-1.271,-1.456l-1.113,-1.272l-1.119,-1.271l-1.282,-1.453l-1.119,-1.267l-1.231,-1.384l-0.113,-0.127l-1.219,-1.376l-1.124,-1.26l-1.125,-1.258l-1.126,-1.25l-1.293,-1.435l-1.298,-1.437l-1.292,-1.429l-1.125,-1.242l-1.136,-1.244l-1.299,-1.422l-1.135,-1.24l-1.249,-1.356l-0.112,-0.122l-1.242,-1.352l-0.978,-1.057l-1.255,-1.349l-0.112,-0.12l-1.248,-1.346l-1.147,-1.228l-1.315,-1.406l-1.147,-1.223l-1.256,-1.332l-0.111,-0.118l-1.259,-1.34l-0.988,-1.043l-1.265,-1.328l-0.116,-0.121l-1.258,-1.325l-1.158,-1.211l-1.327,-1.386l-1.158,-1.206l-1.163,-1.205l-1.329,-1.373l-1.333,-1.376l-1.333,-1.373l-1.158,-1.191l-1.169,-1.194l-1.344,-1.371l-1.169,-1.19l-1.175,-1.189l-1.34,-1.353l-1.34,-1.35l-1.35,-1.359l-1.174,-1.18l-1.18,-1.177l-1.351,-1.346l-1.18,-1.174l-1.192,-1.177l-1.352,-1.334l-1.357,-1.336l-1.357,-1.333l-1.185,-1.163l-1.197,-1.167l-1.358,-1.321l-1.197,-1.163l-1.204,-1.162l-1.363,-1.313l-1.369,-1.317l-1.369,-1.314l-1.202,-1.152l-1.209,-1.152l-1.369,-1.301l-1.209,-1.147l-1.329,-1.253l-0.105,-0.099l-1.322,-1.249l-1.049,-0.986l-1.329,-1.241l-0.105,-0.098l-1.328,-1.243l-1.221,-1.135l-1.386,-1.288l-1.387,-1.285l-1.22,-1.129l-1.227,-1.128l-1.393,-1.277l-1.392,-1.276l-1.227,-1.122l-1.238,-1.125l-1.393,-1.263l-1.233,-1.116l-1.36,-1.223l-0.102,-0.093l-1.341,-1.209l-1.239,-1.11l-1.244,-1.114l-1.361,-1.209l-0.101,-0.091l-1.353,-1.206l-1.251,-1.108l-1.41,-1.247l-1.245,-1.099l-1.251,-1.098l-1.417,-1.24l-1.416,-1.237l-1.257,-1.097l-1.264,-1.095l-1.416,-1.226l-1.428,-1.233l-1.264,-1.09l-1.373,-1.176l-0.099,-0.085l-1.378,-1.184l-1.105,-0.943l-1.383,-1.173l-0.104,-0.088l-1.381,-1.176l-1.27,-1.073l-1.434,-1.21l-1.276,-1.075l-1.396,-1.167l-0.103,-0.086l-1.382,-1.16l-1.275,-1.064l-1.283,-1.067l-1.289,-1.066l-1.565,-1.293l-0.103,-0.084l-1.225,-1.014l-1.237,-1.014l-0.102,-0.083l-1.407,-1.155l-1.295,-1.057l-1.447,-1.178l-1.458,-1.185l-1.301,-1.056l-1.412,-1.138l-0.094,-0.076l-1.248,-1.009l-1.261,-1.009l-0.093,-0.075l-1.574,-1.262l-1.302,-1.041l-1.307,-1.04l-1.309,-1.039l-1.428,-1.127l-0.098,-0.078l-1.421,-1.124l-1.315,-1.033l-1.47,-1.154l-1.314,-1.029l-1.442,-1.122l-0.097,-0.076l-1.427,-1.114l-1.321,-1.024l-1.315,-1.017l-1.327,-1.021l-1.61,-1.236l-0.096,-0.074l-1.273,-0.98l-1.287,-0.98l-0.095,-0.072l-1.441,-1.1l-1.448,-1.099l-0.095,-0.072l-1.44,-1.096l-1.174,-0.887l-1.458,-1.095l-0.1,-0.076l-1.445,-1.088l-1.334,-0.998l-1.348,-1.007l-1.468,-1.09l-0.093,-0.069l-1.454,-1.082l-1.348,-0.997l-1.507,-1.113l-1.507,-1.11l-1.355,-0.996l-1.361,-0.995l-1.513,-1.104l-1.355,-0.987l-1.475,-1.067l-0.09,-0.065l-1.475,-1.07l-1.361,-0.981l-1.361,-0.98l-1.492,-1.067l-0.096,-0.068l-1.472,-1.055l-1.367,-0.974l-1.42,-1.009l-2.942,-2.082l-2.992,-2.105l-2.914,-2.041l-2.931,-2.037l-2.93,-2.029l-2.944,-2.021l-2.944,-2.014l-2.957,-2.007l-3.035,-2.051l-2.967,-1.994l-2.974,-1.987l-2.977,-1.977l-2.987,-1.971l-2.998,-1.967l-2.998,-1.955l-3.084,-1.999l-3.011,-1.945l-3.025,-1.937l-3.025,-1.931l-3.035,-1.92l-3.113,-1.963l-2.971,-1.862l-3.059,-1.901l-3.137,-1.942l-3.07,-1.89l-3.073,-1.879l-3.157,-1.92l-3.084,-1.867l-3.024,-1.817l-3.177,-1.897l-3.177,-1.889l-3.047,-1.801l-3.125,-1.833l-3.197,-1.867l-3.14,-1.822l-3.143,-1.814l-3.151,-1.806l-3.157,-1.799l-3.239,-1.835l-3.168,-1.788l-3.178,-1.778l-3.253,-1.813l-3.12,-1.728l-3.203,-1.76l-3.277,-1.793l-3.211,-1.746l-3.287,-1.777l-3.226,-1.736l-3.168,-1.692l-3.307,-1.755l-3.312,-1.749l-3.187,-1.674l-3.269,-1.703l-3.332,-1.729l-3.273,-1.687l-3.35,-1.716l-3.288,-1.678l-3.232,-1.635l-3.371,-1.696l-3.371,-1.688l-3.248,-1.616l-3.336,-1.646l-3.396,-1.67l-3.399,-1.66l-3.34,-1.624l-3.293,-1.589l-3.425,-1.642l-3.428,-1.636l-3.373,-1.6l-3.376,-1.591l-3.387,-1.586l-3.395,-1.581l-3.402,-1.573l-3.476,-1.598l-3.414,-1.562l-3.424,-1.554l-3.486,-1.575l-3.436,-1.543l-3.448,-1.539l-3.512,-1.556l-3.451,-1.524l-3.47,-1.519l-3.472,-1.512l-3.481,-1.505l-3.544,-1.525l-3.493,-1.493l-3.559,-1.512l-3.506,-1.482l-3.515,-1.474l-3.573,-1.492l-3.528,-1.463l-3.536,-1.457l-3.543,-1.451l-3.555,-1.446l-3.613,-1.461l-3.614,-1.454l-3.512,-1.404l-3.585,-1.421l-3.694,-1.457l-3.586,-1.409l-3.551,-1.383l-3.663,-1.417l-3.662,-1.41l-3.616,-1.384l-3.628,-1.379l-3.636,-1.373l-3.696,-1.386l-3.645,-1.361l-3.658,-1.354l-3.716,-1.369l-3.666,-1.342l-3.726,-1.355l-3.684,-1.333l-3.694,-1.325l-3.74,-1.336l-3.707,-1.314l-3.71,-1.308l-3.718,-1.301l-3.783,-1.315l-3.775,-1.306l-3.738,-1.284l-3.745,-1.279l-3.754,-1.272l-3.765,-1.268l-3.817,-1.277l-3.816,-1.27l-3.781,-1.25l-3.789,-1.244l-3.797,-1.238l-3.855,-1.248l-3.851,-1.241l-3.813,-1.221l-3.82,-1.214l-3.833,-1.21l-3.889,-1.219l-3.881,-1.211l-3.805,-1.178l-3.912,-1.202l-3.9,-1.194l-3.834,-1.163l-3.922,-1.182l-3.928,-1.177l-3.892,-1.158l-3.942,-1.166l-3.906,-1.148l-3.915,-1.141l-3.958,-1.148l-3.928,-1.131l-3.937,-1.125l-3.98,-1.13l-3.984,-1.125l-3.957,-1.109l-3.965,-1.104l-3.968,-1.097l-4.015,-1.101l-4.019,-1.097l-3.989,-1.081l-4.001,-1.077l-4.004,-1.07l-4.045,-1.072l-4.055,-1.07l-4.024,-1.054l-4.07,-1.058l-4.033,-1.042l-4.043,-1.036l-4.085,-1.041l-4.061,-1.027l-4.105,-1.031l-4.1,-1.023l-4.077,-1.011l-4.085,-1.005l-4.088,-0.998l-4.139,-1.004l-4.136,-0.996l-4.108,-0.983l-4.122,-0.979l-4.162,-0.981l-4.13,-0.968l-4.172,-0.969l-4.171,-0.964l-4.125,-0.945l-4.197,-0.954l-4.194,-0.948l-4.169,-0.935l-4.212,-0.938l-4.214,-0.933l-4.194,-0.921l-4.197,-0.915l-4.201,-0.908l-4.248,-0.912l-4.248,-0.906l-4.226,-0.895l-4.263,-0.895l-4.235,-0.884l-4.249,-0.879l-4.308,-0.885l-4.255,-0.869l-4.269,-0.864l-4.295,-0.864l-4.278,-0.853l-4.318,-0.855l-4.282,-0.842l-4.302,-0.838l-4.361,-0.844l-4.307,-0.829l-4.322,-0.823l-4.345,-0.823l-4.331,-0.813l-4.369,-0.814l-4.364,-0.807l-4.347,-0.798l-4.384,-0.798l-4.355,-0.788l-4.375,-0.784l-4.404,-0.783l-4.407,-0.778l-4.404,-0.772l-4.395,-0.764l-4.403,-0.76l-4.431,-0.757l-4.435,-0.753l-4.419,-0.745l-4.43,-0.739l-4.458,-0.739l-4.458,-0.733l-4.445,-0.725l-4.478,-0.724l-4.478,-0.719l-4.464,-0.711l-4.471,-0.706l-4.501,-0.704l-4.501,-0.7l-4.49,-0.691l-4.521,-0.691l-4.521,-0.686l-4.505,-0.677l-4.536,-0.676l-4.519,-0.668l-4.531,-0.664l-4.574,-0.664l-4.556,-0.658l-4.542,-0.649l-4.552,-0.646l-4.56,-0.64l-4.586,-0.639l-4.589,-0.634l-4.595,-0.629l-4.597,-0.624l-4.588,-0.618l-4.596,-0.613l-4.622,-0.611l-4.622,-0.607l-4.614,-0.6l-4.639,-0.597l-4.638,-0.593l-4.632,-0.586l-4.657,-0.584l-4.638,-0.577l-4.674,-0.575l-4.668,-0.571l-4.663,-0.564l-4.683,-0.562l-4.69,-0.557l-4.676,-0.551l-4.692,-0.547l-4.723,-0.546l-4.71,-0.539l-4.7,-0.534l-4.71,-0.529l-4.732,-0.527l-4.735,-0.523l-4.728,-0.516l-4.75,-0.514l-4.753,-0.51l-4.744,-0.504l-4.767,-0.501l-4.768,-0.497l-4.776,-0.492l-4.764,-0.487l-4.781,-0.483l-4.807,-0.482l-4.793,-0.476l-4.791,-0.47l-4.798,-0.467l-4.818,-0.463l-4.82,-0.46l-4.813,-0.454l-4.838,-0.451l-4.838,-0.447l-4.843,-0.443l-4.836,-0.439l-4.86,-0.435l-4.854,-0.43l-4.858,-0.426l-4.873,-0.424l-4.88,-0.419l-4.878,-0.415l-4.877,-0.41l-4.898,-0.407l-4.895,-0.404l-4.895,-0.398l-4.913,-0.396l-4.913,-0.391l-4.914,-0.387l-4.931,-0.384l-4.928,-0.38l-4.93,-0.375l-4.95,-0.373l-4.946,-0.369l-4.955,-0.364l-4.96,-0.362l-4.953,-0.356l-4.973,-0.353l-4.977,-0.351l-4.98,-0.346l-4.974,-0.341l-4.998,-0.339l-4.99,-0.335l-5.001,-0.331l-5.007,-0.327l-5.017,-0.325l-5.018,-0.32l-5.014,-0.316l-5.033,-0.313l-5.034,-0.31l-5.042,-0.306l-5.043,-0.303l-5.044,-0.298l-5.057,-0.296l-5.06,-0.292l-5.068,-0.288l-5.068,-0.285l-5.069,-0.281l-5.077,-0.278l-5.099,-0.275l-5.087,-0.271l-5.094,-0.268l-5.102,-0.264l-5.109,-0.261l-5.112,-0.258l-5.114,-0.254l-5.126,-0.251l-5.127,-0.247l-5.136,-0.245l-5.136,-0.241l-5.14,-0.237l-5.151,-0.234l-5.154,-0.232l-5.162,-0.228l-5.161,-0.224l-5.165,-0.222l-5.178,-0.218l-5.179,-0.215l-5.187,-0.212l-5.188,-0.209l-5.19,-0.205l-5.205,-0.203l-5.21,-0.199l-5.198,-0.197l-5.215,-0.193l-5.229,-0.19l-5.222,-0.187l-5.223,-0.184l-5.239,-0.181l-5.239,-0.178l-5.245,-0.175l-5.249,-0.172l-5.25,-0.169l-5.264,-0.166l-5.27,-0.164l-5.258,-0.16l-5.281,-0.157l-5.275,-0.155l-5.285,-0.151l-5.292,-0.149l-5.285,-0.146l-5.308,-0.143l-5.301,-0.14l-5.303,-0.137l-5.314,-0.135l-5.322,-0.132l-5.326,-0.129l-5.325,-0.126l-5.329,-0.124l-5.34,-0.121l-5.341,-0.118l-5.35,-0.115l-5.349,-0.113l-5.333,-0.11l-10.747,-0.213l-10.748,-0.202l-10.766,-0.191l-10.784,-0.181l-10.8,-0.172l-10.824,-0.161l-10.835,-0.151l-10.86,-0.142l-10.877,-0.132l-10.894,-0.122l-10.911,-0.114l-10.935,-0.104l-10.946,-0.094l-10.971,-0.086l-10.986,-0.077l-11.004,-0.068l-11.022,-0.059l-11.039,-0.051l-11.056,-0.042l-11.072,-0.034l-11.098,-0.026l-11.107,-0.018l-11.131,-0.01l-11.141,-0.002l-11.165,0.006l-11.176,0.013l-11.199,0.021l-11.21,0.028l-11.233,0.035l-11.25,0.042l-11.261,0.049l-11.284,0.056l-11.294,0.063l-11.318,0.069l-11.335,0.076l-11.346,0.082l-11.362,0.089l-11.385,0.094l-11.395,0.101l-11.413,0.106l-11.43,0.112l-11.446,0.118l-11.463,0.123l-11.481,0.128l-11.496,0.134l-11.507,0.139l-11.53,0.144l-11.538,0.148l-11.558,0.154l-11.575,0.158l-11.59,0.162l-11.605,0.167l-11.617,0.171l-11.642,0.175l-11.65,0.18l-11.666,0.183l-11.675,0.186l-11.702,0.191l-11.71,0.194l-11.726,0.197l-11.731,0.2l-23.534,0.411l-23.589,0.421l-23.647,0.432l-23.7,0.442l-23.759,0.45l-23.818,0.457l-23.87,0.463l-23.932,0.469l-48.029,0.951l-48.239,0.959l-0.006,0l-48.438,0.96l-0.013,0.001l-24.294,0.478l-0.015,0l-24.34,0.475l-0.018,0.001l-24.388,0.471l-0.023,0l-24.443,0.467l-0.025,0l-24.482,0.461l-0.029,0l-24.523,0.454l-0.034,0.001l-24.578,0.445l-0.037,0.001l-24.612,0.437l-0.03,0l-12.334,0.215l-0.021,0.001l-12.338,0.212l-0.022,0l-12.353,0.209l-0.022,0.001l-12.36,0.206l-0.023,0.001l-12.369,0.203l-0.026,0.001l-12.385,0.2l-0.026,0l-12.392,0.197l-0.026,0.001l-12.4,0.194l-0.029,0l-12.417,0.19l-0.029,0.001l-12.424,0.186l-0.028,0.001l-12.433,0.182l-0.03,0.001l-12.475,0.179l-0.083,0.001l-5.32,0.072l-0.119,0.002l-5.767,0.07l-0.102,0.001l-6.182,0.069l-0.085,0.001l-6.592,0.067l-0.074,0.001l-6.998,0.066l-0.065,0.001l-7.392,0.064l-0.059,0l-7.785,0.063l-0.05,0.001l-8.181,0.061l-0.047,0.001l-8.563,0.06l-0.041,0l-8.931,0.059l-0.038,0.001l-9.307,0.057l-0.034,0.001l-9.669,0.056l-0.033,0l-10.031,0.055l-0.027,0l-10.372,0.054l-0.027,0l-10.728,0.053l-0.025,0l-11.059,0.051l-0.033,0l-23.098,0.099l-0.039,0l-24.369,0.094l-0.035,0l-25.583,0.089l-0.031,0l-26.74,0.085l-0.028,0l-27.847,0.079l-0.025,0l-28.896,0.074l-0.023,0l-29.886,0.07l-0.02,0l-30.834,0.065l-0.019,0l-31.708,0.061l-0.018,0l-32.545,0.055l-0.017,0l-33.311,0.051l-0.016,0.001l-34.04,0.046l-0.015,0l-34.696,0.042l-0.014,0l-35.309,0.038l-0.013,0l-35.863,0.033l-0.012,0l-36.359,0.029l-0.012,0l-36.804,0.024l-0.011,0l-37.183,0.021l-0.011,0l-37.525,0.016l-0.011,0l-37.796,0.011l-0.01,0l-38.022,0.008l-0.01,0l-38.189,0.003l-0.01,0l-38.298,0l-0.01,0l-38.357,-0.005l-0.01,0l-38.349,-0.009l-0.01,0l-38.305,-0.013l-0.01,0l-38.189,-0.016l-0.01,0l-38.021,-0.021l-0.009,0l-37.809,-0.025l-0.01,0l-37.525,-0.028l-0.01,0l-37.197,-0.032l-0.01,0l-36.817,-0.036l-0.011,0l-36.364,-0.039l-0.011,0l-35.876,-0.043l-0.012,0l-35.322,-0.047l-0.011,0l-34.709,-0.051l-0.013,0l-34.052,-0.054l-0.013,0l-33.331,-0.057l-0.014,0l-32.565,-0.061l-0.014,0l-31.734,-0.064l-0.015,0l-30.844,-0.068l-0.018,0l-29.911,-0.071l-0.018,0l-28.92,-0.075l-0.02,0l-27.863,-0.077l-0.022,0l-26.763,-0.081l-0.024,0l-25.613,-0.084l-0.027,-0.001l-24.39,-0.087l-0.031,0l-23.123,-0.09l-0.035,-0.001l-21.807,-0.093l-0.041,0l-20.427,-0.097l-0.048,0l-18.988,-0.1l-0.042,0l-8.951,-0.051l-0.032,0l-8.574,-0.052l-0.035,0l-8.184,-0.052l-0.039,-0.001l-7.794,-0.053l-0.044,0l-7.406,-0.054l-0.05,-0.001l-6.995,-0.054l-0.056,-0.001l-6.593,-0.056l-0.065,0l-6.182,-0.057l-0.078,0l-5.762,-0.058l-0.088,-0.001l-192.154,-2.095l4.075,-373.737l192.022,2.093l5.513,0.055l5.968,0.055l6.413,0.054l6.836,0.053l7.264,0.054l7.67,0.052l8.073,0.052l8.474,0.051l8.839,0.05l18.853,0.099l20.292,0.096l21.692,0.093l23.024,0.09l24.301,0.087l25.535,0.084l26.694,0.08l27.8,0.078l28.862,0.074l29.858,0.071l30.796,0.068l31.688,0.064l32.522,0.061l33.29,0.057l34.015,0.054l34.673,0.05l35.287,0.047l35.842,0.043l36.332,0.04l36.786,0.036l37.166,0.032l37.494,0.028l37.78,0.024l37.991,0.021l38.16,0.017l38.276,0.012l38.32,0.009l38.327,0.005l38.269,0.001l38.159,-0.004l37.99,-0.007l37.764,-0.012l37.492,-0.016l37.15,-0.02l36.768,-0.025l36.323,-0.029l35.824,-0.033l35.269,-0.037l34.654,-0.042l33.995,-0.047l33.263,-0.051l32.495,-0.056l31.652,-0.06l30.773,-0.065l29.821,-0.069l28.823,-0.074l27.767,-0.079l26.652,-0.084l25.484,-0.089l24.256,-0.093l22.988,-0.099l10.972,-0.05l10.649,-0.053l10.29,-0.053l9.941,-0.055l9.569,-0.055l9.199,-0.058l8.813,-0.058l8.431,-0.059l8.035,-0.061l7.621,-0.061l7.205,-0.063l6.788,-0.064l6.351,-0.065l5.901,-0.066l5.438,-0.066l5.018,-0.068l12.303,-0.177l12.343,-0.181l12.338,-0.185l12.331,-0.189l12.319,-0.193l12.315,-0.196l12.307,-0.199l12.295,-0.202l12.291,-0.205l12.284,-0.209l12.271,-0.21l12.256,-0.214l24.513,-0.435l24.471,-0.444l24.429,-0.452l24.401,-0.459l24.37,-0.465l24.326,-0.47l24.291,-0.474l24.251,-0.477l48.409,-0.96l48.245,-0.959l0.009,-0.001l48.07,-0.951l0.018,0l23.982,-0.47l0.016,0l23.926,-0.465l0.021,0l23.887,-0.459l0.025,-0.001l23.839,-0.451l0.028,0l23.793,-0.444l0.033,0l23.753,-0.434l0.038,-0.001l23.705,-0.423l0.041,-0.001l23.645,-0.413l0.034,0l11.818,-0.202l0.024,0l11.799,-0.199l0.025,0l11.785,-0.195l0.027,-0.001l11.778,-0.191l0.026,-0.001l11.758,-0.188l0.03,0l11.753,-0.185l0.028,0l11.739,-0.181l0.031,0l11.732,-0.177l0.03,0l11.711,-0.173l0.034,0l11.706,-0.169l0.033,0l11.692,-0.164l0.035,0l11.678,-0.16l0.034,0l11.665,-0.155l0.037,-0.001l11.652,-0.15l0.039,0l11.645,-0.146l0.038,0l11.624,-0.14l0.04,-0.001l11.619,-0.135l0.042,0l11.605,-0.13l0.041,-0.001l11.591,-0.124l0.044,-0.001l11.578,-0.119l0.044,0l11.564,-0.113l0.045,-0.001l11.551,-0.107l0.047,-0.001l11.538,-0.102l0.048,0l11.531,-0.096l0.05,0l11.51,-0.09l0.05,0l11.497,-0.083l0.051,-0.001l11.491,-0.077l0.053,0l11.478,-0.07l0.054,-0.001l11.456,-0.063l0.054,0l11.451,-0.057l0.057,-0.001l11.43,-0.05l0.056,0l11.424,-0.043l0.06,0l11.41,-0.036l0.059,0l11.39,-0.028l0.061,0l11.383,-0.021l0.062,0l11.363,-0.014l0.063,0l11.358,-0.006l0.065,0l11.336,0.003Z" style="fill:rgb(20,169,12);fill-opacity:0.698039;"/>
            </g>
            <g transform="matrix(0.348131,0,0,0.444444,-5987.22,20.1839)">
                <path d="M18969.8,1655.89l37.953,-98.827l14.089,0l40.448,98.827l-14.898,0l-11.528,-29.931l-41.324,0l-10.853,29.931l-13.887,0ZM18998.3,1615.31l33.504,0l-10.314,-27.37c-3.146,-8.314 -5.483,-15.145 -7.011,-20.493c-1.258,6.337 -3.033,12.629 -5.325,18.875l-10.854,28.988Z" style="fill:black;fill-opacity:0.9;fill-rule:nonzero;"/>
            </g>
        </g>
    </g>
</svg>
