<?xml version="1.0" standalone="no"?>
<!DOCTYPE svg PUBLIC "-//W3C//DTD SVG 1.1//EN" "http://www.w3.org/Graphics/SVG/1.1/DTD/svg11.dtd">
<svg width="100%" height="100%" viewBox="0 0 3678 2305" version="1.1" xmlns="http://www.w3.org/2000/svg" xmlns:xlink="http://www.w3.org/1999/xlink" xml:space="preserve" style="fill-rule:evenodd;clip-rule:evenodd;stroke-linejoin:round;stroke-miterlimit:1.41421;">
    <g transform="matrix(1,0,0,1,-41432,-20)">
        <g id="parking-8" transform="matrix(2.87248,0,0,2.25,41432.7,20.4531)">
            <g transform="matrix(2.08676,0,0,5.15206,-116.151,-2349.03)">
                <g transform="matrix(0.516355,0,0,0.342776,217.275,407.725)">
                    <rect x="676.757" y="269.252" width="4.487" height="305.495" style="fill:black;"/>
                </g>
                <g transform="matrix(0.516355,0,0,0.342776,167.974,407.725)">
                    <rect x="676.756" y="269.252" width="4.487" height="305.495" style="fill:black;"/>
                </g>
                <g transform="matrix(-2.3627e-16,-0.975331,1.46923,-1.56845e-16,-273.988,1214.63)">
                    <rect x="678.386" y="270.211" width="1.228" height="303.577" style="fill:black;"/>
                </g>
                <g transform="matrix(0.516355,0,0,0.342776,118.674,407.725)">
                    <rect x="676.756" y="269.252" width="4.487" height="305.495" style="fill:black;"/>
                </g>
                <g transform="matrix(0.516355,0,0,0.342776,69.3729,407.725)">
                    <rect x="676.757" y="269.252" width="4.487" height="305.495" style="fill:black;"/>
                </g>
                <g transform="matrix(0.516355,0,0,0.342776,20.0721,407.725)">
                    <rect x="676.756" y="269.252" width="4.487" height="305.495" style="fill:black;"/>
                </g>
                <g transform="matrix(0.516355,0,0,0.342776,-29.2287,407.725)">
                    <rect x="676.756" y="269.252" width="4.487" height="305.495" style="fill:black;"/>
                </g>
                <g transform="matrix(0.516355,0,0,0.342776,-78.5295,407.725)">
                    <rect x="676.756" y="269.252" width="4.487" height="305.495" style="fill:black;"/>
                </g>
                <g transform="matrix(0.516355,0,0,0.342776,-127.83,407.725)">
                    <rect x="676.756" y="269.252" width="4.487" height="305.495" style="fill:black;"/>
                </g>
                <g transform="matrix(0.516355,0,0,0.342776,-177.131,407.725)">
                    <rect x="676.757" y="269.252" width="4.487" height="305.495" style="fill:black;"/>
                </g>
                <g transform="matrix(0.516355,0,0,0.342776,-226.432,407.725)">
                    <rect x="676.756" y="269.252" width="4.487" height="305.495" style="fill:black;"/>
                </g>
            </g>
            <g transform="matrix(0.126249,-3.77701e-17,-6.84244e-16,0.161177,71.7512,-352.475)">
                <path d="M1097.11,3478.42c0,-25.127 -20.4,-45.527 -45.527,-45.527l-91.055,0c-25.128,0 -45.528,20.4 -45.528,45.527l0,91.055c0,25.128 20.4,45.528 45.528,45.528l91.055,0c25.127,0 45.527,-20.4 45.527,-45.528l0,-91.055Z" style="fill:rgb(23,16,252);"/>
            </g>
            <g transform="matrix(0.126249,-3.77701e-17,-6.84244e-16,0.161177,221.713,-304.523)">
                <path d="M1097.11,3478.42c0,-25.127 -20.4,-45.527 -45.527,-45.527l-91.055,0c-25.128,0 -45.528,20.4 -45.528,45.527l0,91.055c0,25.128 20.4,45.528 45.528,45.528l91.055,0c25.127,0 45.527,-20.4 45.527,-45.528l0,-91.055Z" style="fill:rgb(23,16,252);"/>
            </g>
            <g transform="matrix(0.126249,-3.77701e-17,-6.84244e-16,0.161177,427.471,-71.1325)">
                <path d="M1097.11,3478.42c0,-25.127 -20.4,-45.527 -45.527,-45.527l-91.055,0c-25.128,0 -45.528,20.4 -45.528,45.527l0,91.055c0,25.128 20.4,45.528 45.528,45.528l91.055,0c25.127,0 45.527,-20.4 45.527,-45.528l0,-91.055Z" style="fill:rgb(23,16,252);"/>
            </g>
            <g transform="matrix(0.126249,-3.77701e-17,-6.84244e-16,0.161177,359.237,-215.577)">
                <path d="M1097.11,3478.42c0,-25.127 -20.4,-45.527 -45.527,-45.527l-91.055,0c-25.128,0 -45.528,20.4 -45.528,45.527l0,91.055c0,25.128 20.4,45.528 45.528,45.528l91.055,0c25.127,0 45.527,-20.4 45.527,-45.528l0,-91.055Z" style="fill:rgb(23,16,252);"/>
            </g>
            <g transform="matrix(0.093143,0,0,0.118912,291.41,-248.554)">
                <path d="M-342.662,3458.2l10.248,0.111l10.458,0.109l10.625,0.108l10.787,0.105l10.966,0.104l11.13,0.102l11.266,0.101l11.428,0.098l11.553,0.097l23.538,0.19l24.018,0.184l24.464,0.178l24.852,0.173l25.194,0.168l25.493,0.165l25.732,0.16l25.928,0.157l26.075,0.154l52.413,0.299l52.411,0.293l52.034,0.288l0.006,0l51.254,0.287l0.011,0l25.21,0.144l0.011,0.001l24.876,0.145l0.014,0l24.5,0.146l0.017,0l24.05,0.149l0.021,0l23.572,0.15l0.024,0.001l23.05,0.153l0.029,0l22.457,0.156l0.033,0l21.834,0.16l0.039,0l21.167,0.163l0.045,0.001l20.47,0.168l0.103,0l4.349,0.041l0.157,0.001l4.374,0.048l0.154,0.002l4.375,0.056l0.157,0.002l4.376,0.062l0.156,0.003l4.375,0.069l0.154,0.003l4.373,0.077l0.154,0.003l4.375,0.084l0.156,0.003l4.376,0.092l0.157,0.004l4.373,0.098l0.152,0.004l4.369,0.106l0.148,0.004l4.388,0.113l0.16,0.004l4.377,0.121l0.156,0.004l4.375,0.128l0.154,0.005l4.373,0.135l0.154,0.005l4.373,0.142l0.154,0.005l4.368,0.149l0.142,0.005l4.388,0.157l0.165,0.006l4.378,0.164l0.151,0.006l4.372,0.171l0.153,0.006l4.367,0.178l0.14,0.005l4.386,0.186l0.165,0.007l4.378,0.193l0.154,0.006l4.372,0.2l0.151,0.007l4.364,0.206l0.138,0.007l4.387,0.214l0.169,0.008l4.379,0.222l0.148,0.007l4.362,0.228l0.136,0.007l4.386,0.235l0.168,0.01l4.379,0.242l0.151,0.009l4.371,0.249l0.154,0.009l4.36,0.256l0.129,0.008l4.385,0.263l0.172,0.011l4.38,0.271l0.148,0.01l4.359,0.277l0.129,0.008l4.386,0.285l0.174,0.011l4.381,0.293l0.148,0.01l4.367,0.299l0.148,0.01l4.358,0.305l0.13,0.009l4.385,0.314l0.171,0.012l4.378,0.321l0.148,0.011l4.368,0.327l0.151,0.011l4.357,0.333l0.125,0.01l4.383,0.341l0.173,0.014l4.379,0.349l0.148,0.011l4.368,0.356l0.15,0.012l4.355,0.361l0.12,0.01l4.382,0.369l0.174,0.015l4.38,0.377l0.148,0.013l4.366,0.383l0.148,0.013l4.353,0.388l0.121,0.011l4.381,0.397l0.174,0.016l4.379,0.405l0.148,0.014l4.366,0.411l0.147,0.014l4.366,0.417l0.147,0.015l4.367,0.424l0.147,0.015l4.365,0.431l0.144,0.015l4.349,0.436l0.114,0.012l4.38,0.445l0.176,0.018l4.383,0.454l0.149,0.016l4.364,0.459l0.142,0.015l4.363,0.466l0.147,0.016l4.366,0.473l0.146,0.016l4.363,0.479l0.142,0.016l4.363,0.486l0.146,0.017l4.365,0.493l0.143,0.017l4.365,0.5l0.146,0.017l4.363,0.507l0.141,0.017l4.363,0.513l0.146,0.018l4.382,0.523l0.179,0.021l4.348,0.528l0.108,0.013l4.343,0.532l0.141,0.018l4.361,0.541l0.143,0.017l4.363,0.549l0.143,0.018l4.362,0.554l0.143,0.019l4.382,0.564l0.182,0.023l4.346,0.569l0.102,0.013l4.34,0.572l0.14,0.019l4.382,0.585l0.186,0.025l4.347,0.588l0.1,0.014l4.338,0.592l0.138,0.019l4.382,0.605l0.189,0.027l4.346,0.609l0.093,0.013l4.36,0.615l0.187,0.027l4.344,0.622l0.093,0.013l4.359,0.629l0.188,0.027l4.346,0.636l0.093,0.014l4.359,0.642l0.187,0.028l4.367,0.653l0.14,0.021l4.321,0.652l0.092,0.014l4.359,0.662l0.187,0.029l4.368,0.673l0.139,0.021l4.319,0.672l0.088,0.014l4.357,0.682l0.188,0.03l4.368,0.693l0.136,0.022l4.344,0.695l0.142,0.023l4.342,0.703l0.134,0.021l4.342,0.709l0.138,0.023l4.344,0.716l0.139,0.023l4.342,0.722l0.136,0.023l4.341,0.728l0.136,0.023l4.341,0.736l0.136,0.023l4.342,0.742l0.138,0.024l4.342,0.748l0.136,0.024l4.341,0.755l0.135,0.024l4.368,0.766l0.191,0.034l4.324,0.768l0.078,0.014l4.313,0.77l0.138,0.024l4.369,0.787l0.192,0.035l4.324,0.787l0.076,0.014l4.341,0.795l0.194,0.036l4.326,0.801l0.075,0.014l4.338,0.807l0.19,0.036l4.324,0.814l0.077,0.014l4.339,0.821l0.194,0.037l4.353,0.832l0.132,0.026l4.294,0.828l0.076,0.014l4.338,0.84l0.192,0.037l4.352,0.853l0.132,0.026l4.324,0.853l0.134,0.026l4.324,0.86l0.132,0.026l4.322,0.866l0.131,0.027l4.322,0.872l0.132,0.026l4.322,0.879l0.132,0.027l4.321,0.885l0.132,0.027l4.353,0.898l0.195,0.041l4.307,0.898l0.068,0.014l4.289,0.898l0.131,0.027l4.353,0.918l0.193,0.041l4.306,0.917l0.066,0.014l4.288,0.917l0.131,0.028l4.354,0.937l0.197,0.043l4.338,0.943l0.129,0.028l4.271,0.936l0.064,0.014l4.32,0.949l0.195,0.043l4.338,0.963l0.128,0.029l4.305,0.961l0.13,0.03l4.305,0.968l0.128,0.029l4.303,0.974l0.128,0.029l4.305,0.981l0.13,0.03l4.303,0.987l0.125,0.029l4.303,0.994l0.13,0.03l4.304,1l0.127,0.029l4.302,1.006l0.125,0.029l4.338,1.021l0.201,0.048l4.288,1.019l0.053,0.012l4.302,1.025l0.199,0.048l4.288,1.031l0.054,0.013l4.303,1.038l0.199,0.048l4.287,1.044l0.051,0.012l4.301,1.05l0.2,0.049l4.323,1.066l0.124,0.03l4.287,1.063l0.126,0.031l4.286,1.069l0.124,0.031l4.286,1.075l0.126,0.032l4.286,1.081l0.124,0.032l4.285,1.087l0.123,0.031l4.285,1.094l0.123,0.031l4.324,1.11l0.203,0.052l4.27,1.107l0.043,0.011l4.285,1.112l0.203,0.053l4.269,1.118l0.043,0.012l4.284,1.124l0.204,0.054l4.269,1.131l0.042,0.011l4.283,1.136l0.201,0.054l4.309,1.154l0.123,0.033l4.269,1.149l0.122,0.033l4.268,1.155l0.12,0.033l4.268,1.161l0.122,0.034l4.268,1.167l0.119,0.033l4.268,1.174l0.122,0.033l4.309,1.192l0.204,0.056l4.252,1.186l0.035,0.01l4.225,1.18l0.121,0.034l4.31,1.21l0.204,0.058l4.293,1.215l0.117,0.034l4.209,1.198l0.038,0.011l4.267,1.216l0.203,0.058l4.291,1.234l0.117,0.034l4.251,1.228l0.121,0.035l4.252,1.235l0.118,0.034l4.251,1.241l0.118,0.035l4.249,1.246l0.117,0.034l4.292,1.265l0.205,0.061l4.235,1.258l0.032,0.01l4.25,1.264l0.205,0.062l4.234,1.27l0.029,0.009l4.249,1.276l0.205,0.062l4.278,1.296l0.115,0.035l4.19,1.275l0.03,0.009l4.248,1.294l0.204,0.063l4.278,1.314l0.117,0.036l4.234,1.307l0.115,0.035l4.277,1.326l0.205,0.064l4.218,1.318l0.024,0.008l4.187,1.31l0.115,0.036l4.278,1.345l0.208,0.065l4.217,1.336l0.021,0.007l4.232,1.342l0.208,0.066l4.263,1.363l0.112,0.036l4.216,1.353l0.114,0.037l4.217,1.36l0.114,0.037l4.217,1.366l0.114,0.037l4.215,1.371l0.112,0.036l4.215,1.377l0.114,0.038l4.262,1.398l0.206,0.068l4.201,1.389l0.022,0.007l4.215,1.396l0.204,0.067l4.199,1.401l0.018,0.006l4.215,1.406l0.206,0.069l4.248,1.429l0.113,0.038l4.2,1.419l0.11,0.037l4.199,1.424l0.111,0.038l4.198,1.43l0.111,0.037l4.248,1.453l0.21,0.072l4.183,1.442l0.011,0.003l4.149,1.43l0.11,0.038l4.248,1.471l0.21,0.073l4.232,1.476l0.108,0.038l4.183,1.464l0.11,0.039l4.182,1.47l0.107,0.038l4.183,1.476l0.112,0.04l4.183,1.482l0.107,0.038l4.181,1.487l0.107,0.039l4.183,1.493l0.111,0.04l4.232,1.517l0.205,0.074l4.174,1.508l4.183,1.511l0.21,0.076l4.217,1.535l0.107,0.039l4.165,1.522l0.106,0.039l4.166,1.527l0.106,0.039l4.166,1.534l0.109,0.04l4.165,1.539l0.104,0.038l4.216,1.564l0.212,0.079l4.153,1.552l4.164,1.556l0.207,0.077l4.202,1.582l0.108,0.04l4.098,1.548l4.163,1.573l0.209,0.079l4.255,1.619l0.21,0.081l4.133,1.584l4.095,1.569l0.105,0.04l4.202,1.616l0.211,0.082l4.131,1.6l4.147,1.606l0.211,0.082l4.186,1.634l0.103,0.04l4.132,1.618l0.103,0.04l4.133,1.623l0.104,0.042l4.132,1.629l0.1,0.039l4.133,1.635l0.106,0.042l4.187,1.662l0.208,0.083l4.112,1.644l4.128,1.65l0.211,0.084l4.171,1.679l0.101,0.041l4.118,1.663l0.104,0.042l4.115,1.668l0.097,0.039l4.115,1.673l0.104,0.043l4.117,1.679l0.101,0.041l4.17,1.707l0.21,0.087l4.095,1.687l4.11,1.694l0.21,0.086l4.155,1.724l0.101,0.042l4.101,1.707l0.101,0.042l4.098,1.712l0.097,0.04l4.099,1.717l0.103,0.043l4.156,1.747l0.208,0.088l4.078,1.726l4.093,1.731l0.211,0.089l4.14,1.764l0.098,0.041l4.083,1.745l0.098,0.042l4.083,1.75l0.098,0.042l4.084,1.756l0.1,0.042l4.083,1.761l0.095,0.041l4.139,1.791l0.212,0.092l4.06,1.768l4.072,1.773l0.21,0.092l4.125,1.807l0.097,0.043l4.068,1.788l0.097,0.043l4.067,1.793l0.097,0.043l4.125,1.824l0.211,0.094l4.04,1.798l4.056,1.805l0.215,0.096l4.111,1.841l0.092,0.042l3.981,1.788l4.055,1.821l0.212,0.095l4.168,1.884l0.212,0.096l4.023,1.83l4.039,1.836l0.214,0.098l4.022,1.84l4.035,1.845l0.212,0.097l4.097,1.886l0.097,0.045l4.035,1.862l0.089,0.041l4.033,1.867l0.093,0.043l4.095,1.901l0.213,0.1l4.006,1.872l4.019,1.876l0.209,0.098l4.08,1.917l0.097,0.046l4.02,1.894l0.088,0.042l4.018,1.899l0.092,0.043l4.019,1.905l0.092,0.044l4.079,1.938l0.21,0.1l3.991,1.909l4.004,1.914l0.206,0.099l4.064,1.954l0.096,0.046l4.004,1.932l0.087,0.042l4.001,1.935l0.087,0.042l4.064,1.971l0.215,0.104l3.973,1.939l3.986,1.944l0.211,0.103l4.047,1.986l0.087,0.042l3.987,1.962l0.09,0.045l3.989,1.967l0.091,0.045l3.987,1.972l0.086,0.043l4.048,2.008l0.211,0.105l3.951,1.972l3.967,1.977l0.216,0.108l4.034,2.025l0.086,0.043l3.97,1.997l0.086,0.043l4.033,2.034l0.212,0.108l3.938,1.998l3.951,2.004l0.209,0.106l4.018,2.049l0.089,0.046l3.957,2.024l0.085,0.044l3.955,2.027l0.085,0.044l3.954,2.033l0.085,0.044l4.019,2.071l0.213,0.11l3.921,2.034l3.935,2.038l0.209,0.109l4.001,2.086l0.085,0.044l3.937,2.057l0.081,0.042l4.004,2.097l0.218,0.115l3.903,2.058l3.915,2.06l0.21,0.111l3.988,2.113l0.088,0.047l3.924,2.084l0.08,0.042l3.92,2.087l0.081,0.043l3.923,2.093l0.088,0.047l3.989,2.134l0.21,0.113l3.973,2.138l0.083,0.045l3.907,2.108l0.08,0.043l3.907,2.113l0.083,0.045l3.908,2.119l0.084,0.045l3.906,2.123l0.079,0.043l3.973,2.163l0.215,0.118l3.957,2.169l0.08,0.043l3.891,2.138l0.083,0.046l3.891,2.142l0.079,0.044l3.892,2.148l0.082,0.045l3.958,2.19l0.212,0.117l3.941,2.194l0.078,0.044l3.877,2.162l0.082,0.046l3.876,2.168l0.079,0.044l3.874,2.171l0.078,0.044l3.876,2.177l0.082,0.046l3.941,2.219l0.209,0.118l3.926,2.224l0.082,0.046l3.863,2.193l0.081,0.047l3.859,2.196l0.074,0.042l3.857,2.2l0.078,0.044l3.928,2.245l0.217,0.124l3.912,2.25l0.073,0.042l3.844,2.216l0.081,0.046l3.846,2.222l0.077,0.044l3.842,2.225l0.073,0.042l3.912,2.27l0.217,0.126l3.798,2.216l3.81,2.22l0.213,0.125l3.967,2.326l0.218,0.128l3.781,2.23l3.726,2.194l0.076,0.045l3.896,2.298l0.21,0.124l3.882,2.305l0.08,0.047l3.814,2.269l0.072,0.043l3.812,2.272l0.075,0.046l3.883,2.319l0.214,0.128l3.764,2.262l3.778,2.267l0.214,0.129l3.866,2.333l0.071,0.043l3.867,2.339l0.214,0.13l3.752,2.282l3.764,2.287l0.211,0.128l3.851,2.353l0.075,0.046l3.781,2.315l0.072,0.044l3.779,2.319l0.071,0.043l3.782,2.325l0.074,0.046l3.852,2.372l0.211,0.131l3.836,2.377l0.075,0.046l3.766,2.339l0.071,0.044l3.764,2.342l0.071,0.044l3.836,2.392l0.215,0.135l3.716,2.33l3.729,2.335l0.211,0.132l3.82,2.406l0.071,0.044l3.82,2.41l0.212,0.135l3.702,2.349l3.715,2.354l0.208,0.132l3.805,2.425l0.073,0.046l3.736,2.386l0.07,0.044l3.734,2.389l0.07,0.045l3.803,2.438l0.209,0.134l3.791,2.444l0.072,0.047l3.721,2.404l0.069,0.045l3.72,2.407l0.069,0.045l3.789,2.457l0.209,0.136l3.668,2.393l3.683,2.398l0.209,0.137l3.774,2.471l0.069,0.045l3.704,2.43l0.068,0.045l3.775,2.482l0.209,0.138l3.761,2.487l0.072,0.047l3.689,2.444l0.064,0.043l3.686,2.446l0.065,0.043l3.688,2.453l0.072,0.048l3.761,2.506l0.209,0.14l3.63,2.432l3.72,2.487l0.358,0.241l3.693,2.494l3.56,2.399l0.064,0.043l3.744,2.528l0.213,0.144l3.73,2.533l0.064,0.044l3.655,2.487l0.064,0.043l3.657,2.492l0.067,0.046l3.73,2.547l0.21,0.143l3.715,2.552l0.067,0.046l3.642,2.506l0.063,0.043l3.64,2.51l0.063,0.043l3.716,2.566l0.213,0.147l3.585,2.49l3.598,2.494l0.21,0.146l3.772,2.629l0.211,0.147l3.567,2.502l3.585,2.507l0.213,0.15l3.566,2.509l3.655,2.565l0.361,0.255l3.625,2.57l3.491,2.469l0.065,0.046l3.686,2.611l0.21,0.15l3.668,2.614l0.058,0.041l3.67,2.62l0.214,0.153l3.535,2.539l3.549,2.542l0.214,0.154l3.654,2.633l0.058,0.042l3.579,2.582l0.061,0.045l3.58,2.588l0.061,0.044l3.655,2.647l0.21,0.153l3.638,2.65l0.058,0.042l3.563,2.6l0.061,0.044l3.64,2.661l0.211,0.154l3.502,2.575l3.517,2.579l0.211,0.154l3.624,2.674l0.061,0.045l3.623,2.677l0.208,0.154l3.488,2.592l3.505,2.597l0.211,0.157l3.608,2.691l0.057,0.042l3.531,2.637l0.057,0.043l3.609,2.699l0.211,0.158l3.594,2.704l0.056,0.043l3.518,2.651l0.06,0.045l3.518,2.655l0.056,0.043l3.593,2.716l0.208,0.157l3.579,2.722l0.059,0.045l3.501,2.667l0.053,0.04l3.503,2.672l0.063,0.048l3.503,2.676l0.052,0.041l3.578,2.737l0.211,0.162l3.562,2.742l0.053,0.041l3.563,2.746l0.211,0.163l3.425,2.656l3.439,2.66l0.211,0.163l3.548,2.76l0.052,0.041l3.47,2.703l0.055,0.043l3.548,2.768l0.208,0.163l3.534,2.774l0.058,0.046l3.457,2.717l0.051,0.04l3.455,2.72l0.055,0.043l3.533,2.786l0.208,0.164l3.519,2.791l0.054,0.043l3.442,2.733l0.054,0.043l3.44,2.737l0.051,0.041l3.519,2.802l0.21,0.169l3.376,2.705l3.465,2.769l0.362,0.291l3.436,2.772l3.373,2.715l0.208,0.168l3.361,2.722l3.454,2.787l0.362,0.294l3.42,2.79l3.358,2.73l0.207,0.17l3.473,2.84l0.05,0.041l3.395,2.781l0.053,0.043l3.395,2.785l0.05,0.042l3.473,2.852l0.207,0.171l3.458,2.857l0.05,0.042l3.38,2.797l0.052,0.043l3.458,2.866l0.205,0.17l3.441,2.869l0.05,0.041l3.365,2.809l0.052,0.044l3.365,2.813l0.049,0.041l3.442,2.881l0.205,0.172l3.428,2.886l0.052,0.044l3.348,2.824l0.046,0.039l3.349,2.827l0.052,0.044l3.428,2.899l0.204,0.173l3.414,2.903l0.051,0.044l3.334,2.84l0.046,0.039l3.41,2.909l0.205,0.175l3.398,2.915l0.051,0.044l3.319,2.852l0.045,0.039l3.319,2.855l0.051,0.044l3.397,2.926l0.202,0.175l3.251,2.817l3.344,2.889l0.359,0.311l3.311,2.89l3.249,2.827l0.204,0.178l3.367,2.947l0.048,0.042l3.289,2.882l0.047,0.042l3.367,2.955l0.205,0.18l3.216,2.839l3.31,2.913l0.361,0.319l3.283,2.919l3.217,2.851l0.201,0.179l3.336,2.974l0.047,0.042l3.259,2.909l0.047,0.042l3.257,2.912l0.044,0.039l3.336,2.986l0.204,0.183l3.323,2.992l0.046,0.041l3.322,2.995l0.201,0.182l3.17,2.874l3.185,2.879l0.204,0.185l3.385,3.078l0.202,0.183l3.156,2.887l3.172,2.891l0.201,0.184l3.29,3.017l0.043,0.039l3.213,2.95l0.045,0.042l3.292,3.026l0.201,0.185l3.275,3.029l0.043,0.039l3.198,2.961l0.045,0.042l3.277,3.038l0.201,0.187l3.259,3.039l0.04,0.037l3.183,2.972l0.047,0.044l3.183,2.976l0.04,0.037l3.259,3.051l0.201,0.188l3.245,3.056l0.042,0.04l3.168,2.986l0.045,0.043l3.246,3.064l0.198,0.187l3.23,3.068l0.045,0.042l3.151,2.996l0.039,0.038l3.231,3.075l0.204,0.194l3.076,2.946l3.09,2.949l0.201,0.192l3.295,3.163l0.2,0.193l3.202,3.091l0.041,0.04l3.121,3.018l0.042,0.04l3.12,3.02l0.038,0.037l3.121,3.024l0.041,0.04l3.201,3.106l0.2,0.195l3.186,3.11l0.04,0.04l3.186,3.112l0.197,0.194l3.17,3.116l0.041,0.04l3.09,3.042l0.038,0.038l3.092,3.046l0.043,0.043l3.17,3.128l0.194,0.192l3.154,3.13l0.041,0.04l3.076,3.058l0.04,0.039l3.156,3.14l0.197,0.196l3.14,3.143l0.04,0.04l3.061,3.067l0.037,0.037l3.139,3.15l0.197,0.197l3.125,3.155l0.04,0.039l3.046,3.078l0.037,0.037l3.045,3.081l0.04,0.04l3.125,3.165l0.197,0.2l3.109,3.168l0.037,0.037l3.109,3.172l0.196,0.201l2.954,3.03l2.969,3.035l0.198,0.204l3.176,3.266l0.196,0.202l3.078,3.185l0.034,0.035l3,3.108l0.039,0.04l3.001,3.112l0.036,0.037l3.001,3.116l0.038,0.04l3.08,3.201l0.193,0.201l3.143,3.287l0.196,0.205l2.908,3.059l2.923,3.063l0.195,0.206l3.05,3.215l0.035,0.038l3.049,3.218l0.193,0.204l3.035,3.223l0.038,0.039l2.955,3.142l0.033,0.035l2.955,3.145l0.037,0.04l3.035,3.234l0.193,0.205l3.017,3.235l0.033,0.035l3.02,3.241l0.197,0.212l3.005,3.245l0.033,0.034l2.924,3.161l0.035,0.037l2.924,3.164l0.032,0.035l3.004,3.254l0.194,0.211l2.991,3.259l0.034,0.037l2.909,3.174l0.032,0.035l2.99,3.265l0.193,0.212l2.975,3.268l0.031,0.035l2.974,3.271l0.191,0.211l2.819,3.12l2.833,3.122l0.189,0.209l3.038,3.369l0.193,0.216l2.944,3.286l0.032,0.034l2.865,3.201l0.033,0.037l2.865,3.204l0.031,0.035l2.943,3.295l0.191,0.214l2.928,3.298l0.031,0.035l2.85,3.213l0.033,0.038l2.93,3.306l0.19,0.216l2.914,3.309l0.03,0.035l2.834,3.221l0.031,0.035l2.913,3.316l0.19,0.217l2.899,3.319l0.03,0.035l2.82,3.233l0.033,0.037l2.899,3.326l0.187,0.216l2.884,3.329l0.032,0.038l2.884,3.333l0.187,0.217l2.724,3.168l2.82,3.266l0.351,0.408l2.788,3.267l2.722,3.175l0.189,0.221l2.854,3.35l0.029,0.035l2.774,3.259l0.027,0.032l2.854,3.357l0.191,0.224l2.839,3.361l0.027,0.032l2.838,3.362l0.188,0.224l2.68,3.195l2.773,3.293l0.345,0.411l2.743,3.294l2.68,3.205l0.187,0.225l2.808,3.379l0.027,0.032l2.808,3.382l0.187,0.227l2.794,3.386l0.026,0.032l2.714,3.293l0.029,0.034l2.793,3.393l0.185,0.225l2.634,3.22l2.728,3.32l0.343,0.419l2.698,3.322l2.634,3.229l0.184,0.226l2.842,3.505l0.184,0.228l2.605,3.234l2.698,3.335l0.342,0.425l2.666,3.335l2.602,3.239l0.184,0.23l2.733,3.425l0.028,0.034l2.654,3.33l0.026,0.032l2.732,3.43l0.183,0.231l2.718,3.433l0.025,0.032l2.718,3.438l0.185,0.234l2.703,3.441l0.023,0.029l2.623,3.342l0.025,0.032l2.703,3.448l0.185,0.235l2.687,3.45l0.023,0.03l2.609,3.352l0.027,0.034l2.688,3.456l0.18,0.232l2.671,3.458l0.025,0.032l2.594,3.361l0.025,0.031l2.672,3.466l0.182,0.236l2.657,3.468l0.025,0.032l2.657,3.472l0.181,0.237l2.497,3.284l2.59,3.389l0.337,0.443l2.561,3.394l2.499,3.294l0.18,0.238l2.705,3.59l0.178,0.237l2.468,3.298l2.482,3.3l0.178,0.237l2.691,3.602l0.181,0.243l2.597,3.499l0.02,0.027l2.518,3.396l0.024,0.031l2.52,3.401l0.023,0.032l2.597,3.508l0.177,0.24l2.66,3.616l0.178,0.244l2.423,3.317l2.436,3.318l0.177,0.241l2.644,3.627l0.178,0.245l2.408,3.324l2.501,3.435l0.332,0.459l2.47,3.437l2.407,3.331l0.175,0.244l2.536,3.534l0.021,0.029l2.536,3.537l0.175,0.245l2.522,3.541l0.023,0.032l2.445,3.436l0.02,0.029l2.522,3.546l0.174,0.246l2.506,3.549l0.021,0.029l2.506,3.553l0.174,0.247l2.491,3.555l0.02,0.029l2.415,3.449l0.02,0.029l2.491,3.561l0.174,0.248l2.476,3.565l0.02,0.028l2.4,3.457l0.02,0.029l2.476,3.57l0.173,0.25l2.461,3.573l0.02,0.028l2.46,3.575l0.171,0.249l2.446,3.579l0.022,0.031l2.37,3.47l0.018,0.026l2.445,3.583l0.172,0.253l2.431,3.587l0.019,0.029l2.432,3.591l0.171,0.253l2.415,3.593l0.018,0.026l2.34,3.482l0.019,0.028l2.34,3.485l0.017,0.026l2.492,3.714l0.321,0.483l2.32,3.505l2.259,3.393l0.168,0.254l2.386,3.609l0.018,0.029l2.386,3.612l0.168,0.255l2.37,3.615l0.019,0.028l2.295,3.504l0.017,0.025l2.37,3.62l0.167,0.256l2.355,3.624l0.019,0.028l2.356,3.627l0.168,0.26l2.34,3.628l0.015,0.024l2.265,3.514l0.018,0.028l2.341,3.635l0.166,0.259l2.325,3.637l0.018,0.028l2.326,3.641l0.165,0.26l2.309,3.641l0.015,0.023l2.235,3.527l0.018,0.028l2.311,3.65l0.166,0.263l2.295,3.651l0.014,0.023l2.22,3.534l0.016,0.025l2.296,3.657l0.165,0.265l2.354,3.777l0.162,0.261l2.265,3.662l0.017,0.027l2.191,3.545l0.014,0.023l2.191,3.548l0.017,0.027l2.265,3.67l0.161,0.262l2.322,3.791l0.163,0.266l2.097,3.449l2.185,3.572l0.307,0.505l2.152,3.568l2.095,3.453l0.162,0.269l2.293,3.807l0.159,0.265l2.067,3.457l2.154,3.582l0.306,0.512l2.124,3.584l2.066,3.464l0.158,0.267l2.261,3.819l0.158,0.268l2.175,3.702l0.016,0.027l2.102,3.581l0.013,0.023l2.174,3.705l0.157,0.269l2.159,3.708l0.014,0.025l2.088,3.588l0.014,0.025l2.158,3.712l0.155,0.268l2.144,3.716l0.016,0.027l2.144,3.72l0.156,0.272l2.128,3.72l0.013,0.022l2.128,3.723l0.155,0.273l2.114,3.726l0.014,0.025l2.042,3.603l0.013,0.023l2.113,3.73l0.154,0.274l2.099,3.734l0.014,0.024l2.098,3.737l0.154,0.275l2.083,3.738l0.012,0.022l2.084,3.741l0.153,0.276l1.933,3.501l2.02,3.631l0.294,0.533l2.122,3.876l0.011,0.019l1.983,3.623l0.013,0.024l1.983,3.626l0.011,0.02l2.053,3.755l0.152,0.28l2.108,3.888l0.151,0.279l2.022,3.761l0.011,0.019l1.953,3.633l0.011,0.022l2.024,3.767l0.151,0.282l2.008,3.768l0.01,0.02l1.938,3.64l0.012,0.021l2.007,3.773l0.149,0.282l2.061,3.904l0.147,0.281l1.978,3.778l0.012,0.023l1.909,3.65l0.011,0.02l1.976,3.78l0.147,0.282l1.962,3.785l0.012,0.023l1.895,3.657l0.009,0.019l1.962,3.789l0.147,0.284l2.015,3.924l0.145,0.283l1.931,3.794l0.011,0.021l1.865,3.664l0.009,0.019l1.932,3.799l0.145,0.286l1.917,3.801l0.009,0.019l1.85,3.67l0.011,0.021l1.916,3.806l0.143,0.285l1.969,3.942l0.143,0.289l1.887,3.81l0.009,0.019l1.82,3.678l0.009,0.018l1.887,3.815l0.142,0.29l1.872,3.817l0.009,0.019l1.871,3.819l0.141,0.289l1.856,3.822l0.01,0.02l1.79,3.688l0.008,0.017l1.856,3.825l0.141,0.292l1.907,3.965l0.139,0.29l1.825,3.831l0.009,0.018l1.761,3.696l0.009,0.018l1.826,3.836l0.139,0.294l1.811,3.837l0.007,0.016l1.746,3.701l0.008,0.019l1.876,3.979l0.267,0.571l1.72,3.714l1.67,3.577l0.136,0.294l1.781,3.848l0.008,0.018l1.78,3.85l0.136,0.295l1.829,3.992l0.135,0.295l1.628,3.586l1.642,3.588l0.133,0.293l1.814,3.999l0.134,0.298l1.735,3.862l0.008,0.016l1.734,3.862l0.132,0.295l1.72,3.866l0.009,0.02l1.657,3.728l0.007,0.015l1.719,3.868l0.131,0.297l1.705,3.872l0.009,0.019l1.705,3.875l0.13,0.298l1.689,3.874l0.006,0.016l1.69,3.878l0.13,0.3l1.675,3.881l0.007,0.017l1.674,3.882l0.127,0.297l1.66,3.884l0.008,0.019l1.659,3.888l0.128,0.3l1.526,3.61l1.601,3.755l0.248,0.586l1.688,4.036l0.007,0.017l1.57,3.752l0.007,0.017l1.628,3.896l0.125,0.3l1.613,3.898l0.007,0.017l1.614,3.901l0.125,0.303l1.598,3.902l0.006,0.015l1.598,3.904l0.124,0.304l1.583,3.907l0.007,0.017l1.583,3.908l0.122,0.304l1.568,3.91l0.007,0.016l1.51,3.768l0.006,0.015l1.567,3.913l0.121,0.304l1.553,3.916l0.006,0.016l1.554,3.92l0.12,0.306l1.596,4.067l0.12,0.308l1.522,3.921l0.005,0.013l1.465,3.777l0.006,0.016l1.523,3.927l0.118,0.306l1.507,3.928l0.006,0.016l1.508,3.931l0.117,0.307l1.492,3.931l0.004,0.012l1.436,3.786l0.006,0.016l1.493,3.936l0.116,0.308l1.532,4.086l0.117,0.313l1.462,3.939l0.004,0.01l1.461,3.941l0.116,0.314l1.446,3.944l0.005,0.012l1.391,3.795l0.005,0.012l1.446,3.947l0.115,0.314l1.485,4.099l0.112,0.31l1.312,3.658l1.379,3.81l0.219,0.611l1.454,4.103l0.005,0.014l1.348,3.806l0.004,0.014l1.401,3.958l0.111,0.313l1.385,3.96l0.005,0.013l1.385,3.961l0.109,0.312l1.371,3.964l0.005,0.014l1.37,3.966l0.108,0.313l1.355,3.966l0.005,0.013l1.355,3.97l0.107,0.315l1.34,3.97l0.004,0.012l1.289,3.819l0.004,0.011l1.391,4.127l0.208,0.624l1.261,3.827l1.225,3.676l0.105,0.319l1.361,4.133l0.104,0.318l1.294,3.98l0.004,0.011l1.244,3.829l0.004,0.011l1.294,3.984l0.103,0.319l1.329,4.139l0.101,0.318l1.264,3.988l0.004,0.012l1.216,3.836l0.003,0.01l1.264,3.992l0.101,0.32l1.297,4.147l0.099,0.319l1.234,3.994l0.003,0.011l1.186,3.841l0.004,0.012l1.234,3.998l0.098,0.32l1.265,4.154l0.097,0.321l1.204,4.002l0.003,0.011l1.16,3.856l1.203,4.003l0.096,0.322l1.188,4.006l0.003,0.012l1.188,4.008l0.095,0.322l1.219,4.166l0.094,0.324l1.16,4.019l1.115,3.863l1.158,4.015l0.093,0.326l1.145,4.022l1.142,4.017l0.092,0.327l1.13,4.026l1.127,4.02l0.09,0.326l1.156,4.181l0.09,0.327l1.099,4.029l1.053,3.866l0.003,0.009l1.097,4.028l0.088,0.327l1.084,4.034l1.081,4.029l0.087,0.328l1.069,4.039l1.066,4.033l0.086,0.327l1.093,4.194l0.085,0.329l1.038,4.042l0.997,3.886l1.036,4.038l0.083,0.327l1.023,4.049l1.021,4.042l0.082,0.328l1.046,4.204l0.081,0.33l0.992,4.05l0.953,3.893l0.99,4.048l0.08,0.33l0.976,4.052l0.975,4.05l0.08,0.333l0.998,4.215l0.078,0.331l0.945,4.057l0.909,3.898l0.945,4.057l0.077,0.334l0.966,4.22l0.075,0.33l0.916,4.064l0.914,4.059l0.074,0.331l0.901,4.07l0.863,3.904l0.899,4.063l0.073,0.333l0.92,4.229l0.071,0.334l0.87,4.073l0.869,4.068l0.07,0.332l0.855,4.078l0.853,4.071l0.069,0.333l0.839,4.074l0.806,3.918l0.872,4.24l0.134,0.662l0.775,3.911l0.79,3.914l0.131,0.665l0.826,4.25l0.761,3.921l0.793,4.081l0.064,0.334l0.778,4.088l0.777,4.083l0.063,0.334l0.793,4.25l0.062,0.337l0.687,3.758l0.731,3.924l0.122,0.667l0.762,4.26l0.731,4.089l0.06,0.336l0.716,4.093l0.688,3.931l0.717,4.094l0.058,0.338l0.729,4.26l0.057,0.337l0.687,4.101l0.685,4.096l0.056,0.335l0.671,4.104l0.671,4.1l0.055,0.337l0.655,4.103l0.655,4.1l0.054,0.338l0.64,4.107l0.64,4.104l0.053,0.34l0.65,4.272l0.05,0.337l0.61,4.109l0.585,3.942l0.61,4.108l0.05,0.34l0.618,4.277l0.049,0.339l0.579,4.113l0.579,4.11l0.047,0.339l0.564,4.117l0.564,4.113l0.046,0.34l0.549,4.116l0.548,4.115l0.045,0.34l0.534,4.12l0.533,4.118l0.043,0.338l0.54,4.287l0.042,0.341l0.503,4.123l0.482,3.953l0.503,4.121l0.041,0.341l0.508,4.291l0.039,0.342l0.473,4.125l0.472,4.123l0.039,0.341l0.457,4.129l0.457,4.126l0.037,0.342l0.442,4.127l0.442,4.128l0.036,0.342l0.444,4.299l0.035,0.342l0.411,4.13l0.395,3.964l0.411,4.132l0.034,0.342l0.412,4.302l0.032,0.342l0.381,4.134l0.381,4.134l0.031,0.343l0.365,4.137l0.366,4.135l0.03,0.342l0.364,4.308l0.029,0.343l0.335,4.139l0.321,3.97l0.336,4.139l0.027,0.341l0.333,4.311l0.026,0.343l0.304,4.143l0.305,4.142l0.024,0.342l0.29,4.144l0.289,4.143l0.024,0.343l0.285,4.315l0.022,0.343l0.259,4.145l0.248,3.977l0.259,4.146l0.021,0.343l0.254,4.318l0.019,0.342l0.229,4.15l0.228,4.15l0.019,0.342l0.213,4.15l0.213,4.15l0.017,0.343l0.206,4.323l0.016,0.342l0.183,4.152l0.182,4.152l0.015,0.343l0.167,4.154l0.161,3.985l0.174,4.325l0.026,0.684l0.142,4.327l0.132,3.985l0.137,4.157l0.01,0.343l0.127,4.328l0.01,0.342l0.106,4.159l0.107,4.159l0.008,0.342l0.092,4.183l0.001,0.047l0.322,14.997l0,0.008l0.322,15.079l0.002,0.098l0.308,15.134l0,0.007l0.308,15.19l0.002,0.097l0.293,15.245l0,0.006l0.293,15.299l0.001,0.096l0.28,15.399l0.001,0.094l0.262,15.322l0.277,15.376l0.002,0.094l0.264,15.558l0.002,0.094l0.249,15.567l0,0.005l0.248,15.575l0,0.005l0.249,15.672l0.002,0.092l0.234,15.766l0.002,0.092l0.218,15.69l0.233,15.74l0.002,0.091l0.22,15.918l0.001,0.09l0.205,15.93l0.205,15.936l0.204,15.986l0.205,16.074l0.001,0.089l0.191,16.164l0.001,0.088l0.175,16.088l0.189,16.135l0.001,0.087l0.176,16.269l0.176,16.313l0,0.087l0.162,16.362l0.16,16.367l0.161,16.451l0.001,0.086l0.146,16.5l0.146,16.503l0.147,16.548l0.146,16.632l0.001,0.084l0.131,16.678l0.132,16.68l0.131,16.724l0.132,16.805l0.001,0.083l0.117,16.85l0.116,16.851l0.117,16.893l0.117,16.973l0.001,0.082l0.102,17.016l0.103,17.015l0.102,17.056l0.102,17.097l0.102,17.174l0.001,0.081l0.175,34.427l0.176,34.541l0.175,34.709l0,0.041l0.161,34.876l0,0.041l0.146,35.002l0.146,35.124l0.146,35.28l0,0.04l0.132,35.416l0.131,35.528l0.132,35.676l0,0.039l0.117,35.764l0.262,71.901l0,0.021l0.249,72.387l0.262,72.819l0.132,36.578l0.131,36.64l0.146,36.739l0.146,36.834l0.16,36.889l0.175,37.015l0.175,37.137l0.175,37.183l0.19,37.225l0.102,18.643l0.102,18.624l0.116,18.679l0.001,0.073l0.102,18.697l0.116,18.678l0.117,18.768l0.116,18.712l0.131,18.729l0.131,18.818l0.132,18.833l0.131,18.848l0.131,18.79l0.146,18.805l0.146,18.892l0.145,18.832l0.16,18.847l0.161,18.931l0.16,18.872l0.174,18.885l0.175,18.967l0.175,18.907l0.189,18.919l0.19,19l0.189,18.939l0.204,18.949l0.204,19.03l0.204,18.967l0.218,18.976l0.218,18.985l2.523,205.857l-373.732,4.58l-2.524,-205.964l-0.001,-0.071l-0.219,-19.091l-0.22,-19.081l0,-0.071l-0.205,-19.073l-0.205,-19.029l-0.204,-19.055l-0.001,-0.071l-0.19,-19.045l-0.19,-18.998l-0.19,-19.024l-0.001,-0.072l-0.175,-19.013l-0.176,-18.965l-0.175,-18.99l-0.001,-0.072l-0.161,-18.978l-0.16,-18.929l-0.161,-18.953l-0.001,-0.072l-0.146,-18.939l-0.146,-18.889l-0.146,-18.912l-0.001,-0.072l-0.131,-18.897l-0.132,-18.846l-0.131,-18.831l-0.132,-18.815l-0.131,-18.836l-0.001,-0.072l-0.117,-18.819l-0.117,-18.766l-0.117,-18.785l0,-0.073l-0.102,-18.695l-0.117,-18.677l0,-0.072l-0.102,-18.732l-0.103,-18.695l0,-0.036l-0.19,-37.333l0,-0.035l-0.175,-37.235l-0.176,-37.133l-0.175,-37.066l0,-0.036l-0.161,-36.997l0,-0.036l-0.146,-36.886l-0.146,-36.791l0,-0.037l-0.132,-36.693l-0.131,-36.573l-0.263,-72.841l0,-0.017l-0.248,-72.38l-0.263,-71.924l0,-0.036l-0.117,-35.76l-0.131,-35.614l-0.131,-35.524l-0.132,-35.353l-0.145,-35.217l-0.146,-35.118l-0.146,-34.937l-0.16,-34.753l-0.175,-34.644l-0.176,-34.533l-0.174,-34.299l-0.102,-17.051l-0.102,-17.091l-0.102,-17.051l-0.103,-17.01l-0.101,-16.889l-0.117,-16.848l-0.116,-16.887l-0.117,-16.845l-0.116,-16.721l-0.131,-16.678l-0.131,-16.716l-0.132,-16.673l-0.13,-16.546l-0.146,-16.502l-0.146,-16.539l-0.146,-16.495l-0.145,-16.366l-0.16,-16.319l-0.16,-16.357l-0.16,-16.226l-0.174,-16.178l-0.174,-16.131l-0.19,-16.126l-0.001,-0.082l-0.174,-16.077l-0.188,-15.9l-0.203,-15.936l-0.204,-15.971l-0.205,-15.922l-0.203,-15.785l-0.216,-15.647l-0.233,-15.728l-0.001,-0.083l-0.219,-15.676l-0.231,-15.492l-0.246,-15.526l-0.248,-15.561l-0.247,-15.419l-0.26,-15.278l-0.276,-15.359l-0.002,-0.082l-0.261,-15.305l-0.274,-15.113l-0.29,-15.146l-0.29,-15.091l-0.305,-15.034l-0.304,-14.977l-0.319,-14.921l-0.32,-14.915l-0.079,-3.598l-0.094,-3.645l-0.093,-3.644l-0.097,-3.302l-0.12,-3.642l-0.131,-3.983l-0.109,-3.3l-0.133,-3.299l-0.161,-3.981l-0.147,-3.638l-0.16,-3.638l-0.16,-3.637l-0.157,-3.295l-0.187,-3.635l-0.186,-3.635l-0.2,-3.634l-0.201,-3.632l-0.193,-3.291l-0.227,-3.631l-0.248,-3.972l-0.226,-3.63l-0.218,-3.288l-0.253,-3.627l-0.254,-3.628l-0.266,-3.627l-0.267,-3.624l-0.254,-3.284l-0.293,-3.624l-0.321,-3.964l-0.294,-3.622l-0.277,-3.28l-0.32,-3.621l-0.32,-3.619l-0.334,-3.618l-0.333,-3.619l-0.314,-3.277l-0.36,-3.615l-0.394,-3.954l-0.36,-3.616l-0.338,-3.273l-0.387,-3.612l-0.386,-3.612l-0.4,-3.61l-0.4,-3.608l-0.413,-3.61l-0.414,-3.608l-0.386,-3.268l-0.44,-3.606l-0.481,-3.943l-0.44,-3.603l-0.411,-3.266l-0.466,-3.603l-0.467,-3.6l-0.48,-3.601l-0.48,-3.6l-0.493,-3.597l-0.493,-3.597l-0.506,-3.597l-0.507,-3.596l-0.471,-3.258l-0.533,-3.593l-0.583,-3.927l-0.533,-3.592l-0.496,-3.257l-0.559,-3.587l-0.56,-3.588l-0.573,-3.588l-0.574,-3.588l-0.586,-3.584l-0.586,-3.584l-0.6,-3.585l-0.6,-3.582l-0.556,-3.248l-0.626,-3.579l-0.685,-3.911l-0.627,-3.58l-0.639,-3.577l-0.581,-3.245l-0.636,-3.412l-0.06,-0.326l-0.683,-3.741l-0.605,-3.241l-0.68,-3.573l-0.68,-3.571l-0.693,-3.57l-0.757,-3.897l-0.628,-3.236l-0.687,-3.404l-0.065,-0.326l-0.675,-3.405l-0.665,-3.234l-0.801,-3.891l-0.733,-3.565l-0.747,-3.56l-0.746,-3.558l-0.76,-3.56l-0.759,-3.556l-0.702,-3.229l-0.787,-3.556l-0.858,-3.88l-0.786,-3.552l-0.8,-3.553l-0.801,-3.552l-0.738,-3.224l-0.826,-3.546l-0.902,-3.873l-0.827,-3.548l-0.763,-3.218l-0.853,-3.543l-0.853,-3.545l-0.867,-3.54l-0.945,-3.862l-0.867,-3.54l-0.799,-3.216l-0.893,-3.535l-0.894,-3.536l-0.906,-3.534l-0.989,-3.854l-0.907,-3.531l-0.836,-3.21l-0.933,-3.53l-0.934,-3.527l-0.946,-3.527l-0.947,-3.527l-0.96,-3.522l-1.047,-3.841l-0.96,-3.523l-0.885,-3.201l-0.987,-3.52l-0.987,-3.518l-1,-3.517l-1,-3.515l-1.013,-3.513l-1.105,-3.828l-1.013,-3.512l-0.935,-3.196l-1.04,-3.508l-1.04,-3.506l-1.055,-3.509l-1.147,-3.816l-1.053,-3.502l-0.973,-3.193l-1.08,-3.501l-1.176,-3.807l-1.08,-3.499l-0.998,-3.188l-1.107,-3.496l-1.204,-3.801l-1.107,-3.492l-1.022,-3.185l-1.134,-3.49l-1.234,-3.796l-1.134,-3.487l-1.046,-3.178l-1.214,-3.643l-0.098,-0.296l-1.099,-3.335l-1.071,-3.176l-1.277,-3.785l-1.174,-3.48l-1.187,-3.476l-1.188,-3.477l-1.201,-3.474l-1.201,-3.472l-1.214,-3.473l-1.215,-3.469l-1.227,-3.469l-1.334,-3.766l-1.122,-3.167l-1.203,-3.322l-0.103,-0.285l-1.297,-3.619l-1.146,-3.163l-1.268,-3.458l-1.378,-3.759l-1.268,-3.455l-1.281,-3.456l-1.282,-3.454l-1.183,-3.155l-1.308,-3.45l-1.42,-3.744l-1.31,-3.451l-1.321,-3.446l-1.322,-3.444l-1.335,-3.442l-1.449,-3.735l-1.335,-3.441l-1.234,-3.146l-1.361,-3.435l-1.363,-3.435l-1.376,-3.436l-1.491,-3.722l-1.376,-3.431l-1.389,-3.429l-1.388,-3.426l-1.403,-3.426l-1.403,-3.425l-1.415,-3.422l-1.416,-3.422l-1.43,-3.42l-1.548,-3.702l-1.31,-3.129l-1.399,-3.281l-0.114,-0.27l-1.507,-3.565l-1.455,-3.409l-1.456,-3.409l-1.471,-3.409l-1.469,-3.404l-1.483,-3.405l-1.484,-3.405l-1.496,-3.4l-1.496,-3.398l-1.511,-3.4l-1.634,-3.675l-1.51,-3.393l-1.524,-3.395l-1.523,-3.39l-1.411,-3.111l-1.619,-3.537l-0.118,-0.26l-1.604,-3.532l-1.423,-3.106l-1.564,-3.382l-1.564,-3.38l-1.646,-3.527l-0.121,-0.259l-1.504,-3.247l-1.46,-3.099l-1.721,-3.649l-1.591,-3.372l-1.604,-3.369l-1.734,-3.641l-1.605,-3.366l-1.487,-3.092l-1.631,-3.363l-1.764,-3.633l-1.631,-3.358l-1.645,-3.358l-1.645,-3.355l-1.658,-3.353l-1.791,-3.621l-1.659,-3.349l-1.538,-3.081l-1.685,-3.346l-1.82,-3.61l-1.685,-3.343l-1.699,-3.34l-1.834,-3.604l-1.699,-3.337l-1.577,-3.071l-1.726,-3.334l-1.862,-3.593l-1.725,-3.328l-1.741,-3.33l-1.876,-3.586l-1.738,-3.322l-1.617,-3.062l-1.766,-3.319l-1.905,-3.579l-1.766,-3.315l-1.779,-3.311l-1.92,-3.571l-1.781,-3.312l-1.653,-3.049l-1.807,-3.306l-1.947,-3.56l-1.947,-3.557l-1.668,-3.046l-1.769,-3.18l-0.128,-0.232l-1.897,-3.434l-1.835,-3.294l-1.834,-3.293l-1.847,-3.289l-1.848,-3.286l-1.862,-3.288l-2.002,-3.533l-1.861,-3.281l-1.876,-3.281l-1.876,-3.279l-1.886,-3.273l-1.889,-3.274l-1.903,-3.273l-2.044,-3.515l-1.902,-3.267l-1.917,-3.267l-2.059,-3.508l-1.914,-3.258l-1.786,-3.017l-2.023,-3.392l-0.131,-0.22l-1.863,-3.143l-1.89,-3.142l-0.13,-0.218l-2.024,-3.385l-1.809,-3.005l-2.05,-3.377l-0.132,-0.219l-1.892,-3.138l-1.918,-3.135l-0.13,-0.213l-2.049,-3.37l-1.838,-2.999l-1.996,-3.235l-2.144,-3.472l-2.144,-3.469l-1.997,-3.228l-1.863,-2.989l-2.023,-3.223l-2.174,-3.46l-2.024,-3.221l-2.035,-3.213l-2.187,-3.451l-2.039,-3.216l-2.05,-3.21l-2.051,-3.207l-2.064,-3.205l-2.215,-3.438l-2.066,-3.203l-2.076,-3.197l-2.078,-3.196l-2.093,-3.197l-2.242,-3.422l-2.092,-3.19l-2.106,-3.188l-2.105,-3.186l-2.205,-3.312l-0.132,-0.199l-2.038,-3.08l-1.981,-2.952l-2.285,-3.403l-2.285,-3.401l-2.133,-3.172l-2.145,-3.168l-2.145,-3.166l-2.161,-3.166l-2.311,-3.384l-2.16,-3.159l-2.174,-3.159l-2.173,-3.155l-2.187,-3.152l-2.34,-3.371l-2.187,-3.147l-2.2,-3.146l-2.354,-3.362l-2.201,-3.14l-2.214,-3.139l-2.215,-3.136l-2.228,-3.134l-2.381,-3.346l-2.226,-3.127l-2.242,-3.127l-2.243,-3.124l-2.344,-3.245l-0.133,-0.185l-2.174,-3.025l-2.201,-3.023l-0.134,-0.184l-2.342,-3.234l-2.113,-2.897l-2.372,-3.232l-0.134,-0.183l-2.356,-3.225l-2.127,-2.892l-2.296,-3.101l-2.45,-3.307l-2.453,-3.308l-2.296,-3.093l-2.152,-2.88l-2.414,-3.209l-0.132,-0.176l-2.399,-3.206l-2.168,-2.877l-2.426,-3.198l-0.132,-0.175l-2.256,-2.989l-2.284,-2.989l-0.134,-0.176l-2.427,-3.191l-2.349,-3.069l-2.35,-3.067l-2.363,-3.064l-2.521,-3.266l-2.365,-3.061l-2.378,-3.057l-2.534,-3.256l-2.377,-3.052l-2.39,-3.047l-2.55,-3.249l-2.391,-3.044l-2.403,-3.039l-2.406,-3.039l-2.419,-3.037l-2.575,-3.23l-2.417,-3.029l-2.525,-3.143l-0.132,-0.165l-2.354,-2.944l-2.379,-2.941l-0.13,-0.161l-2.524,-3.133l-2.289,-2.824l-2.552,-3.128l-0.13,-0.16l-2.381,-2.931l-2.407,-2.93l-0.13,-0.158l-2.552,-3.119l-2.473,-3.003l-2.631,-3.193l-2.473,-2.998l-2.487,-2.995l-2.487,-2.992l-2.592,-3.101l-0.13,-0.155l-2.422,-2.909l-2.45,-2.908l-0.129,-0.154l-2.593,-3.091l-2.514,-2.979l-2.513,-2.974l-2.527,-2.972l-2.687,-3.158l-2.527,-2.966l-2.636,-3.075l-0.132,-0.154l-2.461,-2.884l-2.487,-2.88l-0.129,-0.15l-2.637,-3.067l-2.555,-2.952l-2.554,-2.95l-2.569,-2.947l-2.725,-3.124l-2.569,-2.941l-2.582,-2.939l-2.742,-3.117l-2.583,-2.933l-2.594,-2.928l-2.753,-3.105l-2.597,-2.925l-2.61,-2.922l-2.768,-3.095l-2.768,-3.092l-2.608,-2.911l-2.465,-2.733l-2.734,-3.015l-0.123,-0.136l-2.718,-3.008l-2.638,-2.902l-2.637,-2.896l-2.65,-2.895l-2.81,-3.065l-2.648,-2.886l-2.664,-2.886l-2.824,-3.055l-2.824,-3.052l-2.661,-2.874l-2.676,-2.871l-2.681,-2.874l-2.69,-2.866l-2.849,-3.032l-2.85,-3.03l-2.69,-2.856l-2.706,-2.856l-2.704,-2.852l-2.816,-2.95l-0.124,-0.131l-2.801,-2.947l-2.561,-2.677l-2.732,-2.84l-2.889,-3l-2.89,-2.996l-2.891,-2.995l-2.734,-2.829l-2.584,-2.658l-2.856,-2.919l-0.123,-0.126l-2.844,-2.918l-2.76,-2.815l-2.761,-2.813l-2.771,-2.807l-2.931,-2.965l-2.932,-2.961l-2.771,-2.797l-2.788,-2.797l-2.945,-2.951l-2.786,-2.789l-2.8,-2.785l-2.957,-2.938l-2.802,-2.781l-2.814,-2.777l-2.97,-2.927l-2.973,-2.926l-2.814,-2.767l-2.828,-2.763l-2.826,-2.758l-2.839,-2.756l-3.001,-2.908l-3.001,-2.905l-2.999,-2.899l-2.839,-2.742l-2.695,-2.586l-2.969,-2.834l-0.12,-0.114l-2.952,-2.828l-2.868,-2.729l-3.026,-2.877l-2.868,-2.723l-2.881,-2.72l-3.038,-2.864l-2.882,-2.714l-2.898,-2.713l-3.052,-2.853l-3.051,-2.849l-2.899,-2.703l-2.907,-2.695l-3.065,-2.838l-2.911,-2.691l-2.921,-2.686l-3.079,-2.827l-2.925,-2.681l-3.037,-2.769l-0.112,-0.102l-3.023,-2.765l-2.778,-2.525l-3.05,-2.757l-0.114,-0.104l-3.039,-2.755l-2.949,-2.659l-2.947,-2.653l-2.964,-2.653l-3.121,-2.79l-3.119,-2.784l-2.963,-2.642l-3.08,-2.73l-0.111,-0.098l-2.906,-2.584l-2.935,-2.583l-0.113,-0.099l-3.078,-2.717l-2.989,-2.624l-3.146,-2.757l-2.99,-2.616l-3.105,-2.702l-0.109,-0.095l-2.938,-2.565l-2.965,-2.56l-0.105,-0.092l-3.107,-2.692l-3.017,-2.6l-3.174,-2.73l-3.174,-2.727l-3.015,-2.586l-3.034,-2.588l-3.188,-2.715l-3.029,-2.577l-3.042,-2.573l-3.202,-2.703l-3.201,-2.7l-3.043,-2.562l-3.06,-2.561l-3.213,-2.686l-3.212,-2.682l-3.06,-2.55l-3.071,-2.545l-3.227,-2.67l-3.071,-2.538l-3.085,-2.535l-3.241,-2.658l-3.24,-2.654l-3.085,-2.524l-3.202,-2.604l-0.104,-0.085l-3.034,-2.474l-3.06,-2.47l-0.101,-0.081l-3.2,-2.592l-3.217,-2.588l-0.103,-0.084l-3.049,-2.46l-3.076,-2.458l-0.102,-0.082l-3.213,-2.575l-3.125,-2.489l-3.282,-2.611l-3.278,-2.604l-3.125,-2.478l-3.139,-2.475l-3.296,-2.594l-3.292,-2.588l-3.136,-2.461l-3.153,-2.46l-3.31,-2.578l-3.153,-2.454l-3.269,-2.527l-0.097,-0.076l-3.254,-2.523l-3.167,-2.441l-3.168,-2.439l-3.182,-2.435l-3.33,-2.545l-3.331,-2.54l-3.333,-2.539l-3.179,-2.417l-3.196,-2.416l-3.344,-2.525l-3.345,-2.52l-3.193,-2.402l-3.206,-2.399l-3.362,-2.51l-3.207,-2.391l-3.324,-2.464l-0.09,-0.067l-3.313,-2.462l-3.221,-2.379l-3.218,-2.374l-3.34,-2.449l-0.092,-0.068l-3.325,-2.444l-3.233,-2.363l-3.385,-2.47l-3.236,-2.357l-3.246,-2.351l-3.396,-2.455l-3.4,-2.453l-3.246,-2.34l-3.365,-2.41l-0.091,-0.065l-3.35,-2.406l-3.26,-2.327l-3.265,-2.327l-3.272,-2.318l-3.527,-2.495l-0.089,-0.063l-3.217,-2.281l-3.245,-2.277l-0.088,-0.062l-3.379,-2.378l-3.391,-2.372l-0.085,-0.06l-3.381,-2.37l-3.142,-2.19l-3.409,-2.362l-0.084,-0.058l-3.391,-2.356l-3.3,-2.279l-3.451,-2.378l-3.447,-2.372l-3.301,-2.267l-3.314,-2.263l-3.461,-2.359l-3.464,-2.357l-3.315,-2.251l-3.329,-2.247l-3.582,-2.414l-0.078,-0.053l-3.273,-2.21l-3.302,-2.208l-0.081,-0.054l-3.437,-2.304l-3.34,-2.225l-3.485,-2.317l-3.491,-2.318l-3.485,-2.308l-3.34,-2.209l-3.357,-2.207l-3.499,-2.295l-3.358,-2.199l-3.476,-2.264l-0.072,-0.046l-3.462,-2.259l-3.372,-2.187l-3.511,-2.273l-3.509,-2.266l-3.368,-2.172l-3.387,-2.171l-3.525,-2.256l-3.522,-2.248l-3.383,-2.156l-3.505,-2.221l-0.069,-0.043l-3.487,-2.213l-3.397,-2.144l-3.398,-2.139l-3.517,-2.202l-0.071,-0.045l-3.5,-2.195l-3.408,-2.124l-3.552,-2.211l-3.549,-2.204l-3.408,-2.112l-3.423,-2.108l-3.563,-2.19l-3.566,-2.188l-3.562,-2.181l-3.423,-2.091l-3.544,-2.153l-0.064,-0.039l-3.526,-2.145l-3.436,-2.078l-3.438,-2.075l-3.557,-2.134l-0.066,-0.04l-3.542,-2.129l-3.448,-2.059l-3.589,-2.14l-3.586,-2.133l-3.448,-2.047l-3.466,-2.045l-3.708,-2.183l-0.064,-0.038l-3.553,-2.095l-3.321,-1.948l-3.586,-2.089l-0.063,-0.037l-3.567,-2.082l-3.477,-2.017l-3.616,-2.093l-3.609,-2.085l-3.612,-2.081l-3.477,-2l-3.487,-1.993l-3.63,-2.07l-3.626,-2.064l-3.618,-2.054l-3.492,-1.978l-3.505,-1.973l-3.636,-2.043l-3.64,-2.039l-3.635,-2.033l-3.635,-2.028l-3.506,-1.952l-3.516,-1.945l-3.649,-2.014l-3.649,-2.009l-3.649,-2.004l-3.517,-1.928l-3.53,-1.923l-3.663,-1.99l-3.659,-1.984l-3.662,-1.98l-3.662,-1.976l-3.531,-1.9l-3.541,-1.895l-3.672,-1.959l-3.68,-1.959l-3.671,-1.95l-3.542,-1.876l-3.667,-1.93l-0.045,-0.024l-3.645,-1.921l-3.555,-1.863l-3.689,-1.927l-3.561,-1.856l-3.679,-1.906l-0.039,-0.021l-3.661,-1.898l-3.571,-1.841l-3.698,-1.901l-3.699,-1.896l-3.694,-1.89l-3.571,-1.822l-3.693,-1.872l-0.037,-0.019l-3.675,-1.865l-3.585,-1.808l-3.712,-1.867l-3.582,-1.798l-3.701,-1.845l-0.039,-0.02l-3.692,-1.842l-3.6,-1.785l-3.721,-1.841l-3.717,-1.834l-3.72,-1.83l-3.6,-1.767l-3.718,-1.813l-0.033,-0.016l-3.7,-1.805l-3.61,-1.751l-3.738,-1.808l-3.73,-1.799l-3.611,-1.736l-3.734,-1.785l-0.027,-0.013l-3.716,-1.777l-3.625,-1.723l-3.743,-1.774l-3.747,-1.771l-3.743,-1.764l-3.622,-1.702l-3.746,-1.749l-0.028,-0.013l-3.728,-1.742l-3.636,-1.688l-3.761,-1.741l-3.755,-1.734l-3.633,-1.671l-3.758,-1.719l-0.028,-0.012l-3.741,-1.713l-3.755,-1.706l-0.025,-0.012l-3.742,-1.702l-3.533,-1.597l-3.771,-1.693l-0.021,-0.009l-3.876,-1.741l-3.649,-1.635l-3.767,-1.676l-0.023,-0.01l-3.756,-1.672l-3.664,-1.621l-3.778,-1.665l-3.777,-1.661l-3.665,-1.606l-3.784,-1.647l-0.018,-0.008l-3.769,-1.641l-3.678,-1.592l-3.791,-1.635l-3.789,-1.629l-3.791,-1.624l-3.79,-1.619l-3.677,-1.566l-3.796,-1.606l-0.013,-0.005l-3.783,-1.601l-3.69,-1.551l-3.801,-1.593l-3.804,-1.588l-3.799,-1.581l-3.69,-1.531l-3.81,-1.57l-0.01,-0.004l-3.796,-1.565l-3.704,-1.516l-3.811,-1.554l-3.815,-1.551l-3.814,-1.546l-3.81,-1.539l-3.703,-1.49l-3.822,-1.528l-0.007,-0.003l-3.81,-1.523l-3.715,-1.475l-3.823,-1.512l-3.825,-1.508l-3.823,-1.502l-3.825,-1.497l-3.716,-1.45l-3.834,-1.485l-0.004,-0.002l-3.82,-1.48l-3.728,-1.434l-3.941,-1.51l-0.002,-0.001l-3.82,-1.464l-3.624,-1.378l-3.849,-1.455l-0.001,0l-3.937,-1.487l-3.729,-1.403l-3.848,-1.439l-3.831,-1.431l-3.743,-1.388l-3.846,-1.421l-3.844,-1.415l-3.846,-1.411l-3.846,-1.405l-3.742,-1.362l-3.855,-1.393l-3.845,-1.388l-3.757,-1.347l-3.855,-1.377l-3.859,-1.373l-3.854,-1.365l-3.854,-1.361l-3.856,-1.355l-3.856,-1.35l-3.755,-1.31l-3.768,-1.304l-3.967,-1.368l-3.853,-1.327l-3.767,-1.289l-3.867,-1.317l-3.867,-1.311l-3.864,-1.305l-3.769,-1.268l-3.878,-1.294l-3.866,-1.289l-3.877,-1.283l-3.861,-1.277l-3.784,-1.242l-3.877,-1.266l-3.877,-1.262l-3.874,-1.255l-3.874,-1.249l-3.876,-1.244l-3.783,-1.21l-3.888,-1.232l-3.873,-1.228l-3.795,-1.192l-3.978,-1.245l-3.873,-1.21l-3.797,-1.177l-3.884,-1.199l-3.796,-1.166l-3.899,-1.188l-3.972,-1.209l-3.796,-1.15l-3.898,-1.171l-3.883,-1.165l-3.895,-1.159l-3.881,-1.153l-3.811,-1.123l-3.897,-1.143l-3.894,-1.137l-3.892,-1.13l-3.894,-1.125l-3.812,-1.097l-3.906,-1.113l-3.977,-1.132l-3.81,-1.079l-3.82,-1.073l-3.99,-1.114l-3.893,-1.086l-3.82,-1.056l-3.904,-1.074l-3.905,-1.068l-3.904,-1.062l-3.903,-1.057l-3.901,-1.05l-3.822,-1.024l-3.918,-1.039l-3.901,-1.034l-3.914,-1.027l-3.901,-1.022l-3.914,-1.016l-3.9,-1.01l-3.835,-0.984l-3.914,-0.999l-3.913,-0.993l-3.912,-0.987l-3.91,-0.981l-3.911,-0.975l-3.911,-0.97l-3.836,-0.945l-3.925,-0.958l-3.91,-0.952l-3.922,-0.946l-3.907,-0.94l-3.924,-0.935l-3.907,-0.928l-3.849,-0.906l-3.924,-0.917l-3.918,-0.911l-3.921,-0.905l-3.92,-0.899l-3.918,-0.893l-3.92,-0.888l-3.917,-0.881l-3.917,-0.875l-3.852,-0.855l-3.931,-0.864l-3.984,-0.872l-3.85,-0.838l-3.863,-0.831l-3.993,-0.854l-3.916,-0.834l-3.866,-0.815l-3.991,-0.835l-3.913,-0.816l-3.864,-0.797l-3.927,-0.805l-3.927,-0.798l-3.927,-0.793l-3.926,-0.786l-3.924,-0.78l-3.923,-0.775l-3.867,-0.757l-3.937,-0.762l-3.983,-0.768l-3.864,-0.739l-3.935,-0.744l-3.923,-0.738l-3.939,-0.733l-3.92,-0.727l-3.934,-0.72l-3.922,-0.714l-3.875,-0.698l-3.989,-0.712l-3.922,-0.697l-3.879,-0.68l-3.933,-0.684l-3.931,-0.678l-3.93,-0.672l-3.933,-0.666l-3.932,-0.66l-3.93,-0.654l-3.927,-0.647l-3.932,-0.642l-3.929,-0.636l-3.927,-0.629l-3.88,-0.615l-3.943,-0.618l-3.978,-0.618l-3.878,-0.598l-3.94,-0.599l-3.973,-0.599l-3.879,-0.58l-3.94,-0.581l-3.923,-0.574l-3.939,-0.568l-3.926,-0.562l-3.939,-0.556l-3.922,-0.55l-3.893,-0.537l-3.982,-0.544l-3.92,-0.531l-3.894,-0.519l-3.977,-0.525l-3.922,-0.513l-3.895,-0.501l-3.933,-0.5l-3.933,-0.494l-3.936,-0.489l-3.971,-0.486l-3.918,-0.476l-3.894,-0.465l-3.933,-0.463l-3.932,-0.457l-3.929,-0.45l-3.93,-0.445l-3.932,-0.438l-3.931,-0.432l-3.927,-0.426l-3.931,-0.419l-3.929,-0.414l-3.894,-0.403l-3.943,-0.401l-3.96,-0.398l-3.928,-0.388l-3.926,-0.382l-3.925,-0.375l-3.925,-0.37l-3.899,-0.36l-3.94,-0.357l-3.951,-0.353l-3.925,-0.344l-3.897,-0.336l-3.94,-0.331l-3.948,-0.328l-3.922,-0.319l-3.899,-0.31l-3.936,-0.307l-3.944,-0.301l-3.922,-0.294l-3.9,-0.286l-3.934,-0.28l-3.941,-0.276l-3.923,-0.269l-3.898,-0.26l-3.93,-0.256l-3.942,-0.25l-3.898,-0.242l-3.933,-0.236l-3.937,-0.231l-3.915,-0.224l-3.901,-0.216l-3.929,-0.211l-3.935,-0.205l-3.902,-0.197l-3.927,-0.192l-3.93,-0.186l-3.915,-0.178l-3.901,-0.172l-3.929,-0.166l-3.926,-0.16l-3.914,-0.153l-3.903,-0.146l-3.927,-0.14l-3.923,-0.134l-3.912,-0.128l-3.911,-0.12l-3.909,-0.115l-3.904,-0.107l-3.926,-0.101l-3.92,-0.096l-3.911,-0.088l-3.907,-0.082l-3.908,-0.075l-3.912,-0.069l-3.909,-0.063l-3.906,-0.055l-3.909,-0.05l-3.908,-0.043l-3.96,-0.037l-20.249,-0.166l-21.043,-0.162l-21.726,-0.159l-22.363,-0.155l-22.972,-0.153l-23.505,-0.15l-23.994,-0.148l-24.453,-0.146l-24.839,-0.145l-25.178,-0.144l-51.229,-0.287l-52.031,-0.288l-0.003,0l-52.437,-0.293l-0.014,0l-52.458,-0.3l-0.016,0l-26.121,-0.154l-0.014,0l-25.974,-0.157l-0.016,0l-25.788,-0.161l-0.02,0l-25.556,-0.165l-0.023,0l-25.268,-0.169l-0.026,0l-24.936,-0.174l-0.03,0l-24.56,-0.179l-0.033,0l-24.126,-0.185l-0.039,0l-23.643,-0.191l-0.031,0l-11.634,-0.097l-0.023,-0.001l-11.499,-0.099l-0.025,0l-11.34,-0.101l-0.025,0l-11.21,-0.103l-0.028,0l-11.051,-0.105l-0.029,0l-10.879,-0.107l-0.031,0l-10.719,-0.108l-0.03,-0.001l-10.561,-0.11l-0.038,0l-10.359,-0.113l-0.037,0l-197.033,-2.215l4.201,-373.736l196.979,2.214Z" style="fill:rgb(20,169,12);fill-opacity:0.698039;"/>
            </g>
        </g>
    </g>
</svg>
