<?xml version="1.0" standalone="no"?>
<!DOCTYPE svg PUBLIC "-//W3C//DTD SVG 1.1//EN" "http://www.w3.org/Graphics/SVG/1.1/DTD/svg11.dtd">
<svg width="100%" height="100%" viewBox="0 0 3678 2305" version="1.1" xmlns="http://www.w3.org/2000/svg" xmlns:xlink="http://www.w3.org/1999/xlink" xml:space="preserve" style="fill-rule:evenodd;clip-rule:evenodd;stroke-linejoin:round;stroke-miterlimit:1;">
    <g transform="matrix(1,0,0,1,-37257,-20)">
        <g id="parking-7" transform="matrix(2.87248,0,0,2.25,37257.4,20.4531)">
            <g transform="matrix(2.08676,0,0,5.15206,-116.151,-2349.03)">
                <g transform="matrix(0.516355,0,0,0.342776,217.275,407.725)">
                    <rect x="676.757" y="269.252" width="4.487" height="305.495" style="fill:black;"/>
                </g>
                <g transform="matrix(0.516355,0,0,0.342776,167.974,407.725)">
                    <rect x="676.756" y="269.252" width="4.487" height="305.495" style="fill:black;"/>
                </g>
                <g transform="matrix(-2.3627e-16,-0.975331,1.46923,-1.56845e-16,-273.988,1214.63)">
                    <rect x="678.386" y="270.211" width="1.228" height="303.577" style="fill:black;"/>
                </g>
                <g transform="matrix(0.516355,0,0,0.342776,118.674,407.725)">
                    <rect x="676.756" y="269.252" width="4.487" height="305.495" style="fill:black;"/>
                </g>
                <g transform="matrix(0.516355,0,0,0.342776,69.3729,407.725)">
                    <rect x="676.757" y="269.252" width="4.487" height="305.495" style="fill:black;"/>
                </g>
                <g transform="matrix(0.516355,0,0,0.342776,20.0721,407.725)">
                    <rect x="676.756" y="269.252" width="4.487" height="305.495" style="fill:black;"/>
                </g>
                <g transform="matrix(0.516355,0,0,0.342776,-29.2287,407.725)">
                    <rect x="676.757" y="269.252" width="4.487" height="305.495" style="fill:black;"/>
                </g>
                <g transform="matrix(0.516355,0,0,0.342776,-78.5295,407.725)">
                    <rect x="676.756" y="269.252" width="4.487" height="305.495" style="fill:black;"/>
                </g>
                <g transform="matrix(0.516355,0,0,0.342776,-127.83,407.725)">
                    <rect x="676.756" y="269.252" width="4.487" height="305.495" style="fill:black;"/>
                </g>
                <g transform="matrix(0.516355,0,0,0.342776,-177.131,407.725)">
                    <rect x="676.757" y="269.252" width="4.487" height="305.495" style="fill:black;"/>
                </g>
                <g transform="matrix(0.516355,0,0,0.342776,-226.432,407.725)">
                    <rect x="676.756" y="269.252" width="4.487" height="305.495" style="fill:black;"/>
                </g>
            </g>
            <g transform="matrix(0.126249,-3.77701e-17,-6.84244e-16,0.161177,427.471,-31.329)">
                <path d="M1097.11,3478.42c0,-25.127 -20.4,-45.527 -45.527,-45.527l-91.055,0c-25.128,0 -45.528,20.4 -45.528,45.527l0,91.055c0,25.128 20.4,45.528 45.528,45.528l91.055,0c25.127,0 45.527,-20.4 45.527,-45.528l0,-91.055Z" style="fill:rgb(23,16,252);"/>
            </g>
            <g transform="matrix(0.126249,-3.77701e-17,-6.84244e-16,0.161177,427.471,-110.936)">
                <path d="M1097.11,3478.42c0,-25.127 -20.4,-45.527 -45.527,-45.527l-91.055,0c-25.128,0 -45.528,20.4 -45.528,45.527l0,91.055c0,25.128 20.4,45.528 45.528,45.528l91.055,0c25.127,0 45.527,-20.4 45.527,-45.528l0,-91.055Z" style="fill:rgb(23,16,252);"/>
            </g>
            <g transform="matrix(0.126249,-3.77701e-17,-6.84244e-16,0.161177,633.061,-110.936)">
                <path d="M1097.11,3478.42c0,-25.127 -20.4,-45.527 -45.527,-45.527l-91.055,0c-25.128,0 -45.528,20.4 -45.528,45.527l0,91.055c0,25.128 20.4,45.528 45.528,45.528l91.055,0c25.127,0 45.527,-20.4 45.527,-45.528l0,-91.055Z" style="fill:rgb(23,16,252);"/>
            </g>
            <g transform="matrix(0.126249,-3.77701e-17,-6.84244e-16,0.161177,633.061,-31.329)">
                <path d="M1097.11,3478.42c0,-25.127 -20.4,-45.527 -45.527,-45.527l-91.055,0c-25.128,0 -45.528,20.4 -45.528,45.527l0,91.055c0,25.128 20.4,45.528 45.528,45.528l91.055,0c25.127,0 45.527,-20.4 45.527,-45.528l0,-91.055Z" style="fill:rgb(23,16,252);"/>
            </g>
            <g transform="matrix(0.348131,0,0,0.444444,-12413.3,-6.17763)">
                <path d="M36067.7,1131.81c338.838,0.32 840.035,1.109 1169.31,1.105c289.305,-0.002 392.484,-189.738 603.317,-189.91c225.67,-0.184 171.477,181.244 750.699,188.805" style="fill:none;stroke-width:100px;stroke:rgb(20,169,12);stroke-opacity:0.698039;"/>
            </g>
            <g transform="matrix(1.25928e-17,-0.262552,0.372661,2.91319e-17,387.499,10084.8)">
                <path d="M36362.4,1068.94l0,18.45l-51.434,-28.384l51.434,-28.385l0,18.45l312.132,0l0,-18.45l51.434,28.385l-51.434,28.384l0,-18.45l-312.132,0Z" style="fill:black;"/>
            </g>
            <g transform="matrix(0.348131,0,0,0.444444,-11854.6,-9.09028)">
                <path d="M36301,1526.75l368.044,0l0,4.5l-371.226,0l-1.318,-1.318l0,-268.995l4.5,0l0,265.813Z" style="fill:black;"/>
            </g>
            <g transform="matrix(0.348131,0,0,0.444444,-11860.1,23.9985)">
                <path d="M36414.4,1414.14l0,11.662l-65.323,0c-0.09,-2.921 0.382,-5.73 1.416,-8.427c1.662,-4.449 4.325,-8.831 7.988,-13.145c3.663,-4.314 8.955,-9.303 15.876,-14.966c10.741,-8.808 17.999,-15.785 21.774,-20.931c3.775,-5.146 5.662,-10.011 5.662,-14.595c0,-4.809 -1.719,-8.865 -5.157,-12.168c-3.438,-3.303 -7.921,-4.955 -13.448,-4.955c-5.843,0 -10.517,1.753 -14.022,5.259c-3.506,3.505 -5.281,8.359 -5.326,14.561l-12.471,-1.281c0.854,-9.303 4.067,-16.393 9.64,-21.269c5.573,-4.876 13.055,-7.314 22.448,-7.314c9.483,0 16.988,2.629 22.516,7.887c5.528,5.258 8.292,11.775 8.292,19.55c0,3.955 -0.809,7.842 -2.427,11.662c-1.618,3.82 -4.303,7.842 -8.056,12.067c-3.753,4.224 -9.988,10.022 -18.707,17.392c-7.28,6.112 -11.954,10.258 -14.022,12.438c-2.067,2.18 -3.775,4.371 -5.123,6.573l48.47,0Z" style="fill:black;fill-rule:nonzero;"/>
                <rect x="36434.3" y="1411.98" width="13.82" height="13.82" style="fill:black;fill-rule:nonzero;"/>
                <path d="M36504.7,1425.8l0,-23.662l-42.874,0l0,-11.123l45.098,-64.042l9.91,0l0,64.042l13.348,0l0,11.123l-13.348,0l0,23.662l-12.134,0ZM36504.7,1391.02l0,-44.559l-30.942,44.559l30.942,0Z" style="fill:black;fill-rule:nonzero;"/>
                <path d="M36546,1425.8l0,-71.592l10.854,0l0,10.044c2.247,-3.505 5.235,-6.325 8.966,-8.46c3.73,-2.135 7.977,-3.202 12.74,-3.202c5.304,0 9.652,1.101 13.045,3.303c3.393,2.202 5.786,5.281 7.179,9.236c5.663,-8.359 13.033,-12.539 22.112,-12.539c7.1,0 12.561,1.966 16.381,5.899c3.82,3.932 5.73,9.988 5.73,18.167l0,49.144l-12.067,0l0,-45.099c0,-4.854 -0.393,-8.348 -1.18,-10.483c-0.786,-2.134 -2.213,-3.853 -4.28,-5.157c-2.068,-1.303 -4.495,-1.955 -7.281,-1.955c-5.033,0 -9.213,1.675 -12.539,5.023c-3.325,3.348 -4.988,8.707 -4.988,16.078l0,41.593l-12.134,0l0,-46.515c0,-5.393 -0.989,-9.437 -2.967,-12.134c-1.977,-2.696 -5.213,-4.045 -9.707,-4.045c-3.416,0 -6.573,0.899 -9.471,2.697c-2.899,1.798 -5,4.427 -6.304,7.887c-1.303,3.461 -1.954,8.449 -1.954,14.966l0,37.144l-12.135,0Z" style="fill:black;fill-rule:nonzero;"/>
            </g>
        </g>
    </g>
</svg>
