<?xml version="1.0" standalone="no"?><!DOCTYPE svg PUBLIC "-//W3C//DTD SVG 1.1//EN" "http://www.w3.org/Graphics/SVG/1.1/DTD/svg11.dtd"><svg width="100%" height="100%" viewBox="0 0 15325 9600" version="1.1" xmlns="http://www.w3.org/2000/svg" xmlns:xlink="http://www.w3.org/1999/xlink" xml:space="preserve" style="fill-rule:evenodd;clip-rule:evenodd;stroke-linejoin:round;stroke-miterlimit:1.41421;"><g><rect x="12765.3" y="2129" width="57.87" height="5057.87" style="fill:#000;"/><rect x="11534" y="2129" width="57.87" height="5057.87" style="fill:#000;"/><path d="M12823.2,4686.87l-11139.8,0l0,-57.87l11139.8,0l0,57.87Z" style="fill:#000;"/><rect x="10302.6" y="2129" width="57.87" height="5057.87" style="fill:#000;"/><rect x="9071.33" y="2129" width="57.87" height="5057.87" style="fill:#000;"/><rect x="7839.99" y="2129" width="57.87" height="5057.87" style="fill:#000;"/><rect x="6608.68" y="2129" width="57.87" height="5057.87" style="fill:#000;"/><rect x="5377.35" y="2129" width="57.87" height="5057.87" style="fill:#000;"/><rect x="4146.02" y="2129" width="57.87" height="5057.87" style="fill:#000;"/><rect x="2914.7" y="2129" width="57.87" height="5057.87" style="fill:#000;"/><rect x="1683.37" y="2129" width="57.87" height="5057.87" style="fill:#000;"/></g><path d="M2517.7,1951.56c0,-37.968 -30.825,-68.793 -68.793,-68.793l-137.588,0c-37.968,0 -68.793,30.825 -68.793,68.793l0,137.588c0,37.968 30.825,68.793 68.793,68.793l137.588,0c37.968,0 68.793,-30.825 68.793,-68.793l0,-137.588Z" style="fill:#1710fc;"/><path d="M4312.54,2401.11c0,-37.968 -30.825,-68.794 -68.794,-68.794l-137.587,0c-37.968,0 -68.793,30.826 -68.793,68.794l0,137.587c0,37.968 30.825,68.794 68.793,68.794l137.587,0c37.969,0 68.794,-30.826 68.794,-68.794l0,-137.587Z" style="fill:#1710fc;"/><path d="M6775.19,4589.14c0,-37.969 -30.825,-68.794 -68.794,-68.794l-137.587,0c-37.968,0 -68.794,30.825 -68.794,68.794l0,137.587c0,37.968 30.826,68.794 68.794,68.794l137.587,0c37.969,0 68.794,-30.826 68.794,-68.794l0,-137.587Z" style="fill:#1710fc;"/><path d="M5958.53,3234.98c0,-37.968 -30.825,-68.794 -68.793,-68.794l-137.588,0c-37.968,0 -68.793,30.826 -68.793,68.794l0,137.587c0,37.969 30.825,68.794 68.793,68.794l137.588,0c37.968,0 68.793,-30.825 68.793,-68.794l0,-137.587Z" style="fill:#1710fc;"/><path d="M4781.38,1784.97l0.063,0.021l6.606,2.157l0.063,0.02l6.658,2.179l0.135,0.044l6.695,2.201l0.137,0.045l6.658,2.199l0.062,0.02l6.674,2.209l0.136,0.045l6.712,2.231l0.136,0.046l6.711,2.241l0.136,0.045l6.629,2.225l6.7,2.247l0.21,0.07l6.728,2.272l0.061,0.021l6.706,2.269l0.134,0.046l6.743,2.292l0.134,0.046l6.706,2.29l0.061,0.021l6.723,2.3l0.136,0.046l6.758,2.323l0.134,0.046l6.721,2.321l0.06,0.02l6.738,2.331l0.135,0.047l6.775,2.354l0.135,0.046l6.737,2.351l0.059,0.021l6.754,2.361l0.133,0.047l6.791,2.385l0.134,0.047l6.791,2.395l0.135,0.048l6.753,2.392l0.058,0.02l6.769,2.403l0.134,0.048l6.807,2.426l0.133,0.047l6.768,2.423l0.058,0.021l6.787,2.434l0.135,0.048l6.823,2.458l0.132,0.047l6.822,2.468l0.133,0.048l6.784,2.465l0.057,0.02l6.801,2.475l0.134,0.049l6.839,2.5l0.133,0.048l6.839,2.51l0.134,0.049l6.8,2.507l0.055,0.02l6.816,2.516l0.133,0.05l6.856,2.541l0.133,0.05l6.854,2.552l0.131,0.048l6.855,2.563l0.134,0.05l6.816,2.559l0.053,0.02l6.832,2.569l0.134,0.05l6.871,2.595l0.134,0.05l6.87,2.605l0.13,0.05l6.831,2.6l0.055,0.021l6.848,2.611l0.133,0.051l6.926,2.652l0.211,0.081l6.87,2.647l0.052,0.021l6.807,2.627l0.054,0.021l6.902,2.669l0.211,0.081l6.887,2.68l0.054,0.021l6.902,2.69l0.209,0.082l6.886,2.701l0.053,0.021l6.863,2.696l0.131,0.052l6.902,2.722l0.132,0.052l6.863,2.718l0.053,0.021l6.918,2.744l0.21,0.084l6.901,2.754l0.052,0.021l6.878,2.75l0.131,0.052l6.959,2.793l0.211,0.085l6.902,2.787l0.05,0.021l6.837,2.765l0.05,0.02l6.934,2.809l0.211,0.086l6.959,2.837l0.133,0.054l6.878,2.815l0.049,0.02l6.933,2.841l0.211,0.087l6.916,2.852l0.048,0.02l6.934,2.864l0.214,0.088l6.919,2.876l0.05,0.021l6.893,2.868l0.129,0.054l6.932,2.896l0.128,0.054l6.933,2.907l0.131,0.055l6.935,2.919l0.131,0.055l6.934,2.93l0.131,0.056l6.891,2.923l0.045,0.019l6.949,2.951l0.212,0.091l6.975,2.98l0.13,0.056l6.892,2.956l0.047,0.02l6.95,2.985l0.212,0.092l6.974,3.014l0.13,0.056l6.891,2.989l0.045,0.019l6.949,3.019l0.213,0.092l6.932,3.029l0.045,0.02l6.949,3.041l0.216,0.094l6.933,3.052l0.044,0.02l6.905,3.044l0.128,0.056l6.99,3.092l0.212,0.094l6.932,3.086l0.046,0.02l6.95,3.097l0.215,0.096l6.932,3.108l0.042,0.019l6.949,3.119l0.214,0.096l6.932,3.131l0.041,0.018l6.948,3.142l0.214,0.097l6.931,3.152l0.041,0.019l6.949,3.164l0.217,0.099l6.932,3.176l0.04,0.018l6.947,3.186l0.214,0.099l6.933,3.199l0.045,0.02l6.947,3.21l0.211,0.098l6.973,3.24l0.128,0.059l6.931,3.232l0.127,0.06l6.932,3.244l0.13,0.061l6.931,3.255l0.124,0.058l6.93,3.266l0.13,0.061l6.931,3.278l0.126,0.06l6.932,3.29l0.129,0.061l6.931,3.301l0.126,0.06l6.973,3.332l0.213,0.103l6.914,3.323l0.041,0.02l6.93,3.335l0.213,0.103l6.914,3.346l0.04,0.02l6.931,3.358l0.216,0.105l6.957,3.391l0.125,0.061l6.914,3.382l0.13,0.063l6.913,3.393l0.121,0.06l6.913,3.403l0.129,0.064l6.96,3.439l0.216,0.107l6.897,3.428l0.037,0.018l6.912,3.439l0.212,0.106l6.942,3.473l0.128,0.064l6.853,3.441l0.036,0.018l6.958,3.497l0.305,0.154l6.924,3.508l0.035,0.018l6.851,3.474l0.125,0.063l6.942,3.533l0.218,0.111l6.925,3.544l0.125,0.064l6.834,3.509l0.037,0.019l6.942,3.568l0.305,0.158l6.907,3.579l0.033,0.017l6.834,3.544l0.126,0.065l6.926,3.604l0.217,0.113l6.909,3.616l0.123,0.064l6.862,3.603l0.125,0.066l6.864,3.615l0.125,0.066l6.909,3.652l0.217,0.115l6.846,3.638l0.029,0.016l6.863,3.651l0.22,0.117l6.892,3.687l0.122,0.065l6.892,3.699l0.219,0.119l6.83,3.686l0.028,0.015l6.846,3.698l0.219,0.119l6.876,3.736l0.124,0.067l6.875,3.747l0.216,0.118l6.813,3.734l0.029,0.016l6.829,3.746l0.219,0.12l6.86,3.784l0.122,0.068l6.859,3.795l0.216,0.12l6.796,3.782l0.03,0.017l6.798,3.786l0.187,0.104l3.461,1.937l0.063,0.035l3.398,1.904l0.058,0.033l3.397,1.907l0.063,0.035l3.492,1.964l0.248,0.14l3.317,1.877l3.241,1.828l0.063,0.035l3.494,1.975l0.253,0.143l3.315,1.885l3.33,1.887l0.253,0.144l3.314,1.89l3.33,1.893l0.253,0.144l3.478,1.99l0.063,0.036l3.383,1.939l0.062,0.036l3.383,1.941l0.062,0.036l3.381,1.943l0.057,0.033l3.38,1.946l0.062,0.036l3.38,1.949l0.057,0.033l3.382,1.954l0.068,0.039l3.478,2.012l0.25,0.145l3.298,1.92l3.218,1.867l0.057,0.033l3.479,2.022l0.259,0.151l3.462,2.025l0.057,0.033l3.201,1.876l3.317,1.936l0.254,0.149l3.46,2.033l0.056,0.034l3.363,1.979l0.062,0.036l3.368,1.985l0.066,0.04l3.366,1.987l0.056,0.033l3.458,2.044l0.25,0.149l3.285,1.955l3.207,1.902l0.061,0.036l3.46,2.055l0.25,0.15l3.28,1.96l3.298,1.966l0.256,0.152l3.446,2.067l0.061,0.036l3.348,2.012l0.061,0.036l3.346,2.013l0.056,0.034l3.348,2.017l0.066,0.04l3.349,2.02l0.055,0.034l3.346,2.022l0.061,0.036l3.351,2.028l0.065,0.04l3.447,2.089l0.251,0.153l3.261,1.99l3.281,1.994l0.256,0.156l3.428,2.098l0.055,0.034l3.168,1.941l3.285,2.006l0.256,0.157l3.43,2.109l0.06,0.037l3.329,2.049l0.055,0.034l3.331,2.054l0.065,0.04l3.43,2.118l0.253,0.157l3.248,2.019l3.265,2.022l0.253,0.157l3.248,2.025l3.264,2.028l0.253,0.157l3.411,2.133l0.059,0.037l3.152,1.973l3.264,2.037l0.252,0.158l3.414,2.144l0.064,0.041l3.414,2.147l0.254,0.16l3.23,2.045l3.147,1.986l0.054,0.034l3.414,2.157l0.264,0.167l3.225,2.051l3.241,2.054l0.263,0.168l3.398,2.167l0.054,0.034l3.297,2.106l0.064,0.041l3.3,2.111l0.058,0.038l3.298,2.113l0.059,0.037l3.297,2.116l0.058,0.037l3.398,2.184l0.26,0.167l3.209,2.076l3.226,2.079l0.26,0.168l3.214,2.085l3.228,2.087l0.254,0.164l3.381,2.2l0.063,0.041l3.283,2.139l0.058,0.038l3.281,2.141l0.058,0.038l3.28,2.143l0.058,0.038l3.382,2.213l0.26,0.171l3.192,2.102l3.208,2.106l0.26,0.171l3.196,2.112l3.213,2.115l0.259,0.171l3.365,2.23l0.058,0.038l3.263,2.165l0.058,0.038l3.263,2.169l0.058,0.038l3.368,2.241l0.265,0.178l3.176,2.127l3.191,2.13l0.26,0.174l3.174,2.132l3.19,2.135l0.261,0.175l3.351,2.258l0.061,0.042l3.249,2.192l0.057,0.038l3.247,2.194l0.057,0.038l3.246,2.197l0.057,0.039l3.351,2.271l0.266,0.181l3.159,2.154l3.172,2.156l0.261,0.178l3.156,2.159l3.175,2.163l0.265,0.182l3.335,2.288l0.056,0.038l3.23,2.219l0.056,0.039l3.333,2.293l0.262,0.181l3.143,2.176l3.159,2.18l0.262,0.181l3.143,2.183l3.159,2.186l0.262,0.182l3.316,2.31l0.056,0.038l3.213,2.241l0.055,0.039l3.216,2.246l0.06,0.042l3.319,2.321l0.262,0.185l3.125,2.2l3.142,2.204l0.262,0.185l3.121,2.203l3.136,2.206l0.262,0.186l3.302,2.338l0.06,0.042l3.201,2.27l0.059,0.042l3.199,2.271l0.054,0.039l3.301,2.347l0.263,0.188l3.103,2.221l3.121,2.226l0.267,0.191l3.289,2.36l0.059,0.043l3.181,2.287l0.055,0.039l3.179,2.289l0.054,0.039l3.182,2.294l0.059,0.042l3.181,2.297l0.054,0.039l3.284,2.374l0.264,0.191l3.089,2.248l3.109,2.253l0.267,0.195l3.27,2.386l0.053,0.039l3.163,2.311l0.054,0.04l3.164,2.316l0.059,0.042l3.272,2.398l0.268,0.197l3.066,2.262l3.083,2.266l0.273,0.201l3.255,2.408l0.054,0.04l3.145,2.33l0.054,0.04l3.148,2.335l0.057,0.042l3.15,2.34l0.058,0.043l3.148,2.342l0.053,0.039l3.251,2.422l0.264,0.198l3.237,2.427l0.057,0.043l2.951,2.215l3.071,2.297l0.263,0.198l3.237,2.437l0.057,0.043l3.237,2.441l0.265,0.2l3.037,2.306l3.055,2.31l0.269,0.204l3.22,2.451l0.052,0.04l2.927,2.231l3.053,2.317l0.272,0.208l3.329,2.544l0.265,0.204l3.015,2.32l3.034,2.325l0.269,0.206l3.021,2.332l3.036,2.332l0.264,0.204l3.204,2.479l0.056,0.043l3.099,2.402l0.056,0.043l3.205,2.486l0.265,0.206l3.002,2.345l3.02,2.349l0.269,0.21l3,2.349l3.015,2.353l0.269,0.21l3.297,2.589l0.27,0.212l2.982,2.358l2.891,2.277l0.055,0.043l3.19,2.516l0.27,0.213l3.173,2.518l0.054,0.044l3.064,2.436l0.051,0.04l3.064,2.438l0.054,0.044l3.066,2.444l0.055,0.043l3.063,2.445l0.051,0.041l3.171,2.534l0.269,0.216l3.157,2.54l0.054,0.043l3.049,2.457l0.054,0.044l3.047,2.458l0.05,0.04l3.047,2.462l0.054,0.043l3.049,2.467l0.054,0.043l3.157,2.557l0.269,0.219l3.138,2.56l0.05,0.04l3.03,2.475l0.054,0.043l3.034,2.482l0.058,0.047l3.03,2.481l0.045,0.037l3.138,2.573l0.274,0.225l2.936,2.424l2.948,2.424l0.266,0.219l3.121,2.583l0.053,0.044l3.015,2.5l0.053,0.044l3.124,2.592l0.27,0.225l2.917,2.437l2.931,2.439l0.265,0.222l3.107,2.603l0.057,0.047l2.998,2.516l0.049,0.041l2.996,2.517l0.052,0.044l3.108,2.613l0.269,0.228l2.9,2.456l2.915,2.459l0.27,0.228l3.09,2.624l0.052,0.044l2.98,2.534l0.047,0.041l2.982,2.538l0.056,0.048l3.09,2.635l0.266,0.227l3.074,2.639l0.055,0.047l2.772,2.383l3.003,2.571l0.488,0.419l2.973,2.577l2.772,2.392l0.051,0.044l3.076,2.658l0.273,0.237l3.058,2.66l0.047,0.041l2.946,2.567l0.051,0.045l2.948,2.571l0.05,0.045l2.948,2.575l0.051,0.044l3.057,2.674l0.27,0.236l2.847,2.508l2.864,2.511l0.269,0.237l3.15,2.782l0.269,0.239l2.831,2.516l2.736,2.423l0.05,0.045l3.041,2.695l0.269,0.239l3.024,2.7l0.05,0.044l2.914,2.605l0.05,0.045l2.914,2.608l0.05,0.044l3.024,2.71l0.269,0.242l2.813,2.539l2.831,2.543l0.272,0.246l3.007,2.721l0.046,0.041l3.008,2.724l0.272,0.248l2.794,2.549l2.81,2.552l0.273,0.249l2.992,2.737l0.049,0.045l2.881,2.638l0.048,0.045l2.879,2.64l0.045,0.041l2.883,2.646l0.056,0.052l2.992,2.751l0.265,0.244l2.972,2.752l0.048,0.045l2.866,2.656l0.052,0.049l2.864,2.658l0.044,0.041l2.974,2.764l0.272,0.254l2.763,2.586l2.778,2.588l0.268,0.251l2.957,2.775l0.047,0.045l2.958,2.778l0.268,0.253l2.748,2.6l2.764,2.604l0.267,0.253l2.941,2.79l0.047,0.045l2.83,2.688l0.047,0.045l2.831,2.692l0.047,0.045l2.942,2.802l0.271,0.259l2.729,2.618l2.743,2.619l0.267,0.255l3.035,2.918l0.267,0.258l2.71,2.625l2.728,2.629l0.27,0.262l2.712,2.633l2.726,2.634l0.267,0.259l3.019,2.939l0.27,0.264l2.691,2.639l2.708,2.641l0.27,0.265l2.698,2.652l2.821,2.76l0.484,0.477l2.787,2.762l2.585,2.551l0.045,0.044l2.893,2.857l0.269,0.267l2.875,2.861l0.045,0.045l2.763,2.753l0.046,0.045l2.873,2.866l0.266,0.267l2.662,2.674l2.678,2.678l0.266,0.267l2.858,2.879l0.048,0.048l2.746,2.77l0.042,0.041l2.856,2.885l0.269,0.272l2.844,2.893l0.047,0.048l2.533,2.58l2.769,2.806l0.486,0.496l2.737,2.812l2.644,2.702l0.265,0.272l2.624,2.702l2.643,2.708l0.267,0.275l2.935,3.03l0.265,0.274l2.611,2.715l2.627,2.719l0.264,0.274l2.806,2.925l0.043,0.045l2.698,2.816l0.046,0.048l2.81,2.936l0.267,0.28l2.592,2.73l2.606,2.73l0.264,0.277l2.79,2.946l0.046,0.048l2.792,2.95l0.263,0.279l2.573,2.739l2.591,2.745l0.266,0.283l2.776,2.962l0.045,0.048l2.664,2.847l0.042,0.044l2.775,2.968l0.265,0.286l2.758,2.972l0.041,0.044l2.646,2.855l0.041,0.045l2.649,2.862l0.048,0.052l2.647,2.863l0.038,0.042l2.756,2.984l0.265,0.288l2.742,2.992l0.044,0.048l2.63,2.874l0.041,0.045l2.631,2.877l0.043,0.048l2.741,3.002l0.261,0.286l2.723,3.006l0.044,0.048l2.615,2.889l0.044,0.048l2.613,2.891l0.041,0.045l2.722,3.015l0.26,0.289l2.708,3.022l0.046,0.051l2.597,2.902l0.037,0.041l2.597,2.905l0.046,0.051l2.708,3.034l0.259,0.291l2.689,3.034l0.039,0.044l2.58,2.915l0.043,0.049l2.581,2.92l0.043,0.048l2.691,3.048l0.262,0.297l2.473,2.823l2.49,2.827l0.261,0.297l2.782,3.184l0.258,0.296l2.458,2.834l2.476,2.839l0.26,0.299l2.656,3.07l0.038,0.044l2.547,2.946l0.041,0.048l2.658,3.078l0.259,0.302l2.639,3.081l0.038,0.044l2.53,2.957l0.041,0.048l2.531,2.961l0.041,0.048l2.64,3.094l0.259,0.304l2.423,2.861l2.439,2.864l0.258,0.305l2.731,3.232l0.256,0.303l2.41,2.875l2.427,2.879l0.254,0.303l2.605,3.114l0.04,0.048l2.605,3.118l0.255,0.306l2.393,2.888l2.41,2.891l0.254,0.306l2.587,3.129l0.04,0.047l2.588,3.134l0.253,0.308l2.377,2.9l2.392,2.904l0.253,0.308l2.571,3.144l0.039,0.048l2.572,3.15l0.255,0.314l2.359,2.911l2.373,2.913l0.252,0.311l2.553,3.159l0.039,0.047l2.555,3.166l0.254,0.316l2.538,3.169l0.038,0.047l2.431,3.038l0.037,0.048l2.431,3.041l0.037,0.047l2.429,3.044l0.035,0.044l2.537,3.182l0.252,0.318l2.523,3.19l0.04,0.05l2.413,3.056l0.034,0.044l2.52,3.194l0.252,0.32l2.503,3.198l0.034,0.044l2.397,3.066l0.039,0.05l2.398,3.071l0.036,0.047l2.503,3.209l0.248,0.32l2.486,3.213l0.036,0.046l2.381,3.082l0.039,0.05l2.487,3.223l0.247,0.321l2.273,2.97l2.398,3.114l0.463,0.606l2.364,3.116l2.167,2.841l0.035,0.047l2.47,3.241l0.248,0.327l2.453,3.245l0.035,0.046l2.452,3.25l0.248,0.329l2.241,2.993l2.256,2.996l0.244,0.326l2.542,3.402l0.249,0.334l2.226,3.005l2.24,3.006l0.246,0.332l2.418,3.272l0.034,0.046l2.312,3.131l0.032,0.043l2.418,3.279l0.247,0.337l2.402,3.285l0.034,0.046l2.296,3.143l0.034,0.046l2.296,3.147l0.033,0.046l2.401,3.295l0.244,0.335l2.383,3.298l0.03,0.042l2.385,3.303l0.244,0.34l2.179,3.043l2.191,3.044l0.24,0.334l2.365,3.312l0.033,0.046l2.367,3.318l0.241,0.339l2.161,3.054l2.175,3.057l0.238,0.336l2.453,3.476l0.243,0.345l2.14,3.059l2.156,3.062l0.242,0.345l2.333,3.342l0.032,0.045l2.332,3.345l0.239,0.344l2.315,3.349l0.032,0.045l2.212,3.203l0.031,0.045l2.213,3.209l0.033,0.048l2.316,3.36l0.234,0.342l2.298,3.364l0.033,0.049l2.197,3.219l0.031,0.045l2.195,3.221l0.03,0.045l2.298,3.375l0.236,0.347l2.282,3.381l0.032,0.048l2.281,3.384l0.232,0.345l2.076,3.107l2.094,3.112l0.233,0.349l2.366,3.548l0.233,0.351l2.06,3.118l2.076,3.12l0.23,0.348l2.247,3.406l0.031,0.047l2.247,3.412l0.232,0.353l2.229,3.414l0.029,0.045l2.129,3.265l0.031,0.047l2.129,3.269l0.029,0.044l2.229,3.426l0.23,0.354l2.212,3.43l0.028,0.044l2.113,3.279l0.03,0.047l2.213,3.439l0.228,0.356l2.195,3.442l0.028,0.043l2.095,3.289l0.027,0.044l2.096,3.293l0.03,0.047l2.196,3.454l0.226,0.358l2.177,3.457l0.028,0.043l2.178,3.462l0.227,0.363l2.162,3.467l0.027,0.043l2.061,3.31l0.027,0.043l2.062,3.315l0.029,0.046l2.161,3.478l0.224,0.361l2.143,3.48l0.026,0.043l2.046,3.326l0.028,0.046l2.045,3.329l0.027,0.043l2.142,3.491l0.222,0.363l2.224,3.658l0.223,0.368l1.928,3.2l1.944,3.204l0.222,0.368l2.109,3.508l0.026,0.043l2.108,3.511l0.219,0.366l1.913,3.215l1.928,3.219l0.219,0.366l2.187,3.685l0.217,0.368l2.075,3.528l0.026,0.045l1.98,3.37l0.026,0.045l1.978,3.371l0.023,0.039l2.074,3.539l0.219,0.376l2.058,3.543l0.022,0.039l1.961,3.382l0.026,0.044l2.058,3.553l0.216,0.374l2.04,3.555l0.023,0.042l1.946,3.393l0.025,0.045l2.04,3.563l0.212,0.372l1.846,3.255l1.957,3.425l0.401,0.708l1.924,3.432l1.847,3.267l0.21,0.374l2.005,3.58l0.022,0.041l2.006,3.586l0.21,0.379l1.989,3.591l0.024,0.044l1.895,3.426l0.022,0.041l1.987,3.596l0.208,0.377l1.798,3.287l1.908,3.46l0.392,0.718l1.872,3.46l1.797,3.295l0.207,0.381l1.954,3.619l0.023,0.043l1.953,3.621l0.204,0.38l1.764,3.304l1.872,3.478l0.386,0.724l1.84,3.485l1.765,3.316l0.202,0.381l1.919,3.64l0.022,0.042l1.919,3.646l0.202,0.386l1.732,3.324l1.838,3.499l0.378,0.727l1.807,3.507l1.734,3.339l0.198,0.384l1.884,3.663l0.021,0.042l1.884,3.668l0.197,0.385l1.7,3.346l1.806,3.523l0.371,0.732l1.774,3.529l1.701,3.358l0.195,0.386l1.848,3.686l0.019,0.038l1.849,3.692l0.196,0.393l1.669,3.366l1.77,3.543l0.367,0.741l1.737,3.546l1.668,3.374l0.192,0.391l1.814,3.712l0.02,0.04l1.815,3.716l0.19,0.392l1.797,3.718l0.018,0.038l1.711,3.545l0.02,0.04l1.797,3.727l0.188,0.394l1.78,3.73l0.017,0.037l1.696,3.557l0.02,0.042l1.779,3.739l0.186,0.392l1.762,3.742l0.018,0.039l1.678,3.567l0.018,0.037l1.762,3.75l0.186,0.398l1.745,3.755l0.017,0.036l1.661,3.578l0.018,0.039l1.745,3.762l0.183,0.397l1.727,3.764l0.016,0.036l1.646,3.591l0.018,0.041l1.728,3.773l0.179,0.395l1.71,3.776l0.017,0.039l1.71,3.781l0.18,0.399l1.692,3.785l0.017,0.038l1.612,3.608l0.015,0.035l1.693,3.793l0.178,0.402l1.524,3.453l1.619,3.636l0.336,0.762l1.587,3.642l1.523,3.464l0.175,0.4l1.737,3.995l0.174,0.401l1.49,3.468l1.507,3.473l0.174,0.403l1.719,4.007l0.17,0.4l1.623,3.828l0.017,0.039l1.545,3.649l0.015,0.034l1.544,3.651l0.016,0.036l1.623,3.841l0.17,0.405l1.606,3.844l0.014,0.033l1.605,3.846l0.167,0.404l1.588,3.851l0.015,0.036l1.511,3.67l0.014,0.033l1.588,3.858l0.166,0.407l1.572,3.864l0.014,0.036l1.495,3.682l0.015,0.035l1.57,3.87l0.163,0.405l1.554,3.875l0.014,0.035l1.552,3.877l0.161,0.404l1.536,3.882l0.014,0.037l1.463,3.701l0.013,0.034l1.536,3.89l0.16,0.407l1.518,3.894l0.013,0.034l1.445,3.71l0.013,0.032l1.518,3.901l0.158,0.41l1.502,3.906l0.012,0.034l1.429,3.722l0.013,0.034l1.501,3.913l0.155,0.408l1.484,3.917l0.012,0.033l1.484,3.921l0.153,0.409l1.466,3.924l0.013,0.033l1.396,3.742l0.013,0.035l1.466,3.932l0.15,0.407l1.448,3.936l0.012,0.032l1.38,3.753l0.013,0.034l1.448,3.944l0.149,0.408l1.431,3.948l0.012,0.034l1.431,3.953l0.148,0.41l1.414,3.956l0.011,0.032l1.346,3.77l0.011,0.031l1.414,3.964l0.145,0.41l1.396,3.967l0.011,0.032l1.397,3.972l0.144,0.413l1.379,3.976l0.01,0.028l1.313,3.789l0.011,0.033l1.313,3.793l0.011,0.031l1.379,3.986l0.141,0.412l1.426,4.182l0.141,0.414l1.344,3.995l0.009,0.028l1.28,3.807l0.011,0.032l1.28,3.812l0.01,0.03l1.343,4.005l0.138,0.413l1.39,4.201l0.135,0.413l1.189,3.645l1.205,3.649l0.136,0.415l1.372,4.214l0.133,0.413l1.292,4.025l0.009,0.029l1.23,3.837l0.009,0.029l1.292,4.034l0.132,0.415l1.275,4.038l0.009,0.028l1.213,3.848l0.009,0.029l1.274,4.044l0.129,0.413l1.257,4.049l0.01,0.03l1.257,4.053l0.127,0.414l1.239,4.056l0.009,0.028l1.181,3.867l0.009,0.03l1.239,4.064l0.125,0.415l1.222,4.067l0.008,0.027l1.222,4.072l0.124,0.414l1.205,4.076l0.008,0.029l1.148,3.886l0.007,0.027l1.205,4.082l0.121,0.415l1.187,4.087l0.009,0.029l1.187,4.091l0.119,0.415l1.17,4.094l0.008,0.026l1.114,3.905l0.008,0.028l1.17,4.103l0.117,0.414l1.153,4.107l0.007,0.027l1.098,3.917l0.007,0.025l1.152,4.114l0.116,0.414l1.188,4.313l0.114,0.415l1.118,4.122l0.007,0.026l1.065,3.932l0.007,0.026l1.065,3.935l0.007,0.025l1.117,4.133l0.111,0.415l1.152,4.332l0.11,0.417l0.984,3.763l1.052,3.961l0.21,0.806l1.019,3.966l0.984,3.774l0.107,0.415l1.116,4.352l0.106,0.417l0.952,3.78l1.018,3.98l0.204,0.809l0.985,3.983l0.952,3.792l0.104,0.416l1.079,4.372l0.102,0.415l1.013,4.18l0.006,0.023l0.966,3.988l0.005,0.022l1.013,4.186l0.1,0.415l0.996,4.192l0.006,0.025l0.949,3.998l0.005,0.021l0.996,4.198l0.098,0.415l1.024,4.4l0.096,0.417l0.874,3.824l0.936,4.024l0.184,0.809l0.903,4.028l0.874,3.834l0.093,0.416l0.988,4.418l0.092,0.415l0.843,3.843l0.902,4.044l0.178,0.809l0.869,4.046l0.842,3.853l0.09,0.415l0.952,4.438l0.087,0.414l0.892,4.244l0.005,0.021l0.85,4.051l0.004,0.02l0.892,4.252l0.086,0.415l0.875,4.256l0.004,0.021l0.875,4.26l0.084,0.413l0.857,4.264l0.004,0.019l0.818,4.071l0.004,0.02l0.857,4.272l0.082,0.412l0.879,4.473l0.08,0.414l0.749,3.893l0.803,4.095l0.155,0.808l0.77,4.099l0.749,3.906l0.078,0.413l0.843,4.491l0.076,0.411l0.788,4.299l0.004,0.02l0.752,4.105l0.003,0.016l0.788,4.305l0.074,0.413l0.771,4.31l0.003,0.018l0.736,4.116l0.003,0.018l0.806,4.515l0.141,0.807l0.704,4.13l0.685,3.937l0.071,0.412l0.737,4.33l0.003,0.018l0.736,4.334l0.069,0.409l0.719,4.336l0.002,0.016l0.719,4.34l0.068,0.411l0.701,4.344l0.003,0.014l0.669,4.15l0.003,0.018l0.702,4.353l0.065,0.41l0.716,4.552l0.063,0.409l0.667,4.358l0.002,0.015l0.638,4.166l0.002,0.015l0.667,4.368l0.062,0.411l0.65,4.372l0.002,0.013l0.62,4.175l0.002,0.013l0.65,4.378l0.06,0.41l0.661,4.581l0.059,0.408l0.615,4.387l0.002,0.013l0.588,4.193l0.002,0.012l0.615,4.393l0.056,0.409l0.599,4.398l0.001,0.012l0.598,4.4l0.055,0.407l0.581,4.406l0.002,0.015l0.555,4.212l0.002,0.012l0.58,4.412l0.053,0.406l0.589,4.613l0.051,0.406l0.547,4.42l0.001,0.012l0.523,4.228l0.001,0.012l0.547,4.428l0.049,0.405l0.529,4.432l0.002,0.011l0.529,4.435l0.047,0.403l0.512,4.439l0.002,0.013l0.49,4.248l0.001,0.011l0.535,4.643l0.088,0.796l0.457,4.259l0.452,4.067l0.044,0.404l0.479,4.467l0.478,4.462l0.043,0.404l0.461,4.477l0.461,4.469l0.04,0.4l0.444,4.473l0.001,0.011l0.443,4.478l0.039,0.399l0.428,4.492l0.426,4.485l0.037,0.399l0.41,4.498l0.392,4.306l0.41,4.496l0.035,0.4l0.409,4.695l0.034,0.398l0.343,4.118l0.376,4.318l0.065,0.786l0.374,4.715l0.343,4.328l0.358,4.519l0.03,0.397l0.342,4.531l0.326,4.339l0.341,4.53l0.029,0.396l0.337,4.73l0.028,0.394l0.307,4.545l0.294,4.354l0.306,4.545l0.026,0.395l0.302,4.744l0.024,0.393l0.273,4.559l0.261,4.37l0.272,4.561l0.023,0.392l0.255,4.571l0.256,4.569l0.021,0.391l0.238,4.577l0.238,4.576l0.02,0.39l0.221,4.585l0.221,4.584l0.018,0.389l0.205,4.593l0.195,4.403l0.204,4.596l0.017,0.387l0.195,4.791l0.015,0.388l0.17,4.607l0.163,4.418l0.17,4.611l0.013,0.386l0.16,4.806l0.012,0.386l0.124,4.237l0.147,4.432l0.023,0.767l0.124,4.82l0.114,4.441l0.118,4.633l0.01,0.384l0.102,4.663l0.001,0.053l0.359,16.72l0,0.008l0.359,16.81l0.003,0.109l0.343,16.872l0,0.008l0.343,16.933l0.002,0.108l0.327,16.995l0,0.007l0.326,17.057l0.002,0.106l0.312,17.166l0.001,0.105l0.293,17.081l0.308,17.141l0.002,0.104l0.295,17.345l0.001,0.104l0.278,17.354l0,0.006l0.277,17.364l0,0.005l0.278,17.471l0.001,0.103l0.262,17.576l0.002,0.102l0.243,17.491l0.26,17.547l0.001,0.101l0.246,17.746l0.001,0.101l0.229,17.758l0.228,17.766l0.228,17.821l0.228,17.919l0.002,0.099l0.212,18.02l0.001,0.098l0.195,17.935l0.211,17.987l0.001,0.097l0.196,18.137l0.196,18.186l0.001,0.096l0.18,18.241l0.179,18.245l0.179,18.34l0.001,0.096l0.163,18.3l0.179,18.397l0.001,0.186l0.147,18.447l0.162,18.45l0.001,0.094l0.147,18.592l0.146,18.596l0.147,18.643l0.147,18.735l0,0.093l0.131,18.783l0.13,18.786l0.13,18.832l0.131,18.922l0.001,0.091l0.114,18.969l0.114,18.969l0.114,19.014l0.114,19.059l0.114,19.146l0,0.091l0.196,38.379l0.195,38.506l0.196,38.694l0,0.046l0.179,38.879l0,0.046l0.163,39.02l0.163,39.156l0.163,39.33l0,0.044l0.147,39.482l0.146,39.607l0.147,39.771l0,0.044l0.13,39.87l0.293,80.155l0,0.023l0.277,80.696l0.293,81.18l0.146,40.776l0.146,40.847l0.163,40.957l0.163,41.062l0.178,41.123l0.195,41.265l0.196,41.4l0.195,41.451l0.211,41.499l0.113,20.701l0.13,20.803l0.001,0.082l0.114,20.905l0.113,20.802l0.13,20.823l0.13,20.922l0.13,20.86l0.146,20.879l0.146,20.978l0.147,20.995l0.146,21.012l0.146,20.947l0.162,20.964l0.163,20.98l0.178,21.034l0.001,0.081l0.162,21.05l0.179,21.025l0.178,21.038l0.195,21.052l0.195,21.145l0.195,21.078l0.21,21.09l0.212,21.182l0.211,21.113l0.227,21.124l0.228,21.215l0.227,21.144l0.243,21.155l0.243,21.164l2.813,229.489l-416.636,5.106l-2.814,-229.609l-0.001,-0.079l-0.244,-21.282l-0.245,-21.272l-0.001,-0.079l-0.228,-21.263l-0.228,-21.213l-0.228,-21.242l-0.001,-0.079l-0.212,-21.231l-0.211,-21.18l-0.212,-21.208l-0.001,-0.08l-0.196,-21.195l-0.195,-21.143l-0.196,-21.17l0,-0.08l-0.18,-21.157l-0.179,-21.143l-0.001,-0.079l-0.162,-21.048l-0.179,-21.033l-0.001,-0.08l-0.163,-21.099l-0.163,-21.082l0,-0.08l-0.147,-21.067l-0.147,-21.009l-0.146,-20.993l-0.147,-20.975l-0.146,-20.998l-0.001,-0.08l-0.13,-20.98l-0.131,-20.92l-0.13,-20.942l0,-0.081l-0.115,-20.922l-0.113,-20.781l-0.13,-20.801l0,-0.081l-0.115,-20.882l0,-0.039l-0.212,-41.619l0,-0.04l-0.195,-41.509l-0.196,-41.396l-0.195,-41.321l0,-0.04l-0.179,-41.244l-0.001,-0.04l-0.162,-41.121l-0.163,-41.015l0,-0.04l-0.147,-40.906l-0.146,-40.771l-0.293,-81.203l-0.001,-0.019l-0.276,-80.689l-0.293,-80.181l0,-0.041l-0.13,-39.864l-0.147,-39.703l-0.146,-39.602l-0.147,-39.411l-0.162,-39.26l-0.163,-39.149l-0.162,-38.948l-0.179,-38.743l-0.195,-38.621l-0.195,-38.497l-0.195,-38.237l-0.114,-19.008l-0.113,-19.054l-0.114,-19.008l-0.114,-18.963l-0.114,-18.828l-0.129,-18.782l-0.13,-18.825l-0.131,-18.778l-0.129,-18.641l-0.146,-18.593l-0.146,-18.635l-0.147,-18.587l-0.146,-18.445l-0.162,-18.444l-0.001,-0.089l-0.145,-18.301l-0.178,-18.252l0,-0.089l-0.163,-18.292l-0.178,-18.193l-0.179,-18.234l-0.178,-18.089l-0.194,-18.036l-0.194,-17.982l-0.211,-17.978l-0.001,-0.09l-0.195,-17.924l-0.209,-17.726l-0.227,-17.765l-0.228,-17.804l-0.227,-17.75l-0.227,-17.597l-0.241,-17.444l-0.26,-17.533l-0.001,-0.092l-0.244,-17.476l-0.257,-17.27l-0.275,-17.309l-0.276,-17.346l-0.275,-17.19l-0.29,-17.032l-0.308,-17.122l-0.002,-0.092l-0.292,-17.061l-0.305,-16.848l-0.323,-16.885l-0.324,-16.823l-0.339,-16.76l-0.34,-16.697l-0.355,-16.634l-0.357,-16.626l-0.088,-4.007l-0.104,-4.054l-0.114,-4.431l-0.094,-3.662l-0.127,-3.85l-0.012,-0.38l-0.125,-4.227l-0.12,-3.647l-0.149,-4.026l-0.162,-4.404l-0.149,-4.015l-0.147,-3.627l-0.178,-4.007l-0.195,-4.386l-0.178,-3.997l-0.192,-3.992l-0.193,-3.987l-0.207,-3.983l-0.207,-3.978l-0.222,-3.974l-0.222,-3.968l-0.237,-3.964l-0.26,-4.347l-0.236,-3.954l-0.227,-3.562l-0.266,-3.945l-0.292,-4.329l-0.266,-3.936l-0.252,-3.543l-0.296,-3.926l-0.324,-4.311l-0.295,-3.917l-0.31,-3.912l-0.34,-4.298l-0.279,-3.513l-0.323,-3.71l-0.032,-0.38l-0.341,-4.093l-0.305,-3.5l-0.353,-3.884l-0.389,-4.271l-0.354,-3.876l-0.368,-3.871l-0.368,-3.866l-0.382,-3.862l-0.383,-3.857l-0.397,-3.855l-0.397,-3.846l-0.411,-3.844l-0.412,-3.839l-0.448,-4.035l-0.042,-0.383l-0.391,-3.639l-0.395,-3.433l-0.486,-4.212l-0.44,-3.816l-0.455,-3.813l-0.455,-3.807l-0.469,-3.803l-0.518,-4.191l-0.469,-3.793l-0.434,-3.396l-0.498,-3.786l-0.55,-4.174l-0.498,-3.774l-0.513,-3.772l-0.512,-3.767l-0.527,-3.762l-0.582,-4.153l-0.527,-3.753l-0.484,-3.353l-0.556,-3.744l-0.614,-4.137l-0.556,-3.736l-0.569,-3.729l-0.631,-4.121l-0.57,-3.723l-0.522,-3.325l-0.598,-3.712l-0.663,-4.103l-0.598,-3.706l-0.613,-3.7l-0.613,-3.697l-0.627,-3.692l-0.627,-3.684l-0.678,-3.889l-0.065,-0.38l-0.595,-3.49l-0.585,-3.279l-0.726,-4.064l-0.656,-3.665l-0.67,-3.662l-0.742,-4.051l-0.67,-3.652l-0.61,-3.255l-0.738,-3.85l-0.072,-0.376l-0.648,-3.45l-0.676,-3.448l-0.073,-0.376l-0.738,-3.838l-0.635,-3.232l-0.727,-3.623l-0.806,-4.012l-0.727,-3.614l-0.741,-3.61l-0.74,-3.604l-0.756,-3.601l-0.838,-3.991l-0.755,-3.593l-0.685,-3.195l-0.829,-3.791l-0.081,-0.374l-0.729,-3.393l-0.756,-3.389l-0.082,-0.372l-0.829,-3.779l-0.71,-3.174l-0.859,-3.77l-0.084,-0.373l-0.756,-3.372l-0.783,-3.369l-0.085,-0.372l-0.859,-3.758l-0.734,-3.152l-0.841,-3.543l-0.933,-3.931l-0.839,-3.532l-0.855,-3.532l-0.949,-3.918l-0.854,-3.521l-0.771,-3.125l-0.935,-3.721l-0.092,-0.369l-0.822,-3.324l-0.85,-3.321l-0.093,-0.368l-0.934,-3.708l-0.796,-3.105l-0.965,-3.701l-0.095,-0.366l-0.849,-3.305l-0.877,-3.303l-0.096,-0.366l-0.965,-3.688l-0.82,-3.085l-0.939,-3.474l-1.044,-3.858l-1.044,-3.852l-0.938,-3.46l-0.846,-3.067l-0.967,-3.454l-1.075,-3.837l-0.967,-3.443l-0.981,-3.44l-1.091,-3.824l-0.981,-3.432l-0.994,-3.428l-0.995,-3.423l-1.009,-3.421l-1.123,-3.803l-1.008,-3.411l-1.023,-3.409l-1.023,-3.406l-1.037,-3.399l-1.154,-3.782l-1.037,-3.393l-1.051,-3.388l-1.05,-3.383l-1.065,-3.382l-1.187,-3.762l-1.064,-3.372l-1.079,-3.368l-1.202,-3.75l-1.079,-3.361l-0.967,-2.973l-1.175,-3.559l-0.116,-0.353l-1.16,-3.556l-0.98,-2.964l-1.122,-3.342l-1.248,-3.719l-1.25,-3.717l-1.12,-3.33l-1.004,-2.944l-1.149,-3.323l-1.28,-3.698l-1.281,-3.696l-1.149,-3.311l-1.162,-3.305l-1.163,-3.304l-1.176,-3.3l-1.312,-3.675l-1.177,-3.292l-1.19,-3.287l-1.191,-3.284l-1.205,-3.282l-1.342,-3.652l-1.206,-3.275l-1.218,-3.27l-1.358,-3.64l-1.219,-3.262l-1.233,-3.258l-1.232,-3.255l-1.247,-3.251l-1.39,-3.621l-1.246,-3.241l-1.26,-3.24l-1.407,-3.611l-1.26,-3.232l-1.275,-3.229l-1.42,-3.594l-1.274,-3.221l-1.289,-3.22l-1.289,-3.213l-1.302,-3.211l-1.453,-3.576l-1.301,-3.2l-1.316,-3.199l-1.469,-3.566l-1.316,-3.192l-1.332,-3.19l-1.33,-3.185l-1.343,-3.178l-1.501,-3.546l-1.499,-3.54l-1.344,-3.169l-1.201,-2.802l-1.459,-3.362l-0.143,-0.33l-1.444,-3.361l-1.214,-2.791l-1.474,-3.353l-0.143,-0.326l-1.301,-2.985l-1.329,-2.984l-0.144,-0.327l-1.474,-3.339l-1.4,-3.137l-1.562,-3.498l-1.4,-3.13l-1.414,-3.126l-1.415,-3.126l-1.428,-3.12l-1.592,-3.475l-1.429,-3.115l-1.442,-3.109l-1.609,-3.466l-1.442,-3.102l-1.456,-3.098l-1.624,-3.454l-1.457,-3.093l-1.47,-3.089l-1.639,-3.438l-1.471,-3.084l-1.484,-3.077l-1.655,-3.43l-1.485,-3.073l-1.498,-3.066l-1.497,-3.064l-1.61,-3.258l-0.154,-0.313l-1.422,-2.902l-1.45,-2.901l-0.155,-0.311l-1.607,-3.243l-1.526,-3.046l-1.528,-3.048l-1.64,-3.236l-0.153,-0.304l-1.449,-2.884l-1.478,-2.883l-0.155,-0.305l-1.64,-3.225l-1.555,-3.028l-1.555,-3.025l-1.669,-3.214l-0.156,-0.3l-1.476,-2.865l-1.505,-2.866l-0.159,-0.304l-1.669,-3.202l-1.581,-3.005l-1.584,-3.005l-1.7,-3.194l-0.158,-0.299l-1.503,-2.845l-1.531,-2.844l-0.161,-0.3l-1.7,-3.184l-1.611,-2.988l-1.61,-2.982l-1.729,-3.17l-0.162,-0.298l-1.531,-2.829l-1.557,-2.825l-0.161,-0.293l-1.729,-3.161l-1.641,-2.97l-1.826,-3.3l-1.638,-2.958l-1.653,-2.958l-1.656,-2.957l-1.775,-3.141l-0.162,-0.289l-1.571,-2.8l-1.6,-2.8l-0.165,-0.29l-1.775,-3.13l-1.682,-2.938l-1.871,-3.265l-1.682,-2.931l-1.695,-2.926l-1.888,-3.256l-1.697,-2.922l-1.71,-2.918l-1.904,-3.245l-1.9,-3.235l-1.71,-2.908l-1.534,-2.583l-1.85,-3.088l-0.166,-0.279l-1.834,-3.083l-1.741,-2.898l-1.738,-2.893l-1.864,-3.072l-0.169,-0.279l-1.848,-3.068l-1.558,-2.561l-1.769,-2.883l-1.964,-3.196l-1.963,-3.192l-1.769,-2.873l-1.782,-2.867l-1.978,-3.18l-1.981,-3.18l-1.781,-2.857l-1.795,-2.853l-1.798,-2.854l-1.81,-2.848l-2.01,-3.158l-2.011,-3.158l-1.812,-2.84l-1.824,-2.835l-2.025,-3.143l-1.826,-2.832l-1.841,-2.828l-2.04,-3.132l-2.04,-3.128l-1.84,-2.818l-1.852,-2.813l-1.855,-2.813l-1.988,-2.987l-0.171,-0.259l-1.97,-2.979l-1.665,-2.498l-2,-2.974l-0.172,-0.257l-1.987,-2.972l-1.883,-2.794l-1.882,-2.787l-1.898,-2.789l-2.103,-3.086l-2.102,-3.079l-1.897,-2.779l-1.913,-2.775l-2.116,-3.068l-2.119,-3.068l-1.912,-2.765l-1.926,-2.763l-1.925,-2.757l-2.061,-2.927l-0.178,-0.253l-2.045,-2.922l-1.733,-2.456l-2.078,-2.92l-0.174,-0.245l-2.059,-2.912l-1.956,-2.741l-1.958,-2.742l-2.093,-2.907l-0.174,-0.242l-2.073,-2.896l-1.97,-2.728l-1.972,-2.73l-1.985,-2.723l-2.195,-3.009l-2.195,-3.005l-1.983,-2.711l-1.999,-2.711l-2.213,-2.997l-1.999,-2.705l-2.137,-2.868l-0.178,-0.239l-2.119,-2.86l-1.801,-2.412l-2.155,-2.862l-0.178,-0.236l-2.136,-2.854l-2.028,-2.686l-2.029,-2.684l-2.043,-2.682l-2.381,-3.121l-0.178,-0.234l-1.94,-2.557l-1.968,-2.556l-0.177,-0.232l-2.17,-2.834l-2.057,-2.666l-2.269,-2.936l-2.06,-2.663l-2.075,-2.661l-2.284,-2.925l-2.287,-2.925l-2.075,-2.651l-2.089,-2.649l-2.302,-2.914l-2.084,-2.636l-2.105,-2.64l-2.32,-2.907l-2.317,-2.9l-2.317,-2.897l-2.101,-2.624l-2.116,-2.621l-2.119,-2.622l-2.262,-2.776l-0.178,-0.219l-2.243,-2.769l-2.131,-2.609l-2.134,-2.61l-2.276,-2.762l-0.175,-0.213l-2.259,-2.758l-2.148,-2.6l-2.149,-2.599l-2.291,-2.749l-0.175,-0.211l-2.275,-2.744l-2.163,-2.589l-2.164,-2.587l-2.306,-2.735l-0.175,-0.209l-2.29,-2.731l-1.96,-2.32l-2.322,-2.726l-0.18,-0.213l-2.306,-2.722l-2.19,-2.566l-2.408,-2.818l-2.412,-2.818l-2.193,-2.56l-2.204,-2.554l-2.427,-2.808l-2.208,-2.552l-2.351,-2.695l-0.177,-0.204l-2.338,-2.695l-2.003,-2.292l-2.368,-2.688l-0.18,-0.205l-2.352,-2.684l-2.234,-2.531l-2.454,-2.776l-2.457,-2.776l-2.241,-2.529l-2.25,-2.519l-2.472,-2.766l-2.472,-2.762l-2.25,-2.51l-2.271,-2.515l-2.487,-2.752l-2.485,-2.745l-2.267,-2.502l-2.283,-2.5l-2.503,-2.738l-2.503,-2.735l-2.28,-2.487l-2.3,-2.492l-2.519,-2.724l-2.515,-2.717l-2.521,-2.721l-2.297,-2.476l-2.313,-2.474l-2.533,-2.707l-2.31,-2.465l-2.46,-2.605l-0.178,-0.19l-2.447,-2.605l-2.327,-2.459l-2.329,-2.457l-2.478,-2.597l-0.178,-0.187l-2.459,-2.589l-2.339,-2.444l-2.564,-2.676l-2.347,-2.446l-2.492,-2.579l-0.174,-0.181l-2.476,-2.575l-2.138,-2.206l-2.506,-2.569l-0.177,-0.182l-2.493,-2.567l-2.508,-2.563l-0.174,-0.179l-2.272,-2.333l-2.303,-2.334l-0.176,-0.18l-2.726,-2.776l-2.37,-2.411l-2.392,-2.414l-2.612,-2.636l-2.389,-2.406l-2.539,-2.538l-0.173,-0.174l-2.522,-2.534l-2.407,-2.401l-2.628,-2.618l-2.404,-2.392l-2.419,-2.389l-2.775,-2.738l-0.172,-0.171l-2.322,-2.301l-2.351,-2.3l-0.172,-0.168l-2.55,-2.507l-2.569,-2.507l-0.179,-0.175l-2.554,-2.504l-2.213,-2.154l-2.587,-2.5l-0.174,-0.169l-2.568,-2.493l-2.583,-2.49l-0.175,-0.169l-2.57,-2.49l-2.233,-2.146l-2.602,-2.485l-0.174,-0.166l-2.583,-2.478l-2.465,-2.347l-2.689,-2.558l-2.689,-2.554l-2.468,-2.342l-2.616,-2.465l-0.17,-0.159l-2.6,-2.461l-2.483,-2.333l-2.485,-2.332l-2.633,-2.454l-0.173,-0.161l-2.614,-2.446l-2.499,-2.323l-2.719,-2.524l-2.716,-2.518l-2.503,-2.317l-2.511,-2.309l-2.731,-2.508l-2.738,-2.511l-2.735,-2.504l-2.511,-2.297l-2.663,-2.419l-0.175,-0.159l-2.646,-2.414l-2.53,-2.292l-2.531,-2.29l-2.677,-2.405l-0.17,-0.153l-2.664,-2.404l-2.546,-2.281l-2.765,-2.475l-2.765,-2.471l-2.546,-2.273l-2.561,-2.271l-2.915,-2.581l-0.169,-0.15l-2.68,-2.383l-2.343,-2.068l-2.712,-2.378l-0.168,-0.148l-2.696,-2.374l-2.576,-2.254l-2.796,-2.442l-2.795,-2.439l-2.799,-2.438l-2.578,-2.243l-2.588,-2.237l-2.946,-2.542l-0.167,-0.144l-2.494,-2.162l-2.526,-2.162l-0.171,-0.146l-2.942,-2.53l-2.593,-2.225l-2.608,-2.224l-2.826,-2.406l-2.83,-2.406l-2.608,-2.215l-2.759,-2.327l-0.165,-0.14l-2.743,-2.323l-2.624,-2.207l-2.845,-2.39l-2.84,-2.383l-2.625,-2.199l-2.778,-2.312l-0.164,-0.137l-2.759,-2.305l-2.639,-2.19l-2.856,-2.367l-2.644,-2.189l-2.795,-2.297l-0.162,-0.134l-2.771,-2.287l-2.659,-2.18l-2.875,-2.355l-2.867,-2.345l-2.876,-2.348l-2.659,-2.169l-2.671,-2.163l-2.887,-2.335l-2.891,-2.336l-2.89,-2.332l-2.886,-2.325l-2.672,-2.15l-2.691,-2.15l-2.906,-2.32l-2.901,-2.312l-2.906,-2.313l-2.906,-2.31l-2.687,-2.133l-2.703,-2.131l-3.054,-2.405l-0.163,-0.128l-2.823,-2.233l-2.489,-1.954l-2.856,-2.227l-0.162,-0.127l-2.84,-2.224l-2.853,-2.22l-0.158,-0.123l-2.841,-2.219l-2.723,-2.112l-2.931,-2.272l-2.724,-2.107l-2.873,-2.208l-0.157,-0.121l-2.853,-2.201l-2.871,-2.2l-0.161,-0.124l-2.86,-2.2l-2.522,-1.928l-2.883,-2.189l-0.159,-0.121l-3.088,-2.353l-2.739,-2.085l-2.885,-2.182l-0.155,-0.117l-2.873,-2.181l-2.754,-2.077l-2.756,-2.075l-2.905,-2.173l-0.154,-0.115l-3.096,-2.325l-2.755,-2.066l-2.775,-2.067l-2.982,-2.218l-2.977,-2.212l-2.982,-2.212l-2.985,-2.211l-2.767,-2.047l-2.917,-2.143l-0.161,-0.119l-2.905,-2.143l-2.782,-2.039l-2.996,-2.193l-3.001,-2.193l-2.788,-2.034l-2.932,-2.126l-0.151,-0.109l-2.921,-2.126l-2.807,-2.029l-3.012,-2.174l-3.012,-2.172l-3.016,-2.171l-3.012,-2.165l-2.799,-2.009l-2.95,-2.104l-0.154,-0.11l-2.939,-2.104l-2.823,-2.007l-3.027,-2.15l-3.022,-2.143l-2.82,-1.997l-2.971,-2.09l-0.152,-0.107l-2.955,-2.087l-2.969,-2.082l-0.147,-0.104l-2.953,-2.079l-2.835,-1.982l-3.042,-2.125l-3.046,-2.125l-2.84,-1.978l-2.985,-2.066l-0.146,-0.101l-2.969,-2.062l-2.984,-2.059l-0.146,-0.1l-2.968,-2.056l-2.856,-1.965l-3.061,-2.103l-2.852,-1.957l-2.999,-2.043l-0.148,-0.102l-2.988,-2.043l-3.002,-2.041l-0.149,-0.101l-2.982,-2.034l-2.867,-1.943l-3.077,-2.082l-3.077,-2.079l-3.072,-2.073l-2.868,-1.932l-3.019,-2.021l-0.147,-0.098l-3.003,-2.018l-3.018,-2.014l-0.147,-0.098l-2.998,-2.009l-2.883,-1.918l-3.092,-2.055l-3.092,-2.051l-2.889,-1.915l-3.033,-1.996l-0.14,-0.093l-3.017,-1.992l-3.034,-1.992l-0.145,-0.095l-3.019,-1.989l-2.904,-1.901l-3.107,-2.03l-3.107,-2.027l-3.102,-2.022l-2.906,-1.89l-3.053,-1.974l-0.138,-0.089l-3.033,-1.967l-3.05,-1.966l-0.143,-0.092l-3.035,-1.963l-2.921,-1.877l-3.122,-2.003l-3.121,-2.001l-3.117,-1.994l-3.122,-1.993l-2.922,-1.864l-3.064,-1.942l-0.146,-0.092l-3.048,-1.939l-2.938,-1.856l-3.268,-2.063l-0.136,-0.085l-3.053,-1.933l-2.937,-1.848l-2.939,-1.845l-3.086,-1.926l-0.133,-0.084l-3.263,-2.043l-2.943,-1.84l-3.086,-1.917l-0.133,-0.083l-3.069,-1.913l-3.086,-1.911l-0.133,-0.083l-3.069,-1.907l-2.954,-1.824l-3.151,-1.943l-3.157,-1.944l-2.955,-1.816l-3.097,-1.892l-0.131,-0.08l-3.282,-2.011l-2.96,-1.811l-3.099,-1.884l-0.135,-0.083l-3.088,-1.884l-2.971,-1.801l-3.162,-1.913l-3.171,-1.917l-3.166,-1.91l-3.167,-1.908l-3.171,-1.907l-3.166,-1.902l-2.971,-1.782l-3.115,-1.856l-0.134,-0.08l-3.104,-1.855l-2.992,-1.778l-3.307,-1.961l-0.128,-0.076l-3.101,-1.846l-2.997,-1.772l-3.182,-1.878l-3.176,-1.872l-3.186,-1.875l-2.993,-1.76l-3.131,-1.828l-0.131,-0.076l-3.313,-1.941l-2.988,-1.748l-3.004,-1.746l-3.329,-1.931l-0.13,-0.076l-3.12,-1.816l-3.004,-1.738l-3.196,-1.846l-3.201,-1.846l-3.201,-1.843l-3.2,-1.84l-3.196,-1.834l-3.195,-1.831l-3.005,-1.719l-3.15,-1.791l-0.133,-0.075l-3.134,-1.788l-3.149,-1.785l-0.133,-0.075l-3.134,-1.782l-3.02,-1.707l-3.337,-1.882l-0.127,-0.071l-3.136,-1.775l-3.026,-1.701l-3.215,-1.805l-3.216,-1.803l-3.087,-1.727l-6.472,-3.605l-6.427,-3.576l-6.351,-3.515l-6.349,-3.502l-6.458,-3.542l-6.444,-3.532l-6.366,-3.47l-6.364,-3.457l-6.474,-3.497l-6.459,-3.486l-6.381,-3.425l-6.381,-3.414l-6.489,-3.452l-6.476,-3.442l-6.396,-3.38l-6.487,-3.417l-6.49,-3.408l-6.399,-3.348l-6.411,-3.336l-6.596,-3.421l-6.4,-3.316l-6.429,-3.304l-6.594,-3.386l-6.412,-3.282l-6.429,-3.271l-6.611,-3.353l-6.415,-3.25l-6.446,-3.239l-6.606,-3.317l-6.43,-3.217l-6.537,-3.252l-6.518,-3.24l-6.442,-3.183l-6.537,-3.218l-6.535,-3.208l-6.533,-3.195l-6.447,-3.142l-6.547,-3.173l-6.534,-3.162l-6.55,-3.152l-6.533,-3.141l-6.464,-3.089l-6.548,-3.119l-6.548,-3.107l-6.547,-3.097l-6.55,-3.086l-6.549,-3.076l-6.546,-3.063l-6.549,-3.054l-6.464,-3.004l-6.564,-3.032l-6.544,-3.02l-6.566,-3.011l-6.546,-2.999l-6.562,-2.988l-6.548,-2.978l-6.563,-2.968l-6.548,-2.956l-6.562,-2.946l-6.547,-2.935l-6.559,-2.923l-6.545,-2.913l-6.48,-2.867l-6.647,-2.93l-6.544,-2.881l-6.56,-2.87l-6.546,-2.86l-6.561,-2.85l-6.629,-2.875l-6.461,-2.792l-6.56,-2.818l-6.627,-2.843l-6.46,-2.76l-6.562,-2.787l-6.628,-2.811l-6.541,-2.765l-6.542,-2.753l-6.544,-2.744l-6.546,-2.735l-6.624,-2.757l-6.524,-2.711l-6.541,-2.701l-6.529,-2.693l-6.544,-2.682l-6.605,-2.703l-6.443,-2.626l-6.543,-2.651l-6.686,-2.704l-6.51,-2.629l-6.444,-2.587l-6.605,-2.64l-6.509,-2.598l-6.525,-2.588l-6.587,-2.609l-6.507,-2.567l-6.587,-2.587l-6.493,-2.547l-6.507,-2.537l-6.49,-2.525l-6.507,-2.516l-6.649,-2.566l-6.476,-2.496l-6.41,-2.454l-6.567,-2.504l-6.554,-2.495l-6.474,-2.455l-6.472,-2.443l-6.551,-2.464l-6.535,-2.453l-6.456,-2.413l-6.458,-2.405l-6.455,-2.393l-6.534,-2.412l-6.517,-2.402l-6.439,-2.363l-6.439,-2.353l-6.515,-2.371l-6.499,-2.361l-6.425,-2.324l-6.422,-2.313l-6.496,-2.33l-6.483,-2.32l-6.406,-2.284l-6.481,-2.3l-6.464,-2.29l-6.388,-2.253l-6.39,-2.244l-6.464,-2.26l-6.447,-2.249l-6.371,-2.214l-6.446,-2.23l-6.431,-2.219l-6.355,-2.185l-6.428,-2.199l-6.412,-2.19l-6.339,-2.155l-6.413,-2.17l-6.32,-2.134l-6.405,-2.148l-0.013,-0.005l-6.447,-2.163l-6.304,-2.105l-6.303,-2.096l-6.378,-2.11l-6.361,-2.101l-6.288,-2.067l-6.361,-2.081l-6.417,-2.095l-204.55,-66.64l129.068,-396.172l204.645,66.67Z" style="fill:#14a90c;fill-opacity:0.698039;"/></svg>