<?xml version="1.0" standalone="no"?>
<!DOCTYPE svg PUBLIC "-//W3C//DTD SVG 1.1//EN" "http://www.w3.org/Graphics/SVG/1.1/DTD/svg11.dtd">
<svg width="100%" height="100%" viewBox="0 0 3678 2305" version="1.1" xmlns="http://www.w3.org/2000/svg" xmlns:xlink="http://www.w3.org/1999/xlink" xml:space="preserve" style="fill-rule:evenodd;clip-rule:evenodd;stroke-linejoin:round;stroke-miterlimit:1;">
    <g transform="matrix(1,0,0,1,-19878,-110)">
        <g id="parking-4" transform="matrix(2.87248,0,0,2.25,19878.4,110.149)">
            <g transform="matrix(2.08676,0,0,5.15206,-116.151,-2349.03)">
                <g transform="matrix(0.516355,0,0,0.342776,217.275,407.725)">
                    <rect x="676.756" y="269.252" width="4.487" height="305.495" style="fill:black;"/>
                </g>
                <g transform="matrix(0.516355,0,0,0.342776,167.974,407.725)">
                    <rect x="676.756" y="269.252" width="4.487" height="305.495" style="fill:black;"/>
                </g>
                <g transform="matrix(-2.3627e-16,-0.975331,1.46923,-1.56845e-16,-273.988,1214.63)">
                    <rect x="678.386" y="270.211" width="1.228" height="303.577" style="fill:black;"/>
                </g>
                <g transform="matrix(0.516355,0,0,0.342776,118.674,407.725)">
                    <rect x="676.757" y="269.252" width="4.487" height="305.495" style="fill:black;"/>
                </g>
                <g transform="matrix(0.516355,0,0,0.342776,69.3729,407.725)">
                    <rect x="676.756" y="269.252" width="4.487" height="305.495" style="fill:black;"/>
                </g>
                <g transform="matrix(0.516355,0,0,0.342776,20.0721,407.725)">
                    <rect x="676.756" y="269.252" width="4.487" height="305.495" style="fill:black;"/>
                </g>
                <g transform="matrix(0.516355,0,0,0.342776,-29.2287,407.725)">
                    <rect x="676.756" y="269.252" width="4.487" height="305.495" style="fill:black;"/>
                </g>
                <g transform="matrix(0.516355,0,0,0.342776,-78.5295,407.725)">
                    <rect x="676.756" y="269.252" width="4.487" height="305.495" style="fill:black;"/>
                </g>
                <g transform="matrix(0.516355,0,0,0.342776,-127.83,407.725)">
                    <rect x="676.757" y="269.252" width="4.487" height="305.495" style="fill:black;"/>
                </g>
                <g transform="matrix(0.516355,0,0,0.342776,-177.131,407.725)">
                    <rect x="676.756" y="269.252" width="4.487" height="305.495" style="fill:black;"/>
                </g>
                <g transform="matrix(0.516355,0,0,0.342776,-226.432,407.725)">
                    <rect x="676.756" y="269.252" width="4.487" height="305.495" style="fill:black;"/>
                </g>
            </g>
            <g transform="matrix(0.126249,-3.77701e-17,-6.84244e-16,0.161177,15.9552,-71.1325)">
                <path d="M1097.11,3478.42c0,-25.127 -20.4,-45.527 -45.527,-45.527l-91.055,0c-25.128,0 -45.528,20.4 -45.528,45.527l0,91.055c0,25.128 20.4,45.528 45.528,45.528l91.055,0c25.127,0 45.527,-20.4 45.527,-45.528l0,-91.055Z" style="fill:rgb(23,16,252);"/>
            </g>
            <g transform="matrix(0.126249,-3.77701e-17,-6.84244e-16,0.161177,220.669,-337.799)">
                <path d="M1097.11,3478.42c0,-25.127 -20.4,-45.527 -45.527,-45.527l-91.055,0c-25.128,0 -45.528,20.4 -45.528,45.527l0,91.055c0,25.128 20.4,45.528 45.528,45.528l91.055,0c25.127,0 45.527,-20.4 45.527,-45.528l0,-91.055Z" style="fill:rgb(23,16,252);"/>
            </g>
            <g transform="matrix(0.126249,-3.77701e-17,-6.84244e-16,0.161177,221.713,195.534)">
                <path d="M1097.11,3478.42c0,-25.127 -20.4,-45.527 -45.527,-45.527l-91.055,0c-25.128,0 -45.528,20.4 -45.528,45.527l0,91.055c0,25.128 20.4,45.528 45.528,45.528l91.055,0c25.127,0 45.527,-20.4 45.527,-45.528l0,-91.055Z" style="fill:rgb(23,16,252);"/>
            </g>
            <g transform="matrix(0.126249,-3.77701e-17,-6.84244e-16,0.161177,941.866,-71.1325)">
                <path d="M1097.11,3478.42c0,-25.127 -20.4,-45.527 -45.527,-45.527l-91.055,0c-25.128,0 -45.528,20.4 -45.528,45.527l0,91.055c0,25.128 20.4,45.528 45.528,45.528l91.055,0c25.127,0 45.527,-20.4 45.527,-45.528l0,-91.055Z" style="fill:rgb(23,16,252);"/>
            </g>
            <g transform="matrix(0.126249,-3.77701e-17,-6.84244e-16,0.161177,736.108,195.534)">
                <path d="M1097.11,3478.42c0,-25.127 -20.4,-45.527 -45.527,-45.527l-91.055,0c-25.128,0 -45.528,20.4 -45.528,45.527l0,91.055c0,25.128 20.4,45.528 45.528,45.528l91.055,0c25.127,0 45.527,-20.4 45.527,-45.528l0,-91.055Z" style="fill:rgb(23,16,252);"/>
            </g>
            <g transform="matrix(0.126249,-3.77701e-17,-6.84244e-16,0.161177,736.108,-337.799)">
                <path d="M1097.11,3478.42c0,-25.127 -20.4,-45.527 -45.527,-45.527l-91.055,0c-25.128,0 -45.528,20.4 -45.528,45.527l0,91.055c0,25.128 20.4,45.528 45.528,45.528l91.055,0c25.127,0 45.527,-20.4 45.527,-45.528l0,-91.055Z" style="fill:rgb(23,16,252);"/>
            </g>
            <g transform="matrix(0.348131,0,0,0.444444,-1358.06,-1.01055e-13)">
                <path d="M6380.3,1855.9c349.642,-1.216 723.392,-392.492 715.699,-738c-8.522,-382.771 -349.576,-731.091 -715.699,-723.905c-375.372,7.367 -1126.26,2.105 -1477.59,9c-338.952,6.652 -701.714,304.427 -706.399,714.905c-4.136,362.323 360.737,744.17 706.399,743c377.336,-1.277 1089.38,-3.65 1477.59,-5Z" style="fill:none;stroke-width:100px;stroke:rgb(20,169,12);stroke-opacity:0.701961;"/>
            </g>
            <g transform="matrix(0.348131,0,0,0.444444,-5804.39,0)">
                <path d="M19021.4,1655.89l-12.135,0l0,-77.322c-2.921,2.786 -6.752,5.573 -11.493,8.359c-4.742,2.787 -9,4.876 -12.775,6.269l0,-11.729c6.786,-3.191 12.718,-7.056 17.797,-11.595c5.078,-4.539 8.674,-8.944 10.786,-13.213l7.82,0l0,99.231Z" style="fill:black;fill-rule:nonzero;"/>
            </g>
            <g transform="matrix(0.348131,0,0,0.444444,-5577.41,-263.516)">
                <path d="M19039.5,1644.23l0,11.662l-65.322,0c-0.09,-2.921 0.382,-5.73 1.415,-8.426c1.663,-4.45 4.326,-8.832 7.989,-13.146c3.662,-4.314 8.954,-9.303 15.875,-14.965c10.741,-8.809 17.999,-15.786 21.774,-20.932c3.776,-5.146 5.663,-10.011 5.663,-14.595c0,-4.809 -1.719,-8.865 -5.157,-12.168c-3.438,-3.303 -7.921,-4.955 -13.449,-4.955c-5.842,0 -10.516,1.753 -14.022,5.259c-3.505,3.505 -5.28,8.359 -5.325,14.561l-12.471,-1.281c0.853,-9.303 4.067,-16.393 9.64,-21.269c5.572,-4.876 13.055,-7.314 22.448,-7.314c9.483,0 16.988,2.629 22.516,7.887c5.528,5.258 8.291,11.775 8.291,19.55c0,3.955 -0.809,7.842 -2.426,11.662c-1.618,3.82 -4.304,7.842 -8.056,12.067c-3.753,4.225 -9.988,10.022 -18.707,17.392c-7.281,6.112 -11.955,10.258 -14.022,12.438c-2.067,2.18 -3.775,4.371 -5.123,6.573l48.469,0Z" style="fill:black;fill-opacity:0.9;fill-rule:nonzero;"/>
            </g>
            <g transform="matrix(0.348131,0,0,0.444444,-5786.48,-473.45)">
                <path d="M18975.8,1629.81l12.135,-1.617c1.393,6.876 3.764,11.83 7.112,14.864c3.348,3.034 7.426,4.55 12.235,4.55c5.708,0 10.528,-1.977 14.46,-5.932c3.932,-3.955 5.899,-8.853 5.899,-14.696c0,-5.573 -1.82,-10.168 -5.461,-13.786c-3.64,-3.618 -8.269,-5.426 -13.887,-5.426c-2.292,0 -5.146,0.449 -8.561,1.348l1.348,-10.651c0.809,0.09 1.461,0.134 1.955,0.134c5.168,0 9.82,-1.348 13.954,-4.044c4.135,-2.697 6.202,-6.854 6.202,-12.472c0,-4.449 -1.505,-8.134 -4.516,-11.055c-3.011,-2.921 -6.899,-4.382 -11.663,-4.382c-4.718,0 -8.651,1.483 -11.797,4.449c-3.146,2.966 -5.168,7.416 -6.067,13.348l-12.134,-2.157c1.483,-8.135 4.854,-14.438 10.112,-18.91c5.258,-4.471 11.797,-6.707 19.617,-6.707c5.393,0 10.359,1.157 14.898,3.472c4.539,2.314 8.011,5.471 10.415,9.471c2.405,4 3.607,8.247 3.607,12.741c0,4.27 -1.146,8.157 -3.438,11.662c-2.292,3.506 -5.685,6.292 -10.18,8.36c5.843,1.348 10.382,4.145 13.618,8.392c3.236,4.247 4.853,9.562 4.853,15.943c0,8.629 -3.145,15.944 -9.437,21.943c-6.292,6 -14.247,9 -23.864,9c-8.674,0 -15.876,-2.584 -21.606,-7.753c-5.73,-5.168 -9,-11.864 -9.809,-20.089Z" style="fill:black;fill-opacity:0.9;fill-rule:nonzero;"/>
            </g>
            <g transform="matrix(0.348131,0,0,0.444444,-6229.43,-469.805)">
                <path d="M19014.6,1655.89l0,-23.662l-42.874,0l0,-11.123l45.099,-64.042l9.909,0l0,64.042l13.348,0l0,11.123l-13.348,0l0,23.662l-12.134,0ZM19014.6,1621.11l0,-44.559l-30.942,44.559l30.942,0Z" style="fill:black;fill-opacity:0.9;fill-rule:nonzero;"/>
            </g>
            <g transform="matrix(0.348131,0,0,0.444444,-6443.74,-270.093)">
                <path d="M18975.7,1630.01l12.741,-1.079c0.944,6.202 3.135,10.865 6.573,13.988c3.438,3.124 7.584,4.685 12.437,4.685c5.843,0 10.786,-2.202 14.831,-6.606c4.045,-4.404 6.067,-10.247 6.067,-17.527c0,-6.921 -1.944,-12.382 -5.831,-16.382c-3.887,-3.999 -8.977,-5.999 -15.269,-5.999c-3.91,0 -7.438,0.887 -10.584,2.663c-3.146,1.775 -5.617,4.078 -7.415,6.909l-11.393,-1.483l9.573,-50.761l49.144,0l0,11.595l-39.437,0l-5.325,26.56c5.932,-4.135 12.156,-6.202 18.673,-6.202c8.629,0 15.909,2.989 21.842,8.966c5.932,5.977 8.898,13.662 8.898,23.055c0,8.943 -2.607,16.673 -7.82,23.19c-6.337,8 -14.988,11.999 -25.954,11.999c-8.988,0 -16.325,-2.516 -22.01,-7.55c-5.685,-5.033 -8.932,-11.707 -9.741,-20.021Z" style="fill:black;fill-opacity:0.9;fill-rule:nonzero;"/>
            </g>
            <g transform="matrix(0.348131,0,0,0.444444,-6235.17,9.40006)">
                <path d="M19038.7,1581.27l-12.067,0.944c-1.078,-4.764 -2.606,-8.224 -4.584,-10.381c-3.28,-3.461 -7.325,-5.191 -12.134,-5.191c-3.865,0 -7.258,1.079 -10.179,3.236c-3.82,2.786 -6.831,6.853 -9.033,12.201c-2.203,5.348 -3.349,12.966 -3.438,22.853c2.921,-4.449 6.494,-7.752 10.718,-9.909c4.225,-2.158 8.651,-3.236 13.28,-3.236c8.09,0 14.977,2.977 20.662,8.932c5.685,5.955 8.528,13.651 8.528,23.089c0,6.202 -1.337,11.965 -4.011,17.291c-2.674,5.326 -6.348,9.404 -11.022,12.235c-4.674,2.832 -9.977,4.247 -15.909,4.247c-10.112,0 -18.359,-3.719 -24.741,-11.156c-6.381,-7.438 -9.572,-19.696 -9.572,-36.774c0,-19.1 3.528,-32.987 10.584,-41.661c6.157,-7.55 14.448,-11.325 24.875,-11.325c7.775,0 14.145,2.18 19.111,6.539c4.966,4.359 7.944,10.381 8.932,18.066ZM18989.1,1623.87c0,4.18 0.888,8.18 2.663,12c1.775,3.82 4.258,6.73 7.449,8.73c3.191,1.999 6.539,2.999 10.044,2.999c5.124,0 9.528,-2.067 13.213,-6.202c3.686,-4.134 5.528,-9.752 5.528,-16.853c0,-6.831 -1.82,-12.213 -5.46,-16.145c-3.641,-3.932 -8.225,-5.899 -13.752,-5.899c-5.483,0 -10.135,1.967 -13.955,5.899c-3.82,3.932 -5.73,9.089 -5.73,15.471Z" style="fill:black;fill-opacity:0.9;fill-rule:nonzero;"/>
            </g>
        </g>
    </g>
</svg>
