<?xml version="1.0" standalone="no"?>
<!DOCTYPE svg PUBLIC "-//W3C//DTD SVG 1.1//EN" "http://www.w3.org/Graphics/SVG/1.1/DTD/svg11.dtd">
<svg width="100%" height="100%" viewBox="0 0 3677 2305" version="1.1" xmlns="http://www.w3.org/2000/svg" xmlns:xlink="http://www.w3.org/1999/xlink" xml:space="preserve" style="fill-rule:evenodd;clip-rule:evenodd;stroke-linejoin:round;stroke-miterlimit:1.41421;">
    <g transform="matrix(1,0,0,1,-25471,-85)">
        <g id="parking-5" transform="matrix(2.87248,0,0,2.25,25471,85.5482)">
            <g transform="matrix(2.08676,0,0,5.15206,-116.151,-2349.03)">
                <g transform="matrix(0.516355,0,0,0.342776,217.275,407.725)">
                    <rect x="676.756" y="269.252" width="4.487" height="305.495" style="fill:black;"/>
                </g>
                <g transform="matrix(0.516355,0,0,0.342776,167.974,407.725)">
                    <rect x="676.757" y="269.252" width="4.487" height="305.495" style="fill:black;"/>
                </g>
                <g transform="matrix(-2.3627e-16,-0.975331,1.46923,-1.56845e-16,-273.988,1214.63)">
                    <rect x="678.386" y="270.212" width="1.228" height="303.577" style="fill:black;"/>
                </g>
                <g transform="matrix(0.516355,0,0,0.342776,118.674,407.725)">
                    <rect x="676.756" y="269.252" width="4.487" height="305.495" style="fill:black;"/>
                </g>
                <g transform="matrix(0.516355,0,0,0.342776,69.3729,407.725)">
                    <rect x="676.756" y="269.252" width="4.487" height="305.495" style="fill:black;"/>
                </g>
                <g transform="matrix(0.516355,0,0,0.342776,20.0721,407.725)">
                    <rect x="676.756" y="269.252" width="4.487" height="305.495" style="fill:black;"/>
                </g>
                <g transform="matrix(0.516355,0,0,0.342776,-29.2287,407.725)">
                    <rect x="676.757" y="269.252" width="4.487" height="305.495" style="fill:black;"/>
                </g>
                <g transform="matrix(0.516355,0,0,0.342776,-78.5295,407.725)">
                    <rect x="676.756" y="269.252" width="4.487" height="305.495" style="fill:black;"/>
                </g>
                <g transform="matrix(0.516355,0,0,0.342776,-127.83,407.725)">
                    <rect x="676.756" y="269.252" width="4.487" height="305.495" style="fill:black;"/>
                </g>
                <g transform="matrix(0.516355,0,0,0.342776,-177.131,407.725)">
                    <rect x="676.756" y="269.252" width="4.487" height="305.495" style="fill:black;"/>
                </g>
                <g transform="matrix(0.516355,0,0,0.342776,-226.432,407.725)">
                    <rect x="676.756" y="269.252" width="4.487" height="305.495" style="fill:black;"/>
                </g>
            </g>
            <g transform="matrix(0.126249,-3.77701e-17,-6.84244e-16,0.161177,478.241,-234.679)">
                <path d="M1097.11,3478.42C1097.11,3453.29 1076.71,3432.89 1051.58,3432.89L960.528,3432.89C935.4,3432.89 915,3453.29 915,3478.42L915,3569.47C915,3594.6 935.4,3615 960.528,3615L1051.58,3615C1076.71,3615 1097.11,3594.6 1097.11,3569.47L1097.11,3478.42Z" style="fill:rgb(23,16,252);"/>
            </g>
            <g transform="matrix(0.126249,-3.77701e-17,-6.84244e-16,0.161177,176.108,-336.901)">
                <path d="M1097.11,3478.42C1097.11,3453.29 1076.71,3432.89 1051.58,3432.89L960.528,3432.89C935.4,3432.89 915,3453.29 915,3478.42L915,3569.47C915,3594.6 935.4,3615 960.528,3615L1051.58,3615C1076.71,3615 1097.11,3594.6 1097.11,3569.47L1097.11,3478.42Z" style="fill:rgb(23,16,252);"/>
            </g>
            <g transform="matrix(0.126249,-3.77701e-17,-6.84244e-16,0.161177,530.518,-70.2343)">
                <path d="M1097.11,3478.42C1097.11,3453.29 1076.71,3432.89 1051.58,3432.89L960.528,3432.89C935.4,3432.89 915,3453.29 915,3478.42L915,3569.47C915,3594.6 935.4,3615 960.528,3615L1051.58,3615C1076.71,3615 1097.11,3594.6 1097.11,3569.47L1097.11,3478.42Z" style="fill:rgb(23,16,252);"/>
            </g>
            <g transform="matrix(0.126249,-3.77701e-17,-6.84244e-16,0.161177,324.76,-334.821)">
                <path d="M1097.11,3478.42C1097.11,3453.29 1076.71,3432.89 1051.58,3432.89L960.528,3432.89C935.4,3432.89 915,3453.29 915,3478.42L915,3569.47C915,3594.6 935.4,3615 960.528,3615L1051.58,3615C1076.71,3615 1097.11,3594.6 1097.11,3569.47L1097.11,3478.42Z" style="fill:rgb(23,16,252);"/>
            </g>
            <g transform="matrix(0.093143,0,0,0.118912,403.782,-248.554)">
                <path d="M669.256,3426.32L669.32,3426.32L680.65,3426.33L680.719,3426.33L692.028,3426.35L692.095,3426.35L703.391,3426.38L703.461,3426.38L714.751,3426.41L714.822,3426.41L726.091,3426.45L726.163,3426.45L737.419,3426.51L737.492,3426.51L748.734,3426.57L748.809,3426.57L760.038,3426.64L760.115,3426.64L771.331,3426.72L771.408,3426.72L782.603,3426.8L782.68,3426.81L793.87,3426.9L793.95,3426.9L805.12,3427.01L805.201,3427.01L816.356,3427.12L816.436,3427.13L827.586,3427.25L827.671,3427.25L838.8,3427.39L838.885,3427.39L849.992,3427.53L850.077,3427.53L861.18,3427.69L861.269,3427.69L872.351,3427.86L872.438,3427.86L883.514,3428.03L883.605,3428.03L894.661,3428.22L894.751,3428.22L905.794,3428.42L905.888,3428.42L916.909,3428.63L917.002,3428.63L928.006,3428.85L928.081,3428.85L933.586,3428.96L933.63,3428.96L939.13,3429.08L939.18,3429.08L944.675,3429.2L944.725,3429.2L950.213,3429.32L950.263,3429.32L955.744,3429.45L955.793,3429.45L961.272,3429.57L961.319,3429.58L966.8,3429.7L966.852,3429.71L972.328,3429.84L972.38,3429.84L977.847,3429.98L977.897,3429.98L983.363,3430.12L983.413,3430.12L988.874,3430.26L988.928,3430.26L994.389,3430.4L994.439,3430.41L999.892,3430.55L999.944,3430.55L1005.4,3430.7L1005.45,3430.71L1010.9,3430.86L1010.96,3430.86L1016.4,3431.02L1016.45,3431.02L1021.89,3431.18L1021.94,3431.18L1027.38,3431.34L1027.43,3431.34L1032.87,3431.51L1032.92,3431.51L1038.35,3431.68L1038.4,3431.68L1043.83,3431.85L1043.89,3431.85L1049.31,3432.03L1049.35,3432.03L1054.77,3432.21L1054.83,3432.21L1060.25,3432.39L1060.31,3432.39L1065.71,3432.58L1065.77,3432.58L1071.17,3432.76L1071.22,3432.76L1076.63,3432.95L1076.69,3432.96L1082.09,3433.15L1082.14,3433.15L1087.53,3433.35L1087.59,3433.35L1092.98,3433.55L1093.04,3433.55L1098.43,3433.76L1098.49,3433.76L1103.87,3433.97L1103.92,3433.97L1109.31,3434.18L1109.37,3434.18L1114.74,3434.39L1114.79,3434.39L1120.16,3434.61L1120.22,3434.61L1125.59,3434.83L1125.66,3434.83L1131.02,3435.06L1131.08,3435.06L1136.44,3435.29L1136.5,3435.29L1141.85,3435.52L1141.9,3435.52L1147.26,3435.75L1147.33,3435.76L1152.67,3435.99L1152.74,3435.99L1158.08,3436.23L1158.15,3436.24L1163.48,3436.48L1163.54,3436.48L1168.87,3436.73L1168.93,3436.73L1174.27,3436.98L1174.34,3436.99L1179.66,3437.24L1179.71,3437.24L1185.04,3437.5L1185.12,3437.5L1190.43,3437.76L1190.5,3437.77L1195.8,3438.03L1195.87,3438.03L1201.18,3438.3L1201.26,3438.3L1206.56,3438.58L1206.61,3438.58L1211.92,3438.85L1212,3438.86L1217.3,3439.14L1217.36,3439.14L1222.65,3439.42L1222.72,3439.42L1228.01,3439.71L1228.07,3439.71L1233.36,3440L1233.43,3440.01L1238.71,3440.3L1238.78,3440.3L1244.06,3440.6L1244.13,3440.6L1249.41,3440.9L1249.48,3440.91L1254.74,3441.21L1254.81,3441.22L1260.08,3441.52L1260.15,3441.53L1265.41,3441.84L1265.49,3441.84L1270.74,3442.16L1270.81,3442.16L1276.06,3442.48L1276.13,3442.49L1281.38,3442.81L1281.45,3442.81L1286.7,3443.14L1286.77,3443.14L1292.02,3443.47L1292.1,3443.48L1297.33,3443.82L1297.39,3443.82L1302.63,3444.16L1302.71,3444.16L1307.94,3444.5L1308.01,3444.51L1313.23,3444.86L1313.3,3444.86L1318.52,3445.21L1318.6,3445.22L1323.82,3445.57L1323.88,3445.57L1329.1,3445.93L1329.18,3445.94L1334.39,3446.3L1334.47,3446.3L1339.67,3446.67L1339.74,3446.68L1344.94,3447.04L1345.02,3447.05L1350.22,3447.43L1350.3,3447.43L1355.49,3447.81L1355.56,3447.81L1360.74,3448.2L1360.83,3448.2L1366.01,3448.59L1366.08,3448.59L1371.27,3448.98L1371.36,3448.99L1376.52,3449.38L1376.59,3449.39L1381.76,3449.79L1381.86,3449.79L1387.02,3450.2L1387.09,3450.2L1392.25,3450.61L1392.34,3450.62L1397.49,3451.03L1397.57,3451.03L1402.72,3451.45L1402.8,3451.45L1407.95,3451.87L1408.03,3451.88L1413.18,3452.3L1413.28,3452.31L1418.42,3452.74L1418.49,3452.75L1423.62,3453.18L1423.7,3453.18L1428.83,3453.62L1428.92,3453.63L1434.05,3454.07L1434.14,3454.08L1439.26,3454.52L1439.35,3454.53L1444.47,3454.98L1444.54,3454.98L1449.66,3455.44L1449.75,3455.45L1454.86,3455.9L1454.93,3455.91L1460.04,3456.37L1460.13,3456.38L1465.24,3456.85L1465.33,3456.86L1470.43,3457.33L1470.52,3457.34L1475.6,3457.81L1475.69,3457.82L1480.77,3458.3L1480.85,3458.31L1485.94,3458.79L1486.05,3458.8L1491.13,3459.29L1491.21,3459.3L1496.28,3459.79L1496.38,3459.8L1501.44,3460.3L1501.52,3460.31L1506.59,3460.81L1506.69,3460.82L1511.75,3461.33L1511.85,3461.34L1516.9,3461.85L1516.98,3461.86L1522.04,3462.37L1522.13,3462.38L1527.19,3462.9L1527.29,3462.91L1532.33,3463.44L1532.41,3463.45L1537.45,3463.98L1537.55,3463.99L1542.59,3464.52L1542.69,3464.53L1547.71,3465.07L1547.8,3465.08L1552.83,3465.62L1552.95,3465.64L1557.96,3466.19L1558.03,3466.19L1563.05,3466.75L1563.17,3466.76L1568.18,3467.32L1568.27,3467.33L1573.26,3467.89L1573.35,3467.9L1578.37,3468.47L1578.49,3468.48L1583.49,3469.06L1583.57,3469.07L1588.57,3469.64L1588.67,3469.66L1593.66,3470.24L1593.74,3470.25L1598.73,3470.83L1598.84,3470.85L1603.82,3471.44L1603.93,3471.45L1608.91,3472.05L1609.02,3472.06L1613.98,3472.66L1614.07,3472.67L1619.04,3473.28L1619.14,3473.29L1624.1,3473.9L1624.19,3473.91L1629.16,3474.53L1629.29,3474.55L1634.24,3475.17L1634.33,3475.18L1639.27,3475.81L1639.36,3475.82L1644.32,3476.45L1644.45,3476.47L1649.39,3477.11L1649.48,3477.12L1654.4,3477.76L1654.5,3477.77L1659.44,3478.42L1659.57,3478.43L1664.5,3479.09L1664.59,3479.1L1669.51,3479.76L1669.62,3479.77L1674.53,3480.43L1674.62,3480.44L1679.54,3481.11L1679.65,3481.13L1684.57,3481.8L1684.68,3481.82L1689.59,3482.49L1689.7,3482.51L1694.6,3483.19L1694.7,3483.2L1699.59,3483.89L1699.7,3483.91L1704.6,3484.6L1704.72,3484.62L1709.6,3485.32L1709.69,3485.33L1714.57,3486.03L1714.69,3486.05L1719.57,3486.76L1719.69,3486.78L1724.56,3487.49L1724.65,3487.51L1729.52,3488.22L1729.63,3488.24L1734.51,3488.97L1734.63,3488.99L1739.49,3489.72L1739.61,3489.73L1744.45,3490.47L1744.55,3490.48L1749.4,3491.22L1749.52,3491.24L1754.37,3491.99L1754.49,3492.01L1759.33,3492.76L1759.42,3492.78L1764.27,3493.53L1764.41,3493.56L1769.23,3494.32L1769.31,3494.33L1774.14,3495.1L1774.28,3495.12L1779.11,3495.9L1779.21,3495.91L1784.02,3496.69L1784.14,3496.71L1788.96,3497.5L1789.09,3497.52L1793.9,3498.31L1794.03,3498.33L1798.82,3499.12L1798.92,3499.14L1803.72,3499.94L1803.84,3499.96L1808.63,3500.77L1808.73,3500.79L1813.53,3501.6L1813.68,3501.62L1818.46,3502.45L1818.57,3502.46L1823.33,3503.28L1823.43,3503.3L1828.22,3504.13L1828.37,3504.16L1833.15,3505L1833.25,3505.01L1838.01,3505.86L1838.14,3505.88L1842.91,3506.73L1843.03,3506.75L1847.78,3507.6L1847.89,3507.62L1852.64,3508.48L1852.77,3508.5L1857.52,3509.37L1857.65,3509.39L1862.4,3510.26L1862.54,3510.29L1867.26,3511.16L1867.37,3511.18L1872.09,3512.06L1872.23,3512.09L1876.96,3512.97L1877.1,3513L1881.82,3513.89L1881.96,3513.92L1886.67,3514.82L1886.77,3514.84L1891.48,3515.74L1891.62,3515.77L1896.33,3516.68L1896.46,3516.71L1901.15,3517.62L1901.27,3517.65L1905.98,3518.57L1906.14,3518.6L1910.84,3519.53L1910.94,3519.56L1915.61,3520.49L1915.72,3520.51L1920.42,3521.45L1920.59,3521.49L1925.27,3522.43L1925.38,3522.46L1930.04,3523.41L1930.18,3523.44L1934.86,3524.4L1935,3524.43L1939.65,3525.39L1939.76,3525.41L1944.42,3526.38L1944.56,3526.41L1949.22,3527.39L1949.36,3527.42L1954.02,3528.41L1954.16,3528.44L1958.81,3529.43L1958.95,3529.46L1963.58,3530.45L1963.69,3530.48L1968.32,3531.48L1968.47,3531.51L1973.11,3532.52L1973.25,3532.55L1977.86,3533.57L1977.97,3533.59L1982.59,3534.61L1982.73,3534.64L1987.36,3535.67L1987.5,3535.7L1992.12,3536.74L1992.27,3536.78L1996.88,3537.82L1997.03,3537.85L2001.61,3538.89L2001.73,3538.92L2006.31,3539.97L2006.46,3540.01L2011.06,3541.07L2011.21,3541.1L2015.78,3542.17L2015.9,3542.19L2020.49,3543.27L2020.67,3543.31L2025.25,3544.39L2025.37,3544.42L2029.93,3545.5L2030.08,3545.54L2034.63,3546.63L2034.76,3546.66L2039.33,3547.76L2039.51,3547.8L2044.06,3548.91L2044.18,3548.93L2048.72,3550.04L2048.88,3550.08L2053.43,3551.2L2053.58,3551.24L2058.11,3552.36L2058.23,3552.39L2062.76,3553.52L2062.92,3553.56L2067.45,3554.7L2067.61,3554.74L2072.14,3555.88L2072.29,3555.92L2076.82,3557.08L2076.98,3557.12L2081.48,3558.27L2081.6,3558.3L2086.1,3559.46L2086.26,3559.5L2090.77,3560.68L2090.93,3560.72L2095.43,3561.9L2095.59,3561.94L2100.07,3563.12L2100.19,3563.15L2104.69,3564.35L2104.89,3564.4L2109.38,3565.6L2109.5,3565.63L2113.96,3566.83L2114.12,3566.88L2118.58,3568.09L2118.71,3568.12L2123.18,3569.34L2123.39,3569.39L2127.85,3570.62L2127.98,3570.66L2132.43,3571.89L2132.59,3571.93L2137.05,3573.17L2137.21,3573.22L2141.64,3574.46L2141.76,3574.5L2146.22,3575.75L2146.43,3575.81L2150.86,3577.07L2150.99,3577.11L2155.41,3578.37L2155.57,3578.42L2159.99,3579.69L2160.11,3579.73L2164.55,3581.01L2164.76,3581.07L2169.18,3582.36L2169.3,3582.4L2173.7,3583.69L2173.87,3583.74L2178.28,3585.04L2178.45,3585.09L2182.86,3586.4L2183.03,3586.45L2187.42,3587.77L2187.6,3587.83L2191.97,3589.14L2192.1,3589.18L2196.47,3590.51L2196.64,3590.56L2201.03,3591.9L2201.2,3591.95L2205.58,3593.3L2205.75,3593.35L2210.1,3594.7L2210.23,3594.74L2214.61,3596.11L2214.82,3596.17L2219.18,3597.54L2219.31,3597.58L2223.64,3598.95L2223.82,3599.01L2228.15,3600.38L2228.28,3600.43L2232.64,3601.82L2232.86,3601.89L2237.2,3603.29L2237.33,3603.33L2241.67,3604.73L2241.89,3604.81L2246.21,3606.22L2246.35,3606.26L2250.63,3607.67L2250.76,3607.71L2255.08,3609.14L2255.31,3609.21L2259.65,3610.66L2259.83,3610.72L2264.11,3612.15L2264.25,3612.2L2268.53,3613.64L2268.7,3613.7L2273,3615.15L2273.19,3615.22L2277.48,3616.68L2277.66,3616.74L2281.92,3618.21L2282.06,3618.26L2286.32,3619.73L2286.5,3619.79L2290.8,3621.29L2291.03,3621.37L2295.3,3622.86L2295.44,3622.91L2299.68,3624.41L2299.86,3624.47L2304.09,3625.97L2304.23,3626.02L2308.49,3627.54L2308.73,3627.62L2312.97,3629.15L2313.1,3629.2L2317.32,3630.72L2317.51,3630.79L2321.75,3632.33L2321.94,3632.4L2326.17,3633.95L2326.36,3634.02L2330.58,3635.57L2330.77,3635.64L2334.96,3637.2L2335.1,3637.25L2339.29,3638.81L2339.48,3638.88L2343.72,3640.47L2343.96,3640.56L2348.13,3642.14L2348.22,3642.17L2352.39,3643.76L2352.64,3643.85L2356.86,3645.46L2357.05,3645.54L2361.21,3647.14L2361.35,3647.19L2365.53,3648.81L2365.78,3648.91L2369.95,3650.53L2370.08,3650.59L2374.22,3652.21L2374.42,3652.29L2378.59,3653.93L2378.77,3654.01L2382.93,3655.66L2383.13,3655.74L2387.25,3657.38L2387.39,3657.44L2391.51,3659.1L2391.71,3659.18L2395.89,3660.86L2396.14,3660.96L2400.26,3662.65L2400.4,3662.7L2404.5,3664.38L2404.7,3664.46L2408.8,3666.15L2408.93,3666.21L2413.06,3667.91L2413.31,3668.02L2417.45,3669.75L2417.65,3669.83L2421.72,3671.54L2421.87,3671.6L2425.94,3673.32L2426.13,3673.4L2430.23,3675.14L2430.43,3675.23L2434.52,3676.98L2434.72,3677.06L2438.8,3678.82L2439,3678.91L2443.05,3680.66L2443.19,3680.72L2447.27,3682.49L2447.53,3682.61L2451.59,3684.39L2451.73,3684.45L2455.76,3686.23L2455.96,3686.32L2460.02,3688.11L2460.22,3688.2L2464.26,3690.01L2464.47,3690.1L2468.51,3691.91L2468.71,3692L2472.75,3693.83L2472.95,3693.92L2476.95,3695.74L2477.09,3695.8L2481.12,3697.64L2481.38,3697.76L2485.39,3699.61L2485.54,3699.68L2489.52,3701.52L2489.72,3701.61L2493.73,3703.48L2493.94,3703.57L2497.94,3705.45L2498.14,3705.54L2502.1,3707.41L2502.25,3707.48L2506.24,3709.37L2506.51,3709.5L2510.48,3711.39L2510.63,3711.47L2514.61,3713.37L2514.88,3713.5L2518.84,3715.42L2518.98,3715.49L2522.92,3717.4L2523.13,3717.5L2527.09,3719.43L2527.3,3719.53L2531.25,3721.48L2531.45,3721.58L2535.36,3723.51L2535.5,3723.58L2539.45,3725.54L2539.72,3725.68L2543.69,3727.66L2543.89,3727.77L2547.79,3729.73L2547.93,3729.8L2551.82,3731.77L2552.03,3731.88L2555.94,3733.87L2556.15,3733.97L2560.06,3735.98L2560.27,3736.09L2564.18,3738.1L2564.39,3738.21L2568.28,3740.23L2568.49,3740.34L2572.35,3742.35L2572.49,3742.42L2576.38,3744.46L2576.65,3744.61L2580.53,3746.66L2580.67,3746.73L2584.55,3748.79L2584.83,3748.94L2588.69,3751L2588.83,3751.08L2592.66,3753.13L2592.86,3753.24L2596.72,3755.33L2596.93,3755.45L2600.78,3757.54L2600.99,3757.65L2604.83,3759.75L2605.04,3759.87L2608.84,3761.96L2608.98,3762.04L2612.82,3764.16L2613.1,3764.31L2616.95,3766.46L2617.16,3766.58L2620.94,3768.7L2621.09,3768.78L2624.86,3770.91L2625.07,3771.02L2628.87,3773.18L2629.09,3773.3L2632.89,3775.46L2633.1,3775.58L2636.89,3777.76L2637.1,3777.88L2640.89,3780.06L2641.1,3780.19L2644.87,3782.38L2645.08,3782.5L2648.85,3784.7L2649.07,3784.83L2652.8,3787.02L2652.93,3787.1L2656.69,3789.32L2656.98,3789.49L2660.72,3791.71L2660.87,3791.8L2664.62,3794.04L2664.9,3794.21L2668.63,3796.45L2668.78,3796.54L2672.47,3798.78L2672.68,3798.9L2676.41,3801.17L2676.63,3801.3L2680.35,3803.58L2680.56,3803.71L2684.27,3805.99L2684.48,3806.12L2688.19,3808.41L2688.4,3808.55L2692.1,3810.85L2692.31,3810.99L2695.97,3813.27L2696.1,3813.36L2699.79,3815.68L2700.08,3815.87L2703.76,3818.2L2703.9,3818.29L2707.58,3820.63L2707.86,3820.81L2711.52,3823.16L2711.66,3823.25L2715.28,3825.58L2715.49,3825.72L2719.15,3828.09L2719.37,3828.23L2723.05,3830.63L2723.35,3830.82L2726.97,3833.21L2727.11,3833.3L2730.7,3835.67L2730.92,3835.82L2734.51,3838.2L2734.64,3838.29L2738.27,3840.7L2738.56,3840.9L2742.2,3843.35L2742.42,3843.49L2746.02,3845.93L2746.24,3846.07L2749.79,3848.49L2749.93,3848.58L2753.52,3851.04L2753.82,3851.24L2757.39,3853.7L2757.53,3853.8L2761.11,3856.27L2761.4,3856.47L2764.97,3858.95L2765.1,3859.05L2768.63,3861.51L2768.85,3861.66L2772.4,3864.17L2772.61,3864.32L2776.15,3866.82L2776.33,3866.95L2778.2,3868.27L2778.42,3868.43L2780.1,3869.64L2781.79,3870.84L2782.01,3871L2783.81,3872.29L2783.87,3872.34L2785.6,3873.58L2785.68,3873.63L2787.4,3874.88L2787.46,3874.92L2789.26,3876.22L2789.49,3876.39L2791.16,3877.6L2792.93,3878.88L2793.31,3879.16L2795.05,3880.44L2796.64,3881.6L2796.7,3881.64L2798.5,3882.96L2798.73,3883.13L2800.52,3884.45L2800.58,3884.49L2802.29,3885.76L2802.36,3885.81L2804.15,3887.13L2804.38,3887.3L2806.16,3888.63L2806.23,3888.68L2807.93,3889.94L2807.99,3889.99L2809.69,3891.26L2809.75,3891.31L2811.46,3892.58L2811.53,3892.64L2813.32,3893.97L2813.53,3894.14L2815.31,3895.48L2815.37,3895.53L2817.07,3896.81L2817.13,3896.86L2818.83,3898.14L2818.89,3898.19L2820.67,3899.54L2820.9,3899.71L2822.66,3901.06L2822.73,3901.11L2824.42,3902.4L2824.48,3902.45L2826.17,3903.74L2826.23,3903.79L2828,3905.15L2828.22,3905.32L2829.98,3906.68L2830.05,3906.73L2831.73,3908.03L2831.8,3908.09L2833.47,3909.39L2833.54,3909.44L2835.22,3910.74L2835.28,3910.79L2837.04,3912.16L2837.26,3912.33L2839.01,3913.7L2839.08,3913.76L2840.76,3915.07L2840.82,3915.12L2842.57,3916.5L2842.8,3916.68L2844.55,3918.06L2844.61,3918.11L2846.27,3919.43L2846.34,3919.48L2848,3920.8L2848.06,3920.85L2849.72,3922.17L2849.79,3922.22L2851.53,3923.61L2851.76,3923.79L2853.5,3925.19L2853.57,3925.24L2855.22,3926.57L2855.28,3926.62L2856.94,3927.95L2857.01,3928.01L2858.74,3929.41L2858.97,3929.59L2860.7,3930.99L2860.75,3931.04L2862.4,3932.38L2862.47,3932.43L2864.12,3933.78L2864.19,3933.84L2865.92,3935.25L2866.14,3935.43L2867.86,3936.84L2867.92,3936.89L2869.56,3938.24L2869.63,3938.3L2871.27,3939.65L2871.34,3939.7L2873.06,3941.12L2873.28,3941.31L2874.99,3942.73L2875.06,3942.78L2876.69,3944.14L2876.75,3944.19L2878.38,3945.55L2878.45,3945.61L2880.09,3946.97L2880.15,3947.03L2881.86,3948.46L2882.09,3948.65L2883.79,3950.09L2883.85,3950.14L2885.56,3951.58L2885.79,3951.77L2887.36,3953.1L2888.93,3954.43L2889.16,3954.62L2890.86,3956.07L2890.92,3956.13L2892.54,3957.51L2892.59,3957.56L2894.21,3958.94L2894.27,3958.99L2895.98,3960.45L2896.21,3960.65L2897.9,3962.11L2897.95,3962.16L2899.56,3963.54L2899.62,3963.6L2901.32,3965.07L2901.55,3965.27L2903.09,3966.61L2904.64,3967.96L2904.87,3968.16L2906.56,3969.63L2906.62,3969.68L2908.3,3971.16L2908.53,3971.36L2910.21,3972.84L2910.27,3972.89L2911.73,3974.18L2913.37,3975.62L2913.75,3975.96L2915.37,3977.4L2916.91,3978.76L2917.14,3978.97L2918.67,3980.34L2920.29,3981.78L2920.68,3982.13L2922.29,3983.58L2923.83,3984.96L2924.05,3985.17L2925.57,3986.54L2927.1,3987.92L2927.34,3988.13L2929.08,3989.71L2929.31,3989.91L2930.82,3991.3L2932.34,3992.68L2932.57,3992.89L2934.22,3994.41L2934.28,3994.46L2935.93,3995.97L2936.16,3996.18L2937.67,3997.58L2939.18,3998.97L2939.41,3999.18L2941.06,4000.71L2941.11,4000.76L2942.68,4002.21L2942.74,4002.27L2944.38,4003.8L2944.6,4004L2946.24,4005.54L2946.3,4005.59L2947.86,4007.05L2947.92,4007.11L2949.47,4008.57L2949.53,4008.62L2951.17,4010.16L2951.39,4010.38L2952.89,4011.79L2954.38,4013.2L2954.61,4013.42L2956.32,4015.05L2956.55,4015.26L2958.03,4016.68L2959.52,4018.11L2959.75,4018.32L2961.37,4019.88L2961.42,4019.93L2962.96,4021.41L2963.02,4021.47L2964.64,4023.03L2964.87,4023.25L2966.48,4024.81L2966.54,4024.86L2968.07,4026.35L2968.13,4026.41L2969.66,4027.9L2969.72,4027.96L2971.25,4029.45L2971.3,4029.5L2972.92,4031.08L2973.15,4031.3L2974.75,4032.88L2974.8,4032.93L2976.32,4034.43L2976.38,4034.49L2977.99,4036.07L2978.21,4036.29L2979.81,4037.88L2979.86,4037.93L2981.38,4039.44L2981.44,4039.5L2982.95,4041.01L2983.01,4041.06L2984.52,4042.57L2984.58,4042.63L2986.18,4044.23L2986.4,4044.45L2987.99,4046.05L2988.04,4046.1L2989.55,4047.62L2989.61,4047.68L2991.2,4049.29L2991.42,4049.51L2992.87,4050.98L2994.32,4052.46L2994.54,4052.68L2996.2,4054.37L2996.42,4054.59L2997.86,4056.07L2999.31,4057.56L2999.53,4057.78L3001.1,4059.4L3001.15,4059.45L3002.64,4060.99L3002.7,4061.05L3004.27,4062.68L3004.49,4062.91L3005.92,4064.39L3007.36,4065.88L3007.58,4066.11L3009.23,4067.83L3009.44,4068.06L3010.86,4069.55L3012.3,4071.05L3012.51,4071.28L3014.07,4072.92L3014.13,4072.98L3015.6,4074.55L3015.65,4074.6L3017.21,4076.24L3017.43,4076.47L3018.85,4077.99L3020.27,4079.5L3020.48,4079.72L3022.11,4081.47L3022.33,4081.7L3023.74,4083.21L3025.15,4084.73L3025.36,4084.96L3026.91,4086.63L3026.96,4086.68L3028.42,4088.26L3028.47,4088.32L3030.01,4089.99L3030.23,4090.22L3031.63,4091.75L3033.03,4093.28L3033.25,4093.51L3034.86,4095.28L3035.08,4095.51L3036.47,4097.05L3037.87,4098.58L3038.09,4098.82L3039.61,4100.51L3039.66,4100.56L3041.1,4102.16L3041.15,4102.22L3042.68,4103.91L3042.89,4104.15L3044.41,4105.84L3044.47,4105.9L3045.9,4107.51L3045.95,4107.56L3047.39,4109.17L3047.44,4109.23L3048.96,4110.94L3049.17,4111.18L3050.55,4112.73L3051.93,4114.28L3052.14,4114.52L3053.73,4116.33L3053.94,4116.57L3055.3,4118.13L3056.68,4119.69L3056.89,4119.93L3058.39,4121.65L3058.44,4121.71L3059.95,4123.44L3060.16,4123.68L3061.51,4125.24L3062.88,4126.82L3063.09,4127.06L3064.58,4128.79L3064.63,4128.84L3066.04,4130.48L3066.09,4130.54L3067.59,4132.28L3067.8,4132.52L3069.28,4134.27L3069.33,4134.32L3070.74,4135.97L3070.78,4136.03L3072.19,4137.68L3072.24,4137.73L3073.72,4139.48L3073.93,4139.73L3075.41,4141.48L3075.46,4141.54L3076.86,4143.2L3076.9,4143.25L3078.3,4144.91L3078.35,4144.97L3079.83,4146.73L3080.03,4146.97L3081.5,4148.73L3081.55,4148.79L3082.94,4150.46L3082.99,4150.52L3084.46,4152.29L3084.67,4152.54L3085.99,4154.15L3087.33,4155.75L3087.53,4156L3088.99,4157.78L3089.04,4157.84L3090.5,4159.62L3090.71,4159.87L3092.16,4161.65L3092.2,4161.7L3093.58,4163.39L3093.63,4163.45L3095,4165.14L3095.04,4165.19L3096.42,4166.88L3096.47,4166.94L3097.93,4168.74L3098.13,4168.99L3099.57,4170.78L3099.62,4170.84L3100.98,4172.53L3101.02,4172.59L3102.47,4174.39L3102.67,4174.65L3104.11,4176.45L3104.16,4176.51L3105.52,4178.22L3105.56,4178.27L3106.92,4179.98L3106.97,4180.04L3108.4,4181.86L3108.6,4182.1L3109.89,4183.75L3111.2,4185.4L3111.4,4185.65L3112.91,4187.58L3113.11,4187.83L3114.4,4189.48L3115.69,4191.14L3115.89,4191.39L3117.31,4193.22L3117.35,4193.27L3118.77,4195.1L3118.97,4195.36L3120.25,4197.03L3121.54,4198.69L3121.74,4198.95L3123.15,4200.78L3123.19,4200.84L3124.6,4202.68L3124.81,4202.95L3126.07,4204.62L3127.35,4206.29L3127.55,4206.55L3128.96,4208.4L3128.99,4208.45L3130.4,4210.31L3130.6,4210.57L3132,4212.43L3132.04,4212.48L3133.35,4214.24L3133.39,4214.29L3134.71,4216.05L3134.76,4216.11L3136.08,4217.88L3136.12,4217.93L3137.51,4219.79L3137.71,4220.06L3139.1,4221.93L3139.14,4221.99L3140.45,4223.76L3140.49,4223.81L3141.88,4225.69L3142.07,4225.95L3143.45,4227.83L3143.49,4227.88L3144.79,4229.66L3144.83,4229.71L3146.14,4231.5L3146.18,4231.56L3147.56,4233.45L3147.75,4233.71L3149.12,4235.6L3149.16,4235.65L3150.46,4237.44L3150.5,4237.5L3151.8,4239.29L3151.83,4239.34L3153.2,4241.24L3153.4,4241.51L3154.76,4243.41L3154.8,4243.46L3156.08,4245.26L3156.13,4245.32L3157.42,4247.12L3157.45,4247.18L3158.81,4249.08L3159,4249.35L3160.36,4251.26L3160.4,4251.32L3161.68,4253.13L3161.72,4253.18L3162.99,4254.99L3163.03,4255.05L3164.39,4256.97L3164.58,4257.24L3165.93,4259.16L3165.96,4259.22L3167.24,4261.04L3167.27,4261.09L3168.62,4263.02L3168.8,4263.29L3170.14,4265.22L3170.18,4265.28L3171.45,4267.11L3171.48,4267.16L3172.75,4268.99L3172.79,4269.05L3174.12,4270.99L3174.31,4271.26L3175.64,4273.2L3175.67,4273.25L3176.93,4275.09L3176.97,4275.15L3178.22,4276.99L3178.26,4277.05L3179.6,4279L3179.78,4279.27L3181.1,4281.22L3181.13,4281.28L3182.38,4283.12L3182.41,4283.17L3183.66,4285.03L3183.7,4285.09L3185.03,4287.05L3185.21,4287.32L3186.52,4289.29L3186.55,4289.34L3187.79,4291.2L3187.83,4291.26L3189.14,4293.23L3189.32,4293.5L3190.5,4295.28L3191.69,4297.07L3191.87,4297.34L3193.24,4299.43L3193.43,4299.71L3194.6,4301.49L3195.77,4303.28L3195.95,4303.56L3197.25,4305.55L3197.28,4305.6L3198.58,4307.59L3198.76,4307.87L3199.92,4309.67L3201.09,4311.47L3201.27,4311.74L3202.56,4313.74L3202.59,4313.8L3203.88,4315.81L3204.05,4316.07L3205.21,4317.89L3206.38,4319.7L3206.55,4319.97L3207.9,4322.1L3208.07,4322.38L3209.22,4324.19L3210.37,4326.01L3210.55,4326.29L3211.82,4328.31L3211.86,4328.36L3213.06,4330.27L3213.09,4330.33L3214.36,4332.35L3214.53,4332.63L3215.8,4334.65L3215.83,4334.71L3217.02,4336.63L3217.05,4336.68L3218.25,4338.6L3218.28,4338.65L3219.54,4340.69L3219.72,4340.97L3220.97,4343.01L3221,4343.06L3222.19,4344.99L3222.22,4345.04L3223.4,4346.97L3223.44,4347.02L3224.69,4349.08L3224.86,4349.36L3226.11,4351.41L3226.14,4351.45L3227.32,4353.39L3227.35,4353.44L3228.59,4355.5L3228.76,4355.78L3230,4357.84L3230.03,4357.9L3231.2,4359.84L3231.23,4359.9L3232.4,4361.85L3232.44,4361.9L3233.67,4363.97L3233.84,4364.24L3234.95,4366.11L3236.13,4368.1L3236.43,4368.61L3237.6,4370.6L3238.72,4372.48L3238.88,4372.76L3240.1,4374.84L3240.13,4374.89L3241.28,4376.86L3241.31,4376.91L3242.47,4378.88L3242.49,4378.93L3243.72,4381.02L3243.88,4381.3L3245.09,4383.4L3245.12,4383.45L3246.27,4385.43L3246.3,4385.48L3247.51,4387.58L3247.67,4387.86L3248.88,4389.96L3248.91,4390.01L3250.04,4392L3250.07,4392.05L3251.21,4394.04L3251.24,4394.1L3252.45,4396.21L3252.61,4396.49L3253.8,4398.61L3253.83,4398.65L3254.96,4400.65L3254.99,4400.7L3256.19,4402.82L3256.35,4403.11L3257.53,4405.23L3257.56,4405.27L3258.68,4407.28L3258.71,4407.34L3259.84,4409.35L3259.86,4409.4L3260.98,4411.41L3261.01,4411.46L3262.2,4413.6L3262.36,4413.88L3263.54,4416.02L3263.56,4416.06L3264.74,4418.2L3264.9,4418.48L3265.95,4420.42L3267.02,4422.36L3267.17,4422.64L3268.41,4424.9L3268.56,4425.18L3269.61,4427.13L3270.67,4429.07L3270.82,4429.35L3271.99,4431.51L3272.01,4431.56L3273.11,4433.6L3273.14,4433.65L3274.3,4435.81L3274.45,4436.1L3275.61,4438.26L3275.63,4438.31L3276.72,4440.36L3276.75,4440.4L3277.84,4442.46L3277.87,4442.51L3279.02,4444.68L3279.17,4444.97L3280.32,4447.15L3280.34,4447.19L3281.43,4449.25L3281.45,4449.3L3282.53,4451.36L3282.56,4451.42L3283.71,4453.6L3283.85,4453.88L3284.99,4456.07L3285.02,4456.12L3286.16,4458.31L3286.3,4458.59L3287.32,4460.57L3288.35,4462.56L3288.49,4462.84L3289.62,4465.04L3289.65,4465.09L3290.78,4467.29L3290.92,4467.58L3291.94,4469.57L3292.95,4471.56L3293.1,4471.85L3294.28,4474.17L3294.42,4474.46L3295.43,4476.46L3296.45,4478.47L3296.59,4478.75L3297.7,4480.97L3297.72,4481.01L3298.77,4483.11L3298.8,4483.17L3299.91,4485.39L3300.05,4485.67L3301.16,4487.9L3301.18,4487.95L3302.22,4490.06L3302.25,4490.1L3303.35,4492.34L3303.49,4492.62L3304.48,4494.65L3305.48,4496.67L3305.62,4496.96L3306.78,4499.32L3306.91,4499.6L3307.9,4501.63L3308.89,4503.66L3309.02,4503.95L3310.11,4506.2L3310.13,4506.24L3311.22,4508.5L3311.36,4508.78L3312.33,4510.82L3313.32,4512.86L3313.45,4513.15L3314.59,4515.54L3314.72,4515.82L3315.69,4517.87L3316.67,4519.92L3316.8,4520.2L3317.87,4522.47L3317.89,4522.52L3318.91,4524.67L3318.93,4524.72L3320,4527L3320.13,4527.28L3321.2,4529.56L3321.22,4529.61L3322.23,4531.77L3322.24,4531.81L3323.25,4533.98L3323.27,4534.02L3324.33,4536.31L3324.47,4536.6L3325.52,4538.89L3325.54,4538.93L3326.6,4541.23L3326.72,4541.51L3327.67,4543.59L3328.63,4545.67L3328.76,4545.96L3329.8,4548.26L3329.82,4548.3L3330.87,4550.61L3330.99,4550.9L3331.93,4552.98L3332.88,4555.07L3333.01,4555.36L3334.1,4557.8L3334.23,4558.08L3335.16,4560.18L3336.1,4562.28L3336.22,4562.57L3337.25,4564.89L3337.27,4564.93L3338.25,4567.13L3338.27,4567.18L3339.3,4569.51L3339.42,4569.8L3340.44,4572.13L3340.46,4572.17L3341.43,4574.38L3341.45,4574.43L3342.47,4576.76L3342.59,4577.05L3343.61,4579.39L3343.62,4579.43L3344.58,4581.65L3344.6,4581.7L3345.56,4583.92L3345.58,4583.96L3346.59,4586.31L3346.72,4586.6L3347.72,4588.95L3347.74,4588.99L3348.69,4591.23L3348.71,4591.27L3349.66,4593.5L3349.68,4593.55L3350.68,4595.91L3350.8,4596.19L3351.8,4598.56L3351.82,4598.6L3352.81,4600.97L3352.93,4601.25L3353.82,4603.4L3354.73,4605.55L3354.85,4605.83L3355.83,4608.21L3355.85,4608.25L3356.84,4610.63L3356.95,4610.91L3357.84,4613.07L3358.79,4615.36L3359.01,4615.88L3359.94,4618.17L3360.77,4620.21L3360.79,4620.25L3361.77,4622.65L3361.88,4622.93L3362.86,4625.32L3362.87,4625.37L3363.84,4627.77L3363.96,4628.05L3364.92,4630.45L3364.94,4630.49L3365.85,4632.78L3365.87,4632.82L3366.78,4635.1L3366.8,4635.14L3367.76,4637.55L3367.87,4637.84L3368.74,4640.03L3369.66,4642.34L3369.87,4642.87L3370.78,4645.19L3371.64,4647.38L3371.75,4647.67L3372.7,4650.09L3372.71,4650.13L3373.61,4652.44L3373.63,4652.48L3374.57,4654.91L3374.68,4655.19L3375.62,4657.62L3375.64,4657.67L3376.53,4659.98L3376.54,4660.02L3377.43,4662.34L3377.45,4662.38L3378.39,4664.82L3378.49,4665.1L3379.42,4667.55L3379.44,4667.59L3380.32,4669.91L3380.34,4669.95L3381.26,4672.4L3381.37,4672.69L3382.29,4675.14L3382.31,4675.18L3383.18,4677.51L3383.2,4677.55L3384.07,4679.89L3384.09,4679.93L3385.01,4682.39L3385.11,4682.67L3386.03,4685.14L3386.04,4685.18L3386.91,4687.53L3386.92,4687.56L3387.84,4690.03L3387.94,4690.32L3388.85,4692.79L3388.86,4692.83L3389.72,4695.19L3389.73,4695.22L3390.59,4697.58L3390.61,4697.62L3391.51,4700.11L3391.61,4700.39L3392.51,4702.87L3392.52,4702.91L3393.42,4705.4L3393.52,4705.68L3394.33,4707.95L3395.14,4710.22L3395.24,4710.5L3396.13,4713L3396.15,4713.03L3397.03,4715.54L3397.13,4715.82L3397.93,4718.1L3398.74,4720.38L3398.84,4720.66L3399.76,4723.29L3399.86,4723.57L3400.66,4725.86L3401.46,4728.15L3401.55,4728.43L3402.47,4731.07L3402.57,4731.36L3403.35,4733.65L3404.15,4735.95L3404.24,4736.23L3405.11,4738.76L3405.12,4738.79L3405.94,4741.2L3405.95,4741.23L3406.82,4743.77L3406.91,4744.05L3407.77,4746.59L3407.78,4746.62L3408.59,4749.04L3408.61,4749.08L3409.46,4751.62L3409.55,4751.9L3410.33,4754.22L3411.11,4756.54L3411.2,4756.82L3412.09,4759.5L3412.18,4759.77L3413.02,4762.33L3413.03,4762.36L3413.83,4764.8L3413.84,4764.83L3414.64,4767.27L3414.65,4767.31L3415.45,4769.75L3415.46,4769.79L3416.3,4772.35L3416.39,4772.63L3417.22,4775.2L3417.23,4775.23L3418.07,4777.81L3418.16,4778.09L3418.91,4780.44L3419.66,4782.79L3419.75,4783.06L3420.61,4785.77L3420.7,4786.05L3421.45,4788.4L3422.2,4790.77L3422.28,4791.04L3423.1,4793.64L3423.11,4793.67L3423.92,4796.26L3424.01,4796.54L3424.82,4799.13L3424.83,4799.16L3425.6,4801.64L3425.61,4801.68L3426.38,4804.16L3426.39,4804.19L3427.19,4806.8L3427.28,4807.07L3428.08,4809.68L3428.09,4809.72L3428.85,4812.21L3428.86,4812.24L3429.62,4814.73L3429.63,4814.77L3430.43,4817.39L3430.51,4817.66L3431.3,4820.28L3431.31,4820.31L3432.1,4822.94L3432.18,4823.21L3432.9,4825.61L3433.62,4828.02L3433.7,4828.29L3434.52,4831.05L3434.6,4831.32L3435.31,4833.73L3436.03,4836.14L3436.11,4836.41L3436.88,4839.06L3436.89,4839.09L3437.66,4841.73L3437.74,4842.01L3438.45,4844.43L3439.15,4846.86L3439.23,4847.13L3440.03,4849.9L3440.11,4850.18L3440.81,4852.6L3441.51,4855.04L3441.58,4855.31L3442.34,4857.98L3442.35,4858.01L3443.11,4860.67L3443.19,4860.94L3443.94,4863.61L3443.95,4863.65L3444.66,4866.2L3444.67,4866.23L3445.39,4868.78L3445.39,4868.81L3446.14,4871.49L3446.22,4871.76L3446.96,4874.44L3446.97,4874.47L3447.68,4877.04L3447.69,4877.07L3448.43,4879.76L3448.5,4880.03L3449.24,4882.72L3449.24,4882.74L3449.95,4885.32L3449.95,4885.35L3450.66,4887.93L3450.66,4887.96L3451.4,4890.66L3451.47,4890.93L3452.2,4893.63L3452.2,4893.65L3452.9,4896.24L3452.91,4896.27L3453.63,4898.98L3453.7,4899.25L3454.42,4901.96L3454.43,4901.99L3455.12,4904.59L3455.12,4904.61L3455.84,4907.33L3455.91,4907.6L3456.62,4910.32L3456.63,4910.35L3457.31,4912.95L3457.31,4912.98L3457.99,4915.59L3458,4915.62L3458.71,4918.35L3458.78,4918.62L3459.48,4921.35L3459.49,4921.38L3460.16,4924L3460.17,4924.03L3460.87,4926.77L3460.93,4927.03L3461.63,4929.78L3461.64,4929.8L3462.3,4932.43L3462.31,4932.46L3463,4935.21L3463.07,4935.47L3463.7,4938L3464.37,4940.65L3464.49,4941.15L3465.14,4943.81L3465.77,4946.34L3465.84,4946.61L3466.51,4949.37L3466.52,4949.4L3467.17,4952.05L3467.18,4952.07L3467.85,4954.84L3467.92,4955.11L3468.59,4957.88L3468.6,4957.91L3469.24,4960.57L3469.24,4960.59L3469.88,4963.26L3469.89,4963.28L3470.56,4966.06L3470.62,4966.33L3471.28,4969.11L3471.29,4969.14L3471.95,4971.93L3472.01,4972.19L3472.62,4974.76L3473.22,4977.33L3473.29,4977.59L3473.97,4980.51L3474.03,4980.77L3474.62,4983.35L3475.22,4985.93L3475.29,4986.19L3475.93,4989L3475.94,4989.03L3476.58,4991.84L3476.64,4992.1L3477.28,4994.91L3477.29,4994.94L3477.9,4997.64L3477.9,4997.66L3478.51,5000.36L3478.52,5000.39L3479.16,5003.21L3479.22,5003.47L3479.85,5006.3L3479.85,5006.32L3480.46,5009.03L3480.46,5009.06L3481.09,5011.9L3481.15,5012.15L3481.77,5014.99L3481.78,5015.01L3482.37,5017.73L3482.38,5017.76L3483,5020.6L3483.06,5020.86L3483.62,5023.48L3484.2,5026.11L3484.25,5026.37L3484.89,5029.34L3484.95,5029.59L3485.55,5032.45L3485.56,5032.47L3486.14,5035.21L3486.14,5035.23L3486.72,5037.98L3486.73,5038L3487.34,5040.87L3487.39,5041.12L3487.99,5043.99L3487.99,5044.02L3488.57,5046.77L3488.57,5046.79L3489.15,5049.55L3489.15,5049.57L3489.75,5052.45L3489.8,5052.7L3490.39,5055.58L3490.4,5055.61L3490.99,5058.49L3491.04,5058.74L3491.62,5061.63L3491.63,5061.65L3492.19,5064.43L3492.19,5064.45L3492.75,5067.23L3492.75,5067.25L3493.34,5070.14L3493.39,5070.4L3493.96,5073.3L3493.97,5073.32L3494.52,5076.11L3494.52,5076.13L3495.1,5079.03L3495.15,5079.28L3495.67,5081.97L3496.22,5084.78L3496.32,5085.26L3496.86,5088.07L3497.38,5090.77L3497.43,5091.02L3497.99,5093.94L3497.99,5093.97L3498.55,5096.89L3498.6,5097.14L3499.11,5099.85L3499.62,5102.56L3499.67,5102.81L3500.24,5105.86L3500.29,5106.11L3500.79,5108.83L3501.3,5111.55L3501.35,5111.8L3501.89,5114.74L3501.9,5114.76L3502.44,5117.71L3502.49,5117.96L3503.02,5120.92L3503.03,5120.94L3504.07,5126.68L3504.09,5126.83L3505.15,5132.69L3505.19,5132.96L3506.22,5138.78L3506.23,5138.82L3507.26,5144.66L3507.3,5144.92L3508.33,5150.89L3508.38,5151.15L3509.38,5157.01L3509.38,5157.05L3510.38,5162.92L3510.42,5163.18L3511.4,5169.07L3511.41,5169.11L3512.4,5175.06L3512.46,5175.44L3513.43,5181.41L3513.43,5181.44L3514.38,5187.31L3514.41,5187.46L3515.37,5193.45L3515.41,5193.71L3516.35,5199.72L3516.38,5199.87L3517.31,5205.89L3517.35,5206.15L3518.27,5212.13L3518.27,5212.16L3519.18,5218.15L3519.22,5218.41L3520.13,5224.47L3520.15,5224.61L3521.04,5230.63L3521.06,5230.77L3521.95,5236.86L3521.99,5237.11L3522.86,5243.16L3522.86,5243.19L3523.73,5249.24L3523.76,5249.5L3524.63,5255.68L3524.67,5255.93L3525.5,5262.02L3525.51,5262.05L3526.34,5268.14L3526.38,5268.39L3527.21,5274.56L3527.23,5274.7L3528.04,5280.82L3528.06,5280.96L3528.87,5287.1L3528.88,5287.24L3529.69,5293.44L3529.72,5293.69L3530.51,5299.91L3530.53,5300.05L3531.31,5306.22L3531.32,5306.36L3532.1,5312.61L3532.13,5312.85L3532.88,5319.06L3532.89,5319.08L3533.64,5325.3L3533.67,5325.54L3534.42,5331.88L3534.45,5332.13L3535.17,5338.37L3535.18,5338.4L3535.9,5344.65L3535.93,5344.9L3536.64,5351.22L3536.66,5351.36L3537.36,5357.64L3537.37,5357.77L3538.07,5364.12L3538.1,5364.36L3538.78,5370.73L3538.8,5370.86L3539.47,5377.19L3539.48,5377.32L3540.14,5383.66L3540.16,5383.79L3540.82,5390.19L3540.84,5390.43L3541.48,5396.8L3541.49,5396.82L3542.13,5403.25L3542.16,5403.59L3542.79,5410.04L3542.79,5410.06L3543.41,5416.47L3543.43,5416.7L3544.04,5423.18L3544.05,5423.3L3544.65,5429.74L3544.66,5429.86L3545.25,5436.31L3545.26,5436.44L3545.84,5442.95L3545.86,5443.18L3546.43,5449.71L3546.45,5449.84L3547.01,5456.38L3547.03,5456.61L3547.57,5463.11L3547.57,5463.13L3548.12,5469.65L3548.13,5469.88L3548.67,5476.46L3548.68,5476.58L3549.2,5483.18L3549.22,5483.41L3549.72,5489.97L3549.72,5489.98L3550.23,5496.56L3550.25,5496.78L3550.75,5503.47L3550.76,5503.69L3551.24,5510.3L3551.24,5510.31L3551.72,5516.93L3551.73,5517.15L3552.2,5523.83L3552.2,5523.95L3552.66,5530.64L3552.68,5530.86L3553.11,5537.52L3553.12,5537.53L3553.55,5544.2L3553.57,5544.42L3554,5551.21L3554.01,5551.43L3554.42,5558.13L3554.42,5558.14L3554.83,5564.86L3554.84,5565.07L3555.24,5571.85L3555.24,5571.97L3555.63,5578.76L3555.65,5578.97L3556.02,5585.78L3556.03,5585.89L3556.39,5592.66L3556.4,5592.78L3556.75,5599.56L3556.76,5599.67L3557.11,5606.52L3557.12,5606.73L3557.46,5613.6L3557.46,5613.71L3557.79,5620.53L3557.79,5620.64L3558.11,5627.48L3558.12,5627.59L3558.43,5634.5L3558.44,5634.71L3558.74,5641.63L3558.74,5641.74L3559.04,5648.67L3559.05,5648.88L3559.32,5655.83L3559.33,5655.93L3559.59,5662.85L3559.6,5662.95L3559.86,5669.88L3559.86,5669.99L3560.11,5676.98L3560.12,5677.18L3560.36,5684.19L3560.36,5684.29L3560.59,5691.26L3560.6,5691.37L3560.82,5698.4L3560.83,5698.6L3561.04,5705.65L3561.04,5705.76L3561.24,5712.77L3561.24,5712.87L3561.43,5719.9L3561.44,5720L3561.62,5727.09L3561.63,5727.29L3561.8,5734.45L3561.81,5734.65L3561.96,5741.72L3562.12,5748.81L3562.12,5749.01L3562.26,5756.15L3562.27,5756.26L3562.4,5763.37L3562.4,5763.47L3562.53,5770.65L3562.53,5770.84L3562.64,5778.03L3562.64,5778.14L3562.75,5785.34L3562.75,5785.54L3562.84,5792.76L3562.84,5792.86L3562.92,5800.04L3562.92,5800.14L3563,5807.34L3563,5807.44L3563.07,5814.7L3563.07,5814.9L3563.12,5822.17L3563.12,5822.27L3563.16,5829.52L3563.17,5829.61L3563.2,5836.92L3563.2,5837.11L3563.23,5844.43L3563.23,5844.53L3563.24,5851.8L3563.24,5851.85L3563.28,5882.16L3563.34,5913.22L3563.4,5945.1L3563.4,5945.1L3563.47,5977.74L3563.55,6011.11L3563.64,6045.25L3563.64,6045.25L3563.72,6080.07L3563.82,6115.54L3563.94,6151.7L3563.94,6151.7L3564.06,6188.52L3564.18,6225.91L3564.32,6263.92L3564.32,6263.92L3564.46,6302.5L3564.61,6341.62L3564.61,6341.63L3564.76,6381.28L3564.93,6421.42L3565.11,6462.06L3565.29,6503.17L3565.29,6503.18L3565.47,6544.71L3565.67,6586.65L3565.87,6628.99L3566.09,6671.71L3566.31,6714.78L3566.53,6758.19L3566.53,6758.19L3566.76,6801.89L3567,6845.86L3567.25,6890.12L3567.49,6934.6L3567.76,6979.29L3568.03,7024.2L3568.3,7069.28L3568.57,7114.49L3568.87,7159.83L3569.16,7205.3L3569.46,7250.84L3569.76,7296.44L3570.08,7342.09L3570.39,7387.75L3570.72,7433.4L3571.05,7479.04L3571.38,7524.62L3571.73,7570.12L3572.08,7615.55L3572.43,7660.85L3572.79,7706.02L3573.16,7751.03L3573.53,7795.86L3573.91,7840.49L3574.29,7884.88L3574.68,7929.03L3575.07,7972.94L3575.47,8016.52L3575.88,8059.79L3576.28,8102.74L3576.7,8145.33L3577.12,8187.53L3577.55,8229.32L3577.98,8270.72L3578.41,8311.65L3578.85,8352.1L3579.29,8392.06L3579.74,8431.52L3580.19,8470.44L3580.43,8489.68L3580.43,8489.71L3582.86,8695.73L3209.13,8700.15L3206.69,8494.17L3206.46,8474.89L3206.46,8474.85L3206.01,8435.84L3206.01,8435.83L3205.55,8396.3L3205.55,8396.27L3205.11,8356.22L3205.11,8356.19L3204.67,8315.65L3204.67,8315.62L3204.24,8274.63L3204.24,8274.62L3203.81,8233.19L3203.81,8233.18L3203.38,8191.31L3203.38,8191.27L3202.96,8149L3202.96,8148.99L3202.54,8106.35L3202.54,8106.33L3202.13,8063.34L3202.13,8063.33L3201.72,8019.99L3201.72,8019.95L3201.33,7976.31L3201.33,7976.3L3200.93,7932.38L3200.93,7932.37L3200.54,7888.17L3200.54,7888.13L3200.16,7843.68L3200.16,7843.67L3199.78,7799.01L3199.78,7798.99L3199.41,7754.11L3199.41,7754.09L3199.04,7709.04L3199.04,7709.04L3198.68,7663.82L3198.68,7663.79L3198.33,7618.44L3198.33,7618.44L3197.98,7572.98L3197.98,7572.97L3197.63,7527.41L3197.63,7527.39L3197.3,7481.77L3197.3,7481.75L3196.97,7436.09L3196.97,7436.09L3196.64,7390.39L3196.64,7390.36L3196.33,7344.66L3196.01,7298.98L3196.01,7298.97L3195.7,7253.33L3195.7,7253.31L3195.41,7207.73L3195.41,7207.72L3195.11,7162.23L3194.82,7116.85L3194.82,7116.82L3194.54,7071.55L3194.54,7071.54L3194.27,7026.44L3194,6981.52L3194,6981.5L3193.74,6936.76L3193.74,6936.73L3193.49,6892.21L3193.24,6847.94L3193.24,6847.92L3193,6803.9L3193,6803.87L3192.78,6760.13L3192.55,6716.71L3192.55,6716.7L3192.33,6673.59L3192.33,6673.58L3192.12,6630.83L3192.12,6630.82L3191.91,6588.43L3191.91,6588.42L3191.72,6546.42L3191.72,6546.39L3191.53,6504.82L3191.35,6463.7L3191.35,6463.69L3191.18,6423.01L3191.18,6423L3191.01,6382.8L3191.01,6382.77L3190.86,6343.08L3190.7,6303.92L3190.7,6303.89L3190.56,6265.27L3190.42,6227.23L3190.42,6227.2L3190.3,6189.74L3190.3,6189.72L3190.18,6152.89L3190.07,6116.69L3190.07,6116.66L3189.96,6081.1L3189.96,6081.06L3189.88,6046.2L3189.79,6012.05L3189.79,6012.03L3189.71,5978.58L3189.71,5978.55L3189.64,5945.86L3189.58,5913.94L3189.58,5913.9L3189.53,5882.75L3189.53,5882.73L3189.48,5852.48L3189.47,5845.43L3189.45,5838.54L3189.41,5831.66L3189.37,5824.71L3189.32,5817.86L3189.26,5811.03L3189.19,5804.13L3189.11,5797.24L3189.02,5790.46L3188.93,5783.7L3188.82,5776.95L3188.7,5770.22L3188.57,5763.41L3188.44,5756.71L3188.29,5749.93L3188.14,5743.17L3187.99,5736.62L3187.81,5729.99L3187.63,5723.27L3187.44,5716.57L3187.24,5709.99L3187.03,5703.42L3186.81,5696.77L3186.59,5690.23L3186.35,5683.71L3186.11,5677.11L3185.85,5670.52L3185.59,5664.05L3185.32,5657.6L3185.04,5651.16L3184.75,5644.73L3184.45,5638.22L3184.14,5631.73L3183.83,5625.36L3183.5,5619L3183.16,5612.55L3182.82,5606.12L3182.47,5599.81L3182.11,5593.51L3181.74,5587.23L3181.35,5580.86L3180.97,5574.51L3180.58,5568.38L3180.16,5562.06L3179.75,5555.76L3179.32,5549.57L3178.89,5543.4L3178.45,5537.15L3177.99,5530.9L3177.55,5524.89L3177.07,5518.68L3176.59,5512.48L3176.11,5506.4L3175.62,5500.35L3175.11,5494.2L3174.59,5488.06L3174.08,5482.05L3173.55,5476.05L3173.01,5470.07L3172.46,5464L3171.9,5457.94L3171.34,5452.01L3170.76,5445.98L3170.19,5440.08L3169.6,5434.19L3169,5428.22L3168.39,5422.36L3167.77,5416.41L3167.14,5410.48L3166.52,5404.66L3165.88,5398.87L3165.22,5392.98L3164.57,5387.22L3163.89,5381.36L3163.22,5375.52L3162.55,5369.91L3161.85,5364.1L3161.14,5358.3L3160.44,5352.63L3159.71,5346.86L3159,5341.22L3158.26,5335.6L3157.51,5329.88L3156.76,5324.17L3156,5318.59L3155.22,5312.92L3154.45,5307.26L3153.68,5301.83L3152.88,5296.2L3152.07,5290.59L3151.27,5285.1L3150.44,5279.51L3149.63,5274.05L3148.78,5268.5L3147.94,5262.96L3147.09,5257.54L3146.24,5252.15L3145.38,5246.76L3144.48,5241.17L3143.61,5235.82L3142.72,5230.48L3141.82,5225.04L3140.9,5219.62L3139.98,5214.21L3139.08,5209.05L3138.14,5203.67L3137.19,5198.31L3136.25,5193.07L3135.26,5187.61L3134.8,5185.08L3134.33,5182.54L3133.87,5180L3133.37,5177.34L3133.33,5177.13L3132.84,5174.47L3132.41,5172.17L3131.9,5169.52L3131.86,5169.31L3131.36,5166.67L3130.88,5164.15L3130.4,5161.64L3129.89,5159L3129.85,5158.79L3129.39,5156.39L3128.91,5154L3128.87,5153.79L3128.36,5151.16L3127.87,5148.67L3127.33,5145.94L3126.84,5143.46L3126.34,5140.98L3125.79,5138.26L3125.25,5135.56L3124.75,5133.09L3124.24,5130.62L3123.74,5128.15L3123.22,5125.69L3122.66,5123L3122.1,5120.32L3121.59,5117.86L3121.08,5115.42L3120.51,5112.74L3119.94,5110.07L3119.42,5107.64L3118.95,5105.44L3118.39,5102.88L3118.35,5102.67L3117.8,5100.12L3117.27,5097.7L3116.69,5095.05L3116.16,5092.63L3115.62,5090.23L3115.03,5087.59L3114.5,5085.18L3113.96,5082.79L3113.36,5080.16L3112.77,5077.53L3112.22,5075.14L3111.68,5072.76L3111.13,5070.38L3110.55,5067.87L3110.5,5067.66L3109.92,5065.15L3109.42,5063.02L3108.83,5060.53L3108.78,5060.32L3108.2,5057.82L3107.64,5055.46L3107.08,5053.11L3106.51,5050.76L3105.89,5048.17L3105.27,5045.59L3104.7,5043.25L3104.13,5040.92L3103.5,5038.35L3102.93,5036.02L3102.32,5033.56L3102.27,5033.35L3101.72,5031.13L3101.16,5028.92L3101.11,5028.71L3100.5,5026.26L3099.92,5023.95L3099.28,5021.4L3098.69,5019.1L3098.1,5016.8L3097.45,5014.26L3096.86,5011.97L3096.27,5009.68L3095.61,5007.16L3094.95,5004.63L3094.36,5002.35L3093.76,5000.08L3093.1,4997.57L3092.49,4995.3L3091.89,4993.04L3091.22,4990.53L3090.61,4988.28L3090,4986.02L3089.32,4983.53L3088.64,4981.04L3088.03,4978.8L3087.41,4976.56L3086.73,4974.08L3086.11,4971.85L3085.49,4969.62L3084.8,4967.15L3084.1,4964.69L3083.48,4962.47L3082.85,4960.26L3082.22,4958.05L3081.55,4955.7L3081.49,4955.49L3080.82,4953.15L3080.25,4951.19L3079.57,4948.86L3079.51,4948.65L3078.83,4946.32L3078.19,4944.13L3077.55,4941.94L3076.87,4939.62L3076.8,4939.41L3076.12,4937.09L3075.55,4935.15L3074.85,4932.85L3074.79,4932.64L3074.1,4930.33L3073.45,4928.16L3072.8,4926L3072.14,4923.84L3071.41,4921.44L3070.68,4919.05L3070.02,4916.9L3069.35,4914.75L3068.61,4912.37L3067.88,4909.99L3067.21,4907.85L3066.54,4905.72L3065.87,4903.59L3065.15,4901.33L3065.09,4901.12L3064.37,4898.86L3063.78,4896.99L3063.05,4894.73L3062.98,4894.52L3062.26,4892.27L3061.58,4890.17L3060.9,4888.06L3060.22,4885.96L3059.45,4883.62L3058.68,4881.28L3057.92,4878.95L3057.23,4876.86L3056.62,4875.02L3055.88,4872.8L3055.81,4872.59L3055.07,4870.38L3054.37,4868.3L3053.59,4865.99L3052.9,4863.92L3052.19,4861.86L3051.41,4859.55L3050.7,4857.5L3049.95,4855.31L3049.87,4855.09L3049.12,4852.9L3048.5,4851.1L3047.74,4848.92L3047.66,4848.71L3046.91,4846.53L3046.28,4844.74L3045.51,4842.56L3045.44,4842.36L3044.67,4840.19L3043.95,4838.16L3043.23,4836.14L3042.46,4833.98L3042.38,4833.77L3041.62,4831.61L3040.89,4829.6L3040.16,4827.59L3039.43,4825.58L3038.62,4823.34L3037.8,4821.09L3037.07,4819.09L3036.33,4817.1L3035.5,4814.87L3034.77,4812.88L3034.02,4810.89L3033.19,4808.67L3032.36,4806.45L3031.62,4804.48L3030.87,4802.51L3030.03,4800.3L3029.29,4798.33L3028.53,4796.37L3027.69,4794.17L3026.84,4791.97L3026.09,4790.02L3025.33,4788.07L3024.48,4785.89L3023.72,4783.94L3022.9,4781.86L3022.82,4781.66L3022.1,4779.83L3021.38,4778L3021.3,4777.79L3020.48,4775.73L3019.71,4773.8L3018.84,4771.63L3017.98,4769.47L3017.21,4767.55L3016.43,4765.64L3015.66,4763.74L3014.88,4761.83L3013.94,4759.54L3013.86,4759.34L3013.13,4757.54L3012.39,4755.74L3012.3,4755.54L3011.47,4753.51L3010.68,4751.61L3009.9,4749.73L3009.05,4747.7L3008.97,4747.51L3008.12,4745.48L3007.33,4743.6L3006.54,4741.73L3005.75,4739.86L3004.85,4737.75L3003.95,4735.64L3003.15,4733.78L3002.35,4731.92L3001.45,4729.82L3000.54,4727.73L2999.74,4725.88L2998.94,4724.03L2998.03,4721.95L2997.22,4720.11L2996.41,4718.27L2995.49,4716.2L2994.68,4714.37L2993.8,4712.4L2993.71,4712.2L2992.84,4710.23L2992.13,4708.65L2991.24,4706.69L2991.15,4706.49L2990.28,4704.54L2989.45,4702.73L2988.63,4700.91L2987.74,4698.97L2987.65,4698.77L2986.76,4696.83L2985.94,4695.03L2985.11,4693.23L2984.28,4691.44L2983.33,4689.4L2982.39,4687.38L2981.56,4685.59L2980.72,4683.81L2979.77,4681.8L2978.93,4680.02L2978.02,4678.1L2977.93,4677.91L2977.03,4676L2976.3,4674.47L2975.38,4672.57L2975.29,4672.37L2974.38,4670.47L2973.53,4668.71L2972.68,4666.96L2971.76,4665.07L2971.67,4664.87L2970.75,4662.98L2970.01,4661.47L2969.09,4659.59L2968.99,4659.4L2968.07,4657.52L2967.21,4655.78L2966.24,4653.81L2965.38,4652.07L2964.51,4650.35L2963.53,4648.39L2962.67,4646.66L2961.73,4644.8L2961.63,4644.62L2960.7,4642.76L2959.95,4641.28L2959.01,4639.43L2958.91,4639.24L2957.97,4637.39L2957.1,4635.69L2956.22,4633.98L2955.27,4632.14L2955.17,4631.96L2954.22,4630.12L2953.35,4628.43L2952.47,4626.74L2951.58,4625.05L2950.58,4623.14L2949.57,4621.22L2948.68,4619.54L2947.8,4617.86L2946.78,4615.96L2945.76,4614.05L2944.88,4612.39L2943.98,4610.72L2942.96,4608.82L2942.07,4607.17L2941.09,4605.37L2940.99,4605.19L2940.02,4603.4L2939.25,4601.98L2938.27,4600.19L2938.17,4600.01L2937.19,4598.22L2936.29,4596.58L2935.38,4594.94L2934.47,4593.31L2933.43,4591.44L2932.39,4589.58L2931.36,4587.72L2930.44,4586.1L2929.53,4584.48L2928.49,4582.63L2927.57,4581.01L2926.65,4579.4L2925.6,4577.56L2924.55,4575.72L2923.63,4574.11L2922.7,4572.51L2921.64,4570.69L2920.72,4569.09L2919.79,4567.5L2918.72,4565.68L2917.66,4563.86L2916.73,4562.27L2915.71,4560.55L2915.61,4560.37L2914.73,4558.88L2913.84,4557.39L2913.74,4557.22L2912.72,4555.5L2911.78,4553.93L2910.7,4552.13L2909.62,4550.34L2908.68,4548.78L2907.74,4547.22L2906.65,4545.43L2905.71,4543.87L2904.76,4542.32L2903.67,4540.55L2902.58,4538.77L2901.63,4537.23L2900.67,4535.69L2899.58,4533.92L2898.48,4532.16L2897.53,4530.62L2896.56,4529.09L2895.46,4527.34L2894.5,4525.81L2893.45,4524.15L2893.34,4523.98L2892.29,4522.32L2891.47,4521.02L2890.4,4519.37L2890.3,4519.2L2889.24,4517.55L2888.27,4516.04L2887.3,4514.53L2886.24,4512.89L2886.12,4512.72L2885.07,4511.08L2884.09,4509.58L2883.12,4508.08L2882.04,4506.45L2881.93,4506.28L2880.87,4504.65L2880.03,4503.38L2878.95,4501.75L2878.84,4501.59L2877.77,4499.97L2876.78,4498.49L2875.65,4496.79L2874.66,4495.31L2873.67,4493.84L2872.53,4492.15L2871.39,4490.46L2870.4,4488.99L2869.4,4487.52L2868.26,4485.85L2867.11,4484.17L2866.11,4482.71L2865.11,4481.26L2863.96,4479.59L2862.81,4477.93L2861.81,4476.48L2860.8,4475.03L2859.64,4473.38L2858.63,4471.94L2857.62,4470.5L2856.46,4468.85L2855.29,4467.21L2854.28,4465.78L2853.26,4464.34L2852.09,4462.71L2850.92,4461.08L2849.9,4459.65L2848.88,4458.23L2847.7,4456.61L2846.53,4454.99L2845.5,4453.57L2844.47,4452.17L2843.29,4450.56L2842.11,4448.94L2841.08,4447.54L2840.05,4446.14L2838.86,4444.53L2837.82,4443.14L2836.78,4441.75L2835.59,4440.15L2834.4,4438.56L2833.2,4436.97L2832.16,4435.59L2831.12,4434.21L2830.07,4432.83L2828.92,4431.32L2828.8,4431.17L2827.66,4429.67L2826.61,4428.3L2825.56,4426.93L2824.4,4425.43L2824.29,4425.29L2823.14,4423.8L2822.09,4422.44L2821.03,4421.07L2819.86,4419.59L2819.75,4419.44L2818.6,4417.96L2817.69,4416.81L2816.53,4415.33L2816.41,4415.19L2815.25,4413.71L2814.18,4412.36L2812.96,4410.82L2811.73,4409.28L2810.67,4407.95L2809.59,4406.61L2808.36,4405.07L2807.28,4403.74L2806.21,4402.41L2804.97,4400.89L2803.73,4399.37L2802.5,4397.85L2801.42,4396.53L2800.34,4395.21L2799.25,4393.89L2798.06,4392.45L2797.94,4392.31L2796.76,4390.88L2795.67,4389.57L2794.42,4388.07L2793.33,4386.76L2792.23,4385.45L2790.98,4383.97L2789.72,4382.47L2788.63,4381.18L2787.53,4379.89L2786.27,4378.4L2785,4376.92L2783.91,4375.63L2782.8,4374.35L2781.53,4372.88L2780.42,4371.59L2779.2,4370.19L2779.09,4370.06L2777.88,4368.66L2776.77,4367.39L2775.66,4366.11L2774.43,4364.72L2774.32,4364.59L2773.1,4363.2L2772.15,4362.12L2770.92,4360.73L2770.8,4360.6L2769.58,4359.22L2768.46,4357.96L2767.17,4356.52L2765.88,4355.08L2764.76,4353.83L2763.64,4352.58L2762.34,4351.14L2761.21,4349.89L2759.97,4348.53L2759.86,4348.41L2758.62,4347.05L2757.65,4345.98L2756.4,4344.62L2756.29,4344.5L2755.04,4343.15L2753.9,4341.91L2752.6,4340.5L2751.46,4339.27L2750.2,4337.92L2750.09,4337.8L2748.84,4336.46L2747.86,4335.4L2746.59,4334.06L2746.49,4333.95L2745.23,4332.61L2744.08,4331.39L2742.76,4330L2741.61,4328.78L2740.34,4327.45L2740.23,4327.34L2738.97,4326.01L2737.97,4324.97L2736.7,4323.65L2736.59,4323.54L2735.32,4322.22L2734.16,4321.02L2732.82,4319.64L2731.66,4318.44L2730.38,4317.13L2730.27,4317.02L2729,4315.71L2727.99,4314.68L2726.7,4313.37L2726.59,4313.27L2725.31,4311.97L2724.14,4310.78L2722.8,4309.43L2721.61,4308.24L2720.43,4307.06L2719.08,4305.71L2717.73,4304.37L2716.39,4303.03L2715.2,4301.85L2714.02,4300.68L2712.66,4299.35L2711.47,4298.18L2710.28,4297.01L2708.91,4295.68L2707.56,4294.36L2706.19,4293.04L2705,4291.88L2703.8,4290.72L2702.43,4289.41L2701.23,4288.25L2699.91,4286.99L2699.8,4286.89L2698.48,4285.63L2697.45,4284.65L2696.12,4283.39L2696.01,4283.29L2694.69,4282.04L2693.47,4280.9L2692.1,4279.6L2690.72,4278.31L2689.51,4277.17L2688.28,4276.04L2686.9,4274.75L2685.68,4273.62L2684.34,4272.39L2684.23,4272.28L2682.9,4271.06L2681.67,4269.93L2680.44,4268.81L2679.1,4267.58L2678.99,4267.48L2677.65,4266.26L2676.59,4265.29L2675.24,4264.08L2675.12,4263.98L2673.78,4262.76L2672.43,4261.55L2672.33,4261.46L2671.14,4260.39L2669.95,4259.33L2669.84,4259.23L2668.49,4258.02L2667.13,4256.82L2667.03,4256.73L2665.84,4255.66L2664.63,4254.61L2664.53,4254.52L2663.01,4253.17L2661.76,4252.08L2660.51,4250.98L2659.26,4249.89L2657.89,4248.69L2657.78,4248.6L2656.41,4247.41L2655.16,4246.33L2653.73,4245.09L2652.47,4244L2651.21,4242.93L2649.78,4241.7L2648.34,4240.48L2647.08,4239.4L2645.69,4238.22L2645.59,4238.13L2644.21,4236.97L2642.94,4235.9L2641.66,4234.82L2640.38,4233.75L2638.94,4232.54L2637.5,4231.34L2636.05,4230.14L2634.77,4229.07L2633.49,4228.01L2632.04,4226.82L2630.59,4225.63L2629.3,4224.57L2628,4223.51L2626.56,4222.33L2625.1,4221.15L2623.8,4220.09L2622.5,4219.05L2621.04,4217.87L2619.57,4216.69L2618.28,4215.65L2616.97,4214.61L2615.5,4213.44L2614.03,4212.27L2612.56,4211.11L2611.25,4210.07L2609.93,4209.04L2608.47,4207.89L2607.15,4206.86L2605.82,4205.82L2604.34,4204.67L2602.86,4203.52L2601.38,4202.38L2600.06,4201.36L2598.73,4200.33L2597.24,4199.19L2595.75,4198.05L2594.42,4197.04L2593.09,4196.03L2591.59,4194.9L2590.1,4193.77L2588.76,4192.75L2587.41,4191.75L2585.92,4190.63L2584.41,4189.5L2582.9,4188.38L2581.56,4187.38L2580.22,4186.39L2578.71,4185.27L2577.36,4184.28L2576,4183.28L2574.36,4182.09L2574.27,4182.02L2572.97,4181.07L2571.66,4180.11L2571.57,4180.05L2570.1,4178.98L2568.73,4177.99L2567.21,4176.9L2565.69,4175.8L2564.31,4174.82L2562.83,4173.76L2562.75,4173.7L2561.27,4172.64L2560.01,4171.74L2557.07,4169.66L2554.15,4167.61L2551.15,4165.52L2548.23,4163.48L2545.29,4161.45L2542.35,4159.43L2539.4,4157.41L2536.38,4155.36L2533.42,4153.36L2530.53,4151.41L2527.55,4149.43L2524.49,4147.4L2521.43,4145.38L2518.44,4143.41L2515.52,4141.51L2512.51,4139.56L2509.42,4137.56L2506.4,4135.62L2503.37,4133.69L2500.34,4131.77L2497.29,4129.86L2494.17,4127.9L2491.12,4126L2488.06,4124.11L2484.99,4122.22L2481.91,4120.34L2478.83,4118.46L2475.67,4116.55L2472.58,4114.69L2469.47,4112.84L2466.37,4110.99L2463.24,4109.15L2460.05,4107.27L2456.93,4105.45L2453.79,4103.62L2450.64,4101.81L2447.49,4100L2444.34,4098.2L2441.17,4096.41L2437.92,4094.58L2434.68,4092.76L2431.57,4091.03L2428.37,4089.26L2425.11,4087.47L2421.9,4085.71L2418.69,4083.96L2415.47,4082.22L2412.17,4080.45L2408.94,4078.72L2405.7,4077L2402.45,4075.29L2399.19,4073.58L2395.86,4071.84L2392.6,4070.15L2389.33,4068.46L2386.04,4066.78L2382.75,4065.1L2379.38,4063.4L2376.02,4061.7L2372.78,4060.08L2369.46,4058.43L2366.07,4056.76L2362.73,4055.12L2359.4,4053.49L2355.99,4051.83L2352.64,4050.21L2349.28,4048.6L2345.91,4047L2342.53,4045.4L2339.09,4043.78L2335.71,4042.19L2332.31,4040.61L2328.85,4039.01L2325.44,4037.44L2322.02,4035.88L2318.54,4034.29L2315.12,4032.75L2311.68,4031.2L2308.23,4029.66L2304.78,4028.13L2301.26,4026.58L2297.8,4025.07L2294.32,4023.55L2290.79,4022.02L2287.3,4020.52L2283.81,4019.03L2280.31,4017.54L2276.74,4016.04L2273.17,4014.54L2269.71,4013.09L2266.18,4011.63L2262.59,4010.15L2258.99,4008.68L2255.44,4007.23L2251.94,4005.81L2248.32,4004.36L2244.69,4002.91L2241.12,4001.49L2237.53,4000.08L2233.88,3998.65L2230.28,3997.24L2226.68,3995.85L2223.01,3994.44L2219.45,3993.07L2215.76,3991.67L2212.08,3990.28L2208.49,3988.93L2204.79,3987.55L2201.08,3986.18L2197.42,3984.83L2193.75,3983.49L2190.08,3982.15L2186.34,3980.8L2182.65,3979.48L2178.95,3978.16L2175.2,3976.83L2171.43,3975.5L2167.72,3974.2L2164.04,3972.92L2160.26,3971.61L2156.47,3970.31L2152.72,3969.03L2148.97,3967.76L2145.16,3966.48L2141.35,3965.2L2137.63,3963.96L2133.84,3962.71L2129.96,3961.44L2126.17,3960.2L2122.36,3958.97L2118.55,3957.74L2114.73,3956.52L2110.87,3955.29L2106.99,3954.07L2103.15,3952.86L2099.31,3951.66L2095.42,3950.46L2091.55,3949.27L2087.69,3948.09L2083.77,3946.9L2079.86,3945.72L2075.97,3944.55L2072.08,3943.4L2068.18,3942.24L2064.22,3941.08L2060.32,3939.94L2056.39,3938.81L2052.42,3937.66L2048.45,3936.53L2044.51,3935.41L2040.56,3934.29L2036.56,3933.17L2032.6,3932.07L2028.59,3930.96L2024.62,3929.87L2020.64,3928.78L2016.61,3927.69L2012.57,3926.61L2008.57,3925.54L2004.57,3924.47L2000.51,3923.4L1996.49,3922.35L1992.45,3921.3L1988.38,3920.25L1984.3,3919.2L1980.26,3918.17L1976.19,3917.15L1972.13,3916.12L1968.02,3915.1L1963.91,3914.08L1959.82,3913.08L1955.7,3912.07L1951.6,3911.07L1947.49,3910.09L1943.35,3909.1L1939.19,3908.11L1935.07,3907.14L1930.94,3906.17L1926.77,3905.2L1922.62,3904.24L1918.43,3903.28L1914.25,3902.33L1910.08,3901.39L1905.91,3900.45L1901.73,3899.52L1897.51,3898.59L1893.29,3897.66L1889.09,3896.74L1884.86,3895.83L1880.62,3894.92L1876.4,3894.02L1872.17,3893.12L1867.94,3892.24L1863.67,3891.35L1859.4,3890.46L1855.15,3889.59L1850.86,3888.71L1846.6,3887.85L1842.32,3886.99L1837.99,3886.12L1833.7,3885.28L1829.41,3884.43L1825.09,3883.59L1820.79,3882.76L1816.45,3881.92L1812.1,3881.1L1807.79,3880.28L1803.45,3879.46L1799.09,3878.65L1794.72,3877.84L1790.38,3877.05L1786.02,3876.25L1781.63,3875.46L1777.24,3874.67L1772.86,3873.89L1768.45,3873.11L1764.07,3872.35L1759.67,3871.58L1755.22,3870.81L1750.82,3870.06L1746.4,3869.31L1741.95,3868.56L1737.5,3867.82L1733.05,3867.08L1728.62,3866.35L1724.17,3865.63L1719.69,3864.9L1715.24,3864.19L1710.75,3863.47L1706.26,3862.76L1701.78,3862.06L1697.28,3861.36L1692.79,3860.67L1688.27,3859.98L1683.75,3859.3L1679.24,3858.62L1674.73,3857.95L1670.18,3857.27L1665.64,3856.61L1661.1,3855.95L1656.54,3855.29L1651.98,3854.64L1647.42,3853.99L1642.85,3853.35L1638.27,3852.71L1633.7,3852.08L1629.12,3851.45L1624.52,3850.83L1619.91,3850.21L1615.3,3849.59L1610.7,3848.99L1606.09,3848.38L1601.44,3847.78L1596.82,3847.18L1592.2,3846.59L1587.53,3846L1582.9,3845.42L1578.25,3844.84L1573.58,3844.27L1568.91,3843.7L1564.24,3843.13L1559.57,3842.57L1554.9,3842.01L1550.2,3841.46L1545.5,3840.91L1540.79,3840.37L1536.1,3839.83L1531.39,3839.3L1526.65,3838.76L1521.94,3838.24L1517.19,3837.72L1512.46,3837.2L1507.73,3836.69L1502.97,3836.18L1498.23,3835.67L1493.46,3835.17L1488.69,3834.67L1483.93,3834.18L1479.15,3833.7L1474.36,3833.21L1469.58,3832.73L1464.78,3832.26L1459.97,3831.78L1455.16,3831.32L1450.37,3830.85L1445.55,3830.39L1440.71,3829.94L1435.88,3829.49L1431.06,3829.04L1426.23,3828.6L1421.37,3828.16L1416.52,3827.72L1411.66,3827.3L1406.79,3826.87L1401.93,3826.45L1397.06,3826.03L1392.18,3825.61L1387.28,3825.2L1382.4,3824.79L1377.51,3824.39L1372.6,3823.99L1367.69,3823.6L1362.78,3823.2L1357.85,3822.82L1352.94,3822.43L1348,3822.05L1343.07,3821.68L1338.13,3821.31L1333.18,3820.94L1328.23,3820.57L1323.27,3820.21L1318.32,3819.86L1313.34,3819.5L1308.37,3819.15L1303.39,3818.81L1298.4,3818.46L1293.41,3818.12L1288.42,3817.79L1283.41,3817.46L1278.42,3817.13L1273.4,3816.81L1268.38,3816.49L1263.37,3816.17L1258.33,3815.86L1253.3,3815.55L1248.26,3815.24L1243.21,3814.94L1238.17,3814.64L1233.11,3814.35L1228.05,3814.05L1222.99,3813.76L1217.92,3813.48L1212.84,3813.2L1207.76,3812.92L1202.67,3812.65L1197.58,3812.38L1192.49,3812.11L1187.38,3811.84L1182.28,3811.58L1177.17,3811.33L1172.04,3811.07L1166.93,3810.82L1161.8,3810.57L1156.67,3810.33L1151.53,3810.09L1146.38,3809.85L1141.23,3809.61L1136.09,3809.38L1130.93,3809.16L1125.76,3808.93L1120.58,3808.71L1115.41,3808.49L1110.24,3808.28L1105.06,3808.06L1099.86,3807.86L1094.67,3807.65L1089.47,3807.45L1084.27,3807.25L1079.06,3807.05L1073.84,3806.86L1068.62,3806.67L1063.4,3806.48L1058.17,3806.3L1052.93,3806.12L1047.69,3805.94L1042.45,3805.76L1037.19,3805.59L1031.95,3805.42L1026.69,3805.26L1021.42,3805.09L1016.15,3804.93L1010.88,3804.78L1005.6,3804.62L1000.31,3804.47L995.029,3804.32L989.733,3804.17L984.433,3804.03L979.128,3803.89L973.822,3803.75L968.505,3803.62L963.19,3803.49L957.87,3803.36L952.538,3803.23L947.203,3803.11L941.871,3802.99L936.532,3802.87L931.185,3802.75L925.826,3802.64L920.499,3802.53L909.745,3802.32L899.004,3802.12L888.239,3801.93L877.456,3801.74L866.648,3801.57L855.83,3801.41L844.988,3801.26L834.135,3801.12L823.259,3800.99L812.358,3800.86L801.446,3800.75L790.519,3800.65L779.566,3800.55L768.602,3800.47L757.615,3800.39L746.612,3800.32L735.59,3800.26L724.551,3800.21L713.495,3800.17L702.416,3800.14L691.325,3800.11L680.218,3800.09L669.087,3800.08L657.945,3800.08L646.781,3800.09L635.598,3800.1L624.406,3800.12L613.189,3800.15L601.963,3800.18L590.712,3800.22L579.445,3800.27L568.168,3800.33L556.866,3800.39L545.556,3800.46L534.221,3800.54L522.875,3800.62L511.506,3800.71L500.128,3800.8L488.732,3800.9L477.312,3801.01L465.882,3801.12L454.437,3801.24L442.973,3801.36L431.494,3801.49L420.004,3801.62L408.49,3801.76L396.967,3801.91L385.421,3802.06L373.863,3802.21L362.29,3802.37L350.707,3802.53L339.1,3802.7L327.476,3802.87L315.843,3803.04L304.192,3803.22L292.525,3803.41L280.843,3803.59L269.15,3803.78L257.439,3803.98L245.713,3804.17L233.981,3804.37L210.44,3804.78L186.852,3805.2L163.212,3805.64L139.512,3806.08L115.746,3806.53L91.935,3806.99L68.057,3807.45L44.133,3807.92L-3.896,3808.87L-52.135,3809.83L-52.141,3809.83L-100.579,3810.79L-100.592,3810.79L-124.887,3811.27L-124.902,3811.27L-149.249,3811.74L-149.267,3811.74L-173.654,3812.21L-173.677,3812.21L-198.112,3812.68L-198.138,3812.68L-222.62,3813.14L-222.65,3813.14L-247.18,3813.6L-247.213,3813.6L-271.784,3814.04L-271.822,3814.04L-296.441,3814.48L-296.469,3814.48L-308.796,3814.7L-308.819,3814.7L-321.164,3814.91L-321.185,3814.91L-333.529,3815.12L-333.553,3815.12L-345.913,3815.32L-345.936,3815.33L-358.305,3815.53L-358.331,3815.53L-370.716,3815.73L-370.742,3815.73L-383.134,3815.93L-383.16,3815.93L-395.561,3816.12L-395.589,3816.12L-408.006,3816.31L-408.035,3816.31L-420.459,3816.5L-420.487,3816.5L-432.92,3816.68L-432.951,3816.68L-445.426,3816.86L-445.511,3816.86L-450.838,3816.93L-450.955,3816.94L-456.722,3817.01L-456.823,3817.01L-463.005,3817.08L-463.089,3817.08L-469.673,3817.14L-469.749,3817.14L-476.747,3817.21L-476.812,3817.21L-484.204,3817.28L-484.264,3817.28L-492.056,3817.34L-492.105,3817.34L-500.278,3817.4L-500.326,3817.4L-508.89,3817.46L-508.931,3817.46L-517.869,3817.52L-517.906,3817.52L-527.213,3817.58L-527.247,3817.58L-536.916,3817.64L-536.949,3817.64L-546.973,3817.69L-547.001,3817.69L-557.379,3817.74L-557.406,3817.74L-568.126,3817.8L-568.152,3817.8L-579.211,3817.85L-579.245,3817.85L-602.342,3817.95L-602.381,3817.95L-626.75,3818.04L-626.785,3818.04L-652.368,3818.13L-652.399,3818.13L-679.139,3818.22L-679.167,3818.22L-707.014,3818.3L-707.039,3818.3L-735.935,3818.37L-735.958,3818.37L-765.851,3818.44L-765.872,3818.44L-796.698,3818.5L-796.717,3818.5L-828.433,3818.57L-828.45,3818.57L-860.989,3818.62L-861.005,3818.62L-894.323,3818.67L-894.339,3818.67L-928.372,3818.72L-928.387,3818.72L-963.091,3818.76L-963.104,3818.76L-998.406,3818.8L-998.419,3818.8L-1034.28,3818.83L-1034.29,3818.83L-1070.65,3818.86L-1070.66,3818.86L-1107.47,3818.88L-1107.48,3818.88L-1144.67,3818.91L-1144.68,3818.91L-1182.2,3818.92L-1182.21,3818.92L-1220.01,3818.93L-1220.02,3818.93L-1258.05,3818.94L-1258.06,3818.94L-1296.24,3818.94L-1296.25,3818.94L-1334.55,3818.94L-1334.56,3818.94L-1372.91,3818.94L-1372.92,3818.94L-1411.28,3818.93L-1411.29,3818.93L-1449.59,3818.92L-1449.6,3818.92L-1487.79,3818.9L-1487.8,3818.9L-1525.82,3818.88L-1525.83,3818.88L-1563.63,3818.85L-1563.64,3818.85L-1601.18,3818.83L-1601.19,3818.83L-1638.38,3818.79L-1638.39,3818.79L-1675.2,3818.76L-1675.21,3818.76L-1711.59,3818.72L-1711.6,3818.72L-1747.47,3818.68L-1747.48,3818.68L-1782.8,3818.63L-1782.81,3818.63L-1817.53,3818.58L-1817.54,3818.58L-1851.59,3818.52L-1851.6,3818.52L-1884.93,3818.47L-1884.95,3818.47L-1917.51,3818.41L-1917.52,3818.41L-1949.26,3818.34L-1949.27,3818.34L-1980.12,3818.27L-1980.14,3818.27L-2010.04,3818.2L-2010.06,3818.2L-2038.98,3818.13L-2039,3818.13L-2066.87,3818.05L-2066.89,3818.05L-2093.66,3817.97L-2093.68,3817.97L-2119.29,3817.89L-2119.31,3817.89L-2143.7,3817.8L-2143.73,3817.8L-2166.86,3817.71L-2166.9,3817.71L-2188.7,3817.61L-2188.74,3817.61L-2209.17,3817.52L-2209.22,3817.52L-2228.2,3817.42L-2228.24,3817.42L-2237.2,3817.37L-2237.24,3817.37L-2245.8,3817.31L-2245.84,3817.31L-2254.02,3817.26L-2254.06,3817.26L-2261.86,3817.21L-2261.91,3817.21L-2269.3,3817.15L-2269.35,3817.15L-2276.36,3817.1L-2276.41,3817.1L-2283,3817.04L-2283.06,3817.04L-2289.24,3816.99L-2289.32,3816.99L-2295.08,3816.93L-2295.17,3816.93L-2487.33,3814.83L-2483.26,3441.1L-2291.23,3443.19L-2285.72,3443.24L-2279.75,3443.3L-2273.34,3443.35L-2266.5,3443.4L-2259.24,3443.46L-2251.57,3443.51L-2243.49,3443.56L-2235.03,3443.61L-2226.18,3443.66L-2207.33,3443.76L-2187.03,3443.86L-2165.35,3443.95L-2142.32,3444.04L-2118.02,3444.13L-2092.49,3444.21L-2065.8,3444.29L-2037.99,3444.37L-2009.13,3444.44L-1979.28,3444.51L-1948.47,3444.58L-1916.79,3444.65L-1884.27,3444.71L-1850.98,3444.76L-1816.97,3444.82L-1782.29,3444.87L-1747,3444.92L-1711.16,3444.96L-1674.82,3445L-1638.05,3445.03L-1600.88,3445.07L-1563.38,3445.1L-1525.61,3445.12L-1487.61,3445.14L-1449.45,3445.16L-1411.18,3445.17L-1372.85,3445.18L-1334.52,3445.18L-1296.26,3445.18L-1258.1,3445.18L-1220.11,3445.17L-1182.34,3445.16L-1144.86,3445.14L-1107.7,3445.12L-1070.93,3445.1L-1034.61,3445.07L-998.785,3445.04L-963.523,3445L-928.862,3444.96L-894.874,3444.91L-861.604,3444.86L-829.116,3444.81L-797.457,3444.74L-766.691,3444.68L-736.863,3444.61L-708.04,3444.54L-680.273,3444.46L-653.621,3444.37L-628.137,3444.28L-603.881,3444.19L-580.893,3444.09L-569.922,3444.04L-559.279,3443.99L-548.982,3443.94L-539.049,3443.88L-529.479,3443.83L-520.28,3443.77L-511.46,3443.71L-503.03,3443.65L-495.002,3443.59L-487.372,3443.53L-480.168,3443.47L-473.381,3443.4L-467.037,3443.34L-461.135,3443.27L-455.696,3443.21L-450.671,3443.14L-438.369,3442.96L-426.026,3442.78L-413.688,3442.6L-401.357,3442.41L-389.038,3442.21L-376.724,3442.02L-364.416,3441.82L-352.121,3441.62L-339.831,3441.41L-327.553,3441.2L-315.275,3440.99L-303.027,3440.78L-278.506,3440.34L-254.042,3439.9L-229.606,3439.45L-205.206,3438.99L-180.843,3438.52L-156.516,3438.05L-132.218,3437.58L-107.967,3437.1L-59.558,3436.14L-11.313,3435.18L-11.304,3435.18L36.765,3434.23L36.783,3434.23L60.758,3433.76L60.776,3433.76L84.709,3433.3L84.728,3433.3L108.608,3432.84L108.634,3432.84L132.481,3432.39L132.508,3432.39L156.3,3431.94L156.333,3431.94L180.079,3431.51L180.117,3431.51L203.823,3431.08L203.864,3431.08L227.517,3430.67L227.55,3430.67L239.368,3430.47L239.392,3430.47L251.191,3430.27L251.216,3430.27L263.001,3430.07L263.026,3430.07L274.798,3429.88L274.825,3429.88L286.592,3429.69L286.621,3429.69L298.373,3429.51L298.401,3429.51L310.14,3429.33L310.17,3429.33L321.895,3429.15L321.926,3429.15L333.645,3428.98L333.678,3428.98L345.384,3428.81L345.416,3428.81L357.101,3428.64L357.136,3428.64L368.815,3428.48L368.849,3428.48L380.514,3428.33L380.551,3428.33L392.211,3428.18L392.248,3428.18L403.886,3428.03L403.926,3428.03L415.557,3427.89L415.595,3427.89L427.206,3427.76L427.249,3427.76L438.854,3427.62L438.895,3427.62L450.486,3427.5L450.53,3427.5L462.108,3427.38L462.153,3427.38L473.717,3427.27L473.763,3427.27L485.321,3427.16L485.367,3427.16L496.904,3427.06L496.952,3427.06L508.476,3426.96L508.527,3426.96L520.045,3426.87L520.094,3426.87L531.591,3426.79L531.642,3426.79L543.133,3426.71L543.185,3426.71L554.656,3426.64L554.711,3426.64L566.174,3426.58L566.228,3426.58L577.671,3426.52L577.729,3426.52L589.166,3426.47L589.222,3426.47L600.646,3426.42L600.705,3426.42L612.109,3426.39L612.168,3426.39L623.565,3426.36L623.625,3426.36L635.002,3426.34L635.064,3426.34L646.434,3426.33L646.497,3426.33L657.854,3426.32L657.92,3426.32L669.256,3426.32Z" style="fill:rgb(20,169,12);fill-opacity:0.698039;"/>
            </g>
            <g transform="matrix(0.348131,0,0,0.444444,-5987.22,20.1839)">
                <text x="18970px" y="1655.89px" style="font-family:'ArialMT';font-size:138.061px;fill:black;fill-opacity:0.9;">A</text>
            </g>
        </g>
    </g>
</svg>
