<?xml version="1.0" standalone="no"?><!DOCTYPE svg PUBLIC "-//W3C//DTD SVG 1.1//EN" "http://www.w3.org/Graphics/SVG/1.1/DTD/svg11.dtd"><svg width="100%" height="100%" viewBox="0 0 15325 9605" version="1.1" xmlns="http://www.w3.org/2000/svg" xmlns:xlink="http://www.w3.org/1999/xlink" xml:space="preserve" style="fill-rule:evenodd;clip-rule:evenodd;stroke-linejoin:round;stroke-miterlimit:1;"><g><rect x="12765.8" y="2129.62" width="57.87" height="5057.87" style="fill:#000;"/><rect x="11534.5" y="2129.62" width="57.87" height="5057.87" style="fill:#000;"/><path d="M12823.7,4687.49l-11139.8,0l0,-57.87l11139.8,0l0,57.87Z" style="fill:#000;"/><rect x="10303.2" y="2129.62" width="57.87" height="5057.87" style="fill:#000;"/><rect x="9071.85" y="2129.62" width="57.87" height="5057.87" style="fill:#000;"/><rect x="7840.53" y="2129.62" width="57.87" height="5057.87" style="fill:#000;"/><rect x="6609.21" y="2129.62" width="57.87" height="5057.87" style="fill:#000;"/><rect x="5377.88" y="2129.62" width="57.87" height="5057.87" style="fill:#000;"/><rect x="4146.56" y="2129.62" width="57.87" height="5057.87" style="fill:#000;"/><rect x="2915.23" y="2129.62" width="57.87" height="5057.87" style="fill:#000;"/><rect x="1683.91" y="2129.62" width="57.87" height="5057.87" style="fill:#000;"/></g><path d="M4313.08,4589.76c0,-37.968 -30.826,-68.793 -68.794,-68.793l-137.587,0c-37.968,0 -68.794,30.825 -68.794,68.793l0,137.588c0,37.968 30.826,68.793 68.794,68.793l137.587,0c37.968,0 68.794,-30.825 68.794,-68.793l0,-137.588Z" style="fill:#1710fc;"/><path d="M6775.73,4589.76c0,-37.968 -30.826,-68.793 -68.794,-68.793l-137.587,0c-37.968,0 -68.794,30.825 -68.794,68.793l0,137.588c0,37.968 30.826,68.793 68.794,68.793l137.587,0c37.968,0 68.794,-30.825 68.794,-68.793l0,-137.588Z" style="fill:#1710fc;"/><path d="M9238.38,4589.76c0,-37.968 -30.826,-68.793 -68.794,-68.793l-137.587,0c-37.968,0 -68.794,30.825 -68.794,68.793l0,137.588c0,37.968 30.826,68.793 68.794,68.793l137.587,0c37.968,0 68.794,-30.825 68.794,-68.793l0,-137.588Z" style="fill:#1710fc;"/><path d="M11700.9,4589.76c0,-37.968 -30.826,-68.793 -68.794,-68.793l-137.587,0c-37.968,0 -68.794,30.825 -68.794,68.793l0,137.588c0,37.968 30.826,68.793 68.794,68.793l137.587,0c37.968,0 68.794,-30.825 68.794,-68.793l0,-137.588Z" style="fill:#1710fc;"/><path d="M1871.86,4589.76c0,-37.968 -30.825,-68.793 -68.794,-68.793l-137.587,0c-37.968,0 -68.794,30.825 -68.794,68.793l0,137.588c0,37.968 30.826,68.793 68.794,68.793l137.587,0c37.969,0 68.794,-30.825 68.794,-68.793l0,-137.588Z" style="fill:#1710fc;"/><path d="M753.103,5385.64c318.958,-18.016 543.064,7.655 973.648,-16.666c859.972,-48.575 1217.44,-1224.31 2448.74,-1241.67c956.672,-13.484 1641.77,1110.15 2462.65,1133.33c820.699,23.178 1159.78,-1099.93 2462.65,-1129.17c643.793,-14.444 1743.23,1040.06 2466.22,1070.83c640.674,27.273 1332.84,-17.056 1722.19,-0.482" style="fill:none;stroke-width:416.67px;stroke:#14a90c;stroke-opacity:0.698039;"/></svg>