<?xml version="1.0" standalone="no"?><!DOCTYPE svg PUBLIC "-//W3C//DTD SVG 1.1//EN" "http://www.w3.org/Graphics/SVG/1.1/DTD/svg11.dtd"><svg width="100%" height="100%" viewBox="0 0 15325 9605" version="1.1" xmlns="http://www.w3.org/2000/svg" xmlns:xlink="http://www.w3.org/1999/xlink" xml:space="preserve" style="fill-rule:evenodd;clip-rule:evenodd;stroke-linejoin:round;stroke-miterlimit:1;"><g><rect x="12765.6" y="2130.44" width="57.87" height="5057.87" style="fill:#000;"/><rect x="11534.2" y="2130.44" width="57.87" height="5057.87" style="fill:#000;"/><path d="M12823.4,4688.31l-11139.8,0l0,-57.87l11139.8,0l0,57.87Z" style="fill:#000;"/><rect x="10302.9" y="2130.44" width="57.87" height="5057.87" style="fill:#000;"/><rect x="9071.59" y="2130.44" width="57.87" height="5057.87" style="fill:#000;"/><rect x="7840.27" y="2130.44" width="57.87" height="5057.87" style="fill:#000;"/><rect x="6608.94" y="2130.44" width="57.87" height="5057.87" style="fill:#000;"/><rect x="5377.62" y="2130.44" width="57.87" height="5057.87" style="fill:#000;"/><rect x="4146.29" y="2130.44" width="57.87" height="5057.87" style="fill:#000;"/><rect x="2914.96" y="2130.44" width="57.87" height="5057.87" style="fill:#000;"/><rect x="1683.65" y="2130.44" width="57.87" height="5057.87" style="fill:#000;"/></g><path d="M11700.5,4157.77c0,-37.968 -30.825,-68.793 -68.794,-68.793l-137.587,0c-37.968,0 -68.794,30.825 -68.794,68.793l0,137.588c0,37.968 30.826,68.793 68.794,68.793l137.587,0c37.969,0 68.794,-30.825 68.794,-68.793l0,-137.588Z" style="fill:#1710fc;"/><path d="M12932.1,6976.17c0,-37.968 -30.826,-68.793 -68.794,-68.793l-137.587,0c-37.968,0 -68.794,30.825 -68.794,68.793l0,137.587c0,37.969 30.826,68.794 68.794,68.794l137.587,0c37.968,0 68.794,-30.825 68.794,-68.794l0,-137.587Z" style="fill:#1710fc;"/><path d="M11679.6,5013.48c0,-37.968 -30.826,-68.793 -68.794,-68.793l-137.587,0c-37.969,0 -68.794,30.825 -68.794,68.793l0,137.588c0,37.968 30.825,68.793 68.794,68.793l137.587,0c37.968,0 68.794,-30.825 68.794,-68.793l0,-137.588Z" style="fill:#1710fc;"/><path d="M12932.1,2166.45c0,-37.968 -30.826,-68.794 -68.794,-68.794l-137.587,0c-37.968,0 -68.794,30.826 -68.794,68.794l0,137.587c0,37.969 30.826,68.794 68.794,68.794l137.587,0c37.968,0 68.794,-30.825 68.794,-68.794l0,-137.587Z" style="fill:#1710fc;"/><path d="M11571.2,4649.48c996.802,31.235 738.528,-1549.46 730.504,-2744.28" style="fill:none;stroke-width:416.67px;stroke:#14a90c;stroke-opacity:0.698039;"/><path d="M11567,4659.38c777.327,9.018 762.208,762.557 770.526,2708.33" style="fill:none;stroke-width:416.67px;stroke:#14a90c;stroke-opacity:0.698039;"/><text x="13075.4px" y="2395.21px" style="font-family:'ArialMT';font-size:575.253px;fill:#000;">A</text><text x="13074.6px" y="7190.04px" style="font-family:'ArialMT';font-size:575.253px;fill:#000;">A</text><path d="M11388,4649.94l-662.5,205.199l0,-410.398l662.5,205.199Z" style="fill:#000;"/></svg>