<?xml version="1.0" standalone="no"?>
<!DOCTYPE svg PUBLIC "-//W3C//DTD SVG 1.1//EN" "http://www.w3.org/Graphics/SVG/1.1/DTD/svg11.dtd">
<svg width="100%" height="100%" viewBox="0 0 3678 2305" version="1.1" xmlns="http://www.w3.org/2000/svg" xmlns:xlink="http://www.w3.org/1999/xlink" xml:space="preserve" style="fill-rule:evenodd;clip-rule:evenodd;stroke-linejoin:round;stroke-miterlimit:1;">
    <g transform="matrix(1,0,0,1,-28516,-86)">
        <g id="parking-6.1" transform="matrix(2.87248,0,0,2.25,28516.4,86.495)">
            <g transform="matrix(2.08676,0,0,5.15206,-116.151,-2349.03)">
                <g transform="matrix(0.516355,0,0,0.342776,217.275,407.725)">
                    <rect x="676.756" y="269.252" width="4.487" height="305.495" style="fill:black;"/>
                </g>
                <g transform="matrix(0.516355,0,0,0.342776,167.974,407.725)">
                    <rect x="676.756" y="269.252" width="4.487" height="305.495" style="fill:black;"/>
                </g>
                <g transform="matrix(-2.3627e-16,-0.975331,1.46923,-1.56845e-16,-273.988,1214.63)">
                    <rect x="678.386" y="270.211" width="1.228" height="303.577" style="fill:black;"/>
                </g>
                <g transform="matrix(0.516355,0,0,0.342776,118.674,407.725)">
                    <rect x="676.757" y="269.252" width="4.487" height="305.495" style="fill:black;"/>
                </g>
                <g transform="matrix(0.516355,0,0,0.342776,69.3729,407.725)">
                    <rect x="676.756" y="269.252" width="4.487" height="305.495" style="fill:black;"/>
                </g>
                <g transform="matrix(0.516355,0,0,0.342776,20.0721,407.725)">
                    <rect x="676.756" y="269.252" width="4.487" height="305.495" style="fill:black;"/>
                </g>
                <g transform="matrix(0.516355,0,0,0.342776,-29.2287,407.725)">
                    <rect x="676.756" y="269.252" width="4.487" height="305.495" style="fill:black;"/>
                </g>
                <g transform="matrix(0.516355,0,0,0.342776,-78.5295,407.725)">
                    <rect x="676.756" y="269.252" width="4.487" height="305.495" style="fill:black;"/>
                </g>
                <g transform="matrix(0.516355,0,0,0.342776,-127.83,407.725)">
                    <rect x="676.757" y="269.252" width="4.487" height="305.495" style="fill:black;"/>
                </g>
                <g transform="matrix(0.516355,0,0,0.342776,-177.131,407.725)">
                    <rect x="676.756" y="269.252" width="4.487" height="305.495" style="fill:black;"/>
                </g>
                <g transform="matrix(0.516355,0,0,0.342776,-226.432,407.725)">
                    <rect x="676.756" y="269.252" width="4.487" height="305.495" style="fill:black;"/>
                </g>
            </g>
            <g transform="matrix(0.126249,-3.77701e-17,-6.84244e-16,0.161177,838.962,-117.299)">
                <path d="M1097.11,3478.42c0,-25.127 -20.4,-45.527 -45.527,-45.527l-91.055,0c-25.128,0 -45.528,20.4 -45.528,45.527l0,91.055c0,25.128 20.4,45.528 45.528,45.528l91.055,0c25.127,0 45.527,-20.4 45.527,-45.528l0,-91.055Z" style="fill:rgb(23,16,252);"/>
            </g>
            <g transform="matrix(0.126249,-3.77701e-17,-6.84244e-16,0.161177,941.866,183.33)">
                <path d="M1097.11,3478.42c0,-25.127 -20.4,-45.527 -45.527,-45.527l-91.055,0c-25.128,0 -45.528,20.4 -45.528,45.527l0,91.055c0,25.128 20.4,45.528 45.528,45.528l91.055,0c25.127,0 45.527,-20.4 45.527,-45.528l0,-91.055Z" style="fill:rgb(23,16,252);"/>
            </g>
            <g transform="matrix(0.126249,-3.77701e-17,-6.84244e-16,0.161177,837.221,-26.0229)">
                <path d="M1097.11,3478.42c0,-25.127 -20.4,-45.527 -45.527,-45.527l-91.055,0c-25.128,0 -45.528,20.4 -45.528,45.527l0,91.055c0,25.128 20.4,45.528 45.528,45.528l91.055,0c25.127,0 45.527,-20.4 45.527,-45.528l0,-91.055Z" style="fill:rgb(23,16,252);"/>
            </g>
            <g transform="matrix(0.126249,-3.77701e-17,-6.84244e-16,0.161177,941.866,-329.707)">
                <path d="M1097.11,3478.42c0,-25.127 -20.4,-45.527 -45.527,-45.527l-91.055,0c-25.128,0 -45.528,20.4 -45.528,45.527l0,91.055c0,25.128 20.4,45.528 45.528,45.528l91.055,0c25.127,0 45.527,-20.4 45.527,-45.528l0,-91.055Z" style="fill:rgb(23,16,252);"/>
            </g>
            <g transform="matrix(0.348131,0,0,0.444444,-4101.68,-2.0211e-13)">
                <path d="M12137,1117.9c661.19,-5.368 1983.57,-16.104 2421.75,-2.374c239.233,7.497 177.247,-371.87 175.321,-658.626" style="fill:none;stroke-width:100px;stroke:rgb(20,169,12);stroke-opacity:0.698039;"/>
            </g>
            <g transform="matrix(0.348131,0,0,0.444444,-4101.68,-2.0211e-13)">
                <path d="M14557.7,1117.9c186.559,2.164 182.93,183.013 184.927,650" style="fill:none;stroke-width:100px;stroke:rgb(20,169,12);stroke-opacity:0.698039;"/>
            </g>
            <g transform="matrix(0.348131,0,0,0.444444,-8827.57,-28.6645)">
                <path d="M28494.6,639l37.954,-98.827l14.089,0l40.447,98.827l-14.898,0l-11.527,-29.931l-41.324,0l-10.854,29.931l-13.887,0ZM28523.1,598.418l33.504,0l-10.314,-27.37c-3.146,-8.314 -5.483,-15.145 -7.011,-20.493c-1.258,6.337 -3.034,12.629 -5.326,18.875l-10.853,28.988Z" style="fill:black;fill-rule:nonzero;"/>
            </g>
            <g transform="matrix(0.348131,0,0,0.444444,-8820.02,5.41011)">
                <path d="M28472.7,1713.09l37.953,-98.826l14.09,0l40.447,98.826l-14.898,0l-11.528,-29.931l-41.323,0l-10.854,29.931l-13.887,0ZM28501.2,1672.51l33.504,0l-10.314,-27.369c-3.146,-8.315 -5.483,-15.146 -7.011,-20.494c-1.259,6.337 -3.034,12.629 -5.326,18.876l-10.853,28.987Z" style="fill:black;fill-rule:nonzero;"/>
            </g>
            <g transform="matrix(3.46907e-17,0.156342,-0.188917,6.83216e-17,306.509,-2929.93)">
                <path d="M21912,965l140,293l-280,0l140,-293Z" style="fill:black;"/>
            </g>
        </g>
    </g>
</svg>
