<?xml version="1.0" standalone="no"?>
<!DOCTYPE svg PUBLIC "-//W3C//DTD SVG 1.1//EN" "http://www.w3.org/Graphics/SVG/1.1/DTD/svg11.dtd">
<svg width="100%" height="100%" viewBox="0 0 3678 2304" version="1.1" xmlns="http://www.w3.org/2000/svg" xmlns:xlink="http://www.w3.org/1999/xlink" xml:space="preserve" style="fill-rule:evenodd;clip-rule:evenodd;stroke-linejoin:round;stroke-miterlimit:1.41421;">
    <g transform="matrix(1,0,0,1,-45401,-0)">
        <g id="parking-9" transform="matrix(2.87248,0,0,2.25,45401.3,0)">
            <g transform="matrix(2.08676,0,0,5.15206,-116.151,-2349.03)">
                <g transform="matrix(0.516355,0,0,0.342776,217.275,407.725)">
                    <rect x="676.757" y="269.252" width="4.487" height="305.495" style="fill:black;"/>
                </g>
                <g transform="matrix(0.516355,0,0,0.342776,167.974,407.725)">
                    <rect x="676.756" y="269.252" width="4.487" height="305.495" style="fill:black;"/>
                </g>
                <g transform="matrix(-2.3627e-16,-0.975331,1.46923,-1.56845e-16,-273.988,1214.63)">
                    <rect x="678.386" y="270.211" width="1.228" height="303.577" style="fill:black;"/>
                </g>
                <g transform="matrix(0.516355,0,0,0.342776,118.674,407.725)">
                    <rect x="676.756" y="269.252" width="4.487" height="305.495" style="fill:black;"/>
                </g>
                <g transform="matrix(0.516355,0,0,0.342776,69.3729,407.725)">
                    <rect x="676.757" y="269.252" width="4.487" height="305.495" style="fill:black;"/>
                </g>
                <g transform="matrix(0.516355,0,0,0.342776,20.0721,407.725)">
                    <rect x="676.756" y="269.252" width="4.487" height="305.495" style="fill:black;"/>
                </g>
                <g transform="matrix(0.516355,0,0,0.342776,-29.2287,407.725)">
                    <rect x="676.757" y="269.252" width="4.487" height="305.495" style="fill:black;"/>
                </g>
                <g transform="matrix(0.516355,0,0,0.342776,-78.5295,407.725)">
                    <rect x="676.756" y="269.252" width="4.487" height="305.495" style="fill:black;"/>
                </g>
                <g transform="matrix(0.516355,0,0,0.342776,-127.83,407.725)">
                    <rect x="676.756" y="269.252" width="4.487" height="305.495" style="fill:black;"/>
                </g>
                <g transform="matrix(0.516355,0,0,0.342776,-177.131,407.725)">
                    <rect x="676.757" y="269.252" width="4.487" height="305.495" style="fill:black;"/>
                </g>
                <g transform="matrix(0.516355,0,0,0.342776,-226.432,407.725)">
                    <rect x="676.756" y="269.252" width="4.487" height="305.495" style="fill:black;"/>
                </g>
            </g>
            <g transform="matrix(0.126249,-3.77701e-17,-6.84244e-16,0.161177,71.7512,-352.475)">
                <path d="M1097.11,3478.42C1097.11,3453.29 1076.71,3432.89 1051.58,3432.89L960.528,3432.89C935.4,3432.89 915,3453.29 915,3478.42L915,3569.47C915,3594.6 935.4,3615 960.528,3615L1051.58,3615C1076.71,3615 1097.11,3594.6 1097.11,3569.47L1097.11,3478.42Z" style="fill:rgb(23,16,252);"/>
            </g>
            <g transform="matrix(0.126249,-3.77701e-17,-6.84244e-16,0.161177,221.713,-304.523)">
                <path d="M1097.11,3478.42C1097.11,3453.29 1076.71,3432.89 1051.58,3432.89L960.528,3432.89C935.4,3432.89 915,3453.29 915,3478.42L915,3569.47C915,3594.6 935.4,3615 960.528,3615L1051.58,3615C1076.71,3615 1097.11,3594.6 1097.11,3569.47L1097.11,3478.42Z" style="fill:rgb(23,16,252);"/>
            </g>
            <g transform="matrix(0.126249,-3.77701e-17,-6.84244e-16,0.161177,427.471,-71.1325)">
                <path d="M1097.11,3478.42C1097.11,3453.29 1076.71,3432.89 1051.58,3432.89L960.528,3432.89C935.4,3432.89 915,3453.29 915,3478.42L915,3569.47C915,3594.6 935.4,3615 960.528,3615L1051.58,3615C1076.71,3615 1097.11,3594.6 1097.11,3569.47L1097.11,3478.42Z" style="fill:rgb(23,16,252);"/>
            </g>
            <g transform="matrix(0.126249,-3.77701e-17,-6.84244e-16,0.161177,359.237,-215.577)">
                <path d="M1097.11,3478.42C1097.11,3453.29 1076.71,3432.89 1051.58,3432.89L960.528,3432.89C935.4,3432.89 915,3453.29 915,3478.42L915,3569.47C915,3594.6 935.4,3615 960.528,3615L1051.58,3615C1076.71,3615 1097.11,3594.6 1097.11,3569.47L1097.11,3478.42Z" style="fill:rgb(23,16,252);"/>
            </g>
            <g transform="matrix(0.093143,0,0,0.118912,291.41,-248.554)">
                <path d="M1159.33,3691.39L1159.39,3691.41L1165.32,3693.34L1165.37,3693.36L1171.35,3695.32L1171.47,3695.36L1177.47,3697.33L1177.59,3697.37L1183.57,3699.34L1183.62,3699.36L1189.61,3701.34L1189.73,3701.38L1195.75,3703.39L1195.87,3703.43L1201.89,3705.44L1202.02,3705.48L1207.96,3707.47L1213.97,3709.49L1214.16,3709.55L1220.2,3711.59L1220.25,3711.61L1226.27,3713.64L1226.39,3713.68L1232.43,3715.74L1232.56,3715.78L1238.57,3717.84L1238.63,3717.85L1244.66,3719.92L1244.78,3719.96L1250.84,3722.04L1250.96,3722.08L1256.99,3724.17L1257.04,3724.18L1263.09,3726.28L1263.21,3726.32L1269.29,3728.43L1269.41,3728.47L1275.45,3730.58L1275.5,3730.6L1281.56,3732.72L1281.68,3732.76L1287.77,3734.9L1287.89,3734.94L1293.98,3737.09L1294.11,3737.13L1300.16,3739.28L1300.21,3739.3L1306.29,3741.45L1306.41,3741.49L1312.51,3743.67L1312.63,3743.71L1318.7,3745.89L1318.76,3745.9L1324.84,3748.09L1324.96,3748.13L1331.09,3750.34L1331.2,3750.38L1337.32,3752.59L1337.44,3752.63L1343.53,3754.85L1343.58,3754.86L1349.68,3757.08L1349.8,3757.13L1355.93,3759.37L1356.05,3759.41L1362.19,3761.66L1362.31,3761.71L1368.41,3763.96L1368.46,3763.97L1374.57,3766.23L1374.69,3766.28L1380.84,3768.56L1380.96,3768.6L1387.11,3770.89L1387.23,3770.93L1393.38,3773.23L1393.5,3773.28L1399.61,3775.57L1399.66,3775.59L1405.79,3777.89L1405.91,3777.94L1412.07,3780.27L1412.19,3780.31L1418.35,3782.65L1418.47,3782.69L1424.6,3785.03L1424.64,3785.05L1430.79,3787.39L1430.91,3787.43L1437.12,3789.81L1437.31,3789.89L1443.47,3792.26L1443.52,3792.28L1449.62,3794.63L1449.67,3794.65L1455.87,3797.05L1456.05,3797.12L1462.23,3799.52L1462.28,3799.54L1468.47,3801.96L1468.66,3802.03L1474.84,3804.45L1474.88,3804.47L1481.04,3806.89L1481.16,3806.94L1487.35,3809.38L1487.47,3809.43L1493.62,3811.86L1493.67,3811.88L1499.88,3814.34L1500.07,3814.42L1506.26,3816.89L1506.3,3816.91L1512.47,3819.37L1512.59,3819.42L1518.83,3821.93L1519.02,3822L1525.21,3824.5L1525.26,3824.52L1531.39,3827L1531.43,3827.02L1537.65,3829.54L1537.84,3829.62L1544.09,3832.16L1544.2,3832.21L1550.38,3834.74L1550.42,3834.75L1556.64,3837.3L1556.83,3837.38L1563.03,3839.94L1563.07,3839.96L1569.3,3842.52L1569.49,3842.6L1575.69,3845.18L1575.74,3845.2L1581.92,3847.78L1582.04,3847.82L1588.25,3850.42L1588.37,3850.47L1594.59,3853.08L1594.71,3853.13L1600.93,3855.74L1601.04,3855.8L1607.26,3858.42L1607.38,3858.47L1613.56,3861.09L1613.6,3861.11L1619.84,3863.76L1620.03,3863.84L1626.28,3866.51L1626.4,3866.56L1632.58,3869.22L1632.62,3869.23L1638.86,3871.91L1639.05,3871.99L1645.31,3874.7L1645.42,3874.75L1651.6,3877.43L1651.64,3877.45L1657.88,3880.15L1658.07,3880.24L1664.29,3882.95L1664.33,3882.97L1670.56,3885.7L1670.75,3885.78L1676.97,3888.52L1677.01,3888.54L1683.21,3891.27L1683.32,3891.32L1689.59,3894.09L1689.78,3894.18L1696,3896.95L1696.04,3896.96L1702.28,3899.74L1702.47,3899.83L1708.69,3902.62L1708.72,3902.63L1714.96,3905.43L1715.15,3905.52L1721.37,3908.33L1721.4,3908.34L1727.64,3911.16L1727.83,3911.25L1734.05,3914.08L1734.08,3914.09L1740.32,3916.93L1740.51,3917.02L1746.73,3919.87L1746.77,3919.88L1753,3922.74L1753.19,3922.83L1759.41,3925.7L1759.45,3925.72L1765.68,3928.6L1765.87,3928.68L1772.12,3931.59L1772.24,3931.64L1778.46,3934.54L1778.57,3934.6L1784.79,3937.51L1784.9,3937.56L1791.12,3940.48L1791.23,3940.53L1797.45,3943.46L1797.57,3943.52L1803.78,3946.46L1803.9,3946.51L1810.11,3949.46L1810.23,3949.52L1816.45,3952.48L1816.56,3952.53L1822.82,3955.52L1823.01,3955.62L1829.21,3958.6L1829.25,3958.61L1835.46,3961.61L1835.65,3961.7L1841.86,3964.7L1841.89,3964.72L1848.11,3967.73L1848.3,3967.82L1854.54,3970.87L1854.65,3970.92L1860.86,3973.95L1860.97,3974.01L1867.17,3977.05L1867.28,3977.11L1873.48,3980.16L1873.6,3980.22L1879.84,3983.3L1880.04,3983.4L1886.22,3986.47L1886.26,3986.49L1892.46,3989.57L1892.65,3989.67L1898.87,3992.79L1898.99,3992.84L1905.14,3995.93L1905.17,3995.95L1911.41,3999.08L1911.68,3999.22L1917.89,4002.37L1917.93,4002.38L1924.07,4005.5L1924.18,4005.56L1930.41,4008.72L1930.61,4008.82L1936.82,4012L1936.93,4012.06L1943.06,4015.21L1943.09,4015.23L1949.32,4018.43L1949.6,4018.57L1955.79,4021.78L1955.82,4021.79L1961.95,4024.97L1962.06,4025.03L1968.28,4028.26L1968.47,4028.37L1974.67,4031.61L1974.78,4031.67L1980.93,4034.9L1981.05,4034.96L1987.2,4038.2L1987.32,4038.26L1993.51,4041.54L1993.71,4041.64L1999.85,4044.9L1999.88,4044.92L2006.03,4048.19L2006.23,4048.3L2012.41,4051.6L2012.52,4051.66L2018.7,4054.98L2018.9,4055.09L2025.03,4058.39L2025.05,4058.41L2031.19,4061.72L2031.39,4061.83L2037.56,4065.18L2037.67,4065.24L2043.83,4068.6L2044.03,4068.71L2050.14,4072.06L2050.16,4072.07L2056.29,4075.43L2056.49,4075.54L2062.64,4078.93L2062.75,4079L2068.9,4082.4L2069.1,4082.51L2075.19,4085.9L2075.22,4085.92L2081.32,4089.31L2081.49,4089.41L2084.59,4091.14L2084.65,4091.17L2087.7,4092.88L2087.75,4092.91L2090.79,4094.62L2090.85,4094.65L2093.98,4096.41L2094.2,4096.54L2097.18,4098.23L2100.09,4099.86L2100.14,4099.9L2103.28,4101.67L2103.51,4101.8L2106.48,4103.49L2109.47,4105.18L2109.69,4105.31L2112.67,4107L2115.65,4108.7L2115.88,4108.83L2119,4110.62L2119.06,4110.65L2122.09,4112.39L2122.15,4112.42L2125.18,4114.16L2125.24,4114.19L2128.27,4115.94L2128.32,4115.97L2131.35,4117.71L2131.41,4117.74L2134.44,4119.49L2134.49,4119.52L2137.53,4121.27L2137.59,4121.31L2140.71,4123.11L2140.93,4123.24L2143.89,4124.97L2146.78,4126.64L2146.83,4126.67L2149.95,4128.48L2150.18,4128.62L2153.28,4130.44L2153.34,4130.47L2156.21,4132.15L2159.18,4133.89L2159.41,4134.02L2162.51,4135.84L2162.57,4135.87L2165.58,4137.65L2165.64,4137.68L2168.66,4139.46L2168.72,4139.5L2171.74,4141.28L2171.79,4141.31L2174.89,4143.14L2175.11,4143.28L2178.06,4145.03L2180.94,4146.74L2180.99,4146.77L2184.1,4148.61L2184.32,4148.75L2187.26,4150.51L2190.22,4152.27L2190.45,4152.4L2193.54,4154.26L2193.6,4154.29L2196.6,4156.1L2196.65,4156.13L2199.66,4157.93L2199.7,4157.96L2202.71,4159.77L2202.77,4159.81L2205.77,4161.62L2205.82,4161.65L2208.82,4163.47L2208.88,4163.5L2211.88,4165.32L2211.94,4165.35L2215.03,4167.23L2215.26,4167.36L2218.18,4169.15L2221.13,4170.94L2221.36,4171.08L2224.43,4172.96L2224.48,4172.99L2227.32,4174.73L2230.27,4176.53L2230.5,4176.67L2233.58,4178.56L2233.63,4178.6L2236.62,4180.44L2236.66,4180.47L2239.65,4182.31L2239.71,4182.34L2242.79,4184.24L2243.01,4184.39L2245.93,4186.2L2248.86,4188.01L2249.08,4188.15L2252,4189.97L2254.93,4191.79L2255.15,4191.93L2258.21,4193.84L2258.27,4193.87L2261.09,4195.64L2264.02,4197.47L2264.25,4197.61L2267.31,4199.54L2267.37,4199.57L2270.43,4201.5L2270.66,4201.64L2273.55,4203.48L2276.38,4205.26L2276.43,4205.29L2279.49,4207.22L2279.72,4207.37L2282.62,4209.21L2285.53,4211.06L2285.76,4211.2L2288.81,4213.15L2288.86,4213.18L2291.82,4215.07L2291.87,4215.11L2294.83,4217L2294.89,4217.03L2297.84,4218.93L2297.9,4218.96L2300.85,4220.86L2300.91,4220.89L2303.95,4222.85L2304.19,4223L2307.07,4224.86L2309.96,4226.73L2310.19,4226.88L2313.08,4228.75L2315.97,4230.62L2316.2,4230.77L2319.23,4232.74L2319.29,4232.78L2322.23,4234.7L2322.29,4234.73L2325.23,4236.65L2325.28,4236.69L2328.22,4238.61L2328.28,4238.64L2331.31,4240.63L2331.54,4240.78L2334.41,4242.67L2337.28,4244.56L2337.52,4244.71L2340.38,4246.61L2343.26,4248.5L2343.5,4248.66L2346.52,4250.66L2346.57,4250.69L2349.49,4252.63L2349.55,4252.67L2352.47,4254.61L2352.53,4254.65L2355.55,4256.66L2355.78,4256.82L2358.63,4258.72L2361.5,4260.63L2361.73,4260.79L2364.58,4262.7L2367.44,4264.62L2367.67,4264.77L2370.68,4266.8L2370.73,4266.84L2373.65,4268.8L2373.7,4268.84L2376.61,4270.81L2376.66,4270.84L2379.57,4272.81L2379.62,4272.85L2382.63,4274.88L2382.87,4275.05L2385.7,4276.98L2388.55,4278.91L2388.78,4279.07L2391.61,4281.01L2394.46,4282.95L2394.7,4283.11L2397.69,4285.16L2397.74,4285.2L2400.64,4287.19L2400.69,4287.22L2403.68,4289.28L2403.91,4289.44L2406.73,4291.4L2409.57,4293.35L2409.8,4293.51L2412.62,4295.47L2415.45,4297.43L2415.69,4297.6L2418.66,4299.67L2418.71,4299.7L2421.6,4301.71L2421.65,4301.75L2424.53,4303.76L2424.58,4303.8L2427.56,4305.88L2427.8,4306.05L2430.6,4308.02L2433.42,4310L2433.65,4310.16L2436.45,4312.14L2439.27,4314.12L2439.5,4314.28L2442.46,4316.38L2442.52,4316.42L2445.39,4318.46L2445.44,4318.49L2448.31,4320.53L2448.36,4320.57L2451.32,4322.67L2451.56,4322.84L2454.34,4324.83L2457.14,4326.83L2457.38,4327L2460.33,4329.12L2460.38,4329.16L2463.24,4331.21L2463.28,4331.24L2466.14,4333.3L2466.18,4333.33L2469.04,4335.39L2469.09,4335.43L2471.95,4337.49L2471.99,4337.52L2474.94,4339.65L2475.18,4339.82L2477.95,4341.84L2480.74,4343.86L2480.98,4344.03L2483.91,4346.18L2483.96,4346.21L2486.79,4348.28L2486.84,4348.32L2489.68,4350.4L2489.73,4350.44L2492.67,4352.59L2492.91,4352.76L2495.66,4354.79L2498.43,4356.82L2498.67,4357L2501.59,4359.16L2501.64,4359.2L2504.46,4361.29L2504.51,4361.33L2507.33,4363.42L2507.38,4363.46L2510.21,4365.56L2510.26,4365.6L2513.08,4367.7L2513.13,4367.73L2516.05,4369.9L2516.28,4370.08L2519.19,4372.26L2519.24,4372.3L2521.89,4374.28L2524.64,4376.35L2524.88,4376.52L2527.78,4378.71L2527.83,4378.75L2530.74,4380.94L2530.97,4381.12L2533.7,4383.18L2536.44,4385.26L2536.68,4385.44L2539.57,4387.64L2539.62,4387.67L2542.24,4389.68L2544.98,4391.75L2545.22,4391.94L2548.21,4394.22L2548.45,4394.4L2551.15,4396.49L2553.87,4398.57L2554.11,4398.76L2556.82,4400.85L2559.55,4402.94L2559.78,4403.12L2562.66,4405.35L2562.71,4405.39L2565.49,4407.54L2565.54,4407.58L2568.41,4409.81L2568.65,4409.99L2571.34,4412.1L2574.05,4414.2L2574.29,4414.39L2576.99,4416.5L2579.69,4418.61L2579.93,4418.8L2582.89,4421.12L2583.13,4421.31L2585.81,4423.43L2588.4,4425.47L2588.45,4425.51L2591.31,4427.77L2591.55,4427.96L2594.4,4430.22L2594.45,4430.25L2597.2,4432.44L2597.24,4432.48L2599.99,4434.66L2600.04,4434.7L2602.79,4436.89L2602.84,4436.93L2605.59,4439.13L2605.63,4439.16L2608.47,4441.44L2608.72,4441.63L2611.55,4443.91L2611.6,4443.95L2614.33,4446.15L2614.38,4446.19L2617.11,4448.4L2617.16,4448.43L2619.89,4450.64L2619.94,4450.68L2622.68,4452.89L2622.72,4452.93L2625.55,4455.22L2625.8,4455.42L2628.61,4457.72L2628.66,4457.75L2631.37,4459.97L2631.42,4460.01L2634.14,4462.24L2634.2,4462.28L2636.91,4464.51L2636.95,4464.54L2639.77,4466.85L2640.01,4467.05L2642.65,4469.22L2645.29,4471.4L2645.53,4471.59L2648.33,4473.91L2648.38,4473.95L2651.08,4476.19L2651.13,4476.23L2653.93,4478.56L2654.18,4478.76L2656.79,4480.94L2659.42,4483.13L2659.66,4483.33L2662.45,4485.67L2662.5,4485.71L2665.19,4487.97L2665.23,4488L2667.92,4490.26L2667.97,4490.3L2670.75,4492.64L2670.99,4492.85L2673.6,4495.05L2676.21,4497.26L2676.45,4497.46L2679.22,4499.82L2679.27,4499.86L2681.94,4502.13L2681.99,4502.16L2684.66,4504.44L2684.71,4504.48L2687.48,4506.85L2687.72,4507.05L2690.48,4509.42L2690.53,4509.46L2693.01,4511.6L2695.71,4513.9L2696.15,4514.28L2698.81,4516.59L2701.3,4518.74L2701.35,4518.78L2704.11,4521.16L2704.35,4521.37L2707.09,4523.76L2707.14,4523.8L2709.78,4526.1L2709.82,4526.14L2712.47,4528.45L2712.51,4528.49L2715.16,4530.8L2715.2,4530.84L2717.95,4533.23L2718.19,4533.45L2720.74,4535.7L2723.31,4537.95L2723.55,4538.16L2726.38,4540.66L2726.62,4540.87L2729.16,4543.13L2731.61,4545.3L2731.66,4545.34L2734.39,4547.76L2734.63,4547.97L2737.34,4550.4L2737.38,4550.44L2740,4552.77L2740.04,4552.81L2742.66,4555.15L2742.7,4555.19L2745.41,4557.62L2745.66,4557.84L2748.18,4560.12L2750.72,4562.4L2750.96,4562.62L2753.66,4565.06L2753.7,4565.1L2756.4,4567.54L2756.64,4567.76L2759.15,4570.05L2761.67,4572.34L2761.91,4572.56L2764.6,4575.02L2764.64,4575.06L2767.23,4577.42L2767.27,4577.46L2769.85,4579.83L2769.89,4579.87L2772.48,4582.24L2772.53,4582.29L2775.21,4584.76L2775.45,4584.98L2778.12,4587.44L2778.16,4587.48L2780.73,4589.87L2780.78,4589.91L2783.35,4592.29L2783.39,4592.33L2786.05,4594.81L2786.3,4595.04L2788.78,4597.36L2791.27,4599.68L2791.51,4599.9L2794.16,4602.39L2794.2,4602.43L2796.86,4604.93L2797.1,4605.15L2799.56,4607.49L2802.04,4609.82L2802.28,4610.05L2804.92,4612.55L2804.96,4612.59L2807.5,4615L2807.54,4615.04L2810.08,4617.46L2810.12,4617.5L2812.76,4620.01L2813.01,4620.24L2815.45,4622.59L2817.91,4624.94L2818.15,4625.17L2820.88,4627.79L2821.12,4628.02L2823.55,4630.37L2825.99,4632.73L2826.24,4632.97L2828.67,4635.33L2831.11,4637.69L2831.35,4637.92L2834.06,4640.56L2834.3,4640.8L2836.72,4643.16L2839.15,4645.53L2839.39,4645.77L2841.81,4648.15L2844.34,4650.63L2844.77,4651.05L2847.27,4653.53L2849.59,4655.82L2849.63,4655.86L2852.23,4658.42L2852.47,4658.66L2855.05,4661.23L2855.09,4661.27L2857.57,4663.74L2857.61,4663.78L2860.19,4666.35L2860.42,4666.59L2862.81,4668.99L2865.21,4671.39L2865.45,4671.63L2868.02,4674.21L2868.06,4674.26L2870.52,4676.74L2870.56,4676.78L2873.12,4679.36L2873.36,4679.61L2875.91,4682.2L2875.96,4682.25L2878.23,4684.56L2880.71,4687.08L2881.15,4687.52L2883.6,4690.04L2885.98,4692.47L2886.21,4692.71L2888.57,4695.14L2890.94,4697.57L2891.18,4697.81L2893.81,4700.53L2894.05,4700.78L2896.39,4703.21L2898.75,4705.65L2898.98,4705.9L2901.5,4708.52L2901.54,4708.56L2903.96,4711.09L2904,4711.13L2906.52,4713.76L2906.76,4714.02L2909.09,4716.46L2911.42,4718.91L2911.66,4719.16L2914.16,4721.8L2914.2,4721.85L2916.71,4724.49L2916.94,4724.74L2919.25,4727.2L2921.58,4729.66L2921.82,4729.91L2924.31,4732.57L2924.35,4732.62L2926.74,4735.17L2926.77,4735.21L2929.26,4737.87L2929.5,4738.13L2931.97,4740.79L2932.01,4740.83L2934.38,4743.4L2934.42,4743.44L2936.8,4746L2936.84,4746.05L2939.22,4748.62L2939.25,4748.65L2941.72,4751.33L2941.96,4751.59L2944.42,4754.27L2944.46,4754.32L2946.82,4756.9L2946.85,4756.94L2949.21,4759.52L2949.25,4759.56L2951.71,4762.25L2951.95,4762.51L2954.39,4765.2L2954.43,4765.25L2956.77,4767.84L2956.81,4767.88L2959.16,4770.48L2959.19,4770.52L2961.64,4773.22L2961.87,4773.48L2964.3,4776.19L2964.34,4776.24L2966.67,4778.84L2966.7,4778.88L2969.03,4781.48L2969.07,4781.53L2971.5,4784.25L2971.73,4784.51L2974.15,4787.23L2974.18,4787.27L2976.49,4789.89L2976.53,4789.93L2978.85,4792.55L2978.89,4792.59L2981.3,4795.33L2981.54,4795.59L2983.76,4798.13L2985.99,4800.66L2986.22,4800.93L2988.72,4803.78L2988.95,4804.05L2991.16,4806.59L2993.38,4809.14L2993.61,4809.41L2995.99,4812.16L2996.03,4812.2L2998.31,4814.84L2998.35,4814.89L3000.73,4817.65L3000.96,4817.92L3003.33,4820.68L3003.37,4820.72L3005.63,4823.37L3005.67,4823.42L3007.94,4826.07L3007.98,4826.11L3010.35,4828.89L3010.58,4829.16L3012.75,4831.73L3014.94,4834.3L3015.17,4834.57L3017.62,4837.47L3017.85,4837.74L3020.01,4840.32L3022.19,4842.9L3022.42,4843.18L3024.75,4845.97L3024.79,4846.01L3027.13,4848.81L3027.36,4849.08L3029.5,4851.68L3031.66,4854.27L3031.89,4854.54L3034.21,4857.35L3034.25,4857.39L3036.57,4860.2L3036.8,4860.48L3038.93,4863.08L3041.08,4865.69L3041.3,4865.96L3043.61,4868.78L3043.64,4868.82L3045.95,4871.65L3046.18,4871.93L3048.3,4874.54L3050.42,4877.16L3050.65,4877.44L3052.94,4880.27L3052.97,4880.31L3055.27,4883.15L3055.49,4883.44L3057.77,4886.28L3057.8,4886.32L3059.99,4889.05L3060.02,4889.09L3062.2,4891.82L3062.23,4891.86L3064.41,4894.59L3064.44,4894.63L3066.72,4897.48L3066.95,4897.77L3069.21,4900.63L3069.24,4900.67L3071.41,4903.41L3071.44,4903.45L3073.7,4906.32L3073.93,4906.61L3076.17,4909.48L3076.2,4909.52L3078.35,4912.27L3078.39,4912.31L3080.54,4915.07L3080.57,4915.11L3082.82,4917.99L3083.04,4918.27L3085.27,4921.15L3085.3,4921.2L3087.44,4923.96L3087.47,4924.01L3089.7,4926.9L3089.92,4927.19L3091.96,4929.85L3094.11,4932.64L3094.53,4933.19L3096.65,4935.98L3098.59,4938.53L3098.62,4938.57L3100.84,4941.48L3101.06,4941.77L3103.26,4944.68L3103.29,4944.73L3105.49,4947.64L3105.72,4947.93L3107.73,4950.62L3109.75,4953.31L3109.97,4953.6L3112.25,4956.65L3112.47,4956.95L3114.47,4959.65L3116.48,4962.34L3116.7,4962.64L3118.87,4965.57L3118.9,4965.62L3120.97,4968.43L3121,4968.46L3123.17,4971.4L3123.39,4971.71L3125.55,4974.65L3125.58,4974.7L3127.64,4977.52L3127.67,4977.56L3129.73,4980.38L3129.76,4980.42L3131.91,4983.38L3132.13,4983.68L3134.27,4986.63L3134.29,4986.67L3136.43,4989.64L3136.65,4989.94L3138.61,4992.67L3140.57,4995.4L3140.79,4995.7L3142.91,4998.67L3142.94,4998.71L3145.06,5001.69L3145.28,5001.99L3147.22,5004.73L3149.17,5007.47L3149.38,5007.78L3151.58,5010.89L3151.8,5011.2L3153.72,5013.95L3155.65,5016.69L3155.87,5017L3157.96,5020L3157.99,5020.04L3160.08,5023.04L3160.3,5023.35L3162.37,5026.36L3162.4,5026.4L3164.39,5029.27L3164.41,5029.31L3166.4,5032.19L3166.43,5032.23L3168.51,5035.24L3168.72,5035.55L3170.78,5038.57L3170.81,5038.61L3172.78,5041.5L3172.81,5041.54L3174.78,5044.43L3174.8,5044.47L3176.86,5047.5L3177.08,5047.81L3179.12,5050.84L3179.15,5050.89L3181.2,5053.92L3181.41,5054.23L3183.27,5057.02L3185.14,5059.81L3185.36,5060.12L3187.48,5063.3L3187.69,5063.62L3189.53,5066.42L3191.4,5069.22L3191.6,5069.53L3193.62,5072.58L3193.65,5072.62L3195.66,5075.69L3195.87,5076L3197.87,5079.07L3197.89,5079.1L3199.81,5082.03L3199.83,5082.07L3201.74,5085.01L3201.77,5085.05L3203.77,5088.12L3203.97,5088.44L3205.96,5091.52L3205.98,5091.55L3207.88,5094.5L3207.91,5094.54L3209.89,5097.62L3210.1,5097.94L3212.06,5101.03L3212.09,5101.07L3213.97,5104.02L3213.99,5104.06L3215.87,5107.01L3215.9,5107.05L3217.87,5110.15L3218.07,5110.47L3220.03,5113.57L3220.05,5113.61L3222,5116.72L3222.21,5117.04L3224.15,5120.15L3224.17,5120.19L3226.02,5123.16L3226.04,5123.2L3227.89,5126.17L3227.92,5126.22L3229.86,5129.34L3230.06,5129.66L3231.98,5132.78L3232.01,5132.82L3233.84,5135.8L3233.87,5135.84L3235.7,5138.83L3235.72,5138.87L3237.65,5142L3237.85,5142.33L3239.84,5145.61L3240.04,5145.94L3241.77,5148.81L3243.51,5151.68L3243.71,5152.01L3245.6,5155.16L3245.63,5155.2L3247.52,5158.35L3247.72,5158.68L3249.43,5161.56L3251.16,5164.45L3251.36,5164.78L3253.32,5168.08L3253.51,5168.41L3255.37,5171.57L3255.4,5171.62L3257.17,5174.64L3257.2,5174.68L3258.97,5177.7L3258.99,5177.74L3260.85,5180.91L3261.05,5181.25L3262.89,5184.43L3262.91,5184.46L3264.67,5187.5L3264.7,5187.54L3266.54,5190.72L3266.74,5191.06L3268.57,5194.25L3268.59,5194.28L3270.33,5197.33L3270.36,5197.37L3272.18,5200.57L3272.38,5200.9L3274.03,5203.82L3275.79,5206.89L3276.15,5207.53L3277.87,5210.6L3279.53,5213.53L3279.72,5213.87L3281.52,5217.08L3281.54,5217.12L3283.34,5220.34L3283.52,5220.68L3285.31,5223.9L3285.33,5223.94L3287.03,5227.01L3287.05,5227.05L3288.83,5230.27L3289.02,5230.61L3290.63,5233.56L3292.34,5236.66L3292.69,5237.31L3294.37,5240.41L3295.99,5243.37L3296.17,5243.71L3297.92,5246.95L3297.94,5246.99L3299.7,5250.24L3299.88,5250.58L3301.46,5253.55L3303.14,5256.66L3303.49,5257.32L3305.14,5260.44L3306.72,5263.41L3306.9,5263.76L3308.62,5267.02L3308.64,5267.06L3310.37,5270.33L3310.55,5270.68L3312.1,5273.66L3313.75,5276.8L3314.09,5277.45L3315.71,5280.6L3317.26,5283.59L3317.44,5283.93L3319.13,5287.22L3319.15,5287.26L3320.84,5290.55L3321.02,5290.89L3322.54,5293.9L3324.16,5297.06L3324.49,5297.71L3326.09,5300.88L3327.61,5303.89L3327.79,5304.24L3329.44,5307.54L3329.46,5307.58L3331.12,5310.89L3331.3,5311.24L3332.79,5314.26L3334.38,5317.44L3334.71,5318.1L3336.27,5321.28L3337.76,5324.31L3337.94,5324.66L3339.56,5327.99L3339.58,5328.03L3341.21,5331.36L3341.38,5331.71L3342.99,5335.05L3343.01,5335.08L3344.54,5338.26L3344.56,5338.3L3346.17,5341.64L3346.34,5341.99L3347.94,5345.34L3347.95,5345.37L3349.47,5348.56L3349.49,5348.6L3351.09,5351.95L3351.26,5352.31L3352.84,5355.66L3352.85,5355.7L3354.36,5358.9L3354.37,5358.93L3355.95,5362.3L3356.12,5362.65L3357.69,5366.02L3357.7,5366.05L3359.19,5369.26L3359.21,5369.3L3360.77,5372.67L3360.94,5373.03L3362.49,5376.4L3362.5,5376.44L3363.98,5379.66L3363.99,5379.69L3365.54,5383.08L3365.7,5383.43L3367.24,5386.82L3367.25,5386.86L3368.79,5390.25L3368.95,5390.61L3370.47,5394L3370.48,5394.03L3371.93,5397.27L3371.94,5397.3L3373.46,5400.7L3373.62,5401.07L3374.99,5404.16L3376.44,5407.42L3376.74,5408.11L3378.16,5411.38L3379.53,5414.48L3379.69,5414.84L3381.24,5418.42L3381.4,5418.78L3382.74,5421.9L3384.09,5425.01L3384.24,5425.37L3385.79,5428.97L3385.94,5429.32L3387.4,5432.76L3387.41,5432.79L3388.8,5436.07L3388.81,5436.1L3390.2,5439.37L3390.21,5439.4L3391.66,5442.85L3391.82,5443.21L3393.26,5446.66L3393.27,5446.69L3394.71,5450.14L3394.86,5450.5L3396.28,5453.96L3396.3,5453.99L3397.65,5457.28L3397.67,5457.31L3399.09,5460.77L3399.24,5461.14L3400.65,5464.6L3400.66,5464.64L3402,5467.94L3402.02,5467.97L3403.43,5471.44L3403.57,5471.81L3404.97,5475.28L3404.98,5475.31L3406.37,5478.79L3406.51,5479.15L3407.89,5482.64L3407.91,5482.67L3409.22,5485.99L3409.23,5486.02L3410.61,5489.51L3410.75,5489.87L3412.11,5493.37L3412.12,5493.4L3413.42,5496.73L3413.43,5496.75L3414.79,5500.25L3414.93,5500.62L3416.28,5504.12L3416.29,5504.15L3417.58,5507.49L3417.59,5507.52L3418.93,5511.03L3419.07,5511.4L3420.4,5514.91L3420.41,5514.94L3421.74,5518.46L3421.88,5518.83L3423.2,5522.35L3423.21,5522.38L3424.46,5525.73L3424.47,5525.77L3425.79,5529.29L3425.92,5529.66L3427.22,5533.19L3427.23,5533.22L3428.47,5536.58L3428.48,5536.61L3429.78,5540.15L3429.91,5540.52L3431.2,5544.06L3431.21,5544.09L3432.49,5547.64L3432.62,5548L3433.89,5551.55L3433.9,5551.58L3435.11,5554.96L3435.12,5554.99L3436.39,5558.55L3436.52,5558.91L3437.77,5562.47L3437.78,5562.5L3439.03,5566.06L3439.16,5566.43L3440.4,5570L3440.41,5570.03L3441.59,5573.42L3441.6,5573.45L3442.78,5576.86L3442.78,5576.88L3444.02,5580.46L3444.15,5580.83L3445.43,5584.58L3445.55,5584.95L3446.76,5588.53L3446.77,5588.56L3447.92,5591.98L3447.93,5592L3449.07,5595.42L3449.08,5595.45L3450.29,5599.04L3450.41,5599.41L3451.66,5603.18L3451.78,5603.55L3452.85,5606.82L3453.93,5610.1L3454.05,5610.47L3455.28,5614.25L3455.4,5614.62L3456.56,5618.23L3456.57,5618.26L3457.67,5621.7L3457.68,5621.72L3458.84,5625.34L3458.95,5625.71L3460.1,5629.34L3460.11,5629.36L3461.2,5632.81L3461.2,5632.84L3462.35,5636.47L3462.46,5636.84L3463.59,5640.47L3463.6,5640.5L3464.72,5644.13L3464.84,5644.5L3465.95,5648.14L3465.96,5648.17L3467.02,5651.64L3467.03,5651.66L3468.14,5655.31L3468.25,5655.68L3469.35,5659.33L3469.35,5659.35L3470.45,5663L3470.56,5663.38L3471.64,5667.03L3471.65,5667.06L3472.68,5670.54L3472.68,5670.57L3473.76,5674.23L3473.87,5674.6L3474.94,5678.27L3474.95,5678.29L3476.01,5681.96L3476.12,5682.34L3477.17,5686.01L3477.18,5686.03L3478.17,5689.53L3478.18,5689.56L3479.23,5693.24L3479.34,5693.61L3480.37,5697.3L3480.38,5697.32L3481.36,5700.83L3481.37,5700.86L3482.4,5704.55L3482.51,5704.92L3483.57,5708.79L3483.67,5709.16L3484.68,5712.86L3484.68,5712.88L3485.64,5716.41L3485.64,5716.43L3486.6,5719.96L3486.61,5719.98L3487.61,5723.69L3487.71,5724.06L3488.74,5727.95L3488.84,5728.32L3489.72,5731.7L3490.66,5735.25L3490.85,5735.97L3491.77,5739.53L3492.65,5742.92L3492.75,5743.29L3493.75,5747.19L3493.84,5747.57L3494.7,5750.96L3495.61,5754.53L3495.79,5755.25L3496.68,5758.83L3497.53,5762.23L3497.62,5762.6L3498.59,5766.52L3498.68,5766.9L3499.59,5770.65L3499.6,5770.67L3500.46,5774.24L3500.47,5774.26L3501.38,5778.02L3501.47,5778.39L3502.36,5782.15L3502.37,5782.17L3503.22,5785.76L3503.22,5785.78L3504.12,5789.54L3504.2,5789.92L3505.12,5793.86L3505.21,5794.24L3505.99,5797.67L3506.83,5801.28L3507,5802L3507.81,5805.61L3508.59,5809.06L3508.67,5809.43L3509.56,5813.39L3509.64,5813.76L3510.4,5817.21L3511.21,5820.84L3511.37,5821.56L3512.15,5825.19L3512.9,5828.65L3512.98,5829.02L3513.84,5833L3513.91,5833.37L3514.72,5837.18L3514.72,5837.2L3515.48,5840.83L3515.49,5840.85L3516.29,5844.66L3516.36,5845.04L3517.15,5848.86L3517.15,5848.87L3517.94,5852.69L3518.01,5853.07L3518.78,5856.89L3518.78,5856.91L3519.52,5860.56L3519.52,5860.58L3520.29,5864.41L3520.36,5864.78L3521.15,5868.79L3521.22,5869.16L3521.89,5872.66L3522.62,5876.33L3522.76,5877.05L3523.45,5880.73L3524.12,5884.23L3524.19,5884.61L3524.94,5888.63L3525.01,5889L3525.72,5892.86L3525.72,5892.88L3526.4,5896.56L3526.4,5896.57L3527.11,5900.44L3527.17,5900.81L3527.86,5904.67L3527.87,5904.69L3528.53,5908.38L3528.53,5908.4L3529.25,5912.44L3529.38,5913.17L3530.01,5916.88L3530.63,5920.41L3530.69,5920.78L3531.35,5924.66L3531.35,5924.68L3532.01,5928.56L3532.08,5928.93L3532.72,5932.82L3532.72,5932.83L3533.37,5936.73L3533.43,5937.1L3534.06,5940.99L3534.06,5941.01L3534.66,5944.73L3534.66,5944.74L3535.29,5948.65L3535.35,5949.02L3535.99,5953.1L3536.05,5953.47L3536.65,5957.38L3536.65,5957.39L3537.22,5961.13L3537.22,5961.14L3537.82,5965.06L3537.88,5965.43L3538.46,5969.35L3538.46,5969.36L3539.02,5973.11L3539.02,5973.12L3539.6,5977.04L3539.66,5977.41L3540.25,5981.52L3540.3,5981.89L3540.85,5985.82L3540.86,5985.83L3541.38,5989.6L3541.39,5989.61L3541.94,5993.55L3541.99,5993.91L3542.52,5997.86L3542.53,5997.87L3543.06,6001.82L3543.11,6002.18L3543.63,6006.13L3543.63,6006.15L3544.13,6009.93L3544.13,6009.94L3544.65,6013.89L3544.7,6014.26L3545.23,6018.4L3545.28,6018.76L3545.77,6022.73L3545.77,6022.74L3546.24,6026.53L3546.24,6026.54L3546.73,6030.51L3546.77,6030.87L3547.25,6034.85L3547.25,6034.86L3547.72,6038.84L3547.76,6039.2L3548.22,6043.18L3548.23,6043.19L3548.66,6047L3548.67,6047.01L3549.15,6051.18L3549.22,6051.89L3549.64,6055.71L3550.04,6059.36L3550.08,6059.72L3550.51,6063.73L3550.94,6067.73L3550.98,6068.1L3551.39,6072.11L3551.8,6076.12L3551.84,6076.48L3552.24,6080.49L3552.24,6080.5L3552.64,6084.52L3552.67,6084.88L3553.06,6088.9L3553.44,6092.93L3553.47,6093.29L3553.84,6097.32L3554.19,6101.18L3554.56,6105.22L3554.59,6105.57L3554.96,6109.79L3554.99,6110.14L3555.29,6113.84L3555.63,6117.71L3555.69,6118.42L3556.03,6122.65L3556.33,6126.53L3556.65,6130.58L3556.68,6130.94L3556.99,6135L3557.28,6138.89L3557.59,6142.96L3557.61,6143.31L3557.91,6147.56L3557.94,6147.91L3558.22,6151.99L3558.48,6155.89L3558.75,6159.97L3558.78,6160.32L3559.05,6164.58L3559.07,6164.93L3559.31,6169.02L3559.55,6172.94L3559.79,6177.03L3559.81,6177.38L3560.04,6181.48L3560.27,6185.58L3560.29,6185.93L3560.5,6190.04L3560.72,6194.14L3560.73,6194.49L3560.93,6198.61L3561.13,6202.72L3561.15,6203.07L3561.33,6207.19L3561.51,6211.14L3561.69,6215.26L3561.7,6215.61L3561.88,6219.9L3561.89,6220.25L3562.05,6224.39L3562.19,6228.35L3562.34,6232.48L3562.36,6232.83L3562.5,6237.14L3562.51,6237.49L3562.62,6241.29L3562.75,6245.26L3562.77,6245.95L3562.88,6250.28L3562.99,6254.26L3563.09,6258.42L3563.1,6258.76L3563.19,6262.94L3563.19,6262.99L3563.52,6277.99L3563.52,6278L3563.84,6293.07L3563.84,6293.17L3564.15,6308.31L3564.15,6308.31L3564.46,6323.5L3564.46,6323.6L3564.75,6338.85L3564.75,6338.85L3565.04,6354.15L3565.05,6354.25L3565.33,6369.65L3565.33,6369.74L3565.59,6385.06L3565.87,6400.44L3565.87,6400.53L3566.13,6416.09L3566.13,6416.18L3566.38,6431.75L3566.38,6431.76L3566.63,6447.33L3566.63,6447.34L3566.88,6463.01L3566.88,6463.1L3567.12,6478.87L3567.12,6478.96L3567.34,6494.65L3567.57,6510.39L3567.57,6510.48L3567.79,6526.4L3567.79,6526.49L3568,6542.42L3568.2,6558.35L3568.41,6574.34L3568.61,6590.41L3568.61,6590.5L3568.8,6606.67L3568.8,6606.75L3568.98,6622.84L3569.17,6638.98L3569.17,6639.06L3569.35,6655.33L3569.52,6671.65L3569.52,6671.73L3569.68,6688.1L3569.84,6704.46L3570,6720.91L3570.01,6721L3570.15,6737.41L3570.31,6753.92L3570.31,6754.08L3570.44,6770.63L3570.59,6787.18L3570.59,6787.27L3570.72,6803.94L3570.85,6820.62L3570.99,6837.35L3571.12,6854.15L3571.12,6854.24L3571.23,6871.09L3571.35,6887.94L3571.47,6904.83L3571.59,6921.8L3571.59,6921.89L3571.69,6938.9L3571.79,6955.92L3571.89,6972.97L3571.99,6990.07L3572.1,7007.24L3572.1,7007.32L3572.27,7041.75L3572.45,7076.29L3572.62,7111L3572.62,7111.04L3572.78,7145.92L3572.78,7145.96L3572.93,7180.96L3573.08,7216.09L3573.22,7251.36L3573.22,7251.4L3573.36,7286.82L3573.49,7322.35L3573.62,7358.02L3573.62,7358.06L3573.73,7393.83L3574,7465.73L3574,7465.75L3574.24,7538.14L3574.51,7610.96L3574.64,7647.53L3574.77,7684.17L3574.92,7720.91L3575.06,7757.75L3575.22,7794.64L3575.4,7831.65L3575.57,7868.79L3575.75,7905.97L3575.94,7943.2L3576.04,7961.77L3576.16,7980.43L3576.16,7980.5L3576.26,7999.25L3576.36,8017.91L3576.48,8036.59L3576.59,8055.36L3576.71,8074.07L3576.84,8092.8L3576.97,8111.62L3577.1,8130.45L3577.24,8149.3L3577.37,8168.09L3577.51,8186.89L3577.66,8205.71L3577.82,8224.58L3577.82,8224.65L3577.96,8243.54L3578.12,8262.4L3578.28,8281.27L3578.46,8300.15L3578.63,8319.12L3578.81,8338.03L3579,8356.94L3579.19,8375.94L3579.38,8394.88L3579.58,8413.83L3579.78,8432.86L3579.99,8451.83L3580.2,8470.81L3580.42,8489.79L3582.95,8695.65L3209.22,8700.23L3206.69,8494.26L3206.69,8494.19L3206.47,8475.1L3206.25,8456.02L3206.25,8455.95L3206.05,8436.88L3205.84,8417.85L3205.64,8398.79L3205.64,8398.72L3205.45,8379.68L3205.26,8360.68L3205.07,8341.66L3205.07,8341.58L3204.89,8322.57L3204.71,8303.6L3204.54,8284.61L3204.54,8284.54L3204.38,8265.57L3204.22,8246.6L3204.22,8246.53L3204.07,8227.65L3203.91,8208.78L3203.91,8208.71L3203.76,8189.78L3203.62,8170.87L3203.62,8170.8L3203.48,8151.9L3203.35,8133.06L3203.22,8114.23L3203.09,8095.41L3202.96,8076.57L3202.96,8076.5L3202.84,8057.68L3202.72,8038.92L3202.61,8020.13L3202.61,8020.06L3202.5,8001.29L3202.4,7982.65L3202.29,7963.99L3202.28,7963.92L3202.18,7945.19L3202.18,7945.15L3201.99,7907.82L3201.99,7907.78L3201.82,7870.55L3201.64,7833.42L3201.47,7796.35L3201.47,7796.31L3201.31,7759.32L3201.31,7759.28L3201.16,7722.4L3201.01,7685.6L3201.01,7685.57L3200.88,7648.87L3200.75,7612.3L3200.49,7539.46L3200.49,7539.44L3200.24,7467.06L3199.98,7395.14L3199.98,7395.1L3199.86,7359.34L3199.73,7323.73L3199.6,7288.2L3199.47,7252.85L3199.32,7217.64L3199.17,7182.52L3199.03,7147.58L3198.87,7112.83L3198.69,7078.18L3198.52,7043.65L3198.34,7009.35L3198.24,6992.3L3198.14,6975.21L3198.04,6958.16L3197.93,6941.15L3197.83,6924.26L3197.72,6907.41L3197.6,6890.52L3197.48,6873.68L3197.37,6856.96L3197.24,6840.28L3197.11,6823.56L3196.97,6806.89L3196.84,6790.35L3196.7,6773.8L3196.7,6773.72L3196.57,6757.3L3196.41,6740.93L3196.41,6740.85L3196.26,6724.44L3196.1,6708.12L3195.94,6691.77L3195.78,6675.54L3195.61,6659.36L3195.43,6643.23L3195.24,6627.11L3195.24,6627.03L3195.07,6610.95L3194.88,6595.05L3194.68,6579.11L3194.47,6563.14L3194.27,6547.22L3194.07,6531.43L3193.85,6515.79L3193.62,6500.06L3193.61,6499.98L3193.4,6484.3L3193.16,6468.81L3192.92,6453.28L3192.67,6437.72L3192.42,6422.3L3192.16,6407.02L3191.89,6391.66L3191.89,6391.58L3191.62,6376.28L3191.35,6361.16L3191.06,6346.02L3190.77,6330.93L3190.47,6315.89L3190.16,6300.92L3189.84,6285.99L3189.52,6271.08L3189.44,6267.49L3189.35,6263.85L3189.25,6259.88L3189.16,6256.59L3189.05,6253.14L3189.04,6252.8L3188.93,6249L3188.82,6245.73L3188.68,6242.12L3188.54,6238.17L3188.41,6234.57L3188.27,6231.32L3188.12,6227.72L3187.94,6223.79L3187.78,6220.2L3187.61,6216.62L3187.43,6213.04L3187.25,6209.47L3187.06,6205.9L3186.86,6202.34L3186.66,6198.78L3186.45,6195.22L3186.22,6191.32L3186.01,6187.78L3185.8,6184.58L3185.57,6181.04L3185.3,6177.16L3185.07,6173.63L3184.84,6170.45L3184.57,6166.93L3184.28,6163.06L3184.02,6159.55L3183.74,6156.04L3183.43,6152.18L3183.18,6149.03L3182.89,6145.7L3182.87,6145.36L3182.56,6141.69L3182.29,6138.55L3181.97,6135.07L3181.62,6131.24L3181.3,6127.76L3180.97,6124.29L3180.64,6120.82L3180.3,6117.36L3179.96,6113.9L3179.6,6110.44L3179.24,6106.99L3178.88,6103.54L3178.51,6100.1L3178.11,6096.48L3178.07,6096.13L3177.72,6092.87L3177.36,6089.79L3176.93,6086.01L3176.53,6082.59L3176.12,6079.17L3175.72,6075.75L3175.29,6072.34L3174.83,6068.58L3174.41,6065.18L3174.02,6062.13L3173.57,6058.74L3173.08,6054.99L3172.63,6051.61L3172.17,6048.22L3171.71,6044.85L3171.24,6041.47L3170.72,6037.74L3170.25,6034.38L3169.81,6031.37L3169.31,6028.01L3168.76,6024.3L3168.26,6020.95L3167.75,6017.61L3167.19,6013.91L3166.68,6010.57L3166.21,6007.59L3165.67,6004.26L3165.08,6000.58L3164.54,5997.25L3163.99,5993.93L3163.44,5990.62L3162.88,5987.31L3162.32,5984L3161.71,5980.51L3161.65,5980.17L3161.12,5977.04L3160.59,5974.1L3159.94,5970.45L3159.35,5967.17L3158.75,5963.88L3158.08,5960.25L3157.48,5956.97L3156.94,5954.05L3156.27,5950.6L3156.21,5950.26L3155.63,5947.16L3155.02,5944.07L3154.96,5943.73L3154.29,5940.29L3153.72,5937.39L3153.07,5934.14L3152.35,5930.55L3151.7,5927.3L3151.03,5924.07L3150.37,5920.83L3149.69,5917.6L3148.94,5914.02L3148.26,5910.8L3147.65,5907.93L3146.9,5904.53L3146.83,5904.2L3146.18,5901.15L3145.5,5898.11L3145.43,5897.78L3144.68,5894.39L3144.05,5891.54L3143.27,5888.16L3143.2,5887.83L3142.52,5884.8L3141.82,5881.78L3141.74,5881.44L3140.97,5878.07L3140.31,5875.25L3139.56,5872.07L3138.72,5868.54L3137.97,5865.37L3137.2,5862.21L3136.35,5858.69L3135.59,5855.53L3134.89,5852.73L3134.06,5849.39L3133.97,5849.06L3133.24,5846.08L3132.47,5843.1L3132.39,5842.77L3131.55,5839.44L3130.84,5836.66L3129.97,5833.34L3129.89,5833.01L3129.12,5830.05L3128.34,5827.08L3128.25,5826.75L3127.39,5823.45L3126.65,5820.68L3125.81,5817.56L3124.87,5814.1L3123.93,5810.65L3123.09,5807.54L3122.34,5804.79L3121.47,5801.69L3120.5,5798.25L3119.64,5795.16L3118.76,5792.08L3117.78,5788.65L3116.9,5785.57L3116.01,5782.49L3115.11,5779.42L3114.21,5776.35L3113.2,5772.94L3112.3,5769.88L3111.38,5766.82L3110.46,5763.77L3109.53,5760.72L3108.49,5757.33L3107.57,5754.28L3106.62,5751.25L3105.68,5748.21L3104.72,5745.18L3103.66,5741.8L3102.71,5738.78L3101.74,5735.76L3100.66,5732.39L3099.69,5729.38L3098.83,5726.71L3097.77,5723.52L3097.67,5723.2L3096.63,5720.01L3095.75,5717.35L3094.74,5714.36L3093.62,5711.02L3092.5,5707.69L3091.49,5704.7L3090.6,5702.06L3089.56,5699.08L3088.41,5695.76L3087.27,5692.44L3086.24,5689.47L3085.19,5686.51L3084.15,5683.55L3083.1,5680.59L3081.92,5677.29L3080.86,5674.34L3079.8,5671.39L3078.73,5668.44L3077.65,5665.5L3076.44,5662.22L3075.36,5659.28L3074.27,5656.35L3073.05,5653.09L3071.96,5650.16L3070.85,5647.24L3069.74,5644.32L3068.63,5641.4L3067.38,5638.15L3066.26,5635.24L3065.13,5632.34L3063.87,5629.1L3062.74,5626.2L3061.6,5623.3L3060.32,5620.08L3059.18,5617.19L3058.02,5614.3L3056.87,5611.42L3055.7,5608.54L3054.4,5605.33L3053.23,5602.46L3052.05,5599.59L3050.73,5596.39L3049.55,5593.53L3048.36,5590.67L3047.16,5587.81L3045.96,5584.96L3044.61,5581.78L3043.27,5578.61L3042.06,5575.76L3040.98,5573.25L3039.67,5570.23L3039.55,5569.94L3038.25,5566.92L3037.16,5564.42L3035.84,5561.41L3035.71,5561.12L3034.54,5558.44L3033.35,5555.76L3033.22,5555.47L3031.9,5552.48L3030.64,5549.66L3029.24,5546.52L3027.99,5543.72L3026.72,5540.91L3025.45,5538.11L3024.17,5535.31L3022.74,5532.19L3021.46,5529.4L3020.17,5526.61L3018.72,5523.5L3017.43,5520.72L3016.12,5517.94L3014.67,5514.84L3013.36,5512.07L3012.04,5509.3L3010.57,5506.21L3009.25,5503.44L3007.92,5500.68L3006.43,5497.61L3005.1,5494.85L3003.76,5492.1L3002.42,5489.35L3000.97,5486.43L3000.83,5486.15L2999.56,5483.55L2998.26,5480.94L2998.12,5480.66L2996.68,5477.76L2995.31,5475.02L2993.94,5472.29L2992.47,5469.39L2992.33,5469.11L2991.03,5466.53L2989.7,5463.94L2989.57,5463.67L2988.09,5460.77L2986.7,5458.06L2985.3,5455.34L2983.81,5452.46L2983.67,5452.19L2982.34,5449.62L2980.99,5447.05L2980.85,5446.78L2979.35,5443.91L2977.93,5441.21L2976.51,5438.52L2974.99,5435.65L2974.85,5435.38L2973.5,5432.83L2972.13,5430.28L2971.98,5430.01L2970.46,5427.15L2969.01,5424.47L2967.57,5421.8L2966.02,5418.95L2965.87,5418.69L2964.5,5416.15L2963.1,5413.61L2962.96,5413.35L2961.41,5410.52L2959.93,5407.85L2958.3,5404.89L2956.83,5402.24L2955.34,5399.59L2953.86,5396.93L2952.27,5394.12L2952.12,5393.86L2950.71,5391.35L2949.28,5388.83L2949.13,5388.57L2947.54,5385.77L2946.03,5383.13L2944.35,5380.2L2942.84,5377.57L2941.32,5374.95L2939.62,5372.03L2938.1,5369.41L2936.57,5366.79L2934.86,5363.88L2933.16,5360.98L2931.62,5358.37L2930.25,5356.05L2928.59,5353.28L2928.44,5353.03L2926.79,5350.26L2925.23,5347.66L2923.67,5345.07L2922,5342.31L2921.85,5342.06L2920.19,5339.31L2918.79,5337.01L2917.21,5334.43L2915.45,5331.56L2913.68,5328.7L2912.1,5326.12L2910.5,5323.55L2908.72,5320.7L2906.95,5317.84L2905.35,5315.28L2903.74,5312.72L2902.13,5310.16L2900.5,5307.61L2898.7,5304.77L2896.9,5301.94L2895.27,5299.39L2893.64,5296.85L2891.82,5294.03L2890.18,5291.49L2888.53,5288.95L2886.7,5286.15L2884.87,5283.34L2883.22,5280.81L2881.56,5278.29L2879.89,5275.76L2878.11,5273.09L2877.96,5272.85L2876.19,5270.18L2874.7,5267.94L2872.9,5265.27L2872.75,5265.04L2870.97,5262.38L2869.28,5259.87L2867.59,5257.37L2865.89,5254.87L2864,5252.1L2862.11,5249.34L2860.41,5246.85L2858.7,5244.36L2856.8,5241.6L2854.9,5238.85L2853.18,5236.37L2851.45,5233.89L2849.73,5231.42L2847.88,5228.79L2847.72,5228.57L2845.89,5225.94L2844.33,5223.74L2842.47,5221.12L2842.31,5220.9L2840.46,5218.29L2838.71,5215.83L2836.95,5213.37L2835.08,5210.77L2834.92,5210.55L2833.06,5207.95L2831.29,5205.5L2829.52,5203.06L2827.74,5200.61L2825.77,5197.91L2823.8,5195.22L2822.03,5192.78L2820.23,5190.35L2818.25,5187.66L2816.45,5185.24L2814.54,5182.66L2814.38,5182.45L2812.48,5179.89L2810.86,5177.72L2808.93,5175.15L2808.77,5174.94L2806.85,5172.38L2805.03,5169.97L2803.21,5167.57L2801.38,5165.16L2799.24,5162.36L2799.09,5162.15L2797.35,5159.86L2795.58,5157.56L2795.42,5157.36L2793.47,5154.81L2791.63,5152.42L2789.59,5149.79L2787.75,5147.4L2785.89,5145.01L2783.84,5142.39L2781.78,5139.77L2779.92,5137.39L2778.05,5135.01L2775.99,5132.4L2774.12,5130.03L2772.23,5127.66L2770.15,5125.06L2768.07,5122.46L2765.99,5119.86L2764.1,5117.5L2762.21,5115.15L2760.3,5112.8L2758.28,5110.31L2758.12,5110.11L2756.1,5107.63L2754.19,5105.29L2752.28,5102.95L2750.24,5100.47L2750.08,5100.28L2748.05,5097.81L2746.13,5095.47L2744.2,5093.14L2742.14,5090.68L2741.99,5090.49L2739.95,5088.03L2738.01,5085.7L2736.07,5083.38L2734,5080.93L2733.84,5080.74L2731.79,5078.29L2730.03,5076.21L2727.95,5073.77L2727.78,5073.57L2725.71,5071.13L2723.75,5068.83L2721.59,5066.3L2719.43,5063.78L2717.46,5061.48L2715.48,5059.19L2713.3,5056.67L2711.32,5054.38L2709.22,5051.96L2709.06,5051.78L2706.96,5049.36L2705.16,5047.31L2703.04,5044.9L2702.88,5044.71L2700.77,5042.3L2698.76,5040.03L2696.56,5037.54L2694.36,5035.05L2692.35,5032.78L2690.33,5030.52L2688.11,5028.04L2685.89,5025.57L2683.88,5023.31L2681.84,5021.06L2679.61,5018.59L2677.38,5016.13L2675.35,5013.88L2673.3,5011.64L2671.05,5009.18L2668.81,5006.73L2666.76,5004.5L2664.7,5002.27L2662.44,4999.82L2660.18,4997.38L2657.92,4994.94L2655.86,4992.72L2653.79,4990.5L2651.51,4988.07L2649.44,4985.86L2647.24,4983.53L2647.08,4983.36L2644.88,4981.02L2642.79,4978.81L2640.7,4976.61L2638.48,4974.28L2638.32,4974.11L2636.12,4971.79L2634.02,4969.6L2631.72,4967.2L2629.61,4965L2627.38,4962.69L2627.22,4962.53L2625,4960.22L2623.08,4958.24L2620.84,4955.94L2620.68,4955.77L2618.44,4953.47L2616.19,4951.17L2616.03,4951.01L2614,4948.92L2611.93,4946.82L2611.77,4946.66L2609.33,4944.17L2607.2,4942.01L2605.05,4939.84L2602.71,4937.48L2600.57,4935.32L2598.29,4933.04L2598.14,4932.89L2595.87,4930.61L2593.72,4928.46L2591.36,4926.11L2589.2,4923.97L2587.03,4921.82L2584.54,4919.37L2584.39,4919.21L2582.3,4917.15L2580.2,4915.09L2580.04,4914.94L2577.75,4912.69L2575.45,4910.44L2575.29,4910.28L2573,4908.03L2571.01,4906.1L2568.69,4903.86L2568.54,4903.71L2566.23,4901.47L2563.91,4899.24L2563.76,4899.09L2561.45,4896.85L2559.45,4894.93L2557.12,4892.7L2556.96,4892.55L2554.64,4890.33L2552.43,4888.22L2550.02,4885.93L2547.61,4883.64L2545.39,4881.54L2543.05,4879.32L2542.89,4879.18L2540.56,4876.98L2538.34,4874.88L2536.11,4872.79L2533.74,4870.59L2533.59,4870.44L2531.24,4868.25L2529,4866.17L2526.56,4863.9L2524.13,4861.64L2521.88,4859.57L2519.63,4857.49L2517.18,4855.24L2514.72,4852.99L2512.27,4850.75L2510.02,4848.69L2507.63,4846.52L2507.47,4846.37L2505.1,4844.21L2502.83,4842.15L2500.56,4840.1L2498.16,4837.94L2498.01,4837.8L2495.62,4835.65L2493.33,4833.6L2490.85,4831.38L2488.37,4829.16L2486.09,4827.12L2483.79,4825.09L2481.18,4822.77L2481.02,4822.64L2478.62,4820.5L2476.52,4818.65L2474.09,4816.51L2473.93,4816.38L2471.52,4814.25L2469.2,4812.23L2466.7,4810.04L2464.19,4807.85L2461.68,4805.66L2459.37,4803.65L2457.05,4801.64L2454.4,4799.36L2454.25,4799.23L2452.01,4797.3L2449.75,4795.36L2449.6,4795.22L2446.96,4792.95L2444.63,4790.96L2442.29,4788.96L2439.76,4786.81L2437.22,4784.65L2434.88,4782.66L2432.4,4780.57L2432.26,4780.45L2429.8,4778.36L2427.44,4776.39L2424.89,4774.24L2422.34,4772.1L2419.99,4770.13L2417.49,4768.06L2417.35,4767.93L2414.87,4765.87L2412.51,4763.9L2409.94,4761.78L2407.57,4759.82L2405.07,4757.75L2404.92,4757.63L2402.43,4755.58L2400.05,4753.63L2397.47,4751.51L2394.9,4749.41L2392.32,4747.31L2389.93,4745.36L2387.54,4743.42L2384.95,4741.32L2382.36,4739.23L2379.76,4737.14L2377.17,4735.05L2374.78,4733.12L2372.36,4731.19L2369.76,4729.11L2367.15,4727.04L2364.55,4724.96L2361.94,4722.89L2359.53,4720.98L2357.11,4719.07L2354.37,4716.91L2354.22,4716.8L2351.69,4714.79L2349.45,4713.04L2346.89,4711.04L2346.75,4710.93L2344.2,4708.93L2341.64,4706.94L2341.5,4706.83L2338.95,4704.84L2336.51,4702.95L2333.88,4700.91L2331.43,4699.02L2328.86,4697.04L2328.72,4696.93L2326.16,4694.95L2323.58,4692.98L2323.44,4692.87L2320.87,4690.9L2318.61,4689.17L2316.02,4687.2L2315.88,4687.09L2313.11,4684.98L2310.66,4683.11L2308.07,4681.16L2307.93,4681.05L2305.35,4679.1L2302.88,4677.23L2300.41,4675.37L2297.8,4673.42L2297.66,4673.32L2294.89,4671.23L2292.41,4669.38L2289.93,4667.53L2287.25,4665.53L2284.58,4663.55L2281.91,4661.57L2279.23,4659.58L2276.75,4657.75L2274.13,4655.82L2273.99,4655.72L2271.38,4653.8L2268.88,4651.97L2266.2,4650L2263.5,4648.03L2261,4646.21L2258.37,4644.3L2258.24,4644.2L2255.62,4642.3L2253.1,4640.48L2250.4,4638.53L2247.7,4636.58L2244.99,4634.63L2242.29,4632.69L2239.78,4630.89L2237.13,4629L2236.99,4628.9L2234.36,4627.01L2231.83,4625.21L2229.11,4623.28L2226.4,4621.36L2223.87,4619.57L2221.2,4617.7L2221.07,4617.6L2218.42,4615.73L2215.75,4613.86L2215.62,4613.77L2212.97,4611.9L2210.43,4610.12L2207.7,4608.22L2204.97,4606.31L2202.42,4604.54L2199.74,4602.68L2199.61,4602.59L2196.95,4600.74L2194.27,4598.9L2194.14,4598.81L2191.48,4596.96L2188.92,4595.2L2186.17,4593.31L2183.61,4591.56L2180.92,4589.73L2180.79,4589.63L2178.11,4587.8L2175.42,4585.97L2175.28,4585.88L2172.61,4584.06L2170.04,4582.31L2167.28,4580.44L2164.52,4578.58L2161.76,4576.72L2159.19,4574.99L2156.48,4573.18L2156.35,4573.09L2153.66,4571.28L2150.95,4569.47L2150.82,4569.38L2148.13,4567.58L2145.54,4565.86L2142.77,4564.02L2139.99,4562.18L2137.4,4560.46L2134.68,4558.67L2134.55,4558.59L2131.85,4556.8L2129.13,4555.01L2129,4554.93L2126.29,4553.14L2123.68,4551.44L2120.9,4549.61L2118.11,4547.8L2115.33,4545.98L2112.72,4544.29L2109.98,4542.52L2109.86,4542.44L2107.14,4540.67L2104.4,4538.91L2104.27,4538.83L2101.55,4537.07L2098.93,4535.38L2096.13,4533.59L2093.33,4531.79L2090.53,4530L2087.74,4528.21L2085.11,4526.54L2082.37,4524.8L2082.23,4524.72L2079.5,4522.98L2076.87,4521.31L2073.93,4519.46L2073.81,4519.39L2071.07,4517.65L2068.44,4515.99L2065.8,4514.34L2063.03,4512.61L2062.91,4512.54L2059.99,4510.7L2057.35,4509.05L2054.58,4507.33L2054.46,4507.26L2051.71,4505.54L2048.94,4503.83L2048.82,4503.76L2046.07,4502.04L2043.42,4500.41L2040.59,4498.66L2037.76,4496.92L2035.11,4495.29L2032.33,4493.6L2032.21,4493.52L2029.27,4491.72L2026.61,4490.09L2023.83,4488.4L2023.71,4488.33L2020.94,4486.64L2018.28,4485.03L2015.44,4483.31L2012.6,4481.59L2009.76,4479.88L2006.91,4478.16L2004.07,4476.45L2001.23,4474.75L1998.56,4473.15L1995.77,4471.48L1995.65,4471.41L1992.87,4469.75L1990.18,4468.15L1987.22,4466.39L1987.1,4466.33L1984.32,4464.67L1981.63,4463.08L1978.78,4461.4L1975.93,4459.72L1973.07,4458.03L1970.38,4456.46L1967.58,4454.82L1967.46,4454.75L1964.49,4453.01L1961.81,4451.44L1959.11,4449.87L1956.13,4448.14L1956.01,4448.07L1953.21,4446.44L1950.52,4444.89L1947.65,4443.23L1944.78,4441.57L1941.91,4439.92L1939.04,4438.27L1936.17,4436.62L1933.3,4434.98L1930.61,4433.44L1927.78,4431.83L1927.66,4431.77L1924.85,4430.16L1922.03,4428.56L1921.91,4428.49L1919.1,4426.9L1916.39,4425.36L1913.39,4423.68L1913.28,4423.61L1910.47,4422.02L1907.75,4420.49L1904.87,4418.87L1901.98,4417.26L1899.22,4415.71L1893.41,4412.48L1887.64,4409.27L1881.95,4406.11L1876.25,4402.97L1870.46,4399.8L1864.68,4396.63L1858.97,4393.51L1853.26,4390.41L1847.45,4387.28L1841.66,4384.15L1835.93,4381.08L1830.21,4378.01L1824.39,4374.92L1818.58,4371.83L1812.84,4368.8L1807.02,4365.73L1801.2,4362.68L1795.46,4359.67L1789.71,4356.68L1783.79,4353.61L1778.05,4350.64L1772.29,4347.67L1766.37,4344.64L1760.62,4341.69L1754.85,4338.76L1748.92,4335.75L1743.17,4332.84L1737.39,4329.93L1731.46,4326.95L1725.69,4324.07L1719.83,4321.15L1713.98,4318.24L1708.2,4315.39L1702.34,4312.5L1696.48,4309.62L1690.62,4306.76L1684.83,4303.94L1678.96,4301.1L1673.1,4298.26L1667.22,4295.43L1661.36,4292.61L1655.57,4289.84L1649.69,4287.05L1643.82,4284.26L1637.94,4281.48L1632.07,4278.71L1626.19,4275.95L1620.32,4273.2L1614.45,4270.47L1608.65,4267.77L1602.76,4265.05L1596.89,4262.34L1591,4259.64L1585.13,4256.95L1579.24,4254.27L1573.37,4251.6L1567.48,4248.94L1561.61,4246.28L1555.72,4243.64L1549.85,4241.01L1543.97,4238.39L1538.1,4235.77L1532.28,4233.2L1526.32,4230.57L1520.45,4227.99L1514.57,4225.42L1508.69,4222.85L1502.81,4220.29L1496.86,4217.71L1491.07,4215.21L1485.18,4212.68L1479.24,4210.13L1473.44,4207.66L1467.56,4205.16L1461.61,4202.63L1455.74,4200.15L1449.88,4197.69L1444.01,4195.22L1438.13,4192.77L1432.19,4190.3L1426.34,4187.86L1420.47,4185.44L1414.62,4183.03L1408.75,4180.62L1402.82,4178.2L1397.04,4175.84L1391.17,4173.46L1385.17,4171.04L1379.34,4168.68L1373.55,4166.36L1367.63,4163.99L1361.79,4161.66L1355.94,4159.34L1350.03,4157L1344.19,4154.69L1338.28,4152.37L1332.46,4150.09L1326.62,4147.81L1320.8,4145.55L1314.96,4143.29L1309,4140.99L1303.19,4138.75L1297.44,4136.55L1291.55,4134.3L1285.67,4132.07L1279.86,4129.86L1274.06,4127.67L1268.18,4125.46L1262.32,4123.26L1256.53,4121.1L1250.74,4118.94L1244.94,4116.79L1239.08,4114.63L1233.24,4112.48L1227.46,4110.36L1221.68,4108.24L1215.84,4106.12L1210.01,4104L1204.25,4101.91L1198.49,4099.84L1192.66,4097.75L1186.85,4095.67L1181.1,4093.62L1175.29,4091.56L1169.49,4089.5L1163.76,4087.48L1158.03,4085.47L1152.23,4083.44L1146.44,4081.42L1140.73,4079.44L1134.95,4077.44L1129.18,4075.45L1123.48,4073.49L1117.71,4071.51L1111.96,4069.55L1106.27,4067.62L1100.52,4065.67L1094.85,4063.76L1089.11,4061.83L1089.09,4061.83L1083.31,4059.89L1077.66,4058L1072,4056.12L1066.28,4054.22L1060.57,4052.34L1054.93,4050.49L1049.23,4048.62L1043.47,4046.74L859.986,3986.96L975.763,3631.59L1159.33,3691.39Z" style="fill:rgb(20,169,12);fill-opacity:0.698039;"/>
            </g>
        </g>
    </g>
</svg>
