<?xml version="1.0" standalone="no"?>
<!DOCTYPE svg PUBLIC "-//W3C//DTD SVG 1.1//EN" "http://www.w3.org/Graphics/SVG/1.1/DTD/svg11.dtd">
<svg width="100%" height="100%" viewBox="0 0 3678 2305" version="1.1" xmlns="http://www.w3.org/2000/svg" xmlns:xlink="http://www.w3.org/1999/xlink" xml:space="preserve" style="fill-rule:evenodd;clip-rule:evenodd;stroke-linejoin:round;stroke-miterlimit:1.41421;">
    <g transform="matrix(1,0,0,1,-38227,-20)">
        <g id="parking-8" transform="matrix(2.87248,0,0,2.25,38227.3,20.4531)">
            <g transform="matrix(2.08676,0,0,5.15206,-116.151,-2349.03)">
                <g transform="matrix(0.516355,0,0,0.342776,217.275,407.725)">
                    <rect x="676.756" y="269.252" width="4.487" height="305.495" style="fill:black;"/>
                </g>
                <g transform="matrix(0.516355,0,0,0.342776,167.974,407.725)">
                    <rect x="676.757" y="269.252" width="4.487" height="305.495" style="fill:black;"/>
                </g>
                <g transform="matrix(-2.3627e-16,-0.975331,1.46923,-1.56845e-16,-273.988,1214.63)">
                    <rect x="678.386" y="270.212" width="1.228" height="303.577" style="fill:black;"/>
                </g>
                <g transform="matrix(0.516355,0,0,0.342776,118.674,407.725)">
                    <rect x="676.756" y="269.252" width="4.487" height="305.495" style="fill:black;"/>
                </g>
                <g transform="matrix(0.516355,0,0,0.342776,69.3729,407.725)">
                    <rect x="676.756" y="269.252" width="4.487" height="305.495" style="fill:black;"/>
                </g>
                <g transform="matrix(0.516355,0,0,0.342776,20.0721,407.725)">
                    <rect x="676.756" y="269.252" width="4.487" height="305.495" style="fill:black;"/>
                </g>
                <g transform="matrix(0.516355,0,0,0.342776,-29.2287,407.725)">
                    <rect x="676.756" y="269.252" width="4.487" height="305.495" style="fill:black;"/>
                </g>
                <g transform="matrix(0.516355,0,0,0.342776,-78.5295,407.725)">
                    <rect x="676.757" y="269.252" width="4.487" height="305.495" style="fill:black;"/>
                </g>
                <g transform="matrix(0.516355,0,0,0.342776,-127.83,407.725)">
                    <rect x="676.756" y="269.252" width="4.487" height="305.495" style="fill:black;"/>
                </g>
                <g transform="matrix(0.516355,0,0,0.342776,-177.131,407.725)">
                    <rect x="676.756" y="269.252" width="4.487" height="305.495" style="fill:black;"/>
                </g>
                <g transform="matrix(0.516355,0,0,0.342776,-226.432,407.725)">
                    <rect x="676.757" y="269.252" width="4.487" height="305.495" style="fill:black;"/>
                </g>
            </g>
            <g transform="matrix(0.126249,-3.77701e-17,-6.84244e-16,0.161177,71.7512,-352.475)">
                <path d="M1097.11,3478.42C1097.11,3453.29 1076.71,3432.89 1051.58,3432.89L960.528,3432.89C935.4,3432.89 915,3453.29 915,3478.42L915,3569.47C915,3594.6 935.4,3615 960.528,3615L1051.58,3615C1076.71,3615 1097.11,3594.6 1097.11,3569.47L1097.11,3478.42Z" style="fill:rgb(23,16,252);"/>
            </g>
            <g transform="matrix(0.126249,-3.77701e-17,-6.84244e-16,0.161177,221.713,-304.523)">
                <path d="M1097.11,3478.42C1097.11,3453.29 1076.71,3432.89 1051.58,3432.89L960.528,3432.89C935.4,3432.89 915,3453.29 915,3478.42L915,3569.47C915,3594.6 935.4,3615 960.528,3615L1051.58,3615C1076.71,3615 1097.11,3594.6 1097.11,3569.47L1097.11,3478.42Z" style="fill:rgb(23,16,252);"/>
            </g>
            <g transform="matrix(0.126249,-3.77701e-17,-6.84244e-16,0.161177,427.471,-71.1325)">
                <path d="M1097.11,3478.42C1097.11,3453.29 1076.71,3432.89 1051.58,3432.89L960.528,3432.89C935.4,3432.89 915,3453.29 915,3478.42L915,3569.47C915,3594.6 935.4,3615 960.528,3615L1051.58,3615C1076.71,3615 1097.11,3594.6 1097.11,3569.47L1097.11,3478.42Z" style="fill:rgb(23,16,252);"/>
            </g>
            <g transform="matrix(0.126249,-3.77701e-17,-6.84244e-16,0.161177,359.237,-215.577)">
                <path d="M1097.11,3478.42C1097.11,3453.29 1076.71,3432.89 1051.58,3432.89L960.528,3432.89C935.4,3432.89 915,3453.29 915,3478.42L915,3569.47C915,3594.6 935.4,3615 960.528,3615L1051.58,3615C1076.71,3615 1097.11,3594.6 1097.11,3569.47L1097.11,3478.42Z" style="fill:rgb(23,16,252);"/>
            </g>
            <g transform="matrix(0.093143,0,0,0.118912,291.41,-248.554)">
                <path d="M-342.674,3458.2L-332.411,3458.31L-321.967,3458.42L-311.344,3458.52L-300.543,3458.63L-289.574,3458.73L-278.459,3458.84L-267.18,3458.94L-255.751,3459.03L-244.198,3459.13L-220.66,3459.32L-196.642,3459.51L-172.178,3459.68L-147.326,3459.86L-122.132,3460.02L-96.639,3460.19L-70.907,3460.35L-44.979,3460.51L-18.905,3460.66L33.509,3460.96L85.92,3461.25L137.954,3461.54L137.96,3461.54L189.199,3461.83L189.21,3461.83L214.435,3461.97L214.446,3461.97L239.322,3462.12L239.336,3462.12L263.836,3462.26L263.853,3462.26L287.903,3462.41L287.924,3462.41L311.496,3462.56L311.52,3462.56L334.556,3462.72L334.584,3462.72L357.055,3462.87L357.089,3462.87L378.923,3463.03L378.961,3463.03L400.13,3463.2L400.175,3463.2L420.63,3463.36L420.732,3463.36L425.081,3463.41L425.238,3463.41L429.611,3463.45L429.761,3463.46L434.15,3463.51L434.311,3463.51L438.688,3463.58L438.845,3463.58L443.22,3463.65L443.374,3463.65L447.747,3463.73L447.901,3463.73L452.276,3463.82L452.432,3463.82L456.808,3463.91L456.965,3463.91L461.338,3464.01L461.49,3464.02L465.863,3464.12L466.019,3464.13L470.388,3464.24L470.531,3464.24L474.919,3464.36L475.084,3464.37L479.463,3464.5L479.617,3464.5L483.99,3464.64L484.144,3464.64L488.517,3464.78L488.671,3464.79L493.038,3464.94L493.181,3464.94L497.568,3465.1L497.734,3465.11L502.111,3465.27L502.263,3465.28L506.635,3465.45L506.788,3465.45L511.161,3465.63L511.315,3465.64L515.68,3465.82L515.817,3465.83L520.203,3466.02L520.371,3466.03L524.75,3466.23L524.901,3466.23L529.265,3466.44L529.402,3466.45L533.79,3466.66L533.959,3466.67L538.337,3466.89L538.486,3466.9L542.856,3467.13L543.01,3467.14L547.372,3467.37L547.505,3467.38L551.89,3467.62L552.059,3467.63L556.439,3467.88L556.593,3467.89L560.953,3468.14L561.082,3468.15L565.467,3468.41L565.639,3468.43L570.019,3468.7L570.167,3468.71L574.536,3468.98L574.687,3468.99L579.047,3469.28L579.179,3469.29L583.563,3469.58L583.733,3469.59L588.111,3469.89L588.259,3469.9L592.629,3470.2L592.782,3470.22L597.14,3470.53L597.264,3470.54L601.646,3470.86L601.817,3470.87L606.197,3471.2L606.348,3471.21L610.705,3471.54L610.83,3471.55L615.213,3471.89L615.386,3471.91L619.765,3472.26L619.913,3472.27L624.281,3472.62L624.431,3472.64L628.786,3473L628.906,3473.01L633.288,3473.38L633.462,3473.39L637.842,3473.77L637.99,3473.78L642.356,3474.16L642.504,3474.18L646.871,3474.57L647.021,3474.58L651.373,3474.97L651.488,3474.99L655.868,3475.39L656.045,3475.41L660.426,3475.82L660.573,3475.83L664.939,3476.25L665.086,3476.26L669.453,3476.69L669.6,3476.7L673.965,3477.13L674.109,3477.15L678.474,3477.59L678.621,3477.6L682.986,3478.05L683.13,3478.06L687.479,3478.51L687.595,3478.53L691.974,3478.98L692.149,3479L696.529,3479.47L696.676,3479.49L701.042,3479.96L701.188,3479.97L705.551,3480.45L705.693,3480.47L710.056,3480.96L710.202,3480.97L714.567,3481.47L714.71,3481.48L719.075,3481.98L719.221,3482L723.602,3482.51L723.781,3482.53L728.129,3483.04L728.238,3483.06L732.582,3483.58L732.723,3483.59L737.085,3484.12L737.231,3484.14L741.594,3484.67L741.735,3484.69L746.096,3485.23L746.239,3485.25L750.602,3485.8L750.745,3485.82L755.128,3486.37L755.311,3486.4L759.658,3486.96L759.757,3486.97L764.098,3487.54L764.241,3487.55L768.602,3488.13L768.742,3488.15L773.124,3488.73L773.309,3488.76L777.657,3489.35L777.757,3489.36L782.117,3489.95L782.298,3489.98L786.644,3490.58L786.745,3490.6L791.084,3491.2L791.221,3491.22L795.603,3491.84L795.79,3491.87L800.134,3492.49L800.227,3492.5L804.586,3493.13L804.774,3493.16L809.119,3493.79L809.213,3493.81L813.572,3494.45L813.758,3494.48L818.126,3495.13L818.266,3495.15L822.587,3495.8L822.679,3495.82L827.038,3496.48L827.225,3496.51L831.593,3497.18L831.732,3497.2L836.075,3497.88L836.212,3497.9L840.53,3498.58L840.62,3498.59L844.977,3499.28L845.164,3499.31L849.532,3500.01L849.674,3500.03L854.016,3500.74L854.15,3500.76L858.492,3501.47L858.63,3501.49L862.974,3502.21L863.113,3502.23L867.455,3502.95L867.591,3502.97L871.932,3503.7L872.068,3503.72L876.409,3504.46L876.545,3504.48L880.887,3505.23L881.025,3505.25L885.367,3506L885.503,3506.02L889.871,3506.78L890.061,3506.82L894.387,3507.58L894.468,3507.59L898.78,3508.35L898.913,3508.38L903.253,3509.15L903.391,3509.18L907.76,3509.96L907.952,3510L912.276,3510.79L912.352,3510.8L916.693,3511.6L916.887,3511.63L921.212,3512.43L921.288,3512.45L925.626,3513.25L925.816,3513.29L930.169,3514.11L930.304,3514.13L934.6,3514.95L934.676,3514.96L939.015,3515.79L939.206,3515.83L943.559,3516.67L943.694,3516.69L947.988,3517.53L948.06,3517.54L952.397,3518.39L952.589,3518.43L956.943,3519.28L957.077,3519.31L961.401,3520.17L961.532,3520.2L965.855,3521.06L965.986,3521.09L970.308,3521.96L970.44,3521.99L974.762,3522.87L974.893,3522.89L979.247,3523.78L979.442,3523.83L983.749,3524.72L983.817,3524.73L988.107,3525.62L988.238,3525.65L992.559,3526.55L992.69,3526.58L997.043,3527.5L997.236,3527.54L1001.54,3528.46L1001.61,3528.47L1005.93,3529.39L1006.13,3529.44L1010.43,3530.37L1010.5,3530.38L1014.82,3531.32L1015.01,3531.36L1019.35,3532.31L1019.48,3532.34L1023.75,3533.28L1023.81,3533.29L1028.13,3534.25L1028.33,3534.29L1032.66,3535.26L1032.8,3535.29L1037.1,3536.26L1037.23,3536.29L1041.53,3537.26L1041.66,3537.29L1045.96,3538.27L1046.1,3538.3L1050.4,3539.29L1050.52,3539.32L1054.83,3540.31L1054.96,3540.34L1059.26,3541.34L1059.39,3541.37L1063.72,3542.39L1063.92,3542.43L1068.21,3543.45L1068.27,3543.46L1072.53,3544.47L1072.66,3544.5L1077,3545.53L1077.19,3545.58L1081.48,3546.61L1081.54,3546.62L1085.84,3547.66L1086.04,3547.71L1090.36,3548.76L1090.49,3548.79L1094.74,3549.83L1094.79,3549.85L1099.09,3550.9L1099.29,3550.95L1103.61,3552.02L1103.74,3552.06L1108.02,3553.12L1108.15,3553.16L1112.43,3554.23L1112.56,3554.26L1116.85,3555.34L1116.97,3555.38L1121.26,3556.46L1121.38,3556.49L1125.7,3557.6L1125.9,3557.65L1130.17,3558.75L1130.22,3558.76L1134.47,3559.86L1134.59,3559.89L1138.91,3561.01L1139.11,3561.06L1143.38,3562.18L1143.43,3562.19L1147.71,3563.32L1147.91,3563.37L1152.22,3564.51L1152.34,3564.54L1156.57,3565.67L1156.62,3565.68L1160.9,3566.83L1161.1,3566.88L1165.41,3568.04L1165.53,3568.07L1169.8,3569.23L1169.92,3569.26L1174.19,3570.42L1174.31,3570.45L1178.58,3571.62L1178.7,3571.66L1182.96,3572.83L1183.09,3572.86L1187.4,3574.05L1187.6,3574.11L1191.85,3575.3L1191.89,3575.31L1196.15,3576.5L1196.36,3576.56L1200.61,3577.75L1200.65,3577.76L1204.91,3578.97L1205.12,3579.03L1209.41,3580.25L1209.53,3580.28L1213.74,3581.49L1213.78,3581.5L1218.04,3582.72L1218.24,3582.78L1222.53,3584.02L1222.65,3584.05L1226.9,3585.29L1227.02,3585.32L1231.28,3586.56L1231.39,3586.6L1235.68,3587.86L1235.89,3587.91L1240.12,3589.17L1240.15,3589.18L1244.36,3590.42L1244.48,3590.46L1248.77,3591.73L1248.98,3591.8L1253.21,3593.07L1253.24,3593.08L1257.49,3594.35L1257.69,3594.41L1261.97,3595.71L1262.09,3595.74L1266.32,3597.03L1266.44,3597.07L1270.67,3598.36L1270.79,3598.4L1275.02,3599.7L1275.14,3599.74L1279.37,3601.04L1279.49,3601.08L1283.72,3602.39L1283.84,3602.43L1288.07,3603.74L1288.18,3603.78L1292.46,3605.12L1292.67,3605.18L1296.88,3606.51L1296.91,3606.52L1301.14,3607.86L1301.35,3607.92L1305.56,3609.26L1305.59,3609.27L1309.82,3610.62L1310.02,3610.68L1314.29,3612.05L1314.4,3612.09L1318.62,3613.45L1318.73,3613.49L1322.95,3614.85L1323.06,3614.89L1327.28,3616.26L1327.39,3616.3L1331.6,3617.67L1331.72,3617.71L1335.98,3619.11L1336.18,3619.18L1340.39,3620.57L1340.41,3620.57L1344.62,3621.97L1344.83,3622.04L1349.07,3623.45L1349.19,3623.49L1353.34,3624.88L1353.36,3624.89L1357.57,3626.3L1357.78,3626.37L1362.03,3627.8L1362.14,3627.84L1366.34,3629.26L1366.45,3629.3L1370.64,3630.73L1370.76,3630.77L1375,3632.22L1375.21,3632.3L1379.4,3633.74L1379.41,3633.74L1383.61,3635.19L1383.81,3635.26L1388,3636.71L1388.01,3636.72L1392.21,3638.18L1392.41,3638.25L1396.65,3639.73L1396.76,3639.77L1400.94,3641.24L1401.05,3641.28L1405.23,3642.75L1405.34,3642.79L1409.52,3644.28L1409.63,3644.31L1413.81,3645.8L1413.92,3645.84L1418.15,3647.35L1418.36,3647.43L1422.54,3648.93L1426.71,3650.43L1426.92,3650.51L1431.1,3652.02L1435.28,3653.54L1435.49,3653.61L1439.71,3655.15L1439.81,3655.19L1443.98,3656.72L1444.08,3656.76L1448.25,3658.29L1448.36,3658.33L1452.58,3659.89L1452.78,3659.97L1456.94,3661.51L1461.05,3663.05L1461.16,3663.09L1465.37,3664.66L1465.58,3664.74L1469.78,3666.32L1469.89,3666.36L1474.04,3667.93L1474.14,3667.97L1478.29,3669.54L1478.4,3669.58L1482.55,3671.16L1482.65,3671.2L1486.8,3672.78L1486.9,3672.82L1491.05,3674.41L1491.16,3674.45L1495.36,3676.07L1495.57,3676.15L1499.7,3677.75L1503.85,3679.36L1504.06,3679.44L1508.25,3681.07L1508.35,3681.11L1512.48,3682.73L1512.58,3682.77L1516.72,3684.39L1516.82,3684.44L1520.95,3686.07L1521.05,3686.1L1525.18,3687.74L1525.29,3687.78L1529.48,3689.44L1529.69,3689.53L1533.8,3691.17L1537.93,3692.82L1538.14,3692.9L1542.31,3694.58L1542.41,3694.62L1546.53,3696.29L1546.63,3696.33L1550.75,3698L1550.84,3698.04L1554.96,3699.71L1555.06,3699.75L1559.18,3701.43L1559.28,3701.47L1563.45,3703.18L1563.66,3703.27L1567.82,3704.98L1567.92,3705.02L1571.96,3706.69L1576.07,3708.39L1576.28,3708.48L1580.43,3710.21L1580.53,3710.25L1584.63,3711.96L1584.73,3712L1588.88,3713.74L1589.1,3713.83L1593.18,3715.55L1597.21,3717.25L1597.31,3717.29L1601.47,3719.05L1601.68,3719.14L1605.82,3720.91L1605.91,3720.95L1610,3722.69L1610.1,3722.73L1614.18,3724.48L1614.28,3724.53L1618.36,3726.28L1618.46,3726.32L1622.54,3728.08L1622.64,3728.12L1626.78,3729.92L1626.99,3730.01L1631.12,3731.81L1631.21,3731.85L1635.21,3733.6L1639.28,3735.37L1639.5,3735.47L1643.62,3737.28L1643.72,3737.32L1647.85,3739.14L1648.06,3739.24L1652.1,3741.03L1656.1,3742.8L1656.19,3742.84L1660.32,3744.68L1660.53,3744.78L1664.64,3746.62L1664.73,3746.66L1668.78,3748.48L1668.88,3748.52L1672.93,3750.35L1673.03,3750.39L1677.08,3752.22L1677.17,3752.26L1681.22,3754.1L1681.31,3754.14L1685.42,3756.01L1685.64,3756.11L1689.66,3757.95L1693.69,3759.79L1693.91,3759.89L1698,3761.77L1698.1,3761.82L1702.13,3763.68L1702.22,3763.72L1706.26,3765.59L1706.35,3765.63L1710.44,3767.53L1710.66,3767.63L1714.66,3769.51L1718.68,3771.38L1718.89,3771.48L1722.97,3773.4L1723.07,3773.44L1727.09,3775.34L1727.18,3775.38L1731.19,3777.28L1731.29,3777.32L1735.31,3779.22L1735.4,3779.27L1739.48,3781.21L1739.69,3781.31L1743.68,3783.22L1747.68,3785.13L1747.89,3785.23L1751.95,3787.18L1752.05,3787.23L1756.05,3789.16L1756.14,3789.2L1760.14,3791.14L1760.23,3791.18L1764.29,3793.15L1764.51,3793.26L1768.48,3795.19L1772.47,3797.14L1772.67,3797.24L1776.72,3799.23L1776.81,3799.27L1780.8,3801.23L1780.89,3801.28L1784.88,3803.24L1784.97,3803.29L1788.95,3805.26L1789.04,3805.3L1793.09,3807.31L1793.3,3807.42L1797.33,3809.43L1797.42,3809.47L1801.31,3811.42L1805.28,3813.4L1805.49,3813.51L1809.59,3815.57L1809.8,3815.68L1813.73,3817.67L1817.62,3819.64L1817.71,3819.68L1821.74,3821.72L1821.95,3821.83L1825.97,3823.88L1826.06,3823.93L1830.02,3825.95L1830.1,3825.99L1834.06,3828.02L1834.14,3828.07L1838.1,3830.1L1838.18,3830.14L1842.2,3832.21L1842.41,3832.32L1846.42,3834.4L1846.51,3834.45L1850.36,3836.45L1854.29,3838.49L1854.5,3838.6L1858.57,3840.72L1858.78,3840.84L1862.68,3842.89L1866.54,3844.91L1866.62,3844.96L1870.62,3847.06L1870.83,3847.17L1874.82,3849.29L1874.91,3849.33L1878.83,3851.42L1878.91,3851.46L1882.83,3853.55L1882.91,3853.59L1886.9,3855.72L1887.12,3855.84L1891,3857.92L1894.9,3860.01L1895.11,3860.12L1899.09,3862.27L1899.16,3862.31L1903.07,3864.42L1903.15,3864.47L1907.06,3866.59L1907.15,3866.63L1911.12,3868.79L1911.33,3868.91L1915.2,3871.02L1919.08,3873.14L1919.29,3873.26L1923.25,3875.43L1923.33,3875.48L1927.22,3877.62L1927.3,3877.66L1931.26,3879.85L1931.48,3879.97L1935.32,3882.1L1939.19,3884.24L1939.4,3884.36L1943.34,3886.56L1943.42,3886.61L1947.3,3888.78L1947.38,3888.82L1951.25,3890.99L1951.33,3891.03L1955.27,3893.25L1955.49,3893.37L1959.32,3895.54L1963.16,3897.7L1963.38,3897.83L1967.31,3900.06L1967.39,3900.11L1971.25,3902.3L1971.32,3902.34L1975.25,3904.58L1975.46,3904.7L1979.28,3906.89L1983.11,3909.09L1983.32,3909.21L1987.23,3911.46L1987.31,3911.51L1991.16,3913.73L1991.24,3913.78L1995.08,3916L1995.15,3916.04L1999.06,3918.31L1999.28,3918.44L2003.18,3920.71L2003.25,3920.76L2007.08,3922.99L2007.15,3923.04L2010.99,3925.28L2011.07,3925.33L2014.89,3927.58L2014.97,3927.62L2018.79,3929.88L2018.87,3929.92L2022.77,3932.22L2022.98,3932.35L2026.86,3934.65L2026.94,3934.7L2030.75,3936.97L2030.82,3937.01L2034.63,3939.28L2034.71,3939.33L2038.59,3941.65L2038.81,3941.77L2042.67,3944.1L2042.75,3944.14L2046.44,3946.37L2050.22,3948.64L2050.43,3948.77L2054.37,3951.15L2054.58,3951.28L2058.33,3953.56L2062.1,3955.85L2062.31,3955.97L2066.16,3958.33L2066.23,3958.37L2070.01,3960.69L2070.09,3960.73L2073.87,3963.05L2073.94,3963.09L2077.79,3965.46L2078,3965.59L2081.74,3967.9L2085.48,3970.22L2085.7,3970.35L2089.53,3972.73L2089.6,3972.77L2093.37,3975.12L2093.44,3975.16L2097.28,3977.55L2097.49,3977.69L2101.31,3980.08L2101.38,3980.13L2105.13,3982.48L2105.2,3982.53L2108.95,3984.89L2109.02,3984.93L2112.77,3987.3L2112.84,3987.34L2116.59,3989.72L2116.66,3989.76L2120.49,3992.18L2120.69,3992.31L2124.5,3994.74L2124.57,3994.79L2128.31,3997.17L2128.38,3997.22L2132.18,3999.65L2132.4,3999.79L2136.07,4002.15L2139.77,4004.53L2139.99,4004.67L2143.78,4007.12L2143.85,4007.16L2147.57,4009.57L2147.64,4009.61L2151.43,4012.07L2151.63,4012.21L2155.3,4014.6L2158.99,4017L2159.19,4017.13L2162.97,4019.61L2163.04,4019.65L2166.81,4022.13L2167.03,4022.27L2170.67,4024.68L2174.34,4027.09L2174.55,4027.23L2178.32,4029.72L2178.38,4029.77L2182.07,4032.21L2182.13,4032.26L2185.82,4034.71L2185.89,4034.76L2189.65,4037.26L2189.86,4037.4L2193.6,4039.91L2193.67,4039.95L2197.34,4042.42L2197.41,4042.46L2201.08,4044.93L2201.15,4044.98L2204.82,4047.45L2204.88,4047.5L2208.63,4050.03L2208.84,4050.17L2212.57,4052.7L2212.64,4052.75L2216.29,4055.23L2216.36,4055.28L2220.09,4057.82L2220.3,4057.97L2223.9,4060.43L2227.51,4062.91L2227.73,4063.05L2231.44,4065.61L2231.51,4065.65L2235.15,4068.16L2235.21,4068.2L2238.92,4070.77L2239.14,4070.92L2242.84,4073.49L2242.9,4073.53L2246.53,4076.06L2246.59,4076.1L2250.22,4078.63L2250.28,4078.67L2253.9,4081.2L2253.97,4081.24L2257.66,4083.83L2257.88,4083.98L2261.56,4086.58L2261.62,4086.62L2265.23,4089.16L2265.3,4089.21L2268.91,4091.76L2268.97,4091.8L2272.65,4094.4L2272.87,4094.56L2276.42,4097.08L2280.06,4099.67L2280.41,4099.92L2284.03,4102.51L2287.5,4105L2287.56,4105.04L2291.23,4107.67L2291.45,4107.82L2295.1,4110.45L2295.16,4110.5L2298.74,4113.08L2298.8,4113.12L2302.45,4115.77L2302.66,4115.92L2306.18,4118.48L2309.72,4121.04L2309.93,4121.19L2313.56,4123.85L2313.62,4123.89L2317.26,4126.55L2317.47,4126.71L2320.98,4129.28L2324.49,4131.86L2324.7,4132.01L2328.33,4134.69L2328.39,4134.73L2332.01,4137.41L2332.22,4137.56L2335.71,4140.16L2339.21,4142.75L2339.42,4142.91L2343.03,4145.6L2343.09,4145.64L2346.7,4148.34L2346.91,4148.49L2350.38,4151.1L2353.87,4153.71L2354.07,4153.87L2357.67,4156.58L2357.73,4156.62L2361.24,4159.28L2361.3,4159.32L2364.89,4162.04L2365.1,4162.19L2368.68,4164.92L2368.74,4164.96L2372.24,4167.63L2372.29,4167.67L2375.8,4170.34L2375.86,4170.39L2379.44,4173.12L2379.64,4173.28L2383.08,4175.92L2386.61,4178.63L2386.97,4178.9L2390.47,4181.61L2393.84,4184.21L2393.89,4184.26L2397.46,4187.01L2397.67,4187.18L2401.21,4189.94L2401.27,4189.98L2404.81,4192.74L2405.02,4192.9L2408.43,4195.57L2411.85,4198.25L2412.06,4198.41L2415.6,4201.19L2415.65,4201.23L2419.1,4203.95L2419.16,4203.99L2422.69,4206.78L2422.9,4206.94L2426.42,4209.73L2426.47,4209.78L2429.91,4212.51L2429.97,4212.55L2433.41,4215.29L2433.46,4215.33L2436.98,4218.13L2437.19,4218.3L2440.69,4221.11L2440.74,4221.15L2444.17,4223.9L2444.22,4223.94L2447.65,4226.69L2447.7,4226.74L2451.2,4229.55L2451.41,4229.72L2454.9,4232.55L2454.95,4232.59L2458.36,4235.36L2458.41,4235.4L2461.83,4238.17L2461.88,4238.21L2465.36,4241.05L2465.57,4241.22L2469.04,4244.06L2469.09,4244.1L2472.49,4246.88L2472.54,4246.92L2476.01,4249.77L2476.22,4249.94L2479.55,4252.69L2482.89,4255.44L2483.1,4255.61L2486.63,4258.53L2486.84,4258.7L2490.15,4261.46L2493.48,4264.22L2493.68,4264.39L2497.12,4267.26L2497.18,4267.31L2500.54,4270.12L2500.59,4270.16L2504.03,4273.04L2504.24,4273.22L2507.66,4276.1L2507.72,4276.15L2511.07,4278.97L2511.11,4279.01L2514.54,4281.9L2514.75,4282.08L2518.03,4284.86L2521.33,4287.66L2521.53,4287.83L2524.94,4290.74L2524.99,4290.78L2528.4,4293.69L2528.61,4293.86L2532,4296.78L2532.05,4296.82L2535.37,4299.67L2535.42,4299.71L2538.74,4302.57L2538.79,4302.61L2542.18,4305.54L2542.39,4305.71L2545.77,4308.64L2545.82,4308.69L2549.12,4311.55L2549.17,4311.59L2552.47,4314.46L2552.52,4314.5L2555.9,4317.44L2556.11,4317.62L2559.47,4320.57L2559.52,4320.61L2562.81,4323.49L2562.86,4323.54L2566.22,4326.49L2566.43,4326.67L2569.78,4329.63L2569.82,4329.67L2573.1,4332.56L2573.14,4332.6L2576.42,4335.5L2576.46,4335.54L2579.82,4338.51L2580.02,4338.69L2583.35,4341.66L2583.4,4341.71L2586.66,4344.62L2586.7,4344.66L2590.04,4347.64L2590.24,4347.82L2593.43,4350.69L2596.71,4353.63L2597.07,4353.95L2600.32,4356.9L2603.51,4359.77L2603.71,4359.95L2607.01,4362.95L2607.06,4363L2610.29,4365.93L2610.33,4365.97L2613.56,4368.91L2613.61,4368.95L2616.91,4371.97L2617.11,4372.15L2620.4,4375.17L2620.45,4375.2L2623.74,4378.23L2623.94,4378.41L2627.08,4381.32L2630.24,4384.22L2630.44,4384.4L2633.71,4387.44L2633.76,4387.48L2637.03,4390.52L2637.24,4390.7L2640.49,4393.74L2640.53,4393.78L2643.72,4396.75L2643.76,4396.8L2646.95,4399.77L2646.99,4399.81L2650.25,4402.86L2650.45,4403.05L2653.69,4406.1L2653.74,4406.14L2656.98,4409.2L2657.19,4409.4L2660.28,4412.33L2663.39,4415.27L2663.59,4415.46L2666.82,4418.53L2666.86,4418.57L2670.09,4421.64L2670.29,4421.84L2673.51,4424.92L2673.55,4424.95L2676.68,4427.96L2676.72,4428L2679.86,4431.01L2679.9,4431.05L2683.12,4434.14L2683.32,4434.33L2686.52,4437.43L2686.56,4437.47L2689.68,4440.49L2689.72,4440.53L2692.92,4443.63L2693.12,4443.82L2696.17,4446.79L2699.31,4449.85L2699.67,4450.2L2702.78,4453.25L2705.82,4456.23L2706.02,4456.43L2709.19,4459.55L2709.23,4459.58L2712.4,4462.71L2712.6,4462.91L2715.62,4465.9L2718.64,4468.89L2718.84,4469.08L2722.08,4472.3L2722.28,4472.5L2725.28,4475.5L2728.29,4478.5L2728.49,4478.7L2731.63,4481.85L2731.67,4481.88L2734.81,4485.03L2735.01,4485.23L2738.13,4488.38L2738.17,4488.42L2741.22,4491.5L2741.25,4491.54L2744.38,4494.7L2744.58,4494.9L2747.55,4497.92L2750.53,4500.95L2750.73,4501.15L2753.92,4504.4L2754.11,4504.6L2757.21,4507.78L2757.24,4507.81L2760.26,4510.91L2760.3,4510.95L2763.31,4514.06L2763.35,4514.09L2766.44,4517.28L2766.64,4517.48L2769.72,4520.67L2769.76,4520.71L2772.76,4523.82L2772.79,4523.86L2775.87,4527.06L2776.07,4527.26L2779.14,4530.46L2779.17,4530.5L2782.15,4533.62L2782.19,4533.65L2785.17,4536.78L2785.21,4536.82L2788.28,4540.03L2788.47,4540.23L2791.6,4543.53L2791.8,4543.74L2794.69,4546.81L2797.59,4549.88L2797.79,4550.09L2800.83,4553.31L2800.86,4553.35L2803.89,4556.58L2804.09,4556.79L2806.97,4559.87L2809.94,4563.04L2810.29,4563.41L2813.23,4566.59L2816.11,4569.68L2816.3,4569.89L2819.31,4573.14L2819.34,4573.17L2822.27,4576.34L2822.3,4576.37L2825.3,4579.62L2825.5,4579.84L2828.49,4583.1L2828.52,4583.13L2831.51,4586.39L2831.7,4586.6L2834.53,4589.71L2837.46,4592.91L2837.81,4593.3L2840.71,4596.5L2843.54,4599.61L2843.73,4599.83L2846.69,4603.11L2846.72,4603.14L2849.6,4606.34L2849.63,4606.37L2852.59,4609.66L2852.78,4609.87L2855.73,4613.16L2855.76,4613.2L2858.63,4616.4L2858.66,4616.44L2861.6,4619.73L2861.79,4619.94L2864.72,4623.24L2864.75,4623.28L2867.6,4626.49L2867.63,4626.53L2870.56,4629.84L2870.75,4630.05L2873.67,4633.36L2873.7,4633.4L2876.61,4636.71L2876.8,4636.92L2879.56,4640.07L2882.33,4643.23L2882.52,4643.45L2885.49,4646.86L2885.69,4647.08L2888.43,4650.24L2891.18,4653.4L2891.37,4653.62L2894.33,4657.05L2894.52,4657.27L2897.39,4660.6L2897.42,4660.64L2900.21,4663.89L2900.24,4663.92L2903.03,4667.17L2903.06,4667.21L2905.93,4670.55L2906.12,4670.77L2908.97,4674.12L2909,4674.16L2911.77,4677.42L2911.8,4677.45L2914.65,4680.81L2914.84,4681.03L2917.68,4684.39L2917.71,4684.42L2920.55,4687.78L2920.74,4688.01L2923.56,4691.38L2923.59,4691.41L2926.33,4694.68L2926.36,4694.72L2929.1,4697.99L2929.13,4698.03L2931.96,4701.41L2932.14,4701.63L2934.95,4705.01L2934.98,4705.04L2937.79,4708.42L2937.97,4708.65L2940.77,4712.04L2940.79,4712.07L2943.51,4715.36L2943.54,4715.4L2946.33,4718.79L2946.51,4719.01L2949.29,4722.41L2949.32,4722.44L2952.02,4725.75L2952.05,4725.78L2954.83,4729.18L2955.01,4729.41L2957.78,4732.82L2957.8,4732.85L2960.48,4736.16L2960.51,4736.19L2963.27,4739.6L2963.46,4739.83L2966.21,4743.25L2966.23,4743.28L2968.9,4746.6L2968.93,4746.63L2971.68,4750.05L2971.86,4750.28L2974.59,4753.71L2974.62,4753.74L2977.35,4757.17L2977.54,4757.4L2980.11,4760.65L2982.78,4764L2983.12,4764.43L2985.75,4767.78L2988.33,4771.04L2988.51,4771.27L2991.21,4774.71L2991.24,4774.74L2993.94,4778.19L2994.12,4778.43L2996.81,4781.88L2996.83,4781.91L2999.44,4785.26L2999.47,4785.29L3002.16,4788.75L3002.34,4788.98L3005.01,4792.44L3005.03,4792.47L3007.63,4795.83L3007.65,4795.86L3010.32,4799.33L3010.51,4799.57L3013.16,4803.03L3013.19,4803.07L3015.85,4806.54L3016.03,4806.77L3018.67,4810.25L3018.69,4810.28L3021.25,4813.65L3021.28,4813.68L3023.92,4817.16L3024.1,4817.4L3026.73,4820.89L3026.75,4820.92L3029.3,4824.3L3029.32,4824.33L3031.95,4827.82L3032.13,4828.06L3034.74,4831.55L3034.76,4831.58L3037.3,4834.98L3037.33,4835.01L3039.94,4838.51L3040.11,4838.74L3042.71,4842.24L3042.73,4842.28L3045.33,4845.78L3045.51,4846.03L3047.95,4849.34L3050.48,4852.76L3050.81,4853.21L3053.31,4856.63L3055.75,4859.95L3055.92,4860.19L3058.57,4863.82L3058.74,4864.07L3061.3,4867.59L3061.32,4867.62L3063.79,4871.04L3063.82,4871.07L3066.29,4874.49L3066.31,4874.52L3068.86,4878.05L3069.04,4878.3L3071.57,4881.83L3071.6,4881.86L3074.13,4885.4L3074.31,4885.64L3076.83,4889.18L3076.85,4889.21L3079.37,4892.76L3079.55,4893L3081.91,4896.35L3084.37,4899.8L3084.69,4900.27L3087.12,4903.72L3089.48,4907.07L3089.65,4907.32L3092.14,4910.88L3092.16,4910.91L3094.66,4914.47L3094.83,4914.72L3097.31,4918.28L3097.33,4918.31L3099.73,4921.77L3099.75,4921.8L3102.22,4925.37L3102.39,4925.62L3104.86,4929.19L3104.88,4929.22L3107.34,4932.79L3107.51,4933.04L3109.95,4936.62L3109.97,4936.65L3112.35,4940.12L3112.36,4940.15L3114.81,4943.73L3114.98,4943.98L3117.41,4947.57L3117.43,4947.6L3119.86,4951.19L3120.03,4951.44L3122.45,4955.04L3122.47,4955.06L3124.81,4958.55L3124.83,4958.57L3127.24,4962.17L3127.41,4962.43L3129.81,4966.03L3129.83,4966.05L3132.15,4969.55L3132.17,4969.57L3134.57,4973.18L3134.74,4973.43L3137.13,4977.04L3137.15,4977.07L3139.53,4980.68L3139.7,4980.94L3142.07,4984.55L3142.09,4984.58L3144.38,4988.09L3144.4,4988.11L3146.77,4991.73L3146.94,4991.99L3149.29,4995.61L3149.31,4995.64L3151.67,4999.27L3151.84,4999.53L3154.18,5003.15L3154.19,5003.18L3156.46,5006.69L3156.47,5006.72L3158.82,5010.36L3158.98,5010.61L3161.31,5014.25L3161.32,5014.28L3163.65,5017.92L3163.82,5018.18L3166.12,5021.82L3166.14,5021.84L3168.37,5025.37L3168.39,5025.4L3170.7,5029.05L3170.87,5029.31L3173.16,5032.96L3173.18,5032.99L3175.47,5036.64L3175.64,5036.9L3177.92,5040.56L3177.93,5040.59L3180.14,5044.12L3180.15,5044.15L3182.43,5047.81L3182.6,5048.07L3184.86,5051.74L3184.88,5051.76L3187.14,5055.43L3187.31,5055.7L3189.42,5059.14L3191.61,5062.7L3191.92,5063.21L3194.23,5067L3194.25,5067.03L3196.41,5070.59L3196.42,5070.61L3198.58,5074.17L3198.6,5074.19L3200.83,5077.87L3200.99,5078.14L3203.29,5081.95L3203.45,5082.21L3205.65,5085.9L3205.67,5085.93L3207.8,5089.5L3207.81,5089.52L3209.95,5093.09L3209.96,5093.12L3212.24,5096.94L3212.54,5097.45L3214.65,5101.03L3216.7,5104.5L3216.86,5104.77L3219.03,5108.48L3219.05,5108.5L3221.22,5112.2L3221.38,5112.47L3223.54,5116.18L3223.55,5116.21L3225.64,5119.8L3225.65,5119.82L3227.81,5123.53L3227.97,5123.8L3230.18,5127.64L3230.34,5127.92L3232.33,5131.4L3234.34,5134.88L3234.49,5135.15L3236.7,5139L3236.85,5139.27L3238.96,5143L3238.98,5143.02L3241.02,5146.63L3241.03,5146.65L3243.15,5150.38L3243.3,5150.65L3245.47,5154.51L3245.62,5154.79L3247.57,5158.29L3249.54,5161.78L3249.69,5162.06L3251.84,5165.93L3252,5166.2L3254.06,5169.94L3254.08,5169.97L3256.08,5173.59L3256.09,5173.61L3258.16,5177.36L3258.31,5177.63L3260.36,5181.38L3260.37,5181.41L3262.43,5185.16L3262.58,5185.44L3264.61,5189.19L3264.63,5189.22L3266.6,5192.85L3266.61,5192.87L3268.64,5196.63L3268.8,5196.91L3270.82,5200.67L3270.83,5200.69L3272.85,5204.46L3273,5204.74L3275.01,5208.51L3275.02,5208.53L3277.03,5212.3L3277.18,5212.58L3279.17,5216.35L3279.18,5216.37L3281.11,5220.02L3281.12,5220.04L3283.11,5223.82L3283.26,5224.1L3285.23,5227.88L3285.24,5227.9L3287.22,5231.68L3287.37,5231.96L3289.33,5235.75L3289.34,5235.77L3291.31,5239.56L3291.45,5239.84L3293.4,5243.63L3293.41,5243.65L3295.29,5247.31L3295.3,5247.33L3297.24,5251.12L3297.39,5251.41L3299.32,5255.2L3299.33,5255.22L3301.26,5259.02L3301.41,5259.31L3303.33,5263.11L3303.33,5263.13L3305.25,5266.93L3305.39,5267.22L3307.3,5271.03L3307.31,5271.05L3309.14,5274.72L3309.15,5274.74L3311.05,5278.55L3311.2,5278.84L3313.08,5282.65L3313.09,5282.67L3314.98,5286.48L3315.12,5286.77L3316.99,5290.59L3317,5290.61L3318.87,5294.43L3319.01,5294.72L3320.87,5298.54L3320.88,5298.56L3322.74,5302.38L3322.87,5302.67L3324.72,5306.49L3324.72,5306.52L3326.5,5310.21L3326.51,5310.23L3328.35,5314.06L3328.49,5314.35L3330.32,5318.18L3330.32,5318.2L3332.15,5322.03L3332.29,5322.33L3334.1,5326.16L3334.11,5326.18L3335.92,5330.02L3336.06,5330.31L3337.85,5334.15L3337.86,5334.18L3339.59,5337.88L3339.6,5337.9L3341.39,5341.74L3341.53,5342.04L3343.38,5346.02L3343.51,5346.32L3345.15,5349.9L3346.87,5353.62L3347.14,5354.2L3348.83,5357.92L3350.53,5361.65L3350.79,5362.22L3352.47,5365.95L3354.1,5369.54L3354.23,5369.84L3356.03,5373.84L3356.16,5374.13L3357.88,5378L3357.89,5378.02L3359.55,5381.75L3359.55,5381.76L3361.27,5385.63L3361.4,5385.93L3363.17,5389.94L3363.3,5390.24L3364.87,5393.84L3366.52,5397.58L3366.77,5398.16L3368.39,5401.91L3370.02,5405.66L3370.27,5406.24L3371.87,5409.99L3373.43,5413.59L3373.56,5413.9L3375.28,5417.93L3375.4,5418.23L3377.05,5422.11L3377.05,5422.13L3378.64,5425.88L3378.64,5425.89L3380.29,5429.78L3380.41,5430.09L3382.04,5433.98L3382.05,5434L3383.68,5437.9L3383.8,5438.2L3385.42,5442.09L3385.42,5442.11L3387.04,5446.01L3387.16,5446.32L3388.76,5450.22L3388.77,5450.23L3390.37,5454.14L3390.49,5454.44L3392.07,5458.35L3392.08,5458.36L3393.66,5462.27L3393.78,5462.58L3395.35,5466.49L3395.36,5466.5L3396.87,5470.27L3396.88,5470.28L3398.44,5474.2L3398.56,5474.5L3400.17,5478.56L3400.3,5478.87L3401.83,5482.79L3401.84,5482.81L3403.32,5486.58L3403.33,5486.6L3404.86,5490.52L3404.98,5490.82L3406.5,5494.75L3406.51,5494.76L3408.03,5498.69L3408.15,5498.99L3409.66,5502.92L3409.66,5502.94L3411.17,5506.87L3411.29,5507.18L3412.78,5511.11L3412.78,5511.12L3414.28,5515.05L3414.39,5515.37L3415.87,5519.3L3415.88,5519.31L3417.3,5523.1L3417.3,5523.12L3418.78,5527.06L3418.89,5527.37L3420.41,5531.45L3420.53,5531.77L3421.97,5535.71L3421.98,5535.73L3423.37,5539.52L3423.38,5539.53L3424.82,5543.48L3424.94,5543.79L3426.42,5547.89L3426.53,5548.2L3427.95,5552.15L3427.95,5552.17L3429.32,5555.97L3429.32,5555.98L3430.74,5559.93L3430.85,5560.25L3432.25,5564.2L3432.25,5564.22L3433.66,5568.18L3433.76,5568.49L3435.15,5572.45L3435.16,5572.46L3436.54,5576.42L3436.65,5576.73L3438.02,5580.7L3438.03,5580.71L3439.4,5584.68L3439.5,5584.99L3440.86,5588.96L3440.86,5588.97L3442.22,5592.94L3442.33,5593.26L3443.67,5597.23L3443.67,5597.24L3445.01,5601.21L3445.12,5601.53L3446.44,5605.5L3446.45,5605.51L3447.72,5609.34L3447.72,5609.35L3449.05,5613.32L3449.15,5613.64L3450.51,5617.77L3450.62,5618.09L3451.91,5622.07L3451.92,5622.08L3453.21,5626.07L3453.31,5626.39L3454.59,5630.37L3454.6,5630.38L3455.83,5634.21L3455.83,5634.22L3457.11,5638.21L3457.21,5638.53L3458.52,5642.67L3458.62,5642.99L3459.87,5646.98L3459.88,5647L3461.08,5650.84L3462.33,5654.84L3462.43,5655.16L3463.71,5659.31L3463.81,5659.63L3465.03,5663.64L3466.2,5667.49L3467.42,5671.49L3467.52,5671.82L3468.73,5675.83L3469.93,5679.83L3470.03,5680.15L3471.26,5684.32L3471.36,5684.64L3472.44,5688.34L3473.58,5692.19L3473.77,5692.83L3474.97,5697.01L3476.09,5700.87L3477.25,5704.89L3477.34,5705.21L3478.48,5709.23L3479.63,5713.25L3479.72,5713.58L3480.89,5717.76L3480.98,5718.08L3482.09,5722.1L3482.09,5722.11L3483.16,5725.97L3483.17,5725.98L3484.28,5730.01L3484.37,5730.33L3485.46,5734.35L3485.47,5734.36L3486.56,5738.39L3486.65,5738.72L3487.73,5742.75L3488.82,5746.78L3488.9,5747.11L3490.01,5751.3L3490.1,5751.63L3491.15,5755.67L3492.16,5759.55L3493.21,5763.59L3493.3,5763.91L3494.34,5767.96L3495.37,5772L3495.46,5772.32L3496.52,5776.52L3496.6,5776.86L3497.53,5780.58L3498.51,5784.47L3498.67,5785.12L3499.7,5789.33L3500.65,5793.22L3501.64,5797.27L3501.72,5797.6L3502.74,5801.81L3502.82,5802.14L3503.78,5806.19L3503.78,5806.19L3504.7,5810.09L3505.66,5814.15L3505.74,5814.47L3506.72,5818.69L3506.8,5819.02L3507.73,5823.08L3508.62,5826.99L3509.55,5831.04L3509.63,5831.38L3510.58,5835.6L3510.65,5835.93L3511.55,5840L3512.42,5843.9L3513.32,5847.97L3513.39,5848.3L3514.31,5852.53L3514.38,5852.86L3515.25,5856.94L3516.12,5861L3516.19,5861.34L3517.04,5865.41L3517.9,5869.48L3517.97,5869.82L3518.8,5873.89L3519.64,5877.97L3519.71,5878.3L3520.53,5882.38L3521.36,5886.46L3521.42,5886.79L3522.23,5890.87L3523.04,5894.95L3523.11,5895.29L3523.9,5899.37L3524.69,5903.45L3524.76,5903.79L3525.53,5907.88L3526.31,5911.96L3526.37,5912.29L3527.17,5916.54L3527.23,5916.88L3527.98,5920.97L3528.69,5924.9L3529.44,5928.98L3529.5,5929.32L3530.26,5933.58L3530.32,5933.91L3531.04,5938.01L3531.73,5941.94L3532.47,5946.2L3532.59,5946.87L3533.24,5950.8L3533.89,5954.56L3533.95,5954.9L3534.66,5959.16L3534.72,5959.5L3535.39,5963.6L3536.06,5967.7L3536.11,5968.04L3536.77,5972.14L3537.42,5976.24L3537.47,5976.58L3538.14,5980.85L3538.19,5981.19L3538.82,5985.3L3539.42,5989.24L3540.04,5993.34L3540.09,5993.68L3540.73,5997.96L3540.78,5998.3L3541.37,6002.41L3541.94,6006.35L3542.54,6010.46L3542.59,6010.8L3543.19,6015.08L3543.24,6015.42L3543.8,6019.53L3544.36,6023.65L3544.41,6023.99L3544.96,6028.1L3545.51,6032.22L3545.55,6032.56L3546.09,6036.68L3546.62,6040.8L3546.66,6041.13L3547.2,6045.42L3547.24,6045.76L3547.75,6049.89L3548.23,6053.84L3548.75,6058.13L3548.83,6058.81L3549.29,6062.76L3549.73,6066.55L3549.77,6066.89L3550.26,6071.18L3550.3,6071.52L3550.76,6075.65L3551.22,6079.78L3551.26,6080.12L3551.72,6084.41L3551.75,6084.76L3552.14,6088.55L3552.57,6092.51L3552.64,6093.19L3553.07,6097.49L3553.46,6101.45L3553.89,6105.75L3553.95,6106.44L3554.32,6110.4L3554.68,6114.19L3554.71,6114.53L3555.11,6118.84L3555.14,6119.18L3555.52,6123.49L3555.55,6123.83L3555.87,6127.62L3556.22,6131.59L3556.28,6132.28L3556.63,6136.58L3556.95,6140.55L3557.29,6144.69L3557.31,6145.03L3557.65,6149.35L3557.67,6149.69L3557.98,6153.83L3558.28,6157.97L3558.31,6158.32L3558.6,6162.46L3558.89,6166.6L3558.91,6166.94L3559.2,6171.26L3559.22,6171.6L3559.48,6175.75L3559.72,6179.73L3559.98,6183.87L3560,6184.21L3560.26,6188.53L3560.28,6188.87L3560.51,6193.02L3560.73,6197.17L3560.75,6197.52L3560.97,6201.84L3560.99,6202.18L3561.19,6206.33L3561.38,6210.31L3561.58,6214.46L3561.59,6214.81L3561.78,6219.13L3561.8,6219.47L3561.97,6223.62L3562.13,6227.78L3562.15,6228.12L3562.3,6232.28L3562.45,6236.43L3562.46,6236.78L3562.6,6240.93L3562.74,6245.09L3562.75,6245.43L3562.87,6249.76L3562.88,6250.1L3562.99,6254.26L3563.1,6258.42L3563.11,6258.76L3563.2,6262.94L3563.2,6262.99L3563.52,6277.99L3563.52,6278L3563.84,6293.07L3563.84,6293.17L3564.15,6308.31L3564.15,6308.31L3564.46,6323.5L3564.46,6323.6L3564.76,6338.89L3564.76,6338.99L3565.03,6354.2L3565.33,6369.51L3565.33,6369.7L3565.59,6385.06L3565.87,6400.48L3565.87,6400.66L3566.12,6416.14L3566.38,6431.62L3566.39,6431.71L3566.64,6447.38L3566.64,6447.47L3566.87,6463.14L3567.1,6478.83L3567.34,6494.56L3567.57,6510.39L3567.57,6510.48L3567.79,6526.4L3567.8,6526.49L3568,6542.42L3568.2,6558.35L3568.41,6574.38L3568.41,6574.47L3568.6,6590.46L3568.8,6606.54L3568.81,6606.71L3568.98,6622.84L3569.17,6638.98L3569.17,6639.06L3569.35,6655.37L3569.35,6655.46L3569.51,6671.69L3569.68,6687.97L3569.68,6688.05L3569.85,6704.46L3570.01,6720.91L3570.01,6721L3570.15,6737.5L3570.3,6754L3570.45,6770.55L3570.59,6787.18L3570.59,6787.27L3570.72,6803.94L3570.86,6820.62L3570.99,6837.35L3571.12,6854.15L3571.12,6854.24L3571.24,6871.09L3571.35,6887.94L3571.47,6904.87L3571.47,6904.95L3571.57,6921.84L3571.69,6938.78L3571.69,6938.86L3571.79,6955.92L3571.9,6972.97L3572,6990.11L3572,6990.19L3572.09,7007.32L3572.28,7041.69L3572.28,7041.73L3572.45,7076.29L3572.63,7111L3572.63,7111.04L3572.79,7145.92L3572.79,7145.96L3572.93,7180.96L3573.08,7216.09L3573.23,7251.36L3573.23,7251.4L3573.36,7286.82L3573.49,7322.35L3573.62,7358.03L3573.62,7358.06L3573.74,7393.85L3573.99,7465.74L3574.25,7538.13L3574.25,7538.15L3574.5,7610.94L3574.64,7647.48L3574.64,7647.52L3574.77,7684.17L3574.92,7720.91L3575.07,7757.75L3575.23,7794.67L3575.39,7831.69L3575.56,7868.75L3575.75,7905.94L3575.94,7943.2L3576.04,7961.84L3576.14,7980.46L3576.26,7999.14L3576.26,7999.22L3576.36,8017.91L3576.48,8036.59L3576.6,8055.36L3576.71,8074.07L3576.84,8092.84L3576.85,8092.91L3576.96,8111.69L3577.09,8130.38L3577.24,8149.19L3577.24,8149.26L3577.37,8168.09L3577.51,8186.89L3577.66,8205.78L3577.81,8224.62L3577.97,8243.46L3578.13,8262.4L3578.29,8281.27L3578.46,8300.15L3578.64,8319.12L3578.81,8338.03L3579,8356.94L3579.19,8375.94L3579.38,8394.88L3579.58,8413.83L3579.79,8432.86L3579.99,8451.83L3580.21,8470.81L3580.43,8489.79L3582.95,8695.65L3209.22,8700.23L3206.69,8494.26L3206.69,8494.19L3206.47,8475.1L3206.25,8456.02L3206.25,8455.95L3206.05,8436.88L3205.84,8417.85L3205.64,8398.79L3205.64,8398.72L3205.45,8379.68L3205.26,8360.68L3205.07,8341.66L3205.07,8341.58L3204.89,8322.57L3204.72,8303.6L3204.54,8284.61L3204.54,8284.54L3204.38,8265.57L3204.22,8246.64L3204.06,8227.68L3204.06,8227.61L3203.91,8208.67L3203.77,8189.78L3203.62,8170.87L3203.62,8170.8L3203.49,8151.97L3203.34,8133.16L3203.34,8133.09L3203.21,8114.19L3203.21,8114.12L3203.09,8095.34L3202.96,8076.57L3202.96,8076.5L3202.84,8057.68L3202.73,8038.92L3202.61,8020.13L3202.61,8020.06L3202.51,8001.36L3202.39,7982.69L3202.39,7982.61L3202.29,7963.88L3202.19,7945.19L3202.19,7945.15L3202,7907.84L3201.81,7870.6L3201.81,7870.57L3201.63,7833.4L3201.63,7833.36L3201.47,7796.3L3201.31,7759.32L3201.31,7759.28L3201.16,7722.4L3201.02,7685.6L3201.02,7685.57L3200.89,7648.91L3200.74,7612.35L3200.74,7612.29L3200.49,7539.45L3200.23,7467.07L3200.23,7467.06L3199.98,7395.11L3199.98,7395.09L3199.86,7359.34L3199.73,7323.73L3199.6,7288.2L3199.47,7252.85L3199.32,7217.64L3199.18,7182.52L3199.03,7147.58L3198.87,7112.83L3198.7,7078.18L3198.52,7043.69L3198.33,7009.33L3198.33,7009.29L3198.24,6992.22L3198.14,6975.21L3198.04,6958.16L3197.94,6941.23L3197.82,6924.3L3197.82,6924.22L3197.72,6907.33L3197.6,6890.52L3197.49,6873.68L3197.37,6856.96L3197.24,6840.28L3197.11,6823.56L3196.98,6806.89L3196.85,6790.35L3196.7,6773.84L3196.56,6757.3L3196.41,6740.81L3196.26,6724.44L3196.1,6708.12L3195.95,6691.85L3195.77,6675.58L3195.77,6675.5L3195.61,6659.28L3195.44,6643.23L3195.25,6627.11L3195.24,6627.02L3195.07,6611.03L3194.87,6595.09L3194.87,6595.01L3194.68,6579.03L3194.47,6563.14L3194.27,6547.22L3194.07,6531.43L3193.85,6515.79L3193.62,6500.1L3193.39,6484.39L3193.15,6468.72L3192.92,6453.19L3192.68,6437.81L3192.41,6422.34L3192.41,6422.26L3192.17,6406.94L3191.89,6391.66L3191.89,6391.58L3191.63,6376.37L3191.34,6361.2L3191.34,6361.12L3191.06,6345.93L3190.77,6330.93L3190.47,6315.89L3190.16,6300.92L3189.85,6285.99L3189.53,6271.08L3189.45,6267.48L3189.35,6263.84L3189.26,6260.19L3189.16,6256.89L3189.04,6253.25L3188.92,6249.61L3188.79,6245.97L3188.66,6242.32L3188.51,6238.69L3188.36,6235.05L3188.22,6231.75L3188.04,6228.11L3187.85,6224.14L3187.68,6220.5L3187.51,6217.21L3187.31,6213.57L3187.11,6209.94L3186.92,6206.65L3186.69,6203.02L3186.44,6199.05L3186.22,6195.42L3186,6192.13L3185.75,6188.5L3185.49,6184.88L3185.22,6181.25L3184.96,6177.62L3184.7,6174.34L3184.41,6170.72L3184.09,6166.75L3183.83,6163.47L3183.52,6160.02L3183.49,6159.68L3183.17,6155.89L3182.88,6152.61L3182.58,6149.33L3182.21,6145.54L3182.18,6145.2L3181.87,6141.76L3181.54,6138.48L3181.14,6134.53L3180.82,6131.25L3180.45,6127.81L3180.41,6127.47L3180.02,6123.69L3179.67,6120.41L3179.27,6116.8L3178.87,6113.2L3178.5,6109.92L3178.05,6106.15L3178.01,6105.81L3177.62,6102.37L3177.22,6099.1L3176.74,6095.16L3176.3,6091.56L3175.89,6088.29L3175.42,6084.69L3174.96,6081.09L3174.48,6077.49L3174,6073.89L3173.5,6070.29L3173.01,6066.69L3172.55,6063.43L3172.03,6059.84L3171.46,6055.91L3170.94,6052.32L3170.46,6049.06L3169.91,6045.47L3169.32,6041.54L3168.77,6037.95L3168.26,6034.7L3167.69,6031.11L3167.12,6027.52L3166.53,6023.94L3165.94,6020.36L3165.4,6017.1L3164.76,6013.35L3164.7,6013.02L3164.13,6009.61L3163.56,6006.36L3162.88,6002.45L3162.25,5998.87L3161.67,5995.62L3161.02,5992.05L3160.3,5988.14L3159.65,5984.57L3159.05,5981.33L3158.37,5977.76L3157.68,5974.18L3156.99,5970.61L3156.3,5967.05L3155.59,5963.48L3154.89,5959.91L3154.17,5956.35L3153.45,5952.78L3152.71,5949.22L3151.98,5945.66L3151.23,5942.1L3150.49,5938.54L3149.73,5934.98L3148.97,5931.42L3148.27,5928.19L3147.48,5924.64L3146.62,5920.76L3145.84,5917.2L3145.11,5913.98L3144.3,5910.43L3143.41,5906.55L3142.6,5903.01L3141.84,5899.78L3141,5896.23L3140.09,5892.37L3139.25,5888.82L3138.47,5885.6L3137.61,5882.06L3136.66,5878.2L3135.87,5874.98L3135.02,5871.6L3134.94,5871.29L3134.02,5867.59L3133.21,5864.37L3132.3,5860.84L3131.39,5857.31L3130.47,5853.78L3129.47,5849.93L3128.55,5846.4L3127.7,5843.19L3126.76,5839.66L3125.81,5836.13L3124.85,5832.61L3123.89,5829.09L3122.92,5825.57L3121.86,5821.73L3120.88,5818.21L3119.98,5815.01L3118.98,5811.49L3117.98,5807.98L3116.97,5804.46L3115.87,5800.64L3114.94,5797.44L3113.95,5794.08L3113.86,5793.78L3112.78,5790.11L3111.84,5786.91L3110.78,5783.4L3109.73,5779.9L3108.66,5776.4L3107.5,5772.58L3106.43,5769.08L3105.45,5765.9L3104.36,5762.4L3103.16,5758.59L3102.07,5755.09L3101.06,5751.91L3099.94,5748.42L3098.72,5744.62L3097.6,5741.13L3096.47,5737.64L3095.33,5734.15L3094.29,5730.97L3093.13,5727.49L3091.86,5723.7L3090.7,5720.22L3089.53,5716.74L3088.36,5713.26L3087.17,5709.78L3085.98,5706.31L3084.78,5702.83L3083.58,5699.36L3082.36,5695.89L3081.15,5692.42L3079.92,5688.95L3078.69,5685.48L3077.45,5682.02L3076.1,5678.25L3074.86,5674.79L3073.72,5671.63L3072.45,5668.17L3071.07,5664.41L3069.8,5660.95L3068.63,5657.8L3067.34,5654.34L3065.93,5650.59L3064.64,5647.14L3063.33,5643.7L3062.02,5640.24L3060.7,5636.8L3059.38,5633.36L3058.04,5629.91L3056.71,5626.47L3055.36,5623.03L3053.89,5619.3L3052.55,5615.86L3051.3,5612.72L3049.92,5609.28L3048.43,5605.56L3047.06,5602.13L3045.67,5598.7L3044.28,5595.28L3042.88,5591.85L3041.47,5588.43L3040.06,5585L3038.64,5581.58L3037.21,5578.16L3035.78,5574.75L3034.34,5571.33L3032.78,5567.63L3031.33,5564.22L3030,5561.09L3028.47,5557.53L3028.35,5557.26L3026.95,5553.99L3025.53,5550.72L3025.41,5550.45L3024,5547.18L3022.56,5543.91L3022.44,5543.64L3020.9,5540.09L3019.52,5536.98L3018.01,5533.58L3016.38,5529.9L3014.87,5526.51L3013.47,5523.39L3011.87,5519.85L3011.75,5519.59L3010.28,5516.33L3008.79,5513.07L3008.67,5512.82L3007.2,5509.56L3005.69,5506.31L3005.57,5506.05L3003.95,5502.52L3002.52,5499.41L3000.94,5496.03L2999.24,5492.38L2997.66,5489.01L2996.07,5485.63L2994.48,5482.26L2992.87,5478.89L2991.27,5475.53L2989.65,5472.16L2987.9,5468.52L2986.28,5465.16L2984.65,5461.8L2983.02,5458.44L2981.38,5455.08L2979.73,5451.73L2978.07,5448.37L2976.41,5445.02L2974.74,5441.67L2972.94,5438.06L2971.26,5434.71L2969.58,5431.37L2967.89,5428.02L2966.2,5424.68L2964.5,5421.35L2962.78,5418.01L2960.93,5414.41L2959.22,5411.07L2957.5,5407.74L2955.77,5404.42L2954.03,5401.09L2952.29,5397.76L2950.54,5394.44L2948.65,5390.86L2946.9,5387.54L2945.13,5384.22L2943.36,5380.9L2941.58,5377.59L2939.8,5374.28L2938.01,5370.97L2936.08,5367.4L2934.28,5364.1L2932.48,5360.8L2930.67,5357.49L2928.85,5354.19L2926.89,5350.64L2925.07,5347.35L2923.37,5344.3L2921.45,5340.87L2921.32,5340.64L2919.41,5337.22L2917.7,5334.18L2915.84,5330.9L2913.84,5327.36L2911.98,5324.08L2910.24,5321.05L2908.28,5317.64L2908.15,5317.41L2906.2,5314L2904.45,5310.98L2902.55,5307.7L2900.5,5304.19L2898.6,5300.92L2896.68,5297.65L2894.77,5294.39L2892.76,5291L2892.63,5290.78L2890.78,5287.62L2888.98,5284.61L2886.9,5281.11L2884.81,5277.62L2882.87,5274.37L2881.06,5271.36L2879.09,5268.12L2876.97,5264.63L2874.85,5261.15L2873.03,5258.15L2871.1,5255.02L2870.97,5254.81L2868.9,5251.44L2866.91,5248.21L2864.91,5244.98L2862.9,5241.75L2860.74,5238.28L2858.73,5235.06L2856.71,5231.84L2854.68,5228.62L2852.65,5225.4L2850.46,5221.95L2848.42,5218.74L2846.37,5215.53L2844.32,5212.32L2842.26,5209.11L2840.04,5205.68L2837.97,5202.47L2835.9,5199.28L2833.82,5196.08L2831.73,5192.88L2829.49,5189.46L2827.39,5186.27L2825.29,5183.08L2823.18,5179.9L2821.06,5176.71L2818.8,5173.31L2816.68,5170.13L2814.54,5166.95L2812.26,5163.55L2810.12,5160.38L2807.98,5157.21L2805.83,5154.05L2803.67,5150.88L2801.36,5147.49L2799.2,5144.34L2797.03,5141.18L2794.86,5138.02L2792.67,5134.87L2790.33,5131.5L2788.14,5128.35L2785.94,5125.21L2783.74,5122.06L2781.44,5118.8L2781.3,5118.61L2779.17,5115.57L2777.01,5112.52L2776.88,5112.34L2774.58,5109.08L2772.35,5105.95L2770.12,5102.82L2767.88,5099.69L2765.64,5096.57L2763.38,5093.45L2760.97,5090.12L2758.56,5086.79L2756.31,5083.68L2754.2,5080.78L2751.82,5077.55L2751.69,5077.36L2749.49,5074.35L2747.26,5071.34L2747.13,5071.15L2744.76,5067.93L2742.46,5064.84L2740.16,5061.74L2737.85,5058.65L2735.39,5055.35L2733.08,5052.26L2730.76,5049.17L2728.28,5045.88L2725.95,5042.8L2723.62,5039.73L2721.12,5036.44L2718.79,5033.37L2716.44,5030.3L2714.09,5027.23L2711.72,5024.17L2709.2,5020.9L2706.84,5017.84L2704.46,5014.79L2701.93,5011.53L2699.55,5008.48L2697.16,5005.43L2694.77,5002.38L2692.27,4999.22L2692.14,4999.06L2689.82,4996.1L2687.46,4993.14L2687.33,4992.98L2684.83,4989.82L2682.42,4986.79L2680,4983.77L2677.57,4980.74L2674.98,4977.51L2672.55,4974.49L2670.1,4971.47L2667.49,4968.26L2665.05,4965.25L2662.59,4962.23L2659.97,4959.03L2657.51,4956.03L2655.04,4953.03L2652.41,4949.83L2649.94,4946.83L2647.45,4943.84L2644.96,4940.85L2642.47,4937.86L2639.81,4934.68L2637.15,4931.51L2634.65,4928.53L2632.13,4925.55L2629.62,4922.58L2627.09,4919.6L2624.41,4916.45L2621.88,4913.48L2619.34,4910.51L2616.64,4907.37L2613.94,4904.23L2611.4,4901.27L2609,4898.5L2606.34,4895.44L2606.21,4895.29L2603.56,4892.24L2601.15,4889.48L2598.48,4886.43L2598.35,4886.28L2595.68,4883.23L2593.1,4880.3L2590.52,4877.37L2587.93,4874.44L2585.17,4871.33L2582.58,4868.41L2579.97,4865.49L2577.2,4862.39L2574.59,4859.48L2571.97,4856.57L2569.18,4853.48L2566.56,4850.57L2563.83,4847.57L2563.7,4847.43L2561.14,4844.6L2558.55,4841.77L2558.43,4841.63L2555.7,4838.63L2553.05,4835.74L2550.4,4832.85L2547.73,4829.97L2544.91,4826.91L2542.25,4824.03L2539.47,4821.05L2539.35,4820.92L2536.75,4818.11L2534.12,4815.31L2533.99,4815.17L2531.22,4812.2L2528.53,4809.34L2525.84,4806.48L2523.04,4803.52L2522.91,4803.39L2520.12,4800.43L2517.58,4797.75L2514.86,4794.9L2511.98,4791.89L2509.1,4788.88L2506.39,4786.04L2503.66,4783.2L2500.77,4780.21L2498.03,4777.38L2495.29,4774.55L2492.38,4771.56L2489.48,4768.58L2486.73,4765.76L2484.13,4763.11L2481.26,4760.2L2481.14,4760.07L2478.28,4757.17L2475.51,4754.36L2472.58,4751.4L2469.81,4748.61L2467.02,4745.81L2464.23,4743.02L2461.34,4740.13L2461.21,4740.01L2458.33,4737.12L2455.69,4734.5L2452.78,4731.62L2452.65,4731.5L2449.76,4728.63L2446.95,4725.86L2444.13,4723.09L2441.2,4720.23L2441.08,4720.11L2438.33,4717.4L2435.55,4714.7L2435.43,4714.59L2432.51,4711.74L2429.66,4708.98L2426.66,4706.08L2423.82,4703.33L2420.97,4700.59L2417.96,4697.7L2414.94,4694.81L2412.09,4692.07L2409.22,4689.35L2406.35,4686.62L2403.37,4683.8L2403.25,4683.69L2400.29,4680.88L2397.41,4678.16L2394.53,4675.45L2391.63,4672.73L2388.58,4669.88L2385.53,4667.03L2382.63,4664.33L2379.72,4661.63L2376.81,4658.94L2373.79,4656.16L2373.67,4656.05L2370.66,4653.27L2367.74,4650.59L2364.82,4647.91L2361.88,4645.23L2358.79,4642.42L2355.7,4639.61L2352.76,4636.94L2349.71,4634.19L2349.59,4634.08L2346.72,4631.48L2343.81,4628.87L2343.7,4628.77L2340.65,4626.03L2337.68,4623.38L2334.57,4620.6L2331.6,4617.95L2328.62,4615.31L2325.49,4612.54L2322.36,4609.77L2319.38,4607.14L2316.39,4604.52L2313.24,4601.76L2310.26,4599.15L2307.25,4596.53L2304.09,4593.78L2300.93,4591.04L2297.93,4588.44L2294.91,4585.84L2291.74,4583.11L2288.56,4580.38L2285.55,4577.8L2282.51,4575.21L2279.48,4572.62L2276.33,4569.96L2276.23,4569.87L2273.1,4567.21L2270.05,4564.64L2266.85,4561.94L2263.81,4559.38L2260.75,4556.82L2257.53,4554.13L2254.48,4551.58L2251.3,4548.94L2251.19,4548.86L2248.03,4546.23L2245.12,4543.81L2241.93,4541.19L2241.83,4541.1L2238.65,4538.48L2235.57,4535.95L2232.33,4533.3L2229.24,4530.78L2226.14,4528.26L2222.89,4525.61L2219.64,4522.98L2216.54,4520.47L2213.43,4517.96L2210.16,4515.34L2206.89,4512.72L2203.78,4510.22L2200.66,4507.73L2197.37,4505.12L2194.1,4502.52L2190.97,4500.04L2187.83,4497.57L2184.54,4494.97L2181.4,4492.5L2178.14,4489.96L2178.04,4489.88L2174.8,4487.34L2171.64,4484.88L2168.49,4482.43L2165.33,4479.98L2161.91,4477.34L2161.81,4477.27L2158.7,4474.86L2155.57,4472.46L2155.48,4472.39L2152.2,4469.87L2149.02,4467.44L2145.69,4464.9L2142.36,4462.36L2139.18,4459.95L2135.99,4457.53L2132.64,4455.01L2129.45,4452.6L2126.14,4450.12L2126.04,4450.05L2122.75,4447.57L2119.54,4445.18L2116.33,4442.78L2113.01,4440.32L2112.91,4440.25L2109.6,4437.79L2106.38,4435.41L2103.16,4433.04L2099.82,4430.59L2099.73,4430.52L2096.41,4428.08L2093.17,4425.72L2089.94,4423.35L2086.58,4420.92L2086.49,4420.86L2083.16,4418.43L2079.91,4416.08L2076.51,4413.63L2073.26,4411.29L2070,4408.95L2066.49,4406.44L2066.4,4406.38L2063.2,4404.08L2059.96,4401.78L2059.88,4401.72L2056.51,4399.33L2053.24,4397.02L2049.81,4394.6L2046.39,4392.19L2043.12,4389.88L2039.83,4387.58L2036.39,4385.18L2032.96,4382.79L2029.52,4380.4L2026.23,4378.11L2022.93,4375.83L2019.48,4373.45L2016.18,4371.18L2012.76,4368.84L2012.68,4368.79L2009.27,4366.45L2005.96,4364.19L2002.5,4361.84L1999.18,4359.59L1995.85,4357.34L1992.38,4355L1988.9,4352.66L1985.43,4350.33L1982.1,4348.1L1978.76,4345.87L1975.27,4343.55L1971.78,4341.24L1968.44,4339.02L1964.98,4336.74L1964.9,4336.69L1961.45,4334.42L1958.1,4332.22L1954.74,4330.02L1951.27,4327.75L1951.19,4327.71L1947.73,4325.45L1944.36,4323.26L1940.85,4320.99L1937.48,4318.82L1934,4316.57L1933.92,4316.53L1930.44,4314.29L1927.06,4312.12L1923.54,4309.88L1920.16,4307.72L1916.76,4305.57L1913.22,4303.33L1909.68,4301.1L1906.14,4298.87L1902.61,4296.65L1899.21,4294.52L1895.8,4292.39L1892.25,4290.18L1888.84,4288.07L1885.32,4285.89L1885.25,4285.85L1881.73,4283.67L1878.31,4281.57L1874.74,4279.38L1871.18,4277.2L1867.76,4275.11L1864.21,4272.96L1864.15,4272.92L1860.62,4270.77L1857.33,4268.78L1853.77,4266.64L1853.7,4266.6L1850.02,4264.38L1846.59,4262.32L1843.14,4260.26L1839.55,4258.12L1835.96,4255.98L1832.51,4253.94L1829.05,4251.89L1825.44,4249.77L1821.85,4247.66L1818.25,4245.55L1814.65,4243.44L1811.19,4241.42L1807.71,4239.4L1804.09,4237.31L1800.48,4235.23L1797.01,4233.22L1793.41,4231.16L1793.35,4231.13L1789.77,4229.07L1786.28,4227.08L1782.65,4225.02L1779.17,4223.04L1775.56,4221L1775.5,4220.97L1771.9,4218.94L1768.4,4216.97L1764.76,4214.93L1761.13,4212.9L1757.62,4210.94L1754,4208.93L1753.94,4208.9L1750.34,4206.9L1746.82,4204.96L1743.17,4202.95L1739.65,4201.02L1736.02,4199.03L1735.97,4199L1732.34,4197.02L1728.81,4195.1L1725.15,4193.12L1721.49,4191.14L1717.96,4189.23L1714.31,4187.28L1714.26,4187.25L1710.63,4185.3L1707.09,4183.41L1703.4,4181.45L1699.73,4179.5L1696.19,4177.62L1692.63,4175.75L1688.84,4173.76L1688.8,4173.74L1685.15,4171.82L1681.72,4170.03L1678.04,4168.12L1677.99,4168.09L1674.2,4166.12L1670.65,4164.28L1667.08,4162.44L1663.38,4160.54L1659.68,4158.64L1655.99,4156.75L1652.42,4154.93L1648.83,4153.11L1645.02,4151.18L1644.98,4151.16L1641.3,4149.3L1637.84,4147.56L1634.14,4145.71L1634.1,4145.69L1630.29,4143.78L1626.7,4141.99L1623.1,4140.21L1619.38,4138.37L1615.66,4136.53L1611.94,4134.7L1608.34,4132.94L1604.62,4131.12L1604.59,4131.11L1600.89,4129.3L1597.28,4127.55L1593.55,4125.74L1589.82,4123.94L1586.2,4122.21L1582.47,4120.42L1582.44,4120.41L1578.73,4118.63L1575.1,4116.91L1571.36,4115.14L1567.61,4113.36L1563.87,4111.6L1560.25,4109.9L1556.5,4108.15L1556.47,4108.14L1552.74,4106.4L1549.11,4104.71L1545.35,4102.97L1541.59,4101.23L1537.96,4099.56L1534.2,4097.84L1534.17,4097.83L1530.43,4096.12L1526.78,4094.46L1523.02,4092.75L1519.25,4091.05L1515.48,4089.35L1511.71,4087.66L1508.06,4086.02L1504.4,4084.39L1500.51,4082.67L1500.49,4082.66L1496.73,4080.99L1493.07,4079.38L1489.41,4077.77L1485.63,4076.12L1485.61,4076.11L1481.72,4074.41L1478.06,4072.82L1474.38,4071.22L1470.59,4069.59L1466.8,4067.96L1463.01,4066.34L1459.22,4064.72L1455.54,4063.15L1451.85,4061.59L1447.95,4059.94L1447.93,4059.93L1444.15,4058.34L1440.46,4056.79L1436.66,4055.21L1432.97,4053.67L1429.16,4052.1L1429.15,4052.09L1425.24,4050.48L1421.55,4048.95L1417.85,4047.44L1414.04,4045.89L1410.22,4044.33L1406.41,4042.79L1402.6,4041.25L1398.89,4039.76L1395.07,4038.23L1395.07,4038.23L1391.26,4036.7L1387.54,4035.23L1383.72,4033.72L1379.89,4032.21L1376.07,4030.71L1372.25,4029.21L1368.53,4027.76L1364.69,4026.28L1364.69,4026.27L1360.87,4024.79L1357.14,4023.36L1353.31,4021.89L1349.47,4020.43L1345.64,4018.97L1341.8,4017.51L1337.97,4016.07L1334.24,4014.66L1330.5,4013.26L1326.55,4011.79L1322.71,4010.37L1318.97,4008.98L1315.13,4007.57L1311.28,4006.16L1307.54,4004.79L1303.68,4003.39L1299.84,4002L1295.98,4000.61L1292.14,3999.23L1288.38,3997.89L1284.52,3996.51L1280.67,3995.15L1276.82,3993.79L1272.96,3992.43L1269.2,3991.12L1265.33,3989.77L1261.48,3988.43L1257.61,3987.1L1253.76,3985.77L1249.99,3984.48L1246.13,3983.17L1242.26,3981.86L1238.49,3980.58L1234.61,3979.28L1230.65,3977.96L1226.88,3976.7L1223.01,3975.42L1219.14,3974.14L1215.36,3972.9L1211.48,3971.63L1207.61,3970.37L1203.73,3969.11L1199.86,3967.87L1196.07,3966.65L1192.18,3965.41L1188.31,3964.18L1184.42,3962.95L1180.55,3961.73L1176.76,3960.54L1172.87,3959.33L1168.98,3958.13L1165.1,3956.93L1161.21,3955.74L1157.33,3954.55L1153.44,3953.37L1149.65,3952.22L1145.75,3951.04L1141.87,3949.88L1138.06,3948.75L1134.08,3947.57L1130.19,3946.42L1126.38,3945.3L1122.49,3944.16L1118.6,3943.03L1114.79,3941.93L1110.88,3940.81L1106.9,3939.68L1103.09,3938.59L1099.18,3937.49L1095.3,3936.39L1091.39,3935.3L1087.5,3934.22L1083.67,3933.16L1079.77,3932.09L1075.87,3931.02L1071.96,3929.95L1068.06,3928.9L1064.24,3927.87L1060.32,3926.82L1056.34,3925.76L1052.52,3924.75L1048.6,3923.72L1044.7,3922.7L1040.87,3921.71L1036.87,3920.68L1032.98,3919.67L1029.14,3918.69L1025.22,3917.7L1021.31,3916.71L1017.4,3915.73L1013.49,3914.76L1009.66,3913.81L1005.73,3912.84L1001.75,3911.87L997.911,3910.93L993.989,3909.99L990.082,3909.05L986.23,3908.13L982.237,3907.18L978.33,3906.26L974.478,3905.36L970.56,3904.45L966.639,3903.54L962.719,3902.64L958.801,3901.75L954.881,3900.86L950.964,3899.98L947.114,3899.12L943.18,3898.25L939.197,3897.37L935.346,3896.53L931.416,3895.68L927.502,3894.83L923.574,3893.99L919.658,3893.16L915.792,3892.35L911.864,3891.52L907.873,3890.69L903.961,3889.88L900.097,3889.09L896.17,3888.29L892.243,3887.5L888.317,3886.72L884.393,3885.93L880.529,3885.17L876.589,3884.4L872.606,3883.63L868.742,3882.89L864.805,3882.13L860.826,3881.38L856.961,3880.65L853.022,3879.92L849.102,3879.19L845.168,3878.47L841.246,3877.76L837.37,3877.06L833.436,3876.36L829.446,3875.65L825.527,3874.96L821.648,3874.29L817.717,3873.61L813.787,3872.94L809.854,3872.27L805.922,3871.61L801.992,3870.96L798.065,3870.31L794.133,3869.67L790.203,3869.03L786.326,3868.41L782.383,3867.79L778.405,3867.16L774.476,3866.55L770.598,3865.95L766.658,3865.36L762.685,3864.76L758.806,3864.18L754.866,3863.6L750.943,3863.02L747.003,3862.45L743.078,3861.89L739.183,3861.34L735.202,3860.78L731.28,3860.24L727.342,3859.7L723.422,3859.17L719.528,3858.65L715.592,3858.14L711.615,3857.62L707.693,3857.11L703.801,3856.62L699.868,3856.12L695.932,3855.63L691.999,3855.15L688.067,3854.68L684.097,3854.2L680.179,3853.74L676.284,3853.28L672.354,3852.84L668.425,3852.39L664.493,3851.95L660.562,3851.52L656.635,3851.09L652.737,3850.68L648.794,3850.26L644.834,3849.86L640.906,3849.45L636.978,3849.06L633.05,3848.67L629.124,3848.29L625.199,3847.91L621.303,3847.55L617.361,3847.18L613.406,3846.82L609.484,3846.47L605.559,3846.13L601.661,3845.79L597.722,3845.46L593.774,3845.14L589.852,3844.82L585.953,3844.51L582.016,3844.2L578.073,3843.9L574.175,3843.61L570.236,3843.32L566.294,3843.04L562.376,3842.76L558.474,3842.49L554.541,3842.23L550.604,3841.98L546.683,3841.73L542.785,3841.49L538.852,3841.25L534.915,3841.02L531.017,3840.8L527.085,3840.58L523.152,3840.37L519.235,3840.16L515.333,3839.97L511.406,3839.77L507.476,3839.59L503.575,3839.41L499.646,3839.24L495.717,3839.07L491.805,3838.91L487.891,3838.76L483.988,3838.61L480.061,3838.47L476.138,3838.34L472.226,3838.21L468.315,3838.09L464.414,3837.98L460.488,3837.87L456.568,3837.77L452.656,3837.67L448.745,3837.58L444.838,3837.5L440.929,3837.43L437.018,3837.36L433.109,3837.29L429.207,3837.24L425.284,3837.19L421.371,3837.15L417.41,3837.11L397.176,3836.94L376.134,3836.78L354.408,3836.62L332.03,3836.47L309.073,3836.31L285.568,3836.16L261.574,3836.02L237.121,3835.87L212.282,3835.72L187.09,3835.58L135.874,3835.29L83.844,3835.01L83.841,3835.01L31.404,3834.71L31.39,3834.71L-21.068,3834.41L-21.085,3834.41L-47.205,3834.26L-47.219,3834.26L-73.193,3834.1L-73.21,3834.1L-98.997,3833.94L-99.017,3833.94L-124.574,3833.78L-124.597,3833.78L-149.864,3833.61L-149.89,3833.61L-174.826,3833.43L-174.856,3833.43L-199.416,3833.25L-199.45,3833.25L-223.576,3833.07L-223.614,3833.07L-247.257,3832.88L-247.288,3832.88L-258.922,3832.78L-258.945,3832.78L-270.444,3832.68L-270.468,3832.68L-281.823,3832.58L-281.85,3832.58L-293.046,3832.48L-293.073,3832.48L-304.123,3832.37L-304.151,3832.37L-315.043,3832.26L-315.076,3832.26L-325.796,3832.16L-325.828,3832.16L-336.373,3832.05L-336.409,3832.05L-346.783,3831.93L-346.822,3831.93L-543.842,3829.72L-539.635,3455.98L-342.674,3458.2Z" style="fill:rgb(20,169,12);fill-opacity:0.698039;"/>
            </g>
        </g>
    </g>
</svg>
