<?xml version="1.0" standalone="no"?><!DOCTYPE svg PUBLIC "-//W3C//DTD SVG 1.1//EN" "http://www.w3.org/Graphics/SVG/1.1/DTD/svg11.dtd"><svg width="100%" height="100%" viewBox="0 0 15325 9605" version="1.1" xmlns="http://www.w3.org/2000/svg" xmlns:xlink="http://www.w3.org/1999/xlink" xml:space="preserve" style="fill-rule:evenodd;clip-rule:evenodd;stroke-linejoin:round;stroke-miterlimit:1;"><g><rect x="12765.8" y="2130.02" width="57.87" height="5057.87" style="fill:#000;"/><rect x="11534.5" y="2130.02" width="57.87" height="5057.87" style="fill:#000;"/><path d="M12823.7,4687.89l-11139.8,0l0,-57.871l11139.8,0l0,57.871Z" style="fill:#000;"/><rect x="10303.2" y="2130.02" width="57.87" height="5057.87" style="fill:#000;"/><rect x="9071.86" y="2130.02" width="57.87" height="5057.87" style="fill:#000;"/><rect x="7840.53" y="2130.02" width="57.87" height="5057.87" style="fill:#000;"/><rect x="6609.21" y="2130.02" width="57.87" height="5057.87" style="fill:#000;"/><rect x="5377.88" y="2130.02" width="57.87" height="5057.87" style="fill:#000;"/><rect x="4146.56" y="2130.02" width="57.87" height="5057.87" style="fill:#000;"/><rect x="2915.23" y="2130.02" width="57.87" height="5057.87" style="fill:#000;"/><rect x="1683.91" y="2130.02" width="57.87" height="5057.87" style="fill:#000;"/></g><path d="M12932.4,4590.16c0,-37.968 -30.826,-68.793 -68.794,-68.793l-137.587,0c-37.969,0 -68.794,30.825 -68.794,68.793l0,137.588c0,37.968 30.825,68.793 68.794,68.793l137.587,0c37.968,0 68.794,-30.825 68.794,-68.793l0,-137.588Z" style="fill:#1710fc;"/><path d="M9242.7,4590.16c0,-37.968 -30.825,-68.793 -68.793,-68.793l-137.588,0c-37.968,0 -68.793,30.825 -68.793,68.793l0,137.588c0,37.968 30.825,68.793 68.793,68.793l137.588,0c37.968,0 68.793,-30.825 68.793,-68.793l0,-137.588Z" style="fill:#1710fc;"/><path d="M1712.84,4021.85l11081.9,0" style="fill:none;stroke-width:416.67px;stroke:#14a90c;stroke-opacity:0.698039;"/><path d="M1469.77,4021.85l-662.5,205.199l0,-410.398l662.5,205.199Z" style="fill:#000;"/><text x="9372.64px" y="5266.89px" style="font-family:'ArialMT';font-size:575.253px;fill:#000;">1</text><text x="12234.6px" y="5266.89px" style="font-family:'ArialMT';font-size:575.253px;fill:#000;">2</text></svg>