<?xml version="1.0" standalone="no"?><!DOCTYPE svg PUBLIC "-//W3C//DTD SVG 1.1//EN" "http://www.w3.org/Graphics/SVG/1.1/DTD/svg11.dtd"><svg width="100%" height="100%" viewBox="0 0 2901 1801" version="1.1" xmlns="http://www.w3.org/2000/svg" xmlns:xlink="http://www.w3.org/1999/xlink" xml:space="preserve" style="fill-rule:evenodd;clip-rule:evenodd;stroke-miterlimit:1;"><g><g id="vertical lines"><path d="M100.654,100.244l0,1600" style="fill:none;stroke-width:1px;stroke:#000;"/><path d="M700.654,100.244l0,1600" style="fill:none;stroke-width:1px;stroke:#000;"/><path d="M1300.65,100.244l0,1600" style="fill:none;stroke-width:1px;stroke:#000;"/><path d="M1900.65,100.244l0,1600" style="fill:none;stroke-width:1px;stroke:#000;"/><path d="M2500.65,100.244l0,1600" style="fill:none;stroke-width:1px;stroke:#000;"/><path d="M300.654,100.244l0,1600" style="fill:none;stroke-width:1px;stroke:#000;"/><path d="M900.654,100.244l0,1600" style="fill:none;stroke-width:1px;stroke:#000;"/><path d="M1500.65,100.244l0,1600" style="fill:none;stroke-width:1px;stroke:#000;"/><path d="M2100.65,100.244l0,1600" style="fill:none;stroke-width:1px;stroke:#000;"/><path d="M2700.65,100.244l0,1600" style="fill:none;stroke-width:1px;stroke:#000;"/><path d="M500.654,100.244l0,1600" style="fill:none;stroke-width:1px;stroke:#000;"/><path d="M1100.65,100.244l0,1600" style="fill:none;stroke-width:1px;stroke:#000;"/><path d="M1700.65,100.244l0,1600" style="fill:none;stroke-width:1px;stroke:#000;"/><path d="M2300.65,100.244l0,1600" style="fill:none;stroke-width:1px;stroke:#000;"/><path d="M200.654,100.244l0,1600" style="fill:none;stroke-width:1px;stroke:#000;"/><path d="M800.654,100.244l0,1600" style="fill:none;stroke-width:1px;stroke:#000;"/><path d="M1400.65,100.244l0,1600" style="fill:none;stroke-width:1px;stroke:#000;"/><path d="M2000.65,100.244l0,1600" style="fill:none;stroke-width:1px;stroke:#000;"/><path d="M2600.65,100.244l0,1600" style="fill:none;stroke-width:1px;stroke:#000;"/><path d="M400.654,100.244l0,1600" style="fill:none;stroke-width:1px;stroke:#000;"/><path d="M1000.65,100.244l0,1600" style="fill:none;stroke-width:1px;stroke:#000;"/><path d="M1600.65,100.244l0,1600" style="fill:none;stroke-width:1px;stroke:#000;"/><path d="M2200.65,100.244l0,1600" style="fill:none;stroke-width:1px;stroke:#000;"/><path d="M2800.65,100.244l0,1600" style="fill:none;stroke-width:1px;stroke:#000;"/><path d="M600.654,100.244l0,1600" style="fill:none;stroke-width:1px;stroke:#000;"/><path d="M1200.65,100.244l0,1600" style="fill:none;stroke-width:1px;stroke:#000;"/><path d="M1800.65,100.244l0,1600" style="fill:none;stroke-width:1px;stroke:#000;"/><path d="M2400.65,100.244l0,1600" style="fill:none;stroke-width:1px;stroke:#000;"/></g><g id="horizontal lines"><path d="M100.654,100.244l2700,0" style="fill:none;stroke-width:1px;stroke-linejoin:round;stroke-miterlimit:1.41421;stroke:#000;"/><path d="M100.654,500.244l2700,0" style="fill:none;stroke-width:1px;stroke-linejoin:round;stroke-miterlimit:1.41421;stroke:#000;"/><path d="M100.654,900.244l2700,0" style="fill:none;stroke-width:1px;stroke-linejoin:round;stroke-miterlimit:1.41421;stroke:#000;"/><path d="M100.654,1300.24l2700,0" style="fill:none;stroke-width:1px;stroke-linejoin:round;stroke-miterlimit:1.41421;stroke:#000;"/><path d="M2800.65,200.244l-2700,0" style="fill:none;stroke-width:1px;stroke-linejoin:round;stroke-miterlimit:1.41421;stroke:#000;"/><path d="M2800.65,600.244l-2700,0" style="fill:none;stroke-width:1px;stroke-linejoin:round;stroke-miterlimit:1.41421;stroke:#000;"/><path d="M2800.65,1000.24l-2700,0" style="fill:none;stroke-width:1px;stroke-linejoin:round;stroke-miterlimit:1.41421;stroke:#000;"/><path d="M2800.65,1400.24l-2700,0" style="fill:none;stroke-width:1px;stroke-linejoin:round;stroke-miterlimit:1.41421;stroke:#000;"/><path d="M100.654,300.244l2700,0" style="fill:none;stroke-width:1px;stroke-linejoin:round;stroke-miterlimit:1.41421;stroke:#000;"/><path d="M100.654,700.244l2700,0" style="fill:none;stroke-width:1px;stroke-linejoin:round;stroke-miterlimit:1.41421;stroke:#000;"/><path d="M100.654,1100.24l2700,0" style="fill:none;stroke-width:1px;stroke-linejoin:round;stroke-miterlimit:1.41421;stroke:#000;"/><path d="M100.654,1500.24l2700,0" style="fill:none;stroke-width:1px;stroke-linejoin:round;stroke-miterlimit:1.41421;stroke:#000;"/><path d="M100.654,400.244l2700,0" style="fill:none;stroke-width:1px;stroke-linejoin:round;stroke-miterlimit:1.41421;stroke:#000;"/><path d="M100.654,800.244l2700,0" style="fill:none;stroke-width:1px;stroke-linejoin:round;stroke-miterlimit:1.41421;stroke:#000;"/><path d="M100.654,1200.24l2700,0" style="fill:none;stroke-width:1px;stroke-linejoin:round;stroke-miterlimit:1.41421;stroke:#000;"/><path d="M100.654,1600.24l2700,0" style="fill:none;stroke-width:1px;stroke-linejoin:round;stroke-miterlimit:1.41421;stroke:#000;"/><path d="M100.654,1700.24l2700,0" style="fill:none;stroke-width:1px;stroke-linejoin:round;stroke-miterlimit:1.41421;stroke:#000;"/></g><g id="top labels"><rect x="200.654" y="50.244" width="100" height="50" style="fill:#808080;stroke-width:1px;stroke-linejoin:round;stroke-miterlimit:1.41421;stroke:#000;"/><rect x="700.654" y="50.244" width="100" height="50" style="fill:#808080;stroke-width:1px;stroke-linejoin:round;stroke-miterlimit:1.41421;stroke:#000;"/><rect x="1200.65" y="50.244" width="100" height="50" style="fill:#808080;stroke-width:1px;stroke-linejoin:round;stroke-miterlimit:1.41421;stroke:#000;"/><rect x="1700.65" y="50.244" width="100" height="50" style="fill:#808080;stroke-width:1px;stroke-linejoin:round;stroke-miterlimit:1.41421;stroke:#000;"/><rect x="2200.65" y="50.244" width="100" height="50" style="fill:#808080;stroke-width:1px;stroke-linejoin:round;stroke-miterlimit:1.41421;stroke:#000;"/><rect x="300.654" y="50.244" width="100" height="50" style="fill:#808080;stroke-width:1px;stroke-linejoin:round;stroke-miterlimit:1.41421;stroke:#000;"/><rect x="800.654" y="50.244" width="100" height="50" style="fill:#808080;stroke-width:1px;stroke-linejoin:round;stroke-miterlimit:1.41421;stroke:#000;"/><rect x="1300.65" y="50.244" width="100" height="50" style="fill:#808080;stroke-width:1px;stroke-linejoin:round;stroke-miterlimit:1.41421;stroke:#000;"/><rect x="1800.65" y="50.244" width="100" height="50" style="fill:#808080;stroke-width:1px;stroke-linejoin:round;stroke-miterlimit:1.41421;stroke:#000;"/><rect x="2300.65" y="50.244" width="100" height="50" style="fill:#808080;stroke-width:1px;stroke-linejoin:round;stroke-miterlimit:1.41421;stroke:#000;"/><rect x="400.654" y="50.244" width="100" height="50" style="fill:#808080;stroke-width:1px;stroke-linejoin:round;stroke-miterlimit:1.41421;stroke:#000;"/><rect x="900.654" y="50.244" width="100" height="50" style="fill:#808080;stroke-width:1px;stroke-linejoin:round;stroke-miterlimit:1.41421;stroke:#000;"/><rect x="1400.65" y="50.244" width="100" height="50" style="fill:#808080;stroke-width:1px;stroke-linejoin:round;stroke-miterlimit:1.41421;stroke:#000;"/><rect x="1900.65" y="50.244" width="100" height="50" style="fill:#808080;stroke-width:1px;stroke-linejoin:round;stroke-miterlimit:1.41421;stroke:#000;"/><rect x="2400.65" y="50.244" width="100" height="50" style="fill:#808080;stroke-width:1px;stroke-linejoin:round;stroke-miterlimit:1.41421;stroke:#000;"/><rect x="500.654" y="50.244" width="100" height="50" style="fill:#808080;stroke-width:1px;stroke-linejoin:round;stroke-miterlimit:1.41421;stroke:#000;"/><rect x="1000.65" y="50.244" width="100" height="50" style="fill:#808080;stroke-width:1px;stroke-linejoin:round;stroke-miterlimit:1.41421;stroke:#000;"/><rect x="1500.65" y="50.244" width="100" height="50" style="fill:#808080;stroke-width:1px;stroke-linejoin:round;stroke-miterlimit:1.41421;stroke:#000;"/><rect x="2000.65" y="50.244" width="100" height="50" style="fill:#808080;stroke-width:1px;stroke-linejoin:round;stroke-miterlimit:1.41421;stroke:#000;"/><rect x="2500.65" y="50.244" width="100" height="50" style="fill:#808080;stroke-width:1px;stroke-linejoin:round;stroke-miterlimit:1.41421;stroke:#000;"/><rect x="600.654" y="50.244" width="100" height="50" style="fill:#808080;stroke-width:1px;stroke-linejoin:round;stroke-miterlimit:1.41421;stroke:#000;"/><rect x="1100.65" y="50.244" width="100" height="50" style="fill:#808080;stroke-width:1px;stroke-linejoin:round;stroke-miterlimit:1.41421;stroke:#000;"/><rect x="1600.65" y="50.244" width="100" height="50" style="fill:#808080;stroke-width:1px;stroke-linejoin:round;stroke-miterlimit:1.41421;stroke:#000;"/><rect x="2100.65" y="50.244" width="100" height="50" style="fill:#808080;stroke-width:1px;stroke-linejoin:round;stroke-miterlimit:1.41421;stroke:#000;"/><rect x="2600.65" y="50.244" width="100" height="50" style="fill:#808080;stroke-width:1px;stroke-linejoin:round;stroke-miterlimit:1.41421;stroke:#000;"/><rect x="2700.65" y="50.244" width="100" height="50" style="fill:#808080;stroke-width:1px;stroke-linejoin:round;stroke-miterlimit:1.41421;stroke:#000;"/><text x="238.663px" y="89.323px" style="font-family:'ArialMT';font-size:36px;fill:#000;stroke-width:1px;stroke-linejoin:round;stroke-miterlimit:1.41421;stroke:#000;">A</text><text x="738.663px" y="89.323px" style="font-family:'ArialMT';font-size:36px;fill:#000;stroke-width:1px;stroke-linejoin:round;stroke-miterlimit:1.41421;stroke:#000;">F</text><text x="1238.66px" y="89.323px" style="font-family:'ArialMT';font-size:36px;fill:#000;stroke-width:1px;stroke-linejoin:round;stroke-miterlimit:1.41421;stroke:#000;">K</text><text x="1738.66px" y="89.323px" style="font-family:'ArialMT';font-size:36px;fill:#000;stroke-width:1px;stroke-linejoin:round;stroke-miterlimit:1.41421;stroke:#000;">P</text><text x="2238.66px" y="89.323px" style="font-family:'ArialMT';font-size:36px;fill:#000;stroke-width:1px;stroke-linejoin:round;stroke-miterlimit:1.41421;stroke:#000;">U</text><text x="338.663px" y="89.323px" style="font-family:'ArialMT';font-size:36px;fill:#000;stroke-width:1px;stroke-linejoin:round;stroke-miterlimit:1.41421;stroke:#000;">B</text><text x="838.663px" y="89.323px" style="font-family:'ArialMT';font-size:36px;fill:#000;stroke-width:1px;stroke-linejoin:round;stroke-miterlimit:1.41421;stroke:#000;">G</text><text x="1338.66px" y="89.323px" style="font-family:'ArialMT';font-size:36px;fill:#000;stroke-width:1px;stroke-linejoin:round;stroke-miterlimit:1.41421;stroke:#000;">L</text><text x="1838.66px" y="89.323px" style="font-family:'ArialMT';font-size:36px;fill:#000;stroke-width:1px;stroke-linejoin:round;stroke-miterlimit:1.41421;stroke:#000;">Q</text><text x="2338.66px" y="89.323px" style="font-family:'ArialMT';font-size:36px;fill:#000;stroke-width:1px;stroke-linejoin:round;stroke-miterlimit:1.41421;stroke:#000;">V</text><text x="438.663px" y="89.323px" style="font-family:'ArialMT';font-size:36px;fill:#000;stroke-width:1px;stroke-linejoin:round;stroke-miterlimit:1.41421;stroke:#000;">C</text><text x="938.663px" y="89.323px" style="font-family:'ArialMT';font-size:36px;fill:#000;stroke-width:1px;stroke-linejoin:round;stroke-miterlimit:1.41421;stroke:#000;">H</text><text x="1438.66px" y="89.323px" style="font-family:'ArialMT';font-size:36px;fill:#000;stroke-width:1px;stroke-linejoin:round;stroke-miterlimit:1.41421;stroke:#000;">M</text><text x="1938.66px" y="89.323px" style="font-family:'ArialMT';font-size:36px;fill:#000;stroke-width:1px;stroke-linejoin:round;stroke-miterlimit:1.41421;stroke:#000;">R</text><text x="2438.66px" y="89.323px" style="font-family:'ArialMT';font-size:36px;fill:#000;stroke-width:1px;stroke-linejoin:round;stroke-miterlimit:1.41421;stroke:#000;">W</text><text x="538.663px" y="89.323px" style="font-family:'ArialMT';font-size:36px;fill:#000;stroke-width:1px;stroke-linejoin:round;stroke-miterlimit:1.41421;stroke:#000;">D</text><text x="1045.67px" y="89.323px" style="font-family:'ArialMT';font-size:36px;fill:#000;stroke-width:1px;stroke-linejoin:round;stroke-miterlimit:1.41421;stroke:#000;">I</text><text x="1538.66px" y="89.323px" style="font-family:'ArialMT';font-size:36px;fill:#000;stroke-width:1px;stroke-linejoin:round;stroke-miterlimit:1.41421;stroke:#000;">N</text><text x="2038.66px" y="89.323px" style="font-family:'ArialMT';font-size:36px;fill:#000;stroke-width:1px;stroke-linejoin:round;stroke-miterlimit:1.41421;stroke:#000;">S</text><text x="2538.66px" y="89.323px" style="font-family:'ArialMT';font-size:36px;fill:#000;stroke-width:1px;stroke-linejoin:round;stroke-miterlimit:1.41421;stroke:#000;">X</text><text x="638.663px" y="89.323px" style="font-family:'ArialMT';font-size:36px;fill:#000;stroke-width:1px;stroke-linejoin:round;stroke-miterlimit:1.41421;stroke:#000;">E</text><text x="1138.66px" y="89.323px" style="font-family:'ArialMT';font-size:36px;fill:#000;stroke-width:1px;stroke-linejoin:round;stroke-miterlimit:1.41421;stroke:#000;">J</text><text x="1638.66px" y="89.323px" style="font-family:'ArialMT';font-size:36px;fill:#000;stroke-width:1px;stroke-linejoin:round;stroke-miterlimit:1.41421;stroke:#000;">O</text><text x="2138.66px" y="89.323px" style="font-family:'ArialMT';font-size:36px;fill:#000;stroke-width:1px;stroke-linejoin:round;stroke-miterlimit:1.41421;stroke:#000;">T</text><text x="2638.66px" y="89.323px" style="font-family:'ArialMT';font-size:36px;fill:#000;stroke-width:1px;stroke-linejoin:round;stroke-miterlimit:1.41421;stroke:#000;">Y</text><text x="2738.66px" y="89.323px" style="font-family:'ArialMT';font-size:36px;fill:#000;stroke-width:1px;stroke-linejoin:round;stroke-miterlimit:1.41421;stroke:#000;">Z</text></g><g id="side labels"><rect x="50.654" y="200.244" width="50" height="100" style="fill:#808080;stroke-width:1px;stroke-linejoin:round;stroke-miterlimit:1.41421;stroke:#000;"/><rect x="50.654" y="600.244" width="50" height="100" style="fill:#808080;stroke-width:1px;stroke-linejoin:round;stroke-miterlimit:1.41421;stroke:#000;"/><rect x="50.654" y="1000.24" width="50" height="100" style="fill:#808080;stroke-width:1px;stroke-linejoin:round;stroke-miterlimit:1.41421;stroke:#000;"/><rect x="50.654" y="1400.24" width="50" height="100" style="fill:#808080;stroke-width:1px;stroke-linejoin:round;stroke-miterlimit:1.41421;stroke:#000;"/><rect x="50.654" y="300.244" width="50" height="100" style="fill:#808080;stroke-width:1px;stroke-linejoin:round;stroke-miterlimit:1.41421;stroke:#000;"/><rect x="50.654" y="700.244" width="50" height="100" style="fill:#808080;stroke-width:1px;stroke-linejoin:round;stroke-miterlimit:1.41421;stroke:#000;"/><rect x="50.654" y="1100.24" width="50" height="100" style="fill:#808080;stroke-width:1px;stroke-linejoin:round;stroke-miterlimit:1.41421;stroke:#000;"/><rect x="50.654" y="1500.24" width="50" height="100" style="fill:#808080;stroke-width:1px;stroke-linejoin:round;stroke-miterlimit:1.41421;stroke:#000;"/><rect x="50.654" y="400.244" width="50" height="100" style="fill:#808080;stroke-width:1px;stroke-linejoin:round;stroke-miterlimit:1.41421;stroke:#000;"/><rect x="50.654" y="800.244" width="50" height="100" style="fill:#808080;stroke-width:1px;stroke-linejoin:round;stroke-miterlimit:1.41421;stroke:#000;"/><rect x="50.654" y="1200.24" width="50" height="100" style="fill:#808080;stroke-width:1px;stroke-linejoin:round;stroke-miterlimit:1.41421;stroke:#000;"/><rect x="50.654" y="1600.24" width="50" height="100" style="fill:#808080;stroke-width:1px;stroke-linejoin:round;stroke-miterlimit:1.41421;stroke:#000;"/><rect x="50.654" y="500.244" width="50" height="100" style="fill:#808080;stroke-width:1px;stroke-linejoin:round;stroke-miterlimit:1.41421;stroke:#000;"/><rect x="50.654" y="900.244" width="50" height="100" style="fill:#808080;stroke-width:1px;stroke-linejoin:round;stroke-miterlimit:1.41421;stroke:#000;"/><rect x="50.654" y="1300.24" width="50" height="100" style="fill:#808080;stroke-width:1px;stroke-linejoin:round;stroke-miterlimit:1.41421;stroke:#000;"/><text x="65.638px" y="262.615px" style="font-family:'ArialMT';font-size:36px;fill:#000;stroke-width:1px;stroke-linejoin:round;stroke-miterlimit:1.41421;stroke:#000;">1</text><text x="65.638px" y="662.615px" style="font-family:'ArialMT';font-size:36px;fill:#000;stroke-width:1px;stroke-linejoin:round;stroke-miterlimit:1.41421;stroke:#000;">5</text><text x="65.638px" y="1062.62px" style="font-family:'ArialMT';font-size:36px;fill:#000;stroke-width:1px;stroke-linejoin:round;stroke-miterlimit:1.41421;stroke:#000;">9</text><text x="55.628px" y="1462.62px" style="font-family:'ArialMT';font-size:36px;fill:#000;stroke-width:1px;stroke-linejoin:round;stroke-miterlimit:1.41421;stroke:#000;">13</text><text x="65.638px" y="362.615px" style="font-family:'ArialMT';font-size:36px;fill:#000;stroke-width:1px;stroke-linejoin:round;stroke-miterlimit:1.41421;stroke:#000;">2</text><text x="65.638px" y="762.615px" style="font-family:'ArialMT';font-size:36px;fill:#000;stroke-width:1px;stroke-linejoin:round;stroke-miterlimit:1.41421;stroke:#000;">6</text><text x="55.628px" y="1162.62px" style="font-family:'ArialMT';font-size:36px;fill:#000;stroke-width:1px;stroke-linejoin:round;stroke-miterlimit:1.41421;stroke:#000;">10</text><text x="55.628px" y="1562.62px" style="font-family:'ArialMT';font-size:36px;fill:#000;stroke-width:1px;stroke-linejoin:round;stroke-miterlimit:1.41421;stroke:#000;">14</text><text x="65.638px" y="462.615px" style="font-family:'ArialMT';font-size:36px;fill:#000;stroke-width:1px;stroke-linejoin:round;stroke-miterlimit:1.41421;stroke:#000;">3</text><text x="65.638px" y="862.615px" style="font-family:'ArialMT';font-size:36px;fill:#000;stroke-width:1px;stroke-linejoin:round;stroke-miterlimit:1.41421;stroke:#000;">7</text><text x="56.963px" y="1262.62px" style="font-family:'ArialMT';font-size:36px;fill:#000;stroke-width:1px;stroke-linejoin:round;stroke-miterlimit:1.41421;stroke:#000;">1<tspan x="74.313px " y="1262.62px ">1</tspan></text><text x="55.628px" y="1662.62px" style="font-family:'ArialMT';font-size:36px;fill:#000;stroke-width:1px;stroke-linejoin:round;stroke-miterlimit:1.41421;stroke:#000;">15</text><text x="65.638px" y="562.615px" style="font-family:'ArialMT';font-size:36px;fill:#000;stroke-width:1px;stroke-linejoin:round;stroke-miterlimit:1.41421;stroke:#000;">4</text><text x="65.638px" y="962.615px" style="font-family:'ArialMT';font-size:36px;fill:#000;stroke-width:1px;stroke-linejoin:round;stroke-miterlimit:1.41421;stroke:#000;">8</text><text x="55.628px" y="1362.62px" style="font-family:'ArialMT';font-size:36px;fill:#000;stroke-width:1px;stroke-linejoin:round;stroke-miterlimit:1.41421;stroke:#000;">12</text></g><rect x="100.654" y="100.244" width="100" height="100" style="fill:#808080;stroke-width:1px;stroke-linejoin:round;stroke-miterlimit:1.41421;stroke:#000;"/><text x="106.2px" y="176.087px" style="font-family:'ArialMT';font-size:64px;fill:#000;stroke-width:1px;stroke-linejoin:round;stroke-miterlimit:1.41421;stroke:#000;">1m</text></g><path d="M1100.65,1100.24c23.394,-296.243 -185.748,-375.964 -300,-350c-67.01,15.227 -150,58.333 -200,50c-46.499,-7.75 -95.482,-46.12 -100,-100c4.493,-49.823 53.093,-104.691 100,-100c166.666,16.666 900,200 900,200c178.347,-14.296 286.138,-105.774 300,-300c-17.212,-191.454 -120.983,-287.289 -300,-300l-1100,0" style="fill:none;stroke-width:4.5px;stroke-linejoin:round;stroke-miterlimit:1.41421;stroke:#000;"/><g><circle cx="500.654" cy="700.244" r="300" style="fill:none;stroke-width:4.5px;stroke-linejoin:round;stroke-miterlimit:1.41421;stroke:#000;stroke-opacity:0.0980392;"/><circle cx="1500.65" cy="500.244" r="300" style="fill:none;stroke-width:4.5px;stroke-linejoin:round;stroke-miterlimit:1.41421;stroke:#000;stroke-opacity:0.0980392;"/><path d="M700.654,1000.24c0,-55.192 44.808,-100 100,-100c55.191,0 100,44.808 100,100c0,55.191 -44.809,100 -100,100c-55.192,0 -100,-44.809 -100,-100Z" style="fill:none;stroke-width:4.5px;stroke-linejoin:round;stroke-miterlimit:1.41421;stroke:#000;stroke-opacity:0.0980392;"/></g><path d="M950.654,1100.24c-2.596,-67.122 -34.275,-191.423 -150,-200c-91.473,1.523 -194.592,99.594 -300,100c-106.188,0.408 -287.037,-70.339 -300,-300c16.226,-175.628 110.024,-281.226 300,-300c298.407,67.204 730.438,181.93 900,200c71.493,7.618 119.67,-75.279 120,-120c0.422,-57.222 -42.219,-124.775 -120,-130c-73.112,-4.912 -147.773,1.73 -300,0c-167.064,-1.899 -700,0 -700,0" style="fill:none;stroke-width:4.5px;stroke-linejoin:round;stroke-miterlimit:1.41421;stroke:#000;"/><path d="M1030.65,1220.24c0.118,-49.109 0.355,-147.325 -10,-220c-11.745,-82.424 -44.17,-149.066 -130,-170c-113.525,-27.69 -283.368,96.72 -390,110c-314.617,39.181 -327.047,-508.598 10,-480c167.689,14.227 786.928,251.046 990,290c145.668,27.942 256.371,-150.389 250,-250c-6.372,-99.605 -96.637,-253.188 -250,-240c-80.634,6.933 -130.449,9.44 -290,10c-228.241,0.8 -709.414,0.266 -950,0" style="fill:none;stroke-width:36px;stroke-linejoin:round;stroke-miterlimit:1.41421;stroke:#14a90c;stroke-opacity:0.698039;"/><g id="Layer3"><g><path d="M780.654,900.244c0,-11.039 8.961,-20 20,-20c11.038,0 20,8.961 20,20c0,11.038 -8.962,20 -20,20c-11.039,0 -20,-8.962 -20,-20Z" style="fill:#fcd1d1;stroke-width:1px;stroke-linejoin:round;stroke-miterlimit:1.41421;stroke:#000;"/><path d="M790.654,900.244c0,-5.52 4.48,-10 10,-10c5.519,0 10,4.48 10,10c0,5.519 -4.481,10 -10,10c-5.52,0 -10,-4.481 -10,-10Z" style="fill:#fc2e30;stroke-width:1px;stroke-linejoin:round;stroke-miterlimit:1.41421;stroke:#000;"/></g><g><path d="M700.654,920.244c0,-11.039 8.961,-20 20,-20c11.038,0 20,8.961 20,20c0,11.038 -8.962,20 -20,20c-11.039,0 -20,-8.962 -20,-20Z" style="fill:#fcd1d1;stroke-width:1px;stroke-linejoin:round;stroke-miterlimit:1.41421;stroke:#000;"/><path d="M710.654,920.244c0,-5.52 4.48,-10 10,-10c5.519,0 10,4.48 10,10c0,5.519 -4.481,10 -10,10c-5.52,0 -10,-4.481 -10,-10Z" style="fill:#fc2e30;stroke-width:1px;stroke-linejoin:round;stroke-miterlimit:1.41421;stroke:#000;"/></g><g><path d="M560.654,980.244c0,-11.039 8.961,-20 20,-20c11.038,0 20,8.961 20,20c0,11.038 -8.962,20 -20,20c-11.039,0 -20,-8.962 -20,-20Z" style="fill:#fcd1d1;stroke-width:1px;stroke-linejoin:round;stroke-miterlimit:1.41421;stroke:#000;"/><path d="M570.654,980.244c0,-5.52 4.48,-10 10,-10c5.519,0 10,4.48 10,10c0,5.519 -4.481,10 -10,10c-5.52,0 -10,-4.481 -10,-10Z" style="fill:#fc2e30;stroke-width:1px;stroke-linejoin:round;stroke-miterlimit:1.41421;stroke:#000;"/></g><g><path d="M930.654,1100.24c0,-11.039 8.961,-20 20,-20c11.038,0 20,8.961 20,20c0,11.038 -8.962,20 -20,20c-11.039,0 -20,-8.962 -20,-20Z" style="fill:#fcd1d1;stroke-width:1px;stroke-linejoin:round;stroke-miterlimit:1.41421;stroke:#000;"/><path d="M940.654,1100.24c0,-5.52 4.48,-10 10,-10c5.519,0 10,4.48 10,10c0,5.519 -4.481,10 -10,10c-5.52,0 -10,-4.481 -10,-10Z" style="fill:#fc2e30;stroke-width:1px;stroke-linejoin:round;stroke-miterlimit:1.41421;stroke:#000;"/></g><g><path d="M900.654,980.244c0,-11.039 8.961,-20 20,-20c11.038,0 20,8.961 20,20c0,11.038 -8.962,20 -20,20c-11.039,0 -20,-8.962 -20,-20Z" style="fill:#fcd1d1;stroke-width:1px;stroke-linejoin:round;stroke-miterlimit:1.41421;stroke:#000;"/><path d="M910.654,980.244c0,-5.52 4.48,-10 10,-10c5.519,0 10,4.48 10,10c0,5.519 -4.481,10 -10,10c-5.52,0 -10,-4.481 -10,-10Z" style="fill:#fc2e30;stroke-width:1px;stroke-linejoin:round;stroke-miterlimit:1.41421;stroke:#000;"/></g><g><path d="M1420.65,600.244c0,-11.039 -8.962,-20 -20,-20c-11.039,0 -20,8.961 -20,20c0,11.038 8.961,20 20,20c11.038,0 20,-8.962 20,-20Z" style="fill:#fcd1d1;stroke-width:1px;stroke-linejoin:round;stroke-miterlimit:1.41421;stroke:#000;"/><path d="M1410.65,600.244c0,-5.52 -4.481,-10 -10,-10c-5.52,0 -10,4.48 -10,10c0,5.519 4.48,10 10,10c5.519,0 10,-4.481 10,-10Z" style="fill:#fc2e30;stroke-width:1px;stroke-linejoin:round;stroke-miterlimit:1.41421;stroke:#000;"/></g><g><path d="M1820.65,500.244c0,-11.039 -8.962,-20 -20,-20c-11.039,0 -20,8.961 -20,20c0,11.038 8.961,20 20,20c11.038,0 20,-8.962 20,-20Z" style="fill:#fcd1d1;stroke-width:1px;stroke-linejoin:round;stroke-miterlimit:1.41421;stroke:#000;"/><path d="M1810.65,500.244c0,-5.52 -4.481,-10 -10,-10c-5.52,0 -10,4.48 -10,10c0,5.519 4.48,10 10,10c5.519,0 10,-4.481 10,-10Z" style="fill:#fc2e30;stroke-width:1px;stroke-linejoin:round;stroke-miterlimit:1.41421;stroke:#000;"/></g><g><path d="M1080.65,1100.24c0,-11.039 8.961,-20 20,-20c11.038,0 20,8.961 20,20c0,11.038 -8.962,20 -20,20c-11.039,0 -20,-8.962 -20,-20Z" style="fill:#fcd1d1;stroke-width:1px;stroke-linejoin:round;stroke-miterlimit:1.41421;stroke:#000;"/><path d="M1090.65,1100.24c0,-5.52 4.48,-10 10,-10c5.519,0 10,4.48 10,10c0,5.519 -4.481,10 -10,10c-5.52,0 -10,-4.481 -10,-10Z" style="fill:#fc2e30;stroke-width:1px;stroke-linejoin:round;stroke-miterlimit:1.41421;stroke:#000;"/></g><g><path d="M1080.65,1000.24c0,-11.039 8.961,-20 20,-20c11.038,0 20,8.961 20,20c0,11.038 -8.962,20 -20,20c-11.039,0 -20,-8.962 -20,-20Z" style="fill:#fcd1d1;stroke-width:1px;stroke-linejoin:round;stroke-miterlimit:1.41421;stroke:#000;"/><path d="M1090.65,1000.24c0,-5.52 4.48,-10 10,-10c5.519,0 10,4.48 10,10c0,5.519 -4.481,10 -10,10c-5.52,0 -10,-4.481 -10,-10Z" style="fill:#fc2e30;stroke-width:1px;stroke-linejoin:round;stroke-miterlimit:1.41421;stroke:#000;"/></g><g><path d="M1060.65,920.244c0,-11.039 8.961,-20 20,-20c11.038,0 20,8.961 20,20c0,11.038 -8.962,20 -20,20c-11.039,0 -20,-8.962 -20,-20Z" style="fill:#fcd1d1;stroke-width:1px;stroke-linejoin:round;stroke-miterlimit:1.41421;stroke:#000;"/><path d="M1070.65,920.244c0,-5.52 4.48,-10 10,-10c5.519,0 10,4.48 10,10c0,5.519 -4.481,10 -10,10c-5.52,0 -10,-4.481 -10,-10Z" style="fill:#fc2e30;stroke-width:1px;stroke-linejoin:round;stroke-miterlimit:1.41421;stroke:#000;"/></g><g><path d="M980.654,800.244c0,-11.039 8.961,-20 20,-20c11.038,0 20,8.961 20,20c0,11.038 -8.962,20 -20,20c-11.039,0 -20,-8.962 -20,-20Z" style="fill:#fcd1d1;stroke-width:1px;stroke-linejoin:round;stroke-miterlimit:1.41421;stroke:#000;"/><path d="M990.654,800.244c0,-5.52 4.48,-10 10,-10c5.519,0 10,4.48 10,10c0,5.519 -4.481,10 -10,10c-5.52,0 -10,-4.481 -10,-10Z" style="fill:#fc2e30;stroke-width:1px;stroke-linejoin:round;stroke-miterlimit:1.41421;stroke:#000;"/></g><g><path d="M780.654,750.244c0,-11.039 8.961,-20 20,-20c11.038,0 20,8.961 20,20c0,11.038 -8.962,20 -20,20c-11.039,0 -20,-8.962 -20,-20Z" style="fill:#fcd1d1;stroke-width:1px;stroke-linejoin:round;stroke-miterlimit:1.41421;stroke:#000;"/><path d="M790.654,750.244c0,-5.52 4.48,-10 10,-10c5.519,0 10,4.48 10,10c0,5.519 -4.481,10 -10,10c-5.52,0 -10,-4.481 -10,-10Z" style="fill:#fc2e30;stroke-width:1px;stroke-linejoin:round;stroke-miterlimit:1.41421;stroke:#000;"/></g><g><path d="M700.654,780.244c0,-11.039 8.961,-20 20,-20c11.038,0 20,8.961 20,20c0,11.038 -8.962,20 -20,20c-11.039,0 -20,-8.962 -20,-20Z" style="fill:#fcd1d1;stroke-width:1px;stroke-linejoin:round;stroke-miterlimit:1.41421;stroke:#000;"/><path d="M710.654,780.244c0,-5.52 4.48,-10 10,-10c5.519,0 10,4.48 10,10c0,5.519 -4.481,10 -10,10c-5.52,0 -10,-4.481 -10,-10Z" style="fill:#fc2e30;stroke-width:1px;stroke-linejoin:round;stroke-miterlimit:1.41421;stroke:#000;"/></g><g><path d="M880.654,750.244c0,-11.039 8.961,-20 20,-20c11.038,0 20,8.961 20,20c0,11.038 -8.962,20 -20,20c-11.039,0 -20,-8.962 -20,-20Z" style="fill:#fcd1d1;stroke-width:1px;stroke-linejoin:round;stroke-miterlimit:1.41421;stroke:#000;"/><path d="M890.654,750.244c0,-5.52 4.48,-10 10,-10c5.519,0 10,4.48 10,10c0,5.519 -4.481,10 -10,10c-5.52,0 -10,-4.481 -10,-10Z" style="fill:#fc2e30;stroke-width:1px;stroke-linejoin:round;stroke-miterlimit:1.41421;stroke:#000;"/></g><g><path d="M1400.65,780.244c0,-11.039 -8.962,-20 -20,-20c-11.039,0 -20,8.961 -20,20c0,11.038 8.961,20 20,20c11.038,0 20,-8.962 20,-20Z" style="fill:#fcd1d1;stroke-width:1px;stroke-linejoin:round;stroke-miterlimit:1.41421;stroke:#000;"/><path d="M1390.65,780.244c0,-5.52 -4.481,-10 -10,-10c-5.52,0 -10,4.48 -10,10c0,5.519 4.48,10 10,10c5.519,0 10,-4.481 10,-10Z" style="fill:#fc2e30;stroke-width:1px;stroke-linejoin:round;stroke-miterlimit:1.41421;stroke:#000;"/></g><g><path d="M1420.65,200.244c0,-11.039 -8.962,-20 -20,-20c-11.039,0 -20,8.961 -20,20c0,11.038 8.961,20 20,20c11.038,0 20,-8.962 20,-20Z" style="fill:#fcd1d1;stroke-width:1px;stroke-linejoin:round;stroke-miterlimit:1.41421;stroke:#000;"/><path d="M1410.65,200.244c0,-5.52 -4.481,-10 -10,-10c-5.52,0 -10,4.48 -10,10c0,5.519 4.48,10 10,10c5.519,0 10,-4.481 10,-10Z" style="fill:#fc2e30;stroke-width:1px;stroke-linejoin:round;stroke-miterlimit:1.41421;stroke:#000;"/></g><g><path d="M1520.65,400.244c0,-11.039 -8.962,-20 -20,-20c-11.039,0 -20,8.961 -20,20c0,11.038 8.961,20 20,20c11.038,0 20,-8.962 20,-20Z" style="fill:#fcd1d1;stroke-width:1px;stroke-linejoin:round;stroke-miterlimit:1.41421;stroke:#000;"/><path d="M1510.65,400.244c0,-5.52 -4.481,-10 -10,-10c-5.52,0 -10,4.48 -10,10c0,5.519 4.48,10 10,10c5.519,0 10,-4.481 10,-10Z" style="fill:#fc2e30;stroke-width:1px;stroke-linejoin:round;stroke-miterlimit:1.41421;stroke:#000;"/></g><g><path d="M1500.65,580.244c0,-11.039 -8.962,-20 -20,-20c-11.039,0 -20,8.961 -20,20c0,11.038 8.961,20 20,20c11.038,0 20,-8.962 20,-20Z" style="fill:#fcd1d1;stroke-width:1px;stroke-linejoin:round;stroke-miterlimit:1.41421;stroke:#000;"/><path d="M1490.65,580.244c0,-5.52 -4.481,-10 -10,-10c-5.52,0 -10,4.48 -10,10c0,5.519 4.48,10 10,10c5.519,0 10,-4.481 10,-10Z" style="fill:#fc2e30;stroke-width:1px;stroke-linejoin:round;stroke-miterlimit:1.41421;stroke:#000;"/></g><g><path d="M580.654,600.244c0,-11.039 8.961,-20 20,-20c11.038,0 20,8.961 20,20c0,11.038 -8.962,20 -20,20c-11.039,0 -20,-8.962 -20,-20Z" style="fill:#fcd1d1;stroke-width:1px;stroke-linejoin:round;stroke-miterlimit:1.41421;stroke:#000;"/><path d="M590.654,600.244c0,-5.52 4.48,-10 10,-10c5.519,0 10,4.48 10,10c0,5.519 -4.481,10 -10,10c-5.52,0 -10,-4.481 -10,-10Z" style="fill:#fc2e30;stroke-width:1px;stroke-linejoin:round;stroke-miterlimit:1.41421;stroke:#000;"/></g><g><path d="M1420.65,350.244c0,-11.039 -8.962,-20 -20,-20c-11.039,0 -20,8.961 -20,20c0,11.038 8.961,20 20,20c11.038,0 20,-8.962 20,-20Z" style="fill:#fcd1d1;stroke-width:1px;stroke-linejoin:round;stroke-miterlimit:1.41421;stroke:#000;"/><path d="M1410.65,350.244c0,-5.52 -4.481,-10 -10,-10c-5.52,0 -10,4.48 -10,10c0,5.519 4.48,10 10,10c5.519,0 10,-4.481 10,-10Z" style="fill:#fc2e30;stroke-width:1px;stroke-linejoin:round;stroke-miterlimit:1.41421;stroke:#000;"/></g><g><path d="M580.654,800.244c0,-11.039 8.961,-20 20,-20c11.038,0 20,8.961 20,20c0,11.038 -8.962,20 -20,20c-11.039,0 -20,-8.962 -20,-20Z" style="fill:#fcd1d1;stroke-width:1px;stroke-linejoin:round;stroke-miterlimit:1.41421;stroke:#000;"/><path d="M590.654,800.244c0,-5.52 4.48,-10 10,-10c5.519,0 10,4.48 10,10c0,5.519 -4.481,10 -10,10c-5.52,0 -10,-4.481 -10,-10Z" style="fill:#fc2e30;stroke-width:1px;stroke-linejoin:round;stroke-miterlimit:1.41421;stroke:#000;"/></g><g><path d="M1540.65,480.244c0,-11.039 -8.962,-20 -20,-20c-11.039,0 -20,8.961 -20,20c0,11.038 8.961,20 20,20c11.038,0 20,-8.962 20,-20Z" style="fill:#fcd1d1;stroke-width:1px;stroke-linejoin:round;stroke-miterlimit:1.41421;stroke:#000;"/><path d="M1530.65,480.244c0,-5.52 -4.481,-10 -10,-10c-5.52,0 -10,4.48 -10,10c0,5.519 4.48,10 10,10c5.519,0 10,-4.481 10,-10Z" style="fill:#fc2e30;stroke-width:1px;stroke-linejoin:round;stroke-miterlimit:1.41421;stroke:#000;"/></g><g><path d="M1740.65,280.244c0,-11.039 -8.962,-20 -20,-20c-11.039,0 -20,8.961 -20,20c0,11.038 8.961,20 20,20c11.038,0 20,-8.962 20,-20Z" style="fill:#fcd1d1;stroke-width:1px;stroke-linejoin:round;stroke-miterlimit:1.41421;stroke:#000;"/><path d="M1730.65,280.244c0,-5.52 -4.481,-10 -10,-10c-5.52,0 -10,4.48 -10,10c0,5.519 4.48,10 10,10c5.519,0 10,-4.481 10,-10Z" style="fill:#fc2e30;stroke-width:1px;stroke-linejoin:round;stroke-miterlimit:1.41421;stroke:#000;"/></g><g><path d="M1800.65,380.244c0,-11.039 -8.962,-20 -20,-20c-11.039,0 -20,8.961 -20,20c0,11.038 8.961,20 20,20c11.038,0 20,-8.962 20,-20Z" style="fill:#fcd1d1;stroke-width:1px;stroke-linejoin:round;stroke-miterlimit:1.41421;stroke:#000;"/><path d="M1790.65,380.244c0,-5.52 -4.481,-10 -10,-10c-5.52,0 -10,4.48 -10,10c0,5.519 4.48,10 10,10c5.519,0 10,-4.481 10,-10Z" style="fill:#fc2e30;stroke-width:1px;stroke-linejoin:round;stroke-miterlimit:1.41421;stroke:#000;"/></g><g><path d="M1640.65,220.244c0,-11.039 -8.962,-20 -20,-20c-11.039,0 -20,8.961 -20,20c0,11.038 8.961,20 20,20c11.038,0 20,-8.962 20,-20Z" style="fill:#fcd1d1;stroke-width:1px;stroke-linejoin:round;stroke-miterlimit:1.41421;stroke:#000;"/><path d="M1630.65,220.244c0,-5.52 -4.481,-10 -10,-10c-5.52,0 -10,4.48 -10,10c0,5.519 4.48,10 10,10c5.519,0 10,-4.481 10,-10Z" style="fill:#fc2e30;stroke-width:1px;stroke-linejoin:round;stroke-miterlimit:1.41421;stroke:#000;"/></g><g><path d="M1740.65,720.244c0,-11.039 -8.962,-20 -20,-20c-11.039,0 -20,8.961 -20,20c0,11.038 8.961,20 20,20c11.038,0 20,-8.962 20,-20Z" style="fill:#fcd1d1;stroke-width:1px;stroke-linejoin:round;stroke-miterlimit:1.41421;stroke:#000;"/><path d="M1730.65,720.244c0,-5.52 -4.481,-10 -10,-10c-5.52,0 -10,4.48 -10,10c0,5.519 4.48,10 10,10c5.519,0 10,-4.481 10,-10Z" style="fill:#fc2e30;stroke-width:1px;stroke-linejoin:round;stroke-miterlimit:1.41421;stroke:#000;"/></g><g><path d="M1800.65,620.244c0,-11.039 -8.962,-20 -20,-20c-11.039,0 -20,8.961 -20,20c0,11.038 8.961,20 20,20c11.038,0 20,-8.962 20,-20Z" style="fill:#fcd1d1;stroke-width:1px;stroke-linejoin:round;stroke-miterlimit:1.41421;stroke:#000;"/><path d="M1790.65,620.244c0,-5.52 -4.481,-10 -10,-10c-5.52,0 -10,4.48 -10,10c0,5.519 4.48,10 10,10c5.519,0 10,-4.481 10,-10Z" style="fill:#fc2e30;stroke-width:1px;stroke-linejoin:round;stroke-miterlimit:1.41421;stroke:#000;"/></g><g><path d="M1640.65,780.244c0,-11.039 -8.962,-20 -20,-20c-11.039,0 -20,8.961 -20,20c0,11.038 8.961,20 20,20c11.038,0 20,-8.962 20,-20Z" style="fill:#fcd1d1;stroke-width:1px;stroke-linejoin:round;stroke-miterlimit:1.41421;stroke:#000;"/><path d="M1630.65,780.244c0,-5.52 -4.481,-10 -10,-10c-5.52,0 -10,4.48 -10,10c0,5.519 4.48,10 10,10c5.519,0 10,-4.481 10,-10Z" style="fill:#fc2e30;stroke-width:1px;stroke-linejoin:round;stroke-miterlimit:1.41421;stroke:#000;"/></g><g><path d="M1080.65,700.244c0,-11.039 8.961,-20 20,-20c11.038,0 20,8.961 20,20c0,11.038 -8.962,20 -20,20c-11.039,0 -20,-8.962 -20,-20Z" style="fill:#fcd1d1;stroke-width:1px;stroke-linejoin:round;stroke-miterlimit:1.41421;stroke:#000;"/><path d="M1090.65,700.244c0,-5.52 4.48,-10 10,-10c5.519,0 10,4.48 10,10c0,5.519 -4.481,10 -10,10c-5.52,0 -10,-4.481 -10,-10Z" style="fill:#fc2e30;stroke-width:1px;stroke-linejoin:round;stroke-miterlimit:1.41421;stroke:#000;"/></g><g><path d="M960.654,680.244c0,-11.039 8.961,-20 20,-20c11.038,0 20,8.961 20,20c0,11.038 -8.962,20 -20,20c-11.039,0 -20,-8.962 -20,-20Z" style="fill:#fcd1d1;stroke-width:1px;stroke-linejoin:round;stroke-miterlimit:1.41421;stroke:#000;"/><path d="M970.654,680.244c0,-5.52 4.48,-10 10,-10c5.519,0 10,4.48 10,10c0,5.519 -4.481,10 -10,10c-5.52,0 -10,-4.481 -10,-10Z" style="fill:#fc2e30;stroke-width:1px;stroke-linejoin:round;stroke-miterlimit:1.41421;stroke:#000;"/></g><g><path d="M1000.65,520.244c0,-11.039 8.961,-20 20,-20c11.038,0 20,8.961 20,20c0,11.038 -8.962,20 -20,20c-11.039,0 -20,-8.962 -20,-20Z" style="fill:#fcd1d1;stroke-width:1px;stroke-linejoin:round;stroke-miterlimit:1.41421;stroke:#000;"/><path d="M1010.65,520.244c0,-5.52 4.48,-10 10,-10c5.519,0 10,4.48 10,10c0,5.519 -4.481,10 -10,10c-5.52,0 -10,-4.481 -10,-10Z" style="fill:#fc2e30;stroke-width:1px;stroke-linejoin:round;stroke-miterlimit:1.41421;stroke:#000;"/></g><g><path d="M260.654,920.244c0,-11.039 8.961,-20 20,-20c11.038,0 20,8.961 20,20c0,11.038 -8.962,20 -20,20c-11.039,0 -20,-8.962 -20,-20Z" style="fill:#fcd1d1;stroke-width:1px;stroke-linejoin:round;stroke-miterlimit:1.41421;stroke:#000;"/><path d="M270.654,920.244c0,-5.52 4.48,-10 10,-10c5.519,0 10,4.48 10,10c0,5.519 -4.481,10 -10,10c-5.52,0 -10,-4.481 -10,-10Z" style="fill:#fc2e30;stroke-width:1px;stroke-linejoin:round;stroke-miterlimit:1.41421;stroke:#000;"/></g><g><path d="M200.654,820.244c0,-11.039 8.961,-20 20,-20c11.038,0 20,8.961 20,20c0,11.038 -8.962,20 -20,20c-11.039,0 -20,-8.962 -20,-20Z" style="fill:#fcd1d1;stroke-width:1px;stroke-linejoin:round;stroke-miterlimit:1.41421;stroke:#000;"/><path d="M210.654,820.244c0,-5.52 4.48,-10 10,-10c5.519,0 10,4.48 10,10c0,5.519 -4.481,10 -10,10c-5.52,0 -10,-4.481 -10,-10Z" style="fill:#fc2e30;stroke-width:1px;stroke-linejoin:round;stroke-miterlimit:1.41421;stroke:#000;"/></g><g><path d="M360.654,980.244c0,-11.039 8.961,-20 20,-20c11.038,0 20,8.961 20,20c0,11.038 -8.962,20 -20,20c-11.039,0 -20,-8.962 -20,-20Z" style="fill:#fcd1d1;stroke-width:1px;stroke-linejoin:round;stroke-miterlimit:1.41421;stroke:#000;"/><path d="M370.654,980.244c0,-5.52 4.48,-10 10,-10c5.519,0 10,4.48 10,10c0,5.519 -4.481,10 -10,10c-5.52,0 -10,-4.481 -10,-10Z" style="fill:#fc2e30;stroke-width:1px;stroke-linejoin:round;stroke-miterlimit:1.41421;stroke:#000;"/></g><g><path d="M360.654,980.244c0,-11.039 8.961,-20 20,-20c11.038,0 20,8.961 20,20c0,11.038 -8.962,20 -20,20c-11.039,0 -20,-8.962 -20,-20Z" style="fill:#fcd1d1;stroke-width:1px;stroke-linejoin:round;stroke-miterlimit:1.41421;stroke:#000;"/><path d="M370.654,980.244c0,-5.52 4.48,-10 10,-10c5.519,0 10,4.48 10,10c0,5.519 -4.481,10 -10,10c-5.52,0 -10,-4.481 -10,-10Z" style="fill:#fc2e30;stroke-width:1px;stroke-linejoin:round;stroke-miterlimit:1.41421;stroke:#000;"/></g><g><path d="M980.654,350.244c0,-11.039 8.961,-20 20,-20c11.038,0 20,8.961 20,20c0,11.038 -8.962,20 -20,20c-11.039,0 -20,-8.962 -20,-20Z" style="fill:#fcd1d1;stroke-width:1px;stroke-linejoin:round;stroke-miterlimit:1.41421;stroke:#000;"/><path d="M990.654,350.244c0,-5.52 4.48,-10 10,-10c5.519,0 10,4.48 10,10c0,5.519 -4.481,10 -10,10c-5.52,0 -10,-4.481 -10,-10Z" style="fill:#fc2e30;stroke-width:1px;stroke-linejoin:round;stroke-miterlimit:1.41421;stroke:#000;"/></g><g><path d="M780.654,350.244c0,-11.039 8.961,-20 20,-20c11.038,0 20,8.961 20,20c0,11.038 -8.962,20 -20,20c-11.039,0 -20,-8.962 -20,-20Z" style="fill:#fcd1d1;stroke-width:1px;stroke-linejoin:round;stroke-miterlimit:1.41421;stroke:#000;"/><path d="M790.654,350.244c0,-5.52 4.48,-10 10,-10c5.519,0 10,4.48 10,10c0,5.519 -4.481,10 -10,10c-5.52,0 -10,-4.481 -10,-10Z" style="fill:#fc2e30;stroke-width:1px;stroke-linejoin:round;stroke-miterlimit:1.41421;stroke:#000;"/></g><g><path d="M780.654,200.244c0,-11.039 8.961,-20 20,-20c11.038,0 20,8.961 20,20c0,11.038 -8.962,20 -20,20c-11.039,0 -20,-8.962 -20,-20Z" style="fill:#fcd1d1;stroke-width:1px;stroke-linejoin:round;stroke-miterlimit:1.41421;stroke:#000;"/><path d="M790.654,200.244c0,-5.52 4.48,-10 10,-10c5.519,0 10,4.48 10,10c0,5.519 -4.481,10 -10,10c-5.52,0 -10,-4.481 -10,-10Z" style="fill:#fc2e30;stroke-width:1px;stroke-linejoin:round;stroke-miterlimit:1.41421;stroke:#000;"/></g><g><path d="M580.654,200.244c0,-11.039 8.961,-20 20,-20c11.038,0 20,8.961 20,20c0,11.038 -8.962,20 -20,20c-11.039,0 -20,-8.962 -20,-20Z" style="fill:#fcd1d1;stroke-width:1px;stroke-linejoin:round;stroke-miterlimit:1.41421;stroke:#000;"/><path d="M590.654,200.244c0,-5.52 4.48,-10 10,-10c5.519,0 10,4.48 10,10c0,5.519 -4.481,10 -10,10c-5.52,0 -10,-4.481 -10,-10Z" style="fill:#fc2e30;stroke-width:1px;stroke-linejoin:round;stroke-miterlimit:1.41421;stroke:#000;"/></g><g><path d="M580.654,350.244c0,-11.039 8.961,-20 20,-20c11.038,0 20,8.961 20,20c0,11.038 -8.962,20 -20,20c-11.039,0 -20,-8.962 -20,-20Z" style="fill:#fcd1d1;stroke-width:1px;stroke-linejoin:round;stroke-miterlimit:1.41421;stroke:#000;"/><path d="M590.654,350.244c0,-5.52 4.48,-10 10,-10c5.519,0 10,4.48 10,10c0,5.519 -4.481,10 -10,10c-5.52,0 -10,-4.481 -10,-10Z" style="fill:#fc2e30;stroke-width:1px;stroke-linejoin:round;stroke-miterlimit:1.41421;stroke:#000;"/></g><g><path d="M380.654,200.244c0,-11.039 8.961,-20 20,-20c11.038,0 20,8.961 20,20c0,11.038 -8.962,20 -20,20c-11.039,0 -20,-8.962 -20,-20Z" style="fill:#fcd1d1;stroke-width:1px;stroke-linejoin:round;stroke-miterlimit:1.41421;stroke:#000;"/><path d="M390.654,200.244c0,-5.52 4.48,-10 10,-10c5.519,0 10,4.48 10,10c0,5.519 -4.481,10 -10,10c-5.52,0 -10,-4.481 -10,-10Z" style="fill:#fc2e30;stroke-width:1px;stroke-linejoin:round;stroke-miterlimit:1.41421;stroke:#000;"/></g><g><path d="M380.654,350.244c0,-11.039 8.961,-20 20,-20c11.038,0 20,8.961 20,20c0,11.038 -8.962,20 -20,20c-11.039,0 -20,-8.962 -20,-20Z" style="fill:#fcd1d1;stroke-width:1px;stroke-linejoin:round;stroke-miterlimit:1.41421;stroke:#000;"/><path d="M390.654,350.244c0,-5.52 4.48,-10 10,-10c5.519,0 10,4.48 10,10c0,5.519 -4.481,10 -10,10c-5.52,0 -10,-4.481 -10,-10Z" style="fill:#fc2e30;stroke-width:1px;stroke-linejoin:round;stroke-miterlimit:1.41421;stroke:#000;"/></g><g><path d="M260.654,480.244c0,-11.039 8.961,-20 20,-20c11.038,0 20,8.961 20,20c0,11.038 -8.962,20 -20,20c-11.039,0 -20,-8.962 -20,-20Z" style="fill:#fcd1d1;stroke-width:1px;stroke-linejoin:round;stroke-miterlimit:1.41421;stroke:#000;"/><path d="M270.654,480.244c0,-5.52 4.48,-10 10,-10c5.519,0 10,4.48 10,10c0,5.519 -4.481,10 -10,10c-5.52,0 -10,-4.481 -10,-10Z" style="fill:#fc2e30;stroke-width:1px;stroke-linejoin:round;stroke-miterlimit:1.41421;stroke:#000;"/></g><g><path d="M200.654,580.244c0,-11.039 8.961,-20 20,-20c11.038,0 20,8.961 20,20c0,11.038 -8.962,20 -20,20c-11.039,0 -20,-8.962 -20,-20Z" style="fill:#fcd1d1;stroke-width:1px;stroke-linejoin:round;stroke-miterlimit:1.41421;stroke:#000;"/><path d="M210.654,580.244c0,-5.52 4.48,-10 10,-10c5.519,0 10,4.48 10,10c0,5.519 -4.481,10 -10,10c-5.52,0 -10,-4.481 -10,-10Z" style="fill:#fc2e30;stroke-width:1px;stroke-linejoin:round;stroke-miterlimit:1.41421;stroke:#000;"/></g><g><path d="M360.654,420.244c0,-11.039 8.961,-20 20,-20c11.038,0 20,8.961 20,20c0,11.038 -8.962,20 -20,20c-11.039,0 -20,-8.962 -20,-20Z" style="fill:#fcd1d1;stroke-width:1px;stroke-linejoin:round;stroke-miterlimit:1.41421;stroke:#000;"/><path d="M370.654,420.244c0,-5.52 4.48,-10 10,-10c5.519,0 10,4.48 10,10c0,5.519 -4.481,10 -10,10c-5.52,0 -10,-4.481 -10,-10Z" style="fill:#fc2e30;stroke-width:1px;stroke-linejoin:round;stroke-miterlimit:1.41421;stroke:#000;"/></g><g><path d="M880.654,500.244c0,-11.039 8.961,-20 20,-20c11.038,0 20,8.961 20,20c0,11.038 -8.962,20 -20,20c-11.039,0 -20,-8.962 -20,-20Z" style="fill:#fcd1d1;stroke-width:1px;stroke-linejoin:round;stroke-miterlimit:1.41421;stroke:#000;"/><path d="M890.654,500.244c0,-5.52 4.48,-10 10,-10c5.519,0 10,4.48 10,10c0,5.519 -4.481,10 -10,10c-5.52,0 -10,-4.481 -10,-10Z" style="fill:#fc2e30;stroke-width:1px;stroke-linejoin:round;stroke-miterlimit:1.41421;stroke:#000;"/></g><g><path d="M1180.65,350.244c0,-11.039 8.961,-20 20,-20c11.038,0 20,8.961 20,20c0,11.038 -8.962,20 -20,20c-11.039,0 -20,-8.962 -20,-20Z" style="fill:#fcd1d1;stroke-width:1px;stroke-linejoin:round;stroke-miterlimit:1.41421;stroke:#000;"/><path d="M1190.65,350.244c0,-5.52 4.48,-10 10,-10c5.519,0 10,4.48 10,10c0,5.519 -4.481,10 -10,10c-5.52,0 -10,-4.481 -10,-10Z" style="fill:#fc2e30;stroke-width:1px;stroke-linejoin:round;stroke-miterlimit:1.41421;stroke:#000;"/></g><g><path d="M1180.65,200.244c0,-11.039 8.961,-20 20,-20c11.038,0 20,8.961 20,20c0,11.038 -8.962,20 -20,20c-11.039,0 -20,-8.962 -20,-20Z" style="fill:#fcd1d1;stroke-width:1px;stroke-linejoin:round;stroke-miterlimit:1.41421;stroke:#000;"/><path d="M1190.65,200.244c0,-5.52 4.48,-10 10,-10c5.519,0 10,4.48 10,10c0,5.519 -4.481,10 -10,10c-5.52,0 -10,-4.481 -10,-10Z" style="fill:#fc2e30;stroke-width:1px;stroke-linejoin:round;stroke-miterlimit:1.41421;stroke:#000;"/></g><g><path d="M980.654,200.244c0,-11.039 8.961,-20 20,-20c11.038,0 20,8.961 20,20c0,11.038 -8.962,20 -20,20c-11.039,0 -20,-8.962 -20,-20Z" style="fill:#fcd1d1;stroke-width:1px;stroke-linejoin:round;stroke-miterlimit:1.41421;stroke:#000;"/><path d="M990.654,200.244c0,-5.52 4.48,-10 10,-10c5.519,0 10,4.48 10,10c0,5.519 -4.481,10 -10,10c-5.52,0 -10,-4.481 -10,-10Z" style="fill:#fc2e30;stroke-width:1px;stroke-linejoin:round;stroke-miterlimit:1.41421;stroke:#000;"/></g><g><path d="M180.952,700.244c0,-11.039 8.962,-20 20,-20c11.039,0 20,8.961 20,20c0,11.038 -8.961,20 -20,20c-11.038,0 -20,-8.962 -20,-20Z" style="fill:#fcd1d1;stroke-width:1px;stroke-linejoin:round;stroke-miterlimit:1.41421;stroke:#000;"/><path d="M190.952,700.244c0,-5.52 4.481,-10 10,-10c5.52,0 10,4.48 10,10c0,5.519 -4.48,10 -10,10c-5.519,0 -10,-4.481 -10,-10Z" style="fill:#fc2e30;stroke-width:1px;stroke-linejoin:round;stroke-miterlimit:1.41421;stroke:#000;"/></g><g><path d="M1260.65,580.244c0,-11.039 8.961,-20 20,-20c11.038,0 20,8.961 20,20c0,11.038 -8.962,20 -20,20c-11.039,0 -20,-8.962 -20,-20Z" style="fill:#fcd1d1;stroke-width:1px;stroke-linejoin:round;stroke-miterlimit:1.41421;stroke:#000;"/><path d="M1270.65,580.244c0,-5.52 4.48,-10 10,-10c5.519,0 10,4.48 10,10c0,5.519 -4.481,10 -10,10c-5.52,0 -10,-4.481 -10,-10Z" style="fill:#fc2e30;stroke-width:1px;stroke-linejoin:round;stroke-miterlimit:1.41421;stroke:#000;"/></g><g><path d="M480.952,400.244c0,-11.039 8.962,-20 20,-20c11.039,0 20,8.961 20,20c0,11.038 -8.961,20 -20,20c-11.038,0 -20,-8.962 -20,-20Z" style="fill:#fcd1d1;stroke-width:1px;stroke-linejoin:round;stroke-miterlimit:1.41421;stroke:#000;"/><path d="M490.952,400.244c0,-5.52 4.481,-10 10,-10c5.52,0 10,4.48 10,10c0,5.519 -4.48,10 -10,10c-5.519,0 -10,-4.481 -10,-10Z" style="fill:#fc2e30;stroke-width:1px;stroke-linejoin:round;stroke-miterlimit:1.41421;stroke:#000;"/></g><g><path d="M1480.95,200.244c0,-11.039 8.962,-20 20,-20c11.039,0 20,8.961 20,20c0,11.038 -8.961,20 -20,20c-11.038,0 -20,-8.962 -20,-20Z" style="fill:#fcd1d1;stroke-width:1px;stroke-linejoin:round;stroke-miterlimit:1.41421;stroke:#000;"/><path d="M1490.95,200.244c0,-5.52 4.481,-10 10,-10c5.52,0 10,4.48 10,10c0,5.519 -4.48,10 -10,10c-5.519,0 -10,-4.481 -10,-10Z" style="fill:#fc2e30;stroke-width:1px;stroke-linejoin:round;stroke-miterlimit:1.41421;stroke:#000;"/></g><g><path d="M480.654,700.244c0,-11.039 8.961,-20 20,-20c11.038,0 20,8.961 20,20c0,11.038 -8.962,20 -20,20c-11.039,0 -20,-8.962 -20,-20Z" style="fill:#fcd1d1;stroke-width:1px;stroke-linejoin:round;stroke-miterlimit:1.41421;stroke:#000;"/><path d="M490.654,700.244c0,-5.52 4.48,-10 10,-10c5.519,0 10,4.48 10,10c0,5.519 -4.481,10 -10,10c-5.52,0 -10,-4.481 -10,-10Z" style="fill:#fc2e30;stroke-width:1px;stroke-linejoin:round;stroke-miterlimit:1.41421;stroke:#000;"/></g><g><path d="M480.952,1000.24c0,-11.039 8.962,-20 20,-20c11.039,0 20,8.961 20,20c0,11.038 -8.961,20 -20,20c-11.038,0 -20,-8.962 -20,-20Z" style="fill:#fcd1d1;stroke-width:1px;stroke-linejoin:round;stroke-miterlimit:1.41421;stroke:#000;"/><path d="M490.952,1000.24c0,-5.52 4.481,-10 10,-10c5.52,0 10,4.48 10,10c0,5.519 -4.48,10 -10,10c-5.519,0 -10,-4.481 -10,-10Z" style="fill:#fc2e30;stroke-width:1px;stroke-linejoin:round;stroke-miterlimit:1.41421;stroke:#000;"/></g><g><path d="M1480.95,800.244c0,-11.039 8.962,-20 20,-20c11.039,0 20,8.961 20,20c0,11.038 -8.961,20 -20,20c-11.038,0 -20,-8.962 -20,-20Z" style="fill:#fcd1d1;stroke-width:1px;stroke-linejoin:round;stroke-miterlimit:1.41421;stroke:#000;"/><path d="M1490.95,800.244c0,-5.52 4.481,-10 10,-10c5.52,0 10,4.48 10,10c0,5.519 -4.48,10 -10,10c-5.519,0 -10,-4.481 -10,-10Z" style="fill:#fc2e30;stroke-width:1px;stroke-linejoin:round;stroke-miterlimit:1.41421;stroke:#000;"/></g></g></svg>