<?xml version="1.0" standalone="no"?><!DOCTYPE svg PUBLIC "-//W3C//DTD SVG 1.1//EN" "http://www.w3.org/Graphics/SVG/1.1/DTD/svg11.dtd"><svg width="100%" height="100%" viewBox="0 0 9588 5421" version="1.1" xmlns="http://www.w3.org/2000/svg" xmlns:xlink="http://www.w3.org/1999/xlink" xml:space="preserve" style="fill-rule:evenodd;clip-rule:evenodd;stroke-linejoin:round;stroke-miterlimit:1.41421;"><clipPath id="_clip1"><rect id="serpentine" x="0.253" y="1.015" width="9583.33" height="5416.67"/></clipPath><g clip-path="url(#_clip1)"><path d="M4583.59,4584.35c97.475,-1234.34 -773.95,-1566.52 -1250,-1458.33c-279.208,63.45 -625,243.055 -833.333,208.333c-193.747,-32.291 -397.841,-192.166 -416.667,-416.667c18.72,-207.594 221.223,-436.211 416.667,-416.666c694.444,69.444 3750,833.333 3750,833.333c743.115,-59.564 1192.24,-440.722 1250,-1250c-71.715,-797.723 -504.093,-1197.03 -1250,-1250l-4583.33,0" style="fill:none;stroke-width:18.75px;stroke:#000;"/><g><circle cx="2083.59" cy="2917.68" r="1250" style="fill:none;stroke-width:18.75px;stroke:#000;stroke-opacity:0.0980392;"/><circle cx="6250.25" cy="2084.35" r="1250" style="fill:none;stroke-width:18.75px;stroke:#000;stroke-opacity:0.0980392;"/><path d="M2916.92,4167.68c0,-229.964 186.702,-416.666 416.667,-416.666c229.964,0 416.667,186.702 416.667,416.666c0,229.965 -186.703,416.667 -416.667,416.667c-229.965,0 -416.667,-186.702 -416.667,-416.667Z" style="fill:none;stroke-width:18.75px;stroke:#000;stroke-opacity:0.0980392;"/></g><path d="M3958.59,4584.35c-10.816,-279.672 -142.812,-797.593 -625,-833.333c-381.135,6.346 -810.798,414.975 -1250,416.666c-442.45,1.704 -1195.99,-293.076 -1250,-1250c67.608,-731.782 458.436,-1171.78 1250,-1250c1243.37,280.019 3043.49,758.044 3750,833.334c297.891,31.745 498.625,-313.659 500,-500c1.758,-238.421 -175.911,-519.895 -500,-541.667c-304.632,-20.464 -615.719,7.209 -1250,0c-696.099,-7.911 -2916.67,0 -2916.67,0" style="fill:none;stroke-width:18.75px;stroke:#000;"/><path d="M4291.92,5084.35c0.494,-204.618 1.481,-613.854 -41.666,-916.667c-48.936,-343.431 -184.039,-621.105 -541.667,-708.333c-473.018,-115.373 -1180.7,403.001 -1625,458.333c-1310.9,163.257 -1362.69,-2119.15 41.667,-2000c698.706,59.283 3278.87,1046.03 4125,1208.33c606.951,116.426 1068.21,-626.617 1041.67,-1041.67c-26.546,-415.018 -402.654,-1054.95 -1041.67,-1000c-335.975,28.89 -543.538,39.336 -1208.33,41.667c-951.003,3.334 -2955.89,1.111 -3958.33,0" style="fill:none;stroke-width:33.33px;stroke-dasharray:100,200,0,0;stroke:#14a90c;stroke-opacity:0.698039;"/><g id="Layer3"><g><path d="M3250.25,3751.01c0,-45.993 37.34,-83.334 83.333,-83.334c45.993,0 83.333,37.341 83.333,83.334c0,45.993 -37.34,83.333 -83.333,83.333c-45.993,0 -83.333,-37.34 -83.333,-83.333Z" style="fill:#fcd1d1;stroke-width:4.17px;stroke:#000;"/><path d="M3291.92,3751.01c0,-22.997 18.67,-41.667 41.667,-41.667c22.996,0 41.667,18.67 41.667,41.667c0,22.996 -18.671,41.666 -41.667,41.666c-22.997,0 -41.667,-18.67 -41.667,-41.666Z" style="fill:#fc2e30;stroke-width:4.17px;stroke:#000;"/></g><g><path d="M2916.92,3834.35c0,-45.993 37.341,-83.333 83.334,-83.333c45.992,0 83.333,37.34 83.333,83.333c0,45.993 -37.341,83.333 -83.333,83.333c-45.993,0 -83.334,-37.34 -83.334,-83.333Z" style="fill:#fcd1d1;stroke-width:4.17px;stroke:#000;"/><path d="M2958.59,3834.35c0,-22.996 18.67,-41.667 41.667,-41.667c22.996,0 41.666,18.671 41.666,41.667c0,22.997 -18.67,41.667 -41.666,41.667c-22.997,0 -41.667,-18.67 -41.667,-41.667Z" style="fill:#fc2e30;stroke-width:4.17px;stroke:#000;"/></g><g><path d="M2333.59,4084.35c0,-45.993 37.34,-83.333 83.333,-83.333c45.993,0 83.334,37.34 83.334,83.333c0,45.993 -37.341,83.333 -83.334,83.333c-45.993,0 -83.333,-37.34 -83.333,-83.333Z" style="fill:#fcd1d1;stroke-width:4.17px;stroke:#000;"/><path d="M2375.25,4084.35c0,-22.996 18.67,-41.667 41.666,-41.667c22.997,0 41.667,18.671 41.667,41.667c0,22.997 -18.67,41.667 -41.667,41.667c-22.996,0 -41.666,-18.67 -41.666,-41.667Z" style="fill:#fc2e30;stroke-width:4.17px;stroke:#000;"/></g><g><path d="M3875.25,4584.35c0,-45.993 37.34,-83.333 83.333,-83.333c45.993,0 83.333,37.34 83.333,83.333c0,45.993 -37.34,83.333 -83.333,83.333c-45.993,0 -83.333,-37.34 -83.333,-83.333Z" style="fill:#fcd1d1;stroke-width:4.17px;stroke:#000;"/><path d="M3916.92,4584.35c0,-22.996 18.67,-41.667 41.667,-41.667c22.996,0 41.667,18.671 41.667,41.667c0,22.997 -18.671,41.667 -41.667,41.667c-22.997,0 -41.667,-18.67 -41.667,-41.667Z" style="fill:#fc2e30;stroke-width:4.17px;stroke:#000;"/></g><g><path d="M3750.25,4084.35c0,-45.993 37.34,-83.333 83.333,-83.333c45.993,0 83.333,37.34 83.333,83.333c0,45.993 -37.34,83.333 -83.333,83.333c-45.993,0 -83.333,-37.34 -83.333,-83.333Z" style="fill:#fcd1d1;stroke-width:4.17px;stroke:#000;"/><path d="M3791.92,4084.35c0,-22.996 18.67,-41.667 41.667,-41.667c22.996,0 41.667,18.671 41.667,41.667c0,22.997 -18.671,41.667 -41.667,41.667c-22.997,0 -41.667,-18.67 -41.667,-41.667Z" style="fill:#fc2e30;stroke-width:4.17px;stroke:#000;"/></g><g><path d="M5916.92,2501.01c0,-45.993 -37.34,-83.334 -83.333,-83.334c-45.993,0 -83.333,37.341 -83.333,83.334c0,45.993 37.34,83.333 83.333,83.333c45.993,0 83.333,-37.34 83.333,-83.333Z" style="fill:#fcd1d1;stroke-width:4.17px;stroke:#000;"/><path d="M5875.25,2501.01c0,-22.997 -18.671,-41.667 -41.667,-41.667c-22.997,0 -41.667,18.67 -41.667,41.667c0,22.996 18.67,41.666 41.667,41.666c22.996,0 41.667,-18.67 41.667,-41.666Z" style="fill:#fc2e30;stroke-width:4.17px;stroke:#000;"/></g><g><path d="M7583.59,2084.35c0,-45.993 -37.341,-83.333 -83.333,-83.333c-45.993,0 -83.334,37.34 -83.334,83.333c0,45.993 37.341,83.333 83.334,83.333c45.992,0 83.333,-37.34 83.333,-83.333Z" style="fill:#fcd1d1;stroke-width:4.17px;stroke:#000;"/><path d="M7541.92,2084.35c0,-22.996 -18.67,-41.667 -41.666,-41.667c-22.997,0 -41.667,18.671 -41.667,41.667c0,22.997 18.67,41.667 41.667,41.667c22.996,0 41.666,-18.67 41.666,-41.667Z" style="fill:#fc2e30;stroke-width:4.17px;stroke:#000;"/></g><g><path d="M4500.25,4584.35c0,-45.993 37.34,-83.333 83.333,-83.333c45.993,0 83.333,37.34 83.333,83.333c0,45.993 -37.34,83.333 -83.333,83.333c-45.993,0 -83.333,-37.34 -83.333,-83.333Z" style="fill:#fcd1d1;stroke-width:4.17px;stroke:#000;"/><path d="M4541.92,4584.35c0,-22.996 18.67,-41.667 41.667,-41.667c22.996,0 41.667,18.671 41.667,41.667c0,22.997 -18.671,41.667 -41.667,41.667c-22.997,0 -41.667,-18.67 -41.667,-41.667Z" style="fill:#fc2e30;stroke-width:4.17px;stroke:#000;"/></g><g><path d="M4500.25,4167.68c0,-45.992 37.34,-83.333 83.333,-83.333c45.993,0 83.333,37.341 83.333,83.333c0,45.993 -37.34,83.334 -83.333,83.334c-45.993,0 -83.333,-37.341 -83.333,-83.334Z" style="fill:#fcd1d1;stroke-width:4.17px;stroke:#000;"/><path d="M4541.92,4167.68c0,-22.996 18.67,-41.666 41.667,-41.666c22.996,0 41.667,18.67 41.667,41.666c0,22.997 -18.671,41.667 -41.667,41.667c-22.997,0 -41.667,-18.67 -41.667,-41.667Z" style="fill:#fc2e30;stroke-width:4.17px;stroke:#000;"/></g><g><path d="M4416.92,3834.35c0,-45.993 37.341,-83.333 83.334,-83.333c45.992,0 83.333,37.34 83.333,83.333c0,45.993 -37.341,83.333 -83.333,83.333c-45.993,0 -83.334,-37.34 -83.334,-83.333Z" style="fill:#fcd1d1;stroke-width:4.17px;stroke:#000;"/><path d="M4458.59,3834.35c0,-22.996 18.67,-41.667 41.667,-41.667c22.996,0 41.666,18.671 41.666,41.667c0,22.997 -18.67,41.667 -41.666,41.667c-22.997,0 -41.667,-18.67 -41.667,-41.667Z" style="fill:#fc2e30;stroke-width:4.17px;stroke:#000;"/></g><g><path d="M4083.59,3334.35c0,-45.993 37.34,-83.333 83.333,-83.333c45.993,0 83.334,37.34 83.334,83.333c0,45.993 -37.341,83.333 -83.334,83.333c-45.993,0 -83.333,-37.34 -83.333,-83.333Z" style="fill:#fcd1d1;stroke-width:4.17px;stroke:#000;"/><path d="M4125.25,3334.35c0,-22.996 18.67,-41.667 41.666,-41.667c22.997,0 41.667,18.671 41.667,41.667c0,22.997 -18.67,41.667 -41.667,41.667c-22.996,0 -41.666,-18.67 -41.666,-41.667Z" style="fill:#fc2e30;stroke-width:4.17px;stroke:#000;"/></g><g><path d="M3250.25,3126.01c0,-45.993 37.34,-83.334 83.333,-83.334c45.993,0 83.333,37.341 83.333,83.334c0,45.993 -37.34,83.333 -83.333,83.333c-45.993,0 -83.333,-37.34 -83.333,-83.333Z" style="fill:#fcd1d1;stroke-width:4.17px;stroke:#000;"/><path d="M3291.92,3126.01c0,-22.997 18.67,-41.667 41.667,-41.667c22.996,0 41.667,18.67 41.667,41.667c0,22.996 -18.671,41.666 -41.667,41.666c-22.997,0 -41.667,-18.67 -41.667,-41.666Z" style="fill:#fc2e30;stroke-width:4.17px;stroke:#000;"/></g><g><path d="M2916.92,3251.01c0,-45.993 37.341,-83.334 83.334,-83.334c45.992,0 83.333,37.341 83.333,83.334c0,45.993 -37.341,83.333 -83.333,83.333c-45.993,0 -83.334,-37.34 -83.334,-83.333Z" style="fill:#fcd1d1;stroke-width:4.17px;stroke:#000;"/><path d="M2958.59,3251.01c0,-22.997 18.67,-41.667 41.667,-41.667c22.996,0 41.666,18.67 41.666,41.667c0,22.996 -18.67,41.666 -41.666,41.666c-22.997,0 -41.667,-18.67 -41.667,-41.666Z" style="fill:#fc2e30;stroke-width:4.17px;stroke:#000;"/></g><g><path d="M3666.92,3126.01c0,-45.993 37.341,-83.334 83.334,-83.334c45.992,0 83.333,37.341 83.333,83.334c0,45.993 -37.341,83.333 -83.333,83.333c-45.993,0 -83.334,-37.34 -83.334,-83.333Z" style="fill:#fcd1d1;stroke-width:4.17px;stroke:#000;"/><path d="M3708.59,3126.01c0,-22.997 18.67,-41.667 41.667,-41.667c22.996,0 41.666,18.67 41.666,41.667c0,22.996 -18.67,41.666 -41.666,41.666c-22.997,0 -41.667,-18.67 -41.667,-41.666Z" style="fill:#fc2e30;stroke-width:4.17px;stroke:#000;"/></g><g><path d="M5833.59,3251.01c0,-45.993 -37.341,-83.334 -83.333,-83.334c-45.993,0 -83.334,37.341 -83.334,83.334c0,45.993 37.341,83.333 83.334,83.333c45.992,0 83.333,-37.34 83.333,-83.333Z" style="fill:#fcd1d1;stroke-width:4.17px;stroke:#000;"/><path d="M5791.92,3251.01c0,-22.997 -18.67,-41.667 -41.666,-41.667c-22.997,0 -41.667,18.67 -41.667,41.667c0,22.996 18.67,41.666 41.667,41.666c22.996,0 41.666,-18.67 41.666,-41.666Z" style="fill:#fc2e30;stroke-width:4.17px;stroke:#000;"/></g><g><path d="M5916.92,834.348c0,-45.993 -37.34,-83.333 -83.333,-83.333c-45.993,0 -83.333,37.34 -83.333,83.333c0,45.993 37.34,83.333 83.333,83.333c45.993,0 83.333,-37.34 83.333,-83.333Z" style="fill:#fcd1d1;stroke-width:4.17px;stroke:#000;"/><path d="M5875.25,834.348c0,-22.996 -18.671,-41.667 -41.667,-41.667c-22.997,0 -41.667,18.671 -41.667,41.667c0,22.997 18.67,41.667 41.667,41.667c22.996,0 41.667,-18.67 41.667,-41.667Z" style="fill:#fc2e30;stroke-width:4.17px;stroke:#000;"/></g><g><path d="M6333.59,1667.68c0,-45.992 -37.341,-83.333 -83.333,-83.333c-45.993,0 -83.334,37.341 -83.334,83.333c0,45.993 37.341,83.334 83.334,83.334c45.992,0 83.333,-37.341 83.333,-83.334Z" style="fill:#fcd1d1;stroke-width:4.17px;stroke:#000;"/><path d="M6291.92,1667.68c0,-22.996 -18.67,-41.666 -41.666,-41.666c-22.997,0 -41.667,18.67 -41.667,41.666c0,22.997 18.67,41.667 41.667,41.667c22.996,0 41.666,-18.67 41.666,-41.667Z" style="fill:#fc2e30;stroke-width:4.17px;stroke:#000;"/></g><g><path d="M6250.25,2417.68c0,-45.992 -37.341,-83.333 -83.334,-83.333c-45.993,0 -83.333,37.341 -83.333,83.333c0,45.993 37.34,83.334 83.333,83.334c45.993,0 83.334,-37.341 83.334,-83.334Z" style="fill:#fcd1d1;stroke-width:4.17px;stroke:#000;"/><path d="M6208.59,2417.68c0,-22.996 -18.67,-41.666 -41.667,-41.666c-22.996,0 -41.666,18.67 -41.666,41.666c0,22.997 18.67,41.667 41.666,41.667c22.997,0 41.667,-18.67 41.667,-41.667Z" style="fill:#fc2e30;stroke-width:4.17px;stroke:#000;"/></g><g><path d="M2416.92,2501.01c0,-45.993 37.341,-83.334 83.334,-83.334c45.992,0 83.333,37.341 83.333,83.334c0,45.993 -37.341,83.333 -83.333,83.333c-45.993,0 -83.334,-37.34 -83.334,-83.333Z" style="fill:#fcd1d1;stroke-width:4.17px;stroke:#000;"/><path d="M2458.59,2501.01c0,-22.997 18.67,-41.667 41.667,-41.667c22.996,0 41.666,18.67 41.666,41.667c0,22.996 -18.67,41.666 -41.666,41.666c-22.997,0 -41.667,-18.67 -41.667,-41.666Z" style="fill:#fc2e30;stroke-width:4.17px;stroke:#000;"/></g><g><path d="M5916.92,1459.35c0,-45.993 -37.34,-83.333 -83.333,-83.333c-45.993,0 -83.333,37.34 -83.333,83.333c0,45.993 37.34,83.333 83.333,83.333c45.993,0 83.333,-37.34 83.333,-83.333Z" style="fill:#fcd1d1;stroke-width:4.17px;stroke:#000;"/><path d="M5875.25,1459.35c0,-22.996 -18.671,-41.667 -41.667,-41.667c-22.997,0 -41.667,18.671 -41.667,41.667c0,22.997 18.67,41.667 41.667,41.667c22.996,0 41.667,-18.67 41.667,-41.667Z" style="fill:#fc2e30;stroke-width:4.17px;stroke:#000;"/></g><g><path d="M2416.92,3334.35c0,-45.993 37.341,-83.333 83.334,-83.333c45.992,0 83.333,37.34 83.333,83.333c0,45.993 -37.341,83.333 -83.333,83.333c-45.993,0 -83.334,-37.34 -83.334,-83.333Z" style="fill:#fcd1d1;stroke-width:4.17px;stroke:#000;"/><path d="M2458.59,3334.35c0,-22.996 18.67,-41.667 41.667,-41.667c22.996,0 41.666,18.671 41.666,41.667c0,22.997 -18.67,41.667 -41.666,41.667c-22.997,0 -41.667,-18.67 -41.667,-41.667Z" style="fill:#fc2e30;stroke-width:4.17px;stroke:#000;"/></g><g><path d="M6416.92,2001.02c0,-45.993 -37.34,-83.334 -83.333,-83.334c-45.993,0 -83.333,37.341 -83.333,83.334c0,45.993 37.34,83.333 83.333,83.333c45.993,0 83.333,-37.34 83.333,-83.333Z" style="fill:#fcd1d1;stroke-width:4.17px;stroke:#000;"/><path d="M6375.25,2001.02c0,-22.997 -18.671,-41.667 -41.667,-41.667c-22.997,0 -41.667,18.67 -41.667,41.667c0,22.996 18.67,41.666 41.667,41.666c22.996,0 41.667,-18.67 41.667,-41.666Z" style="fill:#fc2e30;stroke-width:4.17px;stroke:#000;"/></g><g><path d="M7250.25,1167.68c0,-45.992 -37.341,-83.333 -83.334,-83.333c-45.993,0 -83.333,37.341 -83.333,83.333c0,45.993 37.34,83.334 83.333,83.334c45.993,0 83.334,-37.341 83.334,-83.334Z" style="fill:#fcd1d1;stroke-width:4.17px;stroke:#000;"/><path d="M7208.59,1167.68c0,-22.996 -18.67,-41.666 -41.667,-41.666c-22.996,0 -41.666,18.67 -41.666,41.666c0,22.997 18.67,41.667 41.666,41.667c22.997,0 41.667,-18.67 41.667,-41.667Z" style="fill:#fc2e30;stroke-width:4.17px;stroke:#000;"/></g><g><path d="M7500.25,1584.35c0,-45.993 -37.341,-83.333 -83.334,-83.333c-45.993,0 -83.333,37.34 -83.333,83.333c0,45.993 37.34,83.333 83.333,83.333c45.993,0 83.334,-37.34 83.334,-83.333Z" style="fill:#fcd1d1;stroke-width:4.17px;stroke:#000;"/><path d="M7458.59,1584.35c0,-22.996 -18.67,-41.667 -41.667,-41.667c-22.996,0 -41.666,18.671 -41.666,41.667c0,22.997 18.67,41.667 41.666,41.667c22.997,0 41.667,-18.67 41.667,-41.667Z" style="fill:#fc2e30;stroke-width:4.17px;stroke:#000;"/></g><g><path d="M6833.59,917.681c0,-45.992 -37.341,-83.333 -83.333,-83.333c-45.993,0 -83.334,37.341 -83.334,83.333c0,45.993 37.341,83.334 83.334,83.334c45.992,0 83.333,-37.341 83.333,-83.334Z" style="fill:#fcd1d1;stroke-width:4.17px;stroke:#000;"/><path d="M6791.92,917.681c0,-22.996 -18.67,-41.666 -41.666,-41.666c-22.997,0 -41.667,18.67 -41.667,41.666c0,22.997 18.67,41.667 41.667,41.667c22.996,0 41.666,-18.67 41.666,-41.667Z" style="fill:#fc2e30;stroke-width:4.17px;stroke:#000;"/></g><g><path d="M7250.25,3001.01c0,-45.993 -37.341,-83.334 -83.334,-83.334c-45.993,0 -83.333,37.341 -83.333,83.334c0,45.993 37.34,83.333 83.333,83.333c45.993,0 83.334,-37.34 83.334,-83.333Z" style="fill:#fcd1d1;stroke-width:4.17px;stroke:#000;"/><path d="M7208.59,3001.01c0,-22.997 -18.67,-41.667 -41.667,-41.667c-22.996,0 -41.666,18.67 -41.666,41.667c0,22.996 18.67,41.666 41.666,41.666c22.997,0 41.667,-18.67 41.667,-41.666Z" style="fill:#fc2e30;stroke-width:4.17px;stroke:#000;"/></g><g><path d="M7500.25,2584.35c0,-45.993 -37.341,-83.333 -83.334,-83.333c-45.993,0 -83.333,37.34 -83.333,83.333c0,45.993 37.34,83.333 83.333,83.333c45.993,0 83.334,-37.34 83.334,-83.333Z" style="fill:#fcd1d1;stroke-width:4.17px;stroke:#000;"/><path d="M7458.59,2584.35c0,-22.996 -18.67,-41.667 -41.667,-41.667c-22.996,0 -41.666,18.671 -41.666,41.667c0,22.997 18.67,41.667 41.666,41.667c22.997,0 41.667,-18.67 41.667,-41.667Z" style="fill:#fc2e30;stroke-width:4.17px;stroke:#000;"/></g><g><path d="M6833.59,3251.01c0,-45.993 -37.341,-83.334 -83.333,-83.334c-45.993,0 -83.334,37.341 -83.334,83.334c0,45.993 37.341,83.333 83.334,83.333c45.992,0 83.333,-37.34 83.333,-83.333Z" style="fill:#fcd1d1;stroke-width:4.17px;stroke:#000;"/><path d="M6791.92,3251.01c0,-22.997 -18.67,-41.667 -41.666,-41.667c-22.997,0 -41.667,18.67 -41.667,41.667c0,22.996 18.67,41.666 41.667,41.666c22.996,0 41.666,-18.67 41.666,-41.666Z" style="fill:#fc2e30;stroke-width:4.17px;stroke:#000;"/></g><g><path d="M4500.25,2917.68c0,-45.992 37.34,-83.333 83.333,-83.333c45.993,0 83.333,37.341 83.333,83.333c0,45.993 -37.34,83.334 -83.333,83.334c-45.993,0 -83.333,-37.341 -83.333,-83.334Z" style="fill:#fcd1d1;stroke-width:4.17px;stroke:#000;"/><path d="M4541.92,2917.68c0,-22.996 18.67,-41.666 41.667,-41.666c22.996,0 41.667,18.67 41.667,41.666c0,22.997 -18.671,41.667 -41.667,41.667c-22.997,0 -41.667,-18.67 -41.667,-41.667Z" style="fill:#fc2e30;stroke-width:4.17px;stroke:#000;"/></g><g><path d="M4000.25,2834.35c0,-45.993 37.34,-83.333 83.333,-83.333c45.993,0 83.333,37.34 83.333,83.333c0,45.993 -37.34,83.333 -83.333,83.333c-45.993,0 -83.333,-37.34 -83.333,-83.333Z" style="fill:#fcd1d1;stroke-width:4.17px;stroke:#000;"/><path d="M4041.92,2834.35c0,-22.996 18.67,-41.667 41.667,-41.667c22.996,0 41.667,18.671 41.667,41.667c0,22.997 -18.671,41.667 -41.667,41.667c-22.997,0 -41.667,-18.67 -41.667,-41.667Z" style="fill:#fc2e30;stroke-width:4.17px;stroke:#000;"/></g><g><path d="M4166.92,2167.68c0,-45.992 37.341,-83.333 83.334,-83.333c45.992,0 83.333,37.341 83.333,83.333c0,45.993 -37.341,83.334 -83.333,83.334c-45.993,0 -83.334,-37.341 -83.334,-83.334Z" style="fill:#fcd1d1;stroke-width:4.17px;stroke:#000;"/><path d="M4208.59,2167.68c0,-22.996 18.67,-41.666 41.667,-41.666c22.996,0 41.666,18.67 41.666,41.666c0,22.997 -18.67,41.667 -41.666,41.667c-22.997,0 -41.667,-18.67 -41.667,-41.667Z" style="fill:#fc2e30;stroke-width:4.17px;stroke:#000;"/></g><g><path d="M1083.59,3834.35c0,-45.993 37.34,-83.333 83.333,-83.333c45.993,0 83.334,37.34 83.334,83.333c0,45.993 -37.341,83.333 -83.334,83.333c-45.993,0 -83.333,-37.34 -83.333,-83.333Z" style="fill:#fcd1d1;stroke-width:4.17px;stroke:#000;"/><path d="M1125.25,3834.35c0,-22.996 18.67,-41.667 41.666,-41.667c22.997,0 41.667,18.671 41.667,41.667c0,22.997 -18.67,41.667 -41.667,41.667c-22.996,0 -41.666,-18.67 -41.666,-41.667Z" style="fill:#fc2e30;stroke-width:4.17px;stroke:#000;"/></g><g><path d="M833.586,3417.68c0,-45.992 37.34,-83.333 83.333,-83.333c45.993,0 83.334,37.341 83.334,83.333c0,45.993 -37.341,83.334 -83.334,83.334c-45.993,0 -83.333,-37.341 -83.333,-83.334Z" style="fill:#fcd1d1;stroke-width:4.17px;stroke:#000;"/><path d="M875.253,3417.68c0,-22.996 18.67,-41.666 41.666,-41.666c22.997,0 41.667,18.67 41.667,41.666c0,22.997 -18.67,41.667 -41.667,41.667c-22.996,0 -41.666,-18.67 -41.666,-41.667Z" style="fill:#fc2e30;stroke-width:4.17px;stroke:#000;"/></g><g><path d="M1500.25,4084.35c0,-45.993 37.34,-83.333 83.333,-83.333c45.993,0 83.333,37.34 83.333,83.333c0,45.993 -37.34,83.333 -83.333,83.333c-45.993,0 -83.333,-37.34 -83.333,-83.333Z" style="fill:#fcd1d1;stroke-width:4.17px;stroke:#000;"/><path d="M1541.92,4084.35c0,-22.996 18.67,-41.667 41.667,-41.667c22.996,0 41.667,18.671 41.667,41.667c0,22.997 -18.671,41.667 -41.667,41.667c-22.997,0 -41.667,-18.67 -41.667,-41.667Z" style="fill:#fc2e30;stroke-width:4.17px;stroke:#000;"/></g><g><path d="M1500.25,4084.35c0,-45.993 37.34,-83.333 83.333,-83.333c45.993,0 83.333,37.34 83.333,83.333c0,45.993 -37.34,83.333 -83.333,83.333c-45.993,0 -83.333,-37.34 -83.333,-83.333Z" style="fill:#fcd1d1;stroke-width:4.17px;stroke:#000;"/><path d="M1541.92,4084.35c0,-22.996 18.67,-41.667 41.667,-41.667c22.996,0 41.667,18.671 41.667,41.667c0,22.997 -18.671,41.667 -41.667,41.667c-22.997,0 -41.667,-18.67 -41.667,-41.667Z" style="fill:#fc2e30;stroke-width:4.17px;stroke:#000;"/></g><g><path d="M4083.59,1459.35c0,-45.993 37.34,-83.333 83.333,-83.333c45.993,0 83.334,37.34 83.334,83.333c0,45.993 -37.341,83.333 -83.334,83.333c-45.993,0 -83.333,-37.34 -83.333,-83.333Z" style="fill:#fcd1d1;stroke-width:4.17px;stroke:#000;"/><path d="M4125.25,1459.35c0,-22.996 18.67,-41.667 41.666,-41.667c22.997,0 41.667,18.671 41.667,41.667c0,22.997 -18.67,41.667 -41.667,41.667c-22.996,0 -41.666,-18.67 -41.666,-41.667Z" style="fill:#fc2e30;stroke-width:4.17px;stroke:#000;"/></g><g><path d="M3250.25,1459.35c0,-45.993 37.34,-83.333 83.333,-83.333c45.993,0 83.333,37.34 83.333,83.333c0,45.993 -37.34,83.333 -83.333,83.333c-45.993,0 -83.333,-37.34 -83.333,-83.333Z" style="fill:#fcd1d1;stroke-width:4.17px;stroke:#000;"/><path d="M3291.92,1459.35c0,-22.996 18.67,-41.667 41.667,-41.667c22.996,0 41.667,18.671 41.667,41.667c0,22.997 -18.671,41.667 -41.667,41.667c-22.997,0 -41.667,-18.67 -41.667,-41.667Z" style="fill:#fc2e30;stroke-width:4.17px;stroke:#000;"/></g><g><path d="M3250.25,834.348c0,-45.993 37.34,-83.333 83.333,-83.333c45.993,0 83.333,37.34 83.333,83.333c0,45.993 -37.34,83.333 -83.333,83.333c-45.993,0 -83.333,-37.34 -83.333,-83.333Z" style="fill:#fcd1d1;stroke-width:4.17px;stroke:#000;"/><path d="M3291.92,834.348c0,-22.996 18.67,-41.667 41.667,-41.667c22.996,0 41.667,18.671 41.667,41.667c0,22.997 -18.671,41.667 -41.667,41.667c-22.997,0 -41.667,-18.67 -41.667,-41.667Z" style="fill:#fc2e30;stroke-width:4.17px;stroke:#000;"/></g><g><path d="M2416.92,834.348c0,-45.993 37.341,-83.333 83.334,-83.333c45.992,0 83.333,37.34 83.333,83.333c0,45.993 -37.341,83.333 -83.333,83.333c-45.993,0 -83.334,-37.34 -83.334,-83.333Z" style="fill:#fcd1d1;stroke-width:4.17px;stroke:#000;"/><path d="M2458.59,834.348c0,-22.996 18.67,-41.667 41.667,-41.667c22.996,0 41.666,18.671 41.666,41.667c0,22.997 -18.67,41.667 -41.666,41.667c-22.997,0 -41.667,-18.67 -41.667,-41.667Z" style="fill:#fc2e30;stroke-width:4.17px;stroke:#000;"/></g><g><path d="M2416.92,1459.35c0,-45.993 37.341,-83.333 83.334,-83.333c45.992,0 83.333,37.34 83.333,83.333c0,45.993 -37.341,83.333 -83.333,83.333c-45.993,0 -83.334,-37.34 -83.334,-83.333Z" style="fill:#fcd1d1;stroke-width:4.17px;stroke:#000;"/><path d="M2458.59,1459.35c0,-22.996 18.67,-41.667 41.667,-41.667c22.996,0 41.666,18.671 41.666,41.667c0,22.997 -18.67,41.667 -41.666,41.667c-22.997,0 -41.667,-18.67 -41.667,-41.667Z" style="fill:#fc2e30;stroke-width:4.17px;stroke:#000;"/></g><g><path d="M1583.59,834.348c0,-45.993 37.34,-83.333 83.333,-83.333c45.993,0 83.334,37.34 83.334,83.333c0,45.993 -37.341,83.333 -83.334,83.333c-45.993,0 -83.333,-37.34 -83.333,-83.333Z" style="fill:#fcd1d1;stroke-width:4.17px;stroke:#000;"/><path d="M1625.25,834.348c0,-22.996 18.67,-41.667 41.666,-41.667c22.997,0 41.667,18.671 41.667,41.667c0,22.997 -18.67,41.667 -41.667,41.667c-22.996,0 -41.666,-18.67 -41.666,-41.667Z" style="fill:#fc2e30;stroke-width:4.17px;stroke:#000;"/></g><g><path d="M1583.59,1459.35c0,-45.993 37.34,-83.333 83.333,-83.333c45.993,0 83.334,37.34 83.334,83.333c0,45.993 -37.341,83.333 -83.334,83.333c-45.993,0 -83.333,-37.34 -83.333,-83.333Z" style="fill:#fcd1d1;stroke-width:4.17px;stroke:#000;"/><path d="M1625.25,1459.35c0,-22.996 18.67,-41.667 41.666,-41.667c22.997,0 41.667,18.671 41.667,41.667c0,22.997 -18.67,41.667 -41.667,41.667c-22.996,0 -41.666,-18.67 -41.666,-41.667Z" style="fill:#fc2e30;stroke-width:4.17px;stroke:#000;"/></g><g><path d="M1083.59,2001.02c0,-45.993 37.34,-83.334 83.333,-83.334c45.993,0 83.334,37.341 83.334,83.334c0,45.993 -37.341,83.333 -83.334,83.333c-45.993,0 -83.333,-37.34 -83.333,-83.333Z" style="fill:#fcd1d1;stroke-width:4.17px;stroke:#000;"/><path d="M1125.25,2001.02c0,-22.997 18.67,-41.667 41.666,-41.667c22.997,0 41.667,18.67 41.667,41.667c0,22.996 -18.67,41.666 -41.667,41.666c-22.996,0 -41.666,-18.67 -41.666,-41.666Z" style="fill:#fc2e30;stroke-width:4.17px;stroke:#000;"/></g><g><path d="M833.586,2417.68c0,-45.992 37.34,-83.333 83.333,-83.333c45.993,0 83.334,37.341 83.334,83.333c0,45.993 -37.341,83.334 -83.334,83.334c-45.993,0 -83.333,-37.341 -83.333,-83.334Z" style="fill:#fcd1d1;stroke-width:4.17px;stroke:#000;"/><path d="M875.253,2417.68c0,-22.996 18.67,-41.666 41.666,-41.666c22.997,0 41.667,18.67 41.667,41.666c0,22.997 -18.67,41.667 -41.667,41.667c-22.996,0 -41.666,-18.67 -41.666,-41.667Z" style="fill:#fc2e30;stroke-width:4.17px;stroke:#000;"/></g><g><path d="M1500.25,1751.02c0,-45.993 37.34,-83.334 83.333,-83.334c45.993,0 83.333,37.341 83.333,83.334c0,45.993 -37.34,83.333 -83.333,83.333c-45.993,0 -83.333,-37.34 -83.333,-83.333Z" style="fill:#fcd1d1;stroke-width:4.17px;stroke:#000;"/><path d="M1541.92,1751.02c0,-22.997 18.67,-41.667 41.667,-41.667c22.996,0 41.667,18.67 41.667,41.667c0,22.996 -18.671,41.666 -41.667,41.666c-22.997,0 -41.667,-18.67 -41.667,-41.666Z" style="fill:#fc2e30;stroke-width:4.17px;stroke:#000;"/></g><g><path d="M3666.92,2084.35c0,-45.993 37.341,-83.333 83.334,-83.333c45.992,0 83.333,37.34 83.333,83.333c0,45.993 -37.341,83.333 -83.333,83.333c-45.993,0 -83.334,-37.34 -83.334,-83.333Z" style="fill:#fcd1d1;stroke-width:4.17px;stroke:#000;"/><path d="M3708.59,2084.35c0,-22.996 18.67,-41.667 41.667,-41.667c22.996,0 41.666,18.671 41.666,41.667c0,22.997 -18.67,41.667 -41.666,41.667c-22.997,0 -41.667,-18.67 -41.667,-41.667Z" style="fill:#fc2e30;stroke-width:4.17px;stroke:#000;"/></g><g><path d="M4916.92,1459.35c0,-45.993 37.341,-83.333 83.334,-83.333c45.992,0 83.333,37.34 83.333,83.333c0,45.993 -37.341,83.333 -83.333,83.333c-45.993,0 -83.334,-37.34 -83.334,-83.333Z" style="fill:#fcd1d1;stroke-width:4.17px;stroke:#000;"/><path d="M4958.59,1459.35c0,-22.996 18.67,-41.667 41.667,-41.667c22.996,0 41.666,18.671 41.666,41.667c0,22.997 -18.67,41.667 -41.666,41.667c-22.997,0 -41.667,-18.67 -41.667,-41.667Z" style="fill:#fc2e30;stroke-width:4.17px;stroke:#000;"/></g><g><path d="M4916.92,834.348c0,-45.993 37.341,-83.333 83.334,-83.333c45.992,0 83.333,37.34 83.333,83.333c0,45.993 -37.341,83.333 -83.333,83.333c-45.993,0 -83.334,-37.34 -83.334,-83.333Z" style="fill:#fcd1d1;stroke-width:4.17px;stroke:#000;"/><path d="M4958.59,834.348c0,-22.996 18.67,-41.667 41.667,-41.667c22.996,0 41.666,18.671 41.666,41.667c0,22.997 -18.67,41.667 -41.666,41.667c-22.997,0 -41.667,-18.67 -41.667,-41.667Z" style="fill:#fc2e30;stroke-width:4.17px;stroke:#000;"/></g><g><path d="M4083.59,834.348c0,-45.993 37.34,-83.333 83.333,-83.333c45.993,0 83.334,37.34 83.334,83.333c0,45.993 -37.341,83.333 -83.334,83.333c-45.993,0 -83.333,-37.34 -83.333,-83.333Z" style="fill:#fcd1d1;stroke-width:4.17px;stroke:#000;"/><path d="M4125.25,834.348c0,-22.996 18.67,-41.667 41.666,-41.667c22.997,0 41.667,18.671 41.667,41.667c0,22.997 -18.67,41.667 -41.667,41.667c-22.996,0 -41.666,-18.67 -41.666,-41.667Z" style="fill:#fc2e30;stroke-width:4.17px;stroke:#000;"/></g><g><path d="M751.498,2917.68c0,-45.992 37.34,-83.333 83.333,-83.333c45.993,0 83.334,37.341 83.334,83.333c0,45.993 -37.341,83.334 -83.334,83.334c-45.993,0 -83.333,-37.341 -83.333,-83.334Z" style="fill:#fcd1d1;stroke-width:4.17px;stroke:#000;"/><path d="M793.165,2917.68c0,-22.996 18.67,-41.666 41.666,-41.666c22.997,0 41.667,18.67 41.667,41.666c0,22.997 -18.67,41.667 -41.667,41.667c-22.996,0 -41.666,-18.67 -41.666,-41.667Z" style="fill:#fc2e30;stroke-width:4.17px;stroke:#000;"/></g><g><path d="M5250.25,2417.68c0,-45.992 37.34,-83.333 83.333,-83.333c45.993,0 83.333,37.341 83.333,83.333c0,45.993 -37.34,83.334 -83.333,83.334c-45.993,0 -83.333,-37.341 -83.333,-83.334Z" style="fill:#fcd1d1;stroke-width:4.17px;stroke:#000;"/><path d="M5291.92,2417.68c0,-22.996 18.67,-41.666 41.667,-41.666c22.996,0 41.667,18.67 41.667,41.666c0,22.997 -18.671,41.667 -41.667,41.667c-22.997,0 -41.667,-18.67 -41.667,-41.667Z" style="fill:#fc2e30;stroke-width:4.17px;stroke:#000;"/></g><g><path d="M2001.5,1667.68c0,-45.992 37.34,-83.333 83.333,-83.333c45.993,0 83.334,37.341 83.334,83.333c0,45.993 -37.341,83.334 -83.334,83.334c-45.993,0 -83.333,-37.341 -83.333,-83.334Z" style="fill:#fcd1d1;stroke-width:4.17px;stroke:#000;"/><path d="M2043.16,1667.68c0,-22.996 18.67,-41.666 41.666,-41.666c22.997,0 41.667,18.67 41.667,41.666c0,22.997 -18.67,41.667 -41.667,41.667c-22.996,0 -41.666,-18.67 -41.666,-41.667Z" style="fill:#fc2e30;stroke-width:4.17px;stroke:#000;"/></g><g><path d="M6168.16,834.348c0,-45.993 37.34,-83.333 83.333,-83.333c45.993,0 83.333,37.34 83.333,83.333c0,45.993 -37.34,83.333 -83.333,83.333c-45.993,0 -83.333,-37.34 -83.333,-83.333Z" style="fill:#fcd1d1;stroke-width:4.17px;stroke:#000;"/><path d="M6209.83,834.348c0,-22.996 18.671,-41.667 41.667,-41.667c22.996,0 41.667,18.671 41.667,41.667c0,22.997 -18.671,41.667 -41.667,41.667c-22.996,0 -41.667,-18.67 -41.667,-41.667Z" style="fill:#fc2e30;stroke-width:4.17px;stroke:#000;"/></g><g><path d="M2000.25,2917.68c0,-45.992 37.34,-83.333 83.333,-83.333c45.993,0 83.333,37.341 83.333,83.333c0,45.993 -37.34,83.334 -83.333,83.334c-45.993,0 -83.333,-37.341 -83.333,-83.334Z" style="fill:#fcd1d1;stroke-width:4.17px;stroke:#000;"/><path d="M2041.92,2917.68c0,-22.996 18.67,-41.666 41.667,-41.666c22.996,0 41.667,18.67 41.667,41.666c0,22.997 -18.671,41.667 -41.667,41.667c-22.997,0 -41.667,-18.67 -41.667,-41.667Z" style="fill:#fc2e30;stroke-width:4.17px;stroke:#000;"/></g><g><path d="M2001.5,4167.68c0,-45.992 37.34,-83.333 83.333,-83.333c45.993,0 83.334,37.341 83.334,83.333c0,45.993 -37.341,83.334 -83.334,83.334c-45.993,0 -83.333,-37.341 -83.333,-83.334Z" style="fill:#fcd1d1;stroke-width:4.17px;stroke:#000;"/><path d="M2043.16,4167.68c0,-22.996 18.67,-41.666 41.666,-41.666c22.997,0 41.667,18.67 41.667,41.666c0,22.997 -18.67,41.667 -41.667,41.667c-22.996,0 -41.666,-18.67 -41.666,-41.667Z" style="fill:#fc2e30;stroke-width:4.17px;stroke:#000;"/></g><g><path d="M6168.16,3334.35c0,-45.993 37.34,-83.333 83.333,-83.333c45.993,0 83.333,37.34 83.333,83.333c0,45.993 -37.34,83.333 -83.333,83.333c-45.993,0 -83.333,-37.34 -83.333,-83.333Z" style="fill:#fcd1d1;stroke-width:4.17px;stroke:#000;"/><path d="M6209.83,3334.35c0,-22.996 18.671,-41.667 41.667,-41.667c22.996,0 41.667,18.671 41.667,41.667c0,22.997 -18.671,41.667 -41.667,41.667c-22.996,0 -41.667,-18.67 -41.667,-41.667Z" style="fill:#fc2e30;stroke-width:4.17px;stroke:#000;"/></g></g><g><rect x="4095.55" y="5127.66" width="416.667" height="18.75" style="fill:#000;"/><rect x="4294.51" y="5137.04" width="18.75" height="208.333" style="fill:#000;"/></g><g id="grid"><g id="bold lines"><path d="M2916.92,417.681l0,11666.7" style="fill:none;stroke-width:4.17px;stroke-miterlimit:1;stroke:#000;stroke-opacity:0.298039;"/><path d="M416.919,2917.68l10833.3,0" style="fill:none;stroke-width:4.17px;stroke-miterlimit:1;stroke:#000;stroke-opacity:0.298039;"/><path d="M5000.25,417.681l0,11666.7" style="fill:none;stroke-width:4.17px;stroke-miterlimit:1;stroke:#000;stroke-opacity:0.298039;"/><path d="M7083.59,417.681l0,11666.7" style="fill:none;stroke-width:4.17px;stroke-miterlimit:1;stroke:#000;stroke-opacity:0.298039;"/><path d="M9166.92,417.681l0,11666.7" style="fill:none;stroke-width:4.17px;stroke-miterlimit:1;stroke:#000;stroke-opacity:0.298039;"/><path d="M416.919,5001.02l10833.3,0" style="fill:none;stroke-width:4.17px;stroke-miterlimit:1;stroke:#000;stroke-opacity:0.298039;"/><path d="M416.919,834.348l10833.3,0" style="fill:none;stroke-width:4.17px;stroke-miterlimit:1;stroke:#000;stroke-opacity:0.298039;"/><path d="M833.586,12084.3l0,-11666.7" style="fill:none;stroke-width:4.17px;stroke-miterlimit:1;stroke:#000;stroke-opacity:0.298039;"/></g><g id="vertical lines"><path d="M416.919,417.681l0,11666.7" style="fill:none;stroke-width:4.17px;stroke-linejoin:miter;stroke-miterlimit:1;stroke-dasharray:41.67,183.33,8.33,183.33;stroke-dashoffset:20.83;stroke:#000;"/><path d="M2916.92,417.681l0,11666.7" style="fill:none;stroke-width:4.17px;stroke-linejoin:miter;stroke-miterlimit:1;stroke-dasharray:41.67,183.33,8.33,183.33;stroke-dashoffset:20.83;stroke:#000;"/><path d="M5416.92,417.681l0,11666.7" style="fill:none;stroke-width:4.17px;stroke-linejoin:miter;stroke-miterlimit:1;stroke-dasharray:41.67,183.33,8.33,183.33;stroke-dashoffset:20.83;stroke:#000;"/><path d="M7916.92,417.681l0,11666.7" style="fill:none;stroke-width:4.17px;stroke-linejoin:miter;stroke-miterlimit:1;stroke-dasharray:41.67,183.33,8.33,183.33;stroke-dashoffset:20.83;stroke:#000;"/><path d="M1250.25,417.681l0,11666.7" style="fill:none;stroke-width:4.17px;stroke-linejoin:miter;stroke-miterlimit:1;stroke-dasharray:41.67,183.33,8.33,183.33;stroke-dashoffset:20.83;stroke:#000;"/><path d="M3750.25,417.681l0,11666.7" style="fill:none;stroke-width:4.17px;stroke-linejoin:miter;stroke-miterlimit:1;stroke-dasharray:41.67,183.33,8.33,183.33;stroke-dashoffset:20.83;stroke:#000;"/><path d="M6250.25,417.681l0,11666.7" style="fill:none;stroke-width:4.17px;stroke-linejoin:miter;stroke-miterlimit:1;stroke-dasharray:41.67,183.33,8.33,183.33;stroke-dashoffset:20.83;stroke:#000;"/><path d="M8750.25,417.681l0,11666.7" style="fill:none;stroke-width:4.17px;stroke-linejoin:miter;stroke-miterlimit:1;stroke-dasharray:41.67,183.33,8.33,183.33;stroke-dashoffset:20.83;stroke:#000;"/><path d="M2083.59,417.681l0,11666.7" style="fill:none;stroke-width:4.17px;stroke-linejoin:miter;stroke-miterlimit:1;stroke-dasharray:41.67,183.33,8.33,183.33;stroke-dashoffset:20.83;stroke:#000;"/><path d="M4583.59,417.681l0,11666.7" style="fill:none;stroke-width:4.17px;stroke-linejoin:miter;stroke-miterlimit:1;stroke-dasharray:41.67,183.33,8.33,183.33;stroke-dashoffset:20.83;stroke:#000;"/><path d="M7083.59,417.681l0,11666.7" style="fill:none;stroke-width:4.17px;stroke-linejoin:miter;stroke-miterlimit:1;stroke-dasharray:41.67,183.33,8.33,183.33;stroke-dashoffset:20.83;stroke:#000;"/><path d="M9583.59,417.681l0,11666.7" style="fill:none;stroke-width:4.17px;stroke-linejoin:miter;stroke-miterlimit:1;stroke-dasharray:41.67,183.33,8.33,183.33;stroke-dashoffset:20.83;stroke:#000;"/><path d="M833.586,417.681l0,11666.7" style="fill:none;stroke-width:4.17px;stroke-linejoin:miter;stroke-miterlimit:1;stroke-dasharray:41.67,183.33,8.33,183.33;stroke-dashoffset:20.83;stroke:#000;"/><path d="M3333.59,417.681l0,11666.7" style="fill:none;stroke-width:4.17px;stroke-linejoin:miter;stroke-miterlimit:1;stroke-dasharray:41.67,183.33,8.33,183.33;stroke-dashoffset:20.83;stroke:#000;"/><path d="M5833.59,417.681l0,11666.7" style="fill:none;stroke-width:4.17px;stroke-linejoin:miter;stroke-miterlimit:1;stroke-dasharray:41.67,183.33,8.33,183.33;stroke-dashoffset:20.83;stroke:#000;"/><path d="M8333.59,417.681l0,11666.7" style="fill:none;stroke-width:4.17px;stroke-linejoin:miter;stroke-miterlimit:1;stroke-dasharray:41.67,183.33,8.33,183.33;stroke-dashoffset:20.83;stroke:#000;"/><path d="M1666.92,417.681l0,11666.7" style="fill:none;stroke-width:4.17px;stroke-linejoin:miter;stroke-miterlimit:1;stroke-dasharray:41.67,183.33,8.33,183.33;stroke-dashoffset:20.83;stroke:#000;"/><path d="M4166.92,417.681l0,11666.7" style="fill:none;stroke-width:4.17px;stroke-linejoin:miter;stroke-miterlimit:1;stroke-dasharray:41.67,183.33,8.33,183.33;stroke-dashoffset:20.83;stroke:#000;"/><path d="M6666.92,417.681l0,11666.7" style="fill:none;stroke-width:4.17px;stroke-linejoin:miter;stroke-miterlimit:1;stroke-dasharray:41.67,183.33,8.33,183.33;stroke-dashoffset:20.83;stroke:#000;"/><path d="M9166.92,417.681l0,11666.7" style="fill:none;stroke-width:4.17px;stroke-linejoin:miter;stroke-miterlimit:1;stroke-dasharray:41.67,183.33,8.33,183.33;stroke-dashoffset:20.83;stroke:#000;"/><path d="M2500.25,417.681l0,11666.7" style="fill:none;stroke-width:4.17px;stroke-linejoin:miter;stroke-miterlimit:1;stroke-dasharray:41.67,183.33,8.33,183.33;stroke-dashoffset:20.83;stroke:#000;"/><path d="M5000.25,417.681l0,11666.7" style="fill:none;stroke-width:4.17px;stroke-linejoin:miter;stroke-miterlimit:1;stroke-dasharray:41.67,183.33,8.33,183.33;stroke-dashoffset:20.83;stroke:#000;"/><path d="M7500.25,417.681l0,11666.7" style="fill:none;stroke-width:4.17px;stroke-linejoin:miter;stroke-miterlimit:1;stroke-dasharray:41.67,183.33,8.33,183.33;stroke-dashoffset:20.83;stroke:#000;"/></g><g id="horizontal lines"><path d="M416.919,417.681l10833.3,0" style="fill:none;stroke-width:4.17px;stroke-dasharray:41.67,183.33,8.33,183.33;stroke-dashoffset:20.83;stroke:#000;"/><path d="M416.919,2084.35l10833.3,0" style="fill:none;stroke-width:4.17px;stroke-dasharray:41.67,183.33,8.33,183.33;stroke-dashoffset:20.83;stroke:#000;"/><path d="M416.919,3751.01l10833.3,0" style="fill:none;stroke-width:4.17px;stroke-dasharray:41.67,183.33,8.33,183.33;stroke-dashoffset:20.83;stroke:#000;"/><path d="M416.919,5417.68l10833.3,0" style="fill:none;stroke-width:4.17px;stroke-dasharray:41.67,183.33,8.33,183.33;stroke-dashoffset:20.83;stroke:#000;"/><path d="M11250.3,834.348l-10833.3,0" style="fill:none;stroke-width:4.17px;stroke-dasharray:41.67,183.33,8.33,183.33;stroke-dashoffset:20.83;stroke:#000;"/><path d="M11250.3,2501.01l-10833.3,0" style="fill:none;stroke-width:4.17px;stroke-dasharray:41.67,183.33,8.33,183.33;stroke-dashoffset:20.83;stroke:#000;"/><path d="M11250.3,4167.68l-10833.3,0" style="fill:none;stroke-width:4.17px;stroke-dasharray:41.67,183.33,8.33,183.33;stroke-dashoffset:20.83;stroke:#000;"/><path d="M416.919,1251.02l10833.3,0" style="fill:none;stroke-width:4.17px;stroke-dasharray:41.67,183.33,8.33,183.33;stroke-dashoffset:20.83;stroke:#000;"/><path d="M416.919,2917.68l10833.3,0" style="fill:none;stroke-width:4.17px;stroke-dasharray:41.67,183.33,8.33,183.33;stroke-dashoffset:20.83;stroke:#000;"/><path d="M416.919,4584.35l10833.3,0" style="fill:none;stroke-width:4.17px;stroke-dasharray:41.67,183.33,8.33,183.33;stroke-dashoffset:20.83;stroke:#000;"/><path d="M416.919,1667.68l10833.3,0" style="fill:none;stroke-width:4.17px;stroke-dasharray:41.67,183.33,8.33,183.33;stroke-dashoffset:20.83;stroke:#000;"/><path d="M416.919,3334.35l10833.3,0" style="fill:none;stroke-width:4.17px;stroke-dasharray:41.67,183.33,8.33,183.33;stroke-dashoffset:20.83;stroke:#000;"/><path d="M416.919,5001.02l10833.3,0" style="fill:none;stroke-width:4.17px;stroke-dasharray:41.67,183.33,8.33,183.33;stroke-dashoffset:20.83;stroke:#000;"/></g><g id="top labels"><rect x="625.253" y="209.348" width="416.667" height="208.333" style="fill:#808080;stroke-width:4.17px;stroke:#000;"/><rect x="2708.59" y="209.348" width="416.667" height="208.333" style="fill:#808080;stroke-width:4.17px;stroke:#000;"/><rect x="4791.92" y="209.348" width="416.667" height="208.333" style="fill:#808080;stroke-width:4.17px;stroke:#000;"/><rect x="6875.25" y="209.348" width="416.667" height="208.333" style="fill:#808080;stroke-width:4.17px;stroke:#000;"/><rect x="8958.59" y="209.348" width="416.667" height="208.333" style="fill:#808080;stroke-width:4.17px;stroke:#000;"/><rect x="1041.92" y="209.348" width="416.667" height="208.333" style="fill:#808080;stroke-width:4.17px;stroke:#000;"/><rect x="3125.25" y="209.348" width="416.667" height="208.333" style="fill:#808080;stroke-width:4.17px;stroke:#000;"/><rect x="5208.59" y="209.348" width="416.667" height="208.333" style="fill:#808080;stroke-width:4.17px;stroke:#000;"/><rect x="7291.92" y="209.348" width="416.667" height="208.333" style="fill:#808080;stroke-width:4.17px;stroke:#000;"/><rect x="9375.25" y="209.348" width="416.667" height="208.333" style="fill:#808080;stroke-width:4.17px;stroke:#000;"/><rect x="1458.59" y="209.348" width="416.667" height="208.333" style="fill:#808080;stroke-width:4.17px;stroke:#000;"/><rect x="3541.92" y="209.348" width="416.667" height="208.333" style="fill:#808080;stroke-width:4.17px;stroke:#000;"/><rect x="5625.25" y="209.348" width="416.667" height="208.333" style="fill:#808080;stroke-width:4.17px;stroke:#000;"/><rect x="7708.59" y="209.348" width="416.667" height="208.333" style="fill:#808080;stroke-width:4.17px;stroke:#000;"/><rect x="1875.25" y="209.348" width="416.667" height="208.333" style="fill:#808080;stroke-width:4.17px;stroke:#000;"/><rect x="3958.59" y="209.348" width="416.667" height="208.333" style="fill:#808080;stroke-width:4.17px;stroke:#000;"/><rect x="6041.92" y="209.348" width="416.667" height="208.333" style="fill:#808080;stroke-width:4.17px;stroke:#000;"/><rect x="8125.25" y="209.348" width="416.667" height="208.333" style="fill:#808080;stroke-width:4.17px;stroke:#000;"/><rect x="2291.92" y="209.348" width="416.667" height="208.333" style="fill:#808080;stroke-width:4.17px;stroke:#000;"/><rect x="4375.25" y="209.348" width="416.667" height="208.333" style="fill:#808080;stroke-width:4.17px;stroke:#000;"/><rect x="6458.59" y="209.348" width="416.667" height="208.333" style="fill:#808080;stroke-width:4.17px;stroke:#000;"/><rect x="8541.92" y="209.348" width="416.667" height="208.333" style="fill:#808080;stroke-width:4.17px;stroke:#000;"/><text x="783.627px" y="372.178px" style="font-family:'ArialMT';font-size:150px;fill:#000;stroke-width:4.17px;stroke:#000;">A</text><text x="2866.96px" y="372.178px" style="font-family:'ArialMT';font-size:150px;fill:#000;stroke-width:4.17px;stroke:#000;">F</text><text x="4950.29px" y="372.178px" style="font-family:'ArialMT';font-size:150px;fill:#000;stroke-width:4.17px;stroke:#000;">K</text><text x="7033.63px" y="372.178px" style="font-family:'ArialMT';font-size:150px;fill:#000;stroke-width:4.17px;stroke:#000;">P</text><text x="9116.96px" y="372.178px" style="font-family:'ArialMT';font-size:150px;fill:#000;stroke-width:4.17px;stroke:#000;">U</text><text x="1200.29px" y="372.178px" style="font-family:'ArialMT';font-size:150px;fill:#000;stroke-width:4.17px;stroke:#000;">B</text><text x="3283.63px" y="372.178px" style="font-family:'ArialMT';font-size:150px;fill:#000;stroke-width:4.17px;stroke:#000;">G</text><text x="5366.96px" y="372.178px" style="font-family:'ArialMT';font-size:150px;fill:#000;stroke-width:4.17px;stroke:#000;">L</text><text x="7450.29px" y="372.178px" style="font-family:'ArialMT';font-size:150px;fill:#000;stroke-width:4.17px;stroke:#000;">Q</text><text x="9533.63px" y="372.178px" style="font-family:'ArialMT';font-size:150px;fill:#000;stroke-width:4.17px;stroke:#000;">V</text><text x="1616.96px" y="372.178px" style="font-family:'ArialMT';font-size:150px;fill:#000;stroke-width:4.17px;stroke:#000;">C</text><text x="3700.29px" y="372.178px" style="font-family:'ArialMT';font-size:150px;fill:#000;stroke-width:4.17px;stroke:#000;">H</text><text x="5783.63px" y="372.178px" style="font-family:'ArialMT';font-size:150px;fill:#000;stroke-width:4.17px;stroke:#000;">M</text><text x="7866.96px" y="372.178px" style="font-family:'ArialMT';font-size:150px;fill:#000;stroke-width:4.17px;stroke:#000;">R</text><text x="2033.63px" y="372.178px" style="font-family:'ArialMT';font-size:150px;fill:#000;stroke-width:4.17px;stroke:#000;">D</text><text x="4146.15px" y="372.178px" style="font-family:'ArialMT';font-size:150px;fill:#000;stroke-width:4.17px;stroke:#000;">I</text><text x="6200.29px" y="372.178px" style="font-family:'ArialMT';font-size:150px;fill:#000;stroke-width:4.17px;stroke:#000;">N</text><text x="8283.63px" y="372.178px" style="font-family:'ArialMT';font-size:150px;fill:#000;stroke-width:4.17px;stroke:#000;">S</text><text x="2450.29px" y="372.178px" style="font-family:'ArialMT';font-size:150px;fill:#000;stroke-width:4.17px;stroke:#000;">E</text><text x="4533.63px" y="372.178px" style="font-family:'ArialMT';font-size:150px;fill:#000;stroke-width:4.17px;stroke:#000;">J</text><text x="6616.96px" y="372.178px" style="font-family:'ArialMT';font-size:150px;fill:#000;stroke-width:4.17px;stroke:#000;">O</text><text x="8700.29px" y="372.178px" style="font-family:'ArialMT';font-size:150px;fill:#000;stroke-width:4.17px;stroke:#000;">T</text></g><g id="top numbers"><text x="1220.12px" y="191.689px" style="font-family:'ArialMT';font-size:83.333px;fill:#000;stroke-width:4.17px;stroke:#000;">1</text><text x="810.413px" y="191.689px" style="font-family:'ArialMT';font-size:83.333px;fill:#000;stroke-width:4.17px;stroke:#000;">0</text><text x="3303.45px" y="191.689px" style="font-family:'ArialMT';font-size:83.333px;fill:#000;stroke-width:4.17px;stroke:#000;">6</text><text x="5367.4px" y="191.689px" style="font-family:'ArialMT';font-size:83.333px;fill:#000;stroke-width:4.17px;stroke:#000;">1<tspan x="5407.56px " y="191.689px ">1</tspan></text><text x="7453.91px" y="191.689px" style="font-family:'ArialMT';font-size:83.333px;fill:#000;stroke-width:4.17px;stroke:#000;">16</text><text x="9537.24px" y="191.689px" style="font-family:'ArialMT';font-size:83.333px;fill:#000;stroke-width:4.17px;stroke:#000;">21</text><text x="1636.79px" y="191.689px" style="font-family:'ArialMT';font-size:83.333px;fill:#000;stroke-width:4.17px;stroke:#000;">2</text><text x="3722.4px" y="191.689px" style="font-family:'ArialMT';font-size:83.333px;fill:#000;stroke-width:4.17px;stroke:#000;">7</text><text x="5787.24px" y="191.689px" style="font-family:'ArialMT';font-size:83.333px;fill:#000;stroke-width:4.17px;stroke:#000;">12</text><text x="7865.89px" y="191.689px" style="font-family:'ArialMT';font-size:83.333px;fill:#000;stroke-width:4.17px;stroke:#000;">17</text><text x="2053.45px" y="191.689px" style="font-family:'ArialMT';font-size:83.333px;fill:#000;stroke-width:4.17px;stroke:#000;">3</text><text x="4139.07px" y="191.689px" style="font-family:'ArialMT';font-size:83.333px;fill:#000;stroke-width:4.17px;stroke:#000;">8</text><text x="6203.91px" y="191.689px" style="font-family:'ArialMT';font-size:83.333px;fill:#000;stroke-width:4.17px;stroke:#000;">13</text><text x="8282.56px" y="191.689px" style="font-family:'ArialMT';font-size:83.333px;fill:#000;stroke-width:4.17px;stroke:#000;">18</text><text x="2470.12px" y="191.689px" style="font-family:'ArialMT';font-size:83.333px;fill:#000;stroke-width:4.17px;stroke:#000;">4</text><text x="4555.73px" y="191.689px" style="font-family:'ArialMT';font-size:83.333px;fill:#000;stroke-width:4.17px;stroke:#000;">9</text><text x="6620.57px" y="191.689px" style="font-family:'ArialMT';font-size:83.333px;fill:#000;stroke-width:4.17px;stroke:#000;">14</text><text x="8699.23px" y="191.689px" style="font-family:'ArialMT';font-size:83.333px;fill:#000;stroke-width:4.17px;stroke:#000;">19</text><text x="2886.79px" y="191.689px" style="font-family:'ArialMT';font-size:83.333px;fill:#000;stroke-width:4.17px;stroke:#000;">5</text><text x="4953.91px" y="191.689px" style="font-family:'ArialMT';font-size:83.333px;fill:#000;stroke-width:4.17px;stroke:#000;">10</text><text x="7032.56px" y="191.689px" style="font-family:'ArialMT';font-size:83.333px;fill:#000;stroke-width:4.17px;stroke:#000;">15</text><text x="9115.89px" y="191.689px" style="font-family:'ArialMT';font-size:83.333px;fill:#000;stroke-width:4.17px;stroke:#000;">20</text></g><g id="side labels"><rect x="208.586" y="1042.68" width="208.333" height="416.667" style="fill:#808080;stroke-width:4.17px;stroke:#000;"/><rect x="208.586" y="626.015" width="208.333" height="416.667" style="fill:#808080;stroke-width:4.17px;stroke:#000;"/><rect x="208.586" y="2709.35" width="208.333" height="416.667" style="fill:#808080;stroke-width:4.17px;stroke:#000;"/><rect x="208.586" y="4376.02" width="208.333" height="416.667" style="fill:#808080;stroke-width:4.17px;stroke:#000;"/><rect x="208.586" y="1459.35" width="208.333" height="416.667" style="fill:#808080;stroke-width:4.17px;stroke:#000;"/><rect x="208.586" y="3126.01" width="208.333" height="416.667" style="fill:#808080;stroke-width:4.17px;stroke:#000;"/><rect x="208.586" y="4792.68" width="208.333" height="416.667" style="fill:#808080;stroke-width:4.17px;stroke:#000;"/><rect x="208.586" y="1876.02" width="208.333" height="416.667" style="fill:#808080;stroke-width:4.17px;stroke:#000;"/><rect x="208.586" y="3542.68" width="208.333" height="416.667" style="fill:#808080;stroke-width:4.17px;stroke:#000;"/><rect x="208.586" y="5209.35" width="208.333" height="416.667" style="fill:#808080;stroke-width:4.17px;stroke:#000;"/><rect x="208.586" y="2292.68" width="208.333" height="416.667" style="fill:#808080;stroke-width:4.17px;stroke:#000;"/><rect x="208.586" y="3959.35" width="208.333" height="416.667" style="fill:#808080;stroke-width:4.17px;stroke:#000;"/><text x="271.022px" y="1302.56px" style="font-family:'ArialMT';font-size:150px;fill:#000;stroke-width:4.17px;stroke:#000;">1</text><text x="271.022px" y="885.894px" style="font-family:'ArialMT';font-size:150px;fill:#000;stroke-width:4.17px;stroke:#000;">0</text><text x="271.022px" y="2969.23px" style="font-family:'ArialMT';font-size:150px;fill:#000;stroke-width:4.17px;stroke:#000;">5</text><text x="271.022px" y="4635.89px" style="font-family:'ArialMT';font-size:150px;fill:#000;stroke-width:4.17px;stroke:#000;">9</text><text x="271.022px" y="1719.23px" style="font-family:'ArialMT';font-size:150px;fill:#000;stroke-width:4.17px;stroke:#000;">2</text><text x="271.022px" y="3385.89px" style="font-family:'ArialMT';font-size:150px;fill:#000;stroke-width:4.17px;stroke:#000;">6</text><text x="229.311px" y="5052.56px" style="font-family:'ArialMT';font-size:150px;fill:#000;stroke-width:4.17px;stroke:#000;">10</text><text x="271.022px" y="2135.89px" style="font-family:'ArialMT';font-size:150px;fill:#000;stroke-width:4.17px;stroke:#000;">3</text><text x="271.022px" y="3802.56px" style="font-family:'ArialMT';font-size:150px;fill:#000;stroke-width:4.17px;stroke:#000;">7</text><text x="234.877px" y="5469.23px" style="font-family:'ArialMT';font-size:150px;fill:#000;stroke-width:4.17px;stroke:#000;">1<tspan x="307.167px " y="5469.23px ">1</tspan></text><text x="271.022px" y="2552.56px" style="font-family:'ArialMT';font-size:150px;fill:#000;stroke-width:4.17px;stroke:#000;">4</text><text x="271.022px" y="4219.23px" style="font-family:'ArialMT';font-size:150px;fill:#000;stroke-width:4.17px;stroke:#000;">8</text></g><rect x="0.253" y="1.015" width="416.667" height="416.667" style="fill:none;stroke-width:4.17px;stroke-miterlimit:1;stroke:#000;"/><rect x="208.586" y="209.348" width="416.667" height="416.667" style="fill:#808080;stroke-width:4.17px;stroke:#000;"/><text x="231.698px" y="525.364px" style="font-family:'ArialMT';font-size:266.667px;fill:#000;stroke-width:4.17px;stroke:#000;">1m</text></g></g></svg>