<?xml version="1.0" standalone="no"?><!DOCTYPE svg PUBLIC "-//W3C//DTD SVG 1.1//EN" "http://www.w3.org/Graphics/SVG/1.1/DTD/svg11.dtd"><svg width="100%" height="100%" viewBox="0 0 2301 1301" version="1.1" xmlns="http://www.w3.org/2000/svg" xmlns:xlink="http://www.w3.org/1999/xlink" xml:space="preserve" style="fill-rule:evenodd;clip-rule:evenodd;stroke-linejoin:round;stroke-miterlimit:1.41421;"><clipPath id="_clip1"><rect id="serpentine" x="0.061" y="0.244" width="2300" height="1300"/></clipPath><g clip-path="url(#_clip1)"><path d="M1100.06,1100.24c23.394,-296.243 -185.748,-375.964 -300,-350c-67.01,15.227 -150,58.333 -200,50c-46.499,-7.75 -95.482,-46.12 -100,-100c4.493,-49.823 53.093,-104.691 100,-100c166.666,16.666 900,200 900,200c178.347,-14.296 286.138,-105.774 300,-300c-17.212,-191.454 -120.983,-287.289 -300,-300l-1100,0" style="fill:none;stroke-width:4.5px;stroke:#000;"/><g><circle cx="500.061" cy="700.244" r="300" style="fill:none;stroke-width:4.5px;stroke:#000;stroke-opacity:0.0980392;"/><circle cx="1500.06" cy="500.244" r="300" style="fill:none;stroke-width:4.5px;stroke:#000;stroke-opacity:0.0980392;"/><path d="M700.061,1000.24c0,-55.192 44.808,-100 100,-100c55.191,0 100,44.808 100,100c0,55.191 -44.809,100 -100,100c-55.192,0 -100,-44.809 -100,-100Z" style="fill:none;stroke-width:4.5px;stroke:#000;stroke-opacity:0.0980392;"/></g><path d="M950.061,1100.24c-2.596,-67.122 -34.275,-191.423 -150,-200c-91.473,1.523 -194.592,99.594 -300,100c-106.188,0.408 -287.037,-70.339 -300,-300c16.226,-175.628 110.024,-281.226 300,-300c298.407,67.204 730.438,181.93 900,200c71.493,7.618 119.67,-75.279 120,-120c0.422,-57.222 -42.219,-124.775 -120,-130c-73.112,-4.912 -147.773,1.73 -300,0c-167.064,-1.899 -700,0 -700,0" style="fill:none;stroke-width:4.5px;stroke:#000;"/><path d="M1030.06,1220.24c0.118,-49.109 0.355,-147.325 -10,-220c-11.745,-82.424 -44.17,-149.066 -130,-170c-113.525,-27.69 -283.368,96.72 -390,110c-314.617,39.181 -327.047,-508.598 10,-480c167.689,14.227 786.928,251.046 990,290c145.668,27.942 256.371,-150.389 250,-250c-6.371,-99.605 -96.637,-253.188 -250,-240c-80.634,6.933 -130.449,9.44 -290,10c-228.241,0.8 -709.414,0.266 -950,0" style="fill:none;stroke-width:8px;stroke-dasharray:24,48,0,0;stroke:#14a90c;stroke-opacity:0.698039;"/><g id="Layer3"><g><path d="M780.061,900.244c0,-11.039 8.961,-20 20,-20c11.038,0 20,8.961 20,20c0,11.038 -8.962,20 -20,20c-11.039,0 -20,-8.962 -20,-20Z" style="fill:#fcd1d1;stroke-width:1px;stroke:#000;"/><path d="M790.061,900.244c0,-5.52 4.48,-10 10,-10c5.519,0 10,4.48 10,10c0,5.519 -4.481,10 -10,10c-5.52,0 -10,-4.481 -10,-10Z" style="fill:#fc2e30;stroke-width:1px;stroke:#000;"/></g><g><path d="M700.061,920.244c0,-11.039 8.961,-20 20,-20c11.038,0 20,8.961 20,20c0,11.038 -8.962,20 -20,20c-11.039,0 -20,-8.962 -20,-20Z" style="fill:#fcd1d1;stroke-width:1px;stroke:#000;"/><path d="M710.061,920.244c0,-5.52 4.48,-10 10,-10c5.519,0 10,4.48 10,10c0,5.519 -4.481,10 -10,10c-5.52,0 -10,-4.481 -10,-10Z" style="fill:#fc2e30;stroke-width:1px;stroke:#000;"/></g><g><path d="M560.061,980.244c0,-11.039 8.961,-20 20,-20c11.038,0 20,8.961 20,20c0,11.038 -8.962,20 -20,20c-11.039,0 -20,-8.962 -20,-20Z" style="fill:#fcd1d1;stroke-width:1px;stroke:#000;"/><path d="M570.061,980.244c0,-5.52 4.48,-10 10,-10c5.519,0 10,4.48 10,10c0,5.519 -4.481,10 -10,10c-5.52,0 -10,-4.481 -10,-10Z" style="fill:#fc2e30;stroke-width:1px;stroke:#000;"/></g><g><path d="M930.061,1100.24c0,-11.039 8.961,-20 20,-20c11.038,0 20,8.961 20,20c0,11.038 -8.962,20 -20,20c-11.039,0 -20,-8.962 -20,-20Z" style="fill:#fcd1d1;stroke-width:1px;stroke:#000;"/><path d="M940.061,1100.24c0,-5.52 4.48,-10 10,-10c5.519,0 10,4.48 10,10c0,5.519 -4.481,10 -10,10c-5.52,0 -10,-4.481 -10,-10Z" style="fill:#fc2e30;stroke-width:1px;stroke:#000;"/></g><g><path d="M900.061,980.244c0,-11.039 8.961,-20 20,-20c11.038,0 20,8.961 20,20c0,11.038 -8.962,20 -20,20c-11.039,0 -20,-8.962 -20,-20Z" style="fill:#fcd1d1;stroke-width:1px;stroke:#000;"/><path d="M910.061,980.244c0,-5.52 4.48,-10 10,-10c5.519,0 10,4.48 10,10c0,5.519 -4.481,10 -10,10c-5.52,0 -10,-4.481 -10,-10Z" style="fill:#fc2e30;stroke-width:1px;stroke:#000;"/></g><g><path d="M1420.06,600.244c0,-11.039 -8.962,-20 -20,-20c-11.039,0 -20,8.961 -20,20c0,11.038 8.961,20 20,20c11.038,0 20,-8.962 20,-20Z" style="fill:#fcd1d1;stroke-width:1px;stroke:#000;"/><path d="M1410.06,600.244c0,-5.52 -4.481,-10 -10,-10c-5.52,0 -10,4.48 -10,10c0,5.519 4.48,10 10,10c5.519,0 10,-4.481 10,-10Z" style="fill:#fc2e30;stroke-width:1px;stroke:#000;"/></g><g><path d="M1820.06,500.244c0,-11.039 -8.962,-20 -20,-20c-11.039,0 -20,8.961 -20,20c0,11.038 8.961,20 20,20c11.038,0 20,-8.962 20,-20Z" style="fill:#fcd1d1;stroke-width:1px;stroke:#000;"/><path d="M1810.06,500.244c0,-5.52 -4.481,-10 -10,-10c-5.52,0 -10,4.48 -10,10c0,5.519 4.48,10 10,10c5.519,0 10,-4.481 10,-10Z" style="fill:#fc2e30;stroke-width:1px;stroke:#000;"/></g><g><path d="M1080.06,1100.24c0,-11.039 8.961,-20 20,-20c11.038,0 20,8.961 20,20c0,11.038 -8.962,20 -20,20c-11.039,0 -20,-8.962 -20,-20Z" style="fill:#fcd1d1;stroke-width:1px;stroke:#000;"/><path d="M1090.06,1100.24c0,-5.52 4.48,-10 10,-10c5.519,0 10,4.48 10,10c0,5.519 -4.481,10 -10,10c-5.52,0 -10,-4.481 -10,-10Z" style="fill:#fc2e30;stroke-width:1px;stroke:#000;"/></g><g><path d="M1080.06,1000.24c0,-11.039 8.961,-20 20,-20c11.038,0 20,8.961 20,20c0,11.038 -8.962,20 -20,20c-11.039,0 -20,-8.962 -20,-20Z" style="fill:#fcd1d1;stroke-width:1px;stroke:#000;"/><path d="M1090.06,1000.24c0,-5.52 4.48,-10 10,-10c5.519,0 10,4.48 10,10c0,5.519 -4.481,10 -10,10c-5.52,0 -10,-4.481 -10,-10Z" style="fill:#fc2e30;stroke-width:1px;stroke:#000;"/></g><g><path d="M1060.06,920.244c0,-11.039 8.961,-20 20,-20c11.038,0 20,8.961 20,20c0,11.038 -8.962,20 -20,20c-11.039,0 -20,-8.962 -20,-20Z" style="fill:#fcd1d1;stroke-width:1px;stroke:#000;"/><path d="M1070.06,920.244c0,-5.52 4.48,-10 10,-10c5.519,0 10,4.48 10,10c0,5.519 -4.481,10 -10,10c-5.52,0 -10,-4.481 -10,-10Z" style="fill:#fc2e30;stroke-width:1px;stroke:#000;"/></g><g><path d="M980.061,800.244c0,-11.039 8.961,-20 20,-20c11.038,0 20,8.961 20,20c0,11.038 -8.962,20 -20,20c-11.039,0 -20,-8.962 -20,-20Z" style="fill:#fcd1d1;stroke-width:1px;stroke:#000;"/><path d="M990.061,800.244c0,-5.52 4.48,-10 10,-10c5.519,0 10,4.48 10,10c0,5.519 -4.481,10 -10,10c-5.52,0 -10,-4.481 -10,-10Z" style="fill:#fc2e30;stroke-width:1px;stroke:#000;"/></g><g><path d="M780.061,750.244c0,-11.039 8.961,-20 20,-20c11.038,0 20,8.961 20,20c0,11.038 -8.962,20 -20,20c-11.039,0 -20,-8.962 -20,-20Z" style="fill:#fcd1d1;stroke-width:1px;stroke:#000;"/><path d="M790.061,750.244c0,-5.52 4.48,-10 10,-10c5.519,0 10,4.48 10,10c0,5.519 -4.481,10 -10,10c-5.52,0 -10,-4.481 -10,-10Z" style="fill:#fc2e30;stroke-width:1px;stroke:#000;"/></g><g><path d="M700.061,780.244c0,-11.039 8.961,-20 20,-20c11.038,0 20,8.961 20,20c0,11.038 -8.962,20 -20,20c-11.039,0 -20,-8.962 -20,-20Z" style="fill:#fcd1d1;stroke-width:1px;stroke:#000;"/><path d="M710.061,780.244c0,-5.52 4.48,-10 10,-10c5.519,0 10,4.48 10,10c0,5.519 -4.481,10 -10,10c-5.52,0 -10,-4.481 -10,-10Z" style="fill:#fc2e30;stroke-width:1px;stroke:#000;"/></g><g><path d="M880.061,750.244c0,-11.039 8.961,-20 20,-20c11.038,0 20,8.961 20,20c0,11.038 -8.962,20 -20,20c-11.039,0 -20,-8.962 -20,-20Z" style="fill:#fcd1d1;stroke-width:1px;stroke:#000;"/><path d="M890.061,750.244c0,-5.52 4.48,-10 10,-10c5.519,0 10,4.48 10,10c0,5.519 -4.481,10 -10,10c-5.52,0 -10,-4.481 -10,-10Z" style="fill:#fc2e30;stroke-width:1px;stroke:#000;"/></g><g><path d="M1400.06,780.244c0,-11.039 -8.962,-20 -20,-20c-11.039,0 -20,8.961 -20,20c0,11.038 8.961,20 20,20c11.038,0 20,-8.962 20,-20Z" style="fill:#fcd1d1;stroke-width:1px;stroke:#000;"/><path d="M1390.06,780.244c0,-5.52 -4.481,-10 -10,-10c-5.52,0 -10,4.48 -10,10c0,5.519 4.48,10 10,10c5.519,0 10,-4.481 10,-10Z" style="fill:#fc2e30;stroke-width:1px;stroke:#000;"/></g><g><path d="M1420.06,200.244c0,-11.039 -8.962,-20 -20,-20c-11.039,0 -20,8.961 -20,20c0,11.038 8.961,20 20,20c11.038,0 20,-8.962 20,-20Z" style="fill:#fcd1d1;stroke-width:1px;stroke:#000;"/><path d="M1410.06,200.244c0,-5.52 -4.481,-10 -10,-10c-5.52,0 -10,4.48 -10,10c0,5.519 4.48,10 10,10c5.519,0 10,-4.481 10,-10Z" style="fill:#fc2e30;stroke-width:1px;stroke:#000;"/></g><g><path d="M1520.06,400.244c0,-11.039 -8.962,-20 -20,-20c-11.039,0 -20,8.961 -20,20c0,11.038 8.961,20 20,20c11.038,0 20,-8.962 20,-20Z" style="fill:#fcd1d1;stroke-width:1px;stroke:#000;"/><path d="M1510.06,400.244c0,-5.52 -4.481,-10 -10,-10c-5.52,0 -10,4.48 -10,10c0,5.519 4.48,10 10,10c5.519,0 10,-4.481 10,-10Z" style="fill:#fc2e30;stroke-width:1px;stroke:#000;"/></g><g><path d="M1500.06,580.244c0,-11.039 -8.962,-20 -20,-20c-11.039,0 -20,8.961 -20,20c0,11.038 8.961,20 20,20c11.038,0 20,-8.962 20,-20Z" style="fill:#fcd1d1;stroke-width:1px;stroke:#000;"/><path d="M1490.06,580.244c0,-5.52 -4.481,-10 -10,-10c-5.52,0 -10,4.48 -10,10c0,5.519 4.48,10 10,10c5.519,0 10,-4.481 10,-10Z" style="fill:#fc2e30;stroke-width:1px;stroke:#000;"/></g><g><path d="M580.061,600.244c0,-11.039 8.961,-20 20,-20c11.038,0 20,8.961 20,20c0,11.038 -8.962,20 -20,20c-11.039,0 -20,-8.962 -20,-20Z" style="fill:#fcd1d1;stroke-width:1px;stroke:#000;"/><path d="M590.061,600.244c0,-5.52 4.48,-10 10,-10c5.519,0 10,4.48 10,10c0,5.519 -4.481,10 -10,10c-5.52,0 -10,-4.481 -10,-10Z" style="fill:#fc2e30;stroke-width:1px;stroke:#000;"/></g><g><path d="M1420.06,350.244c0,-11.039 -8.962,-20 -20,-20c-11.039,0 -20,8.961 -20,20c0,11.038 8.961,20 20,20c11.038,0 20,-8.962 20,-20Z" style="fill:#fcd1d1;stroke-width:1px;stroke:#000;"/><path d="M1410.06,350.244c0,-5.52 -4.481,-10 -10,-10c-5.52,0 -10,4.48 -10,10c0,5.519 4.48,10 10,10c5.519,0 10,-4.481 10,-10Z" style="fill:#fc2e30;stroke-width:1px;stroke:#000;"/></g><g><path d="M580.061,800.244c0,-11.039 8.961,-20 20,-20c11.038,0 20,8.961 20,20c0,11.038 -8.962,20 -20,20c-11.039,0 -20,-8.962 -20,-20Z" style="fill:#fcd1d1;stroke-width:1px;stroke:#000;"/><path d="M590.061,800.244c0,-5.52 4.48,-10 10,-10c5.519,0 10,4.48 10,10c0,5.519 -4.481,10 -10,10c-5.52,0 -10,-4.481 -10,-10Z" style="fill:#fc2e30;stroke-width:1px;stroke:#000;"/></g><g><path d="M1540.06,480.244c0,-11.039 -8.962,-20 -20,-20c-11.039,0 -20,8.961 -20,20c0,11.038 8.961,20 20,20c11.038,0 20,-8.962 20,-20Z" style="fill:#fcd1d1;stroke-width:1px;stroke:#000;"/><path d="M1530.06,480.244c0,-5.52 -4.481,-10 -10,-10c-5.52,0 -10,4.48 -10,10c0,5.519 4.48,10 10,10c5.519,0 10,-4.481 10,-10Z" style="fill:#fc2e30;stroke-width:1px;stroke:#000;"/></g><g><path d="M1740.06,280.244c0,-11.039 -8.962,-20 -20,-20c-11.039,0 -20,8.961 -20,20c0,11.038 8.961,20 20,20c11.038,0 20,-8.962 20,-20Z" style="fill:#fcd1d1;stroke-width:1px;stroke:#000;"/><path d="M1730.06,280.244c0,-5.52 -4.481,-10 -10,-10c-5.52,0 -10,4.48 -10,10c0,5.519 4.48,10 10,10c5.519,0 10,-4.481 10,-10Z" style="fill:#fc2e30;stroke-width:1px;stroke:#000;"/></g><g><path d="M1800.06,380.244c0,-11.039 -8.962,-20 -20,-20c-11.039,0 -20,8.961 -20,20c0,11.038 8.961,20 20,20c11.038,0 20,-8.962 20,-20Z" style="fill:#fcd1d1;stroke-width:1px;stroke:#000;"/><path d="M1790.06,380.244c0,-5.52 -4.481,-10 -10,-10c-5.52,0 -10,4.48 -10,10c0,5.519 4.48,10 10,10c5.519,0 10,-4.481 10,-10Z" style="fill:#fc2e30;stroke-width:1px;stroke:#000;"/></g><g><path d="M1640.06,220.244c0,-11.039 -8.962,-20 -20,-20c-11.039,0 -20,8.961 -20,20c0,11.038 8.961,20 20,20c11.038,0 20,-8.962 20,-20Z" style="fill:#fcd1d1;stroke-width:1px;stroke:#000;"/><path d="M1630.06,220.244c0,-5.52 -4.481,-10 -10,-10c-5.52,0 -10,4.48 -10,10c0,5.519 4.48,10 10,10c5.519,0 10,-4.481 10,-10Z" style="fill:#fc2e30;stroke-width:1px;stroke:#000;"/></g><g><path d="M1740.06,720.244c0,-11.039 -8.962,-20 -20,-20c-11.039,0 -20,8.961 -20,20c0,11.038 8.961,20 20,20c11.038,0 20,-8.962 20,-20Z" style="fill:#fcd1d1;stroke-width:1px;stroke:#000;"/><path d="M1730.06,720.244c0,-5.52 -4.481,-10 -10,-10c-5.52,0 -10,4.48 -10,10c0,5.519 4.48,10 10,10c5.519,0 10,-4.481 10,-10Z" style="fill:#fc2e30;stroke-width:1px;stroke:#000;"/></g><g><path d="M1800.06,620.244c0,-11.039 -8.962,-20 -20,-20c-11.039,0 -20,8.961 -20,20c0,11.038 8.961,20 20,20c11.038,0 20,-8.962 20,-20Z" style="fill:#fcd1d1;stroke-width:1px;stroke:#000;"/><path d="M1790.06,620.244c0,-5.52 -4.481,-10 -10,-10c-5.52,0 -10,4.48 -10,10c0,5.519 4.48,10 10,10c5.519,0 10,-4.481 10,-10Z" style="fill:#fc2e30;stroke-width:1px;stroke:#000;"/></g><g><path d="M1640.06,780.244c0,-11.039 -8.962,-20 -20,-20c-11.039,0 -20,8.961 -20,20c0,11.038 8.961,20 20,20c11.038,0 20,-8.962 20,-20Z" style="fill:#fcd1d1;stroke-width:1px;stroke:#000;"/><path d="M1630.06,780.244c0,-5.52 -4.481,-10 -10,-10c-5.52,0 -10,4.48 -10,10c0,5.519 4.48,10 10,10c5.519,0 10,-4.481 10,-10Z" style="fill:#fc2e30;stroke-width:1px;stroke:#000;"/></g><g><path d="M1080.06,700.244c0,-11.039 8.961,-20 20,-20c11.038,0 20,8.961 20,20c0,11.038 -8.962,20 -20,20c-11.039,0 -20,-8.962 -20,-20Z" style="fill:#fcd1d1;stroke-width:1px;stroke:#000;"/><path d="M1090.06,700.244c0,-5.52 4.48,-10 10,-10c5.519,0 10,4.48 10,10c0,5.519 -4.481,10 -10,10c-5.52,0 -10,-4.481 -10,-10Z" style="fill:#fc2e30;stroke-width:1px;stroke:#000;"/></g><g><path d="M960.061,680.244c0,-11.039 8.961,-20 20,-20c11.038,0 20,8.961 20,20c0,11.038 -8.962,20 -20,20c-11.039,0 -20,-8.962 -20,-20Z" style="fill:#fcd1d1;stroke-width:1px;stroke:#000;"/><path d="M970.061,680.244c0,-5.52 4.48,-10 10,-10c5.519,0 10,4.48 10,10c0,5.519 -4.481,10 -10,10c-5.52,0 -10,-4.481 -10,-10Z" style="fill:#fc2e30;stroke-width:1px;stroke:#000;"/></g><g><path d="M1000.06,520.244c0,-11.039 8.961,-20 20,-20c11.038,0 20,8.961 20,20c0,11.038 -8.962,20 -20,20c-11.039,0 -20,-8.962 -20,-20Z" style="fill:#fcd1d1;stroke-width:1px;stroke:#000;"/><path d="M1010.06,520.244c0,-5.52 4.48,-10 10,-10c5.519,0 10,4.48 10,10c0,5.519 -4.481,10 -10,10c-5.52,0 -10,-4.481 -10,-10Z" style="fill:#fc2e30;stroke-width:1px;stroke:#000;"/></g><g><path d="M260.061,920.244c0,-11.039 8.961,-20 20,-20c11.038,0 20,8.961 20,20c0,11.038 -8.962,20 -20,20c-11.039,0 -20,-8.962 -20,-20Z" style="fill:#fcd1d1;stroke-width:1px;stroke:#000;"/><path d="M270.061,920.244c0,-5.52 4.48,-10 10,-10c5.519,0 10,4.48 10,10c0,5.519 -4.481,10 -10,10c-5.52,0 -10,-4.481 -10,-10Z" style="fill:#fc2e30;stroke-width:1px;stroke:#000;"/></g><g><path d="M200.061,820.244c0,-11.039 8.961,-20 20,-20c11.038,0 20,8.961 20,20c0,11.038 -8.962,20 -20,20c-11.039,0 -20,-8.962 -20,-20Z" style="fill:#fcd1d1;stroke-width:1px;stroke:#000;"/><path d="M210.061,820.244c0,-5.52 4.48,-10 10,-10c5.519,0 10,4.48 10,10c0,5.519 -4.481,10 -10,10c-5.52,0 -10,-4.481 -10,-10Z" style="fill:#fc2e30;stroke-width:1px;stroke:#000;"/></g><g><path d="M360.061,980.244c0,-11.039 8.961,-20 20,-20c11.038,0 20,8.961 20,20c0,11.038 -8.962,20 -20,20c-11.039,0 -20,-8.962 -20,-20Z" style="fill:#fcd1d1;stroke-width:1px;stroke:#000;"/><path d="M370.061,980.244c0,-5.52 4.48,-10 10,-10c5.519,0 10,4.48 10,10c0,5.519 -4.481,10 -10,10c-5.52,0 -10,-4.481 -10,-10Z" style="fill:#fc2e30;stroke-width:1px;stroke:#000;"/></g><g><path d="M360.061,980.244c0,-11.039 8.961,-20 20,-20c11.038,0 20,8.961 20,20c0,11.038 -8.962,20 -20,20c-11.039,0 -20,-8.962 -20,-20Z" style="fill:#fcd1d1;stroke-width:1px;stroke:#000;"/><path d="M370.061,980.244c0,-5.52 4.48,-10 10,-10c5.519,0 10,4.48 10,10c0,5.519 -4.481,10 -10,10c-5.52,0 -10,-4.481 -10,-10Z" style="fill:#fc2e30;stroke-width:1px;stroke:#000;"/></g><g><path d="M980.061,350.244c0,-11.039 8.961,-20 20,-20c11.038,0 20,8.961 20,20c0,11.038 -8.962,20 -20,20c-11.039,0 -20,-8.962 -20,-20Z" style="fill:#fcd1d1;stroke-width:1px;stroke:#000;"/><path d="M990.061,350.244c0,-5.52 4.48,-10 10,-10c5.519,0 10,4.48 10,10c0,5.519 -4.481,10 -10,10c-5.52,0 -10,-4.481 -10,-10Z" style="fill:#fc2e30;stroke-width:1px;stroke:#000;"/></g><g><path d="M780.061,350.244c0,-11.039 8.961,-20 20,-20c11.038,0 20,8.961 20,20c0,11.038 -8.962,20 -20,20c-11.039,0 -20,-8.962 -20,-20Z" style="fill:#fcd1d1;stroke-width:1px;stroke:#000;"/><path d="M790.061,350.244c0,-5.52 4.48,-10 10,-10c5.519,0 10,4.48 10,10c0,5.519 -4.481,10 -10,10c-5.52,0 -10,-4.481 -10,-10Z" style="fill:#fc2e30;stroke-width:1px;stroke:#000;"/></g><g><path d="M780.061,200.244c0,-11.039 8.961,-20 20,-20c11.038,0 20,8.961 20,20c0,11.038 -8.962,20 -20,20c-11.039,0 -20,-8.962 -20,-20Z" style="fill:#fcd1d1;stroke-width:1px;stroke:#000;"/><path d="M790.061,200.244c0,-5.52 4.48,-10 10,-10c5.519,0 10,4.48 10,10c0,5.519 -4.481,10 -10,10c-5.52,0 -10,-4.481 -10,-10Z" style="fill:#fc2e30;stroke-width:1px;stroke:#000;"/></g><g><path d="M580.061,200.244c0,-11.039 8.961,-20 20,-20c11.038,0 20,8.961 20,20c0,11.038 -8.962,20 -20,20c-11.039,0 -20,-8.962 -20,-20Z" style="fill:#fcd1d1;stroke-width:1px;stroke:#000;"/><path d="M590.061,200.244c0,-5.52 4.48,-10 10,-10c5.519,0 10,4.48 10,10c0,5.519 -4.481,10 -10,10c-5.52,0 -10,-4.481 -10,-10Z" style="fill:#fc2e30;stroke-width:1px;stroke:#000;"/></g><g><path d="M580.061,350.244c0,-11.039 8.961,-20 20,-20c11.038,0 20,8.961 20,20c0,11.038 -8.962,20 -20,20c-11.039,0 -20,-8.962 -20,-20Z" style="fill:#fcd1d1;stroke-width:1px;stroke:#000;"/><path d="M590.061,350.244c0,-5.52 4.48,-10 10,-10c5.519,0 10,4.48 10,10c0,5.519 -4.481,10 -10,10c-5.52,0 -10,-4.481 -10,-10Z" style="fill:#fc2e30;stroke-width:1px;stroke:#000;"/></g><g><path d="M380.061,200.244c0,-11.039 8.961,-20 20,-20c11.038,0 20,8.961 20,20c0,11.038 -8.962,20 -20,20c-11.039,0 -20,-8.962 -20,-20Z" style="fill:#fcd1d1;stroke-width:1px;stroke:#000;"/><path d="M390.061,200.244c0,-5.52 4.48,-10 10,-10c5.519,0 10,4.48 10,10c0,5.519 -4.481,10 -10,10c-5.52,0 -10,-4.481 -10,-10Z" style="fill:#fc2e30;stroke-width:1px;stroke:#000;"/></g><g><path d="M380.061,350.244c0,-11.039 8.961,-20 20,-20c11.038,0 20,8.961 20,20c0,11.038 -8.962,20 -20,20c-11.039,0 -20,-8.962 -20,-20Z" style="fill:#fcd1d1;stroke-width:1px;stroke:#000;"/><path d="M390.061,350.244c0,-5.52 4.48,-10 10,-10c5.519,0 10,4.48 10,10c0,5.519 -4.481,10 -10,10c-5.52,0 -10,-4.481 -10,-10Z" style="fill:#fc2e30;stroke-width:1px;stroke:#000;"/></g><g><path d="M260.061,480.244c0,-11.039 8.961,-20 20,-20c11.038,0 20,8.961 20,20c0,11.038 -8.962,20 -20,20c-11.039,0 -20,-8.962 -20,-20Z" style="fill:#fcd1d1;stroke-width:1px;stroke:#000;"/><path d="M270.061,480.244c0,-5.52 4.48,-10 10,-10c5.519,0 10,4.48 10,10c0,5.519 -4.481,10 -10,10c-5.52,0 -10,-4.481 -10,-10Z" style="fill:#fc2e30;stroke-width:1px;stroke:#000;"/></g><g><path d="M200.061,580.244c0,-11.039 8.961,-20 20,-20c11.038,0 20,8.961 20,20c0,11.038 -8.962,20 -20,20c-11.039,0 -20,-8.962 -20,-20Z" style="fill:#fcd1d1;stroke-width:1px;stroke:#000;"/><path d="M210.061,580.244c0,-5.52 4.48,-10 10,-10c5.519,0 10,4.48 10,10c0,5.519 -4.481,10 -10,10c-5.52,0 -10,-4.481 -10,-10Z" style="fill:#fc2e30;stroke-width:1px;stroke:#000;"/></g><g><path d="M360.061,420.244c0,-11.039 8.961,-20 20,-20c11.038,0 20,8.961 20,20c0,11.038 -8.962,20 -20,20c-11.039,0 -20,-8.962 -20,-20Z" style="fill:#fcd1d1;stroke-width:1px;stroke:#000;"/><path d="M370.061,420.244c0,-5.52 4.48,-10 10,-10c5.519,0 10,4.48 10,10c0,5.519 -4.481,10 -10,10c-5.52,0 -10,-4.481 -10,-10Z" style="fill:#fc2e30;stroke-width:1px;stroke:#000;"/></g><g><path d="M880.061,500.244c0,-11.039 8.961,-20 20,-20c11.038,0 20,8.961 20,20c0,11.038 -8.962,20 -20,20c-11.039,0 -20,-8.962 -20,-20Z" style="fill:#fcd1d1;stroke-width:1px;stroke:#000;"/><path d="M890.061,500.244c0,-5.52 4.48,-10 10,-10c5.519,0 10,4.48 10,10c0,5.519 -4.481,10 -10,10c-5.52,0 -10,-4.481 -10,-10Z" style="fill:#fc2e30;stroke-width:1px;stroke:#000;"/></g><g><path d="M1180.06,350.244c0,-11.039 8.961,-20 20,-20c11.038,0 20,8.961 20,20c0,11.038 -8.962,20 -20,20c-11.039,0 -20,-8.962 -20,-20Z" style="fill:#fcd1d1;stroke-width:1px;stroke:#000;"/><path d="M1190.06,350.244c0,-5.52 4.48,-10 10,-10c5.519,0 10,4.48 10,10c0,5.519 -4.481,10 -10,10c-5.52,0 -10,-4.481 -10,-10Z" style="fill:#fc2e30;stroke-width:1px;stroke:#000;"/></g><g><path d="M1180.06,200.244c0,-11.039 8.961,-20 20,-20c11.038,0 20,8.961 20,20c0,11.038 -8.962,20 -20,20c-11.039,0 -20,-8.962 -20,-20Z" style="fill:#fcd1d1;stroke-width:1px;stroke:#000;"/><path d="M1190.06,200.244c0,-5.52 4.48,-10 10,-10c5.519,0 10,4.48 10,10c0,5.519 -4.481,10 -10,10c-5.52,0 -10,-4.481 -10,-10Z" style="fill:#fc2e30;stroke-width:1px;stroke:#000;"/></g><g><path d="M980.061,200.244c0,-11.039 8.961,-20 20,-20c11.038,0 20,8.961 20,20c0,11.038 -8.962,20 -20,20c-11.039,0 -20,-8.962 -20,-20Z" style="fill:#fcd1d1;stroke-width:1px;stroke:#000;"/><path d="M990.061,200.244c0,-5.52 4.48,-10 10,-10c5.519,0 10,4.48 10,10c0,5.519 -4.481,10 -10,10c-5.52,0 -10,-4.481 -10,-10Z" style="fill:#fc2e30;stroke-width:1px;stroke:#000;"/></g><g><path d="M180.36,700.244c0,-11.039 8.961,-20 20,-20c11.038,0 20,8.961 20,20c0,11.038 -8.962,20 -20,20c-11.039,0 -20,-8.962 -20,-20Z" style="fill:#fcd1d1;stroke-width:1px;stroke:#000;"/><path d="M190.36,700.244c0,-5.52 4.48,-10 10,-10c5.519,0 10,4.48 10,10c0,5.519 -4.481,10 -10,10c-5.52,0 -10,-4.481 -10,-10Z" style="fill:#fc2e30;stroke-width:1px;stroke:#000;"/></g><g><path d="M1260.06,580.244c0,-11.039 8.961,-20 20,-20c11.038,0 20,8.961 20,20c0,11.038 -8.962,20 -20,20c-11.039,0 -20,-8.962 -20,-20Z" style="fill:#fcd1d1;stroke-width:1px;stroke:#000;"/><path d="M1270.06,580.244c0,-5.52 4.48,-10 10,-10c5.519,0 10,4.48 10,10c0,5.519 -4.481,10 -10,10c-5.52,0 -10,-4.481 -10,-10Z" style="fill:#fc2e30;stroke-width:1px;stroke:#000;"/></g><g><path d="M480.36,400.244c0,-11.039 8.961,-20 20,-20c11.038,0 20,8.961 20,20c0,11.038 -8.962,20 -20,20c-11.039,0 -20,-8.962 -20,-20Z" style="fill:#fcd1d1;stroke-width:1px;stroke:#000;"/><path d="M490.36,400.244c0,-5.52 4.48,-10 10,-10c5.519,0 10,4.48 10,10c0,5.519 -4.481,10 -10,10c-5.52,0 -10,-4.481 -10,-10Z" style="fill:#fc2e30;stroke-width:1px;stroke:#000;"/></g><g><path d="M1480.36,200.244c0,-11.039 8.961,-20 20,-20c11.038,0 20,8.961 20,20c0,11.038 -8.962,20 -20,20c-11.039,0 -20,-8.962 -20,-20Z" style="fill:#fcd1d1;stroke-width:1px;stroke:#000;"/><path d="M1490.36,200.244c0,-5.52 4.48,-10 10,-10c5.519,0 10,4.48 10,10c0,5.519 -4.481,10 -10,10c-5.52,0 -10,-4.481 -10,-10Z" style="fill:#fc2e30;stroke-width:1px;stroke:#000;"/></g><g><path d="M480.061,700.244c0,-11.039 8.961,-20 20,-20c11.038,0 20,8.961 20,20c0,11.038 -8.962,20 -20,20c-11.039,0 -20,-8.962 -20,-20Z" style="fill:#fcd1d1;stroke-width:1px;stroke:#000;"/><path d="M490.061,700.244c0,-5.52 4.48,-10 10,-10c5.519,0 10,4.48 10,10c0,5.519 -4.481,10 -10,10c-5.52,0 -10,-4.481 -10,-10Z" style="fill:#fc2e30;stroke-width:1px;stroke:#000;"/></g><g><path d="M480.36,1000.24c0,-11.039 8.961,-20 20,-20c11.038,0 20,8.961 20,20c0,11.038 -8.962,20 -20,20c-11.039,0 -20,-8.962 -20,-20Z" style="fill:#fcd1d1;stroke-width:1px;stroke:#000;"/><path d="M490.36,1000.24c0,-5.52 4.48,-10 10,-10c5.519,0 10,4.48 10,10c0,5.519 -4.481,10 -10,10c-5.52,0 -10,-4.481 -10,-10Z" style="fill:#fc2e30;stroke-width:1px;stroke:#000;"/></g><g><path d="M1480.36,800.244c0,-11.039 8.961,-20 20,-20c11.038,0 20,8.961 20,20c0,11.038 -8.962,20 -20,20c-11.039,0 -20,-8.962 -20,-20Z" style="fill:#fcd1d1;stroke-width:1px;stroke:#000;"/><path d="M1490.36,800.244c0,-5.52 4.48,-10 10,-10c5.519,0 10,4.48 10,10c0,5.519 -4.481,10 -10,10c-5.52,0 -10,-4.481 -10,-10Z" style="fill:#fc2e30;stroke-width:1px;stroke:#000;"/></g></g><g><rect x="982.932" y="1230.64" width="100" height="4.5" style="fill:#000;"/><rect x="1030.68" y="1232.89" width="4.5" height="50" style="fill:#000;"/></g><g id="grid"><g id="bold lines"><path d="M700.061,100.244l0,2800" style="fill:none;stroke-width:1px;stroke-miterlimit:1;stroke:#000;stroke-opacity:0.298039;"/><path d="M100.061,700.244l2600,0" style="fill:none;stroke-width:1px;stroke-miterlimit:1;stroke:#000;stroke-opacity:0.298039;"/><path d="M1200.06,100.244l0,2800" style="fill:none;stroke-width:1px;stroke-miterlimit:1;stroke:#000;stroke-opacity:0.298039;"/><path d="M1700.06,100.244l0,2800" style="fill:none;stroke-width:1px;stroke-miterlimit:1;stroke:#000;stroke-opacity:0.298039;"/><path d="M2200.06,100.244l0,2800" style="fill:none;stroke-width:1px;stroke-miterlimit:1;stroke:#000;stroke-opacity:0.298039;"/><path d="M100.061,1200.24l2600,0" style="fill:none;stroke-width:1px;stroke-miterlimit:1;stroke:#000;stroke-opacity:0.298039;"/><path d="M100.061,200.244l2600,0" style="fill:none;stroke-width:1px;stroke-miterlimit:1;stroke:#000;stroke-opacity:0.298039;"/><path d="M200.061,2900.24l0,-2800" style="fill:none;stroke-width:1px;stroke-miterlimit:1;stroke:#000;stroke-opacity:0.298039;"/></g><g id="vertical lines"><path d="M100.061,100.244l0,2800" style="fill:none;stroke-width:1px;stroke-linejoin:miter;stroke-miterlimit:1;stroke-dasharray:10,44,2,44;stroke-dashoffset:5;stroke:#000;"/><path d="M700.061,100.244l0,2800" style="fill:none;stroke-width:1px;stroke-linejoin:miter;stroke-miterlimit:1;stroke-dasharray:10,44,2,44;stroke-dashoffset:5;stroke:#000;"/><path d="M1300.06,100.244l0,2800" style="fill:none;stroke-width:1px;stroke-linejoin:miter;stroke-miterlimit:1;stroke-dasharray:10,44,2,44;stroke-dashoffset:5;stroke:#000;"/><path d="M1900.06,100.244l0,2800" style="fill:none;stroke-width:1px;stroke-linejoin:miter;stroke-miterlimit:1;stroke-dasharray:10,44,2,44;stroke-dashoffset:5;stroke:#000;"/><path d="M300.061,100.244l0,2800" style="fill:none;stroke-width:1px;stroke-linejoin:miter;stroke-miterlimit:1;stroke-dasharray:10,44,2,44;stroke-dashoffset:5;stroke:#000;"/><path d="M900.061,100.244l0,2800" style="fill:none;stroke-width:1px;stroke-linejoin:miter;stroke-miterlimit:1;stroke-dasharray:10,44,2,44;stroke-dashoffset:5;stroke:#000;"/><path d="M1500.06,100.244l0,2800" style="fill:none;stroke-width:1px;stroke-linejoin:miter;stroke-miterlimit:1;stroke-dasharray:10,44,2,44;stroke-dashoffset:5;stroke:#000;"/><path d="M2100.06,100.244l0,2800" style="fill:none;stroke-width:1px;stroke-linejoin:miter;stroke-miterlimit:1;stroke-dasharray:10,44,2,44;stroke-dashoffset:5;stroke:#000;"/><path d="M500.061,100.244l0,2800" style="fill:none;stroke-width:1px;stroke-linejoin:miter;stroke-miterlimit:1;stroke-dasharray:10,44,2,44;stroke-dashoffset:5;stroke:#000;"/><path d="M1100.06,100.244l0,2800" style="fill:none;stroke-width:1px;stroke-linejoin:miter;stroke-miterlimit:1;stroke-dasharray:10,44,2,44;stroke-dashoffset:5;stroke:#000;"/><path d="M1700.06,100.244l0,2800" style="fill:none;stroke-width:1px;stroke-linejoin:miter;stroke-miterlimit:1;stroke-dasharray:10,44,2,44;stroke-dashoffset:5;stroke:#000;"/><path d="M2300.06,100.244l0,2800" style="fill:none;stroke-width:1px;stroke-linejoin:miter;stroke-miterlimit:1;stroke-dasharray:10,44,2,44;stroke-dashoffset:5;stroke:#000;"/><path d="M200.061,100.244l0,2800" style="fill:none;stroke-width:1px;stroke-linejoin:miter;stroke-miterlimit:1;stroke-dasharray:10,44,2,44;stroke-dashoffset:5;stroke:#000;"/><path d="M800.061,100.244l0,2800" style="fill:none;stroke-width:1px;stroke-linejoin:miter;stroke-miterlimit:1;stroke-dasharray:10,44,2,44;stroke-dashoffset:5;stroke:#000;"/><path d="M1400.06,100.244l0,2800" style="fill:none;stroke-width:1px;stroke-linejoin:miter;stroke-miterlimit:1;stroke-dasharray:10,44,2,44;stroke-dashoffset:5;stroke:#000;"/><path d="M2000.06,100.244l0,2800" style="fill:none;stroke-width:1px;stroke-linejoin:miter;stroke-miterlimit:1;stroke-dasharray:10,44,2,44;stroke-dashoffset:5;stroke:#000;"/><path d="M400.061,100.244l0,2800" style="fill:none;stroke-width:1px;stroke-linejoin:miter;stroke-miterlimit:1;stroke-dasharray:10,44,2,44;stroke-dashoffset:5;stroke:#000;"/><path d="M1000.06,100.244l0,2800" style="fill:none;stroke-width:1px;stroke-linejoin:miter;stroke-miterlimit:1;stroke-dasharray:10,44,2,44;stroke-dashoffset:5;stroke:#000;"/><path d="M1600.06,100.244l0,2800" style="fill:none;stroke-width:1px;stroke-linejoin:miter;stroke-miterlimit:1;stroke-dasharray:10,44,2,44;stroke-dashoffset:5;stroke:#000;"/><path d="M2200.06,100.244l0,2800" style="fill:none;stroke-width:1px;stroke-linejoin:miter;stroke-miterlimit:1;stroke-dasharray:10,44,2,44;stroke-dashoffset:5;stroke:#000;"/><path d="M600.061,100.244l0,2800" style="fill:none;stroke-width:1px;stroke-linejoin:miter;stroke-miterlimit:1;stroke-dasharray:10,44,2,44;stroke-dashoffset:5;stroke:#000;"/><path d="M1200.06,100.244l0,2800" style="fill:none;stroke-width:1px;stroke-linejoin:miter;stroke-miterlimit:1;stroke-dasharray:10,44,2,44;stroke-dashoffset:5;stroke:#000;"/><path d="M1800.06,100.244l0,2800" style="fill:none;stroke-width:1px;stroke-linejoin:miter;stroke-miterlimit:1;stroke-dasharray:10,44,2,44;stroke-dashoffset:5;stroke:#000;"/></g><g id="horizontal lines"><path d="M100.061,100.244l2600,0" style="fill:none;stroke-width:1px;stroke-dasharray:10,44,2,44;stroke-dashoffset:5;stroke:#000;"/><path d="M100.061,500.244l2600,0" style="fill:none;stroke-width:1px;stroke-dasharray:10,44,2,44;stroke-dashoffset:5;stroke:#000;"/><path d="M100.061,900.244l2600,0" style="fill:none;stroke-width:1px;stroke-dasharray:10,44,2,44;stroke-dashoffset:5;stroke:#000;"/><path d="M100.061,1300.24l2600,0" style="fill:none;stroke-width:1px;stroke-dasharray:10,44,2,44;stroke-dashoffset:5;stroke:#000;"/><path d="M2700.06,200.244l-2600,0" style="fill:none;stroke-width:1px;stroke-dasharray:10,44,2,44;stroke-dashoffset:5;stroke:#000;"/><path d="M2700.06,600.244l-2600,0" style="fill:none;stroke-width:1px;stroke-dasharray:10,44,2,44;stroke-dashoffset:5;stroke:#000;"/><path d="M2700.06,1000.24l-2600,0" style="fill:none;stroke-width:1px;stroke-dasharray:10,44,2,44;stroke-dashoffset:5;stroke:#000;"/><path d="M100.061,300.244l2600,0" style="fill:none;stroke-width:1px;stroke-dasharray:10,44,2,44;stroke-dashoffset:5;stroke:#000;"/><path d="M100.061,700.244l2600,0" style="fill:none;stroke-width:1px;stroke-dasharray:10,44,2,44;stroke-dashoffset:5;stroke:#000;"/><path d="M100.061,1100.24l2600,0" style="fill:none;stroke-width:1px;stroke-dasharray:10,44,2,44;stroke-dashoffset:5;stroke:#000;"/><path d="M100.061,400.244l2600,0" style="fill:none;stroke-width:1px;stroke-dasharray:10,44,2,44;stroke-dashoffset:5;stroke:#000;"/><path d="M100.061,800.244l2600,0" style="fill:none;stroke-width:1px;stroke-dasharray:10,44,2,44;stroke-dashoffset:5;stroke:#000;"/><path d="M100.061,1200.24l2600,0" style="fill:none;stroke-width:1px;stroke-dasharray:10,44,2,44;stroke-dashoffset:5;stroke:#000;"/></g><g id="top labels"><rect x="150.061" y="50.244" width="100" height="50" style="fill:#808080;stroke-width:1px;stroke:#000;"/><rect x="650.061" y="50.244" width="100" height="50" style="fill:#808080;stroke-width:1px;stroke:#000;"/><rect x="1150.06" y="50.244" width="100" height="50" style="fill:#808080;stroke-width:1px;stroke:#000;"/><rect x="1650.06" y="50.244" width="100" height="50" style="fill:#808080;stroke-width:1px;stroke:#000;"/><rect x="2150.06" y="50.244" width="100" height="50" style="fill:#808080;stroke-width:1px;stroke:#000;"/><rect x="250.061" y="50.244" width="100" height="50" style="fill:#808080;stroke-width:1px;stroke:#000;"/><rect x="750.061" y="50.244" width="100" height="50" style="fill:#808080;stroke-width:1px;stroke:#000;"/><rect x="1250.06" y="50.244" width="100" height="50" style="fill:#808080;stroke-width:1px;stroke:#000;"/><rect x="1750.06" y="50.244" width="100" height="50" style="fill:#808080;stroke-width:1px;stroke:#000;"/><rect x="2250.06" y="50.244" width="100" height="50" style="fill:#808080;stroke-width:1px;stroke:#000;"/><rect x="350.061" y="50.244" width="100" height="50" style="fill:#808080;stroke-width:1px;stroke:#000;"/><rect x="850.061" y="50.244" width="100" height="50" style="fill:#808080;stroke-width:1px;stroke:#000;"/><rect x="1350.06" y="50.244" width="100" height="50" style="fill:#808080;stroke-width:1px;stroke:#000;"/><rect x="1850.06" y="50.244" width="100" height="50" style="fill:#808080;stroke-width:1px;stroke:#000;"/><rect x="450.061" y="50.244" width="100" height="50" style="fill:#808080;stroke-width:1px;stroke:#000;"/><rect x="950.061" y="50.244" width="100" height="50" style="fill:#808080;stroke-width:1px;stroke:#000;"/><rect x="1450.06" y="50.244" width="100" height="50" style="fill:#808080;stroke-width:1px;stroke:#000;"/><rect x="1950.06" y="50.244" width="100" height="50" style="fill:#808080;stroke-width:1px;stroke:#000;"/><rect x="550.061" y="50.244" width="100" height="50" style="fill:#808080;stroke-width:1px;stroke:#000;"/><rect x="1050.06" y="50.244" width="100" height="50" style="fill:#808080;stroke-width:1px;stroke:#000;"/><rect x="1550.06" y="50.244" width="100" height="50" style="fill:#808080;stroke-width:1px;stroke:#000;"/><rect x="2050.06" y="50.244" width="100" height="50" style="fill:#808080;stroke-width:1px;stroke:#000;"/><text x="188.07px" y="89.323px" style="font-family:'ArialMT';font-size:36px;fill:#000;stroke-width:1px;stroke:#000;">A</text><text x="688.07px" y="89.323px" style="font-family:'ArialMT';font-size:36px;fill:#000;stroke-width:1px;stroke:#000;">F</text><text x="1188.07px" y="89.323px" style="font-family:'ArialMT';font-size:36px;fill:#000;stroke-width:1px;stroke:#000;">K</text><text x="1688.07px" y="89.323px" style="font-family:'ArialMT';font-size:36px;fill:#000;stroke-width:1px;stroke:#000;">P</text><text x="2188.07px" y="89.323px" style="font-family:'ArialMT';font-size:36px;fill:#000;stroke-width:1px;stroke:#000;">U</text><text x="288.07px" y="89.323px" style="font-family:'ArialMT';font-size:36px;fill:#000;stroke-width:1px;stroke:#000;">B</text><text x="788.07px" y="89.323px" style="font-family:'ArialMT';font-size:36px;fill:#000;stroke-width:1px;stroke:#000;">G</text><text x="1288.07px" y="89.323px" style="font-family:'ArialMT';font-size:36px;fill:#000;stroke-width:1px;stroke:#000;">L</text><text x="1788.07px" y="89.323px" style="font-family:'ArialMT';font-size:36px;fill:#000;stroke-width:1px;stroke:#000;">Q</text><text x="2288.07px" y="89.323px" style="font-family:'ArialMT';font-size:36px;fill:#000;stroke-width:1px;stroke:#000;">V</text><text x="388.07px" y="89.323px" style="font-family:'ArialMT';font-size:36px;fill:#000;stroke-width:1px;stroke:#000;">C</text><text x="888.07px" y="89.323px" style="font-family:'ArialMT';font-size:36px;fill:#000;stroke-width:1px;stroke:#000;">H</text><text x="1388.07px" y="89.323px" style="font-family:'ArialMT';font-size:36px;fill:#000;stroke-width:1px;stroke:#000;">M</text><text x="1888.07px" y="89.323px" style="font-family:'ArialMT';font-size:36px;fill:#000;stroke-width:1px;stroke:#000;">R</text><text x="488.07px" y="89.323px" style="font-family:'ArialMT';font-size:36px;fill:#000;stroke-width:1px;stroke:#000;">D</text><text x="995.075px" y="89.323px" style="font-family:'ArialMT';font-size:36px;fill:#000;stroke-width:1px;stroke:#000;">I</text><text x="1488.07px" y="89.323px" style="font-family:'ArialMT';font-size:36px;fill:#000;stroke-width:1px;stroke:#000;">N</text><text x="1988.07px" y="89.323px" style="font-family:'ArialMT';font-size:36px;fill:#000;stroke-width:1px;stroke:#000;">S</text><text x="588.07px" y="89.323px" style="font-family:'ArialMT';font-size:36px;fill:#000;stroke-width:1px;stroke:#000;">E</text><text x="1088.07px" y="89.323px" style="font-family:'ArialMT';font-size:36px;fill:#000;stroke-width:1px;stroke:#000;">J</text><text x="1588.07px" y="89.323px" style="font-family:'ArialMT';font-size:36px;fill:#000;stroke-width:1px;stroke:#000;">O</text><text x="2088.07px" y="89.323px" style="font-family:'ArialMT';font-size:36px;fill:#000;stroke-width:1px;stroke:#000;">T</text></g><g id="top numbers"><text x="292.829px" y="46.005px" style="font-family:'ArialMT';font-size:20px;fill:#000;stroke-width:1px;stroke:#000;">1</text><text x="194.499px" y="46.005px" style="font-family:'ArialMT';font-size:20px;fill:#000;stroke-width:1px;stroke:#000;">0</text><text x="792.829px" y="46.005px" style="font-family:'ArialMT';font-size:20px;fill:#000;stroke-width:1px;stroke:#000;">6</text><text x="1288.18px" y="46.005px" style="font-family:'ArialMT';font-size:20px;fill:#000;stroke-width:1px;stroke:#000;">1<tspan x="1297.82px " y="46.005px ">1</tspan></text><text x="1788.94px" y="46.005px" style="font-family:'ArialMT';font-size:20px;fill:#000;stroke-width:1px;stroke:#000;">16</text><text x="2288.94px" y="46.005px" style="font-family:'ArialMT';font-size:20px;fill:#000;stroke-width:1px;stroke:#000;">21</text><text x="392.829px" y="46.005px" style="font-family:'ArialMT';font-size:20px;fill:#000;stroke-width:1px;stroke:#000;">2</text><text x="893.376px" y="46.005px" style="font-family:'ArialMT';font-size:20px;fill:#000;stroke-width:1px;stroke:#000;">7</text><text x="1388.94px" y="46.005px" style="font-family:'ArialMT';font-size:20px;fill:#000;stroke-width:1px;stroke:#000;">12</text><text x="1887.82px" y="46.005px" style="font-family:'ArialMT';font-size:20px;fill:#000;stroke-width:1px;stroke:#000;">17</text><text x="492.829px" y="46.005px" style="font-family:'ArialMT';font-size:20px;fill:#000;stroke-width:1px;stroke:#000;">3</text><text x="993.376px" y="46.005px" style="font-family:'ArialMT';font-size:20px;fill:#000;stroke-width:1px;stroke:#000;">8</text><text x="1488.94px" y="46.005px" style="font-family:'ArialMT';font-size:20px;fill:#000;stroke-width:1px;stroke:#000;">13</text><text x="1987.82px" y="46.005px" style="font-family:'ArialMT';font-size:20px;fill:#000;stroke-width:1px;stroke:#000;">18</text><text x="592.829px" y="46.005px" style="font-family:'ArialMT';font-size:20px;fill:#000;stroke-width:1px;stroke:#000;">4</text><text x="1093.38px" y="46.005px" style="font-family:'ArialMT';font-size:20px;fill:#000;stroke-width:1px;stroke:#000;">9</text><text x="1588.94px" y="46.005px" style="font-family:'ArialMT';font-size:20px;fill:#000;stroke-width:1px;stroke:#000;">14</text><text x="2087.82px" y="46.005px" style="font-family:'ArialMT';font-size:20px;fill:#000;stroke-width:1px;stroke:#000;">19</text><text x="692.829px" y="46.005px" style="font-family:'ArialMT';font-size:20px;fill:#000;stroke-width:1px;stroke:#000;">5</text><text x="1188.94px" y="46.005px" style="font-family:'ArialMT';font-size:20px;fill:#000;stroke-width:1px;stroke:#000;">10</text><text x="1687.82px" y="46.005px" style="font-family:'ArialMT';font-size:20px;fill:#000;stroke-width:1px;stroke:#000;">15</text><text x="2187.82px" y="46.005px" style="font-family:'ArialMT';font-size:20px;fill:#000;stroke-width:1px;stroke:#000;">20</text></g><g id="side labels"><rect x="50.061" y="250.244" width="50" height="100" style="fill:#808080;stroke-width:1px;stroke:#000;"/><rect x="50.061" y="150.244" width="50" height="100" style="fill:#808080;stroke-width:1px;stroke:#000;"/><rect x="50.061" y="650.244" width="50" height="100" style="fill:#808080;stroke-width:1px;stroke:#000;"/><rect x="50.061" y="1050.24" width="50" height="100" style="fill:#808080;stroke-width:1px;stroke:#000;"/><rect x="50.061" y="350.244" width="50" height="100" style="fill:#808080;stroke-width:1px;stroke:#000;"/><rect x="50.061" y="750.244" width="50" height="100" style="fill:#808080;stroke-width:1px;stroke:#000;"/><rect x="50.061" y="1150.24" width="50" height="100" style="fill:#808080;stroke-width:1px;stroke:#000;"/><rect x="50.061" y="450.244" width="50" height="100" style="fill:#808080;stroke-width:1px;stroke:#000;"/><rect x="50.061" y="850.244" width="50" height="100" style="fill:#808080;stroke-width:1px;stroke:#000;"/><rect x="50.061" y="1250.24" width="50" height="100" style="fill:#808080;stroke-width:1px;stroke:#000;"/><rect x="50.061" y="550.244" width="50" height="100" style="fill:#808080;stroke-width:1px;stroke:#000;"/><rect x="50.061" y="950.244" width="50" height="100" style="fill:#808080;stroke-width:1px;stroke:#000;"/><text x="65.045px" y="312.615px" style="font-family:'ArialMT';font-size:36px;fill:#000;stroke-width:1px;stroke:#000;">1</text><text x="65.045px" y="212.615px" style="font-family:'ArialMT';font-size:36px;fill:#000;stroke-width:1px;stroke:#000;">0</text><text x="65.045px" y="712.615px" style="font-family:'ArialMT';font-size:36px;fill:#000;stroke-width:1px;stroke:#000;">5</text><text x="65.045px" y="1112.62px" style="font-family:'ArialMT';font-size:36px;fill:#000;stroke-width:1px;stroke:#000;">9</text><text x="65.045px" y="412.615px" style="font-family:'ArialMT';font-size:36px;fill:#000;stroke-width:1px;stroke:#000;">2</text><text x="65.045px" y="812.615px" style="font-family:'ArialMT';font-size:36px;fill:#000;stroke-width:1px;stroke:#000;">6</text><text x="55.035px" y="1212.62px" style="font-family:'ArialMT';font-size:36px;fill:#000;stroke-width:1px;stroke:#000;">10</text><text x="65.045px" y="512.615px" style="font-family:'ArialMT';font-size:36px;fill:#000;stroke-width:1px;stroke:#000;">3</text><text x="65.045px" y="912.615px" style="font-family:'ArialMT';font-size:36px;fill:#000;stroke-width:1px;stroke:#000;">7</text><text x="56.37px" y="1312.62px" style="font-family:'ArialMT';font-size:36px;fill:#000;stroke-width:1px;stroke:#000;">1<tspan x="73.72px " y="1312.62px ">1</tspan></text><text x="65.045px" y="612.615px" style="font-family:'ArialMT';font-size:36px;fill:#000;stroke-width:1px;stroke:#000;">4</text><text x="65.045px" y="1012.62px" style="font-family:'ArialMT';font-size:36px;fill:#000;stroke-width:1px;stroke:#000;">8</text></g><rect x="0.061" y="0.244" width="100" height="100" style="fill:none;stroke-width:1px;stroke-miterlimit:1;stroke:#000;"/><rect x="50.061" y="50.244" width="100" height="100" style="fill:#808080;stroke-width:1px;stroke:#000;"/><text x="55.607px" y="126.087px" style="font-family:'ArialMT';font-size:64px;fill:#000;stroke-width:1px;stroke:#000;">1m</text></g></g></svg>