<?xml version="1.0" standalone="no"?><!DOCTYPE svg PUBLIC "-//W3C//DTD SVG 1.1//EN" "http://www.w3.org/Graphics/SVG/1.1/DTD/svg11.dtd"><svg width="100%" height="100%" viewBox="0 0 2301 1301" version="1.1" xmlns="http://www.w3.org/2000/svg" xmlns:xlink="http://www.w3.org/1999/xlink" xml:space="preserve" style="fill-rule:evenodd;clip-rule:evenodd;stroke-linejoin:round;stroke-miterlimit:1.41421;"><clipPath id="_clip1"><rect id="serpentine" x="0.654" y="0.244" width="2300" height="1300"/></clipPath><g clip-path="url(#_clip1)"><path d="M1100.65,1100.24c23.394,-296.243 -185.748,-375.964 -300,-350c-67.01,15.227 -150,58.333 -200,50c-46.499,-7.75 -95.482,-46.12 -100,-100c4.493,-49.823 53.093,-104.691 100,-100c166.666,16.666 900,200 900,200c178.347,-14.296 286.138,-105.774 300,-300c-17.212,-191.454 -120.983,-287.289 -300,-300l-1100,0" style="fill:none;stroke-width:4.5px;stroke:#000;"/><g><circle cx="500.654" cy="700.244" r="300" style="fill:none;stroke-width:4.5px;stroke:#000;stroke-opacity:0.0980392;"/><circle cx="1500.65" cy="500.244" r="300" style="fill:none;stroke-width:4.5px;stroke:#000;stroke-opacity:0.0980392;"/><path d="M700.654,1000.24c0,-55.192 44.808,-100 100,-100c55.191,0 100,44.808 100,100c0,55.191 -44.809,100 -100,100c-55.192,0 -100,-44.809 -100,-100Z" style="fill:none;stroke-width:4.5px;stroke:#000;stroke-opacity:0.0980392;"/></g><path d="M950.654,1100.24c-2.596,-67.122 -34.275,-191.423 -150,-200c-91.473,1.523 -194.592,99.594 -300,100c-106.188,0.408 -287.037,-70.339 -300,-300c16.226,-175.628 110.024,-281.226 300,-300c298.407,67.204 730.438,181.93 900,200c71.493,7.618 119.67,-75.279 120,-120c0.422,-57.222 -42.219,-124.775 -120,-130c-73.112,-4.912 -147.773,1.73 -300,0c-167.064,-1.899 -700,0 -700,0" style="fill:none;stroke-width:4.5px;stroke:#000;"/><path d="M1030.65,1220.24c0.118,-49.109 0.355,-147.325 -10,-220c-11.745,-82.424 -44.17,-149.066 -130,-170c-113.525,-27.69 -283.368,96.72 -390,110c-314.617,39.181 -327.047,-508.598 10,-480c167.689,14.227 786.928,251.046 990,290c145.668,27.942 256.371,-150.389 250,-250c-6.372,-99.605 -96.637,-253.188 -250,-240c-80.634,6.933 -130.449,9.44 -290,10c-228.241,0.8 -709.414,0.266 -950,0" style="fill:none;stroke-width:8px;stroke-dasharray:24,48,0,0;stroke:#14a90c;stroke-opacity:0.698039;"/><g id="Layer3"><g><path d="M780.654,900.244c0,-11.039 8.961,-20 20,-20c11.038,0 20,8.961 20,20c0,11.038 -8.962,20 -20,20c-11.039,0 -20,-8.962 -20,-20Z" style="fill:#fcd1d1;stroke-width:1px;stroke:#000;"/><path d="M790.654,900.244c0,-5.52 4.48,-10 10,-10c5.519,0 10,4.48 10,10c0,5.519 -4.481,10 -10,10c-5.52,0 -10,-4.481 -10,-10Z" style="fill:#fc2e30;stroke-width:1px;stroke:#000;"/></g><g><path d="M700.654,920.244c0,-11.039 8.961,-20 20,-20c11.038,0 20,8.961 20,20c0,11.038 -8.962,20 -20,20c-11.039,0 -20,-8.962 -20,-20Z" style="fill:#fcd1d1;stroke-width:1px;stroke:#000;"/><path d="M710.654,920.244c0,-5.52 4.48,-10 10,-10c5.519,0 10,4.48 10,10c0,5.519 -4.481,10 -10,10c-5.52,0 -10,-4.481 -10,-10Z" style="fill:#fc2e30;stroke-width:1px;stroke:#000;"/></g><g><path d="M560.654,980.244c0,-11.039 8.961,-20 20,-20c11.038,0 20,8.961 20,20c0,11.038 -8.962,20 -20,20c-11.039,0 -20,-8.962 -20,-20Z" style="fill:#fcd1d1;stroke-width:1px;stroke:#000;"/><path d="M570.654,980.244c0,-5.52 4.48,-10 10,-10c5.519,0 10,4.48 10,10c0,5.519 -4.481,10 -10,10c-5.52,0 -10,-4.481 -10,-10Z" style="fill:#fc2e30;stroke-width:1px;stroke:#000;"/></g><g><path d="M930.654,1100.24c0,-11.039 8.961,-20 20,-20c11.038,0 20,8.961 20,20c0,11.038 -8.962,20 -20,20c-11.039,0 -20,-8.962 -20,-20Z" style="fill:#fcd1d1;stroke-width:1px;stroke:#000;"/><path d="M940.654,1100.24c0,-5.52 4.48,-10 10,-10c5.519,0 10,4.48 10,10c0,5.519 -4.481,10 -10,10c-5.52,0 -10,-4.481 -10,-10Z" style="fill:#fc2e30;stroke-width:1px;stroke:#000;"/></g><g><path d="M900.654,980.244c0,-11.039 8.961,-20 20,-20c11.038,0 20,8.961 20,20c0,11.038 -8.962,20 -20,20c-11.039,0 -20,-8.962 -20,-20Z" style="fill:#fcd1d1;stroke-width:1px;stroke:#000;"/><path d="M910.654,980.244c0,-5.52 4.48,-10 10,-10c5.519,0 10,4.48 10,10c0,5.519 -4.481,10 -10,10c-5.52,0 -10,-4.481 -10,-10Z" style="fill:#fc2e30;stroke-width:1px;stroke:#000;"/></g><g><path d="M1420.65,600.244c0,-11.039 -8.962,-20 -20,-20c-11.039,0 -20,8.961 -20,20c0,11.038 8.961,20 20,20c11.038,0 20,-8.962 20,-20Z" style="fill:#fcd1d1;stroke-width:1px;stroke:#000;"/><path d="M1410.65,600.244c0,-5.52 -4.481,-10 -10,-10c-5.52,0 -10,4.48 -10,10c0,5.519 4.48,10 10,10c5.519,0 10,-4.481 10,-10Z" style="fill:#fc2e30;stroke-width:1px;stroke:#000;"/></g><g><path d="M1820.65,500.244c0,-11.039 -8.962,-20 -20,-20c-11.039,0 -20,8.961 -20,20c0,11.038 8.961,20 20,20c11.038,0 20,-8.962 20,-20Z" style="fill:#fcd1d1;stroke-width:1px;stroke:#000;"/><path d="M1810.65,500.244c0,-5.52 -4.481,-10 -10,-10c-5.52,0 -10,4.48 -10,10c0,5.519 4.48,10 10,10c5.519,0 10,-4.481 10,-10Z" style="fill:#fc2e30;stroke-width:1px;stroke:#000;"/></g><g><path d="M1080.65,1100.24c0,-11.039 8.961,-20 20,-20c11.038,0 20,8.961 20,20c0,11.038 -8.962,20 -20,20c-11.039,0 -20,-8.962 -20,-20Z" style="fill:#fcd1d1;stroke-width:1px;stroke:#000;"/><path d="M1090.65,1100.24c0,-5.52 4.48,-10 10,-10c5.519,0 10,4.48 10,10c0,5.519 -4.481,10 -10,10c-5.52,0 -10,-4.481 -10,-10Z" style="fill:#fc2e30;stroke-width:1px;stroke:#000;"/></g><g><path d="M1080.65,1000.24c0,-11.039 8.961,-20 20,-20c11.038,0 20,8.961 20,20c0,11.038 -8.962,20 -20,20c-11.039,0 -20,-8.962 -20,-20Z" style="fill:#fcd1d1;stroke-width:1px;stroke:#000;"/><path d="M1090.65,1000.24c0,-5.52 4.48,-10 10,-10c5.519,0 10,4.48 10,10c0,5.519 -4.481,10 -10,10c-5.52,0 -10,-4.481 -10,-10Z" style="fill:#fc2e30;stroke-width:1px;stroke:#000;"/></g><g><path d="M1060.65,920.244c0,-11.039 8.961,-20 20,-20c11.038,0 20,8.961 20,20c0,11.038 -8.962,20 -20,20c-11.039,0 -20,-8.962 -20,-20Z" style="fill:#fcd1d1;stroke-width:1px;stroke:#000;"/><path d="M1070.65,920.244c0,-5.52 4.48,-10 10,-10c5.519,0 10,4.48 10,10c0,5.519 -4.481,10 -10,10c-5.52,0 -10,-4.481 -10,-10Z" style="fill:#fc2e30;stroke-width:1px;stroke:#000;"/></g><g><path d="M980.654,800.244c0,-11.039 8.961,-20 20,-20c11.038,0 20,8.961 20,20c0,11.038 -8.962,20 -20,20c-11.039,0 -20,-8.962 -20,-20Z" style="fill:#fcd1d1;stroke-width:1px;stroke:#000;"/><path d="M990.654,800.244c0,-5.52 4.48,-10 10,-10c5.519,0 10,4.48 10,10c0,5.519 -4.481,10 -10,10c-5.52,0 -10,-4.481 -10,-10Z" style="fill:#fc2e30;stroke-width:1px;stroke:#000;"/></g><g><path d="M780.654,750.244c0,-11.039 8.961,-20 20,-20c11.038,0 20,8.961 20,20c0,11.038 -8.962,20 -20,20c-11.039,0 -20,-8.962 -20,-20Z" style="fill:#fcd1d1;stroke-width:1px;stroke:#000;"/><path d="M790.654,750.244c0,-5.52 4.48,-10 10,-10c5.519,0 10,4.48 10,10c0,5.519 -4.481,10 -10,10c-5.52,0 -10,-4.481 -10,-10Z" style="fill:#fc2e30;stroke-width:1px;stroke:#000;"/></g><g><path d="M700.654,780.244c0,-11.039 8.961,-20 20,-20c11.038,0 20,8.961 20,20c0,11.038 -8.962,20 -20,20c-11.039,0 -20,-8.962 -20,-20Z" style="fill:#fcd1d1;stroke-width:1px;stroke:#000;"/><path d="M710.654,780.244c0,-5.52 4.48,-10 10,-10c5.519,0 10,4.48 10,10c0,5.519 -4.481,10 -10,10c-5.52,0 -10,-4.481 -10,-10Z" style="fill:#fc2e30;stroke-width:1px;stroke:#000;"/></g><g><path d="M880.654,750.244c0,-11.039 8.961,-20 20,-20c11.038,0 20,8.961 20,20c0,11.038 -8.962,20 -20,20c-11.039,0 -20,-8.962 -20,-20Z" style="fill:#fcd1d1;stroke-width:1px;stroke:#000;"/><path d="M890.654,750.244c0,-5.52 4.48,-10 10,-10c5.519,0 10,4.48 10,10c0,5.519 -4.481,10 -10,10c-5.52,0 -10,-4.481 -10,-10Z" style="fill:#fc2e30;stroke-width:1px;stroke:#000;"/></g><g><path d="M1400.65,780.244c0,-11.039 -8.962,-20 -20,-20c-11.039,0 -20,8.961 -20,20c0,11.038 8.961,20 20,20c11.038,0 20,-8.962 20,-20Z" style="fill:#fcd1d1;stroke-width:1px;stroke:#000;"/><path d="M1390.65,780.244c0,-5.52 -4.481,-10 -10,-10c-5.52,0 -10,4.48 -10,10c0,5.519 4.48,10 10,10c5.519,0 10,-4.481 10,-10Z" style="fill:#fc2e30;stroke-width:1px;stroke:#000;"/></g><g><path d="M1420.65,200.244c0,-11.039 -8.962,-20 -20,-20c-11.039,0 -20,8.961 -20,20c0,11.038 8.961,20 20,20c11.038,0 20,-8.962 20,-20Z" style="fill:#fcd1d1;stroke-width:1px;stroke:#000;"/><path d="M1410.65,200.244c0,-5.52 -4.481,-10 -10,-10c-5.52,0 -10,4.48 -10,10c0,5.519 4.48,10 10,10c5.519,0 10,-4.481 10,-10Z" style="fill:#fc2e30;stroke-width:1px;stroke:#000;"/></g><g><path d="M1520.65,400.244c0,-11.039 -8.962,-20 -20,-20c-11.039,0 -20,8.961 -20,20c0,11.038 8.961,20 20,20c11.038,0 20,-8.962 20,-20Z" style="fill:#fcd1d1;stroke-width:1px;stroke:#000;"/><path d="M1510.65,400.244c0,-5.52 -4.481,-10 -10,-10c-5.52,0 -10,4.48 -10,10c0,5.519 4.48,10 10,10c5.519,0 10,-4.481 10,-10Z" style="fill:#fc2e30;stroke-width:1px;stroke:#000;"/></g><g><path d="M1500.65,580.244c0,-11.039 -8.962,-20 -20,-20c-11.039,0 -20,8.961 -20,20c0,11.038 8.961,20 20,20c11.038,0 20,-8.962 20,-20Z" style="fill:#fcd1d1;stroke-width:1px;stroke:#000;"/><path d="M1490.65,580.244c0,-5.52 -4.481,-10 -10,-10c-5.52,0 -10,4.48 -10,10c0,5.519 4.48,10 10,10c5.519,0 10,-4.481 10,-10Z" style="fill:#fc2e30;stroke-width:1px;stroke:#000;"/></g><g><path d="M580.654,600.244c0,-11.039 8.961,-20 20,-20c11.038,0 20,8.961 20,20c0,11.038 -8.962,20 -20,20c-11.039,0 -20,-8.962 -20,-20Z" style="fill:#fcd1d1;stroke-width:1px;stroke:#000;"/><path d="M590.654,600.244c0,-5.52 4.48,-10 10,-10c5.519,0 10,4.48 10,10c0,5.519 -4.481,10 -10,10c-5.52,0 -10,-4.481 -10,-10Z" style="fill:#fc2e30;stroke-width:1px;stroke:#000;"/></g><g><path d="M1420.65,350.244c0,-11.039 -8.962,-20 -20,-20c-11.039,0 -20,8.961 -20,20c0,11.038 8.961,20 20,20c11.038,0 20,-8.962 20,-20Z" style="fill:#fcd1d1;stroke-width:1px;stroke:#000;"/><path d="M1410.65,350.244c0,-5.52 -4.481,-10 -10,-10c-5.52,0 -10,4.48 -10,10c0,5.519 4.48,10 10,10c5.519,0 10,-4.481 10,-10Z" style="fill:#fc2e30;stroke-width:1px;stroke:#000;"/></g><g><path d="M580.654,800.244c0,-11.039 8.961,-20 20,-20c11.038,0 20,8.961 20,20c0,11.038 -8.962,20 -20,20c-11.039,0 -20,-8.962 -20,-20Z" style="fill:#fcd1d1;stroke-width:1px;stroke:#000;"/><path d="M590.654,800.244c0,-5.52 4.48,-10 10,-10c5.519,0 10,4.48 10,10c0,5.519 -4.481,10 -10,10c-5.52,0 -10,-4.481 -10,-10Z" style="fill:#fc2e30;stroke-width:1px;stroke:#000;"/></g><g><path d="M1540.65,480.244c0,-11.039 -8.962,-20 -20,-20c-11.039,0 -20,8.961 -20,20c0,11.038 8.961,20 20,20c11.038,0 20,-8.962 20,-20Z" style="fill:#fcd1d1;stroke-width:1px;stroke:#000;"/><path d="M1530.65,480.244c0,-5.52 -4.481,-10 -10,-10c-5.52,0 -10,4.48 -10,10c0,5.519 4.48,10 10,10c5.519,0 10,-4.481 10,-10Z" style="fill:#fc2e30;stroke-width:1px;stroke:#000;"/></g><g><path d="M1740.65,280.244c0,-11.039 -8.962,-20 -20,-20c-11.039,0 -20,8.961 -20,20c0,11.038 8.961,20 20,20c11.038,0 20,-8.962 20,-20Z" style="fill:#fcd1d1;stroke-width:1px;stroke:#000;"/><path d="M1730.65,280.244c0,-5.52 -4.481,-10 -10,-10c-5.52,0 -10,4.48 -10,10c0,5.519 4.48,10 10,10c5.519,0 10,-4.481 10,-10Z" style="fill:#fc2e30;stroke-width:1px;stroke:#000;"/></g><g><path d="M1800.65,380.244c0,-11.039 -8.962,-20 -20,-20c-11.039,0 -20,8.961 -20,20c0,11.038 8.961,20 20,20c11.038,0 20,-8.962 20,-20Z" style="fill:#fcd1d1;stroke-width:1px;stroke:#000;"/><path d="M1790.65,380.244c0,-5.52 -4.481,-10 -10,-10c-5.52,0 -10,4.48 -10,10c0,5.519 4.48,10 10,10c5.519,0 10,-4.481 10,-10Z" style="fill:#fc2e30;stroke-width:1px;stroke:#000;"/></g><g><path d="M1640.65,220.244c0,-11.039 -8.962,-20 -20,-20c-11.039,0 -20,8.961 -20,20c0,11.038 8.961,20 20,20c11.038,0 20,-8.962 20,-20Z" style="fill:#fcd1d1;stroke-width:1px;stroke:#000;"/><path d="M1630.65,220.244c0,-5.52 -4.481,-10 -10,-10c-5.52,0 -10,4.48 -10,10c0,5.519 4.48,10 10,10c5.519,0 10,-4.481 10,-10Z" style="fill:#fc2e30;stroke-width:1px;stroke:#000;"/></g><g><path d="M1740.65,720.244c0,-11.039 -8.962,-20 -20,-20c-11.039,0 -20,8.961 -20,20c0,11.038 8.961,20 20,20c11.038,0 20,-8.962 20,-20Z" style="fill:#fcd1d1;stroke-width:1px;stroke:#000;"/><path d="M1730.65,720.244c0,-5.52 -4.481,-10 -10,-10c-5.52,0 -10,4.48 -10,10c0,5.519 4.48,10 10,10c5.519,0 10,-4.481 10,-10Z" style="fill:#fc2e30;stroke-width:1px;stroke:#000;"/></g><g><path d="M1800.65,620.244c0,-11.039 -8.962,-20 -20,-20c-11.039,0 -20,8.961 -20,20c0,11.038 8.961,20 20,20c11.038,0 20,-8.962 20,-20Z" style="fill:#fcd1d1;stroke-width:1px;stroke:#000;"/><path d="M1790.65,620.244c0,-5.52 -4.481,-10 -10,-10c-5.52,0 -10,4.48 -10,10c0,5.519 4.48,10 10,10c5.519,0 10,-4.481 10,-10Z" style="fill:#fc2e30;stroke-width:1px;stroke:#000;"/></g><g><path d="M1640.65,780.244c0,-11.039 -8.962,-20 -20,-20c-11.039,0 -20,8.961 -20,20c0,11.038 8.961,20 20,20c11.038,0 20,-8.962 20,-20Z" style="fill:#fcd1d1;stroke-width:1px;stroke:#000;"/><path d="M1630.65,780.244c0,-5.52 -4.481,-10 -10,-10c-5.52,0 -10,4.48 -10,10c0,5.519 4.48,10 10,10c5.519,0 10,-4.481 10,-10Z" style="fill:#fc2e30;stroke-width:1px;stroke:#000;"/></g><g><path d="M1080.65,700.244c0,-11.039 8.961,-20 20,-20c11.038,0 20,8.961 20,20c0,11.038 -8.962,20 -20,20c-11.039,0 -20,-8.962 -20,-20Z" style="fill:#fcd1d1;stroke-width:1px;stroke:#000;"/><path d="M1090.65,700.244c0,-5.52 4.48,-10 10,-10c5.519,0 10,4.48 10,10c0,5.519 -4.481,10 -10,10c-5.52,0 -10,-4.481 -10,-10Z" style="fill:#fc2e30;stroke-width:1px;stroke:#000;"/></g><g><path d="M960.654,680.244c0,-11.039 8.961,-20 20,-20c11.038,0 20,8.961 20,20c0,11.038 -8.962,20 -20,20c-11.039,0 -20,-8.962 -20,-20Z" style="fill:#fcd1d1;stroke-width:1px;stroke:#000;"/><path d="M970.654,680.244c0,-5.52 4.48,-10 10,-10c5.519,0 10,4.48 10,10c0,5.519 -4.481,10 -10,10c-5.52,0 -10,-4.481 -10,-10Z" style="fill:#fc2e30;stroke-width:1px;stroke:#000;"/></g><g><path d="M1000.65,520.244c0,-11.039 8.961,-20 20,-20c11.038,0 20,8.961 20,20c0,11.038 -8.962,20 -20,20c-11.039,0 -20,-8.962 -20,-20Z" style="fill:#fcd1d1;stroke-width:1px;stroke:#000;"/><path d="M1010.65,520.244c0,-5.52 4.48,-10 10,-10c5.519,0 10,4.48 10,10c0,5.519 -4.481,10 -10,10c-5.52,0 -10,-4.481 -10,-10Z" style="fill:#fc2e30;stroke-width:1px;stroke:#000;"/></g><g><path d="M260.654,920.244c0,-11.039 8.961,-20 20,-20c11.038,0 20,8.961 20,20c0,11.038 -8.962,20 -20,20c-11.039,0 -20,-8.962 -20,-20Z" style="fill:#fcd1d1;stroke-width:1px;stroke:#000;"/><path d="M270.654,920.244c0,-5.52 4.48,-10 10,-10c5.519,0 10,4.48 10,10c0,5.519 -4.481,10 -10,10c-5.52,0 -10,-4.481 -10,-10Z" style="fill:#fc2e30;stroke-width:1px;stroke:#000;"/></g><g><path d="M200.654,820.244c0,-11.039 8.961,-20 20,-20c11.038,0 20,8.961 20,20c0,11.038 -8.962,20 -20,20c-11.039,0 -20,-8.962 -20,-20Z" style="fill:#fcd1d1;stroke-width:1px;stroke:#000;"/><path d="M210.654,820.244c0,-5.52 4.48,-10 10,-10c5.519,0 10,4.48 10,10c0,5.519 -4.481,10 -10,10c-5.52,0 -10,-4.481 -10,-10Z" style="fill:#fc2e30;stroke-width:1px;stroke:#000;"/></g><g><path d="M360.654,980.244c0,-11.039 8.961,-20 20,-20c11.038,0 20,8.961 20,20c0,11.038 -8.962,20 -20,20c-11.039,0 -20,-8.962 -20,-20Z" style="fill:#fcd1d1;stroke-width:1px;stroke:#000;"/><path d="M370.654,980.244c0,-5.52 4.48,-10 10,-10c5.519,0 10,4.48 10,10c0,5.519 -4.481,10 -10,10c-5.52,0 -10,-4.481 -10,-10Z" style="fill:#fc2e30;stroke-width:1px;stroke:#000;"/></g><g><path d="M360.654,980.244c0,-11.039 8.961,-20 20,-20c11.038,0 20,8.961 20,20c0,11.038 -8.962,20 -20,20c-11.039,0 -20,-8.962 -20,-20Z" style="fill:#fcd1d1;stroke-width:1px;stroke:#000;"/><path d="M370.654,980.244c0,-5.52 4.48,-10 10,-10c5.519,0 10,4.48 10,10c0,5.519 -4.481,10 -10,10c-5.52,0 -10,-4.481 -10,-10Z" style="fill:#fc2e30;stroke-width:1px;stroke:#000;"/></g><g><path d="M980.654,350.244c0,-11.039 8.961,-20 20,-20c11.038,0 20,8.961 20,20c0,11.038 -8.962,20 -20,20c-11.039,0 -20,-8.962 -20,-20Z" style="fill:#fcd1d1;stroke-width:1px;stroke:#000;"/><path d="M990.654,350.244c0,-5.52 4.48,-10 10,-10c5.519,0 10,4.48 10,10c0,5.519 -4.481,10 -10,10c-5.52,0 -10,-4.481 -10,-10Z" style="fill:#fc2e30;stroke-width:1px;stroke:#000;"/></g><g><path d="M780.654,350.244c0,-11.039 8.961,-20 20,-20c11.038,0 20,8.961 20,20c0,11.038 -8.962,20 -20,20c-11.039,0 -20,-8.962 -20,-20Z" style="fill:#fcd1d1;stroke-width:1px;stroke:#000;"/><path d="M790.654,350.244c0,-5.52 4.48,-10 10,-10c5.519,0 10,4.48 10,10c0,5.519 -4.481,10 -10,10c-5.52,0 -10,-4.481 -10,-10Z" style="fill:#fc2e30;stroke-width:1px;stroke:#000;"/></g><g><path d="M780.654,200.244c0,-11.039 8.961,-20 20,-20c11.038,0 20,8.961 20,20c0,11.038 -8.962,20 -20,20c-11.039,0 -20,-8.962 -20,-20Z" style="fill:#fcd1d1;stroke-width:1px;stroke:#000;"/><path d="M790.654,200.244c0,-5.52 4.48,-10 10,-10c5.519,0 10,4.48 10,10c0,5.519 -4.481,10 -10,10c-5.52,0 -10,-4.481 -10,-10Z" style="fill:#fc2e30;stroke-width:1px;stroke:#000;"/></g><g><path d="M580.654,200.244c0,-11.039 8.961,-20 20,-20c11.038,0 20,8.961 20,20c0,11.038 -8.962,20 -20,20c-11.039,0 -20,-8.962 -20,-20Z" style="fill:#fcd1d1;stroke-width:1px;stroke:#000;"/><path d="M590.654,200.244c0,-5.52 4.48,-10 10,-10c5.519,0 10,4.48 10,10c0,5.519 -4.481,10 -10,10c-5.52,0 -10,-4.481 -10,-10Z" style="fill:#fc2e30;stroke-width:1px;stroke:#000;"/></g><g><path d="M580.654,350.244c0,-11.039 8.961,-20 20,-20c11.038,0 20,8.961 20,20c0,11.038 -8.962,20 -20,20c-11.039,0 -20,-8.962 -20,-20Z" style="fill:#fcd1d1;stroke-width:1px;stroke:#000;"/><path d="M590.654,350.244c0,-5.52 4.48,-10 10,-10c5.519,0 10,4.48 10,10c0,5.519 -4.481,10 -10,10c-5.52,0 -10,-4.481 -10,-10Z" style="fill:#fc2e30;stroke-width:1px;stroke:#000;"/></g><g><path d="M380.654,200.244c0,-11.039 8.961,-20 20,-20c11.038,0 20,8.961 20,20c0,11.038 -8.962,20 -20,20c-11.039,0 -20,-8.962 -20,-20Z" style="fill:#fcd1d1;stroke-width:1px;stroke:#000;"/><path d="M390.654,200.244c0,-5.52 4.48,-10 10,-10c5.519,0 10,4.48 10,10c0,5.519 -4.481,10 -10,10c-5.52,0 -10,-4.481 -10,-10Z" style="fill:#fc2e30;stroke-width:1px;stroke:#000;"/></g><g><path d="M380.654,350.244c0,-11.039 8.961,-20 20,-20c11.038,0 20,8.961 20,20c0,11.038 -8.962,20 -20,20c-11.039,0 -20,-8.962 -20,-20Z" style="fill:#fcd1d1;stroke-width:1px;stroke:#000;"/><path d="M390.654,350.244c0,-5.52 4.48,-10 10,-10c5.519,0 10,4.48 10,10c0,5.519 -4.481,10 -10,10c-5.52,0 -10,-4.481 -10,-10Z" style="fill:#fc2e30;stroke-width:1px;stroke:#000;"/></g><g><path d="M260.654,480.244c0,-11.039 8.961,-20 20,-20c11.038,0 20,8.961 20,20c0,11.038 -8.962,20 -20,20c-11.039,0 -20,-8.962 -20,-20Z" style="fill:#fcd1d1;stroke-width:1px;stroke:#000;"/><path d="M270.654,480.244c0,-5.52 4.48,-10 10,-10c5.519,0 10,4.48 10,10c0,5.519 -4.481,10 -10,10c-5.52,0 -10,-4.481 -10,-10Z" style="fill:#fc2e30;stroke-width:1px;stroke:#000;"/></g><g><path d="M200.654,580.244c0,-11.039 8.961,-20 20,-20c11.038,0 20,8.961 20,20c0,11.038 -8.962,20 -20,20c-11.039,0 -20,-8.962 -20,-20Z" style="fill:#fcd1d1;stroke-width:1px;stroke:#000;"/><path d="M210.654,580.244c0,-5.52 4.48,-10 10,-10c5.519,0 10,4.48 10,10c0,5.519 -4.481,10 -10,10c-5.52,0 -10,-4.481 -10,-10Z" style="fill:#fc2e30;stroke-width:1px;stroke:#000;"/></g><g><path d="M360.654,420.244c0,-11.039 8.961,-20 20,-20c11.038,0 20,8.961 20,20c0,11.038 -8.962,20 -20,20c-11.039,0 -20,-8.962 -20,-20Z" style="fill:#fcd1d1;stroke-width:1px;stroke:#000;"/><path d="M370.654,420.244c0,-5.52 4.48,-10 10,-10c5.519,0 10,4.48 10,10c0,5.519 -4.481,10 -10,10c-5.52,0 -10,-4.481 -10,-10Z" style="fill:#fc2e30;stroke-width:1px;stroke:#000;"/></g><g><path d="M880.654,500.244c0,-11.039 8.961,-20 20,-20c11.038,0 20,8.961 20,20c0,11.038 -8.962,20 -20,20c-11.039,0 -20,-8.962 -20,-20Z" style="fill:#fcd1d1;stroke-width:1px;stroke:#000;"/><path d="M890.654,500.244c0,-5.52 4.48,-10 10,-10c5.519,0 10,4.48 10,10c0,5.519 -4.481,10 -10,10c-5.52,0 -10,-4.481 -10,-10Z" style="fill:#fc2e30;stroke-width:1px;stroke:#000;"/></g><g><path d="M1180.65,350.244c0,-11.039 8.961,-20 20,-20c11.038,0 20,8.961 20,20c0,11.038 -8.962,20 -20,20c-11.039,0 -20,-8.962 -20,-20Z" style="fill:#fcd1d1;stroke-width:1px;stroke:#000;"/><path d="M1190.65,350.244c0,-5.52 4.48,-10 10,-10c5.519,0 10,4.48 10,10c0,5.519 -4.481,10 -10,10c-5.52,0 -10,-4.481 -10,-10Z" style="fill:#fc2e30;stroke-width:1px;stroke:#000;"/></g><g><path d="M1180.65,200.244c0,-11.039 8.961,-20 20,-20c11.038,0 20,8.961 20,20c0,11.038 -8.962,20 -20,20c-11.039,0 -20,-8.962 -20,-20Z" style="fill:#fcd1d1;stroke-width:1px;stroke:#000;"/><path d="M1190.65,200.244c0,-5.52 4.48,-10 10,-10c5.519,0 10,4.48 10,10c0,5.519 -4.481,10 -10,10c-5.52,0 -10,-4.481 -10,-10Z" style="fill:#fc2e30;stroke-width:1px;stroke:#000;"/></g><g><path d="M980.654,200.244c0,-11.039 8.961,-20 20,-20c11.038,0 20,8.961 20,20c0,11.038 -8.962,20 -20,20c-11.039,0 -20,-8.962 -20,-20Z" style="fill:#fcd1d1;stroke-width:1px;stroke:#000;"/><path d="M990.654,200.244c0,-5.52 4.48,-10 10,-10c5.519,0 10,4.48 10,10c0,5.519 -4.481,10 -10,10c-5.52,0 -10,-4.481 -10,-10Z" style="fill:#fc2e30;stroke-width:1px;stroke:#000;"/></g><g><path d="M180.952,700.244c0,-11.039 8.962,-20 20,-20c11.039,0 20,8.961 20,20c0,11.038 -8.961,20 -20,20c-11.038,0 -20,-8.962 -20,-20Z" style="fill:#fcd1d1;stroke-width:1px;stroke:#000;"/><path d="M190.952,700.244c0,-5.52 4.481,-10 10,-10c5.52,0 10,4.48 10,10c0,5.519 -4.48,10 -10,10c-5.519,0 -10,-4.481 -10,-10Z" style="fill:#fc2e30;stroke-width:1px;stroke:#000;"/></g><g><path d="M1260.65,580.244c0,-11.039 8.961,-20 20,-20c11.038,0 20,8.961 20,20c0,11.038 -8.962,20 -20,20c-11.039,0 -20,-8.962 -20,-20Z" style="fill:#fcd1d1;stroke-width:1px;stroke:#000;"/><path d="M1270.65,580.244c0,-5.52 4.48,-10 10,-10c5.519,0 10,4.48 10,10c0,5.519 -4.481,10 -10,10c-5.52,0 -10,-4.481 -10,-10Z" style="fill:#fc2e30;stroke-width:1px;stroke:#000;"/></g><g><path d="M480.952,400.244c0,-11.039 8.962,-20 20,-20c11.039,0 20,8.961 20,20c0,11.038 -8.961,20 -20,20c-11.038,0 -20,-8.962 -20,-20Z" style="fill:#fcd1d1;stroke-width:1px;stroke:#000;"/><path d="M490.952,400.244c0,-5.52 4.481,-10 10,-10c5.52,0 10,4.48 10,10c0,5.519 -4.48,10 -10,10c-5.519,0 -10,-4.481 -10,-10Z" style="fill:#fc2e30;stroke-width:1px;stroke:#000;"/></g><g><path d="M1480.95,200.244c0,-11.039 8.962,-20 20,-20c11.039,0 20,8.961 20,20c0,11.038 -8.961,20 -20,20c-11.038,0 -20,-8.962 -20,-20Z" style="fill:#fcd1d1;stroke-width:1px;stroke:#000;"/><path d="M1490.95,200.244c0,-5.52 4.481,-10 10,-10c5.52,0 10,4.48 10,10c0,5.519 -4.48,10 -10,10c-5.519,0 -10,-4.481 -10,-10Z" style="fill:#fc2e30;stroke-width:1px;stroke:#000;"/></g><g><path d="M480.654,700.244c0,-11.039 8.961,-20 20,-20c11.038,0 20,8.961 20,20c0,11.038 -8.962,20 -20,20c-11.039,0 -20,-8.962 -20,-20Z" style="fill:#fcd1d1;stroke-width:1px;stroke:#000;"/><path d="M490.654,700.244c0,-5.52 4.48,-10 10,-10c5.519,0 10,4.48 10,10c0,5.519 -4.481,10 -10,10c-5.52,0 -10,-4.481 -10,-10Z" style="fill:#fc2e30;stroke-width:1px;stroke:#000;"/></g><g><path d="M480.952,1000.24c0,-11.039 8.962,-20 20,-20c11.039,0 20,8.961 20,20c0,11.038 -8.961,20 -20,20c-11.038,0 -20,-8.962 -20,-20Z" style="fill:#fcd1d1;stroke-width:1px;stroke:#000;"/><path d="M490.952,1000.24c0,-5.52 4.481,-10 10,-10c5.52,0 10,4.48 10,10c0,5.519 -4.48,10 -10,10c-5.519,0 -10,-4.481 -10,-10Z" style="fill:#fc2e30;stroke-width:1px;stroke:#000;"/></g><g><path d="M1480.95,800.244c0,-11.039 8.962,-20 20,-20c11.039,0 20,8.961 20,20c0,11.038 -8.961,20 -20,20c-11.038,0 -20,-8.962 -20,-20Z" style="fill:#fcd1d1;stroke-width:1px;stroke:#000;"/><path d="M1490.95,800.244c0,-5.52 4.481,-10 10,-10c5.52,0 10,4.48 10,10c0,5.519 -4.48,10 -10,10c-5.519,0 -10,-4.481 -10,-10Z" style="fill:#fc2e30;stroke-width:1px;stroke:#000;"/></g></g><g><rect x="983.527" y="1230.64" width="100" height="4.5" style="fill:#000;"/><rect x="1031.28" y="1232.89" width="4.5" height="50" style="fill:#000;"/></g><g id="grid"><g id="bold lines"><path d="M700.654,100.244l0,2800" style="fill:none;stroke-width:1px;stroke-miterlimit:1;stroke:#000;stroke-opacity:0.298039;"/><path d="M100.654,700.244l2600,0" style="fill:none;stroke-width:1px;stroke-miterlimit:1;stroke:#000;stroke-opacity:0.298039;"/><path d="M1200.65,100.244l0,2800" style="fill:none;stroke-width:1px;stroke-miterlimit:1;stroke:#000;stroke-opacity:0.298039;"/><path d="M1700.65,100.244l0,2800" style="fill:none;stroke-width:1px;stroke-miterlimit:1;stroke:#000;stroke-opacity:0.298039;"/><path d="M2200.65,100.244l0,2800" style="fill:none;stroke-width:1px;stroke-miterlimit:1;stroke:#000;stroke-opacity:0.298039;"/><path d="M100.654,1200.24l2600,0" style="fill:none;stroke-width:1px;stroke-miterlimit:1;stroke:#000;stroke-opacity:0.298039;"/><path d="M100.654,200.244l2600,0" style="fill:none;stroke-width:1px;stroke-miterlimit:1;stroke:#000;stroke-opacity:0.298039;"/><path d="M200.654,2900.24l0,-2800" style="fill:none;stroke-width:1px;stroke-miterlimit:1;stroke:#000;stroke-opacity:0.298039;"/></g><g id="vertical lines"><path d="M100.654,100.244l0,2800" style="fill:none;stroke-width:1px;stroke-linejoin:miter;stroke-miterlimit:1;stroke-dasharray:10,44,2,44;stroke-dashoffset:5;stroke:#000;"/><path d="M700.654,100.244l0,2800" style="fill:none;stroke-width:1px;stroke-linejoin:miter;stroke-miterlimit:1;stroke-dasharray:10,44,2,44;stroke-dashoffset:5;stroke:#000;"/><path d="M1300.65,100.244l0,2800" style="fill:none;stroke-width:1px;stroke-linejoin:miter;stroke-miterlimit:1;stroke-dasharray:10,44,2,44;stroke-dashoffset:5;stroke:#000;"/><path d="M1900.65,100.244l0,2800" style="fill:none;stroke-width:1px;stroke-linejoin:miter;stroke-miterlimit:1;stroke-dasharray:10,44,2,44;stroke-dashoffset:5;stroke:#000;"/><path d="M300.654,100.244l0,2800" style="fill:none;stroke-width:1px;stroke-linejoin:miter;stroke-miterlimit:1;stroke-dasharray:10,44,2,44;stroke-dashoffset:5;stroke:#000;"/><path d="M900.654,100.244l0,2800" style="fill:none;stroke-width:1px;stroke-linejoin:miter;stroke-miterlimit:1;stroke-dasharray:10,44,2,44;stroke-dashoffset:5;stroke:#000;"/><path d="M1500.65,100.244l0,2800" style="fill:none;stroke-width:1px;stroke-linejoin:miter;stroke-miterlimit:1;stroke-dasharray:10,44,2,44;stroke-dashoffset:5;stroke:#000;"/><path d="M2100.65,100.244l0,2800" style="fill:none;stroke-width:1px;stroke-linejoin:miter;stroke-miterlimit:1;stroke-dasharray:10,44,2,44;stroke-dashoffset:5;stroke:#000;"/><path d="M500.654,100.244l0,2800" style="fill:none;stroke-width:1px;stroke-linejoin:miter;stroke-miterlimit:1;stroke-dasharray:10,44,2,44;stroke-dashoffset:5;stroke:#000;"/><path d="M1100.65,100.244l0,2800" style="fill:none;stroke-width:1px;stroke-linejoin:miter;stroke-miterlimit:1;stroke-dasharray:10,44,2,44;stroke-dashoffset:5;stroke:#000;"/><path d="M1700.65,100.244l0,2800" style="fill:none;stroke-width:1px;stroke-linejoin:miter;stroke-miterlimit:1;stroke-dasharray:10,44,2,44;stroke-dashoffset:5;stroke:#000;"/><path d="M2300.65,100.244l0,2800" style="fill:none;stroke-width:1px;stroke-linejoin:miter;stroke-miterlimit:1;stroke-dasharray:10,44,2,44;stroke-dashoffset:5;stroke:#000;"/><path d="M200.654,100.244l0,2800" style="fill:none;stroke-width:1px;stroke-linejoin:miter;stroke-miterlimit:1;stroke-dasharray:10,44,2,44;stroke-dashoffset:5;stroke:#000;"/><path d="M800.654,100.244l0,2800" style="fill:none;stroke-width:1px;stroke-linejoin:miter;stroke-miterlimit:1;stroke-dasharray:10,44,2,44;stroke-dashoffset:5;stroke:#000;"/><path d="M1400.65,100.244l0,2800" style="fill:none;stroke-width:1px;stroke-linejoin:miter;stroke-miterlimit:1;stroke-dasharray:10,44,2,44;stroke-dashoffset:5;stroke:#000;"/><path d="M2000.65,100.244l0,2800" style="fill:none;stroke-width:1px;stroke-linejoin:miter;stroke-miterlimit:1;stroke-dasharray:10,44,2,44;stroke-dashoffset:5;stroke:#000;"/><path d="M400.654,100.244l0,2800" style="fill:none;stroke-width:1px;stroke-linejoin:miter;stroke-miterlimit:1;stroke-dasharray:10,44,2,44;stroke-dashoffset:5;stroke:#000;"/><path d="M1000.65,100.244l0,2800" style="fill:none;stroke-width:1px;stroke-linejoin:miter;stroke-miterlimit:1;stroke-dasharray:10,44,2,44;stroke-dashoffset:5;stroke:#000;"/><path d="M1600.65,100.244l0,2800" style="fill:none;stroke-width:1px;stroke-linejoin:miter;stroke-miterlimit:1;stroke-dasharray:10,44,2,44;stroke-dashoffset:5;stroke:#000;"/><path d="M2200.65,100.244l0,2800" style="fill:none;stroke-width:1px;stroke-linejoin:miter;stroke-miterlimit:1;stroke-dasharray:10,44,2,44;stroke-dashoffset:5;stroke:#000;"/><path d="M600.654,100.244l0,2800" style="fill:none;stroke-width:1px;stroke-linejoin:miter;stroke-miterlimit:1;stroke-dasharray:10,44,2,44;stroke-dashoffset:5;stroke:#000;"/><path d="M1200.65,100.244l0,2800" style="fill:none;stroke-width:1px;stroke-linejoin:miter;stroke-miterlimit:1;stroke-dasharray:10,44,2,44;stroke-dashoffset:5;stroke:#000;"/><path d="M1800.65,100.244l0,2800" style="fill:none;stroke-width:1px;stroke-linejoin:miter;stroke-miterlimit:1;stroke-dasharray:10,44,2,44;stroke-dashoffset:5;stroke:#000;"/></g><g id="horizontal lines"><path d="M100.654,100.244l2600,0" style="fill:none;stroke-width:1px;stroke-dasharray:10,44,2,44;stroke-dashoffset:5;stroke:#000;"/><path d="M100.654,500.244l2600,0" style="fill:none;stroke-width:1px;stroke-dasharray:10,44,2,44;stroke-dashoffset:5;stroke:#000;"/><path d="M100.654,900.244l2600,0" style="fill:none;stroke-width:1px;stroke-dasharray:10,44,2,44;stroke-dashoffset:5;stroke:#000;"/><path d="M100.654,1300.24l2600,0" style="fill:none;stroke-width:1px;stroke-dasharray:10,44,2,44;stroke-dashoffset:5;stroke:#000;"/><path d="M2700.65,200.244l-2600,0" style="fill:none;stroke-width:1px;stroke-dasharray:10,44,2,44;stroke-dashoffset:5;stroke:#000;"/><path d="M2700.65,600.244l-2600,0" style="fill:none;stroke-width:1px;stroke-dasharray:10,44,2,44;stroke-dashoffset:5;stroke:#000;"/><path d="M2700.65,1000.24l-2600,0" style="fill:none;stroke-width:1px;stroke-dasharray:10,44,2,44;stroke-dashoffset:5;stroke:#000;"/><path d="M100.654,300.244l2600,0" style="fill:none;stroke-width:1px;stroke-dasharray:10,44,2,44;stroke-dashoffset:5;stroke:#000;"/><path d="M100.654,700.244l2600,0" style="fill:none;stroke-width:1px;stroke-dasharray:10,44,2,44;stroke-dashoffset:5;stroke:#000;"/><path d="M100.654,1100.24l2600,0" style="fill:none;stroke-width:1px;stroke-dasharray:10,44,2,44;stroke-dashoffset:5;stroke:#000;"/><path d="M100.654,400.244l2600,0" style="fill:none;stroke-width:1px;stroke-dasharray:10,44,2,44;stroke-dashoffset:5;stroke:#000;"/><path d="M100.654,800.244l2600,0" style="fill:none;stroke-width:1px;stroke-dasharray:10,44,2,44;stroke-dashoffset:5;stroke:#000;"/><path d="M100.654,1200.24l2600,0" style="fill:none;stroke-width:1px;stroke-dasharray:10,44,2,44;stroke-dashoffset:5;stroke:#000;"/></g><g id="top labels"><rect x="150.654" y="50.244" width="100" height="50" style="fill:#808080;stroke-width:1px;stroke:#000;"/><rect x="650.654" y="50.244" width="100" height="50" style="fill:#808080;stroke-width:1px;stroke:#000;"/><rect x="1150.65" y="50.244" width="100" height="50" style="fill:#808080;stroke-width:1px;stroke:#000;"/><rect x="1650.65" y="50.244" width="100" height="50" style="fill:#808080;stroke-width:1px;stroke:#000;"/><rect x="2150.65" y="50.244" width="100" height="50" style="fill:#808080;stroke-width:1px;stroke:#000;"/><rect x="250.654" y="50.244" width="100" height="50" style="fill:#808080;stroke-width:1px;stroke:#000;"/><rect x="750.654" y="50.244" width="100" height="50" style="fill:#808080;stroke-width:1px;stroke:#000;"/><rect x="1250.65" y="50.244" width="100" height="50" style="fill:#808080;stroke-width:1px;stroke:#000;"/><rect x="1750.65" y="50.244" width="100" height="50" style="fill:#808080;stroke-width:1px;stroke:#000;"/><rect x="2250.65" y="50.244" width="100" height="50" style="fill:#808080;stroke-width:1px;stroke:#000;"/><rect x="350.654" y="50.244" width="100" height="50" style="fill:#808080;stroke-width:1px;stroke:#000;"/><rect x="850.654" y="50.244" width="100" height="50" style="fill:#808080;stroke-width:1px;stroke:#000;"/><rect x="1350.65" y="50.244" width="100" height="50" style="fill:#808080;stroke-width:1px;stroke:#000;"/><rect x="1850.65" y="50.244" width="100" height="50" style="fill:#808080;stroke-width:1px;stroke:#000;"/><rect x="450.654" y="50.244" width="100" height="50" style="fill:#808080;stroke-width:1px;stroke:#000;"/><rect x="950.654" y="50.244" width="100" height="50" style="fill:#808080;stroke-width:1px;stroke:#000;"/><rect x="1450.65" y="50.244" width="100" height="50" style="fill:#808080;stroke-width:1px;stroke:#000;"/><rect x="1950.65" y="50.244" width="100" height="50" style="fill:#808080;stroke-width:1px;stroke:#000;"/><rect x="550.654" y="50.244" width="100" height="50" style="fill:#808080;stroke-width:1px;stroke:#000;"/><rect x="1050.65" y="50.244" width="100" height="50" style="fill:#808080;stroke-width:1px;stroke:#000;"/><rect x="1550.65" y="50.244" width="100" height="50" style="fill:#808080;stroke-width:1px;stroke:#000;"/><rect x="2050.65" y="50.244" width="100" height="50" style="fill:#808080;stroke-width:1px;stroke:#000;"/><text x="188.663px" y="89.323px" style="font-family:'ArialMT';font-size:36px;fill:#000;stroke-width:1px;stroke:#000;">A</text><text x="688.663px" y="89.323px" style="font-family:'ArialMT';font-size:36px;fill:#000;stroke-width:1px;stroke:#000;">F</text><text x="1188.66px" y="89.323px" style="font-family:'ArialMT';font-size:36px;fill:#000;stroke-width:1px;stroke:#000;">K</text><text x="1688.66px" y="89.323px" style="font-family:'ArialMT';font-size:36px;fill:#000;stroke-width:1px;stroke:#000;">P</text><text x="2188.66px" y="89.323px" style="font-family:'ArialMT';font-size:36px;fill:#000;stroke-width:1px;stroke:#000;">U</text><text x="288.663px" y="89.323px" style="font-family:'ArialMT';font-size:36px;fill:#000;stroke-width:1px;stroke:#000;">B</text><text x="788.663px" y="89.323px" style="font-family:'ArialMT';font-size:36px;fill:#000;stroke-width:1px;stroke:#000;">G</text><text x="1288.66px" y="89.323px" style="font-family:'ArialMT';font-size:36px;fill:#000;stroke-width:1px;stroke:#000;">L</text><text x="1788.66px" y="89.323px" style="font-family:'ArialMT';font-size:36px;fill:#000;stroke-width:1px;stroke:#000;">Q</text><text x="2288.66px" y="89.323px" style="font-family:'ArialMT';font-size:36px;fill:#000;stroke-width:1px;stroke:#000;">V</text><text x="388.663px" y="89.323px" style="font-family:'ArialMT';font-size:36px;fill:#000;stroke-width:1px;stroke:#000;">C</text><text x="888.663px" y="89.323px" style="font-family:'ArialMT';font-size:36px;fill:#000;stroke-width:1px;stroke:#000;">H</text><text x="1388.66px" y="89.323px" style="font-family:'ArialMT';font-size:36px;fill:#000;stroke-width:1px;stroke:#000;">M</text><text x="1888.66px" y="89.323px" style="font-family:'ArialMT';font-size:36px;fill:#000;stroke-width:1px;stroke:#000;">R</text><text x="488.663px" y="89.323px" style="font-family:'ArialMT';font-size:36px;fill:#000;stroke-width:1px;stroke:#000;">D</text><text x="995.668px" y="89.323px" style="font-family:'ArialMT';font-size:36px;fill:#000;stroke-width:1px;stroke:#000;">I</text><text x="1488.66px" y="89.323px" style="font-family:'ArialMT';font-size:36px;fill:#000;stroke-width:1px;stroke:#000;">N</text><text x="1988.66px" y="89.323px" style="font-family:'ArialMT';font-size:36px;fill:#000;stroke-width:1px;stroke:#000;">S</text><text x="588.663px" y="89.323px" style="font-family:'ArialMT';font-size:36px;fill:#000;stroke-width:1px;stroke:#000;">E</text><text x="1088.66px" y="89.323px" style="font-family:'ArialMT';font-size:36px;fill:#000;stroke-width:1px;stroke:#000;">J</text><text x="1588.66px" y="89.323px" style="font-family:'ArialMT';font-size:36px;fill:#000;stroke-width:1px;stroke:#000;">O</text><text x="2088.66px" y="89.323px" style="font-family:'ArialMT';font-size:36px;fill:#000;stroke-width:1px;stroke:#000;">T</text></g><g id="top numbers"><text x="293.422px" y="46.005px" style="font-family:'ArialMT';font-size:20px;fill:#000;stroke-width:1px;stroke:#000;">1</text><text x="195.092px" y="46.005px" style="font-family:'ArialMT';font-size:20px;fill:#000;stroke-width:1px;stroke:#000;">0</text><text x="793.422px" y="46.005px" style="font-family:'ArialMT';font-size:20px;fill:#000;stroke-width:1px;stroke:#000;">6</text><text x="1288.77px" y="46.005px" style="font-family:'ArialMT';font-size:20px;fill:#000;stroke-width:1px;stroke:#000;">1<tspan x="1298.41px " y="46.005px ">1</tspan></text><text x="1789.53px" y="46.005px" style="font-family:'ArialMT';font-size:20px;fill:#000;stroke-width:1px;stroke:#000;">16</text><text x="2289.53px" y="46.005px" style="font-family:'ArialMT';font-size:20px;fill:#000;stroke-width:1px;stroke:#000;">21</text><text x="393.422px" y="46.005px" style="font-family:'ArialMT';font-size:20px;fill:#000;stroke-width:1px;stroke:#000;">2</text><text x="893.969px" y="46.005px" style="font-family:'ArialMT';font-size:20px;fill:#000;stroke-width:1px;stroke:#000;">7</text><text x="1389.53px" y="46.005px" style="font-family:'ArialMT';font-size:20px;fill:#000;stroke-width:1px;stroke:#000;">12</text><text x="1888.41px" y="46.005px" style="font-family:'ArialMT';font-size:20px;fill:#000;stroke-width:1px;stroke:#000;">17</text><text x="493.422px" y="46.005px" style="font-family:'ArialMT';font-size:20px;fill:#000;stroke-width:1px;stroke:#000;">3</text><text x="993.969px" y="46.005px" style="font-family:'ArialMT';font-size:20px;fill:#000;stroke-width:1px;stroke:#000;">8</text><text x="1489.53px" y="46.005px" style="font-family:'ArialMT';font-size:20px;fill:#000;stroke-width:1px;stroke:#000;">13</text><text x="1988.41px" y="46.005px" style="font-family:'ArialMT';font-size:20px;fill:#000;stroke-width:1px;stroke:#000;">18</text><text x="593.422px" y="46.005px" style="font-family:'ArialMT';font-size:20px;fill:#000;stroke-width:1px;stroke:#000;">4</text><text x="1093.97px" y="46.005px" style="font-family:'ArialMT';font-size:20px;fill:#000;stroke-width:1px;stroke:#000;">9</text><text x="1589.53px" y="46.005px" style="font-family:'ArialMT';font-size:20px;fill:#000;stroke-width:1px;stroke:#000;">14</text><text x="2088.41px" y="46.005px" style="font-family:'ArialMT';font-size:20px;fill:#000;stroke-width:1px;stroke:#000;">19</text><text x="693.422px" y="46.005px" style="font-family:'ArialMT';font-size:20px;fill:#000;stroke-width:1px;stroke:#000;">5</text><text x="1189.53px" y="46.005px" style="font-family:'ArialMT';font-size:20px;fill:#000;stroke-width:1px;stroke:#000;">10</text><text x="1688.41px" y="46.005px" style="font-family:'ArialMT';font-size:20px;fill:#000;stroke-width:1px;stroke:#000;">15</text><text x="2188.41px" y="46.005px" style="font-family:'ArialMT';font-size:20px;fill:#000;stroke-width:1px;stroke:#000;">20</text></g><g id="side labels"><rect x="50.654" y="250.244" width="50" height="100" style="fill:#808080;stroke-width:1px;stroke:#000;"/><rect x="50.654" y="150.244" width="50" height="100" style="fill:#808080;stroke-width:1px;stroke:#000;"/><rect x="50.654" y="650.244" width="50" height="100" style="fill:#808080;stroke-width:1px;stroke:#000;"/><rect x="50.654" y="1050.24" width="50" height="100" style="fill:#808080;stroke-width:1px;stroke:#000;"/><rect x="50.654" y="350.244" width="50" height="100" style="fill:#808080;stroke-width:1px;stroke:#000;"/><rect x="50.654" y="750.244" width="50" height="100" style="fill:#808080;stroke-width:1px;stroke:#000;"/><rect x="50.654" y="1150.24" width="50" height="100" style="fill:#808080;stroke-width:1px;stroke:#000;"/><rect x="50.654" y="450.244" width="50" height="100" style="fill:#808080;stroke-width:1px;stroke:#000;"/><rect x="50.654" y="850.244" width="50" height="100" style="fill:#808080;stroke-width:1px;stroke:#000;"/><rect x="50.654" y="1250.24" width="50" height="100" style="fill:#808080;stroke-width:1px;stroke:#000;"/><rect x="50.654" y="550.244" width="50" height="100" style="fill:#808080;stroke-width:1px;stroke:#000;"/><rect x="50.654" y="950.244" width="50" height="100" style="fill:#808080;stroke-width:1px;stroke:#000;"/><text x="65.638px" y="312.615px" style="font-family:'ArialMT';font-size:36px;fill:#000;stroke-width:1px;stroke:#000;">1</text><text x="65.638px" y="212.615px" style="font-family:'ArialMT';font-size:36px;fill:#000;stroke-width:1px;stroke:#000;">0</text><text x="65.638px" y="712.615px" style="font-family:'ArialMT';font-size:36px;fill:#000;stroke-width:1px;stroke:#000;">5</text><text x="65.638px" y="1112.62px" style="font-family:'ArialMT';font-size:36px;fill:#000;stroke-width:1px;stroke:#000;">9</text><text x="65.638px" y="412.615px" style="font-family:'ArialMT';font-size:36px;fill:#000;stroke-width:1px;stroke:#000;">2</text><text x="65.638px" y="812.615px" style="font-family:'ArialMT';font-size:36px;fill:#000;stroke-width:1px;stroke:#000;">6</text><text x="55.628px" y="1212.62px" style="font-family:'ArialMT';font-size:36px;fill:#000;stroke-width:1px;stroke:#000;">10</text><text x="65.638px" y="512.615px" style="font-family:'ArialMT';font-size:36px;fill:#000;stroke-width:1px;stroke:#000;">3</text><text x="65.638px" y="912.615px" style="font-family:'ArialMT';font-size:36px;fill:#000;stroke-width:1px;stroke:#000;">7</text><text x="56.963px" y="1312.62px" style="font-family:'ArialMT';font-size:36px;fill:#000;stroke-width:1px;stroke:#000;">1<tspan x="74.313px " y="1312.62px ">1</tspan></text><text x="65.638px" y="612.615px" style="font-family:'ArialMT';font-size:36px;fill:#000;stroke-width:1px;stroke:#000;">4</text><text x="65.638px" y="1012.62px" style="font-family:'ArialMT';font-size:36px;fill:#000;stroke-width:1px;stroke:#000;">8</text></g><rect x="0.654" y="0.244" width="100" height="100" style="fill:none;stroke-width:1px;stroke-miterlimit:1;stroke:#000;"/><rect x="50.654" y="50.244" width="100" height="100" style="fill:#808080;stroke-width:1px;stroke:#000;"/><text x="56.2px" y="126.087px" style="font-family:'ArialMT';font-size:64px;fill:#000;stroke-width:1px;stroke:#000;">1m</text></g></g></svg>