<?xml version="1.0" standalone="no"?><!DOCTYPE svg PUBLIC "-//W3C//DTD SVG 1.1//EN" "http://www.w3.org/Graphics/SVG/1.1/DTD/svg11.dtd"><svg width="100%" height="100%" viewBox="0 0 2901 1801" version="1.1" xmlns="http://www.w3.org/2000/svg" xmlns:xlink="http://www.w3.org/1999/xlink" xml:space="preserve" style="fill-rule:evenodd;clip-rule:evenodd;stroke-miterlimit:1;"><g><g id="vertical lines"><path d="M100.134,100.244l0,1600" style="fill:none;stroke-width:1px;stroke:#b3b3b3;"/><path d="M700.134,100.244l0,1600" style="fill:none;stroke-width:1px;stroke:#b3b3b3;"/><path d="M1300.13,100.244l0,1600" style="fill:none;stroke-width:1px;stroke:#b3b3b3;"/><path d="M1900.13,100.244l0,1600" style="fill:none;stroke-width:1px;stroke:#b3b3b3;"/><path d="M2500.13,100.244l0,1600" style="fill:none;stroke-width:1px;stroke:#b3b3b3;"/><path d="M300.134,100.244l0,1600" style="fill:none;stroke-width:1px;stroke:#b3b3b3;"/><path d="M900.134,100.244l0,1600" style="fill:none;stroke-width:1px;stroke:#b3b3b3;"/><path d="M1500.13,100.244l0,1600" style="fill:none;stroke-width:1px;stroke:#b3b3b3;"/><path d="M2100.13,100.244l0,1600" style="fill:none;stroke-width:1px;stroke:#b3b3b3;"/><path d="M2700.13,100.244l0,1600" style="fill:none;stroke-width:1px;stroke:#b3b3b3;"/><path d="M500.134,100.244l0,1600" style="fill:none;stroke-width:1px;stroke:#b3b3b3;"/><path d="M1100.13,100.244l0,1600" style="fill:none;stroke-width:1px;stroke:#b3b3b3;"/><path d="M1700.13,100.244l0,1600" style="fill:none;stroke-width:1px;stroke:#b3b3b3;"/><path d="M2300.13,100.244l0,1600" style="fill:none;stroke-width:1px;stroke:#b3b3b3;"/><path d="M200.134,100.244l0,1600" style="fill:none;stroke-width:1px;stroke:#b3b3b3;"/><path d="M800.134,100.244l0,1600" style="fill:none;stroke-width:1px;stroke:#b3b3b3;"/><path d="M1400.13,100.244l0,1600" style="fill:none;stroke-width:1px;stroke:#b3b3b3;"/><path d="M2000.13,100.244l0,1600" style="fill:none;stroke-width:1px;stroke:#b3b3b3;"/><path d="M2600.13,100.244l0,1600" style="fill:none;stroke-width:1px;stroke:#b3b3b3;"/><path d="M400.134,100.244l0,1600" style="fill:none;stroke-width:1px;stroke:#b3b3b3;"/><path d="M1000.13,100.244l0,1600" style="fill:none;stroke-width:1px;stroke:#b3b3b3;"/><path d="M1600.13,100.244l0,1600" style="fill:none;stroke-width:1px;stroke:#b3b3b3;"/><path d="M2200.13,100.244l0,1600" style="fill:none;stroke-width:1px;stroke:#b3b3b3;"/><path d="M2800.13,100.244l0,1600" style="fill:none;stroke-width:1px;stroke:#b3b3b3;"/><path d="M600.134,100.244l0,1600" style="fill:none;stroke-width:1px;stroke:#b3b3b3;"/><path d="M1200.13,100.244l0,1600" style="fill:none;stroke-width:1px;stroke:#b3b3b3;"/><path d="M1800.13,100.244l0,1600" style="fill:none;stroke-width:1px;stroke:#b3b3b3;"/><path d="M2400.13,100.244l0,1600" style="fill:none;stroke-width:1px;stroke:#b3b3b3;"/></g><g id="horizontal lines"><path d="M100.134,100.244l2700,0" style="fill:none;stroke-width:1px;stroke-linejoin:round;stroke-miterlimit:1.41421;stroke:#b3b3b3;"/><path d="M100.134,500.244l2700,0" style="fill:none;stroke-width:1px;stroke-linejoin:round;stroke-miterlimit:1.41421;stroke:#b3b3b3;"/><path d="M100.134,900.244l2700,0" style="fill:none;stroke-width:1px;stroke-linejoin:round;stroke-miterlimit:1.41421;stroke:#b3b3b3;"/><path d="M100.134,1300.24l2700,0" style="fill:none;stroke-width:1px;stroke-linejoin:round;stroke-miterlimit:1.41421;stroke:#b3b3b3;"/><path d="M2800.13,200.244l-2700,0" style="fill:none;stroke-width:1px;stroke-linejoin:round;stroke-miterlimit:1.41421;stroke:#b3b3b3;"/><path d="M2800.13,600.244l-2700,0" style="fill:none;stroke-width:1px;stroke-linejoin:round;stroke-miterlimit:1.41421;stroke:#b3b3b3;"/><path d="M2800.13,1000.24l-2700,0" style="fill:none;stroke-width:1px;stroke-linejoin:round;stroke-miterlimit:1.41421;stroke:#b3b3b3;"/><path d="M2800.13,1400.24l-2700,0" style="fill:none;stroke-width:1px;stroke-linejoin:round;stroke-miterlimit:1.41421;stroke:#b3b3b3;"/><path d="M100.134,300.244l2700,0" style="fill:none;stroke-width:1px;stroke-linejoin:round;stroke-miterlimit:1.41421;stroke:#b3b3b3;"/><path d="M100.134,700.244l2700,0" style="fill:none;stroke-width:1px;stroke-linejoin:round;stroke-miterlimit:1.41421;stroke:#b3b3b3;"/><path d="M100.134,1100.24l2700,0" style="fill:none;stroke-width:1px;stroke-linejoin:round;stroke-miterlimit:1.41421;stroke:#b3b3b3;"/><path d="M100.134,1500.24l2700,0" style="fill:none;stroke-width:1px;stroke-linejoin:round;stroke-miterlimit:1.41421;stroke:#b3b3b3;"/><path d="M100.134,400.244l2700,0" style="fill:none;stroke-width:1px;stroke-linejoin:round;stroke-miterlimit:1.41421;stroke:#b3b3b3;"/><path d="M100.134,800.244l2700,0" style="fill:none;stroke-width:1px;stroke-linejoin:round;stroke-miterlimit:1.41421;stroke:#b3b3b3;"/><path d="M100.134,1200.24l2700,0" style="fill:none;stroke-width:1px;stroke-linejoin:round;stroke-miterlimit:1.41421;stroke:#b3b3b3;"/><path d="M100.134,1600.24l2700,0" style="fill:none;stroke-width:1px;stroke-linejoin:round;stroke-miterlimit:1.41421;stroke:#b3b3b3;"/><path d="M100.134,1700.24l2700,0" style="fill:none;stroke-width:1px;stroke-linejoin:round;stroke-miterlimit:1.41421;stroke:#b3b3b3;"/></g><g id="top labels"><rect x="200.134" y="50.244" width="100" height="50" style="fill:#808080;stroke-width:1px;stroke-linejoin:round;stroke-miterlimit:1.41421;stroke:#000;"/><rect x="700.134" y="50.244" width="100" height="50" style="fill:#808080;stroke-width:1px;stroke-linejoin:round;stroke-miterlimit:1.41421;stroke:#000;"/><rect x="1200.13" y="50.244" width="100" height="50" style="fill:#808080;stroke-width:1px;stroke-linejoin:round;stroke-miterlimit:1.41421;stroke:#000;"/><rect x="1700.13" y="50.244" width="100" height="50" style="fill:#808080;stroke-width:1px;stroke-linejoin:round;stroke-miterlimit:1.41421;stroke:#000;"/><rect x="2200.13" y="50.244" width="100" height="50" style="fill:#808080;stroke-width:1px;stroke-linejoin:round;stroke-miterlimit:1.41421;stroke:#000;"/><rect x="300.134" y="50.244" width="100" height="50" style="fill:#808080;stroke-width:1px;stroke-linejoin:round;stroke-miterlimit:1.41421;stroke:#000;"/><rect x="800.134" y="50.244" width="100" height="50" style="fill:#808080;stroke-width:1px;stroke-linejoin:round;stroke-miterlimit:1.41421;stroke:#000;"/><rect x="1300.13" y="50.244" width="100" height="50" style="fill:#808080;stroke-width:1px;stroke-linejoin:round;stroke-miterlimit:1.41421;stroke:#000;"/><rect x="1800.13" y="50.244" width="100" height="50" style="fill:#808080;stroke-width:1px;stroke-linejoin:round;stroke-miterlimit:1.41421;stroke:#000;"/><rect x="2300.13" y="50.244" width="100" height="50" style="fill:#808080;stroke-width:1px;stroke-linejoin:round;stroke-miterlimit:1.41421;stroke:#000;"/><rect x="400.134" y="50.244" width="100" height="50" style="fill:#808080;stroke-width:1px;stroke-linejoin:round;stroke-miterlimit:1.41421;stroke:#000;"/><rect x="900.134" y="50.244" width="100" height="50" style="fill:#808080;stroke-width:1px;stroke-linejoin:round;stroke-miterlimit:1.41421;stroke:#000;"/><rect x="1400.13" y="50.244" width="100" height="50" style="fill:#808080;stroke-width:1px;stroke-linejoin:round;stroke-miterlimit:1.41421;stroke:#000;"/><rect x="1900.13" y="50.244" width="100" height="50" style="fill:#808080;stroke-width:1px;stroke-linejoin:round;stroke-miterlimit:1.41421;stroke:#000;"/><rect x="2400.13" y="50.244" width="100" height="50" style="fill:#808080;stroke-width:1px;stroke-linejoin:round;stroke-miterlimit:1.41421;stroke:#000;"/><rect x="500.134" y="50.244" width="100" height="50" style="fill:#808080;stroke-width:1px;stroke-linejoin:round;stroke-miterlimit:1.41421;stroke:#000;"/><rect x="1000.13" y="50.244" width="100" height="50" style="fill:#808080;stroke-width:1px;stroke-linejoin:round;stroke-miterlimit:1.41421;stroke:#000;"/><rect x="1500.13" y="50.244" width="100" height="50" style="fill:#808080;stroke-width:1px;stroke-linejoin:round;stroke-miterlimit:1.41421;stroke:#000;"/><rect x="2000.13" y="50.244" width="100" height="50" style="fill:#808080;stroke-width:1px;stroke-linejoin:round;stroke-miterlimit:1.41421;stroke:#000;"/><rect x="2500.13" y="50.244" width="100" height="50" style="fill:#808080;stroke-width:1px;stroke-linejoin:round;stroke-miterlimit:1.41421;stroke:#000;"/><rect x="600.134" y="50.244" width="100" height="50" style="fill:#808080;stroke-width:1px;stroke-linejoin:round;stroke-miterlimit:1.41421;stroke:#000;"/><rect x="1100.13" y="50.244" width="100" height="50" style="fill:#808080;stroke-width:1px;stroke-linejoin:round;stroke-miterlimit:1.41421;stroke:#000;"/><rect x="1600.13" y="50.244" width="100" height="50" style="fill:#808080;stroke-width:1px;stroke-linejoin:round;stroke-miterlimit:1.41421;stroke:#000;"/><rect x="2100.13" y="50.244" width="100" height="50" style="fill:#808080;stroke-width:1px;stroke-linejoin:round;stroke-miterlimit:1.41421;stroke:#000;"/><rect x="2600.13" y="50.244" width="100" height="50" style="fill:#808080;stroke-width:1px;stroke-linejoin:round;stroke-miterlimit:1.41421;stroke:#000;"/><rect x="2700.13" y="50.244" width="100" height="50" style="fill:#808080;stroke-width:1px;stroke-linejoin:round;stroke-miterlimit:1.41421;stroke:#000;"/><text x="238.144px" y="89.323px" style="font-family:'ArialMT';font-size:36px;fill:#000;">A</text><text x="738.144px" y="89.323px" style="font-family:'ArialMT';font-size:36px;fill:#000;">F</text><text x="1238.14px" y="89.323px" style="font-family:'ArialMT';font-size:36px;fill:#000;">K</text><text x="1738.14px" y="89.323px" style="font-family:'ArialMT';font-size:36px;fill:#000;">P</text><text x="2238.14px" y="89.323px" style="font-family:'ArialMT';font-size:36px;fill:#000;">U</text><text x="338.144px" y="89.323px" style="font-family:'ArialMT';font-size:36px;fill:#000;">B</text><text x="838.144px" y="89.323px" style="font-family:'ArialMT';font-size:36px;fill:#000;">G</text><text x="1338.14px" y="89.323px" style="font-family:'ArialMT';font-size:36px;fill:#000;">L</text><text x="1838.14px" y="89.323px" style="font-family:'ArialMT';font-size:36px;fill:#000;">Q</text><text x="2338.14px" y="89.323px" style="font-family:'ArialMT';font-size:36px;fill:#000;">V</text><text x="438.144px" y="89.323px" style="font-family:'ArialMT';font-size:36px;fill:#000;">C</text><text x="938.144px" y="89.323px" style="font-family:'ArialMT';font-size:36px;fill:#000;">H</text><text x="1438.14px" y="89.323px" style="font-family:'ArialMT';font-size:36px;fill:#000;">M</text><text x="1938.14px" y="89.323px" style="font-family:'ArialMT';font-size:36px;fill:#000;">R</text><text x="2438.14px" y="89.323px" style="font-family:'ArialMT';font-size:36px;fill:#000;">W</text><text x="538.144px" y="89.323px" style="font-family:'ArialMT';font-size:36px;fill:#000;">D</text><text x="1045.15px" y="89.323px" style="font-family:'ArialMT';font-size:36px;fill:#000;">I</text><text x="1538.14px" y="89.323px" style="font-family:'ArialMT';font-size:36px;fill:#000;">N</text><text x="2038.14px" y="89.323px" style="font-family:'ArialMT';font-size:36px;fill:#000;">S</text><text x="2538.14px" y="89.323px" style="font-family:'ArialMT';font-size:36px;fill:#000;">X</text><text x="638.144px" y="89.323px" style="font-family:'ArialMT';font-size:36px;fill:#000;">E</text><text x="1138.14px" y="89.323px" style="font-family:'ArialMT';font-size:36px;fill:#000;">J</text><text x="1638.14px" y="89.323px" style="font-family:'ArialMT';font-size:36px;fill:#000;">O</text><text x="2138.14px" y="89.323px" style="font-family:'ArialMT';font-size:36px;fill:#000;">T</text><text x="2638.14px" y="89.323px" style="font-family:'ArialMT';font-size:36px;fill:#000;">Y</text><text x="2738.14px" y="89.323px" style="font-family:'ArialMT';font-size:36px;fill:#000;">Z</text></g><g id="side labels"><rect x="50.134" y="200.244" width="50" height="100" style="fill:#808080;stroke-width:1px;stroke-linejoin:round;stroke-miterlimit:1.41421;stroke:#000;"/><rect x="50.134" y="600.244" width="50" height="100" style="fill:#808080;stroke-width:1px;stroke-linejoin:round;stroke-miterlimit:1.41421;stroke:#000;"/><rect x="50.134" y="1000.24" width="50" height="100" style="fill:#808080;stroke-width:1px;stroke-linejoin:round;stroke-miterlimit:1.41421;stroke:#000;"/><rect x="50.134" y="1400.24" width="50" height="100" style="fill:#808080;stroke-width:1px;stroke-linejoin:round;stroke-miterlimit:1.41421;stroke:#000;"/><rect x="50.134" y="300.244" width="50" height="100" style="fill:#808080;stroke-width:1px;stroke-linejoin:round;stroke-miterlimit:1.41421;stroke:#000;"/><rect x="50.134" y="700.244" width="50" height="100" style="fill:#808080;stroke-width:1px;stroke-linejoin:round;stroke-miterlimit:1.41421;stroke:#000;"/><rect x="50.134" y="1100.24" width="50" height="100" style="fill:#808080;stroke-width:1px;stroke-linejoin:round;stroke-miterlimit:1.41421;stroke:#000;"/><rect x="50.134" y="1500.24" width="50" height="100" style="fill:#808080;stroke-width:1px;stroke-linejoin:round;stroke-miterlimit:1.41421;stroke:#000;"/><rect x="50.134" y="400.244" width="50" height="100" style="fill:#808080;stroke-width:1px;stroke-linejoin:round;stroke-miterlimit:1.41421;stroke:#000;"/><rect x="50.134" y="800.244" width="50" height="100" style="fill:#808080;stroke-width:1px;stroke-linejoin:round;stroke-miterlimit:1.41421;stroke:#000;"/><rect x="50.134" y="1200.24" width="50" height="100" style="fill:#808080;stroke-width:1px;stroke-linejoin:round;stroke-miterlimit:1.41421;stroke:#000;"/><rect x="50.134" y="1600.24" width="50" height="100" style="fill:#808080;stroke-width:1px;stroke-linejoin:round;stroke-miterlimit:1.41421;stroke:#000;"/><rect x="50.134" y="500.244" width="50" height="100" style="fill:#808080;stroke-width:1px;stroke-linejoin:round;stroke-miterlimit:1.41421;stroke:#000;"/><rect x="50.134" y="900.244" width="50" height="100" style="fill:#808080;stroke-width:1px;stroke-linejoin:round;stroke-miterlimit:1.41421;stroke:#000;"/><rect x="50.134" y="1300.24" width="50" height="100" style="fill:#808080;stroke-width:1px;stroke-linejoin:round;stroke-miterlimit:1.41421;stroke:#000;"/><text x="65.119px" y="262.615px" style="font-family:'ArialMT';font-size:36px;fill:#000;">1</text><text x="65.119px" y="662.615px" style="font-family:'ArialMT';font-size:36px;fill:#000;">5</text><text x="65.119px" y="1062.62px" style="font-family:'ArialMT';font-size:36px;fill:#000;">9</text><text x="55.108px" y="1462.62px" style="font-family:'ArialMT';font-size:36px;fill:#000;">13</text><text x="65.119px" y="362.615px" style="font-family:'ArialMT';font-size:36px;fill:#000;">2</text><text x="65.119px" y="762.615px" style="font-family:'ArialMT';font-size:36px;fill:#000;">6</text><text x="55.108px" y="1162.62px" style="font-family:'ArialMT';font-size:36px;fill:#000;">10</text><text x="55.108px" y="1562.62px" style="font-family:'ArialMT';font-size:36px;fill:#000;">14</text><text x="65.119px" y="462.615px" style="font-family:'ArialMT';font-size:36px;fill:#000;">3</text><text x="65.119px" y="862.615px" style="font-family:'ArialMT';font-size:36px;fill:#000;">7</text><text x="56.444px" y="1262.62px" style="font-family:'ArialMT';font-size:36px;fill:#000;">1<tspan x="73.794px " y="1262.62px ">1</tspan></text><text x="55.108px" y="1662.62px" style="font-family:'ArialMT';font-size:36px;fill:#000;">15</text><text x="65.119px" y="562.615px" style="font-family:'ArialMT';font-size:36px;fill:#000;">4</text><text x="65.119px" y="962.615px" style="font-family:'ArialMT';font-size:36px;fill:#000;">8</text><text x="55.108px" y="1362.62px" style="font-family:'ArialMT';font-size:36px;fill:#000;">12</text></g><rect x="100.134" y="100.244" width="100" height="100" style="fill:#808080;stroke-width:1px;stroke-linejoin:round;stroke-miterlimit:1.41421;stroke:#000;"/><text x="105.681px" y="176.087px" style="font-family:'ArialMT';font-size:64px;fill:#000;">1m</text></g><path d="M800.134,600.244l0,-100c-13.602,-169.972 -103.793,-277.915 -300,-300c-171.365,14.916 -280.394,104.152 -300,300c38.48,142.399 135.442,226.595 300,243.518" style="fill:none;stroke-width:4.5px;stroke-linejoin:round;stroke-miterlimit:1.41421;stroke:#000;"/><g><circle cx="200.134" cy="500.244" r="20" style="fill:#fcd1d1;stroke-width:1px;stroke-linejoin:round;stroke-miterlimit:1.41421;stroke:#000;"/><circle cx="200.134" cy="500.244" r="10" style="fill:#fc2e30;stroke-width:1px;stroke-linejoin:round;stroke-miterlimit:1.41421;stroke:#000;"/></g><g><circle cx="500.134" cy="200.244" r="20" style="fill:#fcd1d1;stroke-width:1px;stroke-linejoin:round;stroke-miterlimit:1.41421;stroke:#000;"/><circle cx="500.134" cy="200.244" r="10" style="fill:#fc2e30;stroke-width:1px;stroke-linejoin:round;stroke-miterlimit:1.41421;stroke:#000;"/></g><g><circle cx="800.134" cy="500.244" r="20" style="fill:#fcd1d1;stroke-width:1px;stroke-linejoin:round;stroke-miterlimit:1.41421;stroke:#000;"/><circle cx="800.134" cy="500.244" r="10" style="fill:#fc2e30;stroke-width:1px;stroke-linejoin:round;stroke-miterlimit:1.41421;stroke:#000;"/></g><g><circle cx="800.134" cy="750.244" r="20" style="fill:#fcd1d1;stroke-width:1px;stroke-linejoin:round;stroke-miterlimit:1.41421;stroke:#000;"/><circle cx="800.134" cy="750.244" r="10" style="fill:#fc2e30;stroke-width:1px;stroke-linejoin:round;stroke-miterlimit:1.41421;stroke:#000;"/></g><g><circle cx="800.134" cy="600.244" r="20" style="fill:#fcd1d1;stroke-width:1px;stroke-linejoin:round;stroke-miterlimit:1.41421;stroke:#000;"/><circle cx="800.134" cy="600.244" r="10" style="fill:#fc2e30;stroke-width:1px;stroke-linejoin:round;stroke-miterlimit:1.41421;stroke:#000;"/></g><g><circle cx="500.134" cy="746.159" r="20" style="fill:#fcd1d1;stroke-width:1px;stroke-linejoin:round;stroke-miterlimit:1.41421;stroke:#000;"/><circle cx="500.134" cy="746.159" r="10" style="fill:#fc2e30;stroke-width:1px;stroke-linejoin:round;stroke-miterlimit:1.41421;stroke:#000;"/></g><g><circle cx="720.134" cy="280.244" r="20" style="fill:#fcd1d1;stroke-width:1px;stroke-linejoin:round;stroke-miterlimit:1.41421;stroke:#000;"/><circle cx="720.134" cy="280.244" r="10" style="fill:#fc2e30;stroke-width:1px;stroke-linejoin:round;stroke-miterlimit:1.41421;stroke:#000;"/></g><g><circle cx="280.134" cy="280.244" r="20" style="fill:#fcd1d1;stroke-width:1px;stroke-linejoin:round;stroke-miterlimit:1.41421;stroke:#000;"/><circle cx="280.134" cy="280.244" r="10" style="fill:#fc2e30;stroke-width:1px;stroke-linejoin:round;stroke-miterlimit:1.41421;stroke:#000;"/></g><g><circle cx="220.134" cy="380.244" r="20" style="fill:#fcd1d1;stroke-width:1px;stroke-linejoin:round;stroke-miterlimit:1.41421;stroke:#000;"/><circle cx="220.134" cy="380.244" r="10" style="fill:#fc2e30;stroke-width:1px;stroke-linejoin:round;stroke-miterlimit:1.41421;stroke:#000;"/></g><g><circle cx="780.134" cy="380.244" r="20" style="fill:#fcd1d1;stroke-width:1px;stroke-linejoin:round;stroke-miterlimit:1.41421;stroke:#000;"/><circle cx="780.134" cy="380.244" r="10" style="fill:#fc2e30;stroke-width:1px;stroke-linejoin:round;stroke-miterlimit:1.41421;stroke:#000;"/></g><g><circle cx="620.134" cy="220.244" r="20" style="fill:#fcd1d1;stroke-width:1px;stroke-linejoin:round;stroke-miterlimit:1.41421;stroke:#000;"/><circle cx="620.134" cy="220.244" r="10" style="fill:#fc2e30;stroke-width:1px;stroke-linejoin:round;stroke-miterlimit:1.41421;stroke:#000;"/></g><g><circle cx="380.134" cy="220.244" r="20" style="fill:#fcd1d1;stroke-width:1px;stroke-linejoin:round;stroke-miterlimit:1.41421;stroke:#000;"/><circle cx="380.134" cy="220.244" r="10" style="fill:#fc2e30;stroke-width:1px;stroke-linejoin:round;stroke-miterlimit:1.41421;stroke:#000;"/></g><g><circle cx="380.134" cy="720.244" r="20" style="fill:#fcd1d1;stroke-width:1px;stroke-linejoin:round;stroke-miterlimit:1.41421;stroke:#000;"/><circle cx="380.134" cy="720.244" r="10" style="fill:#fc2e30;stroke-width:1px;stroke-linejoin:round;stroke-miterlimit:1.41421;stroke:#000;"/></g><g><circle cx="320.134" cy="680.244" r="20" style="fill:#fcd1d1;stroke-width:1px;stroke-linejoin:round;stroke-miterlimit:1.41421;stroke:#000;"/><circle cx="320.134" cy="680.244" r="10" style="fill:#fc2e30;stroke-width:1px;stroke-linejoin:round;stroke-miterlimit:1.41421;stroke:#000;"/></g><g><circle cx="220.134" cy="580.244" r="20" style="fill:#fcd1d1;stroke-width:1px;stroke-linejoin:round;stroke-miterlimit:1.41421;stroke:#000;"/><circle cx="220.134" cy="580.244" r="10" style="fill:#fc2e30;stroke-width:1px;stroke-linejoin:round;stroke-miterlimit:1.41421;stroke:#000;"/></g><g><circle cx="800.134" cy="800.244" r="20" style="fill:#fcd1d1;stroke-width:1px;stroke-linejoin:round;stroke-miterlimit:1.41421;stroke:#000;"/><circle cx="800.134" cy="800.244" r="10" style="fill:#fc2e30;stroke-width:1px;stroke-linejoin:round;stroke-miterlimit:1.41421;stroke:#000;"/></g><path d="M700.134,900.244l0,-400c0.024,-114.074 -94.171,-232.95 -200,-252.394c-148.397,17.771 -226.097,92.944 -200,252.394c69.607,201.088 249.543,207.147 600,173.612" style="fill:none;stroke-width:36px;stroke-linejoin:round;stroke-miterlimit:1.41421;stroke:#14a90c;stroke-opacity:0.698039;"/><path d="M699.434,882.201l49.248,159l-98.495,0l49.247,-159Z" style="fill:#000;"/></svg>