<?xml version="1.0" standalone="no"?><!DOCTYPE svg PUBLIC "-//W3C//DTD SVG 1.1//EN" "http://www.w3.org/Graphics/SVG/1.1/DTD/svg11.dtd"><svg width="100%" height="100%" viewBox="0 0 1301 1301" version="1.1" xmlns="http://www.w3.org/2000/svg" xmlns:xlink="http://www.w3.org/1999/xlink" xml:space="preserve" style="fill-rule:evenodd;clip-rule:evenodd;stroke-linejoin:round;stroke-miterlimit:1.41421;"><clipPath id="_clip1"><rect id="sickle" x="0.134" y="0.244" width="1300" height="1300"/></clipPath><g clip-path="url(#_clip1)"><path d="M800.134,600.244l0,-100c-13.602,-169.972 -103.793,-277.915 -300,-300c-171.365,14.916 -280.394,104.152 -300,300c38.48,142.399 135.442,226.595 300,243.518" style="fill:none;stroke-width:4.5px;stroke:#000;"/><g><circle cx="200.134" cy="500.244" r="20" style="fill:#fcd1d1;stroke-width:1px;stroke:#000;"/><circle cx="200.134" cy="500.244" r="10" style="fill:#fc2e30;stroke-width:1px;stroke:#000;"/></g><g><circle cx="500.134" cy="200.244" r="20" style="fill:#fcd1d1;stroke-width:1px;stroke:#000;"/><circle cx="500.134" cy="200.244" r="10" style="fill:#fc2e30;stroke-width:1px;stroke:#000;"/></g><g><circle cx="800.134" cy="500.244" r="20" style="fill:#fcd1d1;stroke-width:1px;stroke:#000;"/><circle cx="800.134" cy="500.244" r="10" style="fill:#fc2e30;stroke-width:1px;stroke:#000;"/></g><g><circle cx="800.134" cy="750.244" r="20" style="fill:#fcd1d1;stroke-width:1px;stroke:#000;"/><circle cx="800.134" cy="750.244" r="10" style="fill:#fc2e30;stroke-width:1px;stroke:#000;"/></g><g><circle cx="800.134" cy="600.244" r="20" style="fill:#fcd1d1;stroke-width:1px;stroke:#000;"/><circle cx="800.134" cy="600.244" r="10" style="fill:#fc2e30;stroke-width:1px;stroke:#000;"/></g><g><circle cx="500.134" cy="746.159" r="20" style="fill:#fcd1d1;stroke-width:1px;stroke:#000;"/><circle cx="500.134" cy="746.159" r="10" style="fill:#fc2e30;stroke-width:1px;stroke:#000;"/></g><g><circle cx="720.134" cy="280.244" r="20" style="fill:#fcd1d1;stroke-width:1px;stroke:#000;"/><circle cx="720.134" cy="280.244" r="10" style="fill:#fc2e30;stroke-width:1px;stroke:#000;"/></g><g><circle cx="280.134" cy="280.244" r="20" style="fill:#fcd1d1;stroke-width:1px;stroke:#000;"/><circle cx="280.134" cy="280.244" r="10" style="fill:#fc2e30;stroke-width:1px;stroke:#000;"/></g><g><circle cx="220.134" cy="380.244" r="20" style="fill:#fcd1d1;stroke-width:1px;stroke:#000;"/><circle cx="220.134" cy="380.244" r="10" style="fill:#fc2e30;stroke-width:1px;stroke:#000;"/></g><g><circle cx="780.134" cy="380.244" r="20" style="fill:#fcd1d1;stroke-width:1px;stroke:#000;"/><circle cx="780.134" cy="380.244" r="10" style="fill:#fc2e30;stroke-width:1px;stroke:#000;"/></g><g><circle cx="620.134" cy="220.244" r="20" style="fill:#fcd1d1;stroke-width:1px;stroke:#000;"/><circle cx="620.134" cy="220.244" r="10" style="fill:#fc2e30;stroke-width:1px;stroke:#000;"/></g><g><circle cx="380.134" cy="220.244" r="20" style="fill:#fcd1d1;stroke-width:1px;stroke:#000;"/><circle cx="380.134" cy="220.244" r="10" style="fill:#fc2e30;stroke-width:1px;stroke:#000;"/></g><g><circle cx="380.134" cy="720.244" r="20" style="fill:#fcd1d1;stroke-width:1px;stroke:#000;"/><circle cx="380.134" cy="720.244" r="10" style="fill:#fc2e30;stroke-width:1px;stroke:#000;"/></g><g><circle cx="320.134" cy="680.244" r="20" style="fill:#fcd1d1;stroke-width:1px;stroke:#000;"/><circle cx="320.134" cy="680.244" r="10" style="fill:#fc2e30;stroke-width:1px;stroke:#000;"/></g><g><circle cx="220.134" cy="580.244" r="20" style="fill:#fcd1d1;stroke-width:1px;stroke:#000;"/><circle cx="220.134" cy="580.244" r="10" style="fill:#fc2e30;stroke-width:1px;stroke:#000;"/></g><g><circle cx="800.134" cy="800.244" r="20" style="fill:#fcd1d1;stroke-width:1px;stroke:#000;"/><circle cx="800.134" cy="800.244" r="10" style="fill:#fc2e30;stroke-width:1px;stroke:#000;"/></g><path d="M700.134,900.244l0,-400c0.024,-114.074 -94.171,-232.95 -200,-252.394c-148.397,17.771 -226.097,92.944 -200,252.394c69.607,201.088 249.543,207.147 600,173.612" style="fill:none;stroke-width:8px;stroke-dasharray:24,48,0,0;stroke:#14a90c;stroke-opacity:0.698039;"/><g><rect x="650.135" y="897.993" width="100" height="4.5" style="fill:#000;"/><rect x="697.885" y="900.243" width="4.5" height="50" style="fill:#000;"/></g><g id="grid"><g id="bold lines"><path d="M700.134,100.244l0,2800" style="fill:none;stroke-width:1px;stroke-miterlimit:1;stroke:#000;stroke-opacity:0.298039;"/><path d="M100.134,700.244l2600,0" style="fill:none;stroke-width:1px;stroke-miterlimit:1;stroke:#000;stroke-opacity:0.298039;"/><path d="M1200.13,100.244l0,2800" style="fill:none;stroke-width:1px;stroke-miterlimit:1;stroke:#000;stroke-opacity:0.298039;"/><path d="M100.134,1200.24l2600,0" style="fill:none;stroke-width:1px;stroke-miterlimit:1;stroke:#000;stroke-opacity:0.298039;"/><path d="M100.134,200.244l2600,0" style="fill:none;stroke-width:1px;stroke-miterlimit:1;stroke:#000;stroke-opacity:0.298039;"/><path d="M200.134,2900.24l0,-2800" style="fill:none;stroke-width:1px;stroke-miterlimit:1;stroke:#000;stroke-opacity:0.298039;"/></g><g id="vertical lines"><path d="M100.134,100.244l0,2800" style="fill:none;stroke-width:1px;stroke-linejoin:miter;stroke-miterlimit:1;stroke-dasharray:10,44,2,44;stroke-dashoffset:5;stroke:#000;"/><path d="M700.134,100.244l0,2800" style="fill:none;stroke-width:1px;stroke-linejoin:miter;stroke-miterlimit:1;stroke-dasharray:10,44,2,44;stroke-dashoffset:5;stroke:#000;"/><path d="M1300.13,100.244l0,2800" style="fill:none;stroke-width:1px;stroke-linejoin:miter;stroke-miterlimit:1;stroke-dasharray:10,44,2,44;stroke-dashoffset:5;stroke:#000;"/><path d="M300.134,100.244l0,2800" style="fill:none;stroke-width:1px;stroke-linejoin:miter;stroke-miterlimit:1;stroke-dasharray:10,44,2,44;stroke-dashoffset:5;stroke:#000;"/><path d="M900.134,100.244l0,2800" style="fill:none;stroke-width:1px;stroke-linejoin:miter;stroke-miterlimit:1;stroke-dasharray:10,44,2,44;stroke-dashoffset:5;stroke:#000;"/><path d="M500.134,100.244l0,2800" style="fill:none;stroke-width:1px;stroke-linejoin:miter;stroke-miterlimit:1;stroke-dasharray:10,44,2,44;stroke-dashoffset:5;stroke:#000;"/><path d="M1100.13,100.244l0,2800" style="fill:none;stroke-width:1px;stroke-linejoin:miter;stroke-miterlimit:1;stroke-dasharray:10,44,2,44;stroke-dashoffset:5;stroke:#000;"/><path d="M200.134,100.244l0,2800" style="fill:none;stroke-width:1px;stroke-linejoin:miter;stroke-miterlimit:1;stroke-dasharray:10,44,2,44;stroke-dashoffset:5;stroke:#000;"/><path d="M800.134,100.244l0,2800" style="fill:none;stroke-width:1px;stroke-linejoin:miter;stroke-miterlimit:1;stroke-dasharray:10,44,2,44;stroke-dashoffset:5;stroke:#000;"/><path d="M400.134,100.244l0,2800" style="fill:none;stroke-width:1px;stroke-linejoin:miter;stroke-miterlimit:1;stroke-dasharray:10,44,2,44;stroke-dashoffset:5;stroke:#000;"/><path d="M1000.13,100.244l0,2800" style="fill:none;stroke-width:1px;stroke-linejoin:miter;stroke-miterlimit:1;stroke-dasharray:10,44,2,44;stroke-dashoffset:5;stroke:#000;"/><path d="M600.134,100.244l0,2800" style="fill:none;stroke-width:1px;stroke-linejoin:miter;stroke-miterlimit:1;stroke-dasharray:10,44,2,44;stroke-dashoffset:5;stroke:#000;"/><path d="M1200.13,100.244l0,2800" style="fill:none;stroke-width:1px;stroke-linejoin:miter;stroke-miterlimit:1;stroke-dasharray:10,44,2,44;stroke-dashoffset:5;stroke:#000;"/></g><g id="horizontal lines"><path d="M100.134,100.244l2600,0" style="fill:none;stroke-width:1px;stroke-dasharray:10,44,2,44;stroke-dashoffset:5;stroke:#000;"/><path d="M100.134,500.244l2600,0" style="fill:none;stroke-width:1px;stroke-dasharray:10,44,2,44;stroke-dashoffset:5;stroke:#000;"/><path d="M100.134,900.244l2600,0" style="fill:none;stroke-width:1px;stroke-dasharray:10,44,2,44;stroke-dashoffset:5;stroke:#000;"/><path d="M100.134,1300.24l2600,0" style="fill:none;stroke-width:1px;stroke-dasharray:10,44,2,44;stroke-dashoffset:5;stroke:#000;"/><path d="M2700.13,200.244l-2600,0" style="fill:none;stroke-width:1px;stroke-dasharray:10,44,2,44;stroke-dashoffset:5;stroke:#000;"/><path d="M2700.13,600.244l-2600,0" style="fill:none;stroke-width:1px;stroke-dasharray:10,44,2,44;stroke-dashoffset:5;stroke:#000;"/><path d="M2700.13,1000.24l-2600,0" style="fill:none;stroke-width:1px;stroke-dasharray:10,44,2,44;stroke-dashoffset:5;stroke:#000;"/><path d="M100.134,300.244l2600,0" style="fill:none;stroke-width:1px;stroke-dasharray:10,44,2,44;stroke-dashoffset:5;stroke:#000;"/><path d="M100.134,700.244l2600,0" style="fill:none;stroke-width:1px;stroke-dasharray:10,44,2,44;stroke-dashoffset:5;stroke:#000;"/><path d="M100.134,1100.24l2600,0" style="fill:none;stroke-width:1px;stroke-dasharray:10,44,2,44;stroke-dashoffset:5;stroke:#000;"/><path d="M100.134,400.244l2600,0" style="fill:none;stroke-width:1px;stroke-dasharray:10,44,2,44;stroke-dashoffset:5;stroke:#000;"/><path d="M100.134,800.244l2600,0" style="fill:none;stroke-width:1px;stroke-dasharray:10,44,2,44;stroke-dashoffset:5;stroke:#000;"/><path d="M100.134,1200.24l2600,0" style="fill:none;stroke-width:1px;stroke-dasharray:10,44,2,44;stroke-dashoffset:5;stroke:#000;"/></g><g id="top labels"><rect x="150.134" y="50.244" width="100" height="50" style="fill:#808080;stroke-width:1px;stroke:#000;"/><rect x="650.134" y="50.244" width="100" height="50" style="fill:#808080;stroke-width:1px;stroke:#000;"/><rect x="1150.13" y="50.244" width="100" height="50" style="fill:#808080;stroke-width:1px;stroke:#000;"/><rect x="250.134" y="50.244" width="100" height="50" style="fill:#808080;stroke-width:1px;stroke:#000;"/><rect x="750.134" y="50.244" width="100" height="50" style="fill:#808080;stroke-width:1px;stroke:#000;"/><rect x="1250.13" y="50.244" width="100" height="50" style="fill:#808080;stroke-width:1px;stroke:#000;"/><rect x="350.134" y="50.244" width="100" height="50" style="fill:#808080;stroke-width:1px;stroke:#000;"/><rect x="850.134" y="50.244" width="100" height="50" style="fill:#808080;stroke-width:1px;stroke:#000;"/><rect x="450.134" y="50.244" width="100" height="50" style="fill:#808080;stroke-width:1px;stroke:#000;"/><rect x="950.134" y="50.244" width="100" height="50" style="fill:#808080;stroke-width:1px;stroke:#000;"/><rect x="550.134" y="50.244" width="100" height="50" style="fill:#808080;stroke-width:1px;stroke:#000;"/><rect x="1050.13" y="50.244" width="100" height="50" style="fill:#808080;stroke-width:1px;stroke:#000;"/><text x="188.144px" y="89.323px" style="font-family:'ArialMT';font-size:36px;fill:#000;stroke-width:1px;stroke:#000;">A</text><text x="688.144px" y="89.323px" style="font-family:'ArialMT';font-size:36px;fill:#000;stroke-width:1px;stroke:#000;">F</text><text x="1188.14px" y="89.323px" style="font-family:'ArialMT';font-size:36px;fill:#000;stroke-width:1px;stroke:#000;">K</text><text x="288.144px" y="89.323px" style="font-family:'ArialMT';font-size:36px;fill:#000;stroke-width:1px;stroke:#000;">B</text><text x="788.144px" y="89.323px" style="font-family:'ArialMT';font-size:36px;fill:#000;stroke-width:1px;stroke:#000;">G</text><text x="1288.14px" y="89.323px" style="font-family:'ArialMT';font-size:36px;fill:#000;stroke-width:1px;stroke:#000;">L</text><text x="388.144px" y="89.323px" style="font-family:'ArialMT';font-size:36px;fill:#000;stroke-width:1px;stroke:#000;">C</text><text x="888.144px" y="89.323px" style="font-family:'ArialMT';font-size:36px;fill:#000;stroke-width:1px;stroke:#000;">H</text><text x="488.144px" y="89.323px" style="font-family:'ArialMT';font-size:36px;fill:#000;stroke-width:1px;stroke:#000;">D</text><text x="995.149px" y="89.323px" style="font-family:'ArialMT';font-size:36px;fill:#000;stroke-width:1px;stroke:#000;">I</text><text x="588.144px" y="89.323px" style="font-family:'ArialMT';font-size:36px;fill:#000;stroke-width:1px;stroke:#000;">E</text><text x="1088.14px" y="89.323px" style="font-family:'ArialMT';font-size:36px;fill:#000;stroke-width:1px;stroke:#000;">J</text></g><g id="top numbers"><text x="292.903px" y="46.005px" style="font-family:'ArialMT';font-size:20px;fill:#000;stroke-width:1px;stroke:#000;">1</text><text x="194.573px" y="46.005px" style="font-family:'ArialMT';font-size:20px;fill:#000;stroke-width:1px;stroke:#000;">0</text><text x="792.903px" y="46.005px" style="font-family:'ArialMT';font-size:20px;fill:#000;stroke-width:1px;stroke:#000;">6</text><text x="1288.25px" y="46.005px" style="font-family:'ArialMT';font-size:20px;fill:#000;stroke-width:1px;stroke:#000;">1<tspan x="1297.89px " y="46.005px ">1</tspan></text><text x="392.903px" y="46.005px" style="font-family:'ArialMT';font-size:20px;fill:#000;stroke-width:1px;stroke:#000;">2</text><text x="893.45px" y="46.005px" style="font-family:'ArialMT';font-size:20px;fill:#000;stroke-width:1px;stroke:#000;">7</text><text x="492.903px" y="46.005px" style="font-family:'ArialMT';font-size:20px;fill:#000;stroke-width:1px;stroke:#000;">3</text><text x="993.45px" y="46.005px" style="font-family:'ArialMT';font-size:20px;fill:#000;stroke-width:1px;stroke:#000;">8</text><text x="592.903px" y="46.005px" style="font-family:'ArialMT';font-size:20px;fill:#000;stroke-width:1px;stroke:#000;">4</text><text x="1093.45px" y="46.005px" style="font-family:'ArialMT';font-size:20px;fill:#000;stroke-width:1px;stroke:#000;">9</text><text x="692.903px" y="46.005px" style="font-family:'ArialMT';font-size:20px;fill:#000;stroke-width:1px;stroke:#000;">5</text><text x="1189.01px" y="46.005px" style="font-family:'ArialMT';font-size:20px;fill:#000;stroke-width:1px;stroke:#000;">10</text></g><g id="side labels"><rect x="50.134" y="250.244" width="50" height="100" style="fill:#808080;stroke-width:1px;stroke:#000;"/><rect x="50.134" y="150.244" width="50" height="100" style="fill:#808080;stroke-width:1px;stroke:#000;"/><rect x="50.134" y="650.244" width="50" height="100" style="fill:#808080;stroke-width:1px;stroke:#000;"/><rect x="50.134" y="1050.24" width="50" height="100" style="fill:#808080;stroke-width:1px;stroke:#000;"/><rect x="50.134" y="350.244" width="50" height="100" style="fill:#808080;stroke-width:1px;stroke:#000;"/><rect x="50.134" y="750.244" width="50" height="100" style="fill:#808080;stroke-width:1px;stroke:#000;"/><rect x="50.134" y="1150.24" width="50" height="100" style="fill:#808080;stroke-width:1px;stroke:#000;"/><rect x="50.134" y="450.244" width="50" height="100" style="fill:#808080;stroke-width:1px;stroke:#000;"/><rect x="50.134" y="850.244" width="50" height="100" style="fill:#808080;stroke-width:1px;stroke:#000;"/><rect x="50.134" y="1250.24" width="50" height="100" style="fill:#808080;stroke-width:1px;stroke:#000;"/><rect x="50.134" y="550.244" width="50" height="100" style="fill:#808080;stroke-width:1px;stroke:#000;"/><rect x="50.134" y="950.244" width="50" height="100" style="fill:#808080;stroke-width:1px;stroke:#000;"/><text x="65.119px" y="312.615px" style="font-family:'ArialMT';font-size:36px;fill:#000;stroke-width:1px;stroke:#000;">1</text><text x="65.119px" y="212.615px" style="font-family:'ArialMT';font-size:36px;fill:#000;stroke-width:1px;stroke:#000;">0</text><text x="65.119px" y="712.615px" style="font-family:'ArialMT';font-size:36px;fill:#000;stroke-width:1px;stroke:#000;">5</text><text x="65.119px" y="1112.62px" style="font-family:'ArialMT';font-size:36px;fill:#000;stroke-width:1px;stroke:#000;">9</text><text x="65.119px" y="412.615px" style="font-family:'ArialMT';font-size:36px;fill:#000;stroke-width:1px;stroke:#000;">2</text><text x="65.119px" y="812.615px" style="font-family:'ArialMT';font-size:36px;fill:#000;stroke-width:1px;stroke:#000;">6</text><text x="55.108px" y="1212.62px" style="font-family:'ArialMT';font-size:36px;fill:#000;stroke-width:1px;stroke:#000;">10</text><text x="65.119px" y="512.615px" style="font-family:'ArialMT';font-size:36px;fill:#000;stroke-width:1px;stroke:#000;">3</text><text x="65.119px" y="912.615px" style="font-family:'ArialMT';font-size:36px;fill:#000;stroke-width:1px;stroke:#000;">7</text><text x="56.444px" y="1312.62px" style="font-family:'ArialMT';font-size:36px;fill:#000;stroke-width:1px;stroke:#000;">1<tspan x="73.794px " y="1312.62px ">1</tspan></text><text x="65.119px" y="612.615px" style="font-family:'ArialMT';font-size:36px;fill:#000;stroke-width:1px;stroke:#000;">4</text><text x="65.119px" y="1012.62px" style="font-family:'ArialMT';font-size:36px;fill:#000;stroke-width:1px;stroke:#000;">8</text></g><rect x="0.134" y="0.244" width="100" height="100" style="fill:none;stroke-width:1px;stroke-miterlimit:1;stroke:#000;"/><rect x="50.134" y="50.244" width="100" height="100" style="fill:#808080;stroke-width:1px;stroke:#000;"/><text x="55.681px" y="126.087px" style="font-family:'ArialMT';font-size:64px;fill:#000;stroke-width:1px;stroke:#000;">1m</text></g></g></svg>