<?xml version="1.0" standalone="no"?><!DOCTYPE svg PUBLIC "-//W3C//DTD SVG 1.1//EN" "http://www.w3.org/Graphics/SVG/1.1/DTD/svg11.dtd"><svg width="100%" height="100%" viewBox="0 0 5421 5421" version="1.1" xmlns="http://www.w3.org/2000/svg" xmlns:xlink="http://www.w3.org/1999/xlink" xml:space="preserve" style="fill-rule:evenodd;clip-rule:evenodd;stroke-linejoin:round;stroke-miterlimit:1.41421;"><clipPath id="_clip1"><rect id="sickle" x="2.255" y="1.015" width="5416.67" height="5416.67"/></clipPath><g clip-path="url(#_clip1)"><path d="M3335.59,2501.01l0,-416.667c-56.673,-708.214 -432.471,-1157.98 -1250,-1250c-714.023,62.152 -1168.31,433.967 -1250,1250c160.332,593.332 564.342,944.149 1250,1014.66" style="fill:none;stroke-width:18.75px;stroke:#000;"/><g><circle cx="835.588" cy="2084.35" r="83.333" style="fill:#fcd1d1;stroke-width:4.17px;stroke:#000;"/><circle cx="835.588" cy="2084.35" r="41.667" style="fill:#fc2e30;stroke-width:4.17px;stroke:#000;"/></g><g><circle cx="2085.59" cy="834.348" r="83.333" style="fill:#fcd1d1;stroke-width:4.17px;stroke:#000;"/><circle cx="2085.59" cy="834.348" r="41.667" style="fill:#fc2e30;stroke-width:4.17px;stroke:#000;"/></g><g><circle cx="3335.59" cy="2084.35" r="83.333" style="fill:#fcd1d1;stroke-width:4.17px;stroke:#000;"/><circle cx="3335.59" cy="2084.35" r="41.667" style="fill:#fc2e30;stroke-width:4.17px;stroke:#000;"/></g><g><circle cx="3335.59" cy="3126.01" r="83.333" style="fill:#fcd1d1;stroke-width:4.17px;stroke:#000;"/><circle cx="3335.59" cy="3126.01" r="41.667" style="fill:#fc2e30;stroke-width:4.17px;stroke:#000;"/></g><g><circle cx="3335.59" cy="2501.01" r="83.333" style="fill:#fcd1d1;stroke-width:4.17px;stroke:#000;"/><circle cx="3335.59" cy="2501.01" r="41.667" style="fill:#fc2e30;stroke-width:4.17px;stroke:#000;"/></g><g><circle cx="2085.59" cy="3108.99" r="83.333" style="fill:#fcd1d1;stroke-width:4.17px;stroke:#000;"/><circle cx="2085.59" cy="3108.99" r="41.667" style="fill:#fc2e30;stroke-width:4.17px;stroke:#000;"/></g><g><circle cx="3002.26" cy="1167.68" r="83.333" style="fill:#fcd1d1;stroke-width:4.17px;stroke:#000;"/><circle cx="3002.26" cy="1167.68" r="41.667" style="fill:#fc2e30;stroke-width:4.17px;stroke:#000;"/></g><g><circle cx="1168.92" cy="1167.68" r="83.333" style="fill:#fcd1d1;stroke-width:4.17px;stroke:#000;"/><circle cx="1168.92" cy="1167.68" r="41.667" style="fill:#fc2e30;stroke-width:4.17px;stroke:#000;"/></g><g><circle cx="918.921" cy="1584.35" r="83.333" style="fill:#fcd1d1;stroke-width:4.17px;stroke:#000;"/><circle cx="918.921" cy="1584.35" r="41.667" style="fill:#fc2e30;stroke-width:4.17px;stroke:#000;"/></g><g><circle cx="3252.26" cy="1584.35" r="83.333" style="fill:#fcd1d1;stroke-width:4.17px;stroke:#000;"/><circle cx="3252.26" cy="1584.35" r="41.667" style="fill:#fc2e30;stroke-width:4.17px;stroke:#000;"/></g><g><circle cx="2585.59" cy="917.681" r="83.333" style="fill:#fcd1d1;stroke-width:4.17px;stroke:#000;"/><circle cx="2585.59" cy="917.681" r="41.667" style="fill:#fc2e30;stroke-width:4.17px;stroke:#000;"/></g><g><circle cx="1585.59" cy="917.681" r="83.333" style="fill:#fcd1d1;stroke-width:4.17px;stroke:#000;"/><circle cx="1585.59" cy="917.681" r="41.667" style="fill:#fc2e30;stroke-width:4.17px;stroke:#000;"/></g><g><circle cx="1585.59" cy="3001.01" r="83.333" style="fill:#fcd1d1;stroke-width:4.17px;stroke:#000;"/><circle cx="1585.59" cy="3001.01" r="41.667" style="fill:#fc2e30;stroke-width:4.17px;stroke:#000;"/></g><g><circle cx="1335.59" cy="2834.35" r="83.333" style="fill:#fcd1d1;stroke-width:4.17px;stroke:#000;"/><circle cx="1335.59" cy="2834.35" r="41.667" style="fill:#fc2e30;stroke-width:4.17px;stroke:#000;"/></g><g><circle cx="918.921" cy="2417.68" r="83.333" style="fill:#fcd1d1;stroke-width:4.17px;stroke:#000;"/><circle cx="918.921" cy="2417.68" r="41.667" style="fill:#fc2e30;stroke-width:4.17px;stroke:#000;"/></g><g><circle cx="3335.59" cy="3334.35" r="83.333" style="fill:#fcd1d1;stroke-width:4.17px;stroke:#000;"/><circle cx="3335.59" cy="3334.35" r="41.667" style="fill:#fc2e30;stroke-width:4.17px;stroke:#000;"/></g><path d="M2918.92,3751.01l0,-1666.67c0.099,-475.307 -392.38,-970.622 -833.333,-1051.64c-618.32,74.047 -942.071,387.267 -833.333,1051.64c290.03,837.867 1039.76,863.115 2500,723.386" style="fill:none;stroke-width:33.33px;stroke-dasharray:100,200,0,0;stroke:#14a90c;stroke-opacity:0.698039;"/><g><rect x="2710.58" y="3741.64" width="416.667" height="18.75" style="fill:#000;"/><rect x="2909.54" y="3751.01" width="18.75" height="208.333" style="fill:#000;"/></g><g id="grid"><g id="bold lines"><path d="M2918.92,417.681l0,11666.7" style="fill:none;stroke-width:4.17px;stroke-miterlimit:1;stroke:#000;stroke-opacity:0.298039;"/><path d="M418.921,2917.68l10833.3,0" style="fill:none;stroke-width:4.17px;stroke-miterlimit:1;stroke:#000;stroke-opacity:0.298039;"/><path d="M5002.26,417.681l0,11666.7" style="fill:none;stroke-width:4.17px;stroke-miterlimit:1;stroke:#000;stroke-opacity:0.298039;"/><path d="M418.921,5001.02l10833.3,0" style="fill:none;stroke-width:4.17px;stroke-miterlimit:1;stroke:#000;stroke-opacity:0.298039;"/><path d="M418.921,834.348l10833.3,0" style="fill:none;stroke-width:4.17px;stroke-miterlimit:1;stroke:#000;stroke-opacity:0.298039;"/><path d="M835.588,12084.3l0,-11666.7" style="fill:none;stroke-width:4.17px;stroke-miterlimit:1;stroke:#000;stroke-opacity:0.298039;"/></g><g id="vertical lines"><path d="M418.921,417.681l0,11666.7" style="fill:none;stroke-width:4.17px;stroke-linejoin:miter;stroke-miterlimit:1;stroke-dasharray:41.67,183.33,8.33,183.33;stroke-dashoffset:20.83;stroke:#000;"/><path d="M2918.92,417.681l0,11666.7" style="fill:none;stroke-width:4.17px;stroke-linejoin:miter;stroke-miterlimit:1;stroke-dasharray:41.67,183.33,8.33,183.33;stroke-dashoffset:20.83;stroke:#000;"/><path d="M5418.92,417.681l0,11666.7" style="fill:none;stroke-width:4.17px;stroke-linejoin:miter;stroke-miterlimit:1;stroke-dasharray:41.67,183.33,8.33,183.33;stroke-dashoffset:20.83;stroke:#000;"/><path d="M1252.26,417.681l0,11666.7" style="fill:none;stroke-width:4.17px;stroke-linejoin:miter;stroke-miterlimit:1;stroke-dasharray:41.67,183.33,8.33,183.33;stroke-dashoffset:20.83;stroke:#000;"/><path d="M3752.26,417.681l0,11666.7" style="fill:none;stroke-width:4.17px;stroke-linejoin:miter;stroke-miterlimit:1;stroke-dasharray:41.67,183.33,8.33,183.33;stroke-dashoffset:20.83;stroke:#000;"/><path d="M2085.59,417.681l0,11666.7" style="fill:none;stroke-width:4.17px;stroke-linejoin:miter;stroke-miterlimit:1;stroke-dasharray:41.67,183.33,8.33,183.33;stroke-dashoffset:20.83;stroke:#000;"/><path d="M4585.59,417.681l0,11666.7" style="fill:none;stroke-width:4.17px;stroke-linejoin:miter;stroke-miterlimit:1;stroke-dasharray:41.67,183.33,8.33,183.33;stroke-dashoffset:20.83;stroke:#000;"/><path d="M835.588,417.681l0,11666.7" style="fill:none;stroke-width:4.17px;stroke-linejoin:miter;stroke-miterlimit:1;stroke-dasharray:41.67,183.33,8.33,183.33;stroke-dashoffset:20.83;stroke:#000;"/><path d="M3335.59,417.681l0,11666.7" style="fill:none;stroke-width:4.17px;stroke-linejoin:miter;stroke-miterlimit:1;stroke-dasharray:41.67,183.33,8.33,183.33;stroke-dashoffset:20.83;stroke:#000;"/><path d="M1668.92,417.681l0,11666.7" style="fill:none;stroke-width:4.17px;stroke-linejoin:miter;stroke-miterlimit:1;stroke-dasharray:41.67,183.33,8.33,183.33;stroke-dashoffset:20.83;stroke:#000;"/><path d="M4168.92,417.681l0,11666.7" style="fill:none;stroke-width:4.17px;stroke-linejoin:miter;stroke-miterlimit:1;stroke-dasharray:41.67,183.33,8.33,183.33;stroke-dashoffset:20.83;stroke:#000;"/><path d="M2502.26,417.681l0,11666.7" style="fill:none;stroke-width:4.17px;stroke-linejoin:miter;stroke-miterlimit:1;stroke-dasharray:41.67,183.33,8.33,183.33;stroke-dashoffset:20.83;stroke:#000;"/><path d="M5002.26,417.681l0,11666.7" style="fill:none;stroke-width:4.17px;stroke-linejoin:miter;stroke-miterlimit:1;stroke-dasharray:41.67,183.33,8.33,183.33;stroke-dashoffset:20.83;stroke:#000;"/></g><g id="horizontal lines"><path d="M418.921,417.681l10833.3,0" style="fill:none;stroke-width:4.17px;stroke-dasharray:41.67,183.33,8.33,183.33;stroke-dashoffset:20.83;stroke:#000;"/><path d="M418.921,2084.35l10833.3,0" style="fill:none;stroke-width:4.17px;stroke-dasharray:41.67,183.33,8.33,183.33;stroke-dashoffset:20.83;stroke:#000;"/><path d="M418.921,3751.01l10833.3,0" style="fill:none;stroke-width:4.17px;stroke-dasharray:41.67,183.33,8.33,183.33;stroke-dashoffset:20.83;stroke:#000;"/><path d="M418.921,5417.68l10833.3,0" style="fill:none;stroke-width:4.17px;stroke-dasharray:41.67,183.33,8.33,183.33;stroke-dashoffset:20.83;stroke:#000;"/><path d="M11252.3,834.348l-10833.3,0" style="fill:none;stroke-width:4.17px;stroke-dasharray:41.67,183.33,8.33,183.33;stroke-dashoffset:20.83;stroke:#000;"/><path d="M11252.3,2501.01l-10833.3,0" style="fill:none;stroke-width:4.17px;stroke-dasharray:41.67,183.33,8.33,183.33;stroke-dashoffset:20.83;stroke:#000;"/><path d="M11252.3,4167.68l-10833.3,0" style="fill:none;stroke-width:4.17px;stroke-dasharray:41.67,183.33,8.33,183.33;stroke-dashoffset:20.83;stroke:#000;"/><path d="M418.921,1251.02l10833.3,0" style="fill:none;stroke-width:4.17px;stroke-dasharray:41.67,183.33,8.33,183.33;stroke-dashoffset:20.83;stroke:#000;"/><path d="M418.921,2917.68l10833.3,0" style="fill:none;stroke-width:4.17px;stroke-dasharray:41.67,183.33,8.33,183.33;stroke-dashoffset:20.83;stroke:#000;"/><path d="M418.921,4584.35l10833.3,0" style="fill:none;stroke-width:4.17px;stroke-dasharray:41.67,183.33,8.33,183.33;stroke-dashoffset:20.83;stroke:#000;"/><path d="M418.921,1667.68l10833.3,0" style="fill:none;stroke-width:4.17px;stroke-dasharray:41.67,183.33,8.33,183.33;stroke-dashoffset:20.83;stroke:#000;"/><path d="M418.921,3334.35l10833.3,0" style="fill:none;stroke-width:4.17px;stroke-dasharray:41.67,183.33,8.33,183.33;stroke-dashoffset:20.83;stroke:#000;"/><path d="M418.921,5001.02l10833.3,0" style="fill:none;stroke-width:4.17px;stroke-dasharray:41.67,183.33,8.33,183.33;stroke-dashoffset:20.83;stroke:#000;"/></g><g id="top labels"><rect x="627.255" y="209.348" width="416.667" height="208.333" style="fill:#808080;stroke-width:4.17px;stroke:#000;"/><rect x="2710.59" y="209.348" width="416.667" height="208.333" style="fill:#808080;stroke-width:4.17px;stroke:#000;"/><rect x="4793.92" y="209.348" width="416.667" height="208.333" style="fill:#808080;stroke-width:4.17px;stroke:#000;"/><rect x="1043.92" y="209.348" width="416.667" height="208.333" style="fill:#808080;stroke-width:4.17px;stroke:#000;"/><rect x="3127.26" y="209.348" width="416.667" height="208.333" style="fill:#808080;stroke-width:4.17px;stroke:#000;"/><rect x="5210.59" y="209.348" width="416.667" height="208.333" style="fill:#808080;stroke-width:4.17px;stroke:#000;"/><rect x="1460.59" y="209.348" width="416.667" height="208.333" style="fill:#808080;stroke-width:4.17px;stroke:#000;"/><rect x="3543.92" y="209.348" width="416.667" height="208.333" style="fill:#808080;stroke-width:4.17px;stroke:#000;"/><rect x="1877.26" y="209.348" width="416.667" height="208.333" style="fill:#808080;stroke-width:4.17px;stroke:#000;"/><rect x="3960.59" y="209.348" width="416.667" height="208.333" style="fill:#808080;stroke-width:4.17px;stroke:#000;"/><rect x="2293.92" y="209.348" width="416.667" height="208.333" style="fill:#808080;stroke-width:4.17px;stroke:#000;"/><rect x="4377.26" y="209.348" width="416.667" height="208.333" style="fill:#808080;stroke-width:4.17px;stroke:#000;"/><text x="785.629px" y="372.178px" style="font-family:'ArialMT';font-size:150px;fill:#000;stroke-width:4.17px;stroke:#000;">A</text><text x="2868.96px" y="372.178px" style="font-family:'ArialMT';font-size:150px;fill:#000;stroke-width:4.17px;stroke:#000;">F</text><text x="4952.3px" y="372.178px" style="font-family:'ArialMT';font-size:150px;fill:#000;stroke-width:4.17px;stroke:#000;">K</text><text x="1202.3px" y="372.178px" style="font-family:'ArialMT';font-size:150px;fill:#000;stroke-width:4.17px;stroke:#000;">B</text><text x="3285.63px" y="372.178px" style="font-family:'ArialMT';font-size:150px;fill:#000;stroke-width:4.17px;stroke:#000;">G</text><text x="5368.96px" y="372.178px" style="font-family:'ArialMT';font-size:150px;fill:#000;stroke-width:4.17px;stroke:#000;">L</text><text x="1618.96px" y="372.178px" style="font-family:'ArialMT';font-size:150px;fill:#000;stroke-width:4.17px;stroke:#000;">C</text><text x="3702.3px" y="372.178px" style="font-family:'ArialMT';font-size:150px;fill:#000;stroke-width:4.17px;stroke:#000;">H</text><text x="2035.63px" y="372.178px" style="font-family:'ArialMT';font-size:150px;fill:#000;stroke-width:4.17px;stroke:#000;">D</text><text x="4148.15px" y="372.178px" style="font-family:'ArialMT';font-size:150px;fill:#000;stroke-width:4.17px;stroke:#000;">I</text><text x="2452.3px" y="372.178px" style="font-family:'ArialMT';font-size:150px;fill:#000;stroke-width:4.17px;stroke:#000;">E</text><text x="4535.63px" y="372.178px" style="font-family:'ArialMT';font-size:150px;fill:#000;stroke-width:4.17px;stroke:#000;">J</text></g><g id="top numbers"><text x="1222.12px" y="191.689px" style="font-family:'ArialMT';font-size:83.333px;fill:#000;stroke-width:4.17px;stroke:#000;">1</text><text x="812.415px" y="191.689px" style="font-family:'ArialMT';font-size:83.333px;fill:#000;stroke-width:4.17px;stroke:#000;">0</text><text x="3305.46px" y="191.689px" style="font-family:'ArialMT';font-size:83.333px;fill:#000;stroke-width:4.17px;stroke:#000;">6</text><text x="5369.4px" y="191.689px" style="font-family:'ArialMT';font-size:83.333px;fill:#000;stroke-width:4.17px;stroke:#000;">1<tspan x="5409.56px " y="191.689px ">1</tspan></text><text x="1638.79px" y="191.689px" style="font-family:'ArialMT';font-size:83.333px;fill:#000;stroke-width:4.17px;stroke:#000;">2</text><text x="3724.4px" y="191.689px" style="font-family:'ArialMT';font-size:83.333px;fill:#000;stroke-width:4.17px;stroke:#000;">7</text><text x="2055.46px" y="191.689px" style="font-family:'ArialMT';font-size:83.333px;fill:#000;stroke-width:4.17px;stroke:#000;">3</text><text x="4141.07px" y="191.689px" style="font-family:'ArialMT';font-size:83.333px;fill:#000;stroke-width:4.17px;stroke:#000;">8</text><text x="2472.12px" y="191.689px" style="font-family:'ArialMT';font-size:83.333px;fill:#000;stroke-width:4.17px;stroke:#000;">4</text><text x="4557.74px" y="191.689px" style="font-family:'ArialMT';font-size:83.333px;fill:#000;stroke-width:4.17px;stroke:#000;">9</text><text x="2888.79px" y="191.689px" style="font-family:'ArialMT';font-size:83.333px;fill:#000;stroke-width:4.17px;stroke:#000;">5</text><text x="4955.91px" y="191.689px" style="font-family:'ArialMT';font-size:83.333px;fill:#000;stroke-width:4.17px;stroke:#000;">10</text></g><g id="side labels"><rect x="210.588" y="1042.68" width="208.333" height="416.667" style="fill:#808080;stroke-width:4.17px;stroke:#000;"/><rect x="210.588" y="626.015" width="208.333" height="416.667" style="fill:#808080;stroke-width:4.17px;stroke:#000;"/><rect x="210.588" y="2709.35" width="208.333" height="416.667" style="fill:#808080;stroke-width:4.17px;stroke:#000;"/><rect x="210.588" y="4376.02" width="208.333" height="416.667" style="fill:#808080;stroke-width:4.17px;stroke:#000;"/><rect x="210.588" y="1459.35" width="208.333" height="416.667" style="fill:#808080;stroke-width:4.17px;stroke:#000;"/><rect x="210.588" y="3126.01" width="208.333" height="416.667" style="fill:#808080;stroke-width:4.17px;stroke:#000;"/><rect x="210.588" y="4792.68" width="208.333" height="416.667" style="fill:#808080;stroke-width:4.17px;stroke:#000;"/><rect x="210.588" y="1876.02" width="208.333" height="416.667" style="fill:#808080;stroke-width:4.17px;stroke:#000;"/><rect x="210.588" y="3542.68" width="208.333" height="416.667" style="fill:#808080;stroke-width:4.17px;stroke:#000;"/><rect x="210.588" y="5209.35" width="208.333" height="416.667" style="fill:#808080;stroke-width:4.17px;stroke:#000;"/><rect x="210.588" y="2292.68" width="208.333" height="416.667" style="fill:#808080;stroke-width:4.17px;stroke:#000;"/><rect x="210.588" y="3959.35" width="208.333" height="416.667" style="fill:#808080;stroke-width:4.17px;stroke:#000;"/><text x="273.024px" y="1302.56px" style="font-family:'ArialMT';font-size:150px;fill:#000;stroke-width:4.17px;stroke:#000;">1</text><text x="273.024px" y="885.894px" style="font-family:'ArialMT';font-size:150px;fill:#000;stroke-width:4.17px;stroke:#000;">0</text><text x="273.024px" y="2969.23px" style="font-family:'ArialMT';font-size:150px;fill:#000;stroke-width:4.17px;stroke:#000;">5</text><text x="273.024px" y="4635.89px" style="font-family:'ArialMT';font-size:150px;fill:#000;stroke-width:4.17px;stroke:#000;">9</text><text x="273.024px" y="1719.23px" style="font-family:'ArialMT';font-size:150px;fill:#000;stroke-width:4.17px;stroke:#000;">2</text><text x="273.024px" y="3385.89px" style="font-family:'ArialMT';font-size:150px;fill:#000;stroke-width:4.17px;stroke:#000;">6</text><text x="231.313px" y="5052.56px" style="font-family:'ArialMT';font-size:150px;fill:#000;stroke-width:4.17px;stroke:#000;">10</text><text x="273.024px" y="2135.89px" style="font-family:'ArialMT';font-size:150px;fill:#000;stroke-width:4.17px;stroke:#000;">3</text><text x="273.024px" y="3802.56px" style="font-family:'ArialMT';font-size:150px;fill:#000;stroke-width:4.17px;stroke:#000;">7</text><text x="236.879px" y="5469.23px" style="font-family:'ArialMT';font-size:150px;fill:#000;stroke-width:4.17px;stroke:#000;">1<tspan x="309.169px " y="5469.23px ">1</tspan></text><text x="273.024px" y="2552.56px" style="font-family:'ArialMT';font-size:150px;fill:#000;stroke-width:4.17px;stroke:#000;">4</text><text x="273.024px" y="4219.23px" style="font-family:'ArialMT';font-size:150px;fill:#000;stroke-width:4.17px;stroke:#000;">8</text></g><rect x="2.255" y="1.015" width="416.667" height="416.667" style="fill:none;stroke-width:4.17px;stroke-miterlimit:1;stroke:#000;"/><rect x="210.588" y="209.348" width="416.667" height="416.667" style="fill:#808080;stroke-width:4.17px;stroke:#000;"/><text x="233.7px" y="525.364px" style="font-family:'ArialMT';font-size:266.667px;fill:#000;stroke-width:4.17px;stroke:#000;">1m</text></g></g></svg>