<?xml version="1.0" standalone="no"?><!DOCTYPE svg PUBLIC "-//W3C//DTD SVG 1.1//EN" "http://www.w3.org/Graphics/SVG/1.1/DTD/svg11.dtd"><svg width="100%" height="100%" viewBox="0 0 1301 1301" version="1.1" xmlns="http://www.w3.org/2000/svg" xmlns:xlink="http://www.w3.org/1999/xlink" xml:space="preserve" style="fill-rule:evenodd;clip-rule:evenodd;stroke-linejoin:round;stroke-miterlimit:1.41421;"><clipPath id="_clip1"><rect id="sickle" x="0.541" y="0.244" width="1300" height="1300"/></clipPath><g clip-path="url(#_clip1)"><path d="M800.541,600.244l0,-100c-13.602,-169.972 -103.793,-277.915 -300,-300c-171.365,14.916 -280.394,104.152 -300,300c38.48,142.399 135.442,226.595 300,243.518" style="fill:none;stroke-width:4.5px;stroke:#000;"/><g><circle cx="200.541" cy="500.244" r="20" style="fill:#fcd1d1;stroke-width:1px;stroke:#000;"/><circle cx="200.541" cy="500.244" r="10" style="fill:#fc2e30;stroke-width:1px;stroke:#000;"/></g><g><circle cx="500.541" cy="200.244" r="20" style="fill:#fcd1d1;stroke-width:1px;stroke:#000;"/><circle cx="500.541" cy="200.244" r="10" style="fill:#fc2e30;stroke-width:1px;stroke:#000;"/></g><g><circle cx="800.541" cy="500.244" r="20" style="fill:#fcd1d1;stroke-width:1px;stroke:#000;"/><circle cx="800.541" cy="500.244" r="10" style="fill:#fc2e30;stroke-width:1px;stroke:#000;"/></g><g><circle cx="800.541" cy="750.244" r="20" style="fill:#fcd1d1;stroke-width:1px;stroke:#000;"/><circle cx="800.541" cy="750.244" r="10" style="fill:#fc2e30;stroke-width:1px;stroke:#000;"/></g><g><circle cx="800.541" cy="600.244" r="20" style="fill:#fcd1d1;stroke-width:1px;stroke:#000;"/><circle cx="800.541" cy="600.244" r="10" style="fill:#fc2e30;stroke-width:1px;stroke:#000;"/></g><g><circle cx="500.541" cy="746.159" r="20" style="fill:#fcd1d1;stroke-width:1px;stroke:#000;"/><circle cx="500.541" cy="746.159" r="10" style="fill:#fc2e30;stroke-width:1px;stroke:#000;"/></g><g><circle cx="720.541" cy="280.244" r="20" style="fill:#fcd1d1;stroke-width:1px;stroke:#000;"/><circle cx="720.541" cy="280.244" r="10" style="fill:#fc2e30;stroke-width:1px;stroke:#000;"/></g><g><circle cx="280.541" cy="280.244" r="20" style="fill:#fcd1d1;stroke-width:1px;stroke:#000;"/><circle cx="280.541" cy="280.244" r="10" style="fill:#fc2e30;stroke-width:1px;stroke:#000;"/></g><g><circle cx="220.541" cy="380.244" r="20" style="fill:#fcd1d1;stroke-width:1px;stroke:#000;"/><circle cx="220.541" cy="380.244" r="10" style="fill:#fc2e30;stroke-width:1px;stroke:#000;"/></g><g><circle cx="780.541" cy="380.244" r="20" style="fill:#fcd1d1;stroke-width:1px;stroke:#000;"/><circle cx="780.541" cy="380.244" r="10" style="fill:#fc2e30;stroke-width:1px;stroke:#000;"/></g><g><circle cx="620.541" cy="220.244" r="20" style="fill:#fcd1d1;stroke-width:1px;stroke:#000;"/><circle cx="620.541" cy="220.244" r="10" style="fill:#fc2e30;stroke-width:1px;stroke:#000;"/></g><g><circle cx="380.541" cy="220.244" r="20" style="fill:#fcd1d1;stroke-width:1px;stroke:#000;"/><circle cx="380.541" cy="220.244" r="10" style="fill:#fc2e30;stroke-width:1px;stroke:#000;"/></g><g><circle cx="380.541" cy="720.244" r="20" style="fill:#fcd1d1;stroke-width:1px;stroke:#000;"/><circle cx="380.541" cy="720.244" r="10" style="fill:#fc2e30;stroke-width:1px;stroke:#000;"/></g><g><circle cx="320.541" cy="680.244" r="20" style="fill:#fcd1d1;stroke-width:1px;stroke:#000;"/><circle cx="320.541" cy="680.244" r="10" style="fill:#fc2e30;stroke-width:1px;stroke:#000;"/></g><g><circle cx="220.541" cy="580.244" r="20" style="fill:#fcd1d1;stroke-width:1px;stroke:#000;"/><circle cx="220.541" cy="580.244" r="10" style="fill:#fc2e30;stroke-width:1px;stroke:#000;"/></g><g><circle cx="800.541" cy="800.244" r="20" style="fill:#fcd1d1;stroke-width:1px;stroke:#000;"/><circle cx="800.541" cy="800.244" r="10" style="fill:#fc2e30;stroke-width:1px;stroke:#000;"/></g><path d="M700.541,900.244l0,-400c0.024,-114.074 -94.171,-232.95 -200,-252.394c-148.397,17.771 -226.097,92.944 -200,252.394c69.607,201.088 249.543,207.147 600,173.612" style="fill:none;stroke-width:8px;stroke-dasharray:24,48,0,0;stroke:#14a90c;stroke-opacity:0.698039;"/><g><rect x="650.54" y="897.993" width="100" height="4.5" style="fill:#000;"/><rect x="698.29" y="900.243" width="4.5" height="50" style="fill:#000;"/></g><g id="grid"><g id="bold lines"><path d="M700.541,100.244l0,2800" style="fill:none;stroke-width:1px;stroke-miterlimit:1;stroke:#000;stroke-opacity:0.298039;"/><path d="M100.541,700.244l2600,0" style="fill:none;stroke-width:1px;stroke-miterlimit:1;stroke:#000;stroke-opacity:0.298039;"/><path d="M1200.54,100.244l0,2800" style="fill:none;stroke-width:1px;stroke-miterlimit:1;stroke:#000;stroke-opacity:0.298039;"/><path d="M100.541,1200.24l2600,0" style="fill:none;stroke-width:1px;stroke-miterlimit:1;stroke:#000;stroke-opacity:0.298039;"/><path d="M100.541,200.244l2600,0" style="fill:none;stroke-width:1px;stroke-miterlimit:1;stroke:#000;stroke-opacity:0.298039;"/><path d="M200.541,2900.24l0,-2800" style="fill:none;stroke-width:1px;stroke-miterlimit:1;stroke:#000;stroke-opacity:0.298039;"/></g><g id="vertical lines"><path d="M100.541,100.244l0,2800" style="fill:none;stroke-width:1px;stroke-linejoin:miter;stroke-miterlimit:1;stroke-dasharray:10,44,2,44;stroke-dashoffset:5;stroke:#000;"/><path d="M700.541,100.244l0,2800" style="fill:none;stroke-width:1px;stroke-linejoin:miter;stroke-miterlimit:1;stroke-dasharray:10,44,2,44;stroke-dashoffset:5;stroke:#000;"/><path d="M1300.54,100.244l0,2800" style="fill:none;stroke-width:1px;stroke-linejoin:miter;stroke-miterlimit:1;stroke-dasharray:10,44,2,44;stroke-dashoffset:5;stroke:#000;"/><path d="M300.541,100.244l0,2800" style="fill:none;stroke-width:1px;stroke-linejoin:miter;stroke-miterlimit:1;stroke-dasharray:10,44,2,44;stroke-dashoffset:5;stroke:#000;"/><path d="M900.541,100.244l0,2800" style="fill:none;stroke-width:1px;stroke-linejoin:miter;stroke-miterlimit:1;stroke-dasharray:10,44,2,44;stroke-dashoffset:5;stroke:#000;"/><path d="M500.541,100.244l0,2800" style="fill:none;stroke-width:1px;stroke-linejoin:miter;stroke-miterlimit:1;stroke-dasharray:10,44,2,44;stroke-dashoffset:5;stroke:#000;"/><path d="M1100.54,100.244l0,2800" style="fill:none;stroke-width:1px;stroke-linejoin:miter;stroke-miterlimit:1;stroke-dasharray:10,44,2,44;stroke-dashoffset:5;stroke:#000;"/><path d="M200.541,100.244l0,2800" style="fill:none;stroke-width:1px;stroke-linejoin:miter;stroke-miterlimit:1;stroke-dasharray:10,44,2,44;stroke-dashoffset:5;stroke:#000;"/><path d="M800.541,100.244l0,2800" style="fill:none;stroke-width:1px;stroke-linejoin:miter;stroke-miterlimit:1;stroke-dasharray:10,44,2,44;stroke-dashoffset:5;stroke:#000;"/><path d="M400.541,100.244l0,2800" style="fill:none;stroke-width:1px;stroke-linejoin:miter;stroke-miterlimit:1;stroke-dasharray:10,44,2,44;stroke-dashoffset:5;stroke:#000;"/><path d="M1000.54,100.244l0,2800" style="fill:none;stroke-width:1px;stroke-linejoin:miter;stroke-miterlimit:1;stroke-dasharray:10,44,2,44;stroke-dashoffset:5;stroke:#000;"/><path d="M600.541,100.244l0,2800" style="fill:none;stroke-width:1px;stroke-linejoin:miter;stroke-miterlimit:1;stroke-dasharray:10,44,2,44;stroke-dashoffset:5;stroke:#000;"/><path d="M1200.54,100.244l0,2800" style="fill:none;stroke-width:1px;stroke-linejoin:miter;stroke-miterlimit:1;stroke-dasharray:10,44,2,44;stroke-dashoffset:5;stroke:#000;"/></g><g id="horizontal lines"><path d="M100.541,100.244l2600,0" style="fill:none;stroke-width:1px;stroke-dasharray:10,44,2,44;stroke-dashoffset:5;stroke:#000;"/><path d="M100.541,500.244l2600,0" style="fill:none;stroke-width:1px;stroke-dasharray:10,44,2,44;stroke-dashoffset:5;stroke:#000;"/><path d="M100.541,900.244l2600,0" style="fill:none;stroke-width:1px;stroke-dasharray:10,44,2,44;stroke-dashoffset:5;stroke:#000;"/><path d="M100.541,1300.24l2600,0" style="fill:none;stroke-width:1px;stroke-dasharray:10,44,2,44;stroke-dashoffset:5;stroke:#000;"/><path d="M2700.54,200.244l-2600,0" style="fill:none;stroke-width:1px;stroke-dasharray:10,44,2,44;stroke-dashoffset:5;stroke:#000;"/><path d="M2700.54,600.244l-2600,0" style="fill:none;stroke-width:1px;stroke-dasharray:10,44,2,44;stroke-dashoffset:5;stroke:#000;"/><path d="M2700.54,1000.24l-2600,0" style="fill:none;stroke-width:1px;stroke-dasharray:10,44,2,44;stroke-dashoffset:5;stroke:#000;"/><path d="M100.541,300.244l2600,0" style="fill:none;stroke-width:1px;stroke-dasharray:10,44,2,44;stroke-dashoffset:5;stroke:#000;"/><path d="M100.541,700.244l2600,0" style="fill:none;stroke-width:1px;stroke-dasharray:10,44,2,44;stroke-dashoffset:5;stroke:#000;"/><path d="M100.541,1100.24l2600,0" style="fill:none;stroke-width:1px;stroke-dasharray:10,44,2,44;stroke-dashoffset:5;stroke:#000;"/><path d="M100.541,400.244l2600,0" style="fill:none;stroke-width:1px;stroke-dasharray:10,44,2,44;stroke-dashoffset:5;stroke:#000;"/><path d="M100.541,800.244l2600,0" style="fill:none;stroke-width:1px;stroke-dasharray:10,44,2,44;stroke-dashoffset:5;stroke:#000;"/><path d="M100.541,1200.24l2600,0" style="fill:none;stroke-width:1px;stroke-dasharray:10,44,2,44;stroke-dashoffset:5;stroke:#000;"/></g><g id="top labels"><rect x="150.541" y="50.244" width="100" height="50" style="fill:#808080;stroke-width:1px;stroke:#000;"/><rect x="650.541" y="50.244" width="100" height="50" style="fill:#808080;stroke-width:1px;stroke:#000;"/><rect x="1150.54" y="50.244" width="100" height="50" style="fill:#808080;stroke-width:1px;stroke:#000;"/><rect x="250.541" y="50.244" width="100" height="50" style="fill:#808080;stroke-width:1px;stroke:#000;"/><rect x="750.541" y="50.244" width="100" height="50" style="fill:#808080;stroke-width:1px;stroke:#000;"/><rect x="1250.54" y="50.244" width="100" height="50" style="fill:#808080;stroke-width:1px;stroke:#000;"/><rect x="350.541" y="50.244" width="100" height="50" style="fill:#808080;stroke-width:1px;stroke:#000;"/><rect x="850.541" y="50.244" width="100" height="50" style="fill:#808080;stroke-width:1px;stroke:#000;"/><rect x="450.541" y="50.244" width="100" height="50" style="fill:#808080;stroke-width:1px;stroke:#000;"/><rect x="950.541" y="50.244" width="100" height="50" style="fill:#808080;stroke-width:1px;stroke:#000;"/><rect x="550.541" y="50.244" width="100" height="50" style="fill:#808080;stroke-width:1px;stroke:#000;"/><rect x="1050.54" y="50.244" width="100" height="50" style="fill:#808080;stroke-width:1px;stroke:#000;"/><text x="188.551px" y="89.323px" style="font-family:'ArialMT';font-size:36px;fill:#000;stroke-width:1px;stroke:#000;">A</text><text x="688.551px" y="89.323px" style="font-family:'ArialMT';font-size:36px;fill:#000;stroke-width:1px;stroke:#000;">F</text><text x="1188.55px" y="89.323px" style="font-family:'ArialMT';font-size:36px;fill:#000;stroke-width:1px;stroke:#000;">K</text><text x="288.551px" y="89.323px" style="font-family:'ArialMT';font-size:36px;fill:#000;stroke-width:1px;stroke:#000;">B</text><text x="788.551px" y="89.323px" style="font-family:'ArialMT';font-size:36px;fill:#000;stroke-width:1px;stroke:#000;">G</text><text x="1288.55px" y="89.323px" style="font-family:'ArialMT';font-size:36px;fill:#000;stroke-width:1px;stroke:#000;">L</text><text x="388.551px" y="89.323px" style="font-family:'ArialMT';font-size:36px;fill:#000;stroke-width:1px;stroke:#000;">C</text><text x="888.551px" y="89.323px" style="font-family:'ArialMT';font-size:36px;fill:#000;stroke-width:1px;stroke:#000;">H</text><text x="488.551px" y="89.323px" style="font-family:'ArialMT';font-size:36px;fill:#000;stroke-width:1px;stroke:#000;">D</text><text x="995.556px" y="89.323px" style="font-family:'ArialMT';font-size:36px;fill:#000;stroke-width:1px;stroke:#000;">I</text><text x="588.551px" y="89.323px" style="font-family:'ArialMT';font-size:36px;fill:#000;stroke-width:1px;stroke:#000;">E</text><text x="1088.55px" y="89.323px" style="font-family:'ArialMT';font-size:36px;fill:#000;stroke-width:1px;stroke:#000;">J</text></g><g id="top numbers"><text x="293.31px" y="46.005px" style="font-family:'ArialMT';font-size:20px;fill:#000;stroke-width:1px;stroke:#000;">1</text><text x="194.98px" y="46.005px" style="font-family:'ArialMT';font-size:20px;fill:#000;stroke-width:1px;stroke:#000;">0</text><text x="793.31px" y="46.005px" style="font-family:'ArialMT';font-size:20px;fill:#000;stroke-width:1px;stroke:#000;">6</text><text x="1288.66px" y="46.005px" style="font-family:'ArialMT';font-size:20px;fill:#000;stroke-width:1px;stroke:#000;">1<tspan x="1298.3px " y="46.005px ">1</tspan></text><text x="393.31px" y="46.005px" style="font-family:'ArialMT';font-size:20px;fill:#000;stroke-width:1px;stroke:#000;">2</text><text x="893.857px" y="46.005px" style="font-family:'ArialMT';font-size:20px;fill:#000;stroke-width:1px;stroke:#000;">7</text><text x="493.31px" y="46.005px" style="font-family:'ArialMT';font-size:20px;fill:#000;stroke-width:1px;stroke:#000;">3</text><text x="993.857px" y="46.005px" style="font-family:'ArialMT';font-size:20px;fill:#000;stroke-width:1px;stroke:#000;">8</text><text x="593.31px" y="46.005px" style="font-family:'ArialMT';font-size:20px;fill:#000;stroke-width:1px;stroke:#000;">4</text><text x="1093.86px" y="46.005px" style="font-family:'ArialMT';font-size:20px;fill:#000;stroke-width:1px;stroke:#000;">9</text><text x="693.31px" y="46.005px" style="font-family:'ArialMT';font-size:20px;fill:#000;stroke-width:1px;stroke:#000;">5</text><text x="1189.42px" y="46.005px" style="font-family:'ArialMT';font-size:20px;fill:#000;stroke-width:1px;stroke:#000;">10</text></g><g id="side labels"><rect x="50.541" y="250.244" width="50" height="100" style="fill:#808080;stroke-width:1px;stroke:#000;"/><rect x="50.541" y="150.244" width="50" height="100" style="fill:#808080;stroke-width:1px;stroke:#000;"/><rect x="50.541" y="650.244" width="50" height="100" style="fill:#808080;stroke-width:1px;stroke:#000;"/><rect x="50.541" y="1050.24" width="50" height="100" style="fill:#808080;stroke-width:1px;stroke:#000;"/><rect x="50.541" y="350.244" width="50" height="100" style="fill:#808080;stroke-width:1px;stroke:#000;"/><rect x="50.541" y="750.244" width="50" height="100" style="fill:#808080;stroke-width:1px;stroke:#000;"/><rect x="50.541" y="1150.24" width="50" height="100" style="fill:#808080;stroke-width:1px;stroke:#000;"/><rect x="50.541" y="450.244" width="50" height="100" style="fill:#808080;stroke-width:1px;stroke:#000;"/><rect x="50.541" y="850.244" width="50" height="100" style="fill:#808080;stroke-width:1px;stroke:#000;"/><rect x="50.541" y="1250.24" width="50" height="100" style="fill:#808080;stroke-width:1px;stroke:#000;"/><rect x="50.541" y="550.244" width="50" height="100" style="fill:#808080;stroke-width:1px;stroke:#000;"/><rect x="50.541" y="950.244" width="50" height="100" style="fill:#808080;stroke-width:1px;stroke:#000;"/><text x="65.526px" y="312.615px" style="font-family:'ArialMT';font-size:36px;fill:#000;stroke-width:1px;stroke:#000;">1</text><text x="65.526px" y="212.615px" style="font-family:'ArialMT';font-size:36px;fill:#000;stroke-width:1px;stroke:#000;">0</text><text x="65.526px" y="712.615px" style="font-family:'ArialMT';font-size:36px;fill:#000;stroke-width:1px;stroke:#000;">5</text><text x="65.526px" y="1112.62px" style="font-family:'ArialMT';font-size:36px;fill:#000;stroke-width:1px;stroke:#000;">9</text><text x="65.526px" y="412.615px" style="font-family:'ArialMT';font-size:36px;fill:#000;stroke-width:1px;stroke:#000;">2</text><text x="65.526px" y="812.615px" style="font-family:'ArialMT';font-size:36px;fill:#000;stroke-width:1px;stroke:#000;">6</text><text x="55.515px" y="1212.62px" style="font-family:'ArialMT';font-size:36px;fill:#000;stroke-width:1px;stroke:#000;">10</text><text x="65.526px" y="512.615px" style="font-family:'ArialMT';font-size:36px;fill:#000;stroke-width:1px;stroke:#000;">3</text><text x="65.526px" y="912.615px" style="font-family:'ArialMT';font-size:36px;fill:#000;stroke-width:1px;stroke:#000;">7</text><text x="56.851px" y="1312.62px" style="font-family:'ArialMT';font-size:36px;fill:#000;stroke-width:1px;stroke:#000;">1<tspan x="74.201px " y="1312.62px ">1</tspan></text><text x="65.526px" y="612.615px" style="font-family:'ArialMT';font-size:36px;fill:#000;stroke-width:1px;stroke:#000;">4</text><text x="65.526px" y="1012.62px" style="font-family:'ArialMT';font-size:36px;fill:#000;stroke-width:1px;stroke:#000;">8</text></g><rect x="0.541" y="0.244" width="100" height="100" style="fill:none;stroke-width:1px;stroke-miterlimit:1;stroke:#000;"/><rect x="50.541" y="50.244" width="100" height="100" style="fill:#808080;stroke-width:1px;stroke:#000;"/><text x="56.088px" y="126.087px" style="font-family:'ArialMT';font-size:64px;fill:#000;stroke-width:1px;stroke:#000;">1m</text></g></g></svg>