<?xml version="1.0" standalone="no"?><!DOCTYPE svg PUBLIC "-//W3C//DTD SVG 1.1//EN" "http://www.w3.org/Graphics/SVG/1.1/DTD/svg11.dtd"><svg width="100%" height="100%" viewBox="0 0 9588 3338" version="1.1" xmlns="http://www.w3.org/2000/svg" xmlns:xlink="http://www.w3.org/1999/xlink" xml:space="preserve" style="fill-rule:evenodd;clip-rule:evenodd;stroke-linejoin:round;stroke-miterlimit:1.41421;"><clipPath id="_clip1"><rect id="slow ride" x="3.101" y="4.084" width="9583.33" height="3333.33"/></clipPath><g clip-path="url(#_clip1)"><path d="M836.434,1462.42l8291.67,0" style="fill:none;stroke-width:150px;stroke:#14a90c;stroke-opacity:0.698039;"/><path d="M1003.1,1464.81l-395.834,122.604l0,-245.207l395.834,122.603Z" style="fill:#000;"/><g id="Layer5"><g><path d="M1336.43,1254.08c0,-45.993 -37.34,-83.333 -83.333,-83.333c-45.993,0 -83.334,37.34 -83.334,83.333c0,45.993 37.341,83.334 83.334,83.334c45.993,0 83.333,-37.341 83.333,-83.334Z" style="fill:#fcd1d1;stroke-width:4.17px;stroke:#000;"/><path d="M1294.77,1254.08c0,-22.996 -18.67,-41.666 -41.666,-41.666c-22.997,0 -41.667,18.67 -41.667,41.666c0,22.997 18.67,41.667 41.667,41.667c22.996,0 41.666,-18.67 41.666,-41.667Z" style="fill:#fc2e30;stroke-width:4.17px;stroke:#000;"/></g><g><path d="M3836.43,1254.08c0,-45.993 -37.34,-83.333 -83.333,-83.333c-45.993,0 -83.334,37.34 -83.334,83.333c0,45.993 37.341,83.334 83.334,83.334c45.993,0 83.333,-37.341 83.333,-83.334Z" style="fill:#fcd1d1;stroke-width:4.17px;stroke:#000;"/><path d="M3794.77,1254.08c0,-22.996 -18.67,-41.666 -41.666,-41.666c-22.997,0 -41.667,18.67 -41.667,41.666c0,22.997 18.67,41.667 41.667,41.667c22.996,0 41.666,-18.67 41.666,-41.667Z" style="fill:#fc2e30;stroke-width:4.17px;stroke:#000;"/></g><g><path d="M4669.77,1254.08c0,-45.993 -37.34,-83.333 -83.333,-83.333c-45.993,0 -83.333,37.34 -83.333,83.333c0,45.993 37.34,83.334 83.333,83.334c45.993,0 83.333,-37.341 83.333,-83.334Z" style="fill:#fcd1d1;stroke-width:4.17px;stroke:#000;"/><path d="M4628.1,1254.08c0,-22.996 -18.67,-41.666 -41.667,-41.666c-22.996,0 -41.667,18.67 -41.667,41.666c0,22.997 18.671,41.667 41.667,41.667c22.997,0 41.667,-18.67 41.667,-41.667Z" style="fill:#fc2e30;stroke-width:4.17px;stroke:#000;"/></g><g><path d="M5503.1,1254.08c0,-45.993 -37.341,-83.333 -83.334,-83.333c-45.992,0 -83.333,37.34 -83.333,83.333c0,45.993 37.341,83.334 83.333,83.334c45.993,0 83.334,-37.341 83.334,-83.334Z" style="fill:#fcd1d1;stroke-width:4.17px;stroke:#000;"/><path d="M5461.43,1254.08c0,-22.996 -18.67,-41.666 -41.667,-41.666c-22.996,0 -41.666,18.67 -41.666,41.666c0,22.997 18.67,41.667 41.666,41.667c22.997,0 41.667,-18.67 41.667,-41.667Z" style="fill:#fc2e30;stroke-width:4.17px;stroke:#000;"/></g><g><path d="M6336.43,1254.08c0,-45.993 -37.34,-83.333 -83.333,-83.333c-45.993,0 -83.334,37.34 -83.334,83.333c0,45.993 37.341,83.334 83.334,83.334c45.993,0 83.333,-37.341 83.333,-83.334Z" style="fill:#fcd1d1;stroke-width:4.17px;stroke:#000;"/><path d="M6294.77,1254.08c0,-22.996 -18.67,-41.666 -41.666,-41.666c-22.997,0 -41.667,18.67 -41.667,41.666c0,22.997 18.67,41.667 41.667,41.667c22.996,0 41.666,-18.67 41.666,-41.667Z" style="fill:#fc2e30;stroke-width:4.17px;stroke:#000;"/></g><g><path d="M7169.77,1254.08c0,-45.993 -37.34,-83.333 -83.333,-83.333c-45.993,0 -83.333,37.34 -83.333,83.333c0,45.993 37.34,83.334 83.333,83.334c45.993,0 83.333,-37.341 83.333,-83.334Z" style="fill:#fcd1d1;stroke-width:4.17px;stroke:#000;"/><path d="M7128.1,1254.08c0,-22.996 -18.67,-41.666 -41.667,-41.666c-22.996,0 -41.667,18.67 -41.667,41.666c0,22.997 18.671,41.667 41.667,41.667c22.997,0 41.667,-18.67 41.667,-41.667Z" style="fill:#fc2e30;stroke-width:4.17px;stroke:#000;"/></g><g><path d="M8003.1,1254.08c0,-45.993 -37.341,-83.333 -83.334,-83.333c-45.992,0 -83.333,37.34 -83.333,83.333c0,45.993 37.341,83.334 83.333,83.334c45.993,0 83.334,-37.341 83.334,-83.334Z" style="fill:#fcd1d1;stroke-width:4.17px;stroke:#000;"/><path d="M7961.43,1254.08c0,-22.996 -18.67,-41.666 -41.667,-41.666c-22.996,0 -41.666,18.67 -41.666,41.666c0,22.997 18.67,41.667 41.666,41.667c22.997,0 41.667,-18.67 41.667,-41.667Z" style="fill:#fc2e30;stroke-width:4.17px;stroke:#000;"/></g><g><path d="M8836.43,1254.08c0,-45.993 -37.34,-83.333 -83.333,-83.333c-45.993,0 -83.334,37.34 -83.334,83.333c0,45.993 37.341,83.334 83.334,83.334c45.993,0 83.333,-37.341 83.333,-83.334Z" style="fill:#fcd1d1;stroke-width:4.17px;stroke:#000;"/><path d="M8794.77,1254.08c0,-22.996 -18.67,-41.666 -41.666,-41.666c-22.997,0 -41.667,18.67 -41.667,41.666c0,22.997 18.67,41.667 41.667,41.667c22.996,0 41.666,-18.67 41.666,-41.667Z" style="fill:#fc2e30;stroke-width:4.17px;stroke:#000;"/></g><g><path d="M3836.43,1670.75c0,-45.993 -37.34,-83.333 -83.333,-83.333c-45.993,0 -83.334,37.34 -83.334,83.333c0,45.993 37.341,83.333 83.334,83.333c45.993,0 83.333,-37.34 83.333,-83.333Z" style="fill:#fcd1d1;stroke-width:4.17px;stroke:#000;"/><path d="M3794.77,1670.75c0,-22.997 -18.67,-41.667 -41.666,-41.667c-22.997,0 -41.667,18.67 -41.667,41.667c0,22.996 18.67,41.667 41.667,41.667c22.996,0 41.666,-18.671 41.666,-41.667Z" style="fill:#fc2e30;stroke-width:4.17px;stroke:#000;"/></g><g><path d="M4669.77,1670.75c0,-45.993 -37.34,-83.333 -83.333,-83.333c-45.993,0 -83.333,37.34 -83.333,83.333c0,45.993 37.34,83.333 83.333,83.333c45.993,0 83.333,-37.34 83.333,-83.333Z" style="fill:#fcd1d1;stroke-width:4.17px;stroke:#000;"/><path d="M4628.1,1670.75c0,-22.997 -18.67,-41.667 -41.667,-41.667c-22.996,0 -41.667,18.67 -41.667,41.667c0,22.996 18.671,41.667 41.667,41.667c22.997,0 41.667,-18.671 41.667,-41.667Z" style="fill:#fc2e30;stroke-width:4.17px;stroke:#000;"/></g><g><path d="M5503.1,1670.75c0,-45.993 -37.341,-83.333 -83.334,-83.333c-45.992,0 -83.333,37.34 -83.333,83.333c0,45.993 37.341,83.333 83.333,83.333c45.993,0 83.334,-37.34 83.334,-83.333Z" style="fill:#fcd1d1;stroke-width:4.17px;stroke:#000;"/><path d="M5461.43,1670.75c0,-22.997 -18.67,-41.667 -41.667,-41.667c-22.996,0 -41.666,18.67 -41.666,41.667c0,22.996 18.67,41.667 41.666,41.667c22.997,0 41.667,-18.671 41.667,-41.667Z" style="fill:#fc2e30;stroke-width:4.17px;stroke:#000;"/></g><g><path d="M6336.43,1670.75c0,-45.993 -37.34,-83.333 -83.333,-83.333c-45.993,0 -83.334,37.34 -83.334,83.333c0,45.993 37.341,83.333 83.334,83.333c45.993,0 83.333,-37.34 83.333,-83.333Z" style="fill:#fcd1d1;stroke-width:4.17px;stroke:#000;"/><path d="M6294.77,1670.75c0,-22.997 -18.67,-41.667 -41.666,-41.667c-22.997,0 -41.667,18.67 -41.667,41.667c0,22.996 18.67,41.667 41.667,41.667c22.996,0 41.666,-18.671 41.666,-41.667Z" style="fill:#fc2e30;stroke-width:4.17px;stroke:#000;"/></g><g><path d="M7169.77,1670.75c0,-45.993 -37.34,-83.333 -83.333,-83.333c-45.993,0 -83.333,37.34 -83.333,83.333c0,45.993 37.34,83.333 83.333,83.333c45.993,0 83.333,-37.34 83.333,-83.333Z" style="fill:#fcd1d1;stroke-width:4.17px;stroke:#000;"/><path d="M7128.1,1670.75c0,-22.997 -18.67,-41.667 -41.667,-41.667c-22.996,0 -41.667,18.67 -41.667,41.667c0,22.996 18.671,41.667 41.667,41.667c22.997,0 41.667,-18.671 41.667,-41.667Z" style="fill:#fc2e30;stroke-width:4.17px;stroke:#000;"/></g><g><path d="M8003.1,1670.75c0,-45.993 -37.341,-83.333 -83.334,-83.333c-45.992,0 -83.333,37.34 -83.333,83.333c0,45.993 37.341,83.333 83.333,83.333c45.993,0 83.334,-37.34 83.334,-83.333Z" style="fill:#fcd1d1;stroke-width:4.17px;stroke:#000;"/><path d="M7961.43,1670.75c0,-22.997 -18.67,-41.667 -41.667,-41.667c-22.996,0 -41.666,18.67 -41.666,41.667c0,22.996 18.67,41.667 41.666,41.667c22.997,0 41.667,-18.671 41.667,-41.667Z" style="fill:#fc2e30;stroke-width:4.17px;stroke:#000;"/></g><g><path d="M8836.43,1670.75c0,-45.993 -37.34,-83.333 -83.333,-83.333c-45.993,0 -83.334,37.34 -83.334,83.333c0,45.993 37.341,83.333 83.334,83.333c45.993,0 83.333,-37.34 83.333,-83.333Z" style="fill:#fcd1d1;stroke-width:4.17px;stroke:#000;"/><path d="M8794.77,1670.75c0,-22.997 -18.67,-41.667 -41.666,-41.667c-22.997,0 -41.667,18.67 -41.667,41.667c0,22.996 18.67,41.667 41.667,41.667c22.996,0 41.666,-18.671 41.666,-41.667Z" style="fill:#fc2e30;stroke-width:4.17px;stroke:#000;"/></g><g><path d="M1336.43,1670.75c0,-45.993 -37.34,-83.333 -83.333,-83.333c-45.993,0 -83.334,37.34 -83.334,83.333c0,45.993 37.341,83.333 83.334,83.333c45.993,0 83.333,-37.34 83.333,-83.333Z" style="fill:#fcd1d1;stroke-width:4.17px;stroke:#000;"/><path d="M1294.77,1670.75c0,-22.997 -18.67,-41.667 -41.666,-41.667c-22.997,0 -41.667,18.67 -41.667,41.667c0,22.996 18.67,41.667 41.667,41.667c22.996,0 41.666,-18.671 41.666,-41.667Z" style="fill:#fc2e30;stroke-width:4.17px;stroke:#000;"/></g><g><path d="M2169.77,1254.08c0,-45.993 -37.34,-83.333 -83.333,-83.333c-45.993,0 -83.333,37.34 -83.333,83.333c0,45.993 37.34,83.334 83.333,83.334c45.993,0 83.333,-37.341 83.333,-83.334Z" style="fill:#fcd1d1;stroke-width:4.17px;stroke:#000;"/><path d="M2128.1,1254.08c0,-22.996 -18.67,-41.666 -41.667,-41.666c-22.996,0 -41.667,18.67 -41.667,41.666c0,22.997 18.671,41.667 41.667,41.667c22.997,0 41.667,-18.67 41.667,-41.667Z" style="fill:#fc2e30;stroke-width:4.17px;stroke:#000;"/></g><g><path d="M2169.77,1670.75c0,-45.993 -37.34,-83.333 -83.333,-83.333c-45.993,0 -83.333,37.34 -83.333,83.333c0,45.993 37.34,83.333 83.333,83.333c45.993,0 83.333,-37.34 83.333,-83.333Z" style="fill:#fcd1d1;stroke-width:4.17px;stroke:#000;"/><path d="M2128.1,1670.75c0,-22.997 -18.67,-41.667 -41.667,-41.667c-22.996,0 -41.667,18.67 -41.667,41.667c0,22.996 18.671,41.667 41.667,41.667c22.997,0 41.667,-18.671 41.667,-41.667Z" style="fill:#fc2e30;stroke-width:4.17px;stroke:#000;"/></g><g><path d="M3003.1,1670.75c0,-45.993 -37.341,-83.333 -83.334,-83.333c-45.992,0 -83.333,37.34 -83.333,83.333c0,45.993 37.341,83.333 83.333,83.333c45.993,0 83.334,-37.34 83.334,-83.333Z" style="fill:#fcd1d1;stroke-width:4.17px;stroke:#000;"/><path d="M2961.43,1670.75c0,-22.997 -18.67,-41.667 -41.667,-41.667c-22.996,0 -41.666,18.67 -41.666,41.667c0,22.996 18.67,41.667 41.666,41.667c22.997,0 41.667,-18.671 41.667,-41.667Z" style="fill:#fc2e30;stroke-width:4.17px;stroke:#000;"/></g><g><path d="M3003.1,1254.08c0,-45.993 -37.341,-83.333 -83.334,-83.333c-45.992,0 -83.333,37.34 -83.333,83.333c0,45.993 37.341,83.334 83.333,83.334c45.993,0 83.334,-37.341 83.334,-83.334Z" style="fill:#fcd1d1;stroke-width:4.17px;stroke:#000;"/><path d="M2961.43,1254.08c0,-22.996 -18.67,-41.666 -41.667,-41.666c-22.996,0 -41.666,18.67 -41.666,41.666c0,22.997 18.67,41.667 41.666,41.667c22.997,0 41.667,-18.67 41.667,-41.667Z" style="fill:#fc2e30;stroke-width:4.17px;stroke:#000;"/></g></g><g id="grid"><g id="bold lines"><path d="M2919.77,420.751l0,11666.7" style="fill:none;stroke-width:4.17px;stroke-miterlimit:1;stroke:#000;stroke-opacity:0.298039;"/><path d="M419.767,2920.75l10833.3,0" style="fill:none;stroke-width:4.17px;stroke-miterlimit:1;stroke:#000;stroke-opacity:0.298039;"/><path d="M5003.1,420.751l0,11666.7" style="fill:none;stroke-width:4.17px;stroke-miterlimit:1;stroke:#000;stroke-opacity:0.298039;"/><path d="M7086.43,420.751l0,11666.7" style="fill:none;stroke-width:4.17px;stroke-miterlimit:1;stroke:#000;stroke-opacity:0.298039;"/><path d="M9169.77,420.751l0,11666.7" style="fill:none;stroke-width:4.17px;stroke-miterlimit:1;stroke:#000;stroke-opacity:0.298039;"/><path d="M419.767,837.418l10833.3,0" style="fill:none;stroke-width:4.17px;stroke-miterlimit:1;stroke:#000;stroke-opacity:0.298039;"/><path d="M836.434,12087.4l0,-11666.7" style="fill:none;stroke-width:4.17px;stroke-miterlimit:1;stroke:#000;stroke-opacity:0.298039;"/></g><g id="vertical lines"><path d="M419.767,420.751l0,11666.7" style="fill:none;stroke-width:4.17px;stroke-linejoin:miter;stroke-miterlimit:1;stroke-dasharray:41.67,183.33,8.33,183.33;stroke-dashoffset:20.83;stroke:#000;"/><path d="M2919.77,420.751l0,11666.7" style="fill:none;stroke-width:4.17px;stroke-linejoin:miter;stroke-miterlimit:1;stroke-dasharray:41.67,183.33,8.33,183.33;stroke-dashoffset:20.83;stroke:#000;"/><path d="M5419.77,420.751l0,11666.7" style="fill:none;stroke-width:4.17px;stroke-linejoin:miter;stroke-miterlimit:1;stroke-dasharray:41.67,183.33,8.33,183.33;stroke-dashoffset:20.83;stroke:#000;"/><path d="M7919.77,420.751l0,11666.7" style="fill:none;stroke-width:4.17px;stroke-linejoin:miter;stroke-miterlimit:1;stroke-dasharray:41.67,183.33,8.33,183.33;stroke-dashoffset:20.83;stroke:#000;"/><path d="M1253.1,420.751l0,11666.7" style="fill:none;stroke-width:4.17px;stroke-linejoin:miter;stroke-miterlimit:1;stroke-dasharray:41.67,183.33,8.33,183.33;stroke-dashoffset:20.83;stroke:#000;"/><path d="M3753.1,420.751l0,11666.7" style="fill:none;stroke-width:4.17px;stroke-linejoin:miter;stroke-miterlimit:1;stroke-dasharray:41.67,183.33,8.33,183.33;stroke-dashoffset:20.83;stroke:#000;"/><path d="M6253.1,420.751l0,11666.7" style="fill:none;stroke-width:4.17px;stroke-linejoin:miter;stroke-miterlimit:1;stroke-dasharray:41.67,183.33,8.33,183.33;stroke-dashoffset:20.83;stroke:#000;"/><path d="M8753.1,420.751l0,11666.7" style="fill:none;stroke-width:4.17px;stroke-linejoin:miter;stroke-miterlimit:1;stroke-dasharray:41.67,183.33,8.33,183.33;stroke-dashoffset:20.83;stroke:#000;"/><path d="M2086.43,420.751l0,11666.7" style="fill:none;stroke-width:4.17px;stroke-linejoin:miter;stroke-miterlimit:1;stroke-dasharray:41.67,183.33,8.33,183.33;stroke-dashoffset:20.83;stroke:#000;"/><path d="M4586.43,420.751l0,11666.7" style="fill:none;stroke-width:4.17px;stroke-linejoin:miter;stroke-miterlimit:1;stroke-dasharray:41.67,183.33,8.33,183.33;stroke-dashoffset:20.83;stroke:#000;"/><path d="M7086.43,420.751l0,11666.7" style="fill:none;stroke-width:4.17px;stroke-linejoin:miter;stroke-miterlimit:1;stroke-dasharray:41.67,183.33,8.33,183.33;stroke-dashoffset:20.83;stroke:#000;"/><path d="M9586.43,420.751l0,11666.7" style="fill:none;stroke-width:4.17px;stroke-linejoin:miter;stroke-miterlimit:1;stroke-dasharray:41.67,183.33,8.33,183.33;stroke-dashoffset:20.83;stroke:#000;"/><path d="M836.434,420.751l0,11666.7" style="fill:none;stroke-width:4.17px;stroke-linejoin:miter;stroke-miterlimit:1;stroke-dasharray:41.67,183.33,8.33,183.33;stroke-dashoffset:20.83;stroke:#000;"/><path d="M3336.43,420.751l0,11666.7" style="fill:none;stroke-width:4.17px;stroke-linejoin:miter;stroke-miterlimit:1;stroke-dasharray:41.67,183.33,8.33,183.33;stroke-dashoffset:20.83;stroke:#000;"/><path d="M5836.43,420.751l0,11666.7" style="fill:none;stroke-width:4.17px;stroke-linejoin:miter;stroke-miterlimit:1;stroke-dasharray:41.67,183.33,8.33,183.33;stroke-dashoffset:20.83;stroke:#000;"/><path d="M8336.43,420.751l0,11666.7" style="fill:none;stroke-width:4.17px;stroke-linejoin:miter;stroke-miterlimit:1;stroke-dasharray:41.67,183.33,8.33,183.33;stroke-dashoffset:20.83;stroke:#000;"/><path d="M1669.77,420.751l0,11666.7" style="fill:none;stroke-width:4.17px;stroke-linejoin:miter;stroke-miterlimit:1;stroke-dasharray:41.67,183.33,8.33,183.33;stroke-dashoffset:20.83;stroke:#000;"/><path d="M4169.77,420.751l0,11666.7" style="fill:none;stroke-width:4.17px;stroke-linejoin:miter;stroke-miterlimit:1;stroke-dasharray:41.67,183.33,8.33,183.33;stroke-dashoffset:20.83;stroke:#000;"/><path d="M6669.77,420.751l0,11666.7" style="fill:none;stroke-width:4.17px;stroke-linejoin:miter;stroke-miterlimit:1;stroke-dasharray:41.67,183.33,8.33,183.33;stroke-dashoffset:20.83;stroke:#000;"/><path d="M9169.77,420.751l0,11666.7" style="fill:none;stroke-width:4.17px;stroke-linejoin:miter;stroke-miterlimit:1;stroke-dasharray:41.67,183.33,8.33,183.33;stroke-dashoffset:20.83;stroke:#000;"/><path d="M2503.1,420.751l0,11666.7" style="fill:none;stroke-width:4.17px;stroke-linejoin:miter;stroke-miterlimit:1;stroke-dasharray:41.67,183.33,8.33,183.33;stroke-dashoffset:20.83;stroke:#000;"/><path d="M5003.1,420.751l0,11666.7" style="fill:none;stroke-width:4.17px;stroke-linejoin:miter;stroke-miterlimit:1;stroke-dasharray:41.67,183.33,8.33,183.33;stroke-dashoffset:20.83;stroke:#000;"/><path d="M7503.1,420.751l0,11666.7" style="fill:none;stroke-width:4.17px;stroke-linejoin:miter;stroke-miterlimit:1;stroke-dasharray:41.67,183.33,8.33,183.33;stroke-dashoffset:20.83;stroke:#000;"/></g><g id="horizontal lines"><path d="M419.767,420.751l10833.3,0" style="fill:none;stroke-width:4.17px;stroke-dasharray:41.67,183.33,8.33,183.33;stroke-dashoffset:20.83;stroke:#000;"/><path d="M419.767,2087.42l10833.3,0" style="fill:none;stroke-width:4.17px;stroke-dasharray:41.67,183.33,8.33,183.33;stroke-dashoffset:20.83;stroke:#000;"/><path d="M11253.1,837.418l-10833.3,0" style="fill:none;stroke-width:4.17px;stroke-dasharray:41.67,183.33,8.33,183.33;stroke-dashoffset:20.83;stroke:#000;"/><path d="M11253.1,2504.08l-10833.3,0" style="fill:none;stroke-width:4.17px;stroke-dasharray:41.67,183.33,8.33,183.33;stroke-dashoffset:20.83;stroke:#000;"/><path d="M419.767,1254.08l10833.3,0" style="fill:none;stroke-width:4.17px;stroke-dasharray:41.67,183.33,8.33,183.33;stroke-dashoffset:20.83;stroke:#000;"/><path d="M419.767,2920.75l10833.3,0" style="fill:none;stroke-width:4.17px;stroke-dasharray:41.67,183.33,8.33,183.33;stroke-dashoffset:20.83;stroke:#000;"/><path d="M419.767,1670.75l10833.3,0" style="fill:none;stroke-width:4.17px;stroke-dasharray:41.67,183.33,8.33,183.33;stroke-dashoffset:20.83;stroke:#000;"/><path d="M419.767,3337.42l10833.3,0" style="fill:none;stroke-width:4.17px;stroke-dasharray:41.67,183.33,8.33,183.33;stroke-dashoffset:20.83;stroke:#000;"/></g><g id="top labels"><rect x="628.101" y="212.418" width="416.667" height="208.333" style="fill:#808080;stroke-width:4.17px;stroke:#000;"/><rect x="2711.43" y="212.418" width="416.667" height="208.333" style="fill:#808080;stroke-width:4.17px;stroke:#000;"/><rect x="4794.77" y="212.418" width="416.667" height="208.333" style="fill:#808080;stroke-width:4.17px;stroke:#000;"/><rect x="6878.1" y="212.418" width="416.667" height="208.333" style="fill:#808080;stroke-width:4.17px;stroke:#000;"/><rect x="8961.43" y="212.418" width="416.667" height="208.333" style="fill:#808080;stroke-width:4.17px;stroke:#000;"/><rect x="1044.77" y="212.418" width="416.667" height="208.333" style="fill:#808080;stroke-width:4.17px;stroke:#000;"/><rect x="3128.1" y="212.418" width="416.667" height="208.333" style="fill:#808080;stroke-width:4.17px;stroke:#000;"/><rect x="5211.43" y="212.418" width="416.667" height="208.333" style="fill:#808080;stroke-width:4.17px;stroke:#000;"/><rect x="7294.77" y="212.418" width="416.667" height="208.333" style="fill:#808080;stroke-width:4.17px;stroke:#000;"/><rect x="9378.1" y="212.418" width="416.667" height="208.333" style="fill:#808080;stroke-width:4.17px;stroke:#000;"/><rect x="1461.43" y="212.418" width="416.667" height="208.333" style="fill:#808080;stroke-width:4.17px;stroke:#000;"/><rect x="3544.77" y="212.418" width="416.667" height="208.333" style="fill:#808080;stroke-width:4.17px;stroke:#000;"/><rect x="5628.1" y="212.418" width="416.667" height="208.333" style="fill:#808080;stroke-width:4.17px;stroke:#000;"/><rect x="7711.43" y="212.418" width="416.667" height="208.333" style="fill:#808080;stroke-width:4.17px;stroke:#000;"/><rect x="1878.1" y="212.418" width="416.667" height="208.333" style="fill:#808080;stroke-width:4.17px;stroke:#000;"/><rect x="3961.43" y="212.418" width="416.667" height="208.333" style="fill:#808080;stroke-width:4.17px;stroke:#000;"/><rect x="6044.77" y="212.418" width="416.667" height="208.333" style="fill:#808080;stroke-width:4.17px;stroke:#000;"/><rect x="8128.1" y="212.418" width="416.667" height="208.333" style="fill:#808080;stroke-width:4.17px;stroke:#000;"/><rect x="2294.77" y="212.418" width="416.667" height="208.333" style="fill:#808080;stroke-width:4.17px;stroke:#000;"/><rect x="4378.1" y="212.418" width="416.667" height="208.333" style="fill:#808080;stroke-width:4.17px;stroke:#000;"/><rect x="6461.43" y="212.418" width="416.667" height="208.333" style="fill:#808080;stroke-width:4.17px;stroke:#000;"/><rect x="8544.77" y="212.418" width="416.667" height="208.333" style="fill:#808080;stroke-width:4.17px;stroke:#000;"/><text x="786.475px" y="375.247px" style="font-family:'ArialMT';font-size:150px;fill:#000;stroke-width:4.17px;stroke:#000;">A</text><text x="2869.81px" y="375.247px" style="font-family:'ArialMT';font-size:150px;fill:#000;stroke-width:4.17px;stroke:#000;">F</text><text x="4953.14px" y="375.247px" style="font-family:'ArialMT';font-size:150px;fill:#000;stroke-width:4.17px;stroke:#000;">K</text><text x="7036.48px" y="375.247px" style="font-family:'ArialMT';font-size:150px;fill:#000;stroke-width:4.17px;stroke:#000;">P</text><text x="9119.81px" y="375.247px" style="font-family:'ArialMT';font-size:150px;fill:#000;stroke-width:4.17px;stroke:#000;">U</text><text x="1203.14px" y="375.247px" style="font-family:'ArialMT';font-size:150px;fill:#000;stroke-width:4.17px;stroke:#000;">B</text><text x="3286.47px" y="375.247px" style="font-family:'ArialMT';font-size:150px;fill:#000;stroke-width:4.17px;stroke:#000;">G</text><text x="5369.81px" y="375.247px" style="font-family:'ArialMT';font-size:150px;fill:#000;stroke-width:4.17px;stroke:#000;">L</text><text x="7453.14px" y="375.247px" style="font-family:'ArialMT';font-size:150px;fill:#000;stroke-width:4.17px;stroke:#000;">Q</text><text x="9536.48px" y="375.247px" style="font-family:'ArialMT';font-size:150px;fill:#000;stroke-width:4.17px;stroke:#000;">V</text><text x="1619.81px" y="375.247px" style="font-family:'ArialMT';font-size:150px;fill:#000;stroke-width:4.17px;stroke:#000;">C</text><text x="3703.14px" y="375.247px" style="font-family:'ArialMT';font-size:150px;fill:#000;stroke-width:4.17px;stroke:#000;">H</text><text x="5786.48px" y="375.247px" style="font-family:'ArialMT';font-size:150px;fill:#000;stroke-width:4.17px;stroke:#000;">M</text><text x="7869.81px" y="375.247px" style="font-family:'ArialMT';font-size:150px;fill:#000;stroke-width:4.17px;stroke:#000;">R</text><text x="2036.48px" y="375.247px" style="font-family:'ArialMT';font-size:150px;fill:#000;stroke-width:4.17px;stroke:#000;">D</text><text x="4148.99px" y="375.247px" style="font-family:'ArialMT';font-size:150px;fill:#000;stroke-width:4.17px;stroke:#000;">I</text><text x="6203.14px" y="375.247px" style="font-family:'ArialMT';font-size:150px;fill:#000;stroke-width:4.17px;stroke:#000;">N</text><text x="8286.48px" y="375.247px" style="font-family:'ArialMT';font-size:150px;fill:#000;stroke-width:4.17px;stroke:#000;">S</text><text x="2453.14px" y="375.247px" style="font-family:'ArialMT';font-size:150px;fill:#000;stroke-width:4.17px;stroke:#000;">E</text><text x="4536.48px" y="375.247px" style="font-family:'ArialMT';font-size:150px;fill:#000;stroke-width:4.17px;stroke:#000;">J</text><text x="6619.81px" y="375.247px" style="font-family:'ArialMT';font-size:150px;fill:#000;stroke-width:4.17px;stroke:#000;">O</text><text x="8703.14px" y="375.247px" style="font-family:'ArialMT';font-size:150px;fill:#000;stroke-width:4.17px;stroke:#000;">T</text></g><g id="top numbers"><text x="1222.97px" y="194.758px" style="font-family:'ArialMT';font-size:83.333px;fill:#000;stroke-width:4.17px;stroke:#000;">1</text><text x="813.261px" y="194.758px" style="font-family:'ArialMT';font-size:83.333px;fill:#000;stroke-width:4.17px;stroke:#000;">0</text><text x="3306.3px" y="194.758px" style="font-family:'ArialMT';font-size:83.333px;fill:#000;stroke-width:4.17px;stroke:#000;">6</text><text x="5370.25px" y="194.758px" style="font-family:'ArialMT';font-size:83.333px;fill:#000;stroke-width:4.17px;stroke:#000;">1<tspan x="5410.41px " y="194.758px ">1</tspan></text><text x="7456.76px" y="194.758px" style="font-family:'ArialMT';font-size:83.333px;fill:#000;stroke-width:4.17px;stroke:#000;">16</text><text x="9540.09px" y="194.758px" style="font-family:'ArialMT';font-size:83.333px;fill:#000;stroke-width:4.17px;stroke:#000;">21</text><text x="1639.64px" y="194.758px" style="font-family:'ArialMT';font-size:83.333px;fill:#000;stroke-width:4.17px;stroke:#000;">2</text><text x="3725.25px" y="194.758px" style="font-family:'ArialMT';font-size:83.333px;fill:#000;stroke-width:4.17px;stroke:#000;">7</text><text x="5790.09px" y="194.758px" style="font-family:'ArialMT';font-size:83.333px;fill:#000;stroke-width:4.17px;stroke:#000;">12</text><text x="7868.74px" y="194.758px" style="font-family:'ArialMT';font-size:83.333px;fill:#000;stroke-width:4.17px;stroke:#000;">17</text><text x="2056.3px" y="194.758px" style="font-family:'ArialMT';font-size:83.333px;fill:#000;stroke-width:4.17px;stroke:#000;">3</text><text x="4141.91px" y="194.758px" style="font-family:'ArialMT';font-size:83.333px;fill:#000;stroke-width:4.17px;stroke:#000;">8</text><text x="6206.76px" y="194.758px" style="font-family:'ArialMT';font-size:83.333px;fill:#000;stroke-width:4.17px;stroke:#000;">13</text><text x="8285.41px" y="194.758px" style="font-family:'ArialMT';font-size:83.333px;fill:#000;stroke-width:4.17px;stroke:#000;">18</text><text x="2472.97px" y="194.758px" style="font-family:'ArialMT';font-size:83.333px;fill:#000;stroke-width:4.17px;stroke:#000;">4</text><text x="4558.58px" y="194.758px" style="font-family:'ArialMT';font-size:83.333px;fill:#000;stroke-width:4.17px;stroke:#000;">9</text><text x="6623.42px" y="194.758px" style="font-family:'ArialMT';font-size:83.333px;fill:#000;stroke-width:4.17px;stroke:#000;">14</text><text x="8702.08px" y="194.758px" style="font-family:'ArialMT';font-size:83.333px;fill:#000;stroke-width:4.17px;stroke:#000;">19</text><text x="2889.64px" y="194.758px" style="font-family:'ArialMT';font-size:83.333px;fill:#000;stroke-width:4.17px;stroke:#000;">5</text><text x="4956.76px" y="194.758px" style="font-family:'ArialMT';font-size:83.333px;fill:#000;stroke-width:4.17px;stroke:#000;">10</text><text x="7035.41px" y="194.758px" style="font-family:'ArialMT';font-size:83.333px;fill:#000;stroke-width:4.17px;stroke:#000;">15</text><text x="9118.74px" y="194.758px" style="font-family:'ArialMT';font-size:83.333px;fill:#000;stroke-width:4.17px;stroke:#000;">20</text></g><g id="side labels"><rect x="211.434" y="1045.75" width="208.333" height="416.667" style="fill:#808080;stroke-width:4.17px;stroke:#000;"/><rect x="211.434" y="629.084" width="208.333" height="416.667" style="fill:#808080;stroke-width:4.17px;stroke:#000;"/><rect x="211.434" y="2712.42" width="208.333" height="416.667" style="fill:#808080;stroke-width:4.17px;stroke:#000;"/><rect x="211.434" y="1462.42" width="208.333" height="416.667" style="fill:#808080;stroke-width:4.17px;stroke:#000;"/><rect x="211.434" y="3129.08" width="208.333" height="416.667" style="fill:#808080;stroke-width:4.17px;stroke:#000;"/><rect x="211.434" y="1879.08" width="208.333" height="416.667" style="fill:#808080;stroke-width:4.17px;stroke:#000;"/><rect x="211.434" y="2295.75" width="208.333" height="416.667" style="fill:#808080;stroke-width:4.17px;stroke:#000;"/><text x="273.87px" y="1305.63px" style="font-family:'ArialMT';font-size:150px;fill:#000;stroke-width:4.17px;stroke:#000;">1</text><text x="273.87px" y="888.964px" style="font-family:'ArialMT';font-size:150px;fill:#000;stroke-width:4.17px;stroke:#000;">0</text><text x="273.87px" y="2972.3px" style="font-family:'ArialMT';font-size:150px;fill:#000;stroke-width:4.17px;stroke:#000;">5</text><text x="273.87px" y="1722.3px" style="font-family:'ArialMT';font-size:150px;fill:#000;stroke-width:4.17px;stroke:#000;">2</text><text x="273.87px" y="3388.96px" style="font-family:'ArialMT';font-size:150px;fill:#000;stroke-width:4.17px;stroke:#000;">6</text><text x="273.87px" y="2138.96px" style="font-family:'ArialMT';font-size:150px;fill:#000;stroke-width:4.17px;stroke:#000;">3</text><text x="273.87px" y="2555.63px" style="font-family:'ArialMT';font-size:150px;fill:#000;stroke-width:4.17px;stroke:#000;">4</text></g><rect x="3.101" y="4.084" width="416.667" height="416.667" style="fill:none;stroke-width:4.17px;stroke-miterlimit:1;stroke:#000;"/><rect x="211.434" y="212.418" width="416.667" height="416.667" style="fill:#808080;stroke-width:4.17px;stroke:#000;"/><text x="234.546px" y="528.433px" style="font-family:'ArialMT';font-size:266.667px;fill:#000;stroke-width:4.17px;stroke:#000;">1m</text></g></g></svg>