<?xml version="1.0" standalone="no"?><!DOCTYPE svg PUBLIC "-//W3C//DTD SVG 1.1//EN" "http://www.w3.org/Graphics/SVG/1.1/DTD/svg11.dtd"><svg width="100%" height="100%" viewBox="0 0 2301 801" version="1.1" xmlns="http://www.w3.org/2000/svg" xmlns:xlink="http://www.w3.org/1999/xlink" xml:space="preserve" style="fill-rule:evenodd;clip-rule:evenodd;stroke-linejoin:round;stroke-miterlimit:1.41421;"><clipPath id="_clip1"><rect id="slow ride" x="0.337" y="0.98" width="2300" height="800"/></clipPath><g clip-path="url(#_clip1)"><path d="M200.337,350.98l1990,0" style="fill:none;stroke-width:36px;stroke:#14a90c;stroke-opacity:0.698039;"/><path d="M240.337,351.555l-95,29.425l0,-58.849l95,29.424Z" style="fill:#000;"/><g id="Layer5"><g><path d="M320.337,300.98c0,-11.038 -8.962,-20 -20,-20c-11.038,0 -20,8.962 -20,20c0,11.039 8.962,20 20,20c11.038,0 20,-8.961 20,-20Z" style="fill:#fcd1d1;stroke-width:1px;stroke:#000;"/><path d="M310.337,300.98c0,-5.519 -4.481,-10 -10,-10c-5.519,0 -10,4.481 -10,10c0,5.519 4.481,10 10,10c5.519,0 10,-4.481 10,-10Z" style="fill:#fc2e30;stroke-width:1px;stroke:#000;"/></g><g><path d="M920.337,300.98c0,-11.038 -8.962,-20 -20,-20c-11.038,0 -20,8.962 -20,20c0,11.039 8.962,20 20,20c11.038,0 20,-8.961 20,-20Z" style="fill:#fcd1d1;stroke-width:1px;stroke:#000;"/><path d="M910.337,300.98c0,-5.519 -4.481,-10 -10,-10c-5.519,0 -10,4.481 -10,10c0,5.519 4.481,10 10,10c5.519,0 10,-4.481 10,-10Z" style="fill:#fc2e30;stroke-width:1px;stroke:#000;"/></g><g><path d="M1120.34,300.98c0,-11.038 -8.962,-20 -20,-20c-11.038,0 -20,8.962 -20,20c0,11.039 8.962,20 20,20c11.038,0 20,-8.961 20,-20Z" style="fill:#fcd1d1;stroke-width:1px;stroke:#000;"/><path d="M1110.34,300.98c0,-5.519 -4.481,-10 -10,-10c-5.519,0 -10,4.481 -10,10c0,5.519 4.481,10 10,10c5.519,0 10,-4.481 10,-10Z" style="fill:#fc2e30;stroke-width:1px;stroke:#000;"/></g><g><path d="M1320.34,300.98c0,-11.038 -8.962,-20 -20,-20c-11.038,0 -20,8.962 -20,20c0,11.039 8.962,20 20,20c11.038,0 20,-8.961 20,-20Z" style="fill:#fcd1d1;stroke-width:1px;stroke:#000;"/><path d="M1310.34,300.98c0,-5.519 -4.481,-10 -10,-10c-5.519,0 -10,4.481 -10,10c0,5.519 4.481,10 10,10c5.519,0 10,-4.481 10,-10Z" style="fill:#fc2e30;stroke-width:1px;stroke:#000;"/></g><g><path d="M1520.34,300.98c0,-11.038 -8.962,-20 -20,-20c-11.038,0 -20,8.962 -20,20c0,11.039 8.962,20 20,20c11.038,0 20,-8.961 20,-20Z" style="fill:#fcd1d1;stroke-width:1px;stroke:#000;"/><path d="M1510.34,300.98c0,-5.519 -4.481,-10 -10,-10c-5.519,0 -10,4.481 -10,10c0,5.519 4.481,10 10,10c5.519,0 10,-4.481 10,-10Z" style="fill:#fc2e30;stroke-width:1px;stroke:#000;"/></g><g><path d="M1720.34,300.98c0,-11.038 -8.962,-20 -20,-20c-11.038,0 -20,8.962 -20,20c0,11.039 8.962,20 20,20c11.038,0 20,-8.961 20,-20Z" style="fill:#fcd1d1;stroke-width:1px;stroke:#000;"/><path d="M1710.34,300.98c0,-5.519 -4.481,-10 -10,-10c-5.519,0 -10,4.481 -10,10c0,5.519 4.481,10 10,10c5.519,0 10,-4.481 10,-10Z" style="fill:#fc2e30;stroke-width:1px;stroke:#000;"/></g><g><path d="M1920.34,300.98c0,-11.038 -8.962,-20 -20,-20c-11.038,0 -20,8.962 -20,20c0,11.039 8.962,20 20,20c11.038,0 20,-8.961 20,-20Z" style="fill:#fcd1d1;stroke-width:1px;stroke:#000;"/><path d="M1910.34,300.98c0,-5.519 -4.481,-10 -10,-10c-5.519,0 -10,4.481 -10,10c0,5.519 4.481,10 10,10c5.519,0 10,-4.481 10,-10Z" style="fill:#fc2e30;stroke-width:1px;stroke:#000;"/></g><g><path d="M2120.34,300.98c0,-11.038 -8.962,-20 -20,-20c-11.038,0 -20,8.962 -20,20c0,11.039 8.962,20 20,20c11.038,0 20,-8.961 20,-20Z" style="fill:#fcd1d1;stroke-width:1px;stroke:#000;"/><path d="M2110.34,300.98c0,-5.519 -4.481,-10 -10,-10c-5.519,0 -10,4.481 -10,10c0,5.519 4.481,10 10,10c5.519,0 10,-4.481 10,-10Z" style="fill:#fc2e30;stroke-width:1px;stroke:#000;"/></g><g><path d="M920.337,400.98c0,-11.038 -8.962,-20 -20,-20c-11.038,0 -20,8.962 -20,20c0,11.039 8.962,20 20,20c11.038,0 20,-8.961 20,-20Z" style="fill:#fcd1d1;stroke-width:1px;stroke:#000;"/><path d="M910.337,400.98c0,-5.519 -4.481,-10 -10,-10c-5.519,0 -10,4.481 -10,10c0,5.519 4.481,10 10,10c5.519,0 10,-4.481 10,-10Z" style="fill:#fc2e30;stroke-width:1px;stroke:#000;"/></g><g><path d="M1120.34,400.98c0,-11.038 -8.962,-20 -20,-20c-11.038,0 -20,8.962 -20,20c0,11.039 8.962,20 20,20c11.038,0 20,-8.961 20,-20Z" style="fill:#fcd1d1;stroke-width:1px;stroke:#000;"/><path d="M1110.34,400.98c0,-5.519 -4.481,-10 -10,-10c-5.519,0 -10,4.481 -10,10c0,5.519 4.481,10 10,10c5.519,0 10,-4.481 10,-10Z" style="fill:#fc2e30;stroke-width:1px;stroke:#000;"/></g><g><path d="M1320.34,400.98c0,-11.038 -8.962,-20 -20,-20c-11.038,0 -20,8.962 -20,20c0,11.039 8.962,20 20,20c11.038,0 20,-8.961 20,-20Z" style="fill:#fcd1d1;stroke-width:1px;stroke:#000;"/><path d="M1310.34,400.98c0,-5.519 -4.481,-10 -10,-10c-5.519,0 -10,4.481 -10,10c0,5.519 4.481,10 10,10c5.519,0 10,-4.481 10,-10Z" style="fill:#fc2e30;stroke-width:1px;stroke:#000;"/></g><g><path d="M1520.34,400.98c0,-11.038 -8.962,-20 -20,-20c-11.038,0 -20,8.962 -20,20c0,11.039 8.962,20 20,20c11.038,0 20,-8.961 20,-20Z" style="fill:#fcd1d1;stroke-width:1px;stroke:#000;"/><path d="M1510.34,400.98c0,-5.519 -4.481,-10 -10,-10c-5.519,0 -10,4.481 -10,10c0,5.519 4.481,10 10,10c5.519,0 10,-4.481 10,-10Z" style="fill:#fc2e30;stroke-width:1px;stroke:#000;"/></g><g><path d="M1720.34,400.98c0,-11.038 -8.962,-20 -20,-20c-11.038,0 -20,8.962 -20,20c0,11.039 8.962,20 20,20c11.038,0 20,-8.961 20,-20Z" style="fill:#fcd1d1;stroke-width:1px;stroke:#000;"/><path d="M1710.34,400.98c0,-5.519 -4.481,-10 -10,-10c-5.519,0 -10,4.481 -10,10c0,5.519 4.481,10 10,10c5.519,0 10,-4.481 10,-10Z" style="fill:#fc2e30;stroke-width:1px;stroke:#000;"/></g><g><path d="M1920.34,400.98c0,-11.038 -8.962,-20 -20,-20c-11.038,0 -20,8.962 -20,20c0,11.039 8.962,20 20,20c11.038,0 20,-8.961 20,-20Z" style="fill:#fcd1d1;stroke-width:1px;stroke:#000;"/><path d="M1910.34,400.98c0,-5.519 -4.481,-10 -10,-10c-5.519,0 -10,4.481 -10,10c0,5.519 4.481,10 10,10c5.519,0 10,-4.481 10,-10Z" style="fill:#fc2e30;stroke-width:1px;stroke:#000;"/></g><g><path d="M2120.34,400.98c0,-11.038 -8.962,-20 -20,-20c-11.038,0 -20,8.962 -20,20c0,11.039 8.962,20 20,20c11.038,0 20,-8.961 20,-20Z" style="fill:#fcd1d1;stroke-width:1px;stroke:#000;"/><path d="M2110.34,400.98c0,-5.519 -4.481,-10 -10,-10c-5.519,0 -10,4.481 -10,10c0,5.519 4.481,10 10,10c5.519,0 10,-4.481 10,-10Z" style="fill:#fc2e30;stroke-width:1px;stroke:#000;"/></g><g><path d="M320.337,400.98c0,-11.038 -8.962,-20 -20,-20c-11.038,0 -20,8.962 -20,20c0,11.039 8.962,20 20,20c11.038,0 20,-8.961 20,-20Z" style="fill:#fcd1d1;stroke-width:1px;stroke:#000;"/><path d="M310.337,400.98c0,-5.519 -4.481,-10 -10,-10c-5.519,0 -10,4.481 -10,10c0,5.519 4.481,10 10,10c5.519,0 10,-4.481 10,-10Z" style="fill:#fc2e30;stroke-width:1px;stroke:#000;"/></g><g><path d="M520.337,300.98c0,-11.038 -8.962,-20 -20,-20c-11.038,0 -20,8.962 -20,20c0,11.039 8.962,20 20,20c11.038,0 20,-8.961 20,-20Z" style="fill:#fcd1d1;stroke-width:1px;stroke:#000;"/><path d="M510.337,300.98c0,-5.519 -4.481,-10 -10,-10c-5.519,0 -10,4.481 -10,10c0,5.519 4.481,10 10,10c5.519,0 10,-4.481 10,-10Z" style="fill:#fc2e30;stroke-width:1px;stroke:#000;"/></g><g><path d="M520.337,400.98c0,-11.038 -8.962,-20 -20,-20c-11.038,0 -20,8.962 -20,20c0,11.039 8.962,20 20,20c11.038,0 20,-8.961 20,-20Z" style="fill:#fcd1d1;stroke-width:1px;stroke:#000;"/><path d="M510.337,400.98c0,-5.519 -4.481,-10 -10,-10c-5.519,0 -10,4.481 -10,10c0,5.519 4.481,10 10,10c5.519,0 10,-4.481 10,-10Z" style="fill:#fc2e30;stroke-width:1px;stroke:#000;"/></g><g><path d="M720.337,400.98c0,-11.038 -8.962,-20 -20,-20c-11.038,0 -20,8.962 -20,20c0,11.039 8.962,20 20,20c11.038,0 20,-8.961 20,-20Z" style="fill:#fcd1d1;stroke-width:1px;stroke:#000;"/><path d="M710.337,400.98c0,-5.519 -4.481,-10 -10,-10c-5.519,0 -10,4.481 -10,10c0,5.519 4.481,10 10,10c5.519,0 10,-4.481 10,-10Z" style="fill:#fc2e30;stroke-width:1px;stroke:#000;"/></g><g><path d="M720.337,300.98c0,-11.038 -8.962,-20 -20,-20c-11.038,0 -20,8.962 -20,20c0,11.039 8.962,20 20,20c11.038,0 20,-8.961 20,-20Z" style="fill:#fcd1d1;stroke-width:1px;stroke:#000;"/><path d="M710.337,300.98c0,-5.519 -4.481,-10 -10,-10c-5.519,0 -10,4.481 -10,10c0,5.519 4.481,10 10,10c5.519,0 10,-4.481 10,-10Z" style="fill:#fc2e30;stroke-width:1px;stroke:#000;"/></g></g><g id="grid"><g id="bold lines"><path d="M700.337,100.98l0,2800" style="fill:none;stroke-width:1px;stroke-miterlimit:1;stroke:#000;stroke-opacity:0.298039;"/><path d="M100.337,700.98l2600,0" style="fill:none;stroke-width:1px;stroke-miterlimit:1;stroke:#000;stroke-opacity:0.298039;"/><path d="M1200.34,100.98l0,2800" style="fill:none;stroke-width:1px;stroke-miterlimit:1;stroke:#000;stroke-opacity:0.298039;"/><path d="M1700.34,100.98l0,2800" style="fill:none;stroke-width:1px;stroke-miterlimit:1;stroke:#000;stroke-opacity:0.298039;"/><path d="M2200.34,100.98l0,2800" style="fill:none;stroke-width:1px;stroke-miterlimit:1;stroke:#000;stroke-opacity:0.298039;"/><path d="M100.337,200.98l2600,0" style="fill:none;stroke-width:1px;stroke-miterlimit:1;stroke:#000;stroke-opacity:0.298039;"/><path d="M200.337,2900.98l0,-2800" style="fill:none;stroke-width:1px;stroke-miterlimit:1;stroke:#000;stroke-opacity:0.298039;"/></g><g id="vertical lines"><path d="M100.337,100.98l0,2800" style="fill:none;stroke-width:1px;stroke-linejoin:miter;stroke-miterlimit:1;stroke-dasharray:10,44,2,44;stroke-dashoffset:5;stroke:#000;"/><path d="M700.337,100.98l0,2800" style="fill:none;stroke-width:1px;stroke-linejoin:miter;stroke-miterlimit:1;stroke-dasharray:10,44,2,44;stroke-dashoffset:5;stroke:#000;"/><path d="M1300.34,100.98l0,2800" style="fill:none;stroke-width:1px;stroke-linejoin:miter;stroke-miterlimit:1;stroke-dasharray:10,44,2,44;stroke-dashoffset:5;stroke:#000;"/><path d="M1900.34,100.98l0,2800" style="fill:none;stroke-width:1px;stroke-linejoin:miter;stroke-miterlimit:1;stroke-dasharray:10,44,2,44;stroke-dashoffset:5;stroke:#000;"/><path d="M300.337,100.98l0,2800" style="fill:none;stroke-width:1px;stroke-linejoin:miter;stroke-miterlimit:1;stroke-dasharray:10,44,2,44;stroke-dashoffset:5;stroke:#000;"/><path d="M900.337,100.98l0,2800" style="fill:none;stroke-width:1px;stroke-linejoin:miter;stroke-miterlimit:1;stroke-dasharray:10,44,2,44;stroke-dashoffset:5;stroke:#000;"/><path d="M1500.34,100.98l0,2800" style="fill:none;stroke-width:1px;stroke-linejoin:miter;stroke-miterlimit:1;stroke-dasharray:10,44,2,44;stroke-dashoffset:5;stroke:#000;"/><path d="M2100.34,100.98l0,2800" style="fill:none;stroke-width:1px;stroke-linejoin:miter;stroke-miterlimit:1;stroke-dasharray:10,44,2,44;stroke-dashoffset:5;stroke:#000;"/><path d="M500.337,100.98l0,2800" style="fill:none;stroke-width:1px;stroke-linejoin:miter;stroke-miterlimit:1;stroke-dasharray:10,44,2,44;stroke-dashoffset:5;stroke:#000;"/><path d="M1100.34,100.98l0,2800" style="fill:none;stroke-width:1px;stroke-linejoin:miter;stroke-miterlimit:1;stroke-dasharray:10,44,2,44;stroke-dashoffset:5;stroke:#000;"/><path d="M1700.34,100.98l0,2800" style="fill:none;stroke-width:1px;stroke-linejoin:miter;stroke-miterlimit:1;stroke-dasharray:10,44,2,44;stroke-dashoffset:5;stroke:#000;"/><path d="M2300.34,100.98l0,2800" style="fill:none;stroke-width:1px;stroke-linejoin:miter;stroke-miterlimit:1;stroke-dasharray:10,44,2,44;stroke-dashoffset:5;stroke:#000;"/><path d="M200.337,100.98l0,2800" style="fill:none;stroke-width:1px;stroke-linejoin:miter;stroke-miterlimit:1;stroke-dasharray:10,44,2,44;stroke-dashoffset:5;stroke:#000;"/><path d="M800.337,100.98l0,2800" style="fill:none;stroke-width:1px;stroke-linejoin:miter;stroke-miterlimit:1;stroke-dasharray:10,44,2,44;stroke-dashoffset:5;stroke:#000;"/><path d="M1400.34,100.98l0,2800" style="fill:none;stroke-width:1px;stroke-linejoin:miter;stroke-miterlimit:1;stroke-dasharray:10,44,2,44;stroke-dashoffset:5;stroke:#000;"/><path d="M2000.34,100.98l0,2800" style="fill:none;stroke-width:1px;stroke-linejoin:miter;stroke-miterlimit:1;stroke-dasharray:10,44,2,44;stroke-dashoffset:5;stroke:#000;"/><path d="M400.337,100.98l0,2800" style="fill:none;stroke-width:1px;stroke-linejoin:miter;stroke-miterlimit:1;stroke-dasharray:10,44,2,44;stroke-dashoffset:5;stroke:#000;"/><path d="M1000.34,100.98l0,2800" style="fill:none;stroke-width:1px;stroke-linejoin:miter;stroke-miterlimit:1;stroke-dasharray:10,44,2,44;stroke-dashoffset:5;stroke:#000;"/><path d="M1600.34,100.98l0,2800" style="fill:none;stroke-width:1px;stroke-linejoin:miter;stroke-miterlimit:1;stroke-dasharray:10,44,2,44;stroke-dashoffset:5;stroke:#000;"/><path d="M2200.34,100.98l0,2800" style="fill:none;stroke-width:1px;stroke-linejoin:miter;stroke-miterlimit:1;stroke-dasharray:10,44,2,44;stroke-dashoffset:5;stroke:#000;"/><path d="M600.337,100.98l0,2800" style="fill:none;stroke-width:1px;stroke-linejoin:miter;stroke-miterlimit:1;stroke-dasharray:10,44,2,44;stroke-dashoffset:5;stroke:#000;"/><path d="M1200.34,100.98l0,2800" style="fill:none;stroke-width:1px;stroke-linejoin:miter;stroke-miterlimit:1;stroke-dasharray:10,44,2,44;stroke-dashoffset:5;stroke:#000;"/><path d="M1800.34,100.98l0,2800" style="fill:none;stroke-width:1px;stroke-linejoin:miter;stroke-miterlimit:1;stroke-dasharray:10,44,2,44;stroke-dashoffset:5;stroke:#000;"/></g><g id="horizontal lines"><path d="M100.337,100.98l2600,0" style="fill:none;stroke-width:1px;stroke-dasharray:10,44,2,44;stroke-dashoffset:5;stroke:#000;"/><path d="M100.337,500.98l2600,0" style="fill:none;stroke-width:1px;stroke-dasharray:10,44,2,44;stroke-dashoffset:5;stroke:#000;"/><path d="M2700.34,200.98l-2600,0" style="fill:none;stroke-width:1px;stroke-dasharray:10,44,2,44;stroke-dashoffset:5;stroke:#000;"/><path d="M2700.34,600.98l-2600,0" style="fill:none;stroke-width:1px;stroke-dasharray:10,44,2,44;stroke-dashoffset:5;stroke:#000;"/><path d="M100.337,300.98l2600,0" style="fill:none;stroke-width:1px;stroke-dasharray:10,44,2,44;stroke-dashoffset:5;stroke:#000;"/><path d="M100.337,700.98l2600,0" style="fill:none;stroke-width:1px;stroke-dasharray:10,44,2,44;stroke-dashoffset:5;stroke:#000;"/><path d="M100.337,400.98l2600,0" style="fill:none;stroke-width:1px;stroke-dasharray:10,44,2,44;stroke-dashoffset:5;stroke:#000;"/><path d="M100.337,800.98l2600,0" style="fill:none;stroke-width:1px;stroke-dasharray:10,44,2,44;stroke-dashoffset:5;stroke:#000;"/></g><g id="top labels"><rect x="150.337" y="50.98" width="100" height="50" style="fill:#808080;stroke-width:1px;stroke:#000;"/><rect x="650.337" y="50.98" width="100" height="50" style="fill:#808080;stroke-width:1px;stroke:#000;"/><rect x="1150.34" y="50.98" width="100" height="50" style="fill:#808080;stroke-width:1px;stroke:#000;"/><rect x="1650.34" y="50.98" width="100" height="50" style="fill:#808080;stroke-width:1px;stroke:#000;"/><rect x="2150.34" y="50.98" width="100" height="50" style="fill:#808080;stroke-width:1px;stroke:#000;"/><rect x="250.337" y="50.98" width="100" height="50" style="fill:#808080;stroke-width:1px;stroke:#000;"/><rect x="750.337" y="50.98" width="100" height="50" style="fill:#808080;stroke-width:1px;stroke:#000;"/><rect x="1250.34" y="50.98" width="100" height="50" style="fill:#808080;stroke-width:1px;stroke:#000;"/><rect x="1750.34" y="50.98" width="100" height="50" style="fill:#808080;stroke-width:1px;stroke:#000;"/><rect x="2250.34" y="50.98" width="100" height="50" style="fill:#808080;stroke-width:1px;stroke:#000;"/><rect x="350.337" y="50.98" width="100" height="50" style="fill:#808080;stroke-width:1px;stroke:#000;"/><rect x="850.337" y="50.98" width="100" height="50" style="fill:#808080;stroke-width:1px;stroke:#000;"/><rect x="1350.34" y="50.98" width="100" height="50" style="fill:#808080;stroke-width:1px;stroke:#000;"/><rect x="1850.34" y="50.98" width="100" height="50" style="fill:#808080;stroke-width:1px;stroke:#000;"/><rect x="450.337" y="50.98" width="100" height="50" style="fill:#808080;stroke-width:1px;stroke:#000;"/><rect x="950.337" y="50.98" width="100" height="50" style="fill:#808080;stroke-width:1px;stroke:#000;"/><rect x="1450.34" y="50.98" width="100" height="50" style="fill:#808080;stroke-width:1px;stroke:#000;"/><rect x="1950.34" y="50.98" width="100" height="50" style="fill:#808080;stroke-width:1px;stroke:#000;"/><rect x="550.337" y="50.98" width="100" height="50" style="fill:#808080;stroke-width:1px;stroke:#000;"/><rect x="1050.34" y="50.98" width="100" height="50" style="fill:#808080;stroke-width:1px;stroke:#000;"/><rect x="1550.34" y="50.98" width="100" height="50" style="fill:#808080;stroke-width:1px;stroke:#000;"/><rect x="2050.34" y="50.98" width="100" height="50" style="fill:#808080;stroke-width:1px;stroke:#000;"/><text x="188.347px" y="90.059px" style="font-family:'ArialMT';font-size:36px;fill:#000;stroke-width:1px;stroke:#000;">A</text><text x="688.347px" y="90.059px" style="font-family:'ArialMT';font-size:36px;fill:#000;stroke-width:1px;stroke:#000;">F</text><text x="1188.35px" y="90.059px" style="font-family:'ArialMT';font-size:36px;fill:#000;stroke-width:1px;stroke:#000;">K</text><text x="1688.35px" y="90.059px" style="font-family:'ArialMT';font-size:36px;fill:#000;stroke-width:1px;stroke:#000;">P</text><text x="2188.35px" y="90.059px" style="font-family:'ArialMT';font-size:36px;fill:#000;stroke-width:1px;stroke:#000;">U</text><text x="288.347px" y="90.059px" style="font-family:'ArialMT';font-size:36px;fill:#000;stroke-width:1px;stroke:#000;">B</text><text x="788.347px" y="90.059px" style="font-family:'ArialMT';font-size:36px;fill:#000;stroke-width:1px;stroke:#000;">G</text><text x="1288.35px" y="90.059px" style="font-family:'ArialMT';font-size:36px;fill:#000;stroke-width:1px;stroke:#000;">L</text><text x="1788.35px" y="90.059px" style="font-family:'ArialMT';font-size:36px;fill:#000;stroke-width:1px;stroke:#000;">Q</text><text x="2288.35px" y="90.059px" style="font-family:'ArialMT';font-size:36px;fill:#000;stroke-width:1px;stroke:#000;">V</text><text x="388.347px" y="90.059px" style="font-family:'ArialMT';font-size:36px;fill:#000;stroke-width:1px;stroke:#000;">C</text><text x="888.347px" y="90.059px" style="font-family:'ArialMT';font-size:36px;fill:#000;stroke-width:1px;stroke:#000;">H</text><text x="1388.35px" y="90.059px" style="font-family:'ArialMT';font-size:36px;fill:#000;stroke-width:1px;stroke:#000;">M</text><text x="1888.35px" y="90.059px" style="font-family:'ArialMT';font-size:36px;fill:#000;stroke-width:1px;stroke:#000;">R</text><text x="488.347px" y="90.059px" style="font-family:'ArialMT';font-size:36px;fill:#000;stroke-width:1px;stroke:#000;">D</text><text x="995.352px" y="90.059px" style="font-family:'ArialMT';font-size:36px;fill:#000;stroke-width:1px;stroke:#000;">I</text><text x="1488.35px" y="90.059px" style="font-family:'ArialMT';font-size:36px;fill:#000;stroke-width:1px;stroke:#000;">N</text><text x="1988.35px" y="90.059px" style="font-family:'ArialMT';font-size:36px;fill:#000;stroke-width:1px;stroke:#000;">S</text><text x="588.347px" y="90.059px" style="font-family:'ArialMT';font-size:36px;fill:#000;stroke-width:1px;stroke:#000;">E</text><text x="1088.35px" y="90.059px" style="font-family:'ArialMT';font-size:36px;fill:#000;stroke-width:1px;stroke:#000;">J</text><text x="1588.35px" y="90.059px" style="font-family:'ArialMT';font-size:36px;fill:#000;stroke-width:1px;stroke:#000;">O</text><text x="2088.35px" y="90.059px" style="font-family:'ArialMT';font-size:36px;fill:#000;stroke-width:1px;stroke:#000;">T</text></g><g id="top numbers"><text x="293.106px" y="46.742px" style="font-family:'ArialMT';font-size:20px;fill:#000;stroke-width:1px;stroke:#000;">1</text><text x="194.776px" y="46.742px" style="font-family:'ArialMT';font-size:20px;fill:#000;stroke-width:1px;stroke:#000;">0</text><text x="793.106px" y="46.742px" style="font-family:'ArialMT';font-size:20px;fill:#000;stroke-width:1px;stroke:#000;">6</text><text x="1288.45px" y="46.742px" style="font-family:'ArialMT';font-size:20px;fill:#000;stroke-width:1px;stroke:#000;">1<tspan x="1298.09px " y="46.742px ">1</tspan></text><text x="1789.21px" y="46.742px" style="font-family:'ArialMT';font-size:20px;fill:#000;stroke-width:1px;stroke:#000;">16</text><text x="2289.21px" y="46.742px" style="font-family:'ArialMT';font-size:20px;fill:#000;stroke-width:1px;stroke:#000;">21</text><text x="393.106px" y="46.742px" style="font-family:'ArialMT';font-size:20px;fill:#000;stroke-width:1px;stroke:#000;">2</text><text x="893.653px" y="46.742px" style="font-family:'ArialMT';font-size:20px;fill:#000;stroke-width:1px;stroke:#000;">7</text><text x="1389.21px" y="46.742px" style="font-family:'ArialMT';font-size:20px;fill:#000;stroke-width:1px;stroke:#000;">12</text><text x="1888.09px" y="46.742px" style="font-family:'ArialMT';font-size:20px;fill:#000;stroke-width:1px;stroke:#000;">17</text><text x="493.106px" y="46.742px" style="font-family:'ArialMT';font-size:20px;fill:#000;stroke-width:1px;stroke:#000;">3</text><text x="993.653px" y="46.742px" style="font-family:'ArialMT';font-size:20px;fill:#000;stroke-width:1px;stroke:#000;">8</text><text x="1489.21px" y="46.742px" style="font-family:'ArialMT';font-size:20px;fill:#000;stroke-width:1px;stroke:#000;">13</text><text x="1988.09px" y="46.742px" style="font-family:'ArialMT';font-size:20px;fill:#000;stroke-width:1px;stroke:#000;">18</text><text x="593.106px" y="46.742px" style="font-family:'ArialMT';font-size:20px;fill:#000;stroke-width:1px;stroke:#000;">4</text><text x="1093.65px" y="46.742px" style="font-family:'ArialMT';font-size:20px;fill:#000;stroke-width:1px;stroke:#000;">9</text><text x="1589.21px" y="46.742px" style="font-family:'ArialMT';font-size:20px;fill:#000;stroke-width:1px;stroke:#000;">14</text><text x="2088.09px" y="46.742px" style="font-family:'ArialMT';font-size:20px;fill:#000;stroke-width:1px;stroke:#000;">19</text><text x="693.106px" y="46.742px" style="font-family:'ArialMT';font-size:20px;fill:#000;stroke-width:1px;stroke:#000;">5</text><text x="1189.21px" y="46.742px" style="font-family:'ArialMT';font-size:20px;fill:#000;stroke-width:1px;stroke:#000;">10</text><text x="1688.09px" y="46.742px" style="font-family:'ArialMT';font-size:20px;fill:#000;stroke-width:1px;stroke:#000;">15</text><text x="2188.09px" y="46.742px" style="font-family:'ArialMT';font-size:20px;fill:#000;stroke-width:1px;stroke:#000;">20</text></g><g id="side labels"><rect x="50.337" y="250.98" width="50" height="100" style="fill:#808080;stroke-width:1px;stroke:#000;"/><rect x="50.337" y="150.98" width="50" height="100" style="fill:#808080;stroke-width:1px;stroke:#000;"/><rect x="50.337" y="650.98" width="50" height="100" style="fill:#808080;stroke-width:1px;stroke:#000;"/><rect x="50.337" y="350.98" width="50" height="100" style="fill:#808080;stroke-width:1px;stroke:#000;"/><rect x="50.337" y="750.98" width="50" height="100" style="fill:#808080;stroke-width:1px;stroke:#000;"/><rect x="50.337" y="450.98" width="50" height="100" style="fill:#808080;stroke-width:1px;stroke:#000;"/><rect x="50.337" y="550.98" width="50" height="100" style="fill:#808080;stroke-width:1px;stroke:#000;"/><text x="65.322px" y="313.351px" style="font-family:'ArialMT';font-size:36px;fill:#000;stroke-width:1px;stroke:#000;">1</text><text x="65.322px" y="213.351px" style="font-family:'ArialMT';font-size:36px;fill:#000;stroke-width:1px;stroke:#000;">0</text><text x="65.322px" y="713.351px" style="font-family:'ArialMT';font-size:36px;fill:#000;stroke-width:1px;stroke:#000;">5</text><text x="65.322px" y="413.351px" style="font-family:'ArialMT';font-size:36px;fill:#000;stroke-width:1px;stroke:#000;">2</text><text x="65.322px" y="813.351px" style="font-family:'ArialMT';font-size:36px;fill:#000;stroke-width:1px;stroke:#000;">6</text><text x="65.322px" y="513.351px" style="font-family:'ArialMT';font-size:36px;fill:#000;stroke-width:1px;stroke:#000;">3</text><text x="65.322px" y="613.351px" style="font-family:'ArialMT';font-size:36px;fill:#000;stroke-width:1px;stroke:#000;">4</text></g><rect x="0.337" y="0.98" width="100" height="100" style="fill:none;stroke-width:1px;stroke-miterlimit:1;stroke:#000;"/><rect x="50.337" y="50.98" width="100" height="100" style="fill:#808080;stroke-width:1px;stroke:#000;"/><text x="55.884px" y="126.824px" style="font-family:'ArialMT';font-size:64px;fill:#000;stroke-width:1px;stroke:#000;">1m</text></g></g></svg>