<?xml version="1.0" standalone="no"?><!DOCTYPE svg PUBLIC "-//W3C//DTD SVG 1.1//EN" "http://www.w3.org/Graphics/SVG/1.1/DTD/svg11.dtd"><svg width="100%" height="100%" viewBox="0 0 2301 801" version="1.1" xmlns="http://www.w3.org/2000/svg" xmlns:xlink="http://www.w3.org/1999/xlink" xml:space="preserve" style="fill-rule:evenodd;clip-rule:evenodd;stroke-linejoin:round;stroke-miterlimit:1.41421;"><clipPath id="_clip1"><rect id="slow ride" x="0.744" y="0.98" width="2300" height="800"/></clipPath><g clip-path="url(#_clip1)"><path d="M200.744,350.98l1990,0" style="fill:none;stroke-width:36px;stroke:#14a90c;stroke-opacity:0.698039;"/><path d="M240.744,351.555l-95,29.425l0,-58.849l95,29.424Z" style="fill:#000;"/><g id="Layer5"><g><path d="M320.744,300.98c0,-11.038 -8.962,-20 -20,-20c-11.038,0 -20,8.962 -20,20c0,11.039 8.962,20 20,20c11.038,0 20,-8.961 20,-20Z" style="fill:#fcd1d1;stroke-width:1px;stroke:#000;"/><path d="M310.744,300.98c0,-5.519 -4.481,-10 -10,-10c-5.519,0 -10,4.481 -10,10c0,5.519 4.481,10 10,10c5.519,0 10,-4.481 10,-10Z" style="fill:#fc2e30;stroke-width:1px;stroke:#000;"/></g><g><path d="M920.744,300.98c0,-11.038 -8.962,-20 -20,-20c-11.038,0 -20,8.962 -20,20c0,11.039 8.962,20 20,20c11.038,0 20,-8.961 20,-20Z" style="fill:#fcd1d1;stroke-width:1px;stroke:#000;"/><path d="M910.744,300.98c0,-5.519 -4.481,-10 -10,-10c-5.519,0 -10,4.481 -10,10c0,5.519 4.481,10 10,10c5.519,0 10,-4.481 10,-10Z" style="fill:#fc2e30;stroke-width:1px;stroke:#000;"/></g><g><path d="M1120.74,300.98c0,-11.038 -8.962,-20 -20,-20c-11.038,0 -20,8.962 -20,20c0,11.039 8.962,20 20,20c11.038,0 20,-8.961 20,-20Z" style="fill:#fcd1d1;stroke-width:1px;stroke:#000;"/><path d="M1110.74,300.98c0,-5.519 -4.481,-10 -10,-10c-5.519,0 -10,4.481 -10,10c0,5.519 4.481,10 10,10c5.519,0 10,-4.481 10,-10Z" style="fill:#fc2e30;stroke-width:1px;stroke:#000;"/></g><g><path d="M1320.74,300.98c0,-11.038 -8.962,-20 -20,-20c-11.038,0 -20,8.962 -20,20c0,11.039 8.962,20 20,20c11.038,0 20,-8.961 20,-20Z" style="fill:#fcd1d1;stroke-width:1px;stroke:#000;"/><path d="M1310.74,300.98c0,-5.519 -4.481,-10 -10,-10c-5.519,0 -10,4.481 -10,10c0,5.519 4.481,10 10,10c5.519,0 10,-4.481 10,-10Z" style="fill:#fc2e30;stroke-width:1px;stroke:#000;"/></g><g><path d="M1520.74,300.98c0,-11.038 -8.962,-20 -20,-20c-11.038,0 -20,8.962 -20,20c0,11.039 8.962,20 20,20c11.038,0 20,-8.961 20,-20Z" style="fill:#fcd1d1;stroke-width:1px;stroke:#000;"/><path d="M1510.74,300.98c0,-5.519 -4.481,-10 -10,-10c-5.519,0 -10,4.481 -10,10c0,5.519 4.481,10 10,10c5.519,0 10,-4.481 10,-10Z" style="fill:#fc2e30;stroke-width:1px;stroke:#000;"/></g><g><path d="M1720.74,300.98c0,-11.038 -8.962,-20 -20,-20c-11.038,0 -20,8.962 -20,20c0,11.039 8.962,20 20,20c11.038,0 20,-8.961 20,-20Z" style="fill:#fcd1d1;stroke-width:1px;stroke:#000;"/><path d="M1710.74,300.98c0,-5.519 -4.481,-10 -10,-10c-5.519,0 -10,4.481 -10,10c0,5.519 4.481,10 10,10c5.519,0 10,-4.481 10,-10Z" style="fill:#fc2e30;stroke-width:1px;stroke:#000;"/></g><g><path d="M1920.74,300.98c0,-11.038 -8.962,-20 -20,-20c-11.038,0 -20,8.962 -20,20c0,11.039 8.962,20 20,20c11.038,0 20,-8.961 20,-20Z" style="fill:#fcd1d1;stroke-width:1px;stroke:#000;"/><path d="M1910.74,300.98c0,-5.519 -4.481,-10 -10,-10c-5.519,0 -10,4.481 -10,10c0,5.519 4.481,10 10,10c5.519,0 10,-4.481 10,-10Z" style="fill:#fc2e30;stroke-width:1px;stroke:#000;"/></g><g><path d="M2120.74,300.98c0,-11.038 -8.962,-20 -20,-20c-11.038,0 -20,8.962 -20,20c0,11.039 8.962,20 20,20c11.038,0 20,-8.961 20,-20Z" style="fill:#fcd1d1;stroke-width:1px;stroke:#000;"/><path d="M2110.74,300.98c0,-5.519 -4.481,-10 -10,-10c-5.519,0 -10,4.481 -10,10c0,5.519 4.481,10 10,10c5.519,0 10,-4.481 10,-10Z" style="fill:#fc2e30;stroke-width:1px;stroke:#000;"/></g><g><path d="M920.744,400.98c0,-11.038 -8.962,-20 -20,-20c-11.038,0 -20,8.962 -20,20c0,11.039 8.962,20 20,20c11.038,0 20,-8.961 20,-20Z" style="fill:#fcd1d1;stroke-width:1px;stroke:#000;"/><path d="M910.744,400.98c0,-5.519 -4.481,-10 -10,-10c-5.519,0 -10,4.481 -10,10c0,5.519 4.481,10 10,10c5.519,0 10,-4.481 10,-10Z" style="fill:#fc2e30;stroke-width:1px;stroke:#000;"/></g><g><path d="M1120.74,400.98c0,-11.038 -8.962,-20 -20,-20c-11.038,0 -20,8.962 -20,20c0,11.039 8.962,20 20,20c11.038,0 20,-8.961 20,-20Z" style="fill:#fcd1d1;stroke-width:1px;stroke:#000;"/><path d="M1110.74,400.98c0,-5.519 -4.481,-10 -10,-10c-5.519,0 -10,4.481 -10,10c0,5.519 4.481,10 10,10c5.519,0 10,-4.481 10,-10Z" style="fill:#fc2e30;stroke-width:1px;stroke:#000;"/></g><g><path d="M1320.74,400.98c0,-11.038 -8.962,-20 -20,-20c-11.038,0 -20,8.962 -20,20c0,11.039 8.962,20 20,20c11.038,0 20,-8.961 20,-20Z" style="fill:#fcd1d1;stroke-width:1px;stroke:#000;"/><path d="M1310.74,400.98c0,-5.519 -4.481,-10 -10,-10c-5.519,0 -10,4.481 -10,10c0,5.519 4.481,10 10,10c5.519,0 10,-4.481 10,-10Z" style="fill:#fc2e30;stroke-width:1px;stroke:#000;"/></g><g><path d="M1520.74,400.98c0,-11.038 -8.962,-20 -20,-20c-11.038,0 -20,8.962 -20,20c0,11.039 8.962,20 20,20c11.038,0 20,-8.961 20,-20Z" style="fill:#fcd1d1;stroke-width:1px;stroke:#000;"/><path d="M1510.74,400.98c0,-5.519 -4.481,-10 -10,-10c-5.519,0 -10,4.481 -10,10c0,5.519 4.481,10 10,10c5.519,0 10,-4.481 10,-10Z" style="fill:#fc2e30;stroke-width:1px;stroke:#000;"/></g><g><path d="M1720.74,400.98c0,-11.038 -8.962,-20 -20,-20c-11.038,0 -20,8.962 -20,20c0,11.039 8.962,20 20,20c11.038,0 20,-8.961 20,-20Z" style="fill:#fcd1d1;stroke-width:1px;stroke:#000;"/><path d="M1710.74,400.98c0,-5.519 -4.481,-10 -10,-10c-5.519,0 -10,4.481 -10,10c0,5.519 4.481,10 10,10c5.519,0 10,-4.481 10,-10Z" style="fill:#fc2e30;stroke-width:1px;stroke:#000;"/></g><g><path d="M1920.74,400.98c0,-11.038 -8.962,-20 -20,-20c-11.038,0 -20,8.962 -20,20c0,11.039 8.962,20 20,20c11.038,0 20,-8.961 20,-20Z" style="fill:#fcd1d1;stroke-width:1px;stroke:#000;"/><path d="M1910.74,400.98c0,-5.519 -4.481,-10 -10,-10c-5.519,0 -10,4.481 -10,10c0,5.519 4.481,10 10,10c5.519,0 10,-4.481 10,-10Z" style="fill:#fc2e30;stroke-width:1px;stroke:#000;"/></g><g><path d="M2120.74,400.98c0,-11.038 -8.962,-20 -20,-20c-11.038,0 -20,8.962 -20,20c0,11.039 8.962,20 20,20c11.038,0 20,-8.961 20,-20Z" style="fill:#fcd1d1;stroke-width:1px;stroke:#000;"/><path d="M2110.74,400.98c0,-5.519 -4.481,-10 -10,-10c-5.519,0 -10,4.481 -10,10c0,5.519 4.481,10 10,10c5.519,0 10,-4.481 10,-10Z" style="fill:#fc2e30;stroke-width:1px;stroke:#000;"/></g><g><path d="M320.744,400.98c0,-11.038 -8.962,-20 -20,-20c-11.038,0 -20,8.962 -20,20c0,11.039 8.962,20 20,20c11.038,0 20,-8.961 20,-20Z" style="fill:#fcd1d1;stroke-width:1px;stroke:#000;"/><path d="M310.744,400.98c0,-5.519 -4.481,-10 -10,-10c-5.519,0 -10,4.481 -10,10c0,5.519 4.481,10 10,10c5.519,0 10,-4.481 10,-10Z" style="fill:#fc2e30;stroke-width:1px;stroke:#000;"/></g><g><path d="M520.744,300.98c0,-11.038 -8.962,-20 -20,-20c-11.038,0 -20,8.962 -20,20c0,11.039 8.962,20 20,20c11.038,0 20,-8.961 20,-20Z" style="fill:#fcd1d1;stroke-width:1px;stroke:#000;"/><path d="M510.744,300.98c0,-5.519 -4.481,-10 -10,-10c-5.519,0 -10,4.481 -10,10c0,5.519 4.481,10 10,10c5.519,0 10,-4.481 10,-10Z" style="fill:#fc2e30;stroke-width:1px;stroke:#000;"/></g><g><path d="M520.744,400.98c0,-11.038 -8.962,-20 -20,-20c-11.038,0 -20,8.962 -20,20c0,11.039 8.962,20 20,20c11.038,0 20,-8.961 20,-20Z" style="fill:#fcd1d1;stroke-width:1px;stroke:#000;"/><path d="M510.744,400.98c0,-5.519 -4.481,-10 -10,-10c-5.519,0 -10,4.481 -10,10c0,5.519 4.481,10 10,10c5.519,0 10,-4.481 10,-10Z" style="fill:#fc2e30;stroke-width:1px;stroke:#000;"/></g><g><path d="M720.744,400.98c0,-11.038 -8.962,-20 -20,-20c-11.038,0 -20,8.962 -20,20c0,11.039 8.962,20 20,20c11.038,0 20,-8.961 20,-20Z" style="fill:#fcd1d1;stroke-width:1px;stroke:#000;"/><path d="M710.744,400.98c0,-5.519 -4.481,-10 -10,-10c-5.519,0 -10,4.481 -10,10c0,5.519 4.481,10 10,10c5.519,0 10,-4.481 10,-10Z" style="fill:#fc2e30;stroke-width:1px;stroke:#000;"/></g><g><path d="M720.744,300.98c0,-11.038 -8.962,-20 -20,-20c-11.038,0 -20,8.962 -20,20c0,11.039 8.962,20 20,20c11.038,0 20,-8.961 20,-20Z" style="fill:#fcd1d1;stroke-width:1px;stroke:#000;"/><path d="M710.744,300.98c0,-5.519 -4.481,-10 -10,-10c-5.519,0 -10,4.481 -10,10c0,5.519 4.481,10 10,10c5.519,0 10,-4.481 10,-10Z" style="fill:#fc2e30;stroke-width:1px;stroke:#000;"/></g></g><g id="grid"><g id="bold lines"><path d="M700.744,100.98l0,2800" style="fill:none;stroke-width:1px;stroke-miterlimit:1;stroke:#000;stroke-opacity:0.298039;"/><path d="M100.744,700.98l2600,0" style="fill:none;stroke-width:1px;stroke-miterlimit:1;stroke:#000;stroke-opacity:0.298039;"/><path d="M1200.74,100.98l0,2800" style="fill:none;stroke-width:1px;stroke-miterlimit:1;stroke:#000;stroke-opacity:0.298039;"/><path d="M1700.74,100.98l0,2800" style="fill:none;stroke-width:1px;stroke-miterlimit:1;stroke:#000;stroke-opacity:0.298039;"/><path d="M2200.74,100.98l0,2800" style="fill:none;stroke-width:1px;stroke-miterlimit:1;stroke:#000;stroke-opacity:0.298039;"/><path d="M100.744,200.98l2600,0" style="fill:none;stroke-width:1px;stroke-miterlimit:1;stroke:#000;stroke-opacity:0.298039;"/><path d="M200.744,2900.98l0,-2800" style="fill:none;stroke-width:1px;stroke-miterlimit:1;stroke:#000;stroke-opacity:0.298039;"/></g><g id="vertical lines"><path d="M100.744,100.98l0,2800" style="fill:none;stroke-width:1px;stroke-linejoin:miter;stroke-miterlimit:1;stroke-dasharray:10,44,2,44;stroke-dashoffset:5;stroke:#000;"/><path d="M700.744,100.98l0,2800" style="fill:none;stroke-width:1px;stroke-linejoin:miter;stroke-miterlimit:1;stroke-dasharray:10,44,2,44;stroke-dashoffset:5;stroke:#000;"/><path d="M1300.74,100.98l0,2800" style="fill:none;stroke-width:1px;stroke-linejoin:miter;stroke-miterlimit:1;stroke-dasharray:10,44,2,44;stroke-dashoffset:5;stroke:#000;"/><path d="M1900.74,100.98l0,2800" style="fill:none;stroke-width:1px;stroke-linejoin:miter;stroke-miterlimit:1;stroke-dasharray:10,44,2,44;stroke-dashoffset:5;stroke:#000;"/><path d="M300.744,100.98l0,2800" style="fill:none;stroke-width:1px;stroke-linejoin:miter;stroke-miterlimit:1;stroke-dasharray:10,44,2,44;stroke-dashoffset:5;stroke:#000;"/><path d="M900.744,100.98l0,2800" style="fill:none;stroke-width:1px;stroke-linejoin:miter;stroke-miterlimit:1;stroke-dasharray:10,44,2,44;stroke-dashoffset:5;stroke:#000;"/><path d="M1500.74,100.98l0,2800" style="fill:none;stroke-width:1px;stroke-linejoin:miter;stroke-miterlimit:1;stroke-dasharray:10,44,2,44;stroke-dashoffset:5;stroke:#000;"/><path d="M2100.74,100.98l0,2800" style="fill:none;stroke-width:1px;stroke-linejoin:miter;stroke-miterlimit:1;stroke-dasharray:10,44,2,44;stroke-dashoffset:5;stroke:#000;"/><path d="M500.744,100.98l0,2800" style="fill:none;stroke-width:1px;stroke-linejoin:miter;stroke-miterlimit:1;stroke-dasharray:10,44,2,44;stroke-dashoffset:5;stroke:#000;"/><path d="M1100.74,100.98l0,2800" style="fill:none;stroke-width:1px;stroke-linejoin:miter;stroke-miterlimit:1;stroke-dasharray:10,44,2,44;stroke-dashoffset:5;stroke:#000;"/><path d="M1700.74,100.98l0,2800" style="fill:none;stroke-width:1px;stroke-linejoin:miter;stroke-miterlimit:1;stroke-dasharray:10,44,2,44;stroke-dashoffset:5;stroke:#000;"/><path d="M2300.74,100.98l0,2800" style="fill:none;stroke-width:1px;stroke-linejoin:miter;stroke-miterlimit:1;stroke-dasharray:10,44,2,44;stroke-dashoffset:5;stroke:#000;"/><path d="M200.744,100.98l0,2800" style="fill:none;stroke-width:1px;stroke-linejoin:miter;stroke-miterlimit:1;stroke-dasharray:10,44,2,44;stroke-dashoffset:5;stroke:#000;"/><path d="M800.744,100.98l0,2800" style="fill:none;stroke-width:1px;stroke-linejoin:miter;stroke-miterlimit:1;stroke-dasharray:10,44,2,44;stroke-dashoffset:5;stroke:#000;"/><path d="M1400.74,100.98l0,2800" style="fill:none;stroke-width:1px;stroke-linejoin:miter;stroke-miterlimit:1;stroke-dasharray:10,44,2,44;stroke-dashoffset:5;stroke:#000;"/><path d="M2000.74,100.98l0,2800" style="fill:none;stroke-width:1px;stroke-linejoin:miter;stroke-miterlimit:1;stroke-dasharray:10,44,2,44;stroke-dashoffset:5;stroke:#000;"/><path d="M400.744,100.98l0,2800" style="fill:none;stroke-width:1px;stroke-linejoin:miter;stroke-miterlimit:1;stroke-dasharray:10,44,2,44;stroke-dashoffset:5;stroke:#000;"/><path d="M1000.74,100.98l0,2800" style="fill:none;stroke-width:1px;stroke-linejoin:miter;stroke-miterlimit:1;stroke-dasharray:10,44,2,44;stroke-dashoffset:5;stroke:#000;"/><path d="M1600.74,100.98l0,2800" style="fill:none;stroke-width:1px;stroke-linejoin:miter;stroke-miterlimit:1;stroke-dasharray:10,44,2,44;stroke-dashoffset:5;stroke:#000;"/><path d="M2200.74,100.98l0,2800" style="fill:none;stroke-width:1px;stroke-linejoin:miter;stroke-miterlimit:1;stroke-dasharray:10,44,2,44;stroke-dashoffset:5;stroke:#000;"/><path d="M600.744,100.98l0,2800" style="fill:none;stroke-width:1px;stroke-linejoin:miter;stroke-miterlimit:1;stroke-dasharray:10,44,2,44;stroke-dashoffset:5;stroke:#000;"/><path d="M1200.74,100.98l0,2800" style="fill:none;stroke-width:1px;stroke-linejoin:miter;stroke-miterlimit:1;stroke-dasharray:10,44,2,44;stroke-dashoffset:5;stroke:#000;"/><path d="M1800.74,100.98l0,2800" style="fill:none;stroke-width:1px;stroke-linejoin:miter;stroke-miterlimit:1;stroke-dasharray:10,44,2,44;stroke-dashoffset:5;stroke:#000;"/></g><g id="horizontal lines"><path d="M100.744,100.98l2600,0" style="fill:none;stroke-width:1px;stroke-dasharray:10,44,2,44;stroke-dashoffset:5;stroke:#000;"/><path d="M100.744,500.98l2600,0" style="fill:none;stroke-width:1px;stroke-dasharray:10,44,2,44;stroke-dashoffset:5;stroke:#000;"/><path d="M2700.74,200.98l-2600,0" style="fill:none;stroke-width:1px;stroke-dasharray:10,44,2,44;stroke-dashoffset:5;stroke:#000;"/><path d="M2700.74,600.98l-2600,0" style="fill:none;stroke-width:1px;stroke-dasharray:10,44,2,44;stroke-dashoffset:5;stroke:#000;"/><path d="M100.744,300.98l2600,0" style="fill:none;stroke-width:1px;stroke-dasharray:10,44,2,44;stroke-dashoffset:5;stroke:#000;"/><path d="M100.744,700.98l2600,0" style="fill:none;stroke-width:1px;stroke-dasharray:10,44,2,44;stroke-dashoffset:5;stroke:#000;"/><path d="M100.744,400.98l2600,0" style="fill:none;stroke-width:1px;stroke-dasharray:10,44,2,44;stroke-dashoffset:5;stroke:#000;"/><path d="M100.744,800.98l2600,0" style="fill:none;stroke-width:1px;stroke-dasharray:10,44,2,44;stroke-dashoffset:5;stroke:#000;"/></g><g id="top labels"><rect x="150.744" y="50.98" width="100" height="50" style="fill:#808080;stroke-width:1px;stroke:#000;"/><rect x="650.744" y="50.98" width="100" height="50" style="fill:#808080;stroke-width:1px;stroke:#000;"/><rect x="1150.74" y="50.98" width="100" height="50" style="fill:#808080;stroke-width:1px;stroke:#000;"/><rect x="1650.74" y="50.98" width="100" height="50" style="fill:#808080;stroke-width:1px;stroke:#000;"/><rect x="2150.74" y="50.98" width="100" height="50" style="fill:#808080;stroke-width:1px;stroke:#000;"/><rect x="250.744" y="50.98" width="100" height="50" style="fill:#808080;stroke-width:1px;stroke:#000;"/><rect x="750.744" y="50.98" width="100" height="50" style="fill:#808080;stroke-width:1px;stroke:#000;"/><rect x="1250.74" y="50.98" width="100" height="50" style="fill:#808080;stroke-width:1px;stroke:#000;"/><rect x="1750.74" y="50.98" width="100" height="50" style="fill:#808080;stroke-width:1px;stroke:#000;"/><rect x="2250.74" y="50.98" width="100" height="50" style="fill:#808080;stroke-width:1px;stroke:#000;"/><rect x="350.744" y="50.98" width="100" height="50" style="fill:#808080;stroke-width:1px;stroke:#000;"/><rect x="850.744" y="50.98" width="100" height="50" style="fill:#808080;stroke-width:1px;stroke:#000;"/><rect x="1350.74" y="50.98" width="100" height="50" style="fill:#808080;stroke-width:1px;stroke:#000;"/><rect x="1850.74" y="50.98" width="100" height="50" style="fill:#808080;stroke-width:1px;stroke:#000;"/><rect x="450.744" y="50.98" width="100" height="50" style="fill:#808080;stroke-width:1px;stroke:#000;"/><rect x="950.744" y="50.98" width="100" height="50" style="fill:#808080;stroke-width:1px;stroke:#000;"/><rect x="1450.74" y="50.98" width="100" height="50" style="fill:#808080;stroke-width:1px;stroke:#000;"/><rect x="1950.74" y="50.98" width="100" height="50" style="fill:#808080;stroke-width:1px;stroke:#000;"/><rect x="550.744" y="50.98" width="100" height="50" style="fill:#808080;stroke-width:1px;stroke:#000;"/><rect x="1050.74" y="50.98" width="100" height="50" style="fill:#808080;stroke-width:1px;stroke:#000;"/><rect x="1550.74" y="50.98" width="100" height="50" style="fill:#808080;stroke-width:1px;stroke:#000;"/><rect x="2050.74" y="50.98" width="100" height="50" style="fill:#808080;stroke-width:1px;stroke:#000;"/><text x="188.754px" y="90.059px" style="font-family:'ArialMT';font-size:36px;fill:#000;stroke-width:1px;stroke:#000;">A</text><text x="688.754px" y="90.059px" style="font-family:'ArialMT';font-size:36px;fill:#000;stroke-width:1px;stroke:#000;">F</text><text x="1188.75px" y="90.059px" style="font-family:'ArialMT';font-size:36px;fill:#000;stroke-width:1px;stroke:#000;">K</text><text x="1688.75px" y="90.059px" style="font-family:'ArialMT';font-size:36px;fill:#000;stroke-width:1px;stroke:#000;">P</text><text x="2188.75px" y="90.059px" style="font-family:'ArialMT';font-size:36px;fill:#000;stroke-width:1px;stroke:#000;">U</text><text x="288.754px" y="90.059px" style="font-family:'ArialMT';font-size:36px;fill:#000;stroke-width:1px;stroke:#000;">B</text><text x="788.754px" y="90.059px" style="font-family:'ArialMT';font-size:36px;fill:#000;stroke-width:1px;stroke:#000;">G</text><text x="1288.75px" y="90.059px" style="font-family:'ArialMT';font-size:36px;fill:#000;stroke-width:1px;stroke:#000;">L</text><text x="1788.75px" y="90.059px" style="font-family:'ArialMT';font-size:36px;fill:#000;stroke-width:1px;stroke:#000;">Q</text><text x="2288.75px" y="90.059px" style="font-family:'ArialMT';font-size:36px;fill:#000;stroke-width:1px;stroke:#000;">V</text><text x="388.754px" y="90.059px" style="font-family:'ArialMT';font-size:36px;fill:#000;stroke-width:1px;stroke:#000;">C</text><text x="888.754px" y="90.059px" style="font-family:'ArialMT';font-size:36px;fill:#000;stroke-width:1px;stroke:#000;">H</text><text x="1388.75px" y="90.059px" style="font-family:'ArialMT';font-size:36px;fill:#000;stroke-width:1px;stroke:#000;">M</text><text x="1888.75px" y="90.059px" style="font-family:'ArialMT';font-size:36px;fill:#000;stroke-width:1px;stroke:#000;">R</text><text x="488.754px" y="90.059px" style="font-family:'ArialMT';font-size:36px;fill:#000;stroke-width:1px;stroke:#000;">D</text><text x="995.759px" y="90.059px" style="font-family:'ArialMT';font-size:36px;fill:#000;stroke-width:1px;stroke:#000;">I</text><text x="1488.75px" y="90.059px" style="font-family:'ArialMT';font-size:36px;fill:#000;stroke-width:1px;stroke:#000;">N</text><text x="1988.75px" y="90.059px" style="font-family:'ArialMT';font-size:36px;fill:#000;stroke-width:1px;stroke:#000;">S</text><text x="588.754px" y="90.059px" style="font-family:'ArialMT';font-size:36px;fill:#000;stroke-width:1px;stroke:#000;">E</text><text x="1088.75px" y="90.059px" style="font-family:'ArialMT';font-size:36px;fill:#000;stroke-width:1px;stroke:#000;">J</text><text x="1588.75px" y="90.059px" style="font-family:'ArialMT';font-size:36px;fill:#000;stroke-width:1px;stroke:#000;">O</text><text x="2088.75px" y="90.059px" style="font-family:'ArialMT';font-size:36px;fill:#000;stroke-width:1px;stroke:#000;">T</text></g><g id="top numbers"><text x="293.513px" y="46.742px" style="font-family:'ArialMT';font-size:20px;fill:#000;stroke-width:1px;stroke:#000;">1</text><text x="195.183px" y="46.742px" style="font-family:'ArialMT';font-size:20px;fill:#000;stroke-width:1px;stroke:#000;">0</text><text x="793.513px" y="46.742px" style="font-family:'ArialMT';font-size:20px;fill:#000;stroke-width:1px;stroke:#000;">6</text><text x="1288.86px" y="46.742px" style="font-family:'ArialMT';font-size:20px;fill:#000;stroke-width:1px;stroke:#000;">1<tspan x="1298.5px " y="46.742px ">1</tspan></text><text x="1789.62px" y="46.742px" style="font-family:'ArialMT';font-size:20px;fill:#000;stroke-width:1px;stroke:#000;">16</text><text x="2289.62px" y="46.742px" style="font-family:'ArialMT';font-size:20px;fill:#000;stroke-width:1px;stroke:#000;">21</text><text x="393.513px" y="46.742px" style="font-family:'ArialMT';font-size:20px;fill:#000;stroke-width:1px;stroke:#000;">2</text><text x="894.06px" y="46.742px" style="font-family:'ArialMT';font-size:20px;fill:#000;stroke-width:1px;stroke:#000;">7</text><text x="1389.62px" y="46.742px" style="font-family:'ArialMT';font-size:20px;fill:#000;stroke-width:1px;stroke:#000;">12</text><text x="1888.5px" y="46.742px" style="font-family:'ArialMT';font-size:20px;fill:#000;stroke-width:1px;stroke:#000;">17</text><text x="493.513px" y="46.742px" style="font-family:'ArialMT';font-size:20px;fill:#000;stroke-width:1px;stroke:#000;">3</text><text x="994.06px" y="46.742px" style="font-family:'ArialMT';font-size:20px;fill:#000;stroke-width:1px;stroke:#000;">8</text><text x="1489.62px" y="46.742px" style="font-family:'ArialMT';font-size:20px;fill:#000;stroke-width:1px;stroke:#000;">13</text><text x="1988.5px" y="46.742px" style="font-family:'ArialMT';font-size:20px;fill:#000;stroke-width:1px;stroke:#000;">18</text><text x="593.513px" y="46.742px" style="font-family:'ArialMT';font-size:20px;fill:#000;stroke-width:1px;stroke:#000;">4</text><text x="1094.06px" y="46.742px" style="font-family:'ArialMT';font-size:20px;fill:#000;stroke-width:1px;stroke:#000;">9</text><text x="1589.62px" y="46.742px" style="font-family:'ArialMT';font-size:20px;fill:#000;stroke-width:1px;stroke:#000;">14</text><text x="2088.5px" y="46.742px" style="font-family:'ArialMT';font-size:20px;fill:#000;stroke-width:1px;stroke:#000;">19</text><text x="693.513px" y="46.742px" style="font-family:'ArialMT';font-size:20px;fill:#000;stroke-width:1px;stroke:#000;">5</text><text x="1189.62px" y="46.742px" style="font-family:'ArialMT';font-size:20px;fill:#000;stroke-width:1px;stroke:#000;">10</text><text x="1688.5px" y="46.742px" style="font-family:'ArialMT';font-size:20px;fill:#000;stroke-width:1px;stroke:#000;">15</text><text x="2188.5px" y="46.742px" style="font-family:'ArialMT';font-size:20px;fill:#000;stroke-width:1px;stroke:#000;">20</text></g><g id="side labels"><rect x="50.744" y="250.98" width="50" height="100" style="fill:#808080;stroke-width:1px;stroke:#000;"/><rect x="50.744" y="150.98" width="50" height="100" style="fill:#808080;stroke-width:1px;stroke:#000;"/><rect x="50.744" y="650.98" width="50" height="100" style="fill:#808080;stroke-width:1px;stroke:#000;"/><rect x="50.744" y="350.98" width="50" height="100" style="fill:#808080;stroke-width:1px;stroke:#000;"/><rect x="50.744" y="750.98" width="50" height="100" style="fill:#808080;stroke-width:1px;stroke:#000;"/><rect x="50.744" y="450.98" width="50" height="100" style="fill:#808080;stroke-width:1px;stroke:#000;"/><rect x="50.744" y="550.98" width="50" height="100" style="fill:#808080;stroke-width:1px;stroke:#000;"/><text x="65.729px" y="313.351px" style="font-family:'ArialMT';font-size:36px;fill:#000;stroke-width:1px;stroke:#000;">1</text><text x="65.729px" y="213.351px" style="font-family:'ArialMT';font-size:36px;fill:#000;stroke-width:1px;stroke:#000;">0</text><text x="65.729px" y="713.351px" style="font-family:'ArialMT';font-size:36px;fill:#000;stroke-width:1px;stroke:#000;">5</text><text x="65.729px" y="413.351px" style="font-family:'ArialMT';font-size:36px;fill:#000;stroke-width:1px;stroke:#000;">2</text><text x="65.729px" y="813.351px" style="font-family:'ArialMT';font-size:36px;fill:#000;stroke-width:1px;stroke:#000;">6</text><text x="65.729px" y="513.351px" style="font-family:'ArialMT';font-size:36px;fill:#000;stroke-width:1px;stroke:#000;">3</text><text x="65.729px" y="613.351px" style="font-family:'ArialMT';font-size:36px;fill:#000;stroke-width:1px;stroke:#000;">4</text></g><rect x="0.744" y="0.98" width="100" height="100" style="fill:none;stroke-width:1px;stroke-miterlimit:1;stroke:#000;"/><rect x="50.744" y="50.98" width="100" height="100" style="fill:#808080;stroke-width:1px;stroke:#000;"/><text x="56.291px" y="126.824px" style="font-family:'ArialMT';font-size:64px;fill:#000;stroke-width:1px;stroke:#000;">1m</text></g></g></svg>