<?xml version="1.0" standalone="no"?><!DOCTYPE svg PUBLIC "-//W3C//DTD SVG 1.1//EN" "http://www.w3.org/Graphics/SVG/1.1/DTD/svg11.dtd"><svg width="100%" height="100%" viewBox="0 0 2411 601" version="1.1" xmlns="http://www.w3.org/2000/svg" xmlns:xlink="http://www.w3.org/1999/xlink" xml:space="preserve" style="fill-rule:evenodd;clip-rule:evenodd;stroke-miterlimit:1;"><clipPath id="_clip1"><rect id="slow ride" x="0.337" y="0.98" width="2410" height="600"/></clipPath><g clip-path="url(#_clip1)"><g><g id="vertical lines"><path d="M100.337,100.98l0,1600" style="fill:none;stroke-width:1px;stroke:url(#_Linear2);"/><path d="M700.337,100.98l0,1600" style="fill:none;stroke-width:1px;stroke:url(#_Linear3);"/><path d="M1300.34,100.98l0,1600" style="fill:none;stroke-width:1px;stroke:url(#_Linear4);"/><path d="M1900.34,100.98l0,1600" style="fill:none;stroke-width:1px;stroke:url(#_Linear5);"/><path d="M300.337,100.98l0,1600" style="fill:none;stroke-width:1px;stroke:url(#_Linear6);"/><path d="M900.337,100.98l0,1600" style="fill:none;stroke-width:1px;stroke:url(#_Linear7);"/><path d="M1500.34,100.98l0,1600" style="fill:none;stroke-width:1px;stroke:url(#_Linear8);"/><path d="M2100.34,100.98l0,1600" style="fill:none;stroke-width:1px;stroke:url(#_Linear9);"/><path d="M500.337,100.98l0,1600" style="fill:none;stroke-width:1px;stroke:url(#_Linear10);"/><path d="M1100.34,100.98l0,1600" style="fill:none;stroke-width:1px;stroke:url(#_Linear11);"/><path d="M1700.34,100.98l0,1600" style="fill:none;stroke-width:1px;stroke:url(#_Linear12);"/><path d="M2300.34,100.98l0,1600" style="fill:none;stroke-width:1px;stroke:url(#_Linear13);"/><path d="M200.337,100.98l0,1600" style="fill:none;stroke-width:1px;stroke:url(#_Linear14);"/><path d="M800.337,100.98l0,1600" style="fill:none;stroke-width:1px;stroke:url(#_Linear15);"/><path d="M1400.34,100.98l0,1600" style="fill:none;stroke-width:1px;stroke:url(#_Linear16);"/><path d="M2000.34,100.98l0,1600" style="fill:none;stroke-width:1px;stroke:url(#_Linear17);"/><path d="M400.337,100.98l0,1600" style="fill:none;stroke-width:1px;stroke:url(#_Linear18);"/><path d="M1000.34,100.98l0,1600" style="fill:none;stroke-width:1px;stroke:url(#_Linear19);"/><path d="M1600.34,100.98l0,1600" style="fill:none;stroke-width:1px;stroke:url(#_Linear20);"/><path d="M2200.34,100.98l0,1600" style="fill:none;stroke-width:1px;stroke:url(#_Linear21);"/><path d="M600.337,100.98l0,1600" style="fill:none;stroke-width:1px;stroke:url(#_Linear22);"/><path d="M1200.34,100.98l0,1600" style="fill:none;stroke-width:1px;stroke:url(#_Linear23);"/><path d="M1800.34,100.98l0,1600" style="fill:none;stroke-width:1px;stroke:url(#_Linear24);"/><path d="M2400.34,100.98l0,1600" style="fill:none;stroke-width:1px;stroke:url(#_Linear25);"/></g><g id="horizontal lines"><path d="M100.337,100.98l2700,0" style="fill:none;stroke-width:1px;stroke-linejoin:round;stroke-miterlimit:1.41421;stroke:url(#_Linear26);"/><path d="M100.337,500.98l2700,0" style="fill:none;stroke-width:1px;stroke-linejoin:round;stroke-miterlimit:1.41421;stroke:url(#_Linear27);"/><path d="M2800.34,200.98l-2700,0" style="fill:none;stroke-width:1px;stroke-linejoin:round;stroke-miterlimit:1.41421;stroke:url(#_Linear28);"/><path d="M2800.34,600.98l-2700,0" style="fill:none;stroke-width:1px;stroke-linejoin:round;stroke-miterlimit:1.41421;stroke:url(#_Linear29);"/><path d="M100.337,300.98l2700,0" style="fill:none;stroke-width:1px;stroke-linejoin:round;stroke-miterlimit:1.41421;stroke:url(#_Linear30);"/><path d="M100.337,400.98l2700,0" style="fill:none;stroke-width:1px;stroke-linejoin:round;stroke-miterlimit:1.41421;stroke:url(#_Linear31);"/></g><g id="top labels"><rect x="200.337" y="50.98" width="100" height="50" style="fill:#808080;stroke-width:1px;stroke-linejoin:round;stroke-miterlimit:1.41421;stroke:url(#_Linear32);"/><rect x="700.337" y="50.98" width="100" height="50" style="fill:#808080;stroke-width:1px;stroke-linejoin:round;stroke-miterlimit:1.41421;stroke:url(#_Linear33);"/><rect x="1200.34" y="50.98" width="100" height="50" style="fill:#808080;stroke-width:1px;stroke-linejoin:round;stroke-miterlimit:1.41421;stroke:url(#_Linear34);"/><rect x="1700.34" y="50.98" width="100" height="50" style="fill:#808080;stroke-width:1px;stroke-linejoin:round;stroke-miterlimit:1.41421;stroke:url(#_Linear35);"/><rect x="2200.34" y="50.98" width="100" height="50" style="fill:#808080;stroke-width:1px;stroke-linejoin:round;stroke-miterlimit:1.41421;stroke:url(#_Linear36);"/><rect x="300.337" y="50.98" width="100" height="50" style="fill:#808080;stroke-width:1px;stroke-linejoin:round;stroke-miterlimit:1.41421;stroke:url(#_Linear37);"/><rect x="800.337" y="50.98" width="100" height="50" style="fill:#808080;stroke-width:1px;stroke-linejoin:round;stroke-miterlimit:1.41421;stroke:url(#_Linear38);"/><rect x="1300.34" y="50.98" width="100" height="50" style="fill:#808080;stroke-width:1px;stroke-linejoin:round;stroke-miterlimit:1.41421;stroke:url(#_Linear39);"/><rect x="1800.34" y="50.98" width="100" height="50" style="fill:#808080;stroke-width:1px;stroke-linejoin:round;stroke-miterlimit:1.41421;stroke:url(#_Linear40);"/><rect x="2300.34" y="50.98" width="100" height="50" style="fill:#808080;stroke-width:1px;stroke-linejoin:round;stroke-miterlimit:1.41421;stroke:url(#_Linear41);"/><rect x="400.337" y="50.98" width="100" height="50" style="fill:#808080;stroke-width:1px;stroke-linejoin:round;stroke-miterlimit:1.41421;stroke:url(#_Linear42);"/><rect x="900.337" y="50.98" width="100" height="50" style="fill:#808080;stroke-width:1px;stroke-linejoin:round;stroke-miterlimit:1.41421;stroke:url(#_Linear43);"/><rect x="1400.34" y="50.98" width="100" height="50" style="fill:#808080;stroke-width:1px;stroke-linejoin:round;stroke-miterlimit:1.41421;stroke:url(#_Linear44);"/><rect x="1900.34" y="50.98" width="100" height="50" style="fill:#808080;stroke-width:1px;stroke-linejoin:round;stroke-miterlimit:1.41421;stroke:url(#_Linear45);"/><rect x="2400.34" y="50.98" width="100" height="50" style="fill:#808080;stroke-width:1px;stroke-linejoin:round;stroke-miterlimit:1.41421;stroke:url(#_Linear46);"/><rect x="500.337" y="50.98" width="100" height="50" style="fill:#808080;stroke-width:1px;stroke-linejoin:round;stroke-miterlimit:1.41421;stroke:url(#_Linear47);"/><rect x="1000.34" y="50.98" width="100" height="50" style="fill:#808080;stroke-width:1px;stroke-linejoin:round;stroke-miterlimit:1.41421;stroke:url(#_Linear48);"/><rect x="1500.34" y="50.98" width="100" height="50" style="fill:#808080;stroke-width:1px;stroke-linejoin:round;stroke-miterlimit:1.41421;stroke:url(#_Linear49);"/><rect x="2000.34" y="50.98" width="100" height="50" style="fill:#808080;stroke-width:1px;stroke-linejoin:round;stroke-miterlimit:1.41421;stroke:url(#_Linear50);"/><rect x="600.337" y="50.98" width="100" height="50" style="fill:#808080;stroke-width:1px;stroke-linejoin:round;stroke-miterlimit:1.41421;stroke:url(#_Linear51);"/><rect x="1100.34" y="50.98" width="100" height="50" style="fill:#808080;stroke-width:1px;stroke-linejoin:round;stroke-miterlimit:1.41421;stroke:url(#_Linear52);"/><rect x="1600.34" y="50.98" width="100" height="50" style="fill:#808080;stroke-width:1px;stroke-linejoin:round;stroke-miterlimit:1.41421;stroke:url(#_Linear53);"/><rect x="2100.34" y="50.98" width="100" height="50" style="fill:#808080;stroke-width:1px;stroke-linejoin:round;stroke-miterlimit:1.41421;stroke:url(#_Linear54);"/><text x="238.347px" y="90.059px" style="font-family:'ArialMT';font-size:36px;fill:#000;stroke-width:1px;stroke-linejoin:round;stroke-miterlimit:1.41421;stroke:url(#_Linear55);">A</text><text x="738.347px" y="90.059px" style="font-family:'ArialMT';font-size:36px;fill:#000;stroke-width:1px;stroke-linejoin:round;stroke-miterlimit:1.41421;stroke:url(#_Linear56);">F</text><text x="1238.35px" y="90.059px" style="font-family:'ArialMT';font-size:36px;fill:#000;stroke-width:1px;stroke-linejoin:round;stroke-miterlimit:1.41421;stroke:url(#_Linear57);">K</text><text x="1738.35px" y="90.059px" style="font-family:'ArialMT';font-size:36px;fill:#000;stroke-width:1px;stroke-linejoin:round;stroke-miterlimit:1.41421;stroke:url(#_Linear58);">P</text><text x="2238.35px" y="90.059px" style="font-family:'ArialMT';font-size:36px;fill:#000;stroke-width:1px;stroke-linejoin:round;stroke-miterlimit:1.41421;stroke:url(#_Linear59);">U</text><text x="338.347px" y="90.059px" style="font-family:'ArialMT';font-size:36px;fill:#000;stroke-width:1px;stroke-linejoin:round;stroke-miterlimit:1.41421;stroke:url(#_Linear60);">B</text><text x="838.347px" y="90.059px" style="font-family:'ArialMT';font-size:36px;fill:#000;stroke-width:1px;stroke-linejoin:round;stroke-miterlimit:1.41421;stroke:url(#_Linear61);">G</text><text x="1338.35px" y="90.059px" style="font-family:'ArialMT';font-size:36px;fill:#000;stroke-width:1px;stroke-linejoin:round;stroke-miterlimit:1.41421;stroke:url(#_Linear62);">L</text><text x="1838.35px" y="90.059px" style="font-family:'ArialMT';font-size:36px;fill:#000;stroke-width:1px;stroke-linejoin:round;stroke-miterlimit:1.41421;stroke:url(#_Linear63);">Q</text><text x="2338.35px" y="90.059px" style="font-family:'ArialMT';font-size:36px;fill:#000;stroke-width:1px;stroke-linejoin:round;stroke-miterlimit:1.41421;stroke:url(#_Linear64);">V</text><text x="438.347px" y="90.059px" style="font-family:'ArialMT';font-size:36px;fill:#000;stroke-width:1px;stroke-linejoin:round;stroke-miterlimit:1.41421;stroke:url(#_Linear65);">C</text><text x="938.347px" y="90.059px" style="font-family:'ArialMT';font-size:36px;fill:#000;stroke-width:1px;stroke-linejoin:round;stroke-miterlimit:1.41421;stroke:url(#_Linear66);">H</text><text x="1438.35px" y="90.059px" style="font-family:'ArialMT';font-size:36px;fill:#000;stroke-width:1px;stroke-linejoin:round;stroke-miterlimit:1.41421;stroke:url(#_Linear67);">M</text><text x="1938.35px" y="90.059px" style="font-family:'ArialMT';font-size:36px;fill:#000;stroke-width:1px;stroke-linejoin:round;stroke-miterlimit:1.41421;stroke:url(#_Linear68);">R</text><text x="538.347px" y="90.059px" style="font-family:'ArialMT';font-size:36px;fill:#000;stroke-width:1px;stroke-linejoin:round;stroke-miterlimit:1.41421;stroke:url(#_Linear69);">D</text><text x="1045.35px" y="90.059px" style="font-family:'ArialMT';font-size:36px;fill:#000;stroke-width:1px;stroke-linejoin:round;stroke-miterlimit:1.41421;stroke:url(#_Linear70);">I</text><text x="1538.35px" y="90.059px" style="font-family:'ArialMT';font-size:36px;fill:#000;stroke-width:1px;stroke-linejoin:round;stroke-miterlimit:1.41421;stroke:url(#_Linear71);">N</text><text x="2038.35px" y="90.059px" style="font-family:'ArialMT';font-size:36px;fill:#000;stroke-width:1px;stroke-linejoin:round;stroke-miterlimit:1.41421;stroke:url(#_Linear72);">S</text><text x="638.347px" y="90.059px" style="font-family:'ArialMT';font-size:36px;fill:#000;stroke-width:1px;stroke-linejoin:round;stroke-miterlimit:1.41421;stroke:url(#_Linear73);">E</text><text x="1138.35px" y="90.059px" style="font-family:'ArialMT';font-size:36px;fill:#000;stroke-width:1px;stroke-linejoin:round;stroke-miterlimit:1.41421;stroke:url(#_Linear74);">J</text><text x="1638.35px" y="90.059px" style="font-family:'ArialMT';font-size:36px;fill:#000;stroke-width:1px;stroke-linejoin:round;stroke-miterlimit:1.41421;stroke:url(#_Linear75);">O</text><text x="2138.35px" y="90.059px" style="font-family:'ArialMT';font-size:36px;fill:#000;stroke-width:1px;stroke-linejoin:round;stroke-miterlimit:1.41421;stroke:url(#_Linear76);">T</text></g><g id="side labels"><rect x="50.337" y="200.98" width="50" height="100" style="fill:#808080;stroke-width:1px;stroke-linejoin:round;stroke-miterlimit:1.41421;stroke:url(#_Linear77);"/><rect x="50.337" y="600.98" width="50" height="100" style="fill:#808080;stroke-width:1px;stroke-linejoin:round;stroke-miterlimit:1.41421;stroke:url(#_Linear78);"/><rect x="50.337" y="300.98" width="50" height="100" style="fill:#808080;stroke-width:1px;stroke-linejoin:round;stroke-miterlimit:1.41421;stroke:url(#_Linear79);"/><rect x="50.337" y="400.98" width="50" height="100" style="fill:#808080;stroke-width:1px;stroke-linejoin:round;stroke-miterlimit:1.41421;stroke:url(#_Linear80);"/><rect x="50.337" y="500.98" width="50" height="100" style="fill:#808080;stroke-width:1px;stroke-linejoin:round;stroke-miterlimit:1.41421;stroke:url(#_Linear81);"/><text x="65.322px" y="263.351px" style="font-family:'ArialMT';font-size:36px;fill:#000;stroke-width:1px;stroke-linejoin:round;stroke-miterlimit:1.41421;stroke:url(#_Linear82);">1</text><text x="65.322px" y="363.351px" style="font-family:'ArialMT';font-size:36px;fill:#000;stroke-width:1px;stroke-linejoin:round;stroke-miterlimit:1.41421;stroke:url(#_Linear83);">2</text><text x="65.322px" y="463.351px" style="font-family:'ArialMT';font-size:36px;fill:#000;stroke-width:1px;stroke-linejoin:round;stroke-miterlimit:1.41421;stroke:url(#_Linear84);">3</text><text x="65.322px" y="563.351px" style="font-family:'ArialMT';font-size:36px;fill:#000;stroke-width:1px;stroke-linejoin:round;stroke-miterlimit:1.41421;stroke:url(#_Linear85);">4</text></g><rect x="100.337" y="100.98" width="100" height="100" style="fill:#808080;stroke-width:1px;stroke-linejoin:round;stroke-miterlimit:1.41421;stroke:url(#_Linear86);"/><text x="105.884px" y="176.824px" style="font-family:'ArialMT';font-size:64px;fill:#000;stroke-width:1px;stroke-linejoin:round;stroke-miterlimit:1.41421;stroke:url(#_Linear87);">1m</text></g><path d="M200.337,350.98l1990,0" style="fill:none;stroke-width:36px;stroke-linejoin:round;stroke-miterlimit:1.41421;stroke:#14a90c;stroke-opacity:0.698039;"/><path d="M240.337,351.555l-95,29.425l0,-58.849l95,29.424Z" style="fill:#000;"/><g id="Layer5"><g><path d="M320.337,300.98c0,-11.038 -8.962,-20 -20,-20c-11.038,0 -20,8.962 -20,20c0,11.039 8.962,20 20,20c11.038,0 20,-8.961 20,-20Z" style="fill:#fcd1d1;stroke-width:1px;stroke-linejoin:round;stroke-miterlimit:1.41421;stroke:#000;"/><path d="M310.337,300.98c0,-5.519 -4.481,-10 -10,-10c-5.519,0 -10,4.481 -10,10c0,5.519 4.481,10 10,10c5.519,0 10,-4.481 10,-10Z" style="fill:#fc2e30;stroke-width:1px;stroke-linejoin:round;stroke-miterlimit:1.41421;stroke:#000;"/></g><g><path d="M920.337,300.98c0,-11.038 -8.962,-20 -20,-20c-11.038,0 -20,8.962 -20,20c0,11.039 8.962,20 20,20c11.038,0 20,-8.961 20,-20Z" style="fill:#fcd1d1;stroke-width:1px;stroke-linejoin:round;stroke-miterlimit:1.41421;stroke:#000;"/><path d="M910.337,300.98c0,-5.519 -4.481,-10 -10,-10c-5.519,0 -10,4.481 -10,10c0,5.519 4.481,10 10,10c5.519,0 10,-4.481 10,-10Z" style="fill:#fc2e30;stroke-width:1px;stroke-linejoin:round;stroke-miterlimit:1.41421;stroke:#000;"/></g><g><path d="M1120.34,300.98c0,-11.038 -8.962,-20 -20,-20c-11.038,0 -20,8.962 -20,20c0,11.039 8.962,20 20,20c11.038,0 20,-8.961 20,-20Z" style="fill:#fcd1d1;stroke-width:1px;stroke-linejoin:round;stroke-miterlimit:1.41421;stroke:#000;"/><path d="M1110.34,300.98c0,-5.519 -4.481,-10 -10,-10c-5.519,0 -10,4.481 -10,10c0,5.519 4.481,10 10,10c5.519,0 10,-4.481 10,-10Z" style="fill:#fc2e30;stroke-width:1px;stroke-linejoin:round;stroke-miterlimit:1.41421;stroke:#000;"/></g><g><path d="M1320.34,300.98c0,-11.038 -8.962,-20 -20,-20c-11.038,0 -20,8.962 -20,20c0,11.039 8.962,20 20,20c11.038,0 20,-8.961 20,-20Z" style="fill:#fcd1d1;stroke-width:1px;stroke-linejoin:round;stroke-miterlimit:1.41421;stroke:#000;"/><path d="M1310.34,300.98c0,-5.519 -4.481,-10 -10,-10c-5.519,0 -10,4.481 -10,10c0,5.519 4.481,10 10,10c5.519,0 10,-4.481 10,-10Z" style="fill:#fc2e30;stroke-width:1px;stroke-linejoin:round;stroke-miterlimit:1.41421;stroke:#000;"/></g><g><path d="M1520.34,300.98c0,-11.038 -8.962,-20 -20,-20c-11.038,0 -20,8.962 -20,20c0,11.039 8.962,20 20,20c11.038,0 20,-8.961 20,-20Z" style="fill:#fcd1d1;stroke-width:1px;stroke-linejoin:round;stroke-miterlimit:1.41421;stroke:#000;"/><path d="M1510.34,300.98c0,-5.519 -4.481,-10 -10,-10c-5.519,0 -10,4.481 -10,10c0,5.519 4.481,10 10,10c5.519,0 10,-4.481 10,-10Z" style="fill:#fc2e30;stroke-width:1px;stroke-linejoin:round;stroke-miterlimit:1.41421;stroke:#000;"/></g><g><path d="M1720.34,300.98c0,-11.038 -8.962,-20 -20,-20c-11.038,0 -20,8.962 -20,20c0,11.039 8.962,20 20,20c11.038,0 20,-8.961 20,-20Z" style="fill:#fcd1d1;stroke-width:1px;stroke-linejoin:round;stroke-miterlimit:1.41421;stroke:#000;"/><path d="M1710.34,300.98c0,-5.519 -4.481,-10 -10,-10c-5.519,0 -10,4.481 -10,10c0,5.519 4.481,10 10,10c5.519,0 10,-4.481 10,-10Z" style="fill:#fc2e30;stroke-width:1px;stroke-linejoin:round;stroke-miterlimit:1.41421;stroke:#000;"/></g><g><path d="M1920.34,300.98c0,-11.038 -8.962,-20 -20,-20c-11.038,0 -20,8.962 -20,20c0,11.039 8.962,20 20,20c11.038,0 20,-8.961 20,-20Z" style="fill:#fcd1d1;stroke-width:1px;stroke-linejoin:round;stroke-miterlimit:1.41421;stroke:#000;"/><path d="M1910.34,300.98c0,-5.519 -4.481,-10 -10,-10c-5.519,0 -10,4.481 -10,10c0,5.519 4.481,10 10,10c5.519,0 10,-4.481 10,-10Z" style="fill:#fc2e30;stroke-width:1px;stroke-linejoin:round;stroke-miterlimit:1.41421;stroke:#000;"/></g><g><path d="M2120.34,300.98c0,-11.038 -8.962,-20 -20,-20c-11.038,0 -20,8.962 -20,20c0,11.039 8.962,20 20,20c11.038,0 20,-8.961 20,-20Z" style="fill:#fcd1d1;stroke-width:1px;stroke-linejoin:round;stroke-miterlimit:1.41421;stroke:#000;"/><path d="M2110.34,300.98c0,-5.519 -4.481,-10 -10,-10c-5.519,0 -10,4.481 -10,10c0,5.519 4.481,10 10,10c5.519,0 10,-4.481 10,-10Z" style="fill:#fc2e30;stroke-width:1px;stroke-linejoin:round;stroke-miterlimit:1.41421;stroke:#000;"/></g><g><path d="M920.337,400.98c0,-11.038 -8.962,-20 -20,-20c-11.038,0 -20,8.962 -20,20c0,11.039 8.962,20 20,20c11.038,0 20,-8.961 20,-20Z" style="fill:#fcd1d1;stroke-width:1px;stroke-linejoin:round;stroke-miterlimit:1.41421;stroke:#000;"/><path d="M910.337,400.98c0,-5.519 -4.481,-10 -10,-10c-5.519,0 -10,4.481 -10,10c0,5.519 4.481,10 10,10c5.519,0 10,-4.481 10,-10Z" style="fill:#fc2e30;stroke-width:1px;stroke-linejoin:round;stroke-miterlimit:1.41421;stroke:#000;"/></g><g><path d="M1120.34,400.98c0,-11.038 -8.962,-20 -20,-20c-11.038,0 -20,8.962 -20,20c0,11.039 8.962,20 20,20c11.038,0 20,-8.961 20,-20Z" style="fill:#fcd1d1;stroke-width:1px;stroke-linejoin:round;stroke-miterlimit:1.41421;stroke:#000;"/><path d="M1110.34,400.98c0,-5.519 -4.481,-10 -10,-10c-5.519,0 -10,4.481 -10,10c0,5.519 4.481,10 10,10c5.519,0 10,-4.481 10,-10Z" style="fill:#fc2e30;stroke-width:1px;stroke-linejoin:round;stroke-miterlimit:1.41421;stroke:#000;"/></g><g><path d="M1320.34,400.98c0,-11.038 -8.962,-20 -20,-20c-11.038,0 -20,8.962 -20,20c0,11.039 8.962,20 20,20c11.038,0 20,-8.961 20,-20Z" style="fill:#fcd1d1;stroke-width:1px;stroke-linejoin:round;stroke-miterlimit:1.41421;stroke:#000;"/><path d="M1310.34,400.98c0,-5.519 -4.481,-10 -10,-10c-5.519,0 -10,4.481 -10,10c0,5.519 4.481,10 10,10c5.519,0 10,-4.481 10,-10Z" style="fill:#fc2e30;stroke-width:1px;stroke-linejoin:round;stroke-miterlimit:1.41421;stroke:#000;"/></g><g><path d="M1520.34,400.98c0,-11.038 -8.962,-20 -20,-20c-11.038,0 -20,8.962 -20,20c0,11.039 8.962,20 20,20c11.038,0 20,-8.961 20,-20Z" style="fill:#fcd1d1;stroke-width:1px;stroke-linejoin:round;stroke-miterlimit:1.41421;stroke:#000;"/><path d="M1510.34,400.98c0,-5.519 -4.481,-10 -10,-10c-5.519,0 -10,4.481 -10,10c0,5.519 4.481,10 10,10c5.519,0 10,-4.481 10,-10Z" style="fill:#fc2e30;stroke-width:1px;stroke-linejoin:round;stroke-miterlimit:1.41421;stroke:#000;"/></g><g><path d="M1720.34,400.98c0,-11.038 -8.962,-20 -20,-20c-11.038,0 -20,8.962 -20,20c0,11.039 8.962,20 20,20c11.038,0 20,-8.961 20,-20Z" style="fill:#fcd1d1;stroke-width:1px;stroke-linejoin:round;stroke-miterlimit:1.41421;stroke:#000;"/><path d="M1710.34,400.98c0,-5.519 -4.481,-10 -10,-10c-5.519,0 -10,4.481 -10,10c0,5.519 4.481,10 10,10c5.519,0 10,-4.481 10,-10Z" style="fill:#fc2e30;stroke-width:1px;stroke-linejoin:round;stroke-miterlimit:1.41421;stroke:#000;"/></g><g><path d="M1920.34,400.98c0,-11.038 -8.962,-20 -20,-20c-11.038,0 -20,8.962 -20,20c0,11.039 8.962,20 20,20c11.038,0 20,-8.961 20,-20Z" style="fill:#fcd1d1;stroke-width:1px;stroke-linejoin:round;stroke-miterlimit:1.41421;stroke:#000;"/><path d="M1910.34,400.98c0,-5.519 -4.481,-10 -10,-10c-5.519,0 -10,4.481 -10,10c0,5.519 4.481,10 10,10c5.519,0 10,-4.481 10,-10Z" style="fill:#fc2e30;stroke-width:1px;stroke-linejoin:round;stroke-miterlimit:1.41421;stroke:#000;"/></g><g><path d="M2120.34,400.98c0,-11.038 -8.962,-20 -20,-20c-11.038,0 -20,8.962 -20,20c0,11.039 8.962,20 20,20c11.038,0 20,-8.961 20,-20Z" style="fill:#fcd1d1;stroke-width:1px;stroke-linejoin:round;stroke-miterlimit:1.41421;stroke:#000;"/><path d="M2110.34,400.98c0,-5.519 -4.481,-10 -10,-10c-5.519,0 -10,4.481 -10,10c0,5.519 4.481,10 10,10c5.519,0 10,-4.481 10,-10Z" style="fill:#fc2e30;stroke-width:1px;stroke-linejoin:round;stroke-miterlimit:1.41421;stroke:#000;"/></g><g><path d="M320.337,400.98c0,-11.038 -8.962,-20 -20,-20c-11.038,0 -20,8.962 -20,20c0,11.039 8.962,20 20,20c11.038,0 20,-8.961 20,-20Z" style="fill:#fcd1d1;stroke-width:1px;stroke-linejoin:round;stroke-miterlimit:1.41421;stroke:#000;"/><path d="M310.337,400.98c0,-5.519 -4.481,-10 -10,-10c-5.519,0 -10,4.481 -10,10c0,5.519 4.481,10 10,10c5.519,0 10,-4.481 10,-10Z" style="fill:#fc2e30;stroke-width:1px;stroke-linejoin:round;stroke-miterlimit:1.41421;stroke:#000;"/></g><g><path d="M520.337,300.98c0,-11.038 -8.962,-20 -20,-20c-11.038,0 -20,8.962 -20,20c0,11.039 8.962,20 20,20c11.038,0 20,-8.961 20,-20Z" style="fill:#fcd1d1;stroke-width:1px;stroke-linejoin:round;stroke-miterlimit:1.41421;stroke:#000;"/><path d="M510.337,300.98c0,-5.519 -4.481,-10 -10,-10c-5.519,0 -10,4.481 -10,10c0,5.519 4.481,10 10,10c5.519,0 10,-4.481 10,-10Z" style="fill:#fc2e30;stroke-width:1px;stroke-linejoin:round;stroke-miterlimit:1.41421;stroke:#000;"/></g><g><path d="M520.337,400.98c0,-11.038 -8.962,-20 -20,-20c-11.038,0 -20,8.962 -20,20c0,11.039 8.962,20 20,20c11.038,0 20,-8.961 20,-20Z" style="fill:#fcd1d1;stroke-width:1px;stroke-linejoin:round;stroke-miterlimit:1.41421;stroke:#000;"/><path d="M510.337,400.98c0,-5.519 -4.481,-10 -10,-10c-5.519,0 -10,4.481 -10,10c0,5.519 4.481,10 10,10c5.519,0 10,-4.481 10,-10Z" style="fill:#fc2e30;stroke-width:1px;stroke-linejoin:round;stroke-miterlimit:1.41421;stroke:#000;"/></g><g><path d="M720.337,400.98c0,-11.038 -8.962,-20 -20,-20c-11.038,0 -20,8.962 -20,20c0,11.039 8.962,20 20,20c11.038,0 20,-8.961 20,-20Z" style="fill:#fcd1d1;stroke-width:1px;stroke-linejoin:round;stroke-miterlimit:1.41421;stroke:#000;"/><path d="M710.337,400.98c0,-5.519 -4.481,-10 -10,-10c-5.519,0 -10,4.481 -10,10c0,5.519 4.481,10 10,10c5.519,0 10,-4.481 10,-10Z" style="fill:#fc2e30;stroke-width:1px;stroke-linejoin:round;stroke-miterlimit:1.41421;stroke:#000;"/></g><g><path d="M720.337,300.98c0,-11.038 -8.962,-20 -20,-20c-11.038,0 -20,8.962 -20,20c0,11.039 8.962,20 20,20c11.038,0 20,-8.961 20,-20Z" style="fill:#fcd1d1;stroke-width:1px;stroke-linejoin:round;stroke-miterlimit:1.41421;stroke:#000;"/><path d="M710.337,300.98c0,-5.519 -4.481,-10 -10,-10c-5.519,0 -10,4.481 -10,10c0,5.519 4.481,10 10,10c5.519,0 10,-4.481 10,-10Z" style="fill:#fc2e30;stroke-width:1px;stroke-linejoin:round;stroke-miterlimit:1.41421;stroke:#000;"/></g></g></g><defs><linearGradient id="_Linear2" x1="0" y1="0" x2="1" y2="0" gradientUnits="userSpaceOnUse" gradientTransform="matrix(-50,590,-590,-50,1040.34,520.98)"><stop offset="0%" style="stop-color:#000;stop-opacity:1"/><stop offset="100%" style="stop-color:#4d4d4d;stop-opacity:1"/></linearGradient><linearGradient id="_Linear3" x1="0" y1="0" x2="1" y2="0" gradientUnits="userSpaceOnUse" gradientTransform="matrix(-50,590,-590,-50,1040.34,520.98)"><stop offset="0%" style="stop-color:#000;stop-opacity:1"/><stop offset="100%" style="stop-color:#4d4d4d;stop-opacity:1"/></linearGradient><linearGradient id="_Linear4" x1="0" y1="0" x2="1" y2="0" gradientUnits="userSpaceOnUse" gradientTransform="matrix(-50,590,-590,-50,1040.34,520.98)"><stop offset="0%" style="stop-color:#000;stop-opacity:1"/><stop offset="100%" style="stop-color:#4d4d4d;stop-opacity:1"/></linearGradient><linearGradient id="_Linear5" x1="0" y1="0" x2="1" y2="0" gradientUnits="userSpaceOnUse" gradientTransform="matrix(-50,590,-590,-50,1040.34,520.98)"><stop offset="0%" style="stop-color:#000;stop-opacity:1"/><stop offset="100%" style="stop-color:#4d4d4d;stop-opacity:1"/></linearGradient><linearGradient id="_Linear6" x1="0" y1="0" x2="1" y2="0" gradientUnits="userSpaceOnUse" gradientTransform="matrix(-50,590,-590,-50,1040.34,520.98)"><stop offset="0%" style="stop-color:#000;stop-opacity:1"/><stop offset="100%" style="stop-color:#4d4d4d;stop-opacity:1"/></linearGradient><linearGradient id="_Linear7" x1="0" y1="0" x2="1" y2="0" gradientUnits="userSpaceOnUse" gradientTransform="matrix(-50,590,-590,-50,1040.34,520.98)"><stop offset="0%" style="stop-color:#000;stop-opacity:1"/><stop offset="100%" style="stop-color:#4d4d4d;stop-opacity:1"/></linearGradient><linearGradient id="_Linear8" x1="0" y1="0" x2="1" y2="0" gradientUnits="userSpaceOnUse" gradientTransform="matrix(-50,590,-590,-50,1040.34,520.98)"><stop offset="0%" style="stop-color:#000;stop-opacity:1"/><stop offset="100%" style="stop-color:#4d4d4d;stop-opacity:1"/></linearGradient><linearGradient id="_Linear9" x1="0" y1="0" x2="1" y2="0" gradientUnits="userSpaceOnUse" gradientTransform="matrix(-50,590,-590,-50,1040.34,520.98)"><stop offset="0%" style="stop-color:#000;stop-opacity:1"/><stop offset="100%" style="stop-color:#4d4d4d;stop-opacity:1"/></linearGradient><linearGradient id="_Linear10" x1="0" y1="0" x2="1" y2="0" gradientUnits="userSpaceOnUse" gradientTransform="matrix(-50,590,-590,-50,1040.34,520.98)"><stop offset="0%" style="stop-color:#000;stop-opacity:1"/><stop offset="100%" style="stop-color:#4d4d4d;stop-opacity:1"/></linearGradient><linearGradient id="_Linear11" x1="0" y1="0" x2="1" y2="0" gradientUnits="userSpaceOnUse" gradientTransform="matrix(-50,590,-590,-50,1040.34,520.98)"><stop offset="0%" style="stop-color:#000;stop-opacity:1"/><stop offset="100%" style="stop-color:#4d4d4d;stop-opacity:1"/></linearGradient><linearGradient id="_Linear12" x1="0" y1="0" x2="1" y2="0" gradientUnits="userSpaceOnUse" gradientTransform="matrix(-50,590,-590,-50,1040.34,520.98)"><stop offset="0%" style="stop-color:#000;stop-opacity:1"/><stop offset="100%" style="stop-color:#4d4d4d;stop-opacity:1"/></linearGradient><linearGradient id="_Linear13" x1="0" y1="0" x2="1" y2="0" gradientUnits="userSpaceOnUse" gradientTransform="matrix(-50,590,-590,-50,1040.34,520.98)"><stop offset="0%" style="stop-color:#000;stop-opacity:1"/><stop offset="100%" style="stop-color:#4d4d4d;stop-opacity:1"/></linearGradient><linearGradient id="_Linear14" x1="0" y1="0" x2="1" y2="0" gradientUnits="userSpaceOnUse" gradientTransform="matrix(-50,590,-590,-50,1040.34,520.98)"><stop offset="0%" style="stop-color:#000;stop-opacity:1"/><stop offset="100%" style="stop-color:#4d4d4d;stop-opacity:1"/></linearGradient><linearGradient id="_Linear15" x1="0" y1="0" x2="1" y2="0" gradientUnits="userSpaceOnUse" gradientTransform="matrix(-50,590,-590,-50,1040.34,520.98)"><stop offset="0%" style="stop-color:#000;stop-opacity:1"/><stop offset="100%" style="stop-color:#4d4d4d;stop-opacity:1"/></linearGradient><linearGradient id="_Linear16" x1="0" y1="0" x2="1" y2="0" gradientUnits="userSpaceOnUse" gradientTransform="matrix(-50,590,-590,-50,1040.34,520.98)"><stop offset="0%" style="stop-color:#000;stop-opacity:1"/><stop offset="100%" style="stop-color:#4d4d4d;stop-opacity:1"/></linearGradient><linearGradient id="_Linear17" x1="0" y1="0" x2="1" y2="0" gradientUnits="userSpaceOnUse" gradientTransform="matrix(-50,590,-590,-50,1040.34,520.98)"><stop offset="0%" style="stop-color:#000;stop-opacity:1"/><stop offset="100%" style="stop-color:#4d4d4d;stop-opacity:1"/></linearGradient><linearGradient id="_Linear18" x1="0" y1="0" x2="1" y2="0" gradientUnits="userSpaceOnUse" gradientTransform="matrix(-50,590,-590,-50,1040.34,520.98)"><stop offset="0%" style="stop-color:#000;stop-opacity:1"/><stop offset="100%" style="stop-color:#4d4d4d;stop-opacity:1"/></linearGradient><linearGradient id="_Linear19" x1="0" y1="0" x2="1" y2="0" gradientUnits="userSpaceOnUse" gradientTransform="matrix(-50,590,-590,-50,1040.34,520.98)"><stop offset="0%" style="stop-color:#000;stop-opacity:1"/><stop offset="100%" style="stop-color:#4d4d4d;stop-opacity:1"/></linearGradient><linearGradient id="_Linear20" x1="0" y1="0" x2="1" y2="0" gradientUnits="userSpaceOnUse" gradientTransform="matrix(-50,590,-590,-50,1040.34,520.98)"><stop offset="0%" style="stop-color:#000;stop-opacity:1"/><stop offset="100%" style="stop-color:#4d4d4d;stop-opacity:1"/></linearGradient><linearGradient id="_Linear21" x1="0" y1="0" x2="1" y2="0" gradientUnits="userSpaceOnUse" gradientTransform="matrix(-50,590,-590,-50,1040.34,520.98)"><stop offset="0%" style="stop-color:#000;stop-opacity:1"/><stop offset="100%" style="stop-color:#4d4d4d;stop-opacity:1"/></linearGradient><linearGradient id="_Linear22" x1="0" y1="0" x2="1" y2="0" gradientUnits="userSpaceOnUse" gradientTransform="matrix(-50,590,-590,-50,1040.34,520.98)"><stop offset="0%" style="stop-color:#000;stop-opacity:1"/><stop offset="100%" style="stop-color:#4d4d4d;stop-opacity:1"/></linearGradient><linearGradient id="_Linear23" x1="0" y1="0" x2="1" y2="0" gradientUnits="userSpaceOnUse" gradientTransform="matrix(-50,590,-590,-50,1040.34,520.98)"><stop offset="0%" style="stop-color:#000;stop-opacity:1"/><stop offset="100%" style="stop-color:#4d4d4d;stop-opacity:1"/></linearGradient><linearGradient id="_Linear24" x1="0" y1="0" x2="1" y2="0" gradientUnits="userSpaceOnUse" gradientTransform="matrix(-50,590,-590,-50,1040.34,520.98)"><stop offset="0%" style="stop-color:#000;stop-opacity:1"/><stop offset="100%" style="stop-color:#4d4d4d;stop-opacity:1"/></linearGradient><linearGradient id="_Linear25" x1="0" y1="0" x2="1" y2="0" gradientUnits="userSpaceOnUse" gradientTransform="matrix(-50,590,-590,-50,1040.34,520.98)"><stop offset="0%" style="stop-color:#000;stop-opacity:1"/><stop offset="100%" style="stop-color:#4d4d4d;stop-opacity:1"/></linearGradient><linearGradient id="_Linear26" x1="0" y1="0" x2="1" y2="0" gradientUnits="userSpaceOnUse" gradientTransform="matrix(-50,590,-590,-50,1040.34,520.98)"><stop offset="0%" style="stop-color:#000;stop-opacity:1"/><stop offset="100%" style="stop-color:#4d4d4d;stop-opacity:1"/></linearGradient><linearGradient id="_Linear27" x1="0" y1="0" x2="1" y2="0" gradientUnits="userSpaceOnUse" gradientTransform="matrix(-50,590,-590,-50,1040.34,520.98)"><stop offset="0%" style="stop-color:#000;stop-opacity:1"/><stop offset="100%" style="stop-color:#4d4d4d;stop-opacity:1"/></linearGradient><linearGradient id="_Linear28" x1="0" y1="0" x2="1" y2="0" gradientUnits="userSpaceOnUse" gradientTransform="matrix(-50,590,-590,-50,1040.34,520.98)"><stop offset="0%" style="stop-color:#000;stop-opacity:1"/><stop offset="100%" style="stop-color:#4d4d4d;stop-opacity:1"/></linearGradient><linearGradient id="_Linear29" x1="0" y1="0" x2="1" y2="0" gradientUnits="userSpaceOnUse" gradientTransform="matrix(-50,590,-590,-50,1040.34,520.98)"><stop offset="0%" style="stop-color:#000;stop-opacity:1"/><stop offset="100%" style="stop-color:#4d4d4d;stop-opacity:1"/></linearGradient><linearGradient id="_Linear30" x1="0" y1="0" x2="1" y2="0" gradientUnits="userSpaceOnUse" gradientTransform="matrix(-50,590,-590,-50,1040.34,520.98)"><stop offset="0%" style="stop-color:#000;stop-opacity:1"/><stop offset="100%" style="stop-color:#4d4d4d;stop-opacity:1"/></linearGradient><linearGradient id="_Linear31" x1="0" y1="0" x2="1" y2="0" gradientUnits="userSpaceOnUse" gradientTransform="matrix(-50,590,-590,-50,1040.34,520.98)"><stop offset="0%" style="stop-color:#000;stop-opacity:1"/><stop offset="100%" style="stop-color:#4d4d4d;stop-opacity:1"/></linearGradient><linearGradient id="_Linear32" x1="0" y1="0" x2="1" y2="0" gradientUnits="userSpaceOnUse" gradientTransform="matrix(-50,590,-590,-50,1040.34,520.98)"><stop offset="0%" style="stop-color:#000;stop-opacity:1"/><stop offset="100%" style="stop-color:#4d4d4d;stop-opacity:1"/></linearGradient><linearGradient id="_Linear33" x1="0" y1="0" x2="1" y2="0" gradientUnits="userSpaceOnUse" gradientTransform="matrix(-50,590,-590,-50,1040.34,520.98)"><stop offset="0%" style="stop-color:#000;stop-opacity:1"/><stop offset="100%" style="stop-color:#4d4d4d;stop-opacity:1"/></linearGradient><linearGradient id="_Linear34" x1="0" y1="0" x2="1" y2="0" gradientUnits="userSpaceOnUse" gradientTransform="matrix(-50,590,-590,-50,1040.34,520.98)"><stop offset="0%" style="stop-color:#000;stop-opacity:1"/><stop offset="100%" style="stop-color:#4d4d4d;stop-opacity:1"/></linearGradient><linearGradient id="_Linear35" x1="0" y1="0" x2="1" y2="0" gradientUnits="userSpaceOnUse" gradientTransform="matrix(-50,590,-590,-50,1040.34,520.98)"><stop offset="0%" style="stop-color:#000;stop-opacity:1"/><stop offset="100%" style="stop-color:#4d4d4d;stop-opacity:1"/></linearGradient><linearGradient id="_Linear36" x1="0" y1="0" x2="1" y2="0" gradientUnits="userSpaceOnUse" gradientTransform="matrix(-50,590,-590,-50,1040.34,520.98)"><stop offset="0%" style="stop-color:#000;stop-opacity:1"/><stop offset="100%" style="stop-color:#4d4d4d;stop-opacity:1"/></linearGradient><linearGradient id="_Linear37" x1="0" y1="0" x2="1" y2="0" gradientUnits="userSpaceOnUse" gradientTransform="matrix(-50,590,-590,-50,1040.34,520.98)"><stop offset="0%" style="stop-color:#000;stop-opacity:1"/><stop offset="100%" style="stop-color:#4d4d4d;stop-opacity:1"/></linearGradient><linearGradient id="_Linear38" x1="0" y1="0" x2="1" y2="0" gradientUnits="userSpaceOnUse" gradientTransform="matrix(-50,590,-590,-50,1040.34,520.98)"><stop offset="0%" style="stop-color:#000;stop-opacity:1"/><stop offset="100%" style="stop-color:#4d4d4d;stop-opacity:1"/></linearGradient><linearGradient id="_Linear39" x1="0" y1="0" x2="1" y2="0" gradientUnits="userSpaceOnUse" gradientTransform="matrix(-50,590,-590,-50,1040.34,520.98)"><stop offset="0%" style="stop-color:#000;stop-opacity:1"/><stop offset="100%" style="stop-color:#4d4d4d;stop-opacity:1"/></linearGradient><linearGradient id="_Linear40" x1="0" y1="0" x2="1" y2="0" gradientUnits="userSpaceOnUse" gradientTransform="matrix(-50,590,-590,-50,1040.34,520.98)"><stop offset="0%" style="stop-color:#000;stop-opacity:1"/><stop offset="100%" style="stop-color:#4d4d4d;stop-opacity:1"/></linearGradient><linearGradient id="_Linear41" x1="0" y1="0" x2="1" y2="0" gradientUnits="userSpaceOnUse" gradientTransform="matrix(-50,590,-590,-50,1040.34,520.98)"><stop offset="0%" style="stop-color:#000;stop-opacity:1"/><stop offset="100%" style="stop-color:#4d4d4d;stop-opacity:1"/></linearGradient><linearGradient id="_Linear42" x1="0" y1="0" x2="1" y2="0" gradientUnits="userSpaceOnUse" gradientTransform="matrix(-50,590,-590,-50,1040.34,520.98)"><stop offset="0%" style="stop-color:#000;stop-opacity:1"/><stop offset="100%" style="stop-color:#4d4d4d;stop-opacity:1"/></linearGradient><linearGradient id="_Linear43" x1="0" y1="0" x2="1" y2="0" gradientUnits="userSpaceOnUse" gradientTransform="matrix(-50,590,-590,-50,1040.34,520.98)"><stop offset="0%" style="stop-color:#000;stop-opacity:1"/><stop offset="100%" style="stop-color:#4d4d4d;stop-opacity:1"/></linearGradient><linearGradient id="_Linear44" x1="0" y1="0" x2="1" y2="0" gradientUnits="userSpaceOnUse" gradientTransform="matrix(-50,590,-590,-50,1040.34,520.98)"><stop offset="0%" style="stop-color:#000;stop-opacity:1"/><stop offset="100%" style="stop-color:#4d4d4d;stop-opacity:1"/></linearGradient><linearGradient id="_Linear45" x1="0" y1="0" x2="1" y2="0" gradientUnits="userSpaceOnUse" gradientTransform="matrix(-50,590,-590,-50,1040.34,520.98)"><stop offset="0%" style="stop-color:#000;stop-opacity:1"/><stop offset="100%" style="stop-color:#4d4d4d;stop-opacity:1"/></linearGradient><linearGradient id="_Linear46" x1="0" y1="0" x2="1" y2="0" gradientUnits="userSpaceOnUse" gradientTransform="matrix(-50,590,-590,-50,1040.34,520.98)"><stop offset="0%" style="stop-color:#000;stop-opacity:1"/><stop offset="100%" style="stop-color:#4d4d4d;stop-opacity:1"/></linearGradient><linearGradient id="_Linear47" x1="0" y1="0" x2="1" y2="0" gradientUnits="userSpaceOnUse" gradientTransform="matrix(-50,590,-590,-50,1040.34,520.98)"><stop offset="0%" style="stop-color:#000;stop-opacity:1"/><stop offset="100%" style="stop-color:#4d4d4d;stop-opacity:1"/></linearGradient><linearGradient id="_Linear48" x1="0" y1="0" x2="1" y2="0" gradientUnits="userSpaceOnUse" gradientTransform="matrix(-50,590,-590,-50,1040.34,520.98)"><stop offset="0%" style="stop-color:#000;stop-opacity:1"/><stop offset="100%" style="stop-color:#4d4d4d;stop-opacity:1"/></linearGradient><linearGradient id="_Linear49" x1="0" y1="0" x2="1" y2="0" gradientUnits="userSpaceOnUse" gradientTransform="matrix(-50,590,-590,-50,1040.34,520.98)"><stop offset="0%" style="stop-color:#000;stop-opacity:1"/><stop offset="100%" style="stop-color:#4d4d4d;stop-opacity:1"/></linearGradient><linearGradient id="_Linear50" x1="0" y1="0" x2="1" y2="0" gradientUnits="userSpaceOnUse" gradientTransform="matrix(-50,590,-590,-50,1040.34,520.98)"><stop offset="0%" style="stop-color:#000;stop-opacity:1"/><stop offset="100%" style="stop-color:#4d4d4d;stop-opacity:1"/></linearGradient><linearGradient id="_Linear51" x1="0" y1="0" x2="1" y2="0" gradientUnits="userSpaceOnUse" gradientTransform="matrix(-50,590,-590,-50,1040.34,520.98)"><stop offset="0%" style="stop-color:#000;stop-opacity:1"/><stop offset="100%" style="stop-color:#4d4d4d;stop-opacity:1"/></linearGradient><linearGradient id="_Linear52" x1="0" y1="0" x2="1" y2="0" gradientUnits="userSpaceOnUse" gradientTransform="matrix(-50,590,-590,-50,1040.34,520.98)"><stop offset="0%" style="stop-color:#000;stop-opacity:1"/><stop offset="100%" style="stop-color:#4d4d4d;stop-opacity:1"/></linearGradient><linearGradient id="_Linear53" x1="0" y1="0" x2="1" y2="0" gradientUnits="userSpaceOnUse" gradientTransform="matrix(-50,590,-590,-50,1040.34,520.98)"><stop offset="0%" style="stop-color:#000;stop-opacity:1"/><stop offset="100%" style="stop-color:#4d4d4d;stop-opacity:1"/></linearGradient><linearGradient id="_Linear54" x1="0" y1="0" x2="1" y2="0" gradientUnits="userSpaceOnUse" gradientTransform="matrix(-50,590,-590,-50,1040.34,520.98)"><stop offset="0%" style="stop-color:#000;stop-opacity:1"/><stop offset="100%" style="stop-color:#4d4d4d;stop-opacity:1"/></linearGradient><linearGradient id="_Linear55" x1="0" y1="0" x2="1" y2="0" gradientUnits="userSpaceOnUse" gradientTransform="matrix(-50,590,-590,-50,1040.34,520.98)"><stop offset="0%" style="stop-color:#000;stop-opacity:1"/><stop offset="100%" style="stop-color:#4d4d4d;stop-opacity:1"/></linearGradient><linearGradient id="_Linear56" x1="0" y1="0" x2="1" y2="0" gradientUnits="userSpaceOnUse" gradientTransform="matrix(-50,590,-590,-50,1040.34,520.98)"><stop offset="0%" style="stop-color:#000;stop-opacity:1"/><stop offset="100%" style="stop-color:#4d4d4d;stop-opacity:1"/></linearGradient><linearGradient id="_Linear57" x1="0" y1="0" x2="1" y2="0" gradientUnits="userSpaceOnUse" gradientTransform="matrix(-50,590,-590,-50,1040.34,520.98)"><stop offset="0%" style="stop-color:#000;stop-opacity:1"/><stop offset="100%" style="stop-color:#4d4d4d;stop-opacity:1"/></linearGradient><linearGradient id="_Linear58" x1="0" y1="0" x2="1" y2="0" gradientUnits="userSpaceOnUse" gradientTransform="matrix(-50,590,-590,-50,1040.34,520.98)"><stop offset="0%" style="stop-color:#000;stop-opacity:1"/><stop offset="100%" style="stop-color:#4d4d4d;stop-opacity:1"/></linearGradient><linearGradient id="_Linear59" x1="0" y1="0" x2="1" y2="0" gradientUnits="userSpaceOnUse" gradientTransform="matrix(-50,590,-590,-50,1040.34,520.98)"><stop offset="0%" style="stop-color:#000;stop-opacity:1"/><stop offset="100%" style="stop-color:#4d4d4d;stop-opacity:1"/></linearGradient><linearGradient id="_Linear60" x1="0" y1="0" x2="1" y2="0" gradientUnits="userSpaceOnUse" gradientTransform="matrix(-50,590,-590,-50,1040.34,520.98)"><stop offset="0%" style="stop-color:#000;stop-opacity:1"/><stop offset="100%" style="stop-color:#4d4d4d;stop-opacity:1"/></linearGradient><linearGradient id="_Linear61" x1="0" y1="0" x2="1" y2="0" gradientUnits="userSpaceOnUse" gradientTransform="matrix(-50,590,-590,-50,1040.34,520.98)"><stop offset="0%" style="stop-color:#000;stop-opacity:1"/><stop offset="100%" style="stop-color:#4d4d4d;stop-opacity:1"/></linearGradient><linearGradient id="_Linear62" x1="0" y1="0" x2="1" y2="0" gradientUnits="userSpaceOnUse" gradientTransform="matrix(-50,590,-590,-50,1040.34,520.98)"><stop offset="0%" style="stop-color:#000;stop-opacity:1"/><stop offset="100%" style="stop-color:#4d4d4d;stop-opacity:1"/></linearGradient><linearGradient id="_Linear63" x1="0" y1="0" x2="1" y2="0" gradientUnits="userSpaceOnUse" gradientTransform="matrix(-50,590,-590,-50,1040.34,520.98)"><stop offset="0%" style="stop-color:#000;stop-opacity:1"/><stop offset="100%" style="stop-color:#4d4d4d;stop-opacity:1"/></linearGradient><linearGradient id="_Linear64" x1="0" y1="0" x2="1" y2="0" gradientUnits="userSpaceOnUse" gradientTransform="matrix(-50,590,-590,-50,1040.34,520.98)"><stop offset="0%" style="stop-color:#000;stop-opacity:1"/><stop offset="100%" style="stop-color:#4d4d4d;stop-opacity:1"/></linearGradient><linearGradient id="_Linear65" x1="0" y1="0" x2="1" y2="0" gradientUnits="userSpaceOnUse" gradientTransform="matrix(-50,590,-590,-50,1040.34,520.98)"><stop offset="0%" style="stop-color:#000;stop-opacity:1"/><stop offset="100%" style="stop-color:#4d4d4d;stop-opacity:1"/></linearGradient><linearGradient id="_Linear66" x1="0" y1="0" x2="1" y2="0" gradientUnits="userSpaceOnUse" gradientTransform="matrix(-50,590,-590,-50,1040.34,520.98)"><stop offset="0%" style="stop-color:#000;stop-opacity:1"/><stop offset="100%" style="stop-color:#4d4d4d;stop-opacity:1"/></linearGradient><linearGradient id="_Linear67" x1="0" y1="0" x2="1" y2="0" gradientUnits="userSpaceOnUse" gradientTransform="matrix(-50,590,-590,-50,1040.34,520.98)"><stop offset="0%" style="stop-color:#000;stop-opacity:1"/><stop offset="100%" style="stop-color:#4d4d4d;stop-opacity:1"/></linearGradient><linearGradient id="_Linear68" x1="0" y1="0" x2="1" y2="0" gradientUnits="userSpaceOnUse" gradientTransform="matrix(-50,590,-590,-50,1040.34,520.98)"><stop offset="0%" style="stop-color:#000;stop-opacity:1"/><stop offset="100%" style="stop-color:#4d4d4d;stop-opacity:1"/></linearGradient><linearGradient id="_Linear69" x1="0" y1="0" x2="1" y2="0" gradientUnits="userSpaceOnUse" gradientTransform="matrix(-50,590,-590,-50,1040.34,520.98)"><stop offset="0%" style="stop-color:#000;stop-opacity:1"/><stop offset="100%" style="stop-color:#4d4d4d;stop-opacity:1"/></linearGradient><linearGradient id="_Linear70" x1="0" y1="0" x2="1" y2="0" gradientUnits="userSpaceOnUse" gradientTransform="matrix(-50,590,-590,-50,1040.34,520.98)"><stop offset="0%" style="stop-color:#000;stop-opacity:1"/><stop offset="100%" style="stop-color:#4d4d4d;stop-opacity:1"/></linearGradient><linearGradient id="_Linear71" x1="0" y1="0" x2="1" y2="0" gradientUnits="userSpaceOnUse" gradientTransform="matrix(-50,590,-590,-50,1040.34,520.98)"><stop offset="0%" style="stop-color:#000;stop-opacity:1"/><stop offset="100%" style="stop-color:#4d4d4d;stop-opacity:1"/></linearGradient><linearGradient id="_Linear72" x1="0" y1="0" x2="1" y2="0" gradientUnits="userSpaceOnUse" gradientTransform="matrix(-50,590,-590,-50,1040.34,520.98)"><stop offset="0%" style="stop-color:#000;stop-opacity:1"/><stop offset="100%" style="stop-color:#4d4d4d;stop-opacity:1"/></linearGradient><linearGradient id="_Linear73" x1="0" y1="0" x2="1" y2="0" gradientUnits="userSpaceOnUse" gradientTransform="matrix(-50,590,-590,-50,1040.34,520.98)"><stop offset="0%" style="stop-color:#000;stop-opacity:1"/><stop offset="100%" style="stop-color:#4d4d4d;stop-opacity:1"/></linearGradient><linearGradient id="_Linear74" x1="0" y1="0" x2="1" y2="0" gradientUnits="userSpaceOnUse" gradientTransform="matrix(-50,590,-590,-50,1040.34,520.98)"><stop offset="0%" style="stop-color:#000;stop-opacity:1"/><stop offset="100%" style="stop-color:#4d4d4d;stop-opacity:1"/></linearGradient><linearGradient id="_Linear75" x1="0" y1="0" x2="1" y2="0" gradientUnits="userSpaceOnUse" gradientTransform="matrix(-50,590,-590,-50,1040.34,520.98)"><stop offset="0%" style="stop-color:#000;stop-opacity:1"/><stop offset="100%" style="stop-color:#4d4d4d;stop-opacity:1"/></linearGradient><linearGradient id="_Linear76" x1="0" y1="0" x2="1" y2="0" gradientUnits="userSpaceOnUse" gradientTransform="matrix(-50,590,-590,-50,1040.34,520.98)"><stop offset="0%" style="stop-color:#000;stop-opacity:1"/><stop offset="100%" style="stop-color:#4d4d4d;stop-opacity:1"/></linearGradient><linearGradient id="_Linear77" x1="0" y1="0" x2="1" y2="0" gradientUnits="userSpaceOnUse" gradientTransform="matrix(-50,590,-590,-50,1040.34,520.98)"><stop offset="0%" style="stop-color:#000;stop-opacity:1"/><stop offset="100%" style="stop-color:#4d4d4d;stop-opacity:1"/></linearGradient><linearGradient id="_Linear78" x1="0" y1="0" x2="1" y2="0" gradientUnits="userSpaceOnUse" gradientTransform="matrix(-50,590,-590,-50,1040.34,520.98)"><stop offset="0%" style="stop-color:#000;stop-opacity:1"/><stop offset="100%" style="stop-color:#4d4d4d;stop-opacity:1"/></linearGradient><linearGradient id="_Linear79" x1="0" y1="0" x2="1" y2="0" gradientUnits="userSpaceOnUse" gradientTransform="matrix(-50,590,-590,-50,1040.34,520.98)"><stop offset="0%" style="stop-color:#000;stop-opacity:1"/><stop offset="100%" style="stop-color:#4d4d4d;stop-opacity:1"/></linearGradient><linearGradient id="_Linear80" x1="0" y1="0" x2="1" y2="0" gradientUnits="userSpaceOnUse" gradientTransform="matrix(-50,590,-590,-50,1040.34,520.98)"><stop offset="0%" style="stop-color:#000;stop-opacity:1"/><stop offset="100%" style="stop-color:#4d4d4d;stop-opacity:1"/></linearGradient><linearGradient id="_Linear81" x1="0" y1="0" x2="1" y2="0" gradientUnits="userSpaceOnUse" gradientTransform="matrix(-50,590,-590,-50,1040.34,520.98)"><stop offset="0%" style="stop-color:#000;stop-opacity:1"/><stop offset="100%" style="stop-color:#4d4d4d;stop-opacity:1"/></linearGradient><linearGradient id="_Linear82" x1="0" y1="0" x2="1" y2="0" gradientUnits="userSpaceOnUse" gradientTransform="matrix(-50,590,-590,-50,1040.34,520.98)"><stop offset="0%" style="stop-color:#000;stop-opacity:1"/><stop offset="100%" style="stop-color:#4d4d4d;stop-opacity:1"/></linearGradient><linearGradient id="_Linear83" x1="0" y1="0" x2="1" y2="0" gradientUnits="userSpaceOnUse" gradientTransform="matrix(-50,590,-590,-50,1040.34,520.98)"><stop offset="0%" style="stop-color:#000;stop-opacity:1"/><stop offset="100%" style="stop-color:#4d4d4d;stop-opacity:1"/></linearGradient><linearGradient id="_Linear84" x1="0" y1="0" x2="1" y2="0" gradientUnits="userSpaceOnUse" gradientTransform="matrix(-50,590,-590,-50,1040.34,520.98)"><stop offset="0%" style="stop-color:#000;stop-opacity:1"/><stop offset="100%" style="stop-color:#4d4d4d;stop-opacity:1"/></linearGradient><linearGradient id="_Linear85" x1="0" y1="0" x2="1" y2="0" gradientUnits="userSpaceOnUse" gradientTransform="matrix(-50,590,-590,-50,1040.34,520.98)"><stop offset="0%" style="stop-color:#000;stop-opacity:1"/><stop offset="100%" style="stop-color:#4d4d4d;stop-opacity:1"/></linearGradient><linearGradient id="_Linear86" x1="0" y1="0" x2="1" y2="0" gradientUnits="userSpaceOnUse" gradientTransform="matrix(-50,590,-590,-50,1040.34,520.98)"><stop offset="0%" style="stop-color:#000;stop-opacity:1"/><stop offset="100%" style="stop-color:#4d4d4d;stop-opacity:1"/></linearGradient><linearGradient id="_Linear87" x1="0" y1="0" x2="1" y2="0" gradientUnits="userSpaceOnUse" gradientTransform="matrix(-50,590,-590,-50,1040.34,520.98)"><stop offset="0%" style="stop-color:#000;stop-opacity:1"/><stop offset="100%" style="stop-color:#4d4d4d;stop-opacity:1"/></linearGradient></defs></svg>