<?xml version="1.0" standalone="no"?><!DOCTYPE svg PUBLIC "-//W3C//DTD SVG 1.1//EN" "http://www.w3.org/Graphics/SVG/1.1/DTD/svg11.dtd"><svg width="100%" height="100%" viewBox="0 0 5421 11671" version="1.1" xmlns="http://www.w3.org/2000/svg" xmlns:xlink="http://www.w3.org/1999/xlink" xml:space="preserve" style="fill-rule:evenodd;clip-rule:evenodd;stroke-linejoin:round;stroke-miterlimit:1.41421;"><clipPath id="_clip1"><rect id="snowman" x="3.682" y="0.837" width="5416.67" height="11666.7"/></clipPath><g clip-path="url(#_clip1)"><g><path d="M1149.52,9709.17c0,-747.385 606.782,-1354.17 1354.17,-1354.17c747.385,0 1354.17,606.782 1354.17,1354.17c0,747.385 -606.782,1354.17 -1354.17,1354.17c-747.385,0 -1354.17,-606.781 -1354.17,-1354.17Z" style="fill:none;stroke-width:18.75px;stroke:#d9d9d9;"/><path d="M1253.68,7084.17c0,-689.894 560.106,-1250 1250,-1250c689.894,0 1250,560.106 1250,1250c0,689.893 -560.106,1250 -1250,1250c-689.894,0 -1250,-560.107 -1250,-1250Z" style="fill:none;stroke-width:18.75px;stroke:#d9d9d9;"/><path d="M1357.85,4584.17c0,-632.403 513.43,-1145.83 1145.83,-1145.83c632.402,0 1145.83,513.431 1145.83,1145.83c0,632.402 -513.431,1145.83 -1145.83,1145.83c-632.403,0 -1145.83,-513.431 -1145.83,-1145.83Z" style="fill:none;stroke-width:18.75px;stroke:#d9d9d9;"/><path d="M1462.02,2292.5c0,-574.911 466.755,-1041.67 1041.67,-1041.67c574.911,0 1041.67,466.756 1041.67,1041.67c0,574.911 -466.756,1041.67 -1041.67,1041.67c-574.912,0 -1041.67,-466.756 -1041.67,-1041.67Z" style="fill:none;stroke-width:18.75px;stroke:#d9d9d9;"/></g><g id="Layer3"><g><circle cx="3003.68" cy="10917.5" r="83.333" style="fill:#fcd1d1;stroke-width:4.17px;stroke:#000;"/><circle cx="3003.68" cy="10917.5" r="41.667" style="fill:#fc2e30;stroke-width:4.17px;stroke:#000;"/></g><g><circle cx="3003.68" cy="11250.8" r="83.333" style="fill:#fcd1d1;stroke-width:4.17px;stroke:#000;"/><circle cx="3003.68" cy="11250.8" r="41.667" style="fill:#fc2e30;stroke-width:4.17px;stroke:#000;"/></g><g><circle cx="1587.02" cy="10750.8" r="83.333" style="fill:#fcd1d1;stroke-width:4.17px;stroke:#000;"/><circle cx="1587.02" cy="10750.8" r="41.667" style="fill:#fc2e30;stroke-width:4.17px;stroke:#000;"/></g><g><circle cx="2003.68" cy="10917.5" r="83.333" style="fill:#fcd1d1;stroke-width:4.17px;stroke:#000;"/><circle cx="2003.68" cy="10917.5" r="41.667" style="fill:#fc2e30;stroke-width:4.17px;stroke:#000;"/></g><g><circle cx="2003.68" cy="11250.8" r="83.333" style="fill:#fcd1d1;stroke-width:4.17px;stroke:#000;"/><circle cx="2003.68" cy="11250.8" r="41.667" style="fill:#fc2e30;stroke-width:4.17px;stroke:#000;"/></g><g><circle cx="1337.02" cy="10334.2" r="83.333" style="fill:#fcd1d1;stroke-width:4.17px;stroke:#000;"/><circle cx="1337.02" cy="10334.2" r="41.667" style="fill:#fc2e30;stroke-width:4.17px;stroke:#000;"/></g><g><circle cx="1170.35" cy="9917.5" r="83.333" style="fill:#fcd1d1;stroke-width:4.17px;stroke:#000;"/><circle cx="1170.35" cy="9917.5" r="41.667" style="fill:#fc2e30;stroke-width:4.17px;stroke:#000;"/></g><g><circle cx="1170.35" cy="9500.84" r="83.333" style="fill:#fcd1d1;stroke-width:4.17px;stroke:#000;"/><circle cx="1170.35" cy="9500.84" r="41.667" style="fill:#fc2e30;stroke-width:4.17px;stroke:#000;"/></g><g><circle cx="1337.02" cy="9084.17" r="83.333" style="fill:#fcd1d1;stroke-width:4.17px;stroke:#000;"/><circle cx="1337.02" cy="9084.17" r="41.667" style="fill:#fc2e30;stroke-width:4.17px;stroke:#000;"/></g><g><circle cx="1587.02" cy="8667.5" r="83.333" style="fill:#fcd1d1;stroke-width:4.17px;stroke:#000;"/><circle cx="1587.02" cy="8667.5" r="41.667" style="fill:#fc2e30;stroke-width:4.17px;stroke:#000;"/></g><g><circle cx="1587.02" cy="8000.84" r="83.333" style="fill:#fcd1d1;stroke-width:4.17px;stroke:#000;"/><circle cx="1587.02" cy="8000.84" r="41.667" style="fill:#fc2e30;stroke-width:4.17px;stroke:#000;"/></g><g><circle cx="1337.02" cy="7584.17" r="83.333" style="fill:#fcd1d1;stroke-width:4.17px;stroke:#000;"/><circle cx="1337.02" cy="7584.17" r="41.667" style="fill:#fc2e30;stroke-width:4.17px;stroke:#000;"/></g><g><circle cx="1337.02" cy="6584.17" r="83.333" style="fill:#fcd1d1;stroke-width:4.17px;stroke:#000;"/><circle cx="1337.02" cy="6584.17" r="41.667" style="fill:#fc2e30;stroke-width:4.17px;stroke:#000;"/></g><g><circle cx="1587.02" cy="6167.5" r="83.333" style="fill:#fcd1d1;stroke-width:4.17px;stroke:#000;"/><circle cx="1587.02" cy="6167.5" r="41.667" style="fill:#fc2e30;stroke-width:4.17px;stroke:#000;"/></g><g><circle cx="3420.35" cy="8000.84" r="83.333" style="fill:#fcd1d1;stroke-width:4.17px;stroke:#000;"/><circle cx="3420.35" cy="8000.84" r="41.667" style="fill:#fc2e30;stroke-width:4.17px;stroke:#000;"/></g><g><circle cx="3670.35" cy="7584.17" r="83.333" style="fill:#fcd1d1;stroke-width:4.17px;stroke:#000;"/><circle cx="3670.35" cy="7584.17" r="41.667" style="fill:#fc2e30;stroke-width:4.17px;stroke:#000;"/></g><g><circle cx="3670.35" cy="6584.17" r="83.333" style="fill:#fcd1d1;stroke-width:4.17px;stroke:#000;"/><circle cx="3670.35" cy="6584.17" r="41.667" style="fill:#fc2e30;stroke-width:4.17px;stroke:#000;"/></g><g><circle cx="3420.35" cy="6167.5" r="83.333" style="fill:#fcd1d1;stroke-width:4.17px;stroke:#000;"/><circle cx="3420.35" cy="6167.5" r="41.667" style="fill:#fc2e30;stroke-width:4.17px;stroke:#000;"/></g><g><circle cx="3670.35" cy="10334.2" r="83.333" style="fill:#fcd1d1;stroke-width:4.17px;stroke:#000;"/><circle cx="3670.35" cy="10334.2" r="41.667" style="fill:#fc2e30;stroke-width:4.17px;stroke:#000;"/></g><g><circle cx="3670.35" cy="9084.17" r="83.333" style="fill:#fcd1d1;stroke-width:4.17px;stroke:#000;"/><circle cx="3670.35" cy="9084.17" r="41.667" style="fill:#fc2e30;stroke-width:4.17px;stroke:#000;"/></g><g><circle cx="3420.35" cy="8667.5" r="83.333" style="fill:#fcd1d1;stroke-width:4.17px;stroke:#000;"/><circle cx="3420.35" cy="8667.5" r="41.667" style="fill:#fc2e30;stroke-width:4.17px;stroke:#000;"/></g><g><circle cx="3837.01" cy="9500.84" r="83.333" style="fill:#fcd1d1;stroke-width:4.17px;stroke:#000;"/><circle cx="3837.01" cy="9500.84" r="41.667" style="fill:#fc2e30;stroke-width:4.17px;stroke:#000;"/></g><g><circle cx="3837.01" cy="9917.5" r="83.333" style="fill:#fcd1d1;stroke-width:4.17px;stroke:#000;"/><circle cx="3837.01" cy="9917.5" r="41.667" style="fill:#fc2e30;stroke-width:4.17px;stroke:#000;"/></g><g><circle cx="3420.35" cy="10750.8" r="83.333" style="fill:#fcd1d1;stroke-width:4.17px;stroke:#000;"/><circle cx="3420.35" cy="10750.8" r="41.667" style="fill:#fc2e30;stroke-width:4.17px;stroke:#000;"/></g><g><circle cx="2087.01" cy="8334.17" r="83.333" style="fill:#fcd1d1;stroke-width:4.17px;stroke:#000;"/><circle cx="2087.01" cy="8334.17" r="41.667" style="fill:#fc2e30;stroke-width:4.17px;stroke:#000;"/></g><g><circle cx="2920.35" cy="8334.17" r="83.333" style="fill:#fcd1d1;stroke-width:4.17px;stroke:#000;"/><circle cx="2920.35" cy="8334.17" r="41.667" style="fill:#fc2e30;stroke-width:4.17px;stroke:#000;"/></g><g><circle cx="3753.68" cy="7084.17" r="83.333" style="fill:#fcd1d1;stroke-width:4.17px;stroke:#000;"/><circle cx="3753.68" cy="7084.17" r="41.667" style="fill:#fc2e30;stroke-width:4.17px;stroke:#000;"/></g><g><circle cx="2920.35" cy="5792.5" r="83.333" style="fill:#fcd1d1;stroke-width:4.17px;stroke:#000;"/><circle cx="2920.35" cy="5792.5" r="41.667" style="fill:#fc2e30;stroke-width:4.17px;stroke:#000;"/></g><g><circle cx="3420.35" cy="5334.17" r="83.333" style="fill:#fcd1d1;stroke-width:4.17px;stroke:#000;"/><circle cx="3420.35" cy="5334.17" r="41.667" style="fill:#fc2e30;stroke-width:4.17px;stroke:#000;"/></g><g><circle cx="3670.35" cy="4584.17" r="83.333" style="fill:#fcd1d1;stroke-width:4.17px;stroke:#000;"/><circle cx="3670.35" cy="4584.17" r="41.667" style="fill:#fc2e30;stroke-width:4.17px;stroke:#000;"/></g><g><circle cx="3420.35" cy="3834.17" r="83.333" style="fill:#fcd1d1;stroke-width:4.17px;stroke:#000;"/><circle cx="3420.35" cy="3834.17" r="41.667" style="fill:#fc2e30;stroke-width:4.17px;stroke:#000;"/></g><g><circle cx="2087.01" cy="5792.5" r="83.333" style="fill:#fcd1d1;stroke-width:4.17px;stroke:#000;"/><circle cx="2087.01" cy="5792.5" r="41.667" style="fill:#fc2e30;stroke-width:4.17px;stroke:#000;"/></g><g><circle cx="1337.02" cy="4584.17" r="83.333" style="fill:#fcd1d1;stroke-width:4.17px;stroke:#000;"/><circle cx="1337.02" cy="4584.17" r="41.667" style="fill:#fc2e30;stroke-width:4.17px;stroke:#000;"/></g><g><circle cx="1587.02" cy="5334.17" r="83.333" style="fill:#fcd1d1;stroke-width:4.17px;stroke:#000;"/><circle cx="1587.02" cy="5334.17" r="41.667" style="fill:#fc2e30;stroke-width:4.17px;stroke:#000;"/></g><g><circle cx="1587.02" cy="3834.17" r="83.333" style="fill:#fcd1d1;stroke-width:4.17px;stroke:#000;"/><circle cx="1587.02" cy="3834.17" r="41.667" style="fill:#fc2e30;stroke-width:4.17px;stroke:#000;"/></g><g><circle cx="1253.68" cy="7084.17" r="83.333" style="fill:#fcd1d1;stroke-width:4.17px;stroke:#000;"/><circle cx="1253.68" cy="7084.17" r="41.667" style="fill:#fc2e30;stroke-width:4.17px;stroke:#000;"/></g><g><circle cx="2837.01" cy="3375.84" r="83.333" style="fill:#fcd1d1;stroke-width:4.17px;stroke:#000;"/><circle cx="2837.01" cy="3375.84" r="41.667" style="fill:#fc2e30;stroke-width:4.17px;stroke:#000;"/></g><g><circle cx="2170.35" cy="3375.84" r="83.333" style="fill:#fcd1d1;stroke-width:4.17px;stroke:#000;"/><circle cx="2170.35" cy="3375.84" r="41.667" style="fill:#fc2e30;stroke-width:4.17px;stroke:#000;"/></g><g><circle cx="2170.35" cy="1334.17" r="83.333" style="fill:#fcd1d1;stroke-width:4.17px;stroke:#000;"/><circle cx="2170.35" cy="1334.17" r="41.667" style="fill:#fc2e30;stroke-width:4.17px;stroke:#000;"/></g><g><circle cx="2170.35" cy="917.504" r="83.333" style="fill:#fcd1d1;stroke-width:4.17px;stroke:#000;"/><circle cx="2170.35" cy="917.504" r="41.667" style="fill:#fc2e30;stroke-width:4.17px;stroke:#000;"/></g><g><circle cx="2837.01" cy="917.504" r="83.333" style="fill:#fcd1d1;stroke-width:4.17px;stroke:#000;"/><circle cx="2837.01" cy="917.504" r="41.667" style="fill:#fc2e30;stroke-width:4.17px;stroke:#000;"/></g><g><circle cx="1462.02" cy="2292.5" r="83.333" style="fill:#fcd1d1;stroke-width:4.17px;stroke:#000;"/><circle cx="1462.02" cy="2292.5" r="41.667" style="fill:#fc2e30;stroke-width:4.17px;stroke:#000;"/></g><g><circle cx="1670.35" cy="1667.5" r="83.333" style="fill:#fcd1d1;stroke-width:4.17px;stroke:#000;"/><circle cx="1670.35" cy="1667.5" r="41.667" style="fill:#fc2e30;stroke-width:4.17px;stroke:#000;"/></g><g><circle cx="1670.35" cy="2917.5" r="83.333" style="fill:#fcd1d1;stroke-width:4.17px;stroke:#000;"/><circle cx="1670.35" cy="2917.5" r="41.667" style="fill:#fc2e30;stroke-width:4.17px;stroke:#000;"/></g><g><circle cx="2837.01" cy="1334.17" r="83.333" style="fill:#fcd1d1;stroke-width:4.17px;stroke:#000;"/><circle cx="2837.01" cy="1334.17" r="41.667" style="fill:#fc2e30;stroke-width:4.17px;stroke:#000;"/></g><g><circle cx="3337.01" cy="1667.5" r="83.333" style="fill:#fcd1d1;stroke-width:4.17px;stroke:#000;"/><circle cx="3337.01" cy="1667.5" r="41.667" style="fill:#fc2e30;stroke-width:4.17px;stroke:#000;"/></g><g><circle cx="3337.01" cy="2917.5" r="83.333" style="fill:#fcd1d1;stroke-width:4.17px;stroke:#000;"/><circle cx="3337.01" cy="2917.5" r="41.667" style="fill:#fc2e30;stroke-width:4.17px;stroke:#000;"/></g><g><circle cx="3545.35" cy="2292.5" r="83.333" style="fill:#fcd1d1;stroke-width:4.17px;stroke:#000;"/><circle cx="3545.35" cy="2292.5" r="41.667" style="fill:#fc2e30;stroke-width:4.17px;stroke:#000;"/></g><path d="M2503.68,11459.2c0,0 -74.138,-476.684 166.667,-583.334c541.376,-239.769 976.037,-814.187 1000,-1166.67c67.799,-997.291 -2284.32,-1740.49 -2291.67,-41.667c-7.353,1700.71 2271.93,912.897 2083.33,-83.333c-60.843,-321.398 -527.457,-975.24 -958.333,-1208.33c-1769.86,-957.449 -863.595,-2230.57 0,-2291.67c1430.74,-101.224 1392.42,2057.74 125,2000c-920.29,-41.928 -1506.81,-1708.87 -291.667,-2125c632.465,-216.588 1217.58,-1064.06 1166.67,-1416.67c-164.632,-1140.28 -1877.95,-1374.43 -2000,-41.667c-117.033,1277.96 1648.9,1447.72 1875,125c42.032,-245.893 -430.449,-1013.46 -875,-1250c-357.482,-190.21 -924.373,-714.652 -875,-1083.33c165.928,-1239.03 1567.86,-961.239 1750,-41.667c149.022,752.355 -1148.91,1378.46 -1583.33,208.334c-170.869,-460.236 661.806,-1069.4 708.333,-1166.67c117.148,-244.902 0,-625 0,-625" style="fill:none;stroke-width:33.33px;stroke-dasharray:100,200,0,0;stroke:#14a90c;stroke-opacity:0.698039;"/></g><g><rect x="2295.35" y="11449.8" width="416.667" height="18.75" style="fill:#000;"/><rect x="2494.31" y="11459.2" width="18.75" height="208.333" style="fill:#000;"/></g><g id="grid"><g id="bold lines"><path d="M2920.35,417.504l0,11666.7" style="fill:none;stroke-width:4.17px;stroke-miterlimit:1;stroke:#000;stroke-opacity:0.298039;"/><path d="M420.349,2917.5l10833.3,0" style="fill:none;stroke-width:4.17px;stroke-miterlimit:1;stroke:#000;stroke-opacity:0.298039;"/><path d="M5003.68,417.504l0,11666.7" style="fill:none;stroke-width:4.17px;stroke-miterlimit:1;stroke:#000;stroke-opacity:0.298039;"/><path d="M420.349,5000.84l10833.3,0" style="fill:none;stroke-width:4.17px;stroke-miterlimit:1;stroke:#000;stroke-opacity:0.298039;"/><path d="M420.349,7084.17l10833.3,0" style="fill:none;stroke-width:4.17px;stroke-miterlimit:1;stroke:#000;stroke-opacity:0.298039;"/><path d="M420.349,9167.5l10833.3,0" style="fill:none;stroke-width:4.17px;stroke-miterlimit:1;stroke:#000;stroke-opacity:0.298039;"/><path d="M420.349,11250.8l10833.3,0" style="fill:none;stroke-width:4.17px;stroke-miterlimit:1;stroke:#000;stroke-opacity:0.298039;"/><path d="M420.349,834.171l10833.3,0" style="fill:none;stroke-width:4.17px;stroke-miterlimit:1;stroke:#000;stroke-opacity:0.298039;"/><path d="M837.015,12084.2l0,-11666.7" style="fill:none;stroke-width:4.17px;stroke-miterlimit:1;stroke:#000;stroke-opacity:0.298039;"/></g><g id="vertical lines"><path d="M420.349,417.504l0,11666.7" style="fill:none;stroke-width:4.17px;stroke-linejoin:miter;stroke-miterlimit:1;stroke-dasharray:41.67,183.33,8.33,183.33;stroke-dashoffset:20.83;stroke:#000;"/><path d="M2920.35,417.504l0,11666.7" style="fill:none;stroke-width:4.17px;stroke-linejoin:miter;stroke-miterlimit:1;stroke-dasharray:41.67,183.33,8.33,183.33;stroke-dashoffset:20.83;stroke:#000;"/><path d="M5420.35,417.504l0,11666.7" style="fill:none;stroke-width:4.17px;stroke-linejoin:miter;stroke-miterlimit:1;stroke-dasharray:41.67,183.33,8.33,183.33;stroke-dashoffset:20.83;stroke:#000;"/><path d="M1253.68,417.504l0,11666.7" style="fill:none;stroke-width:4.17px;stroke-linejoin:miter;stroke-miterlimit:1;stroke-dasharray:41.67,183.33,8.33,183.33;stroke-dashoffset:20.83;stroke:#000;"/><path d="M3753.68,417.504l0,11666.7" style="fill:none;stroke-width:4.17px;stroke-linejoin:miter;stroke-miterlimit:1;stroke-dasharray:41.67,183.33,8.33,183.33;stroke-dashoffset:20.83;stroke:#000;"/><path d="M2087.01,417.504l0,11666.7" style="fill:none;stroke-width:4.17px;stroke-linejoin:miter;stroke-miterlimit:1;stroke-dasharray:41.67,183.33,8.33,183.33;stroke-dashoffset:20.83;stroke:#000;"/><path d="M4587.02,417.504l0,11666.7" style="fill:none;stroke-width:4.17px;stroke-linejoin:miter;stroke-miterlimit:1;stroke-dasharray:41.67,183.33,8.33,183.33;stroke-dashoffset:20.83;stroke:#000;"/><path d="M837.015,417.504l0,11666.7" style="fill:none;stroke-width:4.17px;stroke-linejoin:miter;stroke-miterlimit:1;stroke-dasharray:41.67,183.33,8.33,183.33;stroke-dashoffset:20.83;stroke:#000;"/><path d="M3337.01,417.504l0,11666.7" style="fill:none;stroke-width:4.17px;stroke-linejoin:miter;stroke-miterlimit:1;stroke-dasharray:41.67,183.33,8.33,183.33;stroke-dashoffset:20.83;stroke:#000;"/><path d="M1670.35,417.504l0,11666.7" style="fill:none;stroke-width:4.17px;stroke-linejoin:miter;stroke-miterlimit:1;stroke-dasharray:41.67,183.33,8.33,183.33;stroke-dashoffset:20.83;stroke:#000;"/><path d="M4170.35,417.504l0,11666.7" style="fill:none;stroke-width:4.17px;stroke-linejoin:miter;stroke-miterlimit:1;stroke-dasharray:41.67,183.33,8.33,183.33;stroke-dashoffset:20.83;stroke:#000;"/><path d="M2503.68,417.504l0,11666.7" style="fill:none;stroke-width:4.17px;stroke-linejoin:miter;stroke-miterlimit:1;stroke-dasharray:41.67,183.33,8.33,183.33;stroke-dashoffset:20.83;stroke:#000;"/><path d="M5003.68,417.504l0,11666.7" style="fill:none;stroke-width:4.17px;stroke-linejoin:miter;stroke-miterlimit:1;stroke-dasharray:41.67,183.33,8.33,183.33;stroke-dashoffset:20.83;stroke:#000;"/></g><g id="horizontal lines"><path d="M420.349,417.504l10833.3,0" style="fill:none;stroke-width:4.17px;stroke-dasharray:41.67,183.33,8.33,183.33;stroke-dashoffset:20.83;stroke:#000;"/><path d="M420.349,2084.17l10833.3,0" style="fill:none;stroke-width:4.17px;stroke-dasharray:41.67,183.33,8.33,183.33;stroke-dashoffset:20.83;stroke:#000;"/><path d="M420.349,3750.84l10833.3,0" style="fill:none;stroke-width:4.17px;stroke-dasharray:41.67,183.33,8.33,183.33;stroke-dashoffset:20.83;stroke:#000;"/><path d="M420.349,5417.5l10833.3,0" style="fill:none;stroke-width:4.17px;stroke-dasharray:41.67,183.33,8.33,183.33;stroke-dashoffset:20.83;stroke:#000;"/><path d="M11253.7,834.171l-10833.3,0" style="fill:none;stroke-width:4.17px;stroke-dasharray:41.67,183.33,8.33,183.33;stroke-dashoffset:20.83;stroke:#000;"/><path d="M11253.7,2500.84l-10833.3,0" style="fill:none;stroke-width:4.17px;stroke-dasharray:41.67,183.33,8.33,183.33;stroke-dashoffset:20.83;stroke:#000;"/><path d="M11253.7,4167.5l-10833.3,0" style="fill:none;stroke-width:4.17px;stroke-dasharray:41.67,183.33,8.33,183.33;stroke-dashoffset:20.83;stroke:#000;"/><path d="M11253.7,5834.17l-10833.3,0" style="fill:none;stroke-width:4.17px;stroke-dasharray:41.67,183.33,8.33,183.33;stroke-dashoffset:20.83;stroke:#000;"/><path d="M420.349,1250.84l10833.3,0" style="fill:none;stroke-width:4.17px;stroke-dasharray:41.67,183.33,8.33,183.33;stroke-dashoffset:20.83;stroke:#000;"/><path d="M420.349,2917.5l10833.3,0" style="fill:none;stroke-width:4.17px;stroke-dasharray:41.67,183.33,8.33,183.33;stroke-dashoffset:20.83;stroke:#000;"/><path d="M420.349,4584.17l10833.3,0" style="fill:none;stroke-width:4.17px;stroke-dasharray:41.67,183.33,8.33,183.33;stroke-dashoffset:20.83;stroke:#000;"/><path d="M420.349,6250.84l10833.3,0" style="fill:none;stroke-width:4.17px;stroke-dasharray:41.67,183.33,8.33,183.33;stroke-dashoffset:20.83;stroke:#000;"/><path d="M420.349,1667.5l10833.3,0" style="fill:none;stroke-width:4.17px;stroke-dasharray:41.67,183.33,8.33,183.33;stroke-dashoffset:20.83;stroke:#000;"/><path d="M420.349,3334.17l10833.3,0" style="fill:none;stroke-width:4.17px;stroke-dasharray:41.67,183.33,8.33,183.33;stroke-dashoffset:20.83;stroke:#000;"/><path d="M420.349,5000.84l10833.3,0" style="fill:none;stroke-width:4.17px;stroke-dasharray:41.67,183.33,8.33,183.33;stroke-dashoffset:20.83;stroke:#000;"/><path d="M420.349,6667.5l10833.3,0" style="fill:none;stroke-width:4.17px;stroke-dasharray:41.67,183.33,8.33,183.33;stroke-dashoffset:20.83;stroke:#000;"/><path d="M420.349,7500.84l10833.3,0" style="fill:none;stroke-width:4.17px;stroke-dasharray:41.67,183.33,8.33,183.33;stroke-dashoffset:20.83;stroke:#000;"/><path d="M420.349,8334.17l10833.3,0" style="fill:none;stroke-width:4.17px;stroke-dasharray:41.67,183.33,8.33,183.33;stroke-dashoffset:20.83;stroke:#000;"/><path d="M420.349,9167.5l10833.3,0" style="fill:none;stroke-width:4.17px;stroke-dasharray:41.67,183.33,8.33,183.33;stroke-dashoffset:20.83;stroke:#000;"/><path d="M420.349,10000.8l10833.3,0" style="fill:none;stroke-width:4.17px;stroke-dasharray:41.67,183.33,8.33,183.33;stroke-dashoffset:20.83;stroke:#000;"/><path d="M420.349,10834.2l10833.3,0" style="fill:none;stroke-width:4.17px;stroke-dasharray:41.67,183.33,8.33,183.33;stroke-dashoffset:20.83;stroke:#000;"/><path d="M420.349,11667.5l10833.3,0" style="fill:none;stroke-width:4.17px;stroke-dasharray:41.67,183.33,8.33,183.33;stroke-dashoffset:20.83;stroke:#000;"/><path d="M420.349,7084.17l10833.3,0" style="fill:none;stroke-width:4.17px;stroke-dasharray:41.67,183.33,8.33,183.33;stroke-dashoffset:20.83;stroke:#000;"/><path d="M420.349,7917.5l10833.3,0" style="fill:none;stroke-width:4.17px;stroke-dasharray:41.67,183.33,8.33,183.33;stroke-dashoffset:20.83;stroke:#000;"/><path d="M420.349,8750.84l10833.3,0" style="fill:none;stroke-width:4.17px;stroke-dasharray:41.67,183.33,8.33,183.33;stroke-dashoffset:20.83;stroke:#000;"/><path d="M420.349,9584.17l10833.3,0" style="fill:none;stroke-width:4.17px;stroke-dasharray:41.67,183.33,8.33,183.33;stroke-dashoffset:20.83;stroke:#000;"/><path d="M420.349,10417.5l10833.3,0" style="fill:none;stroke-width:4.17px;stroke-dasharray:41.67,183.33,8.33,183.33;stroke-dashoffset:20.83;stroke:#000;"/><path d="M420.349,11250.8l10833.3,0" style="fill:none;stroke-width:4.17px;stroke-dasharray:41.67,183.33,8.33,183.33;stroke-dashoffset:20.83;stroke:#000;"/></g><g id="top labels"><rect x="628.682" y="209.171" width="416.667" height="208.333" style="fill:#808080;stroke-width:4.17px;stroke:#000;"/><rect x="2712.01" y="209.171" width="416.667" height="208.333" style="fill:#808080;stroke-width:4.17px;stroke:#000;"/><rect x="4795.35" y="209.171" width="416.667" height="208.333" style="fill:#808080;stroke-width:4.17px;stroke:#000;"/><rect x="1045.35" y="209.171" width="416.667" height="208.333" style="fill:#808080;stroke-width:4.17px;stroke:#000;"/><rect x="3128.68" y="209.171" width="416.667" height="208.333" style="fill:#808080;stroke-width:4.17px;stroke:#000;"/><rect x="5212.02" y="209.171" width="416.667" height="208.333" style="fill:#808080;stroke-width:4.17px;stroke:#000;"/><rect x="1462.02" y="209.171" width="416.667" height="208.333" style="fill:#808080;stroke-width:4.17px;stroke:#000;"/><rect x="3545.35" y="209.171" width="416.667" height="208.333" style="fill:#808080;stroke-width:4.17px;stroke:#000;"/><rect x="1878.68" y="209.171" width="416.667" height="208.333" style="fill:#808080;stroke-width:4.17px;stroke:#000;"/><rect x="3962.01" y="209.171" width="416.667" height="208.333" style="fill:#808080;stroke-width:4.17px;stroke:#000;"/><rect x="2295.35" y="209.171" width="416.667" height="208.333" style="fill:#808080;stroke-width:4.17px;stroke:#000;"/><rect x="4378.68" y="209.171" width="416.667" height="208.333" style="fill:#808080;stroke-width:4.17px;stroke:#000;"/><text x="787.056px" y="372px" style="font-family:'ArialMT';font-size:150px;fill:#000;stroke-width:4.17px;stroke:#000;">A</text><text x="2870.39px" y="372px" style="font-family:'ArialMT';font-size:150px;fill:#000;stroke-width:4.17px;stroke:#000;">F</text><text x="4953.72px" y="372px" style="font-family:'ArialMT';font-size:150px;fill:#000;stroke-width:4.17px;stroke:#000;">K</text><text x="1203.72px" y="372px" style="font-family:'ArialMT';font-size:150px;fill:#000;stroke-width:4.17px;stroke:#000;">B</text><text x="3287.06px" y="372px" style="font-family:'ArialMT';font-size:150px;fill:#000;stroke-width:4.17px;stroke:#000;">G</text><text x="5370.39px" y="372px" style="font-family:'ArialMT';font-size:150px;fill:#000;stroke-width:4.17px;stroke:#000;">L</text><text x="1620.39px" y="372px" style="font-family:'ArialMT';font-size:150px;fill:#000;stroke-width:4.17px;stroke:#000;">C</text><text x="3703.72px" y="372px" style="font-family:'ArialMT';font-size:150px;fill:#000;stroke-width:4.17px;stroke:#000;">H</text><text x="2037.06px" y="372px" style="font-family:'ArialMT';font-size:150px;fill:#000;stroke-width:4.17px;stroke:#000;">D</text><text x="4149.58px" y="372px" style="font-family:'ArialMT';font-size:150px;fill:#000;stroke-width:4.17px;stroke:#000;">I</text><text x="2453.72px" y="372px" style="font-family:'ArialMT';font-size:150px;fill:#000;stroke-width:4.17px;stroke:#000;">E</text><text x="4537.06px" y="372px" style="font-family:'ArialMT';font-size:150px;fill:#000;stroke-width:4.17px;stroke:#000;">J</text></g><g id="top numbers"><text x="1223.55px" y="191.511px" style="font-family:'ArialMT';font-size:83.333px;fill:#000;stroke-width:4.17px;stroke:#000;">1</text><text x="813.842px" y="191.511px" style="font-family:'ArialMT';font-size:83.333px;fill:#000;stroke-width:4.17px;stroke:#000;">0</text><text x="3306.88px" y="191.511px" style="font-family:'ArialMT';font-size:83.333px;fill:#000;stroke-width:4.17px;stroke:#000;">6</text><text x="5370.83px" y="191.511px" style="font-family:'ArialMT';font-size:83.333px;fill:#000;stroke-width:4.17px;stroke:#000;">1<tspan x="5410.99px " y="191.511px ">1</tspan></text><text x="1640.22px" y="191.511px" style="font-family:'ArialMT';font-size:83.333px;fill:#000;stroke-width:4.17px;stroke:#000;">2</text><text x="3725.83px" y="191.511px" style="font-family:'ArialMT';font-size:83.333px;fill:#000;stroke-width:4.17px;stroke:#000;">7</text><text x="2056.88px" y="191.511px" style="font-family:'ArialMT';font-size:83.333px;fill:#000;stroke-width:4.17px;stroke:#000;">3</text><text x="4142.5px" y="191.511px" style="font-family:'ArialMT';font-size:83.333px;fill:#000;stroke-width:4.17px;stroke:#000;">8</text><text x="2473.55px" y="191.511px" style="font-family:'ArialMT';font-size:83.333px;fill:#000;stroke-width:4.17px;stroke:#000;">4</text><text x="4559.16px" y="191.511px" style="font-family:'ArialMT';font-size:83.333px;fill:#000;stroke-width:4.17px;stroke:#000;">9</text><text x="2890.22px" y="191.511px" style="font-family:'ArialMT';font-size:83.333px;fill:#000;stroke-width:4.17px;stroke:#000;">5</text><text x="4957.34px" y="191.511px" style="font-family:'ArialMT';font-size:83.333px;fill:#000;stroke-width:4.17px;stroke:#000;">10</text></g><g id="side labels"><rect x="212.015" y="1042.5" width="208.333" height="416.667" style="fill:#808080;stroke-width:4.17px;stroke:#000;"/><rect x="212.015" y="625.837" width="208.333" height="416.667" style="fill:#808080;stroke-width:4.17px;stroke:#000;"/><rect x="212.015" y="2709.17" width="208.333" height="416.667" style="fill:#808080;stroke-width:4.17px;stroke:#000;"/><rect x="212.015" y="4375.84" width="208.333" height="416.667" style="fill:#808080;stroke-width:4.17px;stroke:#000;"/><rect x="212.015" y="6042.5" width="208.333" height="416.667" style="fill:#808080;stroke-width:4.17px;stroke:#000;"/><rect x="212.015" y="1459.17" width="208.333" height="416.667" style="fill:#808080;stroke-width:4.17px;stroke:#000;"/><rect x="212.015" y="3125.84" width="208.333" height="416.667" style="fill:#808080;stroke-width:4.17px;stroke:#000;"/><rect x="212.015" y="4792.5" width="208.333" height="416.667" style="fill:#808080;stroke-width:4.17px;stroke:#000;"/><rect x="212.015" y="6459.17" width="208.333" height="416.667" style="fill:#808080;stroke-width:4.17px;stroke:#000;"/><rect x="212.015" y="7292.5" width="208.333" height="416.667" style="fill:#808080;stroke-width:4.17px;stroke:#000;"/><rect x="212.015" y="8125.84" width="208.333" height="416.667" style="fill:#808080;stroke-width:4.17px;stroke:#000;"/><rect x="212.015" y="8959.17" width="208.333" height="416.667" style="fill:#808080;stroke-width:4.17px;stroke:#000;"/><rect x="212.015" y="9792.5" width="208.333" height="416.667" style="fill:#808080;stroke-width:4.17px;stroke:#000;"/><rect x="212.015" y="10625.8" width="208.333" height="416.667" style="fill:#808080;stroke-width:4.17px;stroke:#000;"/><rect x="212.015" y="11459.2" width="208.333" height="416.667" style="fill:#808080;stroke-width:4.17px;stroke:#000;"/><rect x="212.015" y="1875.84" width="208.333" height="416.667" style="fill:#808080;stroke-width:4.17px;stroke:#000;"/><rect x="212.015" y="3542.5" width="208.333" height="416.667" style="fill:#808080;stroke-width:4.17px;stroke:#000;"/><rect x="212.015" y="5209.17" width="208.333" height="416.667" style="fill:#808080;stroke-width:4.17px;stroke:#000;"/><rect x="212.015" y="6875.84" width="208.333" height="416.667" style="fill:#808080;stroke-width:4.17px;stroke:#000;"/><rect x="212.015" y="7709.17" width="208.333" height="416.667" style="fill:#808080;stroke-width:4.17px;stroke:#000;"/><rect x="212.015" y="8542.5" width="208.333" height="416.667" style="fill:#808080;stroke-width:4.17px;stroke:#000;"/><rect x="212.015" y="9375.84" width="208.333" height="416.667" style="fill:#808080;stroke-width:4.17px;stroke:#000;"/><rect x="212.015" y="10209.2" width="208.333" height="416.667" style="fill:#808080;stroke-width:4.17px;stroke:#000;"/><rect x="212.015" y="11042.5" width="208.333" height="416.667" style="fill:#808080;stroke-width:4.17px;stroke:#000;"/><rect x="212.015" y="2292.5" width="208.333" height="416.667" style="fill:#808080;stroke-width:4.17px;stroke:#000;"/><rect x="212.015" y="3959.17" width="208.333" height="416.667" style="fill:#808080;stroke-width:4.17px;stroke:#000;"/><rect x="212.015" y="5625.84" width="208.333" height="416.667" style="fill:#808080;stroke-width:4.17px;stroke:#000;"/><text x="274.451px" y="1302.38px" style="font-family:'ArialMT';font-size:150px;fill:#000;stroke-width:4.17px;stroke:#000;">1</text><text x="274.451px" y="885.717px" style="font-family:'ArialMT';font-size:150px;fill:#000;stroke-width:4.17px;stroke:#000;">0</text><text x="274.451px" y="2969.05px" style="font-family:'ArialMT';font-size:150px;fill:#000;stroke-width:4.17px;stroke:#000;">5</text><text x="274.451px" y="4635.72px" style="font-family:'ArialMT';font-size:150px;fill:#000;stroke-width:4.17px;stroke:#000;">9</text><text x="232.74px" y="6302.38px" style="font-family:'ArialMT';font-size:150px;fill:#000;stroke-width:4.17px;stroke:#000;">13</text><text x="232.435px" y="7969.05px" style="font-family:'ArialMT';font-size:150px;fill:#000;stroke-width:4.17px;stroke:#000;">17</text><text x="239.719px" y="9649.95px" style="font-family:'ArialMT';font-size:150px;fill:#000;stroke-width:4.17px;stroke:#000;">21</text><text x="230.328px" y="11302.4px" style="font-family:'ArialMT';font-size:150px;fill:#000;stroke-width:4.17px;stroke:#000;">25</text><text x="274.451px" y="1719.05px" style="font-family:'ArialMT';font-size:150px;fill:#000;stroke-width:4.17px;stroke:#000;">2</text><text x="274.451px" y="3385.72px" style="font-family:'ArialMT';font-size:150px;fill:#000;stroke-width:4.17px;stroke:#000;">6</text><text x="232.74px" y="5052.38px" style="font-family:'ArialMT';font-size:150px;fill:#000;stroke-width:4.17px;stroke:#000;">10</text><text x="232.74px" y="6719.05px" style="font-family:'ArialMT';font-size:150px;fill:#000;stroke-width:4.17px;stroke:#000;">14</text><text x="232.435px" y="8385.72px" style="font-family:'ArialMT';font-size:150px;fill:#000;stroke-width:4.17px;stroke:#000;">18</text><text x="239.719px" y="10066.6px" style="font-family:'ArialMT';font-size:150px;fill:#000;stroke-width:4.17px;stroke:#000;">22</text><text x="230.328px" y="11719.1px" style="font-family:'ArialMT';font-size:150px;fill:#000;stroke-width:4.17px;stroke:#000;">26</text><text x="274.451px" y="2135.72px" style="font-family:'ArialMT';font-size:150px;fill:#000;stroke-width:4.17px;stroke:#000;">3</text><text x="274.451px" y="3802.38px" style="font-family:'ArialMT';font-size:150px;fill:#000;stroke-width:4.17px;stroke:#000;">7</text><text x="238.306px" y="5469.05px" style="font-family:'ArialMT';font-size:150px;fill:#000;stroke-width:4.17px;stroke:#000;">1<tspan x="310.596px " y="5469.05px ">1</tspan></text><text x="232.74px" y="7135.72px" style="font-family:'ArialMT';font-size:150px;fill:#000;stroke-width:4.17px;stroke:#000;">15</text><text x="232.435px" y="8802.38px" style="font-family:'ArialMT';font-size:150px;fill:#000;stroke-width:4.17px;stroke:#000;">19</text><text x="239.719px" y="10483.3px" style="font-family:'ArialMT';font-size:150px;fill:#000;stroke-width:4.17px;stroke:#000;">23</text><text x="274.451px" y="2552.38px" style="font-family:'ArialMT';font-size:150px;fill:#000;stroke-width:4.17px;stroke:#000;">4</text><text x="274.451px" y="4219.05px" style="font-family:'ArialMT';font-size:150px;fill:#000;stroke-width:4.17px;stroke:#000;">8</text><text x="232.74px" y="5885.72px" style="font-family:'ArialMT';font-size:150px;fill:#000;stroke-width:4.17px;stroke:#000;">12</text><text x="232.435px" y="7552.38px" style="font-family:'ArialMT';font-size:150px;fill:#000;stroke-width:4.17px;stroke:#000;">16</text><text x="239.719px" y="9233.28px" style="font-family:'ArialMT';font-size:150px;fill:#000;stroke-width:4.17px;stroke:#000;">20</text><text x="230.328px" y="10885.7px" style="font-family:'ArialMT';font-size:150px;fill:#000;stroke-width:4.17px;stroke:#000;">24</text></g><rect x="3.682" y="0.837" width="416.667" height="416.667" style="fill:none;stroke-width:4.17px;stroke-miterlimit:1;stroke:#000;"/><rect x="212.015" y="209.171" width="416.667" height="416.667" style="fill:#808080;stroke-width:4.17px;stroke:#000;"/><text x="235.127px" y="525.186px" style="font-family:'ArialMT';font-size:266.667px;fill:#000;stroke-width:4.17px;stroke:#000;">1m</text></g></g></svg>