<?xml version="1.0" standalone="no"?><!DOCTYPE svg PUBLIC "-//W3C//DTD SVG 1.1//EN" "http://www.w3.org/Graphics/SVG/1.1/DTD/svg11.dtd"><svg width="100%" height="100%" viewBox="0 0 1301 2801" version="1.1" xmlns="http://www.w3.org/2000/svg" xmlns:xlink="http://www.w3.org/1999/xlink" xml:space="preserve" style="fill-rule:evenodd;clip-rule:evenodd;stroke-linejoin:round;stroke-miterlimit:1.41421;"><clipPath id="_clip1"><rect id="snowman" x="0.884" y="0.201" width="1300" height="2800"/></clipPath><g clip-path="url(#_clip1)"><g><path d="M275.884,2330.2c0,-179.372 145.627,-325 325,-325c179.372,0 325,145.628 325,325c0,179.372 -145.628,325 -325,325c-179.373,0 -325,-145.628 -325,-325Z" style="fill:none;stroke-width:4.5px;stroke:#d9d9d9;"/><path d="M300.884,1700.2c0,-165.575 134.425,-300 300,-300c165.574,0 300,134.425 300,300c0,165.574 -134.426,300 -300,300c-165.575,0 -300,-134.426 -300,-300Z" style="fill:none;stroke-width:4.5px;stroke:#d9d9d9;"/><path d="M325.884,1100.2c0,-151.777 123.223,-275 275,-275c151.776,0 275,123.223 275,275c0,151.777 -123.224,275 -275,275c-151.777,0 -275,-123.223 -275,-275Z" style="fill:none;stroke-width:4.5px;stroke:#d9d9d9;"/><path d="M350.884,550.201c0,-137.979 112.021,-250 250,-250c137.978,0 250,112.021 250,250c0,137.979 -112.022,250 -250,250c-137.979,0 -250,-112.021 -250,-250Z" style="fill:none;stroke-width:4.5px;stroke:#d9d9d9;"/></g><g id="Layer3"><g><circle cx="720.884" cy="2620.2" r="20" style="fill:#fcd1d1;stroke-width:1px;stroke:#000;"/><circle cx="720.884" cy="2620.2" r="10" style="fill:#fc2e30;stroke-width:1px;stroke:#000;"/></g><g><circle cx="720.884" cy="2700.2" r="20" style="fill:#fcd1d1;stroke-width:1px;stroke:#000;"/><circle cx="720.884" cy="2700.2" r="10" style="fill:#fc2e30;stroke-width:1px;stroke:#000;"/></g><g><circle cx="380.884" cy="2580.2" r="20" style="fill:#fcd1d1;stroke-width:1px;stroke:#000;"/><circle cx="380.884" cy="2580.2" r="10" style="fill:#fc2e30;stroke-width:1px;stroke:#000;"/></g><g><circle cx="480.884" cy="2620.2" r="20" style="fill:#fcd1d1;stroke-width:1px;stroke:#000;"/><circle cx="480.884" cy="2620.2" r="10" style="fill:#fc2e30;stroke-width:1px;stroke:#000;"/></g><g><circle cx="480.884" cy="2700.2" r="20" style="fill:#fcd1d1;stroke-width:1px;stroke:#000;"/><circle cx="480.884" cy="2700.2" r="10" style="fill:#fc2e30;stroke-width:1px;stroke:#000;"/></g><g><circle cx="320.884" cy="2480.2" r="20" style="fill:#fcd1d1;stroke-width:1px;stroke:#000;"/><circle cx="320.884" cy="2480.2" r="10" style="fill:#fc2e30;stroke-width:1px;stroke:#000;"/></g><g><circle cx="280.884" cy="2380.2" r="20" style="fill:#fcd1d1;stroke-width:1px;stroke:#000;"/><circle cx="280.884" cy="2380.2" r="10" style="fill:#fc2e30;stroke-width:1px;stroke:#000;"/></g><g><circle cx="280.884" cy="2280.2" r="20" style="fill:#fcd1d1;stroke-width:1px;stroke:#000;"/><circle cx="280.884" cy="2280.2" r="10" style="fill:#fc2e30;stroke-width:1px;stroke:#000;"/></g><g><circle cx="320.884" cy="2180.2" r="20" style="fill:#fcd1d1;stroke-width:1px;stroke:#000;"/><circle cx="320.884" cy="2180.2" r="10" style="fill:#fc2e30;stroke-width:1px;stroke:#000;"/></g><g><circle cx="380.884" cy="2080.2" r="20" style="fill:#fcd1d1;stroke-width:1px;stroke:#000;"/><circle cx="380.884" cy="2080.2" r="10" style="fill:#fc2e30;stroke-width:1px;stroke:#000;"/></g><g><circle cx="380.884" cy="1920.2" r="20" style="fill:#fcd1d1;stroke-width:1px;stroke:#000;"/><circle cx="380.884" cy="1920.2" r="10" style="fill:#fc2e30;stroke-width:1px;stroke:#000;"/></g><g><circle cx="320.884" cy="1820.2" r="20" style="fill:#fcd1d1;stroke-width:1px;stroke:#000;"/><circle cx="320.884" cy="1820.2" r="10" style="fill:#fc2e30;stroke-width:1px;stroke:#000;"/></g><g><circle cx="320.884" cy="1580.2" r="20" style="fill:#fcd1d1;stroke-width:1px;stroke:#000;"/><circle cx="320.884" cy="1580.2" r="10" style="fill:#fc2e30;stroke-width:1px;stroke:#000;"/></g><g><circle cx="380.884" cy="1480.2" r="20" style="fill:#fcd1d1;stroke-width:1px;stroke:#000;"/><circle cx="380.884" cy="1480.2" r="10" style="fill:#fc2e30;stroke-width:1px;stroke:#000;"/></g><g><circle cx="820.884" cy="1920.2" r="20" style="fill:#fcd1d1;stroke-width:1px;stroke:#000;"/><circle cx="820.884" cy="1920.2" r="10" style="fill:#fc2e30;stroke-width:1px;stroke:#000;"/></g><g><circle cx="880.884" cy="1820.2" r="20" style="fill:#fcd1d1;stroke-width:1px;stroke:#000;"/><circle cx="880.884" cy="1820.2" r="10" style="fill:#fc2e30;stroke-width:1px;stroke:#000;"/></g><g><circle cx="880.884" cy="1580.2" r="20" style="fill:#fcd1d1;stroke-width:1px;stroke:#000;"/><circle cx="880.884" cy="1580.2" r="10" style="fill:#fc2e30;stroke-width:1px;stroke:#000;"/></g><g><circle cx="820.884" cy="1480.2" r="20" style="fill:#fcd1d1;stroke-width:1px;stroke:#000;"/><circle cx="820.884" cy="1480.2" r="10" style="fill:#fc2e30;stroke-width:1px;stroke:#000;"/></g><g><circle cx="880.884" cy="2480.2" r="20" style="fill:#fcd1d1;stroke-width:1px;stroke:#000;"/><circle cx="880.884" cy="2480.2" r="10" style="fill:#fc2e30;stroke-width:1px;stroke:#000;"/></g><g><circle cx="880.884" cy="2180.2" r="20" style="fill:#fcd1d1;stroke-width:1px;stroke:#000;"/><circle cx="880.884" cy="2180.2" r="10" style="fill:#fc2e30;stroke-width:1px;stroke:#000;"/></g><g><circle cx="820.884" cy="2080.2" r="20" style="fill:#fcd1d1;stroke-width:1px;stroke:#000;"/><circle cx="820.884" cy="2080.2" r="10" style="fill:#fc2e30;stroke-width:1px;stroke:#000;"/></g><g><circle cx="920.884" cy="2280.2" r="20" style="fill:#fcd1d1;stroke-width:1px;stroke:#000;"/><circle cx="920.884" cy="2280.2" r="10" style="fill:#fc2e30;stroke-width:1px;stroke:#000;"/></g><g><circle cx="920.884" cy="2380.2" r="20" style="fill:#fcd1d1;stroke-width:1px;stroke:#000;"/><circle cx="920.884" cy="2380.2" r="10" style="fill:#fc2e30;stroke-width:1px;stroke:#000;"/></g><g><circle cx="820.884" cy="2580.2" r="20" style="fill:#fcd1d1;stroke-width:1px;stroke:#000;"/><circle cx="820.884" cy="2580.2" r="10" style="fill:#fc2e30;stroke-width:1px;stroke:#000;"/></g><g><circle cx="500.884" cy="2000.2" r="20" style="fill:#fcd1d1;stroke-width:1px;stroke:#000;"/><circle cx="500.884" cy="2000.2" r="10" style="fill:#fc2e30;stroke-width:1px;stroke:#000;"/></g><g><circle cx="700.884" cy="2000.2" r="20" style="fill:#fcd1d1;stroke-width:1px;stroke:#000;"/><circle cx="700.884" cy="2000.2" r="10" style="fill:#fc2e30;stroke-width:1px;stroke:#000;"/></g><g><circle cx="900.884" cy="1700.2" r="20" style="fill:#fcd1d1;stroke-width:1px;stroke:#000;"/><circle cx="900.884" cy="1700.2" r="10" style="fill:#fc2e30;stroke-width:1px;stroke:#000;"/></g><g><circle cx="700.884" cy="1390.2" r="20" style="fill:#fcd1d1;stroke-width:1px;stroke:#000;"/><circle cx="700.884" cy="1390.2" r="10" style="fill:#fc2e30;stroke-width:1px;stroke:#000;"/></g><g><circle cx="820.884" cy="1280.2" r="20" style="fill:#fcd1d1;stroke-width:1px;stroke:#000;"/><circle cx="820.884" cy="1280.2" r="10" style="fill:#fc2e30;stroke-width:1px;stroke:#000;"/></g><g><circle cx="880.884" cy="1100.2" r="20" style="fill:#fcd1d1;stroke-width:1px;stroke:#000;"/><circle cx="880.884" cy="1100.2" r="10" style="fill:#fc2e30;stroke-width:1px;stroke:#000;"/></g><g><circle cx="820.884" cy="920.201" r="20" style="fill:#fcd1d1;stroke-width:1px;stroke:#000;"/><circle cx="820.884" cy="920.201" r="10" style="fill:#fc2e30;stroke-width:1px;stroke:#000;"/></g><g><circle cx="500.884" cy="1390.2" r="20" style="fill:#fcd1d1;stroke-width:1px;stroke:#000;"/><circle cx="500.884" cy="1390.2" r="10" style="fill:#fc2e30;stroke-width:1px;stroke:#000;"/></g><g><circle cx="320.884" cy="1100.2" r="20" style="fill:#fcd1d1;stroke-width:1px;stroke:#000;"/><circle cx="320.884" cy="1100.2" r="10" style="fill:#fc2e30;stroke-width:1px;stroke:#000;"/></g><g><circle cx="380.884" cy="1280.2" r="20" style="fill:#fcd1d1;stroke-width:1px;stroke:#000;"/><circle cx="380.884" cy="1280.2" r="10" style="fill:#fc2e30;stroke-width:1px;stroke:#000;"/></g><g><circle cx="380.884" cy="920.201" r="20" style="fill:#fcd1d1;stroke-width:1px;stroke:#000;"/><circle cx="380.884" cy="920.201" r="10" style="fill:#fc2e30;stroke-width:1px;stroke:#000;"/></g><g><circle cx="300.884" cy="1700.2" r="20" style="fill:#fcd1d1;stroke-width:1px;stroke:#000;"/><circle cx="300.884" cy="1700.2" r="10" style="fill:#fc2e30;stroke-width:1px;stroke:#000;"/></g><g><circle cx="680.884" cy="810.201" r="20" style="fill:#fcd1d1;stroke-width:1px;stroke:#000;"/><circle cx="680.884" cy="810.201" r="10" style="fill:#fc2e30;stroke-width:1px;stroke:#000;"/></g><g><circle cx="520.884" cy="810.201" r="20" style="fill:#fcd1d1;stroke-width:1px;stroke:#000;"/><circle cx="520.884" cy="810.201" r="10" style="fill:#fc2e30;stroke-width:1px;stroke:#000;"/></g><g><circle cx="520.884" cy="320.201" r="20" style="fill:#fcd1d1;stroke-width:1px;stroke:#000;"/><circle cx="520.884" cy="320.201" r="10" style="fill:#fc2e30;stroke-width:1px;stroke:#000;"/></g><g><circle cx="520.884" cy="220.201" r="20" style="fill:#fcd1d1;stroke-width:1px;stroke:#000;"/><circle cx="520.884" cy="220.201" r="10" style="fill:#fc2e30;stroke-width:1px;stroke:#000;"/></g><g><circle cx="680.884" cy="220.201" r="20" style="fill:#fcd1d1;stroke-width:1px;stroke:#000;"/><circle cx="680.884" cy="220.201" r="10" style="fill:#fc2e30;stroke-width:1px;stroke:#000;"/></g><g><circle cx="350.884" cy="550.201" r="20" style="fill:#fcd1d1;stroke-width:1px;stroke:#000;"/><circle cx="350.884" cy="550.201" r="10" style="fill:#fc2e30;stroke-width:1px;stroke:#000;"/></g><g><circle cx="400.884" cy="400.201" r="20" style="fill:#fcd1d1;stroke-width:1px;stroke:#000;"/><circle cx="400.884" cy="400.201" r="10" style="fill:#fc2e30;stroke-width:1px;stroke:#000;"/></g><g><circle cx="400.884" cy="700.201" r="20" style="fill:#fcd1d1;stroke-width:1px;stroke:#000;"/><circle cx="400.884" cy="700.201" r="10" style="fill:#fc2e30;stroke-width:1px;stroke:#000;"/></g><g><circle cx="680.884" cy="320.201" r="20" style="fill:#fcd1d1;stroke-width:1px;stroke:#000;"/><circle cx="680.884" cy="320.201" r="10" style="fill:#fc2e30;stroke-width:1px;stroke:#000;"/></g><g><circle cx="800.884" cy="400.201" r="20" style="fill:#fcd1d1;stroke-width:1px;stroke:#000;"/><circle cx="800.884" cy="400.201" r="10" style="fill:#fc2e30;stroke-width:1px;stroke:#000;"/></g><g><circle cx="800.884" cy="700.201" r="20" style="fill:#fcd1d1;stroke-width:1px;stroke:#000;"/><circle cx="800.884" cy="700.201" r="10" style="fill:#fc2e30;stroke-width:1px;stroke:#000;"/></g><g><circle cx="850.884" cy="550.201" r="20" style="fill:#fcd1d1;stroke-width:1px;stroke:#000;"/><circle cx="850.884" cy="550.201" r="10" style="fill:#fc2e30;stroke-width:1px;stroke:#000;"/></g><path d="M600.884,2750.2c0,0 -17.793,-114.404 40,-140c129.93,-57.545 234.249,-195.405 240,-280c16.272,-239.35 -548.238,-417.717 -550,-10c-1.765,408.17 545.262,219.095 500,-20c-14.603,-77.135 -126.59,-234.058 -230,-290c-424.766,-229.788 -207.263,-535.336 0,-550c343.378,-24.294 334.182,493.858 30,480c-220.87,-10.063 -361.635,-410.13 -70,-510c151.791,-51.981 292.218,-255.374 280,-340c-39.512,-273.667 -450.708,-329.863 -480,-10c-28.088,306.711 395.735,347.452 450,30c10.087,-59.014 -103.308,-243.231 -210,-300c-85.796,-45.65 -221.85,-171.517 -210,-260c39.822,-297.368 376.285,-230.697 420,-10c35.765,180.565 -275.739,330.83 -380,50c-41.009,-110.457 158.833,-256.656 170,-280c28.115,-58.777 0,-150 0,-150" style="fill:none;stroke-width:8px;stroke-dasharray:24,48,0,0;stroke:#14a90c;stroke-opacity:0.698039;"/></g><g><rect x="550.885" y="2747.95" width="100" height="4.5" style="fill:#000;"/><rect x="598.635" y="2750.2" width="4.5" height="50" style="fill:#000;"/></g><g id="grid"><g id="bold lines"><path d="M700.884,100.201l0,2800" style="fill:none;stroke-width:1px;stroke-miterlimit:1;stroke:#000;stroke-opacity:0.298039;"/><path d="M100.884,700.201l2600,0" style="fill:none;stroke-width:1px;stroke-miterlimit:1;stroke:#000;stroke-opacity:0.298039;"/><path d="M1200.88,100.201l0,2800" style="fill:none;stroke-width:1px;stroke-miterlimit:1;stroke:#000;stroke-opacity:0.298039;"/><path d="M100.884,1200.2l2600,0" style="fill:none;stroke-width:1px;stroke-miterlimit:1;stroke:#000;stroke-opacity:0.298039;"/><path d="M100.884,1700.2l2600,0" style="fill:none;stroke-width:1px;stroke-miterlimit:1;stroke:#000;stroke-opacity:0.298039;"/><path d="M100.884,2200.2l2600,0" style="fill:none;stroke-width:1px;stroke-miterlimit:1;stroke:#000;stroke-opacity:0.298039;"/><path d="M100.884,2700.2l2600,0" style="fill:none;stroke-width:1px;stroke-miterlimit:1;stroke:#000;stroke-opacity:0.298039;"/><path d="M100.884,200.201l2600,0" style="fill:none;stroke-width:1px;stroke-miterlimit:1;stroke:#000;stroke-opacity:0.298039;"/><path d="M200.884,2900.2l0,-2800" style="fill:none;stroke-width:1px;stroke-miterlimit:1;stroke:#000;stroke-opacity:0.298039;"/></g><g id="vertical lines"><path d="M100.884,100.201l0,2800" style="fill:none;stroke-width:1px;stroke-linejoin:miter;stroke-miterlimit:1;stroke-dasharray:10,44,2,44;stroke-dashoffset:5;stroke:#000;"/><path d="M700.884,100.201l0,2800" style="fill:none;stroke-width:1px;stroke-linejoin:miter;stroke-miterlimit:1;stroke-dasharray:10,44,2,44;stroke-dashoffset:5;stroke:#000;"/><path d="M1300.88,100.201l0,2800" style="fill:none;stroke-width:1px;stroke-linejoin:miter;stroke-miterlimit:1;stroke-dasharray:10,44,2,44;stroke-dashoffset:5;stroke:#000;"/><path d="M300.884,100.201l0,2800" style="fill:none;stroke-width:1px;stroke-linejoin:miter;stroke-miterlimit:1;stroke-dasharray:10,44,2,44;stroke-dashoffset:5;stroke:#000;"/><path d="M900.884,100.201l0,2800" style="fill:none;stroke-width:1px;stroke-linejoin:miter;stroke-miterlimit:1;stroke-dasharray:10,44,2,44;stroke-dashoffset:5;stroke:#000;"/><path d="M500.884,100.201l0,2800" style="fill:none;stroke-width:1px;stroke-linejoin:miter;stroke-miterlimit:1;stroke-dasharray:10,44,2,44;stroke-dashoffset:5;stroke:#000;"/><path d="M1100.88,100.201l0,2800" style="fill:none;stroke-width:1px;stroke-linejoin:miter;stroke-miterlimit:1;stroke-dasharray:10,44,2,44;stroke-dashoffset:5;stroke:#000;"/><path d="M200.884,100.201l0,2800" style="fill:none;stroke-width:1px;stroke-linejoin:miter;stroke-miterlimit:1;stroke-dasharray:10,44,2,44;stroke-dashoffset:5;stroke:#000;"/><path d="M800.884,100.201l0,2800" style="fill:none;stroke-width:1px;stroke-linejoin:miter;stroke-miterlimit:1;stroke-dasharray:10,44,2,44;stroke-dashoffset:5;stroke:#000;"/><path d="M400.884,100.201l0,2800" style="fill:none;stroke-width:1px;stroke-linejoin:miter;stroke-miterlimit:1;stroke-dasharray:10,44,2,44;stroke-dashoffset:5;stroke:#000;"/><path d="M1000.88,100.201l0,2800" style="fill:none;stroke-width:1px;stroke-linejoin:miter;stroke-miterlimit:1;stroke-dasharray:10,44,2,44;stroke-dashoffset:5;stroke:#000;"/><path d="M600.884,100.201l0,2800" style="fill:none;stroke-width:1px;stroke-linejoin:miter;stroke-miterlimit:1;stroke-dasharray:10,44,2,44;stroke-dashoffset:5;stroke:#000;"/><path d="M1200.88,100.201l0,2800" style="fill:none;stroke-width:1px;stroke-linejoin:miter;stroke-miterlimit:1;stroke-dasharray:10,44,2,44;stroke-dashoffset:5;stroke:#000;"/></g><g id="horizontal lines"><path d="M100.884,100.201l2600,0" style="fill:none;stroke-width:1px;stroke-dasharray:10,44,2,44;stroke-dashoffset:5;stroke:#000;"/><path d="M100.884,500.201l2600,0" style="fill:none;stroke-width:1px;stroke-dasharray:10,44,2,44;stroke-dashoffset:5;stroke:#000;"/><path d="M100.884,900.201l2600,0" style="fill:none;stroke-width:1px;stroke-dasharray:10,44,2,44;stroke-dashoffset:5;stroke:#000;"/><path d="M100.884,1300.2l2600,0" style="fill:none;stroke-width:1px;stroke-dasharray:10,44,2,44;stroke-dashoffset:5;stroke:#000;"/><path d="M2700.88,200.201l-2600,0" style="fill:none;stroke-width:1px;stroke-dasharray:10,44,2,44;stroke-dashoffset:5;stroke:#000;"/><path d="M2700.88,600.201l-2600,0" style="fill:none;stroke-width:1px;stroke-dasharray:10,44,2,44;stroke-dashoffset:5;stroke:#000;"/><path d="M2700.88,1000.2l-2600,0" style="fill:none;stroke-width:1px;stroke-dasharray:10,44,2,44;stroke-dashoffset:5;stroke:#000;"/><path d="M2700.88,1400.2l-2600,0" style="fill:none;stroke-width:1px;stroke-dasharray:10,44,2,44;stroke-dashoffset:5;stroke:#000;"/><path d="M100.884,300.201l2600,0" style="fill:none;stroke-width:1px;stroke-dasharray:10,44,2,44;stroke-dashoffset:5;stroke:#000;"/><path d="M100.884,700.201l2600,0" style="fill:none;stroke-width:1px;stroke-dasharray:10,44,2,44;stroke-dashoffset:5;stroke:#000;"/><path d="M100.884,1100.2l2600,0" style="fill:none;stroke-width:1px;stroke-dasharray:10,44,2,44;stroke-dashoffset:5;stroke:#000;"/><path d="M100.884,1500.2l2600,0" style="fill:none;stroke-width:1px;stroke-dasharray:10,44,2,44;stroke-dashoffset:5;stroke:#000;"/><path d="M100.884,400.201l2600,0" style="fill:none;stroke-width:1px;stroke-dasharray:10,44,2,44;stroke-dashoffset:5;stroke:#000;"/><path d="M100.884,800.201l2600,0" style="fill:none;stroke-width:1px;stroke-dasharray:10,44,2,44;stroke-dashoffset:5;stroke:#000;"/><path d="M100.884,1200.2l2600,0" style="fill:none;stroke-width:1px;stroke-dasharray:10,44,2,44;stroke-dashoffset:5;stroke:#000;"/><path d="M100.884,1600.2l2600,0" style="fill:none;stroke-width:1px;stroke-dasharray:10,44,2,44;stroke-dashoffset:5;stroke:#000;"/><path d="M100.884,1800.2l2600,0" style="fill:none;stroke-width:1px;stroke-dasharray:10,44,2,44;stroke-dashoffset:5;stroke:#000;"/><path d="M100.884,2000.2l2600,0" style="fill:none;stroke-width:1px;stroke-dasharray:10,44,2,44;stroke-dashoffset:5;stroke:#000;"/><path d="M100.884,2200.2l2600,0" style="fill:none;stroke-width:1px;stroke-dasharray:10,44,2,44;stroke-dashoffset:5;stroke:#000;"/><path d="M100.884,2400.2l2600,0" style="fill:none;stroke-width:1px;stroke-dasharray:10,44,2,44;stroke-dashoffset:5;stroke:#000;"/><path d="M100.884,2600.2l2600,0" style="fill:none;stroke-width:1px;stroke-dasharray:10,44,2,44;stroke-dashoffset:5;stroke:#000;"/><path d="M100.884,2800.2l2600,0" style="fill:none;stroke-width:1px;stroke-dasharray:10,44,2,44;stroke-dashoffset:5;stroke:#000;"/><path d="M100.884,1700.2l2600,0" style="fill:none;stroke-width:1px;stroke-dasharray:10,44,2,44;stroke-dashoffset:5;stroke:#000;"/><path d="M100.884,1900.2l2600,0" style="fill:none;stroke-width:1px;stroke-dasharray:10,44,2,44;stroke-dashoffset:5;stroke:#000;"/><path d="M100.884,2100.2l2600,0" style="fill:none;stroke-width:1px;stroke-dasharray:10,44,2,44;stroke-dashoffset:5;stroke:#000;"/><path d="M100.884,2300.2l2600,0" style="fill:none;stroke-width:1px;stroke-dasharray:10,44,2,44;stroke-dashoffset:5;stroke:#000;"/><path d="M100.884,2500.2l2600,0" style="fill:none;stroke-width:1px;stroke-dasharray:10,44,2,44;stroke-dashoffset:5;stroke:#000;"/><path d="M100.884,2700.2l2600,0" style="fill:none;stroke-width:1px;stroke-dasharray:10,44,2,44;stroke-dashoffset:5;stroke:#000;"/></g><g id="top labels"><rect x="150.884" y="50.201" width="100" height="50" style="fill:#808080;stroke-width:1px;stroke:#000;"/><rect x="650.884" y="50.201" width="100" height="50" style="fill:#808080;stroke-width:1px;stroke:#000;"/><rect x="1150.88" y="50.201" width="100" height="50" style="fill:#808080;stroke-width:1px;stroke:#000;"/><rect x="250.884" y="50.201" width="100" height="50" style="fill:#808080;stroke-width:1px;stroke:#000;"/><rect x="750.884" y="50.201" width="100" height="50" style="fill:#808080;stroke-width:1px;stroke:#000;"/><rect x="1250.88" y="50.201" width="100" height="50" style="fill:#808080;stroke-width:1px;stroke:#000;"/><rect x="350.884" y="50.201" width="100" height="50" style="fill:#808080;stroke-width:1px;stroke:#000;"/><rect x="850.884" y="50.201" width="100" height="50" style="fill:#808080;stroke-width:1px;stroke:#000;"/><rect x="450.884" y="50.201" width="100" height="50" style="fill:#808080;stroke-width:1px;stroke:#000;"/><rect x="950.884" y="50.201" width="100" height="50" style="fill:#808080;stroke-width:1px;stroke:#000;"/><rect x="550.884" y="50.201" width="100" height="50" style="fill:#808080;stroke-width:1px;stroke:#000;"/><rect x="1050.88" y="50.201" width="100" height="50" style="fill:#808080;stroke-width:1px;stroke:#000;"/><text x="188.893px" y="89.28px" style="font-family:'ArialMT';font-size:36px;fill:#000;stroke-width:1px;stroke:#000;">A</text><text x="688.893px" y="89.28px" style="font-family:'ArialMT';font-size:36px;fill:#000;stroke-width:1px;stroke:#000;">F</text><text x="1188.89px" y="89.28px" style="font-family:'ArialMT';font-size:36px;fill:#000;stroke-width:1px;stroke:#000;">K</text><text x="288.893px" y="89.28px" style="font-family:'ArialMT';font-size:36px;fill:#000;stroke-width:1px;stroke:#000;">B</text><text x="788.893px" y="89.28px" style="font-family:'ArialMT';font-size:36px;fill:#000;stroke-width:1px;stroke:#000;">G</text><text x="1288.89px" y="89.28px" style="font-family:'ArialMT';font-size:36px;fill:#000;stroke-width:1px;stroke:#000;">L</text><text x="388.893px" y="89.28px" style="font-family:'ArialMT';font-size:36px;fill:#000;stroke-width:1px;stroke:#000;">C</text><text x="888.893px" y="89.28px" style="font-family:'ArialMT';font-size:36px;fill:#000;stroke-width:1px;stroke:#000;">H</text><text x="488.893px" y="89.28px" style="font-family:'ArialMT';font-size:36px;fill:#000;stroke-width:1px;stroke:#000;">D</text><text x="995.898px" y="89.28px" style="font-family:'ArialMT';font-size:36px;fill:#000;stroke-width:1px;stroke:#000;">I</text><text x="588.893px" y="89.28px" style="font-family:'ArialMT';font-size:36px;fill:#000;stroke-width:1px;stroke:#000;">E</text><text x="1088.89px" y="89.28px" style="font-family:'ArialMT';font-size:36px;fill:#000;stroke-width:1px;stroke:#000;">J</text></g><g id="top numbers"><text x="293.652px" y="45.963px" style="font-family:'ArialMT';font-size:20px;fill:#000;stroke-width:1px;stroke:#000;">1</text><text x="195.322px" y="45.963px" style="font-family:'ArialMT';font-size:20px;fill:#000;stroke-width:1px;stroke:#000;">0</text><text x="793.652px" y="45.963px" style="font-family:'ArialMT';font-size:20px;fill:#000;stroke-width:1px;stroke:#000;">6</text><text x="1289px" y="45.963px" style="font-family:'ArialMT';font-size:20px;fill:#000;stroke-width:1px;stroke:#000;">1<tspan x="1298.64px " y="45.963px ">1</tspan></text><text x="393.652px" y="45.963px" style="font-family:'ArialMT';font-size:20px;fill:#000;stroke-width:1px;stroke:#000;">2</text><text x="894.199px" y="45.963px" style="font-family:'ArialMT';font-size:20px;fill:#000;stroke-width:1px;stroke:#000;">7</text><text x="493.652px" y="45.963px" style="font-family:'ArialMT';font-size:20px;fill:#000;stroke-width:1px;stroke:#000;">3</text><text x="994.199px" y="45.963px" style="font-family:'ArialMT';font-size:20px;fill:#000;stroke-width:1px;stroke:#000;">8</text><text x="593.652px" y="45.963px" style="font-family:'ArialMT';font-size:20px;fill:#000;stroke-width:1px;stroke:#000;">4</text><text x="1094.2px" y="45.963px" style="font-family:'ArialMT';font-size:20px;fill:#000;stroke-width:1px;stroke:#000;">9</text><text x="693.652px" y="45.963px" style="font-family:'ArialMT';font-size:20px;fill:#000;stroke-width:1px;stroke:#000;">5</text><text x="1189.76px" y="45.963px" style="font-family:'ArialMT';font-size:20px;fill:#000;stroke-width:1px;stroke:#000;">10</text></g><g id="side labels"><rect x="50.884" y="250.201" width="50" height="100" style="fill:#808080;stroke-width:1px;stroke:#000;"/><rect x="50.884" y="150.201" width="50" height="100" style="fill:#808080;stroke-width:1px;stroke:#000;"/><rect x="50.884" y="650.201" width="50" height="100" style="fill:#808080;stroke-width:1px;stroke:#000;"/><rect x="50.884" y="1050.2" width="50" height="100" style="fill:#808080;stroke-width:1px;stroke:#000;"/><rect x="50.884" y="1450.2" width="50" height="100" style="fill:#808080;stroke-width:1px;stroke:#000;"/><rect x="50.884" y="350.201" width="50" height="100" style="fill:#808080;stroke-width:1px;stroke:#000;"/><rect x="50.884" y="750.201" width="50" height="100" style="fill:#808080;stroke-width:1px;stroke:#000;"/><rect x="50.884" y="1150.2" width="50" height="100" style="fill:#808080;stroke-width:1px;stroke:#000;"/><rect x="50.884" y="1550.2" width="50" height="100" style="fill:#808080;stroke-width:1px;stroke:#000;"/><rect x="50.884" y="1750.2" width="50" height="100" style="fill:#808080;stroke-width:1px;stroke:#000;"/><rect x="50.884" y="1950.2" width="50" height="100" style="fill:#808080;stroke-width:1px;stroke:#000;"/><rect x="50.884" y="2150.2" width="50" height="100" style="fill:#808080;stroke-width:1px;stroke:#000;"/><rect x="50.884" y="2350.2" width="50" height="100" style="fill:#808080;stroke-width:1px;stroke:#000;"/><rect x="50.884" y="2550.2" width="50" height="100" style="fill:#808080;stroke-width:1px;stroke:#000;"/><rect x="50.884" y="2750.2" width="50" height="100" style="fill:#808080;stroke-width:1px;stroke:#000;"/><rect x="50.884" y="450.201" width="50" height="100" style="fill:#808080;stroke-width:1px;stroke:#000;"/><rect x="50.884" y="850.201" width="50" height="100" style="fill:#808080;stroke-width:1px;stroke:#000;"/><rect x="50.884" y="1250.2" width="50" height="100" style="fill:#808080;stroke-width:1px;stroke:#000;"/><rect x="50.884" y="1650.2" width="50" height="100" style="fill:#808080;stroke-width:1px;stroke:#000;"/><rect x="50.884" y="1850.2" width="50" height="100" style="fill:#808080;stroke-width:1px;stroke:#000;"/><rect x="50.884" y="2050.2" width="50" height="100" style="fill:#808080;stroke-width:1px;stroke:#000;"/><rect x="50.884" y="2250.2" width="50" height="100" style="fill:#808080;stroke-width:1px;stroke:#000;"/><rect x="50.884" y="2450.2" width="50" height="100" style="fill:#808080;stroke-width:1px;stroke:#000;"/><rect x="50.884" y="2650.2" width="50" height="100" style="fill:#808080;stroke-width:1px;stroke:#000;"/><rect x="50.884" y="550.201" width="50" height="100" style="fill:#808080;stroke-width:1px;stroke:#000;"/><rect x="50.884" y="950.201" width="50" height="100" style="fill:#808080;stroke-width:1px;stroke:#000;"/><rect x="50.884" y="1350.2" width="50" height="100" style="fill:#808080;stroke-width:1px;stroke:#000;"/><text x="65.868px" y="312.572px" style="font-family:'ArialMT';font-size:36px;fill:#000;stroke-width:1px;stroke:#000;">1</text><text x="65.868px" y="212.572px" style="font-family:'ArialMT';font-size:36px;fill:#000;stroke-width:1px;stroke:#000;">0</text><text x="65.868px" y="712.572px" style="font-family:'ArialMT';font-size:36px;fill:#000;stroke-width:1px;stroke:#000;">5</text><text x="65.868px" y="1112.57px" style="font-family:'ArialMT';font-size:36px;fill:#000;stroke-width:1px;stroke:#000;">9</text><text x="55.858px" y="1512.57px" style="font-family:'ArialMT';font-size:36px;fill:#000;stroke-width:1px;stroke:#000;">13</text><text x="55.784px" y="1912.57px" style="font-family:'ArialMT';font-size:36px;fill:#000;stroke-width:1px;stroke:#000;">17</text><text x="57.533px" y="2315.99px" style="font-family:'ArialMT';font-size:36px;fill:#000;stroke-width:1px;stroke:#000;">21</text><text x="55.279px" y="2712.57px" style="font-family:'ArialMT';font-size:36px;fill:#000;stroke-width:1px;stroke:#000;">25</text><text x="65.868px" y="412.572px" style="font-family:'ArialMT';font-size:36px;fill:#000;stroke-width:1px;stroke:#000;">2</text><text x="65.868px" y="812.572px" style="font-family:'ArialMT';font-size:36px;fill:#000;stroke-width:1px;stroke:#000;">6</text><text x="55.858px" y="1212.57px" style="font-family:'ArialMT';font-size:36px;fill:#000;stroke-width:1px;stroke:#000;">10</text><text x="55.858px" y="1612.57px" style="font-family:'ArialMT';font-size:36px;fill:#000;stroke-width:1px;stroke:#000;">14</text><text x="55.784px" y="2012.57px" style="font-family:'ArialMT';font-size:36px;fill:#000;stroke-width:1px;stroke:#000;">18</text><text x="57.533px" y="2415.99px" style="font-family:'ArialMT';font-size:36px;fill:#000;stroke-width:1px;stroke:#000;">22</text><text x="55.279px" y="2812.57px" style="font-family:'ArialMT';font-size:36px;fill:#000;stroke-width:1px;stroke:#000;">26</text><text x="65.868px" y="512.572px" style="font-family:'ArialMT';font-size:36px;fill:#000;stroke-width:1px;stroke:#000;">3</text><text x="65.868px" y="912.572px" style="font-family:'ArialMT';font-size:36px;fill:#000;stroke-width:1px;stroke:#000;">7</text><text x="57.194px" y="1312.57px" style="font-family:'ArialMT';font-size:36px;fill:#000;stroke-width:1px;stroke:#000;">1<tspan x="74.543px " y="1312.57px ">1</tspan></text><text x="55.858px" y="1712.57px" style="font-family:'ArialMT';font-size:36px;fill:#000;stroke-width:1px;stroke:#000;">15</text><text x="55.784px" y="2112.57px" style="font-family:'ArialMT';font-size:36px;fill:#000;stroke-width:1px;stroke:#000;">19</text><text x="57.533px" y="2515.99px" style="font-family:'ArialMT';font-size:36px;fill:#000;stroke-width:1px;stroke:#000;">23</text><text x="65.868px" y="612.572px" style="font-family:'ArialMT';font-size:36px;fill:#000;stroke-width:1px;stroke:#000;">4</text><text x="65.868px" y="1012.57px" style="font-family:'ArialMT';font-size:36px;fill:#000;stroke-width:1px;stroke:#000;">8</text><text x="55.858px" y="1412.57px" style="font-family:'ArialMT';font-size:36px;fill:#000;stroke-width:1px;stroke:#000;">12</text><text x="55.784px" y="1812.57px" style="font-family:'ArialMT';font-size:36px;fill:#000;stroke-width:1px;stroke:#000;">16</text><text x="57.533px" y="2215.99px" style="font-family:'ArialMT';font-size:36px;fill:#000;stroke-width:1px;stroke:#000;">20</text><text x="55.279px" y="2612.57px" style="font-family:'ArialMT';font-size:36px;fill:#000;stroke-width:1px;stroke:#000;">24</text></g><rect x="0.884" y="0.201" width="100" height="100" style="fill:none;stroke-width:1px;stroke-miterlimit:1;stroke:#000;"/><rect x="50.884" y="50.201" width="100" height="100" style="fill:#808080;stroke-width:1px;stroke:#000;"/><text x="56.431px" y="126.045px" style="font-family:'ArialMT';font-size:64px;fill:#000;stroke-width:1px;stroke:#000;">1m</text></g></g></svg>