<?xml version="1.0" standalone="no"?>
<!DOCTYPE svg PUBLIC "-//W3C//DTD SVG 1.1//EN" "http://www.w3.org/Graphics/SVG/1.1/DTD/svg11.dtd">
<svg width="100%" height="100%" viewBox="0 0 3677 2304" version="1.1" xmlns="http://www.w3.org/2000/svg" xmlns:xlink="http://www.w3.org/1999/xlink" xml:space="preserve" style="fill-rule:evenodd;clip-rule:evenodd;stroke-linejoin:round;stroke-miterlimit:1;">
    <g transform="matrix(1,0,0,1,-11782,-0)">
        <g id="parking-4" transform="matrix(2.87248,0,0,2.25,11782,4.54747e-13)">
            <g transform="matrix(2.08676,0,0,5.15206,-116.151,-2349.03)">
                <g transform="matrix(0.516355,0,0,0.342776,217.275,407.725)">
                    <rect x="676.756" y="269.252" width="4.487" height="305.495" style="fill:black;"/>
                </g>
                <g transform="matrix(0.516355,0,0,0.342776,167.974,407.725)">
                    <rect x="676.756" y="269.252" width="4.487" height="305.495" style="fill:black;"/>
                </g>
                <g transform="matrix(-2.3627e-16,-0.975331,1.46923,-1.56845e-16,-273.988,1214.63)">
                    <rect x="678.386" y="270.212" width="1.228" height="303.577" style="fill:black;"/>
                </g>
                <g transform="matrix(0.516355,0,0,0.342776,118.674,407.725)">
                    <rect x="676.756" y="269.252" width="4.487" height="305.495" style="fill:black;"/>
                </g>
                <g transform="matrix(0.516355,0,0,0.342776,69.3729,407.725)">
                    <rect x="676.756" y="269.252" width="4.487" height="305.495" style="fill:black;"/>
                </g>
                <g transform="matrix(0.516355,0,0,0.342776,20.0721,407.725)">
                    <rect x="676.756" y="269.252" width="4.487" height="305.495" style="fill:black;"/>
                </g>
                <g transform="matrix(0.516355,0,0,0.342776,-29.2287,407.725)">
                    <rect x="676.756" y="269.252" width="4.487" height="305.495" style="fill:black;"/>
                </g>
                <g transform="matrix(0.516355,0,0,0.342776,-78.5295,407.725)">
                    <rect x="676.756" y="269.252" width="4.487" height="305.495" style="fill:black;"/>
                </g>
                <g transform="matrix(0.516355,0,0,0.342776,-127.83,407.725)">
                    <rect x="676.756" y="269.252" width="4.487" height="305.495" style="fill:black;"/>
                </g>
                <g transform="matrix(0.516355,0,0,0.342776,-177.131,407.725)">
                    <rect x="676.756" y="269.252" width="4.487" height="305.495" style="fill:black;"/>
                </g>
                <g transform="matrix(0.516355,0,0,0.342776,-226.432,407.725)">
                    <rect x="676.756" y="269.252" width="4.487" height="305.495" style="fill:black;"/>
                </g>
            </g>
            <g transform="matrix(0.126249,-3.77701e-17,-6.84244e-16,0.161177,685.436,-124.012)">
                <path d="M1097.11,3478.42C1097.11,3453.29 1076.71,3432.89 1051.58,3432.89L960.528,3432.89C935.4,3432.89 915,3453.29 915,3478.42L915,3569.47C915,3594.6 935.4,3615 960.528,3615L1051.58,3615C1076.71,3615 1097.11,3594.6 1097.11,3569.47L1097.11,3478.42Z" style="fill:rgb(23,16,252);"/>
            </g>
            <g transform="matrix(0.126249,-3.77701e-17,-6.84244e-16,0.161177,838.987,-5.80846)">
                <path d="M1097.11,3478.42C1097.11,3453.29 1076.71,3432.89 1051.58,3432.89L960.528,3432.89C935.4,3432.89 915,3453.29 915,3478.42L915,3569.47C915,3594.6 935.4,3615 960.528,3615L1051.58,3615C1076.71,3615 1097.11,3594.6 1097.11,3569.47L1097.11,3478.42Z" style="fill:rgb(23,16,252);"/>
            </g>
            <g transform="matrix(0.126249,-3.77701e-17,-6.84244e-16,0.161177,685.436,-5.80846)">
                <path d="M1097.11,3478.42C1097.11,3453.29 1076.71,3432.89 1051.58,3432.89L960.528,3432.89C935.4,3432.89 915,3453.29 915,3478.42L915,3569.47C915,3594.6 935.4,3615 960.528,3615L1051.58,3615C1076.71,3615 1097.11,3594.6 1097.11,3569.47L1097.11,3478.42Z" style="fill:rgb(23,16,252);"/>
            </g>
            <g transform="matrix(0.126249,-3.77701e-17,-6.84244e-16,0.161177,838.987,-192.447)">
                <path d="M1097.11,3478.42C1097.11,3453.29 1076.71,3432.89 1051.58,3432.89L960.528,3432.89C935.4,3432.89 915,3453.29 915,3478.42L915,3569.47C915,3594.6 935.4,3615 960.528,3615L1051.58,3615C1076.71,3615 1097.11,3594.6 1097.11,3569.47L1097.11,3478.42Z" style="fill:rgb(23,16,252);"/>
            </g>
            <g transform="matrix(0.348131,0,0,0.444444,-4101.68,-2.0211e-13)">
                <path d="M12137,1117.9C12650.1,1117.08 13676.4,1115.44 14114.7,1117.9C14749.6,1121.47 14712.7,790.297 14698,517.905" style="fill:none;stroke-width:100px;stroke:rgb(20,169,12);stroke-opacity:0.698039;"/>
            </g>
            <g transform="matrix(0.348131,0,0,0.444444,-4101.68,-2.0211e-13)">
                <path d="M14115.7,1117.9C14812.1,1093.77 14730,1250.92 14732,1717.9" style="fill:none;stroke-width:100px;stroke:rgb(20,169,12);stroke-opacity:0.698039;"/>
            </g>
        </g>
    </g>
</svg>
