<?xml version="1.0" standalone="no"?>
<!DOCTYPE svg PUBLIC "-//W3C//DTD SVG 1.1//EN" "http://www.w3.org/Graphics/SVG/1.1/DTD/svg11.dtd">
<svg width="100%" height="100%" viewBox="0 0 3677 2304" version="1.1" xmlns="http://www.w3.org/2000/svg" xmlns:xlink="http://www.w3.org/1999/xlink" xml:space="preserve" style="fill-rule:evenodd;clip-rule:evenodd;stroke-linejoin:round;stroke-miterlimit:1.41421;">
    <g transform="matrix(1,0,0,1,-7881,-0)">
        <g id="parking-3" transform="matrix(2.87248,0,0,2.25,7881,4.54747e-13)">
            <g transform="matrix(2.08676,0,0,5.15206,-116.151,-2349.03)">
                <g transform="matrix(0.516355,0,0,0.342776,217.275,407.725)">
                    <rect x="676.756" y="269.252" width="4.487" height="305.495" style="fill:black;"/>
                </g>
                <g transform="matrix(0.516355,0,0,0.342776,167.974,407.725)">
                    <rect x="676.756" y="269.252" width="4.487" height="305.495" style="fill:black;"/>
                </g>
                <g transform="matrix(-2.3627e-16,-0.975331,1.46923,-1.56845e-16,-273.988,1214.63)">
                    <rect x="678.386" y="270.212" width="1.228" height="303.577" style="fill:black;"/>
                </g>
                <g transform="matrix(0.516355,0,0,0.342776,118.674,407.725)">
                    <rect x="676.756" y="269.252" width="4.487" height="305.495" style="fill:black;"/>
                </g>
                <g transform="matrix(0.516355,0,0,0.342776,69.3729,407.725)">
                    <rect x="676.756" y="269.252" width="4.487" height="305.495" style="fill:black;"/>
                </g>
                <g transform="matrix(0.516355,0,0,0.342776,20.0721,407.725)">
                    <rect x="676.756" y="269.252" width="4.487" height="305.495" style="fill:black;"/>
                </g>
                <g transform="matrix(0.516355,0,0,0.342776,-29.2287,407.725)">
                    <rect x="676.756" y="269.252" width="4.487" height="305.495" style="fill:black;"/>
                </g>
                <g transform="matrix(0.516355,0,0,0.342776,-78.5295,407.725)">
                    <rect x="676.756" y="269.252" width="4.487" height="305.495" style="fill:black;"/>
                </g>
                <g transform="matrix(0.516355,0,0,0.342776,-127.83,407.725)">
                    <rect x="676.756" y="269.252" width="4.487" height="305.495" style="fill:black;"/>
                </g>
                <g transform="matrix(0.516355,0,0,0.342776,-177.131,407.725)">
                    <rect x="676.756" y="269.252" width="4.487" height="305.495" style="fill:black;"/>
                </g>
                <g transform="matrix(0.516355,0,0,0.342776,-226.432,407.725)">
                    <rect x="676.756" y="269.252" width="4.487" height="305.495" style="fill:black;"/>
                </g>
            </g>
            <g transform="matrix(0.126249,-3.77701e-17,-6.84244e-16,0.161177,477.925,-213.345)">
                <path d="M1097.11,3478.42C1097.11,3453.29 1076.71,3432.89 1051.58,3432.89L960.528,3432.89C935.4,3432.89 915,3453.29 915,3478.42L915,3569.47C915,3594.6 935.4,3615 960.528,3615L1051.58,3615C1076.71,3615 1097.11,3594.6 1097.11,3569.47L1097.11,3478.42Z" style="fill:rgb(23,16,252);"/>
            </g>
            <g transform="matrix(0.126249,-3.77701e-17,-6.84244e-16,0.161177,176.108,-336.901)">
                <path d="M1097.11,3478.42C1097.11,3453.29 1076.71,3432.89 1051.58,3432.89L960.528,3432.89C935.4,3432.89 915,3453.29 915,3478.42L915,3569.47C915,3594.6 935.4,3615 960.528,3615L1051.58,3615C1076.71,3615 1097.11,3594.6 1097.11,3569.47L1097.11,3478.42Z" style="fill:rgb(23,16,252);"/>
            </g>
            <g transform="matrix(0.126249,-3.77701e-17,-6.84244e-16,0.161177,530.518,-70.2343)">
                <path d="M1097.11,3478.42C1097.11,3453.29 1076.71,3432.89 1051.58,3432.89L960.528,3432.89C935.4,3432.89 915,3453.29 915,3478.42L915,3569.47C915,3594.6 935.4,3615 960.528,3615L1051.58,3615C1076.71,3615 1097.11,3594.6 1097.11,3569.47L1097.11,3478.42Z" style="fill:rgb(23,16,252);"/>
            </g>
            <g transform="matrix(0.126249,-3.77701e-17,-6.84244e-16,0.161177,324.76,-322.225)">
                <path d="M1097.11,3478.42C1097.11,3453.29 1076.71,3432.89 1051.58,3432.89L960.528,3432.89C935.4,3432.89 915,3453.29 915,3478.42L915,3569.47C915,3594.6 935.4,3615 960.528,3615L1051.58,3615C1076.71,3615 1097.11,3594.6 1097.11,3569.47L1097.11,3478.42Z" style="fill:rgb(23,16,252);"/>
            </g>
            <g transform="matrix(0.093143,0,0,0.118912,403.782,-248.554)">
                <path d="M-2291.24,3443.19L-2285.72,3443.24L-2279.75,3443.3L-2273.34,3443.35L-2266.5,3443.4L-2259.24,3443.46L-2251.57,3443.51L-2243.49,3443.56L-2235.03,3443.61L-2226.18,3443.66L-2207.33,3443.76L-2187.03,3443.86L-2165.35,3443.95L-2142.32,3444.04L-2118.02,3444.13L-2092.49,3444.21L-2065.79,3444.29L-2037.99,3444.37L-2009.13,3444.44L-1979.27,3444.51L-1948.47,3444.58L-1916.79,3444.65L-1884.27,3444.71L-1850.98,3444.76L-1816.96,3444.82L-1782.29,3444.87L-1747,3444.92L-1711.16,3444.96L-1674.82,3445L-1638.04,3445.03L-1600.88,3445.07L-1563.38,3445.1L-1525.6,3445.12L-1487.61,3445.14L-1449.45,3445.16L-1411.17,3445.17L-1372.85,3445.18L-1334.53,3445.18L-1296.26,3445.18L-1258.1,3445.18L-1220.11,3445.17L-1182.35,3445.16L-1144.86,3445.14L-1107.7,3445.12L-1070.93,3445.1L-1034.61,3445.07L-998.788,3445.04L-963.52,3445L-928.862,3444.96L-894.874,3444.91L-861.604,3444.86L-829.113,3444.81L-797.457,3444.74L-766.687,3444.68L-736.863,3444.61L-708.04,3444.54L-680.276,3444.46L-653.621,3444.37L-628.137,3444.28L-603.881,3444.19L-580.898,3444.09L-569.922,3444.04L-559.278,3443.99L-548.983,3443.94L-539.045,3443.88L-529.475,3443.83L-520.277,3443.77L-511.462,3443.71L-503.033,3443.65L-495.002,3443.59L-487.377,3443.53L-480.167,3443.47L-473.383,3443.4L-467.032,3443.34L-461.131,3443.27L-455.695,3443.21L-450.597,3443.14L-444.335,3443.05L-444.215,3443.05L-437.889,3442.97L-437.768,3442.97L-431.442,3442.9L-431.322,3442.9L-425.001,3442.84L-424.881,3442.84L-418.563,3442.78L-418.443,3442.78L-412.124,3442.74L-412.002,3442.74L-405.688,3442.7L-405.57,3442.7L-399.26,3442.67L-399.139,3442.67L-392.829,3442.65L-392.708,3442.65L-386.401,3442.64L-386.28,3442.64L-379.974,3442.63L-379.855,3442.63L-373.556,3442.64L-373.435,3442.64L-367.136,3442.65L-367.017,3442.65L-360.718,3442.67L-360.598,3442.67L-354.306,3442.7L-354.185,3442.7L-347.894,3442.74L-347.776,3442.74L-341.488,3442.78L-341.367,3442.78L-335.078,3442.83L-334.958,3442.83L-328.675,3442.89L-328.557,3442.89L-322.277,3442.96L-322.157,3442.97L-315.876,3443.04L-315.756,3443.04L-309.479,3443.13L-309.361,3443.13L-303.088,3443.22L-302.967,3443.22L-296.698,3443.32L-296.58,3443.32L-290.311,3443.43L-290.19,3443.43L-283.925,3443.55L-283.808,3443.55L-277.546,3443.68L-277.427,3443.68L-271.164,3443.81L-271.045,3443.81L-264.788,3443.95L-264.67,3443.95L-258.415,3444.1L-258.294,3444.11L-252.043,3444.26L-251.927,3444.26L-245.678,3444.43L-245.56,3444.43L-239.314,3444.6L-239.195,3444.6L-232.947,3444.78L-232.826,3444.79L-226.586,3444.97L-226.469,3444.98L-220.231,3445.17L-220.113,3445.18L-213.878,3445.38L-213.761,3445.38L-207.525,3445.59L-207.402,3445.6L-201.174,3445.82L-201.059,3445.82L-194.833,3446.04L-194.716,3446.05L-188.487,3446.28L-188.367,3446.29L-182.145,3446.53L-182.028,3446.53L-175.808,3446.78L-175.691,3446.79L-169.474,3447.04L-169.355,3447.05L-163.142,3447.31L-163.027,3447.32L-156.815,3447.59L-156.697,3447.6L-150.487,3447.88L-150.368,3447.88L-144.161,3448.17L-144.043,3448.17L-137.843,3448.47L-137.729,3448.47L-131.527,3448.78L-131.404,3448.78L-125.209,3449.1L-125.095,3449.1L-118.903,3449.42L-118.786,3449.43L-112.59,3449.75L-112.471,3449.76L-106.284,3450.09L-106.171,3450.1L-99.985,3450.44L-99.866,3450.45L-93.682,3450.79L-93.565,3450.8L-87.387,3451.16L-87.271,3451.16L-81.093,3451.53L-80.978,3451.53L-74.802,3451.91L-74.683,3451.91L-68.509,3452.29L-68.392,3452.3L-62.223,3452.69L-62.106,3452.7L-55.943,3453.09L-55.831,3453.1L-49.668,3453.5L-49.551,3453.51L-43.389,3453.91L-43.271,3453.92L-37.113,3454.34L-36.997,3454.35L-30.845,3454.77L-30.731,3454.78L-24.577,3455.21L-24.457,3455.22L-18.31,3455.66L-18.196,3455.67L-12.052,3456.12L-11.937,3456.12L-5.797,3456.58L-5.683,3456.59L0.46,3457.05L0.579,3457.06L6.713,3457.53L6.826,3457.53L12.96,3458.01L13.078,3458.02L19.209,3458.5L19.323,3458.51L25.448,3459.01L25.562,3459.01L31.691,3459.51L31.811,3459.52L37.93,3460.03L38.041,3460.04L44.159,3460.55L44.276,3460.56L50.392,3461.08L50.506,3461.09L56.618,3461.62L56.736,3461.63L62.843,3462.17L62.954,3462.18L69.06,3462.72L69.176,3462.73L75.282,3463.28L75.398,3463.29L81.5,3463.85L81.615,3463.86L87.713,3464.42L87.827,3464.43L93.92,3465.01L94.035,3465.02L100.123,3465.6L100.236,3465.61L106.324,3466.19L106.436,3466.2L112.522,3466.8L112.639,3466.81L118.722,3467.41L118.837,3467.42L124.916,3468.03L125.031,3468.04L131.103,3468.66L131.212,3468.67L137.288,3469.29L137.408,3469.3L143.477,3469.93L143.586,3469.95L149.65,3470.58L149.764,3470.59L155.828,3471.24L155.945,3471.25L162.006,3471.9L162.117,3471.91L168.17,3472.57L168.279,3472.58L174.337,3473.25L174.459,3473.26L180.508,3473.94L180.613,3473.95L186.659,3474.63L186.775,3474.64L192.821,3475.33L192.935,3475.34L198.976,3476.04L199.09,3476.05L205.128,3476.75L205.242,3476.76L211.273,3477.47L211.379,3477.48L217.413,3478.2L217.536,3478.21L223.562,3478.94L223.666,3478.95L229.69,3479.68L229.806,3479.69L235.83,3480.43L235.942,3480.44L241.961,3481.19L242.074,3481.2L248.089,3481.95L248.202,3481.97L254.21,3482.72L254.315,3482.74L260.328,3483.5L260.45,3483.52L266.454,3484.29L266.558,3484.3L272.562,3485.08L272.682,3485.1L278.679,3485.88L278.785,3485.89L284.779,3486.69L284.892,3486.7L290.885,3487.5L290.997,3487.52L296.986,3488.32L297.099,3488.34L303.081,3489.15L303.185,3489.16L309.17,3489.99L309.29,3490L315.267,3490.83L315.371,3490.84L321.35,3491.68L321.472,3491.69L327.443,3492.53L327.547,3492.55L333.513,3493.4L333.623,3493.41L339.589,3494.27L339.701,3494.28L345.665,3495.14L345.777,3495.16L351.737,3496.03L351.849,3496.05L357.805,3496.92L357.915,3496.94L363.867,3497.82L363.98,3497.84L369.924,3498.72L370.026,3498.74L375.973,3499.63L376.093,3499.65L382.034,3500.55L382.138,3500.57L388.078,3501.48L388.196,3501.5L394.129,3502.41L394.234,3502.43L400.162,3503.35L400.272,3503.37L406.2,3504.3L406.312,3504.31L412.237,3505.25L412.349,3505.27L418.27,3506.21L418.38,3506.23L424.298,3507.18L424.409,3507.19L430.324,3508.15L430.436,3508.17L436.346,3509.13L436.454,3509.15L442.36,3510.12L442.472,3510.14L448.371,3511.11L448.471,3511.13L454.374,3512.11L454.494,3512.13L460.389,3513.12L460.49,3513.14L466.385,3514.13L466.505,3514.15L472.393,3515.15L472.494,3515.17L478.382,3516.18L478.5,3516.2L484.38,3517.22L484.481,3517.23L490.356,3518.26L490.465,3518.27L496.342,3519.3L496.452,3519.32L502.326,3520.36L502.434,3520.38L508.308,3521.42L508.427,3521.44L514.289,3522.49L514.388,3522.51L520.245,3523.56L520.356,3523.58L526.214,3524.64L526.321,3524.66L532.175,3525.73L532.284,3525.75L538.135,3526.82L538.244,3526.84L544.09,3527.92L544.198,3527.94L550.035,3529.03L550.134,3529.05L555.977,3530.14L556.095,3530.16L561.936,3531.26L562.045,3531.28L567.877,3532.39L567.985,3532.41L573.813,3533.52L573.921,3533.55L579.739,3534.66L579.836,3534.68L585.661,3535.81L585.782,3535.83L591.604,3536.96L591.71,3536.99L597.517,3538.12L597.614,3538.14L603.426,3539.29L603.544,3539.31L609.356,3540.46L609.466,3540.48L615.267,3541.64L615.372,3541.66L621.163,3542.82L621.26,3542.84L627.059,3544.01L627.179,3544.04L632.976,3545.22L633.082,3545.24L638.862,3546.42L638.955,3546.44L644.742,3547.63L644.862,3547.65L650.642,3548.85L650.737,3548.87L656.516,3550.07L656.635,3550.09L662.412,3551.3L662.517,3551.32L668.279,3552.54L668.374,3552.56L674.142,3553.78L674.262,3553.8L680.028,3555.03L680.133,3555.05L685.89,3556.29L685.997,3556.31L691.744,3557.55L691.838,3557.57L697.59,3558.81L697.708,3558.84L703.459,3560.09L703.565,3560.11L709.306,3561.37L709.412,3561.39L715.15,3562.66L715.255,3562.68L720.983,3563.95L721.077,3563.97L726.811,3565.24L726.929,3565.27L732.662,3566.56L732.766,3566.58L738.489,3567.87L738.595,3567.89L744.314,3569.18L744.418,3569.21L750.133,3570.51L750.24,3570.53L755.951,3571.84L756.056,3571.86L761.763,3573.18L761.868,3573.2L767.571,3574.52L767.676,3574.54L773.383,3575.87L773.503,3575.89L779.196,3577.23L779.286,3577.25L784.971,3578.58L785.076,3578.61L790.764,3579.95L790.867,3579.97L796.559,3581.32L796.677,3581.35L802.355,3582.71L802.447,3582.73L808.125,3584.09L808.241,3584.12L813.912,3585.48L814.003,3585.51L819.673,3586.88L819.788,3586.91L825.457,3588.28L825.562,3588.31L831.215,3589.69L831.305,3589.72L836.963,3591.11L837.081,3591.14L842.739,3592.53L842.843,3592.56L848.49,3593.96L848.592,3593.99L854.236,3595.39L854.341,3595.42L859.981,3596.83L860.081,3596.86L865.718,3598.28L865.823,3598.31L871.463,3599.73L871.578,3599.76L877.202,3601.19L877.292,3601.22L882.91,3602.65L883.012,3602.68L888.641,3604.12L888.76,3604.15L894.373,3605.6L894.459,3605.62L900.072,3607.08L900.189,3607.11L905.803,3608.57L905.905,3608.6L911.508,3610.06L911.611,3610.09L917.209,3611.56L917.31,3611.59L922.905,3613.07L923.007,3613.09L928.599,3614.58L928.702,3614.6L934.29,3616.09L934.391,3616.12L939.974,3617.62L940.075,3617.64L945.662,3619.14L945.778,3619.18L951.35,3620.68L951.436,3620.71L957.009,3622.22L957.127,3622.25L962.7,3623.77L962.8,3623.8L968.36,3625.32L968.461,3625.35L974.019,3626.88L974.121,3626.91L979.674,3628.44L979.773,3628.47L985.323,3630.01L985.425,3630.03L990.971,3631.58L991.07,3631.61L996.621,3633.16L996.738,3633.2L1002.27,3634.75L1002.36,3634.78L1007.89,3636.34L1008.01,3636.37L1013.54,3637.94L1013.64,3637.97L1019.17,3639.55L1019.27,3639.57L1024.79,3641.15L1024.89,3641.18L1030.4,3642.77L1030.5,3642.8L1036.02,3644.39L1036.14,3644.42L1041.64,3646.02L1041.73,3646.04L1047.23,3647.64L1047.35,3647.68L1052.85,3649.29L1052.95,3649.32L1058.44,3650.93L1058.52,3650.95L1064.02,3652.57L1064.15,3652.61L1069.64,3654.24L1069.72,3654.26L1075.2,3655.89L1075.3,3655.92L1080.79,3657.55L1080.9,3657.59L1086.37,3659.23L1086.45,3659.25L1091.93,3660.9L1092.04,3660.93L1097.51,3662.58L1097.61,3662.61L1103.07,3664.27L1103.17,3664.3L1108.63,3665.97L1108.75,3666L1114.2,3667.67L1114.28,3667.69L1119.73,3669.36L1119.84,3669.4L1125.29,3671.08L1125.39,3671.11L1130.82,3672.79L1130.9,3672.81L1136.34,3674.51L1136.48,3674.55L1141.91,3676.24L1141.99,3676.27L1147.41,3677.96L1147.5,3677.99L1152.93,3679.7L1153.05,3679.74L1158.47,3681.45L1158.57,3681.48L1163.98,3683.2L1164.08,3683.23L1169.49,3684.95L1169.58,3684.98L1175,3686.71L1175.11,3686.74L1180.51,3688.47L1180.59,3688.5L1185.98,3690.24L1186.09,3690.27L1191.49,3692.01L1191.59,3692.05L1196.97,3693.79L1197.07,3693.82L1202.45,3695.58L1202.55,3695.61L1207.93,3697.37L1208.05,3697.4L1213.42,3699.17L1213.52,3699.2L1218.89,3700.97L1218.98,3701L1224.34,3702.77L1224.44,3702.8L1229.8,3704.58L1229.89,3704.61L1235.26,3706.4L1235.37,3706.43L1240.72,3708.22L1240.8,3708.25L1246.14,3710.04L1246.26,3710.08L1251.61,3711.88L1251.7,3711.91L1257.05,3713.72L1257.16,3713.76L1262.49,3715.57L1262.57,3715.59L1267.89,3717.41L1268.01,3717.44L1273.34,3719.26L1273.43,3719.3L1278.76,3721.12L1278.87,3721.16L1284.18,3722.99L1284.26,3723.02L1289.57,3724.85L1289.68,3724.89L1294.99,3726.73L1295.09,3726.76L1300.38,3728.61L1300.48,3728.64L1305.77,3730.49L1305.87,3730.52L1311.17,3732.38L1311.28,3732.42L1316.57,3734.28L1316.67,3734.31L1321.95,3736.18L1322.04,3736.21L1327.32,3738.08L1327.41,3738.11L1332.69,3739.99L1332.8,3740.03L1338.08,3741.91L1338.17,3741.94L1343.43,3743.83L1343.53,3743.86L1348.79,3745.75L1348.88,3745.78L1354.14,3747.68L1354.25,3747.72L1359.5,3749.62L1359.57,3749.64L1364.82,3751.54L1364.93,3751.59L1370.19,3753.5L1370.3,3753.54L1375.53,3755.45L1375.6,3755.48L1380.84,3757.4L1380.95,3757.44L1386.18,3759.36L1386.27,3759.4L1391.5,3761.33L1391.61,3761.37L1396.83,3763.3L1396.9,3763.33L1402.11,3765.26L1402.22,3765.31L1407.44,3767.25L1407.53,3767.29L1412.74,3769.24L1412.85,3769.28L1418.06,3771.23L1418.15,3771.27L1423.34,3773.22L1423.43,3773.26L1428.62,3775.22L1428.71,3775.25L1433.89,3777.22L1433.98,3777.25L1439.17,3779.22L1439.28,3779.27L1444.46,3781.25L1444.55,3781.28L1449.73,3783.26L1449.84,3783.31L1455,3785.29L1455.07,3785.32L1460.23,3787.31L1460.34,3787.35L1465.52,3789.35L1465.62,3789.39L1470.77,3791.39L1470.84,3791.42L1475.99,3793.42L1476.1,3793.47L1481.25,3795.48L1481.33,3795.51L1486.48,3797.53L1486.59,3797.57L1491.72,3799.59L1491.79,3799.62L1496.91,3801.64L1497.02,3801.68L1502.16,3803.71L1502.27,3803.76L1507.38,3805.79L1507.45,3805.82L1512.56,3807.85L1512.67,3807.89L1517.8,3809.94L1517.91,3809.99L1523.01,3812.03L1523.07,3812.06L1528.17,3814.11L1528.28,3814.15L1533.38,3816.21L1533.47,3816.24L1538.56,3818.31L1538.67,3818.35L1543.76,3820.42L1543.85,3820.45L1548.93,3822.52L1549.01,3822.56L1554.08,3824.63L1554.17,3824.66L1559.25,3826.74L1559.36,3826.79L1564.43,3828.87L1564.52,3828.91L1569.58,3831L1569.69,3831.05L1574.76,3833.14L1574.84,3833.18L1579.88,3835.27L1579.97,3835.3L1585.01,3837.4L1585.1,3837.44L1590.15,3839.55L1590.26,3839.59L1595.3,3841.7L1595.38,3841.74L1600.42,3843.86L1600.53,3843.9L1605.55,3846.02L1605.61,3846.04L1610.64,3848.17L1610.77,3848.22L1615.79,3850.35L1615.86,3850.38L1620.86,3852.51L1620.97,3852.56L1625.98,3854.69L1626.07,3854.73L1631.07,3856.87L1631.18,3856.92L1636.18,3859.07L1636.27,3859.1L1641.26,3861.25L1641.34,3861.29L1646.33,3863.44L1646.44,3863.49L1651.42,3865.65L1651.51,3865.68L1656.48,3867.84L1656.56,3867.88L1661.54,3870.05L1661.65,3870.1L1666.62,3872.27L1666.7,3872.31L1671.66,3874.48L1671.74,3874.51L1676.71,3876.7L1676.82,3876.74L1681.79,3878.93L1681.89,3878.98L1686.83,3881.17L1686.89,3881.19L1691.82,3883.38L1691.93,3883.43L1696.87,3885.63L1696.96,3885.66L1701.89,3887.87L1702,3887.91L1706.92,3890.12L1707.01,3890.16L1711.94,3892.37L1712.05,3892.42L1716.97,3894.63L1717.05,3894.67L1721.95,3896.88L1722.03,3896.92L1726.94,3899.14L1727.06,3899.19L1731.96,3901.42L1732.04,3901.46L1736.92,3903.68L1737.01,3903.72L1741.9,3905.95L1742.01,3906.01L1746.9,3908.24L1746.98,3908.28L1751.87,3910.53L1751.98,3910.58L1756.85,3912.83L1756.93,3912.86L1761.79,3915.11L1761.88,3915.15L1766.75,3917.4L1766.85,3917.45L1771.73,3919.72L1771.84,3919.77L1776.68,3922.03L1776.74,3922.05L1781.58,3924.32L1781.69,3924.36L1786.55,3926.64L1786.65,3926.69L1791.5,3928.97L1791.58,3929.01L1796.4,3931.28L1796.48,3931.32L1801.31,3933.6L1801.42,3933.65L1806.25,3935.94L1806.33,3935.98L1811.15,3938.27L1811.26,3938.32L1816.07,3940.62L1816.15,3940.66L1820.95,3942.95L1821.03,3942.99L1825.83,3945.29L1825.94,3945.35L1830.74,3947.65L1830.83,3947.69L1835.62,3950L1835.72,3950.05L1840.51,3952.37L1840.59,3952.41L1845.37,3954.73L1845.48,3954.78L1850.26,3957.1L1850.34,3957.14L1855.11,3959.47L1855.22,3959.52L1859.99,3961.85L1860.07,3961.89L1864.81,3964.22L1864.89,3964.26L1869.65,3966.6L1869.76,3966.65L1874.51,3968.99L1874.59,3969.03L1879.34,3971.38L1879.44,3971.43L1884.18,3973.78L1884.26,3973.82L1889,3976.17L1889.1,3976.22L1893.83,3978.58L1893.91,3978.62L1898.62,3980.98L1898.7,3981.02L1903.42,3983.38L1903.53,3983.43L1908.25,3985.81L1908.36,3985.86L1913.07,3988.23L1913.15,3988.28L1917.84,3990.65L1917.91,3990.68L1922.61,3993.06L1922.72,3993.12L1927.42,3995.51L1927.53,3995.56L1932.21,3997.95L1932.29,3997.99L1936.96,4000.37L1937.03,4000.41L1941.71,4002.81L1941.82,4002.86L1946.49,4005.26L1946.57,4005.3L1951.23,4007.7L1951.33,4007.76L1955.99,4010.16L1956.07,4010.2L1960.73,4012.61L1960.83,4012.66L1965.47,4015.08L1965.55,4015.12L1970.2,4017.54L1970.3,4017.59L1974.94,4020.01L1975.02,4020.05L1979.63,4022.47L1979.71,4022.51L1984.35,4024.94L1984.49,4025.01L1989.1,4027.44L1989.15,4027.47L1993.75,4029.9L1993.86,4029.95L1998.48,4032.4L1998.59,4032.45L2003.19,4034.89L2003.26,4034.93L2007.86,4037.38L2007.97,4037.43L2012.56,4039.88L2012.64,4039.93L2017.23,4042.38L2017.33,4042.43L2021.9,4044.89L2021.98,4044.93L2026.56,4047.39L2026.66,4047.44L2031.23,4049.91L2031.31,4049.95L2035.87,4052.41L2035.97,4052.47L2040.53,4054.94L2040.61,4054.98L2045.17,4057.45L2045.27,4057.51L2049.81,4059.98L2049.89,4060.02L2054.43,4062.5L2054.53,4062.56L2059.07,4065.05L2059.15,4065.09L2063.68,4067.57L2063.78,4067.63L2068.32,4070.13L2068.43,4070.18L2072.94,4072.68L2073.02,4072.72L2077.51,4075.21L2077.59,4075.25L2082.1,4077.75L2082.2,4077.81L2086.72,4080.32L2086.82,4080.38L2091.32,4082.88L2091.39,4082.92L2095.88,4085.43L2095.98,4085.49L2100.47,4088L2100.55,4088.05L2105.01,4090.56L2105.08,4090.6L2109.57,4093.12L2109.71,4093.2L2114.19,4095.73L2114.26,4095.77L2118.7,4098.29L2118.78,4098.33L2123.24,4100.86L2123.34,4100.92L2127.79,4103.45L2127.86,4103.49L2132.31,4106.03L2132.41,4106.09L2136.87,4108.64L2136.97,4108.69L2141.4,4111.23L2141.47,4111.28L2145.9,4113.82L2146,4113.88L2150.42,4116.43L2150.5,4116.48L2154.91,4119.03L2155.02,4119.09L2159.44,4121.65L2159.54,4121.71L2163.95,4124.27L2164.02,4124.31L2168.4,4126.86L2168.47,4126.9L2172.87,4129.47L2172.97,4129.53L2177.37,4132.11L2177.47,4132.16L2181.85,4134.73L2181.92,4134.78L2186.3,4137.35L2186.4,4137.41L2190.79,4140L2190.89,4140.06L2195.25,4142.64L2195.32,4142.68L2199.66,4145.26L2199.74,4145.3L2204.1,4147.89L2204.24,4147.97L2208.58,4150.56L2208.62,4150.59L2212.96,4153.18L2213.09,4153.26L2217.44,4155.86L2217.51,4155.9L2221.84,4158.5L2221.94,4158.56L2226.26,4161.16L2226.33,4161.21L2230.65,4163.81L2230.75,4163.87L2235.06,4166.48L2235.13,4166.52L2239.44,4169.14L2239.54,4169.2L2243.85,4171.82L2243.95,4171.88L2248.24,4174.5L2248.31,4174.54L2252.6,4177.16L2252.7,4177.22L2256.98,4179.84L2257.05,4179.89L2261.33,4182.51L2261.43,4182.57L2265.71,4185.21L2265.81,4185.27L2270.08,4187.9L2270.14,4187.95L2274.4,4190.58L2274.5,4190.64L2278.76,4193.29L2278.87,4193.35L2283.11,4195.99L2283.18,4196.04L2287.42,4198.68L2287.52,4198.74L2291.75,4201.39L2291.82,4201.43L2296.05,4204.08L2296.15,4204.14L2300.39,4206.8L2300.49,4206.86L2304.7,4209.52L2304.77,4209.56L2308.97,4212.22L2309.07,4212.28L2313.29,4214.95L2313.39,4215.02L2317.59,4217.68L2317.66,4217.72L2321.85,4220.39L2321.95,4220.45L2326.13,4223.12L2326.2,4223.16L2330.4,4225.84L2330.53,4225.93L2334.7,4228.6L2334.73,4228.62L2338.9,4231.3L2339.03,4231.38L2343.21,4234.07L2343.27,4234.11L2347.43,4236.8L2347.53,4236.86L2351.68,4239.55L2351.74,4239.59L2355.89,4242.28L2355.99,4242.34L2360.14,4245.04L2360.23,4245.11L2364.36,4247.8L2364.43,4247.84L2368.57,4250.55L2368.7,4250.63L2372.82,4253.33L2372.85,4253.36L2376.96,4256.05L2377.09,4256.14L2381.21,4258.85L2381.28,4258.9L2385.38,4261.6L2385.48,4261.67L2389.57,4264.38L2389.64,4264.42L2393.72,4267.13L2393.82,4267.2L2397.91,4269.92L2398.01,4269.99L2402.09,4272.7L2402.15,4272.75L2406.22,4275.47L2406.32,4275.53L2410.4,4278.27L2410.5,4278.33L2414.57,4281.07L2414.67,4281.13L2418.71,4283.86L2418.78,4283.9L2422.82,4286.63L2422.92,4286.7L2426.96,4289.43L2427.03,4289.47L2431.07,4292.22L2431.2,4292.3L2435.24,4295.05L2435.31,4295.1L2439.31,4297.83L2439.37,4297.87L2443.4,4300.62L2443.53,4300.71L2447.55,4303.47L2447.62,4303.51L2451.62,4306.26L2451.71,4306.32L2455.7,4309.07L2455.77,4309.12L2459.76,4311.87L2459.86,4311.94L2463.85,4314.7L2463.95,4314.77L2467.94,4317.54L2468.03,4317.6L2472,4320.36L2472.07,4320.41L2476.03,4323.17L2476.13,4323.24L2480.1,4326.01L2480.2,4326.08L2484.14,4328.84L2484.21,4328.89L2488.15,4331.66L2488.25,4331.73L2492.2,4334.51L2492.3,4334.58L2496.24,4337.36L2496.34,4337.43L2500.26,4340.2L2500.32,4340.25L2504.24,4343.02L2504.34,4343.09L2508.27,4345.89L2508.37,4345.96L2512.28,4348.75L2512.38,4348.82L2516.27,4351.6L2516.34,4351.65L2520.23,4354.43L2520.33,4354.5L2524.23,4357.3L2524.33,4357.37L2528.2,4360.16L2528.26,4360.21L2532.14,4363L2532.24,4363.07L2536.12,4365.88L2536.21,4365.95L2540.09,4368.76L2540.18,4368.83L2544.05,4371.64L2544.15,4371.71L2548,4374.51L2548.06,4374.56L2551.9,4377.36L2551.99,4377.43L2555.84,4380.25L2555.94,4380.32L2559.76,4383.13L2559.83,4383.18L2563.65,4385.98L2563.74,4386.06L2567.57,4388.88L2567.67,4388.95L2571.49,4391.78L2571.59,4391.85L2575.41,4394.68L2575.5,4394.75L2579.29,4397.57L2579.36,4397.62L2583.15,4400.44L2583.24,4400.51L2587.04,4403.35L2587.14,4403.42L2590.91,4406.24L2590.97,4406.29L2594.76,4409.13L2594.89,4409.23L2598.67,4412.07L2598.73,4412.12L2602.48,4414.95L2602.58,4415.02L2606.34,4417.87L2606.44,4417.94L2610.18,4420.77L2610.24,4420.82L2613.97,4423.66L2614.07,4423.73L2617.82,4426.58L2617.91,4426.66L2621.65,4429.51L2621.75,4429.59L2625.48,4432.44L2625.58,4432.52L2629.28,4435.36L2629.34,4435.41L2633.06,4438.27L2633.19,4438.37L2636.91,4441.23L2636.97,4441.28L2640.64,4444.12L2640.69,4444.16L2644.39,4447.03L2644.53,4447.13L2648.22,4450L2648.28,4450.05L2651.97,4452.92L2652.1,4453.02L2655.78,4455.89L2655.84,4455.94L2659.49,4458.8L2659.59,4458.87L2663.23,4461.74L2663.29,4461.78L2666.95,4464.66L2667.09,4464.77L2670.74,4467.65L2670.79,4467.69L2674.42,4470.56L2674.52,4470.64L2678.16,4473.52L2678.26,4473.6L2681.89,4476.48L2681.98,4476.56L2685.59,4479.43L2685.65,4479.48L2689.25,4482.35L2689.35,4482.43L2692.98,4485.34L2693.11,4485.44L2696.72,4488.34L2696.77,4488.38L2700.35,4491.26L2700.45,4491.34L2704.02,4494.22L2704.08,4494.27L2707.67,4497.17L2707.8,4497.27L2711.37,4500.17L2711.43,4500.22L2714.99,4503.11L2715.09,4503.19L2718.65,4506.09L2718.75,4506.17L2722.3,4509.07L2722.4,4509.15L2725.95,4512.06L2726.04,4512.14L2729.57,4515.03L2729.63,4515.08L2733.17,4517.99L2733.3,4518.1L2736.83,4521.01L2736.89,4521.06L2740.39,4523.96L2740.49,4524.04L2744.01,4526.95L2744.1,4527.03L2747.61,4529.95L2747.71,4530.03L2751.2,4532.94L2751.25,4532.98L2754.75,4535.9L2754.88,4536.01L2758.37,4538.94L2758.43,4538.99L2761.91,4541.91L2762.04,4542.02L2765.52,4544.94L2765.58,4545L2769.03,4547.91L2769.12,4547.98L2772.56,4550.9L2772.62,4550.95L2776.08,4553.88L2776.22,4553.99L2779.68,4556.94L2779.78,4557.02L2783.2,4559.94L2783.25,4559.98L2786.67,4562.9L2786.77,4562.99L2790.22,4565.94L2790.35,4566.06L2793.76,4568.99L2793.82,4569.04L2797.22,4571.97L2797.31,4572.05L2800.72,4574.99L2800.81,4575.07L2804.19,4578L2804.25,4578.05L2807.65,4580.99L2807.78,4581.11L2811.17,4584.05L2811.22,4584.1L2814.61,4587.05L2814.74,4587.17L2818.11,4590.12L2818.16,4590.16L2821.51,4593.1L2821.6,4593.18L2824.96,4596.13L2825.06,4596.22L2828.41,4599.17L2828.51,4599.26L2831.85,4602.21L2831.94,4602.29L2835.28,4605.25L2835.37,4605.33L2838.71,4608.29L2838.8,4608.38L2842.11,4611.32L2842.16,4611.37L2845.48,4614.33L2845.61,4614.45L2848.92,4617.41L2848.97,4617.46L2852.28,4620.42L2852.41,4620.54L2855.7,4623.51L2855.76,4623.56L2859.03,4626.51L2859.12,4626.59L2862.41,4629.56L2862.5,4629.64L2865.78,4632.61L2865.87,4632.7L2869.14,4635.67L2869.23,4635.75L2872.49,4638.73L2872.58,4638.81L2875.84,4641.78L2875.93,4641.87L2879.16,4644.83L2879.21,4644.88L2882.45,4647.85L2882.59,4647.98L2885.84,4650.97L2885.93,4651.06L2889.14,4654.02L2889.18,4654.07L2892.41,4657.05L2892.54,4657.17L2895.75,4660.15L2895.8,4660.2L2898.99,4663.16L2899.08,4663.25L2902.3,4666.25L2902.43,4666.38L2905.62,4669.37L2905.67,4669.41L2908.83,4672.38L2908.93,4672.47L2912.11,4675.46L2912.2,4675.55L2915.37,4678.53L2915.46,4678.62L2918.62,4681.61L2918.72,4681.7L2921.87,4684.69L2921.96,4684.78L2925.11,4687.77L2925.2,4687.86L2928.34,4690.85L2928.43,4690.94L2931.57,4693.94L2931.66,4694.02L2934.76,4697L2934.81,4697.05L2937.94,4700.05L2938.07,4700.18L2941.2,4703.19L2941.29,4703.28L2944.39,4706.28L2944.49,4706.37L2947.56,4709.35L2947.61,4709.4L2950.7,4712.4L2950.84,4712.53L2953.94,4715.56L2954.03,4715.65L2957.09,4718.63L2957.14,4718.68L2960.21,4721.69L2960.34,4721.81L2963.4,4724.82L2963.45,4724.87L2966.5,4727.88L2966.64,4728.01L2969.68,4731.02L2969.73,4731.07L2972.77,4734.08L2972.9,4734.21L2975.93,4737.22L2975.99,4737.27L2979.01,4740.28L2979.14,4740.41L2982.16,4743.43L2982.21,4743.47L2985.22,4746.49L2985.35,4746.62L2988.36,4749.64L2988.41,4749.69L2991.4,4752.7L2991.53,4752.84L2994.52,4755.85L2994.57,4755.9L2997.55,4758.92L2997.68,4759.06L3000.65,4762.07L3000.7,4762.12L3003.67,4765.14L3003.8,4765.28L3006.76,4768.3L3006.81,4768.35L3009.76,4771.37L3009.89,4771.51L3012.84,4774.53L3012.89,4774.58L3015.83,4777.6L3015.96,4777.74L3018.88,4780.76L3018.93,4780.81L3021.86,4783.84L3021.99,4783.98L3024.9,4787L3024.95,4787.05L3027.86,4790.08L3027.99,4790.21L3030.89,4793.24L3030.94,4793.3L3033.84,4796.32L3033.97,4796.46L3036.87,4799.51L3036.96,4799.61L3039.81,4802.61L3039.86,4802.67L3042.73,4805.7L3042.87,4805.84L3045.75,4808.89L3045.84,4808.99L3048.69,4812.02L3048.78,4812.11L3051.63,4815.15L3051.72,4815.24L3054.54,4818.26L3054.59,4818.31L3057.42,4821.34L3057.55,4821.48L3060.4,4824.54L3060.49,4824.64L3063.31,4827.68L3063.4,4827.77L3066.21,4830.81L3066.3,4830.91L3069.1,4833.94L3069.19,4834.04L3072,4837.1L3072.14,4837.25L3074.92,4840.29L3074.97,4840.34L3077.73,4843.35L3077.82,4843.45L3080.59,4846.49L3080.68,4846.59L3083.47,4849.66L3083.6,4849.8L3086.35,4852.84L3086.4,4852.89L3089.15,4855.94L3089.28,4856.09L3092.03,4859.13L3092.07,4859.18L3094.81,4862.22L3094.94,4862.37L3097.66,4865.42L3097.71,4865.47L3100.43,4868.51L3100.56,4868.66L3103.3,4871.73L3103.38,4871.83L3106.09,4874.88L3106.18,4874.98L3108.88,4878.03L3108.97,4878.13L3111.65,4881.18L3111.74,4881.27L3114.42,4884.32L3114.51,4884.43L3117.19,4887.48L3117.27,4887.57L3119.96,4890.65L3120.1,4890.8L3122.75,4893.85L3122.79,4893.9L3125.45,4896.95L3125.58,4897.1L3128.22,4900.16L3128.27,4900.21L3130.91,4903.26L3131.04,4903.41L3133.68,4906.49L3133.77,4906.59L3136.37,4909.62L3136.41,4909.67L3139.03,4912.72L3139.16,4912.88L3141.79,4915.96L3141.88,4916.06L3144.5,4919.14L3144.63,4919.3L3147.21,4922.35L3147.26,4922.4L3149.82,4925.43L3149.91,4925.54L3152.51,4928.62L3152.64,4928.78L3155.2,4931.83L3155.24,4931.88L3157.8,4934.94L3157.93,4935.1L3160.51,4938.18L3160.6,4938.29L3163.14,4941.35L3163.22,4941.45L3165.76,4944.51L3165.85,4944.61L3168.38,4947.67L3168.46,4947.78L3170.98,4950.84L3171.07,4950.95L3173.61,4954.03L3173.74,4954.19L3176.24,4957.24L3176.28,4957.3L3178.78,4960.36L3178.91,4960.53L3181.42,4963.61L3181.51,4963.72L3183.96,4966.75L3184.01,4966.8L3186.48,4969.86L3186.62,4970.03L3189.13,4973.14L3189.26,4973.31L3191.71,4976.37L3191.75,4976.42L3194.18,4979.45L3194.27,4979.57L3196.74,4982.65L3196.87,4982.82L3199.32,4985.91L3199.41,4986.02L3201.83,4989.08L3201.92,4989.19L3204.34,4992.25L3204.42,4992.36L3206.83,4995.43L3206.92,4995.53L3209.32,4998.6L3209.41,4998.71L3211.83,5001.8L3211.96,5001.97L3214.34,5005.03L3214.38,5005.09L3216.76,5008.15L3216.9,5008.32L3219.29,5011.41L3219.38,5011.53L3221.74,5014.59L3221.82,5014.7L3224.2,5017.79L3224.33,5017.97L3226.68,5021.03L3226.72,5021.08L3229.05,5024.15L3229.19,5024.32L3231.52,5027.39L3231.56,5027.44L3233.88,5030.51L3234.01,5030.68L3236.37,5033.8L3236.5,5033.97L3238.81,5037.04L3238.85,5037.1L3241.13,5040.13L3241.21,5040.25L3243.52,5043.34L3243.66,5043.52L3245.96,5046.61L3246.05,5046.73L3248.32,5049.79L3248.4,5049.91L3250.67,5052.98L3250.76,5053.1L3253.02,5056.16L3253.1,5056.28L3255.38,5059.37L3255.51,5059.55L3257.77,5062.64L3257.86,5062.76L3260.09,5065.83L3260.18,5065.95L3262.4,5069.01L3262.49,5069.13L3264.7,5072.2L3264.79,5072.31L3267.02,5075.41L3267.15,5075.59L3269.38,5078.69L3269.46,5078.81L3271.63,5081.84L3271.67,5081.9L3273.88,5084.99L3274.06,5085.24L3276.26,5088.34L3276.3,5088.4L3278.47,5091.46L3278.6,5091.65L3280.76,5094.71L3280.8,5094.77L3282.95,5097.84L3283.09,5098.02L3285.27,5101.15L3285.4,5101.34L3287.53,5104.4L3287.58,5104.46L3289.71,5107.53L3289.83,5107.71L3291.95,5110.78L3291.99,5110.84L3294.13,5113.94L3294.31,5114.19L3296.43,5117.28L3296.47,5117.34L3298.54,5120.37L3298.63,5120.5L3300.74,5123.6L3300.87,5123.79L3302.97,5126.88L3303.06,5127.01L3305.13,5130.07L3305.21,5130.2L3307.3,5133.3L3307.43,5133.49L3309.48,5136.55L3309.52,5136.62L3311.57,5139.68L3311.7,5139.87L3313.78,5143L3313.91,5143.2L3315.94,5146.27L3315.97,5146.32L3318,5149.39L3318.13,5149.58L3320.16,5152.68L3320.24,5152.8L3322.25,5155.87L3322.34,5156L3324.33,5159.07L3324.41,5159.19L3326.42,5162.28L3326.55,5162.48L3328.55,5165.58L3328.64,5165.71L3330.61,5168.78L3330.7,5168.91L3332.66,5171.97L3332.74,5172.1L3334.72,5175.2L3334.85,5175.4L3336.82,5178.49L3336.9,5178.62L3338.84,5181.68L3338.92,5181.82L3340.85,5184.88L3340.94,5185.01L3342.88,5188.11L3343.01,5188.31L3344.94,5191.4L3345.03,5191.54L3346.93,5194.6L3347.01,5194.73L3348.93,5197.83L3349.06,5198.04L3350.97,5201.13L3351.05,5201.27L3352.93,5204.32L3353.01,5204.46L3354.89,5207.52L3354.97,5207.65L3356.86,5210.75L3356.98,5210.96L3358.86,5214.05L3358.94,5214.19L3360.78,5217.24L3360.87,5217.38L3362.71,5220.44L3362.79,5220.58L3364.64,5223.67L3364.77,5223.88L3366.61,5226.98L3366.69,5227.11L3368.53,5230.21L3368.65,5230.42L3370.45,5233.47L3370.49,5233.54L3372.29,5236.6L3372.42,5236.81L3374.25,5239.94L3374.37,5240.16L3376.15,5243.21L3376.18,5243.28L3377.96,5246.33L3378.08,5246.55L3379.87,5249.64L3379.95,5249.78L3381.72,5252.87L3381.85,5253.09L3383.59,5256.14L3383.62,5256.21L3385.39,5259.3L3385.56,5259.6L3387.3,5262.69L3387.34,5262.75L3389.06,5265.8L3389.18,5266.02L3390.91,5269.11L3390.99,5269.26L3392.7,5272.31L3392.78,5272.45L3394.49,5275.54L3394.61,5275.76L3396.32,5278.85L3396.4,5279L3398.08,5282.05L3398.15,5282.19L3399.84,5285.28L3399.97,5285.51L3401.65,5288.6L3401.73,5288.74L3403.37,5291.79L3403.45,5291.94L3405.12,5295.03L3405.24,5295.26L3406.9,5298.34L3406.97,5298.49L3408.6,5301.54L3408.68,5301.69L3410.29,5304.73L3410.37,5304.88L3412,5307.96L3412.12,5308.19L3413.76,5311.32L3413.89,5311.56L3415.47,5314.6L3415.51,5314.66L3417.09,5317.71L3417.21,5317.94L3418.83,5321.07L3418.95,5321.3L3420.53,5324.39L3420.61,5324.54L3422.16,5327.58L3422.24,5327.73L3423.78,5330.77L3423.86,5330.93L3425.42,5334.01L3425.54,5334.25L3427.09,5337.33L3427.17,5337.48L3428.69,5340.52L3428.77,5340.68L3430.3,5343.76L3430.42,5344L3431.94,5347.08L3432.02,5347.23L3433.53,5350.31L3433.65,5350.55L3435.16,5353.63L3435.23,5353.79L3436.71,5356.83L3436.78,5356.98L3438.27,5360.06L3438.39,5360.31L3439.87,5363.38L3439.94,5363.54L3441.39,5366.57L3441.47,5366.73L3442.93,5369.81L3443.05,5370.06L3444.5,5373.13L3444.57,5373.29L3446.02,5376.36L3446.14,5376.62L3447.57,5379.69L3447.64,5379.86L3449.05,5382.89L3449.12,5383.05L3450.54,5386.12L3450.65,5386.37L3452.06,5389.44L3452.14,5389.61L3453.53,5392.68L3453.65,5392.94L3455.02,5395.96L3455.05,5396.03L3456.43,5399.1L3456.59,5399.45L3457.96,5402.52L3457.99,5402.6L3459.36,5405.66L3459.51,5406.01L3460.86,5409.08L3460.89,5409.16L3462.22,5412.18L3462.33,5412.44L3463.67,5415.5L3463.74,5415.67L3465.07,5418.74L3465.18,5419L3466.49,5422.07L3466.57,5422.24L3467.86,5425.25L3467.93,5425.42L3469.23,5428.49L3469.34,5428.75L3470.65,5431.86L3470.76,5432.13L3472.02,5435.14L3472.05,5435.22L3473.33,5438.28L3473.48,5438.65L3474.74,5441.71L3474.77,5441.79L3476,5444.8L3476.11,5445.07L3477.38,5448.17L3477.48,5448.44L3478.72,5451.5L3478.79,5451.68L3479.99,5454.69L3480.06,5454.87L3481.28,5457.92L3481.39,5458.19L3482.6,5461.25L3482.67,5461.43L3483.85,5464.44L3483.91,5464.61L3485.1,5467.67L3485.21,5467.94L3486.41,5471.05L3486.52,5471.32L3487.68,5474.38L3487.75,5474.56L3488.9,5477.56L3488.96,5477.74L3490.12,5480.79L3490.22,5481.07L3491.36,5484.12L3491.43,5484.31L3492.57,5487.36L3492.67,5487.64L3493.79,5490.69L3493.86,5490.87L3494.97,5493.92L3495.08,5494.2L3496.18,5497.25L3496.25,5497.44L3497.33,5500.43L3497.39,5500.62L3498.48,5503.66L3498.58,5503.95L3499.66,5506.99L3499.72,5507.18L3500.79,5510.22L3500.89,5510.51L3501.97,5513.61L3502.07,5513.9L3503.1,5516.89L3503.13,5516.98L3504.17,5520.02L3504.31,5520.41L3505.33,5523.45L3505.36,5523.54L3506.39,5526.58L3506.52,5526.98L3507.53,5530.01L3507.56,5530.1L3508.54,5533.09L3508.64,5533.38L3509.65,5536.47L3509.75,5536.77L3510.73,5539.8L3510.79,5540L3511.76,5543.03L3511.86,5543.33L3512.82,5546.36L3512.88,5546.56L3513.82,5549.54L3513.88,5549.74L3514.83,5552.77L3514.92,5553.07L3515.88,5556.15L3515.97,5556.46L3516.89,5559.49L3516.95,5559.68L3517.87,5562.71L3517.96,5563.02L3518.86,5566.05L3518.92,5566.25L3519.8,5569.22L3519.86,5569.42L3520.75,5572.44L3520.84,5572.76L3521.74,5575.83L3521.82,5576.14L3522.69,5579.16L3522.75,5579.37L3523.59,5582.34L3523.65,5582.54L3524.5,5585.56L3524.59,5585.87L3525.44,5588.95L3525.53,5589.26L3526.35,5592.28L3526.41,5592.48L3527.21,5595.45L3527.27,5595.65L3528.08,5598.67L3528.16,5598.99L3528.98,5602.06L3529.06,5602.38L3529.85,5605.39L3529.91,5605.6L3530.69,5608.61L3530.77,5608.94L3531.54,5611.95L3531.59,5612.16L3532.35,5615.17L3532.43,5615.49L3533.18,5618.5L3533.24,5618.71L3533.96,5621.66L3534.01,5621.87L3534.76,5624.94L3534.87,5625.38L3535.6,5628.44L3535.65,5628.66L3536.35,5631.61L3536.4,5631.82L3537.1,5634.82L3537.18,5635.15L3537.87,5638.16L3537.92,5638.37L3538.6,5641.37L3538.68,5641.7L3539.36,5644.76L3539.43,5645.1L3540.09,5648.1L3540.14,5648.31L3540.78,5651.25L3540.83,5651.47L3541.47,5654.47L3541.54,5654.8L3542.19,5657.86L3542.26,5658.19L3542.88,5661.19L3542.92,5661.41L3543.53,5664.4L3543.6,5664.74L3544.2,5667.73L3544.25,5667.95L3544.84,5670.94L3544.91,5671.29L3545.5,5674.33L3545.57,5674.68L3546.14,5677.66L3546.18,5677.89L3546.73,5680.81L3546.77,5681.04L3547.32,5684.03L3547.39,5684.37L3547.94,5687.41L3548,5687.76L3548.53,5690.74L3548.57,5690.97L3549.09,5693.95L3549.15,5694.3L3549.67,5697.34L3549.73,5697.69L3550.23,5700.67L3550.27,5700.9L3550.75,5703.81L3550.79,5704.04L3551.27,5707.02L3551.33,5707.37L3551.81,5710.41L3551.86,5710.76L3552.32,5713.73L3552.35,5713.97L3552.8,5716.94L3552.86,5717.3L3553.31,5720.32L3553.36,5720.68L3553.78,5723.65L3553.82,5723.89L3554.23,5726.79L3554.26,5727.03L3554.68,5730.05L3554.74,5730.54L3555.15,5733.56L3555.18,5733.8L3555.56,5736.7L3555.59,5736.94L3555.96,5739.9L3556.01,5740.26L3556.38,5743.28L3556.43,5743.65L3556.78,5746.61L3556.81,5746.85L3557.16,5749.8L3557.2,5750.17L3557.53,5753.12L3557.56,5753.36L3557.89,5756.32L3557.93,5756.69L3558.25,5759.7L3558.29,5760.07L3558.59,5763.02L3558.61,5763.26L3558.91,5766.21L3558.94,5766.58L3559.23,5769.59L3559.27,5769.97L3559.54,5772.91L3559.56,5773.16L3559.82,5776.1L3559.85,5776.47L3560.1,5779.41L3560.12,5779.66L3560.36,5782.6L3560.39,5782.98L3560.63,5785.98L3560.66,5786.36L3560.87,5789.29L3560.89,5789.54L3561.1,5792.48L3561.13,5792.86L3561.33,5795.85L3561.35,5796.23L3561.54,5799.16L3561.55,5799.42L3561.72,5802.28L3561.74,5802.53L3561.91,5805.52L3561.94,5806.04L3562.1,5809.03L3562.11,5809.28L3562.25,5812.2L3562.27,5812.59L3562.4,5815.51L3562.41,5815.77L3562.54,5818.69L3562.55,5819.07L3562.66,5822.06L3562.68,5822.45L3562.78,5825.36L3562.79,5825.62L3562.88,5828.53L3562.89,5828.92L3562.97,5831.9L3562.98,5832.29L3563.04,5835.2L3563.05,5835.46L3563.11,5838.37L3563.11,5838.76L3563.16,5841.73L3563.16,5842.13L3563.2,5845.03L3563.2,5845.29L3563.22,5848.19L3563.23,5848.59L3563.24,5851.43L3563.24,5851.58L3563.32,5881.95L3563.41,5913.06L3563.49,5944.94L3563.59,5977.59L3563.69,6010.99L3563.8,6045.11L3563.92,6079.94L3564.04,6115.45L3564.17,6151.62L3564.31,6188.42L3564.45,6225.85L3564.59,6263.87L3564.75,6302.44L3564.91,6341.57L3565.08,6381.23L3565.25,6421.39L3565.43,6462.04L3565.43,6462.04L3565.61,6503.15L3565.81,6544.69L3566,6586.65L3566.21,6628.99L3566.42,6671.72L3566.63,6714.8L3566.86,6758.19L3567.09,6801.9L3567.32,6845.89L3567.56,6890.13L3567.81,6934.63L3568.06,6979.33L3568.32,7024.23L3568.59,7069.3L3568.86,7114.53L3569.13,7159.88L3569.42,7205.33L3569.71,7250.87L3570,7296.49L3570.3,7342.13L3570.61,7387.79L3570.92,7433.44L3571.24,7479.08L3571.57,7524.66L3571.9,7570.18L3572.24,7615.6L3572.58,7660.9L3572.93,7706.07L3573.28,7751.08L3573.64,7795.91L3574.01,7840.54L3574.38,7884.93L3574.76,7929.08L3575.14,7972.97L3575.53,8016.56L3575.93,8059.84L3576.33,8102.77L3576.74,8145.36L3577.15,8187.56L3577.57,8229.36L3577.99,8270.73L3578.42,8311.66L3578.86,8352.13L3579.08,8372.16L3579.3,8392.08L3579.52,8411.87L3579.74,8431.54L3579.74,8431.55L3579.97,8451.07L3580.2,8470.45L3580.2,8470.45L3580.42,8489.72L3582.9,8695.69L3209.16,8700.18L3206.69,8494.17L3206.69,8494.14L3206.46,8474.86L3206.23,8455.43L3206.23,8455.38L3206.01,8435.82L3205.78,8416.13L3205.78,8416.1L3205.56,8396.27L3205.56,8396.26L3205.34,8376.3L3205.34,8376.28L3205.12,8356.18L3205.12,8356.17L3204.68,8315.64L3204.68,8315.62L3204.25,8274.62L3204.25,8274.59L3203.83,8233.15L3203.83,8233.13L3203.41,8191.27L3203.41,8191.24L3202.99,8148.98L3202.99,8148.97L3202.59,8106.32L3202.59,8106.3L3202.18,8063.3L3202.18,8063.27L3201.79,8019.94L3201.79,8019.93L3201.4,7976.28L3201.4,7976.26L3201.01,7932.33L3201.01,7932.31L3200.64,7888.11L3200.64,7888.09L3200.26,7843.64L3200.26,7843.62L3199.9,7798.95L3199.9,7798.94L3199.54,7754.06L3199.54,7754.05L3199.18,7708.99L3199.18,7708.98L3198.83,7663.77L3198.83,7663.75L3198.49,7618.4L3198.49,7618.39L3198.15,7572.93L3198.15,7572.92L3197.82,7527.36L3197.82,7527.35L3197.49,7481.73L3197.49,7481.72L3197.17,7436.05L3197.17,7436.03L3196.86,7390.34L3196.86,7390.32L3196.55,7344.62L3196.55,7344.61L3196.25,7298.93L3196.25,7298.92L3195.96,7253.28L3195.96,7253.28L3195.66,7207.7L3195.66,7207.69L3195.38,7162.19L3195.38,7162.18L3195.1,7116.79L3195.1,7116.78L3194.83,7071.53L3194.83,7071.52L3194.57,7026.42L3194.57,7026.4L3194.31,6981.47L3194.31,6981.46L3194.05,6936.72L3194.05,6936.72L3193.81,6892.2L3193.81,6892.19L3193.57,6847.9L3193.57,6847.89L3193.33,6803.88L3193.33,6803.87L3193.1,6760.14L3193.1,6760.13L3192.88,6716.69L3192.88,6716.68L3192.66,6673.58L3192.66,6673.58L3192.45,6630.83L3192.45,6630.82L3192.25,6588.43L3192.25,6588.42L3192.05,6546.44L3192.05,6546.43L3191.86,6504.86L3191.86,6504.84L3191.67,6463.71L3191.49,6423.04L3191.49,6423.02L3191.32,6382.82L3191.32,6382.82L3191.15,6343.14L3191.15,6343.12L3190.99,6303.96L3190.99,6303.95L3190.84,6265.33L3190.84,6265.32L3190.69,6227.28L3190.69,6227.28L3190.55,6189.83L3190.55,6189.81L3190.41,6152.97L3190.41,6152.96L3190.29,6116.76L3190.29,6116.76L3190.16,6081.22L3190.16,6081.21L3190.05,6046.34L3190.05,6046.33L3189.93,6012.17L3189.93,6012.15L3189.83,5978.72L3189.83,5978.72L3189.73,5946.03L3189.73,5946L3189.65,5914.08L3189.65,5914.08L3189.56,5882.96L3189.56,5882.95L3189.48,5852.8L3189.47,5850.78L3189.46,5848.88L3189.44,5846.97L3189.41,5845.19L3189.37,5843.27L3189.33,5841.34L3189.28,5839.55L3189.22,5837.62L3189.15,5835.68L3189.08,5833.87L3189,5831.93L3188.91,5829.98L3188.82,5828.02L3188.72,5826.19L3188.62,5824.36L3188.49,5822.26L3188.37,5820.29L3188.24,5818.44L3188.1,5816.46L3187.96,5814.48L3187.81,5812.62L3187.65,5810.62L3187.48,5808.62L3187.3,5806.62L3187.12,5804.61L3186.93,5802.73L3186.73,5800.71L3186.53,5798.69L3186.33,5796.79L3186.1,5794.76L3185.87,5792.73L3185.63,5790.69L3185.39,5788.65L3185.15,5786.73L3184.89,5784.68L3184.6,5782.5L3184.35,5780.56L3184.08,5778.62L3183.77,5776.43L3183.47,5774.36L3183.18,5772.4L3182.87,5770.32L3182.55,5768.23L3182.23,5766.27L3181.89,5764.17L3181.53,5761.95L3181.18,5759.85L3180.84,5757.86L3180.47,5755.75L3180.09,5753.64L3179.73,5751.64L3179.34,5749.51L3178.91,5747.26L3178.51,5745.13L3178.12,5743.11L3177.69,5740.97L3177.26,5738.82L3176.82,5736.68L3176.37,5734.52L3175.94,5732.48L3175.48,5730.32L3174.98,5728.04L3174.51,5725.87L3174.05,5723.81L3173.55,5721.63L3173.05,5719.45L3172.53,5717.26L3171.99,5714.96L3171.49,5712.88L3170.99,5710.8L3170.41,5708.48L3169.87,5706.27L3169.31,5704.06L3168.74,5701.85L3168.17,5699.63L3167.59,5697.41L3167.03,5695.29L3166.43,5693.07L3165.79,5690.72L3165.18,5688.48L3164.58,5686.35L3163.95,5684.1L3163.28,5681.75L3162.64,5679.49L3162.01,5677.35L3161.35,5675.09L3160.65,5672.71L3159.97,5670.44L3159.28,5668.18L3158.59,5665.9L3157.92,5663.73L3157.21,5661.44L3156.45,5659.05L3155.73,5656.76L3154.99,5654.47L3154.25,5652.17L3153.53,5649.97L3152.73,5647.56L3151.97,5645.26L3151.19,5642.95L3150.41,5640.63L3149.61,5638.31L3148.78,5635.89L3148.01,5633.66L3147.19,5631.33L3146.36,5629L3145.53,5626.66L3144.65,5624.22L3143.8,5621.88L3142.94,5619.53L3142.08,5617.18L3141.2,5614.83L3140.32,5612.48L3139.43,5610.11L3138.49,5607.65L3137.59,5605.29L3136.71,5603.02L3135.79,5600.64L3134.82,5598.17L3133.88,5595.79L3132.93,5593.4L3131.93,5590.93L3130.97,5588.53L3130.04,5586.24L3129.02,5583.75L3128.03,5581.35L3127.03,5578.95L3125.99,5576.45L3125.01,5574.13L3123.99,5571.72L3122.92,5569.22L3121.88,5566.8L3120.84,5564.38L3119.78,5561.95L3118.68,5559.44L3117.61,5557.01L3116.53,5554.58L3115.44,5552.14L3114.34,5549.7L3113.2,5547.17L3112.09,5544.73L3110.97,5542.29L3109.84,5539.83L3108.66,5537.29L3107.52,5534.84L3106.36,5532.38L3105.2,5529.92L3104.03,5527.46L3102.81,5524.9L3101.63,5522.44L3100.43,5519.97L3099.19,5517.41L3097.98,5514.93L3096.76,5512.45L3095.53,5509.97L3094.29,5507.48L3093.01,5504.91L3091.76,5502.42L3090.5,5499.93L3089.18,5497.35L3087.87,5494.77L3086.58,5492.27L3085.33,5489.85L3083.99,5487.26L3082.64,5484.67L3081.36,5482.25L3080.04,5479.73L3078.66,5477.14L3077.27,5474.54L3075.92,5472.02L3074.57,5469.5L3073.15,5466.89L3071.78,5464.37L3070.4,5461.84L3068.96,5459.23L3067.57,5456.7L3066.16,5454.16L3064.7,5451.54L3063.28,5449L3061.8,5446.38L3060.36,5443.84L3058.91,5441.29L3057.41,5438.67L3055.95,5436.11L3054.47,5433.56L3052.95,5430.93L3051.42,5428.3L3049.96,5425.81L3048.41,5423.18L3046.86,5420.54L3045.34,5417.97L3043.81,5415.4L3042.27,5412.83L3040.68,5410.19L3039.08,5407.54L3037.52,5404.97L3035.95,5402.39L3034.33,5399.74L3032.7,5397.08L3031.1,5394.5L3029.5,5391.92L3027.85,5389.26L3026.23,5386.67L3024.6,5384.08L3022.92,5381.42L3021.24,5378.75L3019.58,5376.15L3017.92,5373.56L3016.21,5370.89L3014.49,5368.22L3012.81,5365.62L3011.12,5363.01L3009.38,5360.34L3007.63,5357.66L3005.91,5355.05L3004.14,5352.37L3002.37,5349.69L3000.68,5347.15L2998.88,5344.46L2997.08,5341.78L2995.32,5339.16L2993.5,5336.47L2991.72,5333.85L2989.94,5331.23L2988.05,5328.47L2986.25,5325.84L2984.44,5323.22L2982.58,5320.52L2980.7,5317.83L2978.83,5315.13L2977.03,5312.56L2975.13,5309.86L2973.23,5307.16L2971.32,5304.46L2969.45,5301.82L2967.56,5299.18L2965.58,5296.41L2963.68,5293.77L2961.78,5291.13L2959.82,5288.42L2957.85,5285.71L2955.88,5283L2953.94,5280.36L2951.99,5277.7L2950,5274.99L2947.99,5272.28L2945.98,5269.56L2944,5266.91L2942.02,5264.25L2939.93,5261.48L2937.89,5258.76L2935.93,5256.16L2933.87,5253.44L2931.8,5250.72L2929.72,5248L2927.64,5245.28L2925.59,5242.61L2923.49,5239.89L2921.43,5237.22L2919.31,5234.5L2917.19,5231.77L2915.11,5229.11L2912.97,5226.38L2910.82,5223.65L2908.67,5220.92L2906.51,5218.19L2904.38,5215.52L2902.25,5212.85L2900.02,5210.06L2897.83,5207.33L2895.72,5204.71L2893.51,5201.98L2891.25,5199.19L2889.07,5196.51L2886.84,5193.78L2884.6,5191.04L2882.4,5188.36L2880.14,5185.62L2877.88,5182.89L2875.62,5180.15L2873.34,5177.41L2871.1,5174.73L2868.81,5171.99L2866.51,5169.25L2864.25,5166.57L2861.89,5163.78L2859.57,5161.03L2857.28,5158.35L2854.99,5155.66L2852.64,5152.92L2850.25,5150.13L2847.93,5147.44L2845.56,5144.69L2843.19,5141.96L2840.81,5139.21L2838.42,5136.47L2836.06,5133.78L2833.66,5131.03L2831.24,5128.29L2828.82,5125.55L2826.4,5122.81L2823.97,5120.07L2821.57,5117.37L2819.11,5114.63L2816.66,5111.88L2814.19,5109.14L2811.72,5106.39L2809.24,5103.65L2806.75,5100.91L2804.3,5098.21L2801.8,5095.47L2799.25,5092.68L2796.73,5089.93L2794.25,5087.23L2791.72,5084.49L2789.18,5081.74L2786.64,5079L2784.12,5076.3L2781.56,5073.56L2778.95,5070.77L2776.38,5068.03L2773.79,5065.28L2771.24,5062.58L2768.65,5059.84L2766,5057.05L2763.43,5054.35L2760.81,5051.61L2758.18,5048.87L2755.55,5046.12L2752.91,5043.38L2750.26,5040.64L2747.6,5037.9L2744.94,5035.15L2742.27,5032.41L2739.59,5029.67L2736.91,5026.93L2734.21,5024.19L2731.51,5021.45L2728.81,5018.71L2726.09,5015.97L2723.37,5013.23L2720.65,5010.49L2717.91,5007.75L2715.17,5005.01L2712.41,5002.27L2709.66,4999.54L2706.9,4996.8L2704.12,4994.06L2701.35,4991.33L2698.56,4988.59L2695.76,4985.85L2692.93,4983.08L2690.16,4980.39L2687.35,4977.65L2684.49,4974.88L2681.66,4972.15L2678.86,4969.45L2676.02,4966.72L2673.13,4963.95L2670.27,4961.22L2667.41,4958.49L2664.54,4955.76L2661.66,4953.03L2658.78,4950.3L2655.88,4947.57L2652.99,4944.85L2650.04,4942.08L2647.13,4939.36L2644.25,4936.67L2641.28,4933.9L2638.35,4931.18L2635.4,4928.46L2632.42,4925.7L2629.5,4923.01L2626.54,4920.29L2623.53,4917.54L2620.56,4914.82L2617.58,4912.1L2614.58,4909.38L2611.59,4906.66L2608.59,4903.95L2605.53,4901.2L2602.52,4898.48L2599.49,4895.77L2596.46,4893.05L2593.42,4890.34L2590.34,4887.6L2587.29,4884.89L2584.24,4882.18L2581.17,4879.47L2578.1,4876.76L2575.02,4874.06L2571.89,4871.32L2568.8,4868.61L2565.7,4865.91L2562.59,4863.21L2559.48,4860.51L2556.32,4857.77L2553.19,4855.07L2550.02,4852.34L2546.88,4849.64L2543.78,4846.98L2540.58,4844.25L2537.38,4841.52L2534.26,4838.86L2531.08,4836.18L2527.86,4833.45L2524.64,4830.73L2521.45,4828.04L2518.24,4825.35L2515.04,4822.67L2511.82,4819.98L2508.56,4817.27L2505.34,4814.59L2502.1,4811.9L2498.82,4809.19L2495.58,4806.51L2492.32,4803.84L2489.03,4801.13L2485.76,4798.46L2482.48,4795.78L2479.2,4793.11L2475.88,4790.41L2472.59,4787.74L2469.28,4785.07L2465.94,4782.38L2462.59,4779.68L2459.27,4777.02L2455.98,4774.38L2452.61,4771.69L2449.23,4769L2445.89,4766.34L2442.53,4763.69L2439.14,4761L2435.77,4758.35L2432.4,4755.69L2428.99,4753.02L2425.56,4750.34L2422.17,4747.69L2418.77,4745.04L2415.37,4742.4L2411.95,4739.75L2408.46,4737.06L2405.04,4734.42L2401.61,4731.78L2398.14,4729.11L2394.7,4726.48L2391.25,4723.84L2387.79,4721.21L2384.29,4718.55L2380.78,4715.89L2377.31,4713.27L2373.79,4710.61L2370.31,4707.99L2366.81,4705.37L2363.27,4702.72L2359.76,4700.1L2356.22,4697.46L2352.66,4694.82L2349.14,4692.2L2345.6,4689.59L2342.06,4686.98L2338.48,4684.34L2334.89,4681.71L2331.34,4679.11L2327.74,4676.48L2324.13,4673.85L2320.56,4671.25L2316.97,4668.65L2313.38,4666.06L2309.75,4663.44L2306.12,4660.82L2302.51,4658.23L2298.86,4655.62L2295.21,4653.01L2291.58,4650.42L2287.95,4647.84L2284.27,4645.24L2280.59,4642.63L2276.94,4640.06L2273.28,4637.48L2269.58,4634.89L2265.88,4632.29L2262.2,4629.72L2258.49,4627.13L2254.77,4624.55L2251.07,4621.98L2247.37,4619.42L2243.63,4616.84L2239.88,4614.26L2236.13,4611.68L2232.41,4609.13L2228.67,4606.58L2224.87,4603.99L2221.13,4601.44L2217.38,4598.9L2213.59,4596.34L2209.8,4593.78L2205.99,4591.22L2202.22,4588.68L2198.44,4586.15L2194.62,4583.6L2190.8,4581.05L2187,4578.52L2183.16,4575.97L2179.32,4573.43L2175.47,4570.89L2171.65,4568.37L2167.79,4565.84L2163.93,4563.3L2160.09,4560.8L2156.21,4558.27L2152.35,4555.76L2148.46,4553.23L2144.57,4550.72L2140.67,4548.2L2136.79,4545.7L2132.88,4543.19L2128.96,4540.68L2125.07,4538.19L2121.14,4535.68L2117.2,4533.18L2113.26,4530.68L2109.34,4528.2L2105.39,4525.7L2101.43,4523.21L2097.49,4520.73L2093.52,4518.25L2089.54,4515.76L2085.56,4513.28L2081.57,4510.8L2077.61,4508.34L2073.61,4505.86L2069.6,4503.39L2065.62,4500.94L2061.6,4498.47L2057.58,4496.01L2053.55,4493.55L2049.52,4491.09L2045.51,4488.65L2041.46,4486.19L2037.41,4483.74L2033.35,4481.3L2029.29,4478.85L2025.22,4476.41L2021.18,4473.98L2017.1,4471.55L2013.02,4469.11L2008.95,4466.7L2004.83,4464.25L2000.72,4461.83L1996.65,4459.42L1992.54,4457L1988.42,4454.58L1984.32,4452.19L1980.19,4449.78L1976.02,4447.35L1971.88,4444.94L1967.77,4442.56L1963.61,4440.16L1959.46,4437.76L1955.3,4435.37L1951.13,4432.98L1946.98,4430.61L1942.8,4428.22L1938.61,4425.84L1934.42,4423.46L1930.2,4421.07L1926.03,4418.71L1921.84,4416.36L1917.6,4413.97L1913.39,4411.61L1909.16,4409.25L1904.93,4406.89L1900.73,4404.55L1896.49,4402.2L1892.21,4399.84L1887.96,4397.49L1883.74,4395.16L1879.47,4392.83L1875.21,4390.49L1870.93,4388.16L1866.65,4385.83L1862.37,4383.5L1858.09,4381.18L1853.79,4378.86L1849.49,4376.54L1845.19,4374.23L1840.88,4371.92L1836.56,4369.61L1832.24,4367.31L1827.92,4365.01L1823.59,4362.71L1819.27,4360.43L1814.9,4358.13L1810.56,4355.84L1806.23,4353.57L1801.85,4351.27L1797.48,4349L1793.12,4346.73L1788.74,4344.45L1784.36,4342.19L1779.98,4339.92L1775.59,4337.66L1771.2,4335.41L1766.8,4333.15L1762.37,4330.89L1757.96,4328.64L1753.57,4326.41L1749.15,4324.17L1744.7,4321.92L1740.27,4319.69L1735.86,4317.48L1731.41,4315.25L1726.94,4313.01L1722.49,4310.8L1718.03,4308.58L1713.57,4306.37L1709.11,4304.16L1704.64,4301.96L1700.16,4299.76L1695.65,4297.55L1691.16,4295.35L1686.67,4293.16L1682.18,4290.98L1677.68,4288.79L1673.17,4286.61L1668.65,4284.44L1664.14,4282.27L1659.62,4280.1L1655.06,4277.92L1650.53,4275.76L1645.99,4273.6L1641.45,4271.45L1636.9,4269.3L1632.32,4267.14L1627.77,4265L1623.23,4262.87L1618.63,4260.73L1614.04,4258.59L1609.49,4256.47L1604.91,4254.35L1600.3,4252.22L1595.7,4250.1L1591.11,4247.99L1586.51,4245.88L1581.9,4243.78L1577.26,4241.66L1572.64,4239.57L1568.02,4237.48L1563.37,4235.37L1558.74,4233.29L1554.11,4231.21L1549.47,4229.13L1544.82,4227.06L1540.17,4224.99L1535.49,4222.91L1530.8,4220.84L1526.16,4218.8L1521.49,4216.74L1516.79,4214.68L1512.12,4212.64L1507.43,4210.6L1502.72,4208.55L1498.03,4206.52L1493.32,4204.49L1488.59,4202.45L1483.89,4200.43L1479.18,4198.42L1474.46,4196.4L1469.71,4194.38L1464.99,4192.38L1460.25,4190.38L1455.5,4188.38L1450.75,4186.38L1446.01,4184.39L1441.26,4182.41L1436.48,4180.42L1431.69,4178.44L1426.93,4176.47L1422.16,4174.5L1417.39,4172.54L1412.61,4170.58L1407.8,4168.61L1402.99,4166.65L1398.2,4164.71L1393.4,4162.77L1388.6,4160.83L1383.77,4158.89L1378.94,4156.95L1374.14,4155.03L1369.3,4153.11L1364.46,4151.18L1359.65,4149.28L1354.79,4147.36L1349.93,4145.45L1345.09,4143.55L1340.24,4141.66L1335.37,4139.76L1330.49,4137.87L1325.65,4135.99L1320.76,4134.11L1315.87,4132.23L1310.99,4130.36L1306.12,4128.5L1301.23,4126.64L1296.32,4124.78L1291.41,4122.92L1286.49,4121.07L1281.59,4119.23L1276.68,4117.39L1271.77,4115.56L1266.83,4113.73L1261.9,4111.9L1256.97,4110.08L1252.04,4108.27L1247.09,4106.45L1242.13,4104.64L1237.21,4102.85L1232.24,4101.04L1227.27,4099.25L1222.32,4097.46L1217.34,4095.67L1212.36,4093.89L1207.39,4092.12L1202.41,4090.35L1197.42,4088.58L1192.42,4086.82L1187.43,4085.06L1182.44,4083.31L1177.43,4081.56L1172.41,4079.82L1167.41,4078.08L1162.38,4076.35L1157.36,4074.62L1152.34,4072.9L1147.32,4071.18L1142.28,4069.47L1137.23,4067.75L1132.2,4066.05L1127.16,4064.36L1122.1,4062.66L1117.04,4060.97L1111.99,4059.29L1106.91,4057.6L1101.84,4055.93L1096.76,4054.25L1091.69,4052.59L1086.62,4050.93L1081.53,4049.28L1076.43,4047.62L1071.35,4045.98L1066.24,4044.34L1061.13,4042.7L1056.04,4041.07L1050.92,4039.45L1045.8,4037.82L1040.69,4036.21L1035.58,4034.6L1030.43,4032.99L1025.31,4031.39L1020.18,4029.8L1015.02,4028.2L1009.89,4026.62L1004.73,4025.04L999.577,4023.46L994.433,4021.89L989.269,4020.33L984.114,4018.77L978.939,4017.21L973.763,4015.66L968.597,4014.12L963.394,4012.58L958.224,4011.04L953.044,4009.52L947.832,4007.99L942.648,4006.47L937.439,4004.96L932.232,4003.45L927.035,4001.95L921.818,4000.45L916.597,3998.96L911.373,3997.47L906.161,3995.99L900.926,3994.51L895.692,3993.04L890.467,3991.58L885.222,3990.11L879.973,3988.66L874.721,3987.2L869.466,3985.76L864.206,3984.32L858.96,3982.89L853.692,3981.46L848.423,3980.03L843.161,3978.62L837.881,3977.2L832.598,3975.8L827.314,3974.39L822.024,3973L816.73,3971.61L811.434,3970.22L806.149,3968.84L800.841,3967.47L795.534,3966.1L790.235,3964.74L784.905,3963.38L779.586,3962.02L774.277,3960.68L768.949,3959.34L763.618,3958L758.284,3956.67L752.945,3955.35L747.618,3954.03L742.27,3952.72L736.909,3951.4L731.571,3950.11L726.211,3948.81L720.853,3947.52L715.488,3946.23L710.124,3944.95L704.765,3943.68L699.388,3942.41L693.994,3941.14L688.615,3939.89L683.244,3938.64L677.854,3937.39L672.461,3936.15L667.065,3934.92L661.665,3933.69L656.262,3932.47L650.855,3931.25L645.457,3930.04L640.041,3928.84L634.612,3927.64L629.191,3926.44L623.767,3925.26L618.352,3924.08L612.916,3922.9L607.471,3921.73L602.033,3920.56L596.604,3919.41L591.158,3918.25L585.697,3917.1L580.256,3915.97L574.798,3914.83L569.342,3913.7L563.876,3912.58L558.397,3911.46L552.941,3910.35L547.467,3909.25L541.979,3908.14L536.5,3907.05L531.03,3905.97L525.54,3904.89L520.038,3903.81L514.557,3902.74L509.059,3901.68L503.548,3900.62L498.044,3899.57L492.539,3898.53L487.04,3897.49L481.523,3896.45L475.995,3895.43L470.474,3894.41L464.951,3893.39L459.423,3892.38L453.892,3891.38L448.35,3890.39L442.816,3889.39L437.284,3888.41L431.74,3887.44L426.192,3886.47L420.631,3885.5L415.08,3884.54L409.521,3883.59L403.963,3882.64L398.399,3881.7L392.834,3880.77L387.262,3879.84L381.681,3878.92L376.105,3878L370.525,3877.1L364.945,3876.19L359.359,3875.3L353.77,3874.41L348.178,3873.53L342.581,3872.65L336.973,3871.78L331.373,3870.91L325.766,3870.05L320.161,3869.2L314.547,3868.36L308.925,3867.52L303.309,3866.69L297.689,3865.86L292.066,3865.04L286.44,3864.23L280.808,3863.42L275.165,3862.62L269.532,3861.83L263.893,3861.04L258.251,3860.26L252.602,3859.49L246.947,3858.72L241.296,3857.96L235.641,3857.2L229.976,3856.45L224.319,3855.71L218.653,3854.98L212.988,3854.25L207.317,3853.53L201.638,3852.81L195.962,3852.11L190.282,3851.4L184.601,3850.71L178.908,3850.02L173.222,3849.34L167.531,3848.66L161.83,3847.99L156.135,3847.33L150.435,3846.68L144.733,3846.03L139.02,3845.39L133.313,3844.75L127.601,3844.12L121.88,3843.5L116.163,3842.89L110.444,3842.28L104.714,3841.68L98.99,3841.08L93.26,3840.5L87.523,3839.91L81.789,3839.34L76.052,3838.77L70.31,3838.21L64.56,3837.66L58.812,3837.11L53.063,3836.57L47.31,3836.04L41.556,3835.51L35.798,3834.99L30.031,3834.48L24.266,3833.98L18.501,3833.48L12.731,3832.99L6.955,3832.5L1.181,3832.03L-4.597,3831.56L-10.381,3831.09L-16.164,3830.63L-21.952,3830.18L-27.74,3829.74L-33.533,3829.31L-39.33,3828.88L-45.132,3828.46L-50.927,3828.04L-56.73,3827.63L-62.537,3827.23L-68.344,3826.84L-74.154,3826.45L-79.972,3826.08L-85.791,3825.7L-91.608,3825.34L-97.427,3824.98L-103.252,3824.63L-109.084,3824.29L-114.914,3823.95L-120.745,3823.62L-126.583,3823.3L-132.42,3822.99L-138.26,3822.68L-144.107,3822.38L-149.948,3822.08L-155.797,3821.8L-161.65,3821.52L-167.501,3821.25L-173.356,3820.98L-179.219,3820.73L-185.08,3820.48L-190.943,3820.24L-196.811,3820L-202.676,3819.77L-208.549,3819.55L-214.427,3819.34L-220.301,3819.13L-226.179,3818.93L-232.062,3818.74L-237.948,3818.56L-243.831,3818.39L-249.72,3818.22L-255.612,3818.06L-261.51,3817.9L-267.405,3817.75L-273.302,3817.62L-279.204,3817.48L-285.108,3817.36L-291.015,3817.24L-296.923,3817.13L-302.835,3817.03L-308.747,3816.94L-314.662,3816.85L-320.581,3816.77L-326.503,3816.7L-332.427,3816.64L-338.354,3816.58L-344.282,3816.53L-350.212,3816.49L-356.145,3816.45L-362.077,3816.43L-368.018,3816.41L-373.957,3816.4L-379.897,3816.39L-385.844,3816.4L-391.79,3816.41L-397.74,3816.43L-403.691,3816.46L-409.645,3816.49L-415.6,3816.53L-421.558,3816.58L-427.52,3816.64L-433.483,3816.71L-439.447,3816.78L-445.539,3816.86L-445.545,3816.86L-450.83,3816.93L-450.95,3816.94L-456.718,3817.01L-456.82,3817.01L-463.002,3817.08L-463.087,3817.08L-469.679,3817.14L-469.754,3817.14L-476.749,3817.21L-476.814,3817.21L-484.208,3817.28L-484.265,3817.28L-492.054,3817.34L-492.107,3817.34L-500.284,3817.4L-500.328,3817.4L-508.887,3817.46L-508.93,3817.46L-517.865,3817.52L-517.903,3817.52L-527.21,3817.58L-527.245,3817.58L-536.914,3817.64L-536.944,3817.64L-546.971,3817.69L-547,3817.69L-557.38,3817.74L-557.407,3817.74L-568.127,3817.8L-568.151,3817.8L-579.214,3817.85L-579.248,3817.85L-602.342,3817.95L-602.382,3817.95L-626.75,3818.04L-626.785,3818.04L-652.368,3818.13L-652.399,3818.13L-679.143,3818.22L-679.171,3818.22L-707.014,3818.3L-707.039,3818.3L-735.935,3818.37L-735.957,3818.37L-765.847,3818.44L-765.868,3818.44L-796.698,3818.5L-796.717,3818.5L-828.428,3818.57L-828.446,3818.57L-860.989,3818.62L-861.005,3818.62L-894.324,3818.67L-894.339,3818.67L-928.372,3818.72L-928.387,3818.72L-963.087,3818.76L-963.101,3818.76L-998.409,3818.8L-998.423,3818.8L-1034.28,3818.83L-1034.29,3818.83L-1070.65,3818.86L-1070.66,3818.86L-1107.47,3818.88L-1107.48,3818.88L-1144.67,3818.91L-1144.68,3818.91L-1182.2,3818.92L-1182.21,3818.92L-1220.01,3818.93L-1220.02,3818.93L-1258.04,3818.94L-1258.05,3818.94L-1296.24,3818.94L-1296.25,3818.94L-1334.55,3818.94L-1334.56,3818.94L-1372.91,3818.94L-1372.92,3818.94L-1411.28,3818.93L-1411.29,3818.93L-1449.59,3818.92L-1449.6,3818.92L-1487.79,3818.9L-1487.8,3818.9L-1525.82,3818.88L-1525.83,3818.88L-1563.63,3818.86L-1563.64,3818.86L-1601.17,3818.83L-1601.18,3818.83L-1638.38,3818.79L-1638.39,3818.79L-1675.2,3818.76L-1675.21,3818.76L-1711.58,3818.72L-1711.59,3818.72L-1747.47,3818.68L-1747.48,3818.68L-1782.8,3818.63L-1782.81,3818.63L-1817.52,3818.58L-1817.54,3818.58L-1851.59,3818.52L-1851.6,3818.52L-1884.93,3818.47L-1884.95,3818.47L-1917.51,3818.41L-1917.52,3818.41L-1949.26,3818.34L-1949.27,3818.34L-1980.12,3818.27L-1980.13,3818.27L-2010.05,3818.2L-2010.07,3818.2L-2038.98,3818.13L-2039,3818.13L-2066.87,3818.05L-2066.89,3818.05L-2093.66,3817.97L-2093.68,3817.97L-2119.29,3817.89L-2119.31,3817.89L-2143.71,3817.8L-2143.74,3817.8L-2166.86,3817.71L-2166.9,3817.71L-2188.7,3817.61L-2188.74,3817.61L-2209.17,3817.52L-2209.22,3817.52L-2228.21,3817.42L-2228.25,3817.42L-2237.2,3817.37L-2237.24,3817.37L-2245.8,3817.31L-2245.84,3817.31L-2254.02,3817.26L-2254.06,3817.26L-2261.86,3817.21L-2261.9,3817.21L-2269.3,3817.15L-2269.35,3817.15L-2276.35,3817.1L-2276.41,3817.1L-2283,3817.04L-2283.07,3817.04L-2289.24,3816.99L-2289.32,3816.99L-2295.09,3816.93L-2295.18,3816.93L-2487.34,3814.83L-2483.26,3441.09L-2291.24,3443.19Z" style="fill:rgb(20,169,12);fill-opacity:0.698039;"/>
            </g>
        </g>
    </g>
</svg>
