<?xml version="1.0" standalone="no"?>
<!DOCTYPE svg PUBLIC "-//W3C//DTD SVG 1.1//EN" "http://www.w3.org/Graphics/SVG/1.1/DTD/svg11.dtd">
<svg width="100%" height="100%" viewBox="0 0 3677 2304" version="1.1" xmlns="http://www.w3.org/2000/svg" xmlns:xlink="http://www.w3.org/1999/xlink" xml:space="preserve" style="fill-rule:evenodd;clip-rule:evenodd;stroke-linejoin:round;stroke-miterlimit:1.41421;">
    <g id="parking-1" transform="matrix(2.87248,0,0,2.25,0,0)">
        <g transform="matrix(2.08676,0,0,5.15206,-116.151,-2349.03)">
            <g transform="matrix(0.516355,0,0,0.342776,217.275,407.725)">
                <rect x="676.756" y="269.252" width="4.487" height="305.495" style="fill:black;"/>
            </g>
            <g transform="matrix(0.516355,0,0,0.342776,167.974,407.725)">
                <rect x="676.756" y="269.252" width="4.487" height="305.495" style="fill:black;"/>
            </g>
            <g transform="matrix(-2.3627e-16,-0.975331,1.46923,-1.56845e-16,-273.988,1214.63)">
                <rect x="678.386" y="270.211" width="1.228" height="303.577" style="fill:black;"/>
            </g>
            <g transform="matrix(0.516355,0,0,0.342776,118.674,407.725)">
                <rect x="676.756" y="269.252" width="4.487" height="305.495" style="fill:black;"/>
            </g>
            <g transform="matrix(0.516355,0,0,0.342776,69.3729,407.725)">
                <rect x="676.756" y="269.252" width="4.487" height="305.495" style="fill:black;"/>
            </g>
            <g transform="matrix(0.516355,0,0,0.342776,20.0721,407.725)">
                <rect x="676.756" y="269.252" width="4.487" height="305.495" style="fill:black;"/>
            </g>
            <g transform="matrix(0.516355,0,0,0.342776,-29.2287,407.725)">
                <rect x="676.756" y="269.252" width="4.487" height="305.495" style="fill:black;"/>
            </g>
            <g transform="matrix(0.516355,0,0,0.342776,-78.5295,407.725)">
                <rect x="676.756" y="269.252" width="4.487" height="305.495" style="fill:black;"/>
            </g>
            <g transform="matrix(0.516355,0,0,0.342776,-127.83,407.725)">
                <rect x="676.756" y="269.252" width="4.487" height="305.495" style="fill:black;"/>
            </g>
            <g transform="matrix(0.516355,0,0,0.342776,-177.131,407.725)">
                <rect x="676.756" y="269.252" width="4.487" height="305.495" style="fill:black;"/>
            </g>
            <g transform="matrix(0.516355,0,0,0.342776,-226.432,407.725)">
                <rect x="676.756" y="269.252" width="4.487" height="305.495" style="fill:black;"/>
            </g>
        </g>
        <g transform="matrix(0.126249,-3.77701e-17,-6.84244e-16,0.161177,118.401,-337.799)">
            <path d="M1097.11,3478.42C1097.11,3453.29 1076.71,3432.89 1051.58,3432.89L960.528,3432.89C935.4,3432.89 915,3453.29 915,3478.42L915,3569.47C915,3594.6 935.4,3615 960.528,3615L1051.58,3615C1076.71,3615 1097.11,3594.6 1097.11,3569.47L1097.11,3478.42Z" style="fill:rgb(23,16,252);"/>
        </g>
        <g transform="matrix(0.126249,-3.77701e-17,-6.84244e-16,0.161177,221.713,-240.078)">
            <path d="M1097.11,3478.42C1097.11,3453.29 1076.71,3432.89 1051.58,3432.89L960.528,3432.89C935.4,3432.89 915,3453.29 915,3478.42L915,3569.47C915,3594.6 935.4,3615 960.528,3615L1051.58,3615C1076.71,3615 1097.11,3594.6 1097.11,3569.47L1097.11,3478.42Z" style="fill:rgb(23,16,252);"/>
        </g>
        <g transform="matrix(0.126249,-3.77701e-17,-6.84244e-16,0.161177,325.063,-71.1325)">
            <path d="M1097.11,3478.42C1097.11,3453.29 1076.71,3432.89 1051.58,3432.89L960.528,3432.89C935.4,3432.89 915,3453.29 915,3478.42L915,3569.47C915,3594.6 935.4,3615 960.528,3615L1051.58,3615C1076.71,3615 1097.11,3594.6 1097.11,3569.47L1097.11,3478.42Z" style="fill:rgb(23,16,252);"/>
        </g>
        <g transform="matrix(0.093143,0,0,0.118912,199.852,-248.554)">
            <path d="M-734.614,3443.26L-734.528,3443.26L-723.275,3443.41L-723.202,3443.41L-711.241,3443.57L-711.177,3443.57L-698.53,3443.75L-698.477,3443.75L-685.166,3443.95L-685.118,3443.95L-671.165,3444.17L-671.124,3444.17L-656.553,3444.4L-656.516,3444.4L-641.35,3444.64L-641.319,3444.65L-625.581,3444.91L-625.552,3444.91L-609.265,3445.18L-609.241,3445.18L-592.43,3445.47L-592.407,3445.47L-575.095,3445.77L-575.074,3445.77L-557.285,3446.09L-557.267,3446.09L-539.025,3446.41L-539.008,3446.41L-520.335,3446.75L-520.32,3446.75L-501.239,3447.1L-501.221,3447.1L-461.945,3447.82L-461.924,3447.82L-421.308,3448.57L-421.292,3448.57L-379.531,3449.35L-379.518,3449.35L-336.803,3450.16L-336.795,3450.16L-293.317,3450.98L-293.311,3450.98L-249.262,3451.82L-160.225,3453.51L-115.624,3454.36L-71.223,3455.2L-27.216,3456.03L16.205,3456.84L58.847,3457.63L100.523,3458.39L120.928,3458.76L141.022,3459.12L160.776,3459.47L180.167,3459.81L199.168,3460.14L217.757,3460.45L235.909,3460.76L253.598,3461.05L270.801,3461.33L287.492,3461.6L303.647,3461.85L319.241,3462.09L334.248,3462.31L348.642,3462.52L362.398,3462.7L375.489,3462.87L387.886,3463.03L399.587,3463.16L405.123,3463.22L410.491,3463.27L415.662,3463.32L420.731,3463.36L420.794,3463.37L425.14,3463.41L425.329,3463.41L429.737,3463.46L429.924,3463.46L434.333,3463.52L434.525,3463.52L438.935,3463.59L439.121,3463.6L443.529,3463.67L443.716,3463.68L448.126,3463.76L448.318,3463.77L452.727,3463.86L452.911,3463.87L457.32,3463.97L457.509,3463.97L461.92,3464.09L462.109,3464.09L466.519,3464.21L466.703,3464.22L471.111,3464.35L471.297,3464.36L475.708,3464.49L475.897,3464.5L480.307,3464.65L480.49,3464.66L484.899,3464.81L485.085,3464.82L489.496,3464.99L489.682,3464.99L494.092,3465.17L494.275,3465.18L498.685,3465.36L498.871,3465.37L503.281,3465.56L503.464,3465.57L507.873,3465.77L508.056,3465.78L512.467,3465.98L512.652,3465.99L517.063,3466.21L517.246,3466.22L521.654,3466.45L521.835,3466.46L526.244,3466.69L526.43,3466.7L530.84,3466.95L531.02,3466.96L535.43,3467.21L535.615,3467.22L540.025,3467.48L540.206,3467.49L544.613,3467.76L544.794,3467.77L549.202,3468.05L549.385,3468.06L553.794,3468.35L553.975,3468.36L558.384,3468.66L558.566,3468.67L562.974,3468.98L563.152,3468.99L567.56,3469.3L567.742,3469.32L572.152,3469.64L572.331,3469.65L576.738,3469.98L576.915,3469.99L581.324,3470.33L581.506,3470.35L585.914,3470.69L586.091,3470.71L590.498,3471.06L590.678,3471.08L595.085,3471.44L595.263,3471.46L599.67,3471.83L599.849,3471.84L604.256,3472.22L604.433,3472.24L608.839,3472.63L609.016,3472.65L613.422,3473.04L613.598,3473.06L618.005,3473.47L618.184,3473.48L622.59,3473.9L622.764,3473.91L627.17,3474.34L627.348,3474.36L631.754,3474.79L631.928,3474.8L636.333,3475.24L636.509,3475.26L640.913,3475.71L641.087,3475.73L645.491,3476.18L645.667,3476.2L650.071,3476.67L650.245,3476.69L654.647,3477.16L654.821,3477.18L659.225,3477.66L659.401,3477.68L663.805,3478.17L663.977,3478.19L668.38,3478.69L668.554,3478.71L672.956,3479.21L673.129,3479.23L677.53,3479.75L677.7,3479.77L682.102,3480.29L682.278,3480.31L686.68,3480.84L686.85,3480.86L691.249,3481.4L691.42,3481.42L695.82,3481.97L695.993,3481.99L700.394,3482.55L700.566,3482.57L704.965,3483.14L705.132,3483.16L709.531,3483.73L709.704,3483.75L714.103,3484.33L714.272,3484.36L718.67,3484.94L718.84,3484.97L723.238,3485.56L723.408,3485.59L727.806,3486.19L727.975,3486.22L732.371,3486.83L732.538,3486.85L736.934,3487.47L737.103,3487.5L741.5,3488.12L741.669,3488.15L746.065,3488.79L746.231,3488.81L750.625,3489.46L750.791,3489.48L755.184,3490.13L755.352,3490.16L759.746,3490.82L759.915,3490.85L764.309,3491.52L764.474,3491.54L768.866,3492.22L769.03,3492.24L773.423,3492.93L773.591,3492.96L777.983,3493.65L778.146,3493.68L782.536,3494.38L782.702,3494.4L787.094,3495.11L787.26,3495.14L791.65,3495.86L791.813,3495.89L796.202,3496.61L796.367,3496.64L800.755,3497.37L800.918,3497.4L805.306,3498.14L805.469,3498.17L809.856,3498.92L810.02,3498.95L814.406,3499.7L814.567,3499.73L818.953,3500.49L819.118,3500.52L823.503,3501.3L823.665,3501.33L828.05,3502.11L828.212,3502.14L832.595,3502.92L832.756,3502.95L837.139,3503.75L837.302,3503.78L841.685,3504.58L841.848,3504.61L846.23,3505.43L846.389,3505.45L850.769,3506.27L850.929,3506.3L855.309,3507.13L855.469,3507.16L859.848,3508L860.008,3508.03L864.387,3508.87L864.548,3508.9L868.926,3509.75L869.084,3509.78L873.461,3510.64L873.621,3510.67L877.997,3511.54L878.155,3511.57L882.531,3512.45L882.688,3512.48L887.063,3513.36L887.222,3513.39L891.597,3514.28L891.755,3514.31L896.128,3515.21L896.284,3515.24L900.656,3516.15L900.813,3516.18L905.186,3517.09L905.345,3517.13L909.715,3518.05L909.87,3518.08L914.239,3519.01L914.396,3519.04L918.765,3519.98L918.92,3520.01L923.288,3520.95L923.445,3520.99L927.813,3521.94L927.968,3521.97L932.335,3522.93L932.489,3522.96L936.853,3523.93L937.007,3523.96L941.372,3524.94L941.527,3524.97L945.892,3525.95L946.047,3525.99L950.41,3526.97L950.562,3527.01L954.924,3528.01L955.078,3528.04L959.439,3529.05L959.592,3529.08L963.952,3530.09L964.106,3530.13L968.465,3531.14L968.614,3531.18L972.973,3532.21L973.128,3532.24L977.486,3533.28L977.637,3533.31L981.992,3534.35L982.142,3534.39L986.497,3535.44L986.65,3535.47L991.005,3536.53L991.158,3536.57L995.51,3537.63L995.656,3537.67L1000.01,3538.74L1000.16,3538.77L1004.51,3539.85L1004.66,3539.89L1009.01,3540.97L1009.16,3541.01L1013.51,3542.11L1013.66,3542.14L1018.01,3543.24L1018.16,3543.28L1022.51,3544.39L1022.65,3544.43L1027,3545.54L1027.15,3545.58L1031.5,3546.7L1031.64,3546.74L1035.99,3547.87L1036.14,3547.91L1040.48,3549.04L1040.63,3549.08L1044.97,3550.23L1045.11,3550.26L1049.45,3551.42L1049.6,3551.46L1053.94,3552.62L1054.09,3552.65L1058.43,3553.82L1058.57,3553.86L1062.91,3555.03L1063.06,3555.07L1067.39,3556.25L1067.54,3556.29L1071.87,3557.48L1072.02,3557.52L1076.36,3558.71L1076.5,3558.75L1080.83,3559.95L1080.98,3560L1085.31,3561.21L1085.46,3561.25L1089.79,3562.46L1089.93,3562.5L1094.26,3563.73L1094.4,3563.77L1098.73,3565L1098.88,3565.04L1103.2,3566.28L1103.34,3566.32L1107.67,3567.56L1107.82,3567.6L1112.14,3568.86L1112.28,3568.9L1116.6,3570.16L1116.75,3570.2L1121.07,3571.46L1121.21,3571.51L1125.53,3572.78L1125.67,3572.82L1129.99,3574.1L1130.14,3574.14L1134.45,3575.43L1134.6,3575.47L1138.91,3576.77L1139.05,3576.81L1143.37,3578.11L1143.51,3578.15L1147.83,3579.46L1147.97,3579.5L1152.28,3580.82L1152.41,3580.86L1156.73,3582.18L1156.87,3582.23L1161.18,3583.56L1161.32,3583.6L1165.63,3584.94L1165.77,3584.98L1170.08,3586.32L1170.22,3586.37L1174.52,3587.72L1174.66,3587.76L1178.97,3589.12L1179.11,3589.16L1183.41,3590.53L1183.55,3590.57L1187.85,3591.94L1187.99,3591.99L1192.29,3593.36L1192.43,3593.41L1196.73,3594.79L1196.86,3594.84L1201.16,3596.23L1201.3,3596.27L1205.6,3597.67L1205.74,3597.72L1210.03,3599.12L1210.17,3599.16L1214.46,3600.58L1214.6,3600.62L1218.89,3602.04L1219.03,3602.09L1223.32,3603.51L1223.46,3603.56L1227.75,3604.99L1227.88,3605.04L1232.17,3606.48L1232.3,3606.52L1236.59,3607.97L1236.73,3608.01L1241.01,3609.47L1241.15,3609.51L1245.43,3610.97L1245.57,3611.02L1249.85,3612.48L1249.98,3612.53L1254.27,3614L1254.4,3614.05L1258.68,3615.53L1258.81,3615.58L1263.09,3617.06L1263.22,3617.11L1267.5,3618.6L1267.63,3618.65L1271.91,3620.15L1272.04,3620.2L1276.31,3621.7L1276.45,3621.75L1280.72,3623.26L1280.85,3623.31L1285.12,3624.83L1285.26,3624.88L1289.53,3626.41L1289.65,3626.45L1293.92,3627.99L1294.06,3628.03L1298.32,3629.57L1298.45,3629.62L1302.71,3631.17L1302.85,3631.22L1307.11,3632.77L1307.24,3632.82L1311.51,3634.38L1311.63,3634.42L1315.89,3635.99L1316.02,3636.04L1320.28,3637.61L1320.41,3637.66L1324.67,3639.24L1324.8,3639.29L1329.05,3640.87L1329.18,3640.92L1333.43,3642.51L1333.56,3642.56L1337.81,3644.16L1337.94,3644.21L1342.19,3645.82L1342.32,3645.86L1346.57,3647.48L1346.7,3647.53L1350.95,3649.14L1351.08,3649.19L1355.32,3650.82L1355.45,3650.87L1359.69,3652.5L1359.82,3652.55L1364.06,3654.19L1364.19,3654.24L1368.43,3655.88L1368.55,3655.93L1372.79,3657.58L1372.92,3657.63L1377.16,3659.29L1377.28,3659.34L1381.52,3661L1381.64,3661.05L1385.88,3662.72L1386,3662.77L1390.24,3664.45L1390.36,3664.5L1394.59,3666.18L1394.71,3666.23L1398.94,3667.92L1399.07,3667.97L1403.3,3669.67L1403.42,3669.72L1407.64,3671.42L1407.77,3671.47L1411.99,3673.18L1412.12,3673.23L1416.34,3674.94L1416.46,3674.99L1420.68,3676.71L1420.81,3676.76L1425.02,3678.49L1425.14,3678.54L1429.36,3680.27L1429.49,3680.33L1433.7,3682.07L1433.82,3682.12L1438.03,3683.86L1438.16,3683.91L1442.37,3685.67L1442.49,3685.72L1446.7,3687.48L1446.82,3687.53L1451.03,3689.29L1451.15,3689.34L1455.36,3691.12L1455.48,3691.17L1459.68,3692.94L1459.8,3692.99L1464,3694.78L1464.12,3694.83L1468.32,3696.62L1468.44,3696.67L1472.64,3698.47L1472.76,3698.52L1476.95,3700.32L1477.07,3700.37L1481.27,3702.18L1481.39,3702.23L1485.59,3704.05L1485.7,3704.1L1489.89,3705.92L1490.01,3705.97L1494.2,3707.8L1494.32,3707.85L1498.51,3709.68L1498.62,3709.74L1502.81,3711.57L1502.93,3711.63L1507.11,3713.47L1507.23,3713.53L1511.41,3715.38L1511.53,3715.43L1515.7,3717.28L1515.82,3717.34L1520,3719.2L1520.12,3719.25L1524.29,3721.12L1524.41,3721.18L1528.59,3723.05L1528.7,3723.11L1532.87,3724.99L1532.99,3725.04L1537.15,3726.93L1537.27,3726.98L1541.44,3728.87L1541.56,3728.93L1545.72,3730.83L1545.84,3730.88L1550,3732.78L1550.12,3732.84L1554.28,3734.75L1554.39,3734.8L1558.55,3736.72L1558.66,3736.77L1562.82,3738.69L1562.94,3738.75L1567.09,3740.68L1567.2,3740.73L1571.36,3742.66L1571.47,3742.72L1575.62,3744.66L1575.74,3744.72L1579.89,3746.66L1580,3746.72L1584.14,3748.67L1584.26,3748.72L1588.4,3750.68L1588.52,3750.73L1592.66,3752.7L1592.78,3752.75L1596.91,3754.72L1597.03,3754.78L1601.16,3756.75L1601.28,3756.81L1605.41,3758.79L1605.53,3758.84L1609.66,3760.83L1609.77,3760.89L1613.9,3762.88L1614.02,3762.93L1618.15,3764.93L1618.26,3764.99L1622.38,3766.99L1622.5,3767.05L1626.62,3769.06L1626.73,3769.11L1630.86,3771.13L1630.97,3771.18L1635.09,3773.21L1635.2,3773.26L1639.32,3775.29L1639.43,3775.35L1643.55,3777.38L1643.66,3777.43L1647.77,3779.47L1647.88,3779.53L1651.99,3781.57L1652.1,3781.63L1656.21,3783.68L1656.32,3783.74L1660.43,3785.79L1660.54,3785.85L1664.64,3787.91L1664.76,3787.97L1668.86,3790.03L1668.97,3790.09L1673.07,3792.16L1673.17,3792.22L1677.27,3794.3L1677.38,3794.35L1681.48,3796.44L1681.59,3796.49L1685.68,3798.59L1685.79,3798.64L1689.88,3800.74L1689.99,3800.79L1694.08,3802.89L1694.19,3802.95L1698.27,3805.06L1698.38,3805.11L1702.47,3807.23L1702.57,3807.28L1706.65,3809.4L1706.76,3809.46L1710.84,3811.58L1710.95,3811.64L1715.03,3813.77L1715.14,3813.83L1719.21,3815.96L1719.32,3816.01L1723.39,3818.16L1723.5,3818.22L1727.57,3820.36L1727.67,3820.41L1731.74,3822.57L1731.85,3822.62L1735.91,3824.78L1736.02,3824.84L1740.08,3827L1740.19,3827.06L1744.25,3829.23L1744.35,3829.28L1748.41,3831.45L1748.52,3831.51L1752.57,3833.69L1752.68,3833.75L1756.73,3835.93L1756.84,3835.99L1760.89,3838.18L1761,3838.24L1765.05,3840.43L1765.15,3840.49L1769.19,3842.69L1769.3,3842.75L1773.34,3844.95L1773.45,3845.01L1777.49,3847.22L1777.59,3847.28L1781.63,3849.5L1781.73,3849.55L1785.77,3851.78L1785.88,3851.84L1789.91,3854.06L1790.01,3854.12L1794.04,3856.35L1794.15,3856.41L1798.18,3858.65L1798.28,3858.7L1802.3,3860.95L1802.41,3861.01L1806.43,3863.26L1806.54,3863.32L1810.56,3865.57L1810.66,3865.63L1814.67,3867.88L1814.78,3867.94L1818.79,3870.21L1818.9,3870.27L1822.92,3872.54L1823.02,3872.6L1827.03,3874.87L1827.13,3874.93L1831.14,3877.21L1831.24,3877.27L1835.24,3879.55L1835.34,3879.61L1839.35,3881.9L1839.45,3881.96L1843.45,3884.26L1843.55,3884.31L1847.55,3886.62L1847.65,3886.67L1851.65,3888.98L1851.75,3889.04L1855.74,3891.35L1855.84,3891.41L1859.83,3893.73L1859.92,3893.78L1863.91,3896.1L1864.02,3896.16L1868.01,3898.49L1868.11,3898.55L1872.09,3900.89L1872.19,3900.94L1876.16,3903.28L1876.27,3903.34L1880.24,3905.68L1880.34,3905.74L1884.31,3908.09L1884.42,3908.15L1888.39,3910.5L1888.49,3910.56L1892.46,3912.92L1892.55,3912.97L1896.51,3915.34L1896.62,3915.4L1900.58,3917.77L1900.68,3917.83L1904.64,3920.2L1904.74,3920.26L1908.7,3922.64L1908.79,3922.69L1912.75,3925.08L1912.85,3925.14L1916.8,3927.53L1916.9,3927.59L1920.85,3929.98L1920.95,3930.04L1924.89,3932.43L1924.99,3932.5L1928.94,3934.9L1929.03,3934.96L1932.97,3937.36L1933.07,3937.43L1937.01,3939.84L1937.11,3939.9L1941.04,3942.32L1941.14,3942.38L1945.08,3944.8L1945.17,3944.86L1949.1,3947.29L1949.2,3947.35L1953.13,3949.78L1953.22,3949.84L1957.14,3952.28L1957.24,3952.34L1961.16,3954.78L1961.26,3954.84L1965.18,3957.29L1965.27,3957.35L1969.19,3959.8L1969.29,3959.86L1973.2,3962.32L1973.29,3962.38L1977.2,3964.84L1977.3,3964.9L1981.21,3967.37L1981.31,3967.43L1985.21,3969.9L1985.3,3969.96L1989.2,3972.44L1989.3,3972.5L1993.2,3974.98L1993.29,3975.04L1997.19,3977.52L1997.29,3977.59L2001.18,3980.08L2001.27,3980.14L2005.16,3982.63L2005.26,3982.69L2009.14,3985.19L2009.24,3985.26L2013.12,3987.76L2013.21,3987.82L2017.09,3990.33L2017.18,3990.39L2021.06,3992.9L2021.16,3992.97L2025.04,3995.49L2025.13,3995.55L2029,3998.07L2029.1,3998.14L2032.97,4000.66L2033.06,4000.72L2036.92,4003.26L2037.02,4003.32L2040.88,4005.86L2040.97,4005.91L2044.83,4008.46L2044.92,4008.52L2048.78,4011.07L2048.88,4011.14L2052.74,4013.69L2052.82,4013.75L2056.67,4016.3L2056.77,4016.36L2060.61,4018.92L2060.7,4018.98L2064.55,4021.55L2064.65,4021.62L2068.49,4024.19L2068.58,4024.24L2072.41,4026.82L2072.51,4026.88L2076.35,4029.46L2076.44,4029.53L2080.27,4032.11L2080.36,4032.17L2084.19,4034.76L2084.28,4034.82L2088.1,4037.41L2088.19,4037.47L2092.02,4040.07L2092.11,4040.14L2095.93,4042.74L2096.03,4042.81L2099.84,4045.41L2099.93,4045.47L2103.74,4048.08L2103.84,4048.15L2107.65,4050.76L2107.73,4050.82L2111.54,4053.44L2111.64,4053.51L2115.45,4056.14L2115.53,4056.2L2119.33,4058.82L2119.42,4058.89L2123.22,4061.52L2123.31,4061.58L2127.1,4064.22L2127.19,4064.28L2130.98,4066.92L2131.08,4066.99L2134.87,4069.64L2134.96,4069.7L2138.74,4072.35L2138.83,4072.41L2142.61,4075.07L2142.7,4075.14L2146.48,4077.8L2146.57,4077.86L2150.34,4080.52L2150.43,4080.59L2154.21,4083.26L2154.29,4083.32L2158.06,4085.99L2158.15,4086.05L2161.92,4088.73L2162.01,4088.8L2165.77,4091.48L2165.86,4091.55L2169.62,4094.23L2169.7,4094.29L2173.46,4096.98L2173.55,4097.05L2177.31,4099.74L2177.39,4099.81L2181.14,4102.51L2181.23,4102.57L2184.97,4105.27L2185.06,4105.34L2188.81,4108.05L2188.89,4108.11L2192.63,4110.82L2192.72,4110.88L2196.45,4113.6L2196.55,4113.67L2200.28,4116.39L2200.36,4116.45L2204.09,4119.17L2204.18,4119.24L2207.91,4121.97L2207.99,4122.03L2211.72,4124.77L2211.8,4124.83L2215.52,4127.57L2215.61,4127.63L2219.32,4130.37L2219.41,4130.44L2223.13,4133.19L2223.21,4133.25L2226.92,4136L2227.01,4136.06L2230.71,4138.82L2230.8,4138.88L2234.5,4141.64L2234.59,4141.7L2238.29,4144.47L2238.38,4144.54L2242.07,4147.3L2242.16,4147.36L2245.84,4150.13L2245.93,4150.2L2249.62,4152.97L2249.7,4153.04L2253.39,4155.82L2253.48,4155.88L2257.16,4158.67L2257.24,4158.73L2260.92,4161.52L2261.01,4161.59L2264.69,4164.38L2264.77,4164.44L2268.44,4167.23L2268.52,4167.3L2272.19,4170.1L2272.28,4170.17L2275.94,4172.97L2276.03,4173.03L2279.68,4175.84L2279.78,4175.91L2283.43,4178.72L2283.51,4178.78L2287.16,4181.6L2287.25,4181.67L2290.9,4184.49L2290.99,4184.55L2294.63,4187.37L2294.72,4187.44L2298.36,4190.27L2298.45,4190.34L2302.09,4193.17L2302.17,4193.23L2305.8,4196.06L2305.88,4196.13L2309.52,4198.97L2309.61,4199.04L2313.24,4201.88L2313.32,4201.95L2316.94,4204.79L2317.02,4204.86L2320.65,4207.71L2320.74,4207.78L2324.35,4210.64L2324.43,4210.7L2328.04,4213.56L2328.12,4213.62L2331.74,4216.48L2331.82,4216.55L2335.43,4219.42L2335.51,4219.48L2339.11,4222.35L2339.2,4222.42L2342.8,4225.3L2342.88,4225.36L2346.48,4228.24L2346.56,4228.31L2350.15,4231.19L2350.24,4231.26L2353.83,4234.15L2353.91,4234.21L2357.49,4237.1L2357.57,4237.16L2361.15,4240.06L2361.24,4240.13L2364.82,4243.03L2364.9,4243.09L2368.47,4245.99L2368.55,4246.06L2372.12,4248.96L2372.21,4249.03L2375.77,4251.94L2375.85,4252.01L2379.41,4254.92L2379.5,4254.99L2383.06,4257.9L2383.14,4257.97L2386.69,4260.89L2386.77,4260.95L2390.32,4263.88L2390.41,4263.95L2393.96,4266.88L2394.04,4266.95L2397.58,4269.88L2397.66,4269.94L2401.2,4272.87L2401.28,4272.94L2404.81,4275.88L2404.9,4275.95L2408.43,4278.89L2408.52,4278.96L2412.04,4281.91L2412.13,4281.97L2415.65,4284.92L2415.73,4284.99L2419.25,4287.94L2419.33,4288.01L2422.85,4290.97L2422.93,4291.04L2426.44,4294L2426.52,4294.06L2430.03,4297.02L2430.11,4297.09L2433.61,4300.06L2433.69,4300.13L2437.2,4303.1L2437.28,4303.17L2440.78,4306.15L2440.86,4306.21L2444.35,4309.19L2444.43,4309.26L2447.93,4312.24L2448,4312.31L2451.49,4315.29L2451.57,4315.36L2455.04,4318.35L2455.12,4318.41L2458.6,4321.41L2458.68,4321.48L2462.16,4324.48L2462.25,4324.55L2465.72,4327.55L2465.79,4327.61L2469.25,4330.61L2469.33,4330.68L2472.8,4333.69L2472.88,4333.76L2476.34,4336.77L2476.42,4336.84L2479.87,4339.85L2479.95,4339.92L2483.4,4342.94L2483.48,4343.01L2486.93,4346.03L2487.01,4346.1L2490.45,4349.12L2490.53,4349.19L2493.96,4352.22L2494.04,4352.28L2497.47,4355.31L2497.55,4355.38L2500.98,4358.42L2501.06,4358.49L2504.49,4361.52L2504.57,4361.59L2507.99,4364.63L2508.07,4364.7L2511.49,4367.75L2511.57,4367.82L2514.98,4370.87L2515.06,4370.94L2518.47,4373.99L2518.54,4374.06L2521.95,4377.11L2522.03,4377.18L2525.43,4380.24L2525.51,4380.31L2528.91,4383.37L2528.99,4383.44L2532.38,4386.5L2532.46,4386.58L2535.85,4389.64L2535.92,4389.71L2539.3,4392.78L2539.38,4392.85L2542.77,4395.92L2542.85,4396L2546.23,4399.08L2546.3,4399.15L2549.67,4402.22L2549.75,4402.29L2553.12,4405.37L2553.2,4405.45L2556.56,4408.53L2556.64,4408.61L2560,4411.69L2560.08,4411.77L2563.43,4414.86L2563.51,4414.93L2566.86,4418.03L2566.94,4418.1L2570.29,4421.2L2570.36,4421.27L2573.71,4424.37L2573.78,4424.44L2577.13,4427.55L2577.21,4427.62L2580.54,4430.73L2580.61,4430.8L2583.94,4433.91L2584.02,4433.98L2587.35,4437.1L2587.43,4437.17L2590.75,4440.29L2590.83,4440.36L2594.14,4443.48L2594.22,4443.56L2597.53,4446.68L2597.61,4446.75L2600.92,4449.88L2601,4449.95L2604.3,4453.08L2604.38,4453.15L2607.67,4456.28L2607.75,4456.36L2611.05,4459.49L2611.13,4459.57L2614.42,4462.71L2614.49,4462.78L2617.78,4465.92L2617.86,4465.99L2621.14,4469.14L2621.22,4469.22L2624.5,4472.36L2624.58,4472.44L2627.85,4475.59L2627.93,4475.66L2631.2,4478.82L2631.27,4478.89L2634.54,4482.04L2634.62,4482.12L2637.88,4485.28L2637.95,4485.35L2641.21,4488.52L2641.29,4488.59L2644.54,4491.76L2644.61,4491.83L2647.86,4495L2647.94,4495.08L2651.19,4498.25L2651.26,4498.32L2654.5,4501.5L2654.58,4501.57L2657.81,4504.75L2657.89,4504.82L2661.12,4508L2661.19,4508.08L2664.42,4511.26L2664.49,4511.33L2667.71,4514.52L2667.79,4514.6L2671.01,4517.79L2671.09,4517.86L2674.3,4521.06L2674.38,4521.14L2677.59,4524.33L2677.66,4524.4L2680.86,4527.6L2680.93,4527.67L2684.13,4530.87L2684.21,4530.95L2687.41,4534.16L2687.48,4534.23L2690.67,4537.43L2690.75,4537.51L2693.93,4540.72L2694.01,4540.8L2697.19,4544.01L2697.26,4544.08L2700.44,4547.29L2700.51,4547.37L2703.69,4550.6L2703.77,4550.67L2706.93,4553.89L2707.01,4553.97L2710.17,4557.19L2710.24,4557.26L2713.4,4560.48L2713.48,4560.57L2716.63,4563.8L2716.71,4563.88L2719.86,4567.11L2719.93,4567.18L2723.07,4570.41L2723.15,4570.49L2726.3,4573.73L2726.37,4573.81L2729.5,4577.05L2729.57,4577.12L2732.7,4580.36L2732.78,4580.44L2735.9,4583.68L2735.98,4583.76L2739.11,4587.01L2739.18,4587.09L2742.3,4590.34L2742.37,4590.41L2745.48,4593.66L2745.55,4593.74L2748.66,4597L2748.74,4597.08L2751.84,4600.34L2751.91,4600.41L2755.01,4603.67L2755.09,4603.75L2758.18,4607.02L2758.25,4607.09L2761.34,4610.36L2761.41,4610.43L2764.5,4613.7L2764.58,4613.79L2767.66,4617.06L2767.73,4617.14L2770.81,4620.41L2770.88,4620.49L2773.95,4623.76L2774.02,4623.84L2777.08,4627.12L2777.16,4627.2L2780.23,4630.48L2780.3,4630.56L2783.35,4633.84L2783.43,4633.92L2786.47,4637.21L2786.54,4637.28L2789.59,4640.57L2789.67,4640.65L2792.71,4643.95L2792.79,4644.03L2795.82,4647.32L2795.9,4647.4L2798.93,4650.69L2799,4650.78L2802.03,4654.07L2802.11,4654.16L2805.13,4657.46L2805.2,4657.53L2808.21,4660.84L2808.29,4660.92L2811.3,4664.22L2811.37,4664.3L2814.38,4667.61L2814.45,4667.69L2817.45,4671L2817.53,4671.08L2820.53,4674.4L2820.61,4674.48L2823.6,4677.8L2823.67,4677.88L2826.66,4681.19L2826.73,4681.27L2829.71,4684.59L2829.79,4684.68L2832.77,4688L2832.84,4688.08L2835.81,4691.4L2835.88,4691.48L2838.85,4694.81L2838.92,4694.89L2841.89,4698.22L2841.96,4698.3L2844.92,4701.64L2845,4701.72L2847.95,4705.06L2848.02,4705.13L2850.97,4708.47L2851.04,4708.55L2853.99,4711.89L2854.06,4711.98L2857,4715.32L2857.07,4715.4L2860.01,4718.74L2860.08,4718.82L2863.01,4722.16L2863.08,4722.25L2866,4725.59L2866.08,4725.68L2869,4729.03L2869.07,4729.11L2871.98,4732.47L2872.06,4732.56L2874.97,4735.91L2875.04,4735.99L2877.94,4739.34L2878.01,4739.42L2880.91,4742.78L2880.99,4742.87L2883.88,4746.23L2883.95,4746.31L2886.84,4749.68L2886.91,4749.77L2889.8,4753.13L2889.87,4753.21L2892.75,4756.58L2892.82,4756.67L2895.7,4760.04L2895.76,4760.11L2898.63,4763.49L2898.71,4763.58L2901.57,4766.95L2901.64,4767.03L2904.5,4770.41L2904.57,4770.49L2907.43,4773.87L2907.5,4773.96L2910.35,4777.34L2910.42,4777.43L2913.26,4780.81L2913.33,4780.89L2916.17,4784.27L2916.24,4784.36L2919.08,4787.75L2919.15,4787.84L2921.98,4791.23L2922.05,4791.31L2924.87,4794.7L2924.94,4794.79L2927.76,4798.18L2927.83,4798.26L2930.64,4801.65L2930.71,4801.74L2933.52,4805.14L2933.59,4805.23L2936.4,4808.63L2936.47,4808.71L2939.26,4812.11L2939.33,4812.2L2942.12,4815.6L2942.2,4815.69L2944.98,4819.1L2945.05,4819.18L2947.84,4822.59L2947.91,4822.68L2950.68,4826.08L2950.75,4826.16L2953.52,4829.57L2953.6,4829.67L2956.37,4833.09L2956.43,4833.17L2959.19,4836.58L2959.27,4836.68L2962.02,4840.1L2962.09,4840.17L2964.83,4843.59L2964.91,4843.68L2967.65,4847.1L2967.73,4847.2L2970.47,4850.62L2970.53,4850.7L2973.27,4854.12L2973.34,4854.22L2976.07,4857.64L2976.14,4857.73L2978.86,4861.15L2978.93,4861.25L2981.65,4864.68L2981.73,4864.77L2984.44,4868.2L2984.5,4868.28L2987.21,4871.72L2987.28,4871.81L2989.99,4875.25L2990.06,4875.34L2992.75,4878.78L2992.82,4878.86L2995.51,4882.3L2995.59,4882.39L2998.27,4885.83L2998.33,4885.92L3001.01,4889.36L3001.09,4889.46L3003.77,4892.9L3003.84,4892.99L3006.51,4896.44L3006.58,4896.53L3009.24,4899.97L3009.31,4900.07L3011.97,4903.52L3012.03,4903.6L3014.69,4907.05L3014.76,4907.15L3017.41,4910.6L3017.48,4910.69L3020.12,4914.15L3020.2,4914.24L3022.83,4917.7L3022.9,4917.79L3025.53,4921.24L3025.6,4921.34L3028.23,4924.8L3028.3,4924.89L3030.92,4928.35L3030.99,4928.44L3033.6,4931.91L3033.67,4932L3036.28,4935.47L3036.35,4935.56L3038.95,4939.02L3039.02,4939.11L3041.62,4942.58L3041.69,4942.68L3044.29,4946.15L3044.36,4946.24L3046.94,4949.71L3047.01,4949.8L3049.59,4953.28L3049.66,4953.37L3052.24,4956.85L3052.31,4956.94L3054.88,4960.42L3054.95,4960.51L3057.51,4963.99L3057.59,4964.08L3060.15,4967.57L3060.22,4967.66L3062.77,4971.14L3062.84,4971.23L3065.38,4974.71L3065.45,4974.81L3068,4978.29L3068.07,4978.39L3070.61,4981.88L3070.68,4981.98L3073.21,4985.46L3073.27,4985.55L3075.8,4989.04L3075.87,4989.14L3078.39,4992.63L3078.46,4992.73L3080.98,4996.22L3081.04,4996.31L3083.55,4999.8L3083.62,4999.9L3086.12,5003.39L3086.2,5003.49L3088.7,5006.99L3088.76,5007.09L3091.25,5010.58L3091.33,5010.68L3093.81,5014.18L3093.88,5014.28L3096.36,5017.78L3096.42,5017.87L3098.9,5021.37L3098.97,5021.47L3101.44,5024.98L3101.51,5025.08L3103.98,5028.58L3104.04,5028.68L3106.5,5032.18L3106.57,5032.28L3109.02,5035.78L3109.09,5035.89L3111.54,5039.4L3111.61,5039.5L3114.05,5043.01L3114.11,5043.1L3116.55,5046.61L3116.62,5046.72L3119.04,5050.23L3119.11,5050.32L3121.53,5053.84L3121.6,5053.94L3124.02,5057.46L3124.09,5057.56L3126.5,5061.07L3126.57,5061.17L3128.97,5064.69L3129.04,5064.79L3131.44,5068.31L3131.51,5068.42L3133.91,5071.94L3133.98,5072.04L3136.37,5075.56L3136.43,5075.66L3138.81,5079.18L3138.88,5079.28L3141.26,5082.8L3141.33,5082.91L3143.7,5086.43L3143.77,5086.54L3146.13,5090.07L3146.19,5090.16L3148.55,5093.69L3148.63,5093.8L3150.98,5097.33L3151.04,5097.43L3153.39,5100.95L3153.46,5101.06L3155.8,5104.59L3155.87,5104.69L3158.2,5108.23L3158.27,5108.33L3160.6,5111.87L3160.68,5111.98L3163,5115.52L3163.06,5115.61L3165.38,5119.15L3165.45,5119.25L3167.76,5122.79L3167.82,5122.89L3170.13,5126.43L3170.2,5126.53L3172.5,5130.08L3172.57,5130.18L3174.86,5133.72L3174.92,5133.82L3177.21,5137.36L3177.28,5137.47L3179.56,5141.01L3179.63,5141.12L3181.9,5144.67L3181.98,5144.78L3184.25,5148.33L3184.31,5148.43L3186.57,5151.97L3186.63,5152.07L3188.89,5155.62L3188.97,5155.74L3191.22,5159.29L3191.28,5159.39L3193.52,5162.93L3193.59,5163.04L3195.83,5166.59L3195.9,5166.7L3198.14,5170.26L3198.2,5170.36L3200.43,5173.91L3200.49,5174.02L3202.72,5177.57L3202.79,5177.69L3205,5181.25L3205.07,5181.35L3207.28,5184.9L3207.34,5185.01L3209.54,5188.56L3209.61,5188.67L3211.8,5192.23L3211.87,5192.34L3214.07,5195.91L3214.14,5196.03L3216.32,5199.59L3216.39,5199.69L3218.56,5203.25L3218.63,5203.35L3220.8,5206.91L3220.87,5207.03L3223.03,5210.59L3223.1,5210.7L3225.26,5214.27L3225.33,5214.38L3227.48,5217.94L3227.54,5218.05L3229.69,5221.61L3229.76,5221.73L3231.9,5225.3L3231.96,5225.4L3234.1,5228.97L3234.16,5229.08L3236.29,5232.65L3236.36,5232.76L3238.48,5236.33L3238.55,5236.44L3240.66,5240.02L3240.73,5240.13L3242.84,5243.71L3242.91,5243.82L3245.01,5247.39L3245.08,5247.5L3247.17,5251.07L3247.23,5251.17L3249.32,5254.75L3249.4,5254.88L3251.48,5258.45L3251.55,5258.56L3253.62,5262.14L3253.69,5262.25L3255.76,5265.83L3255.83,5265.94L3257.89,5269.52L3257.96,5269.63L3260.02,5273.2L3260.09,5273.33L3262.14,5276.91L3262.2,5277.02L3264.25,5280.6L3264.31,5280.71L3266.36,5284.29L3266.42,5284.41L3268.46,5287.99L3268.52,5288.11L3270.55,5291.69L3270.61,5291.8L3272.63,5295.38L3272.7,5295.5L3274.72,5299.09L3274.78,5299.21L3276.79,5302.79L3276.85,5302.9L3278.85,5306.48L3278.92,5306.61L3280.92,5310.2L3280.98,5310.31L3282.97,5313.89L3283.04,5314.02L3285.02,5317.6L3285.08,5317.72L3287.06,5321.3L3287.12,5321.42L3289.1,5325.02L3289.16,5325.14L3291.13,5328.73L3291.19,5328.85L3293.14,5332.43L3293.21,5332.55L3295.16,5336.14L3295.22,5336.26L3297.17,5339.85L3297.23,5339.97L3299.17,5343.56L3299.24,5343.69L3301.17,5347.28L3301.23,5347.39L3303.15,5350.98L3303.22,5351.11L3305.14,5354.7L3305.2,5354.82L3307.11,5358.42L3307.18,5358.54L3309.08,5362.13L3309.14,5362.25L3311.04,5365.84L3311.11,5365.97L3313,5369.57L3313.06,5369.69L3314.95,5373.28L3315.01,5373.41L3316.89,5377.01L3316.96,5377.13L3318.83,5380.72L3318.89,5380.84L3320.75,5384.44L3320.82,5384.57L3322.68,5388.17L3322.74,5388.29L3324.59,5391.89L3324.66,5392.02L3326.5,5395.62L3326.57,5395.74L3328.4,5399.33L3328.46,5399.46L3330.3,5403.06L3330.36,5403.19L3332.19,5406.79L3332.26,5406.92L3334.07,5410.52L3334.13,5410.64L3335.94,5414.24L3336.01,5414.36L3337.81,5417.97L3337.88,5418.11L3339.68,5421.7L3339.74,5421.82L3341.53,5425.42L3341.6,5425.56L3343.38,5429.17L3343.44,5429.29L3345.22,5432.89L3345.28,5433.02L3347.05,5436.62L3347.12,5436.76L3348.89,5440.36L3348.95,5440.49L3350.7,5444.09L3350.76,5444.21L3352.51,5447.82L3352.58,5447.96L3354.33,5451.56L3354.39,5451.69L3356.12,5455.29L3356.19,5455.43L3357.91,5459.03L3357.98,5459.15L3359.7,5462.76L3359.77,5462.9L3361.49,5466.51L3361.55,5466.64L3363.25,5470.24L3363.32,5470.37L3365.02,5473.98L3365.09,5474.12L3366.78,5477.72L3366.84,5477.86L3368.53,5481.46L3368.6,5481.6L3370.28,5485.21L3370.34,5485.34L3372.02,5488.95L3372.08,5489.09L3373.75,5492.69L3373.8,5492.82L3375.47,5496.42L3375.53,5496.57L3377.19,5500.18L3377.25,5500.31L3378.89,5503.91L3378.96,5504.06L3380.6,5507.67L3380.66,5507.81L3382.3,5511.41L3382.35,5511.54L3383.98,5515.15L3384.05,5515.29L3385.67,5518.91L3385.73,5519.04L3387.34,5522.65L3387.4,5522.79L3389.01,5526.4L3389.07,5526.53L3390.67,5530.14L3390.73,5530.28L3392.32,5533.89L3392.39,5534.04L3393.97,5537.65L3394.03,5537.78L3395.6,5541.38L3395.67,5541.53L3397.24,5545.14L3397.3,5545.29L3398.86,5548.89L3398.92,5549.03L3400.48,5552.64L3400.55,5552.79L3402.1,5556.41L3402.16,5556.55L3403.7,5560.15L3403.76,5560.29L3405.29,5563.9L3405.36,5564.05L3406.88,5567.66L3406.94,5567.79L3408.46,5571.4L3408.53,5571.56L3410.04,5575.17L3410.1,5575.3L3411.6,5578.91L3411.66,5579.06L3413.17,5582.68L3413.23,5582.83L3414.72,5586.43L3414.77,5586.57L3416.26,5590.18L3416.33,5590.34L3417.81,5593.95L3417.86,5594.1L3419.33,5597.7L3419.39,5597.84L3420.86,5601.45L3420.92,5601.61L3422.37,5605.22L3422.43,5605.36L3423.88,5608.97L3423.94,5609.12L3425.39,5612.74L3425.45,5612.89L3426.88,5616.5L3426.94,5616.64L3428.36,5620.24L3428.42,5620.39L3429.84,5624L3429.91,5624.17L3431.32,5627.78L3431.38,5627.93L3432.78,5631.53L3432.84,5631.67L3434.24,5635.28L3434.3,5635.45L3435.69,5639.06L3435.75,5639.21L3437.13,5642.82L3437.19,5642.97L3438.57,5646.58L3438.62,5646.72L3439.99,5650.33L3440.06,5650.5L3441.42,5654.11L3441.47,5654.26L3442.83,5657.86L3442.89,5658.02L3444.24,5661.63L3444.29,5661.79L3445.63,5665.39L3445.69,5665.54L3447.02,5669.15L3447.08,5669.32L3448.41,5672.92L3448.46,5673.07L3449.78,5676.68L3449.84,5676.85L3451.15,5680.46L3451.21,5680.61L3452.51,5684.21L3452.57,5684.37L3453.86,5687.98L3453.92,5688.14L3455.21,5691.74L3455.26,5691.9L3456.55,5695.51L3456.61,5695.68L3457.88,5699.29L3457.93,5699.44L3459.2,5703.04L3459.25,5703.2L3460.51,5706.8L3460.57,5706.97L3461.82,5710.57L3461.88,5710.75L3463.12,5714.35L3463.17,5714.5L3464.41,5718.11L3464.47,5718.28L3465.69,5721.88L3465.75,5722.03L3466.97,5725.63L3467.03,5725.81L3468.24,5729.41L3468.29,5729.58L3469.5,5733.19L3469.56,5733.36L3470.76,5736.96L3470.81,5737.11L3472,5740.71L3472.05,5740.88L3473.24,5744.49L3473.29,5744.65L3474.47,5748.25L3474.52,5748.42L3475.69,5752.02L3475.74,5752.2L3476.91,5755.8L3476.96,5755.96L3478.11,5759.56L3478.16,5759.73L3479.31,5763.33L3479.36,5763.5L3480.5,5767.11L3480.55,5767.27L3481.68,5770.87L3481.73,5771.03L3482.86,5774.64L3482.91,5774.81L3484.02,5778.41L3484.08,5778.58L3485.18,5782.18L3485.24,5782.35L3486.34,5785.95L3486.39,5786.12L3487.48,5789.71L3487.53,5789.88L3488.61,5793.48L3488.67,5793.67L3489.74,5797.27L3489.79,5797.42L3490.86,5801.01L3490.91,5801.19L3491.97,5804.8L3492.03,5804.98L3493.08,5808.57L3493.13,5808.75L3494.18,5812.35L3494.22,5812.52L3495.26,5816.11L3495.31,5816.27L3496.34,5819.87L3496.39,5820.06L3497.41,5823.65L3497.46,5823.82L3498.47,5827.41L3498.53,5827.6L3499.53,5831.19L3499.58,5831.36L3500.58,5834.95L3500.63,5835.14L3501.62,5838.73L3501.67,5838.91L3502.65,5842.5L3502.7,5842.69L3503.68,5846.28L3503.72,5846.45L3504.69,5850.03L3504.74,5850.22L3505.69,5853.81L3505.74,5853.99L3506.7,5857.58L3506.74,5857.77L3507.69,5861.35L3507.73,5861.54L3508.67,5865.12L3508.71,5865.3L3509.64,5868.88L3509.69,5869.08L3510.61,5872.66L3510.65,5872.84L3511.56,5876.42L3511.61,5876.61L3512.51,5880.19L3512.56,5880.4L3513.46,5883.98L3513.5,5884.15L3514.39,5887.73L3514.43,5887.92L3515.31,5891.5L3515.36,5891.69L3516.23,5895.27L3516.28,5895.48L3517.14,5899.06L3517.18,5899.23L3518.04,5902.8L3518.08,5902.99L3518.93,5906.58L3518.98,5906.78L3519.82,5910.36L3519.86,5910.55L3520.69,5914.12L3520.73,5914.3L3521.55,5917.87L3521.6,5918.08L3522.41,5921.66L3522.46,5921.85L3523.26,5925.43L3523.31,5925.63L3524.11,5929.2L3524.14,5929.38L3524.93,5932.95L3524.98,5933.15L3525.76,5936.73L3525.8,5936.92L3526.57,5940.49L3526.62,5940.68L3527.38,5944.26L3527.43,5944.47L3528.18,5948.03L3528.22,5948.21L3528.97,5951.78L3529.01,5952L3529.76,5955.57L3529.79,5955.76L3530.53,5959.32L3530.57,5959.52L3531.29,5963.09L3531.33,5963.28L3532.05,5966.85L3532.09,5967.06L3532.8,5970.62L3532.83,5970.82L3533.53,5974.39L3533.57,5974.6L3534.26,5978.16L3534.3,5978.35L3534.98,5981.91L3535.02,5982.11L3535.7,5985.67L3535.74,5985.88L3536.4,5989.44L3536.44,5989.64L3537.1,5993.2L3537.14,5993.42L3537.78,5996.98L3537.82,5997.17L3538.46,6000.72L3538.5,6000.93L3539.13,6004.49L3539.17,6004.7L3539.79,6008.26L3539.83,6008.45L3540.44,6012.01L3540.48,6012.24L3541.09,6015.79L3541.12,6015.98L3541.72,6019.53L3541.76,6019.75L3542.35,6023.31L3542.38,6023.51L3542.96,6027.05L3542.99,6027.25L3543.57,6030.8L3543.6,6031.03L3544.17,6034.58L3544.2,6034.79L3544.76,6038.33L3544.79,6038.55L3545.34,6042.1L3545.37,6042.31L3545.91,6045.86L3545.94,6046.07L3546.47,6049.61L3546.5,6049.82L3547.03,6053.36L3547.06,6053.59L3547.57,6057.13L3547.6,6057.34L3548.11,6060.87L3548.14,6061.09L3548.64,6064.63L3548.66,6064.85L3549.15,6068.39L3549.18,6068.61L3549.66,6072.15L3549.69,6072.36L3550.16,6075.9L3550.19,6076.12L3550.65,6079.65L3550.68,6079.85L3551.13,6083.39L3551.16,6083.62L3551.61,6087.16L3551.64,6087.38L3552.07,6090.91L3552.1,6091.13L3552.53,6094.66L3552.55,6094.88L3552.97,6098.41L3553,6098.63L3553.41,6102.16L3553.43,6102.38L3553.83,6105.91L3553.86,6106.15L3554.25,6109.67L3554.28,6109.88L3554.66,6113.4L3554.68,6113.64L3555.06,6117.16L3555.08,6117.37L3555.45,6120.89L3555.47,6121.12L3555.83,6124.65L3555.86,6124.89L3556.2,6128.41L3556.22,6128.62L3556.56,6132.13L3556.59,6132.37L3556.92,6135.89L3556.94,6136.11L3557.26,6139.63L3557.28,6139.85L3557.59,6143.37L3557.62,6143.61L3557.92,6147.12L3557.94,6147.35L3558.23,6150.85L3558.25,6151.08L3558.54,6154.59L3558.56,6154.81L3558.84,6158.33L3558.86,6158.58L3559.12,6162.09L3559.14,6162.31L3559.4,6165.81L3559.42,6166.05L3559.67,6169.55L3559.68,6169.78L3559.93,6173.28L3559.94,6173.53L3560.18,6177.03L3560.19,6177.26L3560.41,6180.76L3560.43,6181L3560.64,6184.5L3560.66,6184.75L3560.87,6188.24L3560.88,6188.47L3561.08,6191.96L3561.09,6192.19L3561.28,6195.69L3561.29,6195.93L3561.47,6199.43L3561.48,6199.67L3561.65,6203.16L3561.66,6203.4L3561.82,6206.88L3561.83,6207.13L3561.98,6210.62L3561.99,6210.86L3562.14,6214.35L3562.15,6214.58L3562.28,6218.07L3562.29,6218.31L3562.41,6221.8L3562.42,6222.05L3562.53,6225.52L3562.54,6225.76L3562.65,6229.24L3562.66,6229.5L3562.75,6232.98L3562.76,6233.22L3562.85,6236.69L3562.85,6236.94L3562.93,6240.41L3562.93,6240.65L3563.01,6244.12L3563.01,6244.39L3563.07,6247.86L3563.07,6248.1L3563.12,6251.56L3563.13,6251.81L3563.17,6255.29L3563.17,6255.55L3563.2,6259.02L3563.2,6259.26L3563.23,6262.72L3563.23,6262.97L3563.24,6266.37L3563.24,6266.48L3563.32,6296.53L3563.4,6326.72L3563.49,6357.13L3563.59,6387.76L3563.69,6418.61L3563.8,6449.67L3563.92,6480.93L3564.04,6512.41L3564.17,6544.09L3564.31,6575.97L3564.45,6608.04L3564.59,6640.31L3564.75,6672.77L3564.91,6705.42L3565.08,6738.25L3565.25,6771.27L3565.43,6804.46L3565.61,6837.83L3565.8,6871.37L3566,6905.07L3566.21,6938.95L3566.42,6972.99L3566.63,7007.19L3566.85,7041.54L3567.08,7076.05L3567.32,7110.71L3567.56,7145.52L3567.81,7180.47L3568.06,7215.56L3568.32,7250.79L3568.58,7286.16L3568.85,7321.65L3569.13,7357.28L3569.41,7393.03L3569.7,7428.91L3570,7464.9L3570.3,7501.02L3570.61,7537.24L3570.92,7573.58L3571.24,7610.02L3571.57,7646.56L3571.9,7683.21L3572.24,7719.96L3572.58,7756.8L3572.93,7793.73L3573.28,7830.76L3573.64,7867.86L3574.01,7905.05L3574.38,7942.32L3574.76,7979.67L3575.14,8017.09L3575.53,8054.58L3575.93,8092.14L3576.33,8129.76L3576.74,8167.44L3577.15,8205.18L3577.57,8242.97L3577.99,8280.82L3578.42,8318.72L3578.86,8356.66L3579.3,8394.64L3579.74,8432.66L3580.2,8470.72L3582.9,8695.69L3209.17,8700.18L3206.46,8475.19L3206.46,8475.18L3206.01,8437.09L3206.01,8437.07L3205.56,8399.01L3205.56,8399L3205.12,8360.98L3205.12,8360.97L3204.68,8322.99L3204.68,8322.97L3204.25,8285.04L3204.25,8285.03L3203.83,8247.14L3203.83,8247.13L3203.41,8209.3L3203.41,8209.28L3203,8171.51L3203,8171.49L3202.59,8133.77L3202.59,8133.76L3202.19,8096.1L3202.19,8096.09L3201.79,8058.49L3201.79,8058.48L3201.4,8020.95L3201.4,8020.94L3201.02,7983.49L3201.02,7983.47L3200.64,7946.09L3200.64,7946.08L3200.27,7908.77L3200.27,7908.75L3199.9,7871.53L3199.9,7871.51L3199.54,7834.37L3199.54,7834.36L3199.18,7797.3L3199.18,7797.28L3198.83,7760.31L3198.83,7760.3L3198.49,7723.42L3198.49,7723.41L3198.15,7686.62L3198.15,7686.61L3197.82,7649.92L3197.82,7649.91L3197.5,7613.33L3197.5,7613.31L3197.18,7576.83L3197.18,7576.82L3196.86,7540.44L3196.86,7540.43L3196.56,7504.17L3196.56,7504.15L3196.25,7468L3196.25,7467.99L3195.96,7431.96L3195.96,7431.94L3195.67,7396.03L3195.67,7396.01L3195.38,7360.22L3195.38,7360.21L3195.11,7324.54L3195.11,7324.53L3194.83,7288.99L3194.83,7288.98L3194.57,7253.57L3194.57,7253.56L3194.31,7218.29L3194.31,7218.28L3194.06,7183.14L3194.06,7183.13L3193.81,7148.14L3193.81,7148.12L3193.57,7113.28L3193.57,7113.26L3193.33,7078.56L3193.33,7078.55L3193.1,7044L3193.1,7043.98L3192.88,7009.59L3192.88,7009.57L3192.66,6975.33L3192.66,6975.32L3192.45,6941.24L3192.45,6941.22L3192.25,6907.31L3192.25,6907.29L3192.05,6873.54L3192.05,6873.52L3191.86,6839.94L3191.86,6839.92L3191.67,6806.51L3191.67,6806.5L3191.49,6773.26L3191.49,6773.24L3191.32,6740.19L3191.32,6740.17L3191.15,6707.29L3191.15,6707.28L3190.99,6674.58L3190.99,6674.57L3190.84,6642.06L3190.84,6642.05L3190.69,6609.73L3190.69,6609.72L3190.55,6577.59L3190.55,6577.57L3190.41,6545.65L3190.41,6545.63L3190.28,6513.9L3190.28,6513.89L3190.16,6482.36L3190.16,6482.35L3190.05,6451.03L3190.05,6451.01L3189.94,6419.9L3189.94,6419.88L3189.83,6388.98L3189.83,6388.97L3189.74,6358.28L3189.74,6358.27L3189.64,6327.8L3189.64,6327.78L3189.56,6297.54L3189.56,6297.52L3189.48,6267.62L3189.47,6264.78L3189.45,6262.06L3189.43,6259.34L3189.4,6256.64L3189.36,6253.9L3189.31,6251.18L3189.26,6248.45L3189.2,6245.71L3189.13,6242.97L3189.05,6240.23L3188.97,6237.49L3188.88,6234.74L3188.78,6231.99L3188.67,6229.23L3188.56,6226.47L3188.44,6223.71L3188.31,6220.94L3188.18,6218.17L3188.04,6215.41L3187.89,6212.63L3187.73,6209.84L3187.57,6207.05L3187.4,6204.28L3187.22,6201.49L3187.03,6198.69L3186.84,6195.9L3186.64,6193.1L3186.43,6190.28L3186.21,6187.48L3185.99,6184.68L3185.76,6181.86L3185.52,6179.03L3185.28,6176.22L3185.03,6173.4L3184.77,6170.56L3184.5,6167.74L3184.23,6164.9L3183.95,6162.06L3183.66,6159.24L3183.36,6156.39L3183.06,6153.53L3182.75,6150.68L3182.43,6147.82L3182.11,6144.98L3181.78,6142.12L3181.43,6139.25L3181.09,6136.38L3180.73,6133.51L3180.37,6130.65L3180,6127.78L3179.63,6124.89L3179.24,6122.01L3178.85,6119.12L3178.45,6116.23L3178.05,6113.35L3177.64,6110.44L3177.22,6107.55L3176.79,6104.65L3176.35,6101.74L3175.91,6098.84L3175.46,6095.94L3175,6093.02L3174.54,6090.11L3174.07,6087.2L3173.59,6084.26L3173.1,6081.34L3172.61,6078.41L3172.11,6075.48L3171.6,6072.55L3171.09,6069.61L3170.57,6066.69L3170.03,6063.73L3169.5,6060.78L3168.95,6057.85L3168.4,6054.9L3167.84,6051.95L3167.28,6048.98L3166.7,6046.02L3166.12,6043.06L3165.53,6040.1L3164.94,6037.14L3164.34,6034.17L3163.72,6031.19L3163.11,6028.22L3162.49,6025.24L3161.85,6022.26L3161.21,6019.28L3160.57,6016.29L3159.91,6013.31L3159.25,6010.31L3158.58,6007.31L3157.91,6004.32L3157.23,6001.34L3156.54,5998.33L3155.84,5995.31L3155.14,5992.31L3154.43,5989.32L3153.7,5986.29L3152.98,5983.28L3152.25,5980.27L3151.51,5977.25L3150.76,5974.22L3150,5971.2L3149.24,5968.18L3148.47,5965.14L3147.7,5962.12L3146.91,5959.09L3146.12,5956.04L3145.32,5953.01L3144.52,5949.97L3143.71,5946.93L3142.88,5943.88L3142.06,5940.83L3141.22,5937.78L3140.38,5934.74L3139.53,5931.68L3138.68,5928.63L3137.82,5925.57L3136.95,5922.5L3136.07,5919.45L3135.18,5916.37L3134.29,5913.3L3133.39,5910.24L3132.49,5907.18L3131.58,5904.09L3130.66,5901.01L3129.73,5897.95L3128.79,5894.86L3127.85,5891.78L3126.91,5888.69L3125.95,5885.61L3124.99,5882.52L3124.02,5879.43L3123.04,5876.34L3122.06,5873.24L3121.06,5870.14L3120.07,5867.05L3119.06,5863.95L3118.05,5860.84L3117.03,5857.74L3116,5854.63L3114.97,5851.52L3113.93,5848.42L3112.89,5845.32L3111.83,5842.2L3110.77,5839.08L3109.7,5835.96L3108.62,5832.84L3107.54,5829.73L3106.45,5826.61L3105.35,5823.47L3104.25,5820.34L3103.14,5817.23L3102.02,5814.1L3100.9,5810.97L3099.76,5807.83L3098.63,5804.69L3097.48,5801.56L3096.33,5798.43L3095.17,5795.29L3094,5792.14L3092.83,5789L3091.65,5785.85L3090.46,5782.71L3089.27,5779.57L3088.07,5776.41L3086.86,5773.26L3085.64,5770.11L3084.43,5766.97L3083.19,5763.8L3081.96,5760.65L3080.72,5757.5L3079.47,5754.33L3078.21,5751.17L3076.95,5748.01L3075.68,5744.85L3074.4,5741.69L3073.12,5738.52L3071.82,5735.34L3070.53,5732.18L3069.22,5729.02L3067.91,5725.84L3066.6,5722.68L3065.27,5719.49L3063.94,5716.32L3062.6,5713.15L3061.25,5709.96L3059.9,5706.79L3058.54,5703.6L3057.18,5700.43L3055.81,5697.25L3054.43,5694.06L3053.04,5690.88L3051.65,5687.69L3050.25,5684.5L3048.85,5681.32L3047.43,5678.13L3046.01,5674.93L3044.58,5671.74L3043.15,5668.56L3041.71,5665.36L3040.26,5662.16L3038.82,5658.97L3037.35,5655.77L3035.89,5652.57L3034.42,5649.38L3032.93,5646.17L3031.45,5642.97L3029.95,5639.77L3028.46,5636.57L3026.95,5633.37L3025.44,5630.17L3023.92,5626.96L3022.39,5623.76L3020.86,5620.56L3019.32,5617.34L3017.77,5614.13L3016.22,5610.93L3014.66,5607.72L3013.09,5604.5L3011.52,5601.29L3009.95,5598.09L3008.36,5594.86L3006.77,5591.66L3005.17,5588.44L3003.57,5585.23L3001.96,5582.02L3000.34,5578.79L2998.71,5575.57L2997.08,5572.37L2995.45,5569.15L2993.8,5565.92L2992.15,5562.7L2990.49,5559.48L2988.83,5556.27L2987.16,5553.05L2985.48,5549.82L2983.8,5546.6L2982.11,5543.38L2980.42,5540.16L2978.72,5536.94L2977.01,5533.71L2975.29,5530.48L2973.58,5527.27L2971.85,5524.04L2970.11,5520.81L2968.37,5517.59L2966.63,5514.36L2964.87,5511.13L2963.11,5507.9L2961.35,5504.67L2959.58,5501.45L2957.8,5498.22L2956.01,5494.99L2954.22,5491.76L2952.43,5488.54L2950.62,5485.31L2948.81,5482.07L2947,5478.85L2945.18,5475.62L2943.35,5472.39L2941.51,5469.16L2939.68,5465.93L2937.82,5462.69L2935.97,5459.47L2934.12,5456.24L2932.25,5453L2930.38,5449.77L2928.5,5446.54L2926.62,5443.31L2924.73,5440.09L2922.83,5436.84L2920.92,5433.61L2919.02,5430.38L2917.11,5427.16L2915.18,5423.92L2913.26,5420.69L2911.32,5417.46L2909.38,5414.23L2907.43,5410.99L2905.48,5407.76L2903.53,5404.53L2901.56,5401.3L2899.59,5398.07L2897.61,5394.83L2895.63,5391.6L2893.65,5388.38L2891.66,5385.16L2889.66,5381.92L2887.64,5378.68L2885.64,5375.45L2883.62,5372.23L2881.59,5369L2879.57,5365.77L2877.53,5362.55L2875.48,5359.31L2873.44,5356.08L2871.39,5352.86L2869.32,5349.62L2867.26,5346.4L2865.19,5343.18L2863.12,5339.95L2861.03,5336.72L2858.94,5333.49L2856.85,5330.27L2854.74,5327.04L2852.64,5323.82L2850.52,5320.58L2848.4,5317.36L2846.28,5314.15L2844.15,5310.92L2842.02,5307.7L2839.87,5304.47L2837.73,5301.25L2835.57,5298.03L2833.41,5294.81L2831.25,5291.59L2829.08,5288.37L2826.9,5285.15L2824.72,5281.93L2822.53,5278.71L2820.34,5275.5L2818.14,5272.28L2815.93,5269.06L2813.73,5265.85L2811.51,5262.64L2809.28,5259.42L2807.05,5256.2L2804.82,5252.99L2802.59,5249.78L2800.34,5246.57L2798.09,5243.36L2795.83,5240.15L2793.57,5236.94L2791.3,5233.74L2789.03,5230.52L2786.75,5227.32L2784.47,5224.11L2782.18,5220.91L2779.88,5217.71L2777.58,5214.5L2775.27,5211.3L2772.96,5208.1L2770.64,5204.9L2768.32,5201.69L2765.99,5198.49L2763.66,5195.3L2761.32,5192.1L2758.97,5188.9L2756.62,5185.71L2754.27,5182.51L2751.91,5179.32L2749.54,5176.13L2747.17,5172.94L2744.79,5169.75L2742.4,5166.56L2740.02,5163.37L2737.62,5160.18L2735.22,5157L2732.82,5153.81L2730.41,5150.63L2727.99,5147.44L2725.57,5144.26L2723.14,5141.08L2720.71,5137.9L2718.28,5134.73L2715.83,5131.55L2713.38,5128.37L2710.93,5125.2L2708.47,5122.02L2706.01,5118.85L2703.54,5115.68L2701.06,5112.51L2698.58,5109.34L2696.1,5106.17L2693.61,5103.01L2691.11,5099.84L2688.61,5096.68L2686.11,5093.52L2683.6,5090.36L2681.08,5087.2L2678.56,5084.04L2676.03,5080.88L2673.51,5077.74L2670.96,5074.57L2668.42,5071.42L2665.87,5068.27L2663.32,5065.12L2660.77,5061.98L2658.2,5058.82L2655.63,5055.68L2653.06,5052.54L2650.49,5049.4L2647.9,5046.25L2645.31,5043.12L2642.72,5039.98L2640.12,5036.84L2637.51,5033.7L2634.9,5030.57L2632.29,5027.44L2629.68,5024.32L2627.05,5021.19L2624.43,5018.06L2621.79,5014.93L2619.16,5011.81L2616.51,5008.69L2613.86,5005.57L2611.21,5002.45L2608.55,4999.33L2605.89,4996.22L2603.22,4993.11L2600.55,4989.99L2597.87,4986.89L2595.19,4983.78L2592.49,4980.66L2589.8,4977.56L2587.11,4974.46L2584.41,4971.36L2581.7,4968.27L2578.99,4965.16L2576.27,4962.07L2573.55,4958.98L2570.83,4955.89L2568.09,4952.79L2565.35,4949.7L2562.62,4946.62L2559.87,4943.54L2557.12,4940.45L2554.36,4937.37L2551.6,4934.29L2548.84,4931.22L2546.07,4928.14L2543.29,4925.07L2540.52,4922L2537.74,4918.94L2534.95,4915.87L2532.15,4912.8L2529.35,4909.74L2526.55,4906.68L2523.74,4903.62L2520.93,4900.56L2518.12,4897.51L2515.3,4894.46L2512.47,4891.41L2509.64,4888.36L2506.8,4885.31L2503.97,4882.27L2501.13,4879.23L2498.27,4876.19L2495.42,4873.15L2492.56,4870.12L2489.71,4867.09L2486.84,4864.06L2483.97,4861.03L2481.09,4858L2478.21,4854.97L2475.33,4851.96L2472.43,4848.94L2469.54,4845.91L2466.65,4842.91L2463.74,4839.9L2460.83,4836.88L2457.92,4833.87L2455.01,4830.87L2452.09,4827.87L2449.16,4824.86L2446.24,4821.87L2443.3,4818.87L2440.36,4815.87L2437.42,4812.88L2434.48,4809.9L2431.53,4806.91L2428.57,4803.93L2425.61,4800.95L2422.64,4797.97L2419.68,4794.99L2416.71,4792.02L2413.72,4789.05L2410.74,4786.07L2407.76,4783.11L2404.78,4780.15L2401.78,4777.19L2398.78,4774.23L2395.78,4771.27L2392.77,4768.32L2389.76,4765.37L2386.74,4762.42L2383.73,4759.48L2380.7,4756.53L2377.68,4753.59L2374.64,4750.66L2371.61,4747.72L2368.57,4744.79L2365.52,4741.86L2362.47,4738.93L2359.43,4736.01L2356.37,4733.09L2353.3,4730.16L2350.24,4727.26L2347.17,4724.34L2344.1,4721.43L2341.02,4718.52L2337.94,4715.62L2334.86,4712.71L2331.77,4709.82L2328.68,4706.93L2325.58,4704.03L2322.47,4701.13L2319.37,4698.25L2316.26,4695.36L2313.15,4692.48L2310.03,4689.6L2306.91,4686.73L2303.79,4683.86L2300.66,4680.99L2297.53,4678.12L2294.38,4675.25L2291.25,4672.39L2288.11,4669.54L2284.95,4666.68L2281.8,4663.82L2278.65,4660.98L2275.49,4658.13L2272.33,4655.29L2269.16,4652.45L2265.98,4649.61L2262.81,4646.77L2259.63,4643.95L2256.45,4641.12L2253.26,4638.29L2250.07,4635.47L2246.88,4632.65L2243.67,4629.84L2240.47,4627.02L2237.27,4624.21L2234.06,4621.41L2230.84,4618.6L2227.63,4615.81L2224.41,4613.01L2221.18,4610.22L2217.95,4607.42L2214.73,4604.65L2211.49,4601.86L2208.25,4599.08L2205.01,4596.3L2201.76,4593.53L2198.51,4590.76L2195.26,4587.99L2192.01,4585.23L2188.74,4582.47L2185.48,4579.71L2182.21,4576.96L2178.94,4574.21L2175.66,4571.46L2172.38,4568.72L2169.1,4565.98L2165.82,4563.24L2162.54,4560.51L2159.24,4557.78L2155.94,4555.05L2152.64,4552.33L2149.34,4549.61L2146.03,4546.89L2142.72,4544.18L2139.41,4541.47L2136.09,4538.77L2132.78,4536.07L2129.45,4533.37L2126.12,4530.67L2122.8,4527.98L2119.46,4525.29L2116.12,4522.61L2112.78,4519.93L2109.44,4517.25L2106.09,4514.58L2102.74,4511.91L2099.39,4509.25L2096.03,4506.59L2092.66,4503.92L2089.3,4501.27L2085.94,4498.62L2082.56,4495.97L2079.19,4493.33L2075.82,4490.69L2072.43,4488.05L2069.05,4485.42L2065.67,4482.79L2062.28,4480.16L2058.88,4477.55L2055.49,4474.93L2052.09,4472.31L2048.68,4469.7L2045.28,4467.1L2041.87,4464.5L2038.45,4461.89L2035.04,4459.3L2031.62,4456.71L2028.2,4454.12L2024.78,4451.54L2021.35,4448.96L2017.91,4446.38L2014.48,4443.81L2011.05,4441.25L2007.61,4438.68L2004.16,4436.12L2000.72,4433.57L1997.27,4431.02L1993.82,4428.47L1990.36,4425.93L1986.9,4423.39L1983.44,4420.85L1979.97,4418.32L1976.51,4415.79L1973.04,4413.27L1969.57,4410.75L1966.09,4408.23L1962.61,4405.72L1959.12,4403.21L1955.64,4400.71L1952.16,4398.22L1948.66,4395.72L1945.17,4393.23L1941.68,4390.74L1938.18,4388.26L1934.67,4385.78L1931.17,4383.31L1927.66,4380.84L1924.15,4378.37L1920.63,4375.91L1917.12,4373.45L1913.61,4371.01L1910.08,4368.55L1906.56,4366.11L1903.02,4363.66L1899.49,4361.23L1895.97,4358.8L1892.43,4356.37L1888.89,4353.95L1885.35,4351.53L1881.81,4349.12L1878.26,4346.71L1874.71,4344.3L1871.16,4341.9L1867.6,4339.5L1864.05,4337.11L1860.49,4334.72L1856.92,4332.34L1853.36,4329.96L1849.79,4327.58L1846.22,4325.21L1842.65,4322.84L1839.08,4320.49L1835.5,4318.13L1831.91,4315.77L1828.33,4313.43L1824.74,4311.08L1821.15,4308.74L1817.57,4306.41L1813.98,4304.08L1810.38,4301.75L1806.78,4299.43L1803.18,4297.12L1799.57,4294.8L1795.97,4292.5L1792.36,4290.2L1788.75,4287.9L1785.13,4285.6L1781.52,4283.31L1777.91,4281.03L1774.29,4278.75L1770.66,4276.48L1767.04,4274.2L1763.41,4271.94L1759.78,4269.68L1756.15,4267.42L1752.51,4265.17L1748.88,4262.92L1745.24,4260.68L1741.6,4258.44L1737.96,4256.21L1734.31,4253.99L1730.66,4251.76L1727.01,4249.55L1723.35,4247.33L1719.7,4245.12L1716.05,4242.92L1712.38,4240.72L1708.72,4238.52L1705.06,4236.34L1701.39,4234.15L1697.72,4231.97L1694.05,4229.8L1690.38,4227.63L1686.7,4225.46L1683.03,4223.3L1679.35,4221.15L1675.67,4219L1671.99,4216.86L1668.3,4214.71L1664.61,4212.58L1660.92,4210.45L1657.23,4208.32L1653.54,4206.2L1649.84,4204.09L1646.14,4201.98L1642.44,4199.87L1638.74,4197.77L1635.04,4195.68L1631.34,4193.59L1627.62,4191.5L1623.91,4189.42L1620.21,4187.35L1616.49,4185.28L1612.77,4183.21L1609.06,4181.15L1605.34,4179.1L1601.62,4177.05L1597.89,4175.01L1594.16,4172.97L1590.44,4170.93L1586.71,4168.9L1582.97,4166.88L1579.24,4164.86L1575.51,4162.85L1571.77,4160.84L1568.03,4158.84L1564.29,4156.84L1560.55,4154.85L1556.81,4152.86L1553.06,4150.88L1549.31,4148.9L1545.57,4146.93L1541.81,4144.97L1538.06,4143.01L1534.31,4141.05L1530.55,4139.1L1526.79,4137.16L1523.03,4135.22L1519.27,4133.29L1515.51,4131.36L1511.74,4129.44L1507.98,4127.52L1504.21,4125.61L1500.44,4123.7L1496.67,4121.8L1492.89,4119.9L1489.12,4118.01L1485.35,4116.13L1481.57,4114.25L1477.79,4112.37L1474.01,4110.5L1470.23,4108.64L1466.44,4106.78L1462.65,4104.93L1458.87,4103.09L1455.08,4101.24L1451.29,4099.41L1447.5,4097.58L1443.7,4095.76L1439.91,4093.94L1436.11,4092.12L1432.32,4090.32L1428.52,4088.51L1424.72,4086.72L1420.91,4084.93L1417.11,4083.14L1413.31,4081.36L1409.5,4079.59L1405.69,4077.82L1401.88,4076.06L1398.07,4074.3L1394.26,4072.55L1390.45,4070.81L1386.63,4069.07L1382.82,4067.33L1379,4065.6L1375.18,4063.88L1371.36,4062.16L1367.54,4060.45L1363.72,4058.75L1359.9,4057.05L1356.07,4055.36L1352.25,4053.67L1348.42,4051.99L1344.59,4050.31L1340.76,4048.64L1336.93,4046.97L1333.1,4045.32L1329.27,4043.66L1325.43,4042.02L1321.6,4040.38L1317.76,4038.74L1313.92,4037.11L1310.08,4035.49L1306.24,4033.87L1302.4,4032.26L1298.56,4030.65L1294.71,4029.05L1290.87,4027.46L1287.03,4025.87L1283.18,4024.29L1279.33,4022.71L1275.48,4021.14L1271.63,4019.58L1267.78,4018.02L1263.93,4016.47L1260.08,4014.92L1256.23,4013.39L1252.37,4011.85L1248.52,4010.32L1244.66,4008.8L1240.8,4007.29L1236.94,4005.78L1233.08,4004.27L1229.22,4002.78L1225.36,4001.29L1221.5,3999.8L1217.63,3998.32L1213.77,3996.85L1209.91,3995.38L1206.04,3993.92L1202.17,3992.47L1198.31,3991.02L1194.44,3989.58L1190.57,3988.14L1186.7,3986.71L1182.83,3985.29L1178.95,3983.87L1175.09,3982.46L1171.21,3981.06L1167.34,3979.66L1163.46,3978.26L1159.59,3976.88L1155.71,3975.5L1151.84,3974.13L1147.96,3972.76L1144.08,3971.4L1140.2,3970.04L1136.33,3968.7L1132.44,3967.35L1128.56,3966.02L1124.68,3964.69L1120.8,3963.37L1116.92,3962.05L1113.03,3960.74L1109.15,3959.44L1105.27,3958.14L1101.38,3956.85L1097.5,3955.56L1093.61,3954.29L1089.72,3953.01L1085.84,3951.75L1081.95,3950.49L1078.06,3949.24L1074.17,3947.99L1070.28,3946.75L1066.39,3945.52L1062.5,3944.29L1058.61,3943.08L1054.72,3941.86L1050.83,3940.65L1046.94,3939.45L1043.05,3938.26L1039.15,3937.07L1035.26,3935.89L1031.36,3934.72L1027.47,3933.55L1023.58,3932.39L1019.68,3931.24L1015.78,3930.09L1011.89,3928.95L1007.99,3927.81L1004.1,3926.68L1000.2,3925.56L996.303,3924.45L992.408,3923.34L988.509,3922.24L984.609,3921.14L980.714,3920.06L976.816,3918.98L972.916,3917.9L969.018,3916.83L965.118,3915.77L961.219,3914.72L957.319,3913.67L953.421,3912.63L949.521,3911.59L945.619,3910.57L941.718,3909.55L937.818,3908.53L933.92,3907.52L930.019,3906.52L926.116,3905.53L922.216,3904.54L918.316,3903.56L914.414,3902.59L910.515,3901.62L906.612,3900.66L902.708,3899.71L898.809,3898.76L894.908,3897.83L891.004,3896.89L887.104,3895.97L883.202,3895.05L879.299,3894.14L875.398,3893.23L871.497,3892.34L867.595,3891.45L863.693,3890.56L859.793,3889.68L855.891,3888.81L851.988,3887.95L848.086,3887.09L844.186,3886.24L840.284,3885.4L836.383,3884.57L832.481,3883.74L828.579,3882.92L824.68,3882.1L820.779,3881.3L816.877,3880.5L812.978,3879.7L809.078,3878.92L805.176,3878.14L801.276,3877.37L797.376,3876.6L793.476,3875.84L789.578,3875.09L785.678,3874.35L781.779,3873.61L777.878,3872.88L773.979,3872.16L770.083,3871.44L766.185,3870.74L762.286,3870.03L758.388,3869.34L754.493,3868.65L750.595,3867.97L746.698,3867.3L742.801,3866.64L738.904,3865.98L735.008,3865.33L731.112,3864.68L727.218,3864.05L723.325,3863.42L719.429,3862.8L715.536,3862.18L711.643,3861.57L707.747,3860.97L703.855,3860.38L699.965,3859.79L696.071,3859.21L692.177,3858.64L688.286,3858.08L684.398,3857.52L680.507,3856.97L676.615,3856.43L672.726,3855.89L668.838,3855.37L664.949,3854.85L661.063,3854.33L657.175,3853.83L653.286,3853.33L649.402,3852.84L645.516,3852.35L641.628,3851.88L637.745,3851.41L633.862,3850.95L629.976,3850.49L626.093,3850.05L622.21,3849.61L618.329,3849.18L614.449,3848.75L610.567,3848.33L606.687,3847.92L602.807,3847.52L598.927,3847.13L595.048,3846.74L591.171,3846.36L587.295,3845.99L583.418,3845.62L579.544,3845.26L575.668,3844.91L571.793,3844.57L567.92,3844.24L564.047,3843.91L560.175,3843.59L556.302,3843.28L552.433,3842.97L548.563,3842.68L544.691,3842.39L540.825,3842.1L536.957,3841.83L533.089,3841.56L529.223,3841.3L525.358,3841.05L521.494,3840.81L517.627,3840.57L513.765,3840.34L509.904,3840.12L506.043,3839.91L502.183,3839.7L498.32,3839.5L494.463,3839.31L490.606,3839.13L486.747,3838.95L482.89,3838.78L479.035,3838.62L475.179,3838.47L471.327,3838.33L467.472,3838.19L463.621,3838.06L459.772,3837.94L455.919,3837.82L452.069,3837.72L448.224,3837.62L444.375,3837.53L440.529,3837.45L436.685,3837.37L432.838,3837.3L428.995,3837.24L425.153,3837.19L421.31,3837.15L417.342,3837.11L412.276,3837.06L412.215,3837.06L406.869,3837.01L406.813,3837.01L401.286,3836.96L401.236,3836.96L395.518,3836.9L395.448,3836.89L383.519,3836.76L383.437,3836.76L370.812,3836.6L370.742,3836.6L357.453,3836.43L357.392,3836.43L343.462,3836.24L343.408,3836.24L328.86,3836.03L328.812,3836.03L313.669,3835.81L313.626,3835.81L297.911,3835.57L297.873,3835.57L281.609,3835.31L281.574,3835.31L264.785,3835.05L264.754,3835.05L247.463,3834.76L247.435,3834.76L229.665,3834.47L229.64,3834.47L211.416,3834.16L211.394,3834.16L192.74,3833.84L192.719,3833.84L173.657,3833.51L173.638,3833.51L154.193,3833.17L154.177,3833.17L134.373,3832.82L134.357,3832.82L114.218,3832.45L114.204,3832.45L93.75,3832.09L93.731,3832.09L51.995,3831.32L51.974,3831.32L9.275,3830.53L9.258,3830.53L-34.209,3829.72L-34.222,3829.72L-78.264,3828.89L-78.274,3828.89L-122.7,3828.05L-122.707,3828.05L-167.325,3827.21L-167.329,3827.21L-256.371,3825.51L-300.408,3824.68L-343.866,3823.85L-386.551,3823.05L-428.27,3822.26L-468.831,3821.51L-508.048,3820.79L-527.079,3820.45L-545.705,3820.11L-563.897,3819.79L-581.628,3819.48L-598.876,3819.18L-615.615,3818.89L-631.821,3818.61L-647.468,3818.36L-662.532,3818.11L-676.988,3817.88L-690.808,3817.67L-703.969,3817.47L-716.443,3817.29L-728.201,3817.13L-739.217,3816.99L-936.429,3814.63L-931.953,3440.9L-734.614,3443.26Z" style="fill:rgb(20,169,12);fill-opacity:0.698039;"/>
        </g>
    </g>
</svg>
