<?xml version="1.0" standalone="no"?>
<!DOCTYPE svg PUBLIC "-//W3C//DTD SVG 1.1//EN" "http://www.w3.org/Graphics/SVG/1.1/DTD/svg11.dtd">
<svg width="100%" height="100%" viewBox="0 0 3677 2304" version="1.1" xmlns="http://www.w3.org/2000/svg" xmlns:xlink="http://www.w3.org/1999/xlink" xml:space="preserve" style="fill-rule:evenodd;clip-rule:evenodd;stroke-linejoin:round;stroke-miterlimit:1;">
    <g transform="matrix(1,0,0,1,-23688,-0)">
        <g id="parking-7" transform="matrix(2.87248,0,0,2.25,23688,6.25278e-13)">
            <g transform="matrix(2.08676,0,0,5.15206,-116.151,-2349.03)">
                <g transform="matrix(0.516355,0,0,0.342776,217.275,407.725)">
                    <rect x="676.756" y="269.252" width="4.487" height="305.495" style="fill:black;"/>
                </g>
                <g transform="matrix(0.516355,0,0,0.342776,167.974,407.725)">
                    <rect x="676.757" y="269.252" width="4.487" height="305.495" style="fill:black;"/>
                </g>
                <g transform="matrix(-2.3627e-16,-0.975331,1.46923,-1.56845e-16,-273.988,1214.63)">
                    <rect x="678.386" y="270.212" width="1.228" height="303.577" style="fill:black;"/>
                </g>
                <g transform="matrix(0.516355,0,0,0.342776,118.674,407.725)">
                    <rect x="676.756" y="269.252" width="4.487" height="305.495" style="fill:black;"/>
                </g>
                <g transform="matrix(0.516355,0,0,0.342776,69.3729,407.725)">
                    <rect x="676.756" y="269.252" width="4.487" height="305.495" style="fill:black;"/>
                </g>
                <g transform="matrix(0.516355,0,0,0.342776,20.0721,407.725)">
                    <rect x="676.756" y="269.252" width="4.487" height="305.495" style="fill:black;"/>
                </g>
                <g transform="matrix(0.516355,0,0,0.342776,-29.2287,407.725)">
                    <rect x="676.757" y="269.252" width="4.487" height="305.495" style="fill:black;"/>
                </g>
                <g transform="matrix(0.516355,0,0,0.342776,-78.5295,407.725)">
                    <rect x="676.756" y="269.252" width="4.487" height="305.495" style="fill:black;"/>
                </g>
                <g transform="matrix(0.516355,0,0,0.342776,-127.83,407.725)">
                    <rect x="676.756" y="269.252" width="4.487" height="305.495" style="fill:black;"/>
                </g>
                <g transform="matrix(0.516355,0,0,0.342776,-177.131,407.725)">
                    <rect x="676.756" y="269.252" width="4.487" height="305.495" style="fill:black;"/>
                </g>
                <g transform="matrix(0.516355,0,0,0.342776,-226.432,407.725)">
                    <rect x="676.756" y="269.252" width="4.487" height="305.495" style="fill:black;"/>
                </g>
            </g>
            <g transform="matrix(0.126249,-3.77701e-17,-6.84244e-16,0.161177,895.216,-71.1325)">
                <path d="M1097.11,3478.42C1097.11,3453.29 1076.71,3432.89 1051.58,3432.89L960.528,3432.89C935.4,3432.89 915,3453.29 915,3478.42L915,3569.47C915,3594.6 935.4,3615 960.528,3615L1051.58,3615C1076.71,3615 1097.11,3594.6 1097.11,3569.47L1097.11,3478.42Z" style="fill:rgb(23,16,252);"/>
            </g>
            <g transform="matrix(0.126249,-3.77701e-17,-6.84244e-16,0.161177,633.59,-71.1325)">
                <path d="M1097.11,3478.42C1097.11,3453.29 1076.71,3432.89 1051.58,3432.89L960.528,3432.89C935.4,3432.89 915,3453.29 915,3478.42L915,3569.47C915,3594.6 935.4,3615 960.528,3615L1051.58,3615C1076.71,3615 1097.11,3594.6 1097.11,3569.47L1097.11,3478.42Z" style="fill:rgb(23,16,252);"/>
            </g>
            <g transform="matrix(0.330591,0,0,0.422052,-6522.97,21.6084)">
                <path d="M20163.7,965L22823.3,965" style="fill:none;stroke-width:105.31px;stroke:rgb(20,169,12);stroke-opacity:0.698039;"/>
            </g>
            <g transform="matrix(3.46907e-17,0.156342,-0.188917,6.83216e-17,304.965,-2996.88)">
                <path d="M21912,965L22052,1258L21772,1258L21912,965Z" style="fill:black;"/>
            </g>
        </g>
    </g>
</svg>
